<?xml version="1.0" encoding="utf-8" standalone="no"?>
<!DOCTYPE svg PUBLIC "-//W3C//DTD SVG 1.1//EN"
  "http://www.w3.org/Graphics/SVG/1.1/DTD/svg11.dtd">
<!-- Created with matplotlib (http://matplotlib.org/) -->
<svg height="360pt" version="1.1" viewBox="0 0 504 360" width="504pt" xmlns="http://www.w3.org/2000/svg" xmlns:xlink="http://www.w3.org/1999/xlink">
 <defs>
  <style type="text/css">
*{stroke-linecap:butt;stroke-linejoin:round;}
  </style>
 </defs>
 <g id="figure_1">
  <g id="patch_1">
   <path d="M 0 360 
L 504 360 
L 504 0 
L 0 0 
z
" style="fill:#ffffff;"/>
  </g>
  <g id="axes_1">
   <g id="patch_2">
    <path d="M 53.025 309.1 
L 489.7 309.1 
L 489.7 28.8 
L 53.025 28.8 
z
" style="fill:#ffffff;"/>
   </g>
   <g id="matplotlib.axis_1">
    <g id="xtick_1">
     <g id="line2d_1">
      <path clip-path="url(#pe15f9dccdc)" d="M 72.873864 309.1 
L 72.873864 28.8 
" style="fill:none;stroke:#808080;stroke-linecap:square;stroke-width:0.8;"/>
     </g>
     <g id="line2d_2">
      <defs>
       <path d="M 0 0 
L 0 3.5 
" id="mf5a2d5be7e" style="stroke:#000000;stroke-width:0.8;"/>
      </defs>
      <g>
       <use style="stroke:#000000;stroke-width:0.8;" x="72.873864" xlink:href="#mf5a2d5be7e" y="309.1"/>
      </g>
     </g>
     <g id="text_1">
      <!-- 0 -->
      <defs>
       <path d="M 31.78125 66.40625 
Q 24.171875 66.40625 20.328125 58.90625 
Q 16.5 51.421875 16.5 36.375 
Q 16.5 21.390625 20.328125 13.890625 
Q 24.171875 6.390625 31.78125 6.390625 
Q 39.453125 6.390625 43.28125 13.890625 
Q 47.125 21.390625 47.125 36.375 
Q 47.125 51.421875 43.28125 58.90625 
Q 39.453125 66.40625 31.78125 66.40625 
z
M 31.78125 74.21875 
Q 44.046875 74.21875 50.515625 64.515625 
Q 56.984375 54.828125 56.984375 36.375 
Q 56.984375 17.96875 50.515625 8.265625 
Q 44.046875 -1.421875 31.78125 -1.421875 
Q 19.53125 -1.421875 13.0625 8.265625 
Q 6.59375 17.96875 6.59375 36.375 
Q 6.59375 54.828125 13.0625 64.515625 
Q 19.53125 74.21875 31.78125 74.21875 
z
" id="DejaVuSans-30"/>
      </defs>
      <g transform="translate(69.056364 325.218125)scale(0.12 -0.12)">
       <use xlink:href="#DejaVuSans-30"/>
      </g>
     </g>
    </g>
    <g id="xtick_2">
     <g id="line2d_3">
      <path clip-path="url(#pe15f9dccdc)" d="M 128.962841 309.1 
L 128.962841 28.8 
" style="fill:none;stroke:#808080;stroke-linecap:square;stroke-width:0.8;"/>
     </g>
     <g id="line2d_4">
      <g>
       <use style="stroke:#000000;stroke-width:0.8;" x="128.962841" xlink:href="#mf5a2d5be7e" y="309.1"/>
      </g>
     </g>
     <g id="text_2">
      <!-- 25 -->
      <defs>
       <path d="M 19.1875 8.296875 
L 53.609375 8.296875 
L 53.609375 0 
L 7.328125 0 
L 7.328125 8.296875 
Q 12.9375 14.109375 22.625 23.890625 
Q 32.328125 33.6875 34.8125 36.53125 
Q 39.546875 41.84375 41.421875 45.53125 
Q 43.3125 49.21875 43.3125 52.78125 
Q 43.3125 58.59375 39.234375 62.25 
Q 35.15625 65.921875 28.609375 65.921875 
Q 23.96875 65.921875 18.8125 64.3125 
Q 13.671875 62.703125 7.8125 59.421875 
L 7.8125 69.390625 
Q 13.765625 71.78125 18.9375 73 
Q 24.125 74.21875 28.421875 74.21875 
Q 39.75 74.21875 46.484375 68.546875 
Q 53.21875 62.890625 53.21875 53.421875 
Q 53.21875 48.921875 51.53125 44.890625 
Q 49.859375 40.875 45.40625 35.40625 
Q 44.1875 33.984375 37.640625 27.21875 
Q 31.109375 20.453125 19.1875 8.296875 
z
" id="DejaVuSans-32"/>
       <path d="M 10.796875 72.90625 
L 49.515625 72.90625 
L 49.515625 64.59375 
L 19.828125 64.59375 
L 19.828125 46.734375 
Q 21.96875 47.46875 24.109375 47.828125 
Q 26.265625 48.1875 28.421875 48.1875 
Q 40.625 48.1875 47.75 41.5 
Q 54.890625 34.8125 54.890625 23.390625 
Q 54.890625 11.625 47.5625 5.09375 
Q 40.234375 -1.421875 26.90625 -1.421875 
Q 22.3125 -1.421875 17.546875 -0.640625 
Q 12.796875 0.140625 7.71875 1.703125 
L 7.71875 11.625 
Q 12.109375 9.234375 16.796875 8.0625 
Q 21.484375 6.890625 26.703125 6.890625 
Q 35.15625 6.890625 40.078125 11.328125 
Q 45.015625 15.765625 45.015625 23.390625 
Q 45.015625 31 40.078125 35.4375 
Q 35.15625 39.890625 26.703125 39.890625 
Q 22.75 39.890625 18.8125 39.015625 
Q 14.890625 38.140625 10.796875 36.28125 
z
" id="DejaVuSans-35"/>
      </defs>
      <g transform="translate(121.327841 325.218125)scale(0.12 -0.12)">
       <use xlink:href="#DejaVuSans-32"/>
       <use x="63.623047" xlink:href="#DejaVuSans-35"/>
      </g>
     </g>
    </g>
    <g id="xtick_3">
     <g id="line2d_5">
      <path clip-path="url(#pe15f9dccdc)" d="M 185.051818 309.1 
L 185.051818 28.8 
" style="fill:none;stroke:#808080;stroke-linecap:square;stroke-width:0.8;"/>
     </g>
     <g id="line2d_6">
      <g>
       <use style="stroke:#000000;stroke-width:0.8;" x="185.051818" xlink:href="#mf5a2d5be7e" y="309.1"/>
      </g>
     </g>
     <g id="text_3">
      <!-- 50 -->
      <g transform="translate(177.416818 325.218125)scale(0.12 -0.12)">
       <use xlink:href="#DejaVuSans-35"/>
       <use x="63.623047" xlink:href="#DejaVuSans-30"/>
      </g>
     </g>
    </g>
    <g id="xtick_4">
     <g id="line2d_7">
      <path clip-path="url(#pe15f9dccdc)" d="M 241.140796 309.1 
L 241.140796 28.8 
" style="fill:none;stroke:#808080;stroke-linecap:square;stroke-width:0.8;"/>
     </g>
     <g id="line2d_8">
      <g>
       <use style="stroke:#000000;stroke-width:0.8;" x="241.140796" xlink:href="#mf5a2d5be7e" y="309.1"/>
      </g>
     </g>
     <g id="text_4">
      <!-- 75 -->
      <defs>
       <path d="M 8.203125 72.90625 
L 55.078125 72.90625 
L 55.078125 68.703125 
L 28.609375 0 
L 18.3125 0 
L 43.21875 64.59375 
L 8.203125 64.59375 
z
" id="DejaVuSans-37"/>
      </defs>
      <g transform="translate(233.505796 325.218125)scale(0.12 -0.12)">
       <use xlink:href="#DejaVuSans-37"/>
       <use x="63.623047" xlink:href="#DejaVuSans-35"/>
      </g>
     </g>
    </g>
    <g id="xtick_5">
     <g id="line2d_9">
      <path clip-path="url(#pe15f9dccdc)" d="M 297.229773 309.1 
L 297.229773 28.8 
" style="fill:none;stroke:#808080;stroke-linecap:square;stroke-width:0.8;"/>
     </g>
     <g id="line2d_10">
      <g>
       <use style="stroke:#000000;stroke-width:0.8;" x="297.229773" xlink:href="#mf5a2d5be7e" y="309.1"/>
      </g>
     </g>
     <g id="text_5">
      <!-- 100 -->
      <defs>
       <path d="M 12.40625 8.296875 
L 28.515625 8.296875 
L 28.515625 63.921875 
L 10.984375 60.40625 
L 10.984375 69.390625 
L 28.421875 72.90625 
L 38.28125 72.90625 
L 38.28125 8.296875 
L 54.390625 8.296875 
L 54.390625 0 
L 12.40625 0 
z
" id="DejaVuSans-31"/>
      </defs>
      <g transform="translate(285.777273 325.218125)scale(0.12 -0.12)">
       <use xlink:href="#DejaVuSans-31"/>
       <use x="63.623047" xlink:href="#DejaVuSans-30"/>
       <use x="127.246094" xlink:href="#DejaVuSans-30"/>
      </g>
     </g>
    </g>
    <g id="xtick_6">
     <g id="line2d_11">
      <path clip-path="url(#pe15f9dccdc)" d="M 353.31875 309.1 
L 353.31875 28.8 
" style="fill:none;stroke:#808080;stroke-linecap:square;stroke-width:0.8;"/>
     </g>
     <g id="line2d_12">
      <g>
       <use style="stroke:#000000;stroke-width:0.8;" x="353.31875" xlink:href="#mf5a2d5be7e" y="309.1"/>
      </g>
     </g>
     <g id="text_6">
      <!-- 125 -->
      <g transform="translate(341.86625 325.218125)scale(0.12 -0.12)">
       <use xlink:href="#DejaVuSans-31"/>
       <use x="63.623047" xlink:href="#DejaVuSans-32"/>
       <use x="127.246094" xlink:href="#DejaVuSans-35"/>
      </g>
     </g>
    </g>
    <g id="xtick_7">
     <g id="line2d_13">
      <path clip-path="url(#pe15f9dccdc)" d="M 409.407727 309.1 
L 409.407727 28.8 
" style="fill:none;stroke:#808080;stroke-linecap:square;stroke-width:0.8;"/>
     </g>
     <g id="line2d_14">
      <g>
       <use style="stroke:#000000;stroke-width:0.8;" x="409.407727" xlink:href="#mf5a2d5be7e" y="309.1"/>
      </g>
     </g>
     <g id="text_7">
      <!-- 150 -->
      <g transform="translate(397.955227 325.218125)scale(0.12 -0.12)">
       <use xlink:href="#DejaVuSans-31"/>
       <use x="63.623047" xlink:href="#DejaVuSans-35"/>
       <use x="127.246094" xlink:href="#DejaVuSans-30"/>
      </g>
     </g>
    </g>
    <g id="xtick_8">
     <g id="line2d_15">
      <path clip-path="url(#pe15f9dccdc)" d="M 465.496705 309.1 
L 465.496705 28.8 
" style="fill:none;stroke:#808080;stroke-linecap:square;stroke-width:0.8;"/>
     </g>
     <g id="line2d_16">
      <g>
       <use style="stroke:#000000;stroke-width:0.8;" x="465.496705" xlink:href="#mf5a2d5be7e" y="309.1"/>
      </g>
     </g>
     <g id="text_8">
      <!-- 175 -->
      <g transform="translate(454.044205 325.218125)scale(0.12 -0.12)">
       <use xlink:href="#DejaVuSans-31"/>
       <use x="63.623047" xlink:href="#DejaVuSans-37"/>
       <use x="127.246094" xlink:href="#DejaVuSans-35"/>
      </g>
     </g>
    </g>
    <g id="text_9">
     <!-- $I_{DS X1}$ [uA] -->
     <defs>
      <path d="M 16.890625 72.90625 
L 26.8125 72.90625 
L 12.59375 0 
L 2.6875 0 
z
" id="DejaVuSans-Oblique-49"/>
      <path d="M 16.890625 72.90625 
L 38.09375 72.90625 
Q 54.984375 72.90625 63.59375 65.75 
Q 72.21875 58.59375 72.21875 44.484375 
Q 72.21875 35.15625 68.9375 26.53125 
Q 65.671875 17.921875 59.90625 12.015625 
Q 54.109375 5.953125 45.171875 2.96875 
Q 36.234375 0 24.03125 0 
L 2.6875 0 
z
M 25.203125 64.796875 
L 14.203125 8.109375 
L 27.09375 8.109375 
Q 43.65625 8.109375 52.734375 17.625 
Q 61.8125 27.15625 61.8125 44.484375 
Q 61.8125 54.984375 55.953125 59.890625 
Q 50.09375 64.796875 37.59375 64.796875 
z
" id="DejaVuSans-Oblique-44"/>
      <path d="M 60.296875 70.515625 
L 58.40625 60.890625 
Q 53.46875 63.53125 48.609375 64.875 
Q 43.75 66.21875 39.203125 66.21875 
Q 30.375 66.21875 25.140625 62.359375 
Q 19.921875 58.5 19.921875 52.09375 
Q 19.921875 48.578125 21.84375 46.703125 
Q 23.78125 44.828125 31.78125 42.671875 
L 37.703125 41.21875 
Q 47.703125 38.625 51.609375 34.640625 
Q 55.515625 30.671875 55.515625 23.484375 
Q 55.515625 12.453125 46.84375 5.515625 
Q 38.1875 -1.421875 24.03125 -1.421875 
Q 18.21875 -1.421875 12.359375 -0.265625 
Q 6.5 0.875 0.59375 3.21875 
L 2.59375 13.375 
Q 8.015625 10.015625 13.453125 8.296875 
Q 18.890625 6.59375 24.3125 6.59375 
Q 33.546875 6.59375 39.109375 10.6875 
Q 44.671875 14.796875 44.671875 21.390625 
Q 44.671875 25.78125 42.453125 28.046875 
Q 40.234375 30.328125 32.90625 32.171875 
L 27 33.6875 
Q 16.890625 36.328125 13.203125 39.765625 
Q 9.515625 43.21875 9.515625 49.421875 
Q 9.515625 60.296875 17.890625 67.25 
Q 26.265625 74.21875 39.703125 74.21875 
Q 44.921875 74.21875 50.046875 73.28125 
Q 55.171875 72.359375 60.296875 70.515625 
z
" id="DejaVuSans-Oblique-53"/>
      <path d="M 13.71875 72.90625 
L 23.6875 72.90625 
L 36.1875 46.578125 
L 58.796875 72.90625 
L 70.3125 72.90625 
L 40.28125 38.09375 
L 58.40625 0 
L 48.484375 0 
L 33.796875 30.71875 
L 7.171875 0 
L -4.296875 0 
L 29.78125 39.203125 
z
" id="DejaVuSans-Oblique-58"/>
      <path id="DejaVuSans-20"/>
      <path d="M 8.59375 75.984375 
L 29.296875 75.984375 
L 29.296875 69 
L 17.578125 69 
L 17.578125 -6.203125 
L 29.296875 -6.203125 
L 29.296875 -13.1875 
L 8.59375 -13.1875 
z
" id="DejaVuSans-5b"/>
      <path d="M 8.5 21.578125 
L 8.5 54.6875 
L 17.484375 54.6875 
L 17.484375 21.921875 
Q 17.484375 14.15625 20.5 10.265625 
Q 23.53125 6.390625 29.59375 6.390625 
Q 36.859375 6.390625 41.078125 11.03125 
Q 45.3125 15.671875 45.3125 23.6875 
L 45.3125 54.6875 
L 54.296875 54.6875 
L 54.296875 0 
L 45.3125 0 
L 45.3125 8.40625 
Q 42.046875 3.421875 37.71875 1 
Q 33.40625 -1.421875 27.6875 -1.421875 
Q 18.265625 -1.421875 13.375 4.4375 
Q 8.5 10.296875 8.5 21.578125 
z
M 31.109375 56 
z
" id="DejaVuSans-75"/>
      <path d="M 34.1875 63.1875 
L 20.796875 26.90625 
L 47.609375 26.90625 
z
M 28.609375 72.90625 
L 39.796875 72.90625 
L 67.578125 0 
L 57.328125 0 
L 50.6875 18.703125 
L 17.828125 18.703125 
L 11.1875 0 
L 0.78125 0 
z
" id="DejaVuSans-41"/>
      <path d="M 30.421875 75.984375 
L 30.421875 -13.1875 
L 9.71875 -13.1875 
L 9.71875 -6.203125 
L 21.390625 -6.203125 
L 21.390625 69 
L 9.71875 69 
L 9.71875 75.984375 
z
" id="DejaVuSans-5d"/>
     </defs>
     <g transform="translate(243.4625 340.831875)scale(0.12 -0.12)">
      <use transform="translate(0 0.015625)" xlink:href="#DejaVuSans-Oblique-49"/>
      <use transform="translate(29.492188 -16.390625)scale(0.7)" xlink:href="#DejaVuSans-Oblique-44"/>
      <use transform="translate(83.393555 -16.390625)scale(0.7)" xlink:href="#DejaVuSans-Oblique-53"/>
      <use transform="translate(127.827148 -16.390625)scale(0.7)" xlink:href="#DejaVuSans-Oblique-58"/>
      <use transform="translate(175.78125 -16.390625)scale(0.7)" xlink:href="#DejaVuSans-31"/>
      <use transform="translate(223.051758 0.015625)" xlink:href="#DejaVuSans-20"/>
      <use transform="translate(254.838867 0.015625)" xlink:href="#DejaVuSans-5b"/>
      <use transform="translate(293.852539 0.015625)" xlink:href="#DejaVuSans-75"/>
      <use transform="translate(357.231445 0.015625)" xlink:href="#DejaVuSans-41"/>
      <use transform="translate(425.639648 0.015625)" xlink:href="#DejaVuSans-5d"/>
     </g>
    </g>
   </g>
   <g id="matplotlib.axis_2">
    <g id="ytick_1">
     <g id="line2d_17">
      <path clip-path="url(#pe15f9dccdc)" d="M 53.025 296.359091 
L 489.7 296.359091 
" style="fill:none;stroke:#808080;stroke-linecap:square;stroke-width:0.8;"/>
     </g>
     <g id="line2d_18">
      <defs>
       <path d="M 0 0 
L -3.5 0 
" id="mdd696d85e5" style="stroke:#000000;stroke-width:0.8;"/>
      </defs>
      <g>
       <use style="stroke:#000000;stroke-width:0.8;" x="53.025" xlink:href="#mdd696d85e5" y="296.359091"/>
      </g>
     </g>
     <g id="text_10">
      <!-- 0 -->
      <g transform="translate(38.39 300.918153)scale(0.12 -0.12)">
       <use xlink:href="#DejaVuSans-30"/>
      </g>
     </g>
    </g>
    <g id="ytick_2">
     <g id="line2d_19">
      <path clip-path="url(#pe15f9dccdc)" d="M 53.025 256.396188 
L 489.7 256.396188 
" style="fill:none;stroke:#808080;stroke-linecap:square;stroke-width:0.8;"/>
     </g>
     <g id="line2d_20">
      <g>
       <use style="stroke:#000000;stroke-width:0.8;" x="53.025" xlink:href="#mdd696d85e5" y="256.396188"/>
      </g>
     </g>
     <g id="text_11">
      <!-- 10 -->
      <g transform="translate(30.755 260.95525)scale(0.12 -0.12)">
       <use xlink:href="#DejaVuSans-31"/>
       <use x="63.623047" xlink:href="#DejaVuSans-30"/>
      </g>
     </g>
    </g>
    <g id="ytick_3">
     <g id="line2d_21">
      <path clip-path="url(#pe15f9dccdc)" d="M 53.025 216.433285 
L 489.7 216.433285 
" style="fill:none;stroke:#808080;stroke-linecap:square;stroke-width:0.8;"/>
     </g>
     <g id="line2d_22">
      <g>
       <use style="stroke:#000000;stroke-width:0.8;" x="53.025" xlink:href="#mdd696d85e5" y="216.433285"/>
      </g>
     </g>
     <g id="text_12">
      <!-- 20 -->
      <g transform="translate(30.755 220.992347)scale(0.12 -0.12)">
       <use xlink:href="#DejaVuSans-32"/>
       <use x="63.623047" xlink:href="#DejaVuSans-30"/>
      </g>
     </g>
    </g>
    <g id="ytick_4">
     <g id="line2d_23">
      <path clip-path="url(#pe15f9dccdc)" d="M 53.025 176.470382 
L 489.7 176.470382 
" style="fill:none;stroke:#808080;stroke-linecap:square;stroke-width:0.8;"/>
     </g>
     <g id="line2d_24">
      <g>
       <use style="stroke:#000000;stroke-width:0.8;" x="53.025" xlink:href="#mdd696d85e5" y="176.470382"/>
      </g>
     </g>
     <g id="text_13">
      <!-- 30 -->
      <defs>
       <path d="M 40.578125 39.3125 
Q 47.65625 37.796875 51.625 33 
Q 55.609375 28.21875 55.609375 21.1875 
Q 55.609375 10.40625 48.1875 4.484375 
Q 40.765625 -1.421875 27.09375 -1.421875 
Q 22.515625 -1.421875 17.65625 -0.515625 
Q 12.796875 0.390625 7.625 2.203125 
L 7.625 11.71875 
Q 11.71875 9.328125 16.59375 8.109375 
Q 21.484375 6.890625 26.8125 6.890625 
Q 36.078125 6.890625 40.9375 10.546875 
Q 45.796875 14.203125 45.796875 21.1875 
Q 45.796875 27.640625 41.28125 31.265625 
Q 36.765625 34.90625 28.71875 34.90625 
L 20.21875 34.90625 
L 20.21875 43.015625 
L 29.109375 43.015625 
Q 36.375 43.015625 40.234375 45.921875 
Q 44.09375 48.828125 44.09375 54.296875 
Q 44.09375 59.90625 40.109375 62.90625 
Q 36.140625 65.921875 28.71875 65.921875 
Q 24.65625 65.921875 20.015625 65.03125 
Q 15.375 64.15625 9.8125 62.3125 
L 9.8125 71.09375 
Q 15.4375 72.65625 20.34375 73.4375 
Q 25.25 74.21875 29.59375 74.21875 
Q 40.828125 74.21875 47.359375 69.109375 
Q 53.90625 64.015625 53.90625 55.328125 
Q 53.90625 49.265625 50.4375 45.09375 
Q 46.96875 40.921875 40.578125 39.3125 
z
" id="DejaVuSans-33"/>
      </defs>
      <g transform="translate(30.755 181.029444)scale(0.12 -0.12)">
       <use xlink:href="#DejaVuSans-33"/>
       <use x="63.623047" xlink:href="#DejaVuSans-30"/>
      </g>
     </g>
    </g>
    <g id="ytick_5">
     <g id="line2d_25">
      <path clip-path="url(#pe15f9dccdc)" d="M 53.025 136.507479 
L 489.7 136.507479 
" style="fill:none;stroke:#808080;stroke-linecap:square;stroke-width:0.8;"/>
     </g>
     <g id="line2d_26">
      <g>
       <use style="stroke:#000000;stroke-width:0.8;" x="53.025" xlink:href="#mdd696d85e5" y="136.507479"/>
      </g>
     </g>
     <g id="text_14">
      <!-- 40 -->
      <defs>
       <path d="M 37.796875 64.3125 
L 12.890625 25.390625 
L 37.796875 25.390625 
z
M 35.203125 72.90625 
L 47.609375 72.90625 
L 47.609375 25.390625 
L 58.015625 25.390625 
L 58.015625 17.1875 
L 47.609375 17.1875 
L 47.609375 0 
L 37.796875 0 
L 37.796875 17.1875 
L 4.890625 17.1875 
L 4.890625 26.703125 
z
" id="DejaVuSans-34"/>
      </defs>
      <g transform="translate(30.755 141.066541)scale(0.12 -0.12)">
       <use xlink:href="#DejaVuSans-34"/>
       <use x="63.623047" xlink:href="#DejaVuSans-30"/>
      </g>
     </g>
    </g>
    <g id="ytick_6">
     <g id="line2d_27">
      <path clip-path="url(#pe15f9dccdc)" d="M 53.025 96.544575 
L 489.7 96.544575 
" style="fill:none;stroke:#808080;stroke-linecap:square;stroke-width:0.8;"/>
     </g>
     <g id="line2d_28">
      <g>
       <use style="stroke:#000000;stroke-width:0.8;" x="53.025" xlink:href="#mdd696d85e5" y="96.544575"/>
      </g>
     </g>
     <g id="text_15">
      <!-- 50 -->
      <g transform="translate(30.755 101.103638)scale(0.12 -0.12)">
       <use xlink:href="#DejaVuSans-35"/>
       <use x="63.623047" xlink:href="#DejaVuSans-30"/>
      </g>
     </g>
    </g>
    <g id="ytick_7">
     <g id="line2d_29">
      <path clip-path="url(#pe15f9dccdc)" d="M 53.025 56.581672 
L 489.7 56.581672 
" style="fill:none;stroke:#808080;stroke-linecap:square;stroke-width:0.8;"/>
     </g>
     <g id="line2d_30">
      <g>
       <use style="stroke:#000000;stroke-width:0.8;" x="53.025" xlink:href="#mdd696d85e5" y="56.581672"/>
      </g>
     </g>
     <g id="text_16">
      <!-- 60 -->
      <defs>
       <path d="M 33.015625 40.375 
Q 26.375 40.375 22.484375 35.828125 
Q 18.609375 31.296875 18.609375 23.390625 
Q 18.609375 15.53125 22.484375 10.953125 
Q 26.375 6.390625 33.015625 6.390625 
Q 39.65625 6.390625 43.53125 10.953125 
Q 47.40625 15.53125 47.40625 23.390625 
Q 47.40625 31.296875 43.53125 35.828125 
Q 39.65625 40.375 33.015625 40.375 
z
M 52.59375 71.296875 
L 52.59375 62.3125 
Q 48.875 64.0625 45.09375 64.984375 
Q 41.3125 65.921875 37.59375 65.921875 
Q 27.828125 65.921875 22.671875 59.328125 
Q 17.53125 52.734375 16.796875 39.40625 
Q 19.671875 43.65625 24.015625 45.921875 
Q 28.375 48.1875 33.59375 48.1875 
Q 44.578125 48.1875 50.953125 41.515625 
Q 57.328125 34.859375 57.328125 23.390625 
Q 57.328125 12.15625 50.6875 5.359375 
Q 44.046875 -1.421875 33.015625 -1.421875 
Q 20.359375 -1.421875 13.671875 8.265625 
Q 6.984375 17.96875 6.984375 36.375 
Q 6.984375 53.65625 15.1875 63.9375 
Q 23.390625 74.21875 37.203125 74.21875 
Q 40.921875 74.21875 44.703125 73.484375 
Q 48.484375 72.75 52.59375 71.296875 
z
" id="DejaVuSans-36"/>
      </defs>
      <g transform="translate(30.755 61.140735)scale(0.12 -0.12)">
       <use xlink:href="#DejaVuSans-36"/>
       <use x="63.623047" xlink:href="#DejaVuSans-30"/>
      </g>
     </g>
    </g>
    <g id="text_17">
     <!-- $f_{T X1}$ [GHz] -->
     <defs>
      <path d="M 47.796875 75.984375 
L 46.390625 68.5 
L 37.796875 68.5 
Q 32.90625 68.5 30.6875 66.578125 
Q 28.46875 64.65625 27.390625 59.515625 
L 26.421875 54.6875 
L 41.21875 54.6875 
L 39.890625 47.703125 
L 25.09375 47.703125 
L 15.828125 0 
L 6.78125 0 
L 16.109375 47.703125 
L 7.515625 47.703125 
L 8.796875 54.6875 
L 17.390625 54.6875 
L 18.109375 58.5 
Q 19.96875 68.171875 24.625 72.078125 
Q 29.296875 75.984375 39.3125 75.984375 
z
" id="DejaVuSans-Oblique-66"/>
      <path d="M 5.90625 72.90625 
L 67.578125 72.90625 
L 66.015625 64.59375 
L 39.984375 64.59375 
L 27.484375 0 
L 17.578125 0 
L 30.078125 64.59375 
L 4.296875 64.59375 
z
" id="DejaVuSans-Oblique-54"/>
      <path d="M 59.515625 10.40625 
L 59.515625 29.984375 
L 43.40625 29.984375 
L 43.40625 38.09375 
L 69.28125 38.09375 
L 69.28125 6.78125 
Q 63.578125 2.734375 56.6875 0.65625 
Q 49.8125 -1.421875 42 -1.421875 
Q 24.90625 -1.421875 15.25 8.5625 
Q 5.609375 18.5625 5.609375 36.375 
Q 5.609375 54.25 15.25 64.234375 
Q 24.90625 74.21875 42 74.21875 
Q 49.125 74.21875 55.546875 72.453125 
Q 61.96875 70.703125 67.390625 67.28125 
L 67.390625 56.78125 
Q 61.921875 61.421875 55.765625 63.765625 
Q 49.609375 66.109375 42.828125 66.109375 
Q 29.4375 66.109375 22.71875 58.640625 
Q 16.015625 51.171875 16.015625 36.375 
Q 16.015625 21.625 22.71875 14.15625 
Q 29.4375 6.6875 42.828125 6.6875 
Q 48.046875 6.6875 52.140625 7.59375 
Q 56.25 8.5 59.515625 10.40625 
z
" id="DejaVuSans-47"/>
      <path d="M 9.8125 72.90625 
L 19.671875 72.90625 
L 19.671875 43.015625 
L 55.515625 43.015625 
L 55.515625 72.90625 
L 65.375 72.90625 
L 65.375 0 
L 55.515625 0 
L 55.515625 34.71875 
L 19.671875 34.71875 
L 19.671875 0 
L 9.8125 0 
z
" id="DejaVuSans-48"/>
      <path d="M 5.515625 54.6875 
L 48.1875 54.6875 
L 48.1875 46.484375 
L 14.40625 7.171875 
L 48.1875 7.171875 
L 48.1875 0 
L 4.296875 0 
L 4.296875 8.203125 
L 38.09375 47.515625 
L 5.515625 47.515625 
z
" id="DejaVuSans-7a"/>
     </defs>
     <g transform="translate(24.259375 198.29)rotate(-90)scale(0.12 -0.12)">
      <use transform="translate(0 0.015625)" xlink:href="#DejaVuSans-Oblique-66"/>
      <use transform="translate(35.205078 -16.390625)scale(0.7)" xlink:href="#DejaVuSans-Oblique-54"/>
      <use transform="translate(77.963867 -16.390625)scale(0.7)" xlink:href="#DejaVuSans-Oblique-58"/>
      <use transform="translate(125.917969 -16.390625)scale(0.7)" xlink:href="#DejaVuSans-31"/>
      <use transform="translate(173.188477 0.015625)" xlink:href="#DejaVuSans-20"/>
      <use transform="translate(204.975586 0.015625)" xlink:href="#DejaVuSans-5b"/>
      <use transform="translate(243.989258 0.015625)" xlink:href="#DejaVuSans-47"/>
      <use transform="translate(321.479492 0.015625)" xlink:href="#DejaVuSans-48"/>
      <use transform="translate(396.674805 0.015625)" xlink:href="#DejaVuSans-7a"/>
      <use transform="translate(449.165039 0.015625)" xlink:href="#DejaVuSans-5d"/>
     </g>
    </g>
   </g>
   <g id="line2d_31">
    <path clip-path="url(#pe15f9dccdc)" d="M 72.873864 296.359091 
" style="fill:none;stroke:#ff0000;stroke-linecap:square;stroke-width:2;"/>
   </g>
   <g id="line2d_32">
    <path clip-path="url(#pe15f9dccdc)" d="M 72.873923 296.356885 
L 72.874033 296.352803 
L 72.874346 296.341231 
L 72.87523 296.308674 
L 72.877702 296.218289 
L 72.884502 295.97327 
L 72.902735 295.33697 
L 72.949708 293.805185 
L 73.063766 290.542417 
L 73.319039 284.636196 
L 73.834731 275.594878 
L 74.762861 263.609905 
L 76.250083 249.501861 
L 78.395286 234.485803 
L 81.229154 219.959972 
L 84.717206 207.458697 
L 88.770012 198.563881 
L 93.251198 194.413755 
L 97.990211 195.072325 
L 102.809723 199.561127 
L 107.560707 206.499713 
L 112.144742 214.64676 
L 116.513813 223.092358 
L 120.655908 231.250577 
L 124.578858 238.790522 
L 128.298767 245.560851 
L 131.833559 251.52558 
L 135.200083 256.716005 
L 138.413147 261.197899 
L 141.485446 265.050841 
L 144.427824 268.35614 
L 147.249611 271.19041 
L 149.958929 273.622611 
L 152.562942 275.713115 
L 155.068044 277.51385 
L 157.480009 279.068997 
L 159.804091 280.415879 
L 162.045104 281.585907 
L 164.207486 282.605464 
L 166.295343 283.496695 
L 168.312486 284.278199 
L 170.262463 284.965617 
L 172.148583 285.572126 
L 173.973938 286.108847 
L 175.741422 286.585196 
L 177.453745 287.009158 
L 179.113452 287.387531 
L 180.722932 287.726112 
L 182.284431 288.029863 
L 183.800064 288.303042 
" style="fill:none;stroke:#0000ff;stroke-linecap:square;stroke-width:2;"/>
   </g>
   <g id="line2d_33">
    <path clip-path="url(#pe15f9dccdc)" d="M 72.873925 296.356825 
L 72.874038 296.352631 
L 72.87436 296.340741 
L 72.875268 296.307289 
L 72.877807 296.214418 
L 72.884795 295.962656 
L 72.90353 295.308811 
L 72.9518 293.734636 
L 73.069017 290.380885 
L 73.331404 284.307211 
L 73.861632 274.999791 
L 74.816493 262.630499 
L 76.348364 247.974934 
L 78.563336 232.109012 
L 81.503963 216.069736 
L 85.159748 200.654633 
L 89.488908 186.370881 
L 94.437122 173.475195 
L 99.948729 162.050747 
L 105.971552 152.093034 
L 112.457524 143.604353 
L 119.360261 136.716973 
L 126.629415 131.852065 
L 134.201332 129.807633 
L 141.988123 131.494788 
L 149.873096 137.285732 
L 157.722637 146.619386 
L 165.413159 158.299071 
L 172.855879 171.047174 
L 180.004335 183.844161 
L 186.846106 196.012125 
L 193.389299 207.170486 
L 199.651403 217.155877 
L 205.652526 225.946297 
L 211.412116 233.602253 
L 216.947725 240.225945 
L 222.274794 245.935275 
L 227.406839 250.848583 
L 232.355754 255.076522 
L 237.132114 258.718379 
L 241.745418 261.860994 
L 246.204291 264.579101 
L 250.516628 266.936351 
L 254.689709 268.986616 
L 258.730282 270.775327 
L 262.644628 272.340729 
L 266.438615 273.715011 
L 270.117737 274.92528 
L 273.687151 275.994397 
L 277.151701 276.941675 
" style="fill:none;stroke:#008000;stroke-linecap:square;stroke-width:2;"/>
   </g>
   <g id="line2d_34">
    <path clip-path="url(#pe15f9dccdc)" d="M 72.873926 296.356765 
L 72.874043 296.352461 
L 72.874373 296.340258 
L 72.875305 296.305925 
L 72.877911 296.210611 
L 72.885082 295.952223 
L 72.904311 295.281172 
L 72.953851 293.665571 
L 73.074152 290.223562 
L 73.343444 283.990051 
L 73.887626 274.437689 
L 74.867616 261.742861 
L 76.439802 246.701542 
L 78.713068 230.417865 
L 81.731097 213.955842 
L 85.483133 198.133199 
L 89.926348 183.468252 
L 95.005134 170.218329 
L 100.662759 158.451964 
L 106.84673 148.119499 
L 113.510474 139.10762 
L 120.613288 131.276065 
L 128.11965 124.480002 
L 135.998389 118.582699 
L 144.221902 113.462821 
L 152.765452 109.020643 
L 161.606419 105.189127 
L 170.723281 101.960535 
L 180.093737 99.446729 
L 189.691022 97.988439 
L 199.47725 98.267798 
L 209.394133 101.226526 
L 219.356005 107.602168 
L 229.254512 117.396366 
L 238.978962 129.832725 
L 248.441305 143.763858 
L 257.589396 158.094656 
L 266.404264 171.998295 
L 274.889161 184.952998 
L 283.058733 196.69134 
L 290.931731 207.126505 
L 298.527164 216.285516 
L 305.862666 224.258829 
L 312.954034 231.1662 
L 319.815285 237.135453 
L 326.4589 242.290373 
L 332.896076 246.744551 
L 339.136967 250.598871 
L 345.190863 253.94111 
L 351.066338 256.846634 
" style="fill:none;stroke:#00bfbf;stroke-linecap:square;stroke-width:2;"/>
   </g>
   <g id="line2d_35">
    <path clip-path="url(#pe15f9dccdc)" d="M 72.873928 296.356705 
L 72.874047 296.352291 
L 72.874386 296.339775 
L 72.875342 296.304562 
L 72.878015 296.206804 
L 72.88537 295.941791 
L 72.905092 295.253533 
L 72.955902 293.596506 
L 73.079288 290.066241 
L 73.355485 283.672896 
L 73.91362 273.875601 
L 74.918737 260.855265 
L 76.531236 245.428272 
L 78.862791 228.727064 
L 81.958205 211.842937 
L 85.806448 195.614585 
L 90.363591 180.573611 
L 95.572602 166.98394 
L 101.375296 154.915855 
L 107.717831 144.318401 
L 114.552443 135.075296 
L 121.837391 127.042503 
L 129.536252 120.070974 
L 137.617086 114.019066 
L 146.051672 108.758421 
L 154.814875 104.17599 
L 163.884146 100.173955 
L 173.239128 96.668618 
L 182.861341 93.588875 
L 192.733938 90.874696 
L 202.841491 88.475908 
L 213.169809 86.351789 
L 223.705737 84.472606 
L 234.436885 82.82596 
L 245.35111 81.434653 
L 256.435391 80.39941 
L 267.673373 79.983223 
L 279.040509 80.725129 
L 290.496337 83.463885 
L 301.97655 89.065472 
L 313.3924 97.920166 
L 324.644296 109.672983 
L 335.644685 123.412177 
L 346.335186 138.062473 
L 356.689129 152.68891 
L 366.703567 166.624451 
L 376.389045 179.470915 
L 385.761865 191.043613 
L 394.839625 201.305136 
L 403.639147 210.308552 
" style="fill:none;stroke:#bf00bf;stroke-linecap:square;stroke-width:2;"/>
   </g>
   <g id="line2d_36">
    <path clip-path="url(#pe15f9dccdc)" d="M 72.87393 296.356646 
L 72.874052 296.35212 
L 72.874399 296.339292 
L 72.875379 296.303199 
L 72.878119 296.202997 
L 72.885658 295.931358 
L 72.905873 295.225894 
L 72.957953 293.527442 
L 73.084423 289.90892 
L 73.367525 283.355741 
L 73.939614 273.313514 
L 74.969859 259.967669 
L 76.62267 244.155001 
L 79.012514 227.036263 
L 82.185314 209.730034 
L 86.129763 193.095972 
L 90.800834 177.678974 
L 96.140071 163.749561 
L 102.087832 151.379774 
L 108.588931 140.517384 
L 115.594408 131.043201 
L 123.061479 122.809588 
L 130.952812 115.66377 
L 139.235667 109.460563 
L 147.881117 104.068397 
L 156.8634 99.371393 
L 166.159404 95.269274 
L 175.748262 91.676206 
L 185.611038 88.519196 
L 195.730466 85.736391 
L 206.090755 83.275459 
L 216.677411 81.092125 
L 227.4771 79.148905 
L 238.477527 77.414012 
L 249.667334 75.860447 
L 261.036006 74.46526 
L 272.573793 73.208986 
L 284.271633 72.075355 
L 296.12108 71.051519 
L 308.11421 70.129537 
L 320.243468 69.311057 
L 332.501356 68.619886 
L 344.879708 68.132386 
L 357.368008 68.040887 
L 369.949871 68.753841 
L 382.596845 70.968605 
L 395.260603 75.546071 
L 407.868949 83.111334 
L 420.333311 93.675581 
L 432.567943 106.617724 
" style="fill:none;stroke:#bfbf00;stroke-linecap:square;stroke-width:2;"/>
   </g>
   <g id="line2d_37">
    <path clip-path="url(#pe15f9dccdc)" d="M 72.873931 296.356586 
L 72.874056 296.35195 
L 72.874412 296.338809 
L 72.875416 296.301836 
L 72.878223 296.199189 
L 72.885945 295.920926 
L 72.906653 295.198255 
L 72.960004 293.458377 
L 73.089559 289.751599 
L 73.379566 283.038586 
L 73.965608 272.751427 
L 75.020981 259.080074 
L 76.714105 242.881731 
L 79.162238 225.345462 
L 82.412423 207.61713 
L 86.453077 190.577359 
L 91.238077 174.784337 
L 96.707539 160.515182 
L 102.800367 147.843693 
L 109.46003 136.716366 
L 116.636372 127.011106 
L 124.285567 118.576673 
L 132.369371 111.256567 
L 140.854247 104.902062 
L 149.710562 99.378381 
L 158.911926 94.566815 
L 168.434661 90.364644 
L 178.257394 86.683941 
L 188.360725 83.44993 
L 198.726969 80.599252 
L 209.339947 78.078295 
L 220.184814 75.841707 
L 231.247911 73.851084 
L 242.516642 72.073854 
L 253.979372 70.482335 
L 265.625333 69.052941 
L 277.444539 67.765523 
L 289.427721 66.602818 
L 301.566261 65.549996 
L 313.852133 64.594274 
L 326.277857 63.72461 
L 338.83645 62.931442 
L 351.521386 62.206489 
L 364.326557 61.542625 
L 377.246238 60.933886 
L 390.275047 60.375794 
L 403.407896 59.866498 
L 416.639896 59.410076 
L 429.966161 59.025289 
L 443.38133 58.767091 
" style="fill:none;stroke:#000000;stroke-linecap:square;stroke-width:2;"/>
   </g>
   <g id="line2d_38">
    <path clip-path="url(#pe15f9dccdc)" d="M 72.873933 296.356526 
L 72.874061 296.35178 
L 72.874425 296.338326 
L 72.875453 296.300472 
L 72.878326 296.195382 
L 72.886233 295.910493 
L 72.907434 295.170616 
L 72.962054 293.389312 
L 73.094695 289.594277 
L 73.391606 282.721431 
L 73.991602 272.18934 
L 75.072103 258.192478 
L 76.805539 241.608461 
L 79.311961 223.654662 
L 82.639531 205.504226 
L 86.776392 188.058747 
L 91.675321 171.8897 
L 97.275008 157.280804 
L 103.512903 144.307612 
L 110.331129 132.915349 
L 117.678337 122.979011 
L 125.509656 114.343758 
L 133.785931 106.849364 
L 142.472828 100.343562 
L 151.540008 94.688364 
L 160.960451 89.762237 
L 170.709918 85.460015 
L 180.766526 81.691675 
L 191.110412 78.380665 
L 201.723471 75.462113 
L 212.58914 72.881134 
L 223.692218 70.591293 
L 235.018721 68.553274 
L 246.555756 66.733729 
L 258.291408 65.104317 
L 270.214653 63.64089 
L 282.315269 62.322819 
L 294.583765 61.13243 
L 307.011318 60.054538 
L 319.589711 59.076056 
L 332.311286 58.185672 
L 345.168894 57.373577 
L 358.155854 56.631246 
L 371.265917 55.951242 
L 384.493228 55.327062 
L 397.832299 54.753006 
L 411.277979 54.224061 
L 424.825428 53.73581 
L 438.470097 53.28436 
L 452.2077 52.86628 
" style="fill:none;stroke:#ff0000;stroke-linecap:square;stroke-width:2;"/>
   </g>
   <g id="line2d_39">
    <path clip-path="url(#pe15f9dccdc)" d="M 72.873934 296.356467 
L 72.874066 296.35161 
L 72.874438 296.337843 
L 72.87549 296.299109 
L 72.87843 296.191575 
L 72.88652 295.900061 
L 72.908215 295.142977 
L 72.964105 293.320248 
L 73.09983 289.436956 
L 73.403647 282.404276 
L 74.017596 271.627252 
L 75.123225 257.304882 
L 76.896973 240.33519 
L 79.461684 221.963861 
L 82.86664 203.391322 
L 87.099707 185.540134 
L 92.112564 168.995063 
L 97.842476 154.046425 
L 104.225439 140.771531 
L 111.202228 129.114332 
L 118.720301 118.946916 
L 126.733744 110.110844 
L 135.202491 102.442161 
L 144.091408 95.785061 
L 153.369453 89.998347 
L 163.008976 84.957659 
L 172.985175 80.555385 
L 183.275658 76.69941 
L 193.860099 73.311399 
L 204.719974 70.324974 
L 215.838332 67.683972 
L 227.199621 65.34088 
L 238.789532 63.255465 
L 250.594869 61.393605 
L 262.603444 59.726299 
L 274.803974 58.228838 
L 287.186 56.880114 
L 299.73981 55.662043 
L 312.456375 54.559084 
L 325.327289 53.557846 
L 338.344715 52.646755 
L 351.501337 51.815775 
L 364.790319 51.05618 
L 378.205267 50.360361 
L 391.74019 49.721666 
L 405.389472 49.134258 
L 419.147842 48.593008 
L 433.010349 48.093393 
L 446.972336 47.631416 
L 461.029419 47.203535 
" style="fill:none;stroke:#0000ff;stroke-linecap:square;stroke-width:2;"/>
   </g>
   <g id="line2d_40">
    <path clip-path="url(#pe15f9dccdc)" d="M 72.873936 296.356407 
L 72.87407 296.35144 
L 72.874451 296.33736 
L 72.875527 296.297746 
L 72.878534 296.187768 
L 72.886808 295.889628 
L 72.908995 295.115338 
L 72.966156 293.251183 
L 73.104966 289.279635 
L 73.415687 282.087121 
L 74.04359 271.065165 
L 75.174347 256.417287 
L 76.988408 239.06192 
L 79.611407 220.27306 
L 83.093748 201.278418 
L 87.423021 183.021521 
L 92.549807 166.100426 
L 98.409945 150.812046 
L 104.937975 137.23545 
L 112.073327 125.313315 
L 119.762266 114.914821 
L 127.957832 105.877929 
L 136.619051 98.034958 
L 145.709989 91.22656 
L 155.198898 85.30833 
L 165.057501 80.153081 
L 175.260432 75.650755 
L 185.784789 71.707144 
L 196.609786 68.242133 
L 207.716476 65.187835 
L 219.087525 62.48681 
L 230.707025 60.090466 
L 242.560342 57.957655 
L 254.633983 56.05348 
L 266.91548 54.348281 
L 279.393295 52.816787 
L 292.05673 51.43741 
L 304.895854 50.191655 
L 317.901432 49.063629 
L 331.064867 48.039636 
L 344.378143 47.107838 
L 357.833779 46.257972 
L 371.424784 45.481114 
L 385.144617 44.769481 
L 398.987152 44.11627 
L 412.946644 43.515512 
L 427.017705 42.961961 
L 441.195269 42.450991 
L 455.474573 41.978515 
L 469.851136 41.540909 
" style="fill:none;stroke:#008000;stroke-linecap:square;stroke-width:2;"/>
   </g>
   <g id="patch_3">
    <path d="M 53.025 309.1 
L 53.025 28.8 
" style="fill:none;stroke:#000000;stroke-linecap:square;stroke-linejoin:miter;stroke-width:0.8;"/>
   </g>
   <g id="patch_4">
    <path d="M 489.7 309.1 
L 489.7 28.8 
" style="fill:none;stroke:#000000;stroke-linecap:square;stroke-linejoin:miter;stroke-width:0.8;"/>
   </g>
   <g id="patch_5">
    <path d="M 53.025 309.1 
L 489.7 309.1 
" style="fill:none;stroke:#000000;stroke-linecap:square;stroke-linejoin:miter;stroke-width:0.8;"/>
   </g>
   <g id="patch_6">
    <path d="M 53.025 28.8 
L 489.7 28.8 
" style="fill:none;stroke:#000000;stroke-linecap:square;stroke-linejoin:miter;stroke-width:0.8;"/>
   </g>
   <g id="text_18">
    <!-- $f_{T}(I_{ds})$ -->
    <defs>
     <path d="M 31 75.875 
Q 24.46875 64.65625 21.28125 53.65625 
Q 18.109375 42.671875 18.109375 31.390625 
Q 18.109375 20.125 21.3125 9.0625 
Q 24.515625 -2 31 -13.1875 
L 23.1875 -13.1875 
Q 15.875 -1.703125 12.234375 9.375 
Q 8.59375 20.453125 8.59375 31.390625 
Q 8.59375 42.28125 12.203125 53.3125 
Q 15.828125 64.359375 23.1875 75.875 
z
" id="DejaVuSans-28"/>
     <path d="M 41.796875 8.203125 
Q 38.1875 3.46875 33.25 1.015625 
Q 28.328125 -1.421875 22.3125 -1.421875 
Q 14.109375 -1.421875 9.34375 4.171875 
Q 4.59375 9.765625 4.59375 19.484375 
Q 4.59375 27.59375 7.46875 34.9375 
Q 10.359375 42.28125 15.828125 48.09375 
Q 19.4375 51.953125 23.96875 53.96875 
Q 28.515625 56 33.5 56 
Q 38.765625 56 42.796875 53.453125 
Q 46.828125 50.921875 49.03125 46.1875 
L 54.890625 75.984375 
L 63.921875 75.984375 
L 49.125 0 
L 40.09375 0 
z
M 13.921875 21.09375 
Q 13.921875 14.015625 17.109375 10.0625 
Q 20.3125 6.109375 25.984375 6.109375 
Q 30.171875 6.109375 33.765625 8.125 
Q 37.359375 10.15625 40.09375 14.109375 
Q 42.96875 18.21875 44.625 23.578125 
Q 46.296875 28.953125 46.296875 34.1875 
Q 46.296875 40.96875 43.09375 44.765625 
Q 39.890625 48.578125 34.28125 48.578125 
Q 30.03125 48.578125 26.359375 46.578125 
Q 22.703125 44.578125 20.125 40.828125 
Q 17.28125 36.765625 15.59375 31.390625 
Q 13.921875 26.03125 13.921875 21.09375 
z
" id="DejaVuSans-Oblique-64"/>
     <path d="M 50 53.078125 
L 48.296875 44.578125 
Q 44.734375 46.53125 40.765625 47.5 
Q 36.8125 48.484375 32.625 48.484375 
Q 25.53125 48.484375 21.453125 46.0625 
Q 17.390625 43.65625 17.390625 39.5 
Q 17.390625 34.671875 26.859375 32.078125 
Q 27.59375 31.890625 27.9375 31.78125 
L 30.8125 30.90625 
Q 39.796875 28.421875 42.796875 25.6875 
Q 45.796875 22.953125 45.796875 18.21875 
Q 45.796875 9.515625 38.890625 4.046875 
Q 31.984375 -1.421875 20.796875 -1.421875 
Q 16.453125 -1.421875 11.671875 -0.578125 
Q 6.890625 0.25 1.125 2 
L 2.875 11.28125 
Q 7.8125 8.734375 12.59375 7.421875 
Q 17.390625 6.109375 21.78125 6.109375 
Q 28.375 6.109375 32.5 8.9375 
Q 36.625 11.765625 36.625 16.109375 
Q 36.625 20.796875 25.78125 23.6875 
L 24.859375 23.921875 
L 21.78125 24.703125 
Q 14.9375 26.515625 11.765625 29.46875 
Q 8.59375 32.421875 8.59375 37.015625 
Q 8.59375 45.75 15.15625 50.875 
Q 21.734375 56 33.015625 56 
Q 37.453125 56 41.671875 55.265625 
Q 45.90625 54.546875 50 53.078125 
z
" id="DejaVuSans-Oblique-73"/>
     <path d="M 8.015625 75.875 
L 15.828125 75.875 
Q 23.140625 64.359375 26.78125 53.3125 
Q 30.421875 42.28125 30.421875 31.390625 
Q 30.421875 20.453125 26.78125 9.375 
Q 23.140625 -1.703125 15.828125 -13.1875 
L 8.015625 -13.1875 
Q 14.5 -2 17.703125 9.0625 
Q 20.90625 20.125 20.90625 31.390625 
Q 20.90625 42.671875 17.703125 53.65625 
Q 14.5 64.65625 8.015625 75.875 
z
" id="DejaVuSans-29"/>
    </defs>
    <g transform="translate(255.0425 22.8)scale(0.12 -0.12)">
     <use transform="translate(0 0.015625)" xlink:href="#DejaVuSans-Oblique-66"/>
     <use transform="translate(35.205078 -16.390625)scale(0.7)" xlink:href="#DejaVuSans-Oblique-54"/>
     <use transform="translate(80.698242 0.015625)" xlink:href="#DejaVuSans-28"/>
     <use transform="translate(119.711914 0.015625)" xlink:href="#DejaVuSans-Oblique-49"/>
     <use transform="translate(149.204102 -16.390625)scale(0.7)" xlink:href="#DejaVuSans-Oblique-64"/>
     <use transform="translate(193.637695 -16.390625)scale(0.7)" xlink:href="#DejaVuSans-Oblique-73"/>
     <use transform="translate(232.841797 0.015625)" xlink:href="#DejaVuSans-29"/>
    </g>
   </g>
   <g id="legend_1">
    <g id="patch_7">
     <path d="M 418.86 304.1 
L 482.7 304.1 
Q 484.7 304.1 484.7 302.1 
L 484.7 185.9625 
Q 484.7 183.9625 482.7 183.9625 
L 418.86 183.9625 
Q 416.86 183.9625 416.86 185.9625 
L 416.86 302.1 
Q 416.86 304.1 418.86 304.1 
z
" style="fill:#ffffff;opacity:0.8;stroke:#cccccc;stroke-linejoin:miter;"/>
    </g>
    <g id="line2d_41">
     <path d="M 418.86 191.580625 
L 428.86 191.580625 
" style="fill:none;stroke:#ff0000;stroke-linecap:square;stroke-width:2;"/>
    </g>
    <g id="line2d_42"/>
    <g id="text_19">
     <!-- $V_{D}$ = 0.0 -->
     <defs>
      <path d="M 20.609375 0 
L 7.8125 72.90625 
L 17.484375 72.90625 
L 28.078125 10.203125 
L 63.484375 72.90625 
L 74.21875 72.90625 
L 32.078125 0 
z
" id="DejaVuSans-Oblique-56"/>
      <path d="M 10.59375 45.40625 
L 73.1875 45.40625 
L 73.1875 37.203125 
L 10.59375 37.203125 
z
M 10.59375 25.484375 
L 73.1875 25.484375 
L 73.1875 17.1875 
L 10.59375 17.1875 
z
" id="DejaVuSans-3d"/>
      <path d="M 10.6875 12.40625 
L 21 12.40625 
L 21 0 
L 10.6875 0 
z
" id="DejaVuSans-2e"/>
     </defs>
     <g transform="translate(430.86 195.080625)scale(0.12 -0.12)">
      <use transform="translate(0 0.78125)" xlink:href="#DejaVuSans-Oblique-56"/>
      <use transform="translate(68.408203 -15.625)scale(0.7)" xlink:href="#DejaVuSans-Oblique-44"/>
      <use transform="translate(125.043945 0.78125)" xlink:href="#DejaVuSans-20"/>
      <use transform="translate(156.831055 0.78125)" xlink:href="#DejaVuSans-3d"/>
      <use transform="translate(240.620117 0.78125)" xlink:href="#DejaVuSans-20"/>
      <use transform="translate(272.407227 0.78125)" xlink:href="#DejaVuSans-30"/>
      <use transform="translate(336.030273 0.78125)" xlink:href="#DejaVuSans-2e"/>
      <use transform="translate(367.817383 0.78125)" xlink:href="#DejaVuSans-30"/>
     </g>
    </g>
    <g id="line2d_43">
     <path d="M 418.86 203.194375 
L 428.86 203.194375 
" style="fill:none;stroke:#0000ff;stroke-linecap:square;stroke-width:2;"/>
    </g>
    <g id="line2d_44"/>
    <g id="text_20">
     <!-- $V_{D}$ = 0.2 -->
     <g transform="translate(430.86 206.694375)scale(0.12 -0.12)">
      <use transform="translate(0 0.78125)" xlink:href="#DejaVuSans-Oblique-56"/>
      <use transform="translate(68.408203 -15.625)scale(0.7)" xlink:href="#DejaVuSans-Oblique-44"/>
      <use transform="translate(125.043945 0.78125)" xlink:href="#DejaVuSans-20"/>
      <use transform="translate(156.831055 0.78125)" xlink:href="#DejaVuSans-3d"/>
      <use transform="translate(240.620117 0.78125)" xlink:href="#DejaVuSans-20"/>
      <use transform="translate(272.407227 0.78125)" xlink:href="#DejaVuSans-30"/>
      <use transform="translate(336.030273 0.78125)" xlink:href="#DejaVuSans-2e"/>
      <use transform="translate(367.739258 0.78125)" xlink:href="#DejaVuSans-32"/>
     </g>
    </g>
    <g id="line2d_45">
     <path d="M 418.86 214.808125 
L 428.86 214.808125 
" style="fill:none;stroke:#008000;stroke-linecap:square;stroke-width:2;"/>
    </g>
    <g id="line2d_46"/>
    <g id="text_21">
     <!-- $V_{D}$ = 0.4 -->
     <g transform="translate(430.86 218.308125)scale(0.12 -0.12)">
      <use transform="translate(0 0.78125)" xlink:href="#DejaVuSans-Oblique-56"/>
      <use transform="translate(68.408203 -15.625)scale(0.7)" xlink:href="#DejaVuSans-Oblique-44"/>
      <use transform="translate(125.043945 0.78125)" xlink:href="#DejaVuSans-20"/>
      <use transform="translate(156.831055 0.78125)" xlink:href="#DejaVuSans-3d"/>
      <use transform="translate(240.620117 0.78125)" xlink:href="#DejaVuSans-20"/>
      <use transform="translate(272.407227 0.78125)" xlink:href="#DejaVuSans-30"/>
      <use transform="translate(336.030273 0.78125)" xlink:href="#DejaVuSans-2e"/>
      <use transform="translate(367.817383 0.78125)" xlink:href="#DejaVuSans-34"/>
     </g>
    </g>
    <g id="line2d_47">
     <path d="M 418.86 226.421875 
L 428.86 226.421875 
" style="fill:none;stroke:#00bfbf;stroke-linecap:square;stroke-width:2;"/>
    </g>
    <g id="line2d_48"/>
    <g id="text_22">
     <!-- $V_{D}$ = 0.6 -->
     <g transform="translate(430.86 229.921875)scale(0.12 -0.12)">
      <use transform="translate(0 0.78125)" xlink:href="#DejaVuSans-Oblique-56"/>
      <use transform="translate(68.408203 -15.625)scale(0.7)" xlink:href="#DejaVuSans-Oblique-44"/>
      <use transform="translate(125.043945 0.78125)" xlink:href="#DejaVuSans-20"/>
      <use transform="translate(156.831055 0.78125)" xlink:href="#DejaVuSans-3d"/>
      <use transform="translate(240.620117 0.78125)" xlink:href="#DejaVuSans-20"/>
      <use transform="translate(272.407227 0.78125)" xlink:href="#DejaVuSans-30"/>
      <use transform="translate(336.030273 0.78125)" xlink:href="#DejaVuSans-2e"/>
      <use transform="translate(367.817383 0.78125)" xlink:href="#DejaVuSans-36"/>
     </g>
    </g>
    <g id="line2d_49">
     <path d="M 418.86 238.035625 
L 428.86 238.035625 
" style="fill:none;stroke:#bf00bf;stroke-linecap:square;stroke-width:2;"/>
    </g>
    <g id="line2d_50"/>
    <g id="text_23">
     <!-- $V_{D}$ = 0.8 -->
     <defs>
      <path d="M 31.78125 34.625 
Q 24.75 34.625 20.71875 30.859375 
Q 16.703125 27.09375 16.703125 20.515625 
Q 16.703125 13.921875 20.71875 10.15625 
Q 24.75 6.390625 31.78125 6.390625 
Q 38.8125 6.390625 42.859375 10.171875 
Q 46.921875 13.96875 46.921875 20.515625 
Q 46.921875 27.09375 42.890625 30.859375 
Q 38.875 34.625 31.78125 34.625 
z
M 21.921875 38.8125 
Q 15.578125 40.375 12.03125 44.71875 
Q 8.5 49.078125 8.5 55.328125 
Q 8.5 64.0625 14.71875 69.140625 
Q 20.953125 74.21875 31.78125 74.21875 
Q 42.671875 74.21875 48.875 69.140625 
Q 55.078125 64.0625 55.078125 55.328125 
Q 55.078125 49.078125 51.53125 44.71875 
Q 48 40.375 41.703125 38.8125 
Q 48.828125 37.15625 52.796875 32.3125 
Q 56.78125 27.484375 56.78125 20.515625 
Q 56.78125 9.90625 50.3125 4.234375 
Q 43.84375 -1.421875 31.78125 -1.421875 
Q 19.734375 -1.421875 13.25 4.234375 
Q 6.78125 9.90625 6.78125 20.515625 
Q 6.78125 27.484375 10.78125 32.3125 
Q 14.796875 37.15625 21.921875 38.8125 
z
M 18.3125 54.390625 
Q 18.3125 48.734375 21.84375 45.5625 
Q 25.390625 42.390625 31.78125 42.390625 
Q 38.140625 42.390625 41.71875 45.5625 
Q 45.3125 48.734375 45.3125 54.390625 
Q 45.3125 60.0625 41.71875 63.234375 
Q 38.140625 66.40625 31.78125 66.40625 
Q 25.390625 66.40625 21.84375 63.234375 
Q 18.3125 60.0625 18.3125 54.390625 
z
" id="DejaVuSans-38"/>
     </defs>
     <g transform="translate(430.86 241.535625)scale(0.12 -0.12)">
      <use transform="translate(0 0.78125)" xlink:href="#DejaVuSans-Oblique-56"/>
      <use transform="translate(68.408203 -15.625)scale(0.7)" xlink:href="#DejaVuSans-Oblique-44"/>
      <use transform="translate(125.043945 0.78125)" xlink:href="#DejaVuSans-20"/>
      <use transform="translate(156.831055 0.78125)" xlink:href="#DejaVuSans-3d"/>
      <use transform="translate(240.620117 0.78125)" xlink:href="#DejaVuSans-20"/>
      <use transform="translate(272.407227 0.78125)" xlink:href="#DejaVuSans-30"/>
      <use transform="translate(336.030273 0.78125)" xlink:href="#DejaVuSans-2e"/>
      <use transform="translate(367.786133 0.78125)" xlink:href="#DejaVuSans-38"/>
     </g>
    </g>
    <g id="line2d_51">
     <path d="M 418.86 249.649375 
L 428.86 249.649375 
" style="fill:none;stroke:#bfbf00;stroke-linecap:square;stroke-width:2;"/>
    </g>
    <g id="line2d_52"/>
    <g id="text_24">
     <!-- $V_{D}$ = 1.0 -->
     <g transform="translate(430.86 253.149375)scale(0.12 -0.12)">
      <use transform="translate(0 0.78125)" xlink:href="#DejaVuSans-Oblique-56"/>
      <use transform="translate(68.408203 -15.625)scale(0.7)" xlink:href="#DejaVuSans-Oblique-44"/>
      <use transform="translate(125.043945 0.78125)" xlink:href="#DejaVuSans-20"/>
      <use transform="translate(156.831055 0.78125)" xlink:href="#DejaVuSans-3d"/>
      <use transform="translate(240.620117 0.78125)" xlink:href="#DejaVuSans-20"/>
      <use transform="translate(272.407227 0.78125)" xlink:href="#DejaVuSans-31"/>
      <use transform="translate(336.030273 0.78125)" xlink:href="#DejaVuSans-2e"/>
      <use transform="translate(367.817383 0.78125)" xlink:href="#DejaVuSans-30"/>
     </g>
    </g>
    <g id="line2d_53">
     <path d="M 418.86 261.263125 
L 428.86 261.263125 
" style="fill:none;stroke:#000000;stroke-linecap:square;stroke-width:2;"/>
    </g>
    <g id="line2d_54"/>
    <g id="text_25">
     <!-- $V_{D}$ = 1.2 -->
     <g transform="translate(430.86 264.763125)scale(0.12 -0.12)">
      <use transform="translate(0 0.78125)" xlink:href="#DejaVuSans-Oblique-56"/>
      <use transform="translate(68.408203 -15.625)scale(0.7)" xlink:href="#DejaVuSans-Oblique-44"/>
      <use transform="translate(125.043945 0.78125)" xlink:href="#DejaVuSans-20"/>
      <use transform="translate(156.831055 0.78125)" xlink:href="#DejaVuSans-3d"/>
      <use transform="translate(240.620117 0.78125)" xlink:href="#DejaVuSans-20"/>
      <use transform="translate(272.407227 0.78125)" xlink:href="#DejaVuSans-31"/>
      <use transform="translate(336.030273 0.78125)" xlink:href="#DejaVuSans-2e"/>
      <use transform="translate(367.739258 0.78125)" xlink:href="#DejaVuSans-32"/>
     </g>
    </g>
    <g id="line2d_55">
     <path d="M 418.86 272.876875 
L 428.86 272.876875 
" style="fill:none;stroke:#ff0000;stroke-linecap:square;stroke-width:2;"/>
    </g>
    <g id="line2d_56"/>
    <g id="text_26">
     <!-- $V_{D}$ = 1.4 -->
     <g transform="translate(430.86 276.376875)scale(0.12 -0.12)">
      <use transform="translate(0 0.09375)" xlink:href="#DejaVuSans-Oblique-56"/>
      <use transform="translate(68.408203 -16.3125)scale(0.7)" xlink:href="#DejaVuSans-Oblique-44"/>
      <use transform="translate(125.043945 0.09375)" xlink:href="#DejaVuSans-20"/>
      <use transform="translate(156.831055 0.09375)" xlink:href="#DejaVuSans-3d"/>
      <use transform="translate(240.620117 0.09375)" xlink:href="#DejaVuSans-20"/>
      <use transform="translate(272.407227 0.09375)" xlink:href="#DejaVuSans-31"/>
      <use transform="translate(336.030273 0.09375)" xlink:href="#DejaVuSans-2e"/>
      <use transform="translate(367.817383 0.09375)" xlink:href="#DejaVuSans-34"/>
     </g>
    </g>
    <g id="line2d_57">
     <path d="M 418.86 284.490625 
L 428.86 284.490625 
" style="fill:none;stroke:#0000ff;stroke-linecap:square;stroke-width:2;"/>
    </g>
    <g id="line2d_58"/>
    <g id="text_27">
     <!-- $V_{D}$ = 1.6 -->
     <g transform="translate(430.86 287.990625)scale(0.12 -0.12)">
      <use transform="translate(0 0.78125)" xlink:href="#DejaVuSans-Oblique-56"/>
      <use transform="translate(68.408203 -15.625)scale(0.7)" xlink:href="#DejaVuSans-Oblique-44"/>
      <use transform="translate(125.043945 0.78125)" xlink:href="#DejaVuSans-20"/>
      <use transform="translate(156.831055 0.78125)" xlink:href="#DejaVuSans-3d"/>
      <use transform="translate(240.620117 0.78125)" xlink:href="#DejaVuSans-20"/>
      <use transform="translate(272.407227 0.78125)" xlink:href="#DejaVuSans-31"/>
      <use transform="translate(336.030273 0.78125)" xlink:href="#DejaVuSans-2e"/>
      <use transform="translate(367.817383 0.78125)" xlink:href="#DejaVuSans-36"/>
     </g>
    </g>
    <g id="line2d_59">
     <path d="M 418.86 296.104375 
L 428.86 296.104375 
" style="fill:none;stroke:#008000;stroke-linecap:square;stroke-width:2;"/>
    </g>
    <g id="line2d_60"/>
    <g id="text_28">
     <!-- $V_{D}$ = 1.8 -->
     <g transform="translate(430.86 299.604375)scale(0.12 -0.12)">
      <use transform="translate(0 0.78125)" xlink:href="#DejaVuSans-Oblique-56"/>
      <use transform="translate(68.408203 -15.625)scale(0.7)" xlink:href="#DejaVuSans-Oblique-44"/>
      <use transform="translate(125.043945 0.78125)" xlink:href="#DejaVuSans-20"/>
      <use transform="translate(156.831055 0.78125)" xlink:href="#DejaVuSans-3d"/>
      <use transform="translate(240.620117 0.78125)" xlink:href="#DejaVuSans-20"/>
      <use transform="translate(272.407227 0.78125)" xlink:href="#DejaVuSans-31"/>
      <use transform="translate(336.030273 0.78125)" xlink:href="#DejaVuSans-2e"/>
      <use transform="translate(367.786133 0.78125)" xlink:href="#DejaVuSans-38"/>
     </g>
    </g>
   </g>
  </g>
 </g>
 <defs>
  <clipPath id="pe15f9dccdc">
   <rect height="280.3" width="436.675" x="53.025" y="28.8"/>
  </clipPath>
 </defs>
</svg>
