<?xml version="1.0" encoding="utf-8" standalone="no"?>
<!DOCTYPE svg PUBLIC "-//W3C//DTD SVG 1.1//EN"
  "http://www.w3.org/Graphics/SVG/1.1/DTD/svg11.dtd">
<!-- Created with matplotlib (http://matplotlib.org/) -->
<svg height="360pt" version="1.1" viewBox="0 0 504 360" width="504pt" xmlns="http://www.w3.org/2000/svg" xmlns:xlink="http://www.w3.org/1999/xlink">
 <defs>
  <style type="text/css">
*{stroke-linecap:butt;stroke-linejoin:round;}
  </style>
 </defs>
 <g id="figure_1">
  <g id="patch_1">
   <path d="M 0 360 
L 504 360 
L 504 0 
L 0 0 
z
" style="fill:#ffffff;"/>
  </g>
  <g id="axes_1">
   <g id="patch_2">
    <path d="M 61.55 309.1 
L 489.7 309.1 
L 489.7 28.8 
L 61.55 28.8 
z
" style="fill:#ffffff;"/>
   </g>
   <g id="matplotlib.axis_1">
    <g id="xtick_1">
     <g id="line2d_1">
      <path clip-path="url(#pe252c4f1e6)" d="M 81.011361 309.1 
L 81.011361 28.8 
" style="fill:none;stroke:#808080;stroke-linecap:square;stroke-width:0.8;"/>
     </g>
     <g id="line2d_2">
      <defs>
       <path d="M 0 0 
L 0 3.5 
" id="m1cba91113e" style="stroke:#000000;stroke-width:0.8;"/>
      </defs>
      <g>
       <use style="stroke:#000000;stroke-width:0.8;" x="81.011361" xlink:href="#m1cba91113e" y="309.1"/>
      </g>
     </g>
     <g id="text_1">
      <!-- 0 -->
      <defs>
       <path d="M 31.78125 66.40625 
Q 24.171875 66.40625 20.328125 58.90625 
Q 16.5 51.421875 16.5 36.375 
Q 16.5 21.390625 20.328125 13.890625 
Q 24.171875 6.390625 31.78125 6.390625 
Q 39.453125 6.390625 43.28125 13.890625 
Q 47.125 21.390625 47.125 36.375 
Q 47.125 51.421875 43.28125 58.90625 
Q 39.453125 66.40625 31.78125 66.40625 
z
M 31.78125 74.21875 
Q 44.046875 74.21875 50.515625 64.515625 
Q 56.984375 54.828125 56.984375 36.375 
Q 56.984375 17.96875 50.515625 8.265625 
Q 44.046875 -1.421875 31.78125 -1.421875 
Q 19.53125 -1.421875 13.0625 8.265625 
Q 6.59375 17.96875 6.59375 36.375 
Q 6.59375 54.828125 13.0625 64.515625 
Q 19.53125 74.21875 31.78125 74.21875 
z
" id="DejaVuSans-30"/>
      </defs>
      <g transform="translate(77.193861 325.218125)scale(0.12 -0.12)">
       <use xlink:href="#DejaVuSans-30"/>
      </g>
     </g>
    </g>
    <g id="xtick_2">
     <g id="line2d_3">
      <path clip-path="url(#pe252c4f1e6)" d="M 136.00534 309.1 
L 136.00534 28.8 
" style="fill:none;stroke:#808080;stroke-linecap:square;stroke-width:0.8;"/>
     </g>
     <g id="line2d_4">
      <g>
       <use style="stroke:#000000;stroke-width:0.8;" x="136.00534" xlink:href="#m1cba91113e" y="309.1"/>
      </g>
     </g>
     <g id="text_2">
      <!-- 25 -->
      <defs>
       <path d="M 19.1875 8.296875 
L 53.609375 8.296875 
L 53.609375 0 
L 7.328125 0 
L 7.328125 8.296875 
Q 12.9375 14.109375 22.625 23.890625 
Q 32.328125 33.6875 34.8125 36.53125 
Q 39.546875 41.84375 41.421875 45.53125 
Q 43.3125 49.21875 43.3125 52.78125 
Q 43.3125 58.59375 39.234375 62.25 
Q 35.15625 65.921875 28.609375 65.921875 
Q 23.96875 65.921875 18.8125 64.3125 
Q 13.671875 62.703125 7.8125 59.421875 
L 7.8125 69.390625 
Q 13.765625 71.78125 18.9375 73 
Q 24.125 74.21875 28.421875 74.21875 
Q 39.75 74.21875 46.484375 68.546875 
Q 53.21875 62.890625 53.21875 53.421875 
Q 53.21875 48.921875 51.53125 44.890625 
Q 49.859375 40.875 45.40625 35.40625 
Q 44.1875 33.984375 37.640625 27.21875 
Q 31.109375 20.453125 19.1875 8.296875 
z
" id="DejaVuSans-32"/>
       <path d="M 10.796875 72.90625 
L 49.515625 72.90625 
L 49.515625 64.59375 
L 19.828125 64.59375 
L 19.828125 46.734375 
Q 21.96875 47.46875 24.109375 47.828125 
Q 26.265625 48.1875 28.421875 48.1875 
Q 40.625 48.1875 47.75 41.5 
Q 54.890625 34.8125 54.890625 23.390625 
Q 54.890625 11.625 47.5625 5.09375 
Q 40.234375 -1.421875 26.90625 -1.421875 
Q 22.3125 -1.421875 17.546875 -0.640625 
Q 12.796875 0.140625 7.71875 1.703125 
L 7.71875 11.625 
Q 12.109375 9.234375 16.796875 8.0625 
Q 21.484375 6.890625 26.703125 6.890625 
Q 35.15625 6.890625 40.078125 11.328125 
Q 45.015625 15.765625 45.015625 23.390625 
Q 45.015625 31 40.078125 35.4375 
Q 35.15625 39.890625 26.703125 39.890625 
Q 22.75 39.890625 18.8125 39.015625 
Q 14.890625 38.140625 10.796875 36.28125 
z
" id="DejaVuSans-35"/>
      </defs>
      <g transform="translate(128.37034 325.218125)scale(0.12 -0.12)">
       <use xlink:href="#DejaVuSans-32"/>
       <use x="63.623047" xlink:href="#DejaVuSans-35"/>
      </g>
     </g>
    </g>
    <g id="xtick_3">
     <g id="line2d_5">
      <path clip-path="url(#pe252c4f1e6)" d="M 190.999319 309.1 
L 190.999319 28.8 
" style="fill:none;stroke:#808080;stroke-linecap:square;stroke-width:0.8;"/>
     </g>
     <g id="line2d_6">
      <g>
       <use style="stroke:#000000;stroke-width:0.8;" x="190.999319" xlink:href="#m1cba91113e" y="309.1"/>
      </g>
     </g>
     <g id="text_3">
      <!-- 50 -->
      <g transform="translate(183.364319 325.218125)scale(0.12 -0.12)">
       <use xlink:href="#DejaVuSans-35"/>
       <use x="63.623047" xlink:href="#DejaVuSans-30"/>
      </g>
     </g>
    </g>
    <g id="xtick_4">
     <g id="line2d_7">
      <path clip-path="url(#pe252c4f1e6)" d="M 245.993298 309.1 
L 245.993298 28.8 
" style="fill:none;stroke:#808080;stroke-linecap:square;stroke-width:0.8;"/>
     </g>
     <g id="line2d_8">
      <g>
       <use style="stroke:#000000;stroke-width:0.8;" x="245.993298" xlink:href="#m1cba91113e" y="309.1"/>
      </g>
     </g>
     <g id="text_4">
      <!-- 75 -->
      <defs>
       <path d="M 8.203125 72.90625 
L 55.078125 72.90625 
L 55.078125 68.703125 
L 28.609375 0 
L 18.3125 0 
L 43.21875 64.59375 
L 8.203125 64.59375 
z
" id="DejaVuSans-37"/>
      </defs>
      <g transform="translate(238.358298 325.218125)scale(0.12 -0.12)">
       <use xlink:href="#DejaVuSans-37"/>
       <use x="63.623047" xlink:href="#DejaVuSans-35"/>
      </g>
     </g>
    </g>
    <g id="xtick_5">
     <g id="line2d_9">
      <path clip-path="url(#pe252c4f1e6)" d="M 300.987277 309.1 
L 300.987277 28.8 
" style="fill:none;stroke:#808080;stroke-linecap:square;stroke-width:0.8;"/>
     </g>
     <g id="line2d_10">
      <g>
       <use style="stroke:#000000;stroke-width:0.8;" x="300.987277" xlink:href="#m1cba91113e" y="309.1"/>
      </g>
     </g>
     <g id="text_5">
      <!-- 100 -->
      <defs>
       <path d="M 12.40625 8.296875 
L 28.515625 8.296875 
L 28.515625 63.921875 
L 10.984375 60.40625 
L 10.984375 69.390625 
L 28.421875 72.90625 
L 38.28125 72.90625 
L 38.28125 8.296875 
L 54.390625 8.296875 
L 54.390625 0 
L 12.40625 0 
z
" id="DejaVuSans-31"/>
      </defs>
      <g transform="translate(289.534777 325.218125)scale(0.12 -0.12)">
       <use xlink:href="#DejaVuSans-31"/>
       <use x="63.623047" xlink:href="#DejaVuSans-30"/>
       <use x="127.246094" xlink:href="#DejaVuSans-30"/>
      </g>
     </g>
    </g>
    <g id="xtick_6">
     <g id="line2d_11">
      <path clip-path="url(#pe252c4f1e6)" d="M 355.981256 309.1 
L 355.981256 28.8 
" style="fill:none;stroke:#808080;stroke-linecap:square;stroke-width:0.8;"/>
     </g>
     <g id="line2d_12">
      <g>
       <use style="stroke:#000000;stroke-width:0.8;" x="355.981256" xlink:href="#m1cba91113e" y="309.1"/>
      </g>
     </g>
     <g id="text_6">
      <!-- 125 -->
      <g transform="translate(344.528756 325.218125)scale(0.12 -0.12)">
       <use xlink:href="#DejaVuSans-31"/>
       <use x="63.623047" xlink:href="#DejaVuSans-32"/>
       <use x="127.246094" xlink:href="#DejaVuSans-35"/>
      </g>
     </g>
    </g>
    <g id="xtick_7">
     <g id="line2d_13">
      <path clip-path="url(#pe252c4f1e6)" d="M 410.975235 309.1 
L 410.975235 28.8 
" style="fill:none;stroke:#808080;stroke-linecap:square;stroke-width:0.8;"/>
     </g>
     <g id="line2d_14">
      <g>
       <use style="stroke:#000000;stroke-width:0.8;" x="410.975235" xlink:href="#m1cba91113e" y="309.1"/>
      </g>
     </g>
     <g id="text_7">
      <!-- 150 -->
      <g transform="translate(399.522735 325.218125)scale(0.12 -0.12)">
       <use xlink:href="#DejaVuSans-31"/>
       <use x="63.623047" xlink:href="#DejaVuSans-35"/>
       <use x="127.246094" xlink:href="#DejaVuSans-30"/>
      </g>
     </g>
    </g>
    <g id="xtick_8">
     <g id="line2d_15">
      <path clip-path="url(#pe252c4f1e6)" d="M 465.969214 309.1 
L 465.969214 28.8 
" style="fill:none;stroke:#808080;stroke-linecap:square;stroke-width:0.8;"/>
     </g>
     <g id="line2d_16">
      <g>
       <use style="stroke:#000000;stroke-width:0.8;" x="465.969214" xlink:href="#m1cba91113e" y="309.1"/>
      </g>
     </g>
     <g id="text_8">
      <!-- 175 -->
      <g transform="translate(454.516714 325.218125)scale(0.12 -0.12)">
       <use xlink:href="#DejaVuSans-31"/>
       <use x="63.623047" xlink:href="#DejaVuSans-37"/>
       <use x="127.246094" xlink:href="#DejaVuSans-35"/>
      </g>
     </g>
    </g>
    <g id="text_9">
     <!-- $I_{DS X1}$ [uA] -->
     <defs>
      <path d="M 16.890625 72.90625 
L 26.8125 72.90625 
L 12.59375 0 
L 2.6875 0 
z
" id="DejaVuSans-Oblique-49"/>
      <path d="M 16.890625 72.90625 
L 38.09375 72.90625 
Q 54.984375 72.90625 63.59375 65.75 
Q 72.21875 58.59375 72.21875 44.484375 
Q 72.21875 35.15625 68.9375 26.53125 
Q 65.671875 17.921875 59.90625 12.015625 
Q 54.109375 5.953125 45.171875 2.96875 
Q 36.234375 0 24.03125 0 
L 2.6875 0 
z
M 25.203125 64.796875 
L 14.203125 8.109375 
L 27.09375 8.109375 
Q 43.65625 8.109375 52.734375 17.625 
Q 61.8125 27.15625 61.8125 44.484375 
Q 61.8125 54.984375 55.953125 59.890625 
Q 50.09375 64.796875 37.59375 64.796875 
z
" id="DejaVuSans-Oblique-44"/>
      <path d="M 60.296875 70.515625 
L 58.40625 60.890625 
Q 53.46875 63.53125 48.609375 64.875 
Q 43.75 66.21875 39.203125 66.21875 
Q 30.375 66.21875 25.140625 62.359375 
Q 19.921875 58.5 19.921875 52.09375 
Q 19.921875 48.578125 21.84375 46.703125 
Q 23.78125 44.828125 31.78125 42.671875 
L 37.703125 41.21875 
Q 47.703125 38.625 51.609375 34.640625 
Q 55.515625 30.671875 55.515625 23.484375 
Q 55.515625 12.453125 46.84375 5.515625 
Q 38.1875 -1.421875 24.03125 -1.421875 
Q 18.21875 -1.421875 12.359375 -0.265625 
Q 6.5 0.875 0.59375 3.21875 
L 2.59375 13.375 
Q 8.015625 10.015625 13.453125 8.296875 
Q 18.890625 6.59375 24.3125 6.59375 
Q 33.546875 6.59375 39.109375 10.6875 
Q 44.671875 14.796875 44.671875 21.390625 
Q 44.671875 25.78125 42.453125 28.046875 
Q 40.234375 30.328125 32.90625 32.171875 
L 27 33.6875 
Q 16.890625 36.328125 13.203125 39.765625 
Q 9.515625 43.21875 9.515625 49.421875 
Q 9.515625 60.296875 17.890625 67.25 
Q 26.265625 74.21875 39.703125 74.21875 
Q 44.921875 74.21875 50.046875 73.28125 
Q 55.171875 72.359375 60.296875 70.515625 
z
" id="DejaVuSans-Oblique-53"/>
      <path d="M 13.71875 72.90625 
L 23.6875 72.90625 
L 36.1875 46.578125 
L 58.796875 72.90625 
L 70.3125 72.90625 
L 40.28125 38.09375 
L 58.40625 0 
L 48.484375 0 
L 33.796875 30.71875 
L 7.171875 0 
L -4.296875 0 
L 29.78125 39.203125 
z
" id="DejaVuSans-Oblique-58"/>
      <path id="DejaVuSans-20"/>
      <path d="M 8.59375 75.984375 
L 29.296875 75.984375 
L 29.296875 69 
L 17.578125 69 
L 17.578125 -6.203125 
L 29.296875 -6.203125 
L 29.296875 -13.1875 
L 8.59375 -13.1875 
z
" id="DejaVuSans-5b"/>
      <path d="M 8.5 21.578125 
L 8.5 54.6875 
L 17.484375 54.6875 
L 17.484375 21.921875 
Q 17.484375 14.15625 20.5 10.265625 
Q 23.53125 6.390625 29.59375 6.390625 
Q 36.859375 6.390625 41.078125 11.03125 
Q 45.3125 15.671875 45.3125 23.6875 
L 45.3125 54.6875 
L 54.296875 54.6875 
L 54.296875 0 
L 45.3125 0 
L 45.3125 8.40625 
Q 42.046875 3.421875 37.71875 1 
Q 33.40625 -1.421875 27.6875 -1.421875 
Q 18.265625 -1.421875 13.375 4.4375 
Q 8.5 10.296875 8.5 21.578125 
z
M 31.109375 56 
z
" id="DejaVuSans-75"/>
      <path d="M 34.1875 63.1875 
L 20.796875 26.90625 
L 47.609375 26.90625 
z
M 28.609375 72.90625 
L 39.796875 72.90625 
L 67.578125 0 
L 57.328125 0 
L 50.6875 18.703125 
L 17.828125 18.703125 
L 11.1875 0 
L 0.78125 0 
z
" id="DejaVuSans-41"/>
      <path d="M 30.421875 75.984375 
L 30.421875 -13.1875 
L 9.71875 -13.1875 
L 9.71875 -6.203125 
L 21.390625 -6.203125 
L 21.390625 69 
L 9.71875 69 
L 9.71875 75.984375 
z
" id="DejaVuSans-5d"/>
     </defs>
     <g transform="translate(247.725 340.831875)scale(0.12 -0.12)">
      <use transform="translate(0 0.015625)" xlink:href="#DejaVuSans-Oblique-49"/>
      <use transform="translate(29.492188 -16.390625)scale(0.7)" xlink:href="#DejaVuSans-Oblique-44"/>
      <use transform="translate(83.393555 -16.390625)scale(0.7)" xlink:href="#DejaVuSans-Oblique-53"/>
      <use transform="translate(127.827148 -16.390625)scale(0.7)" xlink:href="#DejaVuSans-Oblique-58"/>
      <use transform="translate(175.78125 -16.390625)scale(0.7)" xlink:href="#DejaVuSans-31"/>
      <use transform="translate(223.051758 0.015625)" xlink:href="#DejaVuSans-20"/>
      <use transform="translate(254.838867 0.015625)" xlink:href="#DejaVuSans-5b"/>
      <use transform="translate(293.852539 0.015625)" xlink:href="#DejaVuSans-75"/>
      <use transform="translate(357.231445 0.015625)" xlink:href="#DejaVuSans-41"/>
      <use transform="translate(425.639648 0.015625)" xlink:href="#DejaVuSans-5d"/>
     </g>
    </g>
   </g>
   <g id="matplotlib.axis_2">
    <g id="ytick_1">
     <g id="line2d_17">
      <path clip-path="url(#pe252c4f1e6)" d="M 61.55 296.359138 
L 489.7 296.359138 
" style="fill:none;stroke:#808080;stroke-linecap:square;stroke-width:0.8;"/>
     </g>
     <g id="line2d_18">
      <defs>
       <path d="M 0 0 
L -3.5 0 
" id="m5d6b9fbb7e" style="stroke:#000000;stroke-width:0.8;"/>
      </defs>
      <g>
       <use style="stroke:#000000;stroke-width:0.8;" x="61.55" xlink:href="#m5d6b9fbb7e" y="296.359138"/>
      </g>
     </g>
     <g id="text_10">
      <!-- 0 -->
      <g transform="translate(46.915 300.9182)scale(0.12 -0.12)">
       <use xlink:href="#DejaVuSans-30"/>
      </g>
     </g>
    </g>
    <g id="ytick_2">
     <g id="line2d_19">
      <path clip-path="url(#pe252c4f1e6)" d="M 61.55 262.835422 
L 489.7 262.835422 
" style="fill:none;stroke:#808080;stroke-linecap:square;stroke-width:0.8;"/>
     </g>
     <g id="line2d_20">
      <g>
       <use style="stroke:#000000;stroke-width:0.8;" x="61.55" xlink:href="#m5d6b9fbb7e" y="262.835422"/>
      </g>
     </g>
     <g id="text_11">
      <!-- 20 -->
      <g transform="translate(39.28 267.394485)scale(0.12 -0.12)">
       <use xlink:href="#DejaVuSans-32"/>
       <use x="63.623047" xlink:href="#DejaVuSans-30"/>
      </g>
     </g>
    </g>
    <g id="ytick_3">
     <g id="line2d_21">
      <path clip-path="url(#pe252c4f1e6)" d="M 61.55 229.311707 
L 489.7 229.311707 
" style="fill:none;stroke:#808080;stroke-linecap:square;stroke-width:0.8;"/>
     </g>
     <g id="line2d_22">
      <g>
       <use style="stroke:#000000;stroke-width:0.8;" x="61.55" xlink:href="#m5d6b9fbb7e" y="229.311707"/>
      </g>
     </g>
     <g id="text_12">
      <!-- 40 -->
      <defs>
       <path d="M 37.796875 64.3125 
L 12.890625 25.390625 
L 37.796875 25.390625 
z
M 35.203125 72.90625 
L 47.609375 72.90625 
L 47.609375 25.390625 
L 58.015625 25.390625 
L 58.015625 17.1875 
L 47.609375 17.1875 
L 47.609375 0 
L 37.796875 0 
L 37.796875 17.1875 
L 4.890625 17.1875 
L 4.890625 26.703125 
z
" id="DejaVuSans-34"/>
      </defs>
      <g transform="translate(39.28 233.870769)scale(0.12 -0.12)">
       <use xlink:href="#DejaVuSans-34"/>
       <use x="63.623047" xlink:href="#DejaVuSans-30"/>
      </g>
     </g>
    </g>
    <g id="ytick_4">
     <g id="line2d_23">
      <path clip-path="url(#pe252c4f1e6)" d="M 61.55 195.787991 
L 489.7 195.787991 
" style="fill:none;stroke:#808080;stroke-linecap:square;stroke-width:0.8;"/>
     </g>
     <g id="line2d_24">
      <g>
       <use style="stroke:#000000;stroke-width:0.8;" x="61.55" xlink:href="#m5d6b9fbb7e" y="195.787991"/>
      </g>
     </g>
     <g id="text_13">
      <!-- 60 -->
      <defs>
       <path d="M 33.015625 40.375 
Q 26.375 40.375 22.484375 35.828125 
Q 18.609375 31.296875 18.609375 23.390625 
Q 18.609375 15.53125 22.484375 10.953125 
Q 26.375 6.390625 33.015625 6.390625 
Q 39.65625 6.390625 43.53125 10.953125 
Q 47.40625 15.53125 47.40625 23.390625 
Q 47.40625 31.296875 43.53125 35.828125 
Q 39.65625 40.375 33.015625 40.375 
z
M 52.59375 71.296875 
L 52.59375 62.3125 
Q 48.875 64.0625 45.09375 64.984375 
Q 41.3125 65.921875 37.59375 65.921875 
Q 27.828125 65.921875 22.671875 59.328125 
Q 17.53125 52.734375 16.796875 39.40625 
Q 19.671875 43.65625 24.015625 45.921875 
Q 28.375 48.1875 33.59375 48.1875 
Q 44.578125 48.1875 50.953125 41.515625 
Q 57.328125 34.859375 57.328125 23.390625 
Q 57.328125 12.15625 50.6875 5.359375 
Q 44.046875 -1.421875 33.015625 -1.421875 
Q 20.359375 -1.421875 13.671875 8.265625 
Q 6.984375 17.96875 6.984375 36.375 
Q 6.984375 53.65625 15.1875 63.9375 
Q 23.390625 74.21875 37.203125 74.21875 
Q 40.921875 74.21875 44.703125 73.484375 
Q 48.484375 72.75 52.59375 71.296875 
z
" id="DejaVuSans-36"/>
      </defs>
      <g transform="translate(39.28 200.347054)scale(0.12 -0.12)">
       <use xlink:href="#DejaVuSans-36"/>
       <use x="63.623047" xlink:href="#DejaVuSans-30"/>
      </g>
     </g>
    </g>
    <g id="ytick_5">
     <g id="line2d_25">
      <path clip-path="url(#pe252c4f1e6)" d="M 61.55 162.264276 
L 489.7 162.264276 
" style="fill:none;stroke:#808080;stroke-linecap:square;stroke-width:0.8;"/>
     </g>
     <g id="line2d_26">
      <g>
       <use style="stroke:#000000;stroke-width:0.8;" x="61.55" xlink:href="#m5d6b9fbb7e" y="162.264276"/>
      </g>
     </g>
     <g id="text_14">
      <!-- 80 -->
      <defs>
       <path d="M 31.78125 34.625 
Q 24.75 34.625 20.71875 30.859375 
Q 16.703125 27.09375 16.703125 20.515625 
Q 16.703125 13.921875 20.71875 10.15625 
Q 24.75 6.390625 31.78125 6.390625 
Q 38.8125 6.390625 42.859375 10.171875 
Q 46.921875 13.96875 46.921875 20.515625 
Q 46.921875 27.09375 42.890625 30.859375 
Q 38.875 34.625 31.78125 34.625 
z
M 21.921875 38.8125 
Q 15.578125 40.375 12.03125 44.71875 
Q 8.5 49.078125 8.5 55.328125 
Q 8.5 64.0625 14.71875 69.140625 
Q 20.953125 74.21875 31.78125 74.21875 
Q 42.671875 74.21875 48.875 69.140625 
Q 55.078125 64.0625 55.078125 55.328125 
Q 55.078125 49.078125 51.53125 44.71875 
Q 48 40.375 41.703125 38.8125 
Q 48.828125 37.15625 52.796875 32.3125 
Q 56.78125 27.484375 56.78125 20.515625 
Q 56.78125 9.90625 50.3125 4.234375 
Q 43.84375 -1.421875 31.78125 -1.421875 
Q 19.734375 -1.421875 13.25 4.234375 
Q 6.78125 9.90625 6.78125 20.515625 
Q 6.78125 27.484375 10.78125 32.3125 
Q 14.796875 37.15625 21.921875 38.8125 
z
M 18.3125 54.390625 
Q 18.3125 48.734375 21.84375 45.5625 
Q 25.390625 42.390625 31.78125 42.390625 
Q 38.140625 42.390625 41.71875 45.5625 
Q 45.3125 48.734375 45.3125 54.390625 
Q 45.3125 60.0625 41.71875 63.234375 
Q 38.140625 66.40625 31.78125 66.40625 
Q 25.390625 66.40625 21.84375 63.234375 
Q 18.3125 60.0625 18.3125 54.390625 
z
" id="DejaVuSans-38"/>
      </defs>
      <g transform="translate(39.28 166.823338)scale(0.12 -0.12)">
       <use xlink:href="#DejaVuSans-38"/>
       <use x="63.623047" xlink:href="#DejaVuSans-30"/>
      </g>
     </g>
    </g>
    <g id="ytick_6">
     <g id="line2d_27">
      <path clip-path="url(#pe252c4f1e6)" d="M 61.55 128.74056 
L 489.7 128.74056 
" style="fill:none;stroke:#808080;stroke-linecap:square;stroke-width:0.8;"/>
     </g>
     <g id="line2d_28">
      <g>
       <use style="stroke:#000000;stroke-width:0.8;" x="61.55" xlink:href="#m5d6b9fbb7e" y="128.74056"/>
      </g>
     </g>
     <g id="text_15">
      <!-- 100 -->
      <g transform="translate(31.645 133.299622)scale(0.12 -0.12)">
       <use xlink:href="#DejaVuSans-31"/>
       <use x="63.623047" xlink:href="#DejaVuSans-30"/>
       <use x="127.246094" xlink:href="#DejaVuSans-30"/>
      </g>
     </g>
    </g>
    <g id="ytick_7">
     <g id="line2d_29">
      <path clip-path="url(#pe252c4f1e6)" d="M 61.55 95.216844 
L 489.7 95.216844 
" style="fill:none;stroke:#808080;stroke-linecap:square;stroke-width:0.8;"/>
     </g>
     <g id="line2d_30">
      <g>
       <use style="stroke:#000000;stroke-width:0.8;" x="61.55" xlink:href="#m5d6b9fbb7e" y="95.216844"/>
      </g>
     </g>
     <g id="text_16">
      <!-- 120 -->
      <g transform="translate(31.645 99.775907)scale(0.12 -0.12)">
       <use xlink:href="#DejaVuSans-31"/>
       <use x="63.623047" xlink:href="#DejaVuSans-32"/>
       <use x="127.246094" xlink:href="#DejaVuSans-30"/>
      </g>
     </g>
    </g>
    <g id="ytick_8">
     <g id="line2d_31">
      <path clip-path="url(#pe252c4f1e6)" d="M 61.55 61.693129 
L 489.7 61.693129 
" style="fill:none;stroke:#808080;stroke-linecap:square;stroke-width:0.8;"/>
     </g>
     <g id="line2d_32">
      <g>
       <use style="stroke:#000000;stroke-width:0.8;" x="61.55" xlink:href="#m5d6b9fbb7e" y="61.693129"/>
      </g>
     </g>
     <g id="text_17">
      <!-- 140 -->
      <g transform="translate(31.645 66.252191)scale(0.12 -0.12)">
       <use xlink:href="#DejaVuSans-31"/>
       <use x="63.623047" xlink:href="#DejaVuSans-34"/>
       <use x="127.246094" xlink:href="#DejaVuSans-30"/>
      </g>
     </g>
    </g>
    <g id="text_18">
     <!-- $g_{m X1}$ [uS] -->
     <defs>
      <path d="M 59.625 54.6875 
L 50.296875 6.78125 
Q 47.609375 -7.125 40.015625 -13.953125 
Q 32.421875 -20.796875 19.578125 -20.796875 
Q 14.84375 -20.796875 10.78125 -20.09375 
Q 6.734375 -19.390625 3.21875 -17.921875 
L 4.890625 -9.1875 
Q 8.203125 -11.328125 11.90625 -12.34375 
Q 15.625 -13.375 19.828125 -13.375 
Q 28.375 -13.375 33.859375 -8.703125 
Q 39.359375 -4.046875 41.109375 4.6875 
L 41.890625 8.796875 
Q 38.140625 4.5 33.15625 2.25 
Q 28.171875 0 22.40625 0 
Q 14.109375 0 9.34375 5.484375 
Q 4.59375 10.984375 4.59375 20.609375 
Q 4.59375 28.171875 7.46875 35.421875 
Q 10.359375 42.671875 15.578125 48.296875 
Q 19.046875 52 23.65625 54 
Q 28.265625 56 33.296875 56 
Q 38.8125 56 42.90625 53.4375 
Q 47.015625 50.875 49.03125 46.1875 
L 50.59375 54.6875 
z
M 46.09375 34.625 
Q 46.09375 41.265625 42.96875 44.875 
Q 39.84375 48.484375 34.078125 48.484375 
Q 30.515625 48.484375 27.296875 47.0625 
Q 24.078125 45.65625 21.78125 43.109375 
Q 18.0625 38.921875 15.984375 33.234375 
Q 13.921875 27.546875 13.921875 21.484375 
Q 13.921875 14.75 17.0625 11.125 
Q 20.21875 7.515625 26.125 7.515625 
Q 34.671875 7.515625 40.375 15.25 
Q 46.09375 23 46.09375 34.625 
z
" id="DejaVuSans-Oblique-67"/>
      <path d="M 89.796875 33.015625 
L 83.40625 0 
L 74.421875 0 
L 80.71875 32.71875 
Q 81.109375 34.8125 81.296875 36.328125 
Q 81.5 37.84375 81.5 38.921875 
Q 81.5 43.3125 79.046875 45.75 
Q 76.609375 48.1875 72.21875 48.1875 
Q 65.671875 48.1875 60.546875 43.28125 
Q 55.421875 38.375 53.90625 30.515625 
L 47.90625 0 
L 38.921875 0 
L 45.3125 32.71875 
Q 45.703125 34.515625 45.890625 36.046875 
Q 46.09375 37.59375 46.09375 38.8125 
Q 46.09375 43.265625 43.65625 45.71875 
Q 41.21875 48.1875 36.921875 48.1875 
Q 30.28125 48.1875 25.140625 43.28125 
Q 20.015625 38.375 18.5 30.515625 
L 12.5 0 
L 3.515625 0 
L 14.203125 54.6875 
L 23.1875 54.6875 
L 21.484375 46.1875 
Q 25.140625 50.984375 30.046875 53.484375 
Q 34.96875 56 40.578125 56 
Q 46.53125 56 50.359375 52.875 
Q 54.203125 49.75 54.984375 44.1875 
Q 59.078125 49.953125 64.46875 52.96875 
Q 69.875 56 75.875 56 
Q 82.90625 56 86.734375 51.953125 
Q 90.578125 47.90625 90.578125 40.484375 
Q 90.578125 38.875 90.375 36.9375 
Q 90.1875 35.015625 89.796875 33.015625 
z
" id="DejaVuSans-Oblique-6d"/>
      <path d="M 53.515625 70.515625 
L 53.515625 60.890625 
Q 47.90625 63.578125 42.921875 64.890625 
Q 37.9375 66.21875 33.296875 66.21875 
Q 25.25 66.21875 20.875 63.09375 
Q 16.5 59.96875 16.5 54.203125 
Q 16.5 49.359375 19.40625 46.890625 
Q 22.3125 44.4375 30.421875 42.921875 
L 36.375 41.703125 
Q 47.40625 39.59375 52.65625 34.296875 
Q 57.90625 29 57.90625 20.125 
Q 57.90625 9.515625 50.796875 4.046875 
Q 43.703125 -1.421875 29.984375 -1.421875 
Q 24.8125 -1.421875 18.96875 -0.25 
Q 13.140625 0.921875 6.890625 3.21875 
L 6.890625 13.375 
Q 12.890625 10.015625 18.65625 8.296875 
Q 24.421875 6.59375 29.984375 6.59375 
Q 38.421875 6.59375 43.015625 9.90625 
Q 47.609375 13.234375 47.609375 19.390625 
Q 47.609375 24.75 44.3125 27.78125 
Q 41.015625 30.8125 33.5 32.328125 
L 27.484375 33.5 
Q 16.453125 35.6875 11.515625 40.375 
Q 6.59375 45.0625 6.59375 53.421875 
Q 6.59375 63.09375 13.40625 68.65625 
Q 20.21875 74.21875 32.171875 74.21875 
Q 37.3125 74.21875 42.625 73.28125 
Q 47.953125 72.359375 53.515625 70.515625 
z
" id="DejaVuSans-53"/>
     </defs>
     <g transform="translate(25.125 196.79)rotate(-90)scale(0.12 -0.12)">
      <use transform="translate(0 0.015625)" xlink:href="#DejaVuSans-Oblique-67"/>
      <use transform="translate(63.476562 -16.390625)scale(0.7)" xlink:href="#DejaVuSans-Oblique-6d"/>
      <use transform="translate(131.665039 -16.390625)scale(0.7)" xlink:href="#DejaVuSans-Oblique-58"/>
      <use transform="translate(179.619141 -16.390625)scale(0.7)" xlink:href="#DejaVuSans-31"/>
      <use transform="translate(226.889648 0.015625)" xlink:href="#DejaVuSans-20"/>
      <use transform="translate(258.676758 0.015625)" xlink:href="#DejaVuSans-5b"/>
      <use transform="translate(297.69043 0.015625)" xlink:href="#DejaVuSans-75"/>
      <use transform="translate(361.069336 0.015625)" xlink:href="#DejaVuSans-53"/>
      <use transform="translate(424.545898 0.015625)" xlink:href="#DejaVuSans-5d"/>
     </g>
    </g>
   </g>
   <g id="line2d_33">
    <path clip-path="url(#pe252c4f1e6)" d="M 81.011364 296.359091 
L 81.011368 296.359004 
L 81.011379 296.35876 
L 81.01141 296.358077 
L 81.011497 296.356206 
L 81.011733 296.35123 
L 81.012345 296.338664 
L 81.013851 296.309537 
L 81.017251 296.250665 
L 81.024101 296.153412 
L 81.036081 296.029639 
L 81.054038 295.911617 
L 81.07726 295.827846 
L 81.103807 295.7874 
L 81.131547 295.784678 
L 81.158909 295.80864 
L 81.185043 295.848366 
L 81.209632 295.895304 
L 81.232655 295.943666 
L 81.254221 295.989989 
L 81.274476 296.032478 
L 81.293565 296.070415 
L 81.311614 296.10372 
L 81.328729 296.132651 
L 81.344999 296.157626 
L 81.360498 296.179115 
L 81.375288 296.19758 
L 81.389422 296.213448 
L 81.402948 296.2271 
L 81.415905 296.238866 
L 81.428332 296.249029 
L 81.44026 296.257832 
L 81.451719 296.265476 
L 81.462738 296.272135 
L 81.473342 296.277953 
L 81.483553 296.28305 
L 81.493393 296.28753 
L 81.502882 296.29148 
L 81.512039 296.294972 
L 81.52088 296.298067 
L 81.529422 296.300819 
L 81.53768 296.303273 
L 81.545667 296.305466 
L 81.553397 296.307431 
L 81.560882 296.309196 
L 81.568134 296.310785 
L 81.575163 296.312219 
L 81.581978 296.313516 
L 81.588591 296.314691 
L 81.59501 296.315759 
" style="fill:none;stroke:#ff0000;stroke-linecap:square;stroke-width:2;"/>
   </g>
   <g id="line2d_34">
    <path clip-path="url(#pe252c4f1e6)" d="M 81.01142 296.357866 
L 81.011528 296.355511 
L 81.011835 296.348834 
L 81.012702 296.330034 
L 81.015125 296.277732 
L 81.021793 296.135138 
L 81.039674 295.759257 
L 81.085736 294.8216 
L 81.197582 292.676488 
L 81.447909 288.346415 
L 81.953613 280.887723 
L 82.863785 270.037891 
L 84.322286 256.47299 
L 86.426219 241.447993 
L 89.205974 226.359154 
L 92.628348 212.590021 
L 96.606657 201.528583 
L 101.008431 194.416969 
L 105.667338 191.887911 
L 110.409411 193.639545 
L 115.087394 198.668361 
L 119.603234 205.76145 
L 123.908547 213.844417 
L 127.990745 222.118671 
L 131.857133 230.066766 
L 135.523395 237.39916 
L 139.007136 243.987454 
L 142.324955 249.805825 
L 145.491461 254.887468 
L 148.519186 259.295341 
L 151.418836 263.104004 
L 154.199618 266.389125 
L 156.869547 269.22193 
L 159.435688 271.666655 
L 161.904351 273.779741 
L 164.281226 275.609971 
L 166.571492 277.19907 
L 168.779896 278.582495 
L 170.910812 279.79026 
L 172.968287 280.847729 
L 174.956076 281.776321 
L 176.877677 282.594131 
L 178.73635 283.316465 
L 180.535141 283.95629 
L 182.276903 284.524612 
L 183.964308 285.030797 
L 185.599862 285.482831 
L 187.18592 285.887544 
L 188.724695 286.250789 
L 190.218272 286.577601 
" style="fill:none;stroke:#0000ff;stroke-linecap:square;stroke-width:2;"/>
   </g>
   <g id="line2d_35">
    <path clip-path="url(#pe252c4f1e6)" d="M 81.011421 296.357831 
L 81.011532 296.355411 
L 81.011848 296.348551 
L 81.012739 296.329235 
L 81.015229 296.275497 
L 81.02208 296.128984 
L 81.040452 295.742757 
L 81.087784 294.779222 
L 81.202724 292.574597 
L 81.460015 288.123094 
L 81.979945 280.450299 
L 82.91626 269.272043 
L 84.41838 255.243476 
L 86.590332 239.552631 
L 89.473846 223.393264 
L 93.058629 207.684908 
L 97.303711 193.014313 
L 102.15583 179.685833 
L 107.560417 167.80666 
L 113.466336 157.373534 
L 119.826526 148.35669 
L 126.595675 140.795797 
L 133.724774 134.922432 
L 141.152061 131.267984 
L 148.79228 130.593542 
L 156.531868 133.498447 
L 164.24008 139.965009 
L 171.795159 149.302448 
L 179.108949 160.471362 
L 186.134809 172.438228 
L 192.859807 184.377463 
L 199.291493 195.728777 
L 205.446864 206.170446 
L 211.34562 215.560573 
L 217.00687 223.877044 
L 222.447885 231.169083 
L 227.683861 237.522938 
L 232.728103 243.039698 
L 237.592318 247.822035 
L 242.28691 251.966975 
L 246.821224 255.562457 
L 251.203743 258.686146 
L 255.442229 261.405511 
L 259.54384 263.77855 
L 263.515209 265.854787 
L 267.362513 267.676346 
L 271.091518 269.278985 
L 274.707625 270.693038 
L 278.215902 271.944246 
L 281.621112 273.054476 
" style="fill:none;stroke:#008000;stroke-linecap:square;stroke-width:2;"/>
   </g>
   <g id="line2d_36">
    <path clip-path="url(#pe252c4f1e6)" d="M 81.011423 296.357796 
L 81.011537 296.355313 
L 81.011861 296.348273 
L 81.012775 296.328449 
L 81.01533 296.273297 
L 81.022362 296.122931 
L 81.041217 295.726547 
L 81.089794 294.737672 
L 81.207757 292.475068 
L 81.471814 287.906496 
L 82.005418 280.031912 
L 82.966357 268.559668 
L 84.507982 254.162125 
L 86.737059 238.058499 
L 89.696421 221.473781 
L 93.375523 205.351222 
L 97.732367 190.291694 
L 102.712428 176.603869 
L 108.260077 164.387542 
L 114.323839 153.611677 
L 120.858048 144.173619 
L 127.822793 135.938717 
L 135.183242 128.764501 
L 142.90883 122.514366 
L 150.972494 117.065123 
L 159.349981 112.312315 
L 168.01913 108.178006 
L 176.958873 104.628776 
L 186.147439 101.71695 
L 195.558795 99.658231 
L 205.156206 98.926666 
L 214.88316 100.255924 
L 224.656382 104.388609 
L 234.370047 111.649616 
L 243.915419 121.72018 
L 253.205438 133.793017 
L 262.188112 146.899897 
L 270.84417 160.173368 
L 279.176404 172.969602 
L 287.198995 184.883217 
L 294.930284 195.706908 
L 302.388924 205.375331 
L 309.59224 213.913775 
L 316.555764 221.398868 
L 323.29328 227.931579 
L 329.817053 233.620163 
L 336.138092 238.570231 
L 342.266374 242.879538 
L 348.211027 246.635717 
L 353.980472 249.915741 
" style="fill:none;stroke:#00bfbf;stroke-linecap:square;stroke-width:2;"/>
   </g>
   <g id="line2d_37">
    <path clip-path="url(#pe252c4f1e6)" d="M 81.011425 296.357762 
L 81.011541 296.355215 
L 81.011873 296.347994 
L 81.012811 296.327662 
L 81.015432 296.271098 
L 81.022644 296.116878 
L 81.041982 295.710337 
L 81.091803 294.696123 
L 81.212789 292.375541 
L 81.483613 287.6899 
L 82.03089 279.613533 
L 83.016453 267.847318 
L 84.597582 253.080844 
L 86.883778 236.564569 
L 89.918973 219.554875 
L 93.69235 203.019181 
L 98.160836 187.573757 
L 103.268509 173.535183 
L 108.958314 161.005806 
L 115.17746 149.953781 
L 121.879108 140.273784 
L 129.022331 131.827599 
L 136.571415 124.468784 
L 144.495041 118.056322 
L 152.765537 112.461299 
L 161.358256 107.569434 
L 170.25109 103.28133 
L 179.424076 99.511554 
L 188.859095 96.187228 
L 198.539627 93.246539 
L 208.450544 90.637458 
L 218.577932 88.31706 
L 228.908897 86.252286 
L 239.431297 84.424215 
L 250.133246 82.840702 
L 261.002028 81.567001 
L 272.021727 80.786961 
L 283.168524 80.890723 
L 294.403173 82.520845 
L 305.663169 86.43846 
L 316.861933 93.17651 
L 327.901848 102.726739 
L 338.696644 114.528742 
L 349.188436 127.717474 
L 359.350504 141.40773 
L 369.179589 154.8751 
L 378.685842 167.618492 
L 387.885181 179.346161 
L 396.794858 189.929284 
L 405.431388 199.350861 
" style="fill:none;stroke:#bf00bf;stroke-linecap:square;stroke-width:2;"/>
   </g>
   <g id="line2d_38">
    <path clip-path="url(#pe252c4f1e6)" d="M 81.011426 296.357728 
L 81.011546 296.355117 
L 81.011886 296.347716 
L 81.012847 296.326876 
L 81.015534 296.268898 
L 81.022926 296.110826 
L 81.042747 295.694127 
L 81.093813 294.654573 
L 81.217822 292.276013 
L 81.495412 287.473305 
L 82.056363 279.195155 
L 83.066549 267.134968 
L 84.687181 251.999562 
L 87.030497 235.070639 
L 90.141524 217.635968 
L 94.009176 200.687141 
L 98.589305 184.855822 
L 103.82459 170.466504 
L 109.656552 157.624088 
L 116.031078 146.295935 
L 122.900163 136.374088 
L 130.221855 127.716881 
L 137.959548 120.17421 
L 146.081141 113.601536 
L 154.55827 107.866722 
L 163.365674 102.852629 
L 172.48069 98.457367 
L 181.88286 94.59334 
L 191.553613 91.185772 
L 201.476022 88.171083 
L 211.634602 85.495307 
L 222.015143 83.112657 
L 232.604568 80.984257 
L 243.390825 79.077051 
L 254.362773 77.362887 
L 265.510104 75.817757 
L 276.823257 74.421209 
L 288.293348 73.155981 
L 299.912095 72.008054 
L 311.67173 70.967671 
L 323.564848 70.032791 
L 335.584111 69.218498 
L 347.721536 68.579758 
L 359.96688 68.258733 
L 372.304222 68.560617 
L 384.705927 70.020072 
L 397.124996 73.351144 
L 409.49102 79.195901 
L 421.717306 87.79399 
L 433.719581 98.839053 
" style="fill:none;stroke:#bfbf00;stroke-linecap:square;stroke-width:2;"/>
   </g>
   <g id="line2d_39">
    <path clip-path="url(#pe252c4f1e6)" d="M 81.011428 296.357693 
L 81.01155 296.355019 
L 81.011899 296.347437 
L 81.012883 296.326089 
L 81.015635 296.266698 
L 81.023208 296.104773 
L 81.043512 295.677917 
L 81.095823 294.613024 
L 81.222854 292.176485 
L 81.507211 287.256709 
L 82.081835 278.776776 
L 83.116645 266.422618 
L 84.776781 250.918281 
L 87.177215 233.576709 
L 90.364075 215.717061 
L 94.326003 198.3551 
L 99.017774 182.137887 
L 104.380671 167.397824 
L 110.354789 154.242369 
L 116.884697 142.638088 
L 123.921218 132.474393 
L 131.421379 123.606163 
L 139.347682 115.879637 
L 147.667242 109.146752 
L 156.351004 103.272149 
L 165.373091 98.135836 
L 174.710289 93.633437 
L 184.34164 89.675224 
L 194.248121 86.184595 
L 204.412393 83.096421 
L 214.818593 80.355421 
L 225.452162 77.914692 
L 236.299709 75.734406 
L 247.348885 73.780695 
L 258.58828 72.024702 
L 270.007335 70.441781 
L 281.59626 69.010823 
L 293.345967 67.713706 
L 305.248004 66.53482 
L 317.294503 65.460686 
L 329.478129 64.47963 
L 341.792036 63.581516 
L 354.229823 62.757541 
L 366.785503 62.000084 
L 379.453462 61.302674 
L 392.228424 60.660212 
L 405.105399 60.069834 
L 418.079596 59.533475 
L 431.146231 59.064687 
L 444.300059 58.705309 
" style="fill:none;stroke:#000000;stroke-linecap:square;stroke-width:2;"/>
   </g>
   <g id="line2d_40">
    <path clip-path="url(#pe252c4f1e6)" d="M 81.011429 296.357659 
L 81.011555 296.354921 
L 81.011912 296.347159 
L 81.01292 296.325303 
L 81.015737 296.264499 
L 81.02349 296.09872 
L 81.044277 295.661707 
L 81.097833 294.571475 
L 81.227887 292.076957 
L 81.51901 287.040114 
L 82.107307 278.358398 
L 83.166741 265.710268 
L 84.86638 249.837 
L 87.323934 232.082779 
L 90.586626 213.798155 
L 94.64283 196.023059 
L 99.446243 179.419952 
L 104.936752 164.329144 
L 111.053026 150.860651 
L 117.738315 138.980242 
L 124.942274 128.574698 
L 132.620904 119.495445 
L 140.735815 111.585063 
L 149.253342 104.691967 
L 158.143737 98.677576 
L 167.380508 93.419042 
L 176.939888 88.809508 
L 186.80042 84.757107 
L 196.94263 81.183418 
L 207.348764 78.02176 
L 218.002583 75.215537 
L 228.889182 72.716729 
L 239.99485 70.484562 
L 251.306945 68.484363 
L 262.813786 66.686586 
L 274.504561 65.065998 
L 286.369249 63.60099 
L 298.398544 62.273007 
L 310.583794 61.066068 
L 322.916944 59.966371 
L 335.390484 58.961958 
L 347.997405 58.042442 
L 360.731156 57.198771 
L 373.585609 56.423034 
L 386.555024 55.7083 
L 399.634021 55.048479 
L 412.817548 54.438204 
L 426.100861 53.872738 
L 439.479496 53.347893 
L 452.949255 52.859965 
" style="fill:none;stroke:#ff0000;stroke-linecap:square;stroke-width:2;"/>
   </g>
   <g id="line2d_41">
    <path clip-path="url(#pe252c4f1e6)" d="M 81.011431 296.357624 
L 81.011559 296.354823 
L 81.011925 296.346881 
L 81.012956 296.324517 
L 81.015839 296.262299 
L 81.023771 296.092668 
L 81.045042 295.645497 
L 81.099843 294.529925 
L 81.232919 291.97743 
L 81.530809 286.823518 
L 82.132779 277.94002 
L 83.216837 264.997918 
L 84.95598 248.755719 
L 87.470653 230.588849 
L 90.809177 211.879248 
L 94.959656 193.691019 
L 99.874712 176.702017 
L 105.492833 161.260464 
L 111.751263 147.478932 
L 118.591934 135.322395 
L 125.963329 124.675003 
L 133.820428 115.384727 
L 142.123948 107.29049 
L 150.839442 100.237182 
L 159.93647 94.083003 
L 169.387925 88.702249 
L 179.169487 83.985579 
L 189.259201 79.83899 
L 199.637138 76.182241 
L 210.285135 72.947098 
L 221.186573 70.075652 
L 232.326202 67.518767 
L 243.689991 65.234719 
L 255.265005 63.18803 
L 267.039291 61.348469 
L 279.001787 59.690214 
L 291.142237 58.191157 
L 303.451121 56.832308 
L 315.919584 55.597317 
L 328.539385 54.47206 
L 341.302838 53.444303 
L 354.202773 52.503416 
L 367.232485 51.640136 
L 380.385705 50.846369 
L 393.65656 50.115022 
L 407.039542 49.439864 
L 420.529485 48.815402 
L 434.121532 48.236787 
L 447.811119 47.699721 
L 461.593947 47.200391 
" style="fill:none;stroke:#0000ff;stroke-linecap:square;stroke-width:2;"/>
   </g>
   <g id="line2d_42">
    <path clip-path="url(#pe252c4f1e6)" d="M 81.011432 296.35759 
L 81.011564 296.354725 
L 81.011937 296.346602 
L 81.012992 296.32373 
L 81.015941 296.260099 
L 81.024053 296.086615 
L 81.045807 295.629288 
L 81.101852 294.488376 
L 81.237952 291.877902 
L 81.542607 286.606923 
L 82.158252 277.521641 
L 83.266933 264.285568 
L 85.045579 247.674438 
L 87.617371 229.094919 
L 91.031728 209.960342 
L 95.276483 191.358978 
L 100.303181 173.984082 
L 106.048914 158.191784 
L 112.4495 144.097214 
L 119.445553 131.664549 
L 126.984384 120.775308 
L 135.019952 111.274009 
L 143.512082 102.995917 
L 152.425542 95.782398 
L 161.729203 89.48843 
L 171.395342 83.985456 
L 181.399086 79.161649 
L 191.717981 74.920874 
L 202.331647 71.181063 
L 213.221506 67.872437 
L 224.370563 64.935768 
L 235.763221 62.320804 
L 247.385132 59.984876 
L 259.223065 57.891698 
L 271.264796 56.010352 
L 283.499012 54.314431 
L 295.915225 52.781323 
L 308.503697 51.391609 
L 321.255374 50.128567 
L 334.161825 48.97775 
L 347.215193 47.926648 
L 360.408141 46.964389 
L 373.733815 46.0815 
L 387.185802 45.269703 
L 400.758095 44.521745 
L 414.445064 43.831251 
L 428.241422 43.192605 
L 442.142204 42.600846 
L 456.14274 42.051581 
L 470.238636 41.540909 
" style="fill:none;stroke:#008000;stroke-linecap:square;stroke-width:2;"/>
   </g>
   <g id="patch_3">
    <path d="M 61.55 309.1 
L 61.55 28.8 
" style="fill:none;stroke:#000000;stroke-linecap:square;stroke-linejoin:miter;stroke-width:0.8;"/>
   </g>
   <g id="patch_4">
    <path d="M 489.7 309.1 
L 489.7 28.8 
" style="fill:none;stroke:#000000;stroke-linecap:square;stroke-linejoin:miter;stroke-width:0.8;"/>
   </g>
   <g id="patch_5">
    <path d="M 61.55 309.1 
L 489.7 309.1 
" style="fill:none;stroke:#000000;stroke-linecap:square;stroke-linejoin:miter;stroke-width:0.8;"/>
   </g>
   <g id="patch_6">
    <path d="M 61.55 28.8 
L 489.7 28.8 
" style="fill:none;stroke:#000000;stroke-linecap:square;stroke-linejoin:miter;stroke-width:0.8;"/>
   </g>
   <g id="text_19">
    <!-- $g_m(I_{ds})$ -->
    <defs>
     <path d="M 31 75.875 
Q 24.46875 64.65625 21.28125 53.65625 
Q 18.109375 42.671875 18.109375 31.390625 
Q 18.109375 20.125 21.3125 9.0625 
Q 24.515625 -2 31 -13.1875 
L 23.1875 -13.1875 
Q 15.875 -1.703125 12.234375 9.375 
Q 8.59375 20.453125 8.59375 31.390625 
Q 8.59375 42.28125 12.203125 53.3125 
Q 15.828125 64.359375 23.1875 75.875 
z
" id="DejaVuSans-28"/>
     <path d="M 41.796875 8.203125 
Q 38.1875 3.46875 33.25 1.015625 
Q 28.328125 -1.421875 22.3125 -1.421875 
Q 14.109375 -1.421875 9.34375 4.171875 
Q 4.59375 9.765625 4.59375 19.484375 
Q 4.59375 27.59375 7.46875 34.9375 
Q 10.359375 42.28125 15.828125 48.09375 
Q 19.4375 51.953125 23.96875 53.96875 
Q 28.515625 56 33.5 56 
Q 38.765625 56 42.796875 53.453125 
Q 46.828125 50.921875 49.03125 46.1875 
L 54.890625 75.984375 
L 63.921875 75.984375 
L 49.125 0 
L 40.09375 0 
z
M 13.921875 21.09375 
Q 13.921875 14.015625 17.109375 10.0625 
Q 20.3125 6.109375 25.984375 6.109375 
Q 30.171875 6.109375 33.765625 8.125 
Q 37.359375 10.15625 40.09375 14.109375 
Q 42.96875 18.21875 44.625 23.578125 
Q 46.296875 28.953125 46.296875 34.1875 
Q 46.296875 40.96875 43.09375 44.765625 
Q 39.890625 48.578125 34.28125 48.578125 
Q 30.03125 48.578125 26.359375 46.578125 
Q 22.703125 44.578125 20.125 40.828125 
Q 17.28125 36.765625 15.59375 31.390625 
Q 13.921875 26.03125 13.921875 21.09375 
z
" id="DejaVuSans-Oblique-64"/>
     <path d="M 50 53.078125 
L 48.296875 44.578125 
Q 44.734375 46.53125 40.765625 47.5 
Q 36.8125 48.484375 32.625 48.484375 
Q 25.53125 48.484375 21.453125 46.0625 
Q 17.390625 43.65625 17.390625 39.5 
Q 17.390625 34.671875 26.859375 32.078125 
Q 27.59375 31.890625 27.9375 31.78125 
L 30.8125 30.90625 
Q 39.796875 28.421875 42.796875 25.6875 
Q 45.796875 22.953125 45.796875 18.21875 
Q 45.796875 9.515625 38.890625 4.046875 
Q 31.984375 -1.421875 20.796875 -1.421875 
Q 16.453125 -1.421875 11.671875 -0.578125 
Q 6.890625 0.25 1.125 2 
L 2.875 11.28125 
Q 7.8125 8.734375 12.59375 7.421875 
Q 17.390625 6.109375 21.78125 6.109375 
Q 28.375 6.109375 32.5 8.9375 
Q 36.625 11.765625 36.625 16.109375 
Q 36.625 20.796875 25.78125 23.6875 
L 24.859375 23.921875 
L 21.78125 24.703125 
Q 14.9375 26.515625 11.765625 29.46875 
Q 8.59375 32.421875 8.59375 37.015625 
Q 8.59375 45.75 15.15625 50.875 
Q 21.734375 56 33.015625 56 
Q 37.453125 56 41.671875 55.265625 
Q 45.90625 54.546875 50 53.078125 
z
" id="DejaVuSans-Oblique-73"/>
     <path d="M 8.015625 75.875 
L 15.828125 75.875 
Q 23.140625 64.359375 26.78125 53.3125 
Q 30.421875 42.28125 30.421875 31.390625 
Q 30.421875 20.453125 26.78125 9.375 
Q 23.140625 -1.703125 15.828125 -13.1875 
L 8.015625 -13.1875 
Q 14.5 -2 17.703125 9.0625 
Q 20.90625 20.125 20.90625 31.390625 
Q 20.90625 42.671875 17.703125 53.65625 
Q 14.5 64.65625 8.015625 75.875 
z
" id="DejaVuSans-29"/>
    </defs>
    <g transform="translate(256.065 22.8)scale(0.12 -0.12)">
     <use transform="translate(0 0.125)" xlink:href="#DejaVuSans-Oblique-67"/>
     <use transform="translate(63.476562 -16.28125)scale(0.7)" xlink:href="#DejaVuSans-Oblique-6d"/>
     <use transform="translate(134.399414 0.125)" xlink:href="#DejaVuSans-28"/>
     <use transform="translate(173.413086 0.125)" xlink:href="#DejaVuSans-Oblique-49"/>
     <use transform="translate(202.905273 -16.28125)scale(0.7)" xlink:href="#DejaVuSans-Oblique-64"/>
     <use transform="translate(247.338867 -16.28125)scale(0.7)" xlink:href="#DejaVuSans-Oblique-73"/>
     <use transform="translate(286.542969 0.125)" xlink:href="#DejaVuSans-29"/>
    </g>
   </g>
   <g id="legend_1">
    <g id="patch_7">
     <path d="M 382.38 304.1 
L 482.7 304.1 
Q 484.7 304.1 484.7 302.1 
L 484.7 185.9625 
Q 484.7 183.9625 482.7 183.9625 
L 382.38 183.9625 
Q 380.38 183.9625 380.38 185.9625 
L 380.38 302.1 
Q 380.38 304.1 382.38 304.1 
z
" style="fill:#ffffff;opacity:0.8;stroke:#cccccc;stroke-linejoin:miter;"/>
    </g>
    <g id="line2d_43">
     <path d="M 382.38 191.580625 
L 392.38 191.580625 
" style="fill:none;stroke:#ff0000;stroke-linecap:square;stroke-width:2;"/>
    </g>
    <g id="line2d_44"/>
    <g id="text_20">
     <!-- $V_{D}$ =  1.0e-03 -->
     <defs>
      <path d="M 20.609375 0 
L 7.8125 72.90625 
L 17.484375 72.90625 
L 28.078125 10.203125 
L 63.484375 72.90625 
L 74.21875 72.90625 
L 32.078125 0 
z
" id="DejaVuSans-Oblique-56"/>
      <path d="M 10.59375 45.40625 
L 73.1875 45.40625 
L 73.1875 37.203125 
L 10.59375 37.203125 
z
M 10.59375 25.484375 
L 73.1875 25.484375 
L 73.1875 17.1875 
L 10.59375 17.1875 
z
" id="DejaVuSans-3d"/>
      <path d="M 10.6875 12.40625 
L 21 12.40625 
L 21 0 
L 10.6875 0 
z
" id="DejaVuSans-2e"/>
      <path d="M 56.203125 29.59375 
L 56.203125 25.203125 
L 14.890625 25.203125 
Q 15.484375 15.921875 20.484375 11.0625 
Q 25.484375 6.203125 34.421875 6.203125 
Q 39.59375 6.203125 44.453125 7.46875 
Q 49.3125 8.734375 54.109375 11.28125 
L 54.109375 2.78125 
Q 49.265625 0.734375 44.1875 -0.34375 
Q 39.109375 -1.421875 33.890625 -1.421875 
Q 20.796875 -1.421875 13.15625 6.1875 
Q 5.515625 13.8125 5.515625 26.8125 
Q 5.515625 40.234375 12.765625 48.109375 
Q 20.015625 56 32.328125 56 
Q 43.359375 56 49.78125 48.890625 
Q 56.203125 41.796875 56.203125 29.59375 
z
M 47.21875 32.234375 
Q 47.125 39.59375 43.09375 43.984375 
Q 39.0625 48.390625 32.421875 48.390625 
Q 24.90625 48.390625 20.390625 44.140625 
Q 15.875 39.890625 15.1875 32.171875 
z
" id="DejaVuSans-65"/>
      <path d="M 4.890625 31.390625 
L 31.203125 31.390625 
L 31.203125 23.390625 
L 4.890625 23.390625 
z
" id="DejaVuSans-2d"/>
      <path d="M 40.578125 39.3125 
Q 47.65625 37.796875 51.625 33 
Q 55.609375 28.21875 55.609375 21.1875 
Q 55.609375 10.40625 48.1875 4.484375 
Q 40.765625 -1.421875 27.09375 -1.421875 
Q 22.515625 -1.421875 17.65625 -0.515625 
Q 12.796875 0.390625 7.625 2.203125 
L 7.625 11.71875 
Q 11.71875 9.328125 16.59375 8.109375 
Q 21.484375 6.890625 26.8125 6.890625 
Q 36.078125 6.890625 40.9375 10.546875 
Q 45.796875 14.203125 45.796875 21.1875 
Q 45.796875 27.640625 41.28125 31.265625 
Q 36.765625 34.90625 28.71875 34.90625 
L 20.21875 34.90625 
L 20.21875 43.015625 
L 29.109375 43.015625 
Q 36.375 43.015625 40.234375 45.921875 
Q 44.09375 48.828125 44.09375 54.296875 
Q 44.09375 59.90625 40.109375 62.90625 
Q 36.140625 65.921875 28.71875 65.921875 
Q 24.65625 65.921875 20.015625 65.03125 
Q 15.375 64.15625 9.8125 62.3125 
L 9.8125 71.09375 
Q 15.4375 72.65625 20.34375 73.4375 
Q 25.25 74.21875 29.59375 74.21875 
Q 40.828125 74.21875 47.359375 69.109375 
Q 53.90625 64.015625 53.90625 55.328125 
Q 53.90625 49.265625 50.4375 45.09375 
Q 46.96875 40.921875 40.578125 39.3125 
z
" id="DejaVuSans-33"/>
     </defs>
     <g transform="translate(394.38 195.080625)scale(0.12 -0.12)">
      <use transform="translate(0 0.78125)" xlink:href="#DejaVuSans-Oblique-56"/>
      <use transform="translate(68.408203 -15.625)scale(0.7)" xlink:href="#DejaVuSans-Oblique-44"/>
      <use transform="translate(125.043945 0.78125)" xlink:href="#DejaVuSans-20"/>
      <use transform="translate(156.831055 0.78125)" xlink:href="#DejaVuSans-3d"/>
      <use transform="translate(240.620117 0.78125)" xlink:href="#DejaVuSans-20"/>
      <use transform="translate(272.407227 0.78125)" xlink:href="#DejaVuSans-20"/>
      <use transform="translate(304.194336 0.78125)" xlink:href="#DejaVuSans-31"/>
      <use transform="translate(367.817383 0.78125)" xlink:href="#DejaVuSans-2e"/>
      <use transform="translate(399.604492 0.78125)" xlink:href="#DejaVuSans-30"/>
      <use transform="translate(463.227539 0.78125)" xlink:href="#DejaVuSans-65"/>
      <use transform="translate(524.750977 0.78125)" xlink:href="#DejaVuSans-2d"/>
      <use transform="translate(560.834961 0.78125)" xlink:href="#DejaVuSans-30"/>
      <use transform="translate(624.458008 0.78125)" xlink:href="#DejaVuSans-33"/>
     </g>
    </g>
    <g id="line2d_45">
     <path d="M 382.38 203.194375 
L 392.38 203.194375 
" style="fill:none;stroke:#0000ff;stroke-linecap:square;stroke-width:2;"/>
    </g>
    <g id="line2d_46"/>
    <g id="text_21">
     <!-- $V_{D}$ =  2.0e-01 -->
     <g transform="translate(394.38 206.694375)scale(0.12 -0.12)">
      <use transform="translate(0 0.78125)" xlink:href="#DejaVuSans-Oblique-56"/>
      <use transform="translate(68.408203 -15.625)scale(0.7)" xlink:href="#DejaVuSans-Oblique-44"/>
      <use transform="translate(125.043945 0.78125)" xlink:href="#DejaVuSans-20"/>
      <use transform="translate(156.831055 0.78125)" xlink:href="#DejaVuSans-3d"/>
      <use transform="translate(240.620117 0.78125)" xlink:href="#DejaVuSans-20"/>
      <use transform="translate(272.407227 0.78125)" xlink:href="#DejaVuSans-20"/>
      <use transform="translate(304.194336 0.78125)" xlink:href="#DejaVuSans-32"/>
      <use transform="translate(367.817383 0.78125)" xlink:href="#DejaVuSans-2e"/>
      <use transform="translate(399.604492 0.78125)" xlink:href="#DejaVuSans-30"/>
      <use transform="translate(463.227539 0.78125)" xlink:href="#DejaVuSans-65"/>
      <use transform="translate(524.750977 0.78125)" xlink:href="#DejaVuSans-2d"/>
      <use transform="translate(560.834961 0.78125)" xlink:href="#DejaVuSans-30"/>
      <use transform="translate(624.458008 0.78125)" xlink:href="#DejaVuSans-31"/>
     </g>
    </g>
    <g id="line2d_47">
     <path d="M 382.38 214.808125 
L 392.38 214.808125 
" style="fill:none;stroke:#008000;stroke-linecap:square;stroke-width:2;"/>
    </g>
    <g id="line2d_48"/>
    <g id="text_22">
     <!-- $V_{D}$ =  4.0e-01 -->
     <g transform="translate(394.38 218.308125)scale(0.12 -0.12)">
      <use transform="translate(0 0.78125)" xlink:href="#DejaVuSans-Oblique-56"/>
      <use transform="translate(68.408203 -15.625)scale(0.7)" xlink:href="#DejaVuSans-Oblique-44"/>
      <use transform="translate(125.043945 0.78125)" xlink:href="#DejaVuSans-20"/>
      <use transform="translate(156.831055 0.78125)" xlink:href="#DejaVuSans-3d"/>
      <use transform="translate(240.620117 0.78125)" xlink:href="#DejaVuSans-20"/>
      <use transform="translate(272.407227 0.78125)" xlink:href="#DejaVuSans-20"/>
      <use transform="translate(304.194336 0.78125)" xlink:href="#DejaVuSans-34"/>
      <use transform="translate(367.817383 0.78125)" xlink:href="#DejaVuSans-2e"/>
      <use transform="translate(399.604492 0.78125)" xlink:href="#DejaVuSans-30"/>
      <use transform="translate(463.227539 0.78125)" xlink:href="#DejaVuSans-65"/>
      <use transform="translate(524.750977 0.78125)" xlink:href="#DejaVuSans-2d"/>
      <use transform="translate(560.834961 0.78125)" xlink:href="#DejaVuSans-30"/>
      <use transform="translate(624.458008 0.78125)" xlink:href="#DejaVuSans-31"/>
     </g>
    </g>
    <g id="line2d_49">
     <path d="M 382.38 226.421875 
L 392.38 226.421875 
" style="fill:none;stroke:#00bfbf;stroke-linecap:square;stroke-width:2;"/>
    </g>
    <g id="line2d_50"/>
    <g id="text_23">
     <!-- $V_{D}$ =  6.0e-01 -->
     <g transform="translate(394.38 229.921875)scale(0.12 -0.12)">
      <use transform="translate(0 0.78125)" xlink:href="#DejaVuSans-Oblique-56"/>
      <use transform="translate(68.408203 -15.625)scale(0.7)" xlink:href="#DejaVuSans-Oblique-44"/>
      <use transform="translate(125.043945 0.78125)" xlink:href="#DejaVuSans-20"/>
      <use transform="translate(156.831055 0.78125)" xlink:href="#DejaVuSans-3d"/>
      <use transform="translate(240.620117 0.78125)" xlink:href="#DejaVuSans-20"/>
      <use transform="translate(272.407227 0.78125)" xlink:href="#DejaVuSans-20"/>
      <use transform="translate(304.194336 0.78125)" xlink:href="#DejaVuSans-36"/>
      <use transform="translate(367.817383 0.78125)" xlink:href="#DejaVuSans-2e"/>
      <use transform="translate(399.604492 0.78125)" xlink:href="#DejaVuSans-30"/>
      <use transform="translate(463.227539 0.78125)" xlink:href="#DejaVuSans-65"/>
      <use transform="translate(524.750977 0.78125)" xlink:href="#DejaVuSans-2d"/>
      <use transform="translate(560.834961 0.78125)" xlink:href="#DejaVuSans-30"/>
      <use transform="translate(624.458008 0.78125)" xlink:href="#DejaVuSans-31"/>
     </g>
    </g>
    <g id="line2d_51">
     <path d="M 382.38 238.035625 
L 392.38 238.035625 
" style="fill:none;stroke:#bf00bf;stroke-linecap:square;stroke-width:2;"/>
    </g>
    <g id="line2d_52"/>
    <g id="text_24">
     <!-- $V_{D}$ =  8.0e-01 -->
     <g transform="translate(394.38 241.535625)scale(0.12 -0.12)">
      <use transform="translate(0 0.78125)" xlink:href="#DejaVuSans-Oblique-56"/>
      <use transform="translate(68.408203 -15.625)scale(0.7)" xlink:href="#DejaVuSans-Oblique-44"/>
      <use transform="translate(125.043945 0.78125)" xlink:href="#DejaVuSans-20"/>
      <use transform="translate(156.831055 0.78125)" xlink:href="#DejaVuSans-3d"/>
      <use transform="translate(240.620117 0.78125)" xlink:href="#DejaVuSans-20"/>
      <use transform="translate(272.407227 0.78125)" xlink:href="#DejaVuSans-20"/>
      <use transform="translate(304.194336 0.78125)" xlink:href="#DejaVuSans-38"/>
      <use transform="translate(367.817383 0.78125)" xlink:href="#DejaVuSans-2e"/>
      <use transform="translate(399.604492 0.78125)" xlink:href="#DejaVuSans-30"/>
      <use transform="translate(463.227539 0.78125)" xlink:href="#DejaVuSans-65"/>
      <use transform="translate(524.750977 0.78125)" xlink:href="#DejaVuSans-2d"/>
      <use transform="translate(560.834961 0.78125)" xlink:href="#DejaVuSans-30"/>
      <use transform="translate(624.458008 0.78125)" xlink:href="#DejaVuSans-31"/>
     </g>
    </g>
    <g id="line2d_53">
     <path d="M 382.38 249.649375 
L 392.38 249.649375 
" style="fill:none;stroke:#bfbf00;stroke-linecap:square;stroke-width:2;"/>
    </g>
    <g id="line2d_54"/>
    <g id="text_25">
     <!-- $V_{D}$ =  1.0e+00 -->
     <defs>
      <path d="M 46 62.703125 
L 46 35.5 
L 73.1875 35.5 
L 73.1875 27.203125 
L 46 27.203125 
L 46 0 
L 37.796875 0 
L 37.796875 27.203125 
L 10.59375 27.203125 
L 10.59375 35.5 
L 37.796875 35.5 
L 37.796875 62.703125 
z
" id="DejaVuSans-2b"/>
     </defs>
     <g transform="translate(394.38 253.149375)scale(0.12 -0.12)">
      <use transform="translate(0 0.78125)" xlink:href="#DejaVuSans-Oblique-56"/>
      <use transform="translate(68.408203 -15.625)scale(0.7)" xlink:href="#DejaVuSans-Oblique-44"/>
      <use transform="translate(125.043945 0.78125)" xlink:href="#DejaVuSans-20"/>
      <use transform="translate(156.831055 0.78125)" xlink:href="#DejaVuSans-3d"/>
      <use transform="translate(240.620117 0.78125)" xlink:href="#DejaVuSans-20"/>
      <use transform="translate(272.407227 0.78125)" xlink:href="#DejaVuSans-20"/>
      <use transform="translate(304.194336 0.78125)" xlink:href="#DejaVuSans-31"/>
      <use transform="translate(367.817383 0.78125)" xlink:href="#DejaVuSans-2e"/>
      <use transform="translate(399.604492 0.78125)" xlink:href="#DejaVuSans-30"/>
      <use transform="translate(463.227539 0.78125)" xlink:href="#DejaVuSans-65"/>
      <use transform="translate(524.750977 0.78125)" xlink:href="#DejaVuSans-2b"/>
      <use transform="translate(608.540039 0.78125)" xlink:href="#DejaVuSans-30"/>
      <use transform="translate(672.163086 0.78125)" xlink:href="#DejaVuSans-30"/>
     </g>
    </g>
    <g id="line2d_55">
     <path d="M 382.38 261.263125 
L 392.38 261.263125 
" style="fill:none;stroke:#000000;stroke-linecap:square;stroke-width:2;"/>
    </g>
    <g id="line2d_56"/>
    <g id="text_26">
     <!-- $V_{D}$ =  1.2e+00 -->
     <g transform="translate(394.38 264.763125)scale(0.12 -0.12)">
      <use transform="translate(0 0.78125)" xlink:href="#DejaVuSans-Oblique-56"/>
      <use transform="translate(68.408203 -15.625)scale(0.7)" xlink:href="#DejaVuSans-Oblique-44"/>
      <use transform="translate(125.043945 0.78125)" xlink:href="#DejaVuSans-20"/>
      <use transform="translate(156.831055 0.78125)" xlink:href="#DejaVuSans-3d"/>
      <use transform="translate(240.620117 0.78125)" xlink:href="#DejaVuSans-20"/>
      <use transform="translate(272.407227 0.78125)" xlink:href="#DejaVuSans-20"/>
      <use transform="translate(304.194336 0.78125)" xlink:href="#DejaVuSans-31"/>
      <use transform="translate(367.817383 0.78125)" xlink:href="#DejaVuSans-2e"/>
      <use transform="translate(399.526367 0.78125)" xlink:href="#DejaVuSans-32"/>
      <use transform="translate(463.149414 0.78125)" xlink:href="#DejaVuSans-65"/>
      <use transform="translate(524.672852 0.78125)" xlink:href="#DejaVuSans-2b"/>
      <use transform="translate(608.461914 0.78125)" xlink:href="#DejaVuSans-30"/>
      <use transform="translate(672.084961 0.78125)" xlink:href="#DejaVuSans-30"/>
     </g>
    </g>
    <g id="line2d_57">
     <path d="M 382.38 272.876875 
L 392.38 272.876875 
" style="fill:none;stroke:#ff0000;stroke-linecap:square;stroke-width:2;"/>
    </g>
    <g id="line2d_58"/>
    <g id="text_27">
     <!-- $V_{D}$ =  1.4e+00 -->
     <g transform="translate(394.38 276.376875)scale(0.12 -0.12)">
      <use transform="translate(0 0.78125)" xlink:href="#DejaVuSans-Oblique-56"/>
      <use transform="translate(68.408203 -15.625)scale(0.7)" xlink:href="#DejaVuSans-Oblique-44"/>
      <use transform="translate(125.043945 0.78125)" xlink:href="#DejaVuSans-20"/>
      <use transform="translate(156.831055 0.78125)" xlink:href="#DejaVuSans-3d"/>
      <use transform="translate(240.620117 0.78125)" xlink:href="#DejaVuSans-20"/>
      <use transform="translate(272.407227 0.78125)" xlink:href="#DejaVuSans-20"/>
      <use transform="translate(304.194336 0.78125)" xlink:href="#DejaVuSans-31"/>
      <use transform="translate(367.817383 0.78125)" xlink:href="#DejaVuSans-2e"/>
      <use transform="translate(399.604492 0.78125)" xlink:href="#DejaVuSans-34"/>
      <use transform="translate(463.227539 0.78125)" xlink:href="#DejaVuSans-65"/>
      <use transform="translate(524.750977 0.78125)" xlink:href="#DejaVuSans-2b"/>
      <use transform="translate(608.540039 0.78125)" xlink:href="#DejaVuSans-30"/>
      <use transform="translate(672.163086 0.78125)" xlink:href="#DejaVuSans-30"/>
     </g>
    </g>
    <g id="line2d_59">
     <path d="M 382.38 284.490625 
L 392.38 284.490625 
" style="fill:none;stroke:#0000ff;stroke-linecap:square;stroke-width:2;"/>
    </g>
    <g id="line2d_60"/>
    <g id="text_28">
     <!-- $V_{D}$ =  1.6e+00 -->
     <g transform="translate(394.38 287.990625)scale(0.12 -0.12)">
      <use transform="translate(0 0.78125)" xlink:href="#DejaVuSans-Oblique-56"/>
      <use transform="translate(68.408203 -15.625)scale(0.7)" xlink:href="#DejaVuSans-Oblique-44"/>
      <use transform="translate(125.043945 0.78125)" xlink:href="#DejaVuSans-20"/>
      <use transform="translate(156.831055 0.78125)" xlink:href="#DejaVuSans-3d"/>
      <use transform="translate(240.620117 0.78125)" xlink:href="#DejaVuSans-20"/>
      <use transform="translate(272.407227 0.78125)" xlink:href="#DejaVuSans-20"/>
      <use transform="translate(304.194336 0.78125)" xlink:href="#DejaVuSans-31"/>
      <use transform="translate(367.817383 0.78125)" xlink:href="#DejaVuSans-2e"/>
      <use transform="translate(399.604492 0.78125)" xlink:href="#DejaVuSans-36"/>
      <use transform="translate(463.227539 0.78125)" xlink:href="#DejaVuSans-65"/>
      <use transform="translate(524.750977 0.78125)" xlink:href="#DejaVuSans-2b"/>
      <use transform="translate(608.540039 0.78125)" xlink:href="#DejaVuSans-30"/>
      <use transform="translate(672.163086 0.78125)" xlink:href="#DejaVuSans-30"/>
     </g>
    </g>
    <g id="line2d_61">
     <path d="M 382.38 296.104375 
L 392.38 296.104375 
" style="fill:none;stroke:#008000;stroke-linecap:square;stroke-width:2;"/>
    </g>
    <g id="line2d_62"/>
    <g id="text_29">
     <!-- $V_{D}$ =  1.8e+00 -->
     <g transform="translate(394.38 299.604375)scale(0.12 -0.12)">
      <use transform="translate(0 0.78125)" xlink:href="#DejaVuSans-Oblique-56"/>
      <use transform="translate(68.408203 -15.625)scale(0.7)" xlink:href="#DejaVuSans-Oblique-44"/>
      <use transform="translate(125.043945 0.78125)" xlink:href="#DejaVuSans-20"/>
      <use transform="translate(156.831055 0.78125)" xlink:href="#DejaVuSans-3d"/>
      <use transform="translate(240.620117 0.78125)" xlink:href="#DejaVuSans-20"/>
      <use transform="translate(272.407227 0.78125)" xlink:href="#DejaVuSans-20"/>
      <use transform="translate(304.194336 0.78125)" xlink:href="#DejaVuSans-31"/>
      <use transform="translate(367.817383 0.78125)" xlink:href="#DejaVuSans-2e"/>
      <use transform="translate(399.573242 0.78125)" xlink:href="#DejaVuSans-38"/>
      <use transform="translate(463.196289 0.78125)" xlink:href="#DejaVuSans-65"/>
      <use transform="translate(524.719727 0.78125)" xlink:href="#DejaVuSans-2b"/>
      <use transform="translate(608.508789 0.78125)" xlink:href="#DejaVuSans-30"/>
      <use transform="translate(672.131836 0.78125)" xlink:href="#DejaVuSans-30"/>
     </g>
    </g>
   </g>
  </g>
 </g>
 <defs>
  <clipPath id="pe252c4f1e6">
   <rect height="280.3" width="428.15" x="61.55" y="28.8"/>
  </clipPath>
 </defs>
</svg>
