<?xml version="1.0" encoding="utf-8" standalone="no"?>
<!DOCTYPE svg PUBLIC "-//W3C//DTD SVG 1.1//EN"
  "http://www.w3.org/Graphics/SVG/1.1/DTD/svg11.dtd">
<!-- Created with matplotlib (http://matplotlib.org/) -->
<svg height="360pt" version="1.1" viewBox="0 0 504 360" width="504pt" xmlns="http://www.w3.org/2000/svg" xmlns:xlink="http://www.w3.org/1999/xlink">
 <defs>
  <style type="text/css">
*{stroke-linecap:butt;stroke-linejoin:round;}
  </style>
 </defs>
 <g id="figure_1">
  <g id="patch_1">
   <path d="M 0 360 
L 504 360 
L 504 0 
L 0 0 
z
" style="fill:#ffffff;"/>
  </g>
  <g id="axes_1">
   <g id="patch_2">
    <path d="M 61.55 309.1 
L 489.7 309.1 
L 489.7 28.7 
L 61.55 28.7 
z
" style="fill:#ffffff;"/>
   </g>
   <g id="matplotlib.axis_1">
    <g id="xtick_1">
     <g id="line2d_1">
      <path clip-path="url(#p11e7186af5)" d="M 81.011364 309.1 
L 81.011364 28.7 
" style="fill:none;stroke:#808080;stroke-linecap:square;stroke-width:0.8;"/>
     </g>
     <g id="line2d_2">
      <defs>
       <path d="M 0 0 
L 0 3.5 
" id="m9c84f3ac0d" style="stroke:#000000;stroke-width:0.8;"/>
      </defs>
      <g>
       <use style="stroke:#000000;stroke-width:0.8;" x="81.011364" xlink:href="#m9c84f3ac0d" y="309.1"/>
      </g>
     </g>
     <g id="text_1">
      <!-- 0 -->
      <defs>
       <path d="M 31.78125 66.40625 
Q 24.171875 66.40625 20.328125 58.90625 
Q 16.5 51.421875 16.5 36.375 
Q 16.5 21.390625 20.328125 13.890625 
Q 24.171875 6.390625 31.78125 6.390625 
Q 39.453125 6.390625 43.28125 13.890625 
Q 47.125 21.390625 47.125 36.375 
Q 47.125 51.421875 43.28125 58.90625 
Q 39.453125 66.40625 31.78125 66.40625 
z
M 31.78125 74.21875 
Q 44.046875 74.21875 50.515625 64.515625 
Q 56.984375 54.828125 56.984375 36.375 
Q 56.984375 17.96875 50.515625 8.265625 
Q 44.046875 -1.421875 31.78125 -1.421875 
Q 19.53125 -1.421875 13.0625 8.265625 
Q 6.59375 17.96875 6.59375 36.375 
Q 6.59375 54.828125 13.0625 64.515625 
Q 19.53125 74.21875 31.78125 74.21875 
z
" id="DejaVuSans-30"/>
      </defs>
      <g transform="translate(77.193864 325.218125)scale(0.12 -0.12)">
       <use xlink:href="#DejaVuSans-30"/>
      </g>
     </g>
    </g>
    <g id="xtick_2">
     <g id="line2d_3">
      <path clip-path="url(#p11e7186af5)" d="M 136.005342 309.1 
L 136.005342 28.7 
" style="fill:none;stroke:#808080;stroke-linecap:square;stroke-width:0.8;"/>
     </g>
     <g id="line2d_4">
      <g>
       <use style="stroke:#000000;stroke-width:0.8;" x="136.005342" xlink:href="#m9c84f3ac0d" y="309.1"/>
      </g>
     </g>
     <g id="text_2">
      <!-- 25 -->
      <defs>
       <path d="M 19.1875 8.296875 
L 53.609375 8.296875 
L 53.609375 0 
L 7.328125 0 
L 7.328125 8.296875 
Q 12.9375 14.109375 22.625 23.890625 
Q 32.328125 33.6875 34.8125 36.53125 
Q 39.546875 41.84375 41.421875 45.53125 
Q 43.3125 49.21875 43.3125 52.78125 
Q 43.3125 58.59375 39.234375 62.25 
Q 35.15625 65.921875 28.609375 65.921875 
Q 23.96875 65.921875 18.8125 64.3125 
Q 13.671875 62.703125 7.8125 59.421875 
L 7.8125 69.390625 
Q 13.765625 71.78125 18.9375 73 
Q 24.125 74.21875 28.421875 74.21875 
Q 39.75 74.21875 46.484375 68.546875 
Q 53.21875 62.890625 53.21875 53.421875 
Q 53.21875 48.921875 51.53125 44.890625 
Q 49.859375 40.875 45.40625 35.40625 
Q 44.1875 33.984375 37.640625 27.21875 
Q 31.109375 20.453125 19.1875 8.296875 
z
" id="DejaVuSans-32"/>
       <path d="M 10.796875 72.90625 
L 49.515625 72.90625 
L 49.515625 64.59375 
L 19.828125 64.59375 
L 19.828125 46.734375 
Q 21.96875 47.46875 24.109375 47.828125 
Q 26.265625 48.1875 28.421875 48.1875 
Q 40.625 48.1875 47.75 41.5 
Q 54.890625 34.8125 54.890625 23.390625 
Q 54.890625 11.625 47.5625 5.09375 
Q 40.234375 -1.421875 26.90625 -1.421875 
Q 22.3125 -1.421875 17.546875 -0.640625 
Q 12.796875 0.140625 7.71875 1.703125 
L 7.71875 11.625 
Q 12.109375 9.234375 16.796875 8.0625 
Q 21.484375 6.890625 26.703125 6.890625 
Q 35.15625 6.890625 40.078125 11.328125 
Q 45.015625 15.765625 45.015625 23.390625 
Q 45.015625 31 40.078125 35.4375 
Q 35.15625 39.890625 26.703125 39.890625 
Q 22.75 39.890625 18.8125 39.015625 
Q 14.890625 38.140625 10.796875 36.28125 
z
" id="DejaVuSans-35"/>
      </defs>
      <g transform="translate(128.370342 325.218125)scale(0.12 -0.12)">
       <use xlink:href="#DejaVuSans-32"/>
       <use x="63.623047" xlink:href="#DejaVuSans-35"/>
      </g>
     </g>
    </g>
    <g id="xtick_3">
     <g id="line2d_5">
      <path clip-path="url(#p11e7186af5)" d="M 190.999321 309.1 
L 190.999321 28.7 
" style="fill:none;stroke:#808080;stroke-linecap:square;stroke-width:0.8;"/>
     </g>
     <g id="line2d_6">
      <g>
       <use style="stroke:#000000;stroke-width:0.8;" x="190.999321" xlink:href="#m9c84f3ac0d" y="309.1"/>
      </g>
     </g>
     <g id="text_3">
      <!-- 50 -->
      <g transform="translate(183.364321 325.218125)scale(0.12 -0.12)">
       <use xlink:href="#DejaVuSans-35"/>
       <use x="63.623047" xlink:href="#DejaVuSans-30"/>
      </g>
     </g>
    </g>
    <g id="xtick_4">
     <g id="line2d_7">
      <path clip-path="url(#p11e7186af5)" d="M 245.9933 309.1 
L 245.9933 28.7 
" style="fill:none;stroke:#808080;stroke-linecap:square;stroke-width:0.8;"/>
     </g>
     <g id="line2d_8">
      <g>
       <use style="stroke:#000000;stroke-width:0.8;" x="245.9933" xlink:href="#m9c84f3ac0d" y="309.1"/>
      </g>
     </g>
     <g id="text_4">
      <!-- 75 -->
      <defs>
       <path d="M 8.203125 72.90625 
L 55.078125 72.90625 
L 55.078125 68.703125 
L 28.609375 0 
L 18.3125 0 
L 43.21875 64.59375 
L 8.203125 64.59375 
z
" id="DejaVuSans-37"/>
      </defs>
      <g transform="translate(238.3583 325.218125)scale(0.12 -0.12)">
       <use xlink:href="#DejaVuSans-37"/>
       <use x="63.623047" xlink:href="#DejaVuSans-35"/>
      </g>
     </g>
    </g>
    <g id="xtick_5">
     <g id="line2d_9">
      <path clip-path="url(#p11e7186af5)" d="M 300.987278 309.1 
L 300.987278 28.7 
" style="fill:none;stroke:#808080;stroke-linecap:square;stroke-width:0.8;"/>
     </g>
     <g id="line2d_10">
      <g>
       <use style="stroke:#000000;stroke-width:0.8;" x="300.987278" xlink:href="#m9c84f3ac0d" y="309.1"/>
      </g>
     </g>
     <g id="text_5">
      <!-- 100 -->
      <defs>
       <path d="M 12.40625 8.296875 
L 28.515625 8.296875 
L 28.515625 63.921875 
L 10.984375 60.40625 
L 10.984375 69.390625 
L 28.421875 72.90625 
L 38.28125 72.90625 
L 38.28125 8.296875 
L 54.390625 8.296875 
L 54.390625 0 
L 12.40625 0 
z
" id="DejaVuSans-31"/>
      </defs>
      <g transform="translate(289.534778 325.218125)scale(0.12 -0.12)">
       <use xlink:href="#DejaVuSans-31"/>
       <use x="63.623047" xlink:href="#DejaVuSans-30"/>
       <use x="127.246094" xlink:href="#DejaVuSans-30"/>
      </g>
     </g>
    </g>
    <g id="xtick_6">
     <g id="line2d_11">
      <path clip-path="url(#p11e7186af5)" d="M 355.981257 309.1 
L 355.981257 28.7 
" style="fill:none;stroke:#808080;stroke-linecap:square;stroke-width:0.8;"/>
     </g>
     <g id="line2d_12">
      <g>
       <use style="stroke:#000000;stroke-width:0.8;" x="355.981257" xlink:href="#m9c84f3ac0d" y="309.1"/>
      </g>
     </g>
     <g id="text_6">
      <!-- 125 -->
      <g transform="translate(344.528757 325.218125)scale(0.12 -0.12)">
       <use xlink:href="#DejaVuSans-31"/>
       <use x="63.623047" xlink:href="#DejaVuSans-32"/>
       <use x="127.246094" xlink:href="#DejaVuSans-35"/>
      </g>
     </g>
    </g>
    <g id="xtick_7">
     <g id="line2d_13">
      <path clip-path="url(#p11e7186af5)" d="M 410.975236 309.1 
L 410.975236 28.7 
" style="fill:none;stroke:#808080;stroke-linecap:square;stroke-width:0.8;"/>
     </g>
     <g id="line2d_14">
      <g>
       <use style="stroke:#000000;stroke-width:0.8;" x="410.975236" xlink:href="#m9c84f3ac0d" y="309.1"/>
      </g>
     </g>
     <g id="text_7">
      <!-- 150 -->
      <g transform="translate(399.522736 325.218125)scale(0.12 -0.12)">
       <use xlink:href="#DejaVuSans-31"/>
       <use x="63.623047" xlink:href="#DejaVuSans-35"/>
       <use x="127.246094" xlink:href="#DejaVuSans-30"/>
      </g>
     </g>
    </g>
    <g id="xtick_8">
     <g id="line2d_15">
      <path clip-path="url(#p11e7186af5)" d="M 465.969214 309.1 
L 465.969214 28.7 
" style="fill:none;stroke:#808080;stroke-linecap:square;stroke-width:0.8;"/>
     </g>
     <g id="line2d_16">
      <g>
       <use style="stroke:#000000;stroke-width:0.8;" x="465.969214" xlink:href="#m9c84f3ac0d" y="309.1"/>
      </g>
     </g>
     <g id="text_8">
      <!-- 175 -->
      <g transform="translate(454.516714 325.218125)scale(0.12 -0.12)">
       <use xlink:href="#DejaVuSans-31"/>
       <use x="63.623047" xlink:href="#DejaVuSans-37"/>
       <use x="127.246094" xlink:href="#DejaVuSans-35"/>
      </g>
     </g>
    </g>
    <g id="text_9">
     <!-- $I_{DS X1}$ [uA] -->
     <defs>
      <path d="M 16.890625 72.90625 
L 26.8125 72.90625 
L 12.59375 0 
L 2.6875 0 
z
" id="DejaVuSans-Oblique-49"/>
      <path d="M 16.890625 72.90625 
L 38.09375 72.90625 
Q 54.984375 72.90625 63.59375 65.75 
Q 72.21875 58.59375 72.21875 44.484375 
Q 72.21875 35.15625 68.9375 26.53125 
Q 65.671875 17.921875 59.90625 12.015625 
Q 54.109375 5.953125 45.171875 2.96875 
Q 36.234375 0 24.03125 0 
L 2.6875 0 
z
M 25.203125 64.796875 
L 14.203125 8.109375 
L 27.09375 8.109375 
Q 43.65625 8.109375 52.734375 17.625 
Q 61.8125 27.15625 61.8125 44.484375 
Q 61.8125 54.984375 55.953125 59.890625 
Q 50.09375 64.796875 37.59375 64.796875 
z
" id="DejaVuSans-Oblique-44"/>
      <path d="M 60.296875 70.515625 
L 58.40625 60.890625 
Q 53.46875 63.53125 48.609375 64.875 
Q 43.75 66.21875 39.203125 66.21875 
Q 30.375 66.21875 25.140625 62.359375 
Q 19.921875 58.5 19.921875 52.09375 
Q 19.921875 48.578125 21.84375 46.703125 
Q 23.78125 44.828125 31.78125 42.671875 
L 37.703125 41.21875 
Q 47.703125 38.625 51.609375 34.640625 
Q 55.515625 30.671875 55.515625 23.484375 
Q 55.515625 12.453125 46.84375 5.515625 
Q 38.1875 -1.421875 24.03125 -1.421875 
Q 18.21875 -1.421875 12.359375 -0.265625 
Q 6.5 0.875 0.59375 3.21875 
L 2.59375 13.375 
Q 8.015625 10.015625 13.453125 8.296875 
Q 18.890625 6.59375 24.3125 6.59375 
Q 33.546875 6.59375 39.109375 10.6875 
Q 44.671875 14.796875 44.671875 21.390625 
Q 44.671875 25.78125 42.453125 28.046875 
Q 40.234375 30.328125 32.90625 32.171875 
L 27 33.6875 
Q 16.890625 36.328125 13.203125 39.765625 
Q 9.515625 43.21875 9.515625 49.421875 
Q 9.515625 60.296875 17.890625 67.25 
Q 26.265625 74.21875 39.703125 74.21875 
Q 44.921875 74.21875 50.046875 73.28125 
Q 55.171875 72.359375 60.296875 70.515625 
z
" id="DejaVuSans-Oblique-53"/>
      <path d="M 13.71875 72.90625 
L 23.6875 72.90625 
L 36.1875 46.578125 
L 58.796875 72.90625 
L 70.3125 72.90625 
L 40.28125 38.09375 
L 58.40625 0 
L 48.484375 0 
L 33.796875 30.71875 
L 7.171875 0 
L -4.296875 0 
L 29.78125 39.203125 
z
" id="DejaVuSans-Oblique-58"/>
      <path id="DejaVuSans-20"/>
      <path d="M 8.59375 75.984375 
L 29.296875 75.984375 
L 29.296875 69 
L 17.578125 69 
L 17.578125 -6.203125 
L 29.296875 -6.203125 
L 29.296875 -13.1875 
L 8.59375 -13.1875 
z
" id="DejaVuSans-5b"/>
      <path d="M 8.5 21.578125 
L 8.5 54.6875 
L 17.484375 54.6875 
L 17.484375 21.921875 
Q 17.484375 14.15625 20.5 10.265625 
Q 23.53125 6.390625 29.59375 6.390625 
Q 36.859375 6.390625 41.078125 11.03125 
Q 45.3125 15.671875 45.3125 23.6875 
L 45.3125 54.6875 
L 54.296875 54.6875 
L 54.296875 0 
L 45.3125 0 
L 45.3125 8.40625 
Q 42.046875 3.421875 37.71875 1 
Q 33.40625 -1.421875 27.6875 -1.421875 
Q 18.265625 -1.421875 13.375 4.4375 
Q 8.5 10.296875 8.5 21.578125 
z
M 31.109375 56 
z
" id="DejaVuSans-75"/>
      <path d="M 34.1875 63.1875 
L 20.796875 26.90625 
L 47.609375 26.90625 
z
M 28.609375 72.90625 
L 39.796875 72.90625 
L 67.578125 0 
L 57.328125 0 
L 50.6875 18.703125 
L 17.828125 18.703125 
L 11.1875 0 
L 0.78125 0 
z
" id="DejaVuSans-41"/>
      <path d="M 30.421875 75.984375 
L 30.421875 -13.1875 
L 9.71875 -13.1875 
L 9.71875 -6.203125 
L 21.390625 -6.203125 
L 21.390625 69 
L 9.71875 69 
L 9.71875 75.984375 
z
" id="DejaVuSans-5d"/>
     </defs>
     <g transform="translate(247.725 340.831875)scale(0.12 -0.12)">
      <use transform="translate(0 0.015625)" xlink:href="#DejaVuSans-Oblique-49"/>
      <use transform="translate(29.492188 -16.390625)scale(0.7)" xlink:href="#DejaVuSans-Oblique-44"/>
      <use transform="translate(83.393555 -16.390625)scale(0.7)" xlink:href="#DejaVuSans-Oblique-53"/>
      <use transform="translate(127.827148 -16.390625)scale(0.7)" xlink:href="#DejaVuSans-Oblique-58"/>
      <use transform="translate(175.78125 -16.390625)scale(0.7)" xlink:href="#DejaVuSans-31"/>
      <use transform="translate(223.051758 0.015625)" xlink:href="#DejaVuSans-20"/>
      <use transform="translate(254.838867 0.015625)" xlink:href="#DejaVuSans-5b"/>
      <use transform="translate(293.852539 0.015625)" xlink:href="#DejaVuSans-75"/>
      <use transform="translate(357.231445 0.015625)" xlink:href="#DejaVuSans-41"/>
      <use transform="translate(425.639648 0.015625)" xlink:href="#DejaVuSans-5d"/>
     </g>
    </g>
   </g>
   <g id="matplotlib.axis_2">
    <g id="ytick_1">
     <g id="line2d_17">
      <path clip-path="url(#p11e7186af5)" d="M 61.55 296.354545 
L 489.7 296.354545 
" style="fill:none;stroke:#808080;stroke-linecap:square;stroke-width:0.8;"/>
     </g>
     <g id="line2d_18">
      <defs>
       <path d="M 0 0 
L -3.5 0 
" id="m8b16148b80" style="stroke:#000000;stroke-width:0.8;"/>
      </defs>
      <g>
       <use style="stroke:#000000;stroke-width:0.8;" x="61.55" xlink:href="#m8b16148b80" y="296.354545"/>
      </g>
     </g>
     <g id="text_10">
      <!-- 0 -->
      <g transform="translate(46.915 300.913608)scale(0.12 -0.12)">
       <use xlink:href="#DejaVuSans-30"/>
      </g>
     </g>
    </g>
    <g id="ytick_2">
     <g id="line2d_19">
      <path clip-path="url(#p11e7186af5)" d="M 61.55 262.818876 
L 489.7 262.818876 
" style="fill:none;stroke:#808080;stroke-linecap:square;stroke-width:0.8;"/>
     </g>
     <g id="line2d_20">
      <g>
       <use style="stroke:#000000;stroke-width:0.8;" x="61.55" xlink:href="#m8b16148b80" y="262.818876"/>
      </g>
     </g>
     <g id="text_11">
      <!-- 20 -->
      <g transform="translate(39.28 267.377939)scale(0.12 -0.12)">
       <use xlink:href="#DejaVuSans-32"/>
       <use x="63.623047" xlink:href="#DejaVuSans-30"/>
      </g>
     </g>
    </g>
    <g id="ytick_3">
     <g id="line2d_21">
      <path clip-path="url(#p11e7186af5)" d="M 61.55 229.283207 
L 489.7 229.283207 
" style="fill:none;stroke:#808080;stroke-linecap:square;stroke-width:0.8;"/>
     </g>
     <g id="line2d_22">
      <g>
       <use style="stroke:#000000;stroke-width:0.8;" x="61.55" xlink:href="#m8b16148b80" y="229.283207"/>
      </g>
     </g>
     <g id="text_12">
      <!-- 40 -->
      <defs>
       <path d="M 37.796875 64.3125 
L 12.890625 25.390625 
L 37.796875 25.390625 
z
M 35.203125 72.90625 
L 47.609375 72.90625 
L 47.609375 25.390625 
L 58.015625 25.390625 
L 58.015625 17.1875 
L 47.609375 17.1875 
L 47.609375 0 
L 37.796875 0 
L 37.796875 17.1875 
L 4.890625 17.1875 
L 4.890625 26.703125 
z
" id="DejaVuSans-34"/>
      </defs>
      <g transform="translate(39.28 233.842269)scale(0.12 -0.12)">
       <use xlink:href="#DejaVuSans-34"/>
       <use x="63.623047" xlink:href="#DejaVuSans-30"/>
      </g>
     </g>
    </g>
    <g id="ytick_4">
     <g id="line2d_23">
      <path clip-path="url(#p11e7186af5)" d="M 61.55 195.747537 
L 489.7 195.747537 
" style="fill:none;stroke:#808080;stroke-linecap:square;stroke-width:0.8;"/>
     </g>
     <g id="line2d_24">
      <g>
       <use style="stroke:#000000;stroke-width:0.8;" x="61.55" xlink:href="#m8b16148b80" y="195.747537"/>
      </g>
     </g>
     <g id="text_13">
      <!-- 60 -->
      <defs>
       <path d="M 33.015625 40.375 
Q 26.375 40.375 22.484375 35.828125 
Q 18.609375 31.296875 18.609375 23.390625 
Q 18.609375 15.53125 22.484375 10.953125 
Q 26.375 6.390625 33.015625 6.390625 
Q 39.65625 6.390625 43.53125 10.953125 
Q 47.40625 15.53125 47.40625 23.390625 
Q 47.40625 31.296875 43.53125 35.828125 
Q 39.65625 40.375 33.015625 40.375 
z
M 52.59375 71.296875 
L 52.59375 62.3125 
Q 48.875 64.0625 45.09375 64.984375 
Q 41.3125 65.921875 37.59375 65.921875 
Q 27.828125 65.921875 22.671875 59.328125 
Q 17.53125 52.734375 16.796875 39.40625 
Q 19.671875 43.65625 24.015625 45.921875 
Q 28.375 48.1875 33.59375 48.1875 
Q 44.578125 48.1875 50.953125 41.515625 
Q 57.328125 34.859375 57.328125 23.390625 
Q 57.328125 12.15625 50.6875 5.359375 
Q 44.046875 -1.421875 33.015625 -1.421875 
Q 20.359375 -1.421875 13.671875 8.265625 
Q 6.984375 17.96875 6.984375 36.375 
Q 6.984375 53.65625 15.1875 63.9375 
Q 23.390625 74.21875 37.203125 74.21875 
Q 40.921875 74.21875 44.703125 73.484375 
Q 48.484375 72.75 52.59375 71.296875 
z
" id="DejaVuSans-36"/>
      </defs>
      <g transform="translate(39.28 200.3066)scale(0.12 -0.12)">
       <use xlink:href="#DejaVuSans-36"/>
       <use x="63.623047" xlink:href="#DejaVuSans-30"/>
      </g>
     </g>
    </g>
    <g id="ytick_5">
     <g id="line2d_25">
      <path clip-path="url(#p11e7186af5)" d="M 61.55 162.211868 
L 489.7 162.211868 
" style="fill:none;stroke:#808080;stroke-linecap:square;stroke-width:0.8;"/>
     </g>
     <g id="line2d_26">
      <g>
       <use style="stroke:#000000;stroke-width:0.8;" x="61.55" xlink:href="#m8b16148b80" y="162.211868"/>
      </g>
     </g>
     <g id="text_14">
      <!-- 80 -->
      <defs>
       <path d="M 31.78125 34.625 
Q 24.75 34.625 20.71875 30.859375 
Q 16.703125 27.09375 16.703125 20.515625 
Q 16.703125 13.921875 20.71875 10.15625 
Q 24.75 6.390625 31.78125 6.390625 
Q 38.8125 6.390625 42.859375 10.171875 
Q 46.921875 13.96875 46.921875 20.515625 
Q 46.921875 27.09375 42.890625 30.859375 
Q 38.875 34.625 31.78125 34.625 
z
M 21.921875 38.8125 
Q 15.578125 40.375 12.03125 44.71875 
Q 8.5 49.078125 8.5 55.328125 
Q 8.5 64.0625 14.71875 69.140625 
Q 20.953125 74.21875 31.78125 74.21875 
Q 42.671875 74.21875 48.875 69.140625 
Q 55.078125 64.0625 55.078125 55.328125 
Q 55.078125 49.078125 51.53125 44.71875 
Q 48 40.375 41.703125 38.8125 
Q 48.828125 37.15625 52.796875 32.3125 
Q 56.78125 27.484375 56.78125 20.515625 
Q 56.78125 9.90625 50.3125 4.234375 
Q 43.84375 -1.421875 31.78125 -1.421875 
Q 19.734375 -1.421875 13.25 4.234375 
Q 6.78125 9.90625 6.78125 20.515625 
Q 6.78125 27.484375 10.78125 32.3125 
Q 14.796875 37.15625 21.921875 38.8125 
z
M 18.3125 54.390625 
Q 18.3125 48.734375 21.84375 45.5625 
Q 25.390625 42.390625 31.78125 42.390625 
Q 38.140625 42.390625 41.71875 45.5625 
Q 45.3125 48.734375 45.3125 54.390625 
Q 45.3125 60.0625 41.71875 63.234375 
Q 38.140625 66.40625 31.78125 66.40625 
Q 25.390625 66.40625 21.84375 63.234375 
Q 18.3125 60.0625 18.3125 54.390625 
z
" id="DejaVuSans-38"/>
      </defs>
      <g transform="translate(39.28 166.770931)scale(0.12 -0.12)">
       <use xlink:href="#DejaVuSans-38"/>
       <use x="63.623047" xlink:href="#DejaVuSans-30"/>
      </g>
     </g>
    </g>
    <g id="ytick_6">
     <g id="line2d_27">
      <path clip-path="url(#p11e7186af5)" d="M 61.55 128.676199 
L 489.7 128.676199 
" style="fill:none;stroke:#808080;stroke-linecap:square;stroke-width:0.8;"/>
     </g>
     <g id="line2d_28">
      <g>
       <use style="stroke:#000000;stroke-width:0.8;" x="61.55" xlink:href="#m8b16148b80" y="128.676199"/>
      </g>
     </g>
     <g id="text_15">
      <!-- 100 -->
      <g transform="translate(31.645 133.235261)scale(0.12 -0.12)">
       <use xlink:href="#DejaVuSans-31"/>
       <use x="63.623047" xlink:href="#DejaVuSans-30"/>
       <use x="127.246094" xlink:href="#DejaVuSans-30"/>
      </g>
     </g>
    </g>
    <g id="ytick_7">
     <g id="line2d_29">
      <path clip-path="url(#p11e7186af5)" d="M 61.55 95.140529 
L 489.7 95.140529 
" style="fill:none;stroke:#808080;stroke-linecap:square;stroke-width:0.8;"/>
     </g>
     <g id="line2d_30">
      <g>
       <use style="stroke:#000000;stroke-width:0.8;" x="61.55" xlink:href="#m8b16148b80" y="95.140529"/>
      </g>
     </g>
     <g id="text_16">
      <!-- 120 -->
      <g transform="translate(31.645 99.699592)scale(0.12 -0.12)">
       <use xlink:href="#DejaVuSans-31"/>
       <use x="63.623047" xlink:href="#DejaVuSans-32"/>
       <use x="127.246094" xlink:href="#DejaVuSans-30"/>
      </g>
     </g>
    </g>
    <g id="ytick_8">
     <g id="line2d_31">
      <path clip-path="url(#p11e7186af5)" d="M 61.55 61.60486 
L 489.7 61.60486 
" style="fill:none;stroke:#808080;stroke-linecap:square;stroke-width:0.8;"/>
     </g>
     <g id="line2d_32">
      <g>
       <use style="stroke:#000000;stroke-width:0.8;" x="61.55" xlink:href="#m8b16148b80" y="61.60486"/>
      </g>
     </g>
     <g id="text_17">
      <!-- 140 -->
      <g transform="translate(31.645 66.163923)scale(0.12 -0.12)">
       <use xlink:href="#DejaVuSans-31"/>
       <use x="63.623047" xlink:href="#DejaVuSans-34"/>
       <use x="127.246094" xlink:href="#DejaVuSans-30"/>
      </g>
     </g>
    </g>
    <g id="text_18">
     <!-- $g_{m X1}$ [uS] -->
     <defs>
      <path d="M 59.625 54.6875 
L 50.296875 6.78125 
Q 47.609375 -7.125 40.015625 -13.953125 
Q 32.421875 -20.796875 19.578125 -20.796875 
Q 14.84375 -20.796875 10.78125 -20.09375 
Q 6.734375 -19.390625 3.21875 -17.921875 
L 4.890625 -9.1875 
Q 8.203125 -11.328125 11.90625 -12.34375 
Q 15.625 -13.375 19.828125 -13.375 
Q 28.375 -13.375 33.859375 -8.703125 
Q 39.359375 -4.046875 41.109375 4.6875 
L 41.890625 8.796875 
Q 38.140625 4.5 33.15625 2.25 
Q 28.171875 0 22.40625 0 
Q 14.109375 0 9.34375 5.484375 
Q 4.59375 10.984375 4.59375 20.609375 
Q 4.59375 28.171875 7.46875 35.421875 
Q 10.359375 42.671875 15.578125 48.296875 
Q 19.046875 52 23.65625 54 
Q 28.265625 56 33.296875 56 
Q 38.8125 56 42.90625 53.4375 
Q 47.015625 50.875 49.03125 46.1875 
L 50.59375 54.6875 
z
M 46.09375 34.625 
Q 46.09375 41.265625 42.96875 44.875 
Q 39.84375 48.484375 34.078125 48.484375 
Q 30.515625 48.484375 27.296875 47.0625 
Q 24.078125 45.65625 21.78125 43.109375 
Q 18.0625 38.921875 15.984375 33.234375 
Q 13.921875 27.546875 13.921875 21.484375 
Q 13.921875 14.75 17.0625 11.125 
Q 20.21875 7.515625 26.125 7.515625 
Q 34.671875 7.515625 40.375 15.25 
Q 46.09375 23 46.09375 34.625 
z
" id="DejaVuSans-Oblique-67"/>
      <path d="M 89.796875 33.015625 
L 83.40625 0 
L 74.421875 0 
L 80.71875 32.71875 
Q 81.109375 34.8125 81.296875 36.328125 
Q 81.5 37.84375 81.5 38.921875 
Q 81.5 43.3125 79.046875 45.75 
Q 76.609375 48.1875 72.21875 48.1875 
Q 65.671875 48.1875 60.546875 43.28125 
Q 55.421875 38.375 53.90625 30.515625 
L 47.90625 0 
L 38.921875 0 
L 45.3125 32.71875 
Q 45.703125 34.515625 45.890625 36.046875 
Q 46.09375 37.59375 46.09375 38.8125 
Q 46.09375 43.265625 43.65625 45.71875 
Q 41.21875 48.1875 36.921875 48.1875 
Q 30.28125 48.1875 25.140625 43.28125 
Q 20.015625 38.375 18.5 30.515625 
L 12.5 0 
L 3.515625 0 
L 14.203125 54.6875 
L 23.1875 54.6875 
L 21.484375 46.1875 
Q 25.140625 50.984375 30.046875 53.484375 
Q 34.96875 56 40.578125 56 
Q 46.53125 56 50.359375 52.875 
Q 54.203125 49.75 54.984375 44.1875 
Q 59.078125 49.953125 64.46875 52.96875 
Q 69.875 56 75.875 56 
Q 82.90625 56 86.734375 51.953125 
Q 90.578125 47.90625 90.578125 40.484375 
Q 90.578125 38.875 90.375 36.9375 
Q 90.1875 35.015625 89.796875 33.015625 
z
" id="DejaVuSans-Oblique-6d"/>
      <path d="M 53.515625 70.515625 
L 53.515625 60.890625 
Q 47.90625 63.578125 42.921875 64.890625 
Q 37.9375 66.21875 33.296875 66.21875 
Q 25.25 66.21875 20.875 63.09375 
Q 16.5 59.96875 16.5 54.203125 
Q 16.5 49.359375 19.40625 46.890625 
Q 22.3125 44.4375 30.421875 42.921875 
L 36.375 41.703125 
Q 47.40625 39.59375 52.65625 34.296875 
Q 57.90625 29 57.90625 20.125 
Q 57.90625 9.515625 50.796875 4.046875 
Q 43.703125 -1.421875 29.984375 -1.421875 
Q 24.8125 -1.421875 18.96875 -0.25 
Q 13.140625 0.921875 6.890625 3.21875 
L 6.890625 13.375 
Q 12.890625 10.015625 18.65625 8.296875 
Q 24.421875 6.59375 29.984375 6.59375 
Q 38.421875 6.59375 43.015625 9.90625 
Q 47.609375 13.234375 47.609375 19.390625 
Q 47.609375 24.75 44.3125 27.78125 
Q 41.015625 30.8125 33.5 32.328125 
L 27.484375 33.5 
Q 16.453125 35.6875 11.515625 40.375 
Q 6.59375 45.0625 6.59375 53.421875 
Q 6.59375 63.09375 13.40625 68.65625 
Q 20.21875 74.21875 32.171875 74.21875 
Q 37.3125 74.21875 42.625 73.28125 
Q 47.953125 72.359375 53.515625 70.515625 
z
" id="DejaVuSans-53"/>
     </defs>
     <g transform="translate(25.125 196.74)rotate(-90)scale(0.12 -0.12)">
      <use transform="translate(0 0.015625)" xlink:href="#DejaVuSans-Oblique-67"/>
      <use transform="translate(63.476562 -16.390625)scale(0.7)" xlink:href="#DejaVuSans-Oblique-6d"/>
      <use transform="translate(131.665039 -16.390625)scale(0.7)" xlink:href="#DejaVuSans-Oblique-58"/>
      <use transform="translate(179.619141 -16.390625)scale(0.7)" xlink:href="#DejaVuSans-31"/>
      <use transform="translate(226.889648 0.015625)" xlink:href="#DejaVuSans-20"/>
      <use transform="translate(258.676758 0.015625)" xlink:href="#DejaVuSans-5b"/>
      <use transform="translate(297.69043 0.015625)" xlink:href="#DejaVuSans-75"/>
      <use transform="translate(361.069336 0.015625)" xlink:href="#DejaVuSans-53"/>
      <use transform="translate(424.545898 0.015625)" xlink:href="#DejaVuSans-5d"/>
     </g>
    </g>
   </g>
   <g id="line2d_33">
    <path clip-path="url(#p11e7186af5)" d="M 81.011364 296.354545 
" style="fill:none;stroke:#ff0000;stroke-linecap:square;stroke-width:2;"/>
   </g>
   <g id="line2d_34">
    <path clip-path="url(#p11e7186af5)" d="M 81.011422 296.353273 
L 81.01153 296.350918 
L 81.011837 296.344239 
L 81.012704 296.325435 
L 81.015127 296.273121 
L 81.021794 296.130496 
L 81.039672 295.754532 
L 81.085727 294.816673 
L 81.197558 292.671108 
L 81.447848 288.340163 
L 81.953472 280.880132 
L 82.863483 270.028908 
L 84.32167 256.46396 
L 86.424994 241.443544 
L 89.203537 226.370586 
L 92.623494 212.639438 
L 96.597179 201.648338 
L 100.990881 194.636393 
L 105.637376 192.213739 
L 110.362799 194.051577 
L 115.021032 199.132433 
L 119.515575 206.243453 
L 123.799351 214.317568 
L 127.860581 222.565285 
L 131.706946 230.477164 
L 135.354232 237.769582 
L 138.820017 244.317993 
L 142.120818 250.0988 
L 145.271154 255.146292 
L 148.283474 259.523807 
L 151.16841 263.305867 
L 153.935109 266.567885 
L 156.591534 269.380731 
L 159.144709 271.808262 
L 161.600906 273.90655 
L 163.965784 275.724042 
L 166.244493 277.302162 
L 168.441756 278.676106 
L 170.561923 279.875669 
L 172.609019 280.926021 
L 174.586783 281.848422 
L 176.498691 282.660831 
L 178.34799 283.37844 
L 180.137709 284.014118 
L 181.870687 284.578791 
L 183.549581 285.081754 
L 185.176886 285.530937 
L 186.754945 285.933119 
L 188.28596 286.294112 
L 189.772004 286.618914 
" style="fill:none;stroke:#0000ff;stroke-linecap:square;stroke-width:2;"/>
   </g>
   <g id="line2d_35">
    <path clip-path="url(#p11e7186af5)" d="M 81.011424 296.353238 
L 81.011535 296.350818 
L 81.01185 296.343956 
L 81.012741 296.324635 
L 81.01523 296.270883 
L 81.022081 296.124333 
L 81.040451 295.738008 
L 81.087778 294.774228 
L 81.202707 292.569042 
L 81.459971 288.116408 
L 81.979848 280.441663 
L 82.916068 269.260565 
L 84.418033 255.228434 
L 86.589763 239.533603 
L 89.472982 223.370141 
L 93.057397 207.657824 
L 97.302041 192.983592 
L 102.153653 179.651983 
L 107.55766 167.770511 
L 113.462901 157.336685 
L 119.822251 148.322634 
L 126.590229 140.772233 
L 133.71747 134.924629 
L 141.141565 131.320264 
L 148.776338 130.722626 
L 156.507376 133.718657 
L 164.203675 140.269076 
L 171.744058 149.666593 
L 179.041478 160.866557 
L 186.050377 172.838619 
L 192.75858 184.764051 
L 199.174033 196.089738 
L 205.313885 206.499827 
L 211.197851 215.856575 
L 216.844999 224.140481 
L 222.272539 231.402223 
L 227.495611 237.728723 
L 232.527465 243.221254 
L 237.379765 247.982394 
L 242.062877 252.108935 
L 246.586118 255.688518 
L 250.957943 258.798499 
L 255.186092 261.506055 
L 259.277704 263.868917 
L 263.239395 265.936371 
L 267.077323 267.750337 
L 270.797242 269.346397 
L 274.404538 270.754735 
L 277.904268 272.000966 
L 281.301181 273.10685 
" style="fill:none;stroke:#008000;stroke-linecap:square;stroke-width:2;"/>
   </g>
   <g id="line2d_36">
    <path clip-path="url(#p11e7186af5)" d="M 81.011425 296.353204 
L 81.011539 296.35072 
L 81.011863 296.343677 
L 81.012777 296.323848 
L 81.015332 296.268682 
L 81.022363 296.118275 
L 81.041217 295.721783 
L 81.089789 294.73264 
L 81.207742 292.469423 
L 81.471777 287.899612 
L 82.005335 280.022893 
L 82.966193 268.54754 
L 84.507686 254.146094 
L 86.736572 238.038102 
L 89.695681 221.448889 
L 93.374469 205.321959 
L 97.73094 190.258348 
L 102.710575 176.566813 
L 108.25775 164.347175 
L 114.320994 153.568389 
L 120.854644 144.127775 
L 127.818794 135.890648 
L 135.178613 128.714506 
L 142.903539 122.462732 
L 150.966508 117.012167 
L 159.343266 112.258501 
L 168.011635 108.124246 
L 176.950513 104.577143 
L 186.138034 101.672192 
L 195.547956 99.630238 
L 205.143132 98.932503 
L 214.866413 100.317356 
L 224.633803 104.522564 
L 234.339066 111.858263 
L 243.87367 121.990005 
L 253.151285 134.101856 
L 262.120781 147.224877 
L 270.763561 160.495772 
L 279.082812 173.276493 
L 287.092892 185.167031 
L 294.81219 195.964234 
L 302.259341 205.605579 
L 309.451636 214.118077 
L 316.404562 221.579275 
L 323.131864 228.090534 
L 329.645779 233.760177 
L 335.957285 238.693699 
L 342.076338 242.988649 
L 348.012047 246.732419 
L 353.772818 250.001739 
" style="fill:none;stroke:#00bfbf;stroke-linecap:square;stroke-width:2;"/>
   </g>
   <g id="line2d_37">
    <path clip-path="url(#p11e7186af5)" d="M 81.011427 296.353169 
L 81.011544 296.350622 
L 81.011876 296.343399 
L 81.012813 296.323061 
L 81.015434 296.26648 
L 81.022645 296.112216 
L 81.041982 295.705558 
L 81.0918 294.691053 
L 81.212777 292.369804 
L 81.483582 287.682819 
L 82.030822 279.604133 
L 83.016316 267.834539 
L 84.597335 253.063825 
L 86.883372 236.542809 
L 89.918356 219.528231 
L 93.691471 202.98779 
L 98.159647 187.537931 
L 103.266966 173.495327 
L 108.956376 160.962352 
L 115.175089 149.907154 
L 121.876272 140.224377 
L 129.018999 131.775767 
L 136.567559 124.41484 
L 144.490635 118.000537 
L 152.760556 112.403907 
L 161.352679 107.510638 
L 170.244895 103.221304 
L 179.417244 99.450446 
L 188.851608 96.12517 
L 198.531467 93.183648 
L 208.441695 90.57385 
L 218.568377 88.252875 
L 228.898617 86.187759 
L 239.420267 84.359849 
L 250.121418 82.7777 
L 260.989306 81.508213 
L 272.007894 80.738561 
L 283.153114 80.864088 
L 294.385296 82.53226 
L 305.641386 86.503855 
L 316.83437 93.303324 
L 327.866601 102.909856 
L 338.652235 114.753377 
L 349.13403 127.965285 
L 359.285838 141.661883 
L 369.104769 155.122779 
L 378.601162 167.851338 
L 387.791 179.559618 
L 396.691539 190.121592 
L 405.319273 199.522102 
" style="fill:none;stroke:#bf00bf;stroke-linecap:square;stroke-width:2;"/>
   </g>
   <g id="line2d_38">
    <path clip-path="url(#p11e7186af5)" d="M 81.011428 296.353135 
L 81.011548 296.350524 
L 81.011888 296.34312 
L 81.012849 296.322274 
L 81.015536 296.264278 
L 81.022927 296.106158 
L 81.042748 295.689334 
L 81.093811 294.649466 
L 81.217813 292.270186 
L 81.495388 287.466025 
L 82.056308 279.185373 
L 83.06644 267.121539 
L 84.686984 251.981557 
L 87.030172 235.047515 
L 90.141031 217.607573 
L 94.008474 200.653621 
L 98.588354 184.817515 
L 103.823356 170.423846 
L 109.655001 157.577547 
L 116.029182 146.245969 
L 122.897895 136.321123 
L 130.21919 127.661298 
L 137.956464 120.116346 
L 146.077617 113.541685 
L 154.554286 107.805137 
L 163.361212 102.789528 
L 172.475735 98.392937 
L 181.877394 94.527742 
L 191.547623 91.119144 
L 201.469495 88.103543 
L 211.627524 85.426958 
L 222.007502 83.043588 
L 232.596354 80.914544 
L 243.382025 79.006762 
L 254.353379 77.29208 
L 265.500106 75.746485 
L 276.812645 74.349522 
L 288.282114 73.083929 
L 299.90023 71.935704 
L 311.659223 70.895147 
L 323.551688 69.960368 
L 335.570271 69.146856 
L 347.706966 68.510541 
L 359.951463 68.195626 
L 372.287696 68.510784 
L 384.68777 69.994762 
L 397.104299 73.363315 
L 409.466498 79.254695 
L 421.687524 87.899989 
L 433.683305 98.984137 
" style="fill:none;stroke:#bfbf00;stroke-linecap:square;stroke-width:2;"/>
   </g>
   <g id="line2d_39">
    <path clip-path="url(#p11e7186af5)" d="M 81.01143 296.3531 
L 81.011553 296.350426 
L 81.011901 296.342841 
L 81.012885 296.321486 
L 81.015637 296.262077 
L 81.023209 296.1001 
L 81.043513 295.673109 
L 81.095822 294.607878 
L 81.222848 292.170567 
L 81.507193 287.249232 
L 82.081794 278.766613 
L 83.116564 266.408539 
L 84.776633 250.899289 
L 87.176973 233.552222 
L 90.363706 215.686915 
L 94.325477 198.319452 
L 99.017061 182.0971 
L 104.379746 167.352366 
L 110.353626 154.192743 
L 116.883275 142.584784 
L 123.919518 132.417869 
L 131.419381 123.546828 
L 139.345369 115.817854 
L 147.664598 109.082835 
L 156.348016 103.206371 
L 165.369745 98.06843 
L 174.706573 93.564605 
L 184.337541 89.605137 
L 194.243629 86.113402 
L 204.407498 83.02425 
L 214.813284 80.282381 
L 225.446432 77.840878 
L 236.293549 75.659901 
L 247.342286 73.705572 
L 258.581235 71.949023 
L 269.999837 70.365599 
L 281.588302 68.934188 
L 293.337542 67.63666 
L 305.239107 66.457401 
L 317.285128 65.382927 
L 329.468271 64.401559 
L 341.781688 63.503161 
L 354.218982 62.678926 
L 366.774163 61.921233 
L 379.44162 61.223611 
L 392.216074 60.580971 
L 405.092536 59.990479 
L 418.066214 59.454152 
L 431.132317 58.985758 
L 444.285587 58.627667 
" style="fill:none;stroke:#000000;stroke-linecap:square;stroke-width:2;"/>
   </g>
   <g id="line2d_40">
    <path clip-path="url(#p11e7186af5)" d="M 81.011431 296.353066 
L 81.011557 296.350328 
L 81.011914 296.342563 
L 81.012922 296.320699 
L 81.015739 296.259875 
L 81.023491 296.094042 
L 81.044279 295.656884 
L 81.097833 294.566291 
L 81.227883 292.070949 
L 81.518999 287.032439 
L 82.107281 278.347852 
L 83.166688 265.695539 
L 84.866283 249.817021 
L 87.323773 232.056929 
L 90.586381 213.766257 
L 94.642479 195.985283 
L 99.445769 179.376684 
L 104.936136 164.280885 
L 111.052252 150.807938 
L 117.737368 138.9236 
L 124.94114 128.514615 
L 132.619572 119.432359 
L 140.734274 111.519361 
L 149.25158 104.623985 
L 158.141746 98.607605 
L 167.378278 93.347332 
L 176.937411 88.736273 
L 186.797688 84.682532 
L 196.939636 81.107661 
L 207.345501 77.944957 
L 217.999044 75.137806 
L 228.885362 72.638172 
L 239.990744 70.405267 
L 251.302546 68.404406 
L 262.809089 66.606034 
L 274.499562 64.98491 
L 286.363943 63.519418 
L 298.392928 62.190995 
L 310.577863 60.983657 
L 322.910694 59.883596 
L 335.383912 58.878852 
L 347.990507 57.959032 
L 360.723929 57.115082 
L 373.578049 56.339088 
L 386.54713 55.624118 
L 399.625788 54.964078 
L 412.808975 54.353601 
L 426.091944 53.787949 
L 439.470234 53.26293 
L 452.939644 52.774842 
" style="fill:none;stroke:#ff0000;stroke-linecap:square;stroke-width:2;"/>
   </g>
   <g id="line2d_41">
    <path clip-path="url(#p11e7186af5)" d="M 81.011433 296.353031 
L 81.011562 296.350229 
L 81.011927 296.342284 
L 81.012958 296.319912 
L 81.015841 296.257673 
L 81.023773 296.087983 
L 81.045044 295.64066 
L 81.099844 294.524704 
L 81.232919 291.97133 
L 81.530804 286.815646 
L 82.132767 277.929092 
L 83.216812 264.982539 
L 84.955932 248.734753 
L 87.470573 230.561635 
L 90.809055 211.845599 
L 94.959482 193.651114 
L 99.874476 176.656269 
L 105.492526 161.209405 
L 111.750877 147.423133 
L 118.591462 135.262415 
L 125.962763 124.61136 
L 133.819763 115.317889 
L 142.123179 107.220868 
L 150.838562 100.165135 
L 159.935475 94.008839 
L 169.386811 88.626234 
L 179.168249 83.907941 
L 189.257835 79.759927 
L 199.635642 76.101919 
L 210.283504 72.865664 
L 221.184804 69.993231 
L 232.324293 67.435466 
L 243.687939 65.150633 
L 255.262806 63.10324 
L 267.036943 61.263045 
L 278.999288 59.604221 
L 291.139585 58.104647 
L 303.448313 56.745331 
L 315.916619 55.509916 
L 328.53626 54.384272 
L 341.299553 53.356161 
L 354.199324 52.41495 
L 367.228872 51.551373 
L 380.381926 50.757333 
L 393.652613 50.025735 
L 407.035426 49.350345 
L 420.525198 48.725668 
L 434.117074 48.146854 
L 447.806488 47.609603 
L 461.589141 47.110101 
" style="fill:none;stroke:#0000ff;stroke-linecap:square;stroke-width:2;"/>
   </g>
   <g id="line2d_42">
    <path clip-path="url(#p11e7186af5)" d="M 81.011435 296.352997 
L 81.011566 296.350131 
L 81.01194 296.342005 
L 81.012994 296.319125 
L 81.015943 296.255472 
L 81.024055 296.081925 
L 81.04581 295.624435 
L 81.101855 294.483116 
L 81.237954 291.871712 
L 81.54261 286.598853 
L 82.158254 277.510332 
L 83.266935 264.269539 
L 85.045581 247.652485 
L 87.617373 229.066342 
L 91.03173 209.924941 
L 95.276485 191.316945 
L 100.303183 173.935854 
L 106.048916 158.137924 
L 112.449502 144.038328 
L 119.445555 131.60123 
L 126.984386 120.708106 
L 135.019954 111.20342 
L 143.512083 102.922376 
L 152.425544 95.706284 
L 161.729205 89.410073 
L 171.395344 83.905136 
L 181.399088 79.079609 
L 191.717982 74.837322 
L 202.331648 71.096178 
L 213.221508 67.786371 
L 224.370565 64.848655 
L 235.763223 62.232759 
L 247.385133 59.895998 
L 259.223066 57.802074 
L 271.264797 55.920057 
L 283.499013 54.223532 
L 295.915226 52.689877 
L 308.503698 51.299667 
L 321.255375 50.036174 
L 334.161826 48.884948 
L 347.215193 47.833471 
L 360.408141 46.870869 
L 373.733815 45.987665 
L 387.185802 45.175578 
L 400.758096 44.427353 
L 414.445064 43.736613 
L 428.241422 43.097739 
L 442.142204 42.50577 
L 456.14274 41.956309 
L 470.238636 41.445455 
" style="fill:none;stroke:#008000;stroke-linecap:square;stroke-width:2;"/>
   </g>
   <g id="patch_3">
    <path d="M 61.55 309.1 
L 61.55 28.7 
" style="fill:none;stroke:#000000;stroke-linecap:square;stroke-linejoin:miter;stroke-width:0.8;"/>
   </g>
   <g id="patch_4">
    <path d="M 489.7 309.1 
L 489.7 28.7 
" style="fill:none;stroke:#000000;stroke-linecap:square;stroke-linejoin:miter;stroke-width:0.8;"/>
   </g>
   <g id="patch_5">
    <path d="M 61.55 309.1 
L 489.7 309.1 
" style="fill:none;stroke:#000000;stroke-linecap:square;stroke-linejoin:miter;stroke-width:0.8;"/>
   </g>
   <g id="patch_6">
    <path d="M 61.55 28.7 
L 489.7 28.7 
" style="fill:none;stroke:#000000;stroke-linecap:square;stroke-linejoin:miter;stroke-width:0.8;"/>
   </g>
   <g id="text_19">
    <!-- $I_{ds}(V_{gs})$ -->
    <defs>
     <path d="M 41.796875 8.203125 
Q 38.1875 3.46875 33.25 1.015625 
Q 28.328125 -1.421875 22.3125 -1.421875 
Q 14.109375 -1.421875 9.34375 4.171875 
Q 4.59375 9.765625 4.59375 19.484375 
Q 4.59375 27.59375 7.46875 34.9375 
Q 10.359375 42.28125 15.828125 48.09375 
Q 19.4375 51.953125 23.96875 53.96875 
Q 28.515625 56 33.5 56 
Q 38.765625 56 42.796875 53.453125 
Q 46.828125 50.921875 49.03125 46.1875 
L 54.890625 75.984375 
L 63.921875 75.984375 
L 49.125 0 
L 40.09375 0 
z
M 13.921875 21.09375 
Q 13.921875 14.015625 17.109375 10.0625 
Q 20.3125 6.109375 25.984375 6.109375 
Q 30.171875 6.109375 33.765625 8.125 
Q 37.359375 10.15625 40.09375 14.109375 
Q 42.96875 18.21875 44.625 23.578125 
Q 46.296875 28.953125 46.296875 34.1875 
Q 46.296875 40.96875 43.09375 44.765625 
Q 39.890625 48.578125 34.28125 48.578125 
Q 30.03125 48.578125 26.359375 46.578125 
Q 22.703125 44.578125 20.125 40.828125 
Q 17.28125 36.765625 15.59375 31.390625 
Q 13.921875 26.03125 13.921875 21.09375 
z
" id="DejaVuSans-Oblique-64"/>
     <path d="M 50 53.078125 
L 48.296875 44.578125 
Q 44.734375 46.53125 40.765625 47.5 
Q 36.8125 48.484375 32.625 48.484375 
Q 25.53125 48.484375 21.453125 46.0625 
Q 17.390625 43.65625 17.390625 39.5 
Q 17.390625 34.671875 26.859375 32.078125 
Q 27.59375 31.890625 27.9375 31.78125 
L 30.8125 30.90625 
Q 39.796875 28.421875 42.796875 25.6875 
Q 45.796875 22.953125 45.796875 18.21875 
Q 45.796875 9.515625 38.890625 4.046875 
Q 31.984375 -1.421875 20.796875 -1.421875 
Q 16.453125 -1.421875 11.671875 -0.578125 
Q 6.890625 0.25 1.125 2 
L 2.875 11.28125 
Q 7.8125 8.734375 12.59375 7.421875 
Q 17.390625 6.109375 21.78125 6.109375 
Q 28.375 6.109375 32.5 8.9375 
Q 36.625 11.765625 36.625 16.109375 
Q 36.625 20.796875 25.78125 23.6875 
L 24.859375 23.921875 
L 21.78125 24.703125 
Q 14.9375 26.515625 11.765625 29.46875 
Q 8.59375 32.421875 8.59375 37.015625 
Q 8.59375 45.75 15.15625 50.875 
Q 21.734375 56 33.015625 56 
Q 37.453125 56 41.671875 55.265625 
Q 45.90625 54.546875 50 53.078125 
z
" id="DejaVuSans-Oblique-73"/>
     <path d="M 31 75.875 
Q 24.46875 64.65625 21.28125 53.65625 
Q 18.109375 42.671875 18.109375 31.390625 
Q 18.109375 20.125 21.3125 9.0625 
Q 24.515625 -2 31 -13.1875 
L 23.1875 -13.1875 
Q 15.875 -1.703125 12.234375 9.375 
Q 8.59375 20.453125 8.59375 31.390625 
Q 8.59375 42.28125 12.203125 53.3125 
Q 15.828125 64.359375 23.1875 75.875 
z
" id="DejaVuSans-28"/>
     <path d="M 20.609375 0 
L 7.8125 72.90625 
L 17.484375 72.90625 
L 28.078125 10.203125 
L 63.484375 72.90625 
L 74.21875 72.90625 
L 32.078125 0 
z
" id="DejaVuSans-Oblique-56"/>
     <path d="M 8.015625 75.875 
L 15.828125 75.875 
Q 23.140625 64.359375 26.78125 53.3125 
Q 30.421875 42.28125 30.421875 31.390625 
Q 30.421875 20.453125 26.78125 9.375 
Q 23.140625 -1.703125 15.828125 -13.1875 
L 8.015625 -13.1875 
Q 14.5 -2 17.703125 9.0625 
Q 20.90625 20.125 20.90625 31.390625 
Q 20.90625 42.671875 17.703125 53.65625 
Q 14.5 64.65625 8.015625 75.875 
z
" id="DejaVuSans-29"/>
    </defs>
    <g transform="translate(254.985 22.7)scale(0.12 -0.12)">
     <use transform="translate(0 0.125)" xlink:href="#DejaVuSans-Oblique-49"/>
     <use transform="translate(29.492188 -16.28125)scale(0.7)" xlink:href="#DejaVuSans-Oblique-64"/>
     <use transform="translate(73.925781 -16.28125)scale(0.7)" xlink:href="#DejaVuSans-Oblique-73"/>
     <use transform="translate(113.129883 0.125)" xlink:href="#DejaVuSans-28"/>
     <use transform="translate(152.143555 0.125)" xlink:href="#DejaVuSans-Oblique-56"/>
     <use transform="translate(220.551758 -16.28125)scale(0.7)" xlink:href="#DejaVuSans-Oblique-67"/>
     <use transform="translate(264.985352 -16.28125)scale(0.7)" xlink:href="#DejaVuSans-Oblique-73"/>
     <use transform="translate(304.189453 0.125)" xlink:href="#DejaVuSans-29"/>
    </g>
   </g>
   <g id="legend_1">
    <g id="patch_7">
     <path d="M 418.86 304.1 
L 482.7 304.1 
Q 484.7 304.1 484.7 302.1 
L 484.7 185.9625 
Q 484.7 183.9625 482.7 183.9625 
L 418.86 183.9625 
Q 416.86 183.9625 416.86 185.9625 
L 416.86 302.1 
Q 416.86 304.1 418.86 304.1 
z
" style="fill:#ffffff;opacity:0.8;stroke:#cccccc;stroke-linejoin:miter;"/>
    </g>
    <g id="line2d_43">
     <path d="M 418.86 191.580625 
L 428.86 191.580625 
" style="fill:none;stroke:#ff0000;stroke-linecap:square;stroke-width:2;"/>
    </g>
    <g id="line2d_44"/>
    <g id="text_20">
     <!-- $V_{D}$ = 0.0 -->
     <defs>
      <path d="M 10.59375 45.40625 
L 73.1875 45.40625 
L 73.1875 37.203125 
L 10.59375 37.203125 
z
M 10.59375 25.484375 
L 73.1875 25.484375 
L 73.1875 17.1875 
L 10.59375 17.1875 
z
" id="DejaVuSans-3d"/>
      <path d="M 10.6875 12.40625 
L 21 12.40625 
L 21 0 
L 10.6875 0 
z
" id="DejaVuSans-2e"/>
     </defs>
     <g transform="translate(430.86 195.080625)scale(0.12 -0.12)">
      <use transform="translate(0 0.78125)" xlink:href="#DejaVuSans-Oblique-56"/>
      <use transform="translate(68.408203 -15.625)scale(0.7)" xlink:href="#DejaVuSans-Oblique-44"/>
      <use transform="translate(125.043945 0.78125)" xlink:href="#DejaVuSans-20"/>
      <use transform="translate(156.831055 0.78125)" xlink:href="#DejaVuSans-3d"/>
      <use transform="translate(240.620117 0.78125)" xlink:href="#DejaVuSans-20"/>
      <use transform="translate(272.407227 0.78125)" xlink:href="#DejaVuSans-30"/>
      <use transform="translate(336.030273 0.78125)" xlink:href="#DejaVuSans-2e"/>
      <use transform="translate(367.817383 0.78125)" xlink:href="#DejaVuSans-30"/>
     </g>
    </g>
    <g id="line2d_45">
     <path d="M 418.86 203.194375 
L 428.86 203.194375 
" style="fill:none;stroke:#0000ff;stroke-linecap:square;stroke-width:2;"/>
    </g>
    <g id="line2d_46"/>
    <g id="text_21">
     <!-- $V_{D}$ = 0.2 -->
     <g transform="translate(430.86 206.694375)scale(0.12 -0.12)">
      <use transform="translate(0 0.78125)" xlink:href="#DejaVuSans-Oblique-56"/>
      <use transform="translate(68.408203 -15.625)scale(0.7)" xlink:href="#DejaVuSans-Oblique-44"/>
      <use transform="translate(125.043945 0.78125)" xlink:href="#DejaVuSans-20"/>
      <use transform="translate(156.831055 0.78125)" xlink:href="#DejaVuSans-3d"/>
      <use transform="translate(240.620117 0.78125)" xlink:href="#DejaVuSans-20"/>
      <use transform="translate(272.407227 0.78125)" xlink:href="#DejaVuSans-30"/>
      <use transform="translate(336.030273 0.78125)" xlink:href="#DejaVuSans-2e"/>
      <use transform="translate(367.739258 0.78125)" xlink:href="#DejaVuSans-32"/>
     </g>
    </g>
    <g id="line2d_47">
     <path d="M 418.86 214.808125 
L 428.86 214.808125 
" style="fill:none;stroke:#008000;stroke-linecap:square;stroke-width:2;"/>
    </g>
    <g id="line2d_48"/>
    <g id="text_22">
     <!-- $V_{D}$ = 0.4 -->
     <g transform="translate(430.86 218.308125)scale(0.12 -0.12)">
      <use transform="translate(0 0.78125)" xlink:href="#DejaVuSans-Oblique-56"/>
      <use transform="translate(68.408203 -15.625)scale(0.7)" xlink:href="#DejaVuSans-Oblique-44"/>
      <use transform="translate(125.043945 0.78125)" xlink:href="#DejaVuSans-20"/>
      <use transform="translate(156.831055 0.78125)" xlink:href="#DejaVuSans-3d"/>
      <use transform="translate(240.620117 0.78125)" xlink:href="#DejaVuSans-20"/>
      <use transform="translate(272.407227 0.78125)" xlink:href="#DejaVuSans-30"/>
      <use transform="translate(336.030273 0.78125)" xlink:href="#DejaVuSans-2e"/>
      <use transform="translate(367.817383 0.78125)" xlink:href="#DejaVuSans-34"/>
     </g>
    </g>
    <g id="line2d_49">
     <path d="M 418.86 226.421875 
L 428.86 226.421875 
" style="fill:none;stroke:#00bfbf;stroke-linecap:square;stroke-width:2;"/>
    </g>
    <g id="line2d_50"/>
    <g id="text_23">
     <!-- $V_{D}$ = 0.6 -->
     <g transform="translate(430.86 229.921875)scale(0.12 -0.12)">
      <use transform="translate(0 0.78125)" xlink:href="#DejaVuSans-Oblique-56"/>
      <use transform="translate(68.408203 -15.625)scale(0.7)" xlink:href="#DejaVuSans-Oblique-44"/>
      <use transform="translate(125.043945 0.78125)" xlink:href="#DejaVuSans-20"/>
      <use transform="translate(156.831055 0.78125)" xlink:href="#DejaVuSans-3d"/>
      <use transform="translate(240.620117 0.78125)" xlink:href="#DejaVuSans-20"/>
      <use transform="translate(272.407227 0.78125)" xlink:href="#DejaVuSans-30"/>
      <use transform="translate(336.030273 0.78125)" xlink:href="#DejaVuSans-2e"/>
      <use transform="translate(367.817383 0.78125)" xlink:href="#DejaVuSans-36"/>
     </g>
    </g>
    <g id="line2d_51">
     <path d="M 418.86 238.035625 
L 428.86 238.035625 
" style="fill:none;stroke:#bf00bf;stroke-linecap:square;stroke-width:2;"/>
    </g>
    <g id="line2d_52"/>
    <g id="text_24">
     <!-- $V_{D}$ = 0.8 -->
     <g transform="translate(430.86 241.535625)scale(0.12 -0.12)">
      <use transform="translate(0 0.78125)" xlink:href="#DejaVuSans-Oblique-56"/>
      <use transform="translate(68.408203 -15.625)scale(0.7)" xlink:href="#DejaVuSans-Oblique-44"/>
      <use transform="translate(125.043945 0.78125)" xlink:href="#DejaVuSans-20"/>
      <use transform="translate(156.831055 0.78125)" xlink:href="#DejaVuSans-3d"/>
      <use transform="translate(240.620117 0.78125)" xlink:href="#DejaVuSans-20"/>
      <use transform="translate(272.407227 0.78125)" xlink:href="#DejaVuSans-30"/>
      <use transform="translate(336.030273 0.78125)" xlink:href="#DejaVuSans-2e"/>
      <use transform="translate(367.786133 0.78125)" xlink:href="#DejaVuSans-38"/>
     </g>
    </g>
    <g id="line2d_53">
     <path d="M 418.86 249.649375 
L 428.86 249.649375 
" style="fill:none;stroke:#bfbf00;stroke-linecap:square;stroke-width:2;"/>
    </g>
    <g id="line2d_54"/>
    <g id="text_25">
     <!-- $V_{D}$ = 1.0 -->
     <g transform="translate(430.86 253.149375)scale(0.12 -0.12)">
      <use transform="translate(0 0.78125)" xlink:href="#DejaVuSans-Oblique-56"/>
      <use transform="translate(68.408203 -15.625)scale(0.7)" xlink:href="#DejaVuSans-Oblique-44"/>
      <use transform="translate(125.043945 0.78125)" xlink:href="#DejaVuSans-20"/>
      <use transform="translate(156.831055 0.78125)" xlink:href="#DejaVuSans-3d"/>
      <use transform="translate(240.620117 0.78125)" xlink:href="#DejaVuSans-20"/>
      <use transform="translate(272.407227 0.78125)" xlink:href="#DejaVuSans-31"/>
      <use transform="translate(336.030273 0.78125)" xlink:href="#DejaVuSans-2e"/>
      <use transform="translate(367.817383 0.78125)" xlink:href="#DejaVuSans-30"/>
     </g>
    </g>
    <g id="line2d_55">
     <path d="M 418.86 261.263125 
L 428.86 261.263125 
" style="fill:none;stroke:#000000;stroke-linecap:square;stroke-width:2;"/>
    </g>
    <g id="line2d_56"/>
    <g id="text_26">
     <!-- $V_{D}$ = 1.2 -->
     <g transform="translate(430.86 264.763125)scale(0.12 -0.12)">
      <use transform="translate(0 0.78125)" xlink:href="#DejaVuSans-Oblique-56"/>
      <use transform="translate(68.408203 -15.625)scale(0.7)" xlink:href="#DejaVuSans-Oblique-44"/>
      <use transform="translate(125.043945 0.78125)" xlink:href="#DejaVuSans-20"/>
      <use transform="translate(156.831055 0.78125)" xlink:href="#DejaVuSans-3d"/>
      <use transform="translate(240.620117 0.78125)" xlink:href="#DejaVuSans-20"/>
      <use transform="translate(272.407227 0.78125)" xlink:href="#DejaVuSans-31"/>
      <use transform="translate(336.030273 0.78125)" xlink:href="#DejaVuSans-2e"/>
      <use transform="translate(367.739258 0.78125)" xlink:href="#DejaVuSans-32"/>
     </g>
    </g>
    <g id="line2d_57">
     <path d="M 418.86 272.876875 
L 428.86 272.876875 
" style="fill:none;stroke:#ff0000;stroke-linecap:square;stroke-width:2;"/>
    </g>
    <g id="line2d_58"/>
    <g id="text_27">
     <!-- $V_{D}$ = 1.4 -->
     <g transform="translate(430.86 276.376875)scale(0.12 -0.12)">
      <use transform="translate(0 0.09375)" xlink:href="#DejaVuSans-Oblique-56"/>
      <use transform="translate(68.408203 -16.3125)scale(0.7)" xlink:href="#DejaVuSans-Oblique-44"/>
      <use transform="translate(125.043945 0.09375)" xlink:href="#DejaVuSans-20"/>
      <use transform="translate(156.831055 0.09375)" xlink:href="#DejaVuSans-3d"/>
      <use transform="translate(240.620117 0.09375)" xlink:href="#DejaVuSans-20"/>
      <use transform="translate(272.407227 0.09375)" xlink:href="#DejaVuSans-31"/>
      <use transform="translate(336.030273 0.09375)" xlink:href="#DejaVuSans-2e"/>
      <use transform="translate(367.817383 0.09375)" xlink:href="#DejaVuSans-34"/>
     </g>
    </g>
    <g id="line2d_59">
     <path d="M 418.86 284.490625 
L 428.86 284.490625 
" style="fill:none;stroke:#0000ff;stroke-linecap:square;stroke-width:2;"/>
    </g>
    <g id="line2d_60"/>
    <g id="text_28">
     <!-- $V_{D}$ = 1.6 -->
     <g transform="translate(430.86 287.990625)scale(0.12 -0.12)">
      <use transform="translate(0 0.78125)" xlink:href="#DejaVuSans-Oblique-56"/>
      <use transform="translate(68.408203 -15.625)scale(0.7)" xlink:href="#DejaVuSans-Oblique-44"/>
      <use transform="translate(125.043945 0.78125)" xlink:href="#DejaVuSans-20"/>
      <use transform="translate(156.831055 0.78125)" xlink:href="#DejaVuSans-3d"/>
      <use transform="translate(240.620117 0.78125)" xlink:href="#DejaVuSans-20"/>
      <use transform="translate(272.407227 0.78125)" xlink:href="#DejaVuSans-31"/>
      <use transform="translate(336.030273 0.78125)" xlink:href="#DejaVuSans-2e"/>
      <use transform="translate(367.817383 0.78125)" xlink:href="#DejaVuSans-36"/>
     </g>
    </g>
    <g id="line2d_61">
     <path d="M 418.86 296.104375 
L 428.86 296.104375 
" style="fill:none;stroke:#008000;stroke-linecap:square;stroke-width:2;"/>
    </g>
    <g id="line2d_62"/>
    <g id="text_29">
     <!-- $V_{D}$ = 1.8 -->
     <g transform="translate(430.86 299.604375)scale(0.12 -0.12)">
      <use transform="translate(0 0.78125)" xlink:href="#DejaVuSans-Oblique-56"/>
      <use transform="translate(68.408203 -15.625)scale(0.7)" xlink:href="#DejaVuSans-Oblique-44"/>
      <use transform="translate(125.043945 0.78125)" xlink:href="#DejaVuSans-20"/>
      <use transform="translate(156.831055 0.78125)" xlink:href="#DejaVuSans-3d"/>
      <use transform="translate(240.620117 0.78125)" xlink:href="#DejaVuSans-20"/>
      <use transform="translate(272.407227 0.78125)" xlink:href="#DejaVuSans-31"/>
      <use transform="translate(336.030273 0.78125)" xlink:href="#DejaVuSans-2e"/>
      <use transform="translate(367.786133 0.78125)" xlink:href="#DejaVuSans-38"/>
     </g>
    </g>
   </g>
  </g>
 </g>
 <defs>
  <clipPath id="p11e7186af5">
   <rect height="280.4" width="428.15" x="61.55" y="28.7"/>
  </clipPath>
 </defs>
</svg>
