<?xml version="1.0" encoding="utf-8" standalone="no"?>
<!DOCTYPE svg PUBLIC "-//W3C//DTD SVG 1.1//EN"
  "http://www.w3.org/Graphics/SVG/1.1/DTD/svg11.dtd">
<!-- Created with matplotlib (http://matplotlib.org/) -->
<svg height="360pt" version="1.1" viewBox="0 0 504 360" width="504pt" xmlns="http://www.w3.org/2000/svg" xmlns:xlink="http://www.w3.org/1999/xlink">
 <defs>
  <style type="text/css">
*{stroke-linecap:butt;stroke-linejoin:round;}
  </style>
 </defs>
 <g id="figure_1">
  <g id="patch_1">
   <path d="M 0 360 
L 504 360 
L 504 0 
L 0 0 
z
" style="fill:#ffffff;"/>
  </g>
  <g id="axes_1">
   <g id="patch_2">
    <path d="M 61.55 309.1 
L 489.7 309.1 
L 489.7 28.8 
L 61.55 28.8 
z
" style="fill:#ffffff;"/>
   </g>
   <g id="matplotlib.axis_1">
    <g id="xtick_1">
     <g id="line2d_1">
      <path clip-path="url(#p4c0ca1affa)" d="M 81.011364 309.1 
L 81.011364 28.8 
" style="fill:none;stroke:#808080;stroke-linecap:square;stroke-width:0.8;"/>
     </g>
     <g id="line2d_2">
      <defs>
       <path d="M 0 0 
L 0 3.5 
" id="m83c9bec0af" style="stroke:#000000;stroke-width:0.8;"/>
      </defs>
      <g>
       <use style="stroke:#000000;stroke-width:0.8;" x="81.011364" xlink:href="#m83c9bec0af" y="309.1"/>
      </g>
     </g>
     <g id="text_1">
      <!-- 0 -->
      <defs>
       <path d="M 31.78125 66.40625 
Q 24.171875 66.40625 20.328125 58.90625 
Q 16.5 51.421875 16.5 36.375 
Q 16.5 21.390625 20.328125 13.890625 
Q 24.171875 6.390625 31.78125 6.390625 
Q 39.453125 6.390625 43.28125 13.890625 
Q 47.125 21.390625 47.125 36.375 
Q 47.125 51.421875 43.28125 58.90625 
Q 39.453125 66.40625 31.78125 66.40625 
z
M 31.78125 74.21875 
Q 44.046875 74.21875 50.515625 64.515625 
Q 56.984375 54.828125 56.984375 36.375 
Q 56.984375 17.96875 50.515625 8.265625 
Q 44.046875 -1.421875 31.78125 -1.421875 
Q 19.53125 -1.421875 13.0625 8.265625 
Q 6.59375 17.96875 6.59375 36.375 
Q 6.59375 54.828125 13.0625 64.515625 
Q 19.53125 74.21875 31.78125 74.21875 
z
" id="DejaVuSans-30"/>
      </defs>
      <g transform="translate(77.193864 325.218125)scale(0.12 -0.12)">
       <use xlink:href="#DejaVuSans-30"/>
      </g>
     </g>
    </g>
    <g id="xtick_2">
     <g id="line2d_3">
      <path clip-path="url(#p4c0ca1affa)" d="M 136.005342 309.1 
L 136.005342 28.8 
" style="fill:none;stroke:#808080;stroke-linecap:square;stroke-width:0.8;"/>
     </g>
     <g id="line2d_4">
      <g>
       <use style="stroke:#000000;stroke-width:0.8;" x="136.005342" xlink:href="#m83c9bec0af" y="309.1"/>
      </g>
     </g>
     <g id="text_2">
      <!-- 25 -->
      <defs>
       <path d="M 19.1875 8.296875 
L 53.609375 8.296875 
L 53.609375 0 
L 7.328125 0 
L 7.328125 8.296875 
Q 12.9375 14.109375 22.625 23.890625 
Q 32.328125 33.6875 34.8125 36.53125 
Q 39.546875 41.84375 41.421875 45.53125 
Q 43.3125 49.21875 43.3125 52.78125 
Q 43.3125 58.59375 39.234375 62.25 
Q 35.15625 65.921875 28.609375 65.921875 
Q 23.96875 65.921875 18.8125 64.3125 
Q 13.671875 62.703125 7.8125 59.421875 
L 7.8125 69.390625 
Q 13.765625 71.78125 18.9375 73 
Q 24.125 74.21875 28.421875 74.21875 
Q 39.75 74.21875 46.484375 68.546875 
Q 53.21875 62.890625 53.21875 53.421875 
Q 53.21875 48.921875 51.53125 44.890625 
Q 49.859375 40.875 45.40625 35.40625 
Q 44.1875 33.984375 37.640625 27.21875 
Q 31.109375 20.453125 19.1875 8.296875 
z
" id="DejaVuSans-32"/>
       <path d="M 10.796875 72.90625 
L 49.515625 72.90625 
L 49.515625 64.59375 
L 19.828125 64.59375 
L 19.828125 46.734375 
Q 21.96875 47.46875 24.109375 47.828125 
Q 26.265625 48.1875 28.421875 48.1875 
Q 40.625 48.1875 47.75 41.5 
Q 54.890625 34.8125 54.890625 23.390625 
Q 54.890625 11.625 47.5625 5.09375 
Q 40.234375 -1.421875 26.90625 -1.421875 
Q 22.3125 -1.421875 17.546875 -0.640625 
Q 12.796875 0.140625 7.71875 1.703125 
L 7.71875 11.625 
Q 12.109375 9.234375 16.796875 8.0625 
Q 21.484375 6.890625 26.703125 6.890625 
Q 35.15625 6.890625 40.078125 11.328125 
Q 45.015625 15.765625 45.015625 23.390625 
Q 45.015625 31 40.078125 35.4375 
Q 35.15625 39.890625 26.703125 39.890625 
Q 22.75 39.890625 18.8125 39.015625 
Q 14.890625 38.140625 10.796875 36.28125 
z
" id="DejaVuSans-35"/>
      </defs>
      <g transform="translate(128.370342 325.218125)scale(0.12 -0.12)">
       <use xlink:href="#DejaVuSans-32"/>
       <use x="63.623047" xlink:href="#DejaVuSans-35"/>
      </g>
     </g>
    </g>
    <g id="xtick_3">
     <g id="line2d_5">
      <path clip-path="url(#p4c0ca1affa)" d="M 190.999321 309.1 
L 190.999321 28.8 
" style="fill:none;stroke:#808080;stroke-linecap:square;stroke-width:0.8;"/>
     </g>
     <g id="line2d_6">
      <g>
       <use style="stroke:#000000;stroke-width:0.8;" x="190.999321" xlink:href="#m83c9bec0af" y="309.1"/>
      </g>
     </g>
     <g id="text_3">
      <!-- 50 -->
      <g transform="translate(183.364321 325.218125)scale(0.12 -0.12)">
       <use xlink:href="#DejaVuSans-35"/>
       <use x="63.623047" xlink:href="#DejaVuSans-30"/>
      </g>
     </g>
    </g>
    <g id="xtick_4">
     <g id="line2d_7">
      <path clip-path="url(#p4c0ca1affa)" d="M 245.9933 309.1 
L 245.9933 28.8 
" style="fill:none;stroke:#808080;stroke-linecap:square;stroke-width:0.8;"/>
     </g>
     <g id="line2d_8">
      <g>
       <use style="stroke:#000000;stroke-width:0.8;" x="245.9933" xlink:href="#m83c9bec0af" y="309.1"/>
      </g>
     </g>
     <g id="text_4">
      <!-- 75 -->
      <defs>
       <path d="M 8.203125 72.90625 
L 55.078125 72.90625 
L 55.078125 68.703125 
L 28.609375 0 
L 18.3125 0 
L 43.21875 64.59375 
L 8.203125 64.59375 
z
" id="DejaVuSans-37"/>
      </defs>
      <g transform="translate(238.3583 325.218125)scale(0.12 -0.12)">
       <use xlink:href="#DejaVuSans-37"/>
       <use x="63.623047" xlink:href="#DejaVuSans-35"/>
      </g>
     </g>
    </g>
    <g id="xtick_5">
     <g id="line2d_9">
      <path clip-path="url(#p4c0ca1affa)" d="M 300.987278 309.1 
L 300.987278 28.8 
" style="fill:none;stroke:#808080;stroke-linecap:square;stroke-width:0.8;"/>
     </g>
     <g id="line2d_10">
      <g>
       <use style="stroke:#000000;stroke-width:0.8;" x="300.987278" xlink:href="#m83c9bec0af" y="309.1"/>
      </g>
     </g>
     <g id="text_5">
      <!-- 100 -->
      <defs>
       <path d="M 12.40625 8.296875 
L 28.515625 8.296875 
L 28.515625 63.921875 
L 10.984375 60.40625 
L 10.984375 69.390625 
L 28.421875 72.90625 
L 38.28125 72.90625 
L 38.28125 8.296875 
L 54.390625 8.296875 
L 54.390625 0 
L 12.40625 0 
z
" id="DejaVuSans-31"/>
      </defs>
      <g transform="translate(289.534778 325.218125)scale(0.12 -0.12)">
       <use xlink:href="#DejaVuSans-31"/>
       <use x="63.623047" xlink:href="#DejaVuSans-30"/>
       <use x="127.246094" xlink:href="#DejaVuSans-30"/>
      </g>
     </g>
    </g>
    <g id="xtick_6">
     <g id="line2d_11">
      <path clip-path="url(#p4c0ca1affa)" d="M 355.981257 309.1 
L 355.981257 28.8 
" style="fill:none;stroke:#808080;stroke-linecap:square;stroke-width:0.8;"/>
     </g>
     <g id="line2d_12">
      <g>
       <use style="stroke:#000000;stroke-width:0.8;" x="355.981257" xlink:href="#m83c9bec0af" y="309.1"/>
      </g>
     </g>
     <g id="text_6">
      <!-- 125 -->
      <g transform="translate(344.528757 325.218125)scale(0.12 -0.12)">
       <use xlink:href="#DejaVuSans-31"/>
       <use x="63.623047" xlink:href="#DejaVuSans-32"/>
       <use x="127.246094" xlink:href="#DejaVuSans-35"/>
      </g>
     </g>
    </g>
    <g id="xtick_7">
     <g id="line2d_13">
      <path clip-path="url(#p4c0ca1affa)" d="M 410.975236 309.1 
L 410.975236 28.8 
" style="fill:none;stroke:#808080;stroke-linecap:square;stroke-width:0.8;"/>
     </g>
     <g id="line2d_14">
      <g>
       <use style="stroke:#000000;stroke-width:0.8;" x="410.975236" xlink:href="#m83c9bec0af" y="309.1"/>
      </g>
     </g>
     <g id="text_7">
      <!-- 150 -->
      <g transform="translate(399.522736 325.218125)scale(0.12 -0.12)">
       <use xlink:href="#DejaVuSans-31"/>
       <use x="63.623047" xlink:href="#DejaVuSans-35"/>
       <use x="127.246094" xlink:href="#DejaVuSans-30"/>
      </g>
     </g>
    </g>
    <g id="xtick_8">
     <g id="line2d_15">
      <path clip-path="url(#p4c0ca1affa)" d="M 465.969214 309.1 
L 465.969214 28.8 
" style="fill:none;stroke:#808080;stroke-linecap:square;stroke-width:0.8;"/>
     </g>
     <g id="line2d_16">
      <g>
       <use style="stroke:#000000;stroke-width:0.8;" x="465.969214" xlink:href="#m83c9bec0af" y="309.1"/>
      </g>
     </g>
     <g id="text_8">
      <!-- 175 -->
      <g transform="translate(454.516714 325.218125)scale(0.12 -0.12)">
       <use xlink:href="#DejaVuSans-31"/>
       <use x="63.623047" xlink:href="#DejaVuSans-37"/>
       <use x="127.246094" xlink:href="#DejaVuSans-35"/>
      </g>
     </g>
    </g>
    <g id="text_9">
     <!-- $I_{DS X1}$ [uA] -->
     <defs>
      <path d="M 16.890625 72.90625 
L 26.8125 72.90625 
L 12.59375 0 
L 2.6875 0 
z
" id="DejaVuSans-Oblique-49"/>
      <path d="M 16.890625 72.90625 
L 38.09375 72.90625 
Q 54.984375 72.90625 63.59375 65.75 
Q 72.21875 58.59375 72.21875 44.484375 
Q 72.21875 35.15625 68.9375 26.53125 
Q 65.671875 17.921875 59.90625 12.015625 
Q 54.109375 5.953125 45.171875 2.96875 
Q 36.234375 0 24.03125 0 
L 2.6875 0 
z
M 25.203125 64.796875 
L 14.203125 8.109375 
L 27.09375 8.109375 
Q 43.65625 8.109375 52.734375 17.625 
Q 61.8125 27.15625 61.8125 44.484375 
Q 61.8125 54.984375 55.953125 59.890625 
Q 50.09375 64.796875 37.59375 64.796875 
z
" id="DejaVuSans-Oblique-44"/>
      <path d="M 60.296875 70.515625 
L 58.40625 60.890625 
Q 53.46875 63.53125 48.609375 64.875 
Q 43.75 66.21875 39.203125 66.21875 
Q 30.375 66.21875 25.140625 62.359375 
Q 19.921875 58.5 19.921875 52.09375 
Q 19.921875 48.578125 21.84375 46.703125 
Q 23.78125 44.828125 31.78125 42.671875 
L 37.703125 41.21875 
Q 47.703125 38.625 51.609375 34.640625 
Q 55.515625 30.671875 55.515625 23.484375 
Q 55.515625 12.453125 46.84375 5.515625 
Q 38.1875 -1.421875 24.03125 -1.421875 
Q 18.21875 -1.421875 12.359375 -0.265625 
Q 6.5 0.875 0.59375 3.21875 
L 2.59375 13.375 
Q 8.015625 10.015625 13.453125 8.296875 
Q 18.890625 6.59375 24.3125 6.59375 
Q 33.546875 6.59375 39.109375 10.6875 
Q 44.671875 14.796875 44.671875 21.390625 
Q 44.671875 25.78125 42.453125 28.046875 
Q 40.234375 30.328125 32.90625 32.171875 
L 27 33.6875 
Q 16.890625 36.328125 13.203125 39.765625 
Q 9.515625 43.21875 9.515625 49.421875 
Q 9.515625 60.296875 17.890625 67.25 
Q 26.265625 74.21875 39.703125 74.21875 
Q 44.921875 74.21875 50.046875 73.28125 
Q 55.171875 72.359375 60.296875 70.515625 
z
" id="DejaVuSans-Oblique-53"/>
      <path d="M 13.71875 72.90625 
L 23.6875 72.90625 
L 36.1875 46.578125 
L 58.796875 72.90625 
L 70.3125 72.90625 
L 40.28125 38.09375 
L 58.40625 0 
L 48.484375 0 
L 33.796875 30.71875 
L 7.171875 0 
L -4.296875 0 
L 29.78125 39.203125 
z
" id="DejaVuSans-Oblique-58"/>
      <path id="DejaVuSans-20"/>
      <path d="M 8.59375 75.984375 
L 29.296875 75.984375 
L 29.296875 69 
L 17.578125 69 
L 17.578125 -6.203125 
L 29.296875 -6.203125 
L 29.296875 -13.1875 
L 8.59375 -13.1875 
z
" id="DejaVuSans-5b"/>
      <path d="M 8.5 21.578125 
L 8.5 54.6875 
L 17.484375 54.6875 
L 17.484375 21.921875 
Q 17.484375 14.15625 20.5 10.265625 
Q 23.53125 6.390625 29.59375 6.390625 
Q 36.859375 6.390625 41.078125 11.03125 
Q 45.3125 15.671875 45.3125 23.6875 
L 45.3125 54.6875 
L 54.296875 54.6875 
L 54.296875 0 
L 45.3125 0 
L 45.3125 8.40625 
Q 42.046875 3.421875 37.71875 1 
Q 33.40625 -1.421875 27.6875 -1.421875 
Q 18.265625 -1.421875 13.375 4.4375 
Q 8.5 10.296875 8.5 21.578125 
z
M 31.109375 56 
z
" id="DejaVuSans-75"/>
      <path d="M 34.1875 63.1875 
L 20.796875 26.90625 
L 47.609375 26.90625 
z
M 28.609375 72.90625 
L 39.796875 72.90625 
L 67.578125 0 
L 57.328125 0 
L 50.6875 18.703125 
L 17.828125 18.703125 
L 11.1875 0 
L 0.78125 0 
z
" id="DejaVuSans-41"/>
      <path d="M 30.421875 75.984375 
L 30.421875 -13.1875 
L 9.71875 -13.1875 
L 9.71875 -6.203125 
L 21.390625 -6.203125 
L 21.390625 69 
L 9.71875 69 
L 9.71875 75.984375 
z
" id="DejaVuSans-5d"/>
     </defs>
     <g transform="translate(247.725 340.831875)scale(0.12 -0.12)">
      <use transform="translate(0 0.015625)" xlink:href="#DejaVuSans-Oblique-49"/>
      <use transform="translate(29.492188 -16.390625)scale(0.7)" xlink:href="#DejaVuSans-Oblique-44"/>
      <use transform="translate(83.393555 -16.390625)scale(0.7)" xlink:href="#DejaVuSans-Oblique-53"/>
      <use transform="translate(127.827148 -16.390625)scale(0.7)" xlink:href="#DejaVuSans-Oblique-58"/>
      <use transform="translate(175.78125 -16.390625)scale(0.7)" xlink:href="#DejaVuSans-31"/>
      <use transform="translate(223.051758 0.015625)" xlink:href="#DejaVuSans-20"/>
      <use transform="translate(254.838867 0.015625)" xlink:href="#DejaVuSans-5b"/>
      <use transform="translate(293.852539 0.015625)" xlink:href="#DejaVuSans-75"/>
      <use transform="translate(357.231445 0.015625)" xlink:href="#DejaVuSans-41"/>
      <use transform="translate(425.639648 0.015625)" xlink:href="#DejaVuSans-5d"/>
     </g>
    </g>
   </g>
   <g id="matplotlib.axis_2">
    <g id="ytick_1">
     <g id="line2d_17">
      <path clip-path="url(#p4c0ca1affa)" d="M 61.55 296.359091 
L 489.7 296.359091 
" style="fill:none;stroke:#808080;stroke-linecap:square;stroke-width:0.8;"/>
     </g>
     <g id="line2d_18">
      <defs>
       <path d="M 0 0 
L -3.5 0 
" id="mbb54a9d6db" style="stroke:#000000;stroke-width:0.8;"/>
      </defs>
      <g>
       <use style="stroke:#000000;stroke-width:0.8;" x="61.55" xlink:href="#mbb54a9d6db" y="296.359091"/>
      </g>
     </g>
     <g id="text_10">
      <!-- 0 -->
      <g transform="translate(46.915 300.918153)scale(0.12 -0.12)">
       <use xlink:href="#DejaVuSans-30"/>
      </g>
     </g>
    </g>
    <g id="ytick_2">
     <g id="line2d_19">
      <path clip-path="url(#p4c0ca1affa)" d="M 61.55 262.835381 
L 489.7 262.835381 
" style="fill:none;stroke:#808080;stroke-linecap:square;stroke-width:0.8;"/>
     </g>
     <g id="line2d_20">
      <g>
       <use style="stroke:#000000;stroke-width:0.8;" x="61.55" xlink:href="#mbb54a9d6db" y="262.835381"/>
      </g>
     </g>
     <g id="text_11">
      <!-- 20 -->
      <g transform="translate(39.28 267.394444)scale(0.12 -0.12)">
       <use xlink:href="#DejaVuSans-32"/>
       <use x="63.623047" xlink:href="#DejaVuSans-30"/>
      </g>
     </g>
    </g>
    <g id="ytick_3">
     <g id="line2d_21">
      <path clip-path="url(#p4c0ca1affa)" d="M 61.55 229.311672 
L 489.7 229.311672 
" style="fill:none;stroke:#808080;stroke-linecap:square;stroke-width:0.8;"/>
     </g>
     <g id="line2d_22">
      <g>
       <use style="stroke:#000000;stroke-width:0.8;" x="61.55" xlink:href="#mbb54a9d6db" y="229.311672"/>
      </g>
     </g>
     <g id="text_12">
      <!-- 40 -->
      <defs>
       <path d="M 37.796875 64.3125 
L 12.890625 25.390625 
L 37.796875 25.390625 
z
M 35.203125 72.90625 
L 47.609375 72.90625 
L 47.609375 25.390625 
L 58.015625 25.390625 
L 58.015625 17.1875 
L 47.609375 17.1875 
L 47.609375 0 
L 37.796875 0 
L 37.796875 17.1875 
L 4.890625 17.1875 
L 4.890625 26.703125 
z
" id="DejaVuSans-34"/>
      </defs>
      <g transform="translate(39.28 233.870735)scale(0.12 -0.12)">
       <use xlink:href="#DejaVuSans-34"/>
       <use x="63.623047" xlink:href="#DejaVuSans-30"/>
      </g>
     </g>
    </g>
    <g id="ytick_4">
     <g id="line2d_23">
      <path clip-path="url(#p4c0ca1affa)" d="M 61.55 195.787963 
L 489.7 195.787963 
" style="fill:none;stroke:#808080;stroke-linecap:square;stroke-width:0.8;"/>
     </g>
     <g id="line2d_24">
      <g>
       <use style="stroke:#000000;stroke-width:0.8;" x="61.55" xlink:href="#mbb54a9d6db" y="195.787963"/>
      </g>
     </g>
     <g id="text_13">
      <!-- 60 -->
      <defs>
       <path d="M 33.015625 40.375 
Q 26.375 40.375 22.484375 35.828125 
Q 18.609375 31.296875 18.609375 23.390625 
Q 18.609375 15.53125 22.484375 10.953125 
Q 26.375 6.390625 33.015625 6.390625 
Q 39.65625 6.390625 43.53125 10.953125 
Q 47.40625 15.53125 47.40625 23.390625 
Q 47.40625 31.296875 43.53125 35.828125 
Q 39.65625 40.375 33.015625 40.375 
z
M 52.59375 71.296875 
L 52.59375 62.3125 
Q 48.875 64.0625 45.09375 64.984375 
Q 41.3125 65.921875 37.59375 65.921875 
Q 27.828125 65.921875 22.671875 59.328125 
Q 17.53125 52.734375 16.796875 39.40625 
Q 19.671875 43.65625 24.015625 45.921875 
Q 28.375 48.1875 33.59375 48.1875 
Q 44.578125 48.1875 50.953125 41.515625 
Q 57.328125 34.859375 57.328125 23.390625 
Q 57.328125 12.15625 50.6875 5.359375 
Q 44.046875 -1.421875 33.015625 -1.421875 
Q 20.359375 -1.421875 13.671875 8.265625 
Q 6.984375 17.96875 6.984375 36.375 
Q 6.984375 53.65625 15.1875 63.9375 
Q 23.390625 74.21875 37.203125 74.21875 
Q 40.921875 74.21875 44.703125 73.484375 
Q 48.484375 72.75 52.59375 71.296875 
z
" id="DejaVuSans-36"/>
      </defs>
      <g transform="translate(39.28 200.347025)scale(0.12 -0.12)">
       <use xlink:href="#DejaVuSans-36"/>
       <use x="63.623047" xlink:href="#DejaVuSans-30"/>
      </g>
     </g>
    </g>
    <g id="ytick_5">
     <g id="line2d_25">
      <path clip-path="url(#p4c0ca1affa)" d="M 61.55 162.264253 
L 489.7 162.264253 
" style="fill:none;stroke:#808080;stroke-linecap:square;stroke-width:0.8;"/>
     </g>
     <g id="line2d_26">
      <g>
       <use style="stroke:#000000;stroke-width:0.8;" x="61.55" xlink:href="#mbb54a9d6db" y="162.264253"/>
      </g>
     </g>
     <g id="text_14">
      <!-- 80 -->
      <defs>
       <path d="M 31.78125 34.625 
Q 24.75 34.625 20.71875 30.859375 
Q 16.703125 27.09375 16.703125 20.515625 
Q 16.703125 13.921875 20.71875 10.15625 
Q 24.75 6.390625 31.78125 6.390625 
Q 38.8125 6.390625 42.859375 10.171875 
Q 46.921875 13.96875 46.921875 20.515625 
Q 46.921875 27.09375 42.890625 30.859375 
Q 38.875 34.625 31.78125 34.625 
z
M 21.921875 38.8125 
Q 15.578125 40.375 12.03125 44.71875 
Q 8.5 49.078125 8.5 55.328125 
Q 8.5 64.0625 14.71875 69.140625 
Q 20.953125 74.21875 31.78125 74.21875 
Q 42.671875 74.21875 48.875 69.140625 
Q 55.078125 64.0625 55.078125 55.328125 
Q 55.078125 49.078125 51.53125 44.71875 
Q 48 40.375 41.703125 38.8125 
Q 48.828125 37.15625 52.796875 32.3125 
Q 56.78125 27.484375 56.78125 20.515625 
Q 56.78125 9.90625 50.3125 4.234375 
Q 43.84375 -1.421875 31.78125 -1.421875 
Q 19.734375 -1.421875 13.25 4.234375 
Q 6.78125 9.90625 6.78125 20.515625 
Q 6.78125 27.484375 10.78125 32.3125 
Q 14.796875 37.15625 21.921875 38.8125 
z
M 18.3125 54.390625 
Q 18.3125 48.734375 21.84375 45.5625 
Q 25.390625 42.390625 31.78125 42.390625 
Q 38.140625 42.390625 41.71875 45.5625 
Q 45.3125 48.734375 45.3125 54.390625 
Q 45.3125 60.0625 41.71875 63.234375 
Q 38.140625 66.40625 31.78125 66.40625 
Q 25.390625 66.40625 21.84375 63.234375 
Q 18.3125 60.0625 18.3125 54.390625 
z
" id="DejaVuSans-38"/>
      </defs>
      <g transform="translate(39.28 166.823316)scale(0.12 -0.12)">
       <use xlink:href="#DejaVuSans-38"/>
       <use x="63.623047" xlink:href="#DejaVuSans-30"/>
      </g>
     </g>
    </g>
    <g id="ytick_6">
     <g id="line2d_27">
      <path clip-path="url(#p4c0ca1affa)" d="M 61.55 128.740544 
L 489.7 128.740544 
" style="fill:none;stroke:#808080;stroke-linecap:square;stroke-width:0.8;"/>
     </g>
     <g id="line2d_28">
      <g>
       <use style="stroke:#000000;stroke-width:0.8;" x="61.55" xlink:href="#mbb54a9d6db" y="128.740544"/>
      </g>
     </g>
     <g id="text_15">
      <!-- 100 -->
      <g transform="translate(31.645 133.299606)scale(0.12 -0.12)">
       <use xlink:href="#DejaVuSans-31"/>
       <use x="63.623047" xlink:href="#DejaVuSans-30"/>
       <use x="127.246094" xlink:href="#DejaVuSans-30"/>
      </g>
     </g>
    </g>
    <g id="ytick_7">
     <g id="line2d_29">
      <path clip-path="url(#p4c0ca1affa)" d="M 61.55 95.216834 
L 489.7 95.216834 
" style="fill:none;stroke:#808080;stroke-linecap:square;stroke-width:0.8;"/>
     </g>
     <g id="line2d_30">
      <g>
       <use style="stroke:#000000;stroke-width:0.8;" x="61.55" xlink:href="#mbb54a9d6db" y="95.216834"/>
      </g>
     </g>
     <g id="text_16">
      <!-- 120 -->
      <g transform="translate(31.645 99.775897)scale(0.12 -0.12)">
       <use xlink:href="#DejaVuSans-31"/>
       <use x="63.623047" xlink:href="#DejaVuSans-32"/>
       <use x="127.246094" xlink:href="#DejaVuSans-30"/>
      </g>
     </g>
    </g>
    <g id="ytick_8">
     <g id="line2d_31">
      <path clip-path="url(#p4c0ca1affa)" d="M 61.55 61.693125 
L 489.7 61.693125 
" style="fill:none;stroke:#808080;stroke-linecap:square;stroke-width:0.8;"/>
     </g>
     <g id="line2d_32">
      <g>
       <use style="stroke:#000000;stroke-width:0.8;" x="61.55" xlink:href="#mbb54a9d6db" y="61.693125"/>
      </g>
     </g>
     <g id="text_17">
      <!-- 140 -->
      <g transform="translate(31.645 66.252188)scale(0.12 -0.12)">
       <use xlink:href="#DejaVuSans-31"/>
       <use x="63.623047" xlink:href="#DejaVuSans-34"/>
       <use x="127.246094" xlink:href="#DejaVuSans-30"/>
      </g>
     </g>
    </g>
    <g id="text_18">
     <!-- $g_{m X1}$ [uS] -->
     <defs>
      <path d="M 59.625 54.6875 
L 50.296875 6.78125 
Q 47.609375 -7.125 40.015625 -13.953125 
Q 32.421875 -20.796875 19.578125 -20.796875 
Q 14.84375 -20.796875 10.78125 -20.09375 
Q 6.734375 -19.390625 3.21875 -17.921875 
L 4.890625 -9.1875 
Q 8.203125 -11.328125 11.90625 -12.34375 
Q 15.625 -13.375 19.828125 -13.375 
Q 28.375 -13.375 33.859375 -8.703125 
Q 39.359375 -4.046875 41.109375 4.6875 
L 41.890625 8.796875 
Q 38.140625 4.5 33.15625 2.25 
Q 28.171875 0 22.40625 0 
Q 14.109375 0 9.34375 5.484375 
Q 4.59375 10.984375 4.59375 20.609375 
Q 4.59375 28.171875 7.46875 35.421875 
Q 10.359375 42.671875 15.578125 48.296875 
Q 19.046875 52 23.65625 54 
Q 28.265625 56 33.296875 56 
Q 38.8125 56 42.90625 53.4375 
Q 47.015625 50.875 49.03125 46.1875 
L 50.59375 54.6875 
z
M 46.09375 34.625 
Q 46.09375 41.265625 42.96875 44.875 
Q 39.84375 48.484375 34.078125 48.484375 
Q 30.515625 48.484375 27.296875 47.0625 
Q 24.078125 45.65625 21.78125 43.109375 
Q 18.0625 38.921875 15.984375 33.234375 
Q 13.921875 27.546875 13.921875 21.484375 
Q 13.921875 14.75 17.0625 11.125 
Q 20.21875 7.515625 26.125 7.515625 
Q 34.671875 7.515625 40.375 15.25 
Q 46.09375 23 46.09375 34.625 
z
" id="DejaVuSans-Oblique-67"/>
      <path d="M 89.796875 33.015625 
L 83.40625 0 
L 74.421875 0 
L 80.71875 32.71875 
Q 81.109375 34.8125 81.296875 36.328125 
Q 81.5 37.84375 81.5 38.921875 
Q 81.5 43.3125 79.046875 45.75 
Q 76.609375 48.1875 72.21875 48.1875 
Q 65.671875 48.1875 60.546875 43.28125 
Q 55.421875 38.375 53.90625 30.515625 
L 47.90625 0 
L 38.921875 0 
L 45.3125 32.71875 
Q 45.703125 34.515625 45.890625 36.046875 
Q 46.09375 37.59375 46.09375 38.8125 
Q 46.09375 43.265625 43.65625 45.71875 
Q 41.21875 48.1875 36.921875 48.1875 
Q 30.28125 48.1875 25.140625 43.28125 
Q 20.015625 38.375 18.5 30.515625 
L 12.5 0 
L 3.515625 0 
L 14.203125 54.6875 
L 23.1875 54.6875 
L 21.484375 46.1875 
Q 25.140625 50.984375 30.046875 53.484375 
Q 34.96875 56 40.578125 56 
Q 46.53125 56 50.359375 52.875 
Q 54.203125 49.75 54.984375 44.1875 
Q 59.078125 49.953125 64.46875 52.96875 
Q 69.875 56 75.875 56 
Q 82.90625 56 86.734375 51.953125 
Q 90.578125 47.90625 90.578125 40.484375 
Q 90.578125 38.875 90.375 36.9375 
Q 90.1875 35.015625 89.796875 33.015625 
z
" id="DejaVuSans-Oblique-6d"/>
      <path d="M 53.515625 70.515625 
L 53.515625 60.890625 
Q 47.90625 63.578125 42.921875 64.890625 
Q 37.9375 66.21875 33.296875 66.21875 
Q 25.25 66.21875 20.875 63.09375 
Q 16.5 59.96875 16.5 54.203125 
Q 16.5 49.359375 19.40625 46.890625 
Q 22.3125 44.4375 30.421875 42.921875 
L 36.375 41.703125 
Q 47.40625 39.59375 52.65625 34.296875 
Q 57.90625 29 57.90625 20.125 
Q 57.90625 9.515625 50.796875 4.046875 
Q 43.703125 -1.421875 29.984375 -1.421875 
Q 24.8125 -1.421875 18.96875 -0.25 
Q 13.140625 0.921875 6.890625 3.21875 
L 6.890625 13.375 
Q 12.890625 10.015625 18.65625 8.296875 
Q 24.421875 6.59375 29.984375 6.59375 
Q 38.421875 6.59375 43.015625 9.90625 
Q 47.609375 13.234375 47.609375 19.390625 
Q 47.609375 24.75 44.3125 27.78125 
Q 41.015625 30.8125 33.5 32.328125 
L 27.484375 33.5 
Q 16.453125 35.6875 11.515625 40.375 
Q 6.59375 45.0625 6.59375 53.421875 
Q 6.59375 63.09375 13.40625 68.65625 
Q 20.21875 74.21875 32.171875 74.21875 
Q 37.3125 74.21875 42.625 73.28125 
Q 47.953125 72.359375 53.515625 70.515625 
z
" id="DejaVuSans-53"/>
     </defs>
     <g transform="translate(25.125 196.79)rotate(-90)scale(0.12 -0.12)">
      <use transform="translate(0 0.015625)" xlink:href="#DejaVuSans-Oblique-67"/>
      <use transform="translate(63.476562 -16.390625)scale(0.7)" xlink:href="#DejaVuSans-Oblique-6d"/>
      <use transform="translate(131.665039 -16.390625)scale(0.7)" xlink:href="#DejaVuSans-Oblique-58"/>
      <use transform="translate(179.619141 -16.390625)scale(0.7)" xlink:href="#DejaVuSans-31"/>
      <use transform="translate(226.889648 0.015625)" xlink:href="#DejaVuSans-20"/>
      <use transform="translate(258.676758 0.015625)" xlink:href="#DejaVuSans-5b"/>
      <use transform="translate(297.69043 0.015625)" xlink:href="#DejaVuSans-75"/>
      <use transform="translate(361.069336 0.015625)" xlink:href="#DejaVuSans-53"/>
      <use transform="translate(424.545898 0.015625)" xlink:href="#DejaVuSans-5d"/>
     </g>
    </g>
   </g>
   <g id="line2d_33">
    <path clip-path="url(#p4c0ca1affa)" d="M 81.011364 296.359091 
L 81.011364 296.359091 
L 81.011364 296.359091 
L 81.011364 296.359091 
L 81.011364 296.359091 
L 81.011364 296.359091 
L 81.011364 296.359091 
L 81.011364 296.359091 
L 81.011364 296.359091 
L 81.011364 296.359091 
L 81.011364 296.359091 
L 81.011364 296.359091 
L 81.011364 296.359091 
L 81.011364 296.359091 
L 81.011364 296.359091 
L 81.011364 296.359091 
L 81.011364 296.359091 
L 81.011364 296.359091 
L 81.011364 296.359091 
L 81.011364 296.359091 
L 81.011364 296.359091 
L 81.011364 296.359091 
L 81.011364 296.359091 
L 81.011364 296.359091 
L 81.011364 296.359091 
L 81.011364 296.359091 
L 81.011364 296.359091 
L 81.011364 296.359091 
L 81.011364 296.359091 
L 81.011364 296.359091 
L 81.011364 296.359091 
L 81.011364 296.359091 
L 81.011364 296.359091 
L 81.011364 296.359091 
L 81.011364 296.359091 
L 81.011364 296.359091 
L 81.011364 296.359091 
L 81.011364 296.359091 
L 81.011364 296.359091 
L 81.011364 296.359091 
L 81.011364 296.359091 
L 81.011364 296.359091 
L 81.011364 296.359091 
L 81.011364 296.359091 
L 81.011364 296.359091 
L 81.011364 296.359091 
L 81.011364 296.359091 
L 81.011364 296.359091 
L 81.011364 296.359091 
L 81.011364 296.359091 
" style="fill:none;stroke:#ff0000;stroke-linecap:square;stroke-width:2;"/>
   </g>
   <g id="line2d_34">
    <path clip-path="url(#p4c0ca1affa)" d="M 81.011422 296.357819 
L 81.01153 296.355464 
L 81.011837 296.348788 
L 81.012704 296.329991 
L 81.015127 296.277696 
L 81.021794 296.135121 
L 81.039672 295.759292 
L 81.085727 294.821767 
L 81.197558 292.676967 
L 81.447848 288.347566 
L 81.953472 280.890196 
L 82.863483 270.042842 
L 84.32167 256.482731 
L 86.424994 241.467672 
L 89.203537 226.40009 
L 92.623494 212.673839 
L 96.597179 201.686659 
L 100.990881 194.677214 
L 105.637376 192.255425 
L 110.362799 194.092607 
L 115.021032 199.171651 
L 119.515575 206.280135 
L 123.799351 214.35137 
L 127.860581 222.596146 
L 131.706946 230.505204 
L 135.354232 237.795021 
L 138.820017 244.341096 
L 142.120818 250.119842 
L 145.271154 255.165534 
L 148.283474 259.541487 
L 151.16841 263.322199 
L 153.935109 266.583054 
L 156.591534 269.394897 
L 159.144709 271.821561 
L 161.600906 273.919102 
L 163.965784 275.735945 
L 166.244493 277.313502 
L 168.441756 278.686957 
L 170.561923 279.886091 
L 172.609019 280.936069 
L 174.586783 281.858141 
L 176.498691 282.67026 
L 178.34799 283.387613 
L 180.137709 284.023064 
L 181.870687 284.587536 
L 183.549581 285.09032 
L 185.176886 285.539343 
L 186.754945 285.941381 
L 188.28596 286.302246 
L 189.772004 286.626931 
" style="fill:none;stroke:#0000ff;stroke-linecap:square;stroke-width:2;"/>
   </g>
   <g id="line2d_35">
    <path clip-path="url(#p4c0ca1affa)" d="M 81.011424 296.357784 
L 81.011535 296.355365 
L 81.01185 296.348505 
L 81.012741 296.329191 
L 81.01523 296.275459 
L 81.022081 296.12896 
L 81.040451 295.742773 
L 81.087778 294.779337 
L 81.202707 292.574938 
L 81.459971 288.123891 
L 81.979848 280.451883 
L 82.916068 269.274773 
L 84.418033 255.247647 
L 86.589763 239.558413 
L 89.472982 223.400715 
L 93.057397 207.694001 
L 97.302041 193.025003 
L 102.153653 179.698149 
L 107.55766 167.820913 
L 113.462901 157.390809 
L 119.822251 148.379972 
L 126.590229 140.832264 
L 133.71747 134.986745 
L 141.141565 131.383666 
L 148.776338 130.786241 
L 156.507376 133.781204 
L 164.203675 140.329286 
L 171.744058 149.723452 
L 179.041478 160.919422 
L 186.050377 172.887214 
L 192.75858 184.808393 
L 199.174033 196.130041 
L 205.313885 206.536417 
L 211.197851 215.889829 
L 216.844999 224.17078 
L 222.272539 231.429933 
L 227.495611 237.754177 
L 232.527465 243.244748 
L 237.379765 248.004191 
L 242.062877 252.12926 
L 246.586118 255.707566 
L 250.957943 258.816438 
L 255.186092 261.523029 
L 259.277704 263.885047 
L 263.239395 265.951764 
L 267.077323 267.765083 
L 270.797242 269.360574 
L 274.404538 270.76841 
L 277.904268 272.014197 
L 281.301181 273.119686 
" style="fill:none;stroke:#008000;stroke-linecap:square;stroke-width:2;"/>
   </g>
   <g id="line2d_36">
    <path clip-path="url(#p4c0ca1affa)" d="M 81.011425 296.357749 
L 81.011539 296.355267 
L 81.011863 296.348227 
L 81.012777 296.328404 
L 81.015332 296.273258 
L 81.022363 296.122904 
L 81.041217 295.726554 
L 81.089789 294.737764 
L 81.207742 292.475354 
L 81.471777 287.907172 
L 82.005335 280.033263 
L 82.966193 268.562002 
L 84.507686 254.165692 
L 86.736572 238.063445 
L 89.695681 221.480148 
L 93.374469 205.35897 
L 97.73094 190.300731 
L 102.710575 176.614079 
L 108.25775 164.398798 
L 114.320994 153.623857 
L 120.854644 144.18661 
L 127.818794 135.95242 
L 135.178613 128.778838 
L 142.903539 122.529294 
L 150.966508 117.080672 
L 159.343266 112.328702 
L 168.011635 108.195921 
L 176.950513 104.650083 
L 186.138034 101.746168 
L 195.547956 99.704942 
L 205.143132 99.007456 
L 214.866413 100.391815 
L 224.633803 104.595523 
L 234.339066 111.928606 
L 243.87367 122.056735 
L 253.151285 134.164266 
L 262.120781 147.282607 
L 270.763561 160.54877 
L 279.082812 173.324932 
L 287.092892 185.21123 
L 294.81219 196.004582 
L 302.259341 205.642489 
L 309.451636 214.151951 
L 316.404562 221.610488 
L 323.131864 228.119425 
L 329.645779 233.787046 
L 335.957285 238.718808 
L 342.076338 243.012227 
L 348.012047 246.754661 
L 353.772818 250.022815 
" style="fill:none;stroke:#00bfbf;stroke-linecap:square;stroke-width:2;"/>
   </g>
   <g id="line2d_37">
    <path clip-path="url(#p4c0ca1affa)" d="M 81.011427 296.357715 
L 81.011544 296.355169 
L 81.011876 296.347948 
L 81.012813 296.327617 
L 81.015434 296.271057 
L 81.022645 296.116848 
L 81.041982 295.710335 
L 81.0918 294.696192 
L 81.212777 292.375771 
L 81.483582 287.690457 
L 82.030822 279.614652 
L 83.016316 267.849256 
L 84.597335 253.08381 
L 86.883372 236.568685 
L 89.918356 219.560175 
L 93.691471 203.025633 
L 98.159647 187.581284 
L 103.266966 173.543688 
L 108.956376 161.015183 
L 115.175089 149.963928 
L 121.876272 140.284604 
L 129.018999 131.839007 
L 136.567559 124.480704 
L 144.490635 118.06869 
L 152.760556 112.474056 
L 161.352679 107.582532 
L 170.244895 103.294727 
L 179.417244 99.525214 
L 188.851608 96.201124 
L 198.531467 93.260651 
L 208.441695 90.651784 
L 218.568377 88.331637 
L 228.898617 86.267257 
L 239.420267 84.439999 
L 250.121418 82.858414 
L 260.989306 81.58938 
L 272.007894 80.820003 
L 283.153114 80.945485 
L 294.385296 82.613062 
L 305.641386 86.58324 
L 316.83437 93.380285 
L 327.866601 102.983391 
L 338.652235 114.822688 
L 349.13403 128.029883 
L 359.285838 141.721597 
L 369.104769 155.177693 
L 378.601162 167.901712 
L 387.791 179.605817 
L 396.691539 190.164024 
L 405.319273 199.561181 
" style="fill:none;stroke:#bf00bf;stroke-linecap:square;stroke-width:2;"/>
   </g>
   <g id="line2d_38">
    <path clip-path="url(#p4c0ca1affa)" d="M 81.011428 296.357681 
L 81.011548 296.355071 
L 81.011888 296.347669 
L 81.012849 296.32683 
L 81.015536 296.268856 
L 81.022927 296.110792 
L 81.042748 295.694116 
L 81.093811 294.654619 
L 81.217813 292.276188 
L 81.495388 287.473741 
L 82.056308 279.196041 
L 83.06644 267.13651 
L 84.686984 252.001928 
L 87.030172 235.073925 
L 90.141031 217.640202 
L 94.008474 200.692296 
L 98.588354 184.861838 
L 103.823356 170.473303 
L 109.655001 157.631585 
L 116.029182 146.304048 
L 122.897895 136.382742 
L 130.21919 127.726005 
L 137.956464 120.183744 
L 146.077617 113.611428 
L 154.554286 107.876925 
L 163.361212 102.863105 
L 172.475735 98.468082 
L 181.877394 94.604265 
L 191.547623 91.196883 
L 201.469495 88.182357 
L 211.627524 85.506727 
L 222.007502 83.124207 
L 232.596354 80.995923 
L 243.382025 79.088821 
L 254.353379 77.374751 
L 265.500106 75.829707 
L 276.812645 74.433241 
L 288.282114 73.1681 
L 299.90023 72.020285 
L 311.659223 70.980098 
L 323.551688 70.045653 
L 335.570271 69.232431 
L 347.706966 68.596343 
L 359.951463 68.28154 
L 372.287696 68.596586 
L 384.68777 70.080035 
L 397.104299 73.447386 
L 409.466498 79.336665 
L 421.687524 87.978876 
L 433.683305 99.059071 
" style="fill:none;stroke:#bfbf00;stroke-linecap:square;stroke-width:2;"/>
   </g>
   <g id="line2d_39">
    <path clip-path="url(#p4c0ca1affa)" d="M 81.01143 296.357646 
L 81.011553 296.354973 
L 81.011901 296.347391 
L 81.012885 296.326044 
L 81.015637 296.266655 
L 81.023209 296.104736 
L 81.043513 295.677897 
L 81.095822 294.613047 
L 81.222848 292.176605 
L 81.507193 287.257025 
L 82.081794 278.77743 
L 83.116564 266.423764 
L 84.776633 250.920046 
L 87.176973 233.579165 
L 90.363706 215.720229 
L 94.325477 198.35896 
L 99.017061 182.142393 
L 104.379746 167.402918 
L 110.353626 154.247988 
L 116.883275 142.644169 
L 123.919518 132.48088 
L 131.419381 123.613003 
L 139.345369 115.886785 
L 147.664598 109.154168 
L 156.348016 103.279799 
L 165.369745 98.143691 
L 174.706573 93.641472 
L 184.337541 89.683416 
L 194.243629 86.192927 
L 204.407498 83.104876 
L 214.813284 80.363985 
L 225.446432 77.923353 
L 236.293549 75.743154 
L 247.342286 73.789521 
L 258.581235 72.033599 
L 269.999837 70.45074 
L 281.588302 69.01984 
L 293.337542 67.722774 
L 305.239107 66.543935 
L 317.285128 65.469844 
L 329.468271 64.488827 
L 341.781688 63.590749 
L 354.218982 62.766808 
L 366.774163 62.009385 
L 379.44162 61.312012 
L 392.216074 60.669601 
L 405.092536 60.07932 
L 418.066214 59.543184 
L 431.132317 59.074957 
L 444.285587 58.716994 
" style="fill:none;stroke:#000000;stroke-linecap:square;stroke-width:2;"/>
   </g>
   <g id="line2d_40">
    <path clip-path="url(#p4c0ca1affa)" d="M 81.011431 296.357612 
L 81.011557 296.354875 
L 81.011914 296.347112 
L 81.012922 296.325257 
L 81.015739 296.264454 
L 81.023491 296.09868 
L 81.044279 295.661678 
L 81.097833 294.571474 
L 81.227883 292.077022 
L 81.518999 287.040309 
L 82.107281 278.358819 
L 83.166688 265.711019 
L 84.866283 249.838164 
L 87.323773 232.084405 
L 90.586381 213.800256 
L 94.642479 196.025624 
L 99.445769 179.422948 
L 104.936136 164.332533 
L 111.052252 150.86439 
L 117.737368 138.98429 
L 124.94114 128.579017 
L 132.619572 119.500001 
L 140.734274 111.589825 
L 149.25158 104.696908 
L 158.141746 98.682673 
L 167.378278 93.424277 
L 176.937411 88.814862 
L 186.797688 84.762567 
L 196.939636 81.18897 
L 207.345501 78.027394 
L 217.999044 75.221245 
L 228.885362 72.722502 
L 239.990744 70.490393 
L 251.302546 68.490246 
L 262.809089 66.692515 
L 274.499562 65.07197 
L 286.363943 63.607 
L 298.392928 62.279051 
L 310.577863 61.072144 
L 322.910694 59.972475 
L 335.383912 58.968089 
L 347.990507 58.048597 
L 360.723929 57.204948 
L 373.578049 56.429231 
L 386.54713 55.714516 
L 399.625788 55.054711 
L 412.808975 54.444453 
L 426.091944 53.879002 
L 439.470234 53.35417 
L 452.939644 52.866256 
" style="fill:none;stroke:#ff0000;stroke-linecap:square;stroke-width:2;"/>
   </g>
   <g id="line2d_41">
    <path clip-path="url(#p4c0ca1affa)" d="M 81.011433 296.357577 
L 81.011562 296.354776 
L 81.011927 296.346834 
L 81.012958 296.32447 
L 81.015841 296.262253 
L 81.023773 296.092624 
L 81.045044 295.64546 
L 81.099844 294.529902 
L 81.232919 291.977439 
L 81.530804 286.823593 
L 82.132767 277.940208 
L 83.216812 264.998273 
L 84.955932 248.756282 
L 87.470573 230.589645 
L 90.809055 211.880283 
L 94.959482 193.692287 
L 99.874476 176.703503 
L 105.492526 161.262148 
L 111.750877 147.480792 
L 118.591462 135.324411 
L 125.962763 124.677155 
L 133.819763 115.386999 
L 142.123179 107.292865 
L 150.838562 100.239648 
L 159.935475 94.085547 
L 169.386811 88.704862 
L 179.168249 83.988252 
L 189.257835 79.841717 
L 199.635642 76.185014 
L 210.283504 72.949913 
L 221.184804 70.078504 
L 232.324293 67.521651 
L 243.687939 65.237633 
L 255.262806 63.19097 
L 267.036943 61.351432 
L 278.999288 59.693199 
L 291.139585 58.194161 
L 303.448313 56.83533 
L 315.916619 55.600354 
L 328.53626 54.475112 
L 341.299553 53.447368 
L 354.199324 52.506493 
L 367.228872 51.643224 
L 380.381926 50.849467 
L 393.652613 50.11813 
L 407.035426 49.44298 
L 420.525198 48.818527 
L 434.117074 48.239918 
L 447.806488 47.702859 
L 461.589141 47.203535 
" style="fill:none;stroke:#0000ff;stroke-linecap:square;stroke-width:2;"/>
   </g>
   <g id="line2d_42">
    <path clip-path="url(#p4c0ca1affa)" d="M 81.011435 296.357543 
L 81.011566 296.354678 
L 81.01194 296.346555 
L 81.012994 296.323683 
L 81.015943 296.260053 
L 81.024055 296.086568 
L 81.04581 295.629241 
L 81.101855 294.488329 
L 81.237954 291.877856 
L 81.54261 286.606877 
L 82.158254 277.521598 
L 83.266935 264.285527 
L 85.045581 247.6744 
L 87.617373 229.094884 
L 91.03173 209.960311 
L 95.276485 191.358951 
L 100.303183 173.984058 
L 106.048916 158.191763 
L 112.449502 144.097195 
L 119.445555 131.664532 
L 126.984386 120.775293 
L 135.019954 111.273996 
L 143.512083 102.995906 
L 152.425544 95.782388 
L 161.729205 89.488421 
L 171.395344 83.985448 
L 181.399088 79.161642 
L 191.717982 74.920868 
L 202.331648 71.181058 
L 213.221508 67.872432 
L 224.370565 64.935764 
L 235.763223 62.3208 
L 247.385133 59.984873 
L 259.223066 57.891695 
L 271.264797 56.010349 
L 283.499013 54.314429 
L 295.915226 52.781321 
L 308.503698 51.391608 
L 321.255375 50.128565 
L 334.161826 48.977749 
L 347.215193 47.926647 
L 360.408141 46.964388 
L 373.733815 46.081499 
L 387.185802 45.269703 
L 400.758096 44.521744 
L 414.445064 43.83125 
L 428.241422 43.192605 
L 442.142204 42.600846 
L 456.14274 42.051581 
L 470.238636 41.540909 
" style="fill:none;stroke:#008000;stroke-linecap:square;stroke-width:2;"/>
   </g>
   <g id="patch_3">
    <path d="M 61.55 309.1 
L 61.55 28.8 
" style="fill:none;stroke:#000000;stroke-linecap:square;stroke-linejoin:miter;stroke-width:0.8;"/>
   </g>
   <g id="patch_4">
    <path d="M 489.7 309.1 
L 489.7 28.8 
" style="fill:none;stroke:#000000;stroke-linecap:square;stroke-linejoin:miter;stroke-width:0.8;"/>
   </g>
   <g id="patch_5">
    <path d="M 61.55 309.1 
L 489.7 309.1 
" style="fill:none;stroke:#000000;stroke-linecap:square;stroke-linejoin:miter;stroke-width:0.8;"/>
   </g>
   <g id="patch_6">
    <path d="M 61.55 28.8 
L 489.7 28.8 
" style="fill:none;stroke:#000000;stroke-linecap:square;stroke-linejoin:miter;stroke-width:0.8;"/>
   </g>
   <g id="text_19">
    <!-- $g_{m}(I_{ds})$ -->
    <defs>
     <path d="M 31 75.875 
Q 24.46875 64.65625 21.28125 53.65625 
Q 18.109375 42.671875 18.109375 31.390625 
Q 18.109375 20.125 21.3125 9.0625 
Q 24.515625 -2 31 -13.1875 
L 23.1875 -13.1875 
Q 15.875 -1.703125 12.234375 9.375 
Q 8.59375 20.453125 8.59375 31.390625 
Q 8.59375 42.28125 12.203125 53.3125 
Q 15.828125 64.359375 23.1875 75.875 
z
" id="DejaVuSans-28"/>
     <path d="M 41.796875 8.203125 
Q 38.1875 3.46875 33.25 1.015625 
Q 28.328125 -1.421875 22.3125 -1.421875 
Q 14.109375 -1.421875 9.34375 4.171875 
Q 4.59375 9.765625 4.59375 19.484375 
Q 4.59375 27.59375 7.46875 34.9375 
Q 10.359375 42.28125 15.828125 48.09375 
Q 19.4375 51.953125 23.96875 53.96875 
Q 28.515625 56 33.5 56 
Q 38.765625 56 42.796875 53.453125 
Q 46.828125 50.921875 49.03125 46.1875 
L 54.890625 75.984375 
L 63.921875 75.984375 
L 49.125 0 
L 40.09375 0 
z
M 13.921875 21.09375 
Q 13.921875 14.015625 17.109375 10.0625 
Q 20.3125 6.109375 25.984375 6.109375 
Q 30.171875 6.109375 33.765625 8.125 
Q 37.359375 10.15625 40.09375 14.109375 
Q 42.96875 18.21875 44.625 23.578125 
Q 46.296875 28.953125 46.296875 34.1875 
Q 46.296875 40.96875 43.09375 44.765625 
Q 39.890625 48.578125 34.28125 48.578125 
Q 30.03125 48.578125 26.359375 46.578125 
Q 22.703125 44.578125 20.125 40.828125 
Q 17.28125 36.765625 15.59375 31.390625 
Q 13.921875 26.03125 13.921875 21.09375 
z
" id="DejaVuSans-Oblique-64"/>
     <path d="M 50 53.078125 
L 48.296875 44.578125 
Q 44.734375 46.53125 40.765625 47.5 
Q 36.8125 48.484375 32.625 48.484375 
Q 25.53125 48.484375 21.453125 46.0625 
Q 17.390625 43.65625 17.390625 39.5 
Q 17.390625 34.671875 26.859375 32.078125 
Q 27.59375 31.890625 27.9375 31.78125 
L 30.8125 30.90625 
Q 39.796875 28.421875 42.796875 25.6875 
Q 45.796875 22.953125 45.796875 18.21875 
Q 45.796875 9.515625 38.890625 4.046875 
Q 31.984375 -1.421875 20.796875 -1.421875 
Q 16.453125 -1.421875 11.671875 -0.578125 
Q 6.890625 0.25 1.125 2 
L 2.875 11.28125 
Q 7.8125 8.734375 12.59375 7.421875 
Q 17.390625 6.109375 21.78125 6.109375 
Q 28.375 6.109375 32.5 8.9375 
Q 36.625 11.765625 36.625 16.109375 
Q 36.625 20.796875 25.78125 23.6875 
L 24.859375 23.921875 
L 21.78125 24.703125 
Q 14.9375 26.515625 11.765625 29.46875 
Q 8.59375 32.421875 8.59375 37.015625 
Q 8.59375 45.75 15.15625 50.875 
Q 21.734375 56 33.015625 56 
Q 37.453125 56 41.671875 55.265625 
Q 45.90625 54.546875 50 53.078125 
z
" id="DejaVuSans-Oblique-73"/>
     <path d="M 8.015625 75.875 
L 15.828125 75.875 
Q 23.140625 64.359375 26.78125 53.3125 
Q 30.421875 42.28125 30.421875 31.390625 
Q 30.421875 20.453125 26.78125 9.375 
Q 23.140625 -1.703125 15.828125 -13.1875 
L 8.015625 -13.1875 
Q 14.5 -2 17.703125 9.0625 
Q 20.90625 20.125 20.90625 31.390625 
Q 20.90625 42.671875 17.703125 53.65625 
Q 14.5 64.65625 8.015625 75.875 
z
" id="DejaVuSans-29"/>
    </defs>
    <g transform="translate(256.065 22.8)scale(0.12 -0.12)">
     <use transform="translate(0 0.125)" xlink:href="#DejaVuSans-Oblique-67"/>
     <use transform="translate(63.476562 -16.28125)scale(0.7)" xlink:href="#DejaVuSans-Oblique-6d"/>
     <use transform="translate(134.399414 0.125)" xlink:href="#DejaVuSans-28"/>
     <use transform="translate(173.413086 0.125)" xlink:href="#DejaVuSans-Oblique-49"/>
     <use transform="translate(202.905273 -16.28125)scale(0.7)" xlink:href="#DejaVuSans-Oblique-64"/>
     <use transform="translate(247.338867 -16.28125)scale(0.7)" xlink:href="#DejaVuSans-Oblique-73"/>
     <use transform="translate(286.542969 0.125)" xlink:href="#DejaVuSans-29"/>
    </g>
   </g>
   <g id="legend_1">
    <g id="patch_7">
     <path d="M 405.06 304.1 
L 482.7 304.1 
Q 484.7 304.1 484.7 302.1 
L 484.7 185.9625 
Q 484.7 183.9625 482.7 183.9625 
L 405.06 183.9625 
Q 403.06 183.9625 403.06 185.9625 
L 403.06 302.1 
Q 403.06 304.1 405.06 304.1 
z
" style="fill:#ffffff;opacity:0.8;stroke:#cccccc;stroke-linejoin:miter;"/>
    </g>
    <g id="line2d_43">
     <path d="M 405.06 191.580625 
L 415.06 191.580625 
" style="fill:none;stroke:#ff0000;stroke-linecap:square;stroke-width:2;"/>
    </g>
    <g id="line2d_44"/>
    <g id="text_20">
     <!-- $V_{D}$=0.0 [V] -->
     <defs>
      <path d="M 20.609375 0 
L 7.8125 72.90625 
L 17.484375 72.90625 
L 28.078125 10.203125 
L 63.484375 72.90625 
L 74.21875 72.90625 
L 32.078125 0 
z
" id="DejaVuSans-Oblique-56"/>
      <path d="M 10.59375 45.40625 
L 73.1875 45.40625 
L 73.1875 37.203125 
L 10.59375 37.203125 
z
M 10.59375 25.484375 
L 73.1875 25.484375 
L 73.1875 17.1875 
L 10.59375 17.1875 
z
" id="DejaVuSans-3d"/>
      <path d="M 10.6875 12.40625 
L 21 12.40625 
L 21 0 
L 10.6875 0 
z
" id="DejaVuSans-2e"/>
      <path d="M 28.609375 0 
L 0.78125 72.90625 
L 11.078125 72.90625 
L 34.1875 11.53125 
L 57.328125 72.90625 
L 67.578125 72.90625 
L 39.796875 0 
z
" id="DejaVuSans-56"/>
     </defs>
     <g transform="translate(417.06 195.080625)scale(0.12 -0.12)">
      <use transform="translate(0 0.015625)" xlink:href="#DejaVuSans-Oblique-56"/>
      <use transform="translate(68.408203 -16.390625)scale(0.7)" xlink:href="#DejaVuSans-Oblique-44"/>
      <use transform="translate(125.043945 0.015625)" xlink:href="#DejaVuSans-3d"/>
      <use transform="translate(208.833008 0.015625)" xlink:href="#DejaVuSans-30"/>
      <use transform="translate(272.456055 0.015625)" xlink:href="#DejaVuSans-2e"/>
      <use transform="translate(304.243164 0.015625)" xlink:href="#DejaVuSans-30"/>
      <use transform="translate(367.866211 0.015625)" xlink:href="#DejaVuSans-20"/>
      <use transform="translate(399.65332 0.015625)" xlink:href="#DejaVuSans-5b"/>
      <use transform="translate(438.666992 0.015625)" xlink:href="#DejaVuSans-56"/>
      <use transform="translate(507.075195 0.015625)" xlink:href="#DejaVuSans-5d"/>
     </g>
    </g>
    <g id="line2d_45">
     <path d="M 405.06 203.194375 
L 415.06 203.194375 
" style="fill:none;stroke:#0000ff;stroke-linecap:square;stroke-width:2;"/>
    </g>
    <g id="line2d_46"/>
    <g id="text_21">
     <!-- $V_{D}$=0.2 [V] -->
     <g transform="translate(417.06 206.694375)scale(0.12 -0.12)">
      <use transform="translate(0 0.015625)" xlink:href="#DejaVuSans-Oblique-56"/>
      <use transform="translate(68.408203 -16.390625)scale(0.7)" xlink:href="#DejaVuSans-Oblique-44"/>
      <use transform="translate(125.043945 0.015625)" xlink:href="#DejaVuSans-3d"/>
      <use transform="translate(208.833008 0.015625)" xlink:href="#DejaVuSans-30"/>
      <use transform="translate(272.456055 0.015625)" xlink:href="#DejaVuSans-2e"/>
      <use transform="translate(304.165039 0.015625)" xlink:href="#DejaVuSans-32"/>
      <use transform="translate(367.788086 0.015625)" xlink:href="#DejaVuSans-20"/>
      <use transform="translate(399.575195 0.015625)" xlink:href="#DejaVuSans-5b"/>
      <use transform="translate(438.588867 0.015625)" xlink:href="#DejaVuSans-56"/>
      <use transform="translate(506.99707 0.015625)" xlink:href="#DejaVuSans-5d"/>
     </g>
    </g>
    <g id="line2d_47">
     <path d="M 405.06 214.808125 
L 415.06 214.808125 
" style="fill:none;stroke:#008000;stroke-linecap:square;stroke-width:2;"/>
    </g>
    <g id="line2d_48"/>
    <g id="text_22">
     <!-- $V_{D}$=0.4 [V] -->
     <g transform="translate(417.06 218.308125)scale(0.12 -0.12)">
      <use transform="translate(0 0.015625)" xlink:href="#DejaVuSans-Oblique-56"/>
      <use transform="translate(68.408203 -16.390625)scale(0.7)" xlink:href="#DejaVuSans-Oblique-44"/>
      <use transform="translate(125.043945 0.015625)" xlink:href="#DejaVuSans-3d"/>
      <use transform="translate(208.833008 0.015625)" xlink:href="#DejaVuSans-30"/>
      <use transform="translate(272.456055 0.015625)" xlink:href="#DejaVuSans-2e"/>
      <use transform="translate(304.243164 0.015625)" xlink:href="#DejaVuSans-34"/>
      <use transform="translate(367.866211 0.015625)" xlink:href="#DejaVuSans-20"/>
      <use transform="translate(399.65332 0.015625)" xlink:href="#DejaVuSans-5b"/>
      <use transform="translate(438.666992 0.015625)" xlink:href="#DejaVuSans-56"/>
      <use transform="translate(507.075195 0.015625)" xlink:href="#DejaVuSans-5d"/>
     </g>
    </g>
    <g id="line2d_49">
     <path d="M 405.06 226.421875 
L 415.06 226.421875 
" style="fill:none;stroke:#00bfbf;stroke-linecap:square;stroke-width:2;"/>
    </g>
    <g id="line2d_50"/>
    <g id="text_23">
     <!-- $V_{D}$=0.6 [V] -->
     <g transform="translate(417.06 229.921875)scale(0.12 -0.12)">
      <use transform="translate(0 0.015625)" xlink:href="#DejaVuSans-Oblique-56"/>
      <use transform="translate(68.408203 -16.390625)scale(0.7)" xlink:href="#DejaVuSans-Oblique-44"/>
      <use transform="translate(125.043945 0.015625)" xlink:href="#DejaVuSans-3d"/>
      <use transform="translate(208.833008 0.015625)" xlink:href="#DejaVuSans-30"/>
      <use transform="translate(272.456055 0.015625)" xlink:href="#DejaVuSans-2e"/>
      <use transform="translate(304.243164 0.015625)" xlink:href="#DejaVuSans-36"/>
      <use transform="translate(367.866211 0.015625)" xlink:href="#DejaVuSans-20"/>
      <use transform="translate(399.65332 0.015625)" xlink:href="#DejaVuSans-5b"/>
      <use transform="translate(438.666992 0.015625)" xlink:href="#DejaVuSans-56"/>
      <use transform="translate(507.075195 0.015625)" xlink:href="#DejaVuSans-5d"/>
     </g>
    </g>
    <g id="line2d_51">
     <path d="M 405.06 238.035625 
L 415.06 238.035625 
" style="fill:none;stroke:#bf00bf;stroke-linecap:square;stroke-width:2;"/>
    </g>
    <g id="line2d_52"/>
    <g id="text_24">
     <!-- $V_{D}$=0.8 [V] -->
     <g transform="translate(417.06 241.535625)scale(0.12 -0.12)">
      <use transform="translate(0 0.015625)" xlink:href="#DejaVuSans-Oblique-56"/>
      <use transform="translate(68.408203 -16.390625)scale(0.7)" xlink:href="#DejaVuSans-Oblique-44"/>
      <use transform="translate(125.043945 0.015625)" xlink:href="#DejaVuSans-3d"/>
      <use transform="translate(208.833008 0.015625)" xlink:href="#DejaVuSans-30"/>
      <use transform="translate(272.456055 0.015625)" xlink:href="#DejaVuSans-2e"/>
      <use transform="translate(304.211914 0.015625)" xlink:href="#DejaVuSans-38"/>
      <use transform="translate(367.834961 0.015625)" xlink:href="#DejaVuSans-20"/>
      <use transform="translate(399.62207 0.015625)" xlink:href="#DejaVuSans-5b"/>
      <use transform="translate(438.635742 0.015625)" xlink:href="#DejaVuSans-56"/>
      <use transform="translate(507.043945 0.015625)" xlink:href="#DejaVuSans-5d"/>
     </g>
    </g>
    <g id="line2d_53">
     <path d="M 405.06 249.649375 
L 415.06 249.649375 
" style="fill:none;stroke:#bfbf00;stroke-linecap:square;stroke-width:2;"/>
    </g>
    <g id="line2d_54"/>
    <g id="text_25">
     <!-- $V_{D}$=1.0 [V] -->
     <g transform="translate(417.06 253.149375)scale(0.12 -0.12)">
      <use transform="translate(0 0.015625)" xlink:href="#DejaVuSans-Oblique-56"/>
      <use transform="translate(68.408203 -16.390625)scale(0.7)" xlink:href="#DejaVuSans-Oblique-44"/>
      <use transform="translate(125.043945 0.015625)" xlink:href="#DejaVuSans-3d"/>
      <use transform="translate(208.833008 0.015625)" xlink:href="#DejaVuSans-31"/>
      <use transform="translate(272.456055 0.015625)" xlink:href="#DejaVuSans-2e"/>
      <use transform="translate(304.243164 0.015625)" xlink:href="#DejaVuSans-30"/>
      <use transform="translate(367.866211 0.015625)" xlink:href="#DejaVuSans-20"/>
      <use transform="translate(399.65332 0.015625)" xlink:href="#DejaVuSans-5b"/>
      <use transform="translate(438.666992 0.015625)" xlink:href="#DejaVuSans-56"/>
      <use transform="translate(507.075195 0.015625)" xlink:href="#DejaVuSans-5d"/>
     </g>
    </g>
    <g id="line2d_55">
     <path d="M 405.06 261.263125 
L 415.06 261.263125 
" style="fill:none;stroke:#000000;stroke-linecap:square;stroke-width:2;"/>
    </g>
    <g id="line2d_56"/>
    <g id="text_26">
     <!-- $V_{D}$=1.2 [V] -->
     <g transform="translate(417.06 264.763125)scale(0.12 -0.12)">
      <use transform="translate(0 0.015625)" xlink:href="#DejaVuSans-Oblique-56"/>
      <use transform="translate(68.408203 -16.390625)scale(0.7)" xlink:href="#DejaVuSans-Oblique-44"/>
      <use transform="translate(125.043945 0.015625)" xlink:href="#DejaVuSans-3d"/>
      <use transform="translate(208.833008 0.015625)" xlink:href="#DejaVuSans-31"/>
      <use transform="translate(272.456055 0.015625)" xlink:href="#DejaVuSans-2e"/>
      <use transform="translate(304.165039 0.015625)" xlink:href="#DejaVuSans-32"/>
      <use transform="translate(367.788086 0.015625)" xlink:href="#DejaVuSans-20"/>
      <use transform="translate(399.575195 0.015625)" xlink:href="#DejaVuSans-5b"/>
      <use transform="translate(438.588867 0.015625)" xlink:href="#DejaVuSans-56"/>
      <use transform="translate(506.99707 0.015625)" xlink:href="#DejaVuSans-5d"/>
     </g>
    </g>
    <g id="line2d_57">
     <path d="M 405.06 272.876875 
L 415.06 272.876875 
" style="fill:none;stroke:#ff0000;stroke-linecap:square;stroke-width:2;"/>
    </g>
    <g id="line2d_58"/>
    <g id="text_27">
     <!-- $V_{D}$=1.4 [V] -->
     <g transform="translate(417.06 276.376875)scale(0.12 -0.12)">
      <use transform="translate(0 0.015625)" xlink:href="#DejaVuSans-Oblique-56"/>
      <use transform="translate(68.408203 -16.390625)scale(0.7)" xlink:href="#DejaVuSans-Oblique-44"/>
      <use transform="translate(125.043945 0.015625)" xlink:href="#DejaVuSans-3d"/>
      <use transform="translate(208.833008 0.015625)" xlink:href="#DejaVuSans-31"/>
      <use transform="translate(272.456055 0.015625)" xlink:href="#DejaVuSans-2e"/>
      <use transform="translate(304.243164 0.015625)" xlink:href="#DejaVuSans-34"/>
      <use transform="translate(367.866211 0.015625)" xlink:href="#DejaVuSans-20"/>
      <use transform="translate(399.65332 0.015625)" xlink:href="#DejaVuSans-5b"/>
      <use transform="translate(438.666992 0.015625)" xlink:href="#DejaVuSans-56"/>
      <use transform="translate(507.075195 0.015625)" xlink:href="#DejaVuSans-5d"/>
     </g>
    </g>
    <g id="line2d_59">
     <path d="M 405.06 284.490625 
L 415.06 284.490625 
" style="fill:none;stroke:#0000ff;stroke-linecap:square;stroke-width:2;"/>
    </g>
    <g id="line2d_60"/>
    <g id="text_28">
     <!-- $V_{D}$=1.6 [V] -->
     <g transform="translate(417.06 287.990625)scale(0.12 -0.12)">
      <use transform="translate(0 0.015625)" xlink:href="#DejaVuSans-Oblique-56"/>
      <use transform="translate(68.408203 -16.390625)scale(0.7)" xlink:href="#DejaVuSans-Oblique-44"/>
      <use transform="translate(125.043945 0.015625)" xlink:href="#DejaVuSans-3d"/>
      <use transform="translate(208.833008 0.015625)" xlink:href="#DejaVuSans-31"/>
      <use transform="translate(272.456055 0.015625)" xlink:href="#DejaVuSans-2e"/>
      <use transform="translate(304.243164 0.015625)" xlink:href="#DejaVuSans-36"/>
      <use transform="translate(367.866211 0.015625)" xlink:href="#DejaVuSans-20"/>
      <use transform="translate(399.65332 0.015625)" xlink:href="#DejaVuSans-5b"/>
      <use transform="translate(438.666992 0.015625)" xlink:href="#DejaVuSans-56"/>
      <use transform="translate(507.075195 0.015625)" xlink:href="#DejaVuSans-5d"/>
     </g>
    </g>
    <g id="line2d_61">
     <path d="M 405.06 296.104375 
L 415.06 296.104375 
" style="fill:none;stroke:#008000;stroke-linecap:square;stroke-width:2;"/>
    </g>
    <g id="line2d_62"/>
    <g id="text_29">
     <!-- $V_{D}$=1.8 [V] -->
     <g transform="translate(417.06 299.604375)scale(0.12 -0.12)">
      <use transform="translate(0 0.015625)" xlink:href="#DejaVuSans-Oblique-56"/>
      <use transform="translate(68.408203 -16.390625)scale(0.7)" xlink:href="#DejaVuSans-Oblique-44"/>
      <use transform="translate(125.043945 0.015625)" xlink:href="#DejaVuSans-3d"/>
      <use transform="translate(208.833008 0.015625)" xlink:href="#DejaVuSans-31"/>
      <use transform="translate(272.456055 0.015625)" xlink:href="#DejaVuSans-2e"/>
      <use transform="translate(304.211914 0.015625)" xlink:href="#DejaVuSans-38"/>
      <use transform="translate(367.834961 0.015625)" xlink:href="#DejaVuSans-20"/>
      <use transform="translate(399.62207 0.015625)" xlink:href="#DejaVuSans-5b"/>
      <use transform="translate(438.635742 0.015625)" xlink:href="#DejaVuSans-56"/>
      <use transform="translate(507.043945 0.015625)" xlink:href="#DejaVuSans-5d"/>
     </g>
    </g>
   </g>
  </g>
 </g>
 <defs>
  <clipPath id="p4c0ca1affa">
   <rect height="280.3" width="428.15" x="61.55" y="28.8"/>
  </clipPath>
 </defs>
</svg>
