<?xml version="1.0" encoding="utf-8" standalone="no"?>
<!DOCTYPE svg PUBLIC "-//W3C//DTD SVG 1.1//EN"
  "http://www.w3.org/Graphics/SVG/1.1/DTD/svg11.dtd">
<!-- Created with matplotlib (http://matplotlib.org/) -->
<svg height="360pt" version="1.1" viewBox="0 0 504 360" width="504pt" xmlns="http://www.w3.org/2000/svg" xmlns:xlink="http://www.w3.org/1999/xlink">
 <defs>
  <style type="text/css">
*{stroke-linecap:butt;stroke-linejoin:round;}
  </style>
 </defs>
 <g id="figure_1">
  <g id="patch_1">
   <path d="M 0 360 
L 504 360 
L 504 0 
L 0 0 
z
" style="fill:#ffffff;"/>
  </g>
  <g id="axes_1">
   <g id="patch_2">
    <path d="M 60.65 309.1 
L 489.7 309.1 
L 489.7 28.8 
L 60.65 28.8 
z
" style="fill:#ffffff;"/>
   </g>
   <g id="matplotlib.axis_1">
    <g id="xtick_1">
     <g id="line2d_1">
      <path clip-path="url(#pe199247544)" d="M 80.152273 309.1 
L 80.152273 28.8 
" style="fill:none;stroke:#808080;stroke-linecap:square;stroke-width:0.8;"/>
     </g>
     <g id="line2d_2">
      <defs>
       <path d="M 0 0 
L 0 3.5 
" id="mb0b2509142" style="stroke:#000000;stroke-width:0.8;"/>
      </defs>
      <g>
       <use style="stroke:#000000;stroke-width:0.8;" x="80.152273" xlink:href="#mb0b2509142" y="309.1"/>
      </g>
     </g>
     <g id="text_1">
      <!-- 0.00 -->
      <defs>
       <path d="M 31.78125 66.40625 
Q 24.171875 66.40625 20.328125 58.90625 
Q 16.5 51.421875 16.5 36.375 
Q 16.5 21.390625 20.328125 13.890625 
Q 24.171875 6.390625 31.78125 6.390625 
Q 39.453125 6.390625 43.28125 13.890625 
Q 47.125 21.390625 47.125 36.375 
Q 47.125 51.421875 43.28125 58.90625 
Q 39.453125 66.40625 31.78125 66.40625 
z
M 31.78125 74.21875 
Q 44.046875 74.21875 50.515625 64.515625 
Q 56.984375 54.828125 56.984375 36.375 
Q 56.984375 17.96875 50.515625 8.265625 
Q 44.046875 -1.421875 31.78125 -1.421875 
Q 19.53125 -1.421875 13.0625 8.265625 
Q 6.59375 17.96875 6.59375 36.375 
Q 6.59375 54.828125 13.0625 64.515625 
Q 19.53125 74.21875 31.78125 74.21875 
z
" id="DejaVuSans-30"/>
       <path d="M 10.6875 12.40625 
L 21 12.40625 
L 21 0 
L 10.6875 0 
z
" id="DejaVuSans-2e"/>
      </defs>
      <g transform="translate(66.792898 325.218125)scale(0.12 -0.12)">
       <use xlink:href="#DejaVuSans-30"/>
       <use x="63.623047" xlink:href="#DejaVuSans-2e"/>
       <use x="95.410156" xlink:href="#DejaVuSans-30"/>
       <use x="159.033203" xlink:href="#DejaVuSans-30"/>
      </g>
     </g>
    </g>
    <g id="xtick_2">
     <g id="line2d_3">
      <path clip-path="url(#pe199247544)" d="M 134.325253 309.1 
L 134.325253 28.8 
" style="fill:none;stroke:#808080;stroke-linecap:square;stroke-width:0.8;"/>
     </g>
     <g id="line2d_4">
      <g>
       <use style="stroke:#000000;stroke-width:0.8;" x="134.325253" xlink:href="#mb0b2509142" y="309.1"/>
      </g>
     </g>
     <g id="text_2">
      <!-- 0.25 -->
      <defs>
       <path d="M 19.1875 8.296875 
L 53.609375 8.296875 
L 53.609375 0 
L 7.328125 0 
L 7.328125 8.296875 
Q 12.9375 14.109375 22.625 23.890625 
Q 32.328125 33.6875 34.8125 36.53125 
Q 39.546875 41.84375 41.421875 45.53125 
Q 43.3125 49.21875 43.3125 52.78125 
Q 43.3125 58.59375 39.234375 62.25 
Q 35.15625 65.921875 28.609375 65.921875 
Q 23.96875 65.921875 18.8125 64.3125 
Q 13.671875 62.703125 7.8125 59.421875 
L 7.8125 69.390625 
Q 13.765625 71.78125 18.9375 73 
Q 24.125 74.21875 28.421875 74.21875 
Q 39.75 74.21875 46.484375 68.546875 
Q 53.21875 62.890625 53.21875 53.421875 
Q 53.21875 48.921875 51.53125 44.890625 
Q 49.859375 40.875 45.40625 35.40625 
Q 44.1875 33.984375 37.640625 27.21875 
Q 31.109375 20.453125 19.1875 8.296875 
z
" id="DejaVuSans-32"/>
       <path d="M 10.796875 72.90625 
L 49.515625 72.90625 
L 49.515625 64.59375 
L 19.828125 64.59375 
L 19.828125 46.734375 
Q 21.96875 47.46875 24.109375 47.828125 
Q 26.265625 48.1875 28.421875 48.1875 
Q 40.625 48.1875 47.75 41.5 
Q 54.890625 34.8125 54.890625 23.390625 
Q 54.890625 11.625 47.5625 5.09375 
Q 40.234375 -1.421875 26.90625 -1.421875 
Q 22.3125 -1.421875 17.546875 -0.640625 
Q 12.796875 0.140625 7.71875 1.703125 
L 7.71875 11.625 
Q 12.109375 9.234375 16.796875 8.0625 
Q 21.484375 6.890625 26.703125 6.890625 
Q 35.15625 6.890625 40.078125 11.328125 
Q 45.015625 15.765625 45.015625 23.390625 
Q 45.015625 31 40.078125 35.4375 
Q 35.15625 39.890625 26.703125 39.890625 
Q 22.75 39.890625 18.8125 39.015625 
Q 14.890625 38.140625 10.796875 36.28125 
z
" id="DejaVuSans-35"/>
      </defs>
      <g transform="translate(120.965878 325.218125)scale(0.12 -0.12)">
       <use xlink:href="#DejaVuSans-30"/>
       <use x="63.623047" xlink:href="#DejaVuSans-2e"/>
       <use x="95.410156" xlink:href="#DejaVuSans-32"/>
       <use x="159.033203" xlink:href="#DejaVuSans-35"/>
      </g>
     </g>
    </g>
    <g id="xtick_3">
     <g id="line2d_5">
      <path clip-path="url(#pe199247544)" d="M 188.498232 309.1 
L 188.498232 28.8 
" style="fill:none;stroke:#808080;stroke-linecap:square;stroke-width:0.8;"/>
     </g>
     <g id="line2d_6">
      <g>
       <use style="stroke:#000000;stroke-width:0.8;" x="188.498232" xlink:href="#mb0b2509142" y="309.1"/>
      </g>
     </g>
     <g id="text_3">
      <!-- 0.50 -->
      <g transform="translate(175.138857 325.218125)scale(0.12 -0.12)">
       <use xlink:href="#DejaVuSans-30"/>
       <use x="63.623047" xlink:href="#DejaVuSans-2e"/>
       <use x="95.410156" xlink:href="#DejaVuSans-35"/>
       <use x="159.033203" xlink:href="#DejaVuSans-30"/>
      </g>
     </g>
    </g>
    <g id="xtick_4">
     <g id="line2d_7">
      <path clip-path="url(#pe199247544)" d="M 242.671212 309.1 
L 242.671212 28.8 
" style="fill:none;stroke:#808080;stroke-linecap:square;stroke-width:0.8;"/>
     </g>
     <g id="line2d_8">
      <g>
       <use style="stroke:#000000;stroke-width:0.8;" x="242.671212" xlink:href="#mb0b2509142" y="309.1"/>
      </g>
     </g>
     <g id="text_4">
      <!-- 0.75 -->
      <defs>
       <path d="M 8.203125 72.90625 
L 55.078125 72.90625 
L 55.078125 68.703125 
L 28.609375 0 
L 18.3125 0 
L 43.21875 64.59375 
L 8.203125 64.59375 
z
" id="DejaVuSans-37"/>
      </defs>
      <g transform="translate(229.311837 325.218125)scale(0.12 -0.12)">
       <use xlink:href="#DejaVuSans-30"/>
       <use x="63.623047" xlink:href="#DejaVuSans-2e"/>
       <use x="95.410156" xlink:href="#DejaVuSans-37"/>
       <use x="159.033203" xlink:href="#DejaVuSans-35"/>
      </g>
     </g>
    </g>
    <g id="xtick_5">
     <g id="line2d_9">
      <path clip-path="url(#pe199247544)" d="M 296.844192 309.1 
L 296.844192 28.8 
" style="fill:none;stroke:#808080;stroke-linecap:square;stroke-width:0.8;"/>
     </g>
     <g id="line2d_10">
      <g>
       <use style="stroke:#000000;stroke-width:0.8;" x="296.844192" xlink:href="#mb0b2509142" y="309.1"/>
      </g>
     </g>
     <g id="text_5">
      <!-- 1.00 -->
      <defs>
       <path d="M 12.40625 8.296875 
L 28.515625 8.296875 
L 28.515625 63.921875 
L 10.984375 60.40625 
L 10.984375 69.390625 
L 28.421875 72.90625 
L 38.28125 72.90625 
L 38.28125 8.296875 
L 54.390625 8.296875 
L 54.390625 0 
L 12.40625 0 
z
" id="DejaVuSans-31"/>
      </defs>
      <g transform="translate(283.484817 325.218125)scale(0.12 -0.12)">
       <use xlink:href="#DejaVuSans-31"/>
       <use x="63.623047" xlink:href="#DejaVuSans-2e"/>
       <use x="95.410156" xlink:href="#DejaVuSans-30"/>
       <use x="159.033203" xlink:href="#DejaVuSans-30"/>
      </g>
     </g>
    </g>
    <g id="xtick_6">
     <g id="line2d_11">
      <path clip-path="url(#pe199247544)" d="M 351.017172 309.1 
L 351.017172 28.8 
" style="fill:none;stroke:#808080;stroke-linecap:square;stroke-width:0.8;"/>
     </g>
     <g id="line2d_12">
      <g>
       <use style="stroke:#000000;stroke-width:0.8;" x="351.017172" xlink:href="#mb0b2509142" y="309.1"/>
      </g>
     </g>
     <g id="text_6">
      <!-- 1.25 -->
      <g transform="translate(337.657797 325.218125)scale(0.12 -0.12)">
       <use xlink:href="#DejaVuSans-31"/>
       <use x="63.623047" xlink:href="#DejaVuSans-2e"/>
       <use x="95.410156" xlink:href="#DejaVuSans-32"/>
       <use x="159.033203" xlink:href="#DejaVuSans-35"/>
      </g>
     </g>
    </g>
    <g id="xtick_7">
     <g id="line2d_13">
      <path clip-path="url(#pe199247544)" d="M 405.190152 309.1 
L 405.190152 28.8 
" style="fill:none;stroke:#808080;stroke-linecap:square;stroke-width:0.8;"/>
     </g>
     <g id="line2d_14">
      <g>
       <use style="stroke:#000000;stroke-width:0.8;" x="405.190152" xlink:href="#mb0b2509142" y="309.1"/>
      </g>
     </g>
     <g id="text_7">
      <!-- 1.50 -->
      <g transform="translate(391.830777 325.218125)scale(0.12 -0.12)">
       <use xlink:href="#DejaVuSans-31"/>
       <use x="63.623047" xlink:href="#DejaVuSans-2e"/>
       <use x="95.410156" xlink:href="#DejaVuSans-35"/>
       <use x="159.033203" xlink:href="#DejaVuSans-30"/>
      </g>
     </g>
    </g>
    <g id="xtick_8">
     <g id="line2d_15">
      <path clip-path="url(#pe199247544)" d="M 459.363131 309.1 
L 459.363131 28.8 
" style="fill:none;stroke:#808080;stroke-linecap:square;stroke-width:0.8;"/>
     </g>
     <g id="line2d_16">
      <g>
       <use style="stroke:#000000;stroke-width:0.8;" x="459.363131" xlink:href="#mb0b2509142" y="309.1"/>
      </g>
     </g>
     <g id="text_8">
      <!-- 1.75 -->
      <g transform="translate(446.003756 325.218125)scale(0.12 -0.12)">
       <use xlink:href="#DejaVuSans-31"/>
       <use x="63.623047" xlink:href="#DejaVuSans-2e"/>
       <use x="95.410156" xlink:href="#DejaVuSans-37"/>
       <use x="159.033203" xlink:href="#DejaVuSans-35"/>
      </g>
     </g>
    </g>
    <g id="text_9">
     <!-- $V_{D}$ [V] -->
     <defs>
      <path d="M 20.609375 0 
L 7.8125 72.90625 
L 17.484375 72.90625 
L 28.078125 10.203125 
L 63.484375 72.90625 
L 74.21875 72.90625 
L 32.078125 0 
z
" id="DejaVuSans-Oblique-56"/>
      <path d="M 16.890625 72.90625 
L 38.09375 72.90625 
Q 54.984375 72.90625 63.59375 65.75 
Q 72.21875 58.59375 72.21875 44.484375 
Q 72.21875 35.15625 68.9375 26.53125 
Q 65.671875 17.921875 59.90625 12.015625 
Q 54.109375 5.953125 45.171875 2.96875 
Q 36.234375 0 24.03125 0 
L 2.6875 0 
z
M 25.203125 64.796875 
L 14.203125 8.109375 
L 27.09375 8.109375 
Q 43.65625 8.109375 52.734375 17.625 
Q 61.8125 27.15625 61.8125 44.484375 
Q 61.8125 54.984375 55.953125 59.890625 
Q 50.09375 64.796875 37.59375 64.796875 
z
" id="DejaVuSans-Oblique-44"/>
      <path id="DejaVuSans-20"/>
      <path d="M 8.59375 75.984375 
L 29.296875 75.984375 
L 29.296875 69 
L 17.578125 69 
L 17.578125 -6.203125 
L 29.296875 -6.203125 
L 29.296875 -13.1875 
L 8.59375 -13.1875 
z
" id="DejaVuSans-5b"/>
      <path d="M 28.609375 0 
L 0.78125 72.90625 
L 11.078125 72.90625 
L 34.1875 11.53125 
L 57.328125 72.90625 
L 67.578125 72.90625 
L 39.796875 0 
z
" id="DejaVuSans-56"/>
      <path d="M 30.421875 75.984375 
L 30.421875 -13.1875 
L 9.71875 -13.1875 
L 9.71875 -6.203125 
L 21.390625 -6.203125 
L 21.390625 69 
L 9.71875 69 
L 9.71875 75.984375 
z
" id="DejaVuSans-5d"/>
     </defs>
     <g transform="translate(256.935 340.831875)scale(0.12 -0.12)">
      <use transform="translate(0 0.015625)" xlink:href="#DejaVuSans-Oblique-56"/>
      <use transform="translate(68.408203 -16.390625)scale(0.7)" xlink:href="#DejaVuSans-Oblique-44"/>
      <use transform="translate(125.043945 0.015625)" xlink:href="#DejaVuSans-20"/>
      <use transform="translate(156.831055 0.015625)" xlink:href="#DejaVuSans-5b"/>
      <use transform="translate(195.844727 0.015625)" xlink:href="#DejaVuSans-56"/>
      <use transform="translate(264.25293 0.015625)" xlink:href="#DejaVuSans-5d"/>
     </g>
    </g>
   </g>
   <g id="matplotlib.axis_2">
    <g id="ytick_1">
     <g id="line2d_17">
      <path clip-path="url(#pe199247544)" d="M 60.65 296.359091 
L 489.7 296.359091 
" style="fill:none;stroke:#808080;stroke-linecap:square;stroke-width:0.8;"/>
     </g>
     <g id="line2d_18">
      <defs>
       <path d="M 0 0 
L -3.5 0 
" id="m4e8634ee52" style="stroke:#000000;stroke-width:0.8;"/>
      </defs>
      <g>
       <use style="stroke:#000000;stroke-width:0.8;" x="60.65" xlink:href="#m4e8634ee52" y="296.359091"/>
      </g>
     </g>
     <g id="text_10">
      <!-- 0 -->
      <g transform="translate(46.015 300.918153)scale(0.12 -0.12)">
       <use xlink:href="#DejaVuSans-30"/>
      </g>
     </g>
    </g>
    <g id="ytick_2">
     <g id="line2d_19">
      <path clip-path="url(#pe199247544)" d="M 60.65 260.355792 
L 489.7 260.355792 
" style="fill:none;stroke:#808080;stroke-linecap:square;stroke-width:0.8;"/>
     </g>
     <g id="line2d_20">
      <g>
       <use style="stroke:#000000;stroke-width:0.8;" x="60.65" xlink:href="#m4e8634ee52" y="260.355792"/>
      </g>
     </g>
     <g id="text_11">
      <!-- 25 -->
      <g transform="translate(38.38 264.914855)scale(0.12 -0.12)">
       <use xlink:href="#DejaVuSans-32"/>
       <use x="63.623047" xlink:href="#DejaVuSans-35"/>
      </g>
     </g>
    </g>
    <g id="ytick_3">
     <g id="line2d_21">
      <path clip-path="url(#pe199247544)" d="M 60.65 224.352494 
L 489.7 224.352494 
" style="fill:none;stroke:#808080;stroke-linecap:square;stroke-width:0.8;"/>
     </g>
     <g id="line2d_22">
      <g>
       <use style="stroke:#000000;stroke-width:0.8;" x="60.65" xlink:href="#m4e8634ee52" y="224.352494"/>
      </g>
     </g>
     <g id="text_12">
      <!-- 50 -->
      <g transform="translate(38.38 228.911557)scale(0.12 -0.12)">
       <use xlink:href="#DejaVuSans-35"/>
       <use x="63.623047" xlink:href="#DejaVuSans-30"/>
      </g>
     </g>
    </g>
    <g id="ytick_4">
     <g id="line2d_23">
      <path clip-path="url(#pe199247544)" d="M 60.65 188.349196 
L 489.7 188.349196 
" style="fill:none;stroke:#808080;stroke-linecap:square;stroke-width:0.8;"/>
     </g>
     <g id="line2d_24">
      <g>
       <use style="stroke:#000000;stroke-width:0.8;" x="60.65" xlink:href="#m4e8634ee52" y="188.349196"/>
      </g>
     </g>
     <g id="text_13">
      <!-- 75 -->
      <g transform="translate(38.38 192.908258)scale(0.12 -0.12)">
       <use xlink:href="#DejaVuSans-37"/>
       <use x="63.623047" xlink:href="#DejaVuSans-35"/>
      </g>
     </g>
    </g>
    <g id="ytick_5">
     <g id="line2d_25">
      <path clip-path="url(#pe199247544)" d="M 60.65 152.345897 
L 489.7 152.345897 
" style="fill:none;stroke:#808080;stroke-linecap:square;stroke-width:0.8;"/>
     </g>
     <g id="line2d_26">
      <g>
       <use style="stroke:#000000;stroke-width:0.8;" x="60.65" xlink:href="#m4e8634ee52" y="152.345897"/>
      </g>
     </g>
     <g id="text_14">
      <!-- 100 -->
      <g transform="translate(30.745 156.90496)scale(0.12 -0.12)">
       <use xlink:href="#DejaVuSans-31"/>
       <use x="63.623047" xlink:href="#DejaVuSans-30"/>
       <use x="127.246094" xlink:href="#DejaVuSans-30"/>
      </g>
     </g>
    </g>
    <g id="ytick_6">
     <g id="line2d_27">
      <path clip-path="url(#pe199247544)" d="M 60.65 116.342599 
L 489.7 116.342599 
" style="fill:none;stroke:#808080;stroke-linecap:square;stroke-width:0.8;"/>
     </g>
     <g id="line2d_28">
      <g>
       <use style="stroke:#000000;stroke-width:0.8;" x="60.65" xlink:href="#m4e8634ee52" y="116.342599"/>
      </g>
     </g>
     <g id="text_15">
      <!-- 125 -->
      <g transform="translate(30.745 120.901661)scale(0.12 -0.12)">
       <use xlink:href="#DejaVuSans-31"/>
       <use x="63.623047" xlink:href="#DejaVuSans-32"/>
       <use x="127.246094" xlink:href="#DejaVuSans-35"/>
      </g>
     </g>
    </g>
    <g id="ytick_7">
     <g id="line2d_29">
      <path clip-path="url(#pe199247544)" d="M 60.65 80.3393 
L 489.7 80.3393 
" style="fill:none;stroke:#808080;stroke-linecap:square;stroke-width:0.8;"/>
     </g>
     <g id="line2d_30">
      <g>
       <use style="stroke:#000000;stroke-width:0.8;" x="60.65" xlink:href="#m4e8634ee52" y="80.3393"/>
      </g>
     </g>
     <g id="text_16">
      <!-- 150 -->
      <g transform="translate(30.745 84.898363)scale(0.12 -0.12)">
       <use xlink:href="#DejaVuSans-31"/>
       <use x="63.623047" xlink:href="#DejaVuSans-35"/>
       <use x="127.246094" xlink:href="#DejaVuSans-30"/>
      </g>
     </g>
    </g>
    <g id="ytick_8">
     <g id="line2d_31">
      <path clip-path="url(#pe199247544)" d="M 60.65 44.336002 
L 489.7 44.336002 
" style="fill:none;stroke:#808080;stroke-linecap:square;stroke-width:0.8;"/>
     </g>
     <g id="line2d_32">
      <g>
       <use style="stroke:#000000;stroke-width:0.8;" x="60.65" xlink:href="#m4e8634ee52" y="44.336002"/>
      </g>
     </g>
     <g id="text_17">
      <!-- 175 -->
      <g transform="translate(30.745 48.895064)scale(0.12 -0.12)">
       <use xlink:href="#DejaVuSans-31"/>
       <use x="63.623047" xlink:href="#DejaVuSans-37"/>
       <use x="127.246094" xlink:href="#DejaVuSans-35"/>
      </g>
     </g>
    </g>
    <g id="text_18">
     <!-- $I_{DS X1}$ [uA] -->
     <defs>
      <path d="M 16.890625 72.90625 
L 26.8125 72.90625 
L 12.59375 0 
L 2.6875 0 
z
" id="DejaVuSans-Oblique-49"/>
      <path d="M 60.296875 70.515625 
L 58.40625 60.890625 
Q 53.46875 63.53125 48.609375 64.875 
Q 43.75 66.21875 39.203125 66.21875 
Q 30.375 66.21875 25.140625 62.359375 
Q 19.921875 58.5 19.921875 52.09375 
Q 19.921875 48.578125 21.84375 46.703125 
Q 23.78125 44.828125 31.78125 42.671875 
L 37.703125 41.21875 
Q 47.703125 38.625 51.609375 34.640625 
Q 55.515625 30.671875 55.515625 23.484375 
Q 55.515625 12.453125 46.84375 5.515625 
Q 38.1875 -1.421875 24.03125 -1.421875 
Q 18.21875 -1.421875 12.359375 -0.265625 
Q 6.5 0.875 0.59375 3.21875 
L 2.59375 13.375 
Q 8.015625 10.015625 13.453125 8.296875 
Q 18.890625 6.59375 24.3125 6.59375 
Q 33.546875 6.59375 39.109375 10.6875 
Q 44.671875 14.796875 44.671875 21.390625 
Q 44.671875 25.78125 42.453125 28.046875 
Q 40.234375 30.328125 32.90625 32.171875 
L 27 33.6875 
Q 16.890625 36.328125 13.203125 39.765625 
Q 9.515625 43.21875 9.515625 49.421875 
Q 9.515625 60.296875 17.890625 67.25 
Q 26.265625 74.21875 39.703125 74.21875 
Q 44.921875 74.21875 50.046875 73.28125 
Q 55.171875 72.359375 60.296875 70.515625 
z
" id="DejaVuSans-Oblique-53"/>
      <path d="M 13.71875 72.90625 
L 23.6875 72.90625 
L 36.1875 46.578125 
L 58.796875 72.90625 
L 70.3125 72.90625 
L 40.28125 38.09375 
L 58.40625 0 
L 48.484375 0 
L 33.796875 30.71875 
L 7.171875 0 
L -4.296875 0 
L 29.78125 39.203125 
z
" id="DejaVuSans-Oblique-58"/>
      <path d="M 8.5 21.578125 
L 8.5 54.6875 
L 17.484375 54.6875 
L 17.484375 21.921875 
Q 17.484375 14.15625 20.5 10.265625 
Q 23.53125 6.390625 29.59375 6.390625 
Q 36.859375 6.390625 41.078125 11.03125 
Q 45.3125 15.671875 45.3125 23.6875 
L 45.3125 54.6875 
L 54.296875 54.6875 
L 54.296875 0 
L 45.3125 0 
L 45.3125 8.40625 
Q 42.046875 3.421875 37.71875 1 
Q 33.40625 -1.421875 27.6875 -1.421875 
Q 18.265625 -1.421875 13.375 4.4375 
Q 8.5 10.296875 8.5 21.578125 
z
M 31.109375 56 
z
" id="DejaVuSans-75"/>
      <path d="M 34.1875 63.1875 
L 20.796875 26.90625 
L 47.609375 26.90625 
z
M 28.609375 72.90625 
L 39.796875 72.90625 
L 67.578125 0 
L 57.328125 0 
L 50.6875 18.703125 
L 17.828125 18.703125 
L 11.1875 0 
L 0.78125 0 
z
" id="DejaVuSans-41"/>
     </defs>
     <g transform="translate(24.249375 196.85)rotate(-90)scale(0.12 -0.12)">
      <use transform="translate(0 0.015625)" xlink:href="#DejaVuSans-Oblique-49"/>
      <use transform="translate(29.492188 -16.390625)scale(0.7)" xlink:href="#DejaVuSans-Oblique-44"/>
      <use transform="translate(83.393555 -16.390625)scale(0.7)" xlink:href="#DejaVuSans-Oblique-53"/>
      <use transform="translate(127.827148 -16.390625)scale(0.7)" xlink:href="#DejaVuSans-Oblique-58"/>
      <use transform="translate(175.78125 -16.390625)scale(0.7)" xlink:href="#DejaVuSans-31"/>
      <use transform="translate(223.051758 0.015625)" xlink:href="#DejaVuSans-20"/>
      <use transform="translate(254.838867 0.015625)" xlink:href="#DejaVuSans-5b"/>
      <use transform="translate(293.852539 0.015625)" xlink:href="#DejaVuSans-75"/>
      <use transform="translate(357.231445 0.015625)" xlink:href="#DejaVuSans-41"/>
      <use transform="translate(425.639648 0.015625)" xlink:href="#DejaVuSans-5d"/>
     </g>
    </g>
   </g>
   <g id="line2d_33">
    <path clip-path="url(#pe199247544)" d="M 80.152273 296.359091 
L 88.112384 296.359062 
L 96.072495 296.359055 
L 104.032607 296.359053 
L 111.992718 296.359052 
L 119.952829 296.359052 
L 127.912941 296.359051 
L 135.873052 296.359051 
L 143.833163 296.359051 
L 151.793275 296.359051 
L 159.753386 296.359051 
L 167.713497 296.359051 
L 175.673609 296.35905 
L 183.63372 296.35905 
L 191.593831 296.35905 
L 199.553942 296.35905 
L 207.514054 296.35905 
L 215.474165 296.359049 
L 223.434276 296.359049 
L 231.394388 296.359049 
L 239.354499 296.359049 
L 247.31461 296.359049 
L 255.274722 296.359048 
L 263.234833 296.359048 
L 271.194944 296.359048 
L 279.155056 296.359048 
L 287.115167 296.359048 
L 295.075278 296.359047 
L 303.03539 296.359047 
L 310.995501 296.359047 
L 318.955612 296.359047 
L 326.915724 296.359047 
L 334.875835 296.359046 
L 342.835946 296.359046 
L 350.796058 296.359046 
L 358.756169 296.359046 
L 366.71628 296.359046 
L 374.676391 296.359045 
L 382.636503 296.359045 
L 390.596614 296.359045 
L 398.556725 296.359045 
L 406.516837 296.359045 
L 414.476948 296.359044 
L 422.437059 296.359044 
L 430.397171 296.359044 
L 438.357282 296.359044 
L 446.317393 296.359044 
L 454.277505 296.359043 
L 462.237616 296.359043 
L 470.197727 296.359043 
" style="fill:none;stroke:#ff0000;stroke-linecap:square;stroke-width:2;"/>
   </g>
   <g id="line2d_34">
    <path clip-path="url(#pe199247544)" d="M 80.152273 296.359091 
L 88.112384 296.351103 
L 96.072495 296.34901 
L 104.032607 296.348446 
L 111.992718 296.348267 
L 119.952829 296.348182 
L 127.912941 296.34812 
L 135.873052 296.348064 
L 143.833163 296.348009 
L 151.793275 296.347954 
L 159.753386 296.3479 
L 167.713497 296.347846 
L 175.673609 296.347791 
L 183.63372 296.347737 
L 191.593831 296.347683 
L 199.553942 296.347628 
L 207.514054 296.347574 
L 215.474165 296.34752 
L 223.434276 296.347465 
L 231.394388 296.347411 
L 239.354499 296.347357 
L 247.31461 296.347302 
L 255.274722 296.347248 
L 263.234833 296.347194 
L 271.194944 296.347139 
L 279.155056 296.347085 
L 287.115167 296.347031 
L 295.075278 296.346977 
L 303.03539 296.346922 
L 310.995501 296.346868 
L 318.955612 296.346814 
L 326.915724 296.346759 
L 334.875835 296.346705 
L 342.835946 296.346651 
L 350.796058 296.346596 
L 358.756169 296.346542 
L 366.71628 296.346488 
L 374.676391 296.346433 
L 382.636503 296.346379 
L 390.596614 296.346325 
L 398.556725 296.34627 
L 406.516837 296.346216 
L 414.476948 296.346162 
L 422.437059 296.346107 
L 430.397171 296.346053 
L 438.357282 296.345999 
L 446.317393 296.345944 
L 454.277505 296.34589 
L 462.237616 296.345836 
L 470.197727 296.345781 
" style="fill:none;stroke:#0000ff;stroke-linecap:square;stroke-width:2;"/>
   </g>
   <g id="line2d_35">
    <path clip-path="url(#pe199247544)" d="M 80.152273 296.359091 
L 88.112384 295.661923 
L 96.072495 295.370036 
L 104.032607 295.265992 
L 111.992718 295.231 
L 119.952829 295.217353 
L 127.912941 295.209613 
L 135.873052 295.203408 
L 143.833163 295.197588 
L 151.793275 295.191864 
L 159.753386 295.186162 
L 167.713497 295.180467 
L 175.673609 295.174772 
L 183.63372 295.169078 
L 191.593831 295.163385 
L 199.553942 295.157691 
L 207.514054 295.151997 
L 215.474165 295.146303 
L 223.434276 295.140609 
L 231.394388 295.134915 
L 239.354499 295.129222 
L 247.31461 295.123528 
L 255.274722 295.117834 
L 263.234833 295.11214 
L 271.194944 295.106446 
L 279.155056 295.100752 
L 287.115167 295.095059 
L 295.075278 295.089365 
L 303.03539 295.083671 
L 310.995501 295.077977 
L 318.955612 295.072283 
L 326.915724 295.066589 
L 334.875835 295.060895 
L 342.835946 295.055202 
L 350.796058 295.049508 
L 358.756169 295.043814 
L 366.71628 295.03812 
L 374.676391 295.032426 
L 382.636503 295.026732 
L 390.596614 295.021039 
L 398.556725 295.015345 
L 406.516837 295.009651 
L 414.476948 295.003957 
L 422.437059 294.998263 
L 430.397171 294.992569 
L 438.357282 294.986876 
L 446.317393 294.981182 
L 454.277505 294.975488 
L 462.237616 294.969794 
L 470.197727 294.9641 
" style="fill:none;stroke:#008000;stroke-linecap:square;stroke-width:2;"/>
   </g>
   <g id="line2d_36">
    <path clip-path="url(#pe199247544)" d="M 80.152273 296.359091 
L 88.112384 292.421796 
L 96.072495 289.417833 
L 104.032607 287.320803 
L 111.992718 286.028238 
L 119.952829 285.34356 
L 127.912941 285.025361 
L 135.873052 284.878317 
L 143.833163 284.794584 
L 151.793275 284.730503 
L 159.753386 284.671875 
L 167.713497 284.614665 
L 175.673609 284.557811 
L 183.63372 284.501046 
L 191.593831 284.444302 
L 199.553942 284.387563 
L 207.514054 284.330825 
L 215.474165 284.274088 
L 223.434276 284.217351 
L 231.394388 284.160614 
L 239.354499 284.103877 
L 247.31461 284.04714 
L 255.274722 283.990403 
L 263.234833 283.933666 
L 271.194944 283.876928 
L 279.155056 283.820191 
L 287.115167 283.763454 
L 295.075278 283.706717 
L 303.03539 283.64998 
L 310.995501 283.593243 
L 318.955612 283.536506 
L 326.915724 283.479769 
L 334.875835 283.423032 
L 342.835946 283.366295 
L 350.796058 283.309557 
L 358.756169 283.25282 
L 366.71628 283.196083 
L 374.676391 283.139346 
L 382.636503 283.082609 
L 390.596614 283.025872 
L 398.556725 282.969135 
L 406.516837 282.912398 
L 414.476948 282.855661 
L 422.437059 282.798923 
L 430.397171 282.742186 
L 438.357282 282.685449 
L 446.317393 282.628712 
L 454.277505 282.571975 
L 462.237616 282.515238 
L 470.197727 282.458501 
" style="fill:none;stroke:#00bfbf;stroke-linecap:square;stroke-width:2;"/>
   </g>
   <g id="line2d_37">
    <path clip-path="url(#pe199247544)" d="M 80.152273 296.359091 
L 88.112384 289.588187 
L 96.072495 283.572979 
L 104.032607 278.332667 
L 111.992718 273.888647 
L 119.952829 270.261723 
L 127.912941 267.462438 
L 135.873052 265.468662 
L 143.833163 264.191902 
L 151.793275 263.460091 
L 159.753386 263.059278 
L 167.713497 262.81423 
L 175.673609 262.627164 
L 183.63372 262.458173 
L 191.593831 262.29421 
L 199.553942 262.131557 
L 207.514054 261.969233 
L 215.474165 261.80699 
L 223.434276 261.644767 
L 231.394388 261.482549 
L 239.354499 261.320332 
L 247.31461 261.158115 
L 255.274722 260.995899 
L 263.234833 260.833682 
L 271.194944 260.671466 
L 279.155056 260.50925 
L 287.115167 260.347033 
L 295.075278 260.184817 
L 303.03539 260.0226 
L 310.995501 259.860384 
L 318.955612 259.698167 
L 326.915724 259.535951 
L 334.875835 259.373734 
L 342.835946 259.211518 
L 350.796058 259.049301 
L 358.756169 258.887085 
L 366.71628 258.724868 
L 374.676391 258.562652 
L 382.636503 258.400435 
L 390.596614 258.238219 
L 398.556725 258.076002 
L 406.516837 257.913786 
L 414.476948 257.751569 
L 422.437059 257.589353 
L 430.397171 257.427136 
L 438.357282 257.26492 
L 446.317393 257.102704 
L 454.277505 256.940487 
L 462.237616 256.778271 
L 470.197727 256.616054 
" style="fill:none;stroke:#bf00bf;stroke-linecap:square;stroke-width:2;"/>
   </g>
   <g id="line2d_38">
    <path clip-path="url(#pe199247544)" d="M 80.152273 296.359091 
L 88.112384 287.491757 
L 96.072495 279.253411 
L 104.032607 271.655762 
L 111.992718 264.711148 
L 119.952829 258.432927 
L 127.912941 252.836013 
L 135.873052 247.937404 
L 143.833163 243.756097 
L 151.793275 240.310699 
L 159.753386 237.610989 
L 167.713497 235.638153 
L 175.673609 234.314575 
L 183.63372 233.487285 
L 191.593831 232.963684 
L 199.553942 232.584095 
L 207.514054 232.258452 
L 215.474165 231.949702 
L 223.434276 231.645661 
L 231.394388 231.342849 
L 239.354499 231.040346 
L 247.31461 230.737919 
L 255.274722 230.435512 
L 263.234833 230.133109 
L 271.194944 229.830706 
L 279.155056 229.528305 
L 287.115167 229.225903 
L 295.075278 228.923501 
L 303.03539 228.621099 
L 310.995501 228.318698 
L 318.955612 228.016296 
L 326.915724 227.713894 
L 334.875835 227.411492 
L 342.835946 227.109091 
L 350.796058 226.806689 
L 358.756169 226.504287 
L 366.71628 226.201885 
L 374.676391 225.899484 
L 382.636503 225.597082 
L 390.596614 225.29468 
L 398.556725 224.992278 
L 406.516837 224.689877 
L 414.476948 224.387475 
L 422.437059 224.085073 
L 430.397171 223.782671 
L 438.357282 223.48027 
L 446.317393 223.177868 
L 454.277505 222.875466 
L 462.237616 222.573064 
L 470.197727 222.270663 
" style="fill:none;stroke:#bfbf00;stroke-linecap:square;stroke-width:2;"/>
   </g>
   <g id="line2d_39">
    <path clip-path="url(#pe199247544)" d="M 80.152273 296.359091 
L 88.112384 285.846085 
L 96.072495 275.868955 
L 104.032607 266.437505 
L 111.992718 257.561593 
L 119.952829 249.251184 
L 127.912941 241.516431 
L 135.873052 234.367815 
L 143.833163 227.816379 
L 151.793275 221.874086 
L 159.753386 216.554301 
L 167.713497 211.872279 
L 175.673609 207.84512 
L 183.63372 204.489689 
L 191.593831 201.815163 
L 199.553942 199.805367 
L 207.514054 198.391341 
L 215.474165 197.435305 
L 223.434276 196.761605 
L 231.394388 196.222823 
L 239.354499 195.734904 
L 247.31461 195.262983 
L 255.274722 194.795534 
L 263.234833 194.329253 
L 271.194944 193.863267 
L 279.155056 193.397353 
L 287.115167 192.931457 
L 295.075278 192.465565 
L 303.03539 191.999675 
L 310.995501 191.533784 
L 318.955612 191.067894 
L 326.915724 190.602004 
L 334.875835 190.136113 
L 342.835946 189.670223 
L 350.796058 189.204333 
L 358.756169 188.738443 
L 366.71628 188.272552 
L 374.676391 187.806662 
L 382.636503 187.340772 
L 390.596614 186.874882 
L 398.556725 186.408991 
L 406.516837 185.943101 
L 414.476948 185.477211 
L 422.437059 185.011321 
L 430.397171 184.54543 
L 438.357282 184.07954 
L 446.317393 183.61365 
L 454.277505 183.14776 
L 462.237616 182.681869 
L 470.197727 182.215979 
" style="fill:none;stroke:#000000;stroke-linecap:square;stroke-width:2;"/>
   </g>
   <g id="line2d_40">
    <path clip-path="url(#pe199247544)" d="M 80.152273 296.359091 
L 88.112384 284.514316 
L 96.072495 273.130711 
L 104.032607 262.217091 
L 111.992718 251.782274 
L 119.952829 241.835086 
L 127.912941 232.384369 
L 135.873052 223.438994 
L 143.833163 215.007881 
L 151.793275 207.100048 
L 159.753386 199.724682 
L 167.713497 192.891269 
L 175.673609 186.609804 
L 183.63372 180.891119 
L 191.593831 175.747324 
L 199.553942 171.19226 
L 207.514054 167.241487 
L 215.474165 163.910459 
L 223.434276 161.207863 
L 231.394388 159.119678 
L 239.354499 157.584004 
L 247.31461 156.475454 
L 255.274722 155.632161 
L 263.234833 154.916602 
L 271.194944 154.249511 
L 279.155056 153.597732 
L 287.115167 152.950245 
L 295.075278 152.303882 
L 303.03539 151.657801 
L 310.995501 151.01179 
L 318.955612 150.365797 
L 326.915724 149.719807 
L 334.875835 149.073819 
L 342.835946 148.427831 
L 350.796058 147.781843 
L 358.756169 147.135855 
L 366.71628 146.489867 
L 374.676391 145.843879 
L 382.636503 145.197891 
L 390.596614 144.551903 
L 398.556725 143.905915 
L 406.516837 143.259927 
L 414.476948 142.613939 
L 422.437059 141.967951 
L 430.397171 141.321963 
L 438.357282 140.675974 
L 446.317393 140.029986 
L 454.277505 139.383998 
L 462.237616 138.73801 
L 470.197727 138.092022 
" style="fill:none;stroke:#ff0000;stroke-linecap:square;stroke-width:2;"/>
   </g>
   <g id="line2d_41">
    <path clip-path="url(#pe199247544)" d="M 80.152273 296.359091 
L 88.112384 283.413951 
L 96.072495 270.868307 
L 104.032607 258.730202 
L 111.992718 247.007681 
L 119.952829 235.70879 
L 127.912941 224.841575 
L 135.873052 214.414085 
L 143.833163 204.434372 
L 151.793275 194.910495 
L 159.753386 185.85053 
L 167.713497 177.262574 
L 175.673609 169.154776 
L 183.63372 161.535368 
L 191.593831 154.412741 
L 199.553942 147.795557 
L 207.514054 141.692946 
L 215.474165 136.114804 
L 223.434276 131.072202 
L 231.394388 126.577813 
L 239.354499 122.64592 
L 247.31461 119.290808 
L 255.274722 116.520761 
L 263.234833 114.32355 
L 271.194944 112.643154 
L 279.155056 111.364509 
L 287.115167 110.337202 
L 295.075278 109.431863 
L 303.03539 108.573107 
L 310.995501 107.729134 
L 318.955612 106.889317 
L 326.915724 106.050589 
L 334.875835 105.212135 
L 342.835946 104.373749 
L 350.796058 103.53538 
L 358.756169 102.697014 
L 366.71628 101.85865 
L 374.676391 101.020286 
L 382.636503 100.181922 
L 390.596614 99.343558 
L 398.556725 98.505194 
L 406.516837 97.66683 
L 414.476948 96.828466 
L 422.437059 95.990102 
L 430.397171 95.151738 
L 438.357282 94.313374 
L 446.317393 93.47501 
L 454.277505 92.636646 
L 462.237616 91.798282 
L 470.197727 90.959918 
" style="fill:none;stroke:#0000ff;stroke-linecap:square;stroke-width:2;"/>
   </g>
   <g id="line2d_42">
    <path clip-path="url(#pe199247544)" d="M 80.152273 296.359091 
L 88.112384 282.489462 
L 96.072495 268.967514 
L 104.032607 255.800649 
L 111.992718 242.996267 
L 119.952829 230.561769 
L 127.912941 218.504559 
L 135.873052 206.832036 
L 143.833163 195.551603 
L 151.793275 184.670663 
L 159.753386 174.196618 
L 167.713497 164.136875 
L 175.673609 154.498841 
L 183.63372 145.289934 
L 191.593831 136.51758 
L 199.553942 128.189233 
L 207.514054 120.312388 
L 215.474165 112.894622 
L 223.434276 105.943653 
L 231.394388 99.467453 
L 239.354499 93.474422 
L 247.31461 87.973672 
L 255.274722 82.975399 
L 263.234833 78.491291 
L 271.194944 74.534559 
L 279.155056 71.118502 
L 287.115167 68.251064 
L 295.075278 65.921535 
L 303.03539 64.078871 
L 310.995501 62.616758 
L 318.955612 61.394466 
L 326.915724 60.289456 
L 334.875835 59.229534 
L 342.835946 58.183988 
L 350.796058 57.142495 
L 358.756169 56.102064 
L 366.71628 55.061902 
L 374.676391 54.021807 
L 382.636503 52.981727 
L 390.596614 51.941652 
L 398.556725 50.901577 
L 406.516837 49.861503 
L 414.476948 48.821429 
L 422.437059 47.781354 
L 430.397171 46.74128 
L 438.357282 45.701206 
L 446.317393 44.661132 
L 454.277505 43.621058 
L 462.237616 42.580983 
L 470.197727 41.540909 
" style="fill:none;stroke:#008000;stroke-linecap:square;stroke-width:2;"/>
   </g>
   <g id="patch_3">
    <path d="M 60.65 309.1 
L 60.65 28.8 
" style="fill:none;stroke:#000000;stroke-linecap:square;stroke-linejoin:miter;stroke-width:0.8;"/>
   </g>
   <g id="patch_4">
    <path d="M 489.7 309.1 
L 489.7 28.8 
" style="fill:none;stroke:#000000;stroke-linecap:square;stroke-linejoin:miter;stroke-width:0.8;"/>
   </g>
   <g id="patch_5">
    <path d="M 60.65 309.1 
L 489.7 309.1 
" style="fill:none;stroke:#000000;stroke-linecap:square;stroke-linejoin:miter;stroke-width:0.8;"/>
   </g>
   <g id="patch_6">
    <path d="M 60.65 28.8 
L 489.7 28.8 
" style="fill:none;stroke:#000000;stroke-linecap:square;stroke-linejoin:miter;stroke-width:0.8;"/>
   </g>
   <g id="text_19">
    <!-- $I_{ds}(V_{ds})$ -->
    <defs>
     <path d="M 41.796875 8.203125 
Q 38.1875 3.46875 33.25 1.015625 
Q 28.328125 -1.421875 22.3125 -1.421875 
Q 14.109375 -1.421875 9.34375 4.171875 
Q 4.59375 9.765625 4.59375 19.484375 
Q 4.59375 27.59375 7.46875 34.9375 
Q 10.359375 42.28125 15.828125 48.09375 
Q 19.4375 51.953125 23.96875 53.96875 
Q 28.515625 56 33.5 56 
Q 38.765625 56 42.796875 53.453125 
Q 46.828125 50.921875 49.03125 46.1875 
L 54.890625 75.984375 
L 63.921875 75.984375 
L 49.125 0 
L 40.09375 0 
z
M 13.921875 21.09375 
Q 13.921875 14.015625 17.109375 10.0625 
Q 20.3125 6.109375 25.984375 6.109375 
Q 30.171875 6.109375 33.765625 8.125 
Q 37.359375 10.15625 40.09375 14.109375 
Q 42.96875 18.21875 44.625 23.578125 
Q 46.296875 28.953125 46.296875 34.1875 
Q 46.296875 40.96875 43.09375 44.765625 
Q 39.890625 48.578125 34.28125 48.578125 
Q 30.03125 48.578125 26.359375 46.578125 
Q 22.703125 44.578125 20.125 40.828125 
Q 17.28125 36.765625 15.59375 31.390625 
Q 13.921875 26.03125 13.921875 21.09375 
z
" id="DejaVuSans-Oblique-64"/>
     <path d="M 50 53.078125 
L 48.296875 44.578125 
Q 44.734375 46.53125 40.765625 47.5 
Q 36.8125 48.484375 32.625 48.484375 
Q 25.53125 48.484375 21.453125 46.0625 
Q 17.390625 43.65625 17.390625 39.5 
Q 17.390625 34.671875 26.859375 32.078125 
Q 27.59375 31.890625 27.9375 31.78125 
L 30.8125 30.90625 
Q 39.796875 28.421875 42.796875 25.6875 
Q 45.796875 22.953125 45.796875 18.21875 
Q 45.796875 9.515625 38.890625 4.046875 
Q 31.984375 -1.421875 20.796875 -1.421875 
Q 16.453125 -1.421875 11.671875 -0.578125 
Q 6.890625 0.25 1.125 2 
L 2.875 11.28125 
Q 7.8125 8.734375 12.59375 7.421875 
Q 17.390625 6.109375 21.78125 6.109375 
Q 28.375 6.109375 32.5 8.9375 
Q 36.625 11.765625 36.625 16.109375 
Q 36.625 20.796875 25.78125 23.6875 
L 24.859375 23.921875 
L 21.78125 24.703125 
Q 14.9375 26.515625 11.765625 29.46875 
Q 8.59375 32.421875 8.59375 37.015625 
Q 8.59375 45.75 15.15625 50.875 
Q 21.734375 56 33.015625 56 
Q 37.453125 56 41.671875 55.265625 
Q 45.90625 54.546875 50 53.078125 
z
" id="DejaVuSans-Oblique-73"/>
     <path d="M 31 75.875 
Q 24.46875 64.65625 21.28125 53.65625 
Q 18.109375 42.671875 18.109375 31.390625 
Q 18.109375 20.125 21.3125 9.0625 
Q 24.515625 -2 31 -13.1875 
L 23.1875 -13.1875 
Q 15.875 -1.703125 12.234375 9.375 
Q 8.59375 20.453125 8.59375 31.390625 
Q 8.59375 42.28125 12.203125 53.3125 
Q 15.828125 64.359375 23.1875 75.875 
z
" id="DejaVuSans-28"/>
     <path d="M 8.015625 75.875 
L 15.828125 75.875 
Q 23.140625 64.359375 26.78125 53.3125 
Q 30.421875 42.28125 30.421875 31.390625 
Q 30.421875 20.453125 26.78125 9.375 
Q 23.140625 -1.703125 15.828125 -13.1875 
L 8.015625 -13.1875 
Q 14.5 -2 17.703125 9.0625 
Q 20.90625 20.125 20.90625 31.390625 
Q 20.90625 42.671875 17.703125 53.65625 
Q 14.5 64.65625 8.015625 75.875 
z
" id="DejaVuSans-29"/>
    </defs>
    <g transform="translate(254.535 22.8)scale(0.12 -0.12)">
     <use transform="translate(0 0.125)" xlink:href="#DejaVuSans-Oblique-49"/>
     <use transform="translate(29.492188 -16.28125)scale(0.7)" xlink:href="#DejaVuSans-Oblique-64"/>
     <use transform="translate(73.925781 -16.28125)scale(0.7)" xlink:href="#DejaVuSans-Oblique-73"/>
     <use transform="translate(113.129883 0.125)" xlink:href="#DejaVuSans-28"/>
     <use transform="translate(152.143555 0.125)" xlink:href="#DejaVuSans-Oblique-56"/>
     <use transform="translate(220.551758 -16.28125)scale(0.7)" xlink:href="#DejaVuSans-Oblique-64"/>
     <use transform="translate(264.985352 -16.28125)scale(0.7)" xlink:href="#DejaVuSans-Oblique-73"/>
     <use transform="translate(304.189453 0.125)" xlink:href="#DejaVuSans-29"/>
    </g>
   </g>
   <g id="legend_1">
    <g id="patch_7">
     <path d="M 67.65 153.9375 
L 168.09 153.9375 
Q 170.09 153.9375 170.09 151.9375 
L 170.09 35.8 
Q 170.09 33.8 168.09 33.8 
L 67.65 33.8 
Q 65.65 33.8 65.65 35.8 
L 65.65 151.9375 
Q 65.65 153.9375 67.65 153.9375 
z
" style="fill:#ffffff;opacity:0.8;stroke:#cccccc;stroke-linejoin:miter;"/>
    </g>
    <g id="line2d_43">
     <path d="M 67.65 41.418125 
L 77.65 41.418125 
" style="fill:none;stroke:#ff0000;stroke-linecap:square;stroke-width:2;"/>
    </g>
    <g id="line2d_44"/>
    <g id="text_20">
     <!-- $V_{G}$ =  1.0e-03 -->
     <defs>
      <path d="M 54.59375 10.890625 
L 58.40625 29.984375 
L 42.1875 29.984375 
L 43.703125 38.09375 
L 69.578125 38.09375 
L 63.28125 6 
Q 56.78125 2.4375 49.109375 0.5 
Q 41.453125 -1.421875 33.6875 -1.421875 
Q 19.96875 -1.421875 12.234375 6.1875 
Q 4.5 13.8125 4.5 27.390625 
Q 4.5 38.671875 9.203125 48.84375 
Q 13.921875 59.03125 22.21875 65.828125 
Q 27.4375 70.0625 33.640625 72.140625 
Q 39.84375 74.21875 47.40625 74.21875 
Q 54.25 74.21875 60.515625 72.484375 
Q 66.796875 70.75 72.515625 67.28125 
L 70.515625 56.78125 
Q 66.109375 61.375 60.203125 63.796875 
Q 54.296875 66.21875 47.609375 66.21875 
Q 39.84375 66.21875 33.9375 63.25 
Q 28.03125 60.296875 23.390625 54.109375 
Q 19.4375 48.828125 17.15625 41.671875 
Q 14.890625 34.515625 14.890625 27.09375 
Q 14.890625 16.890625 20.109375 11.734375 
Q 25.34375 6.59375 35.6875 6.59375 
Q 40.875 6.59375 45.703125 7.6875 
Q 50.53125 8.796875 54.59375 10.890625 
z
" id="DejaVuSans-Oblique-47"/>
      <path d="M 10.59375 45.40625 
L 73.1875 45.40625 
L 73.1875 37.203125 
L 10.59375 37.203125 
z
M 10.59375 25.484375 
L 73.1875 25.484375 
L 73.1875 17.1875 
L 10.59375 17.1875 
z
" id="DejaVuSans-3d"/>
      <path d="M 56.203125 29.59375 
L 56.203125 25.203125 
L 14.890625 25.203125 
Q 15.484375 15.921875 20.484375 11.0625 
Q 25.484375 6.203125 34.421875 6.203125 
Q 39.59375 6.203125 44.453125 7.46875 
Q 49.3125 8.734375 54.109375 11.28125 
L 54.109375 2.78125 
Q 49.265625 0.734375 44.1875 -0.34375 
Q 39.109375 -1.421875 33.890625 -1.421875 
Q 20.796875 -1.421875 13.15625 6.1875 
Q 5.515625 13.8125 5.515625 26.8125 
Q 5.515625 40.234375 12.765625 48.109375 
Q 20.015625 56 32.328125 56 
Q 43.359375 56 49.78125 48.890625 
Q 56.203125 41.796875 56.203125 29.59375 
z
M 47.21875 32.234375 
Q 47.125 39.59375 43.09375 43.984375 
Q 39.0625 48.390625 32.421875 48.390625 
Q 24.90625 48.390625 20.390625 44.140625 
Q 15.875 39.890625 15.1875 32.171875 
z
" id="DejaVuSans-65"/>
      <path d="M 4.890625 31.390625 
L 31.203125 31.390625 
L 31.203125 23.390625 
L 4.890625 23.390625 
z
" id="DejaVuSans-2d"/>
      <path d="M 40.578125 39.3125 
Q 47.65625 37.796875 51.625 33 
Q 55.609375 28.21875 55.609375 21.1875 
Q 55.609375 10.40625 48.1875 4.484375 
Q 40.765625 -1.421875 27.09375 -1.421875 
Q 22.515625 -1.421875 17.65625 -0.515625 
Q 12.796875 0.390625 7.625 2.203125 
L 7.625 11.71875 
Q 11.71875 9.328125 16.59375 8.109375 
Q 21.484375 6.890625 26.8125 6.890625 
Q 36.078125 6.890625 40.9375 10.546875 
Q 45.796875 14.203125 45.796875 21.1875 
Q 45.796875 27.640625 41.28125 31.265625 
Q 36.765625 34.90625 28.71875 34.90625 
L 20.21875 34.90625 
L 20.21875 43.015625 
L 29.109375 43.015625 
Q 36.375 43.015625 40.234375 45.921875 
Q 44.09375 48.828125 44.09375 54.296875 
Q 44.09375 59.90625 40.109375 62.90625 
Q 36.140625 65.921875 28.71875 65.921875 
Q 24.65625 65.921875 20.015625 65.03125 
Q 15.375 64.15625 9.8125 62.3125 
L 9.8125 71.09375 
Q 15.4375 72.65625 20.34375 73.4375 
Q 25.25 74.21875 29.59375 74.21875 
Q 40.828125 74.21875 47.359375 69.109375 
Q 53.90625 64.015625 53.90625 55.328125 
Q 53.90625 49.265625 50.4375 45.09375 
Q 46.96875 40.921875 40.578125 39.3125 
z
" id="DejaVuSans-33"/>
     </defs>
     <g transform="translate(79.65 44.918125)scale(0.12 -0.12)">
      <use transform="translate(0 0.78125)" xlink:href="#DejaVuSans-Oblique-56"/>
      <use transform="translate(68.408203 -15.625)scale(0.7)" xlink:href="#DejaVuSans-Oblique-47"/>
      <use transform="translate(125.385742 0.78125)" xlink:href="#DejaVuSans-20"/>
      <use transform="translate(157.172852 0.78125)" xlink:href="#DejaVuSans-3d"/>
      <use transform="translate(240.961914 0.78125)" xlink:href="#DejaVuSans-20"/>
      <use transform="translate(272.749023 0.78125)" xlink:href="#DejaVuSans-20"/>
      <use transform="translate(304.536133 0.78125)" xlink:href="#DejaVuSans-31"/>
      <use transform="translate(368.15918 0.78125)" xlink:href="#DejaVuSans-2e"/>
      <use transform="translate(399.946289 0.78125)" xlink:href="#DejaVuSans-30"/>
      <use transform="translate(463.569336 0.78125)" xlink:href="#DejaVuSans-65"/>
      <use transform="translate(525.092773 0.78125)" xlink:href="#DejaVuSans-2d"/>
      <use transform="translate(561.176758 0.78125)" xlink:href="#DejaVuSans-30"/>
      <use transform="translate(624.799805 0.78125)" xlink:href="#DejaVuSans-33"/>
     </g>
    </g>
    <g id="line2d_45">
     <path d="M 67.65 53.031875 
L 77.65 53.031875 
" style="fill:none;stroke:#0000ff;stroke-linecap:square;stroke-width:2;"/>
    </g>
    <g id="line2d_46"/>
    <g id="text_21">
     <!-- $V_{G}$ =  2.0e-01 -->
     <g transform="translate(79.65 56.531875)scale(0.12 -0.12)">
      <use transform="translate(0 0.78125)" xlink:href="#DejaVuSans-Oblique-56"/>
      <use transform="translate(68.408203 -15.625)scale(0.7)" xlink:href="#DejaVuSans-Oblique-47"/>
      <use transform="translate(125.385742 0.78125)" xlink:href="#DejaVuSans-20"/>
      <use transform="translate(157.172852 0.78125)" xlink:href="#DejaVuSans-3d"/>
      <use transform="translate(240.961914 0.78125)" xlink:href="#DejaVuSans-20"/>
      <use transform="translate(272.749023 0.78125)" xlink:href="#DejaVuSans-20"/>
      <use transform="translate(304.536133 0.78125)" xlink:href="#DejaVuSans-32"/>
      <use transform="translate(368.15918 0.78125)" xlink:href="#DejaVuSans-2e"/>
      <use transform="translate(399.946289 0.78125)" xlink:href="#DejaVuSans-30"/>
      <use transform="translate(463.569336 0.78125)" xlink:href="#DejaVuSans-65"/>
      <use transform="translate(525.092773 0.78125)" xlink:href="#DejaVuSans-2d"/>
      <use transform="translate(561.176758 0.78125)" xlink:href="#DejaVuSans-30"/>
      <use transform="translate(624.799805 0.78125)" xlink:href="#DejaVuSans-31"/>
     </g>
    </g>
    <g id="line2d_47">
     <path d="M 67.65 64.645625 
L 77.65 64.645625 
" style="fill:none;stroke:#008000;stroke-linecap:square;stroke-width:2;"/>
    </g>
    <g id="line2d_48"/>
    <g id="text_22">
     <!-- $V_{G}$ =  4.0e-01 -->
     <defs>
      <path d="M 37.796875 64.3125 
L 12.890625 25.390625 
L 37.796875 25.390625 
z
M 35.203125 72.90625 
L 47.609375 72.90625 
L 47.609375 25.390625 
L 58.015625 25.390625 
L 58.015625 17.1875 
L 47.609375 17.1875 
L 47.609375 0 
L 37.796875 0 
L 37.796875 17.1875 
L 4.890625 17.1875 
L 4.890625 26.703125 
z
" id="DejaVuSans-34"/>
     </defs>
     <g transform="translate(79.65 68.145625)scale(0.12 -0.12)">
      <use transform="translate(0 0.78125)" xlink:href="#DejaVuSans-Oblique-56"/>
      <use transform="translate(68.408203 -15.625)scale(0.7)" xlink:href="#DejaVuSans-Oblique-47"/>
      <use transform="translate(125.385742 0.78125)" xlink:href="#DejaVuSans-20"/>
      <use transform="translate(157.172852 0.78125)" xlink:href="#DejaVuSans-3d"/>
      <use transform="translate(240.961914 0.78125)" xlink:href="#DejaVuSans-20"/>
      <use transform="translate(272.749023 0.78125)" xlink:href="#DejaVuSans-20"/>
      <use transform="translate(304.536133 0.78125)" xlink:href="#DejaVuSans-34"/>
      <use transform="translate(368.15918 0.78125)" xlink:href="#DejaVuSans-2e"/>
      <use transform="translate(399.946289 0.78125)" xlink:href="#DejaVuSans-30"/>
      <use transform="translate(463.569336 0.78125)" xlink:href="#DejaVuSans-65"/>
      <use transform="translate(525.092773 0.78125)" xlink:href="#DejaVuSans-2d"/>
      <use transform="translate(561.176758 0.78125)" xlink:href="#DejaVuSans-30"/>
      <use transform="translate(624.799805 0.78125)" xlink:href="#DejaVuSans-31"/>
     </g>
    </g>
    <g id="line2d_49">
     <path d="M 67.65 76.259375 
L 77.65 76.259375 
" style="fill:none;stroke:#00bfbf;stroke-linecap:square;stroke-width:2;"/>
    </g>
    <g id="line2d_50"/>
    <g id="text_23">
     <!-- $V_{G}$ =  6.0e-01 -->
     <defs>
      <path d="M 33.015625 40.375 
Q 26.375 40.375 22.484375 35.828125 
Q 18.609375 31.296875 18.609375 23.390625 
Q 18.609375 15.53125 22.484375 10.953125 
Q 26.375 6.390625 33.015625 6.390625 
Q 39.65625 6.390625 43.53125 10.953125 
Q 47.40625 15.53125 47.40625 23.390625 
Q 47.40625 31.296875 43.53125 35.828125 
Q 39.65625 40.375 33.015625 40.375 
z
M 52.59375 71.296875 
L 52.59375 62.3125 
Q 48.875 64.0625 45.09375 64.984375 
Q 41.3125 65.921875 37.59375 65.921875 
Q 27.828125 65.921875 22.671875 59.328125 
Q 17.53125 52.734375 16.796875 39.40625 
Q 19.671875 43.65625 24.015625 45.921875 
Q 28.375 48.1875 33.59375 48.1875 
Q 44.578125 48.1875 50.953125 41.515625 
Q 57.328125 34.859375 57.328125 23.390625 
Q 57.328125 12.15625 50.6875 5.359375 
Q 44.046875 -1.421875 33.015625 -1.421875 
Q 20.359375 -1.421875 13.671875 8.265625 
Q 6.984375 17.96875 6.984375 36.375 
Q 6.984375 53.65625 15.1875 63.9375 
Q 23.390625 74.21875 37.203125 74.21875 
Q 40.921875 74.21875 44.703125 73.484375 
Q 48.484375 72.75 52.59375 71.296875 
z
" id="DejaVuSans-36"/>
     </defs>
     <g transform="translate(79.65 79.759375)scale(0.12 -0.12)">
      <use transform="translate(0 0.78125)" xlink:href="#DejaVuSans-Oblique-56"/>
      <use transform="translate(68.408203 -15.625)scale(0.7)" xlink:href="#DejaVuSans-Oblique-47"/>
      <use transform="translate(125.385742 0.78125)" xlink:href="#DejaVuSans-20"/>
      <use transform="translate(157.172852 0.78125)" xlink:href="#DejaVuSans-3d"/>
      <use transform="translate(240.961914 0.78125)" xlink:href="#DejaVuSans-20"/>
      <use transform="translate(272.749023 0.78125)" xlink:href="#DejaVuSans-20"/>
      <use transform="translate(304.536133 0.78125)" xlink:href="#DejaVuSans-36"/>
      <use transform="translate(368.15918 0.78125)" xlink:href="#DejaVuSans-2e"/>
      <use transform="translate(399.946289 0.78125)" xlink:href="#DejaVuSans-30"/>
      <use transform="translate(463.569336 0.78125)" xlink:href="#DejaVuSans-65"/>
      <use transform="translate(525.092773 0.78125)" xlink:href="#DejaVuSans-2d"/>
      <use transform="translate(561.176758 0.78125)" xlink:href="#DejaVuSans-30"/>
      <use transform="translate(624.799805 0.78125)" xlink:href="#DejaVuSans-31"/>
     </g>
    </g>
    <g id="line2d_51">
     <path d="M 67.65 87.873125 
L 77.65 87.873125 
" style="fill:none;stroke:#bf00bf;stroke-linecap:square;stroke-width:2;"/>
    </g>
    <g id="line2d_52"/>
    <g id="text_24">
     <!-- $V_{G}$ =  8.0e-01 -->
     <defs>
      <path d="M 31.78125 34.625 
Q 24.75 34.625 20.71875 30.859375 
Q 16.703125 27.09375 16.703125 20.515625 
Q 16.703125 13.921875 20.71875 10.15625 
Q 24.75 6.390625 31.78125 6.390625 
Q 38.8125 6.390625 42.859375 10.171875 
Q 46.921875 13.96875 46.921875 20.515625 
Q 46.921875 27.09375 42.890625 30.859375 
Q 38.875 34.625 31.78125 34.625 
z
M 21.921875 38.8125 
Q 15.578125 40.375 12.03125 44.71875 
Q 8.5 49.078125 8.5 55.328125 
Q 8.5 64.0625 14.71875 69.140625 
Q 20.953125 74.21875 31.78125 74.21875 
Q 42.671875 74.21875 48.875 69.140625 
Q 55.078125 64.0625 55.078125 55.328125 
Q 55.078125 49.078125 51.53125 44.71875 
Q 48 40.375 41.703125 38.8125 
Q 48.828125 37.15625 52.796875 32.3125 
Q 56.78125 27.484375 56.78125 20.515625 
Q 56.78125 9.90625 50.3125 4.234375 
Q 43.84375 -1.421875 31.78125 -1.421875 
Q 19.734375 -1.421875 13.25 4.234375 
Q 6.78125 9.90625 6.78125 20.515625 
Q 6.78125 27.484375 10.78125 32.3125 
Q 14.796875 37.15625 21.921875 38.8125 
z
M 18.3125 54.390625 
Q 18.3125 48.734375 21.84375 45.5625 
Q 25.390625 42.390625 31.78125 42.390625 
Q 38.140625 42.390625 41.71875 45.5625 
Q 45.3125 48.734375 45.3125 54.390625 
Q 45.3125 60.0625 41.71875 63.234375 
Q 38.140625 66.40625 31.78125 66.40625 
Q 25.390625 66.40625 21.84375 63.234375 
Q 18.3125 60.0625 18.3125 54.390625 
z
" id="DejaVuSans-38"/>
     </defs>
     <g transform="translate(79.65 91.373125)scale(0.12 -0.12)">
      <use transform="translate(0 0.78125)" xlink:href="#DejaVuSans-Oblique-56"/>
      <use transform="translate(68.408203 -15.625)scale(0.7)" xlink:href="#DejaVuSans-Oblique-47"/>
      <use transform="translate(125.385742 0.78125)" xlink:href="#DejaVuSans-20"/>
      <use transform="translate(157.172852 0.78125)" xlink:href="#DejaVuSans-3d"/>
      <use transform="translate(240.961914 0.78125)" xlink:href="#DejaVuSans-20"/>
      <use transform="translate(272.749023 0.78125)" xlink:href="#DejaVuSans-20"/>
      <use transform="translate(304.536133 0.78125)" xlink:href="#DejaVuSans-38"/>
      <use transform="translate(368.15918 0.78125)" xlink:href="#DejaVuSans-2e"/>
      <use transform="translate(399.946289 0.78125)" xlink:href="#DejaVuSans-30"/>
      <use transform="translate(463.569336 0.78125)" xlink:href="#DejaVuSans-65"/>
      <use transform="translate(525.092773 0.78125)" xlink:href="#DejaVuSans-2d"/>
      <use transform="translate(561.176758 0.78125)" xlink:href="#DejaVuSans-30"/>
      <use transform="translate(624.799805 0.78125)" xlink:href="#DejaVuSans-31"/>
     </g>
    </g>
    <g id="line2d_53">
     <path d="M 67.65 99.486875 
L 77.65 99.486875 
" style="fill:none;stroke:#bfbf00;stroke-linecap:square;stroke-width:2;"/>
    </g>
    <g id="line2d_54"/>
    <g id="text_25">
     <!-- $V_{G}$ =  1.0e+00 -->
     <defs>
      <path d="M 46 62.703125 
L 46 35.5 
L 73.1875 35.5 
L 73.1875 27.203125 
L 46 27.203125 
L 46 0 
L 37.796875 0 
L 37.796875 27.203125 
L 10.59375 27.203125 
L 10.59375 35.5 
L 37.796875 35.5 
L 37.796875 62.703125 
z
" id="DejaVuSans-2b"/>
     </defs>
     <g transform="translate(79.65 102.986875)scale(0.12 -0.12)">
      <use transform="translate(0 0.78125)" xlink:href="#DejaVuSans-Oblique-56"/>
      <use transform="translate(68.408203 -15.625)scale(0.7)" xlink:href="#DejaVuSans-Oblique-47"/>
      <use transform="translate(125.385742 0.78125)" xlink:href="#DejaVuSans-20"/>
      <use transform="translate(157.172852 0.78125)" xlink:href="#DejaVuSans-3d"/>
      <use transform="translate(240.961914 0.78125)" xlink:href="#DejaVuSans-20"/>
      <use transform="translate(272.749023 0.78125)" xlink:href="#DejaVuSans-20"/>
      <use transform="translate(304.536133 0.78125)" xlink:href="#DejaVuSans-31"/>
      <use transform="translate(368.15918 0.78125)" xlink:href="#DejaVuSans-2e"/>
      <use transform="translate(399.946289 0.78125)" xlink:href="#DejaVuSans-30"/>
      <use transform="translate(463.569336 0.78125)" xlink:href="#DejaVuSans-65"/>
      <use transform="translate(525.092773 0.78125)" xlink:href="#DejaVuSans-2b"/>
      <use transform="translate(608.881836 0.78125)" xlink:href="#DejaVuSans-30"/>
      <use transform="translate(672.504883 0.78125)" xlink:href="#DejaVuSans-30"/>
     </g>
    </g>
    <g id="line2d_55">
     <path d="M 67.65 111.100625 
L 77.65 111.100625 
" style="fill:none;stroke:#000000;stroke-linecap:square;stroke-width:2;"/>
    </g>
    <g id="line2d_56"/>
    <g id="text_26">
     <!-- $V_{G}$ =  1.2e+00 -->
     <g transform="translate(79.65 114.600625)scale(0.12 -0.12)">
      <use transform="translate(0 0.78125)" xlink:href="#DejaVuSans-Oblique-56"/>
      <use transform="translate(68.408203 -15.625)scale(0.7)" xlink:href="#DejaVuSans-Oblique-47"/>
      <use transform="translate(125.385742 0.78125)" xlink:href="#DejaVuSans-20"/>
      <use transform="translate(157.172852 0.78125)" xlink:href="#DejaVuSans-3d"/>
      <use transform="translate(240.961914 0.78125)" xlink:href="#DejaVuSans-20"/>
      <use transform="translate(272.749023 0.78125)" xlink:href="#DejaVuSans-20"/>
      <use transform="translate(304.536133 0.78125)" xlink:href="#DejaVuSans-31"/>
      <use transform="translate(368.15918 0.78125)" xlink:href="#DejaVuSans-2e"/>
      <use transform="translate(399.868164 0.78125)" xlink:href="#DejaVuSans-32"/>
      <use transform="translate(463.491211 0.78125)" xlink:href="#DejaVuSans-65"/>
      <use transform="translate(525.014648 0.78125)" xlink:href="#DejaVuSans-2b"/>
      <use transform="translate(608.803711 0.78125)" xlink:href="#DejaVuSans-30"/>
      <use transform="translate(672.426758 0.78125)" xlink:href="#DejaVuSans-30"/>
     </g>
    </g>
    <g id="line2d_57">
     <path d="M 67.65 122.714375 
L 77.65 122.714375 
" style="fill:none;stroke:#ff0000;stroke-linecap:square;stroke-width:2;"/>
    </g>
    <g id="line2d_58"/>
    <g id="text_27">
     <!-- $V_{G}$ =  1.4e+00 -->
     <g transform="translate(79.65 126.214375)scale(0.12 -0.12)">
      <use transform="translate(0 0.78125)" xlink:href="#DejaVuSans-Oblique-56"/>
      <use transform="translate(68.408203 -15.625)scale(0.7)" xlink:href="#DejaVuSans-Oblique-47"/>
      <use transform="translate(125.385742 0.78125)" xlink:href="#DejaVuSans-20"/>
      <use transform="translate(157.172852 0.78125)" xlink:href="#DejaVuSans-3d"/>
      <use transform="translate(240.961914 0.78125)" xlink:href="#DejaVuSans-20"/>
      <use transform="translate(272.749023 0.78125)" xlink:href="#DejaVuSans-20"/>
      <use transform="translate(304.536133 0.78125)" xlink:href="#DejaVuSans-31"/>
      <use transform="translate(368.15918 0.78125)" xlink:href="#DejaVuSans-2e"/>
      <use transform="translate(399.946289 0.78125)" xlink:href="#DejaVuSans-34"/>
      <use transform="translate(463.569336 0.78125)" xlink:href="#DejaVuSans-65"/>
      <use transform="translate(525.092773 0.78125)" xlink:href="#DejaVuSans-2b"/>
      <use transform="translate(608.881836 0.78125)" xlink:href="#DejaVuSans-30"/>
      <use transform="translate(672.504883 0.78125)" xlink:href="#DejaVuSans-30"/>
     </g>
    </g>
    <g id="line2d_59">
     <path d="M 67.65 134.328125 
L 77.65 134.328125 
" style="fill:none;stroke:#0000ff;stroke-linecap:square;stroke-width:2;"/>
    </g>
    <g id="line2d_60"/>
    <g id="text_28">
     <!-- $V_{G}$ =  1.6e+00 -->
     <g transform="translate(79.65 137.828125)scale(0.12 -0.12)">
      <use transform="translate(0 0.78125)" xlink:href="#DejaVuSans-Oblique-56"/>
      <use transform="translate(68.408203 -15.625)scale(0.7)" xlink:href="#DejaVuSans-Oblique-47"/>
      <use transform="translate(125.385742 0.78125)" xlink:href="#DejaVuSans-20"/>
      <use transform="translate(157.172852 0.78125)" xlink:href="#DejaVuSans-3d"/>
      <use transform="translate(240.961914 0.78125)" xlink:href="#DejaVuSans-20"/>
      <use transform="translate(272.749023 0.78125)" xlink:href="#DejaVuSans-20"/>
      <use transform="translate(304.536133 0.78125)" xlink:href="#DejaVuSans-31"/>
      <use transform="translate(368.15918 0.78125)" xlink:href="#DejaVuSans-2e"/>
      <use transform="translate(399.946289 0.78125)" xlink:href="#DejaVuSans-36"/>
      <use transform="translate(463.569336 0.78125)" xlink:href="#DejaVuSans-65"/>
      <use transform="translate(525.092773 0.78125)" xlink:href="#DejaVuSans-2b"/>
      <use transform="translate(608.881836 0.78125)" xlink:href="#DejaVuSans-30"/>
      <use transform="translate(672.504883 0.78125)" xlink:href="#DejaVuSans-30"/>
     </g>
    </g>
    <g id="line2d_61">
     <path d="M 67.65 145.941875 
L 77.65 145.941875 
" style="fill:none;stroke:#008000;stroke-linecap:square;stroke-width:2;"/>
    </g>
    <g id="line2d_62"/>
    <g id="text_29">
     <!-- $V_{G}$ =  1.8e+00 -->
     <g transform="translate(79.65 149.441875)scale(0.12 -0.12)">
      <use transform="translate(0 0.78125)" xlink:href="#DejaVuSans-Oblique-56"/>
      <use transform="translate(68.408203 -15.625)scale(0.7)" xlink:href="#DejaVuSans-Oblique-47"/>
      <use transform="translate(125.385742 0.78125)" xlink:href="#DejaVuSans-20"/>
      <use transform="translate(157.172852 0.78125)" xlink:href="#DejaVuSans-3d"/>
      <use transform="translate(240.961914 0.78125)" xlink:href="#DejaVuSans-20"/>
      <use transform="translate(272.749023 0.78125)" xlink:href="#DejaVuSans-20"/>
      <use transform="translate(304.536133 0.78125)" xlink:href="#DejaVuSans-31"/>
      <use transform="translate(368.15918 0.78125)" xlink:href="#DejaVuSans-2e"/>
      <use transform="translate(399.915039 0.78125)" xlink:href="#DejaVuSans-38"/>
      <use transform="translate(463.538086 0.78125)" xlink:href="#DejaVuSans-65"/>
      <use transform="translate(525.061523 0.78125)" xlink:href="#DejaVuSans-2b"/>
      <use transform="translate(608.850586 0.78125)" xlink:href="#DejaVuSans-30"/>
      <use transform="translate(672.473633 0.78125)" xlink:href="#DejaVuSans-30"/>
     </g>
    </g>
   </g>
  </g>
 </g>
 <defs>
  <clipPath id="pe199247544">
   <rect height="280.3" width="429.05" x="60.65" y="28.8"/>
  </clipPath>
 </defs>
</svg>
