<?xml version="1.0" encoding="utf-8" standalone="no"?>
<!DOCTYPE svg PUBLIC "-//W3C//DTD SVG 1.1//EN"
  "http://www.w3.org/Graphics/SVG/1.1/DTD/svg11.dtd">
<!-- Created with matplotlib (http://matplotlib.org/) -->
<svg height="360pt" version="1.1" viewBox="0 0 504 360" width="504pt" xmlns="http://www.w3.org/2000/svg" xmlns:xlink="http://www.w3.org/1999/xlink">
 <defs>
  <style type="text/css">
*{stroke-linecap:butt;stroke-linejoin:round;}
  </style>
 </defs>
 <g id="figure_1">
  <g id="patch_1">
   <path d="M 0 360 
L 504 360 
L 504 0 
L 0 0 
z
" style="fill:#ffffff;"/>
  </g>
  <g id="axes_1">
   <g id="patch_2">
    <path d="M 60.65 309.1 
L 489.7 309.1 
L 489.7 28.7 
L 60.65 28.7 
z
" style="fill:#ffffff;"/>
   </g>
   <g id="matplotlib.axis_1">
    <g id="xtick_1">
     <g id="line2d_1">
      <path clip-path="url(#p4e49c3e476)" d="M 80.152273 309.1 
L 80.152273 28.7 
" style="fill:none;stroke:#808080;stroke-linecap:square;stroke-width:0.8;"/>
     </g>
     <g id="line2d_2">
      <defs>
       <path d="M 0 0 
L 0 3.5 
" id="mcbbf0d0ea3" style="stroke:#000000;stroke-width:0.8;"/>
      </defs>
      <g>
       <use style="stroke:#000000;stroke-width:0.8;" x="80.152273" xlink:href="#mcbbf0d0ea3" y="309.1"/>
      </g>
     </g>
     <g id="text_1">
      <!-- 0.00 -->
      <defs>
       <path d="M 31.78125 66.40625 
Q 24.171875 66.40625 20.328125 58.90625 
Q 16.5 51.421875 16.5 36.375 
Q 16.5 21.390625 20.328125 13.890625 
Q 24.171875 6.390625 31.78125 6.390625 
Q 39.453125 6.390625 43.28125 13.890625 
Q 47.125 21.390625 47.125 36.375 
Q 47.125 51.421875 43.28125 58.90625 
Q 39.453125 66.40625 31.78125 66.40625 
z
M 31.78125 74.21875 
Q 44.046875 74.21875 50.515625 64.515625 
Q 56.984375 54.828125 56.984375 36.375 
Q 56.984375 17.96875 50.515625 8.265625 
Q 44.046875 -1.421875 31.78125 -1.421875 
Q 19.53125 -1.421875 13.0625 8.265625 
Q 6.59375 17.96875 6.59375 36.375 
Q 6.59375 54.828125 13.0625 64.515625 
Q 19.53125 74.21875 31.78125 74.21875 
z
" id="DejaVuSans-30"/>
       <path d="M 10.6875 12.40625 
L 21 12.40625 
L 21 0 
L 10.6875 0 
z
" id="DejaVuSans-2e"/>
      </defs>
      <g transform="translate(66.792898 325.218125)scale(0.12 -0.12)">
       <use xlink:href="#DejaVuSans-30"/>
       <use x="63.623047" xlink:href="#DejaVuSans-2e"/>
       <use x="95.410156" xlink:href="#DejaVuSans-30"/>
       <use x="159.033203" xlink:href="#DejaVuSans-30"/>
      </g>
     </g>
    </g>
    <g id="xtick_2">
     <g id="line2d_3">
      <path clip-path="url(#p4e49c3e476)" d="M 134.325253 309.1 
L 134.325253 28.7 
" style="fill:none;stroke:#808080;stroke-linecap:square;stroke-width:0.8;"/>
     </g>
     <g id="line2d_4">
      <g>
       <use style="stroke:#000000;stroke-width:0.8;" x="134.325253" xlink:href="#mcbbf0d0ea3" y="309.1"/>
      </g>
     </g>
     <g id="text_2">
      <!-- 0.25 -->
      <defs>
       <path d="M 19.1875 8.296875 
L 53.609375 8.296875 
L 53.609375 0 
L 7.328125 0 
L 7.328125 8.296875 
Q 12.9375 14.109375 22.625 23.890625 
Q 32.328125 33.6875 34.8125 36.53125 
Q 39.546875 41.84375 41.421875 45.53125 
Q 43.3125 49.21875 43.3125 52.78125 
Q 43.3125 58.59375 39.234375 62.25 
Q 35.15625 65.921875 28.609375 65.921875 
Q 23.96875 65.921875 18.8125 64.3125 
Q 13.671875 62.703125 7.8125 59.421875 
L 7.8125 69.390625 
Q 13.765625 71.78125 18.9375 73 
Q 24.125 74.21875 28.421875 74.21875 
Q 39.75 74.21875 46.484375 68.546875 
Q 53.21875 62.890625 53.21875 53.421875 
Q 53.21875 48.921875 51.53125 44.890625 
Q 49.859375 40.875 45.40625 35.40625 
Q 44.1875 33.984375 37.640625 27.21875 
Q 31.109375 20.453125 19.1875 8.296875 
z
" id="DejaVuSans-32"/>
       <path d="M 10.796875 72.90625 
L 49.515625 72.90625 
L 49.515625 64.59375 
L 19.828125 64.59375 
L 19.828125 46.734375 
Q 21.96875 47.46875 24.109375 47.828125 
Q 26.265625 48.1875 28.421875 48.1875 
Q 40.625 48.1875 47.75 41.5 
Q 54.890625 34.8125 54.890625 23.390625 
Q 54.890625 11.625 47.5625 5.09375 
Q 40.234375 -1.421875 26.90625 -1.421875 
Q 22.3125 -1.421875 17.546875 -0.640625 
Q 12.796875 0.140625 7.71875 1.703125 
L 7.71875 11.625 
Q 12.109375 9.234375 16.796875 8.0625 
Q 21.484375 6.890625 26.703125 6.890625 
Q 35.15625 6.890625 40.078125 11.328125 
Q 45.015625 15.765625 45.015625 23.390625 
Q 45.015625 31 40.078125 35.4375 
Q 35.15625 39.890625 26.703125 39.890625 
Q 22.75 39.890625 18.8125 39.015625 
Q 14.890625 38.140625 10.796875 36.28125 
z
" id="DejaVuSans-35"/>
      </defs>
      <g transform="translate(120.965878 325.218125)scale(0.12 -0.12)">
       <use xlink:href="#DejaVuSans-30"/>
       <use x="63.623047" xlink:href="#DejaVuSans-2e"/>
       <use x="95.410156" xlink:href="#DejaVuSans-32"/>
       <use x="159.033203" xlink:href="#DejaVuSans-35"/>
      </g>
     </g>
    </g>
    <g id="xtick_3">
     <g id="line2d_5">
      <path clip-path="url(#p4e49c3e476)" d="M 188.498232 309.1 
L 188.498232 28.7 
" style="fill:none;stroke:#808080;stroke-linecap:square;stroke-width:0.8;"/>
     </g>
     <g id="line2d_6">
      <g>
       <use style="stroke:#000000;stroke-width:0.8;" x="188.498232" xlink:href="#mcbbf0d0ea3" y="309.1"/>
      </g>
     </g>
     <g id="text_3">
      <!-- 0.50 -->
      <g transform="translate(175.138857 325.218125)scale(0.12 -0.12)">
       <use xlink:href="#DejaVuSans-30"/>
       <use x="63.623047" xlink:href="#DejaVuSans-2e"/>
       <use x="95.410156" xlink:href="#DejaVuSans-35"/>
       <use x="159.033203" xlink:href="#DejaVuSans-30"/>
      </g>
     </g>
    </g>
    <g id="xtick_4">
     <g id="line2d_7">
      <path clip-path="url(#p4e49c3e476)" d="M 242.671212 309.1 
L 242.671212 28.7 
" style="fill:none;stroke:#808080;stroke-linecap:square;stroke-width:0.8;"/>
     </g>
     <g id="line2d_8">
      <g>
       <use style="stroke:#000000;stroke-width:0.8;" x="242.671212" xlink:href="#mcbbf0d0ea3" y="309.1"/>
      </g>
     </g>
     <g id="text_4">
      <!-- 0.75 -->
      <defs>
       <path d="M 8.203125 72.90625 
L 55.078125 72.90625 
L 55.078125 68.703125 
L 28.609375 0 
L 18.3125 0 
L 43.21875 64.59375 
L 8.203125 64.59375 
z
" id="DejaVuSans-37"/>
      </defs>
      <g transform="translate(229.311837 325.218125)scale(0.12 -0.12)">
       <use xlink:href="#DejaVuSans-30"/>
       <use x="63.623047" xlink:href="#DejaVuSans-2e"/>
       <use x="95.410156" xlink:href="#DejaVuSans-37"/>
       <use x="159.033203" xlink:href="#DejaVuSans-35"/>
      </g>
     </g>
    </g>
    <g id="xtick_5">
     <g id="line2d_9">
      <path clip-path="url(#p4e49c3e476)" d="M 296.844192 309.1 
L 296.844192 28.7 
" style="fill:none;stroke:#808080;stroke-linecap:square;stroke-width:0.8;"/>
     </g>
     <g id="line2d_10">
      <g>
       <use style="stroke:#000000;stroke-width:0.8;" x="296.844192" xlink:href="#mcbbf0d0ea3" y="309.1"/>
      </g>
     </g>
     <g id="text_5">
      <!-- 1.00 -->
      <defs>
       <path d="M 12.40625 8.296875 
L 28.515625 8.296875 
L 28.515625 63.921875 
L 10.984375 60.40625 
L 10.984375 69.390625 
L 28.421875 72.90625 
L 38.28125 72.90625 
L 38.28125 8.296875 
L 54.390625 8.296875 
L 54.390625 0 
L 12.40625 0 
z
" id="DejaVuSans-31"/>
      </defs>
      <g transform="translate(283.484817 325.218125)scale(0.12 -0.12)">
       <use xlink:href="#DejaVuSans-31"/>
       <use x="63.623047" xlink:href="#DejaVuSans-2e"/>
       <use x="95.410156" xlink:href="#DejaVuSans-30"/>
       <use x="159.033203" xlink:href="#DejaVuSans-30"/>
      </g>
     </g>
    </g>
    <g id="xtick_6">
     <g id="line2d_11">
      <path clip-path="url(#p4e49c3e476)" d="M 351.017172 309.1 
L 351.017172 28.7 
" style="fill:none;stroke:#808080;stroke-linecap:square;stroke-width:0.8;"/>
     </g>
     <g id="line2d_12">
      <g>
       <use style="stroke:#000000;stroke-width:0.8;" x="351.017172" xlink:href="#mcbbf0d0ea3" y="309.1"/>
      </g>
     </g>
     <g id="text_6">
      <!-- 1.25 -->
      <g transform="translate(337.657797 325.218125)scale(0.12 -0.12)">
       <use xlink:href="#DejaVuSans-31"/>
       <use x="63.623047" xlink:href="#DejaVuSans-2e"/>
       <use x="95.410156" xlink:href="#DejaVuSans-32"/>
       <use x="159.033203" xlink:href="#DejaVuSans-35"/>
      </g>
     </g>
    </g>
    <g id="xtick_7">
     <g id="line2d_13">
      <path clip-path="url(#p4e49c3e476)" d="M 405.190152 309.1 
L 405.190152 28.7 
" style="fill:none;stroke:#808080;stroke-linecap:square;stroke-width:0.8;"/>
     </g>
     <g id="line2d_14">
      <g>
       <use style="stroke:#000000;stroke-width:0.8;" x="405.190152" xlink:href="#mcbbf0d0ea3" y="309.1"/>
      </g>
     </g>
     <g id="text_7">
      <!-- 1.50 -->
      <g transform="translate(391.830777 325.218125)scale(0.12 -0.12)">
       <use xlink:href="#DejaVuSans-31"/>
       <use x="63.623047" xlink:href="#DejaVuSans-2e"/>
       <use x="95.410156" xlink:href="#DejaVuSans-35"/>
       <use x="159.033203" xlink:href="#DejaVuSans-30"/>
      </g>
     </g>
    </g>
    <g id="xtick_8">
     <g id="line2d_15">
      <path clip-path="url(#p4e49c3e476)" d="M 459.363131 309.1 
L 459.363131 28.7 
" style="fill:none;stroke:#808080;stroke-linecap:square;stroke-width:0.8;"/>
     </g>
     <g id="line2d_16">
      <g>
       <use style="stroke:#000000;stroke-width:0.8;" x="459.363131" xlink:href="#mcbbf0d0ea3" y="309.1"/>
      </g>
     </g>
     <g id="text_8">
      <!-- 1.75 -->
      <g transform="translate(446.003756 325.218125)scale(0.12 -0.12)">
       <use xlink:href="#DejaVuSans-31"/>
       <use x="63.623047" xlink:href="#DejaVuSans-2e"/>
       <use x="95.410156" xlink:href="#DejaVuSans-37"/>
       <use x="159.033203" xlink:href="#DejaVuSans-35"/>
      </g>
     </g>
    </g>
    <g id="text_9">
     <!-- $V_{G}$[V] -->
     <defs>
      <path d="M 20.609375 0 
L 7.8125 72.90625 
L 17.484375 72.90625 
L 28.078125 10.203125 
L 63.484375 72.90625 
L 74.21875 72.90625 
L 32.078125 0 
z
" id="DejaVuSans-Oblique-56"/>
      <path d="M 54.59375 10.890625 
L 58.40625 29.984375 
L 42.1875 29.984375 
L 43.703125 38.09375 
L 69.578125 38.09375 
L 63.28125 6 
Q 56.78125 2.4375 49.109375 0.5 
Q 41.453125 -1.421875 33.6875 -1.421875 
Q 19.96875 -1.421875 12.234375 6.1875 
Q 4.5 13.8125 4.5 27.390625 
Q 4.5 38.671875 9.203125 48.84375 
Q 13.921875 59.03125 22.21875 65.828125 
Q 27.4375 70.0625 33.640625 72.140625 
Q 39.84375 74.21875 47.40625 74.21875 
Q 54.25 74.21875 60.515625 72.484375 
Q 66.796875 70.75 72.515625 67.28125 
L 70.515625 56.78125 
Q 66.109375 61.375 60.203125 63.796875 
Q 54.296875 66.21875 47.609375 66.21875 
Q 39.84375 66.21875 33.9375 63.25 
Q 28.03125 60.296875 23.390625 54.109375 
Q 19.4375 48.828125 17.15625 41.671875 
Q 14.890625 34.515625 14.890625 27.09375 
Q 14.890625 16.890625 20.109375 11.734375 
Q 25.34375 6.59375 35.6875 6.59375 
Q 40.875 6.59375 45.703125 7.6875 
Q 50.53125 8.796875 54.59375 10.890625 
z
" id="DejaVuSans-Oblique-47"/>
      <path d="M 8.59375 75.984375 
L 29.296875 75.984375 
L 29.296875 69 
L 17.578125 69 
L 17.578125 -6.203125 
L 29.296875 -6.203125 
L 29.296875 -13.1875 
L 8.59375 -13.1875 
z
" id="DejaVuSans-5b"/>
      <path d="M 28.609375 0 
L 0.78125 72.90625 
L 11.078125 72.90625 
L 34.1875 11.53125 
L 57.328125 72.90625 
L 67.578125 72.90625 
L 39.796875 0 
z
" id="DejaVuSans-56"/>
      <path d="M 30.421875 75.984375 
L 30.421875 -13.1875 
L 9.71875 -13.1875 
L 9.71875 -6.203125 
L 21.390625 -6.203125 
L 21.390625 69 
L 9.71875 69 
L 9.71875 75.984375 
z
" id="DejaVuSans-5d"/>
     </defs>
     <g transform="translate(258.855 340.831875)scale(0.12 -0.12)">
      <use transform="translate(0 0.015625)" xlink:href="#DejaVuSans-Oblique-56"/>
      <use transform="translate(68.408203 -16.390625)scale(0.7)" xlink:href="#DejaVuSans-Oblique-47"/>
      <use transform="translate(125.385742 0.015625)" xlink:href="#DejaVuSans-5b"/>
      <use transform="translate(164.399414 0.015625)" xlink:href="#DejaVuSans-56"/>
      <use transform="translate(232.807617 0.015625)" xlink:href="#DejaVuSans-5d"/>
     </g>
    </g>
   </g>
   <g id="matplotlib.axis_2">
    <g id="ytick_1">
     <g id="line2d_17">
      <path clip-path="url(#p4e49c3e476)" d="M 60.65 296.354545 
L 489.7 296.354545 
" style="fill:none;stroke:#808080;stroke-linecap:square;stroke-width:0.8;"/>
     </g>
     <g id="line2d_18">
      <defs>
       <path d="M 0 0 
L -3.5 0 
" id="m9907ee6a5a" style="stroke:#000000;stroke-width:0.8;"/>
      </defs>
      <g>
       <use style="stroke:#000000;stroke-width:0.8;" x="60.65" xlink:href="#m9907ee6a5a" y="296.354545"/>
      </g>
     </g>
     <g id="text_10">
      <!-- 0 -->
      <g transform="translate(46.015 300.913608)scale(0.12 -0.12)">
       <use xlink:href="#DejaVuSans-30"/>
      </g>
     </g>
    </g>
    <g id="ytick_2">
     <g id="line2d_19">
      <path clip-path="url(#p4e49c3e476)" d="M 60.65 260.338402 
L 489.7 260.338402 
" style="fill:none;stroke:#808080;stroke-linecap:square;stroke-width:0.8;"/>
     </g>
     <g id="line2d_20">
      <g>
       <use style="stroke:#000000;stroke-width:0.8;" x="60.65" xlink:href="#m9907ee6a5a" y="260.338402"/>
      </g>
     </g>
     <g id="text_11">
      <!-- 25 -->
      <g transform="translate(38.38 264.897465)scale(0.12 -0.12)">
       <use xlink:href="#DejaVuSans-32"/>
       <use x="63.623047" xlink:href="#DejaVuSans-35"/>
      </g>
     </g>
    </g>
    <g id="ytick_3">
     <g id="line2d_21">
      <path clip-path="url(#p4e49c3e476)" d="M 60.65 224.322259 
L 489.7 224.322259 
" style="fill:none;stroke:#808080;stroke-linecap:square;stroke-width:0.8;"/>
     </g>
     <g id="line2d_22">
      <g>
       <use style="stroke:#000000;stroke-width:0.8;" x="60.65" xlink:href="#m9907ee6a5a" y="224.322259"/>
      </g>
     </g>
     <g id="text_12">
      <!-- 50 -->
      <g transform="translate(38.38 228.881322)scale(0.12 -0.12)">
       <use xlink:href="#DejaVuSans-35"/>
       <use x="63.623047" xlink:href="#DejaVuSans-30"/>
      </g>
     </g>
    </g>
    <g id="ytick_4">
     <g id="line2d_23">
      <path clip-path="url(#p4e49c3e476)" d="M 60.65 188.306117 
L 489.7 188.306117 
" style="fill:none;stroke:#808080;stroke-linecap:square;stroke-width:0.8;"/>
     </g>
     <g id="line2d_24">
      <g>
       <use style="stroke:#000000;stroke-width:0.8;" x="60.65" xlink:href="#m9907ee6a5a" y="188.306117"/>
      </g>
     </g>
     <g id="text_13">
      <!-- 75 -->
      <g transform="translate(38.38 192.865179)scale(0.12 -0.12)">
       <use xlink:href="#DejaVuSans-37"/>
       <use x="63.623047" xlink:href="#DejaVuSans-35"/>
      </g>
     </g>
    </g>
    <g id="ytick_5">
     <g id="line2d_25">
      <path clip-path="url(#p4e49c3e476)" d="M 60.65 152.289974 
L 489.7 152.289974 
" style="fill:none;stroke:#808080;stroke-linecap:square;stroke-width:0.8;"/>
     </g>
     <g id="line2d_26">
      <g>
       <use style="stroke:#000000;stroke-width:0.8;" x="60.65" xlink:href="#m9907ee6a5a" y="152.289974"/>
      </g>
     </g>
     <g id="text_14">
      <!-- 100 -->
      <g transform="translate(30.745 156.849036)scale(0.12 -0.12)">
       <use xlink:href="#DejaVuSans-31"/>
       <use x="63.623047" xlink:href="#DejaVuSans-30"/>
       <use x="127.246094" xlink:href="#DejaVuSans-30"/>
      </g>
     </g>
    </g>
    <g id="ytick_6">
     <g id="line2d_27">
      <path clip-path="url(#p4e49c3e476)" d="M 60.65 116.273831 
L 489.7 116.273831 
" style="fill:none;stroke:#808080;stroke-linecap:square;stroke-width:0.8;"/>
     </g>
     <g id="line2d_28">
      <g>
       <use style="stroke:#000000;stroke-width:0.8;" x="60.65" xlink:href="#m9907ee6a5a" y="116.273831"/>
      </g>
     </g>
     <g id="text_15">
      <!-- 125 -->
      <g transform="translate(30.745 120.832893)scale(0.12 -0.12)">
       <use xlink:href="#DejaVuSans-31"/>
       <use x="63.623047" xlink:href="#DejaVuSans-32"/>
       <use x="127.246094" xlink:href="#DejaVuSans-35"/>
      </g>
     </g>
    </g>
    <g id="ytick_7">
     <g id="line2d_29">
      <path clip-path="url(#p4e49c3e476)" d="M 60.65 80.257688 
L 489.7 80.257688 
" style="fill:none;stroke:#808080;stroke-linecap:square;stroke-width:0.8;"/>
     </g>
     <g id="line2d_30">
      <g>
       <use style="stroke:#000000;stroke-width:0.8;" x="60.65" xlink:href="#m9907ee6a5a" y="80.257688"/>
      </g>
     </g>
     <g id="text_16">
      <!-- 150 -->
      <g transform="translate(30.745 84.81675)scale(0.12 -0.12)">
       <use xlink:href="#DejaVuSans-31"/>
       <use x="63.623047" xlink:href="#DejaVuSans-35"/>
       <use x="127.246094" xlink:href="#DejaVuSans-30"/>
      </g>
     </g>
    </g>
    <g id="ytick_8">
     <g id="line2d_31">
      <path clip-path="url(#p4e49c3e476)" d="M 60.65 44.241545 
L 489.7 44.241545 
" style="fill:none;stroke:#808080;stroke-linecap:square;stroke-width:0.8;"/>
     </g>
     <g id="line2d_32">
      <g>
       <use style="stroke:#000000;stroke-width:0.8;" x="60.65" xlink:href="#m9907ee6a5a" y="44.241545"/>
      </g>
     </g>
     <g id="text_17">
      <!-- 175 -->
      <g transform="translate(30.745 48.800607)scale(0.12 -0.12)">
       <use xlink:href="#DejaVuSans-31"/>
       <use x="63.623047" xlink:href="#DejaVuSans-37"/>
       <use x="127.246094" xlink:href="#DejaVuSans-35"/>
      </g>
     </g>
    </g>
    <g id="text_18">
     <!-- $I_{DS X1}$[uA] -->
     <defs>
      <path d="M 16.890625 72.90625 
L 26.8125 72.90625 
L 12.59375 0 
L 2.6875 0 
z
" id="DejaVuSans-Oblique-49"/>
      <path d="M 16.890625 72.90625 
L 38.09375 72.90625 
Q 54.984375 72.90625 63.59375 65.75 
Q 72.21875 58.59375 72.21875 44.484375 
Q 72.21875 35.15625 68.9375 26.53125 
Q 65.671875 17.921875 59.90625 12.015625 
Q 54.109375 5.953125 45.171875 2.96875 
Q 36.234375 0 24.03125 0 
L 2.6875 0 
z
M 25.203125 64.796875 
L 14.203125 8.109375 
L 27.09375 8.109375 
Q 43.65625 8.109375 52.734375 17.625 
Q 61.8125 27.15625 61.8125 44.484375 
Q 61.8125 54.984375 55.953125 59.890625 
Q 50.09375 64.796875 37.59375 64.796875 
z
" id="DejaVuSans-Oblique-44"/>
      <path d="M 60.296875 70.515625 
L 58.40625 60.890625 
Q 53.46875 63.53125 48.609375 64.875 
Q 43.75 66.21875 39.203125 66.21875 
Q 30.375 66.21875 25.140625 62.359375 
Q 19.921875 58.5 19.921875 52.09375 
Q 19.921875 48.578125 21.84375 46.703125 
Q 23.78125 44.828125 31.78125 42.671875 
L 37.703125 41.21875 
Q 47.703125 38.625 51.609375 34.640625 
Q 55.515625 30.671875 55.515625 23.484375 
Q 55.515625 12.453125 46.84375 5.515625 
Q 38.1875 -1.421875 24.03125 -1.421875 
Q 18.21875 -1.421875 12.359375 -0.265625 
Q 6.5 0.875 0.59375 3.21875 
L 2.59375 13.375 
Q 8.015625 10.015625 13.453125 8.296875 
Q 18.890625 6.59375 24.3125 6.59375 
Q 33.546875 6.59375 39.109375 10.6875 
Q 44.671875 14.796875 44.671875 21.390625 
Q 44.671875 25.78125 42.453125 28.046875 
Q 40.234375 30.328125 32.90625 32.171875 
L 27 33.6875 
Q 16.890625 36.328125 13.203125 39.765625 
Q 9.515625 43.21875 9.515625 49.421875 
Q 9.515625 60.296875 17.890625 67.25 
Q 26.265625 74.21875 39.703125 74.21875 
Q 44.921875 74.21875 50.046875 73.28125 
Q 55.171875 72.359375 60.296875 70.515625 
z
" id="DejaVuSans-Oblique-53"/>
      <path d="M 13.71875 72.90625 
L 23.6875 72.90625 
L 36.1875 46.578125 
L 58.796875 72.90625 
L 70.3125 72.90625 
L 40.28125 38.09375 
L 58.40625 0 
L 48.484375 0 
L 33.796875 30.71875 
L 7.171875 0 
L -4.296875 0 
L 29.78125 39.203125 
z
" id="DejaVuSans-Oblique-58"/>
      <path d="M 8.5 21.578125 
L 8.5 54.6875 
L 17.484375 54.6875 
L 17.484375 21.921875 
Q 17.484375 14.15625 20.5 10.265625 
Q 23.53125 6.390625 29.59375 6.390625 
Q 36.859375 6.390625 41.078125 11.03125 
Q 45.3125 15.671875 45.3125 23.6875 
L 45.3125 54.6875 
L 54.296875 54.6875 
L 54.296875 0 
L 45.3125 0 
L 45.3125 8.40625 
Q 42.046875 3.421875 37.71875 1 
Q 33.40625 -1.421875 27.6875 -1.421875 
Q 18.265625 -1.421875 13.375 4.4375 
Q 8.5 10.296875 8.5 21.578125 
z
M 31.109375 56 
z
" id="DejaVuSans-75"/>
      <path d="M 34.1875 63.1875 
L 20.796875 26.90625 
L 47.609375 26.90625 
z
M 28.609375 72.90625 
L 39.796875 72.90625 
L 67.578125 0 
L 57.328125 0 
L 50.6875 18.703125 
L 17.828125 18.703125 
L 11.1875 0 
L 0.78125 0 
z
" id="DejaVuSans-41"/>
     </defs>
     <g transform="translate(24.249375 194.88)rotate(-90)scale(0.12 -0.12)">
      <use transform="translate(0 0.015625)" xlink:href="#DejaVuSans-Oblique-49"/>
      <use transform="translate(29.492188 -16.390625)scale(0.7)" xlink:href="#DejaVuSans-Oblique-44"/>
      <use transform="translate(83.393555 -16.390625)scale(0.7)" xlink:href="#DejaVuSans-Oblique-53"/>
      <use transform="translate(127.827148 -16.390625)scale(0.7)" xlink:href="#DejaVuSans-Oblique-58"/>
      <use transform="translate(175.78125 -16.390625)scale(0.7)" xlink:href="#DejaVuSans-31"/>
      <use transform="translate(223.051758 0.015625)" xlink:href="#DejaVuSans-5b"/>
      <use transform="translate(262.06543 0.015625)" xlink:href="#DejaVuSans-75"/>
      <use transform="translate(325.444336 0.015625)" xlink:href="#DejaVuSans-41"/>
      <use transform="translate(393.852539 0.015625)" xlink:href="#DejaVuSans-5d"/>
     </g>
    </g>
   </g>
   <g id="line2d_33">
    <path clip-path="url(#p4e49c3e476)" d="M 80.152273 296.354545 
L 88.112384 296.354545 
L 96.072495 296.354545 
L 104.032607 296.354545 
L 111.992718 296.354545 
L 119.952829 296.354545 
L 127.912941 296.354545 
L 135.873052 296.354545 
L 143.833163 296.354545 
L 151.793275 296.354545 
L 159.753386 296.354545 
L 167.713497 296.354545 
L 175.673609 296.354545 
L 183.63372 296.354545 
L 191.593831 296.354545 
L 199.553942 296.354545 
L 207.514054 296.354545 
L 215.474165 296.354545 
L 223.434276 296.354545 
L 231.394388 296.354545 
L 239.354499 296.354545 
L 247.31461 296.354545 
L 255.274722 296.354545 
L 263.234833 296.354545 
L 271.194944 296.354545 
L 279.155056 296.354545 
L 287.115167 296.354545 
L 295.075278 296.354545 
L 303.03539 296.354545 
L 310.995501 296.354545 
L 318.955612 296.354545 
L 326.915724 296.354545 
L 334.875835 296.354545 
L 342.835946 296.354545 
L 350.796058 296.354545 
L 358.756169 296.354545 
L 366.71628 296.354545 
L 374.676391 296.354545 
L 382.636503 296.354545 
L 390.596614 296.354545 
L 398.556725 296.354545 
L 406.516837 296.354545 
L 414.476948 296.354545 
L 422.437059 296.354545 
L 430.397171 296.354545 
L 438.357282 296.354545 
L 446.317393 296.354545 
L 454.277505 296.354545 
L 462.237616 296.354545 
L 470.197727 296.354545 
" style="fill:none;stroke:#ff0000;stroke-linecap:square;stroke-width:2;"/>
   </g>
   <g id="line2d_34">
    <path clip-path="url(#p4e49c3e476)" d="M 80.152273 296.354507 
L 88.112384 296.354436 
L 96.072495 296.354235 
L 104.032607 296.353668 
L 111.992718 296.352081 
L 119.952829 296.347714 
L 127.912941 296.336006 
L 135.873052 296.305844 
L 143.833163 296.232605 
L 151.793275 296.068687 
L 159.753386 295.737548 
L 167.713497 295.141573 
L 175.673609 294.18659 
L 183.63372 292.809101 
L 191.593831 290.989403 
L 199.553942 288.749637 
L 207.514054 286.147229 
L 215.474165 283.269746 
L 223.434276 280.226707 
L 231.394388 277.131977 
L 239.354499 274.081251 
L 247.31461 271.137727 
L 255.274722 268.332236 
L 263.234833 265.672493 
L 271.194944 263.153468 
L 279.155056 260.764821 
L 287.115167 258.495042 
L 295.075278 256.333312 
L 303.03539 254.270123 
L 310.995501 252.297323 
L 318.955612 250.407948 
L 326.915724 248.596007 
L 334.875835 246.856286 
L 342.835946 245.184184 
L 350.796058 243.575595 
L 358.756169 242.026811 
L 366.71628 240.53446 
L 374.676391 239.095449 
L 382.636503 237.706929 
L 390.596614 236.366264 
L 398.556725 235.071006 
L 406.516837 233.818877 
L 414.476948 232.607751 
L 422.437059 231.435645 
L 430.397171 230.300699 
L 438.357282 229.201174 
L 446.317393 228.135434 
L 454.277505 227.101947 
L 462.237616 226.099269 
L 470.197727 225.126043 
" style="fill:none;stroke:#0000ff;stroke-linecap:square;stroke-width:2;"/>
   </g>
   <g id="line2d_35">
    <path clip-path="url(#p4e49c3e476)" d="M 80.152273 296.354506 
L 88.112384 296.354433 
L 96.072495 296.354227 
L 104.032607 296.353644 
L 111.992718 296.352013 
L 119.952829 296.347526 
L 127.912941 296.335496 
L 135.873052 296.304501 
L 143.833163 296.229233 
L 151.793275 296.060748 
L 159.753386 295.720275 
L 167.713497 295.107135 
L 175.673609 294.123481 
L 183.63372 292.701192 
L 191.593831 290.812942 
L 199.553942 288.46547 
L 207.514054 285.685607 
L 215.474165 282.508235 
L 223.434276 278.969093 
L 231.394388 275.101687 
L 239.354499 270.936882 
L 247.31461 266.504461 
L 255.274722 261.836754 
L 263.234833 256.974636 
L 271.194944 251.974541 
L 279.155056 246.911402 
L 287.115167 241.871014 
L 295.075278 236.932736 
L 303.03539 232.153578 
L 310.995501 227.563375 
L 318.955612 223.170102 
L 326.915724 218.968553 
L 334.875835 214.947499 
L 342.835946 211.094027 
L 350.796058 207.395649 
L 358.756169 203.841095 
L 366.71628 200.42045 
L 374.676391 197.125035 
L 382.636503 193.947212 
L 390.596614 190.880192 
L 398.556725 187.917873 
L 406.516837 185.054719 
L 414.476948 182.285658 
L 422.437059 179.606018 
L 430.397171 177.011465 
L 438.357282 174.497965 
L 446.317393 172.06175 
L 454.277505 169.699293 
L 462.237616 167.407283 
L 470.197727 165.182609 
" style="fill:none;stroke:#008000;stroke-linecap:square;stroke-width:2;"/>
   </g>
   <g id="line2d_36">
    <path clip-path="url(#p4e49c3e476)" d="M 80.152273 296.354505 
L 88.112384 296.354431 
L 96.072495 296.354219 
L 104.032607 296.35362 
L 111.992718 296.351946 
L 119.952829 296.347342 
L 127.912941 296.334994 
L 135.873052 296.303184 
L 143.833163 296.225935 
L 151.793275 296.053016 
L 159.753386 295.703583 
L 167.713497 295.074307 
L 175.673609 294.064767 
L 183.63372 292.605045 
L 191.593831 290.667093 
L 199.553942 288.257816 
L 207.514054 285.404717 
L 215.474165 282.1435 
L 223.434276 278.510597 
L 231.394388 274.539713 
L 239.354499 270.260756 
L 247.31461 265.699861 
L 255.274722 260.879836 
L 263.234833 255.8207 
L 271.194944 250.540175 
L 279.155056 245.054148 
L 287.115167 239.37714 
L 295.075278 233.522974 
L 303.03539 227.505968 
L 310.995501 221.34331 
L 318.955612 215.059327 
L 326.915724 208.691447 
L 334.875835 202.294679 
L 342.835946 195.938598 
L 350.796058 189.694284 
L 358.756169 183.618276 
L 366.71628 177.744057 
L 374.676391 172.083808 
L 382.636503 166.635442 
L 390.596614 161.389555 
L 398.556725 156.334105 
L 406.516837 151.456886 
L 414.476948 146.746576 
L 422.437059 142.19303 
L 430.397171 137.787248 
L 438.357282 133.521216 
L 446.317393 129.387743 
L 454.277505 125.38031 
L 462.237616 121.492951 
L 470.197727 117.720161 
" style="fill:none;stroke:#00bfbf;stroke-linecap:square;stroke-width:2;"/>
   </g>
   <g id="line2d_37">
    <path clip-path="url(#p4e49c3e476)" d="M 80.152273 296.354504 
L 88.112384 296.354428 
L 96.072495 296.35421 
L 104.032607 296.353596 
L 111.992718 296.35188 
L 119.952829 296.347157 
L 127.912941 296.334493 
L 135.873052 296.301867 
L 143.833163 296.222637 
L 151.793275 296.045284 
L 159.753386 295.686892 
L 167.713497 295.041481 
L 175.673609 294.006055 
L 183.63372 292.508904 
L 191.593831 290.521261 
L 199.553942 288.050208 
L 207.514054 285.123952 
L 215.474165 281.779114 
L 223.434276 278.053059 
L 231.394388 273.980357 
L 239.354499 269.591681 
L 247.31461 264.913833 
L 255.274722 259.970201 
L 263.234833 254.781294 
L 271.194944 249.365234 
L 279.155056 243.738161 
L 287.115167 237.914554 
L 295.075278 231.907485 
L 303.03539 225.72882 
L 310.995501 219.389377 
L 318.955612 212.899063 
L 326.915724 206.266991 
L 334.875835 199.501606 
L 342.835946 192.610866 
L 350.796058 185.602567 
L 358.756169 178.485072 
L 366.71628 171.268881 
L 374.676391 163.969758 
L 382.636503 156.613682 
L 390.596614 149.241949 
L 398.556725 141.911544 
L 406.516837 134.686419 
L 414.476948 127.622792 
L 422.437059 120.758152 
L 430.397171 114.109625 
L 438.357282 107.679103 
L 446.317393 101.459814 
L 454.277505 95.441291 
L 462.237616 89.612233 
L 470.197727 83.961838 
" style="fill:none;stroke:#bf00bf;stroke-linecap:square;stroke-width:2;"/>
   </g>
   <g id="line2d_38">
    <path clip-path="url(#p4e49c3e476)" d="M 80.152273 296.354503 
L 88.112384 296.354425 
L 96.072495 296.354202 
L 104.032607 296.353573 
L 111.992718 296.351813 
L 119.952829 296.346972 
L 127.912941 296.333992 
L 135.873052 296.30055 
L 143.833163 296.21934 
L 151.793275 296.037553 
L 159.753386 295.6702 
L 167.713497 295.008654 
L 175.673609 293.947342 
L 183.63372 292.412763 
L 191.593831 290.375429 
L 199.553942 287.842599 
L 207.514054 284.843187 
L 215.474165 281.414729 
L 223.434276 277.595522 
L 231.394388 273.421003 
L 239.354499 268.92261 
L 247.31461 264.127815 
L 255.274722 259.060592 
L 263.234833 253.741963 
L 271.194944 248.190502 
L 279.155056 242.422752 
L 287.115167 236.453554 
L 295.075278 230.296307 
L 303.03539 223.963171 
L 310.995501 217.465231 
L 318.955612 210.812629 
L 326.915724 204.014671 
L 334.875835 197.079919 
L 342.835946 190.016268 
L 350.796058 182.831011 
L 358.756169 175.530901 
L 366.71628 168.122198 
L 374.676391 160.610721 
L 382.636503 153.001893 
L 390.596614 145.300803 
L 398.556725 137.512301 
L 406.516837 129.641203 
L 414.476948 121.692752 
L 422.437059 113.673701 
L 430.397171 105.594569 
L 438.357282 97.473629 
L 446.317393 89.341912 
L 454.277505 81.245776 
L 462.237616 73.242096 
L 470.197727 65.385931 
" style="fill:none;stroke:#bfbf00;stroke-linecap:square;stroke-width:2;"/>
   </g>
   <g id="line2d_39">
    <path clip-path="url(#p4e49c3e476)" d="M 80.152273 296.354502 
L 88.112384 296.354422 
L 96.072495 296.354193 
L 104.032607 296.353549 
L 111.992718 296.351747 
L 119.952829 296.346788 
L 127.912941 296.33349 
L 135.873052 296.299233 
L 143.833163 296.216042 
L 151.793275 296.029821 
L 159.753386 295.653509 
L 167.713497 294.975827 
L 175.673609 293.88863 
L 183.63372 292.316622 
L 191.593831 290.229597 
L 199.553942 287.634991 
L 207.514054 284.562422 
L 215.474165 281.050343 
L 223.434276 277.137985 
L 231.394388 272.861648 
L 239.354499 268.253538 
L 247.31461 263.341797 
L 255.274722 258.150984 
L 263.234833 252.702631 
L 271.194944 247.015769 
L 279.155056 241.107342 
L 287.115167 234.992554 
L 295.075278 228.68513 
L 303.03539 222.197527 
L 310.995501 215.541101 
L 318.955612 208.726241 
L 326.915724 201.762479 
L 334.875835 194.658587 
L 342.835946 187.422651 
L 350.796058 180.062143 
L 358.756169 172.583979 
L 366.71628 164.99457 
L 374.676391 157.299867 
L 382.636503 149.505405 
L 390.596614 141.616338 
L 398.556725 133.637468 
L 406.516837 125.57328 
L 414.476948 117.427963 
L 422.437059 109.205441 
L 430.397171 100.909389 
L 438.357282 92.543263 
L 446.317393 84.11033 
L 454.277505 75.61373 
L 462.237616 67.0566 
L 470.197727 58.442383 
" style="fill:none;stroke:#000000;stroke-linecap:square;stroke-width:2;"/>
   </g>
   <g id="line2d_40">
    <path clip-path="url(#p4e49c3e476)" d="M 80.152273 296.354501 
L 88.112384 296.354419 
L 96.072495 296.354185 
L 104.032607 296.353525 
L 111.992718 296.35168 
L 119.952829 296.346603 
L 127.912941 296.332989 
L 135.873052 296.297916 
L 143.833163 296.212744 
L 151.793275 296.02209 
L 159.753386 295.636818 
L 167.713497 294.943001 
L 175.673609 293.829918 
L 183.63372 292.220481 
L 191.593831 290.083765 
L 199.553942 287.427382 
L 207.514054 284.281657 
L 215.474165 280.685957 
L 223.434276 276.680448 
L 231.394388 272.302293 
L 239.354499 267.584466 
L 247.31461 262.55578 
L 255.274722 257.241375 
L 263.234833 251.6633 
L 271.194944 245.841036 
L 279.155056 239.791932 
L 287.115167 233.531554 
L 295.075278 227.073954 
L 303.03539 220.431884 
L 310.995501 213.616972 
L 318.955612 206.639853 
L 326.915724 199.510287 
L 334.875835 192.237254 
L 342.835946 184.829034 
L 350.796058 177.293277 
L 358.756169 169.637061 
L 366.71628 161.866951 
L 374.676391 153.989041 
L 382.636503 146.008997 
L 390.596614 137.932095 
L 398.556725 129.763251 
L 406.516837 121.507058 
L 414.476948 113.167804 
L 422.437059 104.749504 
L 430.397171 96.255915 
L 438.357282 87.690562 
L 446.317393 79.056752 
L 454.277505 70.357594 
L 462.237616 61.596009 
L 470.197727 52.774749 
" style="fill:none;stroke:#ff0000;stroke-linecap:square;stroke-width:2;"/>
   </g>
   <g id="line2d_41">
    <path clip-path="url(#p4e49c3e476)" d="M 80.152273 296.3545 
L 88.112384 296.354416 
L 96.072495 296.354177 
L 104.032607 296.353501 
L 111.992718 296.351613 
L 119.952829 296.346418 
L 127.912941 296.332488 
L 135.873052 296.296599 
L 143.833163 296.209447 
L 151.793275 296.014358 
L 159.753386 295.620126 
L 167.713497 294.910174 
L 175.673609 293.771206 
L 183.63372 292.12434 
L 191.593831 289.937933 
L 199.553942 287.219774 
L 207.514054 284.000892 
L 215.474165 280.321571 
L 223.434276 276.22291 
L 231.394388 271.742939 
L 239.354499 266.915395 
L 247.31461 261.769762 
L 255.274722 256.331766 
L 263.234833 250.623969 
L 271.194944 244.666303 
L 279.155056 238.476523 
L 287.115167 232.070554 
L 295.075278 225.462777 
L 303.03539 218.666241 
L 310.995501 211.692842 
L 318.955612 204.553464 
L 326.915724 197.258095 
L 334.875835 189.815922 
L 342.835946 182.235418 
L 350.796058 174.52441 
L 358.756169 166.690143 
L 366.71628 158.739333 
L 374.676391 150.678216 
L 382.636503 142.512589 
L 390.596614 134.247852 
L 398.556725 125.889035 
L 406.516837 117.440837 
L 414.476948 108.907648 
L 422.437059 100.293572 
L 430.397171 91.602458 
L 438.357282 82.837911 
L 446.317393 74.003315 
L 454.277505 65.101851 
L 462.237616 56.136508 
L 470.197727 47.110101 
" style="fill:none;stroke:#0000ff;stroke-linecap:square;stroke-width:2;"/>
   </g>
   <g id="line2d_42">
    <path clip-path="url(#p4e49c3e476)" d="M 80.152273 296.354499 
L 88.112384 296.354413 
L 96.072495 296.354168 
L 104.032607 296.353478 
L 111.992718 296.351547 
L 119.952829 296.346233 
L 127.912941 296.331986 
L 135.873052 296.295282 
L 143.833163 296.206149 
L 151.793275 296.006627 
L 159.753386 295.603435 
L 167.713497 294.877347 
L 175.673609 293.712493 
L 183.63372 292.028199 
L 191.593831 289.792101 
L 199.553942 287.012165 
L 207.514054 283.720127 
L 215.474165 279.957186 
L 223.434276 275.765373 
L 231.394388 271.183584 
L 239.354499 266.246323 
L 247.31461 260.983744 
L 255.274722 255.422158 
L 263.234833 249.584637 
L 271.194944 243.49157 
L 279.155056 237.161113 
L 287.115167 230.609555 
L 295.075278 223.8516 
L 303.03539 216.900598 
L 310.995501 209.768713 
L 318.955612 202.467076 
L 326.915724 195.005903 
L 334.875835 187.39459 
L 342.835946 179.641801 
L 350.796058 171.755543 
L 358.756169 163.743225 
L 366.71628 155.611714 
L 374.676391 147.36739 
L 382.636503 139.016181 
L 390.596614 130.563609 
L 398.556725 122.014819 
L 406.516837 113.374617 
L 414.476948 104.647491 
L 422.437059 95.837641 
L 430.397171 86.949001 
L 438.357282 77.98526 
L 446.317393 68.949878 
L 454.277505 59.846108 
L 462.237616 50.677007 
L 470.197727 41.445455 
" style="fill:none;stroke:#008000;stroke-linecap:square;stroke-width:2;"/>
   </g>
   <g id="patch_3">
    <path d="M 60.65 309.1 
L 60.65 28.7 
" style="fill:none;stroke:#000000;stroke-linecap:square;stroke-linejoin:miter;stroke-width:0.8;"/>
   </g>
   <g id="patch_4">
    <path d="M 489.7 309.1 
L 489.7 28.7 
" style="fill:none;stroke:#000000;stroke-linecap:square;stroke-linejoin:miter;stroke-width:0.8;"/>
   </g>
   <g id="patch_5">
    <path d="M 60.65 309.1 
L 489.7 309.1 
" style="fill:none;stroke:#000000;stroke-linecap:square;stroke-linejoin:miter;stroke-width:0.8;"/>
   </g>
   <g id="patch_6">
    <path d="M 60.65 28.7 
L 489.7 28.7 
" style="fill:none;stroke:#000000;stroke-linecap:square;stroke-linejoin:miter;stroke-width:0.8;"/>
   </g>
   <g id="text_19">
    <!-- $I_{ds}(V_{gs})$ -->
    <defs>
     <path d="M 41.796875 8.203125 
Q 38.1875 3.46875 33.25 1.015625 
Q 28.328125 -1.421875 22.3125 -1.421875 
Q 14.109375 -1.421875 9.34375 4.171875 
Q 4.59375 9.765625 4.59375 19.484375 
Q 4.59375 27.59375 7.46875 34.9375 
Q 10.359375 42.28125 15.828125 48.09375 
Q 19.4375 51.953125 23.96875 53.96875 
Q 28.515625 56 33.5 56 
Q 38.765625 56 42.796875 53.453125 
Q 46.828125 50.921875 49.03125 46.1875 
L 54.890625 75.984375 
L 63.921875 75.984375 
L 49.125 0 
L 40.09375 0 
z
M 13.921875 21.09375 
Q 13.921875 14.015625 17.109375 10.0625 
Q 20.3125 6.109375 25.984375 6.109375 
Q 30.171875 6.109375 33.765625 8.125 
Q 37.359375 10.15625 40.09375 14.109375 
Q 42.96875 18.21875 44.625 23.578125 
Q 46.296875 28.953125 46.296875 34.1875 
Q 46.296875 40.96875 43.09375 44.765625 
Q 39.890625 48.578125 34.28125 48.578125 
Q 30.03125 48.578125 26.359375 46.578125 
Q 22.703125 44.578125 20.125 40.828125 
Q 17.28125 36.765625 15.59375 31.390625 
Q 13.921875 26.03125 13.921875 21.09375 
z
" id="DejaVuSans-Oblique-64"/>
     <path d="M 50 53.078125 
L 48.296875 44.578125 
Q 44.734375 46.53125 40.765625 47.5 
Q 36.8125 48.484375 32.625 48.484375 
Q 25.53125 48.484375 21.453125 46.0625 
Q 17.390625 43.65625 17.390625 39.5 
Q 17.390625 34.671875 26.859375 32.078125 
Q 27.59375 31.890625 27.9375 31.78125 
L 30.8125 30.90625 
Q 39.796875 28.421875 42.796875 25.6875 
Q 45.796875 22.953125 45.796875 18.21875 
Q 45.796875 9.515625 38.890625 4.046875 
Q 31.984375 -1.421875 20.796875 -1.421875 
Q 16.453125 -1.421875 11.671875 -0.578125 
Q 6.890625 0.25 1.125 2 
L 2.875 11.28125 
Q 7.8125 8.734375 12.59375 7.421875 
Q 17.390625 6.109375 21.78125 6.109375 
Q 28.375 6.109375 32.5 8.9375 
Q 36.625 11.765625 36.625 16.109375 
Q 36.625 20.796875 25.78125 23.6875 
L 24.859375 23.921875 
L 21.78125 24.703125 
Q 14.9375 26.515625 11.765625 29.46875 
Q 8.59375 32.421875 8.59375 37.015625 
Q 8.59375 45.75 15.15625 50.875 
Q 21.734375 56 33.015625 56 
Q 37.453125 56 41.671875 55.265625 
Q 45.90625 54.546875 50 53.078125 
z
" id="DejaVuSans-Oblique-73"/>
     <path d="M 31 75.875 
Q 24.46875 64.65625 21.28125 53.65625 
Q 18.109375 42.671875 18.109375 31.390625 
Q 18.109375 20.125 21.3125 9.0625 
Q 24.515625 -2 31 -13.1875 
L 23.1875 -13.1875 
Q 15.875 -1.703125 12.234375 9.375 
Q 8.59375 20.453125 8.59375 31.390625 
Q 8.59375 42.28125 12.203125 53.3125 
Q 15.828125 64.359375 23.1875 75.875 
z
" id="DejaVuSans-28"/>
     <path d="M 59.625 54.6875 
L 50.296875 6.78125 
Q 47.609375 -7.125 40.015625 -13.953125 
Q 32.421875 -20.796875 19.578125 -20.796875 
Q 14.84375 -20.796875 10.78125 -20.09375 
Q 6.734375 -19.390625 3.21875 -17.921875 
L 4.890625 -9.1875 
Q 8.203125 -11.328125 11.90625 -12.34375 
Q 15.625 -13.375 19.828125 -13.375 
Q 28.375 -13.375 33.859375 -8.703125 
Q 39.359375 -4.046875 41.109375 4.6875 
L 41.890625 8.796875 
Q 38.140625 4.5 33.15625 2.25 
Q 28.171875 0 22.40625 0 
Q 14.109375 0 9.34375 5.484375 
Q 4.59375 10.984375 4.59375 20.609375 
Q 4.59375 28.171875 7.46875 35.421875 
Q 10.359375 42.671875 15.578125 48.296875 
Q 19.046875 52 23.65625 54 
Q 28.265625 56 33.296875 56 
Q 38.8125 56 42.90625 53.4375 
Q 47.015625 50.875 49.03125 46.1875 
L 50.59375 54.6875 
z
M 46.09375 34.625 
Q 46.09375 41.265625 42.96875 44.875 
Q 39.84375 48.484375 34.078125 48.484375 
Q 30.515625 48.484375 27.296875 47.0625 
Q 24.078125 45.65625 21.78125 43.109375 
Q 18.0625 38.921875 15.984375 33.234375 
Q 13.921875 27.546875 13.921875 21.484375 
Q 13.921875 14.75 17.0625 11.125 
Q 20.21875 7.515625 26.125 7.515625 
Q 34.671875 7.515625 40.375 15.25 
Q 46.09375 23 46.09375 34.625 
z
" id="DejaVuSans-Oblique-67"/>
     <path d="M 8.015625 75.875 
L 15.828125 75.875 
Q 23.140625 64.359375 26.78125 53.3125 
Q 30.421875 42.28125 30.421875 31.390625 
Q 30.421875 20.453125 26.78125 9.375 
Q 23.140625 -1.703125 15.828125 -13.1875 
L 8.015625 -13.1875 
Q 14.5 -2 17.703125 9.0625 
Q 20.90625 20.125 20.90625 31.390625 
Q 20.90625 42.671875 17.703125 53.65625 
Q 14.5 64.65625 8.015625 75.875 
z
" id="DejaVuSans-29"/>
    </defs>
    <g transform="translate(254.535 22.7)scale(0.12 -0.12)">
     <use transform="translate(0 0.125)" xlink:href="#DejaVuSans-Oblique-49"/>
     <use transform="translate(29.492188 -16.28125)scale(0.7)" xlink:href="#DejaVuSans-Oblique-64"/>
     <use transform="translate(73.925781 -16.28125)scale(0.7)" xlink:href="#DejaVuSans-Oblique-73"/>
     <use transform="translate(113.129883 0.125)" xlink:href="#DejaVuSans-28"/>
     <use transform="translate(152.143555 0.125)" xlink:href="#DejaVuSans-Oblique-56"/>
     <use transform="translate(220.551758 -16.28125)scale(0.7)" xlink:href="#DejaVuSans-Oblique-67"/>
     <use transform="translate(264.985352 -16.28125)scale(0.7)" xlink:href="#DejaVuSans-Oblique-73"/>
     <use transform="translate(304.189453 0.125)" xlink:href="#DejaVuSans-29"/>
    </g>
   </g>
   <g id="legend_1">
    <g id="patch_7">
     <path d="M 67.65 153.8375 
L 145.29 153.8375 
Q 147.29 153.8375 147.29 151.8375 
L 147.29 35.7 
Q 147.29 33.7 145.29 33.7 
L 67.65 33.7 
Q 65.65 33.7 65.65 35.7 
L 65.65 151.8375 
Q 65.65 153.8375 67.65 153.8375 
z
" style="fill:#ffffff;opacity:0.8;stroke:#cccccc;stroke-linejoin:miter;"/>
    </g>
    <g id="line2d_43">
     <path d="M 67.65 41.318125 
L 77.65 41.318125 
" style="fill:none;stroke:#ff0000;stroke-linecap:square;stroke-width:2;"/>
    </g>
    <g id="line2d_44"/>
    <g id="text_20">
     <!-- $V_{D}$=0.0 [V] -->
     <defs>
      <path d="M 10.59375 45.40625 
L 73.1875 45.40625 
L 73.1875 37.203125 
L 10.59375 37.203125 
z
M 10.59375 25.484375 
L 73.1875 25.484375 
L 73.1875 17.1875 
L 10.59375 17.1875 
z
" id="DejaVuSans-3d"/>
      <path id="DejaVuSans-20"/>
     </defs>
     <g transform="translate(79.65 44.818125)scale(0.12 -0.12)">
      <use transform="translate(0 0.015625)" xlink:href="#DejaVuSans-Oblique-56"/>
      <use transform="translate(68.408203 -16.390625)scale(0.7)" xlink:href="#DejaVuSans-Oblique-44"/>
      <use transform="translate(125.043945 0.015625)" xlink:href="#DejaVuSans-3d"/>
      <use transform="translate(208.833008 0.015625)" xlink:href="#DejaVuSans-30"/>
      <use transform="translate(272.456055 0.015625)" xlink:href="#DejaVuSans-2e"/>
      <use transform="translate(304.243164 0.015625)" xlink:href="#DejaVuSans-30"/>
      <use transform="translate(367.866211 0.015625)" xlink:href="#DejaVuSans-20"/>
      <use transform="translate(399.65332 0.015625)" xlink:href="#DejaVuSans-5b"/>
      <use transform="translate(438.666992 0.015625)" xlink:href="#DejaVuSans-56"/>
      <use transform="translate(507.075195 0.015625)" xlink:href="#DejaVuSans-5d"/>
     </g>
    </g>
    <g id="line2d_45">
     <path d="M 67.65 52.931875 
L 77.65 52.931875 
" style="fill:none;stroke:#0000ff;stroke-linecap:square;stroke-width:2;"/>
    </g>
    <g id="line2d_46"/>
    <g id="text_21">
     <!-- $V_{D}$=0.2 [V] -->
     <g transform="translate(79.65 56.431875)scale(0.12 -0.12)">
      <use transform="translate(0 0.015625)" xlink:href="#DejaVuSans-Oblique-56"/>
      <use transform="translate(68.408203 -16.390625)scale(0.7)" xlink:href="#DejaVuSans-Oblique-44"/>
      <use transform="translate(125.043945 0.015625)" xlink:href="#DejaVuSans-3d"/>
      <use transform="translate(208.833008 0.015625)" xlink:href="#DejaVuSans-30"/>
      <use transform="translate(272.456055 0.015625)" xlink:href="#DejaVuSans-2e"/>
      <use transform="translate(304.165039 0.015625)" xlink:href="#DejaVuSans-32"/>
      <use transform="translate(367.788086 0.015625)" xlink:href="#DejaVuSans-20"/>
      <use transform="translate(399.575195 0.015625)" xlink:href="#DejaVuSans-5b"/>
      <use transform="translate(438.588867 0.015625)" xlink:href="#DejaVuSans-56"/>
      <use transform="translate(506.99707 0.015625)" xlink:href="#DejaVuSans-5d"/>
     </g>
    </g>
    <g id="line2d_47">
     <path d="M 67.65 64.545625 
L 77.65 64.545625 
" style="fill:none;stroke:#008000;stroke-linecap:square;stroke-width:2;"/>
    </g>
    <g id="line2d_48"/>
    <g id="text_22">
     <!-- $V_{D}$=0.4 [V] -->
     <defs>
      <path d="M 37.796875 64.3125 
L 12.890625 25.390625 
L 37.796875 25.390625 
z
M 35.203125 72.90625 
L 47.609375 72.90625 
L 47.609375 25.390625 
L 58.015625 25.390625 
L 58.015625 17.1875 
L 47.609375 17.1875 
L 47.609375 0 
L 37.796875 0 
L 37.796875 17.1875 
L 4.890625 17.1875 
L 4.890625 26.703125 
z
" id="DejaVuSans-34"/>
     </defs>
     <g transform="translate(79.65 68.045625)scale(0.12 -0.12)">
      <use transform="translate(0 0.015625)" xlink:href="#DejaVuSans-Oblique-56"/>
      <use transform="translate(68.408203 -16.390625)scale(0.7)" xlink:href="#DejaVuSans-Oblique-44"/>
      <use transform="translate(125.043945 0.015625)" xlink:href="#DejaVuSans-3d"/>
      <use transform="translate(208.833008 0.015625)" xlink:href="#DejaVuSans-30"/>
      <use transform="translate(272.456055 0.015625)" xlink:href="#DejaVuSans-2e"/>
      <use transform="translate(304.243164 0.015625)" xlink:href="#DejaVuSans-34"/>
      <use transform="translate(367.866211 0.015625)" xlink:href="#DejaVuSans-20"/>
      <use transform="translate(399.65332 0.015625)" xlink:href="#DejaVuSans-5b"/>
      <use transform="translate(438.666992 0.015625)" xlink:href="#DejaVuSans-56"/>
      <use transform="translate(507.075195 0.015625)" xlink:href="#DejaVuSans-5d"/>
     </g>
    </g>
    <g id="line2d_49">
     <path d="M 67.65 76.159375 
L 77.65 76.159375 
" style="fill:none;stroke:#00bfbf;stroke-linecap:square;stroke-width:2;"/>
    </g>
    <g id="line2d_50"/>
    <g id="text_23">
     <!-- $V_{D}$=0.6 [V] -->
     <defs>
      <path d="M 33.015625 40.375 
Q 26.375 40.375 22.484375 35.828125 
Q 18.609375 31.296875 18.609375 23.390625 
Q 18.609375 15.53125 22.484375 10.953125 
Q 26.375 6.390625 33.015625 6.390625 
Q 39.65625 6.390625 43.53125 10.953125 
Q 47.40625 15.53125 47.40625 23.390625 
Q 47.40625 31.296875 43.53125 35.828125 
Q 39.65625 40.375 33.015625 40.375 
z
M 52.59375 71.296875 
L 52.59375 62.3125 
Q 48.875 64.0625 45.09375 64.984375 
Q 41.3125 65.921875 37.59375 65.921875 
Q 27.828125 65.921875 22.671875 59.328125 
Q 17.53125 52.734375 16.796875 39.40625 
Q 19.671875 43.65625 24.015625 45.921875 
Q 28.375 48.1875 33.59375 48.1875 
Q 44.578125 48.1875 50.953125 41.515625 
Q 57.328125 34.859375 57.328125 23.390625 
Q 57.328125 12.15625 50.6875 5.359375 
Q 44.046875 -1.421875 33.015625 -1.421875 
Q 20.359375 -1.421875 13.671875 8.265625 
Q 6.984375 17.96875 6.984375 36.375 
Q 6.984375 53.65625 15.1875 63.9375 
Q 23.390625 74.21875 37.203125 74.21875 
Q 40.921875 74.21875 44.703125 73.484375 
Q 48.484375 72.75 52.59375 71.296875 
z
" id="DejaVuSans-36"/>
     </defs>
     <g transform="translate(79.65 79.659375)scale(0.12 -0.12)">
      <use transform="translate(0 0.015625)" xlink:href="#DejaVuSans-Oblique-56"/>
      <use transform="translate(68.408203 -16.390625)scale(0.7)" xlink:href="#DejaVuSans-Oblique-44"/>
      <use transform="translate(125.043945 0.015625)" xlink:href="#DejaVuSans-3d"/>
      <use transform="translate(208.833008 0.015625)" xlink:href="#DejaVuSans-30"/>
      <use transform="translate(272.456055 0.015625)" xlink:href="#DejaVuSans-2e"/>
      <use transform="translate(304.243164 0.015625)" xlink:href="#DejaVuSans-36"/>
      <use transform="translate(367.866211 0.015625)" xlink:href="#DejaVuSans-20"/>
      <use transform="translate(399.65332 0.015625)" xlink:href="#DejaVuSans-5b"/>
      <use transform="translate(438.666992 0.015625)" xlink:href="#DejaVuSans-56"/>
      <use transform="translate(507.075195 0.015625)" xlink:href="#DejaVuSans-5d"/>
     </g>
    </g>
    <g id="line2d_51">
     <path d="M 67.65 87.773125 
L 77.65 87.773125 
" style="fill:none;stroke:#bf00bf;stroke-linecap:square;stroke-width:2;"/>
    </g>
    <g id="line2d_52"/>
    <g id="text_24">
     <!-- $V_{D}$=0.8 [V] -->
     <defs>
      <path d="M 31.78125 34.625 
Q 24.75 34.625 20.71875 30.859375 
Q 16.703125 27.09375 16.703125 20.515625 
Q 16.703125 13.921875 20.71875 10.15625 
Q 24.75 6.390625 31.78125 6.390625 
Q 38.8125 6.390625 42.859375 10.171875 
Q 46.921875 13.96875 46.921875 20.515625 
Q 46.921875 27.09375 42.890625 30.859375 
Q 38.875 34.625 31.78125 34.625 
z
M 21.921875 38.8125 
Q 15.578125 40.375 12.03125 44.71875 
Q 8.5 49.078125 8.5 55.328125 
Q 8.5 64.0625 14.71875 69.140625 
Q 20.953125 74.21875 31.78125 74.21875 
Q 42.671875 74.21875 48.875 69.140625 
Q 55.078125 64.0625 55.078125 55.328125 
Q 55.078125 49.078125 51.53125 44.71875 
Q 48 40.375 41.703125 38.8125 
Q 48.828125 37.15625 52.796875 32.3125 
Q 56.78125 27.484375 56.78125 20.515625 
Q 56.78125 9.90625 50.3125 4.234375 
Q 43.84375 -1.421875 31.78125 -1.421875 
Q 19.734375 -1.421875 13.25 4.234375 
Q 6.78125 9.90625 6.78125 20.515625 
Q 6.78125 27.484375 10.78125 32.3125 
Q 14.796875 37.15625 21.921875 38.8125 
z
M 18.3125 54.390625 
Q 18.3125 48.734375 21.84375 45.5625 
Q 25.390625 42.390625 31.78125 42.390625 
Q 38.140625 42.390625 41.71875 45.5625 
Q 45.3125 48.734375 45.3125 54.390625 
Q 45.3125 60.0625 41.71875 63.234375 
Q 38.140625 66.40625 31.78125 66.40625 
Q 25.390625 66.40625 21.84375 63.234375 
Q 18.3125 60.0625 18.3125 54.390625 
z
" id="DejaVuSans-38"/>
     </defs>
     <g transform="translate(79.65 91.273125)scale(0.12 -0.12)">
      <use transform="translate(0 0.015625)" xlink:href="#DejaVuSans-Oblique-56"/>
      <use transform="translate(68.408203 -16.390625)scale(0.7)" xlink:href="#DejaVuSans-Oblique-44"/>
      <use transform="translate(125.043945 0.015625)" xlink:href="#DejaVuSans-3d"/>
      <use transform="translate(208.833008 0.015625)" xlink:href="#DejaVuSans-30"/>
      <use transform="translate(272.456055 0.015625)" xlink:href="#DejaVuSans-2e"/>
      <use transform="translate(304.211914 0.015625)" xlink:href="#DejaVuSans-38"/>
      <use transform="translate(367.834961 0.015625)" xlink:href="#DejaVuSans-20"/>
      <use transform="translate(399.62207 0.015625)" xlink:href="#DejaVuSans-5b"/>
      <use transform="translate(438.635742 0.015625)" xlink:href="#DejaVuSans-56"/>
      <use transform="translate(507.043945 0.015625)" xlink:href="#DejaVuSans-5d"/>
     </g>
    </g>
    <g id="line2d_53">
     <path d="M 67.65 99.386875 
L 77.65 99.386875 
" style="fill:none;stroke:#bfbf00;stroke-linecap:square;stroke-width:2;"/>
    </g>
    <g id="line2d_54"/>
    <g id="text_25">
     <!-- $V_{D}$=1.0 [V] -->
     <g transform="translate(79.65 102.886875)scale(0.12 -0.12)">
      <use transform="translate(0 0.015625)" xlink:href="#DejaVuSans-Oblique-56"/>
      <use transform="translate(68.408203 -16.390625)scale(0.7)" xlink:href="#DejaVuSans-Oblique-44"/>
      <use transform="translate(125.043945 0.015625)" xlink:href="#DejaVuSans-3d"/>
      <use transform="translate(208.833008 0.015625)" xlink:href="#DejaVuSans-31"/>
      <use transform="translate(272.456055 0.015625)" xlink:href="#DejaVuSans-2e"/>
      <use transform="translate(304.243164 0.015625)" xlink:href="#DejaVuSans-30"/>
      <use transform="translate(367.866211 0.015625)" xlink:href="#DejaVuSans-20"/>
      <use transform="translate(399.65332 0.015625)" xlink:href="#DejaVuSans-5b"/>
      <use transform="translate(438.666992 0.015625)" xlink:href="#DejaVuSans-56"/>
      <use transform="translate(507.075195 0.015625)" xlink:href="#DejaVuSans-5d"/>
     </g>
    </g>
    <g id="line2d_55">
     <path d="M 67.65 111.000625 
L 77.65 111.000625 
" style="fill:none;stroke:#000000;stroke-linecap:square;stroke-width:2;"/>
    </g>
    <g id="line2d_56"/>
    <g id="text_26">
     <!-- $V_{D}$=1.2 [V] -->
     <g transform="translate(79.65 114.500625)scale(0.12 -0.12)">
      <use transform="translate(0 0.015625)" xlink:href="#DejaVuSans-Oblique-56"/>
      <use transform="translate(68.408203 -16.390625)scale(0.7)" xlink:href="#DejaVuSans-Oblique-44"/>
      <use transform="translate(125.043945 0.015625)" xlink:href="#DejaVuSans-3d"/>
      <use transform="translate(208.833008 0.015625)" xlink:href="#DejaVuSans-31"/>
      <use transform="translate(272.456055 0.015625)" xlink:href="#DejaVuSans-2e"/>
      <use transform="translate(304.165039 0.015625)" xlink:href="#DejaVuSans-32"/>
      <use transform="translate(367.788086 0.015625)" xlink:href="#DejaVuSans-20"/>
      <use transform="translate(399.575195 0.015625)" xlink:href="#DejaVuSans-5b"/>
      <use transform="translate(438.588867 0.015625)" xlink:href="#DejaVuSans-56"/>
      <use transform="translate(506.99707 0.015625)" xlink:href="#DejaVuSans-5d"/>
     </g>
    </g>
    <g id="line2d_57">
     <path d="M 67.65 122.614375 
L 77.65 122.614375 
" style="fill:none;stroke:#ff0000;stroke-linecap:square;stroke-width:2;"/>
    </g>
    <g id="line2d_58"/>
    <g id="text_27">
     <!-- $V_{D}$=1.4 [V] -->
     <g transform="translate(79.65 126.114375)scale(0.12 -0.12)">
      <use transform="translate(0 0.015625)" xlink:href="#DejaVuSans-Oblique-56"/>
      <use transform="translate(68.408203 -16.390625)scale(0.7)" xlink:href="#DejaVuSans-Oblique-44"/>
      <use transform="translate(125.043945 0.015625)" xlink:href="#DejaVuSans-3d"/>
      <use transform="translate(208.833008 0.015625)" xlink:href="#DejaVuSans-31"/>
      <use transform="translate(272.456055 0.015625)" xlink:href="#DejaVuSans-2e"/>
      <use transform="translate(304.243164 0.015625)" xlink:href="#DejaVuSans-34"/>
      <use transform="translate(367.866211 0.015625)" xlink:href="#DejaVuSans-20"/>
      <use transform="translate(399.65332 0.015625)" xlink:href="#DejaVuSans-5b"/>
      <use transform="translate(438.666992 0.015625)" xlink:href="#DejaVuSans-56"/>
      <use transform="translate(507.075195 0.015625)" xlink:href="#DejaVuSans-5d"/>
     </g>
    </g>
    <g id="line2d_59">
     <path d="M 67.65 134.228125 
L 77.65 134.228125 
" style="fill:none;stroke:#0000ff;stroke-linecap:square;stroke-width:2;"/>
    </g>
    <g id="line2d_60"/>
    <g id="text_28">
     <!-- $V_{D}$=1.6 [V] -->
     <g transform="translate(79.65 137.728125)scale(0.12 -0.12)">
      <use transform="translate(0 0.015625)" xlink:href="#DejaVuSans-Oblique-56"/>
      <use transform="translate(68.408203 -16.390625)scale(0.7)" xlink:href="#DejaVuSans-Oblique-44"/>
      <use transform="translate(125.043945 0.015625)" xlink:href="#DejaVuSans-3d"/>
      <use transform="translate(208.833008 0.015625)" xlink:href="#DejaVuSans-31"/>
      <use transform="translate(272.456055 0.015625)" xlink:href="#DejaVuSans-2e"/>
      <use transform="translate(304.243164 0.015625)" xlink:href="#DejaVuSans-36"/>
      <use transform="translate(367.866211 0.015625)" xlink:href="#DejaVuSans-20"/>
      <use transform="translate(399.65332 0.015625)" xlink:href="#DejaVuSans-5b"/>
      <use transform="translate(438.666992 0.015625)" xlink:href="#DejaVuSans-56"/>
      <use transform="translate(507.075195 0.015625)" xlink:href="#DejaVuSans-5d"/>
     </g>
    </g>
    <g id="line2d_61">
     <path d="M 67.65 145.841875 
L 77.65 145.841875 
" style="fill:none;stroke:#008000;stroke-linecap:square;stroke-width:2;"/>
    </g>
    <g id="line2d_62"/>
    <g id="text_29">
     <!-- $V_{D}$=1.8 [V] -->
     <g transform="translate(79.65 149.341875)scale(0.12 -0.12)">
      <use transform="translate(0 0.015625)" xlink:href="#DejaVuSans-Oblique-56"/>
      <use transform="translate(68.408203 -16.390625)scale(0.7)" xlink:href="#DejaVuSans-Oblique-44"/>
      <use transform="translate(125.043945 0.015625)" xlink:href="#DejaVuSans-3d"/>
      <use transform="translate(208.833008 0.015625)" xlink:href="#DejaVuSans-31"/>
      <use transform="translate(272.456055 0.015625)" xlink:href="#DejaVuSans-2e"/>
      <use transform="translate(304.211914 0.015625)" xlink:href="#DejaVuSans-38"/>
      <use transform="translate(367.834961 0.015625)" xlink:href="#DejaVuSans-20"/>
      <use transform="translate(399.62207 0.015625)" xlink:href="#DejaVuSans-5b"/>
      <use transform="translate(438.635742 0.015625)" xlink:href="#DejaVuSans-56"/>
      <use transform="translate(507.043945 0.015625)" xlink:href="#DejaVuSans-5d"/>
     </g>
    </g>
   </g>
  </g>
 </g>
 <defs>
  <clipPath id="p4e49c3e476">
   <rect height="280.4" width="429.05" x="60.65" y="28.7"/>
  </clipPath>
 </defs>
</svg>
