<?xml version="1.0" encoding="utf-8" standalone="no"?>
<!DOCTYPE svg PUBLIC "-//W3C//DTD SVG 1.1//EN"
  "http://www.w3.org/Graphics/SVG/1.1/DTD/svg11.dtd">
<!-- Created with matplotlib (https://matplotlib.org/) -->
<svg height="360pt" version="1.1" viewBox="0 0 504 360" width="504pt" xmlns="http://www.w3.org/2000/svg" xmlns:xlink="http://www.w3.org/1999/xlink">
 <defs>
  <style type="text/css">
*{stroke-linecap:butt;stroke-linejoin:round;}
  </style>
 </defs>
 <g id="figure_1">
  <g id="patch_1">
   <path d="M 0 360 
L 504 360 
L 504 0 
L 0 0 
z
" style="fill:#ffffff;"/>
  </g>
  <g id="axes_1">
   <g id="patch_2">
    <path d="M 387.905 177.295 
C 387.905 159.448119 384.389554 141.774776 377.559848 125.286408 
C 370.730142 108.79804 360.718998 93.815304 348.099347 81.195653 
C 335.479696 68.576002 320.49696 58.564858 304.008592 51.735152 
C 287.520224 44.905446 269.846881 41.39 252 41.39 
C 234.153119 41.39 216.479776 44.905446 199.991408 51.735152 
C 183.50304 58.564858 168.520304 68.576002 155.900653 81.195653 
C 143.281002 93.815304 133.269858 108.79804 126.440152 125.286408 
C 119.610446 141.774776 116.095 159.448119 116.095 177.295 
C 116.095 195.141881 119.610446 212.815224 126.440152 229.303592 
C 133.269858 245.79196 143.281002 260.774696 155.900653 273.394347 
C 168.520304 286.013998 183.50304 296.025142 199.991408 302.854848 
C 216.479776 309.684554 234.153119 313.2 252 313.2 
C 269.846881 313.2 287.520224 309.684554 304.008592 302.854848 
C 320.49696 296.025142 335.479696 286.013998 348.099347 273.394347 
C 360.718998 260.774696 370.730142 245.79196 377.559848 229.303592 
C 384.389554 212.815224 387.905 195.141881 387.905 177.295 
M 252 177.295 
C 252 177.295 252 177.295 252 177.295 
C 252 177.295 252 177.295 252 177.295 
C 252 177.295 252 177.295 252 177.295 
C 252 177.295 252 177.295 252 177.295 
C 252 177.295 252 177.295 252 177.295 
C 252 177.295 252 177.295 252 177.295 
C 252 177.295 252 177.295 252 177.295 
C 252 177.295 252 177.295 252 177.295 
C 252 177.295 252 177.295 252 177.295 
C 252 177.295 252 177.295 252 177.295 
C 252 177.295 252 177.295 252 177.295 
C 252 177.295 252 177.295 252 177.295 
C 252 177.295 252 177.295 252 177.295 
C 252 177.295 252 177.295 252 177.295 
C 252 177.295 252 177.295 252 177.295 
C 252 177.295 252 177.295 252 177.295 
M 387.905 177.295 
z
" style="fill:#e5e5e5;"/>
   </g>
   <g id="matplotlib.axis_1">
    <g id="xtick_1">
     <g id="line2d_1">
      <path clip-path="url(#p41937855b9)" d="M 252 177.295 
L 387.905 177.295 
" style="fill:none;stroke:#808080;stroke-linecap:square;stroke-width:0.8;"/>
     </g>
     <g id="text_1">
      <!-- 0° -->
      <defs>
       <path d="M 31.78125 66.40625 
Q 24.171875 66.40625 20.328125 58.90625 
Q 16.5 51.421875 16.5 36.375 
Q 16.5 21.390625 20.328125 13.890625 
Q 24.171875 6.390625 31.78125 6.390625 
Q 39.453125 6.390625 43.28125 13.890625 
Q 47.125 21.390625 47.125 36.375 
Q 47.125 51.421875 43.28125 58.90625 
Q 39.453125 66.40625 31.78125 66.40625 
z
M 31.78125 74.21875 
Q 44.046875 74.21875 50.515625 64.515625 
Q 56.984375 54.828125 56.984375 36.375 
Q 56.984375 17.96875 50.515625 8.265625 
Q 44.046875 -1.421875 31.78125 -1.421875 
Q 19.53125 -1.421875 13.0625 8.265625 
Q 6.59375 17.96875 6.59375 36.375 
Q 6.59375 54.828125 13.0625 64.515625 
Q 19.53125 74.21875 31.78125 74.21875 
z
" id="DejaVuSans-48"/>
       <path d="M 25 67.921875 
Q 21.09375 67.921875 18.40625 65.203125 
Q 15.71875 62.5 15.71875 58.59375 
Q 15.71875 54.734375 18.40625 52.078125 
Q 21.09375 49.421875 25 49.421875 
Q 28.90625 49.421875 31.59375 52.078125 
Q 34.28125 54.734375 34.28125 58.59375 
Q 34.28125 62.453125 31.5625 65.1875 
Q 28.859375 67.921875 25 67.921875 
z
M 25 74.21875 
Q 28.125 74.21875 31 73.015625 
Q 33.890625 71.828125 35.984375 69.578125 
Q 38.234375 67.390625 39.359375 64.59375 
Q 40.484375 61.8125 40.484375 58.59375 
Q 40.484375 52.15625 35.96875 47.6875 
Q 31.453125 43.21875 24.90625 43.21875 
Q 18.3125 43.21875 13.90625 47.609375 
Q 9.515625 52 9.515625 58.59375 
Q 9.515625 65.140625 14 69.671875 
Q 18.5 74.21875 25 74.21875 
z
" id="DejaVuSans-176"/>
      </defs>
      <g style="fill:#555555;" transform="translate(395.0875 180.60625)scale(0.12 -0.12)">
       <use xlink:href="#DejaVuSans-48"/>
       <use x="63.623047" xlink:href="#DejaVuSans-176"/>
      </g>
     </g>
    </g>
    <g id="xtick_2">
     <g id="line2d_2">
      <path clip-path="url(#p41937855b9)" d="M 252 177.295 
L 348.099347 81.195653 
" style="fill:none;stroke:#808080;stroke-linecap:square;stroke-width:0.8;"/>
     </g>
     <g id="text_2">
      <!-- 45° -->
      <defs>
       <path d="M 37.796875 64.3125 
L 12.890625 25.390625 
L 37.796875 25.390625 
z
M 35.203125 72.90625 
L 47.609375 72.90625 
L 47.609375 25.390625 
L 58.015625 25.390625 
L 58.015625 17.1875 
L 47.609375 17.1875 
L 47.609375 0 
L 37.796875 0 
L 37.796875 17.1875 
L 4.890625 17.1875 
L 4.890625 26.703125 
z
" id="DejaVuSans-52"/>
       <path d="M 10.796875 72.90625 
L 49.515625 72.90625 
L 49.515625 64.59375 
L 19.828125 64.59375 
L 19.828125 46.734375 
Q 21.96875 47.46875 24.109375 47.828125 
Q 26.265625 48.1875 28.421875 48.1875 
Q 40.625 48.1875 47.75 41.5 
Q 54.890625 34.8125 54.890625 23.390625 
Q 54.890625 11.625 47.5625 5.09375 
Q 40.234375 -1.421875 26.90625 -1.421875 
Q 22.3125 -1.421875 17.546875 -0.640625 
Q 12.796875 0.140625 7.71875 1.703125 
L 7.71875 11.625 
Q 12.109375 9.234375 16.796875 8.0625 
Q 21.484375 6.890625 26.703125 6.890625 
Q 35.15625 6.890625 40.078125 11.328125 
Q 45.015625 15.765625 45.015625 23.390625 
Q 45.015625 31 40.078125 35.4375 
Q 35.15625 39.890625 26.703125 39.890625 
Q 22.75 39.890625 18.8125 39.015625 
Q 14.890625 38.140625 10.796875 36.28125 
z
" id="DejaVuSans-53"/>
      </defs>
      <g style="fill:#555555;" transform="translate(347.363842 74.607408)scale(0.12 -0.12)">
       <use xlink:href="#DejaVuSans-52"/>
       <use x="63.623047" xlink:href="#DejaVuSans-53"/>
       <use x="127.246094" xlink:href="#DejaVuSans-176"/>
      </g>
     </g>
    </g>
    <g id="xtick_3">
     <g id="line2d_3">
      <path clip-path="url(#p41937855b9)" d="M 252 177.295 
L 252 41.39 
" style="fill:none;stroke:#808080;stroke-linecap:square;stroke-width:0.8;"/>
     </g>
     <g id="text_3">
      <!-- 90° -->
      <defs>
       <path d="M 10.984375 1.515625 
L 10.984375 10.5 
Q 14.703125 8.734375 18.5 7.8125 
Q 22.3125 6.890625 25.984375 6.890625 
Q 35.75 6.890625 40.890625 13.453125 
Q 46.046875 20.015625 46.78125 33.40625 
Q 43.953125 29.203125 39.59375 26.953125 
Q 35.25 24.703125 29.984375 24.703125 
Q 19.046875 24.703125 12.671875 31.3125 
Q 6.296875 37.9375 6.296875 49.421875 
Q 6.296875 60.640625 12.9375 67.421875 
Q 19.578125 74.21875 30.609375 74.21875 
Q 43.265625 74.21875 49.921875 64.515625 
Q 56.59375 54.828125 56.59375 36.375 
Q 56.59375 19.140625 48.40625 8.859375 
Q 40.234375 -1.421875 26.421875 -1.421875 
Q 22.703125 -1.421875 18.890625 -0.6875 
Q 15.09375 0.046875 10.984375 1.515625 
z
M 30.609375 32.421875 
Q 37.25 32.421875 41.125 36.953125 
Q 45.015625 41.5 45.015625 49.421875 
Q 45.015625 57.28125 41.125 61.84375 
Q 37.25 66.40625 30.609375 66.40625 
Q 23.96875 66.40625 20.09375 61.84375 
Q 16.21875 57.28125 16.21875 49.421875 
Q 16.21875 41.5 20.09375 36.953125 
Q 23.96875 32.421875 30.609375 32.421875 
z
" id="DejaVuSans-57"/>
      </defs>
      <g style="fill:#555555;" transform="translate(241.365 30.70125)scale(0.12 -0.12)">
       <use xlink:href="#DejaVuSans-57"/>
       <use x="63.623047" xlink:href="#DejaVuSans-48"/>
       <use x="127.246094" xlink:href="#DejaVuSans-176"/>
      </g>
     </g>
    </g>
    <g id="xtick_4">
     <g id="line2d_4">
      <path clip-path="url(#p41937855b9)" d="M 252 177.295 
L 155.900653 81.195653 
" style="fill:none;stroke:#808080;stroke-linecap:square;stroke-width:0.8;"/>
     </g>
     <g id="text_4">
      <!-- 135° -->
      <defs>
       <path d="M 12.40625 8.296875 
L 28.515625 8.296875 
L 28.515625 63.921875 
L 10.984375 60.40625 
L 10.984375 69.390625 
L 28.421875 72.90625 
L 38.28125 72.90625 
L 38.28125 8.296875 
L 54.390625 8.296875 
L 54.390625 0 
L 12.40625 0 
z
" id="DejaVuSans-49"/>
       <path d="M 40.578125 39.3125 
Q 47.65625 37.796875 51.625 33 
Q 55.609375 28.21875 55.609375 21.1875 
Q 55.609375 10.40625 48.1875 4.484375 
Q 40.765625 -1.421875 27.09375 -1.421875 
Q 22.515625 -1.421875 17.65625 -0.515625 
Q 12.796875 0.390625 7.625 2.203125 
L 7.625 11.71875 
Q 11.71875 9.328125 16.59375 8.109375 
Q 21.484375 6.890625 26.8125 6.890625 
Q 36.078125 6.890625 40.9375 10.546875 
Q 45.796875 14.203125 45.796875 21.1875 
Q 45.796875 27.640625 41.28125 31.265625 
Q 36.765625 34.90625 28.71875 34.90625 
L 20.21875 34.90625 
L 20.21875 43.015625 
L 29.109375 43.015625 
Q 36.375 43.015625 40.234375 45.921875 
Q 44.09375 48.828125 44.09375 54.296875 
Q 44.09375 59.90625 40.109375 62.90625 
Q 36.140625 65.921875 28.71875 65.921875 
Q 24.65625 65.921875 20.015625 65.03125 
Q 15.375 64.15625 9.8125 62.3125 
L 9.8125 71.09375 
Q 15.4375 72.65625 20.34375 73.4375 
Q 25.25 74.21875 29.59375 74.21875 
Q 40.828125 74.21875 47.359375 69.109375 
Q 53.90625 64.015625 53.90625 55.328125 
Q 53.90625 49.265625 50.4375 45.09375 
Q 46.96875 40.921875 40.578125 39.3125 
z
" id="DejaVuSans-51"/>
      </defs>
      <g style="fill:#555555;" transform="translate(131.548658 74.607408)scale(0.12 -0.12)">
       <use xlink:href="#DejaVuSans-49"/>
       <use x="63.623047" xlink:href="#DejaVuSans-51"/>
       <use x="127.246094" xlink:href="#DejaVuSans-53"/>
       <use x="190.869141" xlink:href="#DejaVuSans-176"/>
      </g>
     </g>
    </g>
    <g id="xtick_5">
     <g id="line2d_5">
      <path clip-path="url(#p41937855b9)" d="M 252 177.295 
L 116.095 177.295 
" style="fill:none;stroke:#808080;stroke-linecap:square;stroke-width:0.8;"/>
     </g>
     <g id="text_5">
      <!-- 180° -->
      <defs>
       <path d="M 31.78125 34.625 
Q 24.75 34.625 20.71875 30.859375 
Q 16.703125 27.09375 16.703125 20.515625 
Q 16.703125 13.921875 20.71875 10.15625 
Q 24.75 6.390625 31.78125 6.390625 
Q 38.8125 6.390625 42.859375 10.171875 
Q 46.921875 13.96875 46.921875 20.515625 
Q 46.921875 27.09375 42.890625 30.859375 
Q 38.875 34.625 31.78125 34.625 
z
M 21.921875 38.8125 
Q 15.578125 40.375 12.03125 44.71875 
Q 8.5 49.078125 8.5 55.328125 
Q 8.5 64.0625 14.71875 69.140625 
Q 20.953125 74.21875 31.78125 74.21875 
Q 42.671875 74.21875 48.875 69.140625 
Q 55.078125 64.0625 55.078125 55.328125 
Q 55.078125 49.078125 51.53125 44.71875 
Q 48 40.375 41.703125 38.8125 
Q 48.828125 37.15625 52.796875 32.3125 
Q 56.78125 27.484375 56.78125 20.515625 
Q 56.78125 9.90625 50.3125 4.234375 
Q 43.84375 -1.421875 31.78125 -1.421875 
Q 19.734375 -1.421875 13.25 4.234375 
Q 6.78125 9.90625 6.78125 20.515625 
Q 6.78125 27.484375 10.78125 32.3125 
Q 14.796875 37.15625 21.921875 38.8125 
z
M 18.3125 54.390625 
Q 18.3125 48.734375 21.84375 45.5625 
Q 25.390625 42.390625 31.78125 42.390625 
Q 38.140625 42.390625 41.71875 45.5625 
Q 45.3125 48.734375 45.3125 54.390625 
Q 45.3125 60.0625 41.71875 63.234375 
Q 38.140625 66.40625 31.78125 66.40625 
Q 25.390625 66.40625 21.84375 63.234375 
Q 18.3125 60.0625 18.3125 54.390625 
z
" id="DejaVuSans-56"/>
      </defs>
      <g style="fill:#555555;" transform="translate(87.6425 180.60625)scale(0.12 -0.12)">
       <use xlink:href="#DejaVuSans-49"/>
       <use x="63.623047" xlink:href="#DejaVuSans-56"/>
       <use x="127.246094" xlink:href="#DejaVuSans-48"/>
       <use x="190.869141" xlink:href="#DejaVuSans-176"/>
      </g>
     </g>
    </g>
    <g id="xtick_6">
     <g id="line2d_6">
      <path clip-path="url(#p41937855b9)" d="M 252 177.295 
L 155.900653 273.394347 
" style="fill:none;stroke:#808080;stroke-linecap:square;stroke-width:0.8;"/>
     </g>
     <g id="text_6">
      <!-- 225° -->
      <defs>
       <path d="M 19.1875 8.296875 
L 53.609375 8.296875 
L 53.609375 0 
L 7.328125 0 
L 7.328125 8.296875 
Q 12.9375 14.109375 22.625 23.890625 
Q 32.328125 33.6875 34.8125 36.53125 
Q 39.546875 41.84375 41.421875 45.53125 
Q 43.3125 49.21875 43.3125 52.78125 
Q 43.3125 58.59375 39.234375 62.25 
Q 35.15625 65.921875 28.609375 65.921875 
Q 23.96875 65.921875 18.8125 64.3125 
Q 13.671875 62.703125 7.8125 59.421875 
L 7.8125 69.390625 
Q 13.765625 71.78125 18.9375 73 
Q 24.125 74.21875 28.421875 74.21875 
Q 39.75 74.21875 46.484375 68.546875 
Q 53.21875 62.890625 53.21875 53.421875 
Q 53.21875 48.921875 51.53125 44.890625 
Q 49.859375 40.875 45.40625 35.40625 
Q 44.1875 33.984375 37.640625 27.21875 
Q 31.109375 20.453125 19.1875 8.296875 
z
" id="DejaVuSans-50"/>
      </defs>
      <g style="fill:#555555;" transform="translate(131.548658 286.605092)scale(0.12 -0.12)">
       <use xlink:href="#DejaVuSans-50"/>
       <use x="63.623047" xlink:href="#DejaVuSans-50"/>
       <use x="127.246094" xlink:href="#DejaVuSans-53"/>
       <use x="190.869141" xlink:href="#DejaVuSans-176"/>
      </g>
     </g>
    </g>
    <g id="xtick_7">
     <g id="line2d_7">
      <path clip-path="url(#p41937855b9)" d="M 252 177.295 
L 252 313.2 
" style="fill:none;stroke:#808080;stroke-linecap:square;stroke-width:0.8;"/>
     </g>
     <g id="text_7">
      <!-- 270° -->
      <defs>
       <path d="M 8.203125 72.90625 
L 55.078125 72.90625 
L 55.078125 68.703125 
L 28.609375 0 
L 18.3125 0 
L 43.21875 64.59375 
L 8.203125 64.59375 
z
" id="DejaVuSans-55"/>
      </defs>
      <g style="fill:#555555;" transform="translate(237.5475 330.51125)scale(0.12 -0.12)">
       <use xlink:href="#DejaVuSans-50"/>
       <use x="63.623047" xlink:href="#DejaVuSans-55"/>
       <use x="127.246094" xlink:href="#DejaVuSans-48"/>
       <use x="190.869141" xlink:href="#DejaVuSans-176"/>
      </g>
     </g>
    </g>
    <g id="xtick_8">
     <g id="line2d_8">
      <path clip-path="url(#p41937855b9)" d="M 252 177.295 
L 348.099347 273.394347 
" style="fill:none;stroke:#808080;stroke-linecap:square;stroke-width:0.8;"/>
     </g>
     <g id="text_8">
      <!-- 315° -->
      <g style="fill:#555555;" transform="translate(343.546342 286.605092)scale(0.12 -0.12)">
       <use xlink:href="#DejaVuSans-51"/>
       <use x="63.623047" xlink:href="#DejaVuSans-49"/>
       <use x="127.246094" xlink:href="#DejaVuSans-53"/>
       <use x="190.869141" xlink:href="#DejaVuSans-176"/>
      </g>
     </g>
    </g>
    <g id="text_9">
     <!-- frequency [kHz] -->
     <defs>
      <path d="M 37.109375 75.984375 
L 37.109375 68.5 
L 28.515625 68.5 
Q 23.6875 68.5 21.796875 66.546875 
Q 19.921875 64.59375 19.921875 59.515625 
L 19.921875 54.6875 
L 34.71875 54.6875 
L 34.71875 47.703125 
L 19.921875 47.703125 
L 19.921875 0 
L 10.890625 0 
L 10.890625 47.703125 
L 2.296875 47.703125 
L 2.296875 54.6875 
L 10.890625 54.6875 
L 10.890625 58.5 
Q 10.890625 67.625 15.140625 71.796875 
Q 19.390625 75.984375 28.609375 75.984375 
z
" id="DejaVuSans-102"/>
      <path d="M 41.109375 46.296875 
Q 39.59375 47.171875 37.8125 47.578125 
Q 36.03125 48 33.890625 48 
Q 26.265625 48 22.1875 43.046875 
Q 18.109375 38.09375 18.109375 28.8125 
L 18.109375 0 
L 9.078125 0 
L 9.078125 54.6875 
L 18.109375 54.6875 
L 18.109375 46.1875 
Q 20.953125 51.171875 25.484375 53.578125 
Q 30.03125 56 36.53125 56 
Q 37.453125 56 38.578125 55.875 
Q 39.703125 55.765625 41.0625 55.515625 
z
" id="DejaVuSans-114"/>
      <path d="M 56.203125 29.59375 
L 56.203125 25.203125 
L 14.890625 25.203125 
Q 15.484375 15.921875 20.484375 11.0625 
Q 25.484375 6.203125 34.421875 6.203125 
Q 39.59375 6.203125 44.453125 7.46875 
Q 49.3125 8.734375 54.109375 11.28125 
L 54.109375 2.78125 
Q 49.265625 0.734375 44.1875 -0.34375 
Q 39.109375 -1.421875 33.890625 -1.421875 
Q 20.796875 -1.421875 13.15625 6.1875 
Q 5.515625 13.8125 5.515625 26.8125 
Q 5.515625 40.234375 12.765625 48.109375 
Q 20.015625 56 32.328125 56 
Q 43.359375 56 49.78125 48.890625 
Q 56.203125 41.796875 56.203125 29.59375 
z
M 47.21875 32.234375 
Q 47.125 39.59375 43.09375 43.984375 
Q 39.0625 48.390625 32.421875 48.390625 
Q 24.90625 48.390625 20.390625 44.140625 
Q 15.875 39.890625 15.1875 32.171875 
z
" id="DejaVuSans-101"/>
      <path d="M 14.796875 27.296875 
Q 14.796875 17.390625 18.875 11.75 
Q 22.953125 6.109375 30.078125 6.109375 
Q 37.203125 6.109375 41.296875 11.75 
Q 45.40625 17.390625 45.40625 27.296875 
Q 45.40625 37.203125 41.296875 42.84375 
Q 37.203125 48.484375 30.078125 48.484375 
Q 22.953125 48.484375 18.875 42.84375 
Q 14.796875 37.203125 14.796875 27.296875 
z
M 45.40625 8.203125 
Q 42.578125 3.328125 38.25 0.953125 
Q 33.9375 -1.421875 27.875 -1.421875 
Q 17.96875 -1.421875 11.734375 6.484375 
Q 5.515625 14.40625 5.515625 27.296875 
Q 5.515625 40.1875 11.734375 48.09375 
Q 17.96875 56 27.875 56 
Q 33.9375 56 38.25 53.625 
Q 42.578125 51.265625 45.40625 46.390625 
L 45.40625 54.6875 
L 54.390625 54.6875 
L 54.390625 -20.796875 
L 45.40625 -20.796875 
z
" id="DejaVuSans-113"/>
      <path d="M 8.5 21.578125 
L 8.5 54.6875 
L 17.484375 54.6875 
L 17.484375 21.921875 
Q 17.484375 14.15625 20.5 10.265625 
Q 23.53125 6.390625 29.59375 6.390625 
Q 36.859375 6.390625 41.078125 11.03125 
Q 45.3125 15.671875 45.3125 23.6875 
L 45.3125 54.6875 
L 54.296875 54.6875 
L 54.296875 0 
L 45.3125 0 
L 45.3125 8.40625 
Q 42.046875 3.421875 37.71875 1 
Q 33.40625 -1.421875 27.6875 -1.421875 
Q 18.265625 -1.421875 13.375 4.4375 
Q 8.5 10.296875 8.5 21.578125 
z
M 31.109375 56 
z
" id="DejaVuSans-117"/>
      <path d="M 54.890625 33.015625 
L 54.890625 0 
L 45.90625 0 
L 45.90625 32.71875 
Q 45.90625 40.484375 42.875 44.328125 
Q 39.84375 48.1875 33.796875 48.1875 
Q 26.515625 48.1875 22.3125 43.546875 
Q 18.109375 38.921875 18.109375 30.90625 
L 18.109375 0 
L 9.078125 0 
L 9.078125 54.6875 
L 18.109375 54.6875 
L 18.109375 46.1875 
Q 21.34375 51.125 25.703125 53.5625 
Q 30.078125 56 35.796875 56 
Q 45.21875 56 50.046875 50.171875 
Q 54.890625 44.34375 54.890625 33.015625 
z
" id="DejaVuSans-110"/>
      <path d="M 48.78125 52.59375 
L 48.78125 44.1875 
Q 44.96875 46.296875 41.140625 47.34375 
Q 37.3125 48.390625 33.40625 48.390625 
Q 24.65625 48.390625 19.8125 42.84375 
Q 14.984375 37.3125 14.984375 27.296875 
Q 14.984375 17.28125 19.8125 11.734375 
Q 24.65625 6.203125 33.40625 6.203125 
Q 37.3125 6.203125 41.140625 7.25 
Q 44.96875 8.296875 48.78125 10.40625 
L 48.78125 2.09375 
Q 45.015625 0.34375 40.984375 -0.53125 
Q 36.96875 -1.421875 32.421875 -1.421875 
Q 20.0625 -1.421875 12.78125 6.34375 
Q 5.515625 14.109375 5.515625 27.296875 
Q 5.515625 40.671875 12.859375 48.328125 
Q 20.21875 56 33.015625 56 
Q 37.15625 56 41.109375 55.140625 
Q 45.0625 54.296875 48.78125 52.59375 
z
" id="DejaVuSans-99"/>
      <path d="M 32.171875 -5.078125 
Q 28.375 -14.84375 24.75 -17.8125 
Q 21.140625 -20.796875 15.09375 -20.796875 
L 7.90625 -20.796875 
L 7.90625 -13.28125 
L 13.1875 -13.28125 
Q 16.890625 -13.28125 18.9375 -11.515625 
Q 21 -9.765625 23.484375 -3.21875 
L 25.09375 0.875 
L 2.984375 54.6875 
L 12.5 54.6875 
L 29.59375 11.921875 
L 46.6875 54.6875 
L 56.203125 54.6875 
z
" id="DejaVuSans-121"/>
      <path id="DejaVuSans-32"/>
      <path d="M 8.59375 75.984375 
L 29.296875 75.984375 
L 29.296875 69 
L 17.578125 69 
L 17.578125 -6.203125 
L 29.296875 -6.203125 
L 29.296875 -13.1875 
L 8.59375 -13.1875 
z
" id="DejaVuSans-91"/>
      <path d="M 9.078125 75.984375 
L 18.109375 75.984375 
L 18.109375 31.109375 
L 44.921875 54.6875 
L 56.390625 54.6875 
L 27.390625 29.109375 
L 57.625 0 
L 45.90625 0 
L 18.109375 26.703125 
L 18.109375 0 
L 9.078125 0 
z
" id="DejaVuSans-107"/>
      <path d="M 9.8125 72.90625 
L 19.671875 72.90625 
L 19.671875 43.015625 
L 55.515625 43.015625 
L 55.515625 72.90625 
L 65.375 72.90625 
L 65.375 0 
L 55.515625 0 
L 55.515625 34.71875 
L 19.671875 34.71875 
L 19.671875 0 
L 9.8125 0 
z
" id="DejaVuSans-72"/>
      <path d="M 5.515625 54.6875 
L 48.1875 54.6875 
L 48.1875 46.484375 
L 14.40625 7.171875 
L 48.1875 7.171875 
L 48.1875 0 
L 4.296875 0 
L 4.296875 8.203125 
L 38.09375 47.515625 
L 5.515625 47.515625 
z
" id="DejaVuSans-122"/>
      <path d="M 30.421875 75.984375 
L 30.421875 -13.1875 
L 9.71875 -13.1875 
L 9.71875 -6.203125 
L 21.390625 -6.203125 
L 21.390625 69 
L 9.71875 69 
L 9.71875 75.984375 
z
" id="DejaVuSans-93"/>
     </defs>
     <g style="fill:#555555;" transform="translate(204.050625 346.125)scale(0.12 -0.12)">
      <use xlink:href="#DejaVuSans-102"/>
      <use x="35.205078" xlink:href="#DejaVuSans-114"/>
      <use x="76.287109" xlink:href="#DejaVuSans-101"/>
      <use x="137.810547" xlink:href="#DejaVuSans-113"/>
      <use x="201.287109" xlink:href="#DejaVuSans-117"/>
      <use x="264.666016" xlink:href="#DejaVuSans-101"/>
      <use x="326.189453" xlink:href="#DejaVuSans-110"/>
      <use x="389.568359" xlink:href="#DejaVuSans-99"/>
      <use x="444.548828" xlink:href="#DejaVuSans-121"/>
      <use x="503.728516" xlink:href="#DejaVuSans-32"/>
      <use x="535.515625" xlink:href="#DejaVuSans-91"/>
      <use x="574.529297" xlink:href="#DejaVuSans-107"/>
      <use x="632.439453" xlink:href="#DejaVuSans-72"/>
      <use x="707.634766" xlink:href="#DejaVuSans-122"/>
      <use x="760.125" xlink:href="#DejaVuSans-93"/>
     </g>
    </g>
   </g>
   <g id="matplotlib.axis_2">
    <g id="ytick_1">
     <g id="line2d_9">
      <path clip-path="url(#p41937855b9)" d="M 263.81252 177.295 
L 263.697562 175.651015 
L 263.354923 174.039028 
L 262.791274 172.490415 
L 262.017585 171.035318 
L 261.048916 169.702058 
L 259.904119 168.516587 
L 258.605478 167.501977 
L 257.178268 166.677977 
L 255.65027 166.060625 
L 254.051223 165.661938 
L 252.412251 165.489675 
L 250.765255 165.54719 
L 249.142293 165.833362 
L 247.574952 166.342622 
L 246.09374 167.065057 
L 244.727486 167.986607 
L 243.502784 169.089334 
L 242.44347 170.351775 
L 241.570163 171.749358 
L 240.899862 173.25488 
L 240.445611 174.839039 
L 240.216254 176.471 
L 240.216254 178.119 
L 240.445611 179.750961 
L 240.899862 181.33512 
L 241.570163 182.840642 
L 242.44347 184.238225 
L 243.502784 185.500666 
L 244.727486 186.603393 
L 246.09374 187.524943 
L 247.574952 188.247378 
L 249.142293 188.756638 
L 250.765255 189.04281 
L 252.412251 189.100325 
L 254.051223 188.928062 
L 255.65027 188.529375 
L 257.178268 187.912023 
L 258.605478 187.088023 
L 259.904119 186.073413 
L 261.048916 184.887942 
L 262.017585 183.554682 
L 262.791274 182.099585 
L 263.354923 180.550972 
L 263.697562 178.938985 
L 263.81252 177.295 
L 263.81252 177.295 
" style="fill:none;stroke:#808080;stroke-linecap:square;stroke-width:0.8;"/>
     </g>
     <g id="text_10">
      <!-- −30 -->
      <defs>
       <path d="M 10.59375 35.5 
L 73.1875 35.5 
L 73.1875 27.203125 
L 10.59375 27.203125 
z
" id="DejaVuSans-8722"/>
      </defs>
      <g style="fill:#555555;" transform="translate(262.913346 170.278919)scale(0.12 -0.12)">
       <use xlink:href="#DejaVuSans-8722"/>
       <use x="83.789062" xlink:href="#DejaVuSans-51"/>
       <use x="147.412109" xlink:href="#DejaVuSans-48"/>
      </g>
     </g>
    </g>
    <g id="ytick_2">
     <g id="line2d_10">
      <path clip-path="url(#p41937855b9)" d="M 284.180536 177.295 
L 284.102146 175.050199 
L 283.867357 172.816335 
L 283.477314 170.60429 
L 282.933917 168.424842 
L 282.239812 166.288608 
L 281.398382 164.205997 
L 280.413727 162.187153 
L 279.290642 160.241914 
L 278.0346 158.379756 
L 276.651721 156.60975 
L 275.14874 154.940521 
L 273.532982 153.380201 
L 271.812316 151.936392 
L 269.995127 150.616127 
L 268.090268 149.425838 
L 266.107018 148.371326 
L 264.055041 147.457727 
L 261.944332 146.689492 
L 259.785176 146.070364 
L 257.588091 145.603359 
L 255.363782 145.290752 
L 253.123085 145.134068 
L 250.876915 145.134068 
L 248.636218 145.290752 
L 246.411909 145.603359 
L 244.214824 146.070364 
L 242.055668 146.689492 
L 239.944959 147.457727 
L 237.892982 148.371326 
L 235.909732 149.425838 
L 234.004873 150.616127 
L 232.187684 151.936392 
L 230.467018 153.380201 
L 228.85126 154.940521 
L 227.348279 156.60975 
L 225.9654 158.379756 
L 224.709358 160.241914 
L 223.586273 162.187153 
L 222.601618 164.205997 
L 221.760188 166.288608 
L 221.066083 168.424842 
L 220.522686 170.60429 
L 220.132643 172.816335 
L 219.897854 175.050199 
L 219.819464 177.295 
L 219.897854 179.539801 
L 220.132643 181.773665 
L 220.522686 183.98571 
L 221.066083 186.165158 
L 221.760188 188.301392 
L 222.601618 190.384003 
L 223.586273 192.402847 
L 224.709358 194.348086 
L 225.9654 196.210244 
L 227.348279 197.98025 
L 228.85126 199.649479 
L 230.467018 201.209799 
L 232.187684 202.653608 
L 234.004873 203.973873 
L 235.909732 205.164162 
L 237.892982 206.218674 
L 239.944959 207.132273 
L 242.055668 207.900508 
L 244.214824 208.519636 
L 246.411909 208.986641 
L 248.636218 209.299248 
L 250.876915 209.455932 
L 253.123085 209.455932 
L 255.363782 209.299248 
L 257.588091 208.986641 
L 259.785176 208.519636 
L 261.944332 207.900508 
L 264.055041 207.132273 
L 266.107018 206.218674 
L 268.090268 205.164162 
L 269.995127 203.973873 
L 271.812316 202.653608 
L 273.532982 201.209799 
L 275.14874 199.649479 
L 276.651721 197.98025 
L 278.0346 196.210244 
L 279.290642 194.348086 
L 280.413727 192.402847 
L 281.398382 190.384003 
L 282.239812 188.301392 
L 282.933917 186.165158 
L 283.477314 183.98571 
L 283.867357 181.773665 
L 284.102146 179.539801 
L 284.180536 177.295 
L 284.180536 177.295 
" style="fill:none;stroke:#808080;stroke-linecap:square;stroke-width:0.8;"/>
     </g>
     <g id="text_11">
      <!-- −20 -->
      <g style="fill:#555555;" transform="translate(281.730939 162.484417)scale(0.12 -0.12)">
       <use xlink:href="#DejaVuSans-8722"/>
       <use x="83.789062" xlink:href="#DejaVuSans-50"/>
       <use x="147.412109" xlink:href="#DejaVuSans-48"/>
      </g>
     </g>
    </g>
    <g id="ytick_3">
     <g id="line2d_11">
      <path clip-path="url(#p41937855b9)" d="M 304.548551 177.295 
L 304.420546 173.629398 
L 304.037153 169.981655 
L 303.40024 166.369542 
L 302.51291 162.810656 
L 301.379486 159.322337 
L 300.00549 155.921579 
L 298.397617 152.624949 
L 296.563699 149.44851 
L 294.512671 146.407736 
L 292.254526 143.517442 
L 289.800264 140.791709 
L 287.161844 138.243816 
L 284.352119 135.886176 
L 281.384777 133.730276 
L 278.274276 131.78662 
L 275.035769 130.064675 
L 271.685034 128.572832 
L 268.238395 127.318358 
L 264.712645 126.307365 
L 261.12496 125.544779 
L 257.492819 125.034315 
L 253.833918 124.77846 
L 250.166082 124.77846 
L 246.507181 125.034315 
L 242.87504 125.544779 
L 239.287355 126.307365 
L 235.761605 127.318358 
L 232.314966 128.572832 
L 228.964231 130.064675 
L 225.725724 131.78662 
L 222.615223 133.730276 
L 219.647881 135.886176 
L 216.838156 138.243816 
L 214.199736 140.791709 
L 211.745474 143.517442 
L 209.487329 146.407736 
L 207.436301 149.44851 
L 205.602383 152.624949 
L 203.99451 155.921579 
L 202.620514 159.322337 
L 201.48709 162.810656 
L 200.59976 166.369542 
L 199.962847 169.981655 
L 199.579454 173.629398 
L 199.451449 177.295 
L 199.579454 180.960602 
L 199.962847 184.608345 
L 200.59976 188.220458 
L 201.48709 191.779344 
L 202.620514 195.267663 
L 203.99451 198.668421 
L 205.602383 201.965051 
L 207.436301 205.14149 
L 209.487329 208.182264 
L 211.745474 211.072558 
L 214.199736 213.798291 
L 216.838156 216.346184 
L 219.647881 218.703824 
L 222.615223 220.859724 
L 225.725724 222.80338 
L 228.964231 224.525325 
L 232.314966 226.017168 
L 235.761605 227.271642 
L 239.287355 228.282635 
L 242.87504 229.045221 
L 246.507181 229.555685 
L 250.166082 229.81154 
L 253.833918 229.81154 
L 257.492819 229.555685 
L 261.12496 229.045221 
L 264.712645 228.282635 
L 268.238395 227.271642 
L 271.685034 226.017168 
L 275.035769 224.525325 
L 278.274276 222.80338 
L 281.384777 220.859724 
L 284.352119 218.703824 
L 287.161844 216.346184 
L 289.800264 213.798291 
L 292.254526 211.072558 
L 294.512671 208.182264 
L 296.563699 205.14149 
L 298.397617 201.965051 
L 300.00549 198.668421 
L 301.379486 195.267663 
L 302.51291 191.779344 
L 303.40024 188.220458 
L 304.037153 184.608345 
L 304.420546 180.960602 
L 304.548551 177.295 
L 304.548551 177.295 
" style="fill:none;stroke:#808080;stroke-linecap:square;stroke-width:0.8;"/>
     </g>
     <g id="text_12">
      <!-- −10 -->
      <g style="fill:#555555;" transform="translate(300.548531 154.689915)scale(0.12 -0.12)">
       <use xlink:href="#DejaVuSans-8722"/>
       <use x="83.789062" xlink:href="#DejaVuSans-49"/>
       <use x="147.412109" xlink:href="#DejaVuSans-48"/>
      </g>
     </g>
    </g>
    <g id="ytick_4">
     <g id="line2d_12">
      <path clip-path="url(#p41937855b9)" d="M 324.916567 177.295 
L 324.738946 172.208597 
L 324.206948 167.146975 
L 323.323165 162.134793 
L 322.091903 157.19647 
L 320.51916 152.356065 
L 318.612599 147.63716 
L 316.381507 143.062745 
L 313.836756 138.655107 
L 310.990742 134.435717 
L 307.857331 130.425134 
L 304.451789 126.642896 
L 300.790707 123.107431 
L 296.891921 119.835961 
L 292.774427 116.844426 
L 288.458283 114.147401 
L 283.964519 111.758024 
L 279.315027 109.687936 
L 274.532458 107.947224 
L 269.640114 106.544367 
L 264.661829 105.4862 
L 259.621857 104.777878 
L 254.544751 104.422852 
L 249.455249 104.422852 
L 244.378143 104.777878 
L 239.338171 105.4862 
L 234.359886 106.544367 
L 229.467542 107.947224 
L 224.684973 109.687936 
L 220.035481 111.758024 
L 215.541717 114.147401 
L 211.225573 116.844426 
L 207.108079 119.835961 
L 203.209293 123.107431 
L 199.548211 126.642896 
L 196.142669 130.425134 
L 193.009258 134.435717 
L 190.163244 138.655107 
L 187.618493 143.062745 
L 185.387401 147.63716 
L 183.48084 152.356065 
L 181.908097 157.19647 
L 180.676835 162.134793 
L 179.793052 167.146975 
L 179.261054 172.208597 
L 179.083433 177.295 
L 179.261054 182.381403 
L 179.793052 187.443025 
L 180.676835 192.455207 
L 181.908097 197.39353 
L 183.48084 202.233935 
L 185.387401 206.95284 
L 187.618493 211.527255 
L 190.163244 215.934893 
L 193.009258 220.154283 
L 196.142669 224.164866 
L 199.548211 227.947104 
L 203.209293 231.482569 
L 207.108079 234.754039 
L 211.225573 237.745574 
L 215.541717 240.442599 
L 220.035481 242.831976 
L 224.684973 244.902064 
L 229.467542 246.642776 
L 234.359886 248.045633 
L 239.338171 249.1038 
L 244.378143 249.812122 
L 249.455249 250.167148 
L 254.544751 250.167148 
L 259.621857 249.812122 
L 264.661829 249.1038 
L 269.640114 248.045633 
L 274.532458 246.642776 
L 279.315027 244.902064 
L 283.964519 242.831976 
L 288.458283 240.442599 
L 292.774427 237.745574 
L 296.891921 234.754039 
L 300.790707 231.482569 
L 304.451789 227.947104 
L 307.857331 224.164866 
L 310.990742 220.154283 
L 313.836756 215.934893 
L 316.381507 211.527255 
L 318.612599 206.95284 
L 320.51916 202.233935 
L 322.091903 197.39353 
L 323.323165 192.455207 
L 324.206948 187.443025 
L 324.738946 182.381403 
L 324.916567 177.295 
L 324.916567 177.295 
" style="fill:none;stroke:#808080;stroke-linecap:square;stroke-width:0.8;"/>
     </g>
     <g id="text_13">
      <!-- 0 -->
      <g style="fill:#555555;" transform="translate(319.366124 146.895413)scale(0.12 -0.12)">
       <use xlink:href="#DejaVuSans-48"/>
      </g>
     </g>
    </g>
    <g id="ytick_5">
     <g id="line2d_13">
      <path clip-path="url(#p41937855b9)" d="M 345.284582 177.295 
L 345.227756 174.039415 
L 345.057346 170.787796 
L 344.77356 167.544106 
L 344.376743 164.312295 
L 343.86738 161.096302 
L 343.24609 157.900045 
L 342.513632 154.727417 
L 341.670896 151.582284 
L 340.71891 148.468479 
L 339.658834 145.389794 
L 338.491959 142.34998 
L 337.219707 139.352742 
L 335.843627 136.401731 
L 334.365397 133.500541 
L 332.786818 130.652709 
L 331.109813 127.861703 
L 329.336424 125.130924 
L 327.468812 122.463698 
L 325.509254 119.863276 
L 323.460136 117.332826 
L 321.323955 114.875431 
L 319.103313 112.494084 
L 316.800916 110.191687 
L 314.419569 107.971045 
L 311.962174 105.834864 
L 309.431724 103.785746 
L 306.831302 101.826188 
L 304.164076 99.958576 
L 301.433297 98.185187 
L 298.642291 96.508182 
L 295.794459 94.929603 
L 292.893269 93.451373 
L 289.942258 92.075293 
L 286.94502 90.803041 
L 283.905206 89.636166 
L 280.826521 88.57609 
L 277.712716 87.624104 
L 274.567583 86.781368 
L 271.394955 86.04891 
L 268.198698 85.42762 
L 264.982705 84.918257 
L 261.750894 84.52144 
L 258.507204 84.237654 
L 255.255585 84.067244 
L 252 84.010418 
L 248.744415 84.067244 
L 245.492796 84.237654 
L 242.249106 84.52144 
L 239.017295 84.918257 
L 235.801302 85.42762 
L 232.605045 86.04891 
L 229.432417 86.781368 
L 226.287284 87.624104 
L 223.173479 88.57609 
L 220.094794 89.636166 
L 217.05498 90.803041 
L 214.057742 92.075293 
L 211.106731 93.451373 
L 208.205541 94.929603 
L 205.357709 96.508182 
L 202.566703 98.185187 
L 199.835924 99.958576 
L 197.168698 101.826188 
L 194.568276 103.785746 
L 192.037826 105.834864 
L 189.580431 107.971045 
L 187.199084 110.191687 
L 184.896687 112.494084 
L 182.676045 114.875431 
L 180.539864 117.332826 
L 178.490746 119.863276 
L 176.531188 122.463698 
L 174.663576 125.130924 
L 172.890187 127.861703 
L 171.213182 130.652709 
L 169.634603 133.500541 
L 168.156373 136.401731 
L 166.780293 139.352742 
L 165.508041 142.34998 
L 164.341166 145.389794 
L 163.28109 148.468479 
L 162.329104 151.582284 
L 161.486368 154.727417 
L 160.75391 157.900045 
L 160.13262 161.096302 
L 159.623257 164.312295 
L 159.22644 167.544106 
L 158.942654 170.787796 
L 158.772244 174.039415 
L 158.715418 177.295 
L 158.772244 180.550585 
L 158.942654 183.802204 
L 159.22644 187.045894 
L 159.623257 190.277705 
L 160.13262 193.493698 
L 160.75391 196.689955 
L 161.486368 199.862583 
L 162.329104 203.007716 
L 163.28109 206.121521 
L 164.341166 209.200206 
L 165.508041 212.24002 
L 166.780293 215.237258 
L 168.156373 218.188269 
L 169.634603 221.089459 
L 171.213182 223.937291 
L 172.890187 226.728297 
L 174.663576 229.459076 
L 176.531188 232.126302 
L 178.490746 234.726724 
L 180.539864 237.257174 
L 182.676045 239.714569 
L 184.896687 242.095916 
L 187.199084 244.398313 
L 189.580431 246.618955 
L 192.037826 248.755136 
L 194.568276 250.804254 
L 197.168698 252.763812 
L 199.835924 254.631424 
L 202.566703 256.404813 
L 205.357709 258.081818 
L 208.205541 259.660397 
L 211.106731 261.138627 
L 214.057742 262.514707 
L 217.05498 263.786959 
L 220.094794 264.953834 
L 223.173479 266.01391 
L 226.287284 266.965896 
L 229.432417 267.808632 
L 232.605045 268.54109 
L 235.801302 269.16238 
L 239.017295 269.671743 
L 242.249106 270.06856 
L 245.492796 270.352346 
L 248.744415 270.522756 
L 252 270.579582 
L 255.255585 270.522756 
L 258.507204 270.352346 
L 261.750894 270.06856 
L 264.982705 269.671743 
L 268.198698 269.16238 
L 271.394955 268.54109 
L 274.567583 267.808632 
L 277.712716 266.965896 
L 280.826521 266.01391 
L 283.905206 264.953834 
L 286.94502 263.786959 
L 289.942258 262.514707 
L 292.893269 261.138627 
L 295.794459 259.660397 
L 298.642291 258.081818 
L 301.433297 256.404813 
L 304.164076 254.631424 
L 306.831302 252.763812 
L 309.431724 250.804254 
L 311.962174 248.755136 
L 314.419569 246.618955 
L 316.800916 244.398313 
L 319.103313 242.095916 
L 321.323955 239.714569 
L 323.460136 237.257174 
L 325.509254 234.726724 
L 327.468812 232.126302 
L 329.336424 229.459076 
L 331.109813 226.728297 
L 332.786818 223.937291 
L 334.365397 221.089459 
L 335.843627 218.188269 
L 337.219707 215.237258 
L 338.491959 212.24002 
L 339.658834 209.200206 
L 340.71891 206.121521 
L 341.670896 203.007716 
L 342.513632 199.862583 
L 343.24609 196.689955 
L 343.86738 193.493698 
L 344.376743 190.277705 
L 344.77356 187.045894 
L 345.057346 183.802204 
L 345.227756 180.550585 
L 345.284582 177.295 
L 345.284582 177.295 
" style="fill:none;stroke:#808080;stroke-linecap:square;stroke-width:0.8;"/>
     </g>
     <g id="text_14">
      <!-- 10 -->
      <g style="fill:#555555;" transform="translate(338.183716 139.100911)scale(0.12 -0.12)">
       <use xlink:href="#DejaVuSans-49"/>
       <use x="63.623047" xlink:href="#DejaVuSans-48"/>
      </g>
     </g>
    </g>
    <g id="ytick_6">
     <g id="line2d_14">
      <path clip-path="url(#p41937855b9)" d="M 365.652598 177.295 
L 365.583364 173.328582 
L 365.375746 169.366996 
L 365.029997 165.415069 
L 364.546539 161.477616 
L 363.92596 157.559433 
L 363.169016 153.665296 
L 362.27663 149.799948 
L 361.249889 145.968098 
L 360.090044 142.174416 
L 358.798508 138.423522 
L 357.376854 134.719987 
L 355.826815 131.068324 
L 354.150278 127.47298 
L 352.349288 123.938337 
L 350.426037 120.468701 
L 348.382869 117.068299 
L 346.222274 113.741274 
L 343.946883 110.491679 
L 341.559469 107.323474 
L 339.062941 104.240518 
L 336.46034 101.246568 
L 333.754837 98.345272 
L 330.949728 95.540163 
L 328.048432 92.83466 
L 325.054482 90.232059 
L 321.971526 87.735531 
L 318.803321 85.348117 
L 315.553726 83.072726 
L 312.226701 80.912131 
L 308.826299 78.868963 
L 305.356663 76.945712 
L 301.82202 75.144722 
L 298.226676 73.468185 
L 294.575013 71.918146 
L 290.871478 70.496492 
L 287.120584 69.204956 
L 283.326902 68.045111 
L 279.495052 67.01837 
L 275.629704 66.125984 
L 271.735567 65.36904 
L 267.817384 64.748461 
L 263.879931 64.265003 
L 259.928004 63.919254 
L 255.966418 63.711636 
L 252 63.642402 
L 248.033582 63.711636 
L 244.071996 63.919254 
L 240.120069 64.265003 
L 236.182616 64.748461 
L 232.264433 65.36904 
L 228.370296 66.125984 
L 224.504948 67.01837 
L 220.673098 68.045111 
L 216.879416 69.204956 
L 213.128522 70.496492 
L 209.424987 71.918146 
L 205.773324 73.468185 
L 202.17798 75.144722 
L 198.643337 76.945712 
L 195.173701 78.868963 
L 191.773299 80.912131 
L 188.446274 83.072726 
L 185.196679 85.348117 
L 182.028474 87.735531 
L 178.945518 90.232059 
L 175.951568 92.83466 
L 173.050272 95.540163 
L 170.245163 98.345272 
L 167.53966 101.246568 
L 164.937059 104.240518 
L 162.440531 107.323474 
L 160.053117 110.491679 
L 157.777726 113.741274 
L 155.617131 117.068299 
L 153.573963 120.468701 
L 151.650712 123.938337 
L 149.849722 127.47298 
L 148.173185 131.068324 
L 146.623146 134.719987 
L 145.201492 138.423522 
L 143.909956 142.174416 
L 142.750111 145.968098 
L 141.72337 149.799948 
L 140.830984 153.665296 
L 140.07404 157.559433 
L 139.453461 161.477616 
L 138.970003 165.415069 
L 138.624254 169.366996 
L 138.416636 173.328582 
L 138.347402 177.295 
L 138.416636 181.261418 
L 138.624254 185.223004 
L 138.970003 189.174931 
L 139.453461 193.112384 
L 140.07404 197.030567 
L 140.830984 200.924704 
L 141.72337 204.790052 
L 142.750111 208.621902 
L 143.909956 212.415584 
L 145.201492 216.166478 
L 146.623146 219.870013 
L 148.173185 223.521676 
L 149.849722 227.11702 
L 151.650712 230.651663 
L 153.573963 234.121299 
L 155.617131 237.521701 
L 157.777726 240.848726 
L 160.053117 244.098321 
L 162.440531 247.266526 
L 164.937059 250.349482 
L 167.53966 253.343432 
L 170.245163 256.244728 
L 173.050272 259.049837 
L 175.951568 261.75534 
L 178.945518 264.357941 
L 182.028474 266.854469 
L 185.196679 269.241883 
L 188.446274 271.517274 
L 191.773299 273.677869 
L 195.173701 275.721037 
L 198.643337 277.644288 
L 202.17798 279.445278 
L 205.773324 281.121815 
L 209.424987 282.671854 
L 213.128522 284.093508 
L 216.879416 285.385044 
L 220.673098 286.544889 
L 224.504948 287.57163 
L 228.370296 288.464016 
L 232.264433 289.22096 
L 236.182616 289.841539 
L 240.120069 290.324997 
L 244.071996 290.670746 
L 248.033582 290.878364 
L 252 290.947598 
L 255.966418 290.878364 
L 259.928004 290.670746 
L 263.879931 290.324997 
L 267.817384 289.841539 
L 271.735567 289.22096 
L 275.629704 288.464016 
L 279.495052 287.57163 
L 283.326902 286.544889 
L 287.120584 285.385044 
L 290.871478 284.093508 
L 294.575013 282.671854 
L 298.226676 281.121815 
L 301.82202 279.445278 
L 305.356663 277.644288 
L 308.826299 275.721037 
L 312.226701 273.677869 
L 315.553726 271.517274 
L 318.803321 269.241883 
L 321.971526 266.854469 
L 325.054482 264.357941 
L 328.048432 261.75534 
L 330.949728 259.049837 
L 333.754837 256.244728 
L 336.46034 253.343432 
L 339.062941 250.349482 
L 341.559469 247.266526 
L 343.946883 244.098321 
L 346.222274 240.848726 
L 348.382869 237.521701 
L 350.426037 234.121299 
L 352.349288 230.651663 
L 354.150278 227.11702 
L 355.826815 223.521676 
L 357.376854 219.870013 
L 358.798508 216.166478 
L 360.090044 212.415584 
L 361.249889 208.621902 
L 362.27663 204.790052 
L 363.169016 200.924704 
L 363.92596 197.030567 
L 364.546539 193.112384 
L 365.029997 189.174931 
L 365.375746 185.223004 
L 365.583364 181.261418 
L 365.652598 177.295 
L 365.652598 177.295 
" style="fill:none;stroke:#808080;stroke-linecap:square;stroke-width:0.8;"/>
     </g>
     <g id="text_15">
      <!-- 20 -->
      <g style="fill:#555555;" transform="translate(357.001309 131.306409)scale(0.12 -0.12)">
       <use xlink:href="#DejaVuSans-50"/>
       <use x="63.623047" xlink:href="#DejaVuSans-48"/>
      </g>
     </g>
    </g>
    <g id="ytick_7">
     <g id="line2d_15">
      <path clip-path="url(#p41937855b9)" d="M 386.020613 177.295 
L 385.938972 172.617748 
L 385.694146 167.946195 
L 385.286434 163.286031 
L 384.716334 158.642936 
L 383.984539 154.022565 
L 383.091941 149.430548 
L 382.039628 144.872479 
L 380.828882 140.353912 
L 379.461178 135.880353 
L 377.938181 131.457251 
L 376.261749 127.089995 
L 374.433923 122.783906 
L 372.456929 118.54423 
L 370.333178 114.376133 
L 368.065256 110.284693 
L 365.655926 106.274895 
L 363.108124 102.351624 
L 360.424954 98.51966 
L 357.609685 94.783671 
L 354.665746 91.14821 
L 351.596725 87.617706 
L 348.406361 84.196459 
L 345.098541 80.888639 
L 341.677294 77.698275 
L 338.14679 74.629254 
L 334.511329 71.685315 
L 330.77534 68.870046 
L 326.943376 66.186876 
L 323.020105 63.639074 
L 319.010307 61.229744 
L 314.918867 58.961822 
L 310.75077 56.838071 
L 306.511094 54.861077 
L 302.205005 53.033251 
L 297.837749 51.356819 
L 293.414647 49.833822 
L 288.941088 48.466118 
L 284.422521 47.255372 
L 279.864452 46.203059 
L 275.272435 45.310461 
L 270.652064 44.578666 
L 266.008969 44.008566 
L 261.348805 43.600854 
L 256.677252 43.356028 
L 252 43.274387 
L 247.322748 43.356028 
L 242.651195 43.600854 
L 237.991031 44.008566 
L 233.347936 44.578666 
L 228.727565 45.310461 
L 224.135548 46.203059 
L 219.577479 47.255372 
L 215.058912 48.466118 
L 210.585353 49.833822 
L 206.162251 51.356819 
L 201.794995 53.033251 
L 197.488906 54.861077 
L 193.24923 56.838071 
L 189.081133 58.961822 
L 184.989693 61.229744 
L 180.979895 63.639074 
L 177.056624 66.186876 
L 173.22466 68.870046 
L 169.488671 71.685315 
L 165.85321 74.629254 
L 162.322706 77.698275 
L 158.901459 80.888639 
L 155.593639 84.196459 
L 152.403275 87.617706 
L 149.334254 91.14821 
L 146.390315 94.783671 
L 143.575046 98.51966 
L 140.891876 102.351624 
L 138.344074 106.274895 
L 135.934744 110.284693 
L 133.666822 114.376133 
L 131.543071 118.54423 
L 129.566077 122.783906 
L 127.738251 127.089995 
L 126.061819 131.457251 
L 124.538822 135.880353 
L 123.171118 140.353912 
L 121.960372 144.872479 
L 120.908059 149.430548 
L 120.015461 154.022565 
L 119.283666 158.642936 
L 118.713566 163.286031 
L 118.305854 167.946195 
L 118.061028 172.617748 
L 117.979387 177.295 
L 118.061028 181.972252 
L 118.305854 186.643805 
L 118.713566 191.303969 
L 119.283666 195.947064 
L 120.015461 200.567435 
L 120.908059 205.159452 
L 121.960372 209.717521 
L 123.171118 214.236088 
L 124.538822 218.709647 
L 126.061819 223.132749 
L 127.738251 227.500005 
L 129.566077 231.806094 
L 131.543071 236.04577 
L 133.666822 240.213867 
L 135.934744 244.305307 
L 138.344074 248.315105 
L 140.891876 252.238376 
L 143.575046 256.07034 
L 146.390315 259.806329 
L 149.334254 263.44179 
L 152.403275 266.972294 
L 155.593639 270.393541 
L 158.901459 273.701361 
L 162.322706 276.891725 
L 165.85321 279.960746 
L 169.488671 282.904685 
L 173.22466 285.719954 
L 177.056624 288.403124 
L 180.979895 290.950926 
L 184.989693 293.360256 
L 189.081133 295.628178 
L 193.24923 297.751929 
L 197.488906 299.728923 
L 201.794995 301.556749 
L 206.162251 303.233181 
L 210.585353 304.756178 
L 215.058912 306.123882 
L 219.577479 307.334628 
L 224.135548 308.386941 
L 228.727565 309.279539 
L 233.347936 310.011334 
L 237.991031 310.581434 
L 242.651195 310.989146 
L 247.322748 311.233972 
L 252 311.315613 
L 256.677252 311.233972 
L 261.348805 310.989146 
L 266.008969 310.581434 
L 270.652064 310.011334 
L 275.272435 309.279539 
L 279.864452 308.386941 
L 284.422521 307.334628 
L 288.941088 306.123882 
L 293.414647 304.756178 
L 297.837749 303.233181 
L 302.205005 301.556749 
L 306.511094 299.728923 
L 310.75077 297.751929 
L 314.918867 295.628178 
L 319.010307 293.360256 
L 323.020105 290.950926 
L 326.943376 288.403124 
L 330.77534 285.719954 
L 334.511329 282.904685 
L 338.14679 279.960746 
L 341.677294 276.891725 
L 345.098541 273.701361 
L 348.406361 270.393541 
L 351.596725 266.972294 
L 354.665746 263.44179 
L 357.609685 259.806329 
L 360.424954 256.07034 
L 363.108124 252.238376 
L 365.655926 248.315105 
L 368.065256 244.305307 
L 370.333178 240.213867 
L 372.456929 236.04577 
L 374.433923 231.806094 
L 376.261749 227.500005 
L 377.938181 223.132749 
L 379.461178 218.709647 
L 380.828882 214.236088 
L 382.039628 209.717521 
L 383.091941 205.159452 
L 383.984539 200.567435 
L 384.716334 195.947064 
L 385.286434 191.303969 
L 385.694146 186.643805 
L 385.938972 181.972252 
L 386.020613 177.295 
L 386.020613 177.295 
" style="fill:none;stroke:#808080;stroke-linecap:square;stroke-width:0.8;"/>
     </g>
     <g id="text_16">
      <!-- 30 -->
      <g style="fill:#555555;" transform="translate(375.818902 123.511907)scale(0.12 -0.12)">
       <use xlink:href="#DejaVuSans-51"/>
       <use x="63.623047" xlink:href="#DejaVuSans-48"/>
      </g>
     </g>
    </g>
    <g id="text_17">
     <!-- magnitude [dB] -->
     <defs>
      <path d="M 52 44.1875 
Q 55.375 50.25 60.0625 53.125 
Q 64.75 56 71.09375 56 
Q 79.640625 56 84.28125 50.015625 
Q 88.921875 44.046875 88.921875 33.015625 
L 88.921875 0 
L 79.890625 0 
L 79.890625 32.71875 
Q 79.890625 40.578125 77.09375 44.375 
Q 74.3125 48.1875 68.609375 48.1875 
Q 61.625 48.1875 57.5625 43.546875 
Q 53.515625 38.921875 53.515625 30.90625 
L 53.515625 0 
L 44.484375 0 
L 44.484375 32.71875 
Q 44.484375 40.625 41.703125 44.40625 
Q 38.921875 48.1875 33.109375 48.1875 
Q 26.21875 48.1875 22.15625 43.53125 
Q 18.109375 38.875 18.109375 30.90625 
L 18.109375 0 
L 9.078125 0 
L 9.078125 54.6875 
L 18.109375 54.6875 
L 18.109375 46.1875 
Q 21.1875 51.21875 25.484375 53.609375 
Q 29.78125 56 35.6875 56 
Q 41.65625 56 45.828125 52.96875 
Q 50 49.953125 52 44.1875 
z
" id="DejaVuSans-109"/>
      <path d="M 34.28125 27.484375 
Q 23.390625 27.484375 19.1875 25 
Q 14.984375 22.515625 14.984375 16.5 
Q 14.984375 11.71875 18.140625 8.90625 
Q 21.296875 6.109375 26.703125 6.109375 
Q 34.1875 6.109375 38.703125 11.40625 
Q 43.21875 16.703125 43.21875 25.484375 
L 43.21875 27.484375 
z
M 52.203125 31.203125 
L 52.203125 0 
L 43.21875 0 
L 43.21875 8.296875 
Q 40.140625 3.328125 35.546875 0.953125 
Q 30.953125 -1.421875 24.3125 -1.421875 
Q 15.921875 -1.421875 10.953125 3.296875 
Q 6 8.015625 6 15.921875 
Q 6 25.140625 12.171875 29.828125 
Q 18.359375 34.515625 30.609375 34.515625 
L 43.21875 34.515625 
L 43.21875 35.40625 
Q 43.21875 41.609375 39.140625 45 
Q 35.0625 48.390625 27.6875 48.390625 
Q 23 48.390625 18.546875 47.265625 
Q 14.109375 46.140625 10.015625 43.890625 
L 10.015625 52.203125 
Q 14.9375 54.109375 19.578125 55.046875 
Q 24.21875 56 28.609375 56 
Q 40.484375 56 46.34375 49.84375 
Q 52.203125 43.703125 52.203125 31.203125 
z
" id="DejaVuSans-97"/>
      <path d="M 45.40625 27.984375 
Q 45.40625 37.75 41.375 43.109375 
Q 37.359375 48.484375 30.078125 48.484375 
Q 22.859375 48.484375 18.828125 43.109375 
Q 14.796875 37.75 14.796875 27.984375 
Q 14.796875 18.265625 18.828125 12.890625 
Q 22.859375 7.515625 30.078125 7.515625 
Q 37.359375 7.515625 41.375 12.890625 
Q 45.40625 18.265625 45.40625 27.984375 
z
M 54.390625 6.78125 
Q 54.390625 -7.171875 48.1875 -13.984375 
Q 42 -20.796875 29.203125 -20.796875 
Q 24.46875 -20.796875 20.265625 -20.09375 
Q 16.0625 -19.390625 12.109375 -17.921875 
L 12.109375 -9.1875 
Q 16.0625 -11.328125 19.921875 -12.34375 
Q 23.78125 -13.375 27.78125 -13.375 
Q 36.625 -13.375 41.015625 -8.765625 
Q 45.40625 -4.15625 45.40625 5.171875 
L 45.40625 9.625 
Q 42.625 4.78125 38.28125 2.390625 
Q 33.9375 0 27.875 0 
Q 17.828125 0 11.671875 7.65625 
Q 5.515625 15.328125 5.515625 27.984375 
Q 5.515625 40.671875 11.671875 48.328125 
Q 17.828125 56 27.875 56 
Q 33.9375 56 38.28125 53.609375 
Q 42.625 51.21875 45.40625 46.390625 
L 45.40625 54.6875 
L 54.390625 54.6875 
z
" id="DejaVuSans-103"/>
      <path d="M 9.421875 54.6875 
L 18.40625 54.6875 
L 18.40625 0 
L 9.421875 0 
z
M 9.421875 75.984375 
L 18.40625 75.984375 
L 18.40625 64.59375 
L 9.421875 64.59375 
z
" id="DejaVuSans-105"/>
      <path d="M 18.3125 70.21875 
L 18.3125 54.6875 
L 36.8125 54.6875 
L 36.8125 47.703125 
L 18.3125 47.703125 
L 18.3125 18.015625 
Q 18.3125 11.328125 20.140625 9.421875 
Q 21.96875 7.515625 27.59375 7.515625 
L 36.8125 7.515625 
L 36.8125 0 
L 27.59375 0 
Q 17.1875 0 13.234375 3.875 
Q 9.28125 7.765625 9.28125 18.015625 
L 9.28125 47.703125 
L 2.6875 47.703125 
L 2.6875 54.6875 
L 9.28125 54.6875 
L 9.28125 70.21875 
z
" id="DejaVuSans-116"/>
      <path d="M 45.40625 46.390625 
L 45.40625 75.984375 
L 54.390625 75.984375 
L 54.390625 0 
L 45.40625 0 
L 45.40625 8.203125 
Q 42.578125 3.328125 38.25 0.953125 
Q 33.9375 -1.421875 27.875 -1.421875 
Q 17.96875 -1.421875 11.734375 6.484375 
Q 5.515625 14.40625 5.515625 27.296875 
Q 5.515625 40.1875 11.734375 48.09375 
Q 17.96875 56 27.875 56 
Q 33.9375 56 38.25 53.625 
Q 42.578125 51.265625 45.40625 46.390625 
z
M 14.796875 27.296875 
Q 14.796875 17.390625 18.875 11.75 
Q 22.953125 6.109375 30.078125 6.109375 
Q 37.203125 6.109375 41.296875 11.75 
Q 45.40625 17.390625 45.40625 27.296875 
Q 45.40625 37.203125 41.296875 42.84375 
Q 37.203125 48.484375 30.078125 48.484375 
Q 22.953125 48.484375 18.875 42.84375 
Q 14.796875 37.203125 14.796875 27.296875 
z
" id="DejaVuSans-100"/>
      <path d="M 19.671875 34.8125 
L 19.671875 8.109375 
L 35.5 8.109375 
Q 43.453125 8.109375 47.28125 11.40625 
Q 51.125 14.703125 51.125 21.484375 
Q 51.125 28.328125 47.28125 31.5625 
Q 43.453125 34.8125 35.5 34.8125 
z
M 19.671875 64.796875 
L 19.671875 42.828125 
L 34.28125 42.828125 
Q 41.5 42.828125 45.03125 45.53125 
Q 48.578125 48.25 48.578125 53.8125 
Q 48.578125 59.328125 45.03125 62.0625 
Q 41.5 64.796875 34.28125 64.796875 
z
M 9.8125 72.90625 
L 35.015625 72.90625 
Q 46.296875 72.90625 52.390625 68.21875 
Q 58.5 63.53125 58.5 54.890625 
Q 58.5 48.1875 55.375 44.234375 
Q 52.25 40.28125 46.1875 39.3125 
Q 53.46875 37.75 57.5 32.78125 
Q 61.53125 27.828125 61.53125 20.40625 
Q 61.53125 10.640625 54.890625 5.3125 
Q 48.25 0 35.984375 0 
L 9.8125 0 
z
" id="DejaVuSans-66"/>
     </defs>
     <g style="fill:#555555;" transform="translate(109.599375 224.264688)rotate(-90)scale(0.12 -0.12)">
      <use xlink:href="#DejaVuSans-109"/>
      <use x="97.412109" xlink:href="#DejaVuSans-97"/>
      <use x="158.691406" xlink:href="#DejaVuSans-103"/>
      <use x="222.167969" xlink:href="#DejaVuSans-110"/>
      <use x="285.546875" xlink:href="#DejaVuSans-105"/>
      <use x="313.330078" xlink:href="#DejaVuSans-116"/>
      <use x="352.539062" xlink:href="#DejaVuSans-117"/>
      <use x="415.917969" xlink:href="#DejaVuSans-100"/>
      <use x="479.394531" xlink:href="#DejaVuSans-101"/>
      <use x="540.917969" xlink:href="#DejaVuSans-32"/>
      <use x="572.705078" xlink:href="#DejaVuSans-91"/>
      <use x="611.71875" xlink:href="#DejaVuSans-100"/>
      <use x="675.195312" xlink:href="#DejaVuSans-66"/>
      <use x="743.798828" xlink:href="#DejaVuSans-93"/>
     </g>
    </g>
   </g>
   <g id="line2d_16">
    <path clip-path="url(#p41937855b9)" d="M 122.366379 172.360585 
L 122.380945 172.004194 
L 122.397693 171.622096 
L 122.416947 171.212444 
L 122.439085 170.773261 
L 122.464535 170.302429 
L 122.493796 169.797682 
L 122.527435 169.256595 
L 122.566109 168.676574 
L 122.61057 168.054844 
L 122.661684 167.388439 
L 122.720444 166.674191 
L 122.787994 165.908716 
L 122.865645 165.088402 
L 122.954907 164.209399 
L 123.057512 163.267603 
L 123.175451 162.258646 
L 123.31101 161.177885 
L 123.466812 160.02039 
L 123.645872 158.780936 
L 123.851648 157.453993 
L 124.088109 156.033725 
L 124.359806 154.513988 
L 124.671959 152.888334 
L 125.03055 151.150023 
L 125.442432 149.292042 
L 125.915449 147.307134 
L 126.458576 145.187846 
L 127.082069 142.926589 
L 127.79764 140.515724 
L 128.618642 137.947673 
L 129.560281 135.215072 
L 130.639837 132.31096 
L 131.876908 129.22903 
L 133.293656 125.96394 
L 134.915065 122.511713 
L 136.769178 118.870234 
L 138.887319 115.039865 
L 141.304253 111.024198 
L 144.058248 106.830974 
L 147.191011 102.473174 
L 150.747388 97.970303 
L 154.77478 93.349853 
L 159.322135 88.648927 
L 164.438402 83.915943 
L 170.170307 79.212299 
L 176.559324 74.6138 
L 183.637768 70.211544 
L 191.424026 66.111889 
L 199.91712 62.435034 
L 209.091031 59.311758 
L 218.889483 56.877956 
L 229.222166 55.266897 
L 239.963502 54.599573 
L 250.954955 54.974084 
L 262.011434 56.455511 
L 272.93159 59.068048 
L 283.510882 62.790986 
L 293.555563 67.5595 
L 302.895416 73.270253 
L 311.393324 79.790756 
L 318.950571 86.970804 
L 325.507657 94.654073 
L 331.04134 102.688284 
L 335.559052 110.93293 
L 339.092 119.264237 
L 341.688077 127.577518 
L 343.405371 135.787437 
L 344.30672 143.826765 
L 344.455464 151.644227 
L 343.912357 159.201879 
L 342.733492 166.47236 
L 340.969038 173.436221 
L 338.662621 180.079439 
L 335.851169 186.39115 
L 332.565125 192.361593 
L 328.828925 197.980234 
L 324.66172 203.234005 
L 320.078346 208.10563 
L 315.090578 212.571967 
L 309.708775 216.602374 
L 303.944042 220.157093 
L 297.81111 223.185751 
L 291.332155 225.62617 
L 284.541819 227.403826 
L 277.493598 228.432567 
L 270.267642 228.61746 
L 262.979526 227.860963 
L 255.788881 226.073827 
L 248.905627 223.191896 
L 242.590305 219.199054 
L 237.144047 214.15446 
L 232.884138 208.219097 
L 230.103935 201.673484 
L 229.02118 194.917103 
L 229.724972 188.442817 
L 232.1353 182.78646 
L 235.987286 178.460114 
L 240.845501 175.883027 
L 246.145376 175.323988 
" style="fill:none;stroke:#0000ff;stroke-linecap:square;stroke-width:2;"/>
   </g>
   <g id="patch_3">
    <path d="M 387.905 177.295 
C 387.905 159.448119 384.389554 141.774776 377.559848 125.286408 
C 370.730142 108.79804 360.718998 93.815304 348.099347 81.195653 
C 335.479696 68.576002 320.49696 58.564858 304.008592 51.735152 
C 287.520224 44.905446 269.846881 41.39 252 41.39 
C 234.153119 41.39 216.479776 44.905446 199.991408 51.735152 
C 183.50304 58.564858 168.520304 68.576002 155.900653 81.195653 
C 143.281002 93.815304 133.269858 108.79804 126.440152 125.286408 
C 119.610446 141.774776 116.095 159.448119 116.095 177.295 
C 116.095 195.141881 119.610446 212.815224 126.440152 229.303592 
C 133.269858 245.79196 143.281002 260.774696 155.900653 273.394347 
C 168.520304 286.013998 183.50304 296.025142 199.991408 302.854848 
C 216.479776 309.684554 234.153119 313.2 252 313.2 
C 269.846881 313.2 287.520224 309.684554 304.008592 302.854848 
C 320.49696 296.025142 335.479696 286.013998 348.099347 273.394347 
C 360.718998 260.774696 370.730142 245.79196 377.559848 229.303592 
C 384.389554 212.815224 387.905 195.141881 387.905 177.295 
" style="fill:none;stroke:#ffffff;stroke-linecap:square;stroke-linejoin:miter;"/>
   </g>
   <g id="text_18">
    <!-- dB polar -->
    <defs>
     <path d="M 18.109375 8.203125 
L 18.109375 -20.796875 
L 9.078125 -20.796875 
L 9.078125 54.6875 
L 18.109375 54.6875 
L 18.109375 46.390625 
Q 20.953125 51.265625 25.265625 53.625 
Q 29.59375 56 35.59375 56 
Q 45.5625 56 51.78125 48.09375 
Q 58.015625 40.1875 58.015625 27.296875 
Q 58.015625 14.40625 51.78125 6.484375 
Q 45.5625 -1.421875 35.59375 -1.421875 
Q 29.59375 -1.421875 25.265625 0.953125 
Q 20.953125 3.328125 18.109375 8.203125 
z
M 48.6875 27.296875 
Q 48.6875 37.203125 44.609375 42.84375 
Q 40.53125 48.484375 33.40625 48.484375 
Q 26.265625 48.484375 22.1875 42.84375 
Q 18.109375 37.203125 18.109375 27.296875 
Q 18.109375 17.390625 22.1875 11.75 
Q 26.265625 6.109375 33.40625 6.109375 
Q 40.53125 6.109375 44.609375 11.75 
Q 48.6875 17.390625 48.6875 27.296875 
z
" id="DejaVuSans-112"/>
     <path d="M 30.609375 48.390625 
Q 23.390625 48.390625 19.1875 42.75 
Q 14.984375 37.109375 14.984375 27.296875 
Q 14.984375 17.484375 19.15625 11.84375 
Q 23.34375 6.203125 30.609375 6.203125 
Q 37.796875 6.203125 41.984375 11.859375 
Q 46.1875 17.53125 46.1875 27.296875 
Q 46.1875 37.015625 41.984375 42.703125 
Q 37.796875 48.390625 30.609375 48.390625 
z
M 30.609375 56 
Q 42.328125 56 49.015625 48.375 
Q 55.71875 40.765625 55.71875 27.296875 
Q 55.71875 13.875 49.015625 6.21875 
Q 42.328125 -1.421875 30.609375 -1.421875 
Q 18.84375 -1.421875 12.171875 6.21875 
Q 5.515625 13.875 5.515625 27.296875 
Q 5.515625 40.765625 12.171875 48.375 
Q 18.84375 56 30.609375 56 
z
" id="DejaVuSans-111"/>
     <path d="M 9.421875 75.984375 
L 18.40625 75.984375 
L 18.40625 0 
L 9.421875 0 
z
" id="DejaVuSans-108"/>
    </defs>
    <g transform="translate(226.876875 21.7995)scale(0.12 -0.12)">
     <use xlink:href="#DejaVuSans-100"/>
     <use x="63.476562" xlink:href="#DejaVuSans-66"/>
     <use x="132.080078" xlink:href="#DejaVuSans-32"/>
     <use x="163.867188" xlink:href="#DejaVuSans-112"/>
     <use x="227.34375" xlink:href="#DejaVuSans-111"/>
     <use x="288.525391" xlink:href="#DejaVuSans-108"/>
     <use x="316.308594" xlink:href="#DejaVuSans-97"/>
     <use x="377.587891" xlink:href="#DejaVuSans-114"/>
    </g>
   </g>
   <g id="legend_1">
    <g id="patch_4">
     <path d="M 380.905 50.39 
L 380.905 50.39 
Q 382.905 50.39 382.905 48.39 
L 382.905 48.39 
Q 382.905 46.39 380.905 46.39 
L 380.905 46.39 
Q 378.905 46.39 378.905 48.39 
L 378.905 48.39 
Q 378.905 50.39 380.905 50.39 
z
" style="fill:#e5e5e5;opacity:0.8;stroke:#cccccc;stroke-linejoin:miter;stroke-width:0.5;"/>
    </g>
   </g>
  </g>
 </g>
 <defs>
  <clipPath id="p41937855b9">
   <path d="M 387.905 177.295 
C 387.905 159.448119 384.389554 141.774776 377.559848 125.286408 
C 370.730142 108.79804 360.718998 93.815304 348.099347 81.195653 
C 335.479696 68.576002 320.49696 58.564858 304.008592 51.735152 
C 287.520224 44.905446 269.846881 41.39 252 41.39 
C 234.153119 41.39 216.479776 44.905446 199.991408 51.735152 
C 183.50304 58.564858 168.520304 68.576002 155.900653 81.195653 
C 143.281002 93.815304 133.269858 108.79804 126.440152 125.286408 
C 119.610446 141.774776 116.095 159.448119 116.095 177.295 
C 116.095 195.141881 119.610446 212.815224 126.440152 229.303592 
C 133.269858 245.79196 143.281002 260.774696 155.900653 273.394347 
C 168.520304 286.013998 183.50304 296.025142 199.991408 302.854848 
C 216.479776 309.684554 234.153119 313.2 252 313.2 
C 269.846881 313.2 287.520224 309.684554 304.008592 302.854848 
C 320.49696 296.025142 335.479696 286.013998 348.099347 273.394347 
C 360.718998 260.774696 370.730142 245.79196 377.559848 229.303592 
C 384.389554 212.815224 387.905 195.141881 387.905 177.295 
M 252 177.295 
C 252 177.295 252 177.295 252 177.295 
C 252 177.295 252 177.295 252 177.295 
C 252 177.295 252 177.295 252 177.295 
C 252 177.295 252 177.295 252 177.295 
C 252 177.295 252 177.295 252 177.295 
C 252 177.295 252 177.295 252 177.295 
C 252 177.295 252 177.295 252 177.295 
C 252 177.295 252 177.295 252 177.295 
C 252 177.295 252 177.295 252 177.295 
C 252 177.295 252 177.295 252 177.295 
C 252 177.295 252 177.295 252 177.295 
C 252 177.295 252 177.295 252 177.295 
C 252 177.295 252 177.295 252 177.295 
C 252 177.295 252 177.295 252 177.295 
C 252 177.295 252 177.295 252 177.295 
C 252 177.295 252 177.295 252 177.295 
M 387.905 177.295 
z
"/>
  </clipPath>
 </defs>
</svg>
