<?xml version="1.0" encoding="utf-8" standalone="no"?>
<!DOCTYPE svg PUBLIC "-//W3C//DTD SVG 1.1//EN"
  "http://www.w3.org/Graphics/SVG/1.1/DTD/svg11.dtd">
<!-- Created with matplotlib (http://matplotlib.org/) -->
<svg height="360pt" version="1.1" viewBox="0 0 504 360" width="504pt" xmlns="http://www.w3.org/2000/svg" xmlns:xlink="http://www.w3.org/1999/xlink">
 <defs>
  <style type="text/css">
*{stroke-linecap:butt;stroke-linejoin:round;}
  </style>
 </defs>
 <g id="figure_1">
  <g id="patch_1">
   <path d="M 0 360 
L 504 360 
L 504 0 
L 0 0 
z
" style="fill:#ffffff;"/>
  </g>
  <g id="axes_1">
   <g id="patch_2">
    <path d="M 59.925 308.6 
L 489.7 308.6 
L 489.7 26.8 
L 59.925 26.8 
z
" style="fill:#ffffff;"/>
   </g>
   <g id="matplotlib.axis_1">
    <g id="xtick_1">
     <g id="line2d_1">
      <path clip-path="url(#p3c80622829)" d="M 79.460227 308.6 
L 79.460227 26.8 
" style="fill:none;stroke:#808080;stroke-linecap:square;stroke-width:0.8;"/>
     </g>
     <g id="line2d_2">
      <defs>
       <path d="M 0 0 
L 0 3.5 
" id="m3811d99c9d" style="stroke:#000000;stroke-width:0.8;"/>
      </defs>
      <g>
       <use style="stroke:#000000;stroke-width:0.8;" x="79.460227" xlink:href="#m3811d99c9d" y="308.6"/>
      </g>
     </g>
     <g id="text_1">
      <!-- $\mathdefault{10^{0}}$ -->
      <defs>
       <path d="M 12.40625 8.296875 
L 28.515625 8.296875 
L 28.515625 63.921875 
L 10.984375 60.40625 
L 10.984375 69.390625 
L 28.421875 72.90625 
L 38.28125 72.90625 
L 38.28125 8.296875 
L 54.390625 8.296875 
L 54.390625 0 
L 12.40625 0 
z
" id="DejaVuSans-31"/>
       <path d="M 31.78125 66.40625 
Q 24.171875 66.40625 20.328125 58.90625 
Q 16.5 51.421875 16.5 36.375 
Q 16.5 21.390625 20.328125 13.890625 
Q 24.171875 6.390625 31.78125 6.390625 
Q 39.453125 6.390625 43.28125 13.890625 
Q 47.125 21.390625 47.125 36.375 
Q 47.125 51.421875 43.28125 58.90625 
Q 39.453125 66.40625 31.78125 66.40625 
z
M 31.78125 74.21875 
Q 44.046875 74.21875 50.515625 64.515625 
Q 56.984375 54.828125 56.984375 36.375 
Q 56.984375 17.96875 50.515625 8.265625 
Q 44.046875 -1.421875 31.78125 -1.421875 
Q 19.53125 -1.421875 13.0625 8.265625 
Q 6.59375 17.96875 6.59375 36.375 
Q 6.59375 54.828125 13.0625 64.515625 
Q 19.53125 74.21875 31.78125 74.21875 
z
" id="DejaVuSans-30"/>
      </defs>
      <g transform="translate(68.900227 324.718125)scale(0.12 -0.12)">
       <use transform="translate(0 0.765625)" xlink:href="#DejaVuSans-31"/>
       <use transform="translate(63.623047 0.765625)" xlink:href="#DejaVuSans-30"/>
       <use transform="translate(128.203125 39.046875)scale(0.7)" xlink:href="#DejaVuSans-30"/>
      </g>
     </g>
    </g>
    <g id="xtick_2">
     <g id="line2d_3">
      <path clip-path="url(#p3c80622829)" d="M 209.695076 308.6 
L 209.695076 26.8 
" style="fill:none;stroke:#808080;stroke-linecap:square;stroke-width:0.8;"/>
     </g>
     <g id="line2d_4">
      <g>
       <use style="stroke:#000000;stroke-width:0.8;" x="209.695076" xlink:href="#m3811d99c9d" y="308.6"/>
      </g>
     </g>
     <g id="text_2">
      <!-- $\mathdefault{10^{1}}$ -->
      <g transform="translate(199.135076 324.718125)scale(0.12 -0.12)">
       <use transform="translate(0 0.684375)" xlink:href="#DejaVuSans-31"/>
       <use transform="translate(63.623047 0.684375)" xlink:href="#DejaVuSans-30"/>
       <use transform="translate(128.203125 38.965625)scale(0.7)" xlink:href="#DejaVuSans-31"/>
      </g>
     </g>
    </g>
    <g id="xtick_3">
     <g id="line2d_5">
      <path clip-path="url(#p3c80622829)" d="M 339.929924 308.6 
L 339.929924 26.8 
" style="fill:none;stroke:#808080;stroke-linecap:square;stroke-width:0.8;"/>
     </g>
     <g id="line2d_6">
      <g>
       <use style="stroke:#000000;stroke-width:0.8;" x="339.929924" xlink:href="#m3811d99c9d" y="308.6"/>
      </g>
     </g>
     <g id="text_3">
      <!-- $\mathdefault{10^{2}}$ -->
      <defs>
       <path d="M 19.1875 8.296875 
L 53.609375 8.296875 
L 53.609375 0 
L 7.328125 0 
L 7.328125 8.296875 
Q 12.9375 14.109375 22.625 23.890625 
Q 32.328125 33.6875 34.8125 36.53125 
Q 39.546875 41.84375 41.421875 45.53125 
Q 43.3125 49.21875 43.3125 52.78125 
Q 43.3125 58.59375 39.234375 62.25 
Q 35.15625 65.921875 28.609375 65.921875 
Q 23.96875 65.921875 18.8125 64.3125 
Q 13.671875 62.703125 7.8125 59.421875 
L 7.8125 69.390625 
Q 13.765625 71.78125 18.9375 73 
Q 24.125 74.21875 28.421875 74.21875 
Q 39.75 74.21875 46.484375 68.546875 
Q 53.21875 62.890625 53.21875 53.421875 
Q 53.21875 48.921875 51.53125 44.890625 
Q 49.859375 40.875 45.40625 35.40625 
Q 44.1875 33.984375 37.640625 27.21875 
Q 31.109375 20.453125 19.1875 8.296875 
z
" id="DejaVuSans-32"/>
      </defs>
      <g transform="translate(329.369924 324.718125)scale(0.12 -0.12)">
       <use transform="translate(0 0.765625)" xlink:href="#DejaVuSans-31"/>
       <use transform="translate(63.623047 0.765625)" xlink:href="#DejaVuSans-30"/>
       <use transform="translate(128.203125 39.046875)scale(0.7)" xlink:href="#DejaVuSans-32"/>
      </g>
     </g>
    </g>
    <g id="xtick_4">
     <g id="line2d_7">
      <path clip-path="url(#p3c80622829)" d="M 470.164773 308.6 
L 470.164773 26.8 
" style="fill:none;stroke:#808080;stroke-linecap:square;stroke-width:0.8;"/>
     </g>
     <g id="line2d_8">
      <g>
       <use style="stroke:#000000;stroke-width:0.8;" x="470.164773" xlink:href="#m3811d99c9d" y="308.6"/>
      </g>
     </g>
     <g id="text_4">
      <!-- $\mathdefault{10^{3}}$ -->
      <defs>
       <path d="M 40.578125 39.3125 
Q 47.65625 37.796875 51.625 33 
Q 55.609375 28.21875 55.609375 21.1875 
Q 55.609375 10.40625 48.1875 4.484375 
Q 40.765625 -1.421875 27.09375 -1.421875 
Q 22.515625 -1.421875 17.65625 -0.515625 
Q 12.796875 0.390625 7.625 2.203125 
L 7.625 11.71875 
Q 11.71875 9.328125 16.59375 8.109375 
Q 21.484375 6.890625 26.8125 6.890625 
Q 36.078125 6.890625 40.9375 10.546875 
Q 45.796875 14.203125 45.796875 21.1875 
Q 45.796875 27.640625 41.28125 31.265625 
Q 36.765625 34.90625 28.71875 34.90625 
L 20.21875 34.90625 
L 20.21875 43.015625 
L 29.109375 43.015625 
Q 36.375 43.015625 40.234375 45.921875 
Q 44.09375 48.828125 44.09375 54.296875 
Q 44.09375 59.90625 40.109375 62.90625 
Q 36.140625 65.921875 28.71875 65.921875 
Q 24.65625 65.921875 20.015625 65.03125 
Q 15.375 64.15625 9.8125 62.3125 
L 9.8125 71.09375 
Q 15.4375 72.65625 20.34375 73.4375 
Q 25.25 74.21875 29.59375 74.21875 
Q 40.828125 74.21875 47.359375 69.109375 
Q 53.90625 64.015625 53.90625 55.328125 
Q 53.90625 49.265625 50.4375 45.09375 
Q 46.96875 40.921875 40.578125 39.3125 
z
" id="DejaVuSans-33"/>
      </defs>
      <g transform="translate(459.604773 324.718125)scale(0.12 -0.12)">
       <use transform="translate(0 0.765625)" xlink:href="#DejaVuSans-31"/>
       <use transform="translate(63.623047 0.765625)" xlink:href="#DejaVuSans-30"/>
       <use transform="translate(128.203125 39.046875)scale(0.7)" xlink:href="#DejaVuSans-33"/>
      </g>
     </g>
    </g>
    <g id="xtick_5">
     <g id="line2d_9">
      <path clip-path="url(#p3c80622829)" d="M 66.839166 308.6 
L 66.839166 26.8 
" style="fill:none;stroke:#808080;stroke-dasharray:0.8,1.32;stroke-dashoffset:0;stroke-width:0.8;"/>
     </g>
     <g id="line2d_10">
      <defs>
       <path d="M 0 0 
L 0 2 
" id="me933a0a2bc" style="stroke:#000000;stroke-width:0.6;"/>
      </defs>
      <g>
       <use style="stroke:#000000;stroke-width:0.6;" x="66.839166" xlink:href="#me933a0a2bc" y="308.6"/>
      </g>
     </g>
    </g>
    <g id="xtick_6">
     <g id="line2d_11">
      <path clip-path="url(#p3c80622829)" d="M 73.501007 308.6 
L 73.501007 26.8 
" style="fill:none;stroke:#808080;stroke-dasharray:0.8,1.32;stroke-dashoffset:0;stroke-width:0.8;"/>
     </g>
     <g id="line2d_12">
      <g>
       <use style="stroke:#000000;stroke-width:0.6;" x="73.501007" xlink:href="#me933a0a2bc" y="308.6"/>
      </g>
     </g>
    </g>
    <g id="xtick_7">
     <g id="line2d_13">
      <path clip-path="url(#p3c80622829)" d="M 118.664823 308.6 
L 118.664823 26.8 
" style="fill:none;stroke:#808080;stroke-dasharray:0.8,1.32;stroke-dashoffset:0;stroke-width:0.8;"/>
     </g>
     <g id="line2d_14">
      <g>
       <use style="stroke:#000000;stroke-width:0.6;" x="118.664823" xlink:href="#me933a0a2bc" y="308.6"/>
      </g>
     </g>
    </g>
    <g id="xtick_8">
     <g id="line2d_15">
      <path clip-path="url(#p3c80622829)" d="M 141.598042 308.6 
L 141.598042 26.8 
" style="fill:none;stroke:#808080;stroke-dasharray:0.8,1.32;stroke-dashoffset:0;stroke-width:0.8;"/>
     </g>
     <g id="line2d_16">
      <g>
       <use style="stroke:#000000;stroke-width:0.6;" x="141.598042" xlink:href="#me933a0a2bc" y="308.6"/>
      </g>
     </g>
    </g>
    <g id="xtick_9">
     <g id="line2d_17">
      <path clip-path="url(#p3c80622829)" d="M 157.869419 308.6 
L 157.869419 26.8 
" style="fill:none;stroke:#808080;stroke-dasharray:0.8,1.32;stroke-dashoffset:0;stroke-width:0.8;"/>
     </g>
     <g id="line2d_18">
      <g>
       <use style="stroke:#000000;stroke-width:0.6;" x="157.869419" xlink:href="#me933a0a2bc" y="308.6"/>
      </g>
     </g>
    </g>
    <g id="xtick_10">
     <g id="line2d_19">
      <path clip-path="url(#p3c80622829)" d="M 170.49048 308.6 
L 170.49048 26.8 
" style="fill:none;stroke:#808080;stroke-dasharray:0.8,1.32;stroke-dashoffset:0;stroke-width:0.8;"/>
     </g>
     <g id="line2d_20">
      <g>
       <use style="stroke:#000000;stroke-width:0.6;" x="170.49048" xlink:href="#me933a0a2bc" y="308.6"/>
      </g>
     </g>
    </g>
    <g id="xtick_11">
     <g id="line2d_21">
      <path clip-path="url(#p3c80622829)" d="M 180.802637 308.6 
L 180.802637 26.8 
" style="fill:none;stroke:#808080;stroke-dasharray:0.8,1.32;stroke-dashoffset:0;stroke-width:0.8;"/>
     </g>
     <g id="line2d_22">
      <g>
       <use style="stroke:#000000;stroke-width:0.6;" x="180.802637" xlink:href="#me933a0a2bc" y="308.6"/>
      </g>
     </g>
    </g>
    <g id="xtick_12">
     <g id="line2d_23">
      <path clip-path="url(#p3c80622829)" d="M 189.521442 308.6 
L 189.521442 26.8 
" style="fill:none;stroke:#808080;stroke-dasharray:0.8,1.32;stroke-dashoffset:0;stroke-width:0.8;"/>
     </g>
     <g id="line2d_24">
      <g>
       <use style="stroke:#000000;stroke-width:0.6;" x="189.521442" xlink:href="#me933a0a2bc" y="308.6"/>
      </g>
     </g>
    </g>
    <g id="xtick_13">
     <g id="line2d_25">
      <path clip-path="url(#p3c80622829)" d="M 197.074015 308.6 
L 197.074015 26.8 
" style="fill:none;stroke:#808080;stroke-dasharray:0.8,1.32;stroke-dashoffset:0;stroke-width:0.8;"/>
     </g>
     <g id="line2d_26">
      <g>
       <use style="stroke:#000000;stroke-width:0.6;" x="197.074015" xlink:href="#me933a0a2bc" y="308.6"/>
      </g>
     </g>
    </g>
    <g id="xtick_14">
     <g id="line2d_27">
      <path clip-path="url(#p3c80622829)" d="M 203.735856 308.6 
L 203.735856 26.8 
" style="fill:none;stroke:#808080;stroke-dasharray:0.8,1.32;stroke-dashoffset:0;stroke-width:0.8;"/>
     </g>
     <g id="line2d_28">
      <g>
       <use style="stroke:#000000;stroke-width:0.6;" x="203.735856" xlink:href="#me933a0a2bc" y="308.6"/>
      </g>
     </g>
    </g>
    <g id="xtick_15">
     <g id="line2d_29">
      <path clip-path="url(#p3c80622829)" d="M 248.899672 308.6 
L 248.899672 26.8 
" style="fill:none;stroke:#808080;stroke-dasharray:0.8,1.32;stroke-dashoffset:0;stroke-width:0.8;"/>
     </g>
     <g id="line2d_30">
      <g>
       <use style="stroke:#000000;stroke-width:0.6;" x="248.899672" xlink:href="#me933a0a2bc" y="308.6"/>
      </g>
     </g>
    </g>
    <g id="xtick_16">
     <g id="line2d_31">
      <path clip-path="url(#p3c80622829)" d="M 271.83289 308.6 
L 271.83289 26.8 
" style="fill:none;stroke:#808080;stroke-dasharray:0.8,1.32;stroke-dashoffset:0;stroke-width:0.8;"/>
     </g>
     <g id="line2d_32">
      <g>
       <use style="stroke:#000000;stroke-width:0.6;" x="271.83289" xlink:href="#me933a0a2bc" y="308.6"/>
      </g>
     </g>
    </g>
    <g id="xtick_17">
     <g id="line2d_33">
      <path clip-path="url(#p3c80622829)" d="M 288.104268 308.6 
L 288.104268 26.8 
" style="fill:none;stroke:#808080;stroke-dasharray:0.8,1.32;stroke-dashoffset:0;stroke-width:0.8;"/>
     </g>
     <g id="line2d_34">
      <g>
       <use style="stroke:#000000;stroke-width:0.6;" x="288.104268" xlink:href="#me933a0a2bc" y="308.6"/>
      </g>
     </g>
    </g>
    <g id="xtick_18">
     <g id="line2d_35">
      <path clip-path="url(#p3c80622829)" d="M 300.725328 308.6 
L 300.725328 26.8 
" style="fill:none;stroke:#808080;stroke-dasharray:0.8,1.32;stroke-dashoffset:0;stroke-width:0.8;"/>
     </g>
     <g id="line2d_36">
      <g>
       <use style="stroke:#000000;stroke-width:0.6;" x="300.725328" xlink:href="#me933a0a2bc" y="308.6"/>
      </g>
     </g>
    </g>
    <g id="xtick_19">
     <g id="line2d_37">
      <path clip-path="url(#p3c80622829)" d="M 311.037486 308.6 
L 311.037486 26.8 
" style="fill:none;stroke:#808080;stroke-dasharray:0.8,1.32;stroke-dashoffset:0;stroke-width:0.8;"/>
     </g>
     <g id="line2d_38">
      <g>
       <use style="stroke:#000000;stroke-width:0.6;" x="311.037486" xlink:href="#me933a0a2bc" y="308.6"/>
      </g>
     </g>
    </g>
    <g id="xtick_20">
     <g id="line2d_39">
      <path clip-path="url(#p3c80622829)" d="M 319.756291 308.6 
L 319.756291 26.8 
" style="fill:none;stroke:#808080;stroke-dasharray:0.8,1.32;stroke-dashoffset:0;stroke-width:0.8;"/>
     </g>
     <g id="line2d_40">
      <g>
       <use style="stroke:#000000;stroke-width:0.6;" x="319.756291" xlink:href="#me933a0a2bc" y="308.6"/>
      </g>
     </g>
    </g>
    <g id="xtick_21">
     <g id="line2d_41">
      <path clip-path="url(#p3c80622829)" d="M 327.308863 308.6 
L 327.308863 26.8 
" style="fill:none;stroke:#808080;stroke-dasharray:0.8,1.32;stroke-dashoffset:0;stroke-width:0.8;"/>
     </g>
     <g id="line2d_42">
      <g>
       <use style="stroke:#000000;stroke-width:0.6;" x="327.308863" xlink:href="#me933a0a2bc" y="308.6"/>
      </g>
     </g>
    </g>
    <g id="xtick_22">
     <g id="line2d_43">
      <path clip-path="url(#p3c80622829)" d="M 333.970704 308.6 
L 333.970704 26.8 
" style="fill:none;stroke:#808080;stroke-dasharray:0.8,1.32;stroke-dashoffset:0;stroke-width:0.8;"/>
     </g>
     <g id="line2d_44">
      <g>
       <use style="stroke:#000000;stroke-width:0.6;" x="333.970704" xlink:href="#me933a0a2bc" y="308.6"/>
      </g>
     </g>
    </g>
    <g id="xtick_23">
     <g id="line2d_45">
      <path clip-path="url(#p3c80622829)" d="M 379.13452 308.6 
L 379.13452 26.8 
" style="fill:none;stroke:#808080;stroke-dasharray:0.8,1.32;stroke-dashoffset:0;stroke-width:0.8;"/>
     </g>
     <g id="line2d_46">
      <g>
       <use style="stroke:#000000;stroke-width:0.6;" x="379.13452" xlink:href="#me933a0a2bc" y="308.6"/>
      </g>
     </g>
    </g>
    <g id="xtick_24">
     <g id="line2d_47">
      <path clip-path="url(#p3c80622829)" d="M 402.067739 308.6 
L 402.067739 26.8 
" style="fill:none;stroke:#808080;stroke-dasharray:0.8,1.32;stroke-dashoffset:0;stroke-width:0.8;"/>
     </g>
     <g id="line2d_48">
      <g>
       <use style="stroke:#000000;stroke-width:0.6;" x="402.067739" xlink:href="#me933a0a2bc" y="308.6"/>
      </g>
     </g>
    </g>
    <g id="xtick_25">
     <g id="line2d_49">
      <path clip-path="url(#p3c80622829)" d="M 418.339116 308.6 
L 418.339116 26.8 
" style="fill:none;stroke:#808080;stroke-dasharray:0.8,1.32;stroke-dashoffset:0;stroke-width:0.8;"/>
     </g>
     <g id="line2d_50">
      <g>
       <use style="stroke:#000000;stroke-width:0.6;" x="418.339116" xlink:href="#me933a0a2bc" y="308.6"/>
      </g>
     </g>
    </g>
    <g id="xtick_26">
     <g id="line2d_51">
      <path clip-path="url(#p3c80622829)" d="M 430.960177 308.6 
L 430.960177 26.8 
" style="fill:none;stroke:#808080;stroke-dasharray:0.8,1.32;stroke-dashoffset:0;stroke-width:0.8;"/>
     </g>
     <g id="line2d_52">
      <g>
       <use style="stroke:#000000;stroke-width:0.6;" x="430.960177" xlink:href="#me933a0a2bc" y="308.6"/>
      </g>
     </g>
    </g>
    <g id="xtick_27">
     <g id="line2d_53">
      <path clip-path="url(#p3c80622829)" d="M 441.272334 308.6 
L 441.272334 26.8 
" style="fill:none;stroke:#808080;stroke-dasharray:0.8,1.32;stroke-dashoffset:0;stroke-width:0.8;"/>
     </g>
     <g id="line2d_54">
      <g>
       <use style="stroke:#000000;stroke-width:0.6;" x="441.272334" xlink:href="#me933a0a2bc" y="308.6"/>
      </g>
     </g>
    </g>
    <g id="xtick_28">
     <g id="line2d_55">
      <path clip-path="url(#p3c80622829)" d="M 449.991139 308.6 
L 449.991139 26.8 
" style="fill:none;stroke:#808080;stroke-dasharray:0.8,1.32;stroke-dashoffset:0;stroke-width:0.8;"/>
     </g>
     <g id="line2d_56">
      <g>
       <use style="stroke:#000000;stroke-width:0.6;" x="449.991139" xlink:href="#me933a0a2bc" y="308.6"/>
      </g>
     </g>
    </g>
    <g id="xtick_29">
     <g id="line2d_57">
      <path clip-path="url(#p3c80622829)" d="M 457.543712 308.6 
L 457.543712 26.8 
" style="fill:none;stroke:#808080;stroke-dasharray:0.8,1.32;stroke-dashoffset:0;stroke-width:0.8;"/>
     </g>
     <g id="line2d_58">
      <g>
       <use style="stroke:#000000;stroke-width:0.6;" x="457.543712" xlink:href="#me933a0a2bc" y="308.6"/>
      </g>
     </g>
    </g>
    <g id="xtick_30">
     <g id="line2d_59">
      <path clip-path="url(#p3c80622829)" d="M 464.205553 308.6 
L 464.205553 26.8 
" style="fill:none;stroke:#808080;stroke-dasharray:0.8,1.32;stroke-dashoffset:0;stroke-width:0.8;"/>
     </g>
     <g id="line2d_60">
      <g>
       <use style="stroke:#000000;stroke-width:0.6;" x="464.205553" xlink:href="#me933a0a2bc" y="308.6"/>
      </g>
     </g>
    </g>
    <g id="text_5">
     <!-- frequency [kHz] -->
     <defs>
      <path d="M 37.109375 75.984375 
L 37.109375 68.5 
L 28.515625 68.5 
Q 23.6875 68.5 21.796875 66.546875 
Q 19.921875 64.59375 19.921875 59.515625 
L 19.921875 54.6875 
L 34.71875 54.6875 
L 34.71875 47.703125 
L 19.921875 47.703125 
L 19.921875 0 
L 10.890625 0 
L 10.890625 47.703125 
L 2.296875 47.703125 
L 2.296875 54.6875 
L 10.890625 54.6875 
L 10.890625 58.5 
Q 10.890625 67.625 15.140625 71.796875 
Q 19.390625 75.984375 28.609375 75.984375 
z
" id="DejaVuSans-66"/>
      <path d="M 41.109375 46.296875 
Q 39.59375 47.171875 37.8125 47.578125 
Q 36.03125 48 33.890625 48 
Q 26.265625 48 22.1875 43.046875 
Q 18.109375 38.09375 18.109375 28.8125 
L 18.109375 0 
L 9.078125 0 
L 9.078125 54.6875 
L 18.109375 54.6875 
L 18.109375 46.1875 
Q 20.953125 51.171875 25.484375 53.578125 
Q 30.03125 56 36.53125 56 
Q 37.453125 56 38.578125 55.875 
Q 39.703125 55.765625 41.0625 55.515625 
z
" id="DejaVuSans-72"/>
      <path d="M 56.203125 29.59375 
L 56.203125 25.203125 
L 14.890625 25.203125 
Q 15.484375 15.921875 20.484375 11.0625 
Q 25.484375 6.203125 34.421875 6.203125 
Q 39.59375 6.203125 44.453125 7.46875 
Q 49.3125 8.734375 54.109375 11.28125 
L 54.109375 2.78125 
Q 49.265625 0.734375 44.1875 -0.34375 
Q 39.109375 -1.421875 33.890625 -1.421875 
Q 20.796875 -1.421875 13.15625 6.1875 
Q 5.515625 13.8125 5.515625 26.8125 
Q 5.515625 40.234375 12.765625 48.109375 
Q 20.015625 56 32.328125 56 
Q 43.359375 56 49.78125 48.890625 
Q 56.203125 41.796875 56.203125 29.59375 
z
M 47.21875 32.234375 
Q 47.125 39.59375 43.09375 43.984375 
Q 39.0625 48.390625 32.421875 48.390625 
Q 24.90625 48.390625 20.390625 44.140625 
Q 15.875 39.890625 15.1875 32.171875 
z
" id="DejaVuSans-65"/>
      <path d="M 14.796875 27.296875 
Q 14.796875 17.390625 18.875 11.75 
Q 22.953125 6.109375 30.078125 6.109375 
Q 37.203125 6.109375 41.296875 11.75 
Q 45.40625 17.390625 45.40625 27.296875 
Q 45.40625 37.203125 41.296875 42.84375 
Q 37.203125 48.484375 30.078125 48.484375 
Q 22.953125 48.484375 18.875 42.84375 
Q 14.796875 37.203125 14.796875 27.296875 
z
M 45.40625 8.203125 
Q 42.578125 3.328125 38.25 0.953125 
Q 33.9375 -1.421875 27.875 -1.421875 
Q 17.96875 -1.421875 11.734375 6.484375 
Q 5.515625 14.40625 5.515625 27.296875 
Q 5.515625 40.1875 11.734375 48.09375 
Q 17.96875 56 27.875 56 
Q 33.9375 56 38.25 53.625 
Q 42.578125 51.265625 45.40625 46.390625 
L 45.40625 54.6875 
L 54.390625 54.6875 
L 54.390625 -20.796875 
L 45.40625 -20.796875 
z
" id="DejaVuSans-71"/>
      <path d="M 8.5 21.578125 
L 8.5 54.6875 
L 17.484375 54.6875 
L 17.484375 21.921875 
Q 17.484375 14.15625 20.5 10.265625 
Q 23.53125 6.390625 29.59375 6.390625 
Q 36.859375 6.390625 41.078125 11.03125 
Q 45.3125 15.671875 45.3125 23.6875 
L 45.3125 54.6875 
L 54.296875 54.6875 
L 54.296875 0 
L 45.3125 0 
L 45.3125 8.40625 
Q 42.046875 3.421875 37.71875 1 
Q 33.40625 -1.421875 27.6875 -1.421875 
Q 18.265625 -1.421875 13.375 4.4375 
Q 8.5 10.296875 8.5 21.578125 
z
M 31.109375 56 
z
" id="DejaVuSans-75"/>
      <path d="M 54.890625 33.015625 
L 54.890625 0 
L 45.90625 0 
L 45.90625 32.71875 
Q 45.90625 40.484375 42.875 44.328125 
Q 39.84375 48.1875 33.796875 48.1875 
Q 26.515625 48.1875 22.3125 43.546875 
Q 18.109375 38.921875 18.109375 30.90625 
L 18.109375 0 
L 9.078125 0 
L 9.078125 54.6875 
L 18.109375 54.6875 
L 18.109375 46.1875 
Q 21.34375 51.125 25.703125 53.5625 
Q 30.078125 56 35.796875 56 
Q 45.21875 56 50.046875 50.171875 
Q 54.890625 44.34375 54.890625 33.015625 
z
" id="DejaVuSans-6e"/>
      <path d="M 48.78125 52.59375 
L 48.78125 44.1875 
Q 44.96875 46.296875 41.140625 47.34375 
Q 37.3125 48.390625 33.40625 48.390625 
Q 24.65625 48.390625 19.8125 42.84375 
Q 14.984375 37.3125 14.984375 27.296875 
Q 14.984375 17.28125 19.8125 11.734375 
Q 24.65625 6.203125 33.40625 6.203125 
Q 37.3125 6.203125 41.140625 7.25 
Q 44.96875 8.296875 48.78125 10.40625 
L 48.78125 2.09375 
Q 45.015625 0.34375 40.984375 -0.53125 
Q 36.96875 -1.421875 32.421875 -1.421875 
Q 20.0625 -1.421875 12.78125 6.34375 
Q 5.515625 14.109375 5.515625 27.296875 
Q 5.515625 40.671875 12.859375 48.328125 
Q 20.21875 56 33.015625 56 
Q 37.15625 56 41.109375 55.140625 
Q 45.0625 54.296875 48.78125 52.59375 
z
" id="DejaVuSans-63"/>
      <path d="M 32.171875 -5.078125 
Q 28.375 -14.84375 24.75 -17.8125 
Q 21.140625 -20.796875 15.09375 -20.796875 
L 7.90625 -20.796875 
L 7.90625 -13.28125 
L 13.1875 -13.28125 
Q 16.890625 -13.28125 18.9375 -11.515625 
Q 21 -9.765625 23.484375 -3.21875 
L 25.09375 0.875 
L 2.984375 54.6875 
L 12.5 54.6875 
L 29.59375 11.921875 
L 46.6875 54.6875 
L 56.203125 54.6875 
z
" id="DejaVuSans-79"/>
      <path id="DejaVuSans-20"/>
      <path d="M 8.59375 75.984375 
L 29.296875 75.984375 
L 29.296875 69 
L 17.578125 69 
L 17.578125 -6.203125 
L 29.296875 -6.203125 
L 29.296875 -13.1875 
L 8.59375 -13.1875 
z
" id="DejaVuSans-5b"/>
      <path d="M 9.078125 75.984375 
L 18.109375 75.984375 
L 18.109375 31.109375 
L 44.921875 54.6875 
L 56.390625 54.6875 
L 27.390625 29.109375 
L 57.625 0 
L 45.90625 0 
L 18.109375 26.703125 
L 18.109375 0 
L 9.078125 0 
z
" id="DejaVuSans-6b"/>
      <path d="M 9.8125 72.90625 
L 19.671875 72.90625 
L 19.671875 43.015625 
L 55.515625 43.015625 
L 55.515625 72.90625 
L 65.375 72.90625 
L 65.375 0 
L 55.515625 0 
L 55.515625 34.71875 
L 19.671875 34.71875 
L 19.671875 0 
L 9.8125 0 
z
" id="DejaVuSans-48"/>
      <path d="M 5.515625 54.6875 
L 48.1875 54.6875 
L 48.1875 46.484375 
L 14.40625 7.171875 
L 48.1875 7.171875 
L 48.1875 0 
L 4.296875 0 
L 4.296875 8.203125 
L 38.09375 47.515625 
L 5.515625 47.515625 
z
" id="DejaVuSans-7a"/>
      <path d="M 30.421875 75.984375 
L 30.421875 -13.1875 
L 9.71875 -13.1875 
L 9.71875 -6.203125 
L 21.390625 -6.203125 
L 21.390625 69 
L 9.71875 69 
L 9.71875 75.984375 
z
" id="DejaVuSans-5d"/>
     </defs>
     <g transform="translate(226.863125 340.331875)scale(0.12 -0.12)">
      <use xlink:href="#DejaVuSans-66"/>
      <use x="35.205078" xlink:href="#DejaVuSans-72"/>
      <use x="76.287109" xlink:href="#DejaVuSans-65"/>
      <use x="137.810547" xlink:href="#DejaVuSans-71"/>
      <use x="201.287109" xlink:href="#DejaVuSans-75"/>
      <use x="264.666016" xlink:href="#DejaVuSans-65"/>
      <use x="326.189453" xlink:href="#DejaVuSans-6e"/>
      <use x="389.568359" xlink:href="#DejaVuSans-63"/>
      <use x="444.548828" xlink:href="#DejaVuSans-79"/>
      <use x="503.728516" xlink:href="#DejaVuSans-20"/>
      <use x="535.515625" xlink:href="#DejaVuSans-5b"/>
      <use x="574.529297" xlink:href="#DejaVuSans-6b"/>
      <use x="632.439453" xlink:href="#DejaVuSans-48"/>
      <use x="707.634766" xlink:href="#DejaVuSans-7a"/>
      <use x="760.125" xlink:href="#DejaVuSans-5d"/>
     </g>
    </g>
   </g>
   <g id="matplotlib.axis_2">
    <g id="ytick_1">
     <g id="line2d_61">
      <path clip-path="url(#p3c80622829)" d="M 59.925 259.59747 
L 489.7 259.59747 
" style="fill:none;stroke:#808080;stroke-linecap:square;stroke-width:0.8;"/>
     </g>
     <g id="line2d_62">
      <defs>
       <path d="M 0 0 
L -3.5 0 
" id="mfe909e2adc" style="stroke:#000000;stroke-width:0.8;"/>
      </defs>
      <g>
       <use style="stroke:#000000;stroke-width:0.8;" x="59.925" xlink:href="#mfe909e2adc" y="259.59747"/>
      </g>
     </g>
     <g id="text_6">
      <!-- −40 -->
      <defs>
       <path d="M 10.59375 35.5 
L 73.1875 35.5 
L 73.1875 27.203125 
L 10.59375 27.203125 
z
" id="DejaVuSans-2212"/>
       <path d="M 37.796875 64.3125 
L 12.890625 25.390625 
L 37.796875 25.390625 
z
M 35.203125 72.90625 
L 47.609375 72.90625 
L 47.609375 25.390625 
L 58.015625 25.390625 
L 58.015625 17.1875 
L 47.609375 17.1875 
L 47.609375 0 
L 37.796875 0 
L 37.796875 17.1875 
L 4.890625 17.1875 
L 4.890625 26.703125 
z
" id="DejaVuSans-34"/>
      </defs>
      <g transform="translate(27.599375 264.156532)scale(0.12 -0.12)">
       <use xlink:href="#DejaVuSans-2212"/>
       <use x="83.789062" xlink:href="#DejaVuSans-34"/>
       <use x="147.412109" xlink:href="#DejaVuSans-30"/>
      </g>
     </g>
    </g>
    <g id="ytick_2">
     <g id="line2d_63">
      <path clip-path="url(#p3c80622829)" d="M 59.925 201.451175 
L 489.7 201.451175 
" style="fill:none;stroke:#808080;stroke-linecap:square;stroke-width:0.8;"/>
     </g>
     <g id="line2d_64">
      <g>
       <use style="stroke:#000000;stroke-width:0.8;" x="59.925" xlink:href="#mfe909e2adc" y="201.451175"/>
      </g>
     </g>
     <g id="text_7">
      <!-- −20 -->
      <g transform="translate(27.599375 206.010238)scale(0.12 -0.12)">
       <use xlink:href="#DejaVuSans-2212"/>
       <use x="83.789062" xlink:href="#DejaVuSans-32"/>
       <use x="147.412109" xlink:href="#DejaVuSans-30"/>
      </g>
     </g>
    </g>
    <g id="ytick_3">
     <g id="line2d_65">
      <path clip-path="url(#p3c80622829)" d="M 59.925 143.304881 
L 489.7 143.304881 
" style="fill:none;stroke:#808080;stroke-linecap:square;stroke-width:0.8;"/>
     </g>
     <g id="line2d_66">
      <g>
       <use style="stroke:#000000;stroke-width:0.8;" x="59.925" xlink:href="#mfe909e2adc" y="143.304881"/>
      </g>
     </g>
     <g id="text_8">
      <!-- 0 -->
      <g transform="translate(45.29 147.863943)scale(0.12 -0.12)">
       <use xlink:href="#DejaVuSans-30"/>
      </g>
     </g>
    </g>
    <g id="ytick_4">
     <g id="line2d_67">
      <path clip-path="url(#p3c80622829)" d="M 59.925 85.158586 
L 489.7 85.158586 
" style="fill:none;stroke:#808080;stroke-linecap:square;stroke-width:0.8;"/>
     </g>
     <g id="line2d_68">
      <g>
       <use style="stroke:#000000;stroke-width:0.8;" x="59.925" xlink:href="#mfe909e2adc" y="85.158586"/>
      </g>
     </g>
     <g id="text_9">
      <!-- 20 -->
      <g transform="translate(37.655 89.717649)scale(0.12 -0.12)">
       <use xlink:href="#DejaVuSans-32"/>
       <use x="63.623047" xlink:href="#DejaVuSans-30"/>
      </g>
     </g>
    </g>
    <g id="ytick_5">
     <g id="line2d_69">
      <path clip-path="url(#p3c80622829)" d="M 59.925 27.012292 
L 489.7 27.012292 
" style="fill:none;stroke:#808080;stroke-linecap:square;stroke-width:0.8;"/>
     </g>
     <g id="line2d_70">
      <g>
       <use style="stroke:#000000;stroke-width:0.8;" x="59.925" xlink:href="#mfe909e2adc" y="27.012292"/>
      </g>
     </g>
     <g id="text_10">
      <!-- 40 -->
      <g transform="translate(37.655 31.571355)scale(0.12 -0.12)">
       <use xlink:href="#DejaVuSans-34"/>
       <use x="63.623047" xlink:href="#DejaVuSans-30"/>
      </g>
     </g>
    </g>
    <g id="text_11">
     <!-- magnitude [dB] -->
     <defs>
      <path d="M 52 44.1875 
Q 55.375 50.25 60.0625 53.125 
Q 64.75 56 71.09375 56 
Q 79.640625 56 84.28125 50.015625 
Q 88.921875 44.046875 88.921875 33.015625 
L 88.921875 0 
L 79.890625 0 
L 79.890625 32.71875 
Q 79.890625 40.578125 77.09375 44.375 
Q 74.3125 48.1875 68.609375 48.1875 
Q 61.625 48.1875 57.5625 43.546875 
Q 53.515625 38.921875 53.515625 30.90625 
L 53.515625 0 
L 44.484375 0 
L 44.484375 32.71875 
Q 44.484375 40.625 41.703125 44.40625 
Q 38.921875 48.1875 33.109375 48.1875 
Q 26.21875 48.1875 22.15625 43.53125 
Q 18.109375 38.875 18.109375 30.90625 
L 18.109375 0 
L 9.078125 0 
L 9.078125 54.6875 
L 18.109375 54.6875 
L 18.109375 46.1875 
Q 21.1875 51.21875 25.484375 53.609375 
Q 29.78125 56 35.6875 56 
Q 41.65625 56 45.828125 52.96875 
Q 50 49.953125 52 44.1875 
z
" id="DejaVuSans-6d"/>
      <path d="M 34.28125 27.484375 
Q 23.390625 27.484375 19.1875 25 
Q 14.984375 22.515625 14.984375 16.5 
Q 14.984375 11.71875 18.140625 8.90625 
Q 21.296875 6.109375 26.703125 6.109375 
Q 34.1875 6.109375 38.703125 11.40625 
Q 43.21875 16.703125 43.21875 25.484375 
L 43.21875 27.484375 
z
M 52.203125 31.203125 
L 52.203125 0 
L 43.21875 0 
L 43.21875 8.296875 
Q 40.140625 3.328125 35.546875 0.953125 
Q 30.953125 -1.421875 24.3125 -1.421875 
Q 15.921875 -1.421875 10.953125 3.296875 
Q 6 8.015625 6 15.921875 
Q 6 25.140625 12.171875 29.828125 
Q 18.359375 34.515625 30.609375 34.515625 
L 43.21875 34.515625 
L 43.21875 35.40625 
Q 43.21875 41.609375 39.140625 45 
Q 35.0625 48.390625 27.6875 48.390625 
Q 23 48.390625 18.546875 47.265625 
Q 14.109375 46.140625 10.015625 43.890625 
L 10.015625 52.203125 
Q 14.9375 54.109375 19.578125 55.046875 
Q 24.21875 56 28.609375 56 
Q 40.484375 56 46.34375 49.84375 
Q 52.203125 43.703125 52.203125 31.203125 
z
" id="DejaVuSans-61"/>
      <path d="M 45.40625 27.984375 
Q 45.40625 37.75 41.375 43.109375 
Q 37.359375 48.484375 30.078125 48.484375 
Q 22.859375 48.484375 18.828125 43.109375 
Q 14.796875 37.75 14.796875 27.984375 
Q 14.796875 18.265625 18.828125 12.890625 
Q 22.859375 7.515625 30.078125 7.515625 
Q 37.359375 7.515625 41.375 12.890625 
Q 45.40625 18.265625 45.40625 27.984375 
z
M 54.390625 6.78125 
Q 54.390625 -7.171875 48.1875 -13.984375 
Q 42 -20.796875 29.203125 -20.796875 
Q 24.46875 -20.796875 20.265625 -20.09375 
Q 16.0625 -19.390625 12.109375 -17.921875 
L 12.109375 -9.1875 
Q 16.0625 -11.328125 19.921875 -12.34375 
Q 23.78125 -13.375 27.78125 -13.375 
Q 36.625 -13.375 41.015625 -8.765625 
Q 45.40625 -4.15625 45.40625 5.171875 
L 45.40625 9.625 
Q 42.625 4.78125 38.28125 2.390625 
Q 33.9375 0 27.875 0 
Q 17.828125 0 11.671875 7.65625 
Q 5.515625 15.328125 5.515625 27.984375 
Q 5.515625 40.671875 11.671875 48.328125 
Q 17.828125 56 27.875 56 
Q 33.9375 56 38.28125 53.609375 
Q 42.625 51.21875 45.40625 46.390625 
L 45.40625 54.6875 
L 54.390625 54.6875 
z
" id="DejaVuSans-67"/>
      <path d="M 9.421875 54.6875 
L 18.40625 54.6875 
L 18.40625 0 
L 9.421875 0 
z
M 9.421875 75.984375 
L 18.40625 75.984375 
L 18.40625 64.59375 
L 9.421875 64.59375 
z
" id="DejaVuSans-69"/>
      <path d="M 18.3125 70.21875 
L 18.3125 54.6875 
L 36.8125 54.6875 
L 36.8125 47.703125 
L 18.3125 47.703125 
L 18.3125 18.015625 
Q 18.3125 11.328125 20.140625 9.421875 
Q 21.96875 7.515625 27.59375 7.515625 
L 36.8125 7.515625 
L 36.8125 0 
L 27.59375 0 
Q 17.1875 0 13.234375 3.875 
Q 9.28125 7.765625 9.28125 18.015625 
L 9.28125 47.703125 
L 2.6875 47.703125 
L 2.6875 54.6875 
L 9.28125 54.6875 
L 9.28125 70.21875 
z
" id="DejaVuSans-74"/>
      <path d="M 45.40625 46.390625 
L 45.40625 75.984375 
L 54.390625 75.984375 
L 54.390625 0 
L 45.40625 0 
L 45.40625 8.203125 
Q 42.578125 3.328125 38.25 0.953125 
Q 33.9375 -1.421875 27.875 -1.421875 
Q 17.96875 -1.421875 11.734375 6.484375 
Q 5.515625 14.40625 5.515625 27.296875 
Q 5.515625 40.1875 11.734375 48.09375 
Q 17.96875 56 27.875 56 
Q 33.9375 56 38.25 53.625 
Q 42.578125 51.265625 45.40625 46.390625 
z
M 14.796875 27.296875 
Q 14.796875 17.390625 18.875 11.75 
Q 22.953125 6.109375 30.078125 6.109375 
Q 37.203125 6.109375 41.296875 11.75 
Q 45.40625 17.390625 45.40625 27.296875 
Q 45.40625 37.203125 41.296875 42.84375 
Q 37.203125 48.484375 30.078125 48.484375 
Q 22.953125 48.484375 18.875 42.84375 
Q 14.796875 37.203125 14.796875 27.296875 
z
" id="DejaVuSans-64"/>
      <path d="M 19.671875 34.8125 
L 19.671875 8.109375 
L 35.5 8.109375 
Q 43.453125 8.109375 47.28125 11.40625 
Q 51.125 14.703125 51.125 21.484375 
Q 51.125 28.328125 47.28125 31.5625 
Q 43.453125 34.8125 35.5 34.8125 
z
M 19.671875 64.796875 
L 19.671875 42.828125 
L 34.28125 42.828125 
Q 41.5 42.828125 45.03125 45.53125 
Q 48.578125 48.25 48.578125 53.8125 
Q 48.578125 59.328125 45.03125 62.0625 
Q 41.5 64.796875 34.28125 64.796875 
z
M 9.8125 72.90625 
L 35.015625 72.90625 
Q 46.296875 72.90625 52.390625 68.21875 
Q 58.5 63.53125 58.5 54.890625 
Q 58.5 48.1875 55.375 44.234375 
Q 52.25 40.28125 46.1875 39.3125 
Q 53.46875 37.75 57.5 32.78125 
Q 61.53125 27.828125 61.53125 20.40625 
Q 61.53125 10.640625 54.890625 5.3125 
Q 48.25 0 35.984375 0 
L 9.8125 0 
z
" id="DejaVuSans-42"/>
     </defs>
     <g transform="translate(21.10375 214.669687)rotate(-90)scale(0.12 -0.12)">
      <use xlink:href="#DejaVuSans-6d"/>
      <use x="97.412109" xlink:href="#DejaVuSans-61"/>
      <use x="158.691406" xlink:href="#DejaVuSans-67"/>
      <use x="222.167969" xlink:href="#DejaVuSans-6e"/>
      <use x="285.546875" xlink:href="#DejaVuSans-69"/>
      <use x="313.330078" xlink:href="#DejaVuSans-74"/>
      <use x="352.539062" xlink:href="#DejaVuSans-75"/>
      <use x="415.917969" xlink:href="#DejaVuSans-64"/>
      <use x="479.394531" xlink:href="#DejaVuSans-65"/>
      <use x="540.917969" xlink:href="#DejaVuSans-20"/>
      <use x="572.705078" xlink:href="#DejaVuSans-5b"/>
      <use x="611.71875" xlink:href="#DejaVuSans-64"/>
      <use x="675.195312" xlink:href="#DejaVuSans-42"/>
      <use x="743.798828" xlink:href="#DejaVuSans-5d"/>
     </g>
    </g>
   </g>
   <g id="line2d_71">
    <path clip-path="url(#p3c80622829)" d="M 79.460227 62.212079 
L 83.406738 62.212588 
L 87.353248 62.213165 
L 91.299759 62.21382 
L 95.24627 62.214563 
L 99.19278 62.215403 
L 103.139291 62.21635 
L 107.085801 62.217418 
L 111.032312 62.218618 
L 114.978822 62.219964 
L 118.925333 62.221472 
L 122.871843 62.22316 
L 126.818354 62.225051 
L 130.764865 62.227173 
L 134.711375 62.229568 
L 138.657886 62.232297 
L 142.604396 62.235454 
L 146.550907 62.239192 
L 150.497417 62.24375 
L 154.443928 62.249518 
L 158.390438 62.25712 
L 162.336949 62.267554 
L 166.28346 62.282405 
L 170.22997 62.30417 
L 174.176481 62.336757 
L 178.122991 62.38622 
L 182.069502 62.461848 
L 186.016012 62.577703 
L 189.962523 62.754724 
L 193.909034 63.023393 
L 197.855544 63.426686 
L 201.802055 64.022497 
L 205.748565 64.883838 
L 209.695076 66.094299 
L 213.641586 67.736593 
L 217.588097 69.874828 
L 221.534607 72.536337 
L 225.481118 75.702144 
L 229.427629 79.311808 
L 233.374139 83.279681 
L 237.32065 87.513799 
L 241.26716 91.929923 
L 245.213671 96.4584 
L 249.160181 101.045377 
L 253.106692 105.650969 
L 257.053202 110.246415 
L 260.999713 114.811298 
L 264.946224 119.331272 
L 268.892734 123.796349 
L 272.839245 128.199676 
L 276.785755 132.536675 
L 280.732266 136.804436 
L 284.678776 141.001295 
L 288.625287 145.126511 
L 292.571798 149.180029 
L 296.518308 153.162278 
L 300.464819 157.074006 
L 304.411329 160.916146 
L 308.35784 164.689688 
L 312.30435 168.395584 
L 316.250861 172.034675 
L 320.197371 175.607628 
L 324.143882 179.114915 
L 328.090393 182.556798 
L 332.036903 185.933351 
L 335.983414 189.2445 
L 339.929924 192.490083 
L 343.876435 195.66993 
L 347.822945 198.783956 
L 351.769456 201.832269 
L 355.715966 204.815274 
L 359.662477 207.733783 
L 363.608988 210.589121 
L 367.555498 213.38321 
L 371.502009 216.118658 
L 375.448519 218.798813 
L 379.39503 221.427822 
L 383.34154 224.010673 
L 387.288051 226.553229 
L 391.234562 229.062276 
L 395.181072 231.545577 
L 399.127583 234.011955 
L 403.074093 236.471407 
L 407.020604 238.93526 
L 410.967114 241.416382 
L 414.913625 243.929435 
L 418.860135 246.491188 
L 422.806646 249.120845 
L 426.753157 251.840371 
L 430.699667 254.674734 
L 434.646178 257.651968 
L 438.592688 260.802916 
L 442.539199 264.160486 
L 446.485709 267.7583 
L 450.43222 271.628664 
L 454.37873 275.800028 
L 458.325241 280.294252 
L 462.271752 285.124247 
L 466.218262 290.292512 
L 470.164773 295.790909 
" style="fill:none;stroke:#ff0000;stroke-linecap:square;stroke-width:2;"/>
   </g>
   <g id="line2d_72">
    <path clip-path="url(#p3c80622829)" d="M 79.460227 62.212877 
L 83.406738 62.213502 
L 87.353248 62.214212 
L 91.299759 62.215019 
L 95.24627 62.215932 
L 99.19278 62.216964 
L 103.139291 62.218126 
L 107.085801 62.219431 
L 111.032312 62.22089 
L 114.978822 62.222513 
L 118.925333 62.224307 
L 122.871843 62.226275 
L 126.818354 62.228415 
L 130.764865 62.230715 
L 134.711375 62.233148 
L 138.657886 62.23567 
L 142.604396 62.238213 
L 146.550907 62.240673 
L 150.497417 62.242901 
L 154.443928 62.24469 
L 158.390438 62.245754 
L 162.336949 62.24571 
L 166.28346 62.244052 
L 170.22997 62.240122 
L 174.176481 62.233081 
L 178.122991 62.221884 
L 182.069502 62.205254 
L 186.016012 62.181694 
L 189.962523 62.149527 
L 193.909034 62.107032 
L 197.855544 62.052714 
L 201.802055 61.985838 
L 205.748565 61.907394 
L 209.695076 61.821769 
L 213.641586 61.739574 
L 217.588097 61.68222 
L 221.534607 61.688896 
L 225.481118 61.826198 
L 229.427629 62.198761 
L 233.374139 62.954849 
L 237.32065 64.274509 
L 241.26716 66.327639 
L 245.213671 69.209347 
L 249.160181 72.89319 
L 253.106692 77.242708 
L 257.053202 82.070668 
L 260.999713 87.198699 
L 264.946224 92.487722 
L 268.892734 97.841845 
L 272.839245 103.199871 
L 276.785755 108.524624 
L 280.732266 113.794213 
L 284.678776 118.995946 
L 288.625287 124.12244 
L 292.571798 129.169236 
L 296.518308 134.133408 
L 300.464819 139.01277 
L 304.411329 143.805462 
L 308.35784 148.509749 
L 312.30435 153.123959 
L 316.250861 157.646487 
L 320.197371 162.075836 
L 324.143882 166.410669 
L 328.090393 170.649872 
L 332.036903 174.792588 
L 335.983414 178.838265 
L 339.929924 182.78667 
L 343.876435 186.63791 
L 347.822945 190.392443 
L 351.769456 194.051087 
L 355.715966 197.615044 
L 359.662477 201.085922 
L 363.608988 204.465781 
L 367.555498 207.757175 
L 371.502009 210.963224 
L 375.448519 214.087679 
L 379.39503 217.135004 
L 383.34154 220.110456 
L 387.288051 223.020171 
L 391.234562 225.871254 
L 395.181072 228.67188 
L 399.127583 231.4314 
L 403.074093 234.16048 
L 407.020604 236.87126 
L 410.967114 239.577557 
L 414.913625 242.295105 
L 418.860135 245.041841 
L 422.806646 247.838208 
L 426.753157 250.707451 
L 430.699667 253.675833 
L 434.646178 256.772674 
L 438.592688 260.030071 
L 442.539199 263.482142 
L 446.485709 267.163656 
L 450.43222 271.108009 
L 454.37873 275.344662 
L 458.325241 279.896421 
L 462.271752 284.777064 
L 466.218262 289.989882 
L 470.164773 295.527455 
" style="fill:none;stroke:#0000ff;stroke-linecap:square;stroke-width:2;"/>
   </g>
   <g id="line2d_73">
    <path clip-path="url(#p3c80622829)" d="M 79.460227 62.213222 
L 83.406738 62.213913 
L 87.353248 62.214706 
L 91.299759 62.215613 
L 95.24627 62.21665 
L 99.19278 62.217836 
L 103.139291 62.219191 
L 107.085801 62.220735 
L 111.032312 62.222495 
L 114.978822 62.224497 
L 118.925333 62.226771 
L 122.871843 62.229347 
L 126.818354 62.232261 
L 130.764865 62.235546 
L 134.711375 62.239238 
L 138.657886 62.243371 
L 142.604396 62.247976 
L 146.550907 62.253076 
L 150.497417 62.258684 
L 154.443928 62.264798 
L 158.390438 62.271389 
L 162.336949 62.278393 
L 166.28346 62.285694 
L 170.22997 62.293107 
L 174.176481 62.300351 
L 178.122991 62.307014 
L 182.069502 62.312514 
L 186.016012 62.316038 
L 189.962523 62.316476 
L 193.909034 62.312326 
L 197.855544 62.30159 
L 201.802055 62.281628 
L 205.748565 62.249 
L 209.695076 62.199264 
L 213.641586 62.126754 
L 217.588097 62.024335 
L 221.534607 61.883176 
L 225.481118 61.692582 
L 229.427629 61.44004 
L 233.374139 61.111734 
L 237.32065 60.694113 
L 241.26716 60.177676 
L 245.213671 59.565349 
L 249.160181 58.889955 
L 253.106692 58.2479 
L 257.053202 57.854375 
L 260.999713 58.09983 
L 264.946224 59.512945 
L 268.892734 62.502746 
L 272.839245 67.031206 
L 276.785755 72.644263 
L 280.732266 78.815166 
L 284.678776 85.171659 
L 288.625287 91.511936 
L 292.571798 97.745014 
L 296.518308 103.838261 
L 300.464819 109.786333 
L 304.411329 115.595244 
L 308.35784 121.274751 
L 312.30435 126.834894 
L 316.250861 132.284535 
L 320.197371 137.630844 
L 324.143882 142.879218 
L 328.090393 148.033395 
L 332.036903 153.09564 
L 335.983414 158.066967 
L 339.929924 162.947359 
L 343.876435 167.735989 
L 347.822945 172.431437 
L 351.769456 177.031897 
L 355.715966 181.535386 
L 359.662477 185.93994 
L 363.608988 190.243812 
L 367.555498 194.445651 
L 371.502009 198.544683 
L 375.448519 202.540877 
L 379.39503 206.435101 
L 383.34154 210.229272 
L 387.288051 213.926495 
L 391.234562 217.531209 
L 395.181072 221.049318 
L 399.127583 224.488348 
L 403.074093 227.8576 
L 407.020604 231.168335 
L 410.967114 234.433972 
L 414.913625 237.670328 
L 418.860135 240.895867 
L 422.806646 244.131975 
L 426.753157 247.403197 
L 430.699667 250.737398 
L 434.646178 254.165742 
L 438.592688 257.722346 
L 442.539199 261.443468 
L 446.485709 265.366089 
L 450.43222 269.525832 
L 454.37873 273.954377 
L 458.325241 278.676692 
L 462.271752 283.708634 
L 466.218262 289.055464 
L 470.164773 294.711599 
" style="fill:none;stroke:#008000;stroke-linecap:square;stroke-width:2;"/>
   </g>
   <g id="line2d_74">
    <path clip-path="url(#p3c80622829)" d="M 79.460227 62.21334 
L 83.406738 62.214056 
L 87.353248 62.214878 
L 91.299759 62.215822 
L 95.24627 62.216906 
L 99.19278 62.21815 
L 103.139291 62.219577 
L 107.085801 62.221214 
L 111.032312 62.223091 
L 114.978822 62.225242 
L 118.925333 62.227706 
L 122.871843 62.230528 
L 126.818354 62.233755 
L 130.764865 62.237446 
L 134.711375 62.241661 
L 138.657886 62.246471 
L 142.604396 62.251953 
L 146.550907 62.258193 
L 150.497417 62.265284 
L 154.443928 62.273327 
L 158.390438 62.282429 
L 162.336949 62.292704 
L 166.28346 62.304267 
L 170.22997 62.317231 
L 174.176481 62.331704 
L 178.122991 62.347776 
L 182.069502 62.365511 
L 186.016012 62.384926 
L 189.962523 62.405974 
L 193.909034 62.42851 
L 197.855544 62.452251 
L 201.802055 62.476724 
L 205.748565 62.501192 
L 209.695076 62.524568 
L 213.641586 62.54529 
L 217.588097 62.561168 
L 221.534607 62.569185 
L 225.481118 62.565236 
L 229.427629 62.543797 
L 233.374139 62.497488 
L 237.32065 62.416507 
L 241.26716 62.287878 
L 245.213671 62.094441 
L 249.160181 61.813463 
L 253.106692 61.414699 
L 257.053202 60.857583 
L 260.999713 60.087083 
L 264.946224 59.027423 
L 268.892734 57.572465 
L 272.839245 55.571485 
L 276.785755 52.812189 
L 280.732266 49.027887 
L 284.678776 44.119222 
L 288.625287 39.609091 
L 292.571798 41.5469 
L 296.518308 51.285285 
L 300.464819 62.355317 
L 304.411329 72.378198 
L 308.35784 81.295874 
L 312.30435 89.367485 
L 316.250861 96.8144 
L 320.197371 103.794297 
L 324.143882 110.417074 
L 328.090393 116.760142 
L 332.036903 122.878938 
L 335.983414 128.81378 
L 339.929924 134.594324 
L 343.876435 140.242532 
L 347.822945 145.774674 
L 351.769456 151.202728 
L 355.715966 156.535371 
L 359.662477 161.778715 
L 363.608988 166.936864 
L 367.555498 172.012355 
L 371.502009 177.006528 
L 375.448519 181.919852 
L 379.39503 186.752226 
L 383.34154 191.503275 
L 387.288051 196.172653 
L 391.234562 200.760354 
L 395.181072 205.267042 
L 399.127583 209.69441 
L 403.074093 214.045548 
L 407.020604 218.325354 
L 410.967114 222.540947 
L 414.913625 226.702105 
L 418.860135 230.821714 
L 422.806646 234.916182 
L 426.753157 239.005811 
L 430.699667 243.115043 
L 434.646178 247.272479 
L 438.592688 251.510558 
L 442.539199 255.864722 
L 446.485709 260.37195 
L 450.43222 265.068618 
L 454.37873 269.987813 
L 458.325241 275.156463 
L 462.271752 280.592807 
L 466.218262 286.304774 
L 470.164773 292.289606 
" style="fill:none;stroke:#00bfbf;stroke-linecap:square;stroke-width:2;"/>
   </g>
   <g id="line2d_75">
    <path clip-path="url(#p3c80622829)" d="M 79.460227 62.213378 
L 83.406738 62.214102 
L 87.353248 62.214934 
L 91.299759 62.215891 
L 95.24627 62.21699 
L 99.19278 62.218253 
L 103.139291 62.219705 
L 107.085801 62.221372 
L 111.032312 62.223289 
L 114.978822 62.22549 
L 118.925333 62.228018 
L 122.871843 62.230922 
L 126.818354 62.234256 
L 130.764865 62.238083 
L 134.711375 62.242476 
L 138.657886 62.247517 
L 142.604396 62.2533 
L 146.550907 62.259931 
L 150.497417 62.267532 
L 154.443928 62.27624 
L 158.390438 62.286212 
L 162.336949 62.297625 
L 166.28346 62.310677 
L 170.22997 62.325591 
L 174.176481 62.342617 
L 178.122991 62.362033 
L 182.069502 62.384148 
L 186.016012 62.409299 
L 189.962523 62.437856 
L 193.909034 62.470216 
L 197.855544 62.506803 
L 201.802055 62.548061 
L 205.748565 62.594442 
L 209.695076 62.646395 
L 213.641586 62.704342 
L 217.588097 62.768651 
L 221.534607 62.839596 
L 225.481118 62.917301 
L 229.427629 63.001674 
L 233.374139 63.092314 
L 237.32065 63.188393 
L 241.26716 63.288509 
L 245.213671 63.390502 
L 249.160181 63.491214 
L 253.106692 63.586202 
L 257.053202 63.669379 
L 260.999713 63.732557 
L 264.946224 63.764887 
L 268.892734 63.752153 
L 272.839245 63.675872 
L 276.785755 63.512155 
L 280.732266 63.23027 
L 284.678776 62.790894 
L 288.625287 62.144236 
L 292.571798 61.228886 
L 296.518308 59.97444 
L 300.464819 58.31814 
L 304.411329 56.268352 
L 308.35784 54.107707 
L 312.30435 52.868532 
L 316.250861 54.538137 
L 320.197371 60.103223 
L 324.143882 67.9879 
L 328.090393 76.385475 
L 332.036903 84.522977 
L 335.983414 92.221513 
L 339.929924 99.498118 
L 343.876435 106.415638 
L 347.822945 113.038029 
L 351.769456 119.419479 
L 355.715966 125.603409 
L 359.662477 131.623993 
L 363.608988 137.508018 
L 367.555498 143.27651 
L 371.502009 148.946032 
L 375.448519 154.52969 
L 379.39503 160.037914 
L 383.34154 165.479073 
L 387.288051 170.859981 
L 391.234562 176.186318 
L 395.181072 181.463016 
L 399.127583 186.694629 
L 403.074093 191.885695 
L 407.020604 197.041134 
L 410.967114 202.166672 
L 414.913625 207.269306 
L 418.860135 212.357821 
L 422.806646 217.443317 
L 426.753157 222.53975 
L 430.699667 227.664379 
L 434.646178 232.838058 
L 438.592688 238.085199 
L 442.539199 243.43327 
L 446.485709 248.911652 
L 450.43222 254.549809 
L 454.37873 260.374848 
L 458.325241 266.408818 
L 462.271752 272.666244 
L 466.218262 279.152463 
L 470.164773 285.863151 
" style="fill:none;stroke:#bf00bf;stroke-linecap:square;stroke-width:2;"/>
   </g>
   <g id="line2d_76">
    <path clip-path="url(#p3c80622829)" d="M 79.460227 62.21339 
L 83.406738 62.214117 
L 87.353248 62.214952 
L 91.299759 62.215913 
L 95.24627 62.217017 
L 99.19278 62.218286 
L 103.139291 62.219745 
L 107.085801 62.221423 
L 111.032312 62.223352 
L 114.978822 62.225569 
L 118.925333 62.228118 
L 122.871843 62.231048 
L 126.818354 62.234417 
L 130.764865 62.238289 
L 134.711375 62.242739 
L 138.657886 62.247855 
L 142.604396 62.253735 
L 146.550907 62.260492 
L 150.497417 62.268258 
L 154.443928 62.277183 
L 158.390438 62.287438 
L 162.336949 62.299221 
L 166.28346 62.312757 
L 170.22997 62.328307 
L 174.176481 62.346167 
L 178.122991 62.366678 
L 182.069502 62.390228 
L 186.016012 62.417263 
L 189.962523 62.448291 
L 193.909034 62.483894 
L 197.855544 62.524732 
L 201.802055 62.57156 
L 205.748565 62.625238 
L 209.695076 62.686738 
L 213.641586 62.757167 
L 217.588097 62.837776 
L 221.534607 62.929978 
L 225.481118 63.035367 
L 229.427629 63.15573 
L 233.374139 63.293076 
L 237.32065 63.449644 
L 241.26716 63.62793 
L 245.213671 63.830703 
L 249.160181 64.061023 
L 253.106692 64.32226 
L 257.053202 64.618114 
L 260.999713 64.952631 
L 264.946224 65.330227 
L 268.892734 65.755712 
L 272.839245 66.234328 
L 276.785755 66.771796 
L 280.732266 67.37439 
L 284.678776 68.049032 
L 288.625287 68.803431 
L 292.571798 69.64626 
L 296.518308 70.587382 
L 300.464819 71.638107 
L 304.411329 72.811468 
L 308.35784 74.122458 
L 312.30435 75.588162 
L 316.250861 77.227668 
L 320.197371 79.061643 
L 324.143882 81.111435 
L 328.090393 83.397673 
L 332.036903 85.938408 
L 335.983414 88.747053 
L 339.929924 91.830525 
L 343.876435 95.188027 
L 347.822945 98.810837 
L 351.769456 102.68316 
L 355.715966 106.783845 
L 359.662477 111.088532 
L 363.608988 115.571789 
L 367.555498 120.208894 
L 371.502009 124.9771 
L 375.448519 129.856388 
L 379.39503 134.829776 
L 383.34154 139.883344 
L 387.288051 145.006061 
L 391.234562 150.189549 
L 395.181072 155.427821 
L 399.127583 160.717057 
L 403.074093 166.055437 
L 407.020604 171.443046 
L 410.967114 176.881858 
L 414.913625 182.3758 
L 418.860135 187.9309 
L 422.806646 193.555483 
L 426.753157 199.260423 
L 430.699667 205.059364 
L 434.646178 210.96885 
L 438.592688 217.008236 
L 442.539199 223.199222 
L 446.485709 229.564865 
L 450.43222 236.127949 
L 454.37873 242.908772 
L 458.325241 249.922583 
L 462.271752 257.177148 
L 466.218262 264.671008 
L 470.164773 272.392887 
" style="fill:none;stroke:#bfbf00;stroke-linecap:square;stroke-width:2;"/>
   </g>
   <g id="line2d_77">
    <path clip-path="url(#p3c80622829)" d="M 79.460227 62.213394 
L 83.406738 62.214122 
L 87.353248 62.214958 
L 91.299759 62.21592 
L 95.24627 62.217025 
L 99.19278 62.218297 
L 103.139291 62.219758 
L 107.085801 62.221439 
L 111.032312 62.223372 
L 114.978822 62.225594 
L 118.925333 62.22815 
L 122.871843 62.231089 
L 126.818354 62.234468 
L 130.764865 62.238354 
L 134.711375 62.242823 
L 138.657886 62.247962 
L 142.604396 62.253873 
L 146.550907 62.260671 
L 150.497417 62.26849 
L 154.443928 62.277483 
L 158.390438 62.287828 
L 162.336949 62.299729 
L 166.28346 62.313421 
L 170.22997 62.329174 
L 174.176481 62.3473 
L 178.122991 62.36816 
L 182.069502 62.39217 
L 186.016012 62.419807 
L 189.962523 62.451627 
L 193.909034 62.488268 
L 197.855544 62.530469 
L 201.802055 62.579085 
L 205.748565 62.635105 
L 209.695076 62.699675 
L 213.641586 62.77412 
L 217.588097 62.859978 
L 221.534607 62.959031 
L 225.481118 63.073346 
L 229.427629 63.20532 
L 233.374139 63.35773 
L 237.32065 63.533798 
L 241.26716 63.737245 
L 245.213671 63.972372 
L 249.160181 64.244128 
L 253.106692 64.558188 
L 257.053202 64.921021 
L 260.999713 65.339948 
L 264.946224 65.823175 
L 268.892734 66.379789 
L 272.839245 67.0197 
L 276.785755 67.753502 
L 280.732266 68.592256 
L 284.678776 69.547165 
L 288.625287 70.629142 
L 292.571798 71.848307 
L 296.518308 73.213428 
L 300.464819 74.731373 
L 304.411329 76.406646 
L 308.35784 78.241064 
L 312.30435 80.233633 
L 316.250861 82.380644 
L 320.197371 84.675972 
L 324.143882 87.111534 
L 328.090393 89.677837 
L 332.036903 92.364554 
L 335.983414 95.161063 
L 339.929924 98.056909 
L 343.876435 101.042176 
L 347.822945 104.107761 
L 351.769456 107.24556 
L 355.715966 110.448588 
L 359.662477 113.71106 
L 363.608988 117.028437 
L 367.555498 120.397468 
L 371.502009 123.816236 
L 375.448519 127.284229 
L 379.39503 130.802435 
L 383.34154 134.373461 
L 387.288051 138.001697 
L 391.234562 141.693493 
L 395.181072 145.45736 
L 399.127583 149.304148 
L 403.074093 153.24718 
L 407.020604 157.302289 
L 410.967114 161.487699 
L 414.913625 165.823704 
L 418.860135 170.332116 
L 422.806646 175.035505 
L 426.753157 179.956308 
L 430.699667 185.115978 
L 434.646178 190.534323 
L 438.592688 196.22919 
L 442.539199 202.216496 
L 446.485709 208.510424 
L 450.43222 215.12349 
L 454.37873 222.0661 
L 458.325241 229.345375 
L 462.271752 236.963319 
L 466.218262 244.914746 
L 470.164773 253.185626 
" style="fill:none;stroke:#000000;stroke-linecap:square;stroke-width:2;"/>
   </g>
   <g id="patch_3">
    <path d="M 59.925 308.6 
L 59.925 26.8 
" style="fill:none;stroke:#000000;stroke-linecap:square;stroke-linejoin:miter;stroke-width:0.8;"/>
   </g>
   <g id="patch_4">
    <path d="M 489.7 308.6 
L 489.7 26.8 
" style="fill:none;stroke:#000000;stroke-linecap:square;stroke-linejoin:miter;stroke-width:0.8;"/>
   </g>
   <g id="patch_5">
    <path d="M 59.925 308.6 
L 489.7 308.6 
" style="fill:none;stroke:#000000;stroke-linecap:square;stroke-linejoin:miter;stroke-width:0.8;"/>
   </g>
   <g id="patch_6">
    <path d="M 59.925 26.8 
L 489.7 26.8 
" style="fill:none;stroke:#000000;stroke-linecap:square;stroke-linejoin:miter;stroke-width:0.8;"/>
   </g>
   <g id="text_12">
    <!-- dB magnitude step I_D -->
    <defs>
     <path d="M 44.28125 53.078125 
L 44.28125 44.578125 
Q 40.484375 46.53125 36.375 47.5 
Q 32.28125 48.484375 27.875 48.484375 
Q 21.1875 48.484375 17.84375 46.4375 
Q 14.5 44.390625 14.5 40.28125 
Q 14.5 37.15625 16.890625 35.375 
Q 19.28125 33.59375 26.515625 31.984375 
L 29.59375 31.296875 
Q 39.15625 29.25 43.1875 25.515625 
Q 47.21875 21.78125 47.21875 15.09375 
Q 47.21875 7.46875 41.1875 3.015625 
Q 35.15625 -1.421875 24.609375 -1.421875 
Q 20.21875 -1.421875 15.453125 -0.5625 
Q 10.6875 0.296875 5.421875 2 
L 5.421875 11.28125 
Q 10.40625 8.6875 15.234375 7.390625 
Q 20.0625 6.109375 24.8125 6.109375 
Q 31.15625 6.109375 34.5625 8.28125 
Q 37.984375 10.453125 37.984375 14.40625 
Q 37.984375 18.0625 35.515625 20.015625 
Q 33.0625 21.96875 24.703125 23.78125 
L 21.578125 24.515625 
Q 13.234375 26.265625 9.515625 29.90625 
Q 5.8125 33.546875 5.8125 39.890625 
Q 5.8125 47.609375 11.28125 51.796875 
Q 16.75 56 26.8125 56 
Q 31.78125 56 36.171875 55.265625 
Q 40.578125 54.546875 44.28125 53.078125 
z
" id="DejaVuSans-73"/>
     <path d="M 18.109375 8.203125 
L 18.109375 -20.796875 
L 9.078125 -20.796875 
L 9.078125 54.6875 
L 18.109375 54.6875 
L 18.109375 46.390625 
Q 20.953125 51.265625 25.265625 53.625 
Q 29.59375 56 35.59375 56 
Q 45.5625 56 51.78125 48.09375 
Q 58.015625 40.1875 58.015625 27.296875 
Q 58.015625 14.40625 51.78125 6.484375 
Q 45.5625 -1.421875 35.59375 -1.421875 
Q 29.59375 -1.421875 25.265625 0.953125 
Q 20.953125 3.328125 18.109375 8.203125 
z
M 48.6875 27.296875 
Q 48.6875 37.203125 44.609375 42.84375 
Q 40.53125 48.484375 33.40625 48.484375 
Q 26.265625 48.484375 22.1875 42.84375 
Q 18.109375 37.203125 18.109375 27.296875 
Q 18.109375 17.390625 22.1875 11.75 
Q 26.265625 6.109375 33.40625 6.109375 
Q 40.53125 6.109375 44.609375 11.75 
Q 48.6875 17.390625 48.6875 27.296875 
z
" id="DejaVuSans-70"/>
     <path d="M 9.8125 72.90625 
L 19.671875 72.90625 
L 19.671875 0 
L 9.8125 0 
z
" id="DejaVuSans-49"/>
     <path d="M 50.984375 -16.609375 
L 50.984375 -23.578125 
L -0.984375 -23.578125 
L -0.984375 -16.609375 
z
" id="DejaVuSans-5f"/>
     <path d="M 19.671875 64.796875 
L 19.671875 8.109375 
L 31.59375 8.109375 
Q 46.6875 8.109375 53.6875 14.9375 
Q 60.6875 21.78125 60.6875 36.53125 
Q 60.6875 51.171875 53.6875 57.984375 
Q 46.6875 64.796875 31.59375 64.796875 
z
M 9.8125 72.90625 
L 30.078125 72.90625 
Q 51.265625 72.90625 61.171875 64.09375 
Q 71.09375 55.28125 71.09375 36.53125 
Q 71.09375 17.671875 61.125 8.828125 
Q 51.171875 0 30.078125 0 
L 9.8125 0 
z
" id="DejaVuSans-44"/>
    </defs>
    <g transform="translate(206.342188 20.8)scale(0.12 -0.12)">
     <use xlink:href="#DejaVuSans-64"/>
     <use x="63.476562" xlink:href="#DejaVuSans-42"/>
     <use x="132.080078" xlink:href="#DejaVuSans-20"/>
     <use x="163.867188" xlink:href="#DejaVuSans-6d"/>
     <use x="261.279297" xlink:href="#DejaVuSans-61"/>
     <use x="322.558594" xlink:href="#DejaVuSans-67"/>
     <use x="386.035156" xlink:href="#DejaVuSans-6e"/>
     <use x="449.414062" xlink:href="#DejaVuSans-69"/>
     <use x="477.197266" xlink:href="#DejaVuSans-74"/>
     <use x="516.40625" xlink:href="#DejaVuSans-75"/>
     <use x="579.785156" xlink:href="#DejaVuSans-64"/>
     <use x="643.261719" xlink:href="#DejaVuSans-65"/>
     <use x="704.785156" xlink:href="#DejaVuSans-20"/>
     <use x="736.572266" xlink:href="#DejaVuSans-73"/>
     <use x="788.671875" xlink:href="#DejaVuSans-74"/>
     <use x="827.880859" xlink:href="#DejaVuSans-65"/>
     <use x="889.404297" xlink:href="#DejaVuSans-70"/>
     <use x="952.880859" xlink:href="#DejaVuSans-20"/>
     <use x="984.667969" xlink:href="#DejaVuSans-49"/>
     <use x="1014.160156" xlink:href="#DejaVuSans-5f"/>
     <use x="1064.160156" xlink:href="#DejaVuSans-44"/>
    </g>
   </g>
   <g id="legend_1">
    <g id="patch_7">
     <path d="M 66.925 303.6 
L 198.806875 303.6 
Q 200.806875 303.6 200.806875 301.6 
L 200.806875 217.9675 
Q 200.806875 215.9675 198.806875 215.9675 
L 66.925 215.9675 
Q 64.925 215.9675 64.925 217.9675 
L 64.925 301.6 
Q 64.925 303.6 66.925 303.6 
z
" style="fill:#ffffff;opacity:0.8;stroke:#cccccc;stroke-linejoin:miter;"/>
    </g>
    <g id="line2d_78">
     <path d="M 66.925 223.585625 
L 76.925 223.585625 
" style="fill:none;stroke:#ff0000;stroke-linecap:square;stroke-width:2;"/>
    </g>
    <g id="line2d_79"/>
    <g id="text_13">
     <!-- gain, I_D =  1.0e-12 -->
     <defs>
      <path d="M 11.71875 12.40625 
L 22.015625 12.40625 
L 22.015625 4 
L 14.015625 -11.625 
L 7.71875 -11.625 
L 11.71875 4 
z
" id="DejaVuSans-2c"/>
      <path d="M 10.59375 45.40625 
L 73.1875 45.40625 
L 73.1875 37.203125 
L 10.59375 37.203125 
z
M 10.59375 25.484375 
L 73.1875 25.484375 
L 73.1875 17.1875 
L 10.59375 17.1875 
z
" id="DejaVuSans-3d"/>
      <path d="M 10.6875 12.40625 
L 21 12.40625 
L 21 0 
L 10.6875 0 
z
" id="DejaVuSans-2e"/>
      <path d="M 4.890625 31.390625 
L 31.203125 31.390625 
L 31.203125 23.390625 
L 4.890625 23.390625 
z
" id="DejaVuSans-2d"/>
     </defs>
     <g transform="translate(78.925 227.085625)scale(0.12 -0.12)">
      <use xlink:href="#DejaVuSans-67"/>
      <use x="63.476562" xlink:href="#DejaVuSans-61"/>
      <use x="124.755859" xlink:href="#DejaVuSans-69"/>
      <use x="152.539062" xlink:href="#DejaVuSans-6e"/>
      <use x="215.917969" xlink:href="#DejaVuSans-2c"/>
      <use x="247.705078" xlink:href="#DejaVuSans-20"/>
      <use x="279.492188" xlink:href="#DejaVuSans-49"/>
      <use x="308.984375" xlink:href="#DejaVuSans-5f"/>
      <use x="358.984375" xlink:href="#DejaVuSans-44"/>
      <use x="435.986328" xlink:href="#DejaVuSans-20"/>
      <use x="467.773438" xlink:href="#DejaVuSans-3d"/>
      <use x="551.5625" xlink:href="#DejaVuSans-20"/>
      <use x="583.349609" xlink:href="#DejaVuSans-20"/>
      <use x="615.136719" xlink:href="#DejaVuSans-31"/>
      <use x="678.759766" xlink:href="#DejaVuSans-2e"/>
      <use x="710.546875" xlink:href="#DejaVuSans-30"/>
      <use x="774.169922" xlink:href="#DejaVuSans-65"/>
      <use x="835.693359" xlink:href="#DejaVuSans-2d"/>
      <use x="871.777344" xlink:href="#DejaVuSans-31"/>
      <use x="935.400391" xlink:href="#DejaVuSans-32"/>
     </g>
    </g>
    <g id="line2d_80">
     <path d="M 66.925 235.533125 
L 76.925 235.533125 
" style="fill:none;stroke:#0000ff;stroke-linecap:square;stroke-width:2;"/>
    </g>
    <g id="line2d_81"/>
    <g id="text_14">
     <!-- gain, I_D =  1.0e-11 -->
     <g transform="translate(78.925 239.033125)scale(0.12 -0.12)">
      <use xlink:href="#DejaVuSans-67"/>
      <use x="63.476562" xlink:href="#DejaVuSans-61"/>
      <use x="124.755859" xlink:href="#DejaVuSans-69"/>
      <use x="152.539062" xlink:href="#DejaVuSans-6e"/>
      <use x="215.917969" xlink:href="#DejaVuSans-2c"/>
      <use x="247.705078" xlink:href="#DejaVuSans-20"/>
      <use x="279.492188" xlink:href="#DejaVuSans-49"/>
      <use x="308.984375" xlink:href="#DejaVuSans-5f"/>
      <use x="358.984375" xlink:href="#DejaVuSans-44"/>
      <use x="435.986328" xlink:href="#DejaVuSans-20"/>
      <use x="467.773438" xlink:href="#DejaVuSans-3d"/>
      <use x="551.5625" xlink:href="#DejaVuSans-20"/>
      <use x="583.349609" xlink:href="#DejaVuSans-20"/>
      <use x="615.136719" xlink:href="#DejaVuSans-31"/>
      <use x="678.759766" xlink:href="#DejaVuSans-2e"/>
      <use x="710.546875" xlink:href="#DejaVuSans-30"/>
      <use x="774.169922" xlink:href="#DejaVuSans-65"/>
      <use x="835.693359" xlink:href="#DejaVuSans-2d"/>
      <use x="871.777344" xlink:href="#DejaVuSans-31"/>
      <use x="935.400391" xlink:href="#DejaVuSans-31"/>
     </g>
    </g>
    <g id="line2d_82">
     <path d="M 66.925 247.480625 
L 76.925 247.480625 
" style="fill:none;stroke:#008000;stroke-linecap:square;stroke-width:2;"/>
    </g>
    <g id="line2d_83"/>
    <g id="text_15">
     <!-- gain, I_D =  1.0e-10 -->
     <g transform="translate(78.925 250.980625)scale(0.12 -0.12)">
      <use xlink:href="#DejaVuSans-67"/>
      <use x="63.476562" xlink:href="#DejaVuSans-61"/>
      <use x="124.755859" xlink:href="#DejaVuSans-69"/>
      <use x="152.539062" xlink:href="#DejaVuSans-6e"/>
      <use x="215.917969" xlink:href="#DejaVuSans-2c"/>
      <use x="247.705078" xlink:href="#DejaVuSans-20"/>
      <use x="279.492188" xlink:href="#DejaVuSans-49"/>
      <use x="308.984375" xlink:href="#DejaVuSans-5f"/>
      <use x="358.984375" xlink:href="#DejaVuSans-44"/>
      <use x="435.986328" xlink:href="#DejaVuSans-20"/>
      <use x="467.773438" xlink:href="#DejaVuSans-3d"/>
      <use x="551.5625" xlink:href="#DejaVuSans-20"/>
      <use x="583.349609" xlink:href="#DejaVuSans-20"/>
      <use x="615.136719" xlink:href="#DejaVuSans-31"/>
      <use x="678.759766" xlink:href="#DejaVuSans-2e"/>
      <use x="710.546875" xlink:href="#DejaVuSans-30"/>
      <use x="774.169922" xlink:href="#DejaVuSans-65"/>
      <use x="835.693359" xlink:href="#DejaVuSans-2d"/>
      <use x="871.777344" xlink:href="#DejaVuSans-31"/>
      <use x="935.400391" xlink:href="#DejaVuSans-30"/>
     </g>
    </g>
    <g id="line2d_84">
     <path d="M 66.925 259.428125 
L 76.925 259.428125 
" style="fill:none;stroke:#00bfbf;stroke-linecap:square;stroke-width:2;"/>
    </g>
    <g id="line2d_85"/>
    <g id="text_16">
     <!-- gain, I_D =  1.0e-09 -->
     <defs>
      <path d="M 10.984375 1.515625 
L 10.984375 10.5 
Q 14.703125 8.734375 18.5 7.8125 
Q 22.3125 6.890625 25.984375 6.890625 
Q 35.75 6.890625 40.890625 13.453125 
Q 46.046875 20.015625 46.78125 33.40625 
Q 43.953125 29.203125 39.59375 26.953125 
Q 35.25 24.703125 29.984375 24.703125 
Q 19.046875 24.703125 12.671875 31.3125 
Q 6.296875 37.9375 6.296875 49.421875 
Q 6.296875 60.640625 12.9375 67.421875 
Q 19.578125 74.21875 30.609375 74.21875 
Q 43.265625 74.21875 49.921875 64.515625 
Q 56.59375 54.828125 56.59375 36.375 
Q 56.59375 19.140625 48.40625 8.859375 
Q 40.234375 -1.421875 26.421875 -1.421875 
Q 22.703125 -1.421875 18.890625 -0.6875 
Q 15.09375 0.046875 10.984375 1.515625 
z
M 30.609375 32.421875 
Q 37.25 32.421875 41.125 36.953125 
Q 45.015625 41.5 45.015625 49.421875 
Q 45.015625 57.28125 41.125 61.84375 
Q 37.25 66.40625 30.609375 66.40625 
Q 23.96875 66.40625 20.09375 61.84375 
Q 16.21875 57.28125 16.21875 49.421875 
Q 16.21875 41.5 20.09375 36.953125 
Q 23.96875 32.421875 30.609375 32.421875 
z
" id="DejaVuSans-39"/>
     </defs>
     <g transform="translate(78.925 262.928125)scale(0.12 -0.12)">
      <use xlink:href="#DejaVuSans-67"/>
      <use x="63.476562" xlink:href="#DejaVuSans-61"/>
      <use x="124.755859" xlink:href="#DejaVuSans-69"/>
      <use x="152.539062" xlink:href="#DejaVuSans-6e"/>
      <use x="215.917969" xlink:href="#DejaVuSans-2c"/>
      <use x="247.705078" xlink:href="#DejaVuSans-20"/>
      <use x="279.492188" xlink:href="#DejaVuSans-49"/>
      <use x="308.984375" xlink:href="#DejaVuSans-5f"/>
      <use x="358.984375" xlink:href="#DejaVuSans-44"/>
      <use x="435.986328" xlink:href="#DejaVuSans-20"/>
      <use x="467.773438" xlink:href="#DejaVuSans-3d"/>
      <use x="551.5625" xlink:href="#DejaVuSans-20"/>
      <use x="583.349609" xlink:href="#DejaVuSans-20"/>
      <use x="615.136719" xlink:href="#DejaVuSans-31"/>
      <use x="678.759766" xlink:href="#DejaVuSans-2e"/>
      <use x="710.546875" xlink:href="#DejaVuSans-30"/>
      <use x="774.169922" xlink:href="#DejaVuSans-65"/>
      <use x="835.693359" xlink:href="#DejaVuSans-2d"/>
      <use x="871.777344" xlink:href="#DejaVuSans-30"/>
      <use x="935.400391" xlink:href="#DejaVuSans-39"/>
     </g>
    </g>
    <g id="line2d_86">
     <path d="M 66.925 271.375625 
L 76.925 271.375625 
" style="fill:none;stroke:#bf00bf;stroke-linecap:square;stroke-width:2;"/>
    </g>
    <g id="line2d_87"/>
    <g id="text_17">
     <!-- gain, I_D =  1.0e-08 -->
     <defs>
      <path d="M 31.78125 34.625 
Q 24.75 34.625 20.71875 30.859375 
Q 16.703125 27.09375 16.703125 20.515625 
Q 16.703125 13.921875 20.71875 10.15625 
Q 24.75 6.390625 31.78125 6.390625 
Q 38.8125 6.390625 42.859375 10.171875 
Q 46.921875 13.96875 46.921875 20.515625 
Q 46.921875 27.09375 42.890625 30.859375 
Q 38.875 34.625 31.78125 34.625 
z
M 21.921875 38.8125 
Q 15.578125 40.375 12.03125 44.71875 
Q 8.5 49.078125 8.5 55.328125 
Q 8.5 64.0625 14.71875 69.140625 
Q 20.953125 74.21875 31.78125 74.21875 
Q 42.671875 74.21875 48.875 69.140625 
Q 55.078125 64.0625 55.078125 55.328125 
Q 55.078125 49.078125 51.53125 44.71875 
Q 48 40.375 41.703125 38.8125 
Q 48.828125 37.15625 52.796875 32.3125 
Q 56.78125 27.484375 56.78125 20.515625 
Q 56.78125 9.90625 50.3125 4.234375 
Q 43.84375 -1.421875 31.78125 -1.421875 
Q 19.734375 -1.421875 13.25 4.234375 
Q 6.78125 9.90625 6.78125 20.515625 
Q 6.78125 27.484375 10.78125 32.3125 
Q 14.796875 37.15625 21.921875 38.8125 
z
M 18.3125 54.390625 
Q 18.3125 48.734375 21.84375 45.5625 
Q 25.390625 42.390625 31.78125 42.390625 
Q 38.140625 42.390625 41.71875 45.5625 
Q 45.3125 48.734375 45.3125 54.390625 
Q 45.3125 60.0625 41.71875 63.234375 
Q 38.140625 66.40625 31.78125 66.40625 
Q 25.390625 66.40625 21.84375 63.234375 
Q 18.3125 60.0625 18.3125 54.390625 
z
" id="DejaVuSans-38"/>
     </defs>
     <g transform="translate(78.925 274.875625)scale(0.12 -0.12)">
      <use xlink:href="#DejaVuSans-67"/>
      <use x="63.476562" xlink:href="#DejaVuSans-61"/>
      <use x="124.755859" xlink:href="#DejaVuSans-69"/>
      <use x="152.539062" xlink:href="#DejaVuSans-6e"/>
      <use x="215.917969" xlink:href="#DejaVuSans-2c"/>
      <use x="247.705078" xlink:href="#DejaVuSans-20"/>
      <use x="279.492188" xlink:href="#DejaVuSans-49"/>
      <use x="308.984375" xlink:href="#DejaVuSans-5f"/>
      <use x="358.984375" xlink:href="#DejaVuSans-44"/>
      <use x="435.986328" xlink:href="#DejaVuSans-20"/>
      <use x="467.773438" xlink:href="#DejaVuSans-3d"/>
      <use x="551.5625" xlink:href="#DejaVuSans-20"/>
      <use x="583.349609" xlink:href="#DejaVuSans-20"/>
      <use x="615.136719" xlink:href="#DejaVuSans-31"/>
      <use x="678.759766" xlink:href="#DejaVuSans-2e"/>
      <use x="710.546875" xlink:href="#DejaVuSans-30"/>
      <use x="774.169922" xlink:href="#DejaVuSans-65"/>
      <use x="835.693359" xlink:href="#DejaVuSans-2d"/>
      <use x="871.777344" xlink:href="#DejaVuSans-30"/>
      <use x="935.400391" xlink:href="#DejaVuSans-38"/>
     </g>
    </g>
    <g id="line2d_88">
     <path d="M 66.925 283.323125 
L 76.925 283.323125 
" style="fill:none;stroke:#bfbf00;stroke-linecap:square;stroke-width:2;"/>
    </g>
    <g id="line2d_89"/>
    <g id="text_18">
     <!-- gain, I_D =  1.0e-07 -->
     <defs>
      <path d="M 8.203125 72.90625 
L 55.078125 72.90625 
L 55.078125 68.703125 
L 28.609375 0 
L 18.3125 0 
L 43.21875 64.59375 
L 8.203125 64.59375 
z
" id="DejaVuSans-37"/>
     </defs>
     <g transform="translate(78.925 286.823125)scale(0.12 -0.12)">
      <use xlink:href="#DejaVuSans-67"/>
      <use x="63.476562" xlink:href="#DejaVuSans-61"/>
      <use x="124.755859" xlink:href="#DejaVuSans-69"/>
      <use x="152.539062" xlink:href="#DejaVuSans-6e"/>
      <use x="215.917969" xlink:href="#DejaVuSans-2c"/>
      <use x="247.705078" xlink:href="#DejaVuSans-20"/>
      <use x="279.492188" xlink:href="#DejaVuSans-49"/>
      <use x="308.984375" xlink:href="#DejaVuSans-5f"/>
      <use x="358.984375" xlink:href="#DejaVuSans-44"/>
      <use x="435.986328" xlink:href="#DejaVuSans-20"/>
      <use x="467.773438" xlink:href="#DejaVuSans-3d"/>
      <use x="551.5625" xlink:href="#DejaVuSans-20"/>
      <use x="583.349609" xlink:href="#DejaVuSans-20"/>
      <use x="615.136719" xlink:href="#DejaVuSans-31"/>
      <use x="678.759766" xlink:href="#DejaVuSans-2e"/>
      <use x="710.546875" xlink:href="#DejaVuSans-30"/>
      <use x="774.169922" xlink:href="#DejaVuSans-65"/>
      <use x="835.693359" xlink:href="#DejaVuSans-2d"/>
      <use x="871.777344" xlink:href="#DejaVuSans-30"/>
      <use x="935.400391" xlink:href="#DejaVuSans-37"/>
     </g>
    </g>
    <g id="line2d_90">
     <path d="M 66.925 295.270625 
L 76.925 295.270625 
" style="fill:none;stroke:#000000;stroke-linecap:square;stroke-width:2;"/>
    </g>
    <g id="line2d_91"/>
    <g id="text_19">
     <!-- gain, I_D =  1.0e-06 -->
     <defs>
      <path d="M 33.015625 40.375 
Q 26.375 40.375 22.484375 35.828125 
Q 18.609375 31.296875 18.609375 23.390625 
Q 18.609375 15.53125 22.484375 10.953125 
Q 26.375 6.390625 33.015625 6.390625 
Q 39.65625 6.390625 43.53125 10.953125 
Q 47.40625 15.53125 47.40625 23.390625 
Q 47.40625 31.296875 43.53125 35.828125 
Q 39.65625 40.375 33.015625 40.375 
z
M 52.59375 71.296875 
L 52.59375 62.3125 
Q 48.875 64.0625 45.09375 64.984375 
Q 41.3125 65.921875 37.59375 65.921875 
Q 27.828125 65.921875 22.671875 59.328125 
Q 17.53125 52.734375 16.796875 39.40625 
Q 19.671875 43.65625 24.015625 45.921875 
Q 28.375 48.1875 33.59375 48.1875 
Q 44.578125 48.1875 50.953125 41.515625 
Q 57.328125 34.859375 57.328125 23.390625 
Q 57.328125 12.15625 50.6875 5.359375 
Q 44.046875 -1.421875 33.015625 -1.421875 
Q 20.359375 -1.421875 13.671875 8.265625 
Q 6.984375 17.96875 6.984375 36.375 
Q 6.984375 53.65625 15.1875 63.9375 
Q 23.390625 74.21875 37.203125 74.21875 
Q 40.921875 74.21875 44.703125 73.484375 
Q 48.484375 72.75 52.59375 71.296875 
z
" id="DejaVuSans-36"/>
     </defs>
     <g transform="translate(78.925 298.770625)scale(0.12 -0.12)">
      <use xlink:href="#DejaVuSans-67"/>
      <use x="63.476562" xlink:href="#DejaVuSans-61"/>
      <use x="124.755859" xlink:href="#DejaVuSans-69"/>
      <use x="152.539062" xlink:href="#DejaVuSans-6e"/>
      <use x="215.917969" xlink:href="#DejaVuSans-2c"/>
      <use x="247.705078" xlink:href="#DejaVuSans-20"/>
      <use x="279.492188" xlink:href="#DejaVuSans-49"/>
      <use x="308.984375" xlink:href="#DejaVuSans-5f"/>
      <use x="358.984375" xlink:href="#DejaVuSans-44"/>
      <use x="435.986328" xlink:href="#DejaVuSans-20"/>
      <use x="467.773438" xlink:href="#DejaVuSans-3d"/>
      <use x="551.5625" xlink:href="#DejaVuSans-20"/>
      <use x="583.349609" xlink:href="#DejaVuSans-20"/>
      <use x="615.136719" xlink:href="#DejaVuSans-31"/>
      <use x="678.759766" xlink:href="#DejaVuSans-2e"/>
      <use x="710.546875" xlink:href="#DejaVuSans-30"/>
      <use x="774.169922" xlink:href="#DejaVuSans-65"/>
      <use x="835.693359" xlink:href="#DejaVuSans-2d"/>
      <use x="871.777344" xlink:href="#DejaVuSans-30"/>
      <use x="935.400391" xlink:href="#DejaVuSans-36"/>
     </g>
    </g>
   </g>
  </g>
 </g>
 <defs>
  <clipPath id="p3c80622829">
   <rect height="281.8" width="429.775" x="59.925" y="26.8"/>
  </clipPath>
 </defs>
</svg>
