<?xml version="1.0" encoding="utf-8" standalone="no"?>
<!DOCTYPE svg PUBLIC "-//W3C//DTD SVG 1.1//EN"
  "http://www.w3.org/Graphics/SVG/1.1/DTD/svg11.dtd">
<!-- Created with matplotlib (https://matplotlib.org/) -->
<svg height="360pt" version="1.1" viewBox="0 0 504 360" width="504pt" xmlns="http://www.w3.org/2000/svg" xmlns:xlink="http://www.w3.org/1999/xlink">
 <defs>
  <style type="text/css">
*{stroke-linecap:butt;stroke-linejoin:round;}
  </style>
 </defs>
 <g id="figure_1">
  <g id="patch_1">
   <path d="M 0 360 
L 504 360 
L 504 0 
L 0 0 
z
" style="fill:#ffffff;"/>
  </g>
  <g id="axes_1">
   <g id="patch_2">
    <path d="M 67.425 308.6 
L 493.2 308.6 
L 493.2 26.8 
L 67.425 26.8 
z
" style="fill:#e5e5e5;"/>
   </g>
   <g id="matplotlib.axis_1">
    <g id="xtick_1">
     <g id="line2d_1">
      <path clip-path="url(#pd8a476369d)" d="M 86.778409 308.6 
L 86.778409 26.8 
" style="fill:none;stroke:#808080;stroke-linecap:square;stroke-width:0.8;"/>
     </g>
     <g id="line2d_2">
      <defs>
       <path d="M 0 0 
L 0 3.5 
" id="m2ef71d9f90" style="stroke:#555555;stroke-width:0.8;"/>
      </defs>
      <g>
       <use style="fill:#555555;stroke:#555555;stroke-width:0.8;" x="86.778409" xlink:href="#m2ef71d9f90" y="308.6"/>
      </g>
     </g>
     <g id="text_1">
      <!-- $\mathdefault{10^{0}}$ -->
      <defs>
       <path d="M 12.40625 8.296875 
L 28.515625 8.296875 
L 28.515625 63.921875 
L 10.984375 60.40625 
L 10.984375 69.390625 
L 28.421875 72.90625 
L 38.28125 72.90625 
L 38.28125 8.296875 
L 54.390625 8.296875 
L 54.390625 0 
L 12.40625 0 
z
" id="DejaVuSans-49"/>
       <path d="M 31.78125 66.40625 
Q 24.171875 66.40625 20.328125 58.90625 
Q 16.5 51.421875 16.5 36.375 
Q 16.5 21.390625 20.328125 13.890625 
Q 24.171875 6.390625 31.78125 6.390625 
Q 39.453125 6.390625 43.28125 13.890625 
Q 47.125 21.390625 47.125 36.375 
Q 47.125 51.421875 43.28125 58.90625 
Q 39.453125 66.40625 31.78125 66.40625 
z
M 31.78125 74.21875 
Q 44.046875 74.21875 50.515625 64.515625 
Q 56.984375 54.828125 56.984375 36.375 
Q 56.984375 17.96875 50.515625 8.265625 
Q 44.046875 -1.421875 31.78125 -1.421875 
Q 19.53125 -1.421875 13.0625 8.265625 
Q 6.59375 17.96875 6.59375 36.375 
Q 6.59375 54.828125 13.0625 64.515625 
Q 19.53125 74.21875 31.78125 74.21875 
z
" id="DejaVuSans-48"/>
      </defs>
      <g style="fill:#555555;" transform="translate(76.218409 324.718125)scale(0.12 -0.12)">
       <use transform="translate(0 0.765625)" xlink:href="#DejaVuSans-49"/>
       <use transform="translate(63.623047 0.765625)" xlink:href="#DejaVuSans-48"/>
       <use transform="translate(128.203125 39.046875)scale(0.7)" xlink:href="#DejaVuSans-48"/>
      </g>
     </g>
    </g>
    <g id="xtick_2">
     <g id="line2d_3">
      <path clip-path="url(#pd8a476369d)" d="M 215.801136 308.6 
L 215.801136 26.8 
" style="fill:none;stroke:#808080;stroke-linecap:square;stroke-width:0.8;"/>
     </g>
     <g id="line2d_4">
      <g>
       <use style="fill:#555555;stroke:#555555;stroke-width:0.8;" x="215.801136" xlink:href="#m2ef71d9f90" y="308.6"/>
      </g>
     </g>
     <g id="text_2">
      <!-- $\mathdefault{10^{1}}$ -->
      <g style="fill:#555555;" transform="translate(205.241136 324.718125)scale(0.12 -0.12)">
       <use transform="translate(0 0.684375)" xlink:href="#DejaVuSans-49"/>
       <use transform="translate(63.623047 0.684375)" xlink:href="#DejaVuSans-48"/>
       <use transform="translate(128.203125 38.965625)scale(0.7)" xlink:href="#DejaVuSans-49"/>
      </g>
     </g>
    </g>
    <g id="xtick_3">
     <g id="line2d_5">
      <path clip-path="url(#pd8a476369d)" d="M 344.823864 308.6 
L 344.823864 26.8 
" style="fill:none;stroke:#808080;stroke-linecap:square;stroke-width:0.8;"/>
     </g>
     <g id="line2d_6">
      <g>
       <use style="fill:#555555;stroke:#555555;stroke-width:0.8;" x="344.823864" xlink:href="#m2ef71d9f90" y="308.6"/>
      </g>
     </g>
     <g id="text_3">
      <!-- $\mathdefault{10^{2}}$ -->
      <defs>
       <path d="M 19.1875 8.296875 
L 53.609375 8.296875 
L 53.609375 0 
L 7.328125 0 
L 7.328125 8.296875 
Q 12.9375 14.109375 22.625 23.890625 
Q 32.328125 33.6875 34.8125 36.53125 
Q 39.546875 41.84375 41.421875 45.53125 
Q 43.3125 49.21875 43.3125 52.78125 
Q 43.3125 58.59375 39.234375 62.25 
Q 35.15625 65.921875 28.609375 65.921875 
Q 23.96875 65.921875 18.8125 64.3125 
Q 13.671875 62.703125 7.8125 59.421875 
L 7.8125 69.390625 
Q 13.765625 71.78125 18.9375 73 
Q 24.125 74.21875 28.421875 74.21875 
Q 39.75 74.21875 46.484375 68.546875 
Q 53.21875 62.890625 53.21875 53.421875 
Q 53.21875 48.921875 51.53125 44.890625 
Q 49.859375 40.875 45.40625 35.40625 
Q 44.1875 33.984375 37.640625 27.21875 
Q 31.109375 20.453125 19.1875 8.296875 
z
" id="DejaVuSans-50"/>
      </defs>
      <g style="fill:#555555;" transform="translate(334.263864 324.718125)scale(0.12 -0.12)">
       <use transform="translate(0 0.765625)" xlink:href="#DejaVuSans-49"/>
       <use transform="translate(63.623047 0.765625)" xlink:href="#DejaVuSans-48"/>
       <use transform="translate(128.203125 39.046875)scale(0.7)" xlink:href="#DejaVuSans-50"/>
      </g>
     </g>
    </g>
    <g id="xtick_4">
     <g id="line2d_7">
      <path clip-path="url(#pd8a476369d)" d="M 473.846591 308.6 
L 473.846591 26.8 
" style="fill:none;stroke:#808080;stroke-linecap:square;stroke-width:0.8;"/>
     </g>
     <g id="line2d_8">
      <g>
       <use style="fill:#555555;stroke:#555555;stroke-width:0.8;" x="473.846591" xlink:href="#m2ef71d9f90" y="308.6"/>
      </g>
     </g>
     <g id="text_4">
      <!-- $\mathdefault{10^{3}}$ -->
      <defs>
       <path d="M 40.578125 39.3125 
Q 47.65625 37.796875 51.625 33 
Q 55.609375 28.21875 55.609375 21.1875 
Q 55.609375 10.40625 48.1875 4.484375 
Q 40.765625 -1.421875 27.09375 -1.421875 
Q 22.515625 -1.421875 17.65625 -0.515625 
Q 12.796875 0.390625 7.625 2.203125 
L 7.625 11.71875 
Q 11.71875 9.328125 16.59375 8.109375 
Q 21.484375 6.890625 26.8125 6.890625 
Q 36.078125 6.890625 40.9375 10.546875 
Q 45.796875 14.203125 45.796875 21.1875 
Q 45.796875 27.640625 41.28125 31.265625 
Q 36.765625 34.90625 28.71875 34.90625 
L 20.21875 34.90625 
L 20.21875 43.015625 
L 29.109375 43.015625 
Q 36.375 43.015625 40.234375 45.921875 
Q 44.09375 48.828125 44.09375 54.296875 
Q 44.09375 59.90625 40.109375 62.90625 
Q 36.140625 65.921875 28.71875 65.921875 
Q 24.65625 65.921875 20.015625 65.03125 
Q 15.375 64.15625 9.8125 62.3125 
L 9.8125 71.09375 
Q 15.4375 72.65625 20.34375 73.4375 
Q 25.25 74.21875 29.59375 74.21875 
Q 40.828125 74.21875 47.359375 69.109375 
Q 53.90625 64.015625 53.90625 55.328125 
Q 53.90625 49.265625 50.4375 45.09375 
Q 46.96875 40.921875 40.578125 39.3125 
z
" id="DejaVuSans-51"/>
      </defs>
      <g style="fill:#555555;" transform="translate(463.286591 324.718125)scale(0.12 -0.12)">
       <use transform="translate(0 0.765625)" xlink:href="#DejaVuSans-49"/>
       <use transform="translate(63.623047 0.765625)" xlink:href="#DejaVuSans-48"/>
       <use transform="translate(128.203125 39.046875)scale(0.7)" xlink:href="#DejaVuSans-51"/>
      </g>
     </g>
    </g>
    <g id="xtick_5">
     <g id="line2d_9">
      <path clip-path="url(#pd8a476369d)" d="M 74.274815 308.6 
L 74.274815 26.8 
" style="fill:none;stroke:#808080;stroke-dasharray:0.8,1.32;stroke-dashoffset:0;stroke-width:0.8;"/>
     </g>
     <g id="line2d_10">
      <defs>
       <path d="M 0 0 
L 0 2 
" id="mc89231a780" style="stroke:#555555;stroke-width:0.6;"/>
      </defs>
      <g>
       <use style="fill:#555555;stroke:#555555;stroke-width:0.6;" x="74.274815" xlink:href="#mc89231a780" y="308.6"/>
      </g>
     </g>
    </g>
    <g id="xtick_6">
     <g id="line2d_11">
      <path clip-path="url(#pd8a476369d)" d="M 80.874653 308.6 
L 80.874653 26.8 
" style="fill:none;stroke:#808080;stroke-dasharray:0.8,1.32;stroke-dashoffset:0;stroke-width:0.8;"/>
     </g>
     <g id="line2d_12">
      <g>
       <use style="fill:#555555;stroke:#555555;stroke-width:0.6;" x="80.874653" xlink:href="#mc89231a780" y="308.6"/>
      </g>
     </g>
    </g>
    <g id="xtick_7">
     <g id="line2d_13">
      <path clip-path="url(#pd8a476369d)" d="M 125.61812 308.6 
L 125.61812 26.8 
" style="fill:none;stroke:#808080;stroke-dasharray:0.8,1.32;stroke-dashoffset:0;stroke-width:0.8;"/>
     </g>
     <g id="line2d_14">
      <g>
       <use style="fill:#555555;stroke:#555555;stroke-width:0.6;" x="125.61812" xlink:href="#mc89231a780" y="308.6"/>
      </g>
     </g>
    </g>
    <g id="xtick_8">
     <g id="line2d_15">
      <path clip-path="url(#pd8a476369d)" d="M 148.337895 308.6 
L 148.337895 26.8 
" style="fill:none;stroke:#808080;stroke-dasharray:0.8,1.32;stroke-dashoffset:0;stroke-width:0.8;"/>
     </g>
     <g id="line2d_16">
      <g>
       <use style="fill:#555555;stroke:#555555;stroke-width:0.6;" x="148.337895" xlink:href="#mc89231a780" y="308.6"/>
      </g>
     </g>
    </g>
    <g id="xtick_9">
     <g id="line2d_17">
      <path clip-path="url(#pd8a476369d)" d="M 164.457831 308.6 
L 164.457831 26.8 
" style="fill:none;stroke:#808080;stroke-dasharray:0.8,1.32;stroke-dashoffset:0;stroke-width:0.8;"/>
     </g>
     <g id="line2d_18">
      <g>
       <use style="fill:#555555;stroke:#555555;stroke-width:0.6;" x="164.457831" xlink:href="#mc89231a780" y="308.6"/>
      </g>
     </g>
    </g>
    <g id="xtick_10">
     <g id="line2d_19">
      <path clip-path="url(#pd8a476369d)" d="M 176.961425 308.6 
L 176.961425 26.8 
" style="fill:none;stroke:#808080;stroke-dasharray:0.8,1.32;stroke-dashoffset:0;stroke-width:0.8;"/>
     </g>
     <g id="line2d_20">
      <g>
       <use style="fill:#555555;stroke:#555555;stroke-width:0.6;" x="176.961425" xlink:href="#mc89231a780" y="308.6"/>
      </g>
     </g>
    </g>
    <g id="xtick_11">
     <g id="line2d_21">
      <path clip-path="url(#pd8a476369d)" d="M 187.177606 308.6 
L 187.177606 26.8 
" style="fill:none;stroke:#808080;stroke-dasharray:0.8,1.32;stroke-dashoffset:0;stroke-width:0.8;"/>
     </g>
     <g id="line2d_22">
      <g>
       <use style="fill:#555555;stroke:#555555;stroke-width:0.6;" x="187.177606" xlink:href="#mc89231a780" y="308.6"/>
      </g>
     </g>
    </g>
    <g id="xtick_12">
     <g id="line2d_23">
      <path clip-path="url(#pd8a476369d)" d="M 195.815263 308.6 
L 195.815263 26.8 
" style="fill:none;stroke:#808080;stroke-dasharray:0.8,1.32;stroke-dashoffset:0;stroke-width:0.8;"/>
     </g>
     <g id="line2d_24">
      <g>
       <use style="fill:#555555;stroke:#555555;stroke-width:0.6;" x="195.815263" xlink:href="#mc89231a780" y="308.6"/>
      </g>
     </g>
    </g>
    <g id="xtick_13">
     <g id="line2d_25">
      <path clip-path="url(#pd8a476369d)" d="M 203.297542 308.6 
L 203.297542 26.8 
" style="fill:none;stroke:#808080;stroke-dasharray:0.8,1.32;stroke-dashoffset:0;stroke-width:0.8;"/>
     </g>
     <g id="line2d_26">
      <g>
       <use style="fill:#555555;stroke:#555555;stroke-width:0.6;" x="203.297542" xlink:href="#mc89231a780" y="308.6"/>
      </g>
     </g>
    </g>
    <g id="xtick_14">
     <g id="line2d_27">
      <path clip-path="url(#pd8a476369d)" d="M 209.89738 308.6 
L 209.89738 26.8 
" style="fill:none;stroke:#808080;stroke-dasharray:0.8,1.32;stroke-dashoffset:0;stroke-width:0.8;"/>
     </g>
     <g id="line2d_28">
      <g>
       <use style="fill:#555555;stroke:#555555;stroke-width:0.6;" x="209.89738" xlink:href="#mc89231a780" y="308.6"/>
      </g>
     </g>
    </g>
    <g id="xtick_15">
     <g id="line2d_29">
      <path clip-path="url(#pd8a476369d)" d="M 254.640847 308.6 
L 254.640847 26.8 
" style="fill:none;stroke:#808080;stroke-dasharray:0.8,1.32;stroke-dashoffset:0;stroke-width:0.8;"/>
     </g>
     <g id="line2d_30">
      <g>
       <use style="fill:#555555;stroke:#555555;stroke-width:0.6;" x="254.640847" xlink:href="#mc89231a780" y="308.6"/>
      </g>
     </g>
    </g>
    <g id="xtick_16">
     <g id="line2d_31">
      <path clip-path="url(#pd8a476369d)" d="M 277.360622 308.6 
L 277.360622 26.8 
" style="fill:none;stroke:#808080;stroke-dasharray:0.8,1.32;stroke-dashoffset:0;stroke-width:0.8;"/>
     </g>
     <g id="line2d_32">
      <g>
       <use style="fill:#555555;stroke:#555555;stroke-width:0.6;" x="277.360622" xlink:href="#mc89231a780" y="308.6"/>
      </g>
     </g>
    </g>
    <g id="xtick_17">
     <g id="line2d_33">
      <path clip-path="url(#pd8a476369d)" d="M 293.480558 308.6 
L 293.480558 26.8 
" style="fill:none;stroke:#808080;stroke-dasharray:0.8,1.32;stroke-dashoffset:0;stroke-width:0.8;"/>
     </g>
     <g id="line2d_34">
      <g>
       <use style="fill:#555555;stroke:#555555;stroke-width:0.6;" x="293.480558" xlink:href="#mc89231a780" y="308.6"/>
      </g>
     </g>
    </g>
    <g id="xtick_18">
     <g id="line2d_35">
      <path clip-path="url(#pd8a476369d)" d="M 305.984153 308.6 
L 305.984153 26.8 
" style="fill:none;stroke:#808080;stroke-dasharray:0.8,1.32;stroke-dashoffset:0;stroke-width:0.8;"/>
     </g>
     <g id="line2d_36">
      <g>
       <use style="fill:#555555;stroke:#555555;stroke-width:0.6;" x="305.984153" xlink:href="#mc89231a780" y="308.6"/>
      </g>
     </g>
    </g>
    <g id="xtick_19">
     <g id="line2d_37">
      <path clip-path="url(#pd8a476369d)" d="M 316.200333 308.6 
L 316.200333 26.8 
" style="fill:none;stroke:#808080;stroke-dasharray:0.8,1.32;stroke-dashoffset:0;stroke-width:0.8;"/>
     </g>
     <g id="line2d_38">
      <g>
       <use style="fill:#555555;stroke:#555555;stroke-width:0.6;" x="316.200333" xlink:href="#mc89231a780" y="308.6"/>
      </g>
     </g>
    </g>
    <g id="xtick_20">
     <g id="line2d_39">
      <path clip-path="url(#pd8a476369d)" d="M 324.83799 308.6 
L 324.83799 26.8 
" style="fill:none;stroke:#808080;stroke-dasharray:0.8,1.32;stroke-dashoffset:0;stroke-width:0.8;"/>
     </g>
     <g id="line2d_40">
      <g>
       <use style="fill:#555555;stroke:#555555;stroke-width:0.6;" x="324.83799" xlink:href="#mc89231a780" y="308.6"/>
      </g>
     </g>
    </g>
    <g id="xtick_21">
     <g id="line2d_41">
      <path clip-path="url(#pd8a476369d)" d="M 332.320269 308.6 
L 332.320269 26.8 
" style="fill:none;stroke:#808080;stroke-dasharray:0.8,1.32;stroke-dashoffset:0;stroke-width:0.8;"/>
     </g>
     <g id="line2d_42">
      <g>
       <use style="fill:#555555;stroke:#555555;stroke-width:0.6;" x="332.320269" xlink:href="#mc89231a780" y="308.6"/>
      </g>
     </g>
    </g>
    <g id="xtick_22">
     <g id="line2d_43">
      <path clip-path="url(#pd8a476369d)" d="M 338.920107 308.6 
L 338.920107 26.8 
" style="fill:none;stroke:#808080;stroke-dasharray:0.8,1.32;stroke-dashoffset:0;stroke-width:0.8;"/>
     </g>
     <g id="line2d_44">
      <g>
       <use style="fill:#555555;stroke:#555555;stroke-width:0.6;" x="338.920107" xlink:href="#mc89231a780" y="308.6"/>
      </g>
     </g>
    </g>
    <g id="xtick_23">
     <g id="line2d_45">
      <path clip-path="url(#pd8a476369d)" d="M 383.663575 308.6 
L 383.663575 26.8 
" style="fill:none;stroke:#808080;stroke-dasharray:0.8,1.32;stroke-dashoffset:0;stroke-width:0.8;"/>
     </g>
     <g id="line2d_46">
      <g>
       <use style="fill:#555555;stroke:#555555;stroke-width:0.6;" x="383.663575" xlink:href="#mc89231a780" y="308.6"/>
      </g>
     </g>
    </g>
    <g id="xtick_24">
     <g id="line2d_47">
      <path clip-path="url(#pd8a476369d)" d="M 406.383349 308.6 
L 406.383349 26.8 
" style="fill:none;stroke:#808080;stroke-dasharray:0.8,1.32;stroke-dashoffset:0;stroke-width:0.8;"/>
     </g>
     <g id="line2d_48">
      <g>
       <use style="fill:#555555;stroke:#555555;stroke-width:0.6;" x="406.383349" xlink:href="#mc89231a780" y="308.6"/>
      </g>
     </g>
    </g>
    <g id="xtick_25">
     <g id="line2d_49">
      <path clip-path="url(#pd8a476369d)" d="M 422.503286 308.6 
L 422.503286 26.8 
" style="fill:none;stroke:#808080;stroke-dasharray:0.8,1.32;stroke-dashoffset:0;stroke-width:0.8;"/>
     </g>
     <g id="line2d_50">
      <g>
       <use style="fill:#555555;stroke:#555555;stroke-width:0.6;" x="422.503286" xlink:href="#mc89231a780" y="308.6"/>
      </g>
     </g>
    </g>
    <g id="xtick_26">
     <g id="line2d_51">
      <path clip-path="url(#pd8a476369d)" d="M 435.00688 308.6 
L 435.00688 26.8 
" style="fill:none;stroke:#808080;stroke-dasharray:0.8,1.32;stroke-dashoffset:0;stroke-width:0.8;"/>
     </g>
     <g id="line2d_52">
      <g>
       <use style="fill:#555555;stroke:#555555;stroke-width:0.6;" x="435.00688" xlink:href="#mc89231a780" y="308.6"/>
      </g>
     </g>
    </g>
    <g id="xtick_27">
     <g id="line2d_53">
      <path clip-path="url(#pd8a476369d)" d="M 445.22306 308.6 
L 445.22306 26.8 
" style="fill:none;stroke:#808080;stroke-dasharray:0.8,1.32;stroke-dashoffset:0;stroke-width:0.8;"/>
     </g>
     <g id="line2d_54">
      <g>
       <use style="fill:#555555;stroke:#555555;stroke-width:0.6;" x="445.22306" xlink:href="#mc89231a780" y="308.6"/>
      </g>
     </g>
    </g>
    <g id="xtick_28">
     <g id="line2d_55">
      <path clip-path="url(#pd8a476369d)" d="M 453.860718 308.6 
L 453.860718 26.8 
" style="fill:none;stroke:#808080;stroke-dasharray:0.8,1.32;stroke-dashoffset:0;stroke-width:0.8;"/>
     </g>
     <g id="line2d_56">
      <g>
       <use style="fill:#555555;stroke:#555555;stroke-width:0.6;" x="453.860718" xlink:href="#mc89231a780" y="308.6"/>
      </g>
     </g>
    </g>
    <g id="xtick_29">
     <g id="line2d_57">
      <path clip-path="url(#pd8a476369d)" d="M 461.342997 308.6 
L 461.342997 26.8 
" style="fill:none;stroke:#808080;stroke-dasharray:0.8,1.32;stroke-dashoffset:0;stroke-width:0.8;"/>
     </g>
     <g id="line2d_58">
      <g>
       <use style="fill:#555555;stroke:#555555;stroke-width:0.6;" x="461.342997" xlink:href="#mc89231a780" y="308.6"/>
      </g>
     </g>
    </g>
    <g id="xtick_30">
     <g id="line2d_59">
      <path clip-path="url(#pd8a476369d)" d="M 467.942835 308.6 
L 467.942835 26.8 
" style="fill:none;stroke:#808080;stroke-dasharray:0.8,1.32;stroke-dashoffset:0;stroke-width:0.8;"/>
     </g>
     <g id="line2d_60">
      <g>
       <use style="fill:#555555;stroke:#555555;stroke-width:0.6;" x="467.942835" xlink:href="#mc89231a780" y="308.6"/>
      </g>
     </g>
    </g>
    <g id="text_5">
     <!-- frequency [kHz] -->
     <defs>
      <path d="M 37.109375 75.984375 
L 37.109375 68.5 
L 28.515625 68.5 
Q 23.6875 68.5 21.796875 66.546875 
Q 19.921875 64.59375 19.921875 59.515625 
L 19.921875 54.6875 
L 34.71875 54.6875 
L 34.71875 47.703125 
L 19.921875 47.703125 
L 19.921875 0 
L 10.890625 0 
L 10.890625 47.703125 
L 2.296875 47.703125 
L 2.296875 54.6875 
L 10.890625 54.6875 
L 10.890625 58.5 
Q 10.890625 67.625 15.140625 71.796875 
Q 19.390625 75.984375 28.609375 75.984375 
z
" id="DejaVuSans-102"/>
      <path d="M 41.109375 46.296875 
Q 39.59375 47.171875 37.8125 47.578125 
Q 36.03125 48 33.890625 48 
Q 26.265625 48 22.1875 43.046875 
Q 18.109375 38.09375 18.109375 28.8125 
L 18.109375 0 
L 9.078125 0 
L 9.078125 54.6875 
L 18.109375 54.6875 
L 18.109375 46.1875 
Q 20.953125 51.171875 25.484375 53.578125 
Q 30.03125 56 36.53125 56 
Q 37.453125 56 38.578125 55.875 
Q 39.703125 55.765625 41.0625 55.515625 
z
" id="DejaVuSans-114"/>
      <path d="M 56.203125 29.59375 
L 56.203125 25.203125 
L 14.890625 25.203125 
Q 15.484375 15.921875 20.484375 11.0625 
Q 25.484375 6.203125 34.421875 6.203125 
Q 39.59375 6.203125 44.453125 7.46875 
Q 49.3125 8.734375 54.109375 11.28125 
L 54.109375 2.78125 
Q 49.265625 0.734375 44.1875 -0.34375 
Q 39.109375 -1.421875 33.890625 -1.421875 
Q 20.796875 -1.421875 13.15625 6.1875 
Q 5.515625 13.8125 5.515625 26.8125 
Q 5.515625 40.234375 12.765625 48.109375 
Q 20.015625 56 32.328125 56 
Q 43.359375 56 49.78125 48.890625 
Q 56.203125 41.796875 56.203125 29.59375 
z
M 47.21875 32.234375 
Q 47.125 39.59375 43.09375 43.984375 
Q 39.0625 48.390625 32.421875 48.390625 
Q 24.90625 48.390625 20.390625 44.140625 
Q 15.875 39.890625 15.1875 32.171875 
z
" id="DejaVuSans-101"/>
      <path d="M 14.796875 27.296875 
Q 14.796875 17.390625 18.875 11.75 
Q 22.953125 6.109375 30.078125 6.109375 
Q 37.203125 6.109375 41.296875 11.75 
Q 45.40625 17.390625 45.40625 27.296875 
Q 45.40625 37.203125 41.296875 42.84375 
Q 37.203125 48.484375 30.078125 48.484375 
Q 22.953125 48.484375 18.875 42.84375 
Q 14.796875 37.203125 14.796875 27.296875 
z
M 45.40625 8.203125 
Q 42.578125 3.328125 38.25 0.953125 
Q 33.9375 -1.421875 27.875 -1.421875 
Q 17.96875 -1.421875 11.734375 6.484375 
Q 5.515625 14.40625 5.515625 27.296875 
Q 5.515625 40.1875 11.734375 48.09375 
Q 17.96875 56 27.875 56 
Q 33.9375 56 38.25 53.625 
Q 42.578125 51.265625 45.40625 46.390625 
L 45.40625 54.6875 
L 54.390625 54.6875 
L 54.390625 -20.796875 
L 45.40625 -20.796875 
z
" id="DejaVuSans-113"/>
      <path d="M 8.5 21.578125 
L 8.5 54.6875 
L 17.484375 54.6875 
L 17.484375 21.921875 
Q 17.484375 14.15625 20.5 10.265625 
Q 23.53125 6.390625 29.59375 6.390625 
Q 36.859375 6.390625 41.078125 11.03125 
Q 45.3125 15.671875 45.3125 23.6875 
L 45.3125 54.6875 
L 54.296875 54.6875 
L 54.296875 0 
L 45.3125 0 
L 45.3125 8.40625 
Q 42.046875 3.421875 37.71875 1 
Q 33.40625 -1.421875 27.6875 -1.421875 
Q 18.265625 -1.421875 13.375 4.4375 
Q 8.5 10.296875 8.5 21.578125 
z
M 31.109375 56 
z
" id="DejaVuSans-117"/>
      <path d="M 54.890625 33.015625 
L 54.890625 0 
L 45.90625 0 
L 45.90625 32.71875 
Q 45.90625 40.484375 42.875 44.328125 
Q 39.84375 48.1875 33.796875 48.1875 
Q 26.515625 48.1875 22.3125 43.546875 
Q 18.109375 38.921875 18.109375 30.90625 
L 18.109375 0 
L 9.078125 0 
L 9.078125 54.6875 
L 18.109375 54.6875 
L 18.109375 46.1875 
Q 21.34375 51.125 25.703125 53.5625 
Q 30.078125 56 35.796875 56 
Q 45.21875 56 50.046875 50.171875 
Q 54.890625 44.34375 54.890625 33.015625 
z
" id="DejaVuSans-110"/>
      <path d="M 48.78125 52.59375 
L 48.78125 44.1875 
Q 44.96875 46.296875 41.140625 47.34375 
Q 37.3125 48.390625 33.40625 48.390625 
Q 24.65625 48.390625 19.8125 42.84375 
Q 14.984375 37.3125 14.984375 27.296875 
Q 14.984375 17.28125 19.8125 11.734375 
Q 24.65625 6.203125 33.40625 6.203125 
Q 37.3125 6.203125 41.140625 7.25 
Q 44.96875 8.296875 48.78125 10.40625 
L 48.78125 2.09375 
Q 45.015625 0.34375 40.984375 -0.53125 
Q 36.96875 -1.421875 32.421875 -1.421875 
Q 20.0625 -1.421875 12.78125 6.34375 
Q 5.515625 14.109375 5.515625 27.296875 
Q 5.515625 40.671875 12.859375 48.328125 
Q 20.21875 56 33.015625 56 
Q 37.15625 56 41.109375 55.140625 
Q 45.0625 54.296875 48.78125 52.59375 
z
" id="DejaVuSans-99"/>
      <path d="M 32.171875 -5.078125 
Q 28.375 -14.84375 24.75 -17.8125 
Q 21.140625 -20.796875 15.09375 -20.796875 
L 7.90625 -20.796875 
L 7.90625 -13.28125 
L 13.1875 -13.28125 
Q 16.890625 -13.28125 18.9375 -11.515625 
Q 21 -9.765625 23.484375 -3.21875 
L 25.09375 0.875 
L 2.984375 54.6875 
L 12.5 54.6875 
L 29.59375 11.921875 
L 46.6875 54.6875 
L 56.203125 54.6875 
z
" id="DejaVuSans-121"/>
      <path id="DejaVuSans-32"/>
      <path d="M 8.59375 75.984375 
L 29.296875 75.984375 
L 29.296875 69 
L 17.578125 69 
L 17.578125 -6.203125 
L 29.296875 -6.203125 
L 29.296875 -13.1875 
L 8.59375 -13.1875 
z
" id="DejaVuSans-91"/>
      <path d="M 9.078125 75.984375 
L 18.109375 75.984375 
L 18.109375 31.109375 
L 44.921875 54.6875 
L 56.390625 54.6875 
L 27.390625 29.109375 
L 57.625 0 
L 45.90625 0 
L 18.109375 26.703125 
L 18.109375 0 
L 9.078125 0 
z
" id="DejaVuSans-107"/>
      <path d="M 9.8125 72.90625 
L 19.671875 72.90625 
L 19.671875 43.015625 
L 55.515625 43.015625 
L 55.515625 72.90625 
L 65.375 72.90625 
L 65.375 0 
L 55.515625 0 
L 55.515625 34.71875 
L 19.671875 34.71875 
L 19.671875 0 
L 9.8125 0 
z
" id="DejaVuSans-72"/>
      <path d="M 5.515625 54.6875 
L 48.1875 54.6875 
L 48.1875 46.484375 
L 14.40625 7.171875 
L 48.1875 7.171875 
L 48.1875 0 
L 4.296875 0 
L 4.296875 8.203125 
L 38.09375 47.515625 
L 5.515625 47.515625 
z
" id="DejaVuSans-122"/>
      <path d="M 30.421875 75.984375 
L 30.421875 -13.1875 
L 9.71875 -13.1875 
L 9.71875 -6.203125 
L 21.390625 -6.203125 
L 21.390625 69 
L 9.71875 69 
L 9.71875 75.984375 
z
" id="DejaVuSans-93"/>
     </defs>
     <g style="fill:#555555;" transform="translate(232.363125 340.331875)scale(0.12 -0.12)">
      <use xlink:href="#DejaVuSans-102"/>
      <use x="35.205078" xlink:href="#DejaVuSans-114"/>
      <use x="76.287109" xlink:href="#DejaVuSans-101"/>
      <use x="137.810547" xlink:href="#DejaVuSans-113"/>
      <use x="201.287109" xlink:href="#DejaVuSans-117"/>
      <use x="264.666016" xlink:href="#DejaVuSans-101"/>
      <use x="326.189453" xlink:href="#DejaVuSans-110"/>
      <use x="389.568359" xlink:href="#DejaVuSans-99"/>
      <use x="444.548828" xlink:href="#DejaVuSans-121"/>
      <use x="503.728516" xlink:href="#DejaVuSans-32"/>
      <use x="535.515625" xlink:href="#DejaVuSans-91"/>
      <use x="574.529297" xlink:href="#DejaVuSans-107"/>
      <use x="632.439453" xlink:href="#DejaVuSans-72"/>
      <use x="707.634766" xlink:href="#DejaVuSans-122"/>
      <use x="760.125" xlink:href="#DejaVuSans-93"/>
     </g>
    </g>
   </g>
   <g id="matplotlib.axis_2">
    <g id="ytick_1">
     <g id="line2d_61">
      <path clip-path="url(#pd8a476369d)" d="M 67.425 307.879189 
L 493.2 307.879189 
" style="fill:none;stroke:#808080;stroke-linecap:square;stroke-width:0.8;"/>
     </g>
     <g id="line2d_62">
      <defs>
       <path d="M 0 0 
L -3.5 0 
" id="mb5edde94e0" style="stroke:#555555;stroke-width:0.8;"/>
      </defs>
      <g>
       <use style="fill:#555555;stroke:#555555;stroke-width:0.8;" x="67.425" xlink:href="#mb5edde94e0" y="307.879189"/>
      </g>
     </g>
     <g id="text_6">
      <!-- −100 -->
      <defs>
       <path d="M 10.59375 35.5 
L 73.1875 35.5 
L 73.1875 27.203125 
L 10.59375 27.203125 
z
" id="DejaVuSans-8722"/>
      </defs>
      <g style="fill:#555555;" transform="translate(27.464375 312.438251)scale(0.12 -0.12)">
       <use xlink:href="#DejaVuSans-8722"/>
       <use x="83.789062" xlink:href="#DejaVuSans-49"/>
       <use x="147.412109" xlink:href="#DejaVuSans-48"/>
       <use x="211.035156" xlink:href="#DejaVuSans-48"/>
      </g>
     </g>
    </g>
    <g id="ytick_2">
     <g id="line2d_63">
      <path clip-path="url(#pd8a476369d)" d="M 67.425 275.571474 
L 493.2 275.571474 
" style="fill:none;stroke:#808080;stroke-linecap:square;stroke-width:0.8;"/>
     </g>
     <g id="line2d_64">
      <g>
       <use style="fill:#555555;stroke:#555555;stroke-width:0.8;" x="67.425" xlink:href="#mb5edde94e0" y="275.571474"/>
      </g>
     </g>
     <g id="text_7">
      <!-- −80 -->
      <defs>
       <path d="M 31.78125 34.625 
Q 24.75 34.625 20.71875 30.859375 
Q 16.703125 27.09375 16.703125 20.515625 
Q 16.703125 13.921875 20.71875 10.15625 
Q 24.75 6.390625 31.78125 6.390625 
Q 38.8125 6.390625 42.859375 10.171875 
Q 46.921875 13.96875 46.921875 20.515625 
Q 46.921875 27.09375 42.890625 30.859375 
Q 38.875 34.625 31.78125 34.625 
z
M 21.921875 38.8125 
Q 15.578125 40.375 12.03125 44.71875 
Q 8.5 49.078125 8.5 55.328125 
Q 8.5 64.0625 14.71875 69.140625 
Q 20.953125 74.21875 31.78125 74.21875 
Q 42.671875 74.21875 48.875 69.140625 
Q 55.078125 64.0625 55.078125 55.328125 
Q 55.078125 49.078125 51.53125 44.71875 
Q 48 40.375 41.703125 38.8125 
Q 48.828125 37.15625 52.796875 32.3125 
Q 56.78125 27.484375 56.78125 20.515625 
Q 56.78125 9.90625 50.3125 4.234375 
Q 43.84375 -1.421875 31.78125 -1.421875 
Q 19.734375 -1.421875 13.25 4.234375 
Q 6.78125 9.90625 6.78125 20.515625 
Q 6.78125 27.484375 10.78125 32.3125 
Q 14.796875 37.15625 21.921875 38.8125 
z
M 18.3125 54.390625 
Q 18.3125 48.734375 21.84375 45.5625 
Q 25.390625 42.390625 31.78125 42.390625 
Q 38.140625 42.390625 41.71875 45.5625 
Q 45.3125 48.734375 45.3125 54.390625 
Q 45.3125 60.0625 41.71875 63.234375 
Q 38.140625 66.40625 31.78125 66.40625 
Q 25.390625 66.40625 21.84375 63.234375 
Q 18.3125 60.0625 18.3125 54.390625 
z
" id="DejaVuSans-56"/>
      </defs>
      <g style="fill:#555555;" transform="translate(35.099375 280.130536)scale(0.12 -0.12)">
       <use xlink:href="#DejaVuSans-8722"/>
       <use x="83.789062" xlink:href="#DejaVuSans-56"/>
       <use x="147.412109" xlink:href="#DejaVuSans-48"/>
      </g>
     </g>
    </g>
    <g id="ytick_3">
     <g id="line2d_65">
      <path clip-path="url(#pd8a476369d)" d="M 67.425 243.263758 
L 493.2 243.263758 
" style="fill:none;stroke:#808080;stroke-linecap:square;stroke-width:0.8;"/>
     </g>
     <g id="line2d_66">
      <g>
       <use style="fill:#555555;stroke:#555555;stroke-width:0.8;" x="67.425" xlink:href="#mb5edde94e0" y="243.263758"/>
      </g>
     </g>
     <g id="text_8">
      <!-- −60 -->
      <defs>
       <path d="M 33.015625 40.375 
Q 26.375 40.375 22.484375 35.828125 
Q 18.609375 31.296875 18.609375 23.390625 
Q 18.609375 15.53125 22.484375 10.953125 
Q 26.375 6.390625 33.015625 6.390625 
Q 39.65625 6.390625 43.53125 10.953125 
Q 47.40625 15.53125 47.40625 23.390625 
Q 47.40625 31.296875 43.53125 35.828125 
Q 39.65625 40.375 33.015625 40.375 
z
M 52.59375 71.296875 
L 52.59375 62.3125 
Q 48.875 64.0625 45.09375 64.984375 
Q 41.3125 65.921875 37.59375 65.921875 
Q 27.828125 65.921875 22.671875 59.328125 
Q 17.53125 52.734375 16.796875 39.40625 
Q 19.671875 43.65625 24.015625 45.921875 
Q 28.375 48.1875 33.59375 48.1875 
Q 44.578125 48.1875 50.953125 41.515625 
Q 57.328125 34.859375 57.328125 23.390625 
Q 57.328125 12.15625 50.6875 5.359375 
Q 44.046875 -1.421875 33.015625 -1.421875 
Q 20.359375 -1.421875 13.671875 8.265625 
Q 6.984375 17.96875 6.984375 36.375 
Q 6.984375 53.65625 15.1875 63.9375 
Q 23.390625 74.21875 37.203125 74.21875 
Q 40.921875 74.21875 44.703125 73.484375 
Q 48.484375 72.75 52.59375 71.296875 
z
" id="DejaVuSans-54"/>
      </defs>
      <g style="fill:#555555;" transform="translate(35.099375 247.822821)scale(0.12 -0.12)">
       <use xlink:href="#DejaVuSans-8722"/>
       <use x="83.789062" xlink:href="#DejaVuSans-54"/>
       <use x="147.412109" xlink:href="#DejaVuSans-48"/>
      </g>
     </g>
    </g>
    <g id="ytick_4">
     <g id="line2d_67">
      <path clip-path="url(#pd8a476369d)" d="M 67.425 210.956043 
L 493.2 210.956043 
" style="fill:none;stroke:#808080;stroke-linecap:square;stroke-width:0.8;"/>
     </g>
     <g id="line2d_68">
      <g>
       <use style="fill:#555555;stroke:#555555;stroke-width:0.8;" x="67.425" xlink:href="#mb5edde94e0" y="210.956043"/>
      </g>
     </g>
     <g id="text_9">
      <!-- −40 -->
      <defs>
       <path d="M 37.796875 64.3125 
L 12.890625 25.390625 
L 37.796875 25.390625 
z
M 35.203125 72.90625 
L 47.609375 72.90625 
L 47.609375 25.390625 
L 58.015625 25.390625 
L 58.015625 17.1875 
L 47.609375 17.1875 
L 47.609375 0 
L 37.796875 0 
L 37.796875 17.1875 
L 4.890625 17.1875 
L 4.890625 26.703125 
z
" id="DejaVuSans-52"/>
      </defs>
      <g style="fill:#555555;" transform="translate(35.099375 215.515106)scale(0.12 -0.12)">
       <use xlink:href="#DejaVuSans-8722"/>
       <use x="83.789062" xlink:href="#DejaVuSans-52"/>
       <use x="147.412109" xlink:href="#DejaVuSans-48"/>
      </g>
     </g>
    </g>
    <g id="ytick_5">
     <g id="line2d_69">
      <path clip-path="url(#pd8a476369d)" d="M 67.425 178.648328 
L 493.2 178.648328 
" style="fill:none;stroke:#808080;stroke-linecap:square;stroke-width:0.8;"/>
     </g>
     <g id="line2d_70">
      <g>
       <use style="fill:#555555;stroke:#555555;stroke-width:0.8;" x="67.425" xlink:href="#mb5edde94e0" y="178.648328"/>
      </g>
     </g>
     <g id="text_10">
      <!-- −20 -->
      <g style="fill:#555555;" transform="translate(35.099375 183.20739)scale(0.12 -0.12)">
       <use xlink:href="#DejaVuSans-8722"/>
       <use x="83.789062" xlink:href="#DejaVuSans-50"/>
       <use x="147.412109" xlink:href="#DejaVuSans-48"/>
      </g>
     </g>
    </g>
    <g id="ytick_6">
     <g id="line2d_71">
      <path clip-path="url(#pd8a476369d)" d="M 67.425 146.340613 
L 493.2 146.340613 
" style="fill:none;stroke:#808080;stroke-linecap:square;stroke-width:0.8;"/>
     </g>
     <g id="line2d_72">
      <g>
       <use style="fill:#555555;stroke:#555555;stroke-width:0.8;" x="67.425" xlink:href="#mb5edde94e0" y="146.340613"/>
      </g>
     </g>
     <g id="text_11">
      <!-- 0 -->
      <g style="fill:#555555;" transform="translate(52.79 150.899675)scale(0.12 -0.12)">
       <use xlink:href="#DejaVuSans-48"/>
      </g>
     </g>
    </g>
    <g id="ytick_7">
     <g id="line2d_73">
      <path clip-path="url(#pd8a476369d)" d="M 67.425 114.032898 
L 493.2 114.032898 
" style="fill:none;stroke:#808080;stroke-linecap:square;stroke-width:0.8;"/>
     </g>
     <g id="line2d_74">
      <g>
       <use style="fill:#555555;stroke:#555555;stroke-width:0.8;" x="67.425" xlink:href="#mb5edde94e0" y="114.032898"/>
      </g>
     </g>
     <g id="text_12">
      <!-- 20 -->
      <g style="fill:#555555;" transform="translate(45.155 118.59196)scale(0.12 -0.12)">
       <use xlink:href="#DejaVuSans-50"/>
       <use x="63.623047" xlink:href="#DejaVuSans-48"/>
      </g>
     </g>
    </g>
    <g id="ytick_8">
     <g id="line2d_75">
      <path clip-path="url(#pd8a476369d)" d="M 67.425 81.725182 
L 493.2 81.725182 
" style="fill:none;stroke:#808080;stroke-linecap:square;stroke-width:0.8;"/>
     </g>
     <g id="line2d_76">
      <g>
       <use style="fill:#555555;stroke:#555555;stroke-width:0.8;" x="67.425" xlink:href="#mb5edde94e0" y="81.725182"/>
      </g>
     </g>
     <g id="text_13">
      <!-- 40 -->
      <g style="fill:#555555;" transform="translate(45.155 86.284245)scale(0.12 -0.12)">
       <use xlink:href="#DejaVuSans-52"/>
       <use x="63.623047" xlink:href="#DejaVuSans-48"/>
      </g>
     </g>
    </g>
    <g id="ytick_9">
     <g id="line2d_77">
      <path clip-path="url(#pd8a476369d)" d="M 67.425 49.417467 
L 493.2 49.417467 
" style="fill:none;stroke:#808080;stroke-linecap:square;stroke-width:0.8;"/>
     </g>
     <g id="line2d_78">
      <g>
       <use style="fill:#555555;stroke:#555555;stroke-width:0.8;" x="67.425" xlink:href="#mb5edde94e0" y="49.417467"/>
      </g>
     </g>
     <g id="text_14">
      <!-- 60 -->
      <g style="fill:#555555;" transform="translate(45.155 53.97653)scale(0.12 -0.12)">
       <use xlink:href="#DejaVuSans-54"/>
       <use x="63.623047" xlink:href="#DejaVuSans-48"/>
      </g>
     </g>
    </g>
    <g id="text_15">
     <!-- magnitude [dB] -->
     <defs>
      <path d="M 52 44.1875 
Q 55.375 50.25 60.0625 53.125 
Q 64.75 56 71.09375 56 
Q 79.640625 56 84.28125 50.015625 
Q 88.921875 44.046875 88.921875 33.015625 
L 88.921875 0 
L 79.890625 0 
L 79.890625 32.71875 
Q 79.890625 40.578125 77.09375 44.375 
Q 74.3125 48.1875 68.609375 48.1875 
Q 61.625 48.1875 57.5625 43.546875 
Q 53.515625 38.921875 53.515625 30.90625 
L 53.515625 0 
L 44.484375 0 
L 44.484375 32.71875 
Q 44.484375 40.625 41.703125 44.40625 
Q 38.921875 48.1875 33.109375 48.1875 
Q 26.21875 48.1875 22.15625 43.53125 
Q 18.109375 38.875 18.109375 30.90625 
L 18.109375 0 
L 9.078125 0 
L 9.078125 54.6875 
L 18.109375 54.6875 
L 18.109375 46.1875 
Q 21.1875 51.21875 25.484375 53.609375 
Q 29.78125 56 35.6875 56 
Q 41.65625 56 45.828125 52.96875 
Q 50 49.953125 52 44.1875 
z
" id="DejaVuSans-109"/>
      <path d="M 34.28125 27.484375 
Q 23.390625 27.484375 19.1875 25 
Q 14.984375 22.515625 14.984375 16.5 
Q 14.984375 11.71875 18.140625 8.90625 
Q 21.296875 6.109375 26.703125 6.109375 
Q 34.1875 6.109375 38.703125 11.40625 
Q 43.21875 16.703125 43.21875 25.484375 
L 43.21875 27.484375 
z
M 52.203125 31.203125 
L 52.203125 0 
L 43.21875 0 
L 43.21875 8.296875 
Q 40.140625 3.328125 35.546875 0.953125 
Q 30.953125 -1.421875 24.3125 -1.421875 
Q 15.921875 -1.421875 10.953125 3.296875 
Q 6 8.015625 6 15.921875 
Q 6 25.140625 12.171875 29.828125 
Q 18.359375 34.515625 30.609375 34.515625 
L 43.21875 34.515625 
L 43.21875 35.40625 
Q 43.21875 41.609375 39.140625 45 
Q 35.0625 48.390625 27.6875 48.390625 
Q 23 48.390625 18.546875 47.265625 
Q 14.109375 46.140625 10.015625 43.890625 
L 10.015625 52.203125 
Q 14.9375 54.109375 19.578125 55.046875 
Q 24.21875 56 28.609375 56 
Q 40.484375 56 46.34375 49.84375 
Q 52.203125 43.703125 52.203125 31.203125 
z
" id="DejaVuSans-97"/>
      <path d="M 45.40625 27.984375 
Q 45.40625 37.75 41.375 43.109375 
Q 37.359375 48.484375 30.078125 48.484375 
Q 22.859375 48.484375 18.828125 43.109375 
Q 14.796875 37.75 14.796875 27.984375 
Q 14.796875 18.265625 18.828125 12.890625 
Q 22.859375 7.515625 30.078125 7.515625 
Q 37.359375 7.515625 41.375 12.890625 
Q 45.40625 18.265625 45.40625 27.984375 
z
M 54.390625 6.78125 
Q 54.390625 -7.171875 48.1875 -13.984375 
Q 42 -20.796875 29.203125 -20.796875 
Q 24.46875 -20.796875 20.265625 -20.09375 
Q 16.0625 -19.390625 12.109375 -17.921875 
L 12.109375 -9.1875 
Q 16.0625 -11.328125 19.921875 -12.34375 
Q 23.78125 -13.375 27.78125 -13.375 
Q 36.625 -13.375 41.015625 -8.765625 
Q 45.40625 -4.15625 45.40625 5.171875 
L 45.40625 9.625 
Q 42.625 4.78125 38.28125 2.390625 
Q 33.9375 0 27.875 0 
Q 17.828125 0 11.671875 7.65625 
Q 5.515625 15.328125 5.515625 27.984375 
Q 5.515625 40.671875 11.671875 48.328125 
Q 17.828125 56 27.875 56 
Q 33.9375 56 38.28125 53.609375 
Q 42.625 51.21875 45.40625 46.390625 
L 45.40625 54.6875 
L 54.390625 54.6875 
z
" id="DejaVuSans-103"/>
      <path d="M 9.421875 54.6875 
L 18.40625 54.6875 
L 18.40625 0 
L 9.421875 0 
z
M 9.421875 75.984375 
L 18.40625 75.984375 
L 18.40625 64.59375 
L 9.421875 64.59375 
z
" id="DejaVuSans-105"/>
      <path d="M 18.3125 70.21875 
L 18.3125 54.6875 
L 36.8125 54.6875 
L 36.8125 47.703125 
L 18.3125 47.703125 
L 18.3125 18.015625 
Q 18.3125 11.328125 20.140625 9.421875 
Q 21.96875 7.515625 27.59375 7.515625 
L 36.8125 7.515625 
L 36.8125 0 
L 27.59375 0 
Q 17.1875 0 13.234375 3.875 
Q 9.28125 7.765625 9.28125 18.015625 
L 9.28125 47.703125 
L 2.6875 47.703125 
L 2.6875 54.6875 
L 9.28125 54.6875 
L 9.28125 70.21875 
z
" id="DejaVuSans-116"/>
      <path d="M 45.40625 46.390625 
L 45.40625 75.984375 
L 54.390625 75.984375 
L 54.390625 0 
L 45.40625 0 
L 45.40625 8.203125 
Q 42.578125 3.328125 38.25 0.953125 
Q 33.9375 -1.421875 27.875 -1.421875 
Q 17.96875 -1.421875 11.734375 6.484375 
Q 5.515625 14.40625 5.515625 27.296875 
Q 5.515625 40.1875 11.734375 48.09375 
Q 17.96875 56 27.875 56 
Q 33.9375 56 38.25 53.625 
Q 42.578125 51.265625 45.40625 46.390625 
z
M 14.796875 27.296875 
Q 14.796875 17.390625 18.875 11.75 
Q 22.953125 6.109375 30.078125 6.109375 
Q 37.203125 6.109375 41.296875 11.75 
Q 45.40625 17.390625 45.40625 27.296875 
Q 45.40625 37.203125 41.296875 42.84375 
Q 37.203125 48.484375 30.078125 48.484375 
Q 22.953125 48.484375 18.875 42.84375 
Q 14.796875 37.203125 14.796875 27.296875 
z
" id="DejaVuSans-100"/>
      <path d="M 19.671875 34.8125 
L 19.671875 8.109375 
L 35.5 8.109375 
Q 43.453125 8.109375 47.28125 11.40625 
Q 51.125 14.703125 51.125 21.484375 
Q 51.125 28.328125 47.28125 31.5625 
Q 43.453125 34.8125 35.5 34.8125 
z
M 19.671875 64.796875 
L 19.671875 42.828125 
L 34.28125 42.828125 
Q 41.5 42.828125 45.03125 45.53125 
Q 48.578125 48.25 48.578125 53.8125 
Q 48.578125 59.328125 45.03125 62.0625 
Q 41.5 64.796875 34.28125 64.796875 
z
M 9.8125 72.90625 
L 35.015625 72.90625 
Q 46.296875 72.90625 52.390625 68.21875 
Q 58.5 63.53125 58.5 54.890625 
Q 58.5 48.1875 55.375 44.234375 
Q 52.25 40.28125 46.1875 39.3125 
Q 53.46875 37.75 57.5 32.78125 
Q 61.53125 27.828125 61.53125 20.40625 
Q 61.53125 10.640625 54.890625 5.3125 
Q 48.25 0 35.984375 0 
L 9.8125 0 
z
" id="DejaVuSans-66"/>
     </defs>
     <g style="fill:#555555;" transform="translate(20.96875 214.669687)rotate(-90)scale(0.12 -0.12)">
      <use xlink:href="#DejaVuSans-109"/>
      <use x="97.412109" xlink:href="#DejaVuSans-97"/>
      <use x="158.691406" xlink:href="#DejaVuSans-103"/>
      <use x="222.167969" xlink:href="#DejaVuSans-110"/>
      <use x="285.546875" xlink:href="#DejaVuSans-105"/>
      <use x="313.330078" xlink:href="#DejaVuSans-116"/>
      <use x="352.539062" xlink:href="#DejaVuSans-117"/>
      <use x="415.917969" xlink:href="#DejaVuSans-100"/>
      <use x="479.394531" xlink:href="#DejaVuSans-101"/>
      <use x="540.917969" xlink:href="#DejaVuSans-32"/>
      <use x="572.705078" xlink:href="#DejaVuSans-91"/>
      <use x="611.71875" xlink:href="#DejaVuSans-100"/>
      <use x="675.195312" xlink:href="#DejaVuSans-66"/>
      <use x="743.798828" xlink:href="#DejaVuSans-93"/>
     </g>
    </g>
   </g>
   <g id="line2d_79">
    <path clip-path="url(#pd8a476369d)" d="M 86.778409 101.283905 
L 90.688189 101.284309 
L 94.597968 101.284774 
L 98.507748 101.285309 
L 102.417528 101.285924 
L 106.327307 101.28663 
L 110.237087 101.287443 
L 114.146866 101.288378 
L 118.056646 101.289453 
L 121.966426 101.290689 
L 125.876205 101.292111 
L 129.785985 101.293746 
L 133.695764 101.295626 
L 137.605544 101.297789 
L 141.515324 101.300276 
L 145.425103 101.303138 
L 149.334883 101.30643 
L 153.244663 101.310217 
L 157.154442 101.314574 
L 161.064222 101.319589 
L 164.974001 101.325359 
L 168.883781 101.332001 
L 172.793561 101.339647 
L 176.70334 101.34845 
L 180.61312 101.358589 
L 184.522899 101.370266 
L 188.432679 101.383721 
L 192.342459 101.399228 
L 196.252238 101.417106 
L 200.162018 101.437724 
L 204.071798 101.461513 
L 207.981577 101.488973 
L 211.891357 101.520685 
L 215.801136 101.55733 
L 219.710916 101.599699 
L 223.620696 101.648718 
L 227.530475 101.70547 
L 231.440255 101.771223 
L 235.350034 101.847459 
L 239.259814 101.935916 
L 243.169594 102.038626 
L 247.079373 102.157963 
L 250.989153 102.296692 
L 254.898933 102.458027 
L 258.808712 102.645676 
L 262.718492 102.863892 
L 266.628271 103.117505 
L 270.538051 103.411927 
L 274.447831 103.753132 
L 278.35761 104.147577 
L 282.26739 104.60206 
L 286.177169 105.123511 
L 290.086949 105.718707 
L 293.996729 106.393917 
L 297.906508 107.154521 
L 301.816288 108.004629 
L 305.726067 108.946766 
L 309.635847 109.981662 
L 313.545627 111.108188 
L 317.455406 112.323455 
L 321.365186 113.623047 
L 325.274966 115.001359 
L 329.184745 116.45198 
L 333.094525 117.968075 
L 337.004304 119.542726 
L 340.914084 121.1692 
L 344.823864 122.841157 
L 348.733643 124.552767 
L 352.643423 126.298788 
L 356.553202 128.074582 
L 360.462982 129.876113 
L 364.372762 131.699918 
L 368.282541 133.543073 
L 372.192321 135.403161 
L 376.102101 137.278238 
L 380.01188 139.166821 
L 383.92166 141.067879 
L 387.831439 142.980844 
L 391.741219 144.905654 
L 395.650999 146.842801 
L 399.560778 148.793431 
L 403.470558 150.759456 
L 407.380337 152.743727 
L 411.290117 154.750227 
L 415.199897 156.784322 
L 419.109676 158.853033 
L 423.019456 160.965324 
L 426.929236 163.132367 
L 430.839015 165.367707 
L 434.748795 167.687258 
L 438.658574 170.109017 
L 442.568354 172.652409 
L 446.478134 175.337237 
L 450.387913 178.182334 
L 454.297693 181.204134 
L 458.207472 184.415499 
L 462.117252 187.825097 
L 466.027032 191.437441 
L 469.936811 195.253467 
L 473.846591 199.271316 
" style="fill:none;stroke:#0000ff;stroke-linecap:square;stroke-width:2;"/>
   </g>
   <g id="line2d_80">
    <path clip-path="url(#pd8a476369d)" d="M 86.778409 101.290846 
L 90.688189 101.292289 
L 94.597968 101.293947 
L 98.507748 101.295853 
L 102.417528 101.298044 
L 106.327307 101.300562 
L 110.237087 101.303457 
L 114.146866 101.306783 
L 118.056646 101.310605 
L 121.966426 101.314997 
L 125.876205 101.320044 
L 129.785985 101.325842 
L 133.695764 101.332502 
L 137.605544 101.340152 
L 141.515324 101.348938 
L 145.425103 101.359025 
L 149.334883 101.370605 
L 153.244663 101.383896 
L 157.154442 101.399146 
L 161.064222 101.416639 
L 164.974001 101.436698 
L 168.883781 101.459691 
L 172.793561 101.486034 
L 176.70334 101.516201 
L 180.61312 101.550726 
L 184.522899 101.590213 
L 188.432679 101.635341 
L 192.342459 101.686871 
L 196.252238 101.745655 
L 200.162018 101.81264 
L 204.071798 101.888875 
L 207.981577 101.975517 
L 211.891357 102.073831 
L 215.801136 102.185193 
L 219.710916 102.311089 
L 223.620696 102.453104 
L 227.530475 102.612917 
L 231.440255 102.79228 
L 235.350034 102.993001 
L 239.259814 103.21691 
L 243.169594 103.465832 
L 247.079373 103.741543 
L 250.989153 104.045728 
L 254.898933 104.379934 
L 258.808712 104.745526 
L 262.718492 105.143637 
L 266.628271 105.575136 
L 270.538051 106.040591 
L 274.447831 106.540252 
L 278.35761 107.074039 
L 282.26739 107.641549 
L 286.177169 108.242069 
L 290.086949 108.874606 
L 293.996729 109.537921 
L 297.906508 110.230576 
L 301.816288 110.950974 
L 305.726067 111.697412 
L 309.635847 112.468127 
L 313.545627 113.261332 
L 317.455406 114.07526 
L 321.365186 114.908193 
L 325.274966 115.758487 
L 329.184745 116.624594 
L 333.094525 117.505072 
L 337.004304 118.398601 
L 340.914084 119.303983 
L 344.823864 120.220149 
L 348.733643 121.146156 
L 352.643423 122.081189 
L 356.553202 123.024555 
L 360.462982 123.975684 
L 364.372762 124.934123 
L 368.282541 125.899532 
L 372.192321 126.871687 
L 376.102101 127.850474 
L 380.01188 128.835889 
L 383.92166 129.828038 
L 387.831439 130.827138 
L 391.741219 131.83352 
L 395.650999 132.847628 
L 399.560778 133.870026 
L 403.470558 134.901395 
L 407.380337 135.942545 
L 411.290117 136.994406 
L 415.199897 138.058041 
L 419.109676 139.134638 
L 423.019456 140.225508 
L 426.929236 141.332085 
L 430.839015 142.455909 
L 434.748795 143.598619 
L 438.658574 144.761928 
L 442.568354 145.947601 
L 446.478134 147.157424 
L 450.387913 148.393163 
L 454.297693 149.656528 
L 458.207472 150.949123 
L 462.117252 152.272401 
L 466.027032 153.627615 
L 469.936811 155.015778 
L 473.846591 156.437623 
" style="fill:none;stroke:#ff0000;stroke-linecap:square;stroke-width:2;"/>
   </g>
   <g id="line2d_81">
    <path clip-path="url(#pd8a476369d)" d="M 86.778409 39.609091 
L 90.688189 41.561895 
L 94.597968 43.514976 
L 98.507748 45.468239 
L 102.417528 47.42159 
L 106.327307 49.374939 
L 110.237087 51.328195 
L 114.146866 53.281265 
L 118.056646 55.234053 
L 121.966426 57.186457 
L 125.876205 59.13837 
L 129.785985 61.089672 
L 133.695764 63.040234 
L 137.605544 64.989914 
L 141.515324 66.938551 
L 145.425103 68.885967 
L 149.334883 70.83196 
L 153.244663 72.776304 
L 157.154442 74.718742 
L 161.064222 76.658983 
L 164.974001 78.596698 
L 168.883781 80.531514 
L 172.793561 82.46301 
L 176.70334 84.390709 
L 180.61312 86.314073 
L 184.522899 88.232495 
L 188.432679 90.145293 
L 192.342459 92.051704 
L 196.252238 93.950875 
L 200.162018 95.841856 
L 204.071798 97.723596 
L 207.981577 99.594938 
L 211.891357 101.454615 
L 215.801136 103.30125 
L 219.710916 105.133357 
L 223.620696 106.949349 
L 227.530475 108.747548 
L 231.440255 110.526199 
L 235.350034 112.283497 
L 239.259814 114.017607 
L 243.169594 115.726707 
L 247.079373 117.409019 
L 250.989153 119.062858 
L 254.898933 120.686676 
L 258.808712 122.279109 
L 262.718492 123.839023 
L 266.628271 125.365549 
L 270.538051 126.858118 
L 274.447831 128.316482 
L 278.35761 129.740717 
L 282.26739 131.13123 
L 286.177169 132.488731 
L 290.086949 133.814214 
L 293.996729 135.108918 
L 297.906508 136.374282 
L 301.816288 137.611903 
L 305.726067 138.823484 
L 309.635847 140.010792 
L 313.545627 141.175613 
L 317.455406 142.319718 
L 321.365186 143.444829 
L 325.274966 144.552595 
L 329.184745 145.644574 
L 333.094525 146.722216 
L 337.004304 147.786857 
L 340.914084 148.839712 
L 344.823864 149.881879 
L 348.733643 150.914333 
L 352.643423 151.937939 
L 356.553202 152.953451 
L 360.462982 153.961523 
L 364.372762 154.962722 
L 368.282541 155.957533 
L 372.192321 156.94638 
L 376.102101 157.929638 
L 380.01188 158.907658 
L 383.92166 159.880791 
L 387.831439 160.849424 
L 391.741219 161.814022 
L 395.650999 162.77519 
L 399.560778 163.733737 
L 403.470558 164.690781 
L 407.380337 165.647861 
L 411.290117 166.607098 
L 415.199897 167.571382 
L 419.109676 168.544609 
L 423.019456 169.531955 
L 426.929236 170.540196 
L 430.839015 171.578038 
L 434.748795 172.656439 
L 438.658574 173.788858 
L 442.568354 174.991334 
L 446.478134 176.282312 
L 450.387913 177.682088 
L 454.297693 179.211836 
L 458.207472 180.892237 
L 462.117252 182.741878 
L 466.027032 184.7757 
L 469.936811 187.003788 
L 473.846591 189.430709 
" style="fill:none;stroke:#000000;stroke-linecap:square;stroke-width:2;"/>
   </g>
   <g id="line2d_82">
    <path clip-path="url(#pd8a476369d)" d="M 86.778409 146.347551 
L 90.688189 146.348588 
L 94.597968 146.34978 
L 98.507748 146.351149 
L 102.417528 146.352723 
L 106.327307 146.354531 
L 110.237087 146.356608 
L 114.146866 146.358994 
L 118.056646 146.361734 
L 121.966426 146.36488 
L 125.876205 146.368491 
L 129.785985 146.372637 
L 133.695764 146.377394 
L 137.605544 146.38285 
L 141.515324 146.389108 
L 145.425103 146.396281 
L 149.334883 146.404501 
L 153.244663 146.413914 
L 157.154442 146.424688 
L 161.064222 146.437011 
L 164.974001 146.451097 
L 168.883781 146.467183 
L 172.793561 146.485535 
L 176.70334 146.50645 
L 180.61312 146.530255 
L 184.522899 146.557313 
L 188.432679 146.588019 
L 192.342459 146.622801 
L 196.252238 146.662122 
L 200.162018 146.706474 
L 204.071798 146.756375 
L 207.981577 146.812364 
L 211.891357 146.874992 
L 215.801136 146.94481 
L 219.710916 147.022359 
L 223.620696 147.108155 
L 227.530475 147.202673 
L 231.440255 147.306333 
L 235.350034 147.419483 
L 239.259814 147.542392 
L 243.169594 147.675238 
L 247.079373 147.818113 
L 250.989153 147.971027 
L 254.898933 148.13393 
L 258.808712 148.306731 
L 262.718492 148.489341 
L 266.628271 148.681707 
L 270.538051 148.883864 
L 274.447831 149.095972 
L 278.35761 149.318363 
L 282.26739 149.551572 
L 286.177169 149.796358 
L 290.086949 150.053713 
L 293.996729 150.324857 
L 297.906508 150.611215 
L 301.816288 150.914385 
L 305.726067 151.236088 
L 309.635847 151.57811 
L 313.545627 151.942245 
L 317.455406 152.330216 
L 321.365186 152.74362 
L 325.274966 153.183856 
L 329.184745 153.652072 
L 333.094525 154.14912 
L 337.004304 154.675521 
L 340.914084 155.231449 
L 344.823864 155.816724 
L 348.733643 156.430827 
L 352.643423 157.07292 
L 356.553202 157.741884 
L 360.462982 158.436355 
L 364.372762 159.154781 
L 368.282541 159.895463 
L 372.192321 160.65661 
L 376.102101 161.436386 
L 380.01188 162.232956 
L 383.92166 163.044535 
L 387.831439 163.869428 
L 391.741219 164.70608 
L 395.650999 165.55312 
L 399.560778 166.409424 
L 403.470558 167.27418 
L 407.380337 168.146977 
L 411.290117 169.027914 
L 415.199897 169.91774 
L 419.109676 170.818036 
L 423.019456 171.731442 
L 426.929236 172.661933 
L 430.839015 173.615159 
L 434.748795 174.59883 
L 438.658574 175.623139 
L 442.568354 176.701162 
L 446.478134 177.849185 
L 450.387913 179.086807 
L 454.297693 180.436687 
L 458.207472 181.923734 
L 462.117252 183.573624 
L 466.027032 185.410648 
L 469.936811 187.455126 
L 473.846591 189.720889 
" style="fill:none;stroke:#bf00bf;stroke-linecap:square;stroke-width:2;"/>
   </g>
   <g id="line2d_83">
    <path clip-path="url(#pd8a476369d)" d="M 86.778409 249.705507 
L 90.688189 250.683335 
L 94.597968 251.660915 
L 98.507748 252.638219 
L 102.417528 253.615215 
L 106.327307 254.591862 
L 110.237087 255.568114 
L 114.146866 256.543919 
L 118.056646 257.519214 
L 121.966426 258.493928 
L 125.876205 259.467976 
L 129.785985 260.441265 
L 133.695764 261.413683 
L 137.605544 262.385106 
L 141.515324 263.355387 
L 145.425103 264.324362 
L 149.334883 265.29184 
L 153.244663 266.257605 
L 157.154442 267.221407 
L 161.064222 268.182965 
L 164.974001 269.141955 
L 168.883781 270.098011 
L 172.793561 271.050717 
L 176.70334 271.999599 
L 180.61312 272.944124 
L 184.522899 273.883688 
L 188.432679 274.817613 
L 192.342459 275.745138 
L 196.252238 276.665413 
L 200.162018 277.577491 
L 204.071798 278.480324 
L 207.981577 279.372756 
L 211.891357 280.253522 
L 215.801136 281.121247 
L 219.710916 281.974448 
L 223.620696 282.81154 
L 227.530475 283.630847 
L 231.440255 284.430617 
L 235.350034 285.209047 
L 239.259814 285.964307 
L 243.169594 286.694576 
L 247.079373 287.39808 
L 250.989153 288.07314 
L 254.898933 288.718211 
L 258.808712 289.331935 
L 262.718492 289.913183 
L 266.628271 290.461094 
L 270.538051 290.975106 
L 274.447831 291.45498 
L 278.35761 291.900804 
L 282.26739 292.312994 
L 286.177169 292.692275 
L 290.086949 293.039656 
L 293.996729 293.356392 
L 297.906508 293.643944 
L 301.816288 293.903929 
L 305.726067 294.138077 
L 309.635847 294.348185 
L 313.545627 294.536071 
L 317.455406 294.703543 
L 321.365186 294.852367 
L 325.274966 294.984239 
L 329.184745 295.10077 
L 333.094525 295.20347 
L 337.004304 295.293742 
L 340.914084 295.372876 
L 344.823864 295.442049 
L 348.733643 295.502325 
L 352.643423 295.554662 
L 356.553202 295.599915 
L 360.462982 295.63884 
L 364.372762 295.672105 
L 368.282541 295.700293 
L 372.192321 295.723913 
L 376.102101 295.743401 
L 380.01188 295.759131 
L 383.92166 295.771421 
L 387.831439 295.780538 
L 391.741219 295.786706 
L 395.650999 295.790112 
L 399.560778 295.790909 
L 403.470558 295.789229 
L 407.380337 295.785185 
L 411.290117 295.778881 
L 415.199897 295.770418 
L 419.109676 295.759902 
L 423.019456 295.747454 
L 426.929236 295.733216 
L 430.839015 295.717359 
L 434.748795 295.700089 
L 438.658574 295.681653 
L 442.568354 295.66234 
L 446.478134 295.642486 
L 450.387913 295.62247 
L 454.297693 295.602714 
L 458.207472 295.583674 
L 462.117252 295.565837 
L 466.027032 295.549714 
L 469.936811 295.535832 
L 473.846591 295.524724 
" style="fill:none;stroke:#008000;stroke-linecap:square;stroke-width:2;"/>
   </g>
   <g id="patch_3">
    <path d="M 67.425 308.6 
L 67.425 26.8 
" style="fill:none;stroke:#ffffff;stroke-linecap:square;stroke-linejoin:miter;"/>
   </g>
   <g id="patch_4">
    <path d="M 493.2 308.6 
L 493.2 26.8 
" style="fill:none;stroke:#ffffff;stroke-linecap:square;stroke-linejoin:miter;"/>
   </g>
   <g id="patch_5">
    <path d="M 67.425 308.6 
L 493.2 308.6 
" style="fill:none;stroke:#ffffff;stroke-linecap:square;stroke-linejoin:miter;"/>
   </g>
   <g id="patch_6">
    <path d="M 67.425 26.8 
L 493.2 26.8 
" style="fill:none;stroke:#ffffff;stroke-linecap:square;stroke-linejoin:miter;"/>
   </g>
   <g id="text_16">
    <!-- dB magnitude feedback model -->
    <defs>
     <path d="M 48.6875 27.296875 
Q 48.6875 37.203125 44.609375 42.84375 
Q 40.53125 48.484375 33.40625 48.484375 
Q 26.265625 48.484375 22.1875 42.84375 
Q 18.109375 37.203125 18.109375 27.296875 
Q 18.109375 17.390625 22.1875 11.75 
Q 26.265625 6.109375 33.40625 6.109375 
Q 40.53125 6.109375 44.609375 11.75 
Q 48.6875 17.390625 48.6875 27.296875 
z
M 18.109375 46.390625 
Q 20.953125 51.265625 25.265625 53.625 
Q 29.59375 56 35.59375 56 
Q 45.5625 56 51.78125 48.09375 
Q 58.015625 40.1875 58.015625 27.296875 
Q 58.015625 14.40625 51.78125 6.484375 
Q 45.5625 -1.421875 35.59375 -1.421875 
Q 29.59375 -1.421875 25.265625 0.953125 
Q 20.953125 3.328125 18.109375 8.203125 
L 18.109375 0 
L 9.078125 0 
L 9.078125 75.984375 
L 18.109375 75.984375 
z
" id="DejaVuSans-98"/>
     <path d="M 30.609375 48.390625 
Q 23.390625 48.390625 19.1875 42.75 
Q 14.984375 37.109375 14.984375 27.296875 
Q 14.984375 17.484375 19.15625 11.84375 
Q 23.34375 6.203125 30.609375 6.203125 
Q 37.796875 6.203125 41.984375 11.859375 
Q 46.1875 17.53125 46.1875 27.296875 
Q 46.1875 37.015625 41.984375 42.703125 
Q 37.796875 48.390625 30.609375 48.390625 
z
M 30.609375 56 
Q 42.328125 56 49.015625 48.375 
Q 55.71875 40.765625 55.71875 27.296875 
Q 55.71875 13.875 49.015625 6.21875 
Q 42.328125 -1.421875 30.609375 -1.421875 
Q 18.84375 -1.421875 12.171875 6.21875 
Q 5.515625 13.875 5.515625 27.296875 
Q 5.515625 40.765625 12.171875 48.375 
Q 18.84375 56 30.609375 56 
z
" id="DejaVuSans-111"/>
     <path d="M 9.421875 75.984375 
L 18.40625 75.984375 
L 18.40625 0 
L 9.421875 0 
z
" id="DejaVuSans-108"/>
    </defs>
    <g transform="translate(187.963125 20.8)scale(0.12 -0.12)">
     <use xlink:href="#DejaVuSans-100"/>
     <use x="63.476562" xlink:href="#DejaVuSans-66"/>
     <use x="132.080078" xlink:href="#DejaVuSans-32"/>
     <use x="163.867188" xlink:href="#DejaVuSans-109"/>
     <use x="261.279297" xlink:href="#DejaVuSans-97"/>
     <use x="322.558594" xlink:href="#DejaVuSans-103"/>
     <use x="386.035156" xlink:href="#DejaVuSans-110"/>
     <use x="449.414062" xlink:href="#DejaVuSans-105"/>
     <use x="477.197266" xlink:href="#DejaVuSans-116"/>
     <use x="516.40625" xlink:href="#DejaVuSans-117"/>
     <use x="579.785156" xlink:href="#DejaVuSans-100"/>
     <use x="643.261719" xlink:href="#DejaVuSans-101"/>
     <use x="704.785156" xlink:href="#DejaVuSans-32"/>
     <use x="736.572266" xlink:href="#DejaVuSans-102"/>
     <use x="771.777344" xlink:href="#DejaVuSans-101"/>
     <use x="833.300781" xlink:href="#DejaVuSans-101"/>
     <use x="894.824219" xlink:href="#DejaVuSans-100"/>
     <use x="958.300781" xlink:href="#DejaVuSans-98"/>
     <use x="1021.777344" xlink:href="#DejaVuSans-97"/>
     <use x="1083.056641" xlink:href="#DejaVuSans-99"/>
     <use x="1138.037109" xlink:href="#DejaVuSans-107"/>
     <use x="1195.947266" xlink:href="#DejaVuSans-32"/>
     <use x="1227.734375" xlink:href="#DejaVuSans-109"/>
     <use x="1325.146484" xlink:href="#DejaVuSans-111"/>
     <use x="1386.328125" xlink:href="#DejaVuSans-100"/>
     <use x="1449.804688" xlink:href="#DejaVuSans-101"/>
     <use x="1511.328125" xlink:href="#DejaVuSans-108"/>
    </g>
   </g>
   <g id="legend_1">
    <g id="patch_7">
     <path d="M 486.2 35.8 
L 486.2 35.8 
Q 488.2 35.8 488.2 33.8 
L 488.2 33.8 
Q 488.2 31.8 486.2 31.8 
L 486.2 31.8 
Q 484.2 31.8 484.2 33.8 
L 484.2 33.8 
Q 484.2 35.8 486.2 35.8 
z
" style="fill:#e5e5e5;opacity:0.8;stroke:#cccccc;stroke-linejoin:miter;stroke-width:0.5;"/>
    </g>
   </g>
  </g>
 </g>
 <defs>
  <clipPath id="pd8a476369d">
   <rect height="281.8" width="425.775" x="67.425" y="26.8"/>
  </clipPath>
 </defs>
</svg>
