<?xml version="1.0" encoding="utf-8" standalone="no"?>
<!DOCTYPE svg PUBLIC "-//W3C//DTD SVG 1.1//EN"
  "http://www.w3.org/Graphics/SVG/1.1/DTD/svg11.dtd">
<!-- Created with matplotlib (http://matplotlib.org/) -->
<svg height="360pt" version="1.1" viewBox="0 0 504 360" width="504pt" xmlns="http://www.w3.org/2000/svg" xmlns:xlink="http://www.w3.org/1999/xlink">
 <defs>
  <style type="text/css">
*{stroke-linecap:butt;stroke-linejoin:round;}
  </style>
 </defs>
 <g id="figure_1">
  <g id="patch_1">
   <path d="M 0 360 
L 504 360 
L 504 0 
L 0 0 
z
" style="fill:#ffffff;"/>
  </g>
  <g id="axes_1">
   <g id="patch_2">
    <path d="M 67.425 312.2 
L 489.7 312.2 
L 489.7 26.8 
L 67.425 26.8 
z
" style="fill:#ffffff;"/>
   </g>
   <g id="matplotlib.axis_1">
    <g id="xtick_1">
     <g id="line2d_1">
      <path clip-path="url(#p2c2ab7650a)" d="M 86.619318 312.2 
L 86.619318 26.8 
" style="fill:none;stroke:#808080;stroke-linecap:square;stroke-width:0.8;"/>
     </g>
     <g id="line2d_2">
      <defs>
       <path d="M 0 0 
L 0 3.5 
" id="m2d91a2fbcb" style="stroke:#000000;stroke-width:0.8;"/>
      </defs>
      <g>
       <use style="stroke:#000000;stroke-width:0.8;" x="86.619318" xlink:href="#m2d91a2fbcb" y="312.2"/>
      </g>
     </g>
     <g id="text_1">
      <!-- 0 -->
      <defs>
       <path d="M 31.78125 66.40625 
Q 24.171875 66.40625 20.328125 58.90625 
Q 16.5 51.421875 16.5 36.375 
Q 16.5 21.390625 20.328125 13.890625 
Q 24.171875 6.390625 31.78125 6.390625 
Q 39.453125 6.390625 43.28125 13.890625 
Q 47.125 21.390625 47.125 36.375 
Q 47.125 51.421875 43.28125 58.90625 
Q 39.453125 66.40625 31.78125 66.40625 
z
M 31.78125 74.21875 
Q 44.046875 74.21875 50.515625 64.515625 
Q 56.984375 54.828125 56.984375 36.375 
Q 56.984375 17.96875 50.515625 8.265625 
Q 44.046875 -1.421875 31.78125 -1.421875 
Q 19.53125 -1.421875 13.0625 8.265625 
Q 6.59375 17.96875 6.59375 36.375 
Q 6.59375 54.828125 13.0625 64.515625 
Q 19.53125 74.21875 31.78125 74.21875 
z
" id="DejaVuSans-30"/>
      </defs>
      <g transform="translate(82.801818 328.318125)scale(0.12 -0.12)">
       <use xlink:href="#DejaVuSans-30"/>
      </g>
     </g>
    </g>
    <g id="xtick_2">
     <g id="line2d_3">
      <path clip-path="url(#p2c2ab7650a)" d="M 163.396591 312.2 
L 163.396591 26.8 
" style="fill:none;stroke:#808080;stroke-linecap:square;stroke-width:0.8;"/>
     </g>
     <g id="line2d_4">
      <g>
       <use style="stroke:#000000;stroke-width:0.8;" x="163.396591" xlink:href="#m2d91a2fbcb" y="312.2"/>
      </g>
     </g>
     <g id="text_2">
      <!-- 10 -->
      <defs>
       <path d="M 12.40625 8.296875 
L 28.515625 8.296875 
L 28.515625 63.921875 
L 10.984375 60.40625 
L 10.984375 69.390625 
L 28.421875 72.90625 
L 38.28125 72.90625 
L 38.28125 8.296875 
L 54.390625 8.296875 
L 54.390625 0 
L 12.40625 0 
z
" id="DejaVuSans-31"/>
      </defs>
      <g transform="translate(155.761591 328.318125)scale(0.12 -0.12)">
       <use xlink:href="#DejaVuSans-31"/>
       <use x="63.623047" xlink:href="#DejaVuSans-30"/>
      </g>
     </g>
    </g>
    <g id="xtick_3">
     <g id="line2d_5">
      <path clip-path="url(#p2c2ab7650a)" d="M 240.173864 312.2 
L 240.173864 26.8 
" style="fill:none;stroke:#808080;stroke-linecap:square;stroke-width:0.8;"/>
     </g>
     <g id="line2d_6">
      <g>
       <use style="stroke:#000000;stroke-width:0.8;" x="240.173864" xlink:href="#m2d91a2fbcb" y="312.2"/>
      </g>
     </g>
     <g id="text_3">
      <!-- 20 -->
      <defs>
       <path d="M 19.1875 8.296875 
L 53.609375 8.296875 
L 53.609375 0 
L 7.328125 0 
L 7.328125 8.296875 
Q 12.9375 14.109375 22.625 23.890625 
Q 32.328125 33.6875 34.8125 36.53125 
Q 39.546875 41.84375 41.421875 45.53125 
Q 43.3125 49.21875 43.3125 52.78125 
Q 43.3125 58.59375 39.234375 62.25 
Q 35.15625 65.921875 28.609375 65.921875 
Q 23.96875 65.921875 18.8125 64.3125 
Q 13.671875 62.703125 7.8125 59.421875 
L 7.8125 69.390625 
Q 13.765625 71.78125 18.9375 73 
Q 24.125 74.21875 28.421875 74.21875 
Q 39.75 74.21875 46.484375 68.546875 
Q 53.21875 62.890625 53.21875 53.421875 
Q 53.21875 48.921875 51.53125 44.890625 
Q 49.859375 40.875 45.40625 35.40625 
Q 44.1875 33.984375 37.640625 27.21875 
Q 31.109375 20.453125 19.1875 8.296875 
z
" id="DejaVuSans-32"/>
      </defs>
      <g transform="translate(232.538864 328.318125)scale(0.12 -0.12)">
       <use xlink:href="#DejaVuSans-32"/>
       <use x="63.623047" xlink:href="#DejaVuSans-30"/>
      </g>
     </g>
    </g>
    <g id="xtick_4">
     <g id="line2d_7">
      <path clip-path="url(#p2c2ab7650a)" d="M 316.951136 312.2 
L 316.951136 26.8 
" style="fill:none;stroke:#808080;stroke-linecap:square;stroke-width:0.8;"/>
     </g>
     <g id="line2d_8">
      <g>
       <use style="stroke:#000000;stroke-width:0.8;" x="316.951136" xlink:href="#m2d91a2fbcb" y="312.2"/>
      </g>
     </g>
     <g id="text_4">
      <!-- 30 -->
      <defs>
       <path d="M 40.578125 39.3125 
Q 47.65625 37.796875 51.625 33 
Q 55.609375 28.21875 55.609375 21.1875 
Q 55.609375 10.40625 48.1875 4.484375 
Q 40.765625 -1.421875 27.09375 -1.421875 
Q 22.515625 -1.421875 17.65625 -0.515625 
Q 12.796875 0.390625 7.625 2.203125 
L 7.625 11.71875 
Q 11.71875 9.328125 16.59375 8.109375 
Q 21.484375 6.890625 26.8125 6.890625 
Q 36.078125 6.890625 40.9375 10.546875 
Q 45.796875 14.203125 45.796875 21.1875 
Q 45.796875 27.640625 41.28125 31.265625 
Q 36.765625 34.90625 28.71875 34.90625 
L 20.21875 34.90625 
L 20.21875 43.015625 
L 29.109375 43.015625 
Q 36.375 43.015625 40.234375 45.921875 
Q 44.09375 48.828125 44.09375 54.296875 
Q 44.09375 59.90625 40.109375 62.90625 
Q 36.140625 65.921875 28.71875 65.921875 
Q 24.65625 65.921875 20.015625 65.03125 
Q 15.375 64.15625 9.8125 62.3125 
L 9.8125 71.09375 
Q 15.4375 72.65625 20.34375 73.4375 
Q 25.25 74.21875 29.59375 74.21875 
Q 40.828125 74.21875 47.359375 69.109375 
Q 53.90625 64.015625 53.90625 55.328125 
Q 53.90625 49.265625 50.4375 45.09375 
Q 46.96875 40.921875 40.578125 39.3125 
z
" id="DejaVuSans-33"/>
      </defs>
      <g transform="translate(309.316136 328.318125)scale(0.12 -0.12)">
       <use xlink:href="#DejaVuSans-33"/>
       <use x="63.623047" xlink:href="#DejaVuSans-30"/>
      </g>
     </g>
    </g>
    <g id="xtick_5">
     <g id="line2d_9">
      <path clip-path="url(#p2c2ab7650a)" d="M 393.728409 312.2 
L 393.728409 26.8 
" style="fill:none;stroke:#808080;stroke-linecap:square;stroke-width:0.8;"/>
     </g>
     <g id="line2d_10">
      <g>
       <use style="stroke:#000000;stroke-width:0.8;" x="393.728409" xlink:href="#m2d91a2fbcb" y="312.2"/>
      </g>
     </g>
     <g id="text_5">
      <!-- 40 -->
      <defs>
       <path d="M 37.796875 64.3125 
L 12.890625 25.390625 
L 37.796875 25.390625 
z
M 35.203125 72.90625 
L 47.609375 72.90625 
L 47.609375 25.390625 
L 58.015625 25.390625 
L 58.015625 17.1875 
L 47.609375 17.1875 
L 47.609375 0 
L 37.796875 0 
L 37.796875 17.1875 
L 4.890625 17.1875 
L 4.890625 26.703125 
z
" id="DejaVuSans-34"/>
      </defs>
      <g transform="translate(386.093409 328.318125)scale(0.12 -0.12)">
       <use xlink:href="#DejaVuSans-34"/>
       <use x="63.623047" xlink:href="#DejaVuSans-30"/>
      </g>
     </g>
    </g>
    <g id="xtick_6">
     <g id="line2d_11">
      <path clip-path="url(#p2c2ab7650a)" d="M 470.505682 312.2 
L 470.505682 26.8 
" style="fill:none;stroke:#808080;stroke-linecap:square;stroke-width:0.8;"/>
     </g>
     <g id="line2d_12">
      <g>
       <use style="stroke:#000000;stroke-width:0.8;" x="470.505682" xlink:href="#m2d91a2fbcb" y="312.2"/>
      </g>
     </g>
     <g id="text_6">
      <!-- 50 -->
      <defs>
       <path d="M 10.796875 72.90625 
L 49.515625 72.90625 
L 49.515625 64.59375 
L 19.828125 64.59375 
L 19.828125 46.734375 
Q 21.96875 47.46875 24.109375 47.828125 
Q 26.265625 48.1875 28.421875 48.1875 
Q 40.625 48.1875 47.75 41.5 
Q 54.890625 34.8125 54.890625 23.390625 
Q 54.890625 11.625 47.5625 5.09375 
Q 40.234375 -1.421875 26.90625 -1.421875 
Q 22.3125 -1.421875 17.546875 -0.640625 
Q 12.796875 0.140625 7.71875 1.703125 
L 7.71875 11.625 
Q 12.109375 9.234375 16.796875 8.0625 
Q 21.484375 6.890625 26.703125 6.890625 
Q 35.15625 6.890625 40.078125 11.328125 
Q 45.015625 15.765625 45.015625 23.390625 
Q 45.015625 31 40.078125 35.4375 
Q 35.15625 39.890625 26.703125 39.890625 
Q 22.75 39.890625 18.8125 39.015625 
Q 14.890625 38.140625 10.796875 36.28125 
z
" id="DejaVuSans-35"/>
      </defs>
      <g transform="translate(462.870682 328.318125)scale(0.12 -0.12)">
       <use xlink:href="#DejaVuSans-35"/>
       <use x="63.623047" xlink:href="#DejaVuSans-30"/>
      </g>
     </g>
    </g>
    <g id="text_7">
     <!-- time [us] -->
     <defs>
      <path d="M 18.3125 70.21875 
L 18.3125 54.6875 
L 36.8125 54.6875 
L 36.8125 47.703125 
L 18.3125 47.703125 
L 18.3125 18.015625 
Q 18.3125 11.328125 20.140625 9.421875 
Q 21.96875 7.515625 27.59375 7.515625 
L 36.8125 7.515625 
L 36.8125 0 
L 27.59375 0 
Q 17.1875 0 13.234375 3.875 
Q 9.28125 7.765625 9.28125 18.015625 
L 9.28125 47.703125 
L 2.6875 47.703125 
L 2.6875 54.6875 
L 9.28125 54.6875 
L 9.28125 70.21875 
z
" id="DejaVuSans-74"/>
      <path d="M 9.421875 54.6875 
L 18.40625 54.6875 
L 18.40625 0 
L 9.421875 0 
z
M 9.421875 75.984375 
L 18.40625 75.984375 
L 18.40625 64.59375 
L 9.421875 64.59375 
z
" id="DejaVuSans-69"/>
      <path d="M 52 44.1875 
Q 55.375 50.25 60.0625 53.125 
Q 64.75 56 71.09375 56 
Q 79.640625 56 84.28125 50.015625 
Q 88.921875 44.046875 88.921875 33.015625 
L 88.921875 0 
L 79.890625 0 
L 79.890625 32.71875 
Q 79.890625 40.578125 77.09375 44.375 
Q 74.3125 48.1875 68.609375 48.1875 
Q 61.625 48.1875 57.5625 43.546875 
Q 53.515625 38.921875 53.515625 30.90625 
L 53.515625 0 
L 44.484375 0 
L 44.484375 32.71875 
Q 44.484375 40.625 41.703125 44.40625 
Q 38.921875 48.1875 33.109375 48.1875 
Q 26.21875 48.1875 22.15625 43.53125 
Q 18.109375 38.875 18.109375 30.90625 
L 18.109375 0 
L 9.078125 0 
L 9.078125 54.6875 
L 18.109375 54.6875 
L 18.109375 46.1875 
Q 21.1875 51.21875 25.484375 53.609375 
Q 29.78125 56 35.6875 56 
Q 41.65625 56 45.828125 52.96875 
Q 50 49.953125 52 44.1875 
z
" id="DejaVuSans-6d"/>
      <path d="M 56.203125 29.59375 
L 56.203125 25.203125 
L 14.890625 25.203125 
Q 15.484375 15.921875 20.484375 11.0625 
Q 25.484375 6.203125 34.421875 6.203125 
Q 39.59375 6.203125 44.453125 7.46875 
Q 49.3125 8.734375 54.109375 11.28125 
L 54.109375 2.78125 
Q 49.265625 0.734375 44.1875 -0.34375 
Q 39.109375 -1.421875 33.890625 -1.421875 
Q 20.796875 -1.421875 13.15625 6.1875 
Q 5.515625 13.8125 5.515625 26.8125 
Q 5.515625 40.234375 12.765625 48.109375 
Q 20.015625 56 32.328125 56 
Q 43.359375 56 49.78125 48.890625 
Q 56.203125 41.796875 56.203125 29.59375 
z
M 47.21875 32.234375 
Q 47.125 39.59375 43.09375 43.984375 
Q 39.0625 48.390625 32.421875 48.390625 
Q 24.90625 48.390625 20.390625 44.140625 
Q 15.875 39.890625 15.1875 32.171875 
z
" id="DejaVuSans-65"/>
      <path id="DejaVuSans-20"/>
      <path d="M 8.59375 75.984375 
L 29.296875 75.984375 
L 29.296875 69 
L 17.578125 69 
L 17.578125 -6.203125 
L 29.296875 -6.203125 
L 29.296875 -13.1875 
L 8.59375 -13.1875 
z
" id="DejaVuSans-5b"/>
      <path d="M 8.5 21.578125 
L 8.5 54.6875 
L 17.484375 54.6875 
L 17.484375 21.921875 
Q 17.484375 14.15625 20.5 10.265625 
Q 23.53125 6.390625 29.59375 6.390625 
Q 36.859375 6.390625 41.078125 11.03125 
Q 45.3125 15.671875 45.3125 23.6875 
L 45.3125 54.6875 
L 54.296875 54.6875 
L 54.296875 0 
L 45.3125 0 
L 45.3125 8.40625 
Q 42.046875 3.421875 37.71875 1 
Q 33.40625 -1.421875 27.6875 -1.421875 
Q 18.265625 -1.421875 13.375 4.4375 
Q 8.5 10.296875 8.5 21.578125 
z
M 31.109375 56 
z
" id="DejaVuSans-75"/>
      <path d="M 44.28125 53.078125 
L 44.28125 44.578125 
Q 40.484375 46.53125 36.375 47.5 
Q 32.28125 48.484375 27.875 48.484375 
Q 21.1875 48.484375 17.84375 46.4375 
Q 14.5 44.390625 14.5 40.28125 
Q 14.5 37.15625 16.890625 35.375 
Q 19.28125 33.59375 26.515625 31.984375 
L 29.59375 31.296875 
Q 39.15625 29.25 43.1875 25.515625 
Q 47.21875 21.78125 47.21875 15.09375 
Q 47.21875 7.46875 41.1875 3.015625 
Q 35.15625 -1.421875 24.609375 -1.421875 
Q 20.21875 -1.421875 15.453125 -0.5625 
Q 10.6875 0.296875 5.421875 2 
L 5.421875 11.28125 
Q 10.40625 8.6875 15.234375 7.390625 
Q 20.0625 6.109375 24.8125 6.109375 
Q 31.15625 6.109375 34.5625 8.28125 
Q 37.984375 10.453125 37.984375 14.40625 
Q 37.984375 18.0625 35.515625 20.015625 
Q 33.0625 21.96875 24.703125 23.78125 
L 21.578125 24.515625 
Q 13.234375 26.265625 9.515625 29.90625 
Q 5.8125 33.546875 5.8125 39.890625 
Q 5.8125 47.609375 11.28125 51.796875 
Q 16.75 56 26.8125 56 
Q 31.78125 56 36.171875 55.265625 
Q 40.578125 54.546875 44.28125 53.078125 
z
" id="DejaVuSans-73"/>
      <path d="M 30.421875 75.984375 
L 30.421875 -13.1875 
L 9.71875 -13.1875 
L 9.71875 -6.203125 
L 21.390625 -6.203125 
L 21.390625 69 
L 9.71875 69 
L 9.71875 75.984375 
z
" id="DejaVuSans-5d"/>
     </defs>
     <g transform="translate(251.490313 343.931875)scale(0.12 -0.12)">
      <use xlink:href="#DejaVuSans-74"/>
      <use x="39.208984" xlink:href="#DejaVuSans-69"/>
      <use x="66.992188" xlink:href="#DejaVuSans-6d"/>
      <use x="164.404297" xlink:href="#DejaVuSans-65"/>
      <use x="225.927734" xlink:href="#DejaVuSans-20"/>
      <use x="257.714844" xlink:href="#DejaVuSans-5b"/>
      <use x="296.728516" xlink:href="#DejaVuSans-75"/>
      <use x="360.107422" xlink:href="#DejaVuSans-73"/>
      <use x="412.207031" xlink:href="#DejaVuSans-5d"/>
     </g>
    </g>
   </g>
   <g id="matplotlib.axis_2">
    <g id="ytick_1">
     <g id="line2d_13">
      <path clip-path="url(#p2c2ab7650a)" d="M 67.425 290.396897 
L 489.7 290.396897 
" style="fill:none;stroke:#808080;stroke-linecap:square;stroke-width:0.8;"/>
     </g>
     <g id="line2d_14">
      <defs>
       <path d="M 0 0 
L -3.5 0 
" id="m4f01587874" style="stroke:#000000;stroke-width:0.8;"/>
      </defs>
      <g>
       <use style="stroke:#000000;stroke-width:0.8;" x="67.425" xlink:href="#m4f01587874" y="290.396897"/>
      </g>
     </g>
     <g id="text_8">
      <!-- −100 -->
      <defs>
       <path d="M 10.59375 35.5 
L 73.1875 35.5 
L 73.1875 27.203125 
L 10.59375 27.203125 
z
" id="DejaVuSans-2212"/>
      </defs>
      <g transform="translate(27.464375 294.955959)scale(0.12 -0.12)">
       <use xlink:href="#DejaVuSans-2212"/>
       <use x="83.789062" xlink:href="#DejaVuSans-31"/>
       <use x="147.412109" xlink:href="#DejaVuSans-30"/>
       <use x="211.035156" xlink:href="#DejaVuSans-30"/>
      </g>
     </g>
    </g>
    <g id="ytick_2">
     <g id="line2d_15">
      <path clip-path="url(#p2c2ab7650a)" d="M 67.425 254.136182 
L 489.7 254.136182 
" style="fill:none;stroke:#808080;stroke-linecap:square;stroke-width:0.8;"/>
     </g>
     <g id="line2d_16">
      <g>
       <use style="stroke:#000000;stroke-width:0.8;" x="67.425" xlink:href="#m4f01587874" y="254.136182"/>
      </g>
     </g>
     <g id="text_9">
      <!-- −75 -->
      <defs>
       <path d="M 8.203125 72.90625 
L 55.078125 72.90625 
L 55.078125 68.703125 
L 28.609375 0 
L 18.3125 0 
L 43.21875 64.59375 
L 8.203125 64.59375 
z
" id="DejaVuSans-37"/>
      </defs>
      <g transform="translate(35.099375 258.695245)scale(0.12 -0.12)">
       <use xlink:href="#DejaVuSans-2212"/>
       <use x="83.789062" xlink:href="#DejaVuSans-37"/>
       <use x="147.412109" xlink:href="#DejaVuSans-35"/>
      </g>
     </g>
    </g>
    <g id="ytick_3">
     <g id="line2d_17">
      <path clip-path="url(#p2c2ab7650a)" d="M 67.425 217.875468 
L 489.7 217.875468 
" style="fill:none;stroke:#808080;stroke-linecap:square;stroke-width:0.8;"/>
     </g>
     <g id="line2d_18">
      <g>
       <use style="stroke:#000000;stroke-width:0.8;" x="67.425" xlink:href="#m4f01587874" y="217.875468"/>
      </g>
     </g>
     <g id="text_10">
      <!-- −50 -->
      <g transform="translate(35.099375 222.43453)scale(0.12 -0.12)">
       <use xlink:href="#DejaVuSans-2212"/>
       <use x="83.789062" xlink:href="#DejaVuSans-35"/>
       <use x="147.412109" xlink:href="#DejaVuSans-30"/>
      </g>
     </g>
    </g>
    <g id="ytick_4">
     <g id="line2d_19">
      <path clip-path="url(#p2c2ab7650a)" d="M 67.425 181.614754 
L 489.7 181.614754 
" style="fill:none;stroke:#808080;stroke-linecap:square;stroke-width:0.8;"/>
     </g>
     <g id="line2d_20">
      <g>
       <use style="stroke:#000000;stroke-width:0.8;" x="67.425" xlink:href="#m4f01587874" y="181.614754"/>
      </g>
     </g>
     <g id="text_11">
      <!-- −25 -->
      <g transform="translate(35.099375 186.173816)scale(0.12 -0.12)">
       <use xlink:href="#DejaVuSans-2212"/>
       <use x="83.789062" xlink:href="#DejaVuSans-32"/>
       <use x="147.412109" xlink:href="#DejaVuSans-35"/>
      </g>
     </g>
    </g>
    <g id="ytick_5">
     <g id="line2d_21">
      <path clip-path="url(#p2c2ab7650a)" d="M 67.425 145.354039 
L 489.7 145.354039 
" style="fill:none;stroke:#808080;stroke-linecap:square;stroke-width:0.8;"/>
     </g>
     <g id="line2d_22">
      <g>
       <use style="stroke:#000000;stroke-width:0.8;" x="67.425" xlink:href="#m4f01587874" y="145.354039"/>
      </g>
     </g>
     <g id="text_12">
      <!-- 0 -->
      <g transform="translate(52.79 149.913102)scale(0.12 -0.12)">
       <use xlink:href="#DejaVuSans-30"/>
      </g>
     </g>
    </g>
    <g id="ytick_6">
     <g id="line2d_23">
      <path clip-path="url(#p2c2ab7650a)" d="M 67.425 109.093325 
L 489.7 109.093325 
" style="fill:none;stroke:#808080;stroke-linecap:square;stroke-width:0.8;"/>
     </g>
     <g id="line2d_24">
      <g>
       <use style="stroke:#000000;stroke-width:0.8;" x="67.425" xlink:href="#m4f01587874" y="109.093325"/>
      </g>
     </g>
     <g id="text_13">
      <!-- 25 -->
      <g transform="translate(45.155 113.652388)scale(0.12 -0.12)">
       <use xlink:href="#DejaVuSans-32"/>
       <use x="63.623047" xlink:href="#DejaVuSans-35"/>
      </g>
     </g>
    </g>
    <g id="ytick_7">
     <g id="line2d_25">
      <path clip-path="url(#p2c2ab7650a)" d="M 67.425 72.832611 
L 489.7 72.832611 
" style="fill:none;stroke:#808080;stroke-linecap:square;stroke-width:0.8;"/>
     </g>
     <g id="line2d_26">
      <g>
       <use style="stroke:#000000;stroke-width:0.8;" x="67.425" xlink:href="#m4f01587874" y="72.832611"/>
      </g>
     </g>
     <g id="text_14">
      <!-- 50 -->
      <g transform="translate(45.155 77.391673)scale(0.12 -0.12)">
       <use xlink:href="#DejaVuSans-35"/>
       <use x="63.623047" xlink:href="#DejaVuSans-30"/>
      </g>
     </g>
    </g>
    <g id="ytick_8">
     <g id="line2d_27">
      <path clip-path="url(#p2c2ab7650a)" d="M 67.425 36.571896 
L 489.7 36.571896 
" style="fill:none;stroke:#808080;stroke-linecap:square;stroke-width:0.8;"/>
     </g>
     <g id="line2d_28">
      <g>
       <use style="stroke:#000000;stroke-width:0.8;" x="67.425" xlink:href="#m4f01587874" y="36.571896"/>
      </g>
     </g>
     <g id="text_15">
      <!-- 75 -->
      <g transform="translate(45.155 41.130959)scale(0.12 -0.12)">
       <use xlink:href="#DejaVuSans-37"/>
       <use x="63.623047" xlink:href="#DejaVuSans-35"/>
      </g>
     </g>
    </g>
    <g id="text_16">
     <!-- [V] -->
     <defs>
      <path d="M 28.609375 0 
L 0.78125 72.90625 
L 11.078125 72.90625 
L 34.1875 11.53125 
L 57.328125 72.90625 
L 67.578125 72.90625 
L 39.796875 0 
z
" id="DejaVuSans-56"/>
     </defs>
     <g transform="translate(20.96875 178.28625)rotate(-90)scale(0.12 -0.12)">
      <use xlink:href="#DejaVuSans-5b"/>
      <use x="39.013672" xlink:href="#DejaVuSans-56"/>
      <use x="107.421875" xlink:href="#DejaVuSans-5d"/>
     </g>
    </g>
   </g>
   <g id="line2d_29">
    <path clip-path="url(#p2c2ab7650a)" d="M 86.619318 145.354039 
L 90.496958 145.347943 
L 94.374598 145.315433 
L 98.252238 145.263839 
L 102.129878 145.201556 
L 106.007518 145.130392 
L 109.885158 145.051869 
L 113.762798 144.967658 
L 117.640438 144.879432 
L 121.518079 144.788871 
L 125.395719 144.697667 
L 129.273359 144.607518 
L 133.150999 144.520134 
L 137.028639 144.437232 
L 140.906279 144.360539 
L 144.783919 144.29179 
L 148.661559 144.232726 
L 152.539199 144.185097 
L 156.416839 144.15066 
L 160.294479 144.131174 
L 164.172119 144.128406 
L 168.049759 144.144127 
L 171.927399 144.180109 
L 175.805039 144.238127 
L 179.682679 144.319955 
L 183.560319 144.427369 
L 187.437959 144.56214 
L 191.315599 144.726038 
L 195.193239 144.920827 
L 199.070879 145.148263 
L 202.948519 145.410096 
L 206.826159 145.708064 
L 210.703799 146.043895 
L 214.581439 146.419301 
L 218.459079 146.83598 
L 222.336719 147.29561 
L 226.21436 147.799849 
L 230.092 148.350335 
L 233.96964 148.948678 
L 237.84728 149.596461 
L 241.72492 150.295239 
L 245.60256 151.046534 
L 249.4802 151.851831 
L 253.35784 152.712579 
L 257.23548 153.630186 
L 261.11312 154.606015 
L 264.99076 155.641385 
L 268.8684 156.737564 
L 272.74604 157.895766 
L 276.62368 159.117152 
L 280.50132 160.402822 
L 284.37896 161.753815 
L 288.2566 163.171103 
L 292.13424 164.655592 
L 296.01188 166.208111 
L 299.88952 167.829418 
L 303.76716 169.52019 
L 307.6448 171.28102 
L 311.52244 173.112416 
L 315.40008 175.014796 
L 319.27772 176.988486 
L 323.15536 179.033712 
L 327.033 181.150601 
L 330.91064 183.339177 
L 334.788281 185.599354 
L 338.665921 187.930935 
L 342.543561 190.333608 
L 346.421201 192.806943 
L 350.298841 195.350387 
L 354.176481 197.963261 
L 358.054121 200.644756 
L 361.931761 203.393932 
L 365.809401 206.209712 
L 369.687041 209.090877 
L 373.564681 212.036069 
L 377.442321 215.043779 
L 381.319961 218.112354 
L 385.197601 221.239983 
L 389.075241 224.424702 
L 392.952881 227.66439 
L 396.830521 230.956762 
L 400.708161 234.29937 
L 404.585801 237.689599 
L 408.463441 241.124666 
L 412.341081 244.601616 
L 416.218721 248.11732 
L 420.096361 251.668473 
L 423.974001 255.251594 
L 427.851641 258.863023 
L 431.729281 262.498917 
L 435.606921 266.155254 
L 439.484562 269.827828 
L 443.362202 273.512247 
L 447.239842 277.203939 
L 451.117482 280.898141 
L 454.995122 284.58991 
L 458.872762 288.274115 
L 462.750402 291.945441 
L 466.628042 295.598388 
L 470.505682 299.227273 
" style="fill:none;stroke:#ff0000;stroke-linecap:square;stroke-width:2;"/>
   </g>
   <g id="line2d_30">
    <path clip-path="url(#p2c2ab7650a)" d="M 86.619318 145.354039 
L 90.496958 145.34798 
L 94.374598 145.316375 
L 98.252238 145.269294 
L 102.129878 145.218787 
L 106.007518 145.170361 
L 109.885158 145.129216 
L 113.762798 145.100679 
L 117.640438 145.09006 
L 121.518079 145.102641 
L 125.395719 145.143672 
L 129.273359 145.218359 
L 133.150999 145.331855 
L 137.028639 145.489249 
L 140.906279 145.695551 
L 144.783919 145.955682 
L 148.661559 146.274461 
L 152.539199 146.656588 
L 156.416839 147.106633 
L 160.294479 147.629018 
L 164.172119 148.228006 
L 168.049759 148.90768 
L 171.927399 149.67193 
L 175.805039 150.524435 
L 179.682679 151.468649 
L 183.560319 152.507779 
L 187.437959 153.644772 
L 191.315599 154.882297 
L 195.193239 156.222725 
L 199.070879 157.668116 
L 202.948519 159.220197 
L 206.826159 160.880347 
L 210.703799 162.64958 
L 214.581439 164.52853 
L 218.459079 166.517431 
L 222.336719 168.616103 
L 226.21436 170.823938 
L 230.092 173.139882 
L 233.96964 175.562424 
L 237.84728 178.089579 
L 241.72492 180.71888 
L 245.60256 183.447362 
L 249.4802 186.271554 
L 253.35784 189.187469 
L 257.23548 192.190594 
L 261.11312 195.275886 
L 264.99076 198.437762 
L 268.8684 201.670098 
L 272.74604 204.966226 
L 276.62368 208.318929 
L 280.50132 211.720448 
L 284.37896 215.162476 
L 288.2566 218.636169 
L 292.13424 222.132148 
L 296.01188 225.640508 
L 299.88952 229.150828 
L 303.76716 232.652183 
L 307.6448 236.133156 
L 311.52244 239.581857 
L 315.40008 242.985941 
L 319.27772 246.332627 
L 323.15536 249.608725 
L 327.033 252.800655 
L 330.91064 255.894483 
L 334.788281 258.875945 
L 338.665921 261.730483 
L 342.543561 264.443278 
L 346.421201 266.99929 
L 350.298841 269.383297 
L 354.176481 271.579935 
L 358.054121 273.573749 
L 361.931761 275.349231 
L 365.809401 276.890878 
L 369.687041 278.18324 
L 373.564681 279.210971 
L 377.442321 279.95889 
L 381.319961 280.412033 
L 385.197601 280.55572 
L 389.075241 280.37561 
L 392.952881 279.857764 
L 396.830521 278.988716 
L 400.708161 277.755531 
L 404.585801 276.145879 
L 408.463441 274.148098 
L 412.341081 271.751266 
L 416.218721 268.945269 
L 420.096361 265.720874 
L 423.974001 262.069798 
L 427.851641 257.984776 
L 431.729281 253.459637 
L 435.606921 248.489368 
L 439.484562 243.070191 
L 443.362202 237.199624 
L 447.239842 230.876552 
L 451.117482 224.101293 
L 454.995122 216.875663 
L 458.872762 209.203035 
L 462.750402 201.088403 
L 466.628042 192.538435 
L 470.505682 183.561533 
" style="fill:none;stroke:#0000ff;stroke-linecap:square;stroke-width:2;"/>
   </g>
   <g id="line2d_31">
    <path clip-path="url(#p2c2ab7650a)" d="M 86.619318 145.354039 
L 90.496958 145.3481 
L 94.374598 145.319333 
L 98.252238 145.28637 
L 102.129878 145.272474 
L 106.007518 145.294227 
L 109.885158 145.36747 
L 113.762798 145.507706 
L 117.640438 145.729873 
L 121.518079 146.048246 
L 125.395719 146.476345 
L 129.273359 147.026835 
L 133.150999 147.711423 
L 137.028639 148.540763 
L 140.906279 149.524354 
L 144.783919 150.670445 
L 148.661559 151.98594 
L 152.539199 153.476309 
L 156.416839 155.145501 
L 160.294479 156.995868 
L 164.172119 159.028092 
L 168.049759 161.24112 
L 171.927399 163.632109 
L 175.805039 166.196382 
L 179.682679 168.927392 
L 183.560319 171.816698 
L 187.437959 174.853959 
L 191.315599 178.026931 
L 195.193239 181.321487 
L 199.070879 184.721648 
L 202.948519 188.209627 
L 206.826159 191.765892 
L 210.703799 195.369242 
L 214.581439 198.996901 
L 218.459079 202.624629 
L 222.336719 206.226842 
L 226.21436 209.776759 
L 230.092 213.246555 
L 233.96964 216.607534 
L 237.84728 219.830317 
L 241.72492 222.885042 
L 245.60256 225.741576 
L 249.4802 228.369743 
L 253.35784 230.73956 
L 257.23548 232.821484 
L 261.11312 234.586668 
L 264.99076 236.007219 
L 268.8684 237.056471 
L 272.74604 237.70925 
L 276.62368 237.942149 
L 280.50132 237.733795 
L 284.37896 237.065125 
L 288.2566 235.91964 
L 292.13424 234.283668 
L 296.01188 232.146611 
L 299.88952 229.501175 
L 303.76716 226.343594 
L 307.6448 222.673837 
L 311.52244 218.495788 
L 315.40008 213.817412 
L 319.27772 208.650898 
L 323.15536 203.012768 
L 327.033 196.923969 
L 330.91064 190.409925 
L 334.788281 183.500564 
L 338.665921 176.230306 
L 342.543561 168.638024 
L 346.421201 160.766954 
L 350.298841 152.664585 
L 354.176481 144.382496 
L 358.054121 135.976159 
L 361.931761 127.504705 
L 365.809401 119.030644 
L 369.687041 110.619551 
L 373.564681 102.339709 
L 377.442321 94.261713 
L 381.319961 86.458044 
L 385.197601 79.002595 
L 389.075241 71.970175 
L 392.952881 65.435977 
L 396.830521 59.475012 
L 400.708161 54.161525 
L 404.585801 49.568383 
L 408.463441 45.766446 
L 412.341081 42.82392 
L 416.218721 40.805705 
L 420.096361 39.772727 
L 423.974001 39.781276 
L 427.851641 40.882345 
L 431.729281 43.120976 
L 435.606921 46.535622 
L 439.484562 51.157528 
L 443.362202 57.010136 
L 447.239842 64.108524 
L 451.117482 72.45888 
L 454.995122 82.058017 
L 458.872762 92.892944 
L 462.750402 104.940483 
L 466.628042 118.16695 
L 470.505682 132.527904 
" style="fill:none;stroke:#008000;stroke-linecap:square;stroke-width:2;"/>
   </g>
   <g id="line2d_32">
    <path clip-path="url(#p2c2ab7650a)" d="M 86.619318 145.354039 
L 90.496958 145.348471 
L 94.374598 145.328498 
L 98.252238 145.338662 
L 102.129878 145.434525 
L 106.007518 145.661887 
L 109.885158 146.061463 
L 113.762798 146.668949 
L 117.640438 147.51433 
L 121.518079 148.621414 
L 125.395719 150.007432 
L 129.273359 151.682736 
L 133.150999 153.650594 
L 137.028639 155.907093 
L 140.906279 158.441152 
L 144.783919 161.234662 
L 148.661559 164.262734 
L 152.539199 167.494079 
L 156.416839 170.891495 
L 160.294479 174.412473 
L 164.172119 178.009905 
L 168.049759 181.632893 
L 171.927399 185.227637 
L 175.805039 188.7384 
L 179.682679 192.108531 
L 183.560319 195.281526 
L 187.437959 198.20211 
L 191.315599 200.817335 
L 195.193239 203.077651 
L 199.070879 204.937949 
L 202.948519 206.358552 
L 206.826159 207.30613 
L 210.703799 207.754524 
L 214.581439 207.685467 
L 218.459079 207.08917 
L 222.336719 205.964781 
L 226.21436 204.320684 
L 230.092 202.174645 
L 233.96964 199.553785 
L 237.84728 196.494383 
L 241.72492 193.041506 
L 245.60256 189.248471 
L 249.4802 185.176129 
L 253.35784 180.892009 
L 257.23548 176.469293 
L 261.11312 171.98568 
L 264.99076 167.522112 
L 268.8684 163.161423 
L 272.74604 158.986898 
L 276.62368 155.080788 
L 280.50132 151.522802 
L 284.37896 148.388592 
L 288.2566 145.748274 
L 292.13424 143.665 
L 296.01188 142.193621 
L 299.88952 141.379449 
L 303.76716 141.257168 
L 307.6448 141.849896 
L 311.52244 143.168432 
L 315.40008 145.210703 
L 319.27772 147.961428 
L 323.15536 151.392014 
L 327.033 155.460679 
L 330.91064 160.112834 
L 334.788281 165.281692 
L 338.665921 170.889125 
L 342.543561 176.846749 
L 346.421201 183.057222 
L 350.298841 189.415752 
L 354.176481 195.811774 
L 358.054121 202.130783 
L 361.931761 208.256298 
L 365.809401 214.071911 
L 369.687041 219.4634 
L 373.564681 224.320861 
L 377.442321 228.540828 
L 381.319961 232.028333 
L 385.197601 234.698879 
L 389.075241 236.480276 
L 392.952881 237.314308 
L 396.830521 237.158202 
L 400.708161 235.985851 
L 404.585801 233.788779 
L 408.463441 230.576809 
L 412.341081 226.378425 
L 416.218721 221.240802 
L 420.096361 215.2295 
L 423.974001 208.427816 
L 427.851641 200.935796 
L 431.729281 192.868915 
L 435.606921 184.356439 
L 439.484562 175.539487 
L 443.362202 166.568826 
L 447.239842 157.60242 
L 451.117482 148.802786 
L 454.995122 140.33418 
L 458.872762 132.359676 
L 462.750402 125.03818 
L 466.628042 118.521427 
L 470.505682 112.951028 
" style="fill:none;stroke:#00bfbf;stroke-linecap:square;stroke-width:2;"/>
   </g>
   <g id="line2d_33">
    <path clip-path="url(#p2c2ab7650a)" d="M 86.619318 145.354039 
L 90.496958 145.349592 
L 94.374598 145.355637 
L 98.252238 145.488283 
L 102.129878 145.878281 
L 106.007518 146.618778 
L 109.885158 147.768088 
L 113.762798 149.352077 
L 117.640438 151.366425 
L 121.518079 153.779953 
L 125.395719 156.538734 
L 129.273359 159.570745 
L 133.150999 162.790862 
L 137.028639 166.105962 
L 140.906279 169.419935 
L 144.783919 172.63841 
L 148.661559 175.673027 
L 152.539199 178.445117 
L 156.416839 180.888684 
L 160.294479 182.952615 
L 164.172119 184.602101 
L 168.049759 185.819237 
L 171.927399 186.602876 
L 175.805039 186.967758 
L 179.682679 186.943033 
L 183.560319 186.570264 
L 187.437959 185.901038 
L 191.315599 184.99431 
L 195.193239 183.913612 
L 199.070879 182.724244 
L 202.948519 181.490578 
L 206.826159 180.273574 
L 210.703799 179.128587 
L 214.581439 178.103557 
L 218.459079 177.23761 
L 222.336719 176.560114 
L 226.21436 176.090198 
L 230.092 175.83671 
L 233.96964 175.798606 
L 237.84728 175.965704 
L 241.72492 176.319769 
L 245.60256 176.835843 
L 249.4802 177.48376 
L 253.35784 178.229772 
L 257.23548 179.0382 
L 261.11312 179.87306 
L 264.99076 180.699578 
L 268.8684 181.48556 
L 272.74604 182.202547 
L 276.62368 182.826752 
L 280.50132 183.339726 
L 284.37896 183.728765 
L 288.2566 183.987048 
L 292.13424 184.113525 
L 296.01188 184.112573 
L 299.88952 183.993453 
L 303.76716 183.769598 
L 307.6448 183.457788 
L 311.52244 183.077226 
L 315.40008 182.648596 
L 319.27772 182.193109 
L 323.15536 181.731602 
L 327.033 181.283705 
L 330.91064 180.867124 
L 334.788281 180.497043 
L 338.665921 180.185678 
L 342.543561 179.941973 
L 346.421201 179.771466 
L 350.298841 179.676287 
L 354.176481 179.655312 
L 358.054121 179.704429 
L 361.931761 179.816915 
L 365.809401 179.983887 
L 369.687041 180.194825 
L 373.564681 180.438108 
L 377.442321 180.701575 
L 381.319961 180.973058 
L 385.197601 181.240887 
L 389.075241 181.494336 
L 392.952881 181.723998 
L 396.830521 181.922084 
L 400.708161 182.082634 
L 404.585801 182.201636 
L 408.463441 182.277058 
L 412.341081 182.308797 
L 416.218721 182.298552 
L 420.096361 182.249632 
L 423.974001 182.166708 
L 427.851641 182.055529 
L 431.729281 181.922611 
L 435.606921 181.774919 
L 439.484562 181.619548 
L 443.362202 181.463423 
L 447.239842 181.313024 
L 451.117482 181.174155 
L 454.995122 181.051745 
L 458.872762 180.949711 
L 462.750402 180.870861 
L 466.628042 180.816859 
L 470.505682 180.788232 
" style="fill:none;stroke:#bf00bf;stroke-linecap:square;stroke-width:2;"/>
   </g>
   <g id="line2d_34">
    <path clip-path="url(#p2c2ab7650a)" d="M 86.619318 145.354039 
L 90.496958 145.352608 
L 94.374598 145.425676 
L 98.252238 145.838614 
L 102.129878 146.796771 
L 106.007518 148.340219 
L 109.885158 150.400538 
L 113.762798 152.853962 
L 117.640438 155.557228 
L 121.518079 158.371011 
L 125.395719 161.17373 
L 129.273359 163.868244 
L 133.150999 166.383636 
L 137.028639 168.673819 
L 140.906279 170.714321 
L 144.783919 172.498214 
L 148.661559 174.031879 
L 152.539199 175.33103 
L 156.416839 176.417265 
L 160.294479 177.315236 
L 164.172119 178.050465 
L 168.049759 178.647765 
L 171.927399 179.130181 
L 175.805039 179.518364 
L 179.682679 179.830285 
L 183.560319 180.081188 
L 187.437959 180.28372 
L 191.315599 180.448166 
L 195.193239 180.582743 
L 199.070879 180.693909 
L 202.948519 180.786667 
L 206.826159 180.86485 
L 210.703799 180.931364 
L 214.581439 180.988407 
L 218.459079 181.037635 
L 222.336719 181.080309 
L 226.21436 181.117397 
L 230.092 181.149662 
L 233.96964 181.177719 
L 237.84728 181.202077 
L 241.72492 181.223173 
L 245.60256 181.241389 
L 249.4802 181.257064 
L 253.35784 181.270506 
L 257.23548 181.28199 
L 261.11312 181.29177 
L 264.99076 181.300071 
L 268.8684 181.307096 
L 272.74604 181.313028 
L 276.62368 181.318027 
L 280.50132 181.322233 
L 284.37896 181.325768 
L 288.2566 181.328739 
L 292.13424 181.331234 
L 296.01188 181.333332 
L 299.88952 181.335096 
L 303.76716 181.336582 
L 307.6448 181.337835 
L 311.52244 181.338892 
L 315.40008 181.339786 
L 319.27772 181.340544 
L 323.15536 181.341186 
L 327.033 181.341731 
L 330.91064 181.342194 
L 334.788281 181.342588 
L 338.665921 181.342923 
L 342.543561 181.343208 
L 346.421201 181.343451 
L 350.298841 181.343658 
L 354.176481 181.343833 
L 358.054121 181.343983 
L 361.931761 181.34411 
L 365.809401 181.344218 
L 369.687041 181.34431 
L 373.564681 181.344388 
L 377.442321 181.344454 
L 381.319961 181.34451 
L 385.197601 181.344557 
L 389.075241 181.344598 
L 392.952881 181.344632 
L 396.830521 181.34466 
L 400.708161 181.344685 
L 404.585801 181.344706 
L 408.463441 181.344723 
L 412.341081 181.344738 
L 416.218721 181.34475 
L 420.096361 181.344761 
L 423.974001 181.34477 
L 427.851641 181.344778 
L 431.729281 181.344784 
L 435.606921 181.34479 
L 439.484562 181.344794 
L 443.362202 181.344798 
L 447.239842 181.344802 
L 451.117482 181.344804 
L 454.995122 181.344807 
L 458.872762 181.344809 
L 462.750402 181.344811 
L 466.628042 181.344812 
L 470.505682 181.344813 
" style="fill:none;stroke:#bfbf00;stroke-linecap:square;stroke-width:2;"/>
   </g>
   <g id="line2d_35">
    <path clip-path="url(#p2c2ab7650a)" d="M 86.619318 145.354039 
L 90.496958 145.358671 
L 94.374598 145.552198 
L 98.252238 146.337674 
L 102.129878 147.784564 
L 106.007518 149.712993 
L 109.885158 151.938281 
L 113.762798 154.32255 
L 117.640438 156.764245 
L 121.518079 159.187569 
L 125.395719 161.536753 
L 129.273359 163.772256 
L 133.150999 165.86762 
L 137.028639 167.806761 
L 140.906279 169.581674 
L 144.783919 171.190545 
L 148.661559 172.636182 
L 152.539199 173.924753 
L 156.416839 175.064754 
L 160.294479 176.066195 
L 164.172119 176.939959 
L 168.049759 177.697299 
L 171.927399 178.349463 
L 175.805039 178.907414 
L 179.682679 179.381628 
L 183.560319 179.781959 
L 187.437959 180.117555 
L 191.315599 180.396809 
L 195.193239 180.627348 
L 199.070879 180.81604 
L 202.948519 180.969018 
L 206.826159 181.091718 
L 210.703799 181.188923 
L 214.581439 181.264815 
L 218.459079 181.323022 
L 222.336719 181.366676 
L 226.21436 181.398459 
L 230.092 181.420656 
L 233.96964 181.435196 
L 237.84728 181.443704 
L 241.72492 181.44753 
L 245.60256 181.447793 
L 249.4802 181.445411 
L 253.35784 181.44113 
L 257.23548 181.435549 
L 261.11312 181.429145 
L 264.99076 181.422293 
L 268.8684 181.415279 
L 272.74604 181.408321 
L 276.62368 181.401579 
L 280.50132 181.395166 
L 284.37896 181.389156 
L 288.2566 181.383596 
L 292.13424 181.378508 
L 296.01188 181.373896 
L 299.88952 181.369754 
L 303.76716 181.366061 
L 307.6448 181.362796 
L 311.52244 181.359927 
L 315.40008 181.357425 
L 319.27772 181.355256 
L 323.15536 181.353388 
L 327.033 181.351791 
L 330.91064 181.350434 
L 334.788281 181.349288 
L 338.665921 181.348328 
L 342.543561 181.347529 
L 346.421201 181.346869 
L 350.298841 181.346329 
L 354.176481 181.345892 
L 358.054121 181.345541 
L 361.931761 181.345263 
L 365.809401 181.345047 
L 369.687041 181.34488 
L 373.564681 181.344756 
L 377.442321 181.344665 
L 381.319961 181.344602 
L 385.197601 181.34456 
L 389.075241 181.344536 
L 392.952881 181.344526 
L 396.830521 181.344525 
L 400.708161 181.344532 
L 404.585801 181.344544 
L 408.463441 181.34456 
L 412.341081 181.344579 
L 416.218721 181.344599 
L 420.096361 181.344619 
L 423.974001 181.344639 
L 427.851641 181.344658 
L 431.729281 181.344676 
L 435.606921 181.344694 
L 439.484562 181.34471 
L 443.362202 181.344724 
L 447.239842 181.344737 
L 451.117482 181.344749 
L 454.995122 181.34476 
L 458.872762 181.344769 
L 462.750402 181.344777 
L 466.628042 181.344785 
L 470.505682 181.344791 
" style="fill:none;stroke:#000000;stroke-linecap:square;stroke-width:2;"/>
   </g>
   <g id="patch_3">
    <path d="M 67.425 312.2 
L 67.425 26.8 
" style="fill:none;stroke:#000000;stroke-linecap:square;stroke-linejoin:miter;stroke-width:0.8;"/>
   </g>
   <g id="patch_4">
    <path d="M 489.7 312.2 
L 489.7 26.8 
" style="fill:none;stroke:#000000;stroke-linecap:square;stroke-linejoin:miter;stroke-width:0.8;"/>
   </g>
   <g id="patch_5">
    <path d="M 67.425 312.2 
L 489.7 312.2 
" style="fill:none;stroke:#000000;stroke-linecap:square;stroke-linejoin:miter;stroke-width:0.8;"/>
   </g>
   <g id="patch_6">
    <path d="M 67.425 26.8 
L 489.7 26.8 
" style="fill:none;stroke:#000000;stroke-linecap:square;stroke-linejoin:miter;stroke-width:0.8;"/>
   </g>
   <g id="text_17">
    <!-- step response I_D -->
    <defs>
     <path d="M 18.109375 8.203125 
L 18.109375 -20.796875 
L 9.078125 -20.796875 
L 9.078125 54.6875 
L 18.109375 54.6875 
L 18.109375 46.390625 
Q 20.953125 51.265625 25.265625 53.625 
Q 29.59375 56 35.59375 56 
Q 45.5625 56 51.78125 48.09375 
Q 58.015625 40.1875 58.015625 27.296875 
Q 58.015625 14.40625 51.78125 6.484375 
Q 45.5625 -1.421875 35.59375 -1.421875 
Q 29.59375 -1.421875 25.265625 0.953125 
Q 20.953125 3.328125 18.109375 8.203125 
z
M 48.6875 27.296875 
Q 48.6875 37.203125 44.609375 42.84375 
Q 40.53125 48.484375 33.40625 48.484375 
Q 26.265625 48.484375 22.1875 42.84375 
Q 18.109375 37.203125 18.109375 27.296875 
Q 18.109375 17.390625 22.1875 11.75 
Q 26.265625 6.109375 33.40625 6.109375 
Q 40.53125 6.109375 44.609375 11.75 
Q 48.6875 17.390625 48.6875 27.296875 
z
" id="DejaVuSans-70"/>
     <path d="M 41.109375 46.296875 
Q 39.59375 47.171875 37.8125 47.578125 
Q 36.03125 48 33.890625 48 
Q 26.265625 48 22.1875 43.046875 
Q 18.109375 38.09375 18.109375 28.8125 
L 18.109375 0 
L 9.078125 0 
L 9.078125 54.6875 
L 18.109375 54.6875 
L 18.109375 46.1875 
Q 20.953125 51.171875 25.484375 53.578125 
Q 30.03125 56 36.53125 56 
Q 37.453125 56 38.578125 55.875 
Q 39.703125 55.765625 41.0625 55.515625 
z
" id="DejaVuSans-72"/>
     <path d="M 30.609375 48.390625 
Q 23.390625 48.390625 19.1875 42.75 
Q 14.984375 37.109375 14.984375 27.296875 
Q 14.984375 17.484375 19.15625 11.84375 
Q 23.34375 6.203125 30.609375 6.203125 
Q 37.796875 6.203125 41.984375 11.859375 
Q 46.1875 17.53125 46.1875 27.296875 
Q 46.1875 37.015625 41.984375 42.703125 
Q 37.796875 48.390625 30.609375 48.390625 
z
M 30.609375 56 
Q 42.328125 56 49.015625 48.375 
Q 55.71875 40.765625 55.71875 27.296875 
Q 55.71875 13.875 49.015625 6.21875 
Q 42.328125 -1.421875 30.609375 -1.421875 
Q 18.84375 -1.421875 12.171875 6.21875 
Q 5.515625 13.875 5.515625 27.296875 
Q 5.515625 40.765625 12.171875 48.375 
Q 18.84375 56 30.609375 56 
z
" id="DejaVuSans-6f"/>
     <path d="M 54.890625 33.015625 
L 54.890625 0 
L 45.90625 0 
L 45.90625 32.71875 
Q 45.90625 40.484375 42.875 44.328125 
Q 39.84375 48.1875 33.796875 48.1875 
Q 26.515625 48.1875 22.3125 43.546875 
Q 18.109375 38.921875 18.109375 30.90625 
L 18.109375 0 
L 9.078125 0 
L 9.078125 54.6875 
L 18.109375 54.6875 
L 18.109375 46.1875 
Q 21.34375 51.125 25.703125 53.5625 
Q 30.078125 56 35.796875 56 
Q 45.21875 56 50.046875 50.171875 
Q 54.890625 44.34375 54.890625 33.015625 
z
" id="DejaVuSans-6e"/>
     <path d="M 9.8125 72.90625 
L 19.671875 72.90625 
L 19.671875 0 
L 9.8125 0 
z
" id="DejaVuSans-49"/>
     <path d="M 50.984375 -16.609375 
L 50.984375 -23.578125 
L -0.984375 -23.578125 
L -0.984375 -16.609375 
z
" id="DejaVuSans-5f"/>
     <path d="M 19.671875 64.796875 
L 19.671875 8.109375 
L 31.59375 8.109375 
Q 46.6875 8.109375 53.6875 14.9375 
Q 60.6875 21.78125 60.6875 36.53125 
Q 60.6875 51.171875 53.6875 57.984375 
Q 46.6875 64.796875 31.59375 64.796875 
z
M 9.8125 72.90625 
L 30.078125 72.90625 
Q 51.265625 72.90625 61.171875 64.09375 
Q 71.09375 55.28125 71.09375 36.53125 
Q 71.09375 17.671875 61.125 8.828125 
Q 51.171875 0 30.078125 0 
L 9.8125 0 
z
" id="DejaVuSans-44"/>
    </defs>
    <g transform="translate(224.9975 20.8)scale(0.12 -0.12)">
     <use xlink:href="#DejaVuSans-73"/>
     <use x="52.099609" xlink:href="#DejaVuSans-74"/>
     <use x="91.308594" xlink:href="#DejaVuSans-65"/>
     <use x="152.832031" xlink:href="#DejaVuSans-70"/>
     <use x="216.308594" xlink:href="#DejaVuSans-20"/>
     <use x="248.095703" xlink:href="#DejaVuSans-72"/>
     <use x="289.177734" xlink:href="#DejaVuSans-65"/>
     <use x="350.701172" xlink:href="#DejaVuSans-73"/>
     <use x="402.800781" xlink:href="#DejaVuSans-70"/>
     <use x="466.277344" xlink:href="#DejaVuSans-6f"/>
     <use x="527.458984" xlink:href="#DejaVuSans-6e"/>
     <use x="590.837891" xlink:href="#DejaVuSans-73"/>
     <use x="642.9375" xlink:href="#DejaVuSans-65"/>
     <use x="704.460938" xlink:href="#DejaVuSans-20"/>
     <use x="736.248047" xlink:href="#DejaVuSans-49"/>
     <use x="765.740234" xlink:href="#DejaVuSans-5f"/>
     <use x="815.740234" xlink:href="#DejaVuSans-44"/>
    </g>
   </g>
   <g id="legend_1">
    <g id="patch_7">
     <path d="M 74.425 119.4325 
L 206.306875 119.4325 
Q 208.306875 119.4325 208.306875 117.4325 
L 208.306875 33.8 
Q 208.306875 31.8 206.306875 31.8 
L 74.425 31.8 
Q 72.425 31.8 72.425 33.8 
L 72.425 117.4325 
Q 72.425 119.4325 74.425 119.4325 
z
" style="fill:#ffffff;opacity:0.8;stroke:#cccccc;stroke-linejoin:miter;"/>
    </g>
    <g id="line2d_36">
     <path d="M 74.425 39.418125 
L 84.425 39.418125 
" style="fill:none;stroke:#ff0000;stroke-linecap:square;stroke-width:2;"/>
    </g>
    <g id="line2d_37"/>
    <g id="text_18">
     <!-- gain, I_D =  1.0e-12 -->
     <defs>
      <path d="M 45.40625 27.984375 
Q 45.40625 37.75 41.375 43.109375 
Q 37.359375 48.484375 30.078125 48.484375 
Q 22.859375 48.484375 18.828125 43.109375 
Q 14.796875 37.75 14.796875 27.984375 
Q 14.796875 18.265625 18.828125 12.890625 
Q 22.859375 7.515625 30.078125 7.515625 
Q 37.359375 7.515625 41.375 12.890625 
Q 45.40625 18.265625 45.40625 27.984375 
z
M 54.390625 6.78125 
Q 54.390625 -7.171875 48.1875 -13.984375 
Q 42 -20.796875 29.203125 -20.796875 
Q 24.46875 -20.796875 20.265625 -20.09375 
Q 16.0625 -19.390625 12.109375 -17.921875 
L 12.109375 -9.1875 
Q 16.0625 -11.328125 19.921875 -12.34375 
Q 23.78125 -13.375 27.78125 -13.375 
Q 36.625 -13.375 41.015625 -8.765625 
Q 45.40625 -4.15625 45.40625 5.171875 
L 45.40625 9.625 
Q 42.625 4.78125 38.28125 2.390625 
Q 33.9375 0 27.875 0 
Q 17.828125 0 11.671875 7.65625 
Q 5.515625 15.328125 5.515625 27.984375 
Q 5.515625 40.671875 11.671875 48.328125 
Q 17.828125 56 27.875 56 
Q 33.9375 56 38.28125 53.609375 
Q 42.625 51.21875 45.40625 46.390625 
L 45.40625 54.6875 
L 54.390625 54.6875 
z
" id="DejaVuSans-67"/>
      <path d="M 34.28125 27.484375 
Q 23.390625 27.484375 19.1875 25 
Q 14.984375 22.515625 14.984375 16.5 
Q 14.984375 11.71875 18.140625 8.90625 
Q 21.296875 6.109375 26.703125 6.109375 
Q 34.1875 6.109375 38.703125 11.40625 
Q 43.21875 16.703125 43.21875 25.484375 
L 43.21875 27.484375 
z
M 52.203125 31.203125 
L 52.203125 0 
L 43.21875 0 
L 43.21875 8.296875 
Q 40.140625 3.328125 35.546875 0.953125 
Q 30.953125 -1.421875 24.3125 -1.421875 
Q 15.921875 -1.421875 10.953125 3.296875 
Q 6 8.015625 6 15.921875 
Q 6 25.140625 12.171875 29.828125 
Q 18.359375 34.515625 30.609375 34.515625 
L 43.21875 34.515625 
L 43.21875 35.40625 
Q 43.21875 41.609375 39.140625 45 
Q 35.0625 48.390625 27.6875 48.390625 
Q 23 48.390625 18.546875 47.265625 
Q 14.109375 46.140625 10.015625 43.890625 
L 10.015625 52.203125 
Q 14.9375 54.109375 19.578125 55.046875 
Q 24.21875 56 28.609375 56 
Q 40.484375 56 46.34375 49.84375 
Q 52.203125 43.703125 52.203125 31.203125 
z
" id="DejaVuSans-61"/>
      <path d="M 11.71875 12.40625 
L 22.015625 12.40625 
L 22.015625 4 
L 14.015625 -11.625 
L 7.71875 -11.625 
L 11.71875 4 
z
" id="DejaVuSans-2c"/>
      <path d="M 10.59375 45.40625 
L 73.1875 45.40625 
L 73.1875 37.203125 
L 10.59375 37.203125 
z
M 10.59375 25.484375 
L 73.1875 25.484375 
L 73.1875 17.1875 
L 10.59375 17.1875 
z
" id="DejaVuSans-3d"/>
      <path d="M 10.6875 12.40625 
L 21 12.40625 
L 21 0 
L 10.6875 0 
z
" id="DejaVuSans-2e"/>
      <path d="M 4.890625 31.390625 
L 31.203125 31.390625 
L 31.203125 23.390625 
L 4.890625 23.390625 
z
" id="DejaVuSans-2d"/>
     </defs>
     <g transform="translate(86.425 42.918125)scale(0.12 -0.12)">
      <use xlink:href="#DejaVuSans-67"/>
      <use x="63.476562" xlink:href="#DejaVuSans-61"/>
      <use x="124.755859" xlink:href="#DejaVuSans-69"/>
      <use x="152.539062" xlink:href="#DejaVuSans-6e"/>
      <use x="215.917969" xlink:href="#DejaVuSans-2c"/>
      <use x="247.705078" xlink:href="#DejaVuSans-20"/>
      <use x="279.492188" xlink:href="#DejaVuSans-49"/>
      <use x="308.984375" xlink:href="#DejaVuSans-5f"/>
      <use x="358.984375" xlink:href="#DejaVuSans-44"/>
      <use x="435.986328" xlink:href="#DejaVuSans-20"/>
      <use x="467.773438" xlink:href="#DejaVuSans-3d"/>
      <use x="551.5625" xlink:href="#DejaVuSans-20"/>
      <use x="583.349609" xlink:href="#DejaVuSans-20"/>
      <use x="615.136719" xlink:href="#DejaVuSans-31"/>
      <use x="678.759766" xlink:href="#DejaVuSans-2e"/>
      <use x="710.546875" xlink:href="#DejaVuSans-30"/>
      <use x="774.169922" xlink:href="#DejaVuSans-65"/>
      <use x="835.693359" xlink:href="#DejaVuSans-2d"/>
      <use x="871.777344" xlink:href="#DejaVuSans-31"/>
      <use x="935.400391" xlink:href="#DejaVuSans-32"/>
     </g>
    </g>
    <g id="line2d_38">
     <path d="M 74.425 51.365625 
L 84.425 51.365625 
" style="fill:none;stroke:#0000ff;stroke-linecap:square;stroke-width:2;"/>
    </g>
    <g id="line2d_39"/>
    <g id="text_19">
     <!-- gain, I_D =  1.0e-11 -->
     <g transform="translate(86.425 54.865625)scale(0.12 -0.12)">
      <use xlink:href="#DejaVuSans-67"/>
      <use x="63.476562" xlink:href="#DejaVuSans-61"/>
      <use x="124.755859" xlink:href="#DejaVuSans-69"/>
      <use x="152.539062" xlink:href="#DejaVuSans-6e"/>
      <use x="215.917969" xlink:href="#DejaVuSans-2c"/>
      <use x="247.705078" xlink:href="#DejaVuSans-20"/>
      <use x="279.492188" xlink:href="#DejaVuSans-49"/>
      <use x="308.984375" xlink:href="#DejaVuSans-5f"/>
      <use x="358.984375" xlink:href="#DejaVuSans-44"/>
      <use x="435.986328" xlink:href="#DejaVuSans-20"/>
      <use x="467.773438" xlink:href="#DejaVuSans-3d"/>
      <use x="551.5625" xlink:href="#DejaVuSans-20"/>
      <use x="583.349609" xlink:href="#DejaVuSans-20"/>
      <use x="615.136719" xlink:href="#DejaVuSans-31"/>
      <use x="678.759766" xlink:href="#DejaVuSans-2e"/>
      <use x="710.546875" xlink:href="#DejaVuSans-30"/>
      <use x="774.169922" xlink:href="#DejaVuSans-65"/>
      <use x="835.693359" xlink:href="#DejaVuSans-2d"/>
      <use x="871.777344" xlink:href="#DejaVuSans-31"/>
      <use x="935.400391" xlink:href="#DejaVuSans-31"/>
     </g>
    </g>
    <g id="line2d_40">
     <path d="M 74.425 63.313125 
L 84.425 63.313125 
" style="fill:none;stroke:#008000;stroke-linecap:square;stroke-width:2;"/>
    </g>
    <g id="line2d_41"/>
    <g id="text_20">
     <!-- gain, I_D =  1.0e-10 -->
     <g transform="translate(86.425 66.813125)scale(0.12 -0.12)">
      <use xlink:href="#DejaVuSans-67"/>
      <use x="63.476562" xlink:href="#DejaVuSans-61"/>
      <use x="124.755859" xlink:href="#DejaVuSans-69"/>
      <use x="152.539062" xlink:href="#DejaVuSans-6e"/>
      <use x="215.917969" xlink:href="#DejaVuSans-2c"/>
      <use x="247.705078" xlink:href="#DejaVuSans-20"/>
      <use x="279.492188" xlink:href="#DejaVuSans-49"/>
      <use x="308.984375" xlink:href="#DejaVuSans-5f"/>
      <use x="358.984375" xlink:href="#DejaVuSans-44"/>
      <use x="435.986328" xlink:href="#DejaVuSans-20"/>
      <use x="467.773438" xlink:href="#DejaVuSans-3d"/>
      <use x="551.5625" xlink:href="#DejaVuSans-20"/>
      <use x="583.349609" xlink:href="#DejaVuSans-20"/>
      <use x="615.136719" xlink:href="#DejaVuSans-31"/>
      <use x="678.759766" xlink:href="#DejaVuSans-2e"/>
      <use x="710.546875" xlink:href="#DejaVuSans-30"/>
      <use x="774.169922" xlink:href="#DejaVuSans-65"/>
      <use x="835.693359" xlink:href="#DejaVuSans-2d"/>
      <use x="871.777344" xlink:href="#DejaVuSans-31"/>
      <use x="935.400391" xlink:href="#DejaVuSans-30"/>
     </g>
    </g>
    <g id="line2d_42">
     <path d="M 74.425 75.260625 
L 84.425 75.260625 
" style="fill:none;stroke:#00bfbf;stroke-linecap:square;stroke-width:2;"/>
    </g>
    <g id="line2d_43"/>
    <g id="text_21">
     <!-- gain, I_D =  1.0e-09 -->
     <defs>
      <path d="M 10.984375 1.515625 
L 10.984375 10.5 
Q 14.703125 8.734375 18.5 7.8125 
Q 22.3125 6.890625 25.984375 6.890625 
Q 35.75 6.890625 40.890625 13.453125 
Q 46.046875 20.015625 46.78125 33.40625 
Q 43.953125 29.203125 39.59375 26.953125 
Q 35.25 24.703125 29.984375 24.703125 
Q 19.046875 24.703125 12.671875 31.3125 
Q 6.296875 37.9375 6.296875 49.421875 
Q 6.296875 60.640625 12.9375 67.421875 
Q 19.578125 74.21875 30.609375 74.21875 
Q 43.265625 74.21875 49.921875 64.515625 
Q 56.59375 54.828125 56.59375 36.375 
Q 56.59375 19.140625 48.40625 8.859375 
Q 40.234375 -1.421875 26.421875 -1.421875 
Q 22.703125 -1.421875 18.890625 -0.6875 
Q 15.09375 0.046875 10.984375 1.515625 
z
M 30.609375 32.421875 
Q 37.25 32.421875 41.125 36.953125 
Q 45.015625 41.5 45.015625 49.421875 
Q 45.015625 57.28125 41.125 61.84375 
Q 37.25 66.40625 30.609375 66.40625 
Q 23.96875 66.40625 20.09375 61.84375 
Q 16.21875 57.28125 16.21875 49.421875 
Q 16.21875 41.5 20.09375 36.953125 
Q 23.96875 32.421875 30.609375 32.421875 
z
" id="DejaVuSans-39"/>
     </defs>
     <g transform="translate(86.425 78.760625)scale(0.12 -0.12)">
      <use xlink:href="#DejaVuSans-67"/>
      <use x="63.476562" xlink:href="#DejaVuSans-61"/>
      <use x="124.755859" xlink:href="#DejaVuSans-69"/>
      <use x="152.539062" xlink:href="#DejaVuSans-6e"/>
      <use x="215.917969" xlink:href="#DejaVuSans-2c"/>
      <use x="247.705078" xlink:href="#DejaVuSans-20"/>
      <use x="279.492188" xlink:href="#DejaVuSans-49"/>
      <use x="308.984375" xlink:href="#DejaVuSans-5f"/>
      <use x="358.984375" xlink:href="#DejaVuSans-44"/>
      <use x="435.986328" xlink:href="#DejaVuSans-20"/>
      <use x="467.773438" xlink:href="#DejaVuSans-3d"/>
      <use x="551.5625" xlink:href="#DejaVuSans-20"/>
      <use x="583.349609" xlink:href="#DejaVuSans-20"/>
      <use x="615.136719" xlink:href="#DejaVuSans-31"/>
      <use x="678.759766" xlink:href="#DejaVuSans-2e"/>
      <use x="710.546875" xlink:href="#DejaVuSans-30"/>
      <use x="774.169922" xlink:href="#DejaVuSans-65"/>
      <use x="835.693359" xlink:href="#DejaVuSans-2d"/>
      <use x="871.777344" xlink:href="#DejaVuSans-30"/>
      <use x="935.400391" xlink:href="#DejaVuSans-39"/>
     </g>
    </g>
    <g id="line2d_44">
     <path d="M 74.425 87.208125 
L 84.425 87.208125 
" style="fill:none;stroke:#bf00bf;stroke-linecap:square;stroke-width:2;"/>
    </g>
    <g id="line2d_45"/>
    <g id="text_22">
     <!-- gain, I_D =  1.0e-08 -->
     <defs>
      <path d="M 31.78125 34.625 
Q 24.75 34.625 20.71875 30.859375 
Q 16.703125 27.09375 16.703125 20.515625 
Q 16.703125 13.921875 20.71875 10.15625 
Q 24.75 6.390625 31.78125 6.390625 
Q 38.8125 6.390625 42.859375 10.171875 
Q 46.921875 13.96875 46.921875 20.515625 
Q 46.921875 27.09375 42.890625 30.859375 
Q 38.875 34.625 31.78125 34.625 
z
M 21.921875 38.8125 
Q 15.578125 40.375 12.03125 44.71875 
Q 8.5 49.078125 8.5 55.328125 
Q 8.5 64.0625 14.71875 69.140625 
Q 20.953125 74.21875 31.78125 74.21875 
Q 42.671875 74.21875 48.875 69.140625 
Q 55.078125 64.0625 55.078125 55.328125 
Q 55.078125 49.078125 51.53125 44.71875 
Q 48 40.375 41.703125 38.8125 
Q 48.828125 37.15625 52.796875 32.3125 
Q 56.78125 27.484375 56.78125 20.515625 
Q 56.78125 9.90625 50.3125 4.234375 
Q 43.84375 -1.421875 31.78125 -1.421875 
Q 19.734375 -1.421875 13.25 4.234375 
Q 6.78125 9.90625 6.78125 20.515625 
Q 6.78125 27.484375 10.78125 32.3125 
Q 14.796875 37.15625 21.921875 38.8125 
z
M 18.3125 54.390625 
Q 18.3125 48.734375 21.84375 45.5625 
Q 25.390625 42.390625 31.78125 42.390625 
Q 38.140625 42.390625 41.71875 45.5625 
Q 45.3125 48.734375 45.3125 54.390625 
Q 45.3125 60.0625 41.71875 63.234375 
Q 38.140625 66.40625 31.78125 66.40625 
Q 25.390625 66.40625 21.84375 63.234375 
Q 18.3125 60.0625 18.3125 54.390625 
z
" id="DejaVuSans-38"/>
     </defs>
     <g transform="translate(86.425 90.708125)scale(0.12 -0.12)">
      <use xlink:href="#DejaVuSans-67"/>
      <use x="63.476562" xlink:href="#DejaVuSans-61"/>
      <use x="124.755859" xlink:href="#DejaVuSans-69"/>
      <use x="152.539062" xlink:href="#DejaVuSans-6e"/>
      <use x="215.917969" xlink:href="#DejaVuSans-2c"/>
      <use x="247.705078" xlink:href="#DejaVuSans-20"/>
      <use x="279.492188" xlink:href="#DejaVuSans-49"/>
      <use x="308.984375" xlink:href="#DejaVuSans-5f"/>
      <use x="358.984375" xlink:href="#DejaVuSans-44"/>
      <use x="435.986328" xlink:href="#DejaVuSans-20"/>
      <use x="467.773438" xlink:href="#DejaVuSans-3d"/>
      <use x="551.5625" xlink:href="#DejaVuSans-20"/>
      <use x="583.349609" xlink:href="#DejaVuSans-20"/>
      <use x="615.136719" xlink:href="#DejaVuSans-31"/>
      <use x="678.759766" xlink:href="#DejaVuSans-2e"/>
      <use x="710.546875" xlink:href="#DejaVuSans-30"/>
      <use x="774.169922" xlink:href="#DejaVuSans-65"/>
      <use x="835.693359" xlink:href="#DejaVuSans-2d"/>
      <use x="871.777344" xlink:href="#DejaVuSans-30"/>
      <use x="935.400391" xlink:href="#DejaVuSans-38"/>
     </g>
    </g>
    <g id="line2d_46">
     <path d="M 74.425 99.155625 
L 84.425 99.155625 
" style="fill:none;stroke:#bfbf00;stroke-linecap:square;stroke-width:2;"/>
    </g>
    <g id="line2d_47"/>
    <g id="text_23">
     <!-- gain, I_D =  1.0e-07 -->
     <g transform="translate(86.425 102.655625)scale(0.12 -0.12)">
      <use xlink:href="#DejaVuSans-67"/>
      <use x="63.476562" xlink:href="#DejaVuSans-61"/>
      <use x="124.755859" xlink:href="#DejaVuSans-69"/>
      <use x="152.539062" xlink:href="#DejaVuSans-6e"/>
      <use x="215.917969" xlink:href="#DejaVuSans-2c"/>
      <use x="247.705078" xlink:href="#DejaVuSans-20"/>
      <use x="279.492188" xlink:href="#DejaVuSans-49"/>
      <use x="308.984375" xlink:href="#DejaVuSans-5f"/>
      <use x="358.984375" xlink:href="#DejaVuSans-44"/>
      <use x="435.986328" xlink:href="#DejaVuSans-20"/>
      <use x="467.773438" xlink:href="#DejaVuSans-3d"/>
      <use x="551.5625" xlink:href="#DejaVuSans-20"/>
      <use x="583.349609" xlink:href="#DejaVuSans-20"/>
      <use x="615.136719" xlink:href="#DejaVuSans-31"/>
      <use x="678.759766" xlink:href="#DejaVuSans-2e"/>
      <use x="710.546875" xlink:href="#DejaVuSans-30"/>
      <use x="774.169922" xlink:href="#DejaVuSans-65"/>
      <use x="835.693359" xlink:href="#DejaVuSans-2d"/>
      <use x="871.777344" xlink:href="#DejaVuSans-30"/>
      <use x="935.400391" xlink:href="#DejaVuSans-37"/>
     </g>
    </g>
    <g id="line2d_48">
     <path d="M 74.425 111.103125 
L 84.425 111.103125 
" style="fill:none;stroke:#000000;stroke-linecap:square;stroke-width:2;"/>
    </g>
    <g id="line2d_49"/>
    <g id="text_24">
     <!-- gain, I_D =  1.0e-06 -->
     <defs>
      <path d="M 33.015625 40.375 
Q 26.375 40.375 22.484375 35.828125 
Q 18.609375 31.296875 18.609375 23.390625 
Q 18.609375 15.53125 22.484375 10.953125 
Q 26.375 6.390625 33.015625 6.390625 
Q 39.65625 6.390625 43.53125 10.953125 
Q 47.40625 15.53125 47.40625 23.390625 
Q 47.40625 31.296875 43.53125 35.828125 
Q 39.65625 40.375 33.015625 40.375 
z
M 52.59375 71.296875 
L 52.59375 62.3125 
Q 48.875 64.0625 45.09375 64.984375 
Q 41.3125 65.921875 37.59375 65.921875 
Q 27.828125 65.921875 22.671875 59.328125 
Q 17.53125 52.734375 16.796875 39.40625 
Q 19.671875 43.65625 24.015625 45.921875 
Q 28.375 48.1875 33.59375 48.1875 
Q 44.578125 48.1875 50.953125 41.515625 
Q 57.328125 34.859375 57.328125 23.390625 
Q 57.328125 12.15625 50.6875 5.359375 
Q 44.046875 -1.421875 33.015625 -1.421875 
Q 20.359375 -1.421875 13.671875 8.265625 
Q 6.984375 17.96875 6.984375 36.375 
Q 6.984375 53.65625 15.1875 63.9375 
Q 23.390625 74.21875 37.203125 74.21875 
Q 40.921875 74.21875 44.703125 73.484375 
Q 48.484375 72.75 52.59375 71.296875 
z
" id="DejaVuSans-36"/>
     </defs>
     <g transform="translate(86.425 114.603125)scale(0.12 -0.12)">
      <use xlink:href="#DejaVuSans-67"/>
      <use x="63.476562" xlink:href="#DejaVuSans-61"/>
      <use x="124.755859" xlink:href="#DejaVuSans-69"/>
      <use x="152.539062" xlink:href="#DejaVuSans-6e"/>
      <use x="215.917969" xlink:href="#DejaVuSans-2c"/>
      <use x="247.705078" xlink:href="#DejaVuSans-20"/>
      <use x="279.492188" xlink:href="#DejaVuSans-49"/>
      <use x="308.984375" xlink:href="#DejaVuSans-5f"/>
      <use x="358.984375" xlink:href="#DejaVuSans-44"/>
      <use x="435.986328" xlink:href="#DejaVuSans-20"/>
      <use x="467.773438" xlink:href="#DejaVuSans-3d"/>
      <use x="551.5625" xlink:href="#DejaVuSans-20"/>
      <use x="583.349609" xlink:href="#DejaVuSans-20"/>
      <use x="615.136719" xlink:href="#DejaVuSans-31"/>
      <use x="678.759766" xlink:href="#DejaVuSans-2e"/>
      <use x="710.546875" xlink:href="#DejaVuSans-30"/>
      <use x="774.169922" xlink:href="#DejaVuSans-65"/>
      <use x="835.693359" xlink:href="#DejaVuSans-2d"/>
      <use x="871.777344" xlink:href="#DejaVuSans-30"/>
      <use x="935.400391" xlink:href="#DejaVuSans-36"/>
     </g>
    </g>
   </g>
  </g>
 </g>
 <defs>
  <clipPath id="p2c2ab7650a">
   <rect height="285.4" width="422.275" x="67.425" y="26.8"/>
  </clipPath>
 </defs>
</svg>
