<?xml version="1.0" standalone="no"?>
 <!DOCTYPE svg PUBLIC "-//W3C//DTD SVG 1.1//EN" 
 "http://www.w3.org/Graphics/SVG/1.1/DTD/svg11.dtd"> 
<svg
  xmlns:svg="http://www.w3.org/2000/svg"
  xmlns="http://www.w3.org/2000/svg"
  xmlns:xlink="http://www.w3.org/1999/xlink"
  version="1.1"
  width="297.0022mm" height="210.0072mm" viewBox="0.0000 0.0000 297.0022 210.0072">
<title>SVG Image created as myFirstRCnetwork.svg date 2024/02/11 23:04:20 </title>
  <desc>Image generated by Eeschema-SVG </desc>
<g style="fill:#000000; fill-opacity:1.0000;stroke:#000000; stroke-opacity:1.0000;
stroke-linecap:round; stroke-linejoin:round;"
 transform="translate(0 0) scale(1 1)">
</g>
<g style="fill:#F5F4EF; fill-opacity:0.0; 
stroke:#F5F4EF; stroke-width:0.0000; stroke-opacity:1; 
stroke-linecap:round; stroke-linejoin:round;">
</g>
<g style="fill:#F5F4EF; fill-opacity:1.0000; 
stroke:#F5F4EF; stroke-width:0.0001; stroke-opacity:1; 
stroke-linecap:round; stroke-linejoin:round;">
<rect x="0.000000" y="0.000000" width="297.002200" height="210.007200" rx="0.000000" />
</g>
<g style="fill:#F5F4EF; fill-opacity:1.0000; 
stroke:#F5F4EF; stroke-width:0.1524; stroke-opacity:1; 
stroke-linecap:round; stroke-linejoin:round;">
</g>
<g style="fill:#F5F4EF; fill-opacity:1.0000; 
stroke:#F5F4EF; stroke-width:0.1588; stroke-opacity:1; 
stroke-linecap:round; stroke-linejoin:round;">
</g>
<g style="fill:#F5F4EF; fill-opacity:1.0000; 
stroke:#F5F4EF; stroke-width:0.1524; stroke-opacity:1; 
stroke-linecap:round; stroke-linejoin:round;">
<g >
</g>
<g style="fill:#840000; fill-opacity:1.0000; 
stroke:#840000; stroke-width:0.1524; stroke-opacity:1; 
stroke-linecap:round; stroke-linejoin:round;">
</g>
<g style="fill:#840000; fill-opacity:0.0; 
stroke:#840000; stroke-width:0.3810; stroke-opacity:1; 
stroke-linecap:round; stroke-linejoin:round;">
<path style="fill:#840000; fill-opacity:0.0; 
stroke:#840000; stroke-width:0.3810; stroke-opacity:1; 
stroke-linecap:round; stroke-linejoin:round;fill:none"
d="M 92.4560,60.1980
95.5040,60.1980
" /> 
<path style="fill:#840000; fill-opacity:0.0; 
stroke:#840000; stroke-width:0.3810; stroke-opacity:1; 
stroke-linecap:round; stroke-linejoin:round;fill:none"
d="M 92.4560,59.1820
95.5040,59.1820
" /> 
</g>
<g style="fill:#840000; fill-opacity:0.0; 
stroke:#840000; stroke-width:0.1524; stroke-opacity:1; 
stroke-linecap:round; stroke-linejoin:round;">
<path style="fill:#840000; fill-opacity:0.0; 
stroke:#840000; stroke-width:0.1524; stroke-opacity:1; 
stroke-linecap:round; stroke-linejoin:round;fill:none"
d="M 93.9800,62.2300
93.9800,60.1980
" /> 
<path style="fill:#840000; fill-opacity:0.0; 
stroke:#840000; stroke-width:0.1524; stroke-opacity:1; 
stroke-linecap:round; stroke-linejoin:round;fill:none"
d="M 93.9800,57.1500
93.9800,59.1820
" /> 
</g>
<g style="fill:#840000; fill-opacity:0.0; 
stroke:#840000; stroke-width:0.1588; stroke-opacity:1; 
stroke-linecap:round; stroke-linejoin:round;">
<text x="93.2180" y="58.6740"
textLength="1.7948" font-size="1.6933" lengthAdjust="spacingAndGlyphs"
text-anchor="middle" opacity="0">+</text>
<g class="stroked-text"><desc>+</desc>
<path d="M92.7341 58.1344
L93.7018 58.1344
" />
<path d="M93.2179 58.6182
L93.2179 57.6506
" />
</g></g>
<g style="fill:#840000; fill-opacity:0.0; 
stroke:#840000; stroke-width:0.1524; stroke-opacity:1; 
stroke-linecap:round; stroke-linejoin:round;">
<path d="M93.9800 62.2300
L93.9800 64.7700
" />
<path d="M93.9800 57.1500
L93.9800 54.6100
" />
</g>
<g style="fill:#006464; fill-opacity:0.0; 
stroke:#006464; stroke-width:0.1524; stroke-opacity:1; 
stroke-linecap:round; stroke-linejoin:round;">
<text x="97.8709" y="57.7187"
textLength="2.6827" font-size="1.6933" lengthAdjust="spacingAndGlyphs"
text-anchor="middle" opacity="0">C1</text>
<g class="stroked-text"><desc>C1</desc>
<path d="M97.6592 57.5423
L97.5988 57.6028
" />
<path d="M97.5988 57.6028
L97.4173 57.6632
" />
<path d="M97.4173 57.6632
L97.2964 57.6632
" />
<path d="M97.2964 57.6632
L97.1150 57.6028
" />
<path d="M97.1150 57.6028
L96.9940 57.4818
" />
<path d="M96.9940 57.4818
L96.9335 57.3608
" />
<path d="M96.9335 57.3608
L96.8731 57.1189
" />
<path d="M96.8731 57.1189
L96.8731 56.9375
" />
<path d="M96.8731 56.9375
L96.9335 56.6956
" />
<path d="M96.9335 56.6956
L96.9940 56.5747
" />
<path d="M96.9940 56.5747
L97.1150 56.4537
" />
<path d="M97.1150 56.4537
L97.2964 56.3932
" />
<path d="M97.2964 56.3932
L97.4173 56.3932
" />
<path d="M97.4173 56.3932
L97.5988 56.4537
" />
<path d="M97.5988 56.4537
L97.6592 56.5142
" />
<path d="M98.8688 57.6632
L98.1431 57.6632
" />
<path d="M98.5059 57.6632
L98.5059 56.3932
" />
<path d="M98.5059 56.3932
L98.3850 56.5747
" />
<path d="M98.3850 56.5747
L98.2640 56.6956
" />
<path d="M98.2640 56.6956
L98.1431 56.7561
" />
</g><text x="101.4693" y="60.2587"
textLength="9.8794" font-size="1.6933" lengthAdjust="spacingAndGlyphs"
text-anchor="middle" opacity="0">Value: {C}</text>
<g class="stroked-text"><desc>Value: {C}</desc>
<path d="M96.7521 58.9332
L97.1754 60.2032
" />
<path d="M97.1754 60.2032
L97.5988 58.9332
" />
<path d="M98.5664 60.2032
L98.5664 59.5380
" />
<path d="M98.5664 59.5380
L98.5059 59.4170
" />
<path d="M98.5059 59.4170
L98.3850 59.3566
" />
<path d="M98.3850 59.3566
L98.1431 59.3566
" />
<path d="M98.1431 59.3566
L98.0221 59.4170
" />
<path d="M98.5664 60.1428
L98.4455 60.2032
" />
<path d="M98.4455 60.2032
L98.1431 60.2032
" />
<path d="M98.1431 60.2032
L98.0221 60.1428
" />
<path d="M98.0221 60.1428
L97.9617 60.0218
" />
<path d="M97.9617 60.0218
L97.9617 59.9008
" />
<path d="M97.9617 59.9008
L98.0221 59.7799
" />
<path d="M98.0221 59.7799
L98.1431 59.7194
" />
<path d="M98.1431 59.7194
L98.4455 59.7194
" />
<path d="M98.4455 59.7194
L98.5664 59.6589
" />
<path d="M99.3526 60.2032
L99.2316 60.1428
" />
<path d="M99.2316 60.1428
L99.1711 60.0218
" />
<path d="M99.1711 60.0218
L99.1711 58.9332
" />
<path d="M100.3806 59.3566
L100.3806 60.2032
" />
<path d="M99.8363 59.3566
L99.8363 60.0218
" />
<path d="M99.8363 60.0218
L99.8968 60.1428
" />
<path d="M99.8968 60.1428
L100.0178 60.2032
" />
<path d="M100.0178 60.2032
L100.1992 60.2032
" />
<path d="M100.1992 60.2032
L100.3201 60.1428
" />
<path d="M100.3201 60.1428
L100.3806 60.0823
" />
<path d="M101.4691 60.1428
L101.3482 60.2032
" />
<path d="M101.3482 60.2032
L101.1063 60.2032
" />
<path d="M101.1063 60.2032
L100.9853 60.1428
" />
<path d="M100.9853 60.1428
L100.9249 60.0218
" />
<path d="M100.9249 60.0218
L100.9249 59.5380
" />
<path d="M100.9249 59.5380
L100.9853 59.4170
" />
<path d="M100.9853 59.4170
L101.1063 59.3566
" />
<path d="M101.1063 59.3566
L101.3482 59.3566
" />
<path d="M101.3482 59.3566
L101.4691 59.4170
" />
<path d="M101.4691 59.4170
L101.5296 59.5380
" />
<path d="M101.5296 59.5380
L101.5296 59.6589
" />
<path d="M101.5296 59.6589
L100.9249 59.7799
" />
<path d="M102.0739 60.0823
L102.1344 60.1428
" />
<path d="M102.1344 60.1428
L102.0739 60.2032
" />
<path d="M102.0739 60.2032
L102.0135 60.1428
" />
<path d="M102.0135 60.1428
L102.0739 60.0823
" />
<path d="M102.0739 60.0823
L102.0739 60.2032
" />
<path d="M102.0739 59.4170
L102.1344 59.4775
" />
<path d="M102.1344 59.4775
L102.0739 59.5380
" />
<path d="M102.0739 59.5380
L102.0135 59.4775
" />
<path d="M102.0135 59.4775
L102.0739 59.4170
" />
<path d="M102.0739 59.4170
L102.0739 59.5380
" />
<path d="M104.0092 60.6870
L103.9487 60.6870
" />
<path d="M103.9487 60.6870
L103.8278 60.6266
" />
<path d="M103.8278 60.6266
L103.7673 60.5056
" />
<path d="M103.7673 60.5056
L103.7673 59.9008
" />
<path d="M103.7673 59.9008
L103.7068 59.7799
" />
<path d="M103.7068 59.7799
L103.5859 59.7194
" />
<path d="M103.5859 59.7194
L103.7068 59.6589
" />
<path d="M103.7068 59.6589
L103.7673 59.5380
" />
<path d="M103.7673 59.5380
L103.7673 58.9332
" />
<path d="M103.7673 58.9332
L103.8278 58.8123
" />
<path d="M103.8278 58.8123
L103.9487 58.7518
" />
<path d="M103.9487 58.7518
L104.0092 58.7518
" />
<path d="M105.2187 60.0823
L105.1583 60.1428
" />
<path d="M105.1583 60.1428
L104.9768 60.2032
" />
<path d="M104.9768 60.2032
L104.8559 60.2032
" />
<path d="M104.8559 60.2032
L104.6745 60.1428
" />
<path d="M104.6745 60.1428
L104.5535 60.0218
" />
<path d="M104.5535 60.0218
L104.4930 59.9008
" />
<path d="M104.4930 59.9008
L104.4326 59.6589
" />
<path d="M104.4326 59.6589
L104.4326 59.4775
" />
<path d="M104.4326 59.4775
L104.4930 59.2356
" />
<path d="M104.4930 59.2356
L104.5535 59.1147
" />
<path d="M104.5535 59.1147
L104.6745 58.9937
" />
<path d="M104.6745 58.9937
L104.8559 58.9332
" />
<path d="M104.8559 58.9332
L104.9768 58.9332
" />
<path d="M104.9768 58.9332
L105.1583 58.9937
" />
<path d="M105.1583 58.9937
L105.2187 59.0542
" />
<path d="M105.6421 60.6870
L105.7026 60.6870
" />
<path d="M105.7026 60.6870
L105.8235 60.6266
" />
<path d="M105.8235 60.6266
L105.8840 60.5056
" />
<path d="M105.8840 60.5056
L105.8840 59.9008
" />
<path d="M105.8840 59.9008
L105.9445 59.7799
" />
<path d="M105.9445 59.7799
L106.0654 59.7194
" />
<path d="M106.0654 59.7194
L105.9445 59.6589
" />
<path d="M105.9445 59.6589
L105.8840 59.5380
" />
<path d="M105.8840 59.5380
L105.8840 58.9332
" />
<path d="M105.8840 58.9332
L105.8235 58.8123
" />
<path d="M105.8235 58.8123
L105.7026 58.7518
" />
<path d="M105.7026 58.7518
L105.6421 58.7518
" />
</g></g>
<g style="fill:#840084; fill-opacity:0.0; 
stroke:#840084; stroke-width:0.1524; stroke-opacity:1; 
stroke-linecap:round; stroke-linejoin:round;">
<text x="100.0481" y="62.7987"
textLength="7.0370" font-size="1.6933" lengthAdjust="spacingAndGlyphs"
text-anchor="middle" opacity="0">vinit: 0</text>
<g class="stroked-text"><desc>vinit: 0</desc>
<path d="M96.8126 61.8966
L97.1150 62.7432
" />
<path d="M97.1150 62.7432
L97.4173 61.8966
" />
<path d="M97.9011 62.7432
L97.9011 61.8966
" />
<path d="M97.9011 61.4732
L97.8407 61.5337
" />
<path d="M97.8407 61.5337
L97.9011 61.5942
" />
<path d="M97.9011 61.5942
L97.9616 61.5337
" />
<path d="M97.9616 61.5337
L97.9011 61.4732
" />
<path d="M97.9011 61.4732
L97.9011 61.5942
" />
<path d="M98.5059 61.8966
L98.5059 62.7432
" />
<path d="M98.5059 62.0175
L98.5664 61.9570
" />
<path d="M98.5664 61.9570
L98.6874 61.8966
" />
<path d="M98.6874 61.8966
L98.8688 61.8966
" />
<path d="M98.8688 61.8966
L98.9897 61.9570
" />
<path d="M98.9897 61.9570
L99.0502 62.0780
" />
<path d="M99.0502 62.0780
L99.0502 62.7432
" />
<path d="M99.6549 62.7432
L99.6549 61.8966
" />
<path d="M99.6549 61.4732
L99.5945 61.5337
" />
<path d="M99.5945 61.5337
L99.6549 61.5942
" />
<path d="M99.6549 61.5942
L99.7154 61.5337
" />
<path d="M99.7154 61.5337
L99.6549 61.4732
" />
<path d="M99.6549 61.4732
L99.6549 61.5942
" />
<path d="M100.0783 61.8966
L100.5621 61.8966
" />
<path d="M100.2597 61.4732
L100.2597 62.5618
" />
<path d="M100.2597 62.5618
L100.3202 62.6828
" />
<path d="M100.3202 62.6828
L100.4412 62.7432
" />
<path d="M100.4412 62.7432
L100.5621 62.7432
" />
<path d="M100.9854 62.6223
L101.0459 62.6828
" />
<path d="M101.0459 62.6828
L100.9854 62.7432
" />
<path d="M100.9854 62.7432
L100.9250 62.6828
" />
<path d="M100.9250 62.6828
L100.9854 62.6223
" />
<path d="M100.9854 62.6223
L100.9854 62.7432
" />
<path d="M100.9854 61.9570
L101.0459 62.0175
" />
<path d="M101.0459 62.0175
L100.9854 62.0780
" />
<path d="M100.9854 62.0780
L100.9250 62.0175
" />
<path d="M100.9250 62.0175
L100.9854 61.9570
" />
<path d="M100.9854 61.9570
L100.9854 62.0780
" />
<path d="M102.7997 61.4732
L102.9207 61.4732
" />
<path d="M102.9207 61.4732
L103.0416 61.5337
" />
<path d="M103.0416 61.5337
L103.1021 61.5942
" />
<path d="M103.1021 61.5942
L103.1626 61.7151
" />
<path d="M103.1626 61.7151
L103.2231 61.9570
" />
<path d="M103.2231 61.9570
L103.2231 62.2594
" />
<path d="M103.2231 62.2594
L103.1626 62.5013
" />
<path d="M103.1626 62.5013
L103.1021 62.6223
" />
<path d="M103.1021 62.6223
L103.0416 62.6828
" />
<path d="M103.0416 62.6828
L102.9207 62.7432
" />
<path d="M102.9207 62.7432
L102.7997 62.7432
" />
<path d="M102.7997 62.7432
L102.6788 62.6828
" />
<path d="M102.6788 62.6828
L102.6183 62.6223
" />
<path d="M102.6183 62.6223
L102.5578 62.5013
" />
<path d="M102.5578 62.5013
L102.4974 62.2594
" />
<path d="M102.4974 62.2594
L102.4974 61.9570
" />
<path d="M102.4974 61.9570
L102.5578 61.7151
" />
<path d="M102.5578 61.7151
L102.6183 61.5942
" />
<path d="M102.6183 61.5942
L102.6788 61.5337
" />
<path d="M102.6788 61.5337
L102.7997 61.4732
" />
</g></g>
</g>
<g style="fill:#840084; fill-opacity:0.0; 
stroke:#840084; stroke-width:0.1524; stroke-opacity:1; 
stroke-linecap:round; stroke-linejoin:round;">
<g >
</g>
<g style="fill:#840000; fill-opacity:0.0; 
stroke:#840000; stroke-width:0.1524; stroke-opacity:1; 
stroke-linecap:round; stroke-linejoin:round;">
<circle cx="66.0400" cy="59.6900" r="2.5400" /> 
<path style="fill:#840000; fill-opacity:0.0; 
stroke:#840000; stroke-width:0.1524; stroke-opacity:1; 
stroke-linecap:round; stroke-linejoin:round;fill:none"
d="M 66.0400,57.1500
66.0400,62.2300
" /> 
</g>
<g style="fill:#840000; fill-opacity:0.0; 
stroke:#840000; stroke-width:0.1588; stroke-opacity:1; 
stroke-linecap:round; stroke-linejoin:round;">
<text x="65.0240" y="56.7690"
textLength="1.7948" font-size="1.6933" lengthAdjust="spacingAndGlyphs"
text-anchor="middle" opacity="0">+</text>
<g class="stroked-text"><desc>+</desc>
<path d="M64.5401 56.2294
L65.5078 56.2294
" />
<path d="M65.0239 56.7132
L65.0239 55.7456
" />
</g><text x="65.0240" y="63.6270"
textLength="1.7948" font-size="1.6933" lengthAdjust="spacingAndGlyphs"
text-anchor="middle" opacity="0">-</text>
<g class="stroked-text"><desc>-</desc>
<path d="M64.5401 63.0874
L65.5078 63.0874
" />
</g></g>
<g style="fill:#840000; fill-opacity:0.0; 
stroke:#840000; stroke-width:0.1524; stroke-opacity:1; 
stroke-linecap:round; stroke-linejoin:round;">
<path d="M66.0400 57.1500
L66.0400 54.6100
" />
<path d="M66.0400 62.2300
L66.0400 64.7700
" />
</g>
<g style="fill:#006464; fill-opacity:0.0; 
stroke:#006464; stroke-width:0.1524; stroke-opacity:1; 
stroke-linecap:round; stroke-linejoin:round;">
<text x="71.1102" y="55.1180"
textLength="2.5013" font-size="1.6933" lengthAdjust="spacingAndGlyphs"
text-anchor="middle" opacity="0">V1</text>
<g class="stroked-text"><desc>V1</desc>
<path d="M70.0821 53.7925
L70.5054 55.0625
" />
<path d="M70.5054 55.0625
L70.9288 53.7925
" />
<path d="M72.0174 55.0625
L71.2917 55.0625
" />
<path d="M71.6545 55.0625
L71.6545 53.7925
" />
<path d="M71.6545 53.7925
L71.5336 53.9740
" />
<path d="M71.5336 53.9740
L71.4126 54.0949
" />
<path d="M71.4126 54.0949
L71.2917 54.1554
" />
</g><text x="74.7086" y="57.6580"
textLength="9.6980" font-size="1.6933" lengthAdjust="spacingAndGlyphs"
text-anchor="middle" opacity="0">Value: {V}</text>
<g class="stroked-text"><desc>Value: {V}</desc>
<path d="M70.0821 56.3325
L70.5054 57.6025
" />
<path d="M70.5054 57.6025
L70.9288 56.3325
" />
<path d="M71.8964 57.6025
L71.8964 56.9373
" />
<path d="M71.8964 56.9373
L71.8359 56.8163
" />
<path d="M71.8359 56.8163
L71.7150 56.7559
" />
<path d="M71.7150 56.7559
L71.4731 56.7559
" />
<path d="M71.4731 56.7559
L71.3521 56.8163
" />
<path d="M71.8964 57.5421
L71.7755 57.6025
" />
<path d="M71.7755 57.6025
L71.4731 57.6025
" />
<path d="M71.4731 57.6025
L71.3521 57.5421
" />
<path d="M71.3521 57.5421
L71.2917 57.4211
" />
<path d="M71.2917 57.4211
L71.2917 57.3001
" />
<path d="M71.2917 57.3001
L71.3521 57.1792
" />
<path d="M71.3521 57.1792
L71.4731 57.1187
" />
<path d="M71.4731 57.1187
L71.7755 57.1187
" />
<path d="M71.7755 57.1187
L71.8964 57.0582
" />
<path d="M72.6826 57.6025
L72.5616 57.5421
" />
<path d="M72.5616 57.5421
L72.5011 57.4211
" />
<path d="M72.5011 57.4211
L72.5011 56.3325
" />
<path d="M73.7106 56.7559
L73.7106 57.6025
" />
<path d="M73.1663 56.7559
L73.1663 57.4211
" />
<path d="M73.1663 57.4211
L73.2268 57.5421
" />
<path d="M73.2268 57.5421
L73.3478 57.6025
" />
<path d="M73.3478 57.6025
L73.5292 57.6025
" />
<path d="M73.5292 57.6025
L73.6501 57.5421
" />
<path d="M73.6501 57.5421
L73.7106 57.4816
" />
<path d="M74.7991 57.5421
L74.6782 57.6025
" />
<path d="M74.6782 57.6025
L74.4363 57.6025
" />
<path d="M74.4363 57.6025
L74.3153 57.5421
" />
<path d="M74.3153 57.5421
L74.2549 57.4211
" />
<path d="M74.2549 57.4211
L74.2549 56.9373
" />
<path d="M74.2549 56.9373
L74.3153 56.8163
" />
<path d="M74.3153 56.8163
L74.4363 56.7559
" />
<path d="M74.4363 56.7559
L74.6782 56.7559
" />
<path d="M74.6782 56.7559
L74.7991 56.8163
" />
<path d="M74.7991 56.8163
L74.8596 56.9373
" />
<path d="M74.8596 56.9373
L74.8596 57.0582
" />
<path d="M74.8596 57.0582
L74.2549 57.1792
" />
<path d="M75.4039 57.4816
L75.4644 57.5421
" />
<path d="M75.4644 57.5421
L75.4039 57.6025
" />
<path d="M75.4039 57.6025
L75.3435 57.5421
" />
<path d="M75.3435 57.5421
L75.4039 57.4816
" />
<path d="M75.4039 57.4816
L75.4039 57.6025
" />
<path d="M75.4039 56.8163
L75.4644 56.8768
" />
<path d="M75.4644 56.8768
L75.4039 56.9373
" />
<path d="M75.4039 56.9373
L75.3435 56.8768
" />
<path d="M75.3435 56.8768
L75.4039 56.8163
" />
<path d="M75.4039 56.8163
L75.4039 56.9373
" />
<path d="M77.3392 58.0863
L77.2787 58.0863
" />
<path d="M77.2787 58.0863
L77.1578 58.0259
" />
<path d="M77.1578 58.0259
L77.0973 57.9049
" />
<path d="M77.0973 57.9049
L77.0973 57.3001
" />
<path d="M77.0973 57.3001
L77.0368 57.1792
" />
<path d="M77.0368 57.1792
L76.9159 57.1187
" />
<path d="M76.9159 57.1187
L77.0368 57.0582
" />
<path d="M77.0368 57.0582
L77.0973 56.9373
" />
<path d="M77.0973 56.9373
L77.0973 56.3325
" />
<path d="M77.0973 56.3325
L77.1578 56.2116
" />
<path d="M77.1578 56.2116
L77.2787 56.1511
" />
<path d="M77.2787 56.1511
L77.3392 56.1511
" />
<path d="M77.6416 56.3325
L78.0649 57.6025
" />
<path d="M78.0649 57.6025
L78.4883 56.3325
" />
<path d="M78.7907 58.0863
L78.8512 58.0863
" />
<path d="M78.8512 58.0863
L78.9721 58.0259
" />
<path d="M78.9721 58.0259
L79.0326 57.9049
" />
<path d="M79.0326 57.9049
L79.0326 57.3001
" />
<path d="M79.0326 57.3001
L79.0931 57.1792
" />
<path d="M79.0931 57.1792
L79.2140 57.1187
" />
<path d="M79.2140 57.1187
L79.0931 57.0582
" />
<path d="M79.0931 57.0582
L79.0326 56.9373
" />
<path d="M79.0326 56.9373
L79.0326 56.3325
" />
<path d="M79.0326 56.3325
L78.9721 56.2116
" />
<path d="M78.9721 56.2116
L78.8512 56.1511
" />
<path d="M78.8512 56.1511
L78.7907 56.1511
" />
</g></g>
<g style="fill:#840084; fill-opacity:0.0; 
stroke:#840084; stroke-width:0.1524; stroke-opacity:1; 
stroke-linecap:round; stroke-linejoin:round;">
<text x="73.8619" y="60.1980"
textLength="8.0046" font-size="1.6933" lengthAdjust="spacingAndGlyphs"
text-anchor="middle" opacity="0">noise: 0</text>
<g class="stroked-text"><desc>noise: 0</desc>
<path d="M70.2635 59.2959
L70.2635 60.1425
" />
<path d="M70.2635 59.4168
L70.3240 59.3563
" />
<path d="M70.3240 59.3563
L70.4450 59.2959
" />
<path d="M70.4450 59.2959
L70.6264 59.2959
" />
<path d="M70.6264 59.2959
L70.7473 59.3563
" />
<path d="M70.7473 59.3563
L70.8078 59.4773
" />
<path d="M70.8078 59.4773
L70.8078 60.1425
" />
<path d="M71.5940 60.1425
L71.4730 60.0821
" />
<path d="M71.4730 60.0821
L71.4125 60.0216
" />
<path d="M71.4125 60.0216
L71.3521 59.9006
" />
<path d="M71.3521 59.9006
L71.3521 59.5378
" />
<path d="M71.3521 59.5378
L71.4125 59.4168
" />
<path d="M71.4125 59.4168
L71.4730 59.3563
" />
<path d="M71.4730 59.3563
L71.5940 59.2959
" />
<path d="M71.5940 59.2959
L71.7754 59.2959
" />
<path d="M71.7754 59.2959
L71.8963 59.3563
" />
<path d="M71.8963 59.3563
L71.9568 59.4168
" />
<path d="M71.9568 59.4168
L72.0173 59.5378
" />
<path d="M72.0173 59.5378
L72.0173 59.9006
" />
<path d="M72.0173 59.9006
L71.9568 60.0216
" />
<path d="M71.9568 60.0216
L71.8963 60.0821
" />
<path d="M71.8963 60.0821
L71.7754 60.1425
" />
<path d="M71.7754 60.1425
L71.5940 60.1425
" />
<path d="M72.5615 60.1425
L72.5615 59.2959
" />
<path d="M72.5615 58.8725
L72.5011 58.9330
" />
<path d="M72.5011 58.9330
L72.5615 58.9935
" />
<path d="M72.5615 58.9935
L72.6220 58.9330
" />
<path d="M72.6220 58.9330
L72.5615 58.8725
" />
<path d="M72.5615 58.8725
L72.5615 58.9935
" />
<path d="M73.1059 60.0821
L73.2268 60.1425
" />
<path d="M73.2268 60.1425
L73.4687 60.1425
" />
<path d="M73.4687 60.1425
L73.5897 60.0821
" />
<path d="M73.5897 60.0821
L73.6501 59.9611
" />
<path d="M73.6501 59.9611
L73.6501 59.9006
" />
<path d="M73.6501 59.9006
L73.5897 59.7797
" />
<path d="M73.5897 59.7797
L73.4687 59.7192
" />
<path d="M73.4687 59.7192
L73.2873 59.7192
" />
<path d="M73.2873 59.7192
L73.1663 59.6587
" />
<path d="M73.1663 59.6587
L73.1059 59.5378
" />
<path d="M73.1059 59.5378
L73.1059 59.4773
" />
<path d="M73.1059 59.4773
L73.1663 59.3563
" />
<path d="M73.1663 59.3563
L73.2873 59.2959
" />
<path d="M73.2873 59.2959
L73.4687 59.2959
" />
<path d="M73.4687 59.2959
L73.5897 59.3563
" />
<path d="M74.6782 60.0821
L74.5573 60.1425
" />
<path d="M74.5573 60.1425
L74.3154 60.1425
" />
<path d="M74.3154 60.1425
L74.1944 60.0821
" />
<path d="M74.1944 60.0821
L74.1340 59.9611
" />
<path d="M74.1340 59.9611
L74.1340 59.4773
" />
<path d="M74.1340 59.4773
L74.1944 59.3563
" />
<path d="M74.1944 59.3563
L74.3154 59.2959
" />
<path d="M74.3154 59.2959
L74.5573 59.2959
" />
<path d="M74.5573 59.2959
L74.6782 59.3563
" />
<path d="M74.6782 59.3563
L74.7387 59.4773
" />
<path d="M74.7387 59.4773
L74.7387 59.5982
" />
<path d="M74.7387 59.5982
L74.1340 59.7192
" />
<path d="M75.2830 60.0216
L75.3435 60.0821
" />
<path d="M75.3435 60.0821
L75.2830 60.1425
" />
<path d="M75.2830 60.1425
L75.2226 60.0821
" />
<path d="M75.2226 60.0821
L75.2830 60.0216
" />
<path d="M75.2830 60.0216
L75.2830 60.1425
" />
<path d="M75.2830 59.3563
L75.3435 59.4168
" />
<path d="M75.3435 59.4168
L75.2830 59.4773
" />
<path d="M75.2830 59.4773
L75.2226 59.4168
" />
<path d="M75.2226 59.4168
L75.2830 59.3563
" />
<path d="M75.2830 59.3563
L75.2830 59.4773
" />
<path d="M77.0973 58.8725
L77.2183 58.8725
" />
<path d="M77.2183 58.8725
L77.3392 58.9330
" />
<path d="M77.3392 58.9330
L77.3997 58.9935
" />
<path d="M77.3997 58.9935
L77.4602 59.1144
" />
<path d="M77.4602 59.1144
L77.5207 59.3563
" />
<path d="M77.5207 59.3563
L77.5207 59.6587
" />
<path d="M77.5207 59.6587
L77.4602 59.9006
" />
<path d="M77.4602 59.9006
L77.3997 60.0216
" />
<path d="M77.3997 60.0216
L77.3392 60.0821
" />
<path d="M77.3392 60.0821
L77.2183 60.1425
" />
<path d="M77.2183 60.1425
L77.0973 60.1425
" />
<path d="M77.0973 60.1425
L76.9764 60.0821
" />
<path d="M76.9764 60.0821
L76.9159 60.0216
" />
<path d="M76.9159 60.0216
L76.8554 59.9006
" />
<path d="M76.8554 59.9006
L76.7950 59.6587
" />
<path d="M76.7950 59.6587
L76.7950 59.3563
" />
<path d="M76.7950 59.3563
L76.8554 59.1144
" />
<path d="M76.8554 59.1144
L76.9159 58.9935
" />
<path d="M76.9159 58.9935
L76.9764 58.9330
" />
<path d="M76.9764 58.9330
L77.0973 58.8725
" />
</g><text x="72.4709" y="62.7380"
textLength="5.2227" font-size="1.6933" lengthAdjust="spacingAndGlyphs"
text-anchor="middle" opacity="0">dc: 0</text>
<g class="stroked-text"><desc>dc: 0</desc>
<path d="M70.8078 62.6825
L70.8078 61.4125
" />
<path d="M70.8078 62.6221
L70.6869 62.6825
" />
<path d="M70.6869 62.6825
L70.4450 62.6825
" />
<path d="M70.4450 62.6825
L70.3240 62.6221
" />
<path d="M70.3240 62.6221
L70.2635 62.5616
" />
<path d="M70.2635 62.5616
L70.2031 62.4406
" />
<path d="M70.2031 62.4406
L70.2031 62.0778
" />
<path d="M70.2031 62.0778
L70.2635 61.9568
" />
<path d="M70.2635 61.9568
L70.3240 61.8963
" />
<path d="M70.3240 61.8963
L70.4450 61.8359
" />
<path d="M70.4450 61.8359
L70.6869 61.8359
" />
<path d="M70.6869 61.8359
L70.8078 61.8963
" />
<path d="M71.9568 62.6221
L71.8359 62.6825
" />
<path d="M71.8359 62.6825
L71.5940 62.6825
" />
<path d="M71.5940 62.6825
L71.4730 62.6221
" />
<path d="M71.4730 62.6221
L71.4125 62.5616
" />
<path d="M71.4125 62.5616
L71.3521 62.4406
" />
<path d="M71.3521 62.4406
L71.3521 62.0778
" />
<path d="M71.3521 62.0778
L71.4125 61.9568
" />
<path d="M71.4125 61.9568
L71.4730 61.8963
" />
<path d="M71.4730 61.8963
L71.5940 61.8359
" />
<path d="M71.5940 61.8359
L71.8359 61.8359
" />
<path d="M71.8359 61.8359
L71.9568 61.8963
" />
<path d="M72.5011 62.5616
L72.5616 62.6221
" />
<path d="M72.5616 62.6221
L72.5011 62.6825
" />
<path d="M72.5011 62.6825
L72.4407 62.6221
" />
<path d="M72.4407 62.6221
L72.5011 62.5616
" />
<path d="M72.5011 62.5616
L72.5011 62.6825
" />
<path d="M72.5011 61.8963
L72.5616 61.9568
" />
<path d="M72.5616 61.9568
L72.5011 62.0173
" />
<path d="M72.5011 62.0173
L72.4407 61.9568
" />
<path d="M72.4407 61.9568
L72.5011 61.8963
" />
<path d="M72.5011 61.8963
L72.5011 62.0173
" />
<path d="M74.3154 61.4125
L74.4364 61.4125
" />
<path d="M74.4364 61.4125
L74.5573 61.4730
" />
<path d="M74.5573 61.4730
L74.6178 61.5335
" />
<path d="M74.6178 61.5335
L74.6783 61.6544
" />
<path d="M74.6783 61.6544
L74.7388 61.8963
" />
<path d="M74.7388 61.8963
L74.7388 62.1987
" />
<path d="M74.7388 62.1987
L74.6783 62.4406
" />
<path d="M74.6783 62.4406
L74.6178 62.5616
" />
<path d="M74.6178 62.5616
L74.5573 62.6221
" />
<path d="M74.5573 62.6221
L74.4364 62.6825
" />
<path d="M74.4364 62.6825
L74.3154 62.6825
" />
<path d="M74.3154 62.6825
L74.1945 62.6221
" />
<path d="M74.1945 62.6221
L74.1340 62.5616
" />
<path d="M74.1340 62.5616
L74.0735 62.4406
" />
<path d="M74.0735 62.4406
L74.0131 62.1987
" />
<path d="M74.0131 62.1987
L74.0131 61.8963
" />
<path d="M74.0131 61.8963
L74.0735 61.6544
" />
<path d="M74.0735 61.6544
L74.1340 61.5335
" />
<path d="M74.1340 61.5335
L74.1945 61.4730
" />
<path d="M74.1945 61.4730
L74.3154 61.4125
" />
</g><text x="73.9223" y="65.2780"
textLength="8.1255" font-size="1.6933" lengthAdjust="spacingAndGlyphs"
text-anchor="middle" opacity="0">dcvar: 0</text>
<g class="stroked-text"><desc>dcvar: 0</desc>
<path d="M70.8078 65.2225
L70.8078 63.9525
" />
<path d="M70.8078 65.1621
L70.6869 65.2225
" />
<path d="M70.6869 65.2225
L70.4450 65.2225
" />
<path d="M70.4450 65.2225
L70.3240 65.1621
" />
<path d="M70.3240 65.1621
L70.2635 65.1016
" />
<path d="M70.2635 65.1016
L70.2031 64.9806
" />
<path d="M70.2031 64.9806
L70.2031 64.6178
" />
<path d="M70.2031 64.6178
L70.2635 64.4968
" />
<path d="M70.2635 64.4968
L70.3240 64.4363
" />
<path d="M70.3240 64.4363
L70.4450 64.3759
" />
<path d="M70.4450 64.3759
L70.6869 64.3759
" />
<path d="M70.6869 64.3759
L70.8078 64.4363
" />
<path d="M71.9568 65.1621
L71.8359 65.2225
" />
<path d="M71.8359 65.2225
L71.5940 65.2225
" />
<path d="M71.5940 65.2225
L71.4730 65.1621
" />
<path d="M71.4730 65.1621
L71.4125 65.1016
" />
<path d="M71.4125 65.1016
L71.3521 64.9806
" />
<path d="M71.3521 64.9806
L71.3521 64.6178
" />
<path d="M71.3521 64.6178
L71.4125 64.4968
" />
<path d="M71.4125 64.4968
L71.4730 64.4363
" />
<path d="M71.4730 64.4363
L71.5940 64.3759
" />
<path d="M71.5940 64.3759
L71.8359 64.3759
" />
<path d="M71.8359 64.3759
L71.9568 64.4363
" />
<path d="M72.3802 64.3759
L72.6826 65.2225
" />
<path d="M72.6826 65.2225
L72.9849 64.3759
" />
<path d="M74.0130 65.2225
L74.0130 64.5573
" />
<path d="M74.0130 64.5573
L73.9525 64.4363
" />
<path d="M73.9525 64.4363
L73.8316 64.3759
" />
<path d="M73.8316 64.3759
L73.5897 64.3759
" />
<path d="M73.5897 64.3759
L73.4687 64.4363
" />
<path d="M74.0130 65.1621
L73.8921 65.2225
" />
<path d="M73.8921 65.2225
L73.5897 65.2225
" />
<path d="M73.5897 65.2225
L73.4687 65.1621
" />
<path d="M73.4687 65.1621
L73.4083 65.0411
" />
<path d="M73.4083 65.0411
L73.4083 64.9201
" />
<path d="M73.4083 64.9201
L73.4687 64.7992
" />
<path d="M73.4687 64.7992
L73.5897 64.7387
" />
<path d="M73.5897 64.7387
L73.8921 64.7387
" />
<path d="M73.8921 64.7387
L74.0130 64.6782
" />
<path d="M74.6177 65.2225
L74.6177 64.3759
" />
<path d="M74.6177 64.6178
L74.6782 64.4968
" />
<path d="M74.6782 64.4968
L74.7387 64.4363
" />
<path d="M74.7387 64.4363
L74.8596 64.3759
" />
<path d="M74.8596 64.3759
L74.9806 64.3759
" />
<path d="M75.4039 65.1016
L75.4644 65.1621
" />
<path d="M75.4644 65.1621
L75.4039 65.2225
" />
<path d="M75.4039 65.2225
L75.3435 65.1621
" />
<path d="M75.3435 65.1621
L75.4039 65.1016
" />
<path d="M75.4039 65.1016
L75.4039 65.2225
" />
<path d="M75.4039 64.4363
L75.4644 64.4968
" />
<path d="M75.4644 64.4968
L75.4039 64.5573
" />
<path d="M75.4039 64.5573
L75.3435 64.4968
" />
<path d="M75.3435 64.4968
L75.4039 64.4363
" />
<path d="M75.4039 64.4363
L75.4039 64.5573
" />
<path d="M77.2182 63.9525
L77.3392 63.9525
" />
<path d="M77.3392 63.9525
L77.4601 64.0130
" />
<path d="M77.4601 64.0130
L77.5206 64.0735
" />
<path d="M77.5206 64.0735
L77.5811 64.1944
" />
<path d="M77.5811 64.1944
L77.6416 64.4363
" />
<path d="M77.6416 64.4363
L77.6416 64.7387
" />
<path d="M77.6416 64.7387
L77.5811 64.9806
" />
<path d="M77.5811 64.9806
L77.5206 65.1016
" />
<path d="M77.5206 65.1016
L77.4601 65.1621
" />
<path d="M77.4601 65.1621
L77.3392 65.2225
" />
<path d="M77.3392 65.2225
L77.2182 65.2225
" />
<path d="M77.2182 65.2225
L77.0973 65.1621
" />
<path d="M77.0973 65.1621
L77.0368 65.1016
" />
<path d="M77.0368 65.1016
L76.9763 64.9806
" />
<path d="M76.9763 64.9806
L76.9159 64.7387
" />
<path d="M76.9159 64.7387
L76.9159 64.4363
" />
<path d="M76.9159 64.4363
L76.9763 64.1944
" />
<path d="M76.9763 64.1944
L77.0368 64.0735
" />
<path d="M77.0368 64.0735
L77.0973 64.0130
" />
<path d="M77.0973 64.0130
L77.2182 63.9525
" />
</g></g>
</g>
<g style="fill:#840084; fill-opacity:0.0; 
stroke:#840084; stroke-width:0.1524; stroke-opacity:1; 
stroke-linecap:round; stroke-linejoin:round;">
<g >
</g>
<g style="fill:#840000; fill-opacity:0.0; 
stroke:#840000; stroke-width:0.1524; stroke-opacity:1; 
stroke-linecap:round; stroke-linejoin:round;">
<rect x="78.740000" y="51.054000" width="5.080000" height="2.032000" rx="0.000000" />
</g>
<g style="fill:#840000; fill-opacity:0.0; 
stroke:#840000; stroke-width:0.1588; stroke-opacity:1; 
stroke-linecap:round; stroke-linejoin:round;">
<g transform="rotate(-90.000000 79.3750 52.0700)">
<text x="79.3750" y="52.7050"
textLength="1.7948" font-size="1.6933" lengthAdjust="spacingAndGlyphs"
text-anchor="middle" opacity="0">+</text>
</g>
<g class="stroked-text"><desc>+</desc>
<path d="M79.4704 52.5538
L79.4704 51.5862
" />
<path d="M79.9542 52.0700
L78.9866 52.0700
" />
</g></g>
<g style="fill:#840000; fill-opacity:0.0; 
stroke:#840000; stroke-width:0.1524; stroke-opacity:1; 
stroke-linecap:round; stroke-linejoin:round;">
<path d="M83.8200 52.0700
L86.3600 52.0700
" />
<path d="M78.7400 52.0700
L76.2000 52.0700
" />
</g>
<g style="fill:#006464; fill-opacity:0.0; 
stroke:#006464; stroke-width:0.1524; stroke-opacity:1; 
stroke-linecap:round; stroke-linejoin:round;">
<text x="78.8209" y="36.1950"
textLength="2.6827" font-size="1.6933" lengthAdjust="spacingAndGlyphs"
text-anchor="middle" opacity="0">R1</text>
<g class="stroked-text"><desc>R1</desc>
<path d="M78.6092 36.1395
L78.1859 35.5348
" />
<path d="M77.8835 36.1395
L77.8835 34.8695
" />
<path d="M77.8835 34.8695
L78.3673 34.8695
" />
<path d="M78.3673 34.8695
L78.4883 34.9300
" />
<path d="M78.4883 34.9300
L78.5488 34.9905
" />
<path d="M78.5488 34.9905
L78.6092 35.1114
" />
<path d="M78.6092 35.1114
L78.6092 35.2929
" />
<path d="M78.6092 35.2929
L78.5488 35.4138
" />
<path d="M78.5488 35.4138
L78.4883 35.4743
" />
<path d="M78.4883 35.4743
L78.3673 35.5348
" />
<path d="M78.3673 35.5348
L77.8835 35.5348
" />
<path d="M79.8188 36.1395
L79.0931 36.1395
" />
<path d="M79.4559 36.1395
L79.4559 34.8695
" />
<path d="M79.4559 34.8695
L79.3350 35.0510
" />
<path d="M79.3350 35.0510
L79.2140 35.1719
" />
<path d="M79.2140 35.1719
L79.0931 35.2324
" />
</g><text x="82.4193" y="38.7350"
textLength="9.8794" font-size="1.6933" lengthAdjust="spacingAndGlyphs"
text-anchor="middle" opacity="0">Value: {R}</text>
<g class="stroked-text"><desc>Value: {R}</desc>
<path d="M77.7021 37.4095
L78.1254 38.6795
" />
<path d="M78.1254 38.6795
L78.5488 37.4095
" />
<path d="M79.5164 38.6795
L79.5164 38.0143
" />
<path d="M79.5164 38.0143
L79.4559 37.8933
" />
<path d="M79.4559 37.8933
L79.3350 37.8329
" />
<path d="M79.3350 37.8329
L79.0931 37.8329
" />
<path d="M79.0931 37.8329
L78.9721 37.8933
" />
<path d="M79.5164 38.6191
L79.3955 38.6795
" />
<path d="M79.3955 38.6795
L79.0931 38.6795
" />
<path d="M79.0931 38.6795
L78.9721 38.6191
" />
<path d="M78.9721 38.6191
L78.9117 38.4981
" />
<path d="M78.9117 38.4981
L78.9117 38.3771
" />
<path d="M78.9117 38.3771
L78.9721 38.2562
" />
<path d="M78.9721 38.2562
L79.0931 38.1957
" />
<path d="M79.0931 38.1957
L79.3955 38.1957
" />
<path d="M79.3955 38.1957
L79.5164 38.1352
" />
<path d="M80.3026 38.6795
L80.1816 38.6191
" />
<path d="M80.1816 38.6191
L80.1211 38.4981
" />
<path d="M80.1211 38.4981
L80.1211 37.4095
" />
<path d="M81.3306 37.8329
L81.3306 38.6795
" />
<path d="M80.7863 37.8329
L80.7863 38.4981
" />
<path d="M80.7863 38.4981
L80.8468 38.6191
" />
<path d="M80.8468 38.6191
L80.9678 38.6795
" />
<path d="M80.9678 38.6795
L81.1492 38.6795
" />
<path d="M81.1492 38.6795
L81.2701 38.6191
" />
<path d="M81.2701 38.6191
L81.3306 38.5586
" />
<path d="M82.4191 38.6191
L82.2982 38.6795
" />
<path d="M82.2982 38.6795
L82.0563 38.6795
" />
<path d="M82.0563 38.6795
L81.9353 38.6191
" />
<path d="M81.9353 38.6191
L81.8749 38.4981
" />
<path d="M81.8749 38.4981
L81.8749 38.0143
" />
<path d="M81.8749 38.0143
L81.9353 37.8933
" />
<path d="M81.9353 37.8933
L82.0563 37.8329
" />
<path d="M82.0563 37.8329
L82.2982 37.8329
" />
<path d="M82.2982 37.8329
L82.4191 37.8933
" />
<path d="M82.4191 37.8933
L82.4796 38.0143
" />
<path d="M82.4796 38.0143
L82.4796 38.1352
" />
<path d="M82.4796 38.1352
L81.8749 38.2562
" />
<path d="M83.0239 38.5586
L83.0844 38.6191
" />
<path d="M83.0844 38.6191
L83.0239 38.6795
" />
<path d="M83.0239 38.6795
L82.9635 38.6191
" />
<path d="M82.9635 38.6191
L83.0239 38.5586
" />
<path d="M83.0239 38.5586
L83.0239 38.6795
" />
<path d="M83.0239 37.8933
L83.0844 37.9538
" />
<path d="M83.0844 37.9538
L83.0239 38.0143
" />
<path d="M83.0239 38.0143
L82.9635 37.9538
" />
<path d="M82.9635 37.9538
L83.0239 37.8933
" />
<path d="M83.0239 37.8933
L83.0239 38.0143
" />
<path d="M84.9592 39.1633
L84.8987 39.1633
" />
<path d="M84.8987 39.1633
L84.7778 39.1029
" />
<path d="M84.7778 39.1029
L84.7173 38.9819
" />
<path d="M84.7173 38.9819
L84.7173 38.3771
" />
<path d="M84.7173 38.3771
L84.6568 38.2562
" />
<path d="M84.6568 38.2562
L84.5359 38.1957
" />
<path d="M84.5359 38.1957
L84.6568 38.1352
" />
<path d="M84.6568 38.1352
L84.7173 38.0143
" />
<path d="M84.7173 38.0143
L84.7173 37.4095
" />
<path d="M84.7173 37.4095
L84.7778 37.2886
" />
<path d="M84.7778 37.2886
L84.8987 37.2281
" />
<path d="M84.8987 37.2281
L84.9592 37.2281
" />
<path d="M86.1687 38.6795
L85.7454 38.0748
" />
<path d="M85.4430 38.6795
L85.4430 37.4095
" />
<path d="M85.4430 37.4095
L85.9268 37.4095
" />
<path d="M85.9268 37.4095
L86.0478 37.4700
" />
<path d="M86.0478 37.4700
L86.1083 37.5305
" />
<path d="M86.1083 37.5305
L86.1687 37.6514
" />
<path d="M86.1687 37.6514
L86.1687 37.8329
" />
<path d="M86.1687 37.8329
L86.1083 37.9538
" />
<path d="M86.1083 37.9538
L86.0478 38.0143
" />
<path d="M86.0478 38.0143
L85.9268 38.0748
" />
<path d="M85.9268 38.0748
L85.4430 38.0748
" />
<path d="M86.5921 39.1633
L86.6526 39.1633
" />
<path d="M86.6526 39.1633
L86.7735 39.1029
" />
<path d="M86.7735 39.1029
L86.8340 38.9819
" />
<path d="M86.8340 38.9819
L86.8340 38.3771
" />
<path d="M86.8340 38.3771
L86.8945 38.2562
" />
<path d="M86.8945 38.2562
L87.0154 38.1957
" />
<path d="M87.0154 38.1957
L86.8945 38.1352
" />
<path d="M86.8945 38.1352
L86.8340 38.0143
" />
<path d="M86.8340 38.0143
L86.8340 37.4095
" />
<path d="M86.8340 37.4095
L86.7735 37.2886
" />
<path d="M86.7735 37.2886
L86.6526 37.2281
" />
<path d="M86.6526 37.2281
L86.5921 37.2281
" />
</g></g>
<g style="fill:#840084; fill-opacity:0.0; 
stroke:#840084; stroke-width:0.1524; stroke-opacity:1; 
stroke-linecap:round; stroke-linejoin:round;">
<text x="83.8102" y="41.2750"
textLength="12.6612" font-size="1.6933" lengthAdjust="spacingAndGlyphs"
text-anchor="middle" opacity="0">noisetemp: 0</text>
<g class="stroked-text"><desc>noisetemp: 0</desc>
<path d="M77.8835 40.3729
L77.8835 41.2195
" />
<path d="M77.8835 40.4938
L77.9440 40.4333
" />
<path d="M77.9440 40.4333
L78.0650 40.3729
" />
<path d="M78.0650 40.3729
L78.2464 40.3729
" />
<path d="M78.2464 40.3729
L78.3673 40.4333
" />
<path d="M78.3673 40.4333
L78.4278 40.5543
" />
<path d="M78.4278 40.5543
L78.4278 41.2195
" />
<path d="M79.2140 41.2195
L79.0930 41.1591
" />
<path d="M79.0930 41.1591
L79.0325 41.0986
" />
<path d="M79.0325 41.0986
L78.9721 40.9776
" />
<path d="M78.9721 40.9776
L78.9721 40.6148
" />
<path d="M78.9721 40.6148
L79.0325 40.4938
" />
<path d="M79.0325 40.4938
L79.0930 40.4333
" />
<path d="M79.0930 40.4333
L79.2140 40.3729
" />
<path d="M79.2140 40.3729
L79.3954 40.3729
" />
<path d="M79.3954 40.3729
L79.5163 40.4333
" />
<path d="M79.5163 40.4333
L79.5768 40.4938
" />
<path d="M79.5768 40.4938
L79.6373 40.6148
" />
<path d="M79.6373 40.6148
L79.6373 40.9776
" />
<path d="M79.6373 40.9776
L79.5768 41.0986
" />
<path d="M79.5768 41.0986
L79.5163 41.1591
" />
<path d="M79.5163 41.1591
L79.3954 41.2195
" />
<path d="M79.3954 41.2195
L79.2140 41.2195
" />
<path d="M80.1815 41.2195
L80.1815 40.3729
" />
<path d="M80.1815 39.9495
L80.1211 40.0100
" />
<path d="M80.1211 40.0100
L80.1815 40.0705
" />
<path d="M80.1815 40.0705
L80.2420 40.0100
" />
<path d="M80.2420 40.0100
L80.1815 39.9495
" />
<path d="M80.1815 39.9495
L80.1815 40.0705
" />
<path d="M80.7259 41.1591
L80.8468 41.2195
" />
<path d="M80.8468 41.2195
L81.0887 41.2195
" />
<path d="M81.0887 41.2195
L81.2097 41.1591
" />
<path d="M81.2097 41.1591
L81.2701 41.0381
" />
<path d="M81.2701 41.0381
L81.2701 40.9776
" />
<path d="M81.2701 40.9776
L81.2097 40.8567
" />
<path d="M81.2097 40.8567
L81.0887 40.7962
" />
<path d="M81.0887 40.7962
L80.9073 40.7962
" />
<path d="M80.9073 40.7962
L80.7863 40.7357
" />
<path d="M80.7863 40.7357
L80.7259 40.6148
" />
<path d="M80.7259 40.6148
L80.7259 40.5543
" />
<path d="M80.7259 40.5543
L80.7863 40.4333
" />
<path d="M80.7863 40.4333
L80.9073 40.3729
" />
<path d="M80.9073 40.3729
L81.0887 40.3729
" />
<path d="M81.0887 40.3729
L81.2097 40.4333
" />
<path d="M82.2982 41.1591
L82.1773 41.2195
" />
<path d="M82.1773 41.2195
L81.9354 41.2195
" />
<path d="M81.9354 41.2195
L81.8144 41.1591
" />
<path d="M81.8144 41.1591
L81.7540 41.0381
" />
<path d="M81.7540 41.0381
L81.7540 40.5543
" />
<path d="M81.7540 40.5543
L81.8144 40.4333
" />
<path d="M81.8144 40.4333
L81.9354 40.3729
" />
<path d="M81.9354 40.3729
L82.1773 40.3729
" />
<path d="M82.1773 40.3729
L82.2982 40.4333
" />
<path d="M82.2982 40.4333
L82.3587 40.5543
" />
<path d="M82.3587 40.5543
L82.3587 40.6752
" />
<path d="M82.3587 40.6752
L81.7540 40.7962
" />
<path d="M82.7216 40.3729
L83.2054 40.3729
" />
<path d="M82.9030 39.9495
L82.9030 41.0381
" />
<path d="M82.9030 41.0381
L82.9635 41.1591
" />
<path d="M82.9635 41.1591
L83.0845 41.2195
" />
<path d="M83.0845 41.2195
L83.2054 41.2195
" />
<path d="M84.1125 41.1591
L83.9916 41.2195
" />
<path d="M83.9916 41.2195
L83.7497 41.2195
" />
<path d="M83.7497 41.2195
L83.6287 41.1591
" />
<path d="M83.6287 41.1591
L83.5683 41.0381
" />
<path d="M83.5683 41.0381
L83.5683 40.5543
" />
<path d="M83.5683 40.5543
L83.6287 40.4333
" />
<path d="M83.6287 40.4333
L83.7497 40.3729
" />
<path d="M83.7497 40.3729
L83.9916 40.3729
" />
<path d="M83.9916 40.3729
L84.1125 40.4333
" />
<path d="M84.1125 40.4333
L84.1730 40.5543
" />
<path d="M84.1730 40.5543
L84.1730 40.6752
" />
<path d="M84.1730 40.6752
L83.5683 40.7962
" />
<path d="M84.7173 41.2195
L84.7173 40.3729
" />
<path d="M84.7173 40.4938
L84.7778 40.4333
" />
<path d="M84.7778 40.4333
L84.8988 40.3729
" />
<path d="M84.8988 40.3729
L85.0802 40.3729
" />
<path d="M85.0802 40.3729
L85.2011 40.4333
" />
<path d="M85.2011 40.4333
L85.2616 40.5543
" />
<path d="M85.2616 40.5543
L85.2616 41.2195
" />
<path d="M85.2616 40.5543
L85.3221 40.4333
" />
<path d="M85.3221 40.4333
L85.4430 40.3729
" />
<path d="M85.4430 40.3729
L85.6245 40.3729
" />
<path d="M85.6245 40.3729
L85.7454 40.4333
" />
<path d="M85.7454 40.4333
L85.8059 40.5543
" />
<path d="M85.8059 40.5543
L85.8059 41.2195
" />
<path d="M86.4106 40.3729
L86.4106 41.6429
" />
<path d="M86.4106 40.4333
L86.5316 40.3729
" />
<path d="M86.5316 40.3729
L86.7735 40.3729
" />
<path d="M86.7735 40.3729
L86.8944 40.4333
" />
<path d="M86.8944 40.4333
L86.9549 40.4938
" />
<path d="M86.9549 40.4938
L87.0154 40.6148
" />
<path d="M87.0154 40.6148
L87.0154 40.9776
" />
<path d="M87.0154 40.9776
L86.9549 41.0986
" />
<path d="M86.9549 41.0986
L86.8944 41.1591
" />
<path d="M86.8944 41.1591
L86.7735 41.2195
" />
<path d="M86.7735 41.2195
L86.5316 41.2195
" />
<path d="M86.5316 41.2195
L86.4106 41.1591
" />
<path d="M87.5596 41.0986
L87.6201 41.1591
" />
<path d="M87.6201 41.1591
L87.5596 41.2195
" />
<path d="M87.5596 41.2195
L87.4992 41.1591
" />
<path d="M87.4992 41.1591
L87.5596 41.0986
" />
<path d="M87.5596 41.0986
L87.5596 41.2195
" />
<path d="M87.5596 40.4333
L87.6201 40.4938
" />
<path d="M87.6201 40.4938
L87.5596 40.5543
" />
<path d="M87.5596 40.5543
L87.4992 40.4938
" />
<path d="M87.4992 40.4938
L87.5596 40.4333
" />
<path d="M87.5596 40.4333
L87.5596 40.5543
" />
<path d="M89.3739 39.9495
L89.4949 39.9495
" />
<path d="M89.4949 39.9495
L89.6158 40.0100
" />
<path d="M89.6158 40.0100
L89.6763 40.0705
" />
<path d="M89.6763 40.0705
L89.7368 40.1914
" />
<path d="M89.7368 40.1914
L89.7973 40.4333
" />
<path d="M89.7973 40.4333
L89.7973 40.7357
" />
<path d="M89.7973 40.7357
L89.7368 40.9776
" />
<path d="M89.7368 40.9776
L89.6763 41.0986
" />
<path d="M89.6763 41.0986
L89.6158 41.1591
" />
<path d="M89.6158 41.1591
L89.4949 41.2195
" />
<path d="M89.4949 41.2195
L89.3739 41.2195
" />
<path d="M89.3739 41.2195
L89.2530 41.1591
" />
<path d="M89.2530 41.1591
L89.1925 41.0986
" />
<path d="M89.1925 41.0986
L89.1320 40.9776
" />
<path d="M89.1320 40.9776
L89.0716 40.7357
" />
<path d="M89.0716 40.7357
L89.0716 40.4333
" />
<path d="M89.0716 40.4333
L89.1320 40.1914
" />
<path d="M89.1320 40.1914
L89.1925 40.0705
" />
<path d="M89.1925 40.0705
L89.2530 40.0100
" />
<path d="M89.2530 40.0100
L89.3739 39.9495
" />
</g><text x="83.4171" y="43.8150"
textLength="11.8750" font-size="1.6933" lengthAdjust="spacingAndGlyphs"
text-anchor="middle" opacity="0">noiseflow: 0</text>
<g class="stroked-text"><desc>noiseflow: 0</desc>
<path d="M77.8835 42.9129
L77.8835 43.7595
" />
<path d="M77.8835 43.0338
L77.9440 42.9733
" />
<path d="M77.9440 42.9733
L78.0650 42.9129
" />
<path d="M78.0650 42.9129
L78.2464 42.9129
" />
<path d="M78.2464 42.9129
L78.3673 42.9733
" />
<path d="M78.3673 42.9733
L78.4278 43.0943
" />
<path d="M78.4278 43.0943
L78.4278 43.7595
" />
<path d="M79.2140 43.7595
L79.0930 43.6991
" />
<path d="M79.0930 43.6991
L79.0325 43.6386
" />
<path d="M79.0325 43.6386
L78.9721 43.5176
" />
<path d="M78.9721 43.5176
L78.9721 43.1548
" />
<path d="M78.9721 43.1548
L79.0325 43.0338
" />
<path d="M79.0325 43.0338
L79.0930 42.9733
" />
<path d="M79.0930 42.9733
L79.2140 42.9129
" />
<path d="M79.2140 42.9129
L79.3954 42.9129
" />
<path d="M79.3954 42.9129
L79.5163 42.9733
" />
<path d="M79.5163 42.9733
L79.5768 43.0338
" />
<path d="M79.5768 43.0338
L79.6373 43.1548
" />
<path d="M79.6373 43.1548
L79.6373 43.5176
" />
<path d="M79.6373 43.5176
L79.5768 43.6386
" />
<path d="M79.5768 43.6386
L79.5163 43.6991
" />
<path d="M79.5163 43.6991
L79.3954 43.7595
" />
<path d="M79.3954 43.7595
L79.2140 43.7595
" />
<path d="M80.1815 43.7595
L80.1815 42.9129
" />
<path d="M80.1815 42.4895
L80.1211 42.5500
" />
<path d="M80.1211 42.5500
L80.1815 42.6105
" />
<path d="M80.1815 42.6105
L80.2420 42.5500
" />
<path d="M80.2420 42.5500
L80.1815 42.4895
" />
<path d="M80.1815 42.4895
L80.1815 42.6105
" />
<path d="M80.7259 43.6991
L80.8468 43.7595
" />
<path d="M80.8468 43.7595
L81.0887 43.7595
" />
<path d="M81.0887 43.7595
L81.2097 43.6991
" />
<path d="M81.2097 43.6991
L81.2701 43.5781
" />
<path d="M81.2701 43.5781
L81.2701 43.5176
" />
<path d="M81.2701 43.5176
L81.2097 43.3967
" />
<path d="M81.2097 43.3967
L81.0887 43.3362
" />
<path d="M81.0887 43.3362
L80.9073 43.3362
" />
<path d="M80.9073 43.3362
L80.7863 43.2757
" />
<path d="M80.7863 43.2757
L80.7259 43.1548
" />
<path d="M80.7259 43.1548
L80.7259 43.0943
" />
<path d="M80.7259 43.0943
L80.7863 42.9733
" />
<path d="M80.7863 42.9733
L80.9073 42.9129
" />
<path d="M80.9073 42.9129
L81.0887 42.9129
" />
<path d="M81.0887 42.9129
L81.2097 42.9733
" />
<path d="M82.2982 43.6991
L82.1773 43.7595
" />
<path d="M82.1773 43.7595
L81.9354 43.7595
" />
<path d="M81.9354 43.7595
L81.8144 43.6991
" />
<path d="M81.8144 43.6991
L81.7540 43.5781
" />
<path d="M81.7540 43.5781
L81.7540 43.0943
" />
<path d="M81.7540 43.0943
L81.8144 42.9733
" />
<path d="M81.8144 42.9733
L81.9354 42.9129
" />
<path d="M81.9354 42.9129
L82.1773 42.9129
" />
<path d="M82.1773 42.9129
L82.2982 42.9733
" />
<path d="M82.2982 42.9733
L82.3587 43.0943
" />
<path d="M82.3587 43.0943
L82.3587 43.2152
" />
<path d="M82.3587 43.2152
L81.7540 43.3362
" />
<path d="M82.7216 42.9129
L83.2054 42.9129
" />
<path d="M82.9030 43.7595
L82.9030 42.6710
" />
<path d="M82.9030 42.6710
L82.9635 42.5500
" />
<path d="M82.9635 42.5500
L83.0845 42.4895
" />
<path d="M83.0845 42.4895
L83.2054 42.4895
" />
<path d="M83.8102 43.7595
L83.6892 43.6991
" />
<path d="M83.6892 43.6991
L83.6287 43.5781
" />
<path d="M83.6287 43.5781
L83.6287 42.4895
" />
<path d="M84.4754 43.7595
L84.3544 43.6991
" />
<path d="M84.3544 43.6991
L84.2939 43.6386
" />
<path d="M84.2939 43.6386
L84.2335 43.5176
" />
<path d="M84.2335 43.5176
L84.2335 43.1548
" />
<path d="M84.2335 43.1548
L84.2939 43.0338
" />
<path d="M84.2939 43.0338
L84.3544 42.9733
" />
<path d="M84.3544 42.9733
L84.4754 42.9129
" />
<path d="M84.4754 42.9129
L84.6568 42.9129
" />
<path d="M84.6568 42.9129
L84.7777 42.9733
" />
<path d="M84.7777 42.9733
L84.8382 43.0338
" />
<path d="M84.8382 43.0338
L84.8987 43.1548
" />
<path d="M84.8987 43.1548
L84.8987 43.5176
" />
<path d="M84.8987 43.5176
L84.8382 43.6386
" />
<path d="M84.8382 43.6386
L84.7777 43.6991
" />
<path d="M84.7777 43.6991
L84.6568 43.7595
" />
<path d="M84.6568 43.7595
L84.4754 43.7595
" />
<path d="M85.3220 42.9129
L85.5639 43.7595
" />
<path d="M85.5639 43.7595
L85.8058 43.1548
" />
<path d="M85.8058 43.1548
L86.0477 43.7595
" />
<path d="M86.0477 43.7595
L86.2896 42.9129
" />
<path d="M86.7734 43.6386
L86.8339 43.6991
" />
<path d="M86.8339 43.6991
L86.7734 43.7595
" />
<path d="M86.7734 43.7595
L86.7130 43.6991
" />
<path d="M86.7130 43.6991
L86.7734 43.6386
" />
<path d="M86.7734 43.6386
L86.7734 43.7595
" />
<path d="M86.7734 42.9733
L86.8339 43.0338
" />
<path d="M86.8339 43.0338
L86.7734 43.0943
" />
<path d="M86.7734 43.0943
L86.7130 43.0338
" />
<path d="M86.7130 43.0338
L86.7734 42.9733
" />
<path d="M86.7734 42.9733
L86.7734 43.0943
" />
<path d="M88.5877 42.4895
L88.7087 42.4895
" />
<path d="M88.7087 42.4895
L88.8296 42.5500
" />
<path d="M88.8296 42.5500
L88.8901 42.6105
" />
<path d="M88.8901 42.6105
L88.9506 42.7314
" />
<path d="M88.9506 42.7314
L89.0111 42.9733
" />
<path d="M89.0111 42.9733
L89.0111 43.2757
" />
<path d="M89.0111 43.2757
L88.9506 43.5176
" />
<path d="M88.9506 43.5176
L88.8901 43.6386
" />
<path d="M88.8901 43.6386
L88.8296 43.6991
" />
<path d="M88.8296 43.6991
L88.7087 43.7595
" />
<path d="M88.7087 43.7595
L88.5877 43.7595
" />
<path d="M88.5877 43.7595
L88.4668 43.6991
" />
<path d="M88.4668 43.6991
L88.4063 43.6386
" />
<path d="M88.4063 43.6386
L88.3458 43.5176
" />
<path d="M88.3458 43.5176
L88.2854 43.2757
" />
<path d="M88.2854 43.2757
L88.2854 42.9733
" />
<path d="M88.2854 42.9733
L88.3458 42.7314
" />
<path d="M88.3458 42.7314
L88.4063 42.6105
" />
<path d="M88.4063 42.6105
L88.4668 42.5500
" />
<path d="M88.4668 42.5500
L88.5877 42.4895
" />
</g><text x="81.5423" y="46.3550"
textLength="8.1255" font-size="1.6933" lengthAdjust="spacingAndGlyphs"
text-anchor="middle" opacity="0">dcvar: 0</text>
<g class="stroked-text"><desc>dcvar: 0</desc>
<path d="M78.4278 46.2995
L78.4278 45.0295
" />
<path d="M78.4278 46.2391
L78.3069 46.2995
" />
<path d="M78.3069 46.2995
L78.0650 46.2995
" />
<path d="M78.0650 46.2995
L77.9440 46.2391
" />
<path d="M77.9440 46.2391
L77.8835 46.1786
" />
<path d="M77.8835 46.1786
L77.8231 46.0576
" />
<path d="M77.8231 46.0576
L77.8231 45.6948
" />
<path d="M77.8231 45.6948
L77.8835 45.5738
" />
<path d="M77.8835 45.5738
L77.9440 45.5133
" />
<path d="M77.9440 45.5133
L78.0650 45.4529
" />
<path d="M78.0650 45.4529
L78.3069 45.4529
" />
<path d="M78.3069 45.4529
L78.4278 45.5133
" />
<path d="M79.5768 46.2391
L79.4559 46.2995
" />
<path d="M79.4559 46.2995
L79.2140 46.2995
" />
<path d="M79.2140 46.2995
L79.0930 46.2391
" />
<path d="M79.0930 46.2391
L79.0325 46.1786
" />
<path d="M79.0325 46.1786
L78.9721 46.0576
" />
<path d="M78.9721 46.0576
L78.9721 45.6948
" />
<path d="M78.9721 45.6948
L79.0325 45.5738
" />
<path d="M79.0325 45.5738
L79.0930 45.5133
" />
<path d="M79.0930 45.5133
L79.2140 45.4529
" />
<path d="M79.2140 45.4529
L79.4559 45.4529
" />
<path d="M79.4559 45.4529
L79.5768 45.5133
" />
<path d="M80.0002 45.4529
L80.3026 46.2995
" />
<path d="M80.3026 46.2995
L80.6049 45.4529
" />
<path d="M81.6330 46.2995
L81.6330 45.6343
" />
<path d="M81.6330 45.6343
L81.5725 45.5133
" />
<path d="M81.5725 45.5133
L81.4516 45.4529
" />
<path d="M81.4516 45.4529
L81.2097 45.4529
" />
<path d="M81.2097 45.4529
L81.0887 45.5133
" />
<path d="M81.6330 46.2391
L81.5121 46.2995
" />
<path d="M81.5121 46.2995
L81.2097 46.2995
" />
<path d="M81.2097 46.2995
L81.0887 46.2391
" />
<path d="M81.0887 46.2391
L81.0283 46.1181
" />
<path d="M81.0283 46.1181
L81.0283 45.9971
" />
<path d="M81.0283 45.9971
L81.0887 45.8762
" />
<path d="M81.0887 45.8762
L81.2097 45.8157
" />
<path d="M81.2097 45.8157
L81.5121 45.8157
" />
<path d="M81.5121 45.8157
L81.6330 45.7552
" />
<path d="M82.2377 46.2995
L82.2377 45.4529
" />
<path d="M82.2377 45.6948
L82.2982 45.5738
" />
<path d="M82.2982 45.5738
L82.3587 45.5133
" />
<path d="M82.3587 45.5133
L82.4796 45.4529
" />
<path d="M82.4796 45.4529
L82.6006 45.4529
" />
<path d="M83.0239 46.1786
L83.0844 46.2391
" />
<path d="M83.0844 46.2391
L83.0239 46.2995
" />
<path d="M83.0239 46.2995
L82.9635 46.2391
" />
<path d="M82.9635 46.2391
L83.0239 46.1786
" />
<path d="M83.0239 46.1786
L83.0239 46.2995
" />
<path d="M83.0239 45.5133
L83.0844 45.5738
" />
<path d="M83.0844 45.5738
L83.0239 45.6343
" />
<path d="M83.0239 45.6343
L82.9635 45.5738
" />
<path d="M82.9635 45.5738
L83.0239 45.5133
" />
<path d="M83.0239 45.5133
L83.0239 45.6343
" />
<path d="M84.8382 45.0295
L84.9592 45.0295
" />
<path d="M84.9592 45.0295
L85.0801 45.0900
" />
<path d="M85.0801 45.0900
L85.1406 45.1505
" />
<path d="M85.1406 45.1505
L85.2011 45.2714
" />
<path d="M85.2011 45.2714
L85.2616 45.5133
" />
<path d="M85.2616 45.5133
L85.2616 45.8157
" />
<path d="M85.2616 45.8157
L85.2011 46.0576
" />
<path d="M85.2011 46.0576
L85.1406 46.1786
" />
<path d="M85.1406 46.1786
L85.0801 46.2391
" />
<path d="M85.0801 46.2391
L84.9592 46.2995
" />
<path d="M84.9592 46.2995
L84.8382 46.2995
" />
<path d="M84.8382 46.2995
L84.7173 46.2391
" />
<path d="M84.7173 46.2391
L84.6568 46.1786
" />
<path d="M84.6568 46.1786
L84.5963 46.0576
" />
<path d="M84.5963 46.0576
L84.5359 45.8157
" />
<path d="M84.5359 45.8157
L84.5359 45.5133
" />
<path d="M84.5359 45.5133
L84.5963 45.2714
" />
<path d="M84.5963 45.2714
L84.6568 45.1505
" />
<path d="M84.6568 45.1505
L84.7173 45.0900
" />
<path d="M84.7173 45.0900
L84.8382 45.0295
" />
</g><text x="82.8123" y="48.8950"
textLength="10.6654" font-size="1.6933" lengthAdjust="spacingAndGlyphs"
text-anchor="middle" opacity="0">dcvarlot: 0</text>
<g class="stroked-text"><desc>dcvarlot: 0</desc>
<path d="M78.4278 48.8395
L78.4278 47.5695
" />
<path d="M78.4278 48.7791
L78.3069 48.8395
" />
<path d="M78.3069 48.8395
L78.0650 48.8395
" />
<path d="M78.0650 48.8395
L77.9440 48.7791
" />
<path d="M77.9440 48.7791
L77.8835 48.7186
" />
<path d="M77.8835 48.7186
L77.8231 48.5976
" />
<path d="M77.8231 48.5976
L77.8231 48.2348
" />
<path d="M77.8231 48.2348
L77.8835 48.1138
" />
<path d="M77.8835 48.1138
L77.9440 48.0533
" />
<path d="M77.9440 48.0533
L78.0650 47.9929
" />
<path d="M78.0650 47.9929
L78.3069 47.9929
" />
<path d="M78.3069 47.9929
L78.4278 48.0533
" />
<path d="M79.5768 48.7791
L79.4559 48.8395
" />
<path d="M79.4559 48.8395
L79.2140 48.8395
" />
<path d="M79.2140 48.8395
L79.0930 48.7791
" />
<path d="M79.0930 48.7791
L79.0325 48.7186
" />
<path d="M79.0325 48.7186
L78.9721 48.5976
" />
<path d="M78.9721 48.5976
L78.9721 48.2348
" />
<path d="M78.9721 48.2348
L79.0325 48.1138
" />
<path d="M79.0325 48.1138
L79.0930 48.0533
" />
<path d="M79.0930 48.0533
L79.2140 47.9929
" />
<path d="M79.2140 47.9929
L79.4559 47.9929
" />
<path d="M79.4559 47.9929
L79.5768 48.0533
" />
<path d="M80.0002 47.9929
L80.3026 48.8395
" />
<path d="M80.3026 48.8395
L80.6049 47.9929
" />
<path d="M81.6330 48.8395
L81.6330 48.1743
" />
<path d="M81.6330 48.1743
L81.5725 48.0533
" />
<path d="M81.5725 48.0533
L81.4516 47.9929
" />
<path d="M81.4516 47.9929
L81.2097 47.9929
" />
<path d="M81.2097 47.9929
L81.0887 48.0533
" />
<path d="M81.6330 48.7791
L81.5121 48.8395
" />
<path d="M81.5121 48.8395
L81.2097 48.8395
" />
<path d="M81.2097 48.8395
L81.0887 48.7791
" />
<path d="M81.0887 48.7791
L81.0283 48.6581
" />
<path d="M81.0283 48.6581
L81.0283 48.5371
" />
<path d="M81.0283 48.5371
L81.0887 48.4162
" />
<path d="M81.0887 48.4162
L81.2097 48.3557
" />
<path d="M81.2097 48.3557
L81.5121 48.3557
" />
<path d="M81.5121 48.3557
L81.6330 48.2952
" />
<path d="M82.2377 48.8395
L82.2377 47.9929
" />
<path d="M82.2377 48.2348
L82.2982 48.1138
" />
<path d="M82.2982 48.1138
L82.3587 48.0533
" />
<path d="M82.3587 48.0533
L82.4796 47.9929
" />
<path d="M82.4796 47.9929
L82.6006 47.9929
" />
<path d="M83.2054 48.8395
L83.0844 48.7791
" />
<path d="M83.0844 48.7791
L83.0239 48.6581
" />
<path d="M83.0239 48.6581
L83.0239 47.5695
" />
<path d="M83.8706 48.8395
L83.7496 48.7791
" />
<path d="M83.7496 48.7791
L83.6891 48.7186
" />
<path d="M83.6891 48.7186
L83.6287 48.5976
" />
<path d="M83.6287 48.5976
L83.6287 48.2348
" />
<path d="M83.6287 48.2348
L83.6891 48.1138
" />
<path d="M83.6891 48.1138
L83.7496 48.0533
" />
<path d="M83.7496 48.0533
L83.8706 47.9929
" />
<path d="M83.8706 47.9929
L84.0520 47.9929
" />
<path d="M84.0520 47.9929
L84.1729 48.0533
" />
<path d="M84.1729 48.0533
L84.2334 48.1138
" />
<path d="M84.2334 48.1138
L84.2939 48.2348
" />
<path d="M84.2939 48.2348
L84.2939 48.5976
" />
<path d="M84.2939 48.5976
L84.2334 48.7186
" />
<path d="M84.2334 48.7186
L84.1729 48.7791
" />
<path d="M84.1729 48.7791
L84.0520 48.8395
" />
<path d="M84.0520 48.8395
L83.8706 48.8395
" />
<path d="M84.6567 47.9929
L85.1405 47.9929
" />
<path d="M84.8381 47.5695
L84.8381 48.6581
" />
<path d="M84.8381 48.6581
L84.8986 48.7791
" />
<path d="M84.8986 48.7791
L85.0196 48.8395
" />
<path d="M85.0196 48.8395
L85.1405 48.8395
" />
<path d="M85.5638 48.7186
L85.6243 48.7791
" />
<path d="M85.6243 48.7791
L85.5638 48.8395
" />
<path d="M85.5638 48.8395
L85.5034 48.7791
" />
<path d="M85.5034 48.7791
L85.5638 48.7186
" />
<path d="M85.5638 48.7186
L85.5638 48.8395
" />
<path d="M85.5638 48.0533
L85.6243 48.1138
" />
<path d="M85.6243 48.1138
L85.5638 48.1743
" />
<path d="M85.5638 48.1743
L85.5034 48.1138
" />
<path d="M85.5034 48.1138
L85.5638 48.0533
" />
<path d="M85.5638 48.0533
L85.5638 48.1743
" />
<path d="M87.3781 47.5695
L87.4991 47.5695
" />
<path d="M87.4991 47.5695
L87.6200 47.6300
" />
<path d="M87.6200 47.6300
L87.6805 47.6905
" />
<path d="M87.6805 47.6905
L87.7410 47.8114
" />
<path d="M87.7410 47.8114
L87.8015 48.0533
" />
<path d="M87.8015 48.0533
L87.8015 48.3557
" />
<path d="M87.8015 48.3557
L87.7410 48.5976
" />
<path d="M87.7410 48.5976
L87.6805 48.7186
" />
<path d="M87.6805 48.7186
L87.6200 48.7791
" />
<path d="M87.6200 48.7791
L87.4991 48.8395
" />
<path d="M87.4991 48.8395
L87.3781 48.8395
" />
<path d="M87.3781 48.8395
L87.2572 48.7791
" />
<path d="M87.2572 48.7791
L87.1967 48.7186
" />
<path d="M87.1967 48.7186
L87.1362 48.5976
" />
<path d="M87.1362 48.5976
L87.0758 48.3557
" />
<path d="M87.0758 48.3557
L87.0758 48.0533
" />
<path d="M87.0758 48.0533
L87.1362 47.8114
" />
<path d="M87.1362 47.8114
L87.1967 47.6905
" />
<path d="M87.1967 47.6905
L87.2572 47.6300
" />
<path d="M87.2572 47.6300
L87.3781 47.5695
" />
</g></g>
</g>
<g style="fill:#840084; fill-opacity:0.0; 
stroke:#840084; stroke-width:0.1524; stroke-opacity:1; 
stroke-linecap:round; stroke-linejoin:round;">
<g >
</g>
<g style="fill:#840000; fill-opacity:0.0; 
stroke:#840000; stroke-width:0.1524; stroke-opacity:1; 
stroke-linecap:round; stroke-linejoin:round;">
<path style="fill:#840000; fill-opacity:0.0; 
stroke:#840000; stroke-width:0.1524; stroke-opacity:1; 
stroke-linecap:round; stroke-linejoin:round;fill:none"
d="M 64.7700,69.8500
66.0400,71.1200
67.3100,69.8500
Z" /> 
</g>
</g>
<g style="fill:#840000; fill-opacity:0.0; 
stroke:#840000; stroke-width:0.1524; stroke-opacity:1; 
stroke-linecap:round; stroke-linejoin:round;">
<g >
<path style="fill:#840000; fill-opacity:0.0; 
stroke:#840000; stroke-width:0.1524; stroke-opacity:1; 
stroke-linecap:round; stroke-linejoin:round;fill:none"
d="M 63.5000,76.2000
81.2800,76.2000
" /> 
</g>
<g style="fill:#006464; fill-opacity:0.0; 
stroke:#006464; stroke-width:0.1524; stroke-opacity:1; 
stroke-linecap:round; stroke-linejoin:round;">
<text x="64.7602" y="75.5650"
textLength="2.5013" font-size="1.6933" lengthAdjust="spacingAndGlyphs"
text-anchor="middle" opacity="0">A1</text>
<g class="stroked-text"><desc>A1</desc>
<path d="M63.8531 75.1467
L64.4578 75.1467
" />
<path d="M63.7321 75.5095
L64.1554 74.2395
" />
<path d="M64.1554 74.2395
L64.5788 75.5095
" />
<path d="M65.6674 75.5095
L64.9417 75.5095
" />
<path d="M65.3045 75.5095
L65.3045 74.2395
" />
<path d="M65.3045 74.2395
L65.1836 74.4210
" />
<path d="M65.1836 74.4210
L65.0626 74.5419
" />
<path d="M65.0626 74.5419
L64.9417 74.6024
" />
</g></g>
<g style="fill:#840084; fill-opacity:0.0; 
stroke:#840084; stroke-width:0.1524; stroke-opacity:1; 
stroke-linecap:round; stroke-linejoin:round;">
<text x="83.5078" y="78.1050"
textLength="39.9964" font-size="1.6933" lengthAdjust="spacingAndGlyphs"
text-anchor="middle" opacity="0">.param R=1k C={1/(2*pi*R*f_c)} f_c=1k</text>
<g class="stroked-text"><desc>.param R=1k C={1/(2*pi*R*f_c)} f_c=1k</desc>
<path d="M63.9135 77.9286
L63.9740 77.9891
" />
<path d="M63.9740 77.9891
L63.9135 78.0495
" />
<path d="M63.9135 78.0495
L63.8531 77.9891
" />
<path d="M63.8531 77.9891
L63.9135 77.9286
" />
<path d="M63.9135 77.9286
L63.9135 78.0495
" />
<path d="M64.5183 77.2029
L64.5183 78.4729
" />
<path d="M64.5183 77.2633
L64.6393 77.2029
" />
<path d="M64.6393 77.2029
L64.8812 77.2029
" />
<path d="M64.8812 77.2029
L65.0021 77.2633
" />
<path d="M65.0021 77.2633
L65.0626 77.3238
" />
<path d="M65.0626 77.3238
L65.1231 77.4448
" />
<path d="M65.1231 77.4448
L65.1231 77.8076
" />
<path d="M65.1231 77.8076
L65.0626 77.9286
" />
<path d="M65.0626 77.9286
L65.0021 77.9891
" />
<path d="M65.0021 77.9891
L64.8812 78.0495
" />
<path d="M64.8812 78.0495
L64.6393 78.0495
" />
<path d="M64.6393 78.0495
L64.5183 77.9891
" />
<path d="M66.2116 78.0495
L66.2116 77.3843
" />
<path d="M66.2116 77.3843
L66.1511 77.2633
" />
<path d="M66.1511 77.2633
L66.0302 77.2029
" />
<path d="M66.0302 77.2029
L65.7883 77.2029
" />
<path d="M65.7883 77.2029
L65.6673 77.2633
" />
<path d="M66.2116 77.9891
L66.0907 78.0495
" />
<path d="M66.0907 78.0495
L65.7883 78.0495
" />
<path d="M65.7883 78.0495
L65.6673 77.9891
" />
<path d="M65.6673 77.9891
L65.6069 77.8681
" />
<path d="M65.6069 77.8681
L65.6069 77.7471
" />
<path d="M65.6069 77.7471
L65.6673 77.6262
" />
<path d="M65.6673 77.6262
L65.7883 77.5657
" />
<path d="M65.7883 77.5657
L66.0907 77.5657
" />
<path d="M66.0907 77.5657
L66.2116 77.5052
" />
<path d="M66.8163 78.0495
L66.8163 77.2029
" />
<path d="M66.8163 77.4448
L66.8768 77.3238
" />
<path d="M66.8768 77.3238
L66.9373 77.2633
" />
<path d="M66.9373 77.2633
L67.0582 77.2029
" />
<path d="M67.0582 77.2029
L67.1792 77.2029
" />
<path d="M68.1468 78.0495
L68.1468 77.3843
" />
<path d="M68.1468 77.3843
L68.0863 77.2633
" />
<path d="M68.0863 77.2633
L67.9654 77.2029
" />
<path d="M67.9654 77.2029
L67.7235 77.2029
" />
<path d="M67.7235 77.2029
L67.6025 77.2633
" />
<path d="M68.1468 77.9891
L68.0259 78.0495
" />
<path d="M68.0259 78.0495
L67.7235 78.0495
" />
<path d="M67.7235 78.0495
L67.6025 77.9891
" />
<path d="M67.6025 77.9891
L67.5421 77.8681
" />
<path d="M67.5421 77.8681
L67.5421 77.7471
" />
<path d="M67.5421 77.7471
L67.6025 77.6262
" />
<path d="M67.6025 77.6262
L67.7235 77.5657
" />
<path d="M67.7235 77.5657
L68.0259 77.5657
" />
<path d="M68.0259 77.5657
L68.1468 77.5052
" />
<path d="M68.7515 78.0495
L68.7515 77.2029
" />
<path d="M68.7515 77.3238
L68.8120 77.2633
" />
<path d="M68.8120 77.2633
L68.9330 77.2029
" />
<path d="M68.9330 77.2029
L69.1144 77.2029
" />
<path d="M69.1144 77.2029
L69.2353 77.2633
" />
<path d="M69.2353 77.2633
L69.2958 77.3843
" />
<path d="M69.2958 77.3843
L69.2958 78.0495
" />
<path d="M69.2958 77.3843
L69.3563 77.2633
" />
<path d="M69.3563 77.2633
L69.4772 77.2029
" />
<path d="M69.4772 77.2029
L69.6587 77.2029
" />
<path d="M69.6587 77.2029
L69.7796 77.2633
" />
<path d="M69.7796 77.2633
L69.8401 77.3843
" />
<path d="M69.8401 77.3843
L69.8401 78.0495
" />
<path d="M72.1381 78.0495
L71.7148 77.4448
" />
<path d="M71.4124 78.0495
L71.4124 76.7795
" />
<path d="M71.4124 76.7795
L71.8962 76.7795
" />
<path d="M71.8962 76.7795
L72.0172 76.8400
" />
<path d="M72.0172 76.8400
L72.0777 76.9005
" />
<path d="M72.0777 76.9005
L72.1381 77.0214
" />
<path d="M72.1381 77.0214
L72.1381 77.2029
" />
<path d="M72.1381 77.2029
L72.0777 77.3238
" />
<path d="M72.0777 77.3238
L72.0172 77.3843
" />
<path d="M72.0172 77.3843
L71.8962 77.4448
" />
<path d="M71.8962 77.4448
L71.4124 77.4448
" />
<path d="M72.6824 77.3843
L73.6501 77.3843
" />
<path d="M73.6501 77.7471
L72.6824 77.7471
" />
<path d="M74.9201 78.0495
L74.1944 78.0495
" />
<path d="M74.5572 78.0495
L74.5572 76.7795
" />
<path d="M74.5572 76.7795
L74.4363 76.9610
" />
<path d="M74.4363 76.9610
L74.3153 77.0819
" />
<path d="M74.3153 77.0819
L74.1944 77.1424
" />
<path d="M75.4643 78.0495
L75.4643 76.7795
" />
<path d="M75.5853 77.5657
L75.9481 78.0495
" />
<path d="M75.9481 77.2029
L75.4643 77.6867
" />
<path d="M78.1857 77.9286
L78.1253 77.9891
" />
<path d="M78.1253 77.9891
L77.9438 78.0495
" />
<path d="M77.9438 78.0495
L77.8229 78.0495
" />
<path d="M77.8229 78.0495
L77.6415 77.9891
" />
<path d="M77.6415 77.9891
L77.5205 77.8681
" />
<path d="M77.5205 77.8681
L77.4600 77.7471
" />
<path d="M77.4600 77.7471
L77.3996 77.5052
" />
<path d="M77.3996 77.5052
L77.3996 77.3238
" />
<path d="M77.3996 77.3238
L77.4600 77.0819
" />
<path d="M77.4600 77.0819
L77.5205 76.9610
" />
<path d="M77.5205 76.9610
L77.6415 76.8400
" />
<path d="M77.6415 76.8400
L77.8229 76.7795
" />
<path d="M77.8229 76.7795
L77.9438 76.7795
" />
<path d="M77.9438 76.7795
L78.1253 76.8400
" />
<path d="M78.1253 76.8400
L78.1857 76.9005
" />
<path d="M78.7300 77.3843
L79.6977 77.3843
" />
<path d="M79.6977 77.7471
L78.7300 77.7471
" />
<path d="M80.6653 78.5333
L80.6048 78.5333
" />
<path d="M80.6048 78.5333
L80.4839 78.4729
" />
<path d="M80.4839 78.4729
L80.4234 78.3519
" />
<path d="M80.4234 78.3519
L80.4234 77.7471
" />
<path d="M80.4234 77.7471
L80.3629 77.6262
" />
<path d="M80.3629 77.6262
L80.2420 77.5657
" />
<path d="M80.2420 77.5657
L80.3629 77.5052
" />
<path d="M80.3629 77.5052
L80.4234 77.3843
" />
<path d="M80.4234 77.3843
L80.4234 76.7795
" />
<path d="M80.4234 76.7795
L80.4839 76.6586
" />
<path d="M80.4839 76.6586
L80.6048 76.5981
" />
<path d="M80.6048 76.5981
L80.6653 76.5981
" />
<path d="M81.8144 78.0495
L81.0887 78.0495
" />
<path d="M81.4515 78.0495
L81.4515 76.7795
" />
<path d="M81.4515 76.7795
L81.3306 76.9610
" />
<path d="M81.3306 76.9610
L81.2096 77.0819
" />
<path d="M81.2096 77.0819
L81.0887 77.1424
" />
<path d="M83.2658 76.7191
L82.1772 78.3519
" />
<path d="M84.0520 78.5333
L83.9915 78.4729
" />
<path d="M83.9915 78.4729
L83.8706 78.2914
" />
<path d="M83.8706 78.2914
L83.8101 78.1705
" />
<path d="M83.8101 78.1705
L83.7496 77.9891
" />
<path d="M83.7496 77.9891
L83.6891 77.6867
" />
<path d="M83.6891 77.6867
L83.6891 77.4448
" />
<path d="M83.6891 77.4448
L83.7496 77.1424
" />
<path d="M83.7496 77.1424
L83.8101 76.9610
" />
<path d="M83.8101 76.9610
L83.8706 76.8400
" />
<path d="M83.8706 76.8400
L83.9915 76.6586
" />
<path d="M83.9915 76.6586
L84.0520 76.5981
" />
<path d="M84.4754 76.9005
L84.5358 76.8400
" />
<path d="M84.5358 76.8400
L84.6568 76.7795
" />
<path d="M84.6568 76.7795
L84.9592 76.7795
" />
<path d="M84.9592 76.7795
L85.0801 76.8400
" />
<path d="M85.0801 76.8400
L85.1406 76.9005
" />
<path d="M85.1406 76.9005
L85.2011 77.0214
" />
<path d="M85.2011 77.0214
L85.2011 77.1424
" />
<path d="M85.2011 77.1424
L85.1406 77.3238
" />
<path d="M85.1406 77.3238
L84.4149 78.0495
" />
<path d="M84.4149 78.0495
L85.2011 78.0495
" />
<path d="M85.9268 76.7795
L85.9268 77.0819
" />
<path d="M85.6244 76.9610
L85.9268 77.0819
" />
<path d="M85.9268 77.0819
L86.2291 76.9610
" />
<path d="M85.7453 77.3238
L85.9268 77.0819
" />
<path d="M85.9268 77.0819
L86.1082 77.3238
" />
<path d="M86.7129 77.2029
L86.7129 78.4729
" />
<path d="M86.7129 77.2633
L86.8339 77.2029
" />
<path d="M86.8339 77.2029
L87.0758 77.2029
" />
<path d="M87.0758 77.2029
L87.1967 77.2633
" />
<path d="M87.1967 77.2633
L87.2572 77.3238
" />
<path d="M87.2572 77.3238
L87.3177 77.4448
" />
<path d="M87.3177 77.4448
L87.3177 77.8076
" />
<path d="M87.3177 77.8076
L87.2572 77.9286
" />
<path d="M87.2572 77.9286
L87.1967 77.9891
" />
<path d="M87.1967 77.9891
L87.0758 78.0495
" />
<path d="M87.0758 78.0495
L86.8339 78.0495
" />
<path d="M86.8339 78.0495
L86.7129 77.9891
" />
<path d="M87.8619 78.0495
L87.8619 77.2029
" />
<path d="M87.8619 76.7795
L87.8015 76.8400
" />
<path d="M87.8015 76.8400
L87.8619 76.9005
" />
<path d="M87.8619 76.9005
L87.9224 76.8400
" />
<path d="M87.9224 76.8400
L87.8619 76.7795
" />
<path d="M87.8619 76.7795
L87.8619 76.9005
" />
<path d="M88.6482 76.7795
L88.6482 77.0819
" />
<path d="M88.3458 76.9610
L88.6482 77.0819
" />
<path d="M88.6482 77.0819
L88.9505 76.9610
" />
<path d="M88.4667 77.3238
L88.6482 77.0819
" />
<path d="M88.6482 77.0819
L88.8296 77.3238
" />
<path d="M90.1600 78.0495
L89.7367 77.4448
" />
<path d="M89.4343 78.0495
L89.4343 76.7795
" />
<path d="M89.4343 76.7795
L89.9181 76.7795
" />
<path d="M89.9181 76.7795
L90.0391 76.8400
" />
<path d="M90.0391 76.8400
L90.0996 76.9005
" />
<path d="M90.0996 76.9005
L90.1600 77.0214
" />
<path d="M90.1600 77.0214
L90.1600 77.2029
" />
<path d="M90.1600 77.2029
L90.0996 77.3238
" />
<path d="M90.0996 77.3238
L90.0391 77.3843
" />
<path d="M90.0391 77.3843
L89.9181 77.4448
" />
<path d="M89.9181 77.4448
L89.4343 77.4448
" />
<path d="M90.8858 76.7795
L90.8858 77.0819
" />
<path d="M90.5834 76.9610
L90.8858 77.0819
" />
<path d="M90.8858 77.0819
L91.1881 76.9610
" />
<path d="M90.7043 77.3238
L90.8858 77.0819
" />
<path d="M90.8858 77.0819
L91.0672 77.3238
" />
<path d="M91.4905 77.2029
L91.9743 77.2029
" />
<path d="M91.6719 78.0495
L91.6719 76.9610
" />
<path d="M91.6719 76.9610
L91.7324 76.8400
" />
<path d="M91.7324 76.8400
L91.8534 76.7795
" />
<path d="M91.8534 76.7795
L91.9743 76.7795
" />
<path d="M92.0953 78.1705
L93.0629 78.1705
" />
<path d="M93.9095 77.9891
L93.7886 78.0495
" />
<path d="M93.7886 78.0495
L93.5467 78.0495
" />
<path d="M93.5467 78.0495
L93.4257 77.9891
" />
<path d="M93.4257 77.9891
L93.3652 77.9286
" />
<path d="M93.3652 77.9286
L93.3048 77.8076
" />
<path d="M93.3048 77.8076
L93.3048 77.4448
" />
<path d="M93.3048 77.4448
L93.3652 77.3238
" />
<path d="M93.3652 77.3238
L93.4257 77.2633
" />
<path d="M93.4257 77.2633
L93.5467 77.2029
" />
<path d="M93.5467 77.2029
L93.7886 77.2029
" />
<path d="M93.7886 77.2029
L93.9095 77.2633
" />
<path d="M94.3329 78.5333
L94.3934 78.4729
" />
<path d="M94.3934 78.4729
L94.5143 78.2914
" />
<path d="M94.5143 78.2914
L94.5748 78.1705
" />
<path d="M94.5748 78.1705
L94.6353 77.9891
" />
<path d="M94.6353 77.9891
L94.6957 77.6867
" />
<path d="M94.6957 77.6867
L94.6957 77.4448
" />
<path d="M94.6957 77.4448
L94.6353 77.1424
" />
<path d="M94.6353 77.1424
L94.5748 76.9610
" />
<path d="M94.5748 76.9610
L94.5143 76.8400
" />
<path d="M94.5143 76.8400
L94.3934 76.6586
" />
<path d="M94.3934 76.6586
L94.3329 76.5981
" />
<path d="M95.1796 78.5333
L95.2401 78.5333
" />
<path d="M95.2401 78.5333
L95.3610 78.4729
" />
<path d="M95.3610 78.4729
L95.4215 78.3519
" />
<path d="M95.4215 78.3519
L95.4215 77.7471
" />
<path d="M95.4215 77.7471
L95.4820 77.6262
" />
<path d="M95.4820 77.6262
L95.6029 77.5657
" />
<path d="M95.6029 77.5657
L95.4820 77.5052
" />
<path d="M95.4820 77.5052
L95.4215 77.3843
" />
<path d="M95.4215 77.3843
L95.4215 76.7795
" />
<path d="M95.4215 76.7795
L95.3610 76.6586
" />
<path d="M95.3610 76.6586
L95.2401 76.5981
" />
<path d="M95.2401 76.5981
L95.1796 76.5981
" />
<path d="M96.9334 77.2029
L97.4172 77.2029
" />
<path d="M97.1148 78.0495
L97.1148 76.9610
" />
<path d="M97.1148 76.9610
L97.1753 76.8400
" />
<path d="M97.1753 76.8400
L97.2963 76.7795
" />
<path d="M97.2963 76.7795
L97.4172 76.7795
" />
<path d="M97.5382 78.1705
L98.5058 78.1705
" />
<path d="M99.3524 77.9891
L99.2315 78.0495
" />
<path d="M99.2315 78.0495
L98.9896 78.0495
" />
<path d="M98.9896 78.0495
L98.8686 77.9891
" />
<path d="M98.8686 77.9891
L98.8081 77.9286
" />
<path d="M98.8081 77.9286
L98.7477 77.8076
" />
<path d="M98.7477 77.8076
L98.7477 77.4448
" />
<path d="M98.7477 77.4448
L98.8081 77.3238
" />
<path d="M98.8081 77.3238
L98.8686 77.2633
" />
<path d="M98.8686 77.2633
L98.9896 77.2029
" />
<path d="M98.9896 77.2029
L99.2315 77.2029
" />
<path d="M99.2315 77.2029
L99.3524 77.2633
" />
<path d="M99.8967 77.3843
L100.8644 77.3843
" />
<path d="M100.8644 77.7471
L99.8967 77.7471
" />
<path d="M102.1344 78.0495
L101.4087 78.0495
" />
<path d="M101.7715 78.0495
L101.7715 76.7795
" />
<path d="M101.7715 76.7795
L101.6506 76.9610
" />
<path d="M101.6506 76.9610
L101.5296 77.0819
" />
<path d="M101.5296 77.0819
L101.4087 77.1424
" />
<path d="M102.6786 78.0495
L102.6786 76.7795
" />
<path d="M102.7996 77.5657
L103.1624 78.0495
" />
<path d="M103.1624 77.2029
L102.6786 77.6867
" />
</g></g>
</g>
<g style="fill:#840084; fill-opacity:0.0; 
stroke:#840084; stroke-width:0.1588; stroke-opacity:1; 
stroke-linecap:round; stroke-linejoin:round;">
</g>
<g style="fill:#840084; fill-opacity:0.0; 
stroke:#840084; stroke-width:0.1524; stroke-opacity:1; 
stroke-linecap:round; stroke-linejoin:round;">
</g>
<g style="fill:#0F0F0F; fill-opacity:0.0; 
stroke:#0F0F0F; stroke-width:0.1524; stroke-opacity:1; 
stroke-linecap:round; stroke-linejoin:round;">
<text x="91.4400" y="51.8096"
textLength="3.2269" font-size="1.6933" lengthAdjust="spacingAndGlyphs"
text-anchor="start" opacity="0">out</text>
<g class="stroked-text"><desc>out</desc>
<path d="M92.0240 51.6461
L91.9030 51.5857
" />
<path d="M91.9030 51.5857
L91.8425 51.5252
" />
<path d="M91.8425 51.5252
L91.7821 51.4042
" />
<path d="M91.7821 51.4042
L91.7821 51.0414
" />
<path d="M91.7821 51.0414
L91.8425 50.9204
" />
<path d="M91.8425 50.9204
L91.9030 50.8599
" />
<path d="M91.9030 50.8599
L92.0240 50.7995
" />
<path d="M92.0240 50.7995
L92.2054 50.7995
" />
<path d="M92.2054 50.7995
L92.3263 50.8599
" />
<path d="M92.3263 50.8599
L92.3868 50.9204
" />
<path d="M92.3868 50.9204
L92.4473 51.0414
" />
<path d="M92.4473 51.0414
L92.4473 51.4042
" />
<path d="M92.4473 51.4042
L92.3868 51.5252
" />
<path d="M92.3868 51.5252
L92.3263 51.5857
" />
<path d="M92.3263 51.5857
L92.2054 51.6461
" />
<path d="M92.2054 51.6461
L92.0240 51.6461
" />
<path d="M93.5358 50.7995
L93.5358 51.6461
" />
<path d="M92.9915 50.7995
L92.9915 51.4647
" />
<path d="M92.9915 51.4647
L93.0520 51.5857
" />
<path d="M93.0520 51.5857
L93.1730 51.6461
" />
<path d="M93.1730 51.6461
L93.3544 51.6461
" />
<path d="M93.3544 51.6461
L93.4753 51.5857
" />
<path d="M93.4753 51.5857
L93.5358 51.5252
" />
<path d="M93.9591 50.7995
L94.4429 50.7995
" />
<path d="M94.1405 50.3761
L94.1405 51.4647
" />
<path d="M94.1405 51.4647
L94.2010 51.5857
" />
<path d="M94.2010 51.5857
L94.3220 51.6461
" />
<path d="M94.3220 51.6461
L94.4429 51.6461
" />
</g></g>
<g style="fill:#009600; fill-opacity:0.0; 
stroke:#009600; stroke-width:0.1524; stroke-opacity:1; 
stroke-linecap:round; stroke-linejoin:round;">
<path d="M93.9800 64.7700
L93.9800 67.3100
" />
<path d="M93.9800 54.6100
L93.9800 52.0700
" />
<path d="M93.9800 52.0700
L86.3600 52.0700
" />
<path d="M66.0400 52.0700
L66.0400 54.6100
" />
<path d="M66.0400 64.7700
L66.0400 67.3100
" />
<path d="M76.2000 52.0700
L66.0400 52.0700
" />
<path d="M66.0400 67.3100
L66.0400 69.8500
" />
<path d="M66.0400 67.3100
L93.9800 67.3100
" />
</g>
<g style="fill:#009600; fill-opacity:1.0000; 
stroke:#009600; stroke-width:0.1524; stroke-opacity:1; 
stroke-linecap:round; stroke-linejoin:round;">
<circle cx="66.0400" cy="67.3100" r="0.4572" /> 
</g> 
</svg>
