<?xml version="1.0" encoding="utf-8" standalone="no"?>
<!DOCTYPE svg PUBLIC "-//W3C//DTD SVG 1.1//EN"
  "http://www.w3.org/Graphics/SVG/1.1/DTD/svg11.dtd">
<!-- Created with matplotlib (http://matplotlib.org/) -->
<svg height="360pt" version="1.1" viewBox="0 0 504 360" width="504pt" xmlns="http://www.w3.org/2000/svg" xmlns:xlink="http://www.w3.org/1999/xlink">
 <defs>
  <style type="text/css">
*{stroke-linecap:butt;stroke-linejoin:round;}
  </style>
 </defs>
 <g id="figure_1">
  <g id="patch_1">
   <path d="M 0 360 
L 504 360 
L 504 0 
L 0 0 
z
" style="fill:#ffffff;"/>
  </g>
  <g id="axes_1">
   <g id="patch_2">
    <path d="M 68.667768 310.768 
L 490.68 310.768 
L 490.68 26.88 
L 68.667768 26.88 
z
" style="fill:#ffffff;"/>
   </g>
   <g id="matplotlib.axis_1">
    <g id="xtick_1">
     <g id="line2d_1">
      <path clip-path="url(#p4087108aec)" d="M 87.850142 310.768 
L 87.850142 26.88 
" style="fill:none;stroke:#808080;stroke-linecap:square;stroke-width:0.8;"/>
     </g>
     <g id="line2d_2">
      <defs>
       <path d="M 0 0 
L 0 3.5 
" id="m4ed8e5901d" style="stroke:#000000;stroke-width:0.8;"/>
      </defs>
      <g>
       <use style="stroke:#000000;stroke-width:0.8;" x="87.850142" xlink:href="#m4ed8e5901d" y="310.768"/>
      </g>
     </g>
     <g id="text_1">
      <!-- $\mathdefault{10^{-1}}$ -->
      <defs>
       <path d="M 12.40625 8.296875 
L 28.515625 8.296875 
L 28.515625 63.921875 
L 10.984375 60.40625 
L 10.984375 69.390625 
L 28.421875 72.90625 
L 38.28125 72.90625 
L 38.28125 8.296875 
L 54.390625 8.296875 
L 54.390625 0 
L 12.40625 0 
z
" id="DejaVuSans-31"/>
       <path d="M 31.78125 66.40625 
Q 24.171875 66.40625 20.328125 58.90625 
Q 16.5 51.421875 16.5 36.375 
Q 16.5 21.390625 20.328125 13.890625 
Q 24.171875 6.390625 31.78125 6.390625 
Q 39.453125 6.390625 43.28125 13.890625 
Q 47.125 21.390625 47.125 36.375 
Q 47.125 51.421875 43.28125 58.90625 
Q 39.453125 66.40625 31.78125 66.40625 
z
M 31.78125 74.21875 
Q 44.046875 74.21875 50.515625 64.515625 
Q 56.984375 54.828125 56.984375 36.375 
Q 56.984375 17.96875 50.515625 8.265625 
Q 44.046875 -1.421875 31.78125 -1.421875 
Q 19.53125 -1.421875 13.0625 8.265625 
Q 6.59375 17.96875 6.59375 36.375 
Q 6.59375 54.828125 13.0625 64.515625 
Q 19.53125 74.21875 31.78125 74.21875 
z
" id="DejaVuSans-30"/>
       <path d="M 10.59375 35.5 
L 73.1875 35.5 
L 73.1875 27.203125 
L 10.59375 27.203125 
z
" id="DejaVuSans-2212"/>
      </defs>
      <g transform="translate(73.750142 326.886125)scale(0.12 -0.12)">
       <use transform="translate(0 0.684375)" xlink:href="#DejaVuSans-31"/>
       <use transform="translate(63.623047 0.684375)" xlink:href="#DejaVuSans-30"/>
       <use transform="translate(128.203125 38.965625)scale(0.7)" xlink:href="#DejaVuSans-2212"/>
       <use transform="translate(186.855469 38.965625)scale(0.7)" xlink:href="#DejaVuSans-31"/>
      </g>
     </g>
    </g>
    <g id="xtick_2">
     <g id="line2d_3">
      <path clip-path="url(#p4087108aec)" d="M 142.656926 310.768 
L 142.656926 26.88 
" style="fill:none;stroke:#808080;stroke-linecap:square;stroke-width:0.8;"/>
     </g>
     <g id="line2d_4">
      <g>
       <use style="stroke:#000000;stroke-width:0.8;" x="142.656926" xlink:href="#m4ed8e5901d" y="310.768"/>
      </g>
     </g>
     <g id="text_2">
      <!-- $\mathdefault{10^{0}}$ -->
      <g transform="translate(132.096926 326.886125)scale(0.12 -0.12)">
       <use transform="translate(0 0.765625)" xlink:href="#DejaVuSans-31"/>
       <use transform="translate(63.623047 0.765625)" xlink:href="#DejaVuSans-30"/>
       <use transform="translate(128.203125 39.046875)scale(0.7)" xlink:href="#DejaVuSans-30"/>
      </g>
     </g>
    </g>
    <g id="xtick_3">
     <g id="line2d_5">
      <path clip-path="url(#p4087108aec)" d="M 197.463709 310.768 
L 197.463709 26.88 
" style="fill:none;stroke:#808080;stroke-linecap:square;stroke-width:0.8;"/>
     </g>
     <g id="line2d_6">
      <g>
       <use style="stroke:#000000;stroke-width:0.8;" x="197.463709" xlink:href="#m4ed8e5901d" y="310.768"/>
      </g>
     </g>
     <g id="text_3">
      <!-- $\mathdefault{10^{1}}$ -->
      <g transform="translate(186.903709 326.886125)scale(0.12 -0.12)">
       <use transform="translate(0 0.684375)" xlink:href="#DejaVuSans-31"/>
       <use transform="translate(63.623047 0.684375)" xlink:href="#DejaVuSans-30"/>
       <use transform="translate(128.203125 38.965625)scale(0.7)" xlink:href="#DejaVuSans-31"/>
      </g>
     </g>
    </g>
    <g id="xtick_4">
     <g id="line2d_7">
      <path clip-path="url(#p4087108aec)" d="M 252.270492 310.768 
L 252.270492 26.88 
" style="fill:none;stroke:#808080;stroke-linecap:square;stroke-width:0.8;"/>
     </g>
     <g id="line2d_8">
      <g>
       <use style="stroke:#000000;stroke-width:0.8;" x="252.270492" xlink:href="#m4ed8e5901d" y="310.768"/>
      </g>
     </g>
     <g id="text_4">
      <!-- $\mathdefault{10^{2}}$ -->
      <defs>
       <path d="M 19.1875 8.296875 
L 53.609375 8.296875 
L 53.609375 0 
L 7.328125 0 
L 7.328125 8.296875 
Q 12.9375 14.109375 22.625 23.890625 
Q 32.328125 33.6875 34.8125 36.53125 
Q 39.546875 41.84375 41.421875 45.53125 
Q 43.3125 49.21875 43.3125 52.78125 
Q 43.3125 58.59375 39.234375 62.25 
Q 35.15625 65.921875 28.609375 65.921875 
Q 23.96875 65.921875 18.8125 64.3125 
Q 13.671875 62.703125 7.8125 59.421875 
L 7.8125 69.390625 
Q 13.765625 71.78125 18.9375 73 
Q 24.125 74.21875 28.421875 74.21875 
Q 39.75 74.21875 46.484375 68.546875 
Q 53.21875 62.890625 53.21875 53.421875 
Q 53.21875 48.921875 51.53125 44.890625 
Q 49.859375 40.875 45.40625 35.40625 
Q 44.1875 33.984375 37.640625 27.21875 
Q 31.109375 20.453125 19.1875 8.296875 
z
" id="DejaVuSans-32"/>
      </defs>
      <g transform="translate(241.710492 326.886125)scale(0.12 -0.12)">
       <use transform="translate(0 0.765625)" xlink:href="#DejaVuSans-31"/>
       <use transform="translate(63.623047 0.765625)" xlink:href="#DejaVuSans-30"/>
       <use transform="translate(128.203125 39.046875)scale(0.7)" xlink:href="#DejaVuSans-32"/>
      </g>
     </g>
    </g>
    <g id="xtick_5">
     <g id="line2d_9">
      <path clip-path="url(#p4087108aec)" d="M 307.077276 310.768 
L 307.077276 26.88 
" style="fill:none;stroke:#808080;stroke-linecap:square;stroke-width:0.8;"/>
     </g>
     <g id="line2d_10">
      <g>
       <use style="stroke:#000000;stroke-width:0.8;" x="307.077276" xlink:href="#m4ed8e5901d" y="310.768"/>
      </g>
     </g>
     <g id="text_5">
      <!-- $\mathdefault{10^{3}}$ -->
      <defs>
       <path d="M 40.578125 39.3125 
Q 47.65625 37.796875 51.625 33 
Q 55.609375 28.21875 55.609375 21.1875 
Q 55.609375 10.40625 48.1875 4.484375 
Q 40.765625 -1.421875 27.09375 -1.421875 
Q 22.515625 -1.421875 17.65625 -0.515625 
Q 12.796875 0.390625 7.625 2.203125 
L 7.625 11.71875 
Q 11.71875 9.328125 16.59375 8.109375 
Q 21.484375 6.890625 26.8125 6.890625 
Q 36.078125 6.890625 40.9375 10.546875 
Q 45.796875 14.203125 45.796875 21.1875 
Q 45.796875 27.640625 41.28125 31.265625 
Q 36.765625 34.90625 28.71875 34.90625 
L 20.21875 34.90625 
L 20.21875 43.015625 
L 29.109375 43.015625 
Q 36.375 43.015625 40.234375 45.921875 
Q 44.09375 48.828125 44.09375 54.296875 
Q 44.09375 59.90625 40.109375 62.90625 
Q 36.140625 65.921875 28.71875 65.921875 
Q 24.65625 65.921875 20.015625 65.03125 
Q 15.375 64.15625 9.8125 62.3125 
L 9.8125 71.09375 
Q 15.4375 72.65625 20.34375 73.4375 
Q 25.25 74.21875 29.59375 74.21875 
Q 40.828125 74.21875 47.359375 69.109375 
Q 53.90625 64.015625 53.90625 55.328125 
Q 53.90625 49.265625 50.4375 45.09375 
Q 46.96875 40.921875 40.578125 39.3125 
z
" id="DejaVuSans-33"/>
      </defs>
      <g transform="translate(296.517276 326.886125)scale(0.12 -0.12)">
       <use transform="translate(0 0.765625)" xlink:href="#DejaVuSans-31"/>
       <use transform="translate(63.623047 0.765625)" xlink:href="#DejaVuSans-30"/>
       <use transform="translate(128.203125 39.046875)scale(0.7)" xlink:href="#DejaVuSans-33"/>
      </g>
     </g>
    </g>
    <g id="xtick_6">
     <g id="line2d_11">
      <path clip-path="url(#p4087108aec)" d="M 361.884059 310.768 
L 361.884059 26.88 
" style="fill:none;stroke:#808080;stroke-linecap:square;stroke-width:0.8;"/>
     </g>
     <g id="line2d_12">
      <g>
       <use style="stroke:#000000;stroke-width:0.8;" x="361.884059" xlink:href="#m4ed8e5901d" y="310.768"/>
      </g>
     </g>
     <g id="text_6">
      <!-- $\mathdefault{10^{4}}$ -->
      <defs>
       <path d="M 37.796875 64.3125 
L 12.890625 25.390625 
L 37.796875 25.390625 
z
M 35.203125 72.90625 
L 47.609375 72.90625 
L 47.609375 25.390625 
L 58.015625 25.390625 
L 58.015625 17.1875 
L 47.609375 17.1875 
L 47.609375 0 
L 37.796875 0 
L 37.796875 17.1875 
L 4.890625 17.1875 
L 4.890625 26.703125 
z
" id="DejaVuSans-34"/>
      </defs>
      <g transform="translate(351.324059 326.886125)scale(0.12 -0.12)">
       <use transform="translate(0 0.684375)" xlink:href="#DejaVuSans-31"/>
       <use transform="translate(63.623047 0.684375)" xlink:href="#DejaVuSans-30"/>
       <use transform="translate(128.203125 38.965625)scale(0.7)" xlink:href="#DejaVuSans-34"/>
      </g>
     </g>
    </g>
    <g id="xtick_7">
     <g id="line2d_13">
      <path clip-path="url(#p4087108aec)" d="M 416.690842 310.768 
L 416.690842 26.88 
" style="fill:none;stroke:#808080;stroke-linecap:square;stroke-width:0.8;"/>
     </g>
     <g id="line2d_14">
      <g>
       <use style="stroke:#000000;stroke-width:0.8;" x="416.690842" xlink:href="#m4ed8e5901d" y="310.768"/>
      </g>
     </g>
     <g id="text_7">
      <!-- $\mathdefault{10^{5}}$ -->
      <defs>
       <path d="M 10.796875 72.90625 
L 49.515625 72.90625 
L 49.515625 64.59375 
L 19.828125 64.59375 
L 19.828125 46.734375 
Q 21.96875 47.46875 24.109375 47.828125 
Q 26.265625 48.1875 28.421875 48.1875 
Q 40.625 48.1875 47.75 41.5 
Q 54.890625 34.8125 54.890625 23.390625 
Q 54.890625 11.625 47.5625 5.09375 
Q 40.234375 -1.421875 26.90625 -1.421875 
Q 22.3125 -1.421875 17.546875 -0.640625 
Q 12.796875 0.140625 7.71875 1.703125 
L 7.71875 11.625 
Q 12.109375 9.234375 16.796875 8.0625 
Q 21.484375 6.890625 26.703125 6.890625 
Q 35.15625 6.890625 40.078125 11.328125 
Q 45.015625 15.765625 45.015625 23.390625 
Q 45.015625 31 40.078125 35.4375 
Q 35.15625 39.890625 26.703125 39.890625 
Q 22.75 39.890625 18.8125 39.015625 
Q 14.890625 38.140625 10.796875 36.28125 
z
" id="DejaVuSans-35"/>
      </defs>
      <g transform="translate(406.130842 326.886125)scale(0.12 -0.12)">
       <use transform="translate(0 0.684375)" xlink:href="#DejaVuSans-31"/>
       <use transform="translate(63.623047 0.684375)" xlink:href="#DejaVuSans-30"/>
       <use transform="translate(128.203125 38.965625)scale(0.7)" xlink:href="#DejaVuSans-35"/>
      </g>
     </g>
    </g>
    <g id="xtick_8">
     <g id="line2d_15">
      <path clip-path="url(#p4087108aec)" d="M 471.497626 310.768 
L 471.497626 26.88 
" style="fill:none;stroke:#808080;stroke-linecap:square;stroke-width:0.8;"/>
     </g>
     <g id="line2d_16">
      <g>
       <use style="stroke:#000000;stroke-width:0.8;" x="471.497626" xlink:href="#m4ed8e5901d" y="310.768"/>
      </g>
     </g>
     <g id="text_8">
      <!-- $\mathdefault{10^{6}}$ -->
      <defs>
       <path d="M 33.015625 40.375 
Q 26.375 40.375 22.484375 35.828125 
Q 18.609375 31.296875 18.609375 23.390625 
Q 18.609375 15.53125 22.484375 10.953125 
Q 26.375 6.390625 33.015625 6.390625 
Q 39.65625 6.390625 43.53125 10.953125 
Q 47.40625 15.53125 47.40625 23.390625 
Q 47.40625 31.296875 43.53125 35.828125 
Q 39.65625 40.375 33.015625 40.375 
z
M 52.59375 71.296875 
L 52.59375 62.3125 
Q 48.875 64.0625 45.09375 64.984375 
Q 41.3125 65.921875 37.59375 65.921875 
Q 27.828125 65.921875 22.671875 59.328125 
Q 17.53125 52.734375 16.796875 39.40625 
Q 19.671875 43.65625 24.015625 45.921875 
Q 28.375 48.1875 33.59375 48.1875 
Q 44.578125 48.1875 50.953125 41.515625 
Q 57.328125 34.859375 57.328125 23.390625 
Q 57.328125 12.15625 50.6875 5.359375 
Q 44.046875 -1.421875 33.015625 -1.421875 
Q 20.359375 -1.421875 13.671875 8.265625 
Q 6.984375 17.96875 6.984375 36.375 
Q 6.984375 53.65625 15.1875 63.9375 
Q 23.390625 74.21875 37.203125 74.21875 
Q 40.921875 74.21875 44.703125 73.484375 
Q 48.484375 72.75 52.59375 71.296875 
z
" id="DejaVuSans-36"/>
      </defs>
      <g transform="translate(460.937626 326.886125)scale(0.12 -0.12)">
       <use transform="translate(0 0.765625)" xlink:href="#DejaVuSans-31"/>
       <use transform="translate(63.623047 0.765625)" xlink:href="#DejaVuSans-30"/>
       <use transform="translate(128.203125 39.046875)scale(0.7)" xlink:href="#DejaVuSans-36"/>
      </g>
     </g>
    </g>
    <g id="xtick_9">
     <g id="line2d_17">
      <path clip-path="url(#p4087108aec)" d="M 71.351656 310.768 
L 71.351656 26.88 
" style="fill:none;stroke:#808080;stroke-dasharray:0.8,1.32;stroke-dashoffset:0;stroke-width:0.8;"/>
     </g>
     <g id="line2d_18">
      <defs>
       <path d="M 0 0 
L 0 2 
" id="m9655f5f18a" style="stroke:#000000;stroke-width:0.6;"/>
      </defs>
      <g>
       <use style="stroke:#000000;stroke-width:0.6;" x="71.351656" xlink:href="#m9655f5f18a" y="310.768"/>
      </g>
     </g>
    </g>
    <g id="xtick_10">
     <g id="line2d_19">
      <path clip-path="url(#p4087108aec)" d="M 75.691326 310.768 
L 75.691326 26.88 
" style="fill:none;stroke:#808080;stroke-dasharray:0.8,1.32;stroke-dashoffset:0;stroke-width:0.8;"/>
     </g>
     <g id="line2d_20">
      <g>
       <use style="stroke:#000000;stroke-width:0.6;" x="75.691326" xlink:href="#m9655f5f18a" y="310.768"/>
      </g>
     </g>
    </g>
    <g id="xtick_11">
     <g id="line2d_21">
      <path clip-path="url(#p4087108aec)" d="M 79.360464 310.768 
L 79.360464 26.88 
" style="fill:none;stroke:#808080;stroke-dasharray:0.8,1.32;stroke-dashoffset:0;stroke-width:0.8;"/>
     </g>
     <g id="line2d_22">
      <g>
       <use style="stroke:#000000;stroke-width:0.6;" x="79.360464" xlink:href="#m9655f5f18a" y="310.768"/>
      </g>
     </g>
    </g>
    <g id="xtick_12">
     <g id="line2d_23">
      <path clip-path="url(#p4087108aec)" d="M 82.538816 310.768 
L 82.538816 26.88 
" style="fill:none;stroke:#808080;stroke-dasharray:0.8,1.32;stroke-dashoffset:0;stroke-width:0.8;"/>
     </g>
     <g id="line2d_24">
      <g>
       <use style="stroke:#000000;stroke-width:0.6;" x="82.538816" xlink:href="#m9655f5f18a" y="310.768"/>
      </g>
     </g>
    </g>
    <g id="xtick_13">
     <g id="line2d_25">
      <path clip-path="url(#p4087108aec)" d="M 85.342321 310.768 
L 85.342321 26.88 
" style="fill:none;stroke:#808080;stroke-dasharray:0.8,1.32;stroke-dashoffset:0;stroke-width:0.8;"/>
     </g>
     <g id="line2d_26">
      <g>
       <use style="stroke:#000000;stroke-width:0.6;" x="85.342321" xlink:href="#m9655f5f18a" y="310.768"/>
      </g>
     </g>
    </g>
    <g id="xtick_14">
     <g id="line2d_27">
      <path clip-path="url(#p4087108aec)" d="M 104.348628 310.768 
L 104.348628 26.88 
" style="fill:none;stroke:#808080;stroke-dasharray:0.8,1.32;stroke-dashoffset:0;stroke-width:0.8;"/>
     </g>
     <g id="line2d_28">
      <g>
       <use style="stroke:#000000;stroke-width:0.6;" x="104.348628" xlink:href="#m9655f5f18a" y="310.768"/>
      </g>
     </g>
    </g>
    <g id="xtick_15">
     <g id="line2d_29">
      <path clip-path="url(#p4087108aec)" d="M 113.999623 310.768 
L 113.999623 26.88 
" style="fill:none;stroke:#808080;stroke-dasharray:0.8,1.32;stroke-dashoffset:0;stroke-width:0.8;"/>
     </g>
     <g id="line2d_30">
      <g>
       <use style="stroke:#000000;stroke-width:0.6;" x="113.999623" xlink:href="#m9655f5f18a" y="310.768"/>
      </g>
     </g>
    </g>
    <g id="xtick_16">
     <g id="line2d_31">
      <path clip-path="url(#p4087108aec)" d="M 120.847114 310.768 
L 120.847114 26.88 
" style="fill:none;stroke:#808080;stroke-dasharray:0.8,1.32;stroke-dashoffset:0;stroke-width:0.8;"/>
     </g>
     <g id="line2d_32">
      <g>
       <use style="stroke:#000000;stroke-width:0.6;" x="120.847114" xlink:href="#m9655f5f18a" y="310.768"/>
      </g>
     </g>
    </g>
    <g id="xtick_17">
     <g id="line2d_33">
      <path clip-path="url(#p4087108aec)" d="M 126.15844 310.768 
L 126.15844 26.88 
" style="fill:none;stroke:#808080;stroke-dasharray:0.8,1.32;stroke-dashoffset:0;stroke-width:0.8;"/>
     </g>
     <g id="line2d_34">
      <g>
       <use style="stroke:#000000;stroke-width:0.6;" x="126.15844" xlink:href="#m9655f5f18a" y="310.768"/>
      </g>
     </g>
    </g>
    <g id="xtick_18">
     <g id="line2d_35">
      <path clip-path="url(#p4087108aec)" d="M 130.498109 310.768 
L 130.498109 26.88 
" style="fill:none;stroke:#808080;stroke-dasharray:0.8,1.32;stroke-dashoffset:0;stroke-width:0.8;"/>
     </g>
     <g id="line2d_36">
      <g>
       <use style="stroke:#000000;stroke-width:0.6;" x="130.498109" xlink:href="#m9655f5f18a" y="310.768"/>
      </g>
     </g>
    </g>
    <g id="xtick_19">
     <g id="line2d_37">
      <path clip-path="url(#p4087108aec)" d="M 134.167247 310.768 
L 134.167247 26.88 
" style="fill:none;stroke:#808080;stroke-dasharray:0.8,1.32;stroke-dashoffset:0;stroke-width:0.8;"/>
     </g>
     <g id="line2d_38">
      <g>
       <use style="stroke:#000000;stroke-width:0.6;" x="134.167247" xlink:href="#m9655f5f18a" y="310.768"/>
      </g>
     </g>
    </g>
    <g id="xtick_20">
     <g id="line2d_39">
      <path clip-path="url(#p4087108aec)" d="M 137.3456 310.768 
L 137.3456 26.88 
" style="fill:none;stroke:#808080;stroke-dasharray:0.8,1.32;stroke-dashoffset:0;stroke-width:0.8;"/>
     </g>
     <g id="line2d_40">
      <g>
       <use style="stroke:#000000;stroke-width:0.6;" x="137.3456" xlink:href="#m9655f5f18a" y="310.768"/>
      </g>
     </g>
    </g>
    <g id="xtick_21">
     <g id="line2d_41">
      <path clip-path="url(#p4087108aec)" d="M 140.149105 310.768 
L 140.149105 26.88 
" style="fill:none;stroke:#808080;stroke-dasharray:0.8,1.32;stroke-dashoffset:0;stroke-width:0.8;"/>
     </g>
     <g id="line2d_42">
      <g>
       <use style="stroke:#000000;stroke-width:0.6;" x="140.149105" xlink:href="#m9655f5f18a" y="310.768"/>
      </g>
     </g>
    </g>
    <g id="xtick_22">
     <g id="line2d_43">
      <path clip-path="url(#p4087108aec)" d="M 159.155411 310.768 
L 159.155411 26.88 
" style="fill:none;stroke:#808080;stroke-dasharray:0.8,1.32;stroke-dashoffset:0;stroke-width:0.8;"/>
     </g>
     <g id="line2d_44">
      <g>
       <use style="stroke:#000000;stroke-width:0.6;" x="159.155411" xlink:href="#m9655f5f18a" y="310.768"/>
      </g>
     </g>
    </g>
    <g id="xtick_23">
     <g id="line2d_45">
      <path clip-path="url(#p4087108aec)" d="M 168.806407 310.768 
L 168.806407 26.88 
" style="fill:none;stroke:#808080;stroke-dasharray:0.8,1.32;stroke-dashoffset:0;stroke-width:0.8;"/>
     </g>
     <g id="line2d_46">
      <g>
       <use style="stroke:#000000;stroke-width:0.6;" x="168.806407" xlink:href="#m9655f5f18a" y="310.768"/>
      </g>
     </g>
    </g>
    <g id="xtick_24">
     <g id="line2d_47">
      <path clip-path="url(#p4087108aec)" d="M 175.653897 310.768 
L 175.653897 26.88 
" style="fill:none;stroke:#808080;stroke-dasharray:0.8,1.32;stroke-dashoffset:0;stroke-width:0.8;"/>
     </g>
     <g id="line2d_48">
      <g>
       <use style="stroke:#000000;stroke-width:0.6;" x="175.653897" xlink:href="#m9655f5f18a" y="310.768"/>
      </g>
     </g>
    </g>
    <g id="xtick_25">
     <g id="line2d_49">
      <path clip-path="url(#p4087108aec)" d="M 180.965223 310.768 
L 180.965223 26.88 
" style="fill:none;stroke:#808080;stroke-dasharray:0.8,1.32;stroke-dashoffset:0;stroke-width:0.8;"/>
     </g>
     <g id="line2d_50">
      <g>
       <use style="stroke:#000000;stroke-width:0.6;" x="180.965223" xlink:href="#m9655f5f18a" y="310.768"/>
      </g>
     </g>
    </g>
    <g id="xtick_26">
     <g id="line2d_51">
      <path clip-path="url(#p4087108aec)" d="M 185.304893 310.768 
L 185.304893 26.88 
" style="fill:none;stroke:#808080;stroke-dasharray:0.8,1.32;stroke-dashoffset:0;stroke-width:0.8;"/>
     </g>
     <g id="line2d_52">
      <g>
       <use style="stroke:#000000;stroke-width:0.6;" x="185.304893" xlink:href="#m9655f5f18a" y="310.768"/>
      </g>
     </g>
    </g>
    <g id="xtick_27">
     <g id="line2d_53">
      <path clip-path="url(#p4087108aec)" d="M 188.974031 310.768 
L 188.974031 26.88 
" style="fill:none;stroke:#808080;stroke-dasharray:0.8,1.32;stroke-dashoffset:0;stroke-width:0.8;"/>
     </g>
     <g id="line2d_54">
      <g>
       <use style="stroke:#000000;stroke-width:0.6;" x="188.974031" xlink:href="#m9655f5f18a" y="310.768"/>
      </g>
     </g>
    </g>
    <g id="xtick_28">
     <g id="line2d_55">
      <path clip-path="url(#p4087108aec)" d="M 192.152383 310.768 
L 192.152383 26.88 
" style="fill:none;stroke:#808080;stroke-dasharray:0.8,1.32;stroke-dashoffset:0;stroke-width:0.8;"/>
     </g>
     <g id="line2d_56">
      <g>
       <use style="stroke:#000000;stroke-width:0.6;" x="192.152383" xlink:href="#m9655f5f18a" y="310.768"/>
      </g>
     </g>
    </g>
    <g id="xtick_29">
     <g id="line2d_57">
      <path clip-path="url(#p4087108aec)" d="M 194.955888 310.768 
L 194.955888 26.88 
" style="fill:none;stroke:#808080;stroke-dasharray:0.8,1.32;stroke-dashoffset:0;stroke-width:0.8;"/>
     </g>
     <g id="line2d_58">
      <g>
       <use style="stroke:#000000;stroke-width:0.6;" x="194.955888" xlink:href="#m9655f5f18a" y="310.768"/>
      </g>
     </g>
    </g>
    <g id="xtick_30">
     <g id="line2d_59">
      <path clip-path="url(#p4087108aec)" d="M 213.962195 310.768 
L 213.962195 26.88 
" style="fill:none;stroke:#808080;stroke-dasharray:0.8,1.32;stroke-dashoffset:0;stroke-width:0.8;"/>
     </g>
     <g id="line2d_60">
      <g>
       <use style="stroke:#000000;stroke-width:0.6;" x="213.962195" xlink:href="#m9655f5f18a" y="310.768"/>
      </g>
     </g>
    </g>
    <g id="xtick_31">
     <g id="line2d_61">
      <path clip-path="url(#p4087108aec)" d="M 223.61319 310.768 
L 223.61319 26.88 
" style="fill:none;stroke:#808080;stroke-dasharray:0.8,1.32;stroke-dashoffset:0;stroke-width:0.8;"/>
     </g>
     <g id="line2d_62">
      <g>
       <use style="stroke:#000000;stroke-width:0.6;" x="223.61319" xlink:href="#m9655f5f18a" y="310.768"/>
      </g>
     </g>
    </g>
    <g id="xtick_32">
     <g id="line2d_63">
      <path clip-path="url(#p4087108aec)" d="M 230.460681 310.768 
L 230.460681 26.88 
" style="fill:none;stroke:#808080;stroke-dasharray:0.8,1.32;stroke-dashoffset:0;stroke-width:0.8;"/>
     </g>
     <g id="line2d_64">
      <g>
       <use style="stroke:#000000;stroke-width:0.6;" x="230.460681" xlink:href="#m9655f5f18a" y="310.768"/>
      </g>
     </g>
    </g>
    <g id="xtick_33">
     <g id="line2d_65">
      <path clip-path="url(#p4087108aec)" d="M 235.772007 310.768 
L 235.772007 26.88 
" style="fill:none;stroke:#808080;stroke-dasharray:0.8,1.32;stroke-dashoffset:0;stroke-width:0.8;"/>
     </g>
     <g id="line2d_66">
      <g>
       <use style="stroke:#000000;stroke-width:0.6;" x="235.772007" xlink:href="#m9655f5f18a" y="310.768"/>
      </g>
     </g>
    </g>
    <g id="xtick_34">
     <g id="line2d_67">
      <path clip-path="url(#p4087108aec)" d="M 240.111676 310.768 
L 240.111676 26.88 
" style="fill:none;stroke:#808080;stroke-dasharray:0.8,1.32;stroke-dashoffset:0;stroke-width:0.8;"/>
     </g>
     <g id="line2d_68">
      <g>
       <use style="stroke:#000000;stroke-width:0.6;" x="240.111676" xlink:href="#m9655f5f18a" y="310.768"/>
      </g>
     </g>
    </g>
    <g id="xtick_35">
     <g id="line2d_69">
      <path clip-path="url(#p4087108aec)" d="M 243.780814 310.768 
L 243.780814 26.88 
" style="fill:none;stroke:#808080;stroke-dasharray:0.8,1.32;stroke-dashoffset:0;stroke-width:0.8;"/>
     </g>
     <g id="line2d_70">
      <g>
       <use style="stroke:#000000;stroke-width:0.6;" x="243.780814" xlink:href="#m9655f5f18a" y="310.768"/>
      </g>
     </g>
    </g>
    <g id="xtick_36">
     <g id="line2d_71">
      <path clip-path="url(#p4087108aec)" d="M 246.959166 310.768 
L 246.959166 26.88 
" style="fill:none;stroke:#808080;stroke-dasharray:0.8,1.32;stroke-dashoffset:0;stroke-width:0.8;"/>
     </g>
     <g id="line2d_72">
      <g>
       <use style="stroke:#000000;stroke-width:0.6;" x="246.959166" xlink:href="#m9655f5f18a" y="310.768"/>
      </g>
     </g>
    </g>
    <g id="xtick_37">
     <g id="line2d_73">
      <path clip-path="url(#p4087108aec)" d="M 249.762671 310.768 
L 249.762671 26.88 
" style="fill:none;stroke:#808080;stroke-dasharray:0.8,1.32;stroke-dashoffset:0;stroke-width:0.8;"/>
     </g>
     <g id="line2d_74">
      <g>
       <use style="stroke:#000000;stroke-width:0.6;" x="249.762671" xlink:href="#m9655f5f18a" y="310.768"/>
      </g>
     </g>
    </g>
    <g id="xtick_38">
     <g id="line2d_75">
      <path clip-path="url(#p4087108aec)" d="M 268.768978 310.768 
L 268.768978 26.88 
" style="fill:none;stroke:#808080;stroke-dasharray:0.8,1.32;stroke-dashoffset:0;stroke-width:0.8;"/>
     </g>
     <g id="line2d_76">
      <g>
       <use style="stroke:#000000;stroke-width:0.6;" x="268.768978" xlink:href="#m9655f5f18a" y="310.768"/>
      </g>
     </g>
    </g>
    <g id="xtick_39">
     <g id="line2d_77">
      <path clip-path="url(#p4087108aec)" d="M 278.419974 310.768 
L 278.419974 26.88 
" style="fill:none;stroke:#808080;stroke-dasharray:0.8,1.32;stroke-dashoffset:0;stroke-width:0.8;"/>
     </g>
     <g id="line2d_78">
      <g>
       <use style="stroke:#000000;stroke-width:0.6;" x="278.419974" xlink:href="#m9655f5f18a" y="310.768"/>
      </g>
     </g>
    </g>
    <g id="xtick_40">
     <g id="line2d_79">
      <path clip-path="url(#p4087108aec)" d="M 285.267464 310.768 
L 285.267464 26.88 
" style="fill:none;stroke:#808080;stroke-dasharray:0.8,1.32;stroke-dashoffset:0;stroke-width:0.8;"/>
     </g>
     <g id="line2d_80">
      <g>
       <use style="stroke:#000000;stroke-width:0.6;" x="285.267464" xlink:href="#m9655f5f18a" y="310.768"/>
      </g>
     </g>
    </g>
    <g id="xtick_41">
     <g id="line2d_81">
      <path clip-path="url(#p4087108aec)" d="M 290.57879 310.768 
L 290.57879 26.88 
" style="fill:none;stroke:#808080;stroke-dasharray:0.8,1.32;stroke-dashoffset:0;stroke-width:0.8;"/>
     </g>
     <g id="line2d_82">
      <g>
       <use style="stroke:#000000;stroke-width:0.6;" x="290.57879" xlink:href="#m9655f5f18a" y="310.768"/>
      </g>
     </g>
    </g>
    <g id="xtick_42">
     <g id="line2d_83">
      <path clip-path="url(#p4087108aec)" d="M 294.918459 310.768 
L 294.918459 26.88 
" style="fill:none;stroke:#808080;stroke-dasharray:0.8,1.32;stroke-dashoffset:0;stroke-width:0.8;"/>
     </g>
     <g id="line2d_84">
      <g>
       <use style="stroke:#000000;stroke-width:0.6;" x="294.918459" xlink:href="#m9655f5f18a" y="310.768"/>
      </g>
     </g>
    </g>
    <g id="xtick_43">
     <g id="line2d_85">
      <path clip-path="url(#p4087108aec)" d="M 298.587598 310.768 
L 298.587598 26.88 
" style="fill:none;stroke:#808080;stroke-dasharray:0.8,1.32;stroke-dashoffset:0;stroke-width:0.8;"/>
     </g>
     <g id="line2d_86">
      <g>
       <use style="stroke:#000000;stroke-width:0.6;" x="298.587598" xlink:href="#m9655f5f18a" y="310.768"/>
      </g>
     </g>
    </g>
    <g id="xtick_44">
     <g id="line2d_87">
      <path clip-path="url(#p4087108aec)" d="M 301.76595 310.768 
L 301.76595 26.88 
" style="fill:none;stroke:#808080;stroke-dasharray:0.8,1.32;stroke-dashoffset:0;stroke-width:0.8;"/>
     </g>
     <g id="line2d_88">
      <g>
       <use style="stroke:#000000;stroke-width:0.6;" x="301.76595" xlink:href="#m9655f5f18a" y="310.768"/>
      </g>
     </g>
    </g>
    <g id="xtick_45">
     <g id="line2d_89">
      <path clip-path="url(#p4087108aec)" d="M 304.569455 310.768 
L 304.569455 26.88 
" style="fill:none;stroke:#808080;stroke-dasharray:0.8,1.32;stroke-dashoffset:0;stroke-width:0.8;"/>
     </g>
     <g id="line2d_90">
      <g>
       <use style="stroke:#000000;stroke-width:0.6;" x="304.569455" xlink:href="#m9655f5f18a" y="310.768"/>
      </g>
     </g>
    </g>
    <g id="xtick_46">
     <g id="line2d_91">
      <path clip-path="url(#p4087108aec)" d="M 323.575761 310.768 
L 323.575761 26.88 
" style="fill:none;stroke:#808080;stroke-dasharray:0.8,1.32;stroke-dashoffset:0;stroke-width:0.8;"/>
     </g>
     <g id="line2d_92">
      <g>
       <use style="stroke:#000000;stroke-width:0.6;" x="323.575761" xlink:href="#m9655f5f18a" y="310.768"/>
      </g>
     </g>
    </g>
    <g id="xtick_47">
     <g id="line2d_93">
      <path clip-path="url(#p4087108aec)" d="M 333.226757 310.768 
L 333.226757 26.88 
" style="fill:none;stroke:#808080;stroke-dasharray:0.8,1.32;stroke-dashoffset:0;stroke-width:0.8;"/>
     </g>
     <g id="line2d_94">
      <g>
       <use style="stroke:#000000;stroke-width:0.6;" x="333.226757" xlink:href="#m9655f5f18a" y="310.768"/>
      </g>
     </g>
    </g>
    <g id="xtick_48">
     <g id="line2d_95">
      <path clip-path="url(#p4087108aec)" d="M 340.074247 310.768 
L 340.074247 26.88 
" style="fill:none;stroke:#808080;stroke-dasharray:0.8,1.32;stroke-dashoffset:0;stroke-width:0.8;"/>
     </g>
     <g id="line2d_96">
      <g>
       <use style="stroke:#000000;stroke-width:0.6;" x="340.074247" xlink:href="#m9655f5f18a" y="310.768"/>
      </g>
     </g>
    </g>
    <g id="xtick_49">
     <g id="line2d_97">
      <path clip-path="url(#p4087108aec)" d="M 345.385573 310.768 
L 345.385573 26.88 
" style="fill:none;stroke:#808080;stroke-dasharray:0.8,1.32;stroke-dashoffset:0;stroke-width:0.8;"/>
     </g>
     <g id="line2d_98">
      <g>
       <use style="stroke:#000000;stroke-width:0.6;" x="345.385573" xlink:href="#m9655f5f18a" y="310.768"/>
      </g>
     </g>
    </g>
    <g id="xtick_50">
     <g id="line2d_99">
      <path clip-path="url(#p4087108aec)" d="M 349.725243 310.768 
L 349.725243 26.88 
" style="fill:none;stroke:#808080;stroke-dasharray:0.8,1.32;stroke-dashoffset:0;stroke-width:0.8;"/>
     </g>
     <g id="line2d_100">
      <g>
       <use style="stroke:#000000;stroke-width:0.6;" x="349.725243" xlink:href="#m9655f5f18a" y="310.768"/>
      </g>
     </g>
    </g>
    <g id="xtick_51">
     <g id="line2d_101">
      <path clip-path="url(#p4087108aec)" d="M 353.394381 310.768 
L 353.394381 26.88 
" style="fill:none;stroke:#808080;stroke-dasharray:0.8,1.32;stroke-dashoffset:0;stroke-width:0.8;"/>
     </g>
     <g id="line2d_102">
      <g>
       <use style="stroke:#000000;stroke-width:0.6;" x="353.394381" xlink:href="#m9655f5f18a" y="310.768"/>
      </g>
     </g>
    </g>
    <g id="xtick_52">
     <g id="line2d_103">
      <path clip-path="url(#p4087108aec)" d="M 356.572733 310.768 
L 356.572733 26.88 
" style="fill:none;stroke:#808080;stroke-dasharray:0.8,1.32;stroke-dashoffset:0;stroke-width:0.8;"/>
     </g>
     <g id="line2d_104">
      <g>
       <use style="stroke:#000000;stroke-width:0.6;" x="356.572733" xlink:href="#m9655f5f18a" y="310.768"/>
      </g>
     </g>
    </g>
    <g id="xtick_53">
     <g id="line2d_105">
      <path clip-path="url(#p4087108aec)" d="M 359.376238 310.768 
L 359.376238 26.88 
" style="fill:none;stroke:#808080;stroke-dasharray:0.8,1.32;stroke-dashoffset:0;stroke-width:0.8;"/>
     </g>
     <g id="line2d_106">
      <g>
       <use style="stroke:#000000;stroke-width:0.6;" x="359.376238" xlink:href="#m9655f5f18a" y="310.768"/>
      </g>
     </g>
    </g>
    <g id="xtick_54">
     <g id="line2d_107">
      <path clip-path="url(#p4087108aec)" d="M 378.382545 310.768 
L 378.382545 26.88 
" style="fill:none;stroke:#808080;stroke-dasharray:0.8,1.32;stroke-dashoffset:0;stroke-width:0.8;"/>
     </g>
     <g id="line2d_108">
      <g>
       <use style="stroke:#000000;stroke-width:0.6;" x="378.382545" xlink:href="#m9655f5f18a" y="310.768"/>
      </g>
     </g>
    </g>
    <g id="xtick_55">
     <g id="line2d_109">
      <path clip-path="url(#p4087108aec)" d="M 388.03354 310.768 
L 388.03354 26.88 
" style="fill:none;stroke:#808080;stroke-dasharray:0.8,1.32;stroke-dashoffset:0;stroke-width:0.8;"/>
     </g>
     <g id="line2d_110">
      <g>
       <use style="stroke:#000000;stroke-width:0.6;" x="388.03354" xlink:href="#m9655f5f18a" y="310.768"/>
      </g>
     </g>
    </g>
    <g id="xtick_56">
     <g id="line2d_111">
      <path clip-path="url(#p4087108aec)" d="M 394.881031 310.768 
L 394.881031 26.88 
" style="fill:none;stroke:#808080;stroke-dasharray:0.8,1.32;stroke-dashoffset:0;stroke-width:0.8;"/>
     </g>
     <g id="line2d_112">
      <g>
       <use style="stroke:#000000;stroke-width:0.6;" x="394.881031" xlink:href="#m9655f5f18a" y="310.768"/>
      </g>
     </g>
    </g>
    <g id="xtick_57">
     <g id="line2d_113">
      <path clip-path="url(#p4087108aec)" d="M 400.192357 310.768 
L 400.192357 26.88 
" style="fill:none;stroke:#808080;stroke-dasharray:0.8,1.32;stroke-dashoffset:0;stroke-width:0.8;"/>
     </g>
     <g id="line2d_114">
      <g>
       <use style="stroke:#000000;stroke-width:0.6;" x="400.192357" xlink:href="#m9655f5f18a" y="310.768"/>
      </g>
     </g>
    </g>
    <g id="xtick_58">
     <g id="line2d_115">
      <path clip-path="url(#p4087108aec)" d="M 404.532026 310.768 
L 404.532026 26.88 
" style="fill:none;stroke:#808080;stroke-dasharray:0.8,1.32;stroke-dashoffset:0;stroke-width:0.8;"/>
     </g>
     <g id="line2d_116">
      <g>
       <use style="stroke:#000000;stroke-width:0.6;" x="404.532026" xlink:href="#m9655f5f18a" y="310.768"/>
      </g>
     </g>
    </g>
    <g id="xtick_59">
     <g id="line2d_117">
      <path clip-path="url(#p4087108aec)" d="M 408.201164 310.768 
L 408.201164 26.88 
" style="fill:none;stroke:#808080;stroke-dasharray:0.8,1.32;stroke-dashoffset:0;stroke-width:0.8;"/>
     </g>
     <g id="line2d_118">
      <g>
       <use style="stroke:#000000;stroke-width:0.6;" x="408.201164" xlink:href="#m9655f5f18a" y="310.768"/>
      </g>
     </g>
    </g>
    <g id="xtick_60">
     <g id="line2d_119">
      <path clip-path="url(#p4087108aec)" d="M 411.379516 310.768 
L 411.379516 26.88 
" style="fill:none;stroke:#808080;stroke-dasharray:0.8,1.32;stroke-dashoffset:0;stroke-width:0.8;"/>
     </g>
     <g id="line2d_120">
      <g>
       <use style="stroke:#000000;stroke-width:0.6;" x="411.379516" xlink:href="#m9655f5f18a" y="310.768"/>
      </g>
     </g>
    </g>
    <g id="xtick_61">
     <g id="line2d_121">
      <path clip-path="url(#p4087108aec)" d="M 414.183022 310.768 
L 414.183022 26.88 
" style="fill:none;stroke:#808080;stroke-dasharray:0.8,1.32;stroke-dashoffset:0;stroke-width:0.8;"/>
     </g>
     <g id="line2d_122">
      <g>
       <use style="stroke:#000000;stroke-width:0.6;" x="414.183022" xlink:href="#m9655f5f18a" y="310.768"/>
      </g>
     </g>
    </g>
    <g id="xtick_62">
     <g id="line2d_123">
      <path clip-path="url(#p4087108aec)" d="M 433.189328 310.768 
L 433.189328 26.88 
" style="fill:none;stroke:#808080;stroke-dasharray:0.8,1.32;stroke-dashoffset:0;stroke-width:0.8;"/>
     </g>
     <g id="line2d_124">
      <g>
       <use style="stroke:#000000;stroke-width:0.6;" x="433.189328" xlink:href="#m9655f5f18a" y="310.768"/>
      </g>
     </g>
    </g>
    <g id="xtick_63">
     <g id="line2d_125">
      <path clip-path="url(#p4087108aec)" d="M 442.840324 310.768 
L 442.840324 26.88 
" style="fill:none;stroke:#808080;stroke-dasharray:0.8,1.32;stroke-dashoffset:0;stroke-width:0.8;"/>
     </g>
     <g id="line2d_126">
      <g>
       <use style="stroke:#000000;stroke-width:0.6;" x="442.840324" xlink:href="#m9655f5f18a" y="310.768"/>
      </g>
     </g>
    </g>
    <g id="xtick_64">
     <g id="line2d_127">
      <path clip-path="url(#p4087108aec)" d="M 449.687814 310.768 
L 449.687814 26.88 
" style="fill:none;stroke:#808080;stroke-dasharray:0.8,1.32;stroke-dashoffset:0;stroke-width:0.8;"/>
     </g>
     <g id="line2d_128">
      <g>
       <use style="stroke:#000000;stroke-width:0.6;" x="449.687814" xlink:href="#m9655f5f18a" y="310.768"/>
      </g>
     </g>
    </g>
    <g id="xtick_65">
     <g id="line2d_129">
      <path clip-path="url(#p4087108aec)" d="M 454.99914 310.768 
L 454.99914 26.88 
" style="fill:none;stroke:#808080;stroke-dasharray:0.8,1.32;stroke-dashoffset:0;stroke-width:0.8;"/>
     </g>
     <g id="line2d_130">
      <g>
       <use style="stroke:#000000;stroke-width:0.6;" x="454.99914" xlink:href="#m9655f5f18a" y="310.768"/>
      </g>
     </g>
    </g>
    <g id="xtick_66">
     <g id="line2d_131">
      <path clip-path="url(#p4087108aec)" d="M 459.338809 310.768 
L 459.338809 26.88 
" style="fill:none;stroke:#808080;stroke-dasharray:0.8,1.32;stroke-dashoffset:0;stroke-width:0.8;"/>
     </g>
     <g id="line2d_132">
      <g>
       <use style="stroke:#000000;stroke-width:0.6;" x="459.338809" xlink:href="#m9655f5f18a" y="310.768"/>
      </g>
     </g>
    </g>
    <g id="xtick_67">
     <g id="line2d_133">
      <path clip-path="url(#p4087108aec)" d="M 463.007948 310.768 
L 463.007948 26.88 
" style="fill:none;stroke:#808080;stroke-dasharray:0.8,1.32;stroke-dashoffset:0;stroke-width:0.8;"/>
     </g>
     <g id="line2d_134">
      <g>
       <use style="stroke:#000000;stroke-width:0.6;" x="463.007948" xlink:href="#m9655f5f18a" y="310.768"/>
      </g>
     </g>
    </g>
    <g id="xtick_68">
     <g id="line2d_135">
      <path clip-path="url(#p4087108aec)" d="M 466.1863 310.768 
L 466.1863 26.88 
" style="fill:none;stroke:#808080;stroke-dasharray:0.8,1.32;stroke-dashoffset:0;stroke-width:0.8;"/>
     </g>
     <g id="line2d_136">
      <g>
       <use style="stroke:#000000;stroke-width:0.6;" x="466.1863" xlink:href="#m9655f5f18a" y="310.768"/>
      </g>
     </g>
    </g>
    <g id="xtick_69">
     <g id="line2d_137">
      <path clip-path="url(#p4087108aec)" d="M 468.989805 310.768 
L 468.989805 26.88 
" style="fill:none;stroke:#808080;stroke-dasharray:0.8,1.32;stroke-dashoffset:0;stroke-width:0.8;"/>
     </g>
     <g id="line2d_138">
      <g>
       <use style="stroke:#000000;stroke-width:0.6;" x="468.989805" xlink:href="#m9655f5f18a" y="310.768"/>
      </g>
     </g>
    </g>
    <g id="xtick_70">
     <g id="line2d_139">
      <path clip-path="url(#p4087108aec)" d="M 487.996112 310.768 
L 487.996112 26.88 
" style="fill:none;stroke:#808080;stroke-dasharray:0.8,1.32;stroke-dashoffset:0;stroke-width:0.8;"/>
     </g>
     <g id="line2d_140">
      <g>
       <use style="stroke:#000000;stroke-width:0.6;" x="487.996112" xlink:href="#m9655f5f18a" y="310.768"/>
      </g>
     </g>
    </g>
    <g id="text_9">
     <!-- frequency [Hz] -->
     <defs>
      <path d="M 37.109375 75.984375 
L 37.109375 68.5 
L 28.515625 68.5 
Q 23.6875 68.5 21.796875 66.546875 
Q 19.921875 64.59375 19.921875 59.515625 
L 19.921875 54.6875 
L 34.71875 54.6875 
L 34.71875 47.703125 
L 19.921875 47.703125 
L 19.921875 0 
L 10.890625 0 
L 10.890625 47.703125 
L 2.296875 47.703125 
L 2.296875 54.6875 
L 10.890625 54.6875 
L 10.890625 58.5 
Q 10.890625 67.625 15.140625 71.796875 
Q 19.390625 75.984375 28.609375 75.984375 
z
" id="DejaVuSans-66"/>
      <path d="M 41.109375 46.296875 
Q 39.59375 47.171875 37.8125 47.578125 
Q 36.03125 48 33.890625 48 
Q 26.265625 48 22.1875 43.046875 
Q 18.109375 38.09375 18.109375 28.8125 
L 18.109375 0 
L 9.078125 0 
L 9.078125 54.6875 
L 18.109375 54.6875 
L 18.109375 46.1875 
Q 20.953125 51.171875 25.484375 53.578125 
Q 30.03125 56 36.53125 56 
Q 37.453125 56 38.578125 55.875 
Q 39.703125 55.765625 41.0625 55.515625 
z
" id="DejaVuSans-72"/>
      <path d="M 56.203125 29.59375 
L 56.203125 25.203125 
L 14.890625 25.203125 
Q 15.484375 15.921875 20.484375 11.0625 
Q 25.484375 6.203125 34.421875 6.203125 
Q 39.59375 6.203125 44.453125 7.46875 
Q 49.3125 8.734375 54.109375 11.28125 
L 54.109375 2.78125 
Q 49.265625 0.734375 44.1875 -0.34375 
Q 39.109375 -1.421875 33.890625 -1.421875 
Q 20.796875 -1.421875 13.15625 6.1875 
Q 5.515625 13.8125 5.515625 26.8125 
Q 5.515625 40.234375 12.765625 48.109375 
Q 20.015625 56 32.328125 56 
Q 43.359375 56 49.78125 48.890625 
Q 56.203125 41.796875 56.203125 29.59375 
z
M 47.21875 32.234375 
Q 47.125 39.59375 43.09375 43.984375 
Q 39.0625 48.390625 32.421875 48.390625 
Q 24.90625 48.390625 20.390625 44.140625 
Q 15.875 39.890625 15.1875 32.171875 
z
" id="DejaVuSans-65"/>
      <path d="M 14.796875 27.296875 
Q 14.796875 17.390625 18.875 11.75 
Q 22.953125 6.109375 30.078125 6.109375 
Q 37.203125 6.109375 41.296875 11.75 
Q 45.40625 17.390625 45.40625 27.296875 
Q 45.40625 37.203125 41.296875 42.84375 
Q 37.203125 48.484375 30.078125 48.484375 
Q 22.953125 48.484375 18.875 42.84375 
Q 14.796875 37.203125 14.796875 27.296875 
z
M 45.40625 8.203125 
Q 42.578125 3.328125 38.25 0.953125 
Q 33.9375 -1.421875 27.875 -1.421875 
Q 17.96875 -1.421875 11.734375 6.484375 
Q 5.515625 14.40625 5.515625 27.296875 
Q 5.515625 40.1875 11.734375 48.09375 
Q 17.96875 56 27.875 56 
Q 33.9375 56 38.25 53.625 
Q 42.578125 51.265625 45.40625 46.390625 
L 45.40625 54.6875 
L 54.390625 54.6875 
L 54.390625 -20.796875 
L 45.40625 -20.796875 
z
" id="DejaVuSans-71"/>
      <path d="M 8.5 21.578125 
L 8.5 54.6875 
L 17.484375 54.6875 
L 17.484375 21.921875 
Q 17.484375 14.15625 20.5 10.265625 
Q 23.53125 6.390625 29.59375 6.390625 
Q 36.859375 6.390625 41.078125 11.03125 
Q 45.3125 15.671875 45.3125 23.6875 
L 45.3125 54.6875 
L 54.296875 54.6875 
L 54.296875 0 
L 45.3125 0 
L 45.3125 8.40625 
Q 42.046875 3.421875 37.71875 1 
Q 33.40625 -1.421875 27.6875 -1.421875 
Q 18.265625 -1.421875 13.375 4.4375 
Q 8.5 10.296875 8.5 21.578125 
z
M 31.109375 56 
z
" id="DejaVuSans-75"/>
      <path d="M 54.890625 33.015625 
L 54.890625 0 
L 45.90625 0 
L 45.90625 32.71875 
Q 45.90625 40.484375 42.875 44.328125 
Q 39.84375 48.1875 33.796875 48.1875 
Q 26.515625 48.1875 22.3125 43.546875 
Q 18.109375 38.921875 18.109375 30.90625 
L 18.109375 0 
L 9.078125 0 
L 9.078125 54.6875 
L 18.109375 54.6875 
L 18.109375 46.1875 
Q 21.34375 51.125 25.703125 53.5625 
Q 30.078125 56 35.796875 56 
Q 45.21875 56 50.046875 50.171875 
Q 54.890625 44.34375 54.890625 33.015625 
z
" id="DejaVuSans-6e"/>
      <path d="M 48.78125 52.59375 
L 48.78125 44.1875 
Q 44.96875 46.296875 41.140625 47.34375 
Q 37.3125 48.390625 33.40625 48.390625 
Q 24.65625 48.390625 19.8125 42.84375 
Q 14.984375 37.3125 14.984375 27.296875 
Q 14.984375 17.28125 19.8125 11.734375 
Q 24.65625 6.203125 33.40625 6.203125 
Q 37.3125 6.203125 41.140625 7.25 
Q 44.96875 8.296875 48.78125 10.40625 
L 48.78125 2.09375 
Q 45.015625 0.34375 40.984375 -0.53125 
Q 36.96875 -1.421875 32.421875 -1.421875 
Q 20.0625 -1.421875 12.78125 6.34375 
Q 5.515625 14.109375 5.515625 27.296875 
Q 5.515625 40.671875 12.859375 48.328125 
Q 20.21875 56 33.015625 56 
Q 37.15625 56 41.109375 55.140625 
Q 45.0625 54.296875 48.78125 52.59375 
z
" id="DejaVuSans-63"/>
      <path d="M 32.171875 -5.078125 
Q 28.375 -14.84375 24.75 -17.8125 
Q 21.140625 -20.796875 15.09375 -20.796875 
L 7.90625 -20.796875 
L 7.90625 -13.28125 
L 13.1875 -13.28125 
Q 16.890625 -13.28125 18.9375 -11.515625 
Q 21 -9.765625 23.484375 -3.21875 
L 25.09375 0.875 
L 2.984375 54.6875 
L 12.5 54.6875 
L 29.59375 11.921875 
L 46.6875 54.6875 
L 56.203125 54.6875 
z
" id="DejaVuSans-79"/>
      <path id="DejaVuSans-20"/>
      <path d="M 8.59375 75.984375 
L 29.296875 75.984375 
L 29.296875 69 
L 17.578125 69 
L 17.578125 -6.203125 
L 29.296875 -6.203125 
L 29.296875 -13.1875 
L 8.59375 -13.1875 
z
" id="DejaVuSans-5b"/>
      <path d="M 9.8125 72.90625 
L 19.671875 72.90625 
L 19.671875 43.015625 
L 55.515625 43.015625 
L 55.515625 72.90625 
L 65.375 72.90625 
L 65.375 0 
L 55.515625 0 
L 55.515625 34.71875 
L 19.671875 34.71875 
L 19.671875 0 
L 9.8125 0 
z
" id="DejaVuSans-48"/>
      <path d="M 5.515625 54.6875 
L 48.1875 54.6875 
L 48.1875 46.484375 
L 14.40625 7.171875 
L 48.1875 7.171875 
L 48.1875 0 
L 4.296875 0 
L 4.296875 8.203125 
L 38.09375 47.515625 
L 5.515625 47.515625 
z
" id="DejaVuSans-7a"/>
      <path d="M 30.421875 75.984375 
L 30.421875 -13.1875 
L 9.71875 -13.1875 
L 9.71875 -6.203125 
L 21.390625 -6.203125 
L 21.390625 69 
L 9.71875 69 
L 9.71875 75.984375 
z
" id="DejaVuSans-5d"/>
     </defs>
     <g transform="translate(235.198884 342.499875)scale(0.12 -0.12)">
      <use xlink:href="#DejaVuSans-66"/>
      <use x="35.205078" xlink:href="#DejaVuSans-72"/>
      <use x="76.287109" xlink:href="#DejaVuSans-65"/>
      <use x="137.810547" xlink:href="#DejaVuSans-71"/>
      <use x="201.287109" xlink:href="#DejaVuSans-75"/>
      <use x="264.666016" xlink:href="#DejaVuSans-65"/>
      <use x="326.189453" xlink:href="#DejaVuSans-6e"/>
      <use x="389.568359" xlink:href="#DejaVuSans-63"/>
      <use x="444.548828" xlink:href="#DejaVuSans-79"/>
      <use x="503.728516" xlink:href="#DejaVuSans-20"/>
      <use x="535.515625" xlink:href="#DejaVuSans-5b"/>
      <use x="574.529297" xlink:href="#DejaVuSans-48"/>
      <use x="649.724609" xlink:href="#DejaVuSans-7a"/>
      <use x="702.214844" xlink:href="#DejaVuSans-5d"/>
     </g>
    </g>
   </g>
   <g id="matplotlib.axis_2">
    <g id="ytick_1">
     <g id="line2d_141">
      <path clip-path="url(#p4087108aec)" d="M 68.667768 211.845434 
L 490.68 211.845434 
" style="fill:none;stroke:#808080;stroke-linecap:square;stroke-width:0.8;"/>
     </g>
     <g id="line2d_142">
      <defs>
       <path d="M 0 0 
L -3.5 0 
" id="m8166ad6697" style="stroke:#000000;stroke-width:0.8;"/>
      </defs>
      <g>
       <use style="stroke:#000000;stroke-width:0.8;" x="68.667768" xlink:href="#m8166ad6697" y="211.845434"/>
      </g>
     </g>
     <g id="text_10">
      <!-- $\mathdefault{10^{-16}}$ -->
      <g transform="translate(28.187768 216.404496)scale(0.12 -0.12)">
       <use transform="translate(0 0.765625)" xlink:href="#DejaVuSans-31"/>
       <use transform="translate(63.623047 0.765625)" xlink:href="#DejaVuSans-30"/>
       <use transform="translate(128.203125 39.046875)scale(0.7)" xlink:href="#DejaVuSans-2212"/>
       <use transform="translate(186.855469 39.046875)scale(0.7)" xlink:href="#DejaVuSans-31"/>
       <use transform="translate(231.391602 39.046875)scale(0.7)" xlink:href="#DejaVuSans-36"/>
      </g>
     </g>
    </g>
    <g id="ytick_2">
     <g id="line2d_143">
      <path clip-path="url(#p4087108aec)" d="M 68.667768 101.668784 
L 490.68 101.668784 
" style="fill:none;stroke:#808080;stroke-linecap:square;stroke-width:0.8;"/>
     </g>
     <g id="line2d_144">
      <g>
       <use style="stroke:#000000;stroke-width:0.8;" x="68.667768" xlink:href="#m8166ad6697" y="101.668784"/>
      </g>
     </g>
     <g id="text_11">
      <!-- $\mathdefault{10^{-15}}$ -->
      <g transform="translate(28.187768 106.227847)scale(0.12 -0.12)">
       <use transform="translate(0 0.684375)" xlink:href="#DejaVuSans-31"/>
       <use transform="translate(63.623047 0.684375)" xlink:href="#DejaVuSans-30"/>
       <use transform="translate(128.203125 38.965625)scale(0.7)" xlink:href="#DejaVuSans-2212"/>
       <use transform="translate(186.855469 38.965625)scale(0.7)" xlink:href="#DejaVuSans-31"/>
       <use transform="translate(231.391602 38.965625)scale(0.7)" xlink:href="#DejaVuSans-35"/>
      </g>
     </g>
    </g>
    <g id="ytick_3">
     <g id="line2d_145">
      <path clip-path="url(#p4087108aec)" d="M 68.667768 288.855607 
L 490.68 288.855607 
" style="fill:none;stroke:#808080;stroke-dasharray:0.8,1.32;stroke-dashoffset:0;stroke-width:0.8;"/>
     </g>
     <g id="line2d_146">
      <defs>
       <path d="M 0 0 
L -2 0 
" id="mbb3181493d" style="stroke:#000000;stroke-width:0.6;"/>
      </defs>
      <g>
       <use style="stroke:#000000;stroke-width:0.6;" x="68.667768" xlink:href="#mbb3181493d" y="288.855607"/>
      </g>
     </g>
    </g>
    <g id="ytick_4">
     <g id="line2d_147">
      <path clip-path="url(#p4087108aec)" d="M 68.667768 269.454462 
L 490.68 269.454462 
" style="fill:none;stroke:#808080;stroke-dasharray:0.8,1.32;stroke-dashoffset:0;stroke-width:0.8;"/>
     </g>
     <g id="line2d_148">
      <g>
       <use style="stroke:#000000;stroke-width:0.6;" x="68.667768" xlink:href="#mbb3181493d" y="269.454462"/>
      </g>
     </g>
    </g>
    <g id="ytick_5">
     <g id="line2d_149">
      <path clip-path="url(#p4087108aec)" d="M 68.667768 255.689131 
L 490.68 255.689131 
" style="fill:none;stroke:#808080;stroke-dasharray:0.8,1.32;stroke-dashoffset:0;stroke-width:0.8;"/>
     </g>
     <g id="line2d_150">
      <g>
       <use style="stroke:#000000;stroke-width:0.6;" x="68.667768" xlink:href="#mbb3181493d" y="255.689131"/>
      </g>
     </g>
    </g>
    <g id="ytick_6">
     <g id="line2d_151">
      <path clip-path="url(#p4087108aec)" d="M 68.667768 245.01191 
L 490.68 245.01191 
" style="fill:none;stroke:#808080;stroke-dasharray:0.8,1.32;stroke-dashoffset:0;stroke-width:0.8;"/>
     </g>
     <g id="line2d_152">
      <g>
       <use style="stroke:#000000;stroke-width:0.6;" x="68.667768" xlink:href="#mbb3181493d" y="245.01191"/>
      </g>
     </g>
    </g>
    <g id="ytick_7">
     <g id="line2d_153">
      <path clip-path="url(#p4087108aec)" d="M 68.667768 236.287986 
L 490.68 236.287986 
" style="fill:none;stroke:#808080;stroke-dasharray:0.8,1.32;stroke-dashoffset:0;stroke-width:0.8;"/>
     </g>
     <g id="line2d_154">
      <g>
       <use style="stroke:#000000;stroke-width:0.6;" x="68.667768" xlink:href="#mbb3181493d" y="236.287986"/>
      </g>
     </g>
    </g>
    <g id="ytick_8">
     <g id="line2d_155">
      <path clip-path="url(#p4087108aec)" d="M 68.667768 228.912013 
L 490.68 228.912013 
" style="fill:none;stroke:#808080;stroke-dasharray:0.8,1.32;stroke-dashoffset:0;stroke-width:0.8;"/>
     </g>
     <g id="line2d_156">
      <g>
       <use style="stroke:#000000;stroke-width:0.6;" x="68.667768" xlink:href="#mbb3181493d" y="228.912013"/>
      </g>
     </g>
    </g>
    <g id="ytick_9">
     <g id="line2d_157">
      <path clip-path="url(#p4087108aec)" d="M 68.667768 222.522655 
L 490.68 222.522655 
" style="fill:none;stroke:#808080;stroke-dasharray:0.8,1.32;stroke-dashoffset:0;stroke-width:0.8;"/>
     </g>
     <g id="line2d_158">
      <g>
       <use style="stroke:#000000;stroke-width:0.6;" x="68.667768" xlink:href="#mbb3181493d" y="222.522655"/>
      </g>
     </g>
    </g>
    <g id="ytick_10">
     <g id="line2d_159">
      <path clip-path="url(#p4087108aec)" d="M 68.667768 216.886841 
L 490.68 216.886841 
" style="fill:none;stroke:#808080;stroke-dasharray:0.8,1.32;stroke-dashoffset:0;stroke-width:0.8;"/>
     </g>
     <g id="line2d_160">
      <g>
       <use style="stroke:#000000;stroke-width:0.6;" x="68.667768" xlink:href="#mbb3181493d" y="216.886841"/>
      </g>
     </g>
    </g>
    <g id="ytick_11">
     <g id="line2d_161">
      <path clip-path="url(#p4087108aec)" d="M 68.667768 178.678958 
L 490.68 178.678958 
" style="fill:none;stroke:#808080;stroke-dasharray:0.8,1.32;stroke-dashoffset:0;stroke-width:0.8;"/>
     </g>
     <g id="line2d_162">
      <g>
       <use style="stroke:#000000;stroke-width:0.6;" x="68.667768" xlink:href="#mbb3181493d" y="178.678958"/>
      </g>
     </g>
    </g>
    <g id="ytick_12">
     <g id="line2d_163">
      <path clip-path="url(#p4087108aec)" d="M 68.667768 159.277813 
L 490.68 159.277813 
" style="fill:none;stroke:#808080;stroke-dasharray:0.8,1.32;stroke-dashoffset:0;stroke-width:0.8;"/>
     </g>
     <g id="line2d_164">
      <g>
       <use style="stroke:#000000;stroke-width:0.6;" x="68.667768" xlink:href="#mbb3181493d" y="159.277813"/>
      </g>
     </g>
    </g>
    <g id="ytick_13">
     <g id="line2d_165">
      <path clip-path="url(#p4087108aec)" d="M 68.667768 145.512481 
L 490.68 145.512481 
" style="fill:none;stroke:#808080;stroke-dasharray:0.8,1.32;stroke-dashoffset:0;stroke-width:0.8;"/>
     </g>
     <g id="line2d_166">
      <g>
       <use style="stroke:#000000;stroke-width:0.6;" x="68.667768" xlink:href="#mbb3181493d" y="145.512481"/>
      </g>
     </g>
    </g>
    <g id="ytick_14">
     <g id="line2d_167">
      <path clip-path="url(#p4087108aec)" d="M 68.667768 134.835261 
L 490.68 134.835261 
" style="fill:none;stroke:#808080;stroke-dasharray:0.8,1.32;stroke-dashoffset:0;stroke-width:0.8;"/>
     </g>
     <g id="line2d_168">
      <g>
       <use style="stroke:#000000;stroke-width:0.6;" x="68.667768" xlink:href="#mbb3181493d" y="134.835261"/>
      </g>
     </g>
    </g>
    <g id="ytick_15">
     <g id="line2d_169">
      <path clip-path="url(#p4087108aec)" d="M 68.667768 126.111336 
L 490.68 126.111336 
" style="fill:none;stroke:#808080;stroke-dasharray:0.8,1.32;stroke-dashoffset:0;stroke-width:0.8;"/>
     </g>
     <g id="line2d_170">
      <g>
       <use style="stroke:#000000;stroke-width:0.6;" x="68.667768" xlink:href="#mbb3181493d" y="126.111336"/>
      </g>
     </g>
    </g>
    <g id="ytick_16">
     <g id="line2d_171">
      <path clip-path="url(#p4087108aec)" d="M 68.667768 118.735363 
L 490.68 118.735363 
" style="fill:none;stroke:#808080;stroke-dasharray:0.8,1.32;stroke-dashoffset:0;stroke-width:0.8;"/>
     </g>
     <g id="line2d_172">
      <g>
       <use style="stroke:#000000;stroke-width:0.6;" x="68.667768" xlink:href="#mbb3181493d" y="118.735363"/>
      </g>
     </g>
    </g>
    <g id="ytick_17">
     <g id="line2d_173">
      <path clip-path="url(#p4087108aec)" d="M 68.667768 112.346005 
L 490.68 112.346005 
" style="fill:none;stroke:#808080;stroke-dasharray:0.8,1.32;stroke-dashoffset:0;stroke-width:0.8;"/>
     </g>
     <g id="line2d_174">
      <g>
       <use style="stroke:#000000;stroke-width:0.6;" x="68.667768" xlink:href="#mbb3181493d" y="112.346005"/>
      </g>
     </g>
    </g>
    <g id="ytick_18">
     <g id="line2d_175">
      <path clip-path="url(#p4087108aec)" d="M 68.667768 106.710191 
L 490.68 106.710191 
" style="fill:none;stroke:#808080;stroke-dasharray:0.8,1.32;stroke-dashoffset:0;stroke-width:0.8;"/>
     </g>
     <g id="line2d_176">
      <g>
       <use style="stroke:#000000;stroke-width:0.6;" x="68.667768" xlink:href="#mbb3181493d" y="106.710191"/>
      </g>
     </g>
    </g>
    <g id="ytick_19">
     <g id="line2d_177">
      <path clip-path="url(#p4087108aec)" d="M 68.667768 68.502308 
L 490.68 68.502308 
" style="fill:none;stroke:#808080;stroke-dasharray:0.8,1.32;stroke-dashoffset:0;stroke-width:0.8;"/>
     </g>
     <g id="line2d_178">
      <g>
       <use style="stroke:#000000;stroke-width:0.6;" x="68.667768" xlink:href="#mbb3181493d" y="68.502308"/>
      </g>
     </g>
    </g>
    <g id="ytick_20">
     <g id="line2d_179">
      <path clip-path="url(#p4087108aec)" d="M 68.667768 49.101163 
L 490.68 49.101163 
" style="fill:none;stroke:#808080;stroke-dasharray:0.8,1.32;stroke-dashoffset:0;stroke-width:0.8;"/>
     </g>
     <g id="line2d_180">
      <g>
       <use style="stroke:#000000;stroke-width:0.6;" x="68.667768" xlink:href="#mbb3181493d" y="49.101163"/>
      </g>
     </g>
    </g>
    <g id="ytick_21">
     <g id="line2d_181">
      <path clip-path="url(#p4087108aec)" d="M 68.667768 35.335831 
L 490.68 35.335831 
" style="fill:none;stroke:#808080;stroke-dasharray:0.8,1.32;stroke-dashoffset:0;stroke-width:0.8;"/>
     </g>
     <g id="line2d_182">
      <g>
       <use style="stroke:#000000;stroke-width:0.6;" x="68.667768" xlink:href="#mbb3181493d" y="35.335831"/>
      </g>
     </g>
    </g>
    <g id="text_12">
     <!-- spectral density [V^2/Hz] -->
     <defs>
      <path d="M 44.28125 53.078125 
L 44.28125 44.578125 
Q 40.484375 46.53125 36.375 47.5 
Q 32.28125 48.484375 27.875 48.484375 
Q 21.1875 48.484375 17.84375 46.4375 
Q 14.5 44.390625 14.5 40.28125 
Q 14.5 37.15625 16.890625 35.375 
Q 19.28125 33.59375 26.515625 31.984375 
L 29.59375 31.296875 
Q 39.15625 29.25 43.1875 25.515625 
Q 47.21875 21.78125 47.21875 15.09375 
Q 47.21875 7.46875 41.1875 3.015625 
Q 35.15625 -1.421875 24.609375 -1.421875 
Q 20.21875 -1.421875 15.453125 -0.5625 
Q 10.6875 0.296875 5.421875 2 
L 5.421875 11.28125 
Q 10.40625 8.6875 15.234375 7.390625 
Q 20.0625 6.109375 24.8125 6.109375 
Q 31.15625 6.109375 34.5625 8.28125 
Q 37.984375 10.453125 37.984375 14.40625 
Q 37.984375 18.0625 35.515625 20.015625 
Q 33.0625 21.96875 24.703125 23.78125 
L 21.578125 24.515625 
Q 13.234375 26.265625 9.515625 29.90625 
Q 5.8125 33.546875 5.8125 39.890625 
Q 5.8125 47.609375 11.28125 51.796875 
Q 16.75 56 26.8125 56 
Q 31.78125 56 36.171875 55.265625 
Q 40.578125 54.546875 44.28125 53.078125 
z
" id="DejaVuSans-73"/>
      <path d="M 18.109375 8.203125 
L 18.109375 -20.796875 
L 9.078125 -20.796875 
L 9.078125 54.6875 
L 18.109375 54.6875 
L 18.109375 46.390625 
Q 20.953125 51.265625 25.265625 53.625 
Q 29.59375 56 35.59375 56 
Q 45.5625 56 51.78125 48.09375 
Q 58.015625 40.1875 58.015625 27.296875 
Q 58.015625 14.40625 51.78125 6.484375 
Q 45.5625 -1.421875 35.59375 -1.421875 
Q 29.59375 -1.421875 25.265625 0.953125 
Q 20.953125 3.328125 18.109375 8.203125 
z
M 48.6875 27.296875 
Q 48.6875 37.203125 44.609375 42.84375 
Q 40.53125 48.484375 33.40625 48.484375 
Q 26.265625 48.484375 22.1875 42.84375 
Q 18.109375 37.203125 18.109375 27.296875 
Q 18.109375 17.390625 22.1875 11.75 
Q 26.265625 6.109375 33.40625 6.109375 
Q 40.53125 6.109375 44.609375 11.75 
Q 48.6875 17.390625 48.6875 27.296875 
z
" id="DejaVuSans-70"/>
      <path d="M 18.3125 70.21875 
L 18.3125 54.6875 
L 36.8125 54.6875 
L 36.8125 47.703125 
L 18.3125 47.703125 
L 18.3125 18.015625 
Q 18.3125 11.328125 20.140625 9.421875 
Q 21.96875 7.515625 27.59375 7.515625 
L 36.8125 7.515625 
L 36.8125 0 
L 27.59375 0 
Q 17.1875 0 13.234375 3.875 
Q 9.28125 7.765625 9.28125 18.015625 
L 9.28125 47.703125 
L 2.6875 47.703125 
L 2.6875 54.6875 
L 9.28125 54.6875 
L 9.28125 70.21875 
z
" id="DejaVuSans-74"/>
      <path d="M 34.28125 27.484375 
Q 23.390625 27.484375 19.1875 25 
Q 14.984375 22.515625 14.984375 16.5 
Q 14.984375 11.71875 18.140625 8.90625 
Q 21.296875 6.109375 26.703125 6.109375 
Q 34.1875 6.109375 38.703125 11.40625 
Q 43.21875 16.703125 43.21875 25.484375 
L 43.21875 27.484375 
z
M 52.203125 31.203125 
L 52.203125 0 
L 43.21875 0 
L 43.21875 8.296875 
Q 40.140625 3.328125 35.546875 0.953125 
Q 30.953125 -1.421875 24.3125 -1.421875 
Q 15.921875 -1.421875 10.953125 3.296875 
Q 6 8.015625 6 15.921875 
Q 6 25.140625 12.171875 29.828125 
Q 18.359375 34.515625 30.609375 34.515625 
L 43.21875 34.515625 
L 43.21875 35.40625 
Q 43.21875 41.609375 39.140625 45 
Q 35.0625 48.390625 27.6875 48.390625 
Q 23 48.390625 18.546875 47.265625 
Q 14.109375 46.140625 10.015625 43.890625 
L 10.015625 52.203125 
Q 14.9375 54.109375 19.578125 55.046875 
Q 24.21875 56 28.609375 56 
Q 40.484375 56 46.34375 49.84375 
Q 52.203125 43.703125 52.203125 31.203125 
z
" id="DejaVuSans-61"/>
      <path d="M 9.421875 75.984375 
L 18.40625 75.984375 
L 18.40625 0 
L 9.421875 0 
z
" id="DejaVuSans-6c"/>
      <path d="M 45.40625 46.390625 
L 45.40625 75.984375 
L 54.390625 75.984375 
L 54.390625 0 
L 45.40625 0 
L 45.40625 8.203125 
Q 42.578125 3.328125 38.25 0.953125 
Q 33.9375 -1.421875 27.875 -1.421875 
Q 17.96875 -1.421875 11.734375 6.484375 
Q 5.515625 14.40625 5.515625 27.296875 
Q 5.515625 40.1875 11.734375 48.09375 
Q 17.96875 56 27.875 56 
Q 33.9375 56 38.25 53.625 
Q 42.578125 51.265625 45.40625 46.390625 
z
M 14.796875 27.296875 
Q 14.796875 17.390625 18.875 11.75 
Q 22.953125 6.109375 30.078125 6.109375 
Q 37.203125 6.109375 41.296875 11.75 
Q 45.40625 17.390625 45.40625 27.296875 
Q 45.40625 37.203125 41.296875 42.84375 
Q 37.203125 48.484375 30.078125 48.484375 
Q 22.953125 48.484375 18.875 42.84375 
Q 14.796875 37.203125 14.796875 27.296875 
z
" id="DejaVuSans-64"/>
      <path d="M 9.421875 54.6875 
L 18.40625 54.6875 
L 18.40625 0 
L 9.421875 0 
z
M 9.421875 75.984375 
L 18.40625 75.984375 
L 18.40625 64.59375 
L 9.421875 64.59375 
z
" id="DejaVuSans-69"/>
      <path d="M 28.609375 0 
L 0.78125 72.90625 
L 11.078125 72.90625 
L 34.1875 11.53125 
L 57.328125 72.90625 
L 67.578125 72.90625 
L 39.796875 0 
z
" id="DejaVuSans-56"/>
      <path d="M 46.6875 72.90625 
L 73.1875 45.703125 
L 63.375 45.703125 
L 41.890625 64.984375 
L 20.40625 45.703125 
L 10.59375 45.703125 
L 37.109375 72.90625 
z
" id="DejaVuSans-5e"/>
      <path d="M 25.390625 72.90625 
L 33.6875 72.90625 
L 8.296875 -9.28125 
L 0 -9.28125 
z
" id="DejaVuSans-2f"/>
     </defs>
     <g transform="translate(21.692143 246.039312)rotate(-90)scale(0.12 -0.12)">
      <use xlink:href="#DejaVuSans-73"/>
      <use x="52.099609" xlink:href="#DejaVuSans-70"/>
      <use x="115.576172" xlink:href="#DejaVuSans-65"/>
      <use x="177.099609" xlink:href="#DejaVuSans-63"/>
      <use x="232.080078" xlink:href="#DejaVuSans-74"/>
      <use x="271.289062" xlink:href="#DejaVuSans-72"/>
      <use x="312.402344" xlink:href="#DejaVuSans-61"/>
      <use x="373.681641" xlink:href="#DejaVuSans-6c"/>
      <use x="401.464844" xlink:href="#DejaVuSans-20"/>
      <use x="433.251953" xlink:href="#DejaVuSans-64"/>
      <use x="496.728516" xlink:href="#DejaVuSans-65"/>
      <use x="558.251953" xlink:href="#DejaVuSans-6e"/>
      <use x="621.630859" xlink:href="#DejaVuSans-73"/>
      <use x="673.730469" xlink:href="#DejaVuSans-69"/>
      <use x="701.513672" xlink:href="#DejaVuSans-74"/>
      <use x="740.722656" xlink:href="#DejaVuSans-79"/>
      <use x="799.902344" xlink:href="#DejaVuSans-20"/>
      <use x="831.689453" xlink:href="#DejaVuSans-5b"/>
      <use x="870.703125" xlink:href="#DejaVuSans-56"/>
      <use x="939.111328" xlink:href="#DejaVuSans-5e"/>
      <use x="1022.900391" xlink:href="#DejaVuSans-32"/>
      <use x="1086.523438" xlink:href="#DejaVuSans-2f"/>
      <use x="1120.214844" xlink:href="#DejaVuSans-48"/>
      <use x="1195.410156" xlink:href="#DejaVuSans-7a"/>
      <use x="1247.900391" xlink:href="#DejaVuSans-5d"/>
     </g>
    </g>
   </g>
   <g id="line2d_183">
    <path clip-path="url(#p4087108aec)" d="M 87.850142 39.784 
L 95.561649 53.650172 
L 103.273157 66.978721 
L 109.056787 76.538583 
L 114.840417 85.653196 
L 120.624048 94.25704 
L 124.479801 99.677915 
L 128.335555 104.826758 
L 132.191309 109.688757 
L 136.047062 114.251891 
L 139.902816 118.5075 
L 143.758569 122.450712 
L 147.614323 126.080696 
L 151.470077 129.400712 
L 155.32583 132.417956 
L 159.181584 135.143209 
L 163.037338 137.590343 
L 166.893091 139.775723 
L 170.748845 141.717561 
L 174.604598 143.43529 
L 178.460352 144.948989 
L 182.316106 146.278906 
L 188.099736 147.972957 
L 193.883366 149.364382 
L 199.666997 150.516756 
L 207.378504 151.790081 
L 226.657272 154.738806 
L 230.513026 155.532534 
L 234.368779 156.501975 
L 238.224533 157.713725 
L 242.080286 159.245343 
L 245.93604 161.182062 
L 247.863917 162.329275 
L 249.791794 163.609041 
L 251.71967 165.029794 
L 253.647547 166.597988 
L 255.575424 168.317425 
L 259.431178 172.208087 
L 263.286931 176.656299 
L 267.142685 181.544785 
L 278.709946 196.838084 
L 282.565699 201.408358 
L 286.421453 205.436587 
L 288.34933 207.223558 
L 290.277206 208.855094 
L 292.205083 210.332896 
L 294.13296 211.661697 
L 296.060837 212.848593 
L 299.91659 214.832939 
L 303.772344 216.3664 
L 307.628098 217.532465 
L 311.483851 218.408222 
L 315.339605 219.059811 
L 321.123235 219.731894 
L 326.906866 220.154412 
L 334.618373 220.481957 
L 346.185634 220.709272 
L 365.464402 220.823173 
L 427.156459 220.853687 
L 471.497626 220.852251 
L 471.497626 220.852251 
" style="fill:none;stroke:#ff0000;stroke-linecap:square;stroke-width:2;"/>
   </g>
   <g id="line2d_184">
    <path clip-path="url(#p4087108aec)" d="M 87.850142 72.950476 
L 95.561649 86.816648 
L 103.273157 100.145197 
L 109.056787 109.70506 
L 114.840417 118.819672 
L 120.624048 127.423517 
L 124.479801 132.844392 
L 128.335555 137.993235 
L 132.191309 142.855233 
L 136.047062 147.418367 
L 139.902816 151.673977 
L 143.758569 155.617189 
L 147.614323 159.247173 
L 151.470077 162.567189 
L 155.32583 165.584432 
L 159.181584 168.309685 
L 163.037338 170.756819 
L 166.893091 172.942199 
L 170.748845 174.884037 
L 174.604598 176.601766 
L 178.460352 178.115465 
L 182.316106 179.445383 
L 188.099736 181.139433 
L 193.883366 182.530858 
L 199.666997 183.683232 
L 207.378504 184.956558 
L 226.657272 187.905282 
L 230.513026 188.699011 
L 234.368779 189.668452 
L 238.224533 190.880202 
L 242.080286 192.411819 
L 245.93604 194.348538 
L 247.863917 195.495752 
L 249.791794 196.775518 
L 251.71967 198.196271 
L 253.647547 199.764464 
L 255.575424 201.483901 
L 259.431178 205.374563 
L 263.286931 209.822776 
L 267.142685 214.711261 
L 278.709946 230.00456 
L 282.565699 234.574834 
L 286.421453 238.603063 
L 288.34933 240.390035 
L 290.277206 242.02157 
L 292.205083 243.499372 
L 294.13296 244.828174 
L 296.060837 246.015069 
L 299.91659 247.999416 
L 303.772344 249.532876 
L 307.628098 250.698942 
L 311.483851 251.574698 
L 315.339605 252.226288 
L 321.123235 252.89837 
L 326.906866 253.320888 
L 334.618373 253.648433 
L 346.185634 253.875748 
L 365.464402 253.989649 
L 427.156459 254.020163 
L 471.497626 254.018727 
L 471.497626 254.018727 
" style="fill:none;stroke:#0000ff;stroke-linecap:square;stroke-width:2;"/>
   </g>
   <g id="line2d_185">
    <path clip-path="url(#p4087108aec)" d="M 87.850142 92.351621 
L 95.561649 106.217793 
L 103.273157 119.546342 
L 109.056787 129.106205 
L 114.840417 138.220817 
L 120.624048 146.824662 
L 124.479801 152.245536 
L 128.335555 157.39438 
L 132.191309 162.256378 
L 136.047062 166.819512 
L 139.902816 171.075122 
L 143.758569 175.018334 
L 147.614323 178.648318 
L 151.470077 181.968334 
L 155.32583 184.985577 
L 159.181584 187.71083 
L 163.037338 190.157964 
L 166.893091 192.343344 
L 170.748845 194.285182 
L 174.604598 196.002911 
L 178.460352 197.51661 
L 182.316106 198.846528 
L 188.099736 200.540578 
L 193.883366 201.932003 
L 199.666997 203.084377 
L 207.378504 204.357703 
L 226.657272 207.306427 
L 230.513026 208.100156 
L 234.368779 209.069597 
L 238.224533 210.281347 
L 242.080286 211.812964 
L 245.93604 213.749683 
L 247.863917 214.896897 
L 249.791794 216.176663 
L 251.71967 217.597416 
L 253.647547 219.165609 
L 255.575424 220.885046 
L 259.431178 224.775708 
L 263.286931 229.223921 
L 267.142685 234.112406 
L 278.709946 249.405705 
L 282.565699 253.975979 
L 286.421453 258.004208 
L 288.34933 259.791179 
L 290.277206 261.422715 
L 292.205083 262.900517 
L 294.13296 264.229319 
L 296.060837 265.416214 
L 299.91659 267.400561 
L 303.772344 268.934021 
L 307.628098 270.100087 
L 311.483851 270.975843 
L 315.339605 271.627433 
L 321.123235 272.299515 
L 326.906866 272.722033 
L 334.618373 273.049578 
L 346.185634 273.276893 
L 365.464402 273.390794 
L 427.156459 273.421308 
L 471.497626 273.419872 
L 471.497626 273.419872 
" style="fill:none;stroke:#008000;stroke-linecap:square;stroke-width:2;"/>
   </g>
   <g id="line2d_186">
    <path clip-path="url(#p4087108aec)" d="M 87.850142 106.116953 
L 95.561649 119.983125 
L 103.273157 133.311674 
L 109.056787 142.871536 
L 114.840417 151.986149 
L 120.624048 160.589993 
L 124.479801 166.010868 
L 128.335555 171.159711 
L 132.191309 176.02171 
L 136.047062 180.584844 
L 139.902816 184.840453 
L 143.758569 188.783665 
L 147.614323 192.413649 
L 151.470077 195.733665 
L 155.32583 198.750908 
L 159.181584 201.476161 
L 163.037338 203.923296 
L 166.893091 206.108676 
L 170.748845 208.050514 
L 174.604598 209.768242 
L 178.460352 211.281942 
L 182.316106 212.611859 
L 188.099736 214.305909 
L 193.883366 215.697334 
L 199.666997 216.849708 
L 207.378504 218.123034 
L 226.657272 221.071758 
L 230.513026 221.865487 
L 234.368779 222.834928 
L 238.224533 224.046678 
L 242.080286 225.578296 
L 245.93604 227.515015 
L 247.863917 228.662228 
L 249.791794 229.941994 
L 251.71967 231.362747 
L 253.647547 232.930941 
L 255.575424 234.650378 
L 259.431178 238.54104 
L 263.286931 242.989252 
L 267.142685 247.877738 
L 278.709946 263.171037 
L 282.565699 267.741311 
L 286.421453 271.76954 
L 288.34933 273.556511 
L 290.277206 275.188046 
L 292.205083 276.665848 
L 294.13296 277.99465 
L 296.060837 279.181546 
L 299.91659 281.165892 
L 303.772344 282.699353 
L 307.628098 283.865418 
L 311.483851 284.741175 
L 315.339605 285.392764 
L 321.123235 286.064847 
L 326.906866 286.487365 
L 334.618373 286.814909 
L 346.185634 287.042225 
L 365.464402 287.156126 
L 427.156459 287.18664 
L 471.497626 287.185204 
L 471.497626 287.185204 
" style="fill:none;stroke:#00bfbf;stroke-linecap:square;stroke-width:2;"/>
   </g>
   <g id="line2d_187">
    <path clip-path="url(#p4087108aec)" d="M 87.850142 116.794173 
L 95.561649 130.660345 
L 103.273157 143.988894 
L 109.056787 153.548757 
L 114.840417 162.663369 
L 120.624048 171.267214 
L 124.479801 176.688088 
L 128.335555 181.836932 
L 132.191309 186.69893 
L 136.047062 191.262064 
L 139.902816 195.517674 
L 143.758569 199.460886 
L 147.614323 203.09087 
L 151.470077 206.410886 
L 155.32583 209.428129 
L 159.181584 212.153382 
L 163.037338 214.600516 
L 166.893091 216.785896 
L 170.748845 218.727734 
L 174.604598 220.445463 
L 178.460352 221.959162 
L 182.316106 223.28908 
L 188.099736 224.98313 
L 193.883366 226.374555 
L 199.666997 227.526929 
L 207.378504 228.800255 
L 226.657272 231.748979 
L 230.513026 232.542708 
L 234.368779 233.512149 
L 238.224533 234.723899 
L 242.080286 236.255516 
L 245.93604 238.192235 
L 247.863917 239.339449 
L 249.791794 240.619215 
L 251.71967 242.039968 
L 253.647547 243.608161 
L 255.575424 245.327598 
L 259.431178 249.21826 
L 263.286931 253.666473 
L 267.142685 258.554958 
L 278.709946 273.848257 
L 282.565699 278.418531 
L 286.421453 282.44676 
L 288.34933 284.233731 
L 290.277206 285.865267 
L 292.205083 287.343069 
L 294.13296 288.671871 
L 296.060837 289.858766 
L 299.91659 291.843113 
L 303.772344 293.376573 
L 307.628098 294.542639 
L 311.483851 295.418395 
L 315.339605 296.069985 
L 321.123235 296.742067 
L 326.906866 297.164585 
L 334.618373 297.49213 
L 346.185634 297.719445 
L 365.464402 297.833346 
L 427.156459 297.86386 
L 471.497626 297.862424 
L 471.497626 297.862424 
" style="fill:none;stroke:#bf00bf;stroke-linecap:square;stroke-width:2;"/>
   </g>
   <g id="patch_3">
    <path d="M 68.667768 310.768 
L 68.667768 26.88 
" style="fill:none;stroke:#000000;stroke-linecap:square;stroke-linejoin:miter;stroke-width:0.8;"/>
   </g>
   <g id="patch_4">
    <path d="M 490.68 310.768 
L 490.68 26.88 
" style="fill:none;stroke:#000000;stroke-linecap:square;stroke-linejoin:miter;stroke-width:0.8;"/>
   </g>
   <g id="patch_5">
    <path d="M 68.667768 310.768 
L 490.68 310.768 
" style="fill:none;stroke:#000000;stroke-linecap:square;stroke-linejoin:miter;stroke-width:0.8;"/>
   </g>
   <g id="patch_6">
    <path d="M 68.667768 26.88 
L 490.68 26.88 
" style="fill:none;stroke:#000000;stroke-linecap:square;stroke-linejoin:miter;stroke-width:0.8;"/>
   </g>
   <g id="text_13">
    <!-- Source-refferred noise -->
    <defs>
     <path d="M 53.515625 70.515625 
L 53.515625 60.890625 
Q 47.90625 63.578125 42.921875 64.890625 
Q 37.9375 66.21875 33.296875 66.21875 
Q 25.25 66.21875 20.875 63.09375 
Q 16.5 59.96875 16.5 54.203125 
Q 16.5 49.359375 19.40625 46.890625 
Q 22.3125 44.4375 30.421875 42.921875 
L 36.375 41.703125 
Q 47.40625 39.59375 52.65625 34.296875 
Q 57.90625 29 57.90625 20.125 
Q 57.90625 9.515625 50.796875 4.046875 
Q 43.703125 -1.421875 29.984375 -1.421875 
Q 24.8125 -1.421875 18.96875 -0.25 
Q 13.140625 0.921875 6.890625 3.21875 
L 6.890625 13.375 
Q 12.890625 10.015625 18.65625 8.296875 
Q 24.421875 6.59375 29.984375 6.59375 
Q 38.421875 6.59375 43.015625 9.90625 
Q 47.609375 13.234375 47.609375 19.390625 
Q 47.609375 24.75 44.3125 27.78125 
Q 41.015625 30.8125 33.5 32.328125 
L 27.484375 33.5 
Q 16.453125 35.6875 11.515625 40.375 
Q 6.59375 45.0625 6.59375 53.421875 
Q 6.59375 63.09375 13.40625 68.65625 
Q 20.21875 74.21875 32.171875 74.21875 
Q 37.3125 74.21875 42.625 73.28125 
Q 47.953125 72.359375 53.515625 70.515625 
z
" id="DejaVuSans-53"/>
     <path d="M 30.609375 48.390625 
Q 23.390625 48.390625 19.1875 42.75 
Q 14.984375 37.109375 14.984375 27.296875 
Q 14.984375 17.484375 19.15625 11.84375 
Q 23.34375 6.203125 30.609375 6.203125 
Q 37.796875 6.203125 41.984375 11.859375 
Q 46.1875 17.53125 46.1875 27.296875 
Q 46.1875 37.015625 41.984375 42.703125 
Q 37.796875 48.390625 30.609375 48.390625 
z
M 30.609375 56 
Q 42.328125 56 49.015625 48.375 
Q 55.71875 40.765625 55.71875 27.296875 
Q 55.71875 13.875 49.015625 6.21875 
Q 42.328125 -1.421875 30.609375 -1.421875 
Q 18.84375 -1.421875 12.171875 6.21875 
Q 5.515625 13.875 5.515625 27.296875 
Q 5.515625 40.765625 12.171875 48.375 
Q 18.84375 56 30.609375 56 
z
" id="DejaVuSans-6f"/>
     <path d="M 4.890625 31.390625 
L 31.203125 31.390625 
L 31.203125 23.390625 
L 4.890625 23.390625 
z
" id="DejaVuSans-2d"/>
    </defs>
    <g transform="translate(212.401697 20.88)scale(0.12 -0.12)">
     <use xlink:href="#DejaVuSans-53"/>
     <use x="63.476562" xlink:href="#DejaVuSans-6f"/>
     <use x="124.658203" xlink:href="#DejaVuSans-75"/>
     <use x="188.037109" xlink:href="#DejaVuSans-72"/>
     <use x="229.119141" xlink:href="#DejaVuSans-63"/>
     <use x="284.099609" xlink:href="#DejaVuSans-65"/>
     <use x="345.623047" xlink:href="#DejaVuSans-2d"/>
     <use x="381.707031" xlink:href="#DejaVuSans-72"/>
     <use x="422.789062" xlink:href="#DejaVuSans-65"/>
     <use x="484.3125" xlink:href="#DejaVuSans-66"/>
     <use x="519.517578" xlink:href="#DejaVuSans-66"/>
     <use x="554.722656" xlink:href="#DejaVuSans-65"/>
     <use x="616.246094" xlink:href="#DejaVuSans-72"/>
     <use x="657.34375" xlink:href="#DejaVuSans-72"/>
     <use x="698.425781" xlink:href="#DejaVuSans-65"/>
     <use x="759.949219" xlink:href="#DejaVuSans-64"/>
     <use x="823.425781" xlink:href="#DejaVuSans-20"/>
     <use x="855.212891" xlink:href="#DejaVuSans-6e"/>
     <use x="918.591797" xlink:href="#DejaVuSans-6f"/>
     <use x="979.773438" xlink:href="#DejaVuSans-69"/>
     <use x="1007.556641" xlink:href="#DejaVuSans-73"/>
     <use x="1059.65625" xlink:href="#DejaVuSans-65"/>
    </g>
   </g>
   <g id="legend_1">
    <g id="patch_7">
     <path d="M 314.525 95.6175 
L 483.68 95.6175 
Q 485.68 95.6175 485.68 93.6175 
L 485.68 33.88 
Q 485.68 31.88 483.68 31.88 
L 314.525 31.88 
Q 312.525 31.88 312.525 33.88 
L 312.525 93.6175 
Q 312.525 95.6175 314.525 95.6175 
z
" style="fill:#ffffff;opacity:0.8;stroke:#cccccc;stroke-linejoin:miter;"/>
    </g>
    <g id="line2d_188">
     <path d="M 314.525 39.498125 
L 324.525 39.498125 
" style="fill:none;stroke:#ff0000;stroke-linecap:square;stroke-width:2;"/>
    </g>
    <g id="line2d_189"/>
    <g id="text_14">
     <!-- inoise: I1, R_p =  2.0e+02 -->
     <defs>
      <path d="M 11.71875 12.40625 
L 22.015625 12.40625 
L 22.015625 0 
L 11.71875 0 
z
M 11.71875 51.703125 
L 22.015625 51.703125 
L 22.015625 39.3125 
L 11.71875 39.3125 
z
" id="DejaVuSans-3a"/>
      <path d="M 9.8125 72.90625 
L 19.671875 72.90625 
L 19.671875 0 
L 9.8125 0 
z
" id="DejaVuSans-49"/>
      <path d="M 11.71875 12.40625 
L 22.015625 12.40625 
L 22.015625 4 
L 14.015625 -11.625 
L 7.71875 -11.625 
L 11.71875 4 
z
" id="DejaVuSans-2c"/>
      <path d="M 44.390625 34.1875 
Q 47.5625 33.109375 50.5625 29.59375 
Q 53.5625 26.078125 56.59375 19.921875 
L 66.609375 0 
L 56 0 
L 46.6875 18.703125 
Q 43.0625 26.03125 39.671875 28.421875 
Q 36.28125 30.8125 30.421875 30.8125 
L 19.671875 30.8125 
L 19.671875 0 
L 9.8125 0 
L 9.8125 72.90625 
L 32.078125 72.90625 
Q 44.578125 72.90625 50.734375 67.671875 
Q 56.890625 62.453125 56.890625 51.90625 
Q 56.890625 45.015625 53.6875 40.46875 
Q 50.484375 35.9375 44.390625 34.1875 
z
M 19.671875 64.796875 
L 19.671875 38.921875 
L 32.078125 38.921875 
Q 39.203125 38.921875 42.84375 42.21875 
Q 46.484375 45.515625 46.484375 51.90625 
Q 46.484375 58.296875 42.84375 61.546875 
Q 39.203125 64.796875 32.078125 64.796875 
z
" id="DejaVuSans-52"/>
      <path d="M 50.984375 -16.609375 
L 50.984375 -23.578125 
L -0.984375 -23.578125 
L -0.984375 -16.609375 
z
" id="DejaVuSans-5f"/>
      <path d="M 10.59375 45.40625 
L 73.1875 45.40625 
L 73.1875 37.203125 
L 10.59375 37.203125 
z
M 10.59375 25.484375 
L 73.1875 25.484375 
L 73.1875 17.1875 
L 10.59375 17.1875 
z
" id="DejaVuSans-3d"/>
      <path d="M 10.6875 12.40625 
L 21 12.40625 
L 21 0 
L 10.6875 0 
z
" id="DejaVuSans-2e"/>
      <path d="M 46 62.703125 
L 46 35.5 
L 73.1875 35.5 
L 73.1875 27.203125 
L 46 27.203125 
L 46 0 
L 37.796875 0 
L 37.796875 27.203125 
L 10.59375 27.203125 
L 10.59375 35.5 
L 37.796875 35.5 
L 37.796875 62.703125 
z
" id="DejaVuSans-2b"/>
     </defs>
     <g transform="translate(326.525 42.998125)scale(0.12 -0.12)">
      <use xlink:href="#DejaVuSans-69"/>
      <use x="27.783203" xlink:href="#DejaVuSans-6e"/>
      <use x="91.162109" xlink:href="#DejaVuSans-6f"/>
      <use x="152.34375" xlink:href="#DejaVuSans-69"/>
      <use x="180.126953" xlink:href="#DejaVuSans-73"/>
      <use x="232.226562" xlink:href="#DejaVuSans-65"/>
      <use x="293.75" xlink:href="#DejaVuSans-3a"/>
      <use x="327.441406" xlink:href="#DejaVuSans-20"/>
      <use x="359.228516" xlink:href="#DejaVuSans-49"/>
      <use x="388.720703" xlink:href="#DejaVuSans-31"/>
      <use x="452.34375" xlink:href="#DejaVuSans-2c"/>
      <use x="484.130859" xlink:href="#DejaVuSans-20"/>
      <use x="515.917969" xlink:href="#DejaVuSans-52"/>
      <use x="585.400391" xlink:href="#DejaVuSans-5f"/>
      <use x="635.400391" xlink:href="#DejaVuSans-70"/>
      <use x="698.876953" xlink:href="#DejaVuSans-20"/>
      <use x="730.664062" xlink:href="#DejaVuSans-3d"/>
      <use x="814.453125" xlink:href="#DejaVuSans-20"/>
      <use x="846.240234" xlink:href="#DejaVuSans-20"/>
      <use x="878.027344" xlink:href="#DejaVuSans-32"/>
      <use x="941.650391" xlink:href="#DejaVuSans-2e"/>
      <use x="973.4375" xlink:href="#DejaVuSans-30"/>
      <use x="1037.060547" xlink:href="#DejaVuSans-65"/>
      <use x="1098.583984" xlink:href="#DejaVuSans-2b"/>
      <use x="1182.373047" xlink:href="#DejaVuSans-30"/>
      <use x="1245.996094" xlink:href="#DejaVuSans-32"/>
     </g>
    </g>
    <g id="line2d_190">
     <path d="M 314.525 51.445625 
L 324.525 51.445625 
" style="fill:none;stroke:#0000ff;stroke-linecap:square;stroke-width:2;"/>
    </g>
    <g id="line2d_191"/>
    <g id="text_15">
     <!-- inoise: I1, R_p =  4.0e+02 -->
     <g transform="translate(326.525 54.945625)scale(0.12 -0.12)">
      <use xlink:href="#DejaVuSans-69"/>
      <use x="27.783203" xlink:href="#DejaVuSans-6e"/>
      <use x="91.162109" xlink:href="#DejaVuSans-6f"/>
      <use x="152.34375" xlink:href="#DejaVuSans-69"/>
      <use x="180.126953" xlink:href="#DejaVuSans-73"/>
      <use x="232.226562" xlink:href="#DejaVuSans-65"/>
      <use x="293.75" xlink:href="#DejaVuSans-3a"/>
      <use x="327.441406" xlink:href="#DejaVuSans-20"/>
      <use x="359.228516" xlink:href="#DejaVuSans-49"/>
      <use x="388.720703" xlink:href="#DejaVuSans-31"/>
      <use x="452.34375" xlink:href="#DejaVuSans-2c"/>
      <use x="484.130859" xlink:href="#DejaVuSans-20"/>
      <use x="515.917969" xlink:href="#DejaVuSans-52"/>
      <use x="585.400391" xlink:href="#DejaVuSans-5f"/>
      <use x="635.400391" xlink:href="#DejaVuSans-70"/>
      <use x="698.876953" xlink:href="#DejaVuSans-20"/>
      <use x="730.664062" xlink:href="#DejaVuSans-3d"/>
      <use x="814.453125" xlink:href="#DejaVuSans-20"/>
      <use x="846.240234" xlink:href="#DejaVuSans-20"/>
      <use x="878.027344" xlink:href="#DejaVuSans-34"/>
      <use x="941.650391" xlink:href="#DejaVuSans-2e"/>
      <use x="973.4375" xlink:href="#DejaVuSans-30"/>
      <use x="1037.060547" xlink:href="#DejaVuSans-65"/>
      <use x="1098.583984" xlink:href="#DejaVuSans-2b"/>
      <use x="1182.373047" xlink:href="#DejaVuSans-30"/>
      <use x="1245.996094" xlink:href="#DejaVuSans-32"/>
     </g>
    </g>
    <g id="line2d_192">
     <path d="M 314.525 63.393125 
L 324.525 63.393125 
" style="fill:none;stroke:#008000;stroke-linecap:square;stroke-width:2;"/>
    </g>
    <g id="line2d_193"/>
    <g id="text_16">
     <!-- inoise: I1, R_p =  6.0e+02 -->
     <g transform="translate(326.525 66.893125)scale(0.12 -0.12)">
      <use xlink:href="#DejaVuSans-69"/>
      <use x="27.783203" xlink:href="#DejaVuSans-6e"/>
      <use x="91.162109" xlink:href="#DejaVuSans-6f"/>
      <use x="152.34375" xlink:href="#DejaVuSans-69"/>
      <use x="180.126953" xlink:href="#DejaVuSans-73"/>
      <use x="232.226562" xlink:href="#DejaVuSans-65"/>
      <use x="293.75" xlink:href="#DejaVuSans-3a"/>
      <use x="327.441406" xlink:href="#DejaVuSans-20"/>
      <use x="359.228516" xlink:href="#DejaVuSans-49"/>
      <use x="388.720703" xlink:href="#DejaVuSans-31"/>
      <use x="452.34375" xlink:href="#DejaVuSans-2c"/>
      <use x="484.130859" xlink:href="#DejaVuSans-20"/>
      <use x="515.917969" xlink:href="#DejaVuSans-52"/>
      <use x="585.400391" xlink:href="#DejaVuSans-5f"/>
      <use x="635.400391" xlink:href="#DejaVuSans-70"/>
      <use x="698.876953" xlink:href="#DejaVuSans-20"/>
      <use x="730.664062" xlink:href="#DejaVuSans-3d"/>
      <use x="814.453125" xlink:href="#DejaVuSans-20"/>
      <use x="846.240234" xlink:href="#DejaVuSans-20"/>
      <use x="878.027344" xlink:href="#DejaVuSans-36"/>
      <use x="941.650391" xlink:href="#DejaVuSans-2e"/>
      <use x="973.4375" xlink:href="#DejaVuSans-30"/>
      <use x="1037.060547" xlink:href="#DejaVuSans-65"/>
      <use x="1098.583984" xlink:href="#DejaVuSans-2b"/>
      <use x="1182.373047" xlink:href="#DejaVuSans-30"/>
      <use x="1245.996094" xlink:href="#DejaVuSans-32"/>
     </g>
    </g>
    <g id="line2d_194">
     <path d="M 314.525 75.340625 
L 324.525 75.340625 
" style="fill:none;stroke:#00bfbf;stroke-linecap:square;stroke-width:2;"/>
    </g>
    <g id="line2d_195"/>
    <g id="text_17">
     <!-- inoise: I1, R_p =  8.0e+02 -->
     <defs>
      <path d="M 31.78125 34.625 
Q 24.75 34.625 20.71875 30.859375 
Q 16.703125 27.09375 16.703125 20.515625 
Q 16.703125 13.921875 20.71875 10.15625 
Q 24.75 6.390625 31.78125 6.390625 
Q 38.8125 6.390625 42.859375 10.171875 
Q 46.921875 13.96875 46.921875 20.515625 
Q 46.921875 27.09375 42.890625 30.859375 
Q 38.875 34.625 31.78125 34.625 
z
M 21.921875 38.8125 
Q 15.578125 40.375 12.03125 44.71875 
Q 8.5 49.078125 8.5 55.328125 
Q 8.5 64.0625 14.71875 69.140625 
Q 20.953125 74.21875 31.78125 74.21875 
Q 42.671875 74.21875 48.875 69.140625 
Q 55.078125 64.0625 55.078125 55.328125 
Q 55.078125 49.078125 51.53125 44.71875 
Q 48 40.375 41.703125 38.8125 
Q 48.828125 37.15625 52.796875 32.3125 
Q 56.78125 27.484375 56.78125 20.515625 
Q 56.78125 9.90625 50.3125 4.234375 
Q 43.84375 -1.421875 31.78125 -1.421875 
Q 19.734375 -1.421875 13.25 4.234375 
Q 6.78125 9.90625 6.78125 20.515625 
Q 6.78125 27.484375 10.78125 32.3125 
Q 14.796875 37.15625 21.921875 38.8125 
z
M 18.3125 54.390625 
Q 18.3125 48.734375 21.84375 45.5625 
Q 25.390625 42.390625 31.78125 42.390625 
Q 38.140625 42.390625 41.71875 45.5625 
Q 45.3125 48.734375 45.3125 54.390625 
Q 45.3125 60.0625 41.71875 63.234375 
Q 38.140625 66.40625 31.78125 66.40625 
Q 25.390625 66.40625 21.84375 63.234375 
Q 18.3125 60.0625 18.3125 54.390625 
z
" id="DejaVuSans-38"/>
     </defs>
     <g transform="translate(326.525 78.840625)scale(0.12 -0.12)">
      <use xlink:href="#DejaVuSans-69"/>
      <use x="27.783203" xlink:href="#DejaVuSans-6e"/>
      <use x="91.162109" xlink:href="#DejaVuSans-6f"/>
      <use x="152.34375" xlink:href="#DejaVuSans-69"/>
      <use x="180.126953" xlink:href="#DejaVuSans-73"/>
      <use x="232.226562" xlink:href="#DejaVuSans-65"/>
      <use x="293.75" xlink:href="#DejaVuSans-3a"/>
      <use x="327.441406" xlink:href="#DejaVuSans-20"/>
      <use x="359.228516" xlink:href="#DejaVuSans-49"/>
      <use x="388.720703" xlink:href="#DejaVuSans-31"/>
      <use x="452.34375" xlink:href="#DejaVuSans-2c"/>
      <use x="484.130859" xlink:href="#DejaVuSans-20"/>
      <use x="515.917969" xlink:href="#DejaVuSans-52"/>
      <use x="585.400391" xlink:href="#DejaVuSans-5f"/>
      <use x="635.400391" xlink:href="#DejaVuSans-70"/>
      <use x="698.876953" xlink:href="#DejaVuSans-20"/>
      <use x="730.664062" xlink:href="#DejaVuSans-3d"/>
      <use x="814.453125" xlink:href="#DejaVuSans-20"/>
      <use x="846.240234" xlink:href="#DejaVuSans-20"/>
      <use x="878.027344" xlink:href="#DejaVuSans-38"/>
      <use x="941.650391" xlink:href="#DejaVuSans-2e"/>
      <use x="973.4375" xlink:href="#DejaVuSans-30"/>
      <use x="1037.060547" xlink:href="#DejaVuSans-65"/>
      <use x="1098.583984" xlink:href="#DejaVuSans-2b"/>
      <use x="1182.373047" xlink:href="#DejaVuSans-30"/>
      <use x="1245.996094" xlink:href="#DejaVuSans-32"/>
     </g>
    </g>
    <g id="line2d_196">
     <path d="M 314.525 87.288125 
L 324.525 87.288125 
" style="fill:none;stroke:#bf00bf;stroke-linecap:square;stroke-width:2;"/>
    </g>
    <g id="line2d_197"/>
    <g id="text_18">
     <!-- inoise: I1, R_p =  1.0e+03 -->
     <g transform="translate(326.525 90.788125)scale(0.12 -0.12)">
      <use xlink:href="#DejaVuSans-69"/>
      <use x="27.783203" xlink:href="#DejaVuSans-6e"/>
      <use x="91.162109" xlink:href="#DejaVuSans-6f"/>
      <use x="152.34375" xlink:href="#DejaVuSans-69"/>
      <use x="180.126953" xlink:href="#DejaVuSans-73"/>
      <use x="232.226562" xlink:href="#DejaVuSans-65"/>
      <use x="293.75" xlink:href="#DejaVuSans-3a"/>
      <use x="327.441406" xlink:href="#DejaVuSans-20"/>
      <use x="359.228516" xlink:href="#DejaVuSans-49"/>
      <use x="388.720703" xlink:href="#DejaVuSans-31"/>
      <use x="452.34375" xlink:href="#DejaVuSans-2c"/>
      <use x="484.130859" xlink:href="#DejaVuSans-20"/>
      <use x="515.917969" xlink:href="#DejaVuSans-52"/>
      <use x="585.400391" xlink:href="#DejaVuSans-5f"/>
      <use x="635.400391" xlink:href="#DejaVuSans-70"/>
      <use x="698.876953" xlink:href="#DejaVuSans-20"/>
      <use x="730.664062" xlink:href="#DejaVuSans-3d"/>
      <use x="814.453125" xlink:href="#DejaVuSans-20"/>
      <use x="846.240234" xlink:href="#DejaVuSans-20"/>
      <use x="878.027344" xlink:href="#DejaVuSans-31"/>
      <use x="941.650391" xlink:href="#DejaVuSans-2e"/>
      <use x="973.4375" xlink:href="#DejaVuSans-30"/>
      <use x="1037.060547" xlink:href="#DejaVuSans-65"/>
      <use x="1098.583984" xlink:href="#DejaVuSans-2b"/>
      <use x="1182.373047" xlink:href="#DejaVuSans-30"/>
      <use x="1245.996094" xlink:href="#DejaVuSans-33"/>
     </g>
    </g>
   </g>
  </g>
 </g>
 <defs>
  <clipPath id="p4087108aec">
   <rect height="283.888" width="422.012232" x="68.667768" y="26.88"/>
  </clipPath>
 </defs>
</svg>
