<?xml version="1.0" encoding="utf-8" standalone="no"?>
<!DOCTYPE svg PUBLIC "-//W3C//DTD SVG 1.1//EN"
  "http://www.w3.org/Graphics/SVG/1.1/DTD/svg11.dtd">
<!-- Created with matplotlib (http://matplotlib.org/) -->
<svg height="360pt" version="1.1" viewBox="0 0 504 360" width="504pt" xmlns="http://www.w3.org/2000/svg" xmlns:xlink="http://www.w3.org/1999/xlink">
 <defs>
  <style type="text/css">
*{stroke-linecap:butt;stroke-linejoin:round;}
  </style>
 </defs>
 <g id="figure_1">
  <g id="patch_1">
   <path d="M 0 360 
L 504 360 
L 504 0 
L 0 0 
z
" style="fill:#ffffff;"/>
  </g>
  <g id="axes_1">
   <g id="patch_2">
    <path d="M 69.371523 308.6 
L 489.7 308.6 
L 489.7 26.8 
L 69.371523 26.8 
z
" style="fill:#ffffff;"/>
   </g>
   <g id="matplotlib.axis_1">
    <g id="xtick_1">
     <g id="line2d_1">
      <path clip-path="url(#p4059854b4e)" d="M 88.477363 308.6 
L 88.477363 26.8 
" style="fill:none;stroke:#808080;stroke-linecap:square;stroke-width:0.8;"/>
     </g>
     <g id="line2d_2">
      <defs>
       <path d="M 0 0 
L 0 3.5 
" id="m37eba7526e" style="stroke:#000000;stroke-width:0.8;"/>
      </defs>
      <g>
       <use style="stroke:#000000;stroke-width:0.8;" x="88.477363" xlink:href="#m37eba7526e" y="308.6"/>
      </g>
     </g>
     <g id="text_1">
      <!-- $\mathdefault{10^{-1}}$ -->
      <defs>
       <path d="M 12.40625 8.296875 
L 28.515625 8.296875 
L 28.515625 63.921875 
L 10.984375 60.40625 
L 10.984375 69.390625 
L 28.421875 72.90625 
L 38.28125 72.90625 
L 38.28125 8.296875 
L 54.390625 8.296875 
L 54.390625 0 
L 12.40625 0 
z
" id="DejaVuSans-31"/>
       <path d="M 31.78125 66.40625 
Q 24.171875 66.40625 20.328125 58.90625 
Q 16.5 51.421875 16.5 36.375 
Q 16.5 21.390625 20.328125 13.890625 
Q 24.171875 6.390625 31.78125 6.390625 
Q 39.453125 6.390625 43.28125 13.890625 
Q 47.125 21.390625 47.125 36.375 
Q 47.125 51.421875 43.28125 58.90625 
Q 39.453125 66.40625 31.78125 66.40625 
z
M 31.78125 74.21875 
Q 44.046875 74.21875 50.515625 64.515625 
Q 56.984375 54.828125 56.984375 36.375 
Q 56.984375 17.96875 50.515625 8.265625 
Q 44.046875 -1.421875 31.78125 -1.421875 
Q 19.53125 -1.421875 13.0625 8.265625 
Q 6.59375 17.96875 6.59375 36.375 
Q 6.59375 54.828125 13.0625 64.515625 
Q 19.53125 74.21875 31.78125 74.21875 
z
" id="DejaVuSans-30"/>
       <path d="M 10.59375 35.5 
L 73.1875 35.5 
L 73.1875 27.203125 
L 10.59375 27.203125 
z
" id="DejaVuSans-2212"/>
      </defs>
      <g transform="translate(74.377363 324.718125)scale(0.12 -0.12)">
       <use transform="translate(0 0.684375)" xlink:href="#DejaVuSans-31"/>
       <use transform="translate(63.623047 0.684375)" xlink:href="#DejaVuSans-30"/>
       <use transform="translate(128.203125 38.965625)scale(0.7)" xlink:href="#DejaVuSans-2212"/>
       <use transform="translate(186.855469 38.965625)scale(0.7)" xlink:href="#DejaVuSans-31"/>
      </g>
     </g>
    </g>
    <g id="xtick_2">
     <g id="line2d_3">
      <path clip-path="url(#p4059854b4e)" d="M 143.065477 308.6 
L 143.065477 26.8 
" style="fill:none;stroke:#808080;stroke-linecap:square;stroke-width:0.8;"/>
     </g>
     <g id="line2d_4">
      <g>
       <use style="stroke:#000000;stroke-width:0.8;" x="143.065477" xlink:href="#m37eba7526e" y="308.6"/>
      </g>
     </g>
     <g id="text_2">
      <!-- $\mathdefault{10^{0}}$ -->
      <g transform="translate(132.505477 324.718125)scale(0.12 -0.12)">
       <use transform="translate(0 0.765625)" xlink:href="#DejaVuSans-31"/>
       <use transform="translate(63.623047 0.765625)" xlink:href="#DejaVuSans-30"/>
       <use transform="translate(128.203125 39.046875)scale(0.7)" xlink:href="#DejaVuSans-30"/>
      </g>
     </g>
    </g>
    <g id="xtick_3">
     <g id="line2d_5">
      <path clip-path="url(#p4059854b4e)" d="M 197.653591 308.6 
L 197.653591 26.8 
" style="fill:none;stroke:#808080;stroke-linecap:square;stroke-width:0.8;"/>
     </g>
     <g id="line2d_6">
      <g>
       <use style="stroke:#000000;stroke-width:0.8;" x="197.653591" xlink:href="#m37eba7526e" y="308.6"/>
      </g>
     </g>
     <g id="text_3">
      <!-- $\mathdefault{10^{1}}$ -->
      <g transform="translate(187.093591 324.718125)scale(0.12 -0.12)">
       <use transform="translate(0 0.684375)" xlink:href="#DejaVuSans-31"/>
       <use transform="translate(63.623047 0.684375)" xlink:href="#DejaVuSans-30"/>
       <use transform="translate(128.203125 38.965625)scale(0.7)" xlink:href="#DejaVuSans-31"/>
      </g>
     </g>
    </g>
    <g id="xtick_4">
     <g id="line2d_7">
      <path clip-path="url(#p4059854b4e)" d="M 252.241705 308.6 
L 252.241705 26.8 
" style="fill:none;stroke:#808080;stroke-linecap:square;stroke-width:0.8;"/>
     </g>
     <g id="line2d_8">
      <g>
       <use style="stroke:#000000;stroke-width:0.8;" x="252.241705" xlink:href="#m37eba7526e" y="308.6"/>
      </g>
     </g>
     <g id="text_4">
      <!-- $\mathdefault{10^{2}}$ -->
      <defs>
       <path d="M 19.1875 8.296875 
L 53.609375 8.296875 
L 53.609375 0 
L 7.328125 0 
L 7.328125 8.296875 
Q 12.9375 14.109375 22.625 23.890625 
Q 32.328125 33.6875 34.8125 36.53125 
Q 39.546875 41.84375 41.421875 45.53125 
Q 43.3125 49.21875 43.3125 52.78125 
Q 43.3125 58.59375 39.234375 62.25 
Q 35.15625 65.921875 28.609375 65.921875 
Q 23.96875 65.921875 18.8125 64.3125 
Q 13.671875 62.703125 7.8125 59.421875 
L 7.8125 69.390625 
Q 13.765625 71.78125 18.9375 73 
Q 24.125 74.21875 28.421875 74.21875 
Q 39.75 74.21875 46.484375 68.546875 
Q 53.21875 62.890625 53.21875 53.421875 
Q 53.21875 48.921875 51.53125 44.890625 
Q 49.859375 40.875 45.40625 35.40625 
Q 44.1875 33.984375 37.640625 27.21875 
Q 31.109375 20.453125 19.1875 8.296875 
z
" id="DejaVuSans-32"/>
      </defs>
      <g transform="translate(241.681705 324.718125)scale(0.12 -0.12)">
       <use transform="translate(0 0.765625)" xlink:href="#DejaVuSans-31"/>
       <use transform="translate(63.623047 0.765625)" xlink:href="#DejaVuSans-30"/>
       <use transform="translate(128.203125 39.046875)scale(0.7)" xlink:href="#DejaVuSans-32"/>
      </g>
     </g>
    </g>
    <g id="xtick_5">
     <g id="line2d_9">
      <path clip-path="url(#p4059854b4e)" d="M 306.829819 308.6 
L 306.829819 26.8 
" style="fill:none;stroke:#808080;stroke-linecap:square;stroke-width:0.8;"/>
     </g>
     <g id="line2d_10">
      <g>
       <use style="stroke:#000000;stroke-width:0.8;" x="306.829819" xlink:href="#m37eba7526e" y="308.6"/>
      </g>
     </g>
     <g id="text_5">
      <!-- $\mathdefault{10^{3}}$ -->
      <defs>
       <path d="M 40.578125 39.3125 
Q 47.65625 37.796875 51.625 33 
Q 55.609375 28.21875 55.609375 21.1875 
Q 55.609375 10.40625 48.1875 4.484375 
Q 40.765625 -1.421875 27.09375 -1.421875 
Q 22.515625 -1.421875 17.65625 -0.515625 
Q 12.796875 0.390625 7.625 2.203125 
L 7.625 11.71875 
Q 11.71875 9.328125 16.59375 8.109375 
Q 21.484375 6.890625 26.8125 6.890625 
Q 36.078125 6.890625 40.9375 10.546875 
Q 45.796875 14.203125 45.796875 21.1875 
Q 45.796875 27.640625 41.28125 31.265625 
Q 36.765625 34.90625 28.71875 34.90625 
L 20.21875 34.90625 
L 20.21875 43.015625 
L 29.109375 43.015625 
Q 36.375 43.015625 40.234375 45.921875 
Q 44.09375 48.828125 44.09375 54.296875 
Q 44.09375 59.90625 40.109375 62.90625 
Q 36.140625 65.921875 28.71875 65.921875 
Q 24.65625 65.921875 20.015625 65.03125 
Q 15.375 64.15625 9.8125 62.3125 
L 9.8125 71.09375 
Q 15.4375 72.65625 20.34375 73.4375 
Q 25.25 74.21875 29.59375 74.21875 
Q 40.828125 74.21875 47.359375 69.109375 
Q 53.90625 64.015625 53.90625 55.328125 
Q 53.90625 49.265625 50.4375 45.09375 
Q 46.96875 40.921875 40.578125 39.3125 
z
" id="DejaVuSans-33"/>
      </defs>
      <g transform="translate(296.269819 324.718125)scale(0.12 -0.12)">
       <use transform="translate(0 0.765625)" xlink:href="#DejaVuSans-31"/>
       <use transform="translate(63.623047 0.765625)" xlink:href="#DejaVuSans-30"/>
       <use transform="translate(128.203125 39.046875)scale(0.7)" xlink:href="#DejaVuSans-33"/>
      </g>
     </g>
    </g>
    <g id="xtick_6">
     <g id="line2d_11">
      <path clip-path="url(#p4059854b4e)" d="M 361.417932 308.6 
L 361.417932 26.8 
" style="fill:none;stroke:#808080;stroke-linecap:square;stroke-width:0.8;"/>
     </g>
     <g id="line2d_12">
      <g>
       <use style="stroke:#000000;stroke-width:0.8;" x="361.417932" xlink:href="#m37eba7526e" y="308.6"/>
      </g>
     </g>
     <g id="text_6">
      <!-- $\mathdefault{10^{4}}$ -->
      <defs>
       <path d="M 37.796875 64.3125 
L 12.890625 25.390625 
L 37.796875 25.390625 
z
M 35.203125 72.90625 
L 47.609375 72.90625 
L 47.609375 25.390625 
L 58.015625 25.390625 
L 58.015625 17.1875 
L 47.609375 17.1875 
L 47.609375 0 
L 37.796875 0 
L 37.796875 17.1875 
L 4.890625 17.1875 
L 4.890625 26.703125 
z
" id="DejaVuSans-34"/>
      </defs>
      <g transform="translate(350.857932 324.718125)scale(0.12 -0.12)">
       <use transform="translate(0 0.684375)" xlink:href="#DejaVuSans-31"/>
       <use transform="translate(63.623047 0.684375)" xlink:href="#DejaVuSans-30"/>
       <use transform="translate(128.203125 38.965625)scale(0.7)" xlink:href="#DejaVuSans-34"/>
      </g>
     </g>
    </g>
    <g id="xtick_7">
     <g id="line2d_13">
      <path clip-path="url(#p4059854b4e)" d="M 416.006046 308.6 
L 416.006046 26.8 
" style="fill:none;stroke:#808080;stroke-linecap:square;stroke-width:0.8;"/>
     </g>
     <g id="line2d_14">
      <g>
       <use style="stroke:#000000;stroke-width:0.8;" x="416.006046" xlink:href="#m37eba7526e" y="308.6"/>
      </g>
     </g>
     <g id="text_7">
      <!-- $\mathdefault{10^{5}}$ -->
      <defs>
       <path d="M 10.796875 72.90625 
L 49.515625 72.90625 
L 49.515625 64.59375 
L 19.828125 64.59375 
L 19.828125 46.734375 
Q 21.96875 47.46875 24.109375 47.828125 
Q 26.265625 48.1875 28.421875 48.1875 
Q 40.625 48.1875 47.75 41.5 
Q 54.890625 34.8125 54.890625 23.390625 
Q 54.890625 11.625 47.5625 5.09375 
Q 40.234375 -1.421875 26.90625 -1.421875 
Q 22.3125 -1.421875 17.546875 -0.640625 
Q 12.796875 0.140625 7.71875 1.703125 
L 7.71875 11.625 
Q 12.109375 9.234375 16.796875 8.0625 
Q 21.484375 6.890625 26.703125 6.890625 
Q 35.15625 6.890625 40.078125 11.328125 
Q 45.015625 15.765625 45.015625 23.390625 
Q 45.015625 31 40.078125 35.4375 
Q 35.15625 39.890625 26.703125 39.890625 
Q 22.75 39.890625 18.8125 39.015625 
Q 14.890625 38.140625 10.796875 36.28125 
z
" id="DejaVuSans-35"/>
      </defs>
      <g transform="translate(405.446046 324.718125)scale(0.12 -0.12)">
       <use transform="translate(0 0.684375)" xlink:href="#DejaVuSans-31"/>
       <use transform="translate(63.623047 0.684375)" xlink:href="#DejaVuSans-30"/>
       <use transform="translate(128.203125 38.965625)scale(0.7)" xlink:href="#DejaVuSans-35"/>
      </g>
     </g>
    </g>
    <g id="xtick_8">
     <g id="line2d_15">
      <path clip-path="url(#p4059854b4e)" d="M 470.59416 308.6 
L 470.59416 26.8 
" style="fill:none;stroke:#808080;stroke-linecap:square;stroke-width:0.8;"/>
     </g>
     <g id="line2d_16">
      <g>
       <use style="stroke:#000000;stroke-width:0.8;" x="470.59416" xlink:href="#m37eba7526e" y="308.6"/>
      </g>
     </g>
     <g id="text_8">
      <!-- $\mathdefault{10^{6}}$ -->
      <defs>
       <path d="M 33.015625 40.375 
Q 26.375 40.375 22.484375 35.828125 
Q 18.609375 31.296875 18.609375 23.390625 
Q 18.609375 15.53125 22.484375 10.953125 
Q 26.375 6.390625 33.015625 6.390625 
Q 39.65625 6.390625 43.53125 10.953125 
Q 47.40625 15.53125 47.40625 23.390625 
Q 47.40625 31.296875 43.53125 35.828125 
Q 39.65625 40.375 33.015625 40.375 
z
M 52.59375 71.296875 
L 52.59375 62.3125 
Q 48.875 64.0625 45.09375 64.984375 
Q 41.3125 65.921875 37.59375 65.921875 
Q 27.828125 65.921875 22.671875 59.328125 
Q 17.53125 52.734375 16.796875 39.40625 
Q 19.671875 43.65625 24.015625 45.921875 
Q 28.375 48.1875 33.59375 48.1875 
Q 44.578125 48.1875 50.953125 41.515625 
Q 57.328125 34.859375 57.328125 23.390625 
Q 57.328125 12.15625 50.6875 5.359375 
Q 44.046875 -1.421875 33.015625 -1.421875 
Q 20.359375 -1.421875 13.671875 8.265625 
Q 6.984375 17.96875 6.984375 36.375 
Q 6.984375 53.65625 15.1875 63.9375 
Q 23.390625 74.21875 37.203125 74.21875 
Q 40.921875 74.21875 44.703125 73.484375 
Q 48.484375 72.75 52.59375 71.296875 
z
" id="DejaVuSans-36"/>
      </defs>
      <g transform="translate(460.03416 324.718125)scale(0.12 -0.12)">
       <use transform="translate(0 0.765625)" xlink:href="#DejaVuSans-31"/>
       <use transform="translate(63.623047 0.765625)" xlink:href="#DejaVuSans-30"/>
       <use transform="translate(128.203125 39.046875)scale(0.7)" xlink:href="#DejaVuSans-36"/>
      </g>
     </g>
    </g>
    <g id="xtick_9">
     <g id="line2d_17">
      <path clip-path="url(#p4059854b4e)" d="M 72.044704 308.6 
L 72.044704 26.8 
" style="fill:none;stroke:#808080;stroke-dasharray:0.8,1.32;stroke-dashoffset:0;stroke-width:0.8;"/>
     </g>
     <g id="line2d_18">
      <defs>
       <path d="M 0 0 
L 0 2 
" id="m13c1342b14" style="stroke:#000000;stroke-width:0.6;"/>
      </defs>
      <g>
       <use style="stroke:#000000;stroke-width:0.6;" x="72.044704" xlink:href="#m13c1342b14" y="308.6"/>
      </g>
     </g>
    </g>
    <g id="xtick_10">
     <g id="line2d_19">
      <path clip-path="url(#p4059854b4e)" d="M 76.367058 308.6 
L 76.367058 26.8 
" style="fill:none;stroke:#808080;stroke-dasharray:0.8,1.32;stroke-dashoffset:0;stroke-width:0.8;"/>
     </g>
     <g id="line2d_20">
      <g>
       <use style="stroke:#000000;stroke-width:0.6;" x="76.367058" xlink:href="#m13c1342b14" y="308.6"/>
      </g>
     </g>
    </g>
    <g id="xtick_11">
     <g id="line2d_21">
      <path clip-path="url(#p4059854b4e)" d="M 80.021557 308.6 
L 80.021557 26.8 
" style="fill:none;stroke:#808080;stroke-dasharray:0.8,1.32;stroke-dashoffset:0;stroke-width:0.8;"/>
     </g>
     <g id="line2d_22">
      <g>
       <use style="stroke:#000000;stroke-width:0.6;" x="80.021557" xlink:href="#m13c1342b14" y="308.6"/>
      </g>
     </g>
    </g>
    <g id="xtick_12">
     <g id="line2d_23">
      <path clip-path="url(#p4059854b4e)" d="M 83.187228 308.6 
L 83.187228 26.8 
" style="fill:none;stroke:#808080;stroke-dasharray:0.8,1.32;stroke-dashoffset:0;stroke-width:0.8;"/>
     </g>
     <g id="line2d_24">
      <g>
       <use style="stroke:#000000;stroke-width:0.6;" x="83.187228" xlink:href="#m13c1342b14" y="308.6"/>
      </g>
     </g>
    </g>
    <g id="xtick_13">
     <g id="line2d_25">
      <path clip-path="url(#p4059854b4e)" d="M 85.979548 308.6 
L 85.979548 26.8 
" style="fill:none;stroke:#808080;stroke-dasharray:0.8,1.32;stroke-dashoffset:0;stroke-width:0.8;"/>
     </g>
     <g id="line2d_26">
      <g>
       <use style="stroke:#000000;stroke-width:0.6;" x="85.979548" xlink:href="#m13c1342b14" y="308.6"/>
      </g>
     </g>
    </g>
    <g id="xtick_14">
     <g id="line2d_27">
      <path clip-path="url(#p4059854b4e)" d="M 104.910023 308.6 
L 104.910023 26.8 
" style="fill:none;stroke:#808080;stroke-dasharray:0.8,1.32;stroke-dashoffset:0;stroke-width:0.8;"/>
     </g>
     <g id="line2d_28">
      <g>
       <use style="stroke:#000000;stroke-width:0.6;" x="104.910023" xlink:href="#m13c1342b14" y="308.6"/>
      </g>
     </g>
    </g>
    <g id="xtick_15">
     <g id="line2d_29">
      <path clip-path="url(#p4059854b4e)" d="M 114.522513 308.6 
L 114.522513 26.8 
" style="fill:none;stroke:#808080;stroke-dasharray:0.8,1.32;stroke-dashoffset:0;stroke-width:0.8;"/>
     </g>
     <g id="line2d_30">
      <g>
       <use style="stroke:#000000;stroke-width:0.6;" x="114.522513" xlink:href="#m13c1342b14" y="308.6"/>
      </g>
     </g>
    </g>
    <g id="xtick_16">
     <g id="line2d_31">
      <path clip-path="url(#p4059854b4e)" d="M 121.342683 308.6 
L 121.342683 26.8 
" style="fill:none;stroke:#808080;stroke-dasharray:0.8,1.32;stroke-dashoffset:0;stroke-width:0.8;"/>
     </g>
     <g id="line2d_32">
      <g>
       <use style="stroke:#000000;stroke-width:0.6;" x="121.342683" xlink:href="#m13c1342b14" y="308.6"/>
      </g>
     </g>
    </g>
    <g id="xtick_17">
     <g id="line2d_33">
      <path clip-path="url(#p4059854b4e)" d="M 126.632817 308.6 
L 126.632817 26.8 
" style="fill:none;stroke:#808080;stroke-dasharray:0.8,1.32;stroke-dashoffset:0;stroke-width:0.8;"/>
     </g>
     <g id="line2d_34">
      <g>
       <use style="stroke:#000000;stroke-width:0.6;" x="126.632817" xlink:href="#m13c1342b14" y="308.6"/>
      </g>
     </g>
    </g>
    <g id="xtick_18">
     <g id="line2d_35">
      <path clip-path="url(#p4059854b4e)" d="M 130.955172 308.6 
L 130.955172 26.8 
" style="fill:none;stroke:#808080;stroke-dasharray:0.8,1.32;stroke-dashoffset:0;stroke-width:0.8;"/>
     </g>
     <g id="line2d_36">
      <g>
       <use style="stroke:#000000;stroke-width:0.6;" x="130.955172" xlink:href="#m13c1342b14" y="308.6"/>
      </g>
     </g>
    </g>
    <g id="xtick_19">
     <g id="line2d_37">
      <path clip-path="url(#p4059854b4e)" d="M 134.609671 308.6 
L 134.609671 26.8 
" style="fill:none;stroke:#808080;stroke-dasharray:0.8,1.32;stroke-dashoffset:0;stroke-width:0.8;"/>
     </g>
     <g id="line2d_38">
      <g>
       <use style="stroke:#000000;stroke-width:0.6;" x="134.609671" xlink:href="#m13c1342b14" y="308.6"/>
      </g>
     </g>
    </g>
    <g id="xtick_20">
     <g id="line2d_39">
      <path clip-path="url(#p4059854b4e)" d="M 137.775342 308.6 
L 137.775342 26.8 
" style="fill:none;stroke:#808080;stroke-dasharray:0.8,1.32;stroke-dashoffset:0;stroke-width:0.8;"/>
     </g>
     <g id="line2d_40">
      <g>
       <use style="stroke:#000000;stroke-width:0.6;" x="137.775342" xlink:href="#m13c1342b14" y="308.6"/>
      </g>
     </g>
    </g>
    <g id="xtick_21">
     <g id="line2d_41">
      <path clip-path="url(#p4059854b4e)" d="M 140.567662 308.6 
L 140.567662 26.8 
" style="fill:none;stroke:#808080;stroke-dasharray:0.8,1.32;stroke-dashoffset:0;stroke-width:0.8;"/>
     </g>
     <g id="line2d_42">
      <g>
       <use style="stroke:#000000;stroke-width:0.6;" x="140.567662" xlink:href="#m13c1342b14" y="308.6"/>
      </g>
     </g>
    </g>
    <g id="xtick_22">
     <g id="line2d_43">
      <path clip-path="url(#p4059854b4e)" d="M 159.498137 308.6 
L 159.498137 26.8 
" style="fill:none;stroke:#808080;stroke-dasharray:0.8,1.32;stroke-dashoffset:0;stroke-width:0.8;"/>
     </g>
     <g id="line2d_44">
      <g>
       <use style="stroke:#000000;stroke-width:0.6;" x="159.498137" xlink:href="#m13c1342b14" y="308.6"/>
      </g>
     </g>
    </g>
    <g id="xtick_23">
     <g id="line2d_45">
      <path clip-path="url(#p4059854b4e)" d="M 169.110626 308.6 
L 169.110626 26.8 
" style="fill:none;stroke:#808080;stroke-dasharray:0.8,1.32;stroke-dashoffset:0;stroke-width:0.8;"/>
     </g>
     <g id="line2d_46">
      <g>
       <use style="stroke:#000000;stroke-width:0.6;" x="169.110626" xlink:href="#m13c1342b14" y="308.6"/>
      </g>
     </g>
    </g>
    <g id="xtick_24">
     <g id="line2d_47">
      <path clip-path="url(#p4059854b4e)" d="M 175.930796 308.6 
L 175.930796 26.8 
" style="fill:none;stroke:#808080;stroke-dasharray:0.8,1.32;stroke-dashoffset:0;stroke-width:0.8;"/>
     </g>
     <g id="line2d_48">
      <g>
       <use style="stroke:#000000;stroke-width:0.6;" x="175.930796" xlink:href="#m13c1342b14" y="308.6"/>
      </g>
     </g>
    </g>
    <g id="xtick_25">
     <g id="line2d_49">
      <path clip-path="url(#p4059854b4e)" d="M 181.220931 308.6 
L 181.220931 26.8 
" style="fill:none;stroke:#808080;stroke-dasharray:0.8,1.32;stroke-dashoffset:0;stroke-width:0.8;"/>
     </g>
     <g id="line2d_50">
      <g>
       <use style="stroke:#000000;stroke-width:0.6;" x="181.220931" xlink:href="#m13c1342b14" y="308.6"/>
      </g>
     </g>
    </g>
    <g id="xtick_26">
     <g id="line2d_51">
      <path clip-path="url(#p4059854b4e)" d="M 185.543286 308.6 
L 185.543286 26.8 
" style="fill:none;stroke:#808080;stroke-dasharray:0.8,1.32;stroke-dashoffset:0;stroke-width:0.8;"/>
     </g>
     <g id="line2d_52">
      <g>
       <use style="stroke:#000000;stroke-width:0.6;" x="185.543286" xlink:href="#m13c1342b14" y="308.6"/>
      </g>
     </g>
    </g>
    <g id="xtick_27">
     <g id="line2d_53">
      <path clip-path="url(#p4059854b4e)" d="M 189.197785 308.6 
L 189.197785 26.8 
" style="fill:none;stroke:#808080;stroke-dasharray:0.8,1.32;stroke-dashoffset:0;stroke-width:0.8;"/>
     </g>
     <g id="line2d_54">
      <g>
       <use style="stroke:#000000;stroke-width:0.6;" x="189.197785" xlink:href="#m13c1342b14" y="308.6"/>
      </g>
     </g>
    </g>
    <g id="xtick_28">
     <g id="line2d_55">
      <path clip-path="url(#p4059854b4e)" d="M 192.363456 308.6 
L 192.363456 26.8 
" style="fill:none;stroke:#808080;stroke-dasharray:0.8,1.32;stroke-dashoffset:0;stroke-width:0.8;"/>
     </g>
     <g id="line2d_56">
      <g>
       <use style="stroke:#000000;stroke-width:0.6;" x="192.363456" xlink:href="#m13c1342b14" y="308.6"/>
      </g>
     </g>
    </g>
    <g id="xtick_29">
     <g id="line2d_57">
      <path clip-path="url(#p4059854b4e)" d="M 195.155776 308.6 
L 195.155776 26.8 
" style="fill:none;stroke:#808080;stroke-dasharray:0.8,1.32;stroke-dashoffset:0;stroke-width:0.8;"/>
     </g>
     <g id="line2d_58">
      <g>
       <use style="stroke:#000000;stroke-width:0.6;" x="195.155776" xlink:href="#m13c1342b14" y="308.6"/>
      </g>
     </g>
    </g>
    <g id="xtick_30">
     <g id="line2d_59">
      <path clip-path="url(#p4059854b4e)" d="M 214.086251 308.6 
L 214.086251 26.8 
" style="fill:none;stroke:#808080;stroke-dasharray:0.8,1.32;stroke-dashoffset:0;stroke-width:0.8;"/>
     </g>
     <g id="line2d_60">
      <g>
       <use style="stroke:#000000;stroke-width:0.6;" x="214.086251" xlink:href="#m13c1342b14" y="308.6"/>
      </g>
     </g>
    </g>
    <g id="xtick_31">
     <g id="line2d_61">
      <path clip-path="url(#p4059854b4e)" d="M 223.69874 308.6 
L 223.69874 26.8 
" style="fill:none;stroke:#808080;stroke-dasharray:0.8,1.32;stroke-dashoffset:0;stroke-width:0.8;"/>
     </g>
     <g id="line2d_62">
      <g>
       <use style="stroke:#000000;stroke-width:0.6;" x="223.69874" xlink:href="#m13c1342b14" y="308.6"/>
      </g>
     </g>
    </g>
    <g id="xtick_32">
     <g id="line2d_63">
      <path clip-path="url(#p4059854b4e)" d="M 230.51891 308.6 
L 230.51891 26.8 
" style="fill:none;stroke:#808080;stroke-dasharray:0.8,1.32;stroke-dashoffset:0;stroke-width:0.8;"/>
     </g>
     <g id="line2d_64">
      <g>
       <use style="stroke:#000000;stroke-width:0.6;" x="230.51891" xlink:href="#m13c1342b14" y="308.6"/>
      </g>
     </g>
    </g>
    <g id="xtick_33">
     <g id="line2d_65">
      <path clip-path="url(#p4059854b4e)" d="M 235.809045 308.6 
L 235.809045 26.8 
" style="fill:none;stroke:#808080;stroke-dasharray:0.8,1.32;stroke-dashoffset:0;stroke-width:0.8;"/>
     </g>
     <g id="line2d_66">
      <g>
       <use style="stroke:#000000;stroke-width:0.6;" x="235.809045" xlink:href="#m13c1342b14" y="308.6"/>
      </g>
     </g>
    </g>
    <g id="xtick_34">
     <g id="line2d_67">
      <path clip-path="url(#p4059854b4e)" d="M 240.1314 308.6 
L 240.1314 26.8 
" style="fill:none;stroke:#808080;stroke-dasharray:0.8,1.32;stroke-dashoffset:0;stroke-width:0.8;"/>
     </g>
     <g id="line2d_68">
      <g>
       <use style="stroke:#000000;stroke-width:0.6;" x="240.1314" xlink:href="#m13c1342b14" y="308.6"/>
      </g>
     </g>
    </g>
    <g id="xtick_35">
     <g id="line2d_69">
      <path clip-path="url(#p4059854b4e)" d="M 243.785899 308.6 
L 243.785899 26.8 
" style="fill:none;stroke:#808080;stroke-dasharray:0.8,1.32;stroke-dashoffset:0;stroke-width:0.8;"/>
     </g>
     <g id="line2d_70">
      <g>
       <use style="stroke:#000000;stroke-width:0.6;" x="243.785899" xlink:href="#m13c1342b14" y="308.6"/>
      </g>
     </g>
    </g>
    <g id="xtick_36">
     <g id="line2d_71">
      <path clip-path="url(#p4059854b4e)" d="M 246.95157 308.6 
L 246.95157 26.8 
" style="fill:none;stroke:#808080;stroke-dasharray:0.8,1.32;stroke-dashoffset:0;stroke-width:0.8;"/>
     </g>
     <g id="line2d_72">
      <g>
       <use style="stroke:#000000;stroke-width:0.6;" x="246.95157" xlink:href="#m13c1342b14" y="308.6"/>
      </g>
     </g>
    </g>
    <g id="xtick_37">
     <g id="line2d_73">
      <path clip-path="url(#p4059854b4e)" d="M 249.74389 308.6 
L 249.74389 26.8 
" style="fill:none;stroke:#808080;stroke-dasharray:0.8,1.32;stroke-dashoffset:0;stroke-width:0.8;"/>
     </g>
     <g id="line2d_74">
      <g>
       <use style="stroke:#000000;stroke-width:0.6;" x="249.74389" xlink:href="#m13c1342b14" y="308.6"/>
      </g>
     </g>
    </g>
    <g id="xtick_38">
     <g id="line2d_75">
      <path clip-path="url(#p4059854b4e)" d="M 268.674364 308.6 
L 268.674364 26.8 
" style="fill:none;stroke:#808080;stroke-dasharray:0.8,1.32;stroke-dashoffset:0;stroke-width:0.8;"/>
     </g>
     <g id="line2d_76">
      <g>
       <use style="stroke:#000000;stroke-width:0.6;" x="268.674364" xlink:href="#m13c1342b14" y="308.6"/>
      </g>
     </g>
    </g>
    <g id="xtick_39">
     <g id="line2d_77">
      <path clip-path="url(#p4059854b4e)" d="M 278.286854 308.6 
L 278.286854 26.8 
" style="fill:none;stroke:#808080;stroke-dasharray:0.8,1.32;stroke-dashoffset:0;stroke-width:0.8;"/>
     </g>
     <g id="line2d_78">
      <g>
       <use style="stroke:#000000;stroke-width:0.6;" x="278.286854" xlink:href="#m13c1342b14" y="308.6"/>
      </g>
     </g>
    </g>
    <g id="xtick_40">
     <g id="line2d_79">
      <path clip-path="url(#p4059854b4e)" d="M 285.107024 308.6 
L 285.107024 26.8 
" style="fill:none;stroke:#808080;stroke-dasharray:0.8,1.32;stroke-dashoffset:0;stroke-width:0.8;"/>
     </g>
     <g id="line2d_80">
      <g>
       <use style="stroke:#000000;stroke-width:0.6;" x="285.107024" xlink:href="#m13c1342b14" y="308.6"/>
      </g>
     </g>
    </g>
    <g id="xtick_41">
     <g id="line2d_81">
      <path clip-path="url(#p4059854b4e)" d="M 290.397159 308.6 
L 290.397159 26.8 
" style="fill:none;stroke:#808080;stroke-dasharray:0.8,1.32;stroke-dashoffset:0;stroke-width:0.8;"/>
     </g>
     <g id="line2d_82">
      <g>
       <use style="stroke:#000000;stroke-width:0.6;" x="290.397159" xlink:href="#m13c1342b14" y="308.6"/>
      </g>
     </g>
    </g>
    <g id="xtick_42">
     <g id="line2d_83">
      <path clip-path="url(#p4059854b4e)" d="M 294.719514 308.6 
L 294.719514 26.8 
" style="fill:none;stroke:#808080;stroke-dasharray:0.8,1.32;stroke-dashoffset:0;stroke-width:0.8;"/>
     </g>
     <g id="line2d_84">
      <g>
       <use style="stroke:#000000;stroke-width:0.6;" x="294.719514" xlink:href="#m13c1342b14" y="308.6"/>
      </g>
     </g>
    </g>
    <g id="xtick_43">
     <g id="line2d_85">
      <path clip-path="url(#p4059854b4e)" d="M 298.374013 308.6 
L 298.374013 26.8 
" style="fill:none;stroke:#808080;stroke-dasharray:0.8,1.32;stroke-dashoffset:0;stroke-width:0.8;"/>
     </g>
     <g id="line2d_86">
      <g>
       <use style="stroke:#000000;stroke-width:0.6;" x="298.374013" xlink:href="#m13c1342b14" y="308.6"/>
      </g>
     </g>
    </g>
    <g id="xtick_44">
     <g id="line2d_87">
      <path clip-path="url(#p4059854b4e)" d="M 301.539684 308.6 
L 301.539684 26.8 
" style="fill:none;stroke:#808080;stroke-dasharray:0.8,1.32;stroke-dashoffset:0;stroke-width:0.8;"/>
     </g>
     <g id="line2d_88">
      <g>
       <use style="stroke:#000000;stroke-width:0.6;" x="301.539684" xlink:href="#m13c1342b14" y="308.6"/>
      </g>
     </g>
    </g>
    <g id="xtick_45">
     <g id="line2d_89">
      <path clip-path="url(#p4059854b4e)" d="M 304.332004 308.6 
L 304.332004 26.8 
" style="fill:none;stroke:#808080;stroke-dasharray:0.8,1.32;stroke-dashoffset:0;stroke-width:0.8;"/>
     </g>
     <g id="line2d_90">
      <g>
       <use style="stroke:#000000;stroke-width:0.6;" x="304.332004" xlink:href="#m13c1342b14" y="308.6"/>
      </g>
     </g>
    </g>
    <g id="xtick_46">
     <g id="line2d_91">
      <path clip-path="url(#p4059854b4e)" d="M 323.262478 308.6 
L 323.262478 26.8 
" style="fill:none;stroke:#808080;stroke-dasharray:0.8,1.32;stroke-dashoffset:0;stroke-width:0.8;"/>
     </g>
     <g id="line2d_92">
      <g>
       <use style="stroke:#000000;stroke-width:0.6;" x="323.262478" xlink:href="#m13c1342b14" y="308.6"/>
      </g>
     </g>
    </g>
    <g id="xtick_47">
     <g id="line2d_93">
      <path clip-path="url(#p4059854b4e)" d="M 332.874968 308.6 
L 332.874968 26.8 
" style="fill:none;stroke:#808080;stroke-dasharray:0.8,1.32;stroke-dashoffset:0;stroke-width:0.8;"/>
     </g>
     <g id="line2d_94">
      <g>
       <use style="stroke:#000000;stroke-width:0.6;" x="332.874968" xlink:href="#m13c1342b14" y="308.6"/>
      </g>
     </g>
    </g>
    <g id="xtick_48">
     <g id="line2d_95">
      <path clip-path="url(#p4059854b4e)" d="M 339.695138 308.6 
L 339.695138 26.8 
" style="fill:none;stroke:#808080;stroke-dasharray:0.8,1.32;stroke-dashoffset:0;stroke-width:0.8;"/>
     </g>
     <g id="line2d_96">
      <g>
       <use style="stroke:#000000;stroke-width:0.6;" x="339.695138" xlink:href="#m13c1342b14" y="308.6"/>
      </g>
     </g>
    </g>
    <g id="xtick_49">
     <g id="line2d_97">
      <path clip-path="url(#p4059854b4e)" d="M 344.985273 308.6 
L 344.985273 26.8 
" style="fill:none;stroke:#808080;stroke-dasharray:0.8,1.32;stroke-dashoffset:0;stroke-width:0.8;"/>
     </g>
     <g id="line2d_98">
      <g>
       <use style="stroke:#000000;stroke-width:0.6;" x="344.985273" xlink:href="#m13c1342b14" y="308.6"/>
      </g>
     </g>
    </g>
    <g id="xtick_50">
     <g id="line2d_99">
      <path clip-path="url(#p4059854b4e)" d="M 349.307628 308.6 
L 349.307628 26.8 
" style="fill:none;stroke:#808080;stroke-dasharray:0.8,1.32;stroke-dashoffset:0;stroke-width:0.8;"/>
     </g>
     <g id="line2d_100">
      <g>
       <use style="stroke:#000000;stroke-width:0.6;" x="349.307628" xlink:href="#m13c1342b14" y="308.6"/>
      </g>
     </g>
    </g>
    <g id="xtick_51">
     <g id="line2d_101">
      <path clip-path="url(#p4059854b4e)" d="M 352.962127 308.6 
L 352.962127 26.8 
" style="fill:none;stroke:#808080;stroke-dasharray:0.8,1.32;stroke-dashoffset:0;stroke-width:0.8;"/>
     </g>
     <g id="line2d_102">
      <g>
       <use style="stroke:#000000;stroke-width:0.6;" x="352.962127" xlink:href="#m13c1342b14" y="308.6"/>
      </g>
     </g>
    </g>
    <g id="xtick_52">
     <g id="line2d_103">
      <path clip-path="url(#p4059854b4e)" d="M 356.127798 308.6 
L 356.127798 26.8 
" style="fill:none;stroke:#808080;stroke-dasharray:0.8,1.32;stroke-dashoffset:0;stroke-width:0.8;"/>
     </g>
     <g id="line2d_104">
      <g>
       <use style="stroke:#000000;stroke-width:0.6;" x="356.127798" xlink:href="#m13c1342b14" y="308.6"/>
      </g>
     </g>
    </g>
    <g id="xtick_53">
     <g id="line2d_105">
      <path clip-path="url(#p4059854b4e)" d="M 358.920117 308.6 
L 358.920117 26.8 
" style="fill:none;stroke:#808080;stroke-dasharray:0.8,1.32;stroke-dashoffset:0;stroke-width:0.8;"/>
     </g>
     <g id="line2d_106">
      <g>
       <use style="stroke:#000000;stroke-width:0.6;" x="358.920117" xlink:href="#m13c1342b14" y="308.6"/>
      </g>
     </g>
    </g>
    <g id="xtick_54">
     <g id="line2d_107">
      <path clip-path="url(#p4059854b4e)" d="M 377.850592 308.6 
L 377.850592 26.8 
" style="fill:none;stroke:#808080;stroke-dasharray:0.8,1.32;stroke-dashoffset:0;stroke-width:0.8;"/>
     </g>
     <g id="line2d_108">
      <g>
       <use style="stroke:#000000;stroke-width:0.6;" x="377.850592" xlink:href="#m13c1342b14" y="308.6"/>
      </g>
     </g>
    </g>
    <g id="xtick_55">
     <g id="line2d_109">
      <path clip-path="url(#p4059854b4e)" d="M 387.463082 308.6 
L 387.463082 26.8 
" style="fill:none;stroke:#808080;stroke-dasharray:0.8,1.32;stroke-dashoffset:0;stroke-width:0.8;"/>
     </g>
     <g id="line2d_110">
      <g>
       <use style="stroke:#000000;stroke-width:0.6;" x="387.463082" xlink:href="#m13c1342b14" y="308.6"/>
      </g>
     </g>
    </g>
    <g id="xtick_56">
     <g id="line2d_111">
      <path clip-path="url(#p4059854b4e)" d="M 394.283252 308.6 
L 394.283252 26.8 
" style="fill:none;stroke:#808080;stroke-dasharray:0.8,1.32;stroke-dashoffset:0;stroke-width:0.8;"/>
     </g>
     <g id="line2d_112">
      <g>
       <use style="stroke:#000000;stroke-width:0.6;" x="394.283252" xlink:href="#m13c1342b14" y="308.6"/>
      </g>
     </g>
    </g>
    <g id="xtick_57">
     <g id="line2d_113">
      <path clip-path="url(#p4059854b4e)" d="M 399.573387 308.6 
L 399.573387 26.8 
" style="fill:none;stroke:#808080;stroke-dasharray:0.8,1.32;stroke-dashoffset:0;stroke-width:0.8;"/>
     </g>
     <g id="line2d_114">
      <g>
       <use style="stroke:#000000;stroke-width:0.6;" x="399.573387" xlink:href="#m13c1342b14" y="308.6"/>
      </g>
     </g>
    </g>
    <g id="xtick_58">
     <g id="line2d_115">
      <path clip-path="url(#p4059854b4e)" d="M 403.895742 308.6 
L 403.895742 26.8 
" style="fill:none;stroke:#808080;stroke-dasharray:0.8,1.32;stroke-dashoffset:0;stroke-width:0.8;"/>
     </g>
     <g id="line2d_116">
      <g>
       <use style="stroke:#000000;stroke-width:0.6;" x="403.895742" xlink:href="#m13c1342b14" y="308.6"/>
      </g>
     </g>
    </g>
    <g id="xtick_59">
     <g id="line2d_117">
      <path clip-path="url(#p4059854b4e)" d="M 407.55024 308.6 
L 407.55024 26.8 
" style="fill:none;stroke:#808080;stroke-dasharray:0.8,1.32;stroke-dashoffset:0;stroke-width:0.8;"/>
     </g>
     <g id="line2d_118">
      <g>
       <use style="stroke:#000000;stroke-width:0.6;" x="407.55024" xlink:href="#m13c1342b14" y="308.6"/>
      </g>
     </g>
    </g>
    <g id="xtick_60">
     <g id="line2d_119">
      <path clip-path="url(#p4059854b4e)" d="M 410.715911 308.6 
L 410.715911 26.8 
" style="fill:none;stroke:#808080;stroke-dasharray:0.8,1.32;stroke-dashoffset:0;stroke-width:0.8;"/>
     </g>
     <g id="line2d_120">
      <g>
       <use style="stroke:#000000;stroke-width:0.6;" x="410.715911" xlink:href="#m13c1342b14" y="308.6"/>
      </g>
     </g>
    </g>
    <g id="xtick_61">
     <g id="line2d_121">
      <path clip-path="url(#p4059854b4e)" d="M 413.508231 308.6 
L 413.508231 26.8 
" style="fill:none;stroke:#808080;stroke-dasharray:0.8,1.32;stroke-dashoffset:0;stroke-width:0.8;"/>
     </g>
     <g id="line2d_122">
      <g>
       <use style="stroke:#000000;stroke-width:0.6;" x="413.508231" xlink:href="#m13c1342b14" y="308.6"/>
      </g>
     </g>
    </g>
    <g id="xtick_62">
     <g id="line2d_123">
      <path clip-path="url(#p4059854b4e)" d="M 432.438706 308.6 
L 432.438706 26.8 
" style="fill:none;stroke:#808080;stroke-dasharray:0.8,1.32;stroke-dashoffset:0;stroke-width:0.8;"/>
     </g>
     <g id="line2d_124">
      <g>
       <use style="stroke:#000000;stroke-width:0.6;" x="432.438706" xlink:href="#m13c1342b14" y="308.6"/>
      </g>
     </g>
    </g>
    <g id="xtick_63">
     <g id="line2d_125">
      <path clip-path="url(#p4059854b4e)" d="M 442.051196 308.6 
L 442.051196 26.8 
" style="fill:none;stroke:#808080;stroke-dasharray:0.8,1.32;stroke-dashoffset:0;stroke-width:0.8;"/>
     </g>
     <g id="line2d_126">
      <g>
       <use style="stroke:#000000;stroke-width:0.6;" x="442.051196" xlink:href="#m13c1342b14" y="308.6"/>
      </g>
     </g>
    </g>
    <g id="xtick_64">
     <g id="line2d_127">
      <path clip-path="url(#p4059854b4e)" d="M 448.871366 308.6 
L 448.871366 26.8 
" style="fill:none;stroke:#808080;stroke-dasharray:0.8,1.32;stroke-dashoffset:0;stroke-width:0.8;"/>
     </g>
     <g id="line2d_128">
      <g>
       <use style="stroke:#000000;stroke-width:0.6;" x="448.871366" xlink:href="#m13c1342b14" y="308.6"/>
      </g>
     </g>
    </g>
    <g id="xtick_65">
     <g id="line2d_129">
      <path clip-path="url(#p4059854b4e)" d="M 454.1615 308.6 
L 454.1615 26.8 
" style="fill:none;stroke:#808080;stroke-dasharray:0.8,1.32;stroke-dashoffset:0;stroke-width:0.8;"/>
     </g>
     <g id="line2d_130">
      <g>
       <use style="stroke:#000000;stroke-width:0.6;" x="454.1615" xlink:href="#m13c1342b14" y="308.6"/>
      </g>
     </g>
    </g>
    <g id="xtick_66">
     <g id="line2d_131">
      <path clip-path="url(#p4059854b4e)" d="M 458.483855 308.6 
L 458.483855 26.8 
" style="fill:none;stroke:#808080;stroke-dasharray:0.8,1.32;stroke-dashoffset:0;stroke-width:0.8;"/>
     </g>
     <g id="line2d_132">
      <g>
       <use style="stroke:#000000;stroke-width:0.6;" x="458.483855" xlink:href="#m13c1342b14" y="308.6"/>
      </g>
     </g>
    </g>
    <g id="xtick_67">
     <g id="line2d_133">
      <path clip-path="url(#p4059854b4e)" d="M 462.138354 308.6 
L 462.138354 26.8 
" style="fill:none;stroke:#808080;stroke-dasharray:0.8,1.32;stroke-dashoffset:0;stroke-width:0.8;"/>
     </g>
     <g id="line2d_134">
      <g>
       <use style="stroke:#000000;stroke-width:0.6;" x="462.138354" xlink:href="#m13c1342b14" y="308.6"/>
      </g>
     </g>
    </g>
    <g id="xtick_68">
     <g id="line2d_135">
      <path clip-path="url(#p4059854b4e)" d="M 465.304025 308.6 
L 465.304025 26.8 
" style="fill:none;stroke:#808080;stroke-dasharray:0.8,1.32;stroke-dashoffset:0;stroke-width:0.8;"/>
     </g>
     <g id="line2d_136">
      <g>
       <use style="stroke:#000000;stroke-width:0.6;" x="465.304025" xlink:href="#m13c1342b14" y="308.6"/>
      </g>
     </g>
    </g>
    <g id="xtick_69">
     <g id="line2d_137">
      <path clip-path="url(#p4059854b4e)" d="M 468.096345 308.6 
L 468.096345 26.8 
" style="fill:none;stroke:#808080;stroke-dasharray:0.8,1.32;stroke-dashoffset:0;stroke-width:0.8;"/>
     </g>
     <g id="line2d_138">
      <g>
       <use style="stroke:#000000;stroke-width:0.6;" x="468.096345" xlink:href="#m13c1342b14" y="308.6"/>
      </g>
     </g>
    </g>
    <g id="xtick_70">
     <g id="line2d_139">
      <path clip-path="url(#p4059854b4e)" d="M 487.02682 308.6 
L 487.02682 26.8 
" style="fill:none;stroke:#808080;stroke-dasharray:0.8,1.32;stroke-dashoffset:0;stroke-width:0.8;"/>
     </g>
     <g id="line2d_140">
      <g>
       <use style="stroke:#000000;stroke-width:0.6;" x="487.02682" xlink:href="#m13c1342b14" y="308.6"/>
      </g>
     </g>
    </g>
    <g id="text_9">
     <!-- frequency [Hz] -->
     <defs>
      <path d="M 37.109375 75.984375 
L 37.109375 68.5 
L 28.515625 68.5 
Q 23.6875 68.5 21.796875 66.546875 
Q 19.921875 64.59375 19.921875 59.515625 
L 19.921875 54.6875 
L 34.71875 54.6875 
L 34.71875 47.703125 
L 19.921875 47.703125 
L 19.921875 0 
L 10.890625 0 
L 10.890625 47.703125 
L 2.296875 47.703125 
L 2.296875 54.6875 
L 10.890625 54.6875 
L 10.890625 58.5 
Q 10.890625 67.625 15.140625 71.796875 
Q 19.390625 75.984375 28.609375 75.984375 
z
" id="DejaVuSans-66"/>
      <path d="M 41.109375 46.296875 
Q 39.59375 47.171875 37.8125 47.578125 
Q 36.03125 48 33.890625 48 
Q 26.265625 48 22.1875 43.046875 
Q 18.109375 38.09375 18.109375 28.8125 
L 18.109375 0 
L 9.078125 0 
L 9.078125 54.6875 
L 18.109375 54.6875 
L 18.109375 46.1875 
Q 20.953125 51.171875 25.484375 53.578125 
Q 30.03125 56 36.53125 56 
Q 37.453125 56 38.578125 55.875 
Q 39.703125 55.765625 41.0625 55.515625 
z
" id="DejaVuSans-72"/>
      <path d="M 56.203125 29.59375 
L 56.203125 25.203125 
L 14.890625 25.203125 
Q 15.484375 15.921875 20.484375 11.0625 
Q 25.484375 6.203125 34.421875 6.203125 
Q 39.59375 6.203125 44.453125 7.46875 
Q 49.3125 8.734375 54.109375 11.28125 
L 54.109375 2.78125 
Q 49.265625 0.734375 44.1875 -0.34375 
Q 39.109375 -1.421875 33.890625 -1.421875 
Q 20.796875 -1.421875 13.15625 6.1875 
Q 5.515625 13.8125 5.515625 26.8125 
Q 5.515625 40.234375 12.765625 48.109375 
Q 20.015625 56 32.328125 56 
Q 43.359375 56 49.78125 48.890625 
Q 56.203125 41.796875 56.203125 29.59375 
z
M 47.21875 32.234375 
Q 47.125 39.59375 43.09375 43.984375 
Q 39.0625 48.390625 32.421875 48.390625 
Q 24.90625 48.390625 20.390625 44.140625 
Q 15.875 39.890625 15.1875 32.171875 
z
" id="DejaVuSans-65"/>
      <path d="M 14.796875 27.296875 
Q 14.796875 17.390625 18.875 11.75 
Q 22.953125 6.109375 30.078125 6.109375 
Q 37.203125 6.109375 41.296875 11.75 
Q 45.40625 17.390625 45.40625 27.296875 
Q 45.40625 37.203125 41.296875 42.84375 
Q 37.203125 48.484375 30.078125 48.484375 
Q 22.953125 48.484375 18.875 42.84375 
Q 14.796875 37.203125 14.796875 27.296875 
z
M 45.40625 8.203125 
Q 42.578125 3.328125 38.25 0.953125 
Q 33.9375 -1.421875 27.875 -1.421875 
Q 17.96875 -1.421875 11.734375 6.484375 
Q 5.515625 14.40625 5.515625 27.296875 
Q 5.515625 40.1875 11.734375 48.09375 
Q 17.96875 56 27.875 56 
Q 33.9375 56 38.25 53.625 
Q 42.578125 51.265625 45.40625 46.390625 
L 45.40625 54.6875 
L 54.390625 54.6875 
L 54.390625 -20.796875 
L 45.40625 -20.796875 
z
" id="DejaVuSans-71"/>
      <path d="M 8.5 21.578125 
L 8.5 54.6875 
L 17.484375 54.6875 
L 17.484375 21.921875 
Q 17.484375 14.15625 20.5 10.265625 
Q 23.53125 6.390625 29.59375 6.390625 
Q 36.859375 6.390625 41.078125 11.03125 
Q 45.3125 15.671875 45.3125 23.6875 
L 45.3125 54.6875 
L 54.296875 54.6875 
L 54.296875 0 
L 45.3125 0 
L 45.3125 8.40625 
Q 42.046875 3.421875 37.71875 1 
Q 33.40625 -1.421875 27.6875 -1.421875 
Q 18.265625 -1.421875 13.375 4.4375 
Q 8.5 10.296875 8.5 21.578125 
z
M 31.109375 56 
z
" id="DejaVuSans-75"/>
      <path d="M 54.890625 33.015625 
L 54.890625 0 
L 45.90625 0 
L 45.90625 32.71875 
Q 45.90625 40.484375 42.875 44.328125 
Q 39.84375 48.1875 33.796875 48.1875 
Q 26.515625 48.1875 22.3125 43.546875 
Q 18.109375 38.921875 18.109375 30.90625 
L 18.109375 0 
L 9.078125 0 
L 9.078125 54.6875 
L 18.109375 54.6875 
L 18.109375 46.1875 
Q 21.34375 51.125 25.703125 53.5625 
Q 30.078125 56 35.796875 56 
Q 45.21875 56 50.046875 50.171875 
Q 54.890625 44.34375 54.890625 33.015625 
z
" id="DejaVuSans-6e"/>
      <path d="M 48.78125 52.59375 
L 48.78125 44.1875 
Q 44.96875 46.296875 41.140625 47.34375 
Q 37.3125 48.390625 33.40625 48.390625 
Q 24.65625 48.390625 19.8125 42.84375 
Q 14.984375 37.3125 14.984375 27.296875 
Q 14.984375 17.28125 19.8125 11.734375 
Q 24.65625 6.203125 33.40625 6.203125 
Q 37.3125 6.203125 41.140625 7.25 
Q 44.96875 8.296875 48.78125 10.40625 
L 48.78125 2.09375 
Q 45.015625 0.34375 40.984375 -0.53125 
Q 36.96875 -1.421875 32.421875 -1.421875 
Q 20.0625 -1.421875 12.78125 6.34375 
Q 5.515625 14.109375 5.515625 27.296875 
Q 5.515625 40.671875 12.859375 48.328125 
Q 20.21875 56 33.015625 56 
Q 37.15625 56 41.109375 55.140625 
Q 45.0625 54.296875 48.78125 52.59375 
z
" id="DejaVuSans-63"/>
      <path d="M 32.171875 -5.078125 
Q 28.375 -14.84375 24.75 -17.8125 
Q 21.140625 -20.796875 15.09375 -20.796875 
L 7.90625 -20.796875 
L 7.90625 -13.28125 
L 13.1875 -13.28125 
Q 16.890625 -13.28125 18.9375 -11.515625 
Q 21 -9.765625 23.484375 -3.21875 
L 25.09375 0.875 
L 2.984375 54.6875 
L 12.5 54.6875 
L 29.59375 11.921875 
L 46.6875 54.6875 
L 56.203125 54.6875 
z
" id="DejaVuSans-79"/>
      <path id="DejaVuSans-20"/>
      <path d="M 8.59375 75.984375 
L 29.296875 75.984375 
L 29.296875 69 
L 17.578125 69 
L 17.578125 -6.203125 
L 29.296875 -6.203125 
L 29.296875 -13.1875 
L 8.59375 -13.1875 
z
" id="DejaVuSans-5b"/>
      <path d="M 9.8125 72.90625 
L 19.671875 72.90625 
L 19.671875 43.015625 
L 55.515625 43.015625 
L 55.515625 72.90625 
L 65.375 72.90625 
L 65.375 0 
L 55.515625 0 
L 55.515625 34.71875 
L 19.671875 34.71875 
L 19.671875 0 
L 9.8125 0 
z
" id="DejaVuSans-48"/>
      <path d="M 5.515625 54.6875 
L 48.1875 54.6875 
L 48.1875 46.484375 
L 14.40625 7.171875 
L 48.1875 7.171875 
L 48.1875 0 
L 4.296875 0 
L 4.296875 8.203125 
L 38.09375 47.515625 
L 5.515625 47.515625 
z
" id="DejaVuSans-7a"/>
      <path d="M 30.421875 75.984375 
L 30.421875 -13.1875 
L 9.71875 -13.1875 
L 9.71875 -6.203125 
L 21.390625 -6.203125 
L 21.390625 69 
L 9.71875 69 
L 9.71875 75.984375 
z
" id="DejaVuSans-5d"/>
     </defs>
     <g transform="translate(235.060762 340.331875)scale(0.12 -0.12)">
      <use xlink:href="#DejaVuSans-66"/>
      <use x="35.205078" xlink:href="#DejaVuSans-72"/>
      <use x="76.287109" xlink:href="#DejaVuSans-65"/>
      <use x="137.810547" xlink:href="#DejaVuSans-71"/>
      <use x="201.287109" xlink:href="#DejaVuSans-75"/>
      <use x="264.666016" xlink:href="#DejaVuSans-65"/>
      <use x="326.189453" xlink:href="#DejaVuSans-6e"/>
      <use x="389.568359" xlink:href="#DejaVuSans-63"/>
      <use x="444.548828" xlink:href="#DejaVuSans-79"/>
      <use x="503.728516" xlink:href="#DejaVuSans-20"/>
      <use x="535.515625" xlink:href="#DejaVuSans-5b"/>
      <use x="574.529297" xlink:href="#DejaVuSans-48"/>
      <use x="649.724609" xlink:href="#DejaVuSans-7a"/>
      <use x="702.214844" xlink:href="#DejaVuSans-5d"/>
     </g>
    </g>
   </g>
   <g id="matplotlib.axis_2">
    <g id="ytick_1">
     <g id="line2d_141">
      <path clip-path="url(#p4059854b4e)" d="M 69.371523 210.405011 
L 489.7 210.405011 
" style="fill:none;stroke:#808080;stroke-linecap:square;stroke-width:0.8;"/>
     </g>
     <g id="line2d_142">
      <defs>
       <path d="M 0 0 
L -3.5 0 
" id="mde8cab56e2" style="stroke:#000000;stroke-width:0.8;"/>
      </defs>
      <g>
       <use style="stroke:#000000;stroke-width:0.8;" x="69.371523" xlink:href="#mde8cab56e2" y="210.405011"/>
      </g>
     </g>
     <g id="text_10">
      <!-- $\mathdefault{10^{-16}}$ -->
      <g transform="translate(28.891523 214.964073)scale(0.12 -0.12)">
       <use transform="translate(0 0.765625)" xlink:href="#DejaVuSans-31"/>
       <use transform="translate(63.623047 0.765625)" xlink:href="#DejaVuSans-30"/>
       <use transform="translate(128.203125 39.046875)scale(0.7)" xlink:href="#DejaVuSans-2212"/>
       <use transform="translate(186.855469 39.046875)scale(0.7)" xlink:href="#DejaVuSans-31"/>
       <use transform="translate(231.391602 39.046875)scale(0.7)" xlink:href="#DejaVuSans-36"/>
      </g>
     </g>
    </g>
    <g id="ytick_2">
     <g id="line2d_143">
      <path clip-path="url(#p4059854b4e)" d="M 69.371523 101.038712 
L 489.7 101.038712 
" style="fill:none;stroke:#808080;stroke-linecap:square;stroke-width:0.8;"/>
     </g>
     <g id="line2d_144">
      <g>
       <use style="stroke:#000000;stroke-width:0.8;" x="69.371523" xlink:href="#mde8cab56e2" y="101.038712"/>
      </g>
     </g>
     <g id="text_11">
      <!-- $\mathdefault{10^{-15}}$ -->
      <g transform="translate(28.891523 105.597774)scale(0.12 -0.12)">
       <use transform="translate(0 0.684375)" xlink:href="#DejaVuSans-31"/>
       <use transform="translate(63.623047 0.684375)" xlink:href="#DejaVuSans-30"/>
       <use transform="translate(128.203125 38.965625)scale(0.7)" xlink:href="#DejaVuSans-2212"/>
       <use transform="translate(186.855469 38.965625)scale(0.7)" xlink:href="#DejaVuSans-31"/>
       <use transform="translate(231.391602 38.965625)scale(0.7)" xlink:href="#DejaVuSans-35"/>
      </g>
     </g>
    </g>
    <g id="ytick_3">
     <g id="line2d_145">
      <path clip-path="url(#p4059854b4e)" d="M 69.371523 286.848773 
L 489.7 286.848773 
" style="fill:none;stroke:#808080;stroke-dasharray:0.8,1.32;stroke-dashoffset:0;stroke-width:0.8;"/>
     </g>
     <g id="line2d_146">
      <defs>
       <path d="M 0 0 
L -2 0 
" id="m77cd7f9e23" style="stroke:#000000;stroke-width:0.6;"/>
      </defs>
      <g>
       <use style="stroke:#000000;stroke-width:0.6;" x="69.371523" xlink:href="#m77cd7f9e23" y="286.848773"/>
      </g>
     </g>
    </g>
    <g id="ytick_4">
     <g id="line2d_147">
      <path clip-path="url(#p4059854b4e)" d="M 69.371523 267.590324 
L 489.7 267.590324 
" style="fill:none;stroke:#808080;stroke-dasharray:0.8,1.32;stroke-dashoffset:0;stroke-width:0.8;"/>
     </g>
     <g id="line2d_148">
      <g>
       <use style="stroke:#000000;stroke-width:0.6;" x="69.371523" xlink:href="#m77cd7f9e23" y="267.590324"/>
      </g>
     </g>
    </g>
    <g id="ytick_5">
     <g id="line2d_149">
      <path clip-path="url(#p4059854b4e)" d="M 69.371523 253.926237 
L 489.7 253.926237 
" style="fill:none;stroke:#808080;stroke-dasharray:0.8,1.32;stroke-dashoffset:0;stroke-width:0.8;"/>
     </g>
     <g id="line2d_150">
      <g>
       <use style="stroke:#000000;stroke-width:0.6;" x="69.371523" xlink:href="#m77cd7f9e23" y="253.926237"/>
      </g>
     </g>
    </g>
    <g id="ytick_6">
     <g id="line2d_151">
      <path clip-path="url(#p4059854b4e)" d="M 69.371523 243.327547 
L 489.7 243.327547 
" style="fill:none;stroke:#808080;stroke-dasharray:0.8,1.32;stroke-dashoffset:0;stroke-width:0.8;"/>
     </g>
     <g id="line2d_152">
      <g>
       <use style="stroke:#000000;stroke-width:0.6;" x="69.371523" xlink:href="#m77cd7f9e23" y="243.327547"/>
      </g>
     </g>
    </g>
    <g id="ytick_7">
     <g id="line2d_153">
      <path clip-path="url(#p4059854b4e)" d="M 69.371523 234.667787 
L 489.7 234.667787 
" style="fill:none;stroke:#808080;stroke-dasharray:0.8,1.32;stroke-dashoffset:0;stroke-width:0.8;"/>
     </g>
     <g id="line2d_154">
      <g>
       <use style="stroke:#000000;stroke-width:0.6;" x="69.371523" xlink:href="#m77cd7f9e23" y="234.667787"/>
      </g>
     </g>
    </g>
    <g id="ytick_8">
     <g id="line2d_155">
      <path clip-path="url(#p4059854b4e)" d="M 69.371523 227.346065 
L 489.7 227.346065 
" style="fill:none;stroke:#808080;stroke-dasharray:0.8,1.32;stroke-dashoffset:0;stroke-width:0.8;"/>
     </g>
     <g id="line2d_156">
      <g>
       <use style="stroke:#000000;stroke-width:0.6;" x="69.371523" xlink:href="#m77cd7f9e23" y="227.346065"/>
      </g>
     </g>
    </g>
    <g id="ytick_9">
     <g id="line2d_157">
      <path clip-path="url(#p4059854b4e)" d="M 69.371523 221.0037 
L 489.7 221.0037 
" style="fill:none;stroke:#808080;stroke-dasharray:0.8,1.32;stroke-dashoffset:0;stroke-width:0.8;"/>
     </g>
     <g id="line2d_158">
      <g>
       <use style="stroke:#000000;stroke-width:0.6;" x="69.371523" xlink:href="#m77cd7f9e23" y="221.0037"/>
      </g>
     </g>
    </g>
    <g id="ytick_10">
     <g id="line2d_159">
      <path clip-path="url(#p4059854b4e)" d="M 69.371523 215.409338 
L 489.7 215.409338 
" style="fill:none;stroke:#808080;stroke-dasharray:0.8,1.32;stroke-dashoffset:0;stroke-width:0.8;"/>
     </g>
     <g id="line2d_160">
      <g>
       <use style="stroke:#000000;stroke-width:0.6;" x="69.371523" xlink:href="#m77cd7f9e23" y="215.409338"/>
      </g>
     </g>
    </g>
    <g id="ytick_11">
     <g id="line2d_161">
      <path clip-path="url(#p4059854b4e)" d="M 69.371523 177.482474 
L 489.7 177.482474 
" style="fill:none;stroke:#808080;stroke-dasharray:0.8,1.32;stroke-dashoffset:0;stroke-width:0.8;"/>
     </g>
     <g id="line2d_162">
      <g>
       <use style="stroke:#000000;stroke-width:0.6;" x="69.371523" xlink:href="#m77cd7f9e23" y="177.482474"/>
      </g>
     </g>
    </g>
    <g id="ytick_12">
     <g id="line2d_163">
      <path clip-path="url(#p4059854b4e)" d="M 69.371523 158.224025 
L 489.7 158.224025 
" style="fill:none;stroke:#808080;stroke-dasharray:0.8,1.32;stroke-dashoffset:0;stroke-width:0.8;"/>
     </g>
     <g id="line2d_164">
      <g>
       <use style="stroke:#000000;stroke-width:0.6;" x="69.371523" xlink:href="#m77cd7f9e23" y="158.224025"/>
      </g>
     </g>
    </g>
    <g id="ytick_13">
     <g id="line2d_165">
      <path clip-path="url(#p4059854b4e)" d="M 69.371523 144.559938 
L 489.7 144.559938 
" style="fill:none;stroke:#808080;stroke-dasharray:0.8,1.32;stroke-dashoffset:0;stroke-width:0.8;"/>
     </g>
     <g id="line2d_166">
      <g>
       <use style="stroke:#000000;stroke-width:0.6;" x="69.371523" xlink:href="#m77cd7f9e23" y="144.559938"/>
      </g>
     </g>
    </g>
    <g id="ytick_14">
     <g id="line2d_167">
      <path clip-path="url(#p4059854b4e)" d="M 69.371523 133.961248 
L 489.7 133.961248 
" style="fill:none;stroke:#808080;stroke-dasharray:0.8,1.32;stroke-dashoffset:0;stroke-width:0.8;"/>
     </g>
     <g id="line2d_168">
      <g>
       <use style="stroke:#000000;stroke-width:0.6;" x="69.371523" xlink:href="#m77cd7f9e23" y="133.961248"/>
      </g>
     </g>
    </g>
    <g id="ytick_15">
     <g id="line2d_169">
      <path clip-path="url(#p4059854b4e)" d="M 69.371523 125.301488 
L 489.7 125.301488 
" style="fill:none;stroke:#808080;stroke-dasharray:0.8,1.32;stroke-dashoffset:0;stroke-width:0.8;"/>
     </g>
     <g id="line2d_170">
      <g>
       <use style="stroke:#000000;stroke-width:0.6;" x="69.371523" xlink:href="#m77cd7f9e23" y="125.301488"/>
      </g>
     </g>
    </g>
    <g id="ytick_16">
     <g id="line2d_171">
      <path clip-path="url(#p4059854b4e)" d="M 69.371523 117.979766 
L 489.7 117.979766 
" style="fill:none;stroke:#808080;stroke-dasharray:0.8,1.32;stroke-dashoffset:0;stroke-width:0.8;"/>
     </g>
     <g id="line2d_172">
      <g>
       <use style="stroke:#000000;stroke-width:0.6;" x="69.371523" xlink:href="#m77cd7f9e23" y="117.979766"/>
      </g>
     </g>
    </g>
    <g id="ytick_17">
     <g id="line2d_173">
      <path clip-path="url(#p4059854b4e)" d="M 69.371523 111.637401 
L 489.7 111.637401 
" style="fill:none;stroke:#808080;stroke-dasharray:0.8,1.32;stroke-dashoffset:0;stroke-width:0.8;"/>
     </g>
     <g id="line2d_174">
      <g>
       <use style="stroke:#000000;stroke-width:0.6;" x="69.371523" xlink:href="#m77cd7f9e23" y="111.637401"/>
      </g>
     </g>
    </g>
    <g id="ytick_18">
     <g id="line2d_175">
      <path clip-path="url(#p4059854b4e)" d="M 69.371523 106.043039 
L 489.7 106.043039 
" style="fill:none;stroke:#808080;stroke-dasharray:0.8,1.32;stroke-dashoffset:0;stroke-width:0.8;"/>
     </g>
     <g id="line2d_176">
      <g>
       <use style="stroke:#000000;stroke-width:0.6;" x="69.371523" xlink:href="#m77cd7f9e23" y="106.043039"/>
      </g>
     </g>
    </g>
    <g id="ytick_19">
     <g id="line2d_177">
      <path clip-path="url(#p4059854b4e)" d="M 69.371523 68.116175 
L 489.7 68.116175 
" style="fill:none;stroke:#808080;stroke-dasharray:0.8,1.32;stroke-dashoffset:0;stroke-width:0.8;"/>
     </g>
     <g id="line2d_178">
      <g>
       <use style="stroke:#000000;stroke-width:0.6;" x="69.371523" xlink:href="#m77cd7f9e23" y="68.116175"/>
      </g>
     </g>
    </g>
    <g id="ytick_20">
     <g id="line2d_179">
      <path clip-path="url(#p4059854b4e)" d="M 69.371523 48.857726 
L 489.7 48.857726 
" style="fill:none;stroke:#808080;stroke-dasharray:0.8,1.32;stroke-dashoffset:0;stroke-width:0.8;"/>
     </g>
     <g id="line2d_180">
      <g>
       <use style="stroke:#000000;stroke-width:0.6;" x="69.371523" xlink:href="#m77cd7f9e23" y="48.857726"/>
      </g>
     </g>
    </g>
    <g id="ytick_21">
     <g id="line2d_181">
      <path clip-path="url(#p4059854b4e)" d="M 69.371523 35.193639 
L 489.7 35.193639 
" style="fill:none;stroke:#808080;stroke-dasharray:0.8,1.32;stroke-dashoffset:0;stroke-width:0.8;"/>
     </g>
     <g id="line2d_182">
      <g>
       <use style="stroke:#000000;stroke-width:0.6;" x="69.371523" xlink:href="#m77cd7f9e23" y="35.193639"/>
      </g>
     </g>
    </g>
    <g id="text_12">
     <!-- spectral density [V^2/Hz] -->
     <defs>
      <path d="M 44.28125 53.078125 
L 44.28125 44.578125 
Q 40.484375 46.53125 36.375 47.5 
Q 32.28125 48.484375 27.875 48.484375 
Q 21.1875 48.484375 17.84375 46.4375 
Q 14.5 44.390625 14.5 40.28125 
Q 14.5 37.15625 16.890625 35.375 
Q 19.28125 33.59375 26.515625 31.984375 
L 29.59375 31.296875 
Q 39.15625 29.25 43.1875 25.515625 
Q 47.21875 21.78125 47.21875 15.09375 
Q 47.21875 7.46875 41.1875 3.015625 
Q 35.15625 -1.421875 24.609375 -1.421875 
Q 20.21875 -1.421875 15.453125 -0.5625 
Q 10.6875 0.296875 5.421875 2 
L 5.421875 11.28125 
Q 10.40625 8.6875 15.234375 7.390625 
Q 20.0625 6.109375 24.8125 6.109375 
Q 31.15625 6.109375 34.5625 8.28125 
Q 37.984375 10.453125 37.984375 14.40625 
Q 37.984375 18.0625 35.515625 20.015625 
Q 33.0625 21.96875 24.703125 23.78125 
L 21.578125 24.515625 
Q 13.234375 26.265625 9.515625 29.90625 
Q 5.8125 33.546875 5.8125 39.890625 
Q 5.8125 47.609375 11.28125 51.796875 
Q 16.75 56 26.8125 56 
Q 31.78125 56 36.171875 55.265625 
Q 40.578125 54.546875 44.28125 53.078125 
z
" id="DejaVuSans-73"/>
      <path d="M 18.109375 8.203125 
L 18.109375 -20.796875 
L 9.078125 -20.796875 
L 9.078125 54.6875 
L 18.109375 54.6875 
L 18.109375 46.390625 
Q 20.953125 51.265625 25.265625 53.625 
Q 29.59375 56 35.59375 56 
Q 45.5625 56 51.78125 48.09375 
Q 58.015625 40.1875 58.015625 27.296875 
Q 58.015625 14.40625 51.78125 6.484375 
Q 45.5625 -1.421875 35.59375 -1.421875 
Q 29.59375 -1.421875 25.265625 0.953125 
Q 20.953125 3.328125 18.109375 8.203125 
z
M 48.6875 27.296875 
Q 48.6875 37.203125 44.609375 42.84375 
Q 40.53125 48.484375 33.40625 48.484375 
Q 26.265625 48.484375 22.1875 42.84375 
Q 18.109375 37.203125 18.109375 27.296875 
Q 18.109375 17.390625 22.1875 11.75 
Q 26.265625 6.109375 33.40625 6.109375 
Q 40.53125 6.109375 44.609375 11.75 
Q 48.6875 17.390625 48.6875 27.296875 
z
" id="DejaVuSans-70"/>
      <path d="M 18.3125 70.21875 
L 18.3125 54.6875 
L 36.8125 54.6875 
L 36.8125 47.703125 
L 18.3125 47.703125 
L 18.3125 18.015625 
Q 18.3125 11.328125 20.140625 9.421875 
Q 21.96875 7.515625 27.59375 7.515625 
L 36.8125 7.515625 
L 36.8125 0 
L 27.59375 0 
Q 17.1875 0 13.234375 3.875 
Q 9.28125 7.765625 9.28125 18.015625 
L 9.28125 47.703125 
L 2.6875 47.703125 
L 2.6875 54.6875 
L 9.28125 54.6875 
L 9.28125 70.21875 
z
" id="DejaVuSans-74"/>
      <path d="M 34.28125 27.484375 
Q 23.390625 27.484375 19.1875 25 
Q 14.984375 22.515625 14.984375 16.5 
Q 14.984375 11.71875 18.140625 8.90625 
Q 21.296875 6.109375 26.703125 6.109375 
Q 34.1875 6.109375 38.703125 11.40625 
Q 43.21875 16.703125 43.21875 25.484375 
L 43.21875 27.484375 
z
M 52.203125 31.203125 
L 52.203125 0 
L 43.21875 0 
L 43.21875 8.296875 
Q 40.140625 3.328125 35.546875 0.953125 
Q 30.953125 -1.421875 24.3125 -1.421875 
Q 15.921875 -1.421875 10.953125 3.296875 
Q 6 8.015625 6 15.921875 
Q 6 25.140625 12.171875 29.828125 
Q 18.359375 34.515625 30.609375 34.515625 
L 43.21875 34.515625 
L 43.21875 35.40625 
Q 43.21875 41.609375 39.140625 45 
Q 35.0625 48.390625 27.6875 48.390625 
Q 23 48.390625 18.546875 47.265625 
Q 14.109375 46.140625 10.015625 43.890625 
L 10.015625 52.203125 
Q 14.9375 54.109375 19.578125 55.046875 
Q 24.21875 56 28.609375 56 
Q 40.484375 56 46.34375 49.84375 
Q 52.203125 43.703125 52.203125 31.203125 
z
" id="DejaVuSans-61"/>
      <path d="M 9.421875 75.984375 
L 18.40625 75.984375 
L 18.40625 0 
L 9.421875 0 
z
" id="DejaVuSans-6c"/>
      <path d="M 45.40625 46.390625 
L 45.40625 75.984375 
L 54.390625 75.984375 
L 54.390625 0 
L 45.40625 0 
L 45.40625 8.203125 
Q 42.578125 3.328125 38.25 0.953125 
Q 33.9375 -1.421875 27.875 -1.421875 
Q 17.96875 -1.421875 11.734375 6.484375 
Q 5.515625 14.40625 5.515625 27.296875 
Q 5.515625 40.1875 11.734375 48.09375 
Q 17.96875 56 27.875 56 
Q 33.9375 56 38.25 53.625 
Q 42.578125 51.265625 45.40625 46.390625 
z
M 14.796875 27.296875 
Q 14.796875 17.390625 18.875 11.75 
Q 22.953125 6.109375 30.078125 6.109375 
Q 37.203125 6.109375 41.296875 11.75 
Q 45.40625 17.390625 45.40625 27.296875 
Q 45.40625 37.203125 41.296875 42.84375 
Q 37.203125 48.484375 30.078125 48.484375 
Q 22.953125 48.484375 18.875 42.84375 
Q 14.796875 37.203125 14.796875 27.296875 
z
" id="DejaVuSans-64"/>
      <path d="M 9.421875 54.6875 
L 18.40625 54.6875 
L 18.40625 0 
L 9.421875 0 
z
M 9.421875 75.984375 
L 18.40625 75.984375 
L 18.40625 64.59375 
L 9.421875 64.59375 
z
" id="DejaVuSans-69"/>
      <path d="M 28.609375 0 
L 0.78125 72.90625 
L 11.078125 72.90625 
L 34.1875 11.53125 
L 57.328125 72.90625 
L 67.578125 72.90625 
L 39.796875 0 
z
" id="DejaVuSans-56"/>
      <path d="M 46.6875 72.90625 
L 73.1875 45.703125 
L 63.375 45.703125 
L 41.890625 64.984375 
L 20.40625 45.703125 
L 10.59375 45.703125 
L 37.109375 72.90625 
z
" id="DejaVuSans-5e"/>
      <path d="M 25.390625 72.90625 
L 33.6875 72.90625 
L 8.296875 -9.28125 
L 0 -9.28125 
z
" id="DejaVuSans-2f"/>
     </defs>
     <g transform="translate(22.395898 244.915312)rotate(-90)scale(0.12 -0.12)">
      <use xlink:href="#DejaVuSans-73"/>
      <use x="52.099609" xlink:href="#DejaVuSans-70"/>
      <use x="115.576172" xlink:href="#DejaVuSans-65"/>
      <use x="177.099609" xlink:href="#DejaVuSans-63"/>
      <use x="232.080078" xlink:href="#DejaVuSans-74"/>
      <use x="271.289062" xlink:href="#DejaVuSans-72"/>
      <use x="312.402344" xlink:href="#DejaVuSans-61"/>
      <use x="373.681641" xlink:href="#DejaVuSans-6c"/>
      <use x="401.464844" xlink:href="#DejaVuSans-20"/>
      <use x="433.251953" xlink:href="#DejaVuSans-64"/>
      <use x="496.728516" xlink:href="#DejaVuSans-65"/>
      <use x="558.251953" xlink:href="#DejaVuSans-6e"/>
      <use x="621.630859" xlink:href="#DejaVuSans-73"/>
      <use x="673.730469" xlink:href="#DejaVuSans-69"/>
      <use x="701.513672" xlink:href="#DejaVuSans-74"/>
      <use x="740.722656" xlink:href="#DejaVuSans-79"/>
      <use x="799.902344" xlink:href="#DejaVuSans-20"/>
      <use x="831.689453" xlink:href="#DejaVuSans-5b"/>
      <use x="870.703125" xlink:href="#DejaVuSans-56"/>
      <use x="939.111328" xlink:href="#DejaVuSans-5e"/>
      <use x="1022.900391" xlink:href="#DejaVuSans-32"/>
      <use x="1086.523438" xlink:href="#DejaVuSans-2f"/>
      <use x="1120.214844" xlink:href="#DejaVuSans-48"/>
      <use x="1195.410156" xlink:href="#DejaVuSans-7a"/>
      <use x="1247.900391" xlink:href="#DejaVuSans-5d"/>
     </g>
    </g>
   </g>
   <g id="line2d_183">
    <path clip-path="url(#p4059854b4e)" d="M 88.477363 39.609091 
L 96.158103 53.373277 
L 103.838843 66.603794 
L 109.599397 76.093344 
L 115.359952 85.140918 
L 121.120507 93.681481 
L 124.960877 99.062485 
L 128.801246 104.173459 
L 132.641616 108.999697 
L 136.481986 113.52927 
L 140.322356 117.753579 
L 144.162726 121.667789 
L 148.003095 125.271074 
L 151.843465 128.566671 
L 155.683835 131.561723 
L 159.524205 134.266931 
L 163.364575 136.696067 
L 167.204945 138.865373 
L 171.045314 140.792929 
L 174.885684 142.498024 
L 178.726054 144.00059 
L 182.566424 145.320726 
L 188.326979 147.002316 
L 194.087533 148.383507 
L 199.848088 149.527406 
L 207.528828 150.791366 
L 226.730677 153.718402 
L 230.571047 154.506293 
L 234.411416 155.468604 
L 238.251786 156.671442 
L 242.092156 158.191794 
L 245.932526 160.114269 
L 247.852711 161.253044 
L 249.772896 162.523397 
L 251.693081 163.933701 
L 253.613265 165.49036 
L 255.53345 167.197151 
L 259.37382 171.059197 
L 263.21419 175.474693 
L 267.05456 180.327223 
L 278.575669 195.50804 
L 282.416039 200.0447 
L 286.256409 204.043301 
L 288.176594 205.817129 
L 290.096779 207.436664 
L 292.016964 208.903597 
L 293.937149 210.222625 
L 295.857333 211.400791 
L 299.697703 213.370543 
L 303.538073 214.892725 
L 307.378443 216.050214 
L 311.218813 216.919529 
L 315.059183 217.566326 
L 320.819737 218.233466 
L 326.580292 218.652876 
L 334.261032 218.978012 
L 345.782141 219.203655 
L 364.98399 219.316718 
L 426.429907 219.347008 
L 470.59416 219.345583 
L 470.59416 219.345583 
" style="fill:none;stroke:#ff0000;stroke-linecap:square;stroke-width:2;"/>
   </g>
   <g id="line2d_184">
    <path clip-path="url(#p4059854b4e)" d="M 88.477363 72.531627 
L 96.158103 86.295814 
L 103.838843 99.526331 
L 109.599397 109.01588 
L 115.359952 118.063455 
L 121.120507 126.604018 
L 124.960877 131.985022 
L 128.801246 137.095995 
L 132.641616 141.922234 
L 136.481986 146.451806 
L 140.322356 150.676116 
L 144.162726 154.590325 
L 148.003095 158.19361 
L 151.843465 161.489208 
L 155.683835 164.484259 
L 159.524205 167.189468 
L 163.364575 169.618604 
L 167.204945 171.78791 
L 171.045314 173.715465 
L 174.885684 175.42056 
L 178.726054 176.923126 
L 182.566424 178.243262 
L 188.326979 179.924853 
L 194.087533 181.306044 
L 199.848088 182.449942 
L 207.528828 183.713903 
L 226.730677 186.640939 
L 230.571047 187.42883 
L 234.411416 188.391141 
L 238.251786 189.593978 
L 242.092156 191.114331 
L 245.932526 193.036805 
L 247.852711 194.175581 
L 249.772896 195.445934 
L 251.693081 196.856237 
L 253.613265 198.412897 
L 255.53345 200.119687 
L 259.37382 203.981734 
L 263.21419 208.397229 
L 267.05456 213.24976 
L 278.575669 228.430577 
L 282.416039 232.967236 
L 286.256409 236.965837 
L 288.176594 238.739665 
L 290.096779 240.359201 
L 292.016964 241.826134 
L 293.937149 243.145162 
L 295.857333 244.323328 
L 299.697703 246.29308 
L 303.538073 247.815261 
L 307.378443 248.972751 
L 311.218813 249.842066 
L 315.059183 250.488863 
L 320.819737 251.156002 
L 326.580292 251.575412 
L 334.261032 251.900548 
L 345.782141 252.126192 
L 364.98399 252.239255 
L 426.429907 252.269544 
L 470.59416 252.268119 
L 470.59416 252.268119 
" style="fill:none;stroke:#0000ff;stroke-linecap:square;stroke-width:2;"/>
   </g>
   <g id="line2d_185">
    <path clip-path="url(#p4059854b4e)" d="M 88.477363 91.790077 
L 96.158103 105.554263 
L 103.838843 118.78478 
L 109.599397 128.27433 
L 115.359952 137.321904 
L 121.120507 145.862467 
L 124.960877 151.243471 
L 128.801246 156.354445 
L 132.641616 161.180683 
L 136.481986 165.710255 
L 140.322356 169.934565 
L 144.162726 173.848774 
L 148.003095 177.45206 
L 151.843465 180.747657 
L 155.683835 183.742708 
L 159.524205 186.447917 
L 163.364575 188.877053 
L 167.204945 191.046359 
L 171.045314 192.973915 
L 174.885684 194.67901 
L 178.726054 196.181576 
L 182.566424 197.501711 
L 188.326979 199.183302 
L 194.087533 200.564493 
L 199.848088 201.708392 
L 207.528828 202.972352 
L 226.730677 205.899388 
L 230.571047 206.687279 
L 234.411416 207.64959 
L 238.251786 208.852427 
L 242.092156 210.37278 
L 245.932526 212.295254 
L 247.852711 213.43403 
L 249.772896 214.704383 
L 251.693081 216.114686 
L 253.613265 217.671346 
L 255.53345 219.378136 
L 259.37382 223.240183 
L 263.21419 227.655679 
L 267.05456 232.508209 
L 278.575669 247.689026 
L 282.416039 252.225686 
L 286.256409 256.224287 
L 288.176594 257.998115 
L 290.096779 259.61765 
L 292.016964 261.084583 
L 293.937149 262.403611 
L 295.857333 263.581777 
L 299.697703 265.551529 
L 303.538073 267.073711 
L 307.378443 268.2312 
L 311.218813 269.100515 
L 315.059183 269.747312 
L 320.819737 270.414451 
L 326.580292 270.833862 
L 334.261032 271.158997 
L 345.782141 271.384641 
L 364.98399 271.497704 
L 426.429907 271.527994 
L 470.59416 271.526568 
L 470.59416 271.526568 
" style="fill:none;stroke:#008000;stroke-linecap:square;stroke-width:2;"/>
   </g>
   <g id="line2d_186">
    <path clip-path="url(#p4059854b4e)" d="M 88.477363 105.454164 
L 96.158103 119.21835 
L 103.838843 132.448868 
L 109.599397 141.938417 
L 115.359952 150.985991 
L 121.120507 159.526554 
L 124.960877 164.907559 
L 128.801246 170.018532 
L 132.641616 174.84477 
L 136.481986 179.374343 
L 140.322356 183.598652 
L 144.162726 187.512862 
L 148.003095 191.116147 
L 151.843465 194.411744 
L 155.683835 197.406796 
L 159.524205 200.112004 
L 163.364575 202.54114 
L 167.204945 204.710446 
L 171.045314 206.638002 
L 174.885684 208.343097 
L 178.726054 209.845663 
L 182.566424 211.165799 
L 188.326979 212.847389 
L 194.087533 214.22858 
L 199.848088 215.372479 
L 207.528828 216.636439 
L 226.730677 219.563475 
L 230.571047 220.351366 
L 234.411416 221.313677 
L 238.251786 222.516515 
L 242.092156 224.036867 
L 245.932526 225.959342 
L 247.852711 227.098117 
L 249.772896 228.36847 
L 251.693081 229.778774 
L 253.613265 231.335433 
L 255.53345 233.042224 
L 259.37382 236.90427 
L 263.21419 241.319766 
L 267.05456 246.172296 
L 278.575669 261.353113 
L 282.416039 265.889773 
L 286.256409 269.888374 
L 288.176594 271.662202 
L 290.096779 273.281738 
L 292.016964 274.74867 
L 293.937149 276.067699 
L 295.857333 277.245864 
L 299.697703 279.215616 
L 303.538073 280.737798 
L 307.378443 281.895287 
L 311.218813 282.764603 
L 315.059183 283.411399 
L 320.819737 284.078539 
L 326.580292 284.497949 
L 334.261032 284.823085 
L 345.782141 285.048728 
L 364.98399 285.161791 
L 426.429907 285.192081 
L 470.59416 285.190656 
L 470.59416 285.190656 
" style="fill:none;stroke:#00bfbf;stroke-linecap:square;stroke-width:2;"/>
   </g>
   <g id="line2d_187">
    <path clip-path="url(#p4059854b4e)" d="M 88.477363 116.052853 
L 96.158103 129.81704 
L 103.838843 143.047557 
L 109.599397 152.537106 
L 115.359952 161.584681 
L 121.120507 170.125244 
L 124.960877 175.506248 
L 128.801246 180.617221 
L 132.641616 185.44346 
L 136.481986 189.973032 
L 140.322356 194.197342 
L 144.162726 198.111551 
L 148.003095 201.714836 
L 151.843465 205.010434 
L 155.683835 208.005485 
L 159.524205 210.710694 
L 163.364575 213.13983 
L 167.204945 215.309136 
L 171.045314 217.236691 
L 174.885684 218.941786 
L 178.726054 220.444352 
L 182.566424 221.764488 
L 188.326979 223.446079 
L 194.087533 224.82727 
L 199.848088 225.971168 
L 207.528828 227.235129 
L 226.730677 230.162165 
L 230.571047 230.950056 
L 234.411416 231.912367 
L 238.251786 233.115204 
L 242.092156 234.635557 
L 245.932526 236.558031 
L 247.852711 237.696807 
L 249.772896 238.96716 
L 251.693081 240.377463 
L 253.613265 241.934123 
L 255.53345 243.640913 
L 259.37382 247.50296 
L 263.21419 251.918455 
L 267.05456 256.770986 
L 278.575669 271.951803 
L 282.416039 276.488462 
L 286.256409 280.487063 
L 288.176594 282.260891 
L 290.096779 283.880427 
L 292.016964 285.34736 
L 293.937149 286.666388 
L 295.857333 287.844554 
L 299.697703 289.814306 
L 303.538073 291.336487 
L 307.378443 292.493977 
L 311.218813 293.363292 
L 315.059183 294.010089 
L 320.819737 294.677228 
L 326.580292 295.096638 
L 334.261032 295.421774 
L 345.782141 295.647418 
L 364.98399 295.760481 
L 426.429907 295.79077 
L 470.59416 295.789345 
L 470.59416 295.789345 
" style="fill:none;stroke:#bf00bf;stroke-linecap:square;stroke-width:2;"/>
   </g>
   <g id="patch_3">
    <path d="M 69.371523 308.6 
L 69.371523 26.8 
" style="fill:none;stroke:#000000;stroke-linecap:square;stroke-linejoin:miter;stroke-width:0.8;"/>
   </g>
   <g id="patch_4">
    <path d="M 489.7 308.6 
L 489.7 26.8 
" style="fill:none;stroke:#000000;stroke-linecap:square;stroke-linejoin:miter;stroke-width:0.8;"/>
   </g>
   <g id="patch_5">
    <path d="M 69.371523 308.6 
L 489.7 308.6 
" style="fill:none;stroke:#000000;stroke-linecap:square;stroke-linejoin:miter;stroke-width:0.8;"/>
   </g>
   <g id="patch_6">
    <path d="M 69.371523 26.8 
L 489.7 26.8 
" style="fill:none;stroke:#000000;stroke-linecap:square;stroke-linejoin:miter;stroke-width:0.8;"/>
   </g>
   <g id="text_13">
    <!-- Source-refferred noise -->
    <defs>
     <path d="M 53.515625 70.515625 
L 53.515625 60.890625 
Q 47.90625 63.578125 42.921875 64.890625 
Q 37.9375 66.21875 33.296875 66.21875 
Q 25.25 66.21875 20.875 63.09375 
Q 16.5 59.96875 16.5 54.203125 
Q 16.5 49.359375 19.40625 46.890625 
Q 22.3125 44.4375 30.421875 42.921875 
L 36.375 41.703125 
Q 47.40625 39.59375 52.65625 34.296875 
Q 57.90625 29 57.90625 20.125 
Q 57.90625 9.515625 50.796875 4.046875 
Q 43.703125 -1.421875 29.984375 -1.421875 
Q 24.8125 -1.421875 18.96875 -0.25 
Q 13.140625 0.921875 6.890625 3.21875 
L 6.890625 13.375 
Q 12.890625 10.015625 18.65625 8.296875 
Q 24.421875 6.59375 29.984375 6.59375 
Q 38.421875 6.59375 43.015625 9.90625 
Q 47.609375 13.234375 47.609375 19.390625 
Q 47.609375 24.75 44.3125 27.78125 
Q 41.015625 30.8125 33.5 32.328125 
L 27.484375 33.5 
Q 16.453125 35.6875 11.515625 40.375 
Q 6.59375 45.0625 6.59375 53.421875 
Q 6.59375 63.09375 13.40625 68.65625 
Q 20.21875 74.21875 32.171875 74.21875 
Q 37.3125 74.21875 42.625 73.28125 
Q 47.953125 72.359375 53.515625 70.515625 
z
" id="DejaVuSans-53"/>
     <path d="M 30.609375 48.390625 
Q 23.390625 48.390625 19.1875 42.75 
Q 14.984375 37.109375 14.984375 27.296875 
Q 14.984375 17.484375 19.15625 11.84375 
Q 23.34375 6.203125 30.609375 6.203125 
Q 37.796875 6.203125 41.984375 11.859375 
Q 46.1875 17.53125 46.1875 27.296875 
Q 46.1875 37.015625 41.984375 42.703125 
Q 37.796875 48.390625 30.609375 48.390625 
z
M 30.609375 56 
Q 42.328125 56 49.015625 48.375 
Q 55.71875 40.765625 55.71875 27.296875 
Q 55.71875 13.875 49.015625 6.21875 
Q 42.328125 -1.421875 30.609375 -1.421875 
Q 18.84375 -1.421875 12.171875 6.21875 
Q 5.515625 13.875 5.515625 27.296875 
Q 5.515625 40.765625 12.171875 48.375 
Q 18.84375 56 30.609375 56 
z
" id="DejaVuSans-6f"/>
     <path d="M 4.890625 31.390625 
L 31.203125 31.390625 
L 31.203125 23.390625 
L 4.890625 23.390625 
z
" id="DejaVuSans-2d"/>
    </defs>
    <g transform="translate(212.263574 20.8)scale(0.12 -0.12)">
     <use xlink:href="#DejaVuSans-53"/>
     <use x="63.476562" xlink:href="#DejaVuSans-6f"/>
     <use x="124.658203" xlink:href="#DejaVuSans-75"/>
     <use x="188.037109" xlink:href="#DejaVuSans-72"/>
     <use x="229.119141" xlink:href="#DejaVuSans-63"/>
     <use x="284.099609" xlink:href="#DejaVuSans-65"/>
     <use x="345.623047" xlink:href="#DejaVuSans-2d"/>
     <use x="381.707031" xlink:href="#DejaVuSans-72"/>
     <use x="422.789062" xlink:href="#DejaVuSans-65"/>
     <use x="484.3125" xlink:href="#DejaVuSans-66"/>
     <use x="519.517578" xlink:href="#DejaVuSans-66"/>
     <use x="554.722656" xlink:href="#DejaVuSans-65"/>
     <use x="616.246094" xlink:href="#DejaVuSans-72"/>
     <use x="657.34375" xlink:href="#DejaVuSans-72"/>
     <use x="698.425781" xlink:href="#DejaVuSans-65"/>
     <use x="759.949219" xlink:href="#DejaVuSans-64"/>
     <use x="823.425781" xlink:href="#DejaVuSans-20"/>
     <use x="855.212891" xlink:href="#DejaVuSans-6e"/>
     <use x="918.591797" xlink:href="#DejaVuSans-6f"/>
     <use x="979.773438" xlink:href="#DejaVuSans-69"/>
     <use x="1007.556641" xlink:href="#DejaVuSans-73"/>
     <use x="1059.65625" xlink:href="#DejaVuSans-65"/>
    </g>
   </g>
   <g id="legend_1">
    <g id="patch_7">
     <path d="M 313.545 95.5375 
L 482.7 95.5375 
Q 484.7 95.5375 484.7 93.5375 
L 484.7 33.8 
Q 484.7 31.8 482.7 31.8 
L 313.545 31.8 
Q 311.545 31.8 311.545 33.8 
L 311.545 93.5375 
Q 311.545 95.5375 313.545 95.5375 
z
" style="fill:#ffffff;opacity:0.8;stroke:#cccccc;stroke-linejoin:miter;"/>
    </g>
    <g id="line2d_188">
     <path d="M 313.545 39.418125 
L 323.545 39.418125 
" style="fill:none;stroke:#ff0000;stroke-linecap:square;stroke-width:2;"/>
    </g>
    <g id="line2d_189"/>
    <g id="text_14">
     <!-- inoise: I1, R_p =  2.0e+02 -->
     <defs>
      <path d="M 11.71875 12.40625 
L 22.015625 12.40625 
L 22.015625 0 
L 11.71875 0 
z
M 11.71875 51.703125 
L 22.015625 51.703125 
L 22.015625 39.3125 
L 11.71875 39.3125 
z
" id="DejaVuSans-3a"/>
      <path d="M 9.8125 72.90625 
L 19.671875 72.90625 
L 19.671875 0 
L 9.8125 0 
z
" id="DejaVuSans-49"/>
      <path d="M 11.71875 12.40625 
L 22.015625 12.40625 
L 22.015625 4 
L 14.015625 -11.625 
L 7.71875 -11.625 
L 11.71875 4 
z
" id="DejaVuSans-2c"/>
      <path d="M 44.390625 34.1875 
Q 47.5625 33.109375 50.5625 29.59375 
Q 53.5625 26.078125 56.59375 19.921875 
L 66.609375 0 
L 56 0 
L 46.6875 18.703125 
Q 43.0625 26.03125 39.671875 28.421875 
Q 36.28125 30.8125 30.421875 30.8125 
L 19.671875 30.8125 
L 19.671875 0 
L 9.8125 0 
L 9.8125 72.90625 
L 32.078125 72.90625 
Q 44.578125 72.90625 50.734375 67.671875 
Q 56.890625 62.453125 56.890625 51.90625 
Q 56.890625 45.015625 53.6875 40.46875 
Q 50.484375 35.9375 44.390625 34.1875 
z
M 19.671875 64.796875 
L 19.671875 38.921875 
L 32.078125 38.921875 
Q 39.203125 38.921875 42.84375 42.21875 
Q 46.484375 45.515625 46.484375 51.90625 
Q 46.484375 58.296875 42.84375 61.546875 
Q 39.203125 64.796875 32.078125 64.796875 
z
" id="DejaVuSans-52"/>
      <path d="M 50.984375 -16.609375 
L 50.984375 -23.578125 
L -0.984375 -23.578125 
L -0.984375 -16.609375 
z
" id="DejaVuSans-5f"/>
      <path d="M 10.59375 45.40625 
L 73.1875 45.40625 
L 73.1875 37.203125 
L 10.59375 37.203125 
z
M 10.59375 25.484375 
L 73.1875 25.484375 
L 73.1875 17.1875 
L 10.59375 17.1875 
z
" id="DejaVuSans-3d"/>
      <path d="M 10.6875 12.40625 
L 21 12.40625 
L 21 0 
L 10.6875 0 
z
" id="DejaVuSans-2e"/>
      <path d="M 46 62.703125 
L 46 35.5 
L 73.1875 35.5 
L 73.1875 27.203125 
L 46 27.203125 
L 46 0 
L 37.796875 0 
L 37.796875 27.203125 
L 10.59375 27.203125 
L 10.59375 35.5 
L 37.796875 35.5 
L 37.796875 62.703125 
z
" id="DejaVuSans-2b"/>
     </defs>
     <g transform="translate(325.545 42.918125)scale(0.12 -0.12)">
      <use xlink:href="#DejaVuSans-69"/>
      <use x="27.783203" xlink:href="#DejaVuSans-6e"/>
      <use x="91.162109" xlink:href="#DejaVuSans-6f"/>
      <use x="152.34375" xlink:href="#DejaVuSans-69"/>
      <use x="180.126953" xlink:href="#DejaVuSans-73"/>
      <use x="232.226562" xlink:href="#DejaVuSans-65"/>
      <use x="293.75" xlink:href="#DejaVuSans-3a"/>
      <use x="327.441406" xlink:href="#DejaVuSans-20"/>
      <use x="359.228516" xlink:href="#DejaVuSans-49"/>
      <use x="388.720703" xlink:href="#DejaVuSans-31"/>
      <use x="452.34375" xlink:href="#DejaVuSans-2c"/>
      <use x="484.130859" xlink:href="#DejaVuSans-20"/>
      <use x="515.917969" xlink:href="#DejaVuSans-52"/>
      <use x="585.400391" xlink:href="#DejaVuSans-5f"/>
      <use x="635.400391" xlink:href="#DejaVuSans-70"/>
      <use x="698.876953" xlink:href="#DejaVuSans-20"/>
      <use x="730.664062" xlink:href="#DejaVuSans-3d"/>
      <use x="814.453125" xlink:href="#DejaVuSans-20"/>
      <use x="846.240234" xlink:href="#DejaVuSans-20"/>
      <use x="878.027344" xlink:href="#DejaVuSans-32"/>
      <use x="941.650391" xlink:href="#DejaVuSans-2e"/>
      <use x="973.4375" xlink:href="#DejaVuSans-30"/>
      <use x="1037.060547" xlink:href="#DejaVuSans-65"/>
      <use x="1098.583984" xlink:href="#DejaVuSans-2b"/>
      <use x="1182.373047" xlink:href="#DejaVuSans-30"/>
      <use x="1245.996094" xlink:href="#DejaVuSans-32"/>
     </g>
    </g>
    <g id="line2d_190">
     <path d="M 313.545 51.365625 
L 323.545 51.365625 
" style="fill:none;stroke:#0000ff;stroke-linecap:square;stroke-width:2;"/>
    </g>
    <g id="line2d_191"/>
    <g id="text_15">
     <!-- inoise: I1, R_p =  4.0e+02 -->
     <g transform="translate(325.545 54.865625)scale(0.12 -0.12)">
      <use xlink:href="#DejaVuSans-69"/>
      <use x="27.783203" xlink:href="#DejaVuSans-6e"/>
      <use x="91.162109" xlink:href="#DejaVuSans-6f"/>
      <use x="152.34375" xlink:href="#DejaVuSans-69"/>
      <use x="180.126953" xlink:href="#DejaVuSans-73"/>
      <use x="232.226562" xlink:href="#DejaVuSans-65"/>
      <use x="293.75" xlink:href="#DejaVuSans-3a"/>
      <use x="327.441406" xlink:href="#DejaVuSans-20"/>
      <use x="359.228516" xlink:href="#DejaVuSans-49"/>
      <use x="388.720703" xlink:href="#DejaVuSans-31"/>
      <use x="452.34375" xlink:href="#DejaVuSans-2c"/>
      <use x="484.130859" xlink:href="#DejaVuSans-20"/>
      <use x="515.917969" xlink:href="#DejaVuSans-52"/>
      <use x="585.400391" xlink:href="#DejaVuSans-5f"/>
      <use x="635.400391" xlink:href="#DejaVuSans-70"/>
      <use x="698.876953" xlink:href="#DejaVuSans-20"/>
      <use x="730.664062" xlink:href="#DejaVuSans-3d"/>
      <use x="814.453125" xlink:href="#DejaVuSans-20"/>
      <use x="846.240234" xlink:href="#DejaVuSans-20"/>
      <use x="878.027344" xlink:href="#DejaVuSans-34"/>
      <use x="941.650391" xlink:href="#DejaVuSans-2e"/>
      <use x="973.4375" xlink:href="#DejaVuSans-30"/>
      <use x="1037.060547" xlink:href="#DejaVuSans-65"/>
      <use x="1098.583984" xlink:href="#DejaVuSans-2b"/>
      <use x="1182.373047" xlink:href="#DejaVuSans-30"/>
      <use x="1245.996094" xlink:href="#DejaVuSans-32"/>
     </g>
    </g>
    <g id="line2d_192">
     <path d="M 313.545 63.313125 
L 323.545 63.313125 
" style="fill:none;stroke:#008000;stroke-linecap:square;stroke-width:2;"/>
    </g>
    <g id="line2d_193"/>
    <g id="text_16">
     <!-- inoise: I1, R_p =  6.0e+02 -->
     <g transform="translate(325.545 66.813125)scale(0.12 -0.12)">
      <use xlink:href="#DejaVuSans-69"/>
      <use x="27.783203" xlink:href="#DejaVuSans-6e"/>
      <use x="91.162109" xlink:href="#DejaVuSans-6f"/>
      <use x="152.34375" xlink:href="#DejaVuSans-69"/>
      <use x="180.126953" xlink:href="#DejaVuSans-73"/>
      <use x="232.226562" xlink:href="#DejaVuSans-65"/>
      <use x="293.75" xlink:href="#DejaVuSans-3a"/>
      <use x="327.441406" xlink:href="#DejaVuSans-20"/>
      <use x="359.228516" xlink:href="#DejaVuSans-49"/>
      <use x="388.720703" xlink:href="#DejaVuSans-31"/>
      <use x="452.34375" xlink:href="#DejaVuSans-2c"/>
      <use x="484.130859" xlink:href="#DejaVuSans-20"/>
      <use x="515.917969" xlink:href="#DejaVuSans-52"/>
      <use x="585.400391" xlink:href="#DejaVuSans-5f"/>
      <use x="635.400391" xlink:href="#DejaVuSans-70"/>
      <use x="698.876953" xlink:href="#DejaVuSans-20"/>
      <use x="730.664062" xlink:href="#DejaVuSans-3d"/>
      <use x="814.453125" xlink:href="#DejaVuSans-20"/>
      <use x="846.240234" xlink:href="#DejaVuSans-20"/>
      <use x="878.027344" xlink:href="#DejaVuSans-36"/>
      <use x="941.650391" xlink:href="#DejaVuSans-2e"/>
      <use x="973.4375" xlink:href="#DejaVuSans-30"/>
      <use x="1037.060547" xlink:href="#DejaVuSans-65"/>
      <use x="1098.583984" xlink:href="#DejaVuSans-2b"/>
      <use x="1182.373047" xlink:href="#DejaVuSans-30"/>
      <use x="1245.996094" xlink:href="#DejaVuSans-32"/>
     </g>
    </g>
    <g id="line2d_194">
     <path d="M 313.545 75.260625 
L 323.545 75.260625 
" style="fill:none;stroke:#00bfbf;stroke-linecap:square;stroke-width:2;"/>
    </g>
    <g id="line2d_195"/>
    <g id="text_17">
     <!-- inoise: I1, R_p =  8.0e+02 -->
     <defs>
      <path d="M 31.78125 34.625 
Q 24.75 34.625 20.71875 30.859375 
Q 16.703125 27.09375 16.703125 20.515625 
Q 16.703125 13.921875 20.71875 10.15625 
Q 24.75 6.390625 31.78125 6.390625 
Q 38.8125 6.390625 42.859375 10.171875 
Q 46.921875 13.96875 46.921875 20.515625 
Q 46.921875 27.09375 42.890625 30.859375 
Q 38.875 34.625 31.78125 34.625 
z
M 21.921875 38.8125 
Q 15.578125 40.375 12.03125 44.71875 
Q 8.5 49.078125 8.5 55.328125 
Q 8.5 64.0625 14.71875 69.140625 
Q 20.953125 74.21875 31.78125 74.21875 
Q 42.671875 74.21875 48.875 69.140625 
Q 55.078125 64.0625 55.078125 55.328125 
Q 55.078125 49.078125 51.53125 44.71875 
Q 48 40.375 41.703125 38.8125 
Q 48.828125 37.15625 52.796875 32.3125 
Q 56.78125 27.484375 56.78125 20.515625 
Q 56.78125 9.90625 50.3125 4.234375 
Q 43.84375 -1.421875 31.78125 -1.421875 
Q 19.734375 -1.421875 13.25 4.234375 
Q 6.78125 9.90625 6.78125 20.515625 
Q 6.78125 27.484375 10.78125 32.3125 
Q 14.796875 37.15625 21.921875 38.8125 
z
M 18.3125 54.390625 
Q 18.3125 48.734375 21.84375 45.5625 
Q 25.390625 42.390625 31.78125 42.390625 
Q 38.140625 42.390625 41.71875 45.5625 
Q 45.3125 48.734375 45.3125 54.390625 
Q 45.3125 60.0625 41.71875 63.234375 
Q 38.140625 66.40625 31.78125 66.40625 
Q 25.390625 66.40625 21.84375 63.234375 
Q 18.3125 60.0625 18.3125 54.390625 
z
" id="DejaVuSans-38"/>
     </defs>
     <g transform="translate(325.545 78.760625)scale(0.12 -0.12)">
      <use xlink:href="#DejaVuSans-69"/>
      <use x="27.783203" xlink:href="#DejaVuSans-6e"/>
      <use x="91.162109" xlink:href="#DejaVuSans-6f"/>
      <use x="152.34375" xlink:href="#DejaVuSans-69"/>
      <use x="180.126953" xlink:href="#DejaVuSans-73"/>
      <use x="232.226562" xlink:href="#DejaVuSans-65"/>
      <use x="293.75" xlink:href="#DejaVuSans-3a"/>
      <use x="327.441406" xlink:href="#DejaVuSans-20"/>
      <use x="359.228516" xlink:href="#DejaVuSans-49"/>
      <use x="388.720703" xlink:href="#DejaVuSans-31"/>
      <use x="452.34375" xlink:href="#DejaVuSans-2c"/>
      <use x="484.130859" xlink:href="#DejaVuSans-20"/>
      <use x="515.917969" xlink:href="#DejaVuSans-52"/>
      <use x="585.400391" xlink:href="#DejaVuSans-5f"/>
      <use x="635.400391" xlink:href="#DejaVuSans-70"/>
      <use x="698.876953" xlink:href="#DejaVuSans-20"/>
      <use x="730.664062" xlink:href="#DejaVuSans-3d"/>
      <use x="814.453125" xlink:href="#DejaVuSans-20"/>
      <use x="846.240234" xlink:href="#DejaVuSans-20"/>
      <use x="878.027344" xlink:href="#DejaVuSans-38"/>
      <use x="941.650391" xlink:href="#DejaVuSans-2e"/>
      <use x="973.4375" xlink:href="#DejaVuSans-30"/>
      <use x="1037.060547" xlink:href="#DejaVuSans-65"/>
      <use x="1098.583984" xlink:href="#DejaVuSans-2b"/>
      <use x="1182.373047" xlink:href="#DejaVuSans-30"/>
      <use x="1245.996094" xlink:href="#DejaVuSans-32"/>
     </g>
    </g>
    <g id="line2d_196">
     <path d="M 313.545 87.208125 
L 323.545 87.208125 
" style="fill:none;stroke:#bf00bf;stroke-linecap:square;stroke-width:2;"/>
    </g>
    <g id="line2d_197"/>
    <g id="text_18">
     <!-- inoise: I1, R_p =  1.0e+03 -->
     <g transform="translate(325.545 90.708125)scale(0.12 -0.12)">
      <use xlink:href="#DejaVuSans-69"/>
      <use x="27.783203" xlink:href="#DejaVuSans-6e"/>
      <use x="91.162109" xlink:href="#DejaVuSans-6f"/>
      <use x="152.34375" xlink:href="#DejaVuSans-69"/>
      <use x="180.126953" xlink:href="#DejaVuSans-73"/>
      <use x="232.226562" xlink:href="#DejaVuSans-65"/>
      <use x="293.75" xlink:href="#DejaVuSans-3a"/>
      <use x="327.441406" xlink:href="#DejaVuSans-20"/>
      <use x="359.228516" xlink:href="#DejaVuSans-49"/>
      <use x="388.720703" xlink:href="#DejaVuSans-31"/>
      <use x="452.34375" xlink:href="#DejaVuSans-2c"/>
      <use x="484.130859" xlink:href="#DejaVuSans-20"/>
      <use x="515.917969" xlink:href="#DejaVuSans-52"/>
      <use x="585.400391" xlink:href="#DejaVuSans-5f"/>
      <use x="635.400391" xlink:href="#DejaVuSans-70"/>
      <use x="698.876953" xlink:href="#DejaVuSans-20"/>
      <use x="730.664062" xlink:href="#DejaVuSans-3d"/>
      <use x="814.453125" xlink:href="#DejaVuSans-20"/>
      <use x="846.240234" xlink:href="#DejaVuSans-20"/>
      <use x="878.027344" xlink:href="#DejaVuSans-31"/>
      <use x="941.650391" xlink:href="#DejaVuSans-2e"/>
      <use x="973.4375" xlink:href="#DejaVuSans-30"/>
      <use x="1037.060547" xlink:href="#DejaVuSans-65"/>
      <use x="1098.583984" xlink:href="#DejaVuSans-2b"/>
      <use x="1182.373047" xlink:href="#DejaVuSans-30"/>
      <use x="1245.996094" xlink:href="#DejaVuSans-33"/>
     </g>
    </g>
   </g>
  </g>
 </g>
 <defs>
  <clipPath id="p4059854b4e">
   <rect height="281.8" width="420.328477" x="69.371523" y="26.8"/>
  </clipPath>
 </defs>
</svg>
