<?xml version="1.0" encoding="UTF-8" standalone="no"?>
<!-- Created with Inkscape (http://www.inkscape.org/) -->

<svg
   xmlns:ns0="http://www.iki.fi/pav/software/textext/"
   xmlns:dc="http://purl.org/dc/elements/1.1/"
   xmlns:cc="http://creativecommons.org/ns#"
   xmlns:rdf="http://www.w3.org/1999/02/22-rdf-syntax-ns#"
   xmlns:svg="http://www.w3.org/2000/svg"
   xmlns="http://www.w3.org/2000/svg"
   xmlns:xlink="http://www.w3.org/1999/xlink"
   xmlns:sodipodi="http://sodipodi.sourceforge.net/DTD/sodipodi-0.dtd"
   xmlns:inkscape="http://www.inkscape.org/namespaces/inkscape"
   width="425"
   height="175"
   id="svg2"
   version="1.1"
   inkscape:version="0.48.4 r9939"
   sodipodi:docname="BWexample.svg">
  <sodipodi:namedview
     id="base"
     pagecolor="#ffffff"
     bordercolor="#666666"
     borderopacity="1.0"
     inkscape:pageopacity="0.0"
     inkscape:pageshadow="2"
     inkscape:zoom="2.8"
     inkscape:cx="173.44024"
     inkscape:cy="142.57911"
     inkscape:document-units="px"
     inkscape:current-layer="layer1"
     showgrid="true"
     inkscape:object-paths="true"
     inkscape:object-nodes="true"
     inkscape:window-width="1918"
     inkscape:window-height="1028"
     inkscape:window-x="0"
     inkscape:window-y="0"
     inkscape:window-maximized="0"
     fit-margin-top="0"
     fit-margin-left="0"
     fit-margin-right="0"
     fit-margin-bottom="0">
    <inkscape:grid
       originy="-325px"
       originx="-55px"
       snapvisiblegridlinesonly="true"
       enabled="true"
       visible="true"
       empspacing="5"
       type="xygrid"
       id="grid2985" />
  </sodipodi:namedview>
  <defs
     id="defs4">
    <marker
       inkscape:stockid="Arrow2Mend"
       orient="auto"
       refY="0"
       refX="0"
       id="Arrow2Mend"
       style="overflow:visible">
      <path
         inkscape:connector-curvature="0"
         id="path3864"
         style="fill-rule:evenodd;stroke-width:0.625;stroke-linejoin:round"
         d="M 8.7185878,4.0337352 -2.2072895,0.01601326 8.7185884,-4.0017078 c -1.7454984,2.3720609 -1.7354408,5.6174519 -6e-7,8.035443 z"
         transform="scale(-0.6,-0.6)" />
    </marker>
    <marker
       inkscape:stockid="Arrow2Mend"
       orient="auto"
       refY="0"
       refX="0"
       id="Arrow2Mend-2"
       style="overflow:visible">
      <path
         inkscape:connector-curvature="0"
         id="path3864-3"
         style="fill-rule:evenodd;stroke-width:0.625;stroke-linejoin:round"
         d="M 8.7185878,4.0337352 -2.2072895,0.01601326 8.7185884,-4.0017078 c -1.7454984,2.3720609 -1.7354408,5.6174519 -6e-7,8.035443 z"
         transform="scale(-0.6,-0.6)" />
    </marker>
    <marker
       inkscape:stockid="Arrow2Mend"
       orient="auto"
       refY="0"
       refX="0"
       id="Arrow2Mend-2-3"
       style="overflow:visible">
      <path
         inkscape:connector-curvature="0"
         id="path3864-3-3"
         style="fill-rule:evenodd;stroke-width:0.625;stroke-linejoin:round"
         d="M 8.7185878,4.0337352 -2.2072895,0.01601326 8.7185884,-4.0017078 c -1.7454984,2.3720609 -1.7354408,5.6174519 -6e-7,8.035443 z"
         transform="scale(-0.6,-0.6)" />
    </marker>
  </defs>
  <metadata
     id="metadata7">
    <rdf:RDF>
      <cc:Work
         rdf:about="">
        <dc:format>image/svg+xml</dc:format>
        <dc:type
           rdf:resource="http://purl.org/dc/dcmitype/StillImage" />
        <dc:title />
      </cc:Work>
    </rdf:RDF>
  </metadata>
  <g
     transform="translate(-55,-552.36218)"
     inkscape:label="Layer 1"
     inkscape:groupmode="layer"
     id="layer1">
    <path
       style="fill:none;stroke:#000000;stroke-width:1px;stroke-linecap:butt;stroke-linejoin:miter;stroke-opacity:1"
       d="m 100,712.36218 60,-60"
       id="path2987"
       inkscape:connector-curvature="0" />
    <path
       style="fill:none;stroke:#000000;stroke-width:1;stroke-linecap:butt;stroke-linejoin:miter;stroke-miterlimit:4;stroke-opacity:1;stroke-dasharray:none"
       d="m 95,632.36218 365,0"
       id="path2991"
       inkscape:connector-curvature="0" />
    <path
       style="fill:none;stroke:#000000;stroke-width:0.5;stroke-linecap:butt;stroke-linejoin:miter;stroke-miterlimit:4;stroke-opacity:1;stroke-dasharray:2, 2;stroke-dashoffset:0"
       d="m 160,627.36218 0,30"
       id="path2993"
       inkscape:connector-curvature="0" />
    <path
       style="fill:none;stroke:#000000;stroke-width:0.5;stroke-linecap:butt;stroke-linejoin:miter;stroke-miterlimit:4;stroke-opacity:1;stroke-dasharray:2, 2;stroke-dashoffset:0"
       d="m 200,627.36218 0,70"
       id="path2993-5"
       inkscape:connector-curvature="0" />
    <path
       style="fill:none;stroke:#000000;stroke-width:0.5;stroke-linecap:butt;stroke-linejoin:miter;stroke-miterlimit:4;stroke-opacity:1;stroke-dasharray:2, 2;stroke-dashoffset:0"
       d="m 220,627.36218 0,70"
       id="path2993-5-7"
       inkscape:connector-curvature="0" />
    <path
       style="fill:none;stroke:#000000;stroke-width:0.5;stroke-linecap:butt;stroke-linejoin:miter;stroke-miterlimit:4;stroke-opacity:1;stroke-dasharray:2, 2;stroke-dashoffset:0"
       d="m 300,607.36218 0,30"
       id="path2993-3"
       inkscape:connector-curvature="0" />
    <path
       style="fill:none;stroke:#000000;stroke-width:0.5;stroke-linecap:butt;stroke-linejoin:miter;stroke-miterlimit:4;stroke-opacity:1;stroke-dasharray:2, 2;stroke-dashoffset:0"
       d="m 350,607.36218 0,30"
       id="path2993-59"
       inkscape:connector-curvature="0" />
    <text
       xml:space="preserve"
       style="font-size:8px;font-style:normal;font-weight:normal;line-height:125%;letter-spacing:0px;word-spacing:0px;fill:#000000;fill-opacity:1;stroke:none;font-family:Sans"
       x="157"
       y="624.36218"
       id="text4301"
       sodipodi:linespacing="125%"><tspan
         sodipodi:role="line"
         id="tspan4303"
         x="157"
         y="624.36218">1</tspan></text>
    <text
       xml:space="preserve"
       style="font-size:8px;font-style:normal;font-weight:normal;line-height:125%;letter-spacing:0px;word-spacing:0px;fill:#000000;fill-opacity:1;stroke:none;font-family:Sans"
       x="195"
       y="624.36218"
       id="text4305"
       sodipodi:linespacing="125%"><tspan
         sodipodi:role="line"
         id="tspan4307"
         x="195"
         y="624.36218">20</tspan></text>
    <text
       xml:space="preserve"
       style="font-size:8px;font-style:normal;font-weight:normal;line-height:125%;letter-spacing:0px;word-spacing:0px;fill:#000000;fill-opacity:1;stroke:none;font-family:Sans"
       x="215"
       y="624.36218"
       id="text4309"
       sodipodi:linespacing="125%"><tspan
         sodipodi:role="line"
         id="tspan4311"
         x="215"
         y="624.36218">40</tspan></text>
    <text
       xml:space="preserve"
       style="font-size:8px;font-style:normal;font-weight:normal;line-height:125%;letter-spacing:0px;word-spacing:0px;fill:#000000;fill-opacity:1;stroke:none;font-family:Sans"
       x="267"
       y="624.36218"
       id="text4313"
       sodipodi:linespacing="125%"><tspan
         sodipodi:role="line"
         id="tspan4315"
         x="267"
         y="624.36218">1.6k</tspan></text>
    <text
       xml:space="preserve"
       style="font-size:8px;font-style:normal;font-weight:normal;line-height:125%;letter-spacing:0px;word-spacing:0px;fill:#000000;fill-opacity:1;stroke:none;font-family:Sans"
       x="364"
       y="624.36218"
       id="text4317"
       sodipodi:linespacing="125%"><tspan
         sodipodi:role="line"
         id="tspan4319"
         x="364"
         y="624.36218">125k</tspan></text>
    <text
       xml:space="preserve"
       style="font-size:8px;font-style:normal;font-weight:normal;line-height:125%;letter-spacing:0px;word-spacing:0px;fill:#000000;fill-opacity:1;stroke:none;font-family:Sans"
       x="344"
       y="644.36218"
       id="text4321"
       sodipodi:linespacing="125%"><tspan
         sodipodi:role="line"
         id="tspan4323"
         x="344"
         y="644.36218">50k</tspan></text>
    <text
       xml:space="preserve"
       style="font-size:8px;font-style:normal;font-weight:normal;line-height:125%;letter-spacing:0px;word-spacing:0px;fill:#000000;fill-opacity:1;stroke:none;font-family:Sans"
       x="295"
       y="644.36218"
       id="text4325"
       sodipodi:linespacing="125%"><tspan
         sodipodi:role="line"
         id="tspan4327"
         x="295"
         y="644.36218">4k</tspan></text>
    <path
       style="fill:none;stroke:#000000;stroke-width:0.5;stroke-linecap:butt;stroke-linejoin:miter;stroke-miterlimit:4;stroke-opacity:1;stroke-dasharray:3, 3;stroke-dashoffset:0"
       d="m 165,652.36218 -70,0"
       id="path4329"
       inkscape:connector-curvature="0" />
    <path
       style="fill:none;stroke:#000000;stroke-width:0.5;stroke-linecap:butt;stroke-linejoin:miter;stroke-miterlimit:4;stroke-opacity:1;stroke-dasharray:3, 3;stroke-dashoffset:0"
       d="m 200,692.36218 -105,0"
       id="path4329-1"
       inkscape:connector-curvature="0" />
    <path
       style="fill:none;stroke:#000000;stroke-width:0.5;stroke-linecap:butt;stroke-linejoin:miter;stroke-miterlimit:4;stroke-opacity:1;stroke-dasharray:3, 3;stroke-dashoffset:0"
       d="m 300,612.36218 -205,0"
       id="path4329-1-8"
       inkscape:connector-curvature="0" />
    <path
       style="fill:none;stroke:#000000;stroke-width:1;stroke-linecap:butt;stroke-linejoin:miter;stroke-miterlimit:4;stroke-opacity:1;stroke-dasharray:none"
       d="m 100,577.36218 0,140"
       id="path4367"
       inkscape:connector-curvature="0" />
    <text
       xml:space="preserve"
       style="font-size:8px;font-style:normal;font-weight:normal;line-height:125%;letter-spacing:0px;word-spacing:0px;fill:#000000;fill-opacity:1;stroke:none;font-family:Sans"
       x="89"
       y="635.36218"
       id="text4369"
       sodipodi:linespacing="125%"><tspan
         sodipodi:role="line"
         id="tspan4371"
         x="89"
         y="635.36218">1</tspan></text>
    <text
       xml:space="preserve"
       style="font-size:8px;font-style:normal;font-weight:normal;line-height:125%;letter-spacing:0px;word-spacing:0px;fill:#000000;fill-opacity:1;stroke:none;font-family:Sans"
       x="81"
       y="615.36218"
       id="text4373"
       sodipodi:linespacing="125%"><tspan
         sodipodi:role="line"
         id="tspan4375"
         x="81"
         y="615.36218">2.5</tspan></text>
    <text
       xml:space="preserve"
       style="font-size:8px;font-style:normal;font-weight:normal;line-height:125%;letter-spacing:0px;word-spacing:0px;fill:#000000;fill-opacity:1;stroke:none;font-family:Sans"
       x="81"
       y="655.36218"
       id="text4377"
       sodipodi:linespacing="125%"><tspan
         sodipodi:role="line"
         id="tspan4379"
         x="81"
         y="655.36218">0.5</tspan></text>
    <text
       xml:space="preserve"
       style="font-size:8px;font-style:normal;font-weight:normal;line-height:125%;letter-spacing:0px;word-spacing:0px;fill:#000000;fill-opacity:1;stroke:none;font-family:Sans"
       x="71"
       y="695.36218"
       id="text4381"
       sodipodi:linespacing="125%"><tspan
         sodipodi:role="line"
         id="tspan4383"
         x="71"
         y="695.36218">0.025</tspan></text>
    <rect
       width="425"
       height="175"
       x="55"
       y="552.36218"
       id="rect6470-9-4-1"
       style="fill:#0064ff;fill-opacity:0.0745098;stroke:none" />
    <path
       style="fill:none;stroke:#000000;stroke-width:1;stroke-linecap:butt;stroke-linejoin:miter;stroke-miterlimit:4;stroke-opacity:1;stroke-dasharray:none;marker-end:url(#Arrow2Mend-2)"
       d="m 440,637.36218 20,0"
       id="path28655"
       inkscape:connector-curvature="0" />
    <g
       id="g29078"
       transform="translate(184.78125,515.26843)"
       ns0:preamble=""
       ns0:text="$\\log{\\omega}$ [rad/s]">
      <defs
         id="defs29080">
        <g
           id="g29082">
          <symbol
             id="textext-b71dfd20-0"
             overflow="visible"
             style="overflow:visible">
            <path
               id="path29085"
               d=""
               style="stroke:none"
               inkscape:connector-curvature="0" />
          </symbol>
          <symbol
             id="textext-b71dfd20-1"
             overflow="visible"
             style="overflow:visible">
            <path
               id="path29088"
               d="m 1.765625,-6.921875 -1.4375,0.109375 0,0.3125 c 0.703125,0 0.78125,0.0625 0.78125,0.5625 l 0,5.1875 c 0,0.4375 -0.109375,0.4375 -0.78125,0.4375 l 0,0.3125 C 0.65625,-0.015625 1.1875,-0.03125 1.4375,-0.03125 c 0.25,0 0.734375,0.015625 1.109375,0.03125 l 0,-0.3125 c -0.671875,0 -0.78125,0 -0.78125,-0.4375 z m 0,0"
               style="stroke:none"
               inkscape:connector-curvature="0" />
          </symbol>
          <symbol
             id="textext-b71dfd20-2"
             overflow="visible"
             style="overflow:visible">
            <path
               id="path29091"
               d="M 4.6875,-2.140625 C 4.6875,-3.40625 3.703125,-4.46875 2.5,-4.46875 c -1.25,0 -2.21875,1.09375 -2.21875,2.328125 0,1.296875 1.03125,2.25 2.203125,2.25 1.203125,0 2.203125,-0.984375 2.203125,-2.25 z m -2.1875,2 c -0.4375,0 -0.875,-0.203125 -1.140625,-0.671875 -0.25,-0.4375 -0.25,-1.046875 -0.25,-1.40625 0,-0.390625 0,-0.921875 0.234375,-1.359375 C 1.609375,-4.03125 2.078125,-4.25 2.484375,-4.25 c 0.4375,0 0.859375,0.21875 1.125,0.65625 0.265625,0.421875 0.265625,1 0.265625,1.375 0,0.359375 0,0.90625 -0.21875,1.34375 C 3.421875,-0.421875 2.984375,-0.140625 2.5,-0.140625 z m 0,0"
               style="stroke:none"
               inkscape:connector-curvature="0" />
          </symbol>
          <symbol
             id="textext-b71dfd20-3"
             overflow="visible"
             style="overflow:visible">
            <path
               id="path29094"
               d="m 2.21875,-1.71875 c -0.875,0 -0.875,-1 -0.875,-1.21875 0,-0.265625 0.015625,-0.59375 0.15625,-0.84375 0.078125,-0.109375 0.3125,-0.390625 0.71875,-0.390625 0.859375,0 0.859375,0.984375 0.859375,1.21875 0,0.265625 0,0.59375 -0.15625,0.84375 C 2.84375,-2 2.609375,-1.71875 2.21875,-1.71875 z M 1.0625,-1.328125 c 0,-0.03125 0,-0.265625 0.15625,-0.46875 0.390625,0.28125 0.8125,0.3125 1,0.3125 0.921875,0 1.609375,-0.6875 1.609375,-1.453125 0,-0.375 -0.15625,-0.734375 -0.40625,-0.96875 C 3.78125,-4.25 4.140625,-4.296875 4.3125,-4.296875 c 0.03125,0 0.078125,0 0.109375,0.015625 C 4.3125,-4.25 4.25,-4.140625 4.25,-4.015625 c 0,0.171875 0.140625,0.28125 0.296875,0.28125 0.09375,0 0.28125,-0.0625 0.28125,-0.296875 0,-0.171875 -0.109375,-0.484375 -0.5,-0.484375 -0.203125,0 -0.640625,0.0625 -1.0625,0.46875 C 2.84375,-4.375 2.4375,-4.40625 2.21875,-4.40625 c -0.9375,0 -1.625,0.6875 -1.625,1.453125 0,0.4375 0.21875,0.8125 0.46875,1.03125 -0.125,0.140625 -0.3125,0.46875 -0.3125,0.828125 0,0.3125 0.140625,0.6875 0.453125,0.890625 -0.609375,0.15625 -0.921875,0.59375 -0.921875,0.984375 0,0.71875 0.984375,1.265625 2.203125,1.265625 1.171875,0 2.203125,-0.5 2.203125,-1.28125 0,-0.34375 -0.125,-0.859375 -0.640625,-1.140625 -0.53125,-0.265625 -1.109375,-0.265625 -1.71875,-0.265625 -0.25,0 -0.671875,0 -0.75,-0.015625 C 1.265625,-0.703125 1.0625,-1 1.0625,-1.328125 z M 2.5,1.828125 c -1.015625,0 -1.703125,-0.515625 -1.703125,-1.046875 0,-0.453125 0.375,-0.828125 0.8125,-0.84375 l 0.59375,0 c 0.859375,0 1.96875,0 1.96875,0.84375 0,0.546875 -0.703125,1.046875 -1.671875,1.046875 z m 0,0"
               style="stroke:none"
               inkscape:connector-curvature="0" />
          </symbol>
          <symbol
             id="textext-b71dfd20-4"
             overflow="visible"
             style="overflow:visible">
            <path
               id="path29097"
               d="m 2.546875,2.5 0,-0.40625 -0.96875,0 0,-9.171875 0.96875,0 0,-0.40625 -1.375,0 0,9.984375 z m 0,0"
               style="stroke:none"
               inkscape:connector-curvature="0" />
          </symbol>
          <symbol
             id="textext-b71dfd20-5"
             overflow="visible"
             style="overflow:visible">
            <path
               id="path29100"
               d="m 1.671875,-3.3125 0,-1.09375 -1.390625,0.109375 0,0.3125 c 0.703125,0 0.78125,0.0625 0.78125,0.5625 l 0,2.671875 c 0,0.4375 -0.109375,0.4375 -0.78125,0.4375 l 0,0.3125 c 0.390625,-0.015625 0.859375,-0.03125 1.140625,-0.03125 0.390625,0 0.859375,0 1.265625,0.03125 l 0,-0.3125 -0.21875,0 c -0.734375,0 -0.75,-0.109375 -0.75,-0.46875 l 0,-1.53125 c 0,-0.984375 0.421875,-1.875 1.171875,-1.875 0.0625,0 0.09375,0 0.109375,0.015625 -0.03125,0 -0.234375,0.125 -0.234375,0.390625 0,0.265625 0.21875,0.421875 0.4375,0.421875 0.171875,0 0.421875,-0.125 0.421875,-0.4375 0,-0.3125 -0.3125,-0.609375 -0.734375,-0.609375 -0.734375,0 -1.09375,0.671875 -1.21875,1.09375 z m 0,0"
               style="stroke:none"
               inkscape:connector-curvature="0" />
          </symbol>
          <symbol
             id="textext-b71dfd20-6"
             overflow="visible"
             style="overflow:visible">
            <path
               id="path29103"
               d="m 3.3125,-0.75 c 0.046875,0.390625 0.3125,0.8125 0.78125,0.8125 0.21875,0 0.828125,-0.140625 0.828125,-0.953125 l 0,-0.5625 -0.25,0 0,0.5625 c 0,0.578125 -0.25,0.640625 -0.359375,0.640625 -0.328125,0 -0.375,-0.453125 -0.375,-0.5 l 0,-1.984375 c 0,-0.421875 0,-0.8125 -0.359375,-1.1875 C 3.1875,-4.3125 2.6875,-4.46875 2.21875,-4.46875 c -0.828125,0 -1.515625,0.46875 -1.515625,1.125 0,0.296875 0.203125,0.46875 0.46875,0.46875 0.28125,0 0.453125,-0.203125 0.453125,-0.453125 0,-0.125 -0.046875,-0.453125 -0.515625,-0.453125 C 1.390625,-4.140625 1.875,-4.25 2.1875,-4.25 c 0.5,0 1.0625,0.390625 1.0625,1.28125 l 0,0.359375 c -0.515625,0.03125 -1.203125,0.0625 -1.828125,0.359375 -0.75,0.34375 -1,0.859375 -1,1.296875 0,0.8125 0.96875,1.0625 1.59375,1.0625 0.65625,0 1.109375,-0.40625 1.296875,-0.859375 z M 3.25,-2.390625 l 0,1 c 0,0.9375 -0.71875,1.28125 -1.171875,1.28125 -0.484375,0 -0.890625,-0.34375 -0.890625,-0.84375 0,-0.546875 0.421875,-1.375 2.0625,-1.4375 z m 0,0"
               style="stroke:none"
               inkscape:connector-curvature="0" />
          </symbol>
          <symbol
             id="textext-b71dfd20-7"
             overflow="visible"
             style="overflow:visible">
            <path
               id="path29106"
               d="m 3.78125,-0.546875 0,0.65625 L 5.25,0 l 0,-0.3125 c -0.6875,0 -0.78125,-0.0625 -0.78125,-0.5625 l 0,-6.046875 -1.421875,0.109375 0,0.3125 c 0.6875,0 0.765625,0.0625 0.765625,0.5625 l 0,2.15625 c -0.28125,-0.359375 -0.71875,-0.625 -1.25,-0.625 -1.171875,0 -2.21875,0.984375 -2.21875,2.265625 0,1.265625 0.96875,2.25 2.109375,2.25 0.640625,0 1.078125,-0.34375 1.328125,-0.65625 z m 0,-2.671875 0,2.046875 c 0,0.171875 0,0.1875 -0.109375,0.359375 C 3.375,-0.328125 2.9375,-0.109375 2.5,-0.109375 2.046875,-0.109375 1.6875,-0.375 1.453125,-0.75 1.203125,-1.15625 1.171875,-1.71875 1.171875,-2.140625 1.171875,-2.5 1.1875,-3.09375 1.46875,-3.546875 1.6875,-3.859375 2.0625,-4.1875 2.609375,-4.1875 c 0.34375,0 0.765625,0.15625 1.0625,0.59375 0.109375,0.171875 0.109375,0.1875 0.109375,0.375 z m 0,0"
               style="stroke:none"
               inkscape:connector-curvature="0" />
          </symbol>
          <symbol
             id="textext-b71dfd20-8"
             overflow="visible"
             style="overflow:visible">
            <path
               id="path29109"
               d="m 4.359375,-7.09375 c 0.0625,-0.140625 0.0625,-0.15625 0.0625,-0.1875 0,-0.109375 -0.09375,-0.203125 -0.203125,-0.203125 C 4.078125,-7.484375 4.03125,-7.375 4,-7.28125 L 0.609375,2.109375 C 0.5625,2.25 0.5625,2.265625 0.5625,2.296875 0.5625,2.40625 0.640625,2.5 0.75,2.5 0.890625,2.5 0.9375,2.390625 0.96875,2.296875 z m 0,0"
               style="stroke:none"
               inkscape:connector-curvature="0" />
          </symbol>
          <symbol
             id="textext-b71dfd20-9"
             overflow="visible"
             style="overflow:visible">
            <path
               id="path29112"
               d="m 2.078125,-1.9375 c 0.21875,0.046875 1.03125,0.203125 1.03125,0.921875 0,0.5 -0.34375,0.90625 -1.125,0.90625 -0.84375,0 -1.203125,-0.5625 -1.390625,-1.421875 C 0.5625,-1.65625 0.5625,-1.6875 0.453125,-1.6875 c -0.125,0 -0.125,0.0625 -0.125,0.234375 l 0,1.328125 c 0,0.171875 0,0.234375 0.109375,0.234375 0.046875,0 0.0625,-0.015625 0.25,-0.203125 0.015625,-0.015625 0.015625,-0.03125 0.203125,-0.21875 0.4375,0.40625 0.890625,0.421875 1.09375,0.421875 1.140625,0 1.609375,-0.671875 1.609375,-1.390625 0,-0.515625 -0.296875,-0.828125 -0.421875,-0.9375 C 2.84375,-2.546875 2.453125,-2.625 2.03125,-2.703125 1.46875,-2.8125 0.8125,-2.9375 0.8125,-3.515625 c 0,-0.359375 0.25,-0.765625 1.109375,-0.765625 1.09375,0 1.15625,0.90625 1.171875,1.203125 0,0.09375 0.09375,0.09375 0.109375,0.09375 0.140625,0 0.140625,-0.046875 0.140625,-0.234375 l 0,-1.015625 c 0,-0.15625 0,-0.234375 -0.109375,-0.234375 -0.046875,0 -0.078125,0 -0.203125,0.125 -0.03125,0.03125 -0.125,0.125 -0.171875,0.15625 -0.375,-0.28125 -0.78125,-0.28125 -0.9375,-0.28125 -1.21875,0 -1.59375,0.671875 -1.59375,1.234375 0,0.34375 0.15625,0.625 0.421875,0.84375 0.328125,0.25 0.609375,0.3125 1.328125,0.453125 z m 0,0"
               style="stroke:none"
               inkscape:connector-curvature="0" />
          </symbol>
          <symbol
             id="textext-b71dfd20-10"
             overflow="visible"
             style="overflow:visible">
            <path
               id="path29115"
               d="m 1.578125,-7.484375 -1.359375,0 0,0.40625 0.96875,0 0,9.171875 -0.96875,0 0,0.40625 1.359375,0 z m 0,0"
               style="stroke:none"
               inkscape:connector-curvature="0" />
          </symbol>
          <symbol
             id="textext-b71dfd20-11"
             overflow="visible"
             style="overflow:visible">
            <path
               id="path29118"
               d=""
               style="stroke:none"
               inkscape:connector-curvature="0" />
          </symbol>
          <symbol
             id="textext-b71dfd20-12"
             overflow="visible"
             style="overflow:visible">
            <path
               id="path29121"
               d="m 6.03125,-3.703125 c 0,-0.453125 -0.171875,-0.703125 -0.40625,-0.703125 -0.25,0 -0.515625,0.234375 -0.515625,0.46875 0,0.09375 0.046875,0.203125 0.140625,0.296875 0.171875,0.15625 0.359375,0.421875 0.359375,0.84375 0,0.390625 -0.203125,0.96875 -0.5,1.421875 C 4.8125,-0.953125 4.4375,-0.609375 3.96875,-0.609375 3.40625,-0.609375 3.09375,-0.96875 3,-1.5 c 0.109375,-0.265625 0.34375,-0.90625 0.34375,-1.1875 0,-0.109375 -0.046875,-0.21875 -0.1875,-0.21875 -0.078125,0 -0.1875,0.03125 -0.265625,0.171875 C 2.78125,-2.53125 2.65625,-1.890625 2.65625,-1.53125 2.328125,-1.0625 1.9375,-0.609375 1.3125,-0.609375 c -0.671875,0 -0.875,-0.59375 -0.875,-1.140625 0,-1.25 1.015625,-2.296875 1.015625,-2.421875 0,-0.109375 -0.078125,-0.1875 -0.1875,-0.1875 -0.125,0 -0.203125,0.125 -0.265625,0.21875 -0.5,0.734375 -0.875,1.921875 -0.875,2.828125 0,0.6875 0.21875,1.421875 1.046875,1.421875 0.703125,0 1.171875,-0.5 1.53125,-1.046875 0.09375,0.578125 0.484375,1.046875 1.09375,1.046875 0.78125,0 1.25,-0.609375 1.609375,-1.359375 0.25,-0.484375 0.625,-1.84375 0.625,-2.453125 z m 0,0"
               style="stroke:none"
               inkscape:connector-curvature="0" />
          </symbol>
        </g>
      </defs>
      <g
         id="textext-b71dfd20-13">
        <g
           id="g29124"
           style="fill:#000000;fill-opacity:1">
          <use
             id="use29126"
             y="134.765"
             x="223.43201"
             xlink:href="#textext-b71dfd20-1"
             width="744.09448"
             height="1052.3622" />
          <use
             id="use29128"
             y="134.765"
             x="226.19962"
             xlink:href="#textext-b71dfd20-2"
             width="744.09448"
             height="1052.3622" />
          <use
             id="use29130"
             y="134.765"
             x="231.18091"
             xlink:href="#textext-b71dfd20-3"
             width="744.09448"
             height="1052.3622" />
        </g>
        <g
           id="g29132"
           style="fill:#000000;fill-opacity:1">
          <use
             id="use29134"
             y="134.765"
             x="237.961"
             xlink:href="#textext-b71dfd20-12"
             width="744.09448"
             height="1052.3622" />
        </g>
        <g
           id="g29136"
           style="fill:#000000;fill-opacity:1">
          <use
             id="use29138"
             y="134.765"
             x="247.841"
             xlink:href="#textext-b71dfd20-4"
             width="744.09448"
             height="1052.3622" />
          <use
             id="use29140"
             y="134.765"
             x="250.60861"
             xlink:href="#textext-b71dfd20-5"
             width="744.09448"
             height="1052.3622" />
          <use
             id="use29142"
             y="134.765"
             x="254.51096"
             xlink:href="#textext-b71dfd20-6"
             width="744.09448"
             height="1052.3622" />
          <use
             id="use29144"
             y="134.765"
             x="259.49225"
             xlink:href="#textext-b71dfd20-7"
             width="744.09448"
             height="1052.3622" />
          <use
             id="use29146"
             y="134.765"
             x="265.02747"
             xlink:href="#textext-b71dfd20-8"
             width="744.09448"
             height="1052.3622" />
          <use
             id="use29148"
             y="134.765"
             x="270.00879"
             xlink:href="#textext-b71dfd20-9"
             width="744.09448"
             height="1052.3622" />
          <use
             id="use29150"
             y="134.765"
             x="273.93802"
             xlink:href="#textext-b71dfd20-10"
             width="744.09448"
             height="1052.3622" />
        </g>
      </g>
    </g>
    <g
       ns0:text="$\\log{|L(j \\omega)|}$ [-]"
       ns0:preamble=""
       transform="translate(-149.95759,435.29521)"
       id="g29481">
      <defs
         id="defs29483">
        <g
           id="g29485">
          <symbol
             style="overflow:visible"
             overflow="visible"
             id="textext-ca3c0fe3-0">
            <path
               inkscape:connector-curvature="0"
               style="stroke:none"
               d=""
               id="path29488" />
          </symbol>
          <symbol
             style="overflow:visible"
             overflow="visible"
             id="textext-ca3c0fe3-1">
            <path
               inkscape:connector-curvature="0"
               style="stroke:none"
               d="m 1.765625,-6.921875 -1.4375,0.109375 0,0.3125 c 0.703125,0 0.78125,0.0625 0.78125,0.5625 l 0,5.1875 c 0,0.4375 -0.109375,0.4375 -0.78125,0.4375 l 0,0.3125 C 0.65625,-0.015625 1.1875,-0.03125 1.4375,-0.03125 c 0.25,0 0.734375,0.015625 1.109375,0.03125 l 0,-0.3125 c -0.671875,0 -0.78125,0 -0.78125,-0.4375 z m 0,0"
               id="path29491" />
          </symbol>
          <symbol
             style="overflow:visible"
             overflow="visible"
             id="textext-ca3c0fe3-2">
            <path
               inkscape:connector-curvature="0"
               style="stroke:none"
               d="M 4.6875,-2.140625 C 4.6875,-3.40625 3.703125,-4.46875 2.5,-4.46875 c -1.25,0 -2.21875,1.09375 -2.21875,2.328125 0,1.296875 1.03125,2.25 2.203125,2.25 1.203125,0 2.203125,-0.984375 2.203125,-2.25 z m -2.1875,2 c -0.4375,0 -0.875,-0.203125 -1.140625,-0.671875 -0.25,-0.4375 -0.25,-1.046875 -0.25,-1.40625 0,-0.390625 0,-0.921875 0.234375,-1.359375 C 1.609375,-4.03125 2.078125,-4.25 2.484375,-4.25 c 0.4375,0 0.859375,0.21875 1.125,0.65625 0.265625,0.421875 0.265625,1 0.265625,1.375 0,0.359375 0,0.90625 -0.21875,1.34375 C 3.421875,-0.421875 2.984375,-0.140625 2.5,-0.140625 z m 0,0"
               id="path29494" />
          </symbol>
          <symbol
             style="overflow:visible"
             overflow="visible"
             id="textext-ca3c0fe3-3">
            <path
               inkscape:connector-curvature="0"
               style="stroke:none"
               d="m 2.21875,-1.71875 c -0.875,0 -0.875,-1 -0.875,-1.21875 0,-0.265625 0.015625,-0.59375 0.15625,-0.84375 0.078125,-0.109375 0.3125,-0.390625 0.71875,-0.390625 0.859375,0 0.859375,0.984375 0.859375,1.21875 0,0.265625 0,0.59375 -0.15625,0.84375 C 2.84375,-2 2.609375,-1.71875 2.21875,-1.71875 z M 1.0625,-1.328125 c 0,-0.03125 0,-0.265625 0.15625,-0.46875 0.390625,0.28125 0.8125,0.3125 1,0.3125 0.921875,0 1.609375,-0.6875 1.609375,-1.453125 0,-0.375 -0.15625,-0.734375 -0.40625,-0.96875 C 3.78125,-4.25 4.140625,-4.296875 4.3125,-4.296875 c 0.03125,0 0.078125,0 0.109375,0.015625 C 4.3125,-4.25 4.25,-4.140625 4.25,-4.015625 c 0,0.171875 0.140625,0.28125 0.296875,0.28125 0.09375,0 0.28125,-0.0625 0.28125,-0.296875 0,-0.171875 -0.109375,-0.484375 -0.5,-0.484375 -0.203125,0 -0.640625,0.0625 -1.0625,0.46875 C 2.84375,-4.375 2.4375,-4.40625 2.21875,-4.40625 c -0.9375,0 -1.625,0.6875 -1.625,1.453125 0,0.4375 0.21875,0.8125 0.46875,1.03125 -0.125,0.140625 -0.3125,0.46875 -0.3125,0.828125 0,0.3125 0.140625,0.6875 0.453125,0.890625 -0.609375,0.15625 -0.921875,0.59375 -0.921875,0.984375 0,0.71875 0.984375,1.265625 2.203125,1.265625 1.171875,0 2.203125,-0.5 2.203125,-1.28125 0,-0.34375 -0.125,-0.859375 -0.640625,-1.140625 -0.53125,-0.265625 -1.109375,-0.265625 -1.71875,-0.265625 -0.25,0 -0.671875,0 -0.75,-0.015625 C 1.265625,-0.703125 1.0625,-1 1.0625,-1.328125 z M 2.5,1.828125 c -1.015625,0 -1.703125,-0.515625 -1.703125,-1.046875 0,-0.453125 0.375,-0.828125 0.8125,-0.84375 l 0.59375,0 c 0.859375,0 1.96875,0 1.96875,0.84375 0,0.546875 -0.703125,1.046875 -1.671875,1.046875 z m 0,0"
               id="path29497" />
          </symbol>
          <symbol
             style="overflow:visible"
             overflow="visible"
             id="textext-ca3c0fe3-4">
            <path
               inkscape:connector-curvature="0"
               style="stroke:none"
               d="m 3.296875,2.390625 c 0,-0.03125 0,-0.046875 -0.171875,-0.21875 C 1.890625,0.921875 1.5625,-0.96875 1.5625,-2.5 c 0,-1.734375 0.375,-3.46875 1.609375,-4.703125 0.125,-0.125 0.125,-0.140625 0.125,-0.171875 0,-0.078125 -0.03125,-0.109375 -0.09375,-0.109375 -0.109375,0 -1,0.6875 -1.59375,1.953125 -0.5,1.09375 -0.625,2.203125 -0.625,3.03125 0,0.78125 0.109375,1.984375 0.65625,3.125 C 2.25,1.84375 3.09375,2.5 3.203125,2.5 c 0.0625,0 0.09375,-0.03125 0.09375,-0.109375 z m 0,0"
               id="path29500" />
          </symbol>
          <symbol
             style="overflow:visible"
             overflow="visible"
             id="textext-ca3c0fe3-5">
            <path
               inkscape:connector-curvature="0"
               style="stroke:none"
               d="m 2.875,-2.5 c 0,-0.765625 -0.109375,-1.96875 -0.65625,-3.109375 -0.59375,-1.21875 -1.453125,-1.875 -1.546875,-1.875 -0.0625,0 -0.109375,0.046875 -0.109375,0.109375 0,0.03125 0,0.046875 0.1875,0.234375 0.984375,0.984375 1.546875,2.5625 1.546875,4.640625 0,1.71875 -0.359375,3.46875 -1.59375,4.71875 C 0.5625,2.34375 0.5625,2.359375 0.5625,2.390625 0.5625,2.453125 0.609375,2.5 0.671875,2.5 0.765625,2.5 1.671875,1.8125 2.25,0.546875 2.765625,-0.546875 2.875,-1.65625 2.875,-2.5 z m 0,0"
               id="path29503" />
          </symbol>
          <symbol
             style="overflow:visible"
             overflow="visible"
             id="textext-ca3c0fe3-6">
            <path
               inkscape:connector-curvature="0"
               style="stroke:none"
               d="m 2.546875,2.5 0,-0.40625 -0.96875,0 0,-9.171875 0.96875,0 0,-0.40625 -1.375,0 0,9.984375 z m 0,0"
               id="path29506" />
          </symbol>
          <symbol
             style="overflow:visible"
             overflow="visible"
             id="textext-ca3c0fe3-7">
            <path
               inkscape:connector-curvature="0"
               style="stroke:none"
               d="m 2.75,-1.859375 0,-0.578125 -2.640625,0 0,0.578125 z m 0,0"
               id="path29509" />
          </symbol>
          <symbol
             style="overflow:visible"
             overflow="visible"
             id="textext-ca3c0fe3-8">
            <path
               inkscape:connector-curvature="0"
               style="stroke:none"
               d="m 1.578125,-7.484375 -1.359375,0 0,0.40625 0.96875,0 0,9.171875 -0.96875,0 0,0.40625 1.359375,0 z m 0,0"
               id="path29512" />
          </symbol>
          <symbol
             style="overflow:visible"
             overflow="visible"
             id="textext-ca3c0fe3-9">
            <path
               inkscape:connector-curvature="0"
               style="stroke:none"
               d=""
               id="path29515" />
          </symbol>
          <symbol
             style="overflow:visible"
             overflow="visible"
             id="textext-ca3c0fe3-10">
            <path
               inkscape:connector-curvature="0"
               style="stroke:none"
               d="m 1.578125,-7.125 c 0,-0.171875 0,-0.359375 -0.1875,-0.359375 -0.203125,0 -0.203125,0.1875 -0.203125,0.359375 l 0,9.265625 c 0,0.171875 0,0.359375 0.203125,0.359375 0.1875,0 0.1875,-0.1875 0.1875,-0.359375 z m 0,0"
               id="path29518" />
          </symbol>
          <symbol
             style="overflow:visible"
             overflow="visible"
             id="textext-ca3c0fe3-11">
            <path
               inkscape:connector-curvature="0"
               style="stroke:none"
               d=""
               id="path29521" />
          </symbol>
          <symbol
             style="overflow:visible"
             overflow="visible"
             id="textext-ca3c0fe3-12">
            <path
               inkscape:connector-curvature="0"
               style="stroke:none"
               d="M 3.734375,-6.03125 C 3.8125,-6.390625 3.84375,-6.5 4.78125,-6.5 c 0.296875,0 0.375,0 0.375,-0.1875 0,-0.125 -0.109375,-0.125 -0.15625,-0.125 -0.328125,0 -1.140625,0.03125 -1.46875,0.03125 -0.296875,0 -1.03125,-0.03125 -1.328125,-0.03125 -0.0625,0 -0.1875,0 -0.1875,0.203125 0,0.109375 0.09375,0.109375 0.28125,0.109375 0.015625,0 0.203125,0 0.375,0.015625 0.171875,0.03125 0.265625,0.03125 0.265625,0.171875 0,0.03125 0,0.0625 -0.03125,0.1875 L 1.5625,-0.78125 c -0.09375,0.390625 -0.109375,0.46875 -0.90625,0.46875 -0.171875,0 -0.265625,0 -0.265625,0.203125 C 0.390625,0 0.484375,0 0.65625,0 l 4.625,0 C 5.515625,0 5.515625,0 5.578125,-0.171875 L 6.375,-2.328125 c 0.03125,-0.109375 0.03125,-0.125 0.03125,-0.140625 0,-0.03125 -0.03125,-0.109375 -0.109375,-0.109375 -0.09375,0 -0.109375,0.0625 -0.171875,0.21875 -0.34375,0.90625 -0.78125,2.046875 -2.5,2.046875 l -0.9375,0 c -0.140625,0 -0.171875,0 -0.21875,0 -0.109375,-0.015625 -0.140625,-0.03125 -0.140625,-0.109375 0,-0.03125 0,-0.046875 0.046875,-0.21875 z m 0,0"
               id="path29524" />
          </symbol>
          <symbol
             style="overflow:visible"
             overflow="visible"
             id="textext-ca3c0fe3-13">
            <path
               inkscape:connector-curvature="0"
               style="stroke:none"
               d="m 3.953125,-6.234375 c 0,-0.1875 -0.140625,-0.359375 -0.375,-0.359375 -0.234375,0 -0.53125,0.234375 -0.53125,0.53125 0,0.203125 0.140625,0.359375 0.375,0.359375 0.265625,0 0.53125,-0.265625 0.53125,-0.53125 z m -2,6.734375 c -0.1875,0.75 -0.671875,1.328125 -1.21875,1.328125 -0.0625,0 -0.21875,0 -0.390625,-0.09375 0.296875,-0.0625 0.4375,-0.328125 0.4375,-0.53125 0,-0.15625 -0.109375,-0.34375 -0.375,-0.34375 -0.25,0 -0.53125,0.203125 -0.53125,0.5625 0,0.40625 0.390625,0.625 0.875,0.625 0.703125,0 1.625,-0.53125 1.875,-1.515625 L 3.53125,-3.125 c 0.0625,-0.1875 0.0625,-0.328125 0.0625,-0.359375 0,-0.578125 -0.421875,-0.921875 -0.921875,-0.921875 -1.015625,0 -1.578125,1.453125 -1.578125,1.53125 0,0.109375 0.09375,0.109375 0.109375,0.109375 0.09375,0 0.109375,-0.015625 0.1875,-0.203125 0.25,-0.609375 0.703125,-1.21875 1.25,-1.21875 0.140625,0 0.3125,0.046875 0.3125,0.453125 0,0.234375 -0.015625,0.34375 -0.0625,0.515625 z m 0,0"
               id="path29527" />
          </symbol>
          <symbol
             style="overflow:visible"
             overflow="visible"
             id="textext-ca3c0fe3-14">
            <path
               inkscape:connector-curvature="0"
               style="stroke:none"
               d="m 6.03125,-3.703125 c 0,-0.453125 -0.171875,-0.703125 -0.40625,-0.703125 -0.25,0 -0.515625,0.234375 -0.515625,0.46875 0,0.09375 0.046875,0.203125 0.140625,0.296875 0.171875,0.15625 0.359375,0.421875 0.359375,0.84375 0,0.390625 -0.203125,0.96875 -0.5,1.421875 C 4.8125,-0.953125 4.4375,-0.609375 3.96875,-0.609375 3.40625,-0.609375 3.09375,-0.96875 3,-1.5 c 0.109375,-0.265625 0.34375,-0.90625 0.34375,-1.1875 0,-0.109375 -0.046875,-0.21875 -0.1875,-0.21875 -0.078125,0 -0.1875,0.03125 -0.265625,0.171875 C 2.78125,-2.53125 2.65625,-1.890625 2.65625,-1.53125 2.328125,-1.0625 1.9375,-0.609375 1.3125,-0.609375 c -0.671875,0 -0.875,-0.59375 -0.875,-1.140625 0,-1.25 1.015625,-2.296875 1.015625,-2.421875 0,-0.109375 -0.078125,-0.1875 -0.1875,-0.1875 -0.125,0 -0.203125,0.125 -0.265625,0.21875 -0.5,0.734375 -0.875,1.921875 -0.875,2.828125 0,0.6875 0.21875,1.421875 1.046875,1.421875 0.703125,0 1.171875,-0.5 1.53125,-1.046875 0.09375,0.578125 0.484375,1.046875 1.09375,1.046875 0.78125,0 1.25,-0.609375 1.609375,-1.359375 0.25,-0.484375 0.625,-1.84375 0.625,-2.453125 z m 0,0"
               id="path29530" />
          </symbol>
        </g>
      </defs>
      <g
         id="textext-ca3c0fe3-15">
        <g
           style="fill:#000000;fill-opacity:1"
           id="g29533">
          <use
             height="1052.3622"
             width="744.09448"
             xlink:href="#textext-ca3c0fe3-1"
             x="223.43201"
             y="134.765"
             id="use29535" />
          <use
             height="1052.3622"
             width="744.09448"
             xlink:href="#textext-ca3c0fe3-2"
             x="226.19962"
             y="134.765"
             id="use29537" />
          <use
             height="1052.3622"
             width="744.09448"
             xlink:href="#textext-ca3c0fe3-3"
             x="231.18091"
             y="134.765"
             id="use29539" />
        </g>
        <g
           style="fill:#000000;fill-opacity:1"
           id="g29541">
          <use
             height="1052.3622"
             width="744.09448"
             xlink:href="#textext-ca3c0fe3-10"
             x="237.961"
             y="134.765"
             id="use29543" />
        </g>
        <g
           style="fill:#000000;fill-opacity:1"
           id="g29545">
          <use
             height="1052.3622"
             width="744.09448"
             xlink:href="#textext-ca3c0fe3-12"
             x="240.728"
             y="134.765"
             id="use29547" />
        </g>
        <g
           style="fill:#000000;fill-opacity:1"
           id="g29549">
          <use
             height="1052.3622"
             width="744.09448"
             xlink:href="#textext-ca3c0fe3-4"
             x="247.508"
             y="134.765"
             id="use29551" />
        </g>
        <g
           style="fill:#000000;fill-opacity:1"
           id="g29553">
          <use
             height="1052.3622"
             width="744.09448"
             xlink:href="#textext-ca3c0fe3-13"
             x="251.383"
             y="134.765"
             id="use29555" />
        </g>
        <g
           style="fill:#000000;fill-opacity:1"
           id="g29557">
          <use
             height="1052.3622"
             width="744.09448"
             xlink:href="#textext-ca3c0fe3-14"
             x="256.05347"
             y="134.765"
             id="use29559" />
        </g>
        <g
           style="fill:#000000;fill-opacity:1"
           id="g29561">
          <use
             height="1052.3622"
             width="744.09448"
             xlink:href="#textext-ca3c0fe3-5"
             x="262.61499"
             y="134.765"
             id="use29563" />
        </g>
        <g
           style="fill:#000000;fill-opacity:1"
           id="g29565">
          <use
             height="1052.3622"
             width="744.09448"
             xlink:href="#textext-ca3c0fe3-10"
             x="266.48901"
             y="134.765"
             id="use29567" />
        </g>
        <g
           style="fill:#000000;fill-opacity:1"
           id="g29569">
          <use
             height="1052.3622"
             width="744.09448"
             xlink:href="#textext-ca3c0fe3-6"
             x="272.577"
             y="134.765"
             id="use29571" />
          <use
             height="1052.3622"
             width="744.09448"
             xlink:href="#textext-ca3c0fe3-7"
             x="275.3446"
             y="134.765"
             id="use29573" />
          <use
             height="1052.3622"
             width="744.09448"
             xlink:href="#textext-ca3c0fe3-8"
             x="278.66513"
             y="134.765"
             id="use29575" />
        </g>
      </g>
    </g>
    <path
       style="fill:none;stroke:#000000;stroke-width:1;stroke-linecap:butt;stroke-linejoin:miter;stroke-miterlimit:4;stroke-opacity:1;stroke-dasharray:none;marker-end:url(#Arrow2Mend-2)"
       d="m 95,597.36218 0,-20"
       id="path28655-2"
       inkscape:connector-curvature="0" />
    <path
       inkscape:connector-curvature="0"
       id="path3136"
       d="m 100,712.36218 60,-60 40,40 20,0 80,-80 50,0 50,50 20,40"
       style="fill:none;stroke:#000000;stroke-width:1px;stroke-linecap:butt;stroke-linejoin:miter;stroke-opacity:1" />
    <path
       style="fill:none;stroke:#000000;stroke-width:0.5;stroke-linecap:butt;stroke-linejoin:miter;stroke-miterlimit:4;stroke-opacity:1;stroke-dasharray:2, 2;stroke-dashoffset:0"
       d="m 400,627.36218 0,35"
       id="path2993-59-6"
       inkscape:connector-curvature="0" />
    <path
       inkscape:connector-curvature="0"
       id="path3942"
       d="m 370,627.36218 0,10"
       style="fill:none;stroke:#000000;stroke-width:0.5;stroke-linecap:butt;stroke-linejoin:miter;stroke-miterlimit:4;stroke-opacity:1;stroke-dasharray:3, 3;stroke-dashoffset:0" />
    <path
       inkscape:connector-curvature="0"
       id="path3942-9"
       d="m 280,627.36218 0,10"
       style="fill:none;stroke:#000000;stroke-width:0.5;stroke-linecap:butt;stroke-linejoin:miter;stroke-miterlimit:4;stroke-opacity:1;stroke-dasharray:3, 3;stroke-dashoffset:0" />
    <text
       sodipodi:linespacing="125%"
       id="text3962"
       y="624.36218"
       x="395"
       style="font-size:8px;font-style:normal;font-weight:normal;line-height:125%;letter-spacing:0px;word-spacing:0px;fill:#000000;fill-opacity:1;stroke:none;font-family:Sans"
       xml:space="preserve"><tspan
         y="624.36218"
         x="395"
         id="tspan3964"
         sodipodi:role="line">1M</tspan></text>
    <g
       id="g10075"
       transform="translate(-30.621094,437.61609)"
       ns0:preamble=""
       ns0:text="\\Large{$L(s)=\\frac{ \\frac{s}{2} \\left( 1+ \\frac{s}{20} \\right) \\left( 1+ \\frac{s}{40}\\right)}%\n{(s+1)^2 \\left( 1+\\frac{s}{4 \\cdot 10^3} \\right) \\left( 1+\\frac{s}{50 \\cdot 10^3} \\right) \\left( 1+\\frac{s}{10^6} \\right)}$}">
      <defs
         id="defs10077">
        <g
           id="g10079">
          <symbol
             id="textext-021b8ed8-0"
             overflow="visible">
            <path
               id="path10082"
               d=""
               style="stroke:none;" />
          </symbol>
          <symbol
             id="textext-021b8ed8-1"
             overflow="visible">
            <path
               id="path10085"
               d="M 5.265625 -8.6875 C 5.390625 -9.234375 5.4375 -9.375 6.703125 -9.375 C 7.078125 -9.375 7.1875 -9.375 7.1875 -9.65625 C 7.1875 -9.796875 7.03125 -9.796875 6.96875 -9.796875 C 6.6875 -9.796875 6.359375 -9.765625 6.0625 -9.765625 L 4.140625 -9.765625 C 3.875 -9.765625 3.5625 -9.796875 3.28125 -9.796875 C 3.171875 -9.796875 3.015625 -9.796875 3.015625 -9.53125 C 3.015625 -9.375 3.140625 -9.375 3.359375 -9.375 C 4.234375 -9.375 4.234375 -9.265625 4.234375 -9.109375 C 4.234375 -9.078125 4.234375 -9 4.171875 -8.78125 L 2.234375 -1.0625 C 2.109375 -0.5625 2.078125 -0.421875 1.078125 -0.421875 C 0.796875 -0.421875 0.65625 -0.421875 0.65625 -0.15625 C 0.65625 0 0.75 0 1.03125 0 L 7.453125 0 C 7.78125 0 7.78125 -0.015625 7.890625 -0.265625 L 9 -3.328125 C 9.015625 -3.40625 9.046875 -3.484375 9.046875 -3.53125 C 9.046875 -3.609375 8.984375 -3.671875 8.90625 -3.671875 C 8.890625 -3.671875 8.828125 -3.671875 8.796875 -3.609375 C 8.765625 -3.59375 8.765625 -3.578125 8.65625 -3.296875 C 8.1875 -2.03125 7.546875 -0.421875 5.125 -0.421875 L 3.75 -0.421875 C 3.546875 -0.421875 3.515625 -0.421875 3.421875 -0.4375 C 3.265625 -0.4375 3.25 -0.46875 3.25 -0.59375 C 3.25 -0.6875 3.28125 -0.78125 3.3125 -0.90625 Z M 5.265625 -8.6875 "
               style="stroke:none;" />
          </symbol>
          <symbol
             id="textext-021b8ed8-2"
             overflow="visible">
            <path
               id="path10088"
               d="M 3.265625 -2.875 C 3.515625 -2.828125 3.90625 -2.734375 3.984375 -2.71875 C 4.171875 -2.671875 4.8125 -2.4375 4.8125 -1.75 C 4.8125 -1.3125 4.421875 -0.140625 2.75 -0.140625 C 2.453125 -0.140625 1.375 -0.1875 1.09375 -0.96875 C 1.65625 -0.90625 1.953125 -1.34375 1.953125 -1.65625 C 1.953125 -1.96875 1.75 -2.125 1.46875 -2.125 C 1.140625 -2.125 0.734375 -1.875 0.734375 -1.234375 C 0.734375 -0.390625 1.59375 0.140625 2.734375 0.140625 C 4.921875 0.140625 5.5625 -1.46875 5.5625 -2.203125 C 5.5625 -2.421875 5.5625 -2.828125 5.109375 -3.28125 C 4.75 -3.625 4.40625 -3.703125 3.625 -3.859375 C 3.234375 -3.9375 2.625 -4.078125 2.625 -4.71875 C 2.625 -5 2.890625 -6.03125 4.25 -6.03125 C 4.84375 -6.03125 5.4375 -5.8125 5.578125 -5.296875 C 4.953125 -5.296875 4.921875 -4.75 4.921875 -4.734375 C 4.921875 -4.4375 5.1875 -4.34375 5.328125 -4.34375 C 5.515625 -4.34375 5.921875 -4.5 5.921875 -5.109375 C 5.921875 -5.703125 5.375 -6.328125 4.265625 -6.328125 C 2.375 -6.328125 1.875 -4.84375 1.875 -4.265625 C 1.875 -3.171875 2.9375 -2.9375 3.265625 -2.875 Z M 3.265625 -2.875 "
               style="stroke:none;" />
          </symbol>
          <symbol
             id="textext-021b8ed8-3"
             overflow="visible">
            <path
               id="path10091"
               d=""
               style="stroke:none;" />
          </symbol>
          <symbol
             id="textext-021b8ed8-4"
             overflow="visible">
            <path
               id="path10094"
               d="M 4.65625 3.484375 C 4.65625 3.4375 4.65625 3.40625 4.421875 3.171875 C 2.984375 1.71875 2.1875 -0.640625 2.1875 -3.578125 C 2.1875 -6.359375 2.859375 -8.75 4.515625 -10.4375 C 4.65625 -10.578125 4.65625 -10.59375 4.65625 -10.640625 C 4.65625 -10.734375 4.59375 -10.75 4.53125 -10.75 C 4.34375 -10.75 3.171875 -9.71875 2.46875 -8.3125 C 1.734375 -6.875 1.40625 -5.328125 1.40625 -3.578125 C 1.40625 -2.296875 1.609375 -0.59375 2.359375 0.953125 C 3.203125 2.671875 4.375 3.59375 4.53125 3.59375 C 4.59375 3.59375 4.65625 3.578125 4.65625 3.484375 Z M 4.65625 3.484375 "
               style="stroke:none;" />
          </symbol>
          <symbol
             id="textext-021b8ed8-5"
             overflow="visible">
            <path
               id="path10097"
               d="M 4.046875 -3.578125 C 4.046875 -4.65625 3.90625 -6.4375 3.09375 -8.109375 C 2.25 -9.828125 1.078125 -10.75 0.921875 -10.75 C 0.859375 -10.75 0.78125 -10.734375 0.78125 -10.640625 C 0.78125 -10.59375 0.78125 -10.578125 1.03125 -10.328125 C 2.46875 -8.875 3.265625 -6.515625 3.265625 -3.578125 C 3.265625 -0.796875 2.59375 1.59375 0.9375 3.28125 C 0.78125 3.40625 0.78125 3.4375 0.78125 3.484375 C 0.78125 3.578125 0.859375 3.59375 0.921875 3.59375 C 1.109375 3.59375 2.28125 2.5625 2.984375 1.15625 C 3.71875 -0.296875 4.046875 -1.84375 4.046875 -3.578125 Z M 4.046875 -3.578125 "
               style="stroke:none;" />
          </symbol>
          <symbol
             id="textext-021b8ed8-6"
             overflow="visible">
            <path
               id="path10100"
               d="M 9.6875 -4.640625 C 9.890625 -4.640625 10.140625 -4.640625 10.140625 -4.90625 C 10.140625 -5.171875 9.890625 -5.171875 9.6875 -5.171875 L 1.234375 -5.171875 C 1.03125 -5.171875 0.78125 -5.171875 0.78125 -4.921875 C 0.78125 -4.640625 1.015625 -4.640625 1.234375 -4.640625 Z M 9.6875 -1.984375 C 9.890625 -1.984375 10.140625 -1.984375 10.140625 -2.234375 C 10.140625 -2.515625 9.890625 -2.515625 9.6875 -2.515625 L 1.234375 -2.515625 C 1.03125 -2.515625 0.78125 -2.515625 0.78125 -2.25 C 0.78125 -1.984375 1.015625 -1.984375 1.234375 -1.984375 Z M 9.6875 -1.984375 "
               style="stroke:none;" />
          </symbol>
          <symbol
             id="textext-021b8ed8-7"
             overflow="visible">
            <path
               id="path10103"
               d=""
               style="stroke:none;" />
          </symbol>
          <symbol
             id="textext-021b8ed8-8"
             overflow="visible">
            <path
               id="path10106"
               d="M 3 -2.625 C 2.828125 -2.578125 2.703125 -2.4375 2.703125 -2.296875 C 2.703125 -2.125 2.84375 -2.0625 2.9375 -2.0625 C 3.015625 -2.0625 3.28125 -2.109375 3.28125 -2.46875 C 3.28125 -2.921875 2.78125 -3.078125 2.34375 -3.078125 C 1.265625 -3.078125 1.0625 -2.265625 1.0625 -2.0625 C 1.0625 -1.796875 1.21875 -1.625 1.3125 -1.546875 C 1.484375 -1.40625 1.609375 -1.375 2.09375 -1.296875 C 2.25 -1.265625 2.6875 -1.1875 2.6875 -0.84375 C 2.6875 -0.71875 2.609375 -0.453125 2.328125 -0.28125 C 2.046875 -0.125 1.703125 -0.125 1.625 -0.125 C 1.34375 -0.125 0.953125 -0.1875 0.78125 -0.421875 C 1.015625 -0.453125 1.171875 -0.625 1.171875 -0.8125 C 1.171875 -0.984375 1.046875 -1.078125 0.90625 -1.078125 C 0.703125 -1.078125 0.5 -0.90625 0.5 -0.609375 C 0.5 -0.1875 0.9375 0.0625 1.609375 0.0625 C 2.90625 0.0625 3.140625 -0.8125 3.140625 -1.078125 C 3.140625 -1.71875 2.4375 -1.84375 2.171875 -1.890625 C 2.109375 -1.90625 1.9375 -1.9375 1.890625 -1.953125 C 1.640625 -2 1.515625 -2.140625 1.515625 -2.296875 C 1.515625 -2.453125 1.640625 -2.640625 1.796875 -2.75 C 1.984375 -2.859375 2.21875 -2.875 2.34375 -2.875 C 2.484375 -2.875 2.84375 -2.859375 3 -2.625 Z M 3 -2.625 "
               style="stroke:none;" />
          </symbol>
          <symbol
             id="textext-021b8ed8-9"
             overflow="visible">
            <path
               id="path10109"
               d=""
               style="stroke:none;" />
          </symbol>
          <symbol
             id="textext-021b8ed8-10"
             overflow="visible">
            <path
               id="path10112"
               d="M 3.515625 -1.265625 L 3.28125 -1.265625 C 3.265625 -1.109375 3.1875 -0.703125 3.09375 -0.640625 C 3.046875 -0.59375 2.515625 -0.59375 2.40625 -0.59375 L 1.125 -0.59375 C 1.859375 -1.234375 2.109375 -1.4375 2.515625 -1.765625 C 3.03125 -2.171875 3.515625 -2.609375 3.515625 -3.265625 C 3.515625 -4.109375 2.78125 -4.625 1.890625 -4.625 C 1.03125 -4.625 0.4375 -4.015625 0.4375 -3.375 C 0.4375 -3.03125 0.734375 -2.984375 0.8125 -2.984375 C 0.96875 -2.984375 1.171875 -3.109375 1.171875 -3.359375 C 1.171875 -3.484375 1.125 -3.734375 0.765625 -3.734375 C 0.984375 -4.21875 1.453125 -4.375 1.78125 -4.375 C 2.484375 -4.375 2.84375 -3.828125 2.84375 -3.265625 C 2.84375 -2.65625 2.40625 -2.1875 2.1875 -1.9375 L 0.515625 -0.265625 C 0.4375 -0.203125 0.4375 -0.1875 0.4375 0 L 3.3125 0 Z M 3.515625 -1.265625 "
               style="stroke:none;" />
          </symbol>
          <symbol
             id="textext-021b8ed8-11"
             overflow="visible">
            <path
               id="path10115"
               d="M 3.59375 -2.21875 C 3.59375 -2.984375 3.5 -3.546875 3.1875 -4.03125 C 2.96875 -4.34375 2.53125 -4.625 1.984375 -4.625 C 0.359375 -4.625 0.359375 -2.71875 0.359375 -2.21875 C 0.359375 -1.71875 0.359375 0.140625 1.984375 0.140625 C 3.59375 0.140625 3.59375 -1.71875 3.59375 -2.21875 Z M 1.984375 -0.0625 C 1.65625 -0.0625 1.234375 -0.25 1.09375 -0.8125 C 1 -1.21875 1 -1.796875 1 -2.3125 C 1 -2.828125 1 -3.359375 1.09375 -3.734375 C 1.25 -4.28125 1.6875 -4.4375 1.984375 -4.4375 C 2.359375 -4.4375 2.71875 -4.203125 2.84375 -3.796875 C 2.953125 -3.421875 2.96875 -2.921875 2.96875 -2.3125 C 2.96875 -1.796875 2.96875 -1.28125 2.875 -0.84375 C 2.734375 -0.203125 2.265625 -0.0625 1.984375 -0.0625 Z M 1.984375 -0.0625 "
               style="stroke:none;" />
          </symbol>
          <symbol
             id="textext-021b8ed8-12"
             overflow="visible">
            <path
               id="path10118"
               d="M 3.6875 -1.140625 L 3.6875 -1.390625 L 2.90625 -1.390625 L 2.90625 -4.5 C 2.90625 -4.640625 2.90625 -4.703125 2.765625 -4.703125 C 2.671875 -4.703125 2.640625 -4.703125 2.578125 -4.59375 L 0.265625 -1.390625 L 0.265625 -1.140625 L 2.328125 -1.140625 L 2.328125 -0.578125 C 2.328125 -0.328125 2.328125 -0.25 1.75 -0.25 L 1.5625 -0.25 L 1.5625 0 C 1.921875 -0.015625 2.359375 -0.03125 2.609375 -0.03125 C 2.875 -0.03125 3.3125 -0.015625 3.671875 0 L 3.671875 -0.25 L 3.484375 -0.25 C 2.90625 -0.25 2.90625 -0.328125 2.90625 -0.578125 L 2.90625 -1.140625 Z M 2.375 -3.9375 L 2.375 -1.390625 L 0.53125 -1.390625 Z M 2.375 -3.9375 "
               style="stroke:none;" />
          </symbol>
          <symbol
             id="textext-021b8ed8-13"
             overflow="visible">
            <path
               id="path10121"
               d="M 2.328125 -4.4375 C 2.328125 -4.625 2.328125 -4.625 2.125 -4.625 C 1.671875 -4.1875 1.046875 -4.1875 0.765625 -4.1875 L 0.765625 -3.9375 C 0.921875 -3.9375 1.390625 -3.9375 1.765625 -4.125 L 1.765625 -0.578125 C 1.765625 -0.34375 1.765625 -0.25 1.078125 -0.25 L 0.8125 -0.25 L 0.8125 0 C 0.9375 0 1.796875 -0.03125 2.046875 -0.03125 C 2.265625 -0.03125 3.140625 0 3.296875 0 L 3.296875 -0.25 L 3.03125 -0.25 C 2.328125 -0.25 2.328125 -0.34375 2.328125 -0.578125 Z M 2.328125 -4.4375 "
               style="stroke:none;" />
          </symbol>
          <symbol
             id="textext-021b8ed8-14"
             overflow="visible">
            <path
               id="path10124"
               d="M 1.90625 -2.328125 C 2.453125 -2.328125 2.84375 -1.953125 2.84375 -1.203125 C 2.84375 -0.34375 2.328125 -0.078125 1.9375 -0.078125 C 1.65625 -0.078125 1.03125 -0.15625 0.75 -0.578125 C 1.078125 -0.578125 1.15625 -0.8125 1.15625 -0.96875 C 1.15625 -1.1875 0.984375 -1.34375 0.765625 -1.34375 C 0.578125 -1.34375 0.375 -1.21875 0.375 -0.9375 C 0.375 -0.28125 1.09375 0.140625 1.9375 0.140625 C 2.90625 0.140625 3.578125 -0.515625 3.578125 -1.203125 C 3.578125 -1.75 3.140625 -2.296875 2.375 -2.453125 C 3.09375 -2.71875 3.359375 -3.234375 3.359375 -3.671875 C 3.359375 -4.21875 2.734375 -4.625 1.953125 -4.625 C 1.1875 -4.625 0.59375 -4.25 0.59375 -3.6875 C 0.59375 -3.453125 0.75 -3.328125 0.953125 -3.328125 C 1.171875 -3.328125 1.3125 -3.484375 1.3125 -3.671875 C 1.3125 -3.875 1.171875 -4.03125 0.953125 -4.046875 C 1.203125 -4.34375 1.671875 -4.421875 1.9375 -4.421875 C 2.25 -4.421875 2.6875 -4.265625 2.6875 -3.671875 C 2.6875 -3.375 2.59375 -3.046875 2.40625 -2.84375 C 2.1875 -2.578125 1.984375 -2.5625 1.640625 -2.53125 C 1.46875 -2.515625 1.453125 -2.515625 1.421875 -2.515625 C 1.40625 -2.515625 1.34375 -2.5 1.34375 -2.421875 C 1.34375 -2.328125 1.40625 -2.328125 1.53125 -2.328125 Z M 1.90625 -2.328125 "
               style="stroke:none;" />
          </symbol>
          <symbol
             id="textext-021b8ed8-15"
             overflow="visible">
            <path
               id="path10127"
               d="M 1.078125 -3.890625 C 1.4375 -3.796875 1.640625 -3.796875 1.75 -3.796875 C 2.671875 -3.796875 3.21875 -4.421875 3.21875 -4.53125 C 3.21875 -4.609375 3.171875 -4.625 3.140625 -4.625 C 3.125 -4.625 3.109375 -4.625 3.078125 -4.609375 C 2.90625 -4.546875 2.546875 -4.40625 2.03125 -4.40625 C 1.828125 -4.40625 1.46875 -4.421875 1.015625 -4.59375 C 0.9375 -4.625 0.921875 -4.625 0.921875 -4.625 C 0.828125 -4.625 0.828125 -4.546875 0.828125 -4.4375 L 0.828125 -2.390625 C 0.828125 -2.265625 0.828125 -2.1875 0.9375 -2.1875 C 1 -2.1875 1.015625 -2.1875 1.078125 -2.28125 C 1.375 -2.65625 1.8125 -2.71875 2.046875 -2.71875 C 2.46875 -2.71875 2.65625 -2.390625 2.6875 -2.328125 C 2.8125 -2.09375 2.859375 -1.828125 2.859375 -1.421875 C 2.859375 -1.21875 2.859375 -0.8125 2.640625 -0.5 C 2.46875 -0.25 2.171875 -0.078125 1.828125 -0.078125 C 1.375 -0.078125 0.90625 -0.328125 0.734375 -0.796875 C 1 -0.78125 1.140625 -0.953125 1.140625 -1.140625 C 1.140625 -1.4375 0.875 -1.484375 0.78125 -1.484375 C 0.78125 -1.484375 0.4375 -1.484375 0.4375 -1.109375 C 0.4375 -0.484375 1.015625 0.140625 1.84375 0.140625 C 2.734375 0.140625 3.515625 -0.515625 3.515625 -1.40625 C 3.515625 -2.1875 2.921875 -2.90625 2.0625 -2.90625 C 1.75 -2.90625 1.390625 -2.84375 1.078125 -2.578125 Z M 1.078125 -3.890625 "
               style="stroke:none;" />
          </symbol>
          <symbol
             id="textext-021b8ed8-16"
             overflow="visible">
            <path
               id="path10130"
               d="M 1.046875 -2.28125 C 1.046875 -2.84375 1.09375 -3.359375 1.359375 -3.796875 C 1.59375 -4.171875 1.96875 -4.421875 2.421875 -4.421875 C 2.625 -4.421875 2.90625 -4.375 3.046875 -4.1875 C 2.875 -4.171875 2.71875 -4.046875 2.71875 -3.84375 C 2.71875 -3.671875 2.84375 -3.515625 3.046875 -3.515625 C 3.265625 -3.515625 3.390625 -3.65625 3.390625 -3.859375 C 3.390625 -4.265625 3.09375 -4.625 2.40625 -4.625 C 1.40625 -4.625 0.375 -3.703125 0.375 -2.203125 C 0.375 -0.40625 1.21875 0.140625 2 0.140625 C 2.84375 0.140625 3.578125 -0.515625 3.578125 -1.421875 C 3.578125 -2.3125 2.875 -2.96875 2.0625 -2.96875 C 1.5 -2.96875 1.203125 -2.59375 1.046875 -2.28125 Z M 2 -0.078125 C 1.640625 -0.078125 1.375 -0.28125 1.21875 -0.59375 C 1.125 -0.796875 1.0625 -1.15625 1.0625 -1.5625 C 1.0625 -2.25 1.46875 -2.765625 2.03125 -2.765625 C 2.34375 -2.765625 2.5625 -2.640625 2.734375 -2.390625 C 2.90625 -2.125 2.90625 -1.828125 2.90625 -1.421875 C 2.90625 -1.03125 2.90625 -0.734375 2.71875 -0.453125 C 2.5625 -0.21875 2.328125 -0.078125 2 -0.078125 Z M 2 -0.078125 "
               style="stroke:none;" />
          </symbol>
          <symbol
             id="textext-021b8ed8-17"
             overflow="visible">
            <path
               id="path10133"
               d=""
               style="stroke:none;" />
          </symbol>
          <symbol
             id="textext-021b8ed8-18"
             overflow="visible">
            <path
               id="path10136"
               d="M 2.9375 -6.375 C 2.9375 -6.625 2.9375 -6.640625 2.703125 -6.640625 C 2.078125 -6 1.203125 -6 0.890625 -6 L 0.890625 -5.6875 C 1.09375 -5.6875 1.671875 -5.6875 2.1875 -5.953125 L 2.1875 -0.78125 C 2.1875 -0.421875 2.15625 -0.3125 1.265625 -0.3125 L 0.953125 -0.3125 L 0.953125 0 C 1.296875 -0.03125 2.15625 -0.03125 2.5625 -0.03125 C 2.953125 -0.03125 3.828125 -0.03125 4.171875 0 L 4.171875 -0.3125 L 3.859375 -0.3125 C 2.953125 -0.3125 2.9375 -0.421875 2.9375 -0.78125 Z M 2.9375 -6.375 "
               style="stroke:none;" />
          </symbol>
          <symbol
             id="textext-021b8ed8-19"
             overflow="visible">
            <path
               id="path10139"
               d="M 4.078125 -2.296875 L 6.859375 -2.296875 C 7 -2.296875 7.1875 -2.296875 7.1875 -2.5 C 7.1875 -2.6875 7 -2.6875 6.859375 -2.6875 L 4.078125 -2.6875 L 4.078125 -5.484375 C 4.078125 -5.625 4.078125 -5.8125 3.875 -5.8125 C 3.671875 -5.8125 3.671875 -5.625 3.671875 -5.484375 L 3.671875 -2.6875 L 0.890625 -2.6875 C 0.75 -2.6875 0.5625 -2.6875 0.5625 -2.5 C 0.5625 -2.296875 0.75 -2.296875 0.890625 -2.296875 L 3.671875 -2.296875 L 3.671875 0.5 C 3.671875 0.640625 3.671875 0.828125 3.875 0.828125 C 4.078125 0.828125 4.078125 0.640625 4.078125 0.5 Z M 4.078125 -2.296875 "
               style="stroke:none;" />
          </symbol>
          <symbol
             id="textext-021b8ed8-20"
             overflow="visible">
            <path
               id="path10142"
               d="M 3.296875 2.390625 C 3.296875 2.359375 3.296875 2.34375 3.125 2.171875 C 1.890625 0.921875 1.5625 -0.96875 1.5625 -2.5 C 1.5625 -4.234375 1.9375 -5.96875 3.171875 -7.203125 C 3.296875 -7.328125 3.296875 -7.34375 3.296875 -7.375 C 3.296875 -7.453125 3.265625 -7.484375 3.203125 -7.484375 C 3.09375 -7.484375 2.203125 -6.796875 1.609375 -5.53125 C 1.109375 -4.4375 0.984375 -3.328125 0.984375 -2.5 C 0.984375 -1.71875 1.09375 -0.515625 1.640625 0.625 C 2.25 1.84375 3.09375 2.5 3.203125 2.5 C 3.265625 2.5 3.296875 2.46875 3.296875 2.390625 Z M 3.296875 2.390625 "
               style="stroke:none;" />
          </symbol>
          <symbol
             id="textext-021b8ed8-21"
             overflow="visible">
            <path
               id="path10145"
               d="M 2.875 -2.5 C 2.875 -3.265625 2.765625 -4.46875 2.21875 -5.609375 C 1.625 -6.828125 0.765625 -7.484375 0.671875 -7.484375 C 0.609375 -7.484375 0.5625 -7.4375 0.5625 -7.375 C 0.5625 -7.34375 0.5625 -7.328125 0.75 -7.140625 C 1.734375 -6.15625 2.296875 -4.578125 2.296875 -2.5 C 2.296875 -0.78125 1.9375 0.96875 0.703125 2.21875 C 0.5625 2.34375 0.5625 2.359375 0.5625 2.390625 C 0.5625 2.453125 0.609375 2.5 0.671875 2.5 C 0.765625 2.5 1.671875 1.8125 2.25 0.546875 C 2.765625 -0.546875 2.875 -1.65625 2.875 -2.5 Z M 2.875 -2.5 "
               style="stroke:none;" />
          </symbol>
          <symbol
             id="textext-021b8ed8-22"
             overflow="visible">
            <path
               id="path10148"
               d=""
               style="stroke:none;" />
          </symbol>
          <symbol
             id="textext-021b8ed8-23"
             overflow="visible">
            <path
               id="path10151"
               d="M 3.890625 -3.734375 C 3.625 -3.71875 3.421875 -3.5 3.421875 -3.28125 C 3.421875 -3.140625 3.515625 -2.984375 3.734375 -2.984375 C 3.953125 -2.984375 4.1875 -3.15625 4.1875 -3.546875 C 4.1875 -4 3.765625 -4.40625 3 -4.40625 C 1.6875 -4.40625 1.3125 -3.390625 1.3125 -2.953125 C 1.3125 -2.171875 2.046875 -2.03125 2.34375 -1.96875 C 2.859375 -1.859375 3.375 -1.75 3.375 -1.203125 C 3.375 -0.953125 3.15625 -0.109375 1.953125 -0.109375 C 1.8125 -0.109375 1.046875 -0.109375 0.8125 -0.640625 C 1.203125 -0.59375 1.453125 -0.890625 1.453125 -1.171875 C 1.453125 -1.390625 1.28125 -1.515625 1.078125 -1.515625 C 0.8125 -1.515625 0.515625 -1.3125 0.515625 -0.859375 C 0.515625 -0.296875 1.09375 0.109375 1.9375 0.109375 C 3.5625 0.109375 3.953125 -1.09375 3.953125 -1.546875 C 3.953125 -1.90625 3.765625 -2.15625 3.640625 -2.265625 C 3.375 -2.546875 3.078125 -2.609375 2.640625 -2.6875 C 2.28125 -2.765625 1.890625 -2.84375 1.890625 -3.296875 C 1.890625 -3.578125 2.125 -4.1875 3 -4.1875 C 3.25 -4.1875 3.75 -4.109375 3.890625 -3.734375 Z M 3.890625 -3.734375 "
               style="stroke:none;" />
          </symbol>
          <symbol
             id="textext-021b8ed8-24"
             overflow="visible">
            <path
               id="path10154"
               d=""
               style="stroke:none;" />
          </symbol>
          <symbol
             id="textext-021b8ed8-25"
             overflow="visible">
            <path
               id="path10157"
               d="M 1.578125 -1.734375 C 1.578125 -2 1.375 -2.140625 1.1875 -2.140625 C 0.953125 -2.140625 0.78125 -1.953125 0.78125 -1.75 C 0.78125 -1.5 0.984375 -1.34375 1.171875 -1.34375 C 1.40625 -1.34375 1.578125 -1.53125 1.578125 -1.734375 Z M 1.578125 -1.734375 "
               style="stroke:none;" />
          </symbol>
        </g>
      </defs>
      <g
         id="textext-021b8ed8-26">
        <g
           id="g10160"
           style="fill:rgb(0%,0%,0%);fill-opacity:1;">
          <use
             id="use10162"
             y="143.333"
             x="223.432"
             xlink:href="#textext-021b8ed8-1" />
        </g>
        <g
           id="g10164"
           style="fill:rgb(0%,0%,0%);fill-opacity:1;">
          <use
             id="use10166"
             y="143.333"
             x="232.989"
             xlink:href="#textext-021b8ed8-4" />
        </g>
        <g
           id="g10168"
           style="fill:rgb(0%,0%,0%);fill-opacity:1;">
          <use
             id="use10170"
             y="143.333"
             x="238.452"
             xlink:href="#textext-021b8ed8-2" />
        </g>
        <g
           id="g10172"
           style="fill:rgb(0%,0%,0%);fill-opacity:1;">
          <use
             id="use10174"
             y="143.333"
             x="245.069"
             xlink:href="#textext-021b8ed8-5" />
        </g>
        <g
           id="g10176"
           style="fill:rgb(0%,0%,0%);fill-opacity:1;">
          <use
             id="use10178"
             y="143.333"
             x="254.520277"
             xlink:href="#textext-021b8ed8-6" />
        </g>
        <g
           id="g10180"
           style="fill:rgb(0%,0%,0%);fill-opacity:1;">
          <use
             id="use10182"
             y="130.543"
             x="315.573"
             xlink:href="#textext-021b8ed8-8" />
        </g>
        <path
           id="path10184"
           transform="matrix(1,0,0,-1,315.468,131.975)"
           d="M 0.00075 -0.0015625 L 3.9695 -0.0015625 "
           style="fill:none;stroke-width:0.398;stroke-linecap:butt;stroke-linejoin:miter;stroke:rgb(0%,0%,0%);stroke-opacity:1;stroke-miterlimit:10;" />
        <g
           id="g10186"
           style="fill:rgb(0%,0%,0%);fill-opacity:1;">
          <use
             id="use10188"
             y="137.901"
             x="315.468"
             xlink:href="#textext-021b8ed8-10" />
        </g>
        <g
           id="g10190"
           style="fill:rgb(0%,0%,0%);fill-opacity:1;">
          <use
             id="use10192"
             y="135.562"
             x="320.635"
             xlink:href="#textext-021b8ed8-4" />
        </g>
        <g
           id="g10194"
           style="fill:rgb(0%,0%,0%);fill-opacity:1;">
          <use
             id="use10196"
             y="134.466"
             x="326.098"
             xlink:href="#textext-021b8ed8-18" />
          <use
             id="use10198"
             y="134.466"
             x="331.0793"
             xlink:href="#textext-021b8ed8-19" />
        </g>
        <g
           id="g10200"
           style="fill:rgb(0%,0%,0%);fill-opacity:1;">
          <use
             id="use10202"
             y="130.543"
             x="342.114"
             xlink:href="#textext-021b8ed8-8" />
        </g>
        <path
           id="path10204"
           transform="matrix(1,0,0,-1,340.023,131.975)"
           d="M 0.0004375 -0.0015625 L 7.941844 -0.0015625 "
           style="fill:none;stroke-width:0.398;stroke-linecap:butt;stroke-linejoin:miter;stroke:rgb(0%,0%,0%);stroke-opacity:1;stroke-miterlimit:10;" />
        <g
           id="g10206"
           style="fill:rgb(0%,0%,0%);fill-opacity:1;">
          <use
             id="use10208"
             y="137.901"
             x="340.023"
             xlink:href="#textext-021b8ed8-10" />
          <use
             id="use10210"
             y="137.901"
             x="343.994579"
             xlink:href="#textext-021b8ed8-11" />
        </g>
        <g
           id="g10212"
           style="fill:rgb(0%,0%,0%);fill-opacity:1;">
          <use
             id="use10214"
             y="135.562"
             x="349.161"
             xlink:href="#textext-021b8ed8-5" />
          <use
             id="use10216"
             y="135.562"
             x="354.624033"
             xlink:href="#textext-021b8ed8-4" />
        </g>
        <g
           id="g10218"
           style="fill:rgb(0%,0%,0%);fill-opacity:1;">
          <use
             id="use10220"
             y="134.466"
             x="360.087"
             xlink:href="#textext-021b8ed8-18" />
          <use
             id="use10222"
             y="134.466"
             x="365.0683"
             xlink:href="#textext-021b8ed8-19" />
        </g>
        <g
           id="g10224"
           style="fill:rgb(0%,0%,0%);fill-opacity:1;">
          <use
             id="use10226"
             y="130.543"
             x="376.103"
             xlink:href="#textext-021b8ed8-8" />
        </g>
        <path
           id="path10228"
           transform="matrix(1,0,0,-1,374.012,131.975)"
           d="M -0.00028125 -0.0015625 L 7.941125 -0.0015625 "
           style="fill:none;stroke-width:0.398;stroke-linecap:butt;stroke-linejoin:miter;stroke:rgb(0%,0%,0%);stroke-opacity:1;stroke-miterlimit:10;" />
        <g
           id="g10230"
           style="fill:rgb(0%,0%,0%);fill-opacity:1;">
          <use
             id="use10232"
             y="137.901"
             x="374.012"
             xlink:href="#textext-021b8ed8-12" />
          <use
             id="use10234"
             y="137.901"
             x="377.983579"
             xlink:href="#textext-021b8ed8-11" />
        </g>
        <g
           id="g10236"
           style="fill:rgb(0%,0%,0%);fill-opacity:1;">
          <use
             id="use10238"
             y="135.562"
             x="383.15"
             xlink:href="#textext-021b8ed8-5" />
        </g>
        <path
           id="path10240"
           transform="matrix(1,0,0,-1,270.623,139.746)"
           d="M -0.00190625 -0.00009375 L 161.638719 -0.00009375 "
           style="fill:none;stroke-width:0.398;stroke-linecap:butt;stroke-linejoin:miter;stroke:rgb(0%,0%,0%);stroke-opacity:1;stroke-miterlimit:10;" />
        <g
           id="g10242"
           style="fill:rgb(0%,0%,0%);fill-opacity:1;">
          <use
             id="use10244"
             y="150.008"
             x="270.623"
             xlink:href="#textext-021b8ed8-20" />
        </g>
        <g
           id="g10246"
           style="fill:rgb(0%,0%,0%);fill-opacity:1;">
          <use
             id="use10248"
             y="150.008"
             x="274.497"
             xlink:href="#textext-021b8ed8-23" />
        </g>
        <g
           id="g10250"
           style="fill:rgb(0%,0%,0%);fill-opacity:1;">
          <use
             id="use10252"
             y="150.008"
             x="279.167"
             xlink:href="#textext-021b8ed8-19" />
          <use
             id="use10254"
             y="150.008"
             x="286.91591"
             xlink:href="#textext-021b8ed8-18" />
          <use
             id="use10256"
             y="150.008"
             x="291.89721"
             xlink:href="#textext-021b8ed8-21" />
        </g>
        <g
           id="g10258"
           style="fill:rgb(0%,0%,0%);fill-opacity:1;">
          <use
             id="use10260"
             y="147.13"
             x="295.772"
             xlink:href="#textext-021b8ed8-10" />
        </g>
        <g
           id="g10262"
           style="fill:rgb(0%,0%,0%);fill-opacity:1;">
          <use
             id="use10264"
             y="151.104"
             x="300.241"
             xlink:href="#textext-021b8ed8-4" />
        </g>
        <g
           id="g10266"
           style="fill:rgb(0%,0%,0%);fill-opacity:1;">
          <use
             id="use10268"
             y="150.008"
             x="305.704"
             xlink:href="#textext-021b8ed8-18" />
          <use
             id="use10270"
             y="150.008"
             x="310.6853"
             xlink:href="#textext-021b8ed8-19" />
        </g>
        <g
           id="g10272"
           style="fill:rgb(0%,0%,0%);fill-opacity:1;">
          <use
             id="use10274"
             y="146.085"
             x="327.124"
             xlink:href="#textext-021b8ed8-8" />
        </g>
        <path
           id="path10276"
           transform="matrix(1,0,0,-1,319.629,147.517)"
           d="M -0.00009375 0.001375 L 18.749906 0.001375 "
           style="fill:none;stroke-width:0.398;stroke-linecap:butt;stroke-linejoin:miter;stroke:rgb(0%,0%,0%);stroke-opacity:1;stroke-miterlimit:10;" />
        <g
           id="g10278"
           style="fill:rgb(0%,0%,0%);fill-opacity:1;">
          <use
             id="use10280"
             y="154.601"
             x="319.629"
             xlink:href="#textext-021b8ed8-12" />
        </g>
        <g
           id="g10282"
           style="fill:rgb(0%,0%,0%);fill-opacity:1;">
          <use
             id="use10284"
             y="154.601"
             x="323.601"
             xlink:href="#textext-021b8ed8-25" />
        </g>
        <g
           id="g10286"
           style="fill:rgb(0%,0%,0%);fill-opacity:1;">
          <use
             id="use10288"
             y="154.601"
             x="325.967"
             xlink:href="#textext-021b8ed8-13" />
          <use
             id="use10290"
             y="154.601"
             x="329.938579"
             xlink:href="#textext-021b8ed8-11" />
        </g>
        <g
           id="g10292"
           style="fill:rgb(0%,0%,0%);fill-opacity:1;">
          <use
             id="use10294"
             y="152.609"
             x="333.909"
             xlink:href="#textext-021b8ed8-14" />
        </g>
        <g
           id="g10296"
           style="fill:rgb(0%,0%,0%);fill-opacity:1;">
          <use
             id="use10298"
             y="151.104"
             x="339.574"
             xlink:href="#textext-021b8ed8-5" />
          <use
             id="use10300"
             y="151.104"
             x="345.037033"
             xlink:href="#textext-021b8ed8-4" />
        </g>
        <g
           id="g10302"
           style="fill:rgb(0%,0%,0%);fill-opacity:1;">
          <use
             id="use10304"
             y="150.008"
             x="350.5"
             xlink:href="#textext-021b8ed8-18" />
          <use
             id="use10306"
             y="150.008"
             x="355.4813"
             xlink:href="#textext-021b8ed8-19" />
        </g>
        <g
           id="g10308"
           style="fill:rgb(0%,0%,0%);fill-opacity:1;">
          <use
             id="use10310"
             y="146.085"
             x="373.905"
             xlink:href="#textext-021b8ed8-8" />
        </g>
        <path
           id="path10312"
           transform="matrix(1,0,0,-1,364.425,147.517)"
           d="M 0.00078125 0.001375 L 22.719531 0.001375 "
           style="fill:none;stroke-width:0.398;stroke-linecap:butt;stroke-linejoin:miter;stroke:rgb(0%,0%,0%);stroke-opacity:1;stroke-miterlimit:10;" />
        <g
           id="g10314"
           style="fill:rgb(0%,0%,0%);fill-opacity:1;">
          <use
             id="use10316"
             y="154.601"
             x="364.425"
             xlink:href="#textext-021b8ed8-15" />
          <use
             id="use10318"
             y="154.601"
             x="368.396579"
             xlink:href="#textext-021b8ed8-11" />
        </g>
        <g
           id="g10320"
           style="fill:rgb(0%,0%,0%);fill-opacity:1;">
          <use
             id="use10322"
             y="154.601"
             x="372.368"
             xlink:href="#textext-021b8ed8-25" />
        </g>
        <g
           id="g10324"
           style="fill:rgb(0%,0%,0%);fill-opacity:1;">
          <use
             id="use10326"
             y="154.601"
             x="374.734"
             xlink:href="#textext-021b8ed8-13" />
          <use
             id="use10328"
             y="154.601"
             x="378.705579"
             xlink:href="#textext-021b8ed8-11" />
        </g>
        <g
           id="g10330"
           style="fill:rgb(0%,0%,0%);fill-opacity:1;">
          <use
             id="use10332"
             y="152.609"
             x="382.676"
             xlink:href="#textext-021b8ed8-14" />
        </g>
        <g
           id="g10334"
           style="fill:rgb(0%,0%,0%);fill-opacity:1;">
          <use
             id="use10336"
             y="151.104"
             x="388.341"
             xlink:href="#textext-021b8ed8-5" />
          <use
             id="use10338"
             y="151.104"
             x="393.804033"
             xlink:href="#textext-021b8ed8-4" />
        </g>
        <g
           id="g10340"
           style="fill:rgb(0%,0%,0%);fill-opacity:1;">
          <use
             id="use10342"
             y="150.008"
             x="399.267"
             xlink:href="#textext-021b8ed8-18" />
          <use
             id="use10344"
             y="150.008"
             x="404.2483"
             xlink:href="#textext-021b8ed8-19" />
        </g>
        <g
           id="g10346"
           style="fill:rgb(0%,0%,0%);fill-opacity:1;">
          <use
             id="use10348"
             y="146.085"
             x="417.518"
             xlink:href="#textext-021b8ed8-8" />
        </g>
        <path
           id="path10350"
           transform="matrix(1,0,0,-1,413.192,147.517)"
           d="M -0.00059375 0.001375 L 12.413469 0.001375 "
           style="fill:none;stroke-width:0.398;stroke-linecap:butt;stroke-linejoin:miter;stroke:rgb(0%,0%,0%);stroke-opacity:1;stroke-miterlimit:10;" />
        <g
           id="g10352"
           style="fill:rgb(0%,0%,0%);fill-opacity:1;">
          <use
             id="use10354"
             y="154.601"
             x="413.192"
             xlink:href="#textext-021b8ed8-13" />
          <use
             id="use10356"
             y="154.601"
             x="417.163579"
             xlink:href="#textext-021b8ed8-11" />
        </g>
        <g
           id="g10358"
           style="fill:rgb(0%,0%,0%);fill-opacity:1;">
          <use
             id="use10360"
             y="152.609"
             x="421.135"
             xlink:href="#textext-021b8ed8-16" />
        </g>
        <g
           id="g10362"
           style="fill:rgb(0%,0%,0%);fill-opacity:1;">
          <use
             id="use10364"
             y="151.104"
             x="426.8"
             xlink:href="#textext-021b8ed8-5" />
        </g>
      </g>
    </g>
  </g>
</svg>
