<?xml version="1.0" encoding="UTF-8" standalone="no"?>
<!-- Created with Inkscape (http://www.inkscape.org/) -->

<svg
   xmlns:ns0="http://www.iki.fi/pav/software/textext/"
   xmlns:dc="http://purl.org/dc/elements/1.1/"
   xmlns:cc="http://creativecommons.org/ns#"
   xmlns:rdf="http://www.w3.org/1999/02/22-rdf-syntax-ns#"
   xmlns:svg="http://www.w3.org/2000/svg"
   xmlns="http://www.w3.org/2000/svg"
   xmlns:xlink="http://www.w3.org/1999/xlink"
   xmlns:sodipodi="http://sodipodi.sourceforge.net/DTD/sodipodi-0.dtd"
   xmlns:inkscape="http://www.inkscape.org/namespaces/inkscape"
   width="425"
   height="110"
   id="svg14078"
   version="1.1"
   inkscape:version="0.48.4 r9939"
   sodipodi:docname="stampRz.svg">
  <sodipodi:namedview
     id="base"
     pagecolor="#ffffff"
     bordercolor="#666666"
     borderopacity="1.0"
     inkscape:pageopacity="0.0"
     inkscape:pageshadow="2"
     inkscape:zoom="1.979899"
     inkscape:cx="176.79755"
     inkscape:cy="168.4921"
     inkscape:document-units="px"
     inkscape:current-layer="layer1"
     showgrid="true"
     inkscape:object-paths="true"
     inkscape:object-nodes="true"
     inkscape:window-width="1665"
     inkscape:window-height="1028"
     inkscape:window-x="168"
     inkscape:window-y="0"
     inkscape:window-maximized="0"
     fit-margin-top="0"
     fit-margin-left="0"
     fit-margin-right="0"
     fit-margin-bottom="0">
    <inkscape:grid
       id="grid14086"
       type="xygrid"
       empspacing="5"
       visible="true"
       enabled="true"
       snapvisiblegridlinesonly="true"
       originx="55px"
       originy="-880px" />
  </sodipodi:namedview>
  <defs
     id="defs14080">
    <marker
       style="overflow:visible"
       id="Arrow2Mend-00"
       refX="0"
       refY="0"
       orient="auto"
       inkscape:stockid="Arrow2Mend">
      <path
         transform="scale(-0.6,-0.6)"
         d="M 8.7185878,4.0337352 -2.2072895,0.01601326 8.7185884,-4.0017078 c -1.7454984,2.3720609 -1.7354408,5.6174519 -6e-7,8.035443 z"
         style="font-size:12px;fill-rule:evenodd;stroke-width:0.625;stroke-linejoin:round"
         id="path5872-4"
         inkscape:connector-curvature="0" />
    </marker>
    <marker
       inkscape:stockid="Arrow2Mend"
       orient="auto"
       refY="0"
       refX="0"
       id="Arrow2Mend-00-6"
       style="overflow:visible">
      <path
         inkscape:connector-curvature="0"
         id="path5872-4-75"
         style="font-size:12px;fill-rule:evenodd;stroke-width:0.625;stroke-linejoin:round"
         d="M 8.7185878,4.0337352 -2.2072895,0.01601326 8.7185884,-4.0017078 c -1.7454984,2.3720609 -1.7354408,5.6174519 -6e-7,8.035443 z"
         transform="scale(-0.6,-0.6)" />
    </marker>
  </defs>
  <metadata
     id="metadata14083">
    <rdf:RDF>
      <cc:Work
         rdf:about="">
        <dc:format>image/svg+xml</dc:format>
        <dc:type
           rdf:resource="http://purl.org/dc/dcmitype/StillImage" />
        <dc:title></dc:title>
      </cc:Work>
    </rdf:RDF>
  </metadata>
  <g
     id="layer1"
     inkscape:groupmode="layer"
     inkscape:label="Layer 1"
     transform="translate(55,-62.362183)">
    <g
       transform="translate(-55,-133.00002)"
       id="g60446">
      <path
         transform="matrix(2,0,0,1.9999986,-482,193.63786)"
         d="m 307,28.362183 c 0,0.552284 -0.44772,1 -1,1 -0.55228,0 -1,-0.447716 -1,-1 0,-0.552285 0.44772,-1 1,-1 0.55228,0 1,0.447715 1,1 z"
         sodipodi:ry="1"
         sodipodi:rx="1"
         sodipodi:cy="28.362183"
         sodipodi:cx="306"
         id="path6451-2-6"
         style="fill:#000000;fill-opacity:1;stroke:#000000;stroke-opacity:1"
         sodipodi:type="arc" />
      <path
         transform="matrix(2,0,0,1.9999986,-482,233.63786)"
         d="m 307,28.362183 c 0,0.552284 -0.44772,1 -1,1 -0.55228,0 -1,-0.447716 -1,-1 0,-0.552285 0.44772,-1 1,-1 0.55228,0 1,0.447715 1,1 z"
         sodipodi:ry="1"
         sodipodi:rx="1"
         sodipodi:cy="28.362183"
         sodipodi:cx="306"
         id="path6451-2-0"
         style="fill:#000000;fill-opacity:1;stroke:#000000;stroke-opacity:1"
         sodipodi:type="arc" />
      <text
         xml:space="preserve"
         style="font-size:8px;font-style:normal;font-variant:normal;font-weight:normal;font-stretch:normal;text-align:start;line-height:100%;writing-mode:lr-tb;text-anchor:start;fill:#000000;fill-opacity:1;stroke:none;font-family:Arial;-inkscape-font-specification:Arial"
         x="115"
         y="290.36221"
         id="text60130-9-2"
         sodipodi:linespacing="100%"><tspan
           sodipodi:role="line"
           id="tspan60132-3-1"
           x="115"
           y="290.36221">(2)</tspan></text>
      <text
         xml:space="preserve"
         style="font-size:8px;font-style:normal;font-variant:normal;font-weight:normal;font-stretch:normal;text-align:start;line-height:100%;writing-mode:lr-tb;text-anchor:start;fill:#000000;fill-opacity:1;stroke:none;font-family:Arial;-inkscape-font-specification:Arial"
         x="115"
         y="250.3622"
         id="text60130-0"
         sodipodi:linespacing="100%"><tspan
           sodipodi:role="line"
           id="tspan60132-5"
           x="115"
           y="250.3622">(1)</tspan></text>
      <g
         id="g6192"
         transform="translate(-255,238.00001)">
        <rect
           style="fill:none;stroke:#000000;stroke-width:1;stroke-linecap:round;stroke-miterlimit:4;stroke-opacity:1;stroke-dasharray:none"
           id="rect6682"
           y="22.362188"
           x="380"
           height="20"
           width="10" />
        <path
           style="fill:none;stroke:#000000;stroke-width:0.99921262;stroke-linecap:round;stroke-linejoin:miter;stroke-miterlimit:4;stroke-opacity:1;stroke-dasharray:none"
           id="path6684"
           d="m 385,12.3621 0,10.0001"
           inkscape:connector-curvature="0" />
        <path
           style="fill:none;stroke:#000000;stroke-width:0.99921262;stroke-linecap:round;stroke-linejoin:miter;stroke-miterlimit:4;stroke-opacity:1;stroke-dasharray:none"
           id="path6684-3"
           d="m 385,42.3622 0,10"
           inkscape:connector-curvature="0" />
      </g>
    </g>
    <text
       sodipodi:linespacing="100%"
       id="text60370-1"
       y="92.362183"
       x="45"
       style="font-size:8px;font-style:normal;font-variant:normal;font-weight:bold;font-stretch:normal;text-align:start;line-height:100%;writing-mode:lr-tb;text-anchor:start;fill:#000000;fill-opacity:1;stroke:none;font-family:Courier New;-inkscape-font-specification:Courier New Bold"
       xml:space="preserve"><tspan
         y="92.362183"
         x="45"
         id="tspan60372-0"
         sodipodi:role="line">Rx 1 2 {R}</tspan></text>
    <text
       xml:space="preserve"
       style="font-size:10px;font-style:normal;font-variant:normal;font-weight:normal;font-stretch:normal;text-align:start;line-height:125%;letter-spacing:0px;word-spacing:0px;writing-mode:lr-tb;text-anchor:start;fill:#000000;fill-opacity:1;stroke:none;font-family:Sans;-inkscape-font-specification:Sans"
       x="45"
       y="77.362183"
       id="text13474-1"
       sodipodi:linespacing="125%"><tspan
         sodipodi:role="line"
         id="tspan13476-2"
         x="45"
         y="77.362183">Resistor</tspan></text>
    <path
       style="fill:none;stroke:#000000;stroke-width:1px;stroke-linecap:butt;stroke-linejoin:miter;stroke-opacity:1;marker-end:url(#Arrow2Mend-00-6)"
       d="m 60,127.36218 0,20"
       id="path26135-46"
       inkscape:connector-curvature="0" />
    <rect
       style="fill:#0064ff;fill-opacity:0.0745098;stroke:none"
       id="rect6470-9-4-1"
       y="62.362183"
       x="-55"
       height="110"
       width="425" />
    <g
       id="g15944"
       transform="translate(-140.52538,3.3579004)"
       ns0:preamble=""
       ns0:text="{$R$}">
      <defs
         id="defs15946">
        <g
           id="g15948">
          <symbol
             id="textext-a963a760-0"
             overflow="visible"
             style="overflow:visible">
            <path
               id="path15951"
               d=""
               style="stroke:none"
               inkscape:connector-curvature="0" />
          </symbol>
          <symbol
             id="textext-a963a760-1"
             overflow="visible"
             style="overflow:visible">
            <path
               id="path15954"
               d="m 3.734375,-6.125 c 0.0625,-0.234375 0.09375,-0.328125 0.28125,-0.359375 C 4.109375,-6.5 4.421875,-6.5 4.625,-6.5 c 0.703125,0 1.8125,0 1.8125,0.984375 0,0.34375 -0.15625,1.03125 -0.546875,1.421875 -0.265625,0.25 -0.78125,0.578125 -1.6875,0.578125 l -1.109375,0 z m 1.4375,2.734375 c 1.015625,-0.21875 2.1875,-0.921875 2.1875,-1.921875 0,-0.859375 -0.890625,-1.5 -2.203125,-1.5 l -2.828125,0 c -0.203125,0 -0.296875,0 -0.296875,0.203125 C 2.03125,-6.5 2.125,-6.5 2.3125,-6.5 c 0.015625,0 0.203125,0 0.375,0.015625 0.1875,0.03125 0.265625,0.03125 0.265625,0.171875 0,0.03125 0,0.0625 -0.03125,0.1875 l -1.34375,5.34375 C 1.484375,-0.390625 1.46875,-0.3125 0.671875,-0.3125 0.5,-0.3125 0.40625,-0.3125 0.40625,-0.109375 0.40625,0 0.53125,0 0.546875,0 c 0.28125,0 0.984375,-0.03125 1.25,-0.03125 0.28125,0 1,0.03125 1.28125,0.03125 0.078125,0 0.1875,0 0.1875,-0.203125 0,-0.109375 -0.078125,-0.109375 -0.28125,-0.109375 -0.359375,0 -0.640625,0 -0.640625,-0.171875 0,-0.0625 0.015625,-0.109375 0.03125,-0.171875 l 0.65625,-2.640625 1.1875,0 c 0.90625,0 1.078125,0.5625 1.078125,0.90625 0,0.140625 -0.078125,0.453125 -0.140625,0.6875 C 5.09375,-1.421875 5,-1.0625 5,-0.859375 5,0.21875 6.203125,0.21875 6.328125,0.21875 c 0.84375,0 1.203125,-1 1.203125,-1.140625 0,-0.125 -0.109375,-0.125 -0.125,-0.125 -0.09375,0 -0.109375,0.0625 -0.125,0.140625 C 7.03125,-0.171875 6.59375,0 6.375,0 6.046875,0 5.96875,-0.21875 5.96875,-0.609375 c 0,-0.3125 0.0625,-0.8125 0.109375,-1.140625 0.015625,-0.140625 0.03125,-0.328125 0.03125,-0.46875 0,-0.765625 -0.671875,-1.078125 -0.9375,-1.171875 z m 0,0"
               style="stroke:none"
               inkscape:connector-curvature="0" />
          </symbol>
        </g>
      </defs>
      <g
         id="textext-a963a760-2">
        <g
           id="g15957"
           style="fill:#000000;fill-opacity:1">
          <use
             id="use15959"
             y="134.765"
             x="223.43201"
             xlink:href="#textext-a963a760-1"
             width="744.09448"
             height="1052.3622" />
        </g>
      </g>
    </g>
    <g
       id="g16550"
       transform="translate(-111.94992,2.5519298)"
       ns0:preamble=""
       ns0:text="$\\left[\n\\begin{array}\n[c]{c}%\n0\\\\\n0\\\\\n0\n\\end{array}\n\\right]  =\\left[\n\\begin{array}\n[c]{ccc}%\n0 &amp; 0 &amp; 1\\\\\n0 &amp; 0 &amp; -1\\\\\n1 &amp; -1 &amp; -R\n\\end{array}\n\\right]  \\left[\n\\begin{array}\n[c]{c}%\nV_{1}\\\\\nV_{2}\\\\\nI_{Rx}%\n\\end{array}\n\\right]  $">
      <defs
         id="defs16552">
        <g
           id="g16554">
          <symbol
             id="textext-63055e22-0"
             overflow="visible"
             style="overflow:visible">
            <path
               id="path16557"
               d=""
               style="stroke:none"
               inkscape:connector-curvature="0" />
          </symbol>
          <symbol
             id="textext-63055e22-1"
             overflow="visible"
             style="overflow:visible">
            <path
               id="path16560"
               d="m 3.25,17.546875 0.6875,0 0,-17.25 2.625,0 0,-0.6875 -3.3125,0 z m 0,0"
               style="stroke:none"
               inkscape:connector-curvature="0" />
          </symbol>
          <symbol
             id="textext-63055e22-2"
             overflow="visible"
             style="overflow:visible">
            <path
               id="path16563"
               d="m 3.25,17.53125 3.3125,0 0,-0.6875 -2.625,0 0,-17.25 -0.6875,0 z m 0,0"
               style="stroke:none"
               inkscape:connector-curvature="0" />
          </symbol>
          <symbol
             id="textext-63055e22-3"
             overflow="visible"
             style="overflow:visible">
            <path
               id="path16566"
               d="m 2.703125,17.546875 0.6875,0 0,-17.9375 -3.328125,0 0,0.6875 2.640625,0 z m 0,0"
               style="stroke:none"
               inkscape:connector-curvature="0" />
          </symbol>
          <symbol
             id="textext-63055e22-4"
             overflow="visible"
             style="overflow:visible">
            <path
               id="path16569"
               d="m 2.703125,16.84375 -2.640625,0 0,0.6875 3.328125,0 0,-17.9375 -0.6875,0 z m 0,0"
               style="stroke:none"
               inkscape:connector-curvature="0" />
          </symbol>
          <symbol
             id="textext-63055e22-5"
             overflow="visible"
             style="overflow:visible">
            <path
               id="path16572"
               d=""
               style="stroke:none"
               inkscape:connector-curvature="0" />
          </symbol>
          <symbol
             id="textext-63055e22-6"
             overflow="visible"
             style="overflow:visible">
            <path
               id="path16575"
               d="m 4.578125,-3.1875 c 0,-0.796875 -0.046875,-1.59375 -0.390625,-2.328125 -0.453125,-0.96875 -1.28125,-1.125 -1.6875,-1.125 -0.609375,0 -1.328125,0.265625 -1.75,1.1875 -0.3125,0.6875 -0.359375,1.46875 -0.359375,2.265625 0,0.75 0.03125,1.640625 0.453125,2.40625 0.421875,0.796875 1.15625,1 1.640625,1 0.53125,0 1.296875,-0.203125 1.734375,-1.15625 0.3125,-0.6875 0.359375,-1.46875 0.359375,-2.25 z M 2.484375,0 C 2.09375,0 1.5,-0.25 1.328125,-1.203125 1.21875,-1.796875 1.21875,-2.71875 1.21875,-3.3125 c 0,-0.640625 0,-1.296875 0.078125,-1.828125 0.1875,-1.1875 0.9375,-1.28125 1.1875,-1.28125 0.328125,0 0.984375,0.1875 1.171875,1.171875 0.109375,0.5625 0.109375,1.3125 0.109375,1.9375 0,0.75 0,1.421875 -0.109375,2.0625 C 3.5,-0.296875 2.9375,0 2.484375,0 z m 0,0"
               style="stroke:none"
               inkscape:connector-curvature="0" />
          </symbol>
          <symbol
             id="textext-63055e22-7"
             overflow="visible"
             style="overflow:visible">
            <path
               id="path16578"
               d="m 6.84375,-3.265625 c 0.15625,0 0.34375,0 0.34375,-0.1875 C 7.1875,-3.65625 7,-3.65625 6.859375,-3.65625 l -5.96875,0 c -0.140625,0 -0.328125,0 -0.328125,0.203125 0,0.1875 0.1875,0.1875 0.328125,0.1875 z m 0.015625,1.9375 c 0.140625,0 0.328125,0 0.328125,-0.203125 0,-0.1875 -0.1875,-0.1875 -0.34375,-0.1875 l -5.953125,0 c -0.140625,0 -0.328125,0 -0.328125,0.1875 0,0.203125 0.1875,0.203125 0.328125,0.203125 z m 0,0"
               style="stroke:none"
               inkscape:connector-curvature="0" />
          </symbol>
          <symbol
             id="textext-63055e22-8"
             overflow="visible"
             style="overflow:visible">
            <path
               id="path16581"
               d="m 2.9375,-6.375 c 0,-0.25 0,-0.265625 -0.234375,-0.265625 C 2.078125,-6 1.203125,-6 0.890625,-6 l 0,0.3125 c 0.203125,0 0.78125,0 1.296875,-0.265625 l 0,5.171875 c 0,0.359375 -0.03125,0.46875 -0.921875,0.46875 l -0.3125,0 0,0.3125 c 0.34375,-0.03125 1.203125,-0.03125 1.609375,-0.03125 0.390625,0 1.265625,0 1.609375,0.03125 l 0,-0.3125 -0.3125,0 c -0.90625,0 -0.921875,-0.109375 -0.921875,-0.46875 z m 0,0"
               style="stroke:none"
               inkscape:connector-curvature="0" />
          </symbol>
          <symbol
             id="textext-63055e22-9"
             overflow="visible"
             style="overflow:visible">
            <path
               id="path16584"
               d=""
               style="stroke:none"
               inkscape:connector-curvature="0" />
          </symbol>
          <symbol
             id="textext-63055e22-10"
             overflow="visible"
             style="overflow:visible">
            <path
               id="path16587"
               d="m 6.5625,-2.296875 c 0.171875,0 0.359375,0 0.359375,-0.203125 0,-0.1875 -0.1875,-0.1875 -0.359375,-0.1875 l -5.390625,0 c -0.171875,0 -0.34375,0 -0.34375,0.1875 0,0.203125 0.171875,0.203125 0.34375,0.203125 z m 0,0"
               style="stroke:none"
               inkscape:connector-curvature="0" />
          </symbol>
          <symbol
             id="textext-63055e22-11"
             overflow="visible"
             style="overflow:visible">
            <path
               id="path16590"
               d=""
               style="stroke:none"
               inkscape:connector-curvature="0" />
          </symbol>
          <symbol
             id="textext-63055e22-12"
             overflow="visible"
             style="overflow:visible">
            <path
               id="path16593"
               d="m 3.734375,-6.125 c 0.0625,-0.234375 0.09375,-0.328125 0.28125,-0.359375 C 4.109375,-6.5 4.421875,-6.5 4.625,-6.5 c 0.703125,0 1.8125,0 1.8125,0.984375 0,0.34375 -0.15625,1.03125 -0.546875,1.421875 -0.265625,0.25 -0.78125,0.578125 -1.6875,0.578125 l -1.109375,0 z m 1.4375,2.734375 c 1.015625,-0.21875 2.1875,-0.921875 2.1875,-1.921875 0,-0.859375 -0.890625,-1.5 -2.203125,-1.5 l -2.828125,0 c -0.203125,0 -0.296875,0 -0.296875,0.203125 C 2.03125,-6.5 2.125,-6.5 2.3125,-6.5 c 0.015625,0 0.203125,0 0.375,0.015625 0.1875,0.03125 0.265625,0.03125 0.265625,0.171875 0,0.03125 0,0.0625 -0.03125,0.1875 l -1.34375,5.34375 C 1.484375,-0.390625 1.46875,-0.3125 0.671875,-0.3125 0.5,-0.3125 0.40625,-0.3125 0.40625,-0.109375 0.40625,0 0.53125,0 0.546875,0 c 0.28125,0 0.984375,-0.03125 1.25,-0.03125 0.28125,0 1,0.03125 1.28125,0.03125 0.078125,0 0.1875,0 0.1875,-0.203125 0,-0.109375 -0.078125,-0.109375 -0.28125,-0.109375 -0.359375,0 -0.640625,0 -0.640625,-0.171875 0,-0.0625 0.015625,-0.109375 0.03125,-0.171875 l 0.65625,-2.640625 1.1875,0 c 0.90625,0 1.078125,0.5625 1.078125,0.90625 0,0.140625 -0.078125,0.453125 -0.140625,0.6875 C 5.09375,-1.421875 5,-1.0625 5,-0.859375 5,0.21875 6.203125,0.21875 6.328125,0.21875 c 0.84375,0 1.203125,-1 1.203125,-1.140625 0,-0.125 -0.109375,-0.125 -0.125,-0.125 -0.09375,0 -0.109375,0.0625 -0.125,0.140625 C 7.03125,-0.171875 6.59375,0 6.375,0 6.046875,0 5.96875,-0.21875 5.96875,-0.609375 c 0,-0.3125 0.0625,-0.8125 0.109375,-1.140625 0.015625,-0.140625 0.03125,-0.328125 0.03125,-0.46875 0,-0.765625 -0.671875,-1.078125 -0.9375,-1.171875 z m 0,0"
               style="stroke:none"
               inkscape:connector-curvature="0" />
          </symbol>
          <symbol
             id="textext-63055e22-13"
             overflow="visible"
             style="overflow:visible">
            <path
               id="path16596"
               d="M 6.265625,-5.671875 C 6.75,-6.453125 7.171875,-6.484375 7.53125,-6.5 c 0.125,-0.015625 0.140625,-0.171875 0.140625,-0.1875 0,-0.078125 -0.0625,-0.125 -0.140625,-0.125 -0.25,0 -0.546875,0.03125 -0.8125,0.03125 -0.328125,0 -0.671875,-0.03125 -0.984375,-0.03125 -0.0625,0 -0.1875,0 -0.1875,0.1875 0,0.109375 0.078125,0.125 0.15625,0.125 0.265625,0.015625 0.453125,0.125 0.453125,0.328125 0,0.15625 -0.140625,0.375 -0.140625,0.375 l -3.0625,4.875 -0.6875,-5.28125 C 2.265625,-6.375 2.5,-6.5 2.953125,-6.5 c 0.140625,0 0.25,0 0.25,-0.203125 0,-0.078125 -0.078125,-0.109375 -0.125,-0.109375 -0.40625,0 -0.828125,0.03125 -1.25,0.03125 -0.171875,0 -0.359375,0 -0.546875,0 -0.171875,0 -0.359375,-0.03125 -0.53125,-0.03125 -0.078125,0 -0.1875,0 -0.1875,0.1875 0,0.125 0.078125,0.125 0.25,0.125 0.546875,0 0.5625,0.09375 0.59375,0.34375 L 2.1875,-0.015625 C 2.21875,0.1875 2.265625,0.21875 2.390625,0.21875 c 0.15625,0 0.203125,-0.046875 0.28125,-0.171875 z m 0,0"
               style="stroke:none"
               inkscape:connector-curvature="0" />
          </symbol>
          <symbol
             id="textext-63055e22-14"
             overflow="visible"
             style="overflow:visible">
            <path
               id="path16599"
               d="M 3.734375,-6.046875 C 3.8125,-6.40625 3.84375,-6.5 4.640625,-6.5 c 0.234375,0 0.3125,0 0.3125,-0.1875 0,-0.125 -0.109375,-0.125 -0.140625,-0.125 -0.296875,0 -1.03125,0.03125 -1.328125,0.03125 -0.296875,0 -1.015625,-0.03125 -1.328125,-0.03125 -0.0625,0 -0.1875,0 -0.1875,0.203125 C 1.96875,-6.5 2.046875,-6.5 2.25,-6.5 c 0.40625,0 0.6875,0 0.6875,0.1875 0,0.046875 0,0.078125 -0.03125,0.15625 l -1.34375,5.375 c -0.09375,0.375 -0.109375,0.46875 -0.90625,0.46875 -0.234375,0 -0.3125,0 -0.3125,0.203125 C 0.34375,0 0.453125,0 0.484375,0 0.78125,0 1.5,-0.03125 1.796875,-0.03125 2.09375,-0.03125 2.828125,0 3.125,0 c 0.078125,0 0.203125,0 0.203125,-0.1875 0,-0.125 -0.078125,-0.125 -0.296875,-0.125 -0.1875,0 -0.234375,0 -0.421875,-0.015625 -0.21875,-0.015625 -0.25,-0.0625 -0.25,-0.171875 0,-0.078125 0.015625,-0.15625 0.03125,-0.234375 z m 0,0"
               style="stroke:none"
               inkscape:connector-curvature="0" />
          </symbol>
          <symbol
             id="textext-63055e22-15"
             overflow="visible"
             style="overflow:visible">
            <path
               id="path16602"
               d=""
               style="stroke:none"
               inkscape:connector-curvature="0" />
          </symbol>
          <symbol
             id="textext-63055e22-16"
             overflow="visible"
             style="overflow:visible">
            <path
               id="path16605"
               d="m 2.328125,-4.4375 c 0,-0.1875 0,-0.1875 -0.203125,-0.1875 -0.453125,0.4375 -1.078125,0.4375 -1.359375,0.4375 l 0,0.25 c 0.15625,0 0.625,0 1,-0.1875 l 0,3.546875 c 0,0.234375 0,0.328125 -0.6875,0.328125 l -0.265625,0 0,0.25 c 0.125,0 0.984375,-0.03125 1.234375,-0.03125 0.21875,0 1.09375,0.03125 1.25,0.03125 l 0,-0.25 -0.265625,0 c -0.703125,0 -0.703125,-0.09375 -0.703125,-0.328125 z m 0,0"
               style="stroke:none"
               inkscape:connector-curvature="0" />
          </symbol>
          <symbol
             id="textext-63055e22-17"
             overflow="visible"
             style="overflow:visible">
            <path
               id="path16608"
               d="m 3.515625,-1.265625 -0.234375,0 c -0.015625,0.15625 -0.09375,0.5625 -0.1875,0.625 -0.046875,0.046875 -0.578125,0.046875 -0.6875,0.046875 l -1.28125,0 c 0.734375,-0.640625 0.984375,-0.84375 1.390625,-1.171875 0.515625,-0.40625 1,-0.84375 1,-1.5 0,-0.84375 -0.734375,-1.359375 -1.625,-1.359375 -0.859375,0 -1.453125,0.609375 -1.453125,1.25 0,0.34375 0.296875,0.390625 0.375,0.390625 0.15625,0 0.359375,-0.125 0.359375,-0.375 0,-0.125 -0.046875,-0.375 -0.40625,-0.375 C 0.984375,-4.21875 1.453125,-4.375 1.78125,-4.375 c 0.703125,0 1.0625,0.546875 1.0625,1.109375 0,0.609375 -0.4375,1.078125 -0.65625,1.328125 L 0.515625,-0.265625 C 0.4375,-0.203125 0.4375,-0.1875 0.4375,0 l 2.875,0 z m 0,0"
               style="stroke:none"
               inkscape:connector-curvature="0" />
          </symbol>
          <symbol
             id="textext-63055e22-18"
             overflow="visible"
             style="overflow:visible">
            <path
               id="path16611"
               d=""
               style="stroke:none"
               inkscape:connector-curvature="0" />
          </symbol>
          <symbol
             id="textext-63055e22-19"
             overflow="visible"
             style="overflow:visible">
            <path
               id="path16614"
               d="m 2.875,-4.265625 c 0.046875,-0.203125 0.0625,-0.21875 0.21875,-0.25 l 0.453125,0 c 0.640625,0 1.4375,0 1.4375,0.71875 0,0.296875 -0.125,0.734375 -0.453125,0.984375 C 4.25,-2.59375 3.8125,-2.484375 3.328125,-2.484375 l -0.890625,0 z M 4.140625,-2.375 c 0.828125,-0.1875 1.5625,-0.6875 1.5625,-1.3125 0,-0.59375 -0.703125,-1.078125 -1.71875,-1.078125 l -2.140625,0 c -0.125,0 -0.21875,0 -0.21875,0.15625 0,0.09375 0.078125,0.09375 0.21875,0.09375 0.015625,0 0.140625,0 0.265625,0.015625 0.15625,0.015625 0.15625,0.03125 0.15625,0.109375 0,0 0,0.046875 -0.015625,0.140625 L 1.3125,-0.546875 C 1.265625,-0.3125 1.25,-0.25 0.703125,-0.25 0.578125,-0.25 0.5,-0.25 0.5,-0.109375 0.5,-0.03125 0.546875,0 0.609375,0 c 0.125,0 0.296875,-0.015625 0.421875,-0.015625 0.140625,0 0.34375,-0.015625 0.46875,-0.015625 0.140625,0 0.296875,0.015625 0.4375,0.015625 C 2.09375,-0.015625 2.265625,0 2.40625,0 2.453125,0 2.5625,0 2.5625,-0.140625 2.5625,-0.25 2.484375,-0.25 2.328125,-0.25 2.21875,-0.25 2.1875,-0.25 2.0625,-0.265625 1.90625,-0.28125 1.90625,-0.296875 1.90625,-0.375 c 0,0 0,-0.046875 0.03125,-0.140625 l 0.4375,-1.765625 0.953125,0 c 0.59375,0 0.859375,0.296875 0.859375,0.625 0,0.09375 -0.0625,0.328125 -0.109375,0.484375 C 4,-0.84375 3.96875,-0.75 3.96875,-0.625 c 0,0.546875 0.515625,0.765625 1.03125,0.765625 0.640625,0 0.921875,-0.6875 0.921875,-0.8125 0,-0.015625 -0.015625,-0.09375 -0.125,-0.09375 -0.09375,0 -0.109375,0.046875 -0.125,0.125 C 5.578125,-0.34375 5.3125,-0.0625 5.03125,-0.0625 c -0.1875,0 -0.328125,-0.0625 -0.328125,-0.453125 0,-0.171875 0.046875,-0.53125 0.078125,-0.71875 0.03125,-0.1875 0.03125,-0.25 0.03125,-0.328125 0,-0.078125 0,-0.3125 -0.203125,-0.515625 C 4.484375,-2.21875 4.296875,-2.3125 4.140625,-2.375 z m 0,0"
               style="stroke:none"
               inkscape:connector-curvature="0" />
          </symbol>
          <symbol
             id="textext-63055e22-20"
             overflow="visible"
             style="overflow:visible">
            <path
               id="path16617"
               d="M 1.734375,-0.734375 C 1.671875,-0.5 1.4375,-0.125 1.078125,-0.125 c -0.015625,0 -0.234375,0 -0.375,-0.09375 0.28125,-0.09375 0.3125,-0.34375 0.3125,-0.390625 0,-0.15625 -0.125,-0.25 -0.28125,-0.25 -0.203125,0 -0.40625,0.15625 -0.40625,0.421875 0,0.34375 0.390625,0.5 0.734375,0.5 0.328125,0 0.609375,-0.1875 0.78125,-0.484375 C 2.015625,-0.0625 2.390625,0.0625 2.671875,0.0625 c 0.8125,0 1.234375,-0.859375 1.234375,-1.0625 0,-0.09375 -0.09375,-0.09375 -0.109375,-0.09375 -0.109375,0 -0.109375,0.046875 -0.140625,0.125 -0.140625,0.484375 -0.5625,0.84375 -0.953125,0.84375 -0.28125,0 -0.421875,-0.1875 -0.421875,-0.453125 0,-0.1875 0.171875,-0.8125 0.359375,-1.59375 C 2.78125,-2.703125 3.09375,-2.875 3.328125,-2.875 c 0.015625,0 0.21875,0 0.375,0.09375 -0.21875,0.0625 -0.3125,0.265625 -0.3125,0.390625 0,0.140625 0.125,0.25 0.28125,0.25 0.15625,0 0.390625,-0.125 0.390625,-0.421875 0,-0.390625 -0.453125,-0.515625 -0.71875,-0.515625 -0.359375,0 -0.640625,0.234375 -0.78125,0.5 -0.125,-0.28125 -0.453125,-0.5 -0.84375,-0.5 C 0.9375,-3.078125 0.5,-2.21875 0.5,-2 c 0,0.078125 0.09375,0.078125 0.109375,0.078125 0.09375,0 0.09375,-0.015625 0.140625,-0.109375 C 0.921875,-2.578125 1.359375,-2.875 1.703125,-2.875 1.9375,-2.875 2.125,-2.75 2.125,-2.421875 2.125,-2.28125 2.03125,-1.9375 1.96875,-1.6875 z m 0,0"
               style="stroke:none"
               inkscape:connector-curvature="0" />
          </symbol>
        </g>
      </defs>
      <g
         id="textext-63055e22-21">
        <g
           id="g16620"
           style="fill:#000000;fill-opacity:1">
          <use
             id="use16622"
             y="125.201"
             x="223.43201"
             xlink:href="#textext-63055e22-1"
             width="744.09448"
             height="1052.3622" />
        </g>
        <g
           id="g16624"
           style="fill:#000000;fill-opacity:1">
          <use
             id="use16626"
             y="143.134"
             x="223.43201"
             xlink:href="#textext-63055e22-2"
             width="744.09448"
             height="1052.3622" />
        </g>
        <g
           id="g16628"
           style="fill:#000000;fill-opacity:1">
          <use
             id="use16630"
             y="133.17101"
             x="235.05499"
             xlink:href="#textext-63055e22-6"
             width="744.09448"
             height="1052.3622" />
        </g>
        <g
           id="g16632"
           style="fill:#000000;fill-opacity:1">
          <use
             id="use16634"
             y="145.12601"
             x="235.05499"
             xlink:href="#textext-63055e22-6"
             width="744.09448"
             height="1052.3622" />
        </g>
        <g
           id="g16636"
           style="fill:#000000;fill-opacity:1">
          <use
             id="use16638"
             y="157.08099"
             x="235.05499"
             xlink:href="#textext-63055e22-6"
             width="744.09448"
             height="1052.3622" />
        </g>
        <g
           id="g16640"
           style="fill:#000000;fill-opacity:1">
          <use
             id="use16642"
             y="125.201"
             x="245.01801"
             xlink:href="#textext-63055e22-3"
             width="744.09448"
             height="1052.3622" />
        </g>
        <g
           id="g16644"
           style="fill:#000000;fill-opacity:1">
          <use
             id="use16646"
             y="143.134"
             x="245.01801"
             xlink:href="#textext-63055e22-4"
             width="744.09448"
             height="1052.3622" />
        </g>
        <g
           id="g16648"
           style="fill:#000000;fill-opacity:1">
          <use
             id="use16650"
             y="145.226"
             x="254.427"
             xlink:href="#textext-63055e22-7"
             width="744.09448"
             height="1052.3622" />
        </g>
        <g
           id="g16652"
           style="fill:#000000;fill-opacity:1">
          <use
             id="use16654"
             y="125.201"
             x="264.94299"
             xlink:href="#textext-63055e22-1"
             width="744.09448"
             height="1052.3622" />
        </g>
        <g
           id="g16656"
           style="fill:#000000;fill-opacity:1">
          <use
             id="use16658"
             y="143.134"
             x="264.94299"
             xlink:href="#textext-63055e22-2"
             width="744.09448"
             height="1052.3622" />
        </g>
        <g
           id="g16660"
           style="fill:#000000;fill-opacity:1">
          <use
             id="use16662"
             y="133.17101"
             x="276.56601"
             xlink:href="#textext-63055e22-6"
             width="744.09448"
             height="1052.3622" />
        </g>
        <g
           id="g16664"
           style="fill:#000000;fill-opacity:1">
          <use
             id="use16666"
             y="133.17101"
             x="295.38535"
             xlink:href="#textext-63055e22-6"
             width="744.09448"
             height="1052.3622" />
        </g>
        <g
           id="g16668"
           style="fill:#000000;fill-opacity:1">
          <use
             id="use16670"
             y="133.17101"
             x="319.40518"
             xlink:href="#textext-63055e22-8"
             width="744.09448"
             height="1052.3622" />
        </g>
        <g
           id="g16672"
           style="fill:#000000;fill-opacity:1">
          <use
             id="use16674"
             y="145.12601"
             x="276.56601"
             xlink:href="#textext-63055e22-6"
             width="744.09448"
             height="1052.3622" />
        </g>
        <g
           id="g16676"
           style="fill:#000000;fill-opacity:1">
          <use
             id="use16678"
             y="145.12601"
             x="295.38535"
             xlink:href="#textext-63055e22-6"
             width="744.09448"
             height="1052.3622" />
        </g>
        <g
           id="g16680"
           style="fill:#000000;fill-opacity:1">
          <use
             id="use16682"
             y="145.12601"
             x="315.53299"
             xlink:href="#textext-63055e22-10"
             width="744.09448"
             height="1052.3622" />
        </g>
        <g
           id="g16684"
           style="fill:#000000;fill-opacity:1">
          <use
             id="use16686"
             y="145.12601"
             x="323.28201"
             xlink:href="#textext-63055e22-8"
             width="744.09448"
             height="1052.3622" />
        </g>
        <g
           id="g16688"
           style="fill:#000000;fill-opacity:1">
          <use
             id="use16690"
             y="157.08099"
             x="276.56601"
             xlink:href="#textext-63055e22-8"
             width="744.09448"
             height="1052.3622" />
        </g>
        <g
           id="g16692"
           style="fill:#000000;fill-opacity:1">
          <use
             id="use16694"
             y="157.08099"
             x="291.51001"
             xlink:href="#textext-63055e22-10"
             width="744.09448"
             height="1052.3622" />
        </g>
        <g
           id="g16696"
           style="fill:#000000;fill-opacity:1">
          <use
             id="use16698"
             y="157.08099"
             x="299.259"
             xlink:href="#textext-63055e22-8"
             width="744.09448"
             height="1052.3622" />
        </g>
        <g
           id="g16700"
           style="fill:#000000;fill-opacity:1">
          <use
             id="use16702"
             y="157.08099"
             x="314.203"
             xlink:href="#textext-63055e22-10"
             width="744.09448"
             height="1052.3622" />
        </g>
        <g
           id="g16704"
           style="fill:#000000;fill-opacity:1">
          <use
             id="use16706"
             y="157.08099"
             x="321.952"
             xlink:href="#textext-63055e22-12"
             width="744.09448"
             height="1052.3622" />
        </g>
        <g
           id="g16708"
           style="fill:#000000;fill-opacity:1">
          <use
             id="use16710"
             y="125.201"
             x="334.57401"
             xlink:href="#textext-63055e22-3"
             width="744.09448"
             height="1052.3622" />
        </g>
        <g
           id="g16712"
           style="fill:#000000;fill-opacity:1">
          <use
             id="use16714"
             y="143.134"
             x="334.57401"
             xlink:href="#textext-63055e22-4"
             width="744.09448"
             height="1052.3622" />
        </g>
        <g
           id="g16716"
           style="fill:#000000;fill-opacity:1">
          <use
             id="use16718"
             y="125.201"
             x="342.87701"
             xlink:href="#textext-63055e22-1"
             width="744.09448"
             height="1052.3622" />
        </g>
        <g
           id="g16720"
           style="fill:#000000;fill-opacity:1">
          <use
             id="use16722"
             y="143.134"
             x="342.87701"
             xlink:href="#textext-63055e22-2"
             width="744.09448"
             height="1052.3622" />
        </g>
        <g
           id="g16724"
           style="fill:#000000;fill-opacity:1">
          <use
             id="use16726"
             y="133.17101"
             x="357.07599"
             xlink:href="#textext-63055e22-13"
             width="744.09448"
             height="1052.3622" />
        </g>
        <g
           id="g16728"
           style="fill:#000000;fill-opacity:1">
          <use
             id="use16730"
             y="134.66499"
             x="362.88699"
             xlink:href="#textext-63055e22-16"
             width="744.09448"
             height="1052.3622" />
        </g>
        <g
           id="g16732"
           style="fill:#000000;fill-opacity:1">
          <use
             id="use16734"
             y="145.12601"
             x="357.07599"
             xlink:href="#textext-63055e22-13"
             width="744.09448"
             height="1052.3622" />
        </g>
        <g
           id="g16736"
           style="fill:#000000;fill-opacity:1">
          <use
             id="use16738"
             y="146.621"
             x="362.88699"
             xlink:href="#textext-63055e22-17"
             width="744.09448"
             height="1052.3622" />
        </g>
        <g
           id="g16740"
           style="fill:#000000;fill-opacity:1">
          <use
             id="use16742"
             y="157.08099"
             x="354.5"
             xlink:href="#textext-63055e22-14"
             width="744.09448"
             height="1052.3622" />
        </g>
        <g
           id="g16744"
           style="fill:#000000;fill-opacity:1">
          <use
             id="use16746"
             y="158.576"
             x="358.879"
             xlink:href="#textext-63055e22-19"
             width="744.09448"
             height="1052.3622" />
        </g>
        <g
           id="g16748"
           style="fill:#000000;fill-opacity:1">
          <use
             id="use16750"
             y="158.576"
             x="364.91553"
             xlink:href="#textext-63055e22-20"
             width="744.09448"
             height="1052.3622" />
        </g>
        <g
           id="g16752"
           style="fill:#000000;fill-opacity:1">
          <use
             id="use16754"
             y="125.201"
             x="374.914"
             xlink:href="#textext-63055e22-3"
             width="744.09448"
             height="1052.3622" />
        </g>
        <g
           id="g16756"
           style="fill:#000000;fill-opacity:1">
          <use
             id="use16758"
             y="143.134"
             x="374.914"
             xlink:href="#textext-63055e22-4"
             width="744.09448"
             height="1052.3622" />
        </g>
      </g>
    </g>
    <g
       ns0:text="$I_{Rx}$"
       ns0:preamble=""
       transform="translate(-181.39363,2.944581)"
       id="g17086">
      <defs
         id="defs17088">
        <g
           id="g17090">
          <symbol
             overflow="visible"
             id="textext-cda94772-0"
             style="overflow:visible">
            <path
               style="stroke:none"
               d=""
               id="path17093"
               inkscape:connector-curvature="0" />
          </symbol>
          <symbol
             overflow="visible"
             id="textext-cda94772-1"
             style="overflow:visible">
            <path
               style="stroke:none"
               d="M 3.734375,-6.046875 C 3.8125,-6.40625 3.84375,-6.5 4.640625,-6.5 c 0.234375,0 0.3125,0 0.3125,-0.1875 0,-0.125 -0.109375,-0.125 -0.140625,-0.125 -0.296875,0 -1.03125,0.03125 -1.328125,0.03125 -0.296875,0 -1.015625,-0.03125 -1.328125,-0.03125 -0.0625,0 -0.1875,0 -0.1875,0.203125 C 1.96875,-6.5 2.046875,-6.5 2.25,-6.5 c 0.40625,0 0.6875,0 0.6875,0.1875 0,0.046875 0,0.078125 -0.03125,0.15625 l -1.34375,5.375 c -0.09375,0.375 -0.109375,0.46875 -0.90625,0.46875 -0.234375,0 -0.3125,0 -0.3125,0.203125 C 0.34375,0 0.453125,0 0.484375,0 0.78125,0 1.5,-0.03125 1.796875,-0.03125 2.09375,-0.03125 2.828125,0 3.125,0 c 0.078125,0 0.203125,0 0.203125,-0.1875 0,-0.125 -0.078125,-0.125 -0.296875,-0.125 -0.1875,0 -0.234375,0 -0.421875,-0.015625 -0.21875,-0.015625 -0.25,-0.0625 -0.25,-0.171875 0,-0.078125 0.015625,-0.15625 0.03125,-0.234375 z m 0,0"
               id="path17096"
               inkscape:connector-curvature="0" />
          </symbol>
          <symbol
             overflow="visible"
             id="textext-cda94772-2"
             style="overflow:visible">
            <path
               style="stroke:none"
               d=""
               id="path17099"
               inkscape:connector-curvature="0" />
          </symbol>
          <symbol
             overflow="visible"
             id="textext-cda94772-3"
             style="overflow:visible">
            <path
               style="stroke:none"
               d="m 2.875,-4.265625 c 0.046875,-0.203125 0.0625,-0.21875 0.21875,-0.25 l 0.453125,0 c 0.640625,0 1.4375,0 1.4375,0.71875 0,0.296875 -0.125,0.734375 -0.453125,0.984375 C 4.25,-2.59375 3.8125,-2.484375 3.328125,-2.484375 l -0.890625,0 z M 4.140625,-2.375 c 0.828125,-0.1875 1.5625,-0.6875 1.5625,-1.3125 0,-0.59375 -0.703125,-1.078125 -1.71875,-1.078125 l -2.140625,0 c -0.125,0 -0.21875,0 -0.21875,0.15625 0,0.09375 0.078125,0.09375 0.21875,0.09375 0.015625,0 0.140625,0 0.265625,0.015625 0.15625,0.015625 0.15625,0.03125 0.15625,0.109375 0,0 0,0.046875 -0.015625,0.140625 L 1.3125,-0.546875 C 1.265625,-0.3125 1.25,-0.25 0.703125,-0.25 0.578125,-0.25 0.5,-0.25 0.5,-0.109375 0.5,-0.03125 0.546875,0 0.609375,0 c 0.125,0 0.296875,-0.015625 0.421875,-0.015625 0.140625,0 0.34375,-0.015625 0.46875,-0.015625 0.140625,0 0.296875,0.015625 0.4375,0.015625 C 2.09375,-0.015625 2.265625,0 2.40625,0 2.453125,0 2.5625,0 2.5625,-0.140625 2.5625,-0.25 2.484375,-0.25 2.328125,-0.25 2.21875,-0.25 2.1875,-0.25 2.0625,-0.265625 1.90625,-0.28125 1.90625,-0.296875 1.90625,-0.375 c 0,0 0,-0.046875 0.03125,-0.140625 l 0.4375,-1.765625 0.953125,0 c 0.59375,0 0.859375,0.296875 0.859375,0.625 0,0.09375 -0.0625,0.328125 -0.109375,0.484375 C 4,-0.84375 3.96875,-0.75 3.96875,-0.625 c 0,0.546875 0.515625,0.765625 1.03125,0.765625 0.640625,0 0.921875,-0.6875 0.921875,-0.8125 0,-0.015625 -0.015625,-0.09375 -0.125,-0.09375 -0.09375,0 -0.109375,0.046875 -0.125,0.125 C 5.578125,-0.34375 5.3125,-0.0625 5.03125,-0.0625 c -0.1875,0 -0.328125,-0.0625 -0.328125,-0.453125 0,-0.171875 0.046875,-0.53125 0.078125,-0.71875 0.03125,-0.1875 0.03125,-0.25 0.03125,-0.328125 0,-0.078125 0,-0.3125 -0.203125,-0.515625 C 4.484375,-2.21875 4.296875,-2.3125 4.140625,-2.375 z m 0,0"
               id="path17102"
               inkscape:connector-curvature="0" />
          </symbol>
          <symbol
             overflow="visible"
             id="textext-cda94772-4"
             style="overflow:visible">
            <path
               style="stroke:none"
               d="M 1.734375,-0.734375 C 1.671875,-0.5 1.4375,-0.125 1.078125,-0.125 c -0.015625,0 -0.234375,0 -0.375,-0.09375 0.28125,-0.09375 0.3125,-0.34375 0.3125,-0.390625 0,-0.15625 -0.125,-0.25 -0.28125,-0.25 -0.203125,0 -0.40625,0.15625 -0.40625,0.421875 0,0.34375 0.390625,0.5 0.734375,0.5 0.328125,0 0.609375,-0.1875 0.78125,-0.484375 C 2.015625,-0.0625 2.390625,0.0625 2.671875,0.0625 c 0.8125,0 1.234375,-0.859375 1.234375,-1.0625 0,-0.09375 -0.09375,-0.09375 -0.109375,-0.09375 -0.109375,0 -0.109375,0.046875 -0.140625,0.125 -0.140625,0.484375 -0.5625,0.84375 -0.953125,0.84375 -0.28125,0 -0.421875,-0.1875 -0.421875,-0.453125 0,-0.1875 0.171875,-0.8125 0.359375,-1.59375 C 2.78125,-2.703125 3.09375,-2.875 3.328125,-2.875 c 0.015625,0 0.21875,0 0.375,0.09375 -0.21875,0.0625 -0.3125,0.265625 -0.3125,0.390625 0,0.140625 0.125,0.25 0.28125,0.25 0.15625,0 0.390625,-0.125 0.390625,-0.421875 0,-0.390625 -0.453125,-0.515625 -0.71875,-0.515625 -0.359375,0 -0.640625,0.234375 -0.78125,0.5 -0.125,-0.28125 -0.453125,-0.5 -0.84375,-0.5 C 0.9375,-3.078125 0.5,-2.21875 0.5,-2 c 0,0.078125 0.09375,0.078125 0.109375,0.078125 0.09375,0 0.09375,-0.015625 0.140625,-0.109375 C 0.921875,-2.578125 1.359375,-2.875 1.703125,-2.875 1.9375,-2.875 2.125,-2.75 2.125,-2.421875 2.125,-2.28125 2.03125,-1.9375 1.96875,-1.6875 z m 0,0"
               id="path17105"
               inkscape:connector-curvature="0" />
          </symbol>
        </g>
      </defs>
      <g
         id="textext-cda94772-5">
        <g
           style="fill:#000000;fill-opacity:1"
           id="g17108">
          <use
             xlink:href="#textext-cda94772-1"
             x="223.43201"
             y="134.765"
             id="use17110"
             width="744.09448"
             height="1052.3622" />
        </g>
        <g
           style="fill:#000000;fill-opacity:1"
           id="g17112">
          <use
             xlink:href="#textext-cda94772-3"
             x="227.812"
             y="136.259"
             id="use17114"
             width="744.09448"
             height="1052.3622" />
        </g>
        <g
           style="fill:#000000;fill-opacity:1"
           id="g17116">
          <use
             xlink:href="#textext-cda94772-4"
             x="233.84853"
             y="136.259"
             id="use17118"
             width="744.09448"
             height="1052.3622" />
        </g>
      </g>
    </g>
    <text
       xml:space="preserve"
       style="font-size:10px;font-style:normal;font-variant:normal;font-weight:normal;font-stretch:normal;text-align:start;line-height:125%;letter-spacing:0px;word-spacing:0px;writing-mode:lr-tb;text-anchor:start;fill:#000000;fill-opacity:1;stroke:none;font-family:Sans;-inkscape-font-specification:Sans"
       x="115"
       y="122.36218"
       id="text13474-1-9-7"
       sodipodi:linespacing="125%"><tspan
         sodipodi:role="line"
         id="tspan13476-2-2-4"
         x="115"
         y="122.36218">Model r:</tspan></text>
  </g>
</svg>
