<?xml version="1.0" encoding="UTF-8" standalone="no"?>
<!-- Created with Inkscape (http://www.inkscape.org/) -->

<svg
   xmlns:ns0="http://www.iki.fi/pav/software/textext/"
   xmlns:dc="http://purl.org/dc/elements/1.1/"
   xmlns:cc="http://creativecommons.org/ns#"
   xmlns:rdf="http://www.w3.org/1999/02/22-rdf-syntax-ns#"
   xmlns:svg="http://www.w3.org/2000/svg"
   xmlns="http://www.w3.org/2000/svg"
   xmlns:xlink="http://www.w3.org/1999/xlink"
   xmlns:sodipodi="http://sodipodi.sourceforge.net/DTD/sodipodi-0.dtd"
   xmlns:inkscape="http://www.inkscape.org/namespaces/inkscape"
   width="425"
   height="105"
   id="svg14078"
   version="1.1"
   inkscape:version="0.92.5 (2060ec1f9f, 2020-04-08)"
   sodipodi:docname="stampI.svg">
  <sodipodi:namedview
     id="base"
     pagecolor="#ffffff"
     bordercolor="#666666"
     borderopacity="1.0"
     inkscape:pageopacity="0.0"
     inkscape:pageshadow="2"
     inkscape:zoom="2.8"
     inkscape:cx="114.80505"
     inkscape:cy="26.33099"
     inkscape:document-units="px"
     inkscape:current-layer="layer1"
     showgrid="true"
     inkscape:object-paths="true"
     inkscape:object-nodes="true"
     inkscape:window-width="1657"
     inkscape:window-height="849"
     inkscape:window-x="66"
     inkscape:window-y="87"
     inkscape:window-maximized="0"
     fit-margin-top="0"
     fit-margin-left="0"
     fit-margin-right="0"
     fit-margin-bottom="0">
    <inkscape:grid
       spacingy="1"
       spacingx="1"
       originy="-835"
       originx="-25"
       snapvisiblegridlinesonly="true"
       enabled="true"
       visible="true"
       empspacing="5"
       type="xygrid"
       id="grid14086" />
  </sodipodi:namedview>
  <defs
     id="defs14080">
    <marker
       style="overflow:visible"
       id="Arrow2Mend-00"
       refX="0"
       refY="0"
       orient="auto"
       inkscape:stockid="Arrow2Mend">
      <path
         transform="scale(-0.6,-0.6)"
         d="M 8.7185878,4.0337352 -2.2072895,0.01601326 8.7185884,-4.0017078 c -1.7454984,2.3720609 -1.7354408,5.6174519 -6e-7,8.035443 z"
         style="font-size:12px;fill-rule:evenodd;stroke-width:0.625;stroke-linejoin:round"
         id="path5872-4"
         inkscape:connector-curvature="0" />
    </marker>
  </defs>
  <metadata
     id="metadata14083">
    <rdf:RDF>
      <cc:Work
         rdf:about="">
        <dc:format>image/svg+xml</dc:format>
        <dc:type
           rdf:resource="http://purl.org/dc/dcmitype/StillImage" />
        <dc:title />
      </cc:Work>
    </rdf:RDF>
  </metadata>
  <g
     id="layer1"
     inkscape:groupmode="layer"
     inkscape:label="Layer 1"
     transform="translate(-25,-112.36218)">
    <rect
       width="425"
       height="105"
       x="25"
       y="112.36218"
       id="rect6470-9-4-1"
       style="fill:#0064ff;fill-opacity:0.0745098;stroke:none" />
    <g
       id="g60432"
       transform="translate(25,14.999983)">
      <g
         id="g5548"
         transform="translate(-340,-3075.63)">
        <path
           inkscape:connector-curvature="0"
           style="fill:none;stroke:#000000;stroke-width:1;stroke-miterlimit:4;stroke-opacity:1;stroke-dasharray:none"
           id="path3187"
           d="m 485,3242.9922 c 0,5.5229 -4.47716,10 -10,10 -5.52285,0 -10,-4.4771 -10,-10 0,-5.5229 4.47715,-10 10,-10 5.52284,0 10,4.4771 10,10 l 0,0 z" />
        <path
           inkscape:connector-curvature="0"
           id="path6940-8"
           d="m 460,3232.9922 0,20"
           style="fill:none;stroke:#000000;stroke-width:1px;stroke-linecap:butt;stroke-linejoin:miter;stroke-opacity:1;marker-end:url(#Arrow2Mend-00)" />
        <path
           inkscape:connector-curvature="0"
           id="path4195-6-2-9-61-7"
           d="m 475,3252.9922 0,10"
           style="fill:none;stroke:#000000;stroke-width:1px;stroke-linecap:round;stroke-linejoin:miter;stroke-opacity:1" />
        <path
           inkscape:connector-curvature="0"
           id="path4195-6-2-9-61-6"
           d="m 475,3222.9922 0,10"
           style="fill:none;stroke:#000000;stroke-width:1px;stroke-linecap:round;stroke-linejoin:miter;stroke-opacity:1" />
        <path
           inkscape:connector-curvature="0"
           id="path4195-6-2-9-61-4"
           d="m 485,3243.4881 -20,0"
           style="fill:none;stroke:#000000;stroke-width:1;stroke-linecap:round;stroke-linejoin:miter;stroke-miterlimit:4;stroke-opacity:1;stroke-dasharray:none" />
      </g>
      <path
         sodipodi:type="arc"
         style="fill:#000000;fill-opacity:1;stroke:#000000;stroke-opacity:1"
         id="path6451"
         sodipodi:cx="306"
         sodipodi:cy="28.362183"
         sodipodi:rx="1"
         sodipodi:ry="1"
         d="m 307,28.362183 c 0,0.552284 -0.44772,1 -1,1 -0.55228,0 -1,-0.447716 -1,-1 0,-0.552285 0.44772,-1 1,-1 0.55228,0 1,0.447715 1,1 z"
         transform="matrix(2,0,0,1.9999986,-477,90.637855)" />
      <path
         sodipodi:type="arc"
         style="fill:#000000;fill-opacity:1;stroke:#000000;stroke-opacity:1"
         id="path6451-2"
         sodipodi:cx="306"
         sodipodi:cy="28.362183"
         sodipodi:rx="1"
         sodipodi:ry="1"
         d="m 307,28.362183 c 0,0.552284 -0.44772,1 -1,1 -0.55228,0 -1,-0.447716 -1,-1 0,-0.552285 0.44772,-1 1,-1 0.55228,0 1,0.447715 1,1 z"
         transform="matrix(2,0,0,1.9999986,-477,130.63786)" />
      <text
         id="text60130"
         y="149.36218"
         x="141"
         style="font-style:normal;font-variant:normal;font-weight:normal;font-stretch:normal;line-height:0%;font-family:Arial;-inkscape-font-specification:Arial;text-align:start;writing-mode:lr-tb;text-anchor:start;fill:#000000;fill-opacity:1;stroke:none"
         xml:space="preserve"><tspan
           y="149.36218"
           x="141"
           id="tspan60132"
           sodipodi:role="line"
           style="font-size:8px;line-height:1">(1)</tspan></text>
      <text
         id="text60130-9"
         y="189.36218"
         x="141"
         style="font-style:normal;font-variant:normal;font-weight:normal;font-stretch:normal;line-height:0%;font-family:Arial;-inkscape-font-specification:Arial;text-align:start;writing-mode:lr-tb;text-anchor:start;fill:#000000;fill-opacity:1;stroke:none"
         xml:space="preserve"><tspan
           y="189.36218"
           x="141"
           id="tspan60132-3"
           sodipodi:role="line"
           style="font-size:8px;line-height:1">(2)</tspan></text>
    </g>
    <text
       xml:space="preserve"
       style="font-style:normal;font-variant:normal;font-weight:bold;font-stretch:normal;line-height:0%;font-family:'Courier New';-inkscape-font-specification:'Courier New Bold';text-align:start;writing-mode:lr-tb;text-anchor:start;fill:#000000;fill-opacity:1;stroke:none"
       x="135"
       y="147.36218"
       id="text60370"><tspan
         sodipodi:role="line"
         id="tspan60372"
         x="135"
         y="147.36218"
         style="font-size:8px;line-height:1">Ix 1 2 {I_s}</tspan></text>
    <text
       id="text13474"
       y="132.36218"
       x="135"
       style="font-style:normal;font-variant:normal;font-weight:normal;font-stretch:normal;line-height:0%;font-family:sans-serif;-inkscape-font-specification:Sans;text-align:start;letter-spacing:0px;word-spacing:0px;writing-mode:lr-tb;text-anchor:start;fill:#000000;fill-opacity:1;stroke:none"
       xml:space="preserve"><tspan
         y="132.36218"
         x="135"
         id="tspan13476"
         sodipodi:role="line"
         style="font-size:10px;line-height:1.25;font-family:sans-serif">Independent current source</tspan></text>
    <g
       ns0:text="$I_s$"
       ns0:preamble=""
       transform="translate(-89.976921,47.526009)"
       id="g79578">
      <defs
         id="defs79580">
        <g
           id="g79582">
          <symbol
             style="overflow:visible"
             overflow="visible"
             id="textext-85835f08-0">
            <path
               inkscape:connector-curvature="0"
               style="stroke:none"
               d=""
               id="path79585" />
          </symbol>
          <symbol
             style="overflow:visible"
             overflow="visible"
             id="textext-85835f08-1">
            <path
               inkscape:connector-curvature="0"
               style="stroke:none"
               d="M 3.734375,-6.046875 C 3.8125,-6.40625 3.84375,-6.5 4.640625,-6.5 c 0.234375,0 0.3125,0 0.3125,-0.1875 0,-0.125 -0.109375,-0.125 -0.140625,-0.125 -0.296875,0 -1.03125,0.03125 -1.328125,0.03125 -0.296875,0 -1.015625,-0.03125 -1.328125,-0.03125 -0.0625,0 -0.1875,0 -0.1875,0.203125 C 1.96875,-6.5 2.046875,-6.5 2.25,-6.5 c 0.40625,0 0.6875,0 0.6875,0.1875 0,0.046875 0,0.078125 -0.03125,0.15625 l -1.34375,5.375 c -0.09375,0.375 -0.109375,0.46875 -0.90625,0.46875 -0.234375,0 -0.3125,0 -0.3125,0.203125 C 0.34375,0 0.453125,0 0.484375,0 0.78125,0 1.5,-0.03125 1.796875,-0.03125 2.09375,-0.03125 2.828125,0 3.125,0 c 0.078125,0 0.203125,0 0.203125,-0.1875 0,-0.125 -0.078125,-0.125 -0.296875,-0.125 -0.1875,0 -0.234375,0 -0.421875,-0.015625 -0.21875,-0.015625 -0.25,-0.0625 -0.25,-0.171875 0,-0.078125 0.015625,-0.15625 0.03125,-0.234375 z m 0,0"
               id="path79588" />
          </symbol>
          <symbol
             style="overflow:visible"
             overflow="visible"
             id="textext-85835f08-2">
            <path
               inkscape:connector-curvature="0"
               style="stroke:none"
               d=""
               id="path79591" />
          </symbol>
          <symbol
             style="overflow:visible"
             overflow="visible"
             id="textext-85835f08-3">
            <path
               inkscape:connector-curvature="0"
               style="stroke:none"
               d="m 3,-2.625 c -0.171875,0.046875 -0.296875,0.1875 -0.296875,0.328125 0,0.171875 0.140625,0.234375 0.234375,0.234375 0.078125,0 0.34375,-0.046875 0.34375,-0.40625 0,-0.453125 -0.5,-0.609375 -0.9375,-0.609375 -1.078125,0 -1.28125,0.8125 -1.28125,1.015625 0,0.265625 0.15625,0.4375 0.25,0.515625 0.171875,0.140625 0.296875,0.171875 0.78125,0.25 0.15625,0.03125 0.59375,0.109375 0.59375,0.453125 0,0.125 -0.078125,0.390625 -0.359375,0.5625 C 2.046875,-0.125 1.703125,-0.125 1.625,-0.125 1.34375,-0.125 0.953125,-0.1875 0.78125,-0.421875 1.015625,-0.453125 1.171875,-0.625 1.171875,-0.8125 c 0,-0.171875 -0.125,-0.265625 -0.265625,-0.265625 -0.203125,0 -0.40625,0.171875 -0.40625,0.46875 0,0.421875 0.4375,0.671875 1.109375,0.671875 1.296875,0 1.53125,-0.875 1.53125,-1.140625 0,-0.640625 -0.703125,-0.765625 -0.96875,-0.8125 -0.0625,-0.015625 -0.234375,-0.046875 -0.28125,-0.0625 -0.25,-0.046875 -0.375,-0.1875 -0.375,-0.34375 0,-0.15625 0.125,-0.34375 0.28125,-0.453125 0.1875,-0.109375 0.421875,-0.125 0.546875,-0.125 0.140625,0 0.5,0.015625 0.65625,0.25 z m 0,0"
               id="path79594" />
          </symbol>
        </g>
      </defs>
      <g
         id="textext-85835f08-4">
        <g
           style="fill:#000000;fill-opacity:1"
           id="g79597">
          <use
             height="1052.3622"
             width="744.09448"
             xlink:href="#textext-85835f08-1"
             x="223.43201"
             y="134.765"
             id="use79599" />
        </g>
        <g
           style="fill:#000000;fill-opacity:1"
           id="g79601">
          <use
             height="1052.3622"
             width="744.09448"
             xlink:href="#textext-85835f08-3"
             x="227.812"
             y="136.259"
             id="use79603" />
        </g>
      </g>
    </g>
    <g
       id="g1104"
       transform="translate(-41.211516,42.400475)"
       ns0:preamble="/mnt/DATA/Cursussen/Publish/Books/preambule.tex"
       ns0:text="$\\left[\n\\begin{array}\n[c]{c}%\n-I_s\\\\\nI_s\n\\end{array}\n\\right]  =\\left[\n\\begin{array}\n[c]{cc}%\n0 &amp; 0\\\\\n0 &amp; 0\n\\end{array}\n\\right]  \\left[\n\\begin{array}\n[c]{c}%\nV_{1}\\\\\nV_{2}%\n\\end{array}\n\\right]  $\n">
      <defs
         id="defs1021">
        <g
           id="g1019">
          <symbol
             id="textext-da179487-0"
             overflow="visible">
            <path
               id="path971"
               d=""
               style="stroke:none;" />
          </symbol>
          <symbol
             id="textext-da179487-1"
             overflow="visible">
            <path
               id="path974"
               d="M 2.5 23.515625 L 5.109375 23.515625 L 5.109375 22.96875 L 3.046875 22.96875 L 3.046875 0.15625 L 5.109375 0.15625 L 5.109375 -0.40625 L 2.5 -0.40625 Z M 2.5 23.515625 "
               style="stroke:none;" />
          </symbol>
          <symbol
             id="textext-da179487-2"
             overflow="visible">
            <path
               id="path977"
               d="M 2.21875 22.96875 L 0.140625 22.96875 L 0.140625 23.515625 L 2.765625 23.515625 L 2.765625 -0.40625 L 0.140625 -0.40625 L 0.140625 0.15625 L 2.21875 0.15625 Z M 2.21875 22.96875 "
               style="stroke:none;" />
          </symbol>
          <symbol
             id="textext-da179487-3"
             overflow="visible">
            <path
               id="path980"
               d=""
               style="stroke:none;" />
          </symbol>
          <symbol
             id="textext-da179487-4"
             overflow="visible">
            <path
               id="path983"
               d="M 6.5625 -2.296875 C 6.734375 -2.296875 6.921875 -2.296875 6.921875 -2.5 C 6.921875 -2.6875 6.734375 -2.6875 6.5625 -2.6875 L 1.171875 -2.6875 C 1 -2.6875 0.828125 -2.6875 0.828125 -2.5 C 0.828125 -2.296875 1 -2.296875 1.171875 -2.296875 Z M 6.5625 -2.296875 "
               style="stroke:none;" />
          </symbol>
          <symbol
             id="textext-da179487-5"
             overflow="visible">
            <path
               id="path986"
               d=""
               style="stroke:none;" />
          </symbol>
          <symbol
             id="textext-da179487-6"
             overflow="visible">
            <path
               id="path989"
               d="M 3.734375 -6.046875 C 3.8125 -6.40625 3.84375 -6.5 4.640625 -6.5 C 4.875 -6.5 4.953125 -6.5 4.953125 -6.6875 C 4.953125 -6.8125 4.84375 -6.8125 4.8125 -6.8125 C 4.515625 -6.8125 3.78125 -6.78125 3.484375 -6.78125 C 3.1875 -6.78125 2.46875 -6.8125 2.15625 -6.8125 C 2.09375 -6.8125 1.96875 -6.8125 1.96875 -6.609375 C 1.96875 -6.5 2.046875 -6.5 2.25 -6.5 C 2.65625 -6.5 2.9375 -6.5 2.9375 -6.3125 C 2.9375 -6.265625 2.9375 -6.234375 2.90625 -6.15625 L 1.5625 -0.78125 C 1.46875 -0.40625 1.453125 -0.3125 0.65625 -0.3125 C 0.421875 -0.3125 0.34375 -0.3125 0.34375 -0.109375 C 0.34375 0 0.453125 0 0.484375 0 C 0.78125 0 1.5 -0.03125 1.796875 -0.03125 C 2.09375 -0.03125 2.828125 0 3.125 0 C 3.203125 0 3.328125 0 3.328125 -0.1875 C 3.328125 -0.3125 3.25 -0.3125 3.03125 -0.3125 C 2.84375 -0.3125 2.796875 -0.3125 2.609375 -0.328125 C 2.390625 -0.34375 2.359375 -0.390625 2.359375 -0.5 C 2.359375 -0.578125 2.375 -0.65625 2.390625 -0.734375 Z M 3.734375 -6.046875 "
               style="stroke:none;" />
          </symbol>
          <symbol
             id="textext-da179487-7"
             overflow="visible">
            <path
               id="path992"
               d="M 6.265625 -5.671875 C 6.75 -6.453125 7.171875 -6.484375 7.53125 -6.5 C 7.65625 -6.515625 7.671875 -6.671875 7.671875 -6.6875 C 7.671875 -6.765625 7.609375 -6.8125 7.53125 -6.8125 C 7.28125 -6.8125 6.984375 -6.78125 6.71875 -6.78125 C 6.390625 -6.78125 6.046875 -6.8125 5.734375 -6.8125 C 5.671875 -6.8125 5.546875 -6.8125 5.546875 -6.625 C 5.546875 -6.515625 5.625 -6.5 5.703125 -6.5 C 5.96875 -6.484375 6.15625 -6.375 6.15625 -6.171875 C 6.15625 -6.015625 6.015625 -5.796875 6.015625 -5.796875 L 2.953125 -0.921875 L 2.265625 -6.203125 C 2.265625 -6.375 2.5 -6.5 2.953125 -6.5 C 3.09375 -6.5 3.203125 -6.5 3.203125 -6.703125 C 3.203125 -6.78125 3.125 -6.8125 3.078125 -6.8125 C 2.671875 -6.8125 2.25 -6.78125 1.828125 -6.78125 C 1.65625 -6.78125 1.46875 -6.78125 1.28125 -6.78125 C 1.109375 -6.78125 0.921875 -6.8125 0.75 -6.8125 C 0.671875 -6.8125 0.5625 -6.8125 0.5625 -6.625 C 0.5625 -6.5 0.640625 -6.5 0.8125 -6.5 C 1.359375 -6.5 1.375 -6.40625 1.40625 -6.15625 L 2.1875 -0.015625 C 2.21875 0.1875 2.265625 0.21875 2.390625 0.21875 C 2.546875 0.21875 2.59375 0.171875 2.671875 0.046875 Z M 6.265625 -5.671875 "
               style="stroke:none;" />
          </symbol>
          <symbol
             id="textext-da179487-8"
             overflow="visible">
            <path
               id="path995"
               d=""
               style="stroke:none;" />
          </symbol>
          <symbol
             id="textext-da179487-9"
             overflow="visible">
            <path
               id="path998"
               d="M 3 -2.625 C 2.828125 -2.578125 2.703125 -2.4375 2.703125 -2.296875 C 2.703125 -2.125 2.84375 -2.0625 2.9375 -2.0625 C 3.015625 -2.0625 3.28125 -2.109375 3.28125 -2.46875 C 3.28125 -2.921875 2.78125 -3.078125 2.34375 -3.078125 C 1.265625 -3.078125 1.0625 -2.265625 1.0625 -2.0625 C 1.0625 -1.796875 1.21875 -1.625 1.3125 -1.546875 C 1.484375 -1.40625 1.609375 -1.375 2.09375 -1.296875 C 2.25 -1.265625 2.6875 -1.1875 2.6875 -0.84375 C 2.6875 -0.71875 2.609375 -0.453125 2.328125 -0.28125 C 2.046875 -0.125 1.703125 -0.125 1.625 -0.125 C 1.34375 -0.125 0.953125 -0.1875 0.78125 -0.421875 C 1.015625 -0.453125 1.171875 -0.625 1.171875 -0.8125 C 1.171875 -0.984375 1.046875 -1.078125 0.90625 -1.078125 C 0.703125 -1.078125 0.5 -0.90625 0.5 -0.609375 C 0.5 -0.1875 0.9375 0.0625 1.609375 0.0625 C 2.90625 0.0625 3.140625 -0.8125 3.140625 -1.078125 C 3.140625 -1.71875 2.4375 -1.84375 2.171875 -1.890625 C 2.109375 -1.90625 1.9375 -1.9375 1.890625 -1.953125 C 1.640625 -2 1.515625 -2.140625 1.515625 -2.296875 C 1.515625 -2.453125 1.640625 -2.640625 1.796875 -2.75 C 1.984375 -2.859375 2.21875 -2.875 2.34375 -2.875 C 2.484375 -2.875 2.84375 -2.859375 3 -2.625 Z M 3 -2.625 "
               style="stroke:none;" />
          </symbol>
          <symbol
             id="textext-da179487-10"
             overflow="visible">
            <path
               id="path1001"
               d=""
               style="stroke:none;" />
          </symbol>
          <symbol
             id="textext-da179487-11"
             overflow="visible">
            <path
               id="path1004"
               d="M 6.84375 -3.265625 C 7 -3.265625 7.1875 -3.265625 7.1875 -3.453125 C 7.1875 -3.65625 7 -3.65625 6.859375 -3.65625 L 0.890625 -3.65625 C 0.75 -3.65625 0.5625 -3.65625 0.5625 -3.453125 C 0.5625 -3.265625 0.75 -3.265625 0.890625 -3.265625 Z M 6.859375 -1.328125 C 7 -1.328125 7.1875 -1.328125 7.1875 -1.53125 C 7.1875 -1.71875 7 -1.71875 6.84375 -1.71875 L 0.890625 -1.71875 C 0.75 -1.71875 0.5625 -1.71875 0.5625 -1.53125 C 0.5625 -1.328125 0.75 -1.328125 0.890625 -1.328125 Z M 6.859375 -1.328125 "
               style="stroke:none;" />
          </symbol>
          <symbol
             id="textext-da179487-12"
             overflow="visible">
            <path
               id="path1007"
               d="M 4.578125 -3.1875 C 4.578125 -3.984375 4.53125 -4.78125 4.1875 -5.515625 C 3.734375 -6.484375 2.90625 -6.640625 2.5 -6.640625 C 1.890625 -6.640625 1.171875 -6.375 0.75 -5.453125 C 0.4375 -4.765625 0.390625 -3.984375 0.390625 -3.1875 C 0.390625 -2.4375 0.421875 -1.546875 0.84375 -0.78125 C 1.265625 0.015625 2 0.21875 2.484375 0.21875 C 3.015625 0.21875 3.78125 0.015625 4.21875 -0.9375 C 4.53125 -1.625 4.578125 -2.40625 4.578125 -3.1875 Z M 2.484375 0 C 2.09375 0 1.5 -0.25 1.328125 -1.203125 C 1.21875 -1.796875 1.21875 -2.71875 1.21875 -3.3125 C 1.21875 -3.953125 1.21875 -4.609375 1.296875 -5.140625 C 1.484375 -6.328125 2.234375 -6.421875 2.484375 -6.421875 C 2.8125 -6.421875 3.46875 -6.234375 3.65625 -5.25 C 3.765625 -4.6875 3.765625 -3.9375 3.765625 -3.3125 C 3.765625 -2.5625 3.765625 -1.890625 3.65625 -1.25 C 3.5 -0.296875 2.9375 0 2.484375 0 Z M 2.484375 0 "
               style="stroke:none;" />
          </symbol>
          <symbol
             id="textext-da179487-13"
             overflow="visible">
            <path
               id="path1010"
               d=""
               style="stroke:none;" />
          </symbol>
          <symbol
             id="textext-da179487-14"
             overflow="visible">
            <path
               id="path1013"
               d="M 2.328125 -4.4375 C 2.328125 -4.625 2.328125 -4.625 2.125 -4.625 C 1.671875 -4.1875 1.046875 -4.1875 0.765625 -4.1875 L 0.765625 -3.9375 C 0.921875 -3.9375 1.390625 -3.9375 1.765625 -4.125 L 1.765625 -0.578125 C 1.765625 -0.34375 1.765625 -0.25 1.078125 -0.25 L 0.8125 -0.25 L 0.8125 0 C 0.9375 0 1.796875 -0.03125 2.046875 -0.03125 C 2.265625 -0.03125 3.140625 0 3.296875 0 L 3.296875 -0.25 L 3.03125 -0.25 C 2.328125 -0.25 2.328125 -0.34375 2.328125 -0.578125 Z M 2.328125 -4.4375 "
               style="stroke:none;" />
          </symbol>
          <symbol
             id="textext-da179487-15"
             overflow="visible">
            <path
               id="path1016"
               d="M 3.515625 -1.265625 L 3.28125 -1.265625 C 3.265625 -1.109375 3.1875 -0.703125 3.09375 -0.640625 C 3.046875 -0.59375 2.515625 -0.59375 2.40625 -0.59375 L 1.125 -0.59375 C 1.859375 -1.234375 2.109375 -1.4375 2.515625 -1.765625 C 3.03125 -2.171875 3.515625 -2.609375 3.515625 -3.265625 C 3.515625 -4.109375 2.78125 -4.625 1.890625 -4.625 C 1.03125 -4.625 0.4375 -4.015625 0.4375 -3.375 C 0.4375 -3.03125 0.734375 -2.984375 0.8125 -2.984375 C 0.96875 -2.984375 1.171875 -3.109375 1.171875 -3.359375 C 1.171875 -3.484375 1.125 -3.734375 0.765625 -3.734375 C 0.984375 -4.21875 1.453125 -4.375 1.78125 -4.375 C 2.484375 -4.375 2.84375 -3.828125 2.84375 -3.265625 C 2.84375 -2.65625 2.40625 -2.1875 2.1875 -1.9375 L 0.515625 -0.265625 C 0.4375 -0.203125 0.4375 -0.1875 0.4375 0 L 3.3125 0 Z M 3.515625 -1.265625 "
               style="stroke:none;" />
          </symbol>
        </g>
      </defs>
      <g
         id="textext-da179487-16">
        <g
           id="g1025"
           style="fill:rgb(0%,0%,0%);fill-opacity:1;">
          <use
             id="use1023"
             y="125.201"
             x="223.432"
             xlink:href="#textext-da179487-1" />
        </g>
        <g
           id="g1029"
           style="fill:rgb(0%,0%,0%);fill-opacity:1;">
          <use
             id="use1027"
             y="133.171"
             x="233.672"
             xlink:href="#textext-da179487-4" />
        </g>
        <g
           id="g1033"
           style="fill:rgb(0%,0%,0%);fill-opacity:1;">
          <use
             id="use1031"
             y="133.171"
             x="241.42"
             xlink:href="#textext-da179487-6" />
        </g>
        <g
           id="g1037"
           style="fill:rgb(0%,0%,0%);fill-opacity:1;">
          <use
             id="use1035"
             y="134.665"
             x="245.8"
             xlink:href="#textext-da179487-9" />
        </g>
        <g
           id="g1041"
           style="fill:rgb(0%,0%,0%);fill-opacity:1;">
          <use
             id="use1039"
             y="145.126"
             x="237.546"
             xlink:href="#textext-da179487-6" />
        </g>
        <g
           id="g1045"
           style="fill:rgb(0%,0%,0%);fill-opacity:1;">
          <use
             id="use1043"
             y="146.62"
             x="241.925"
             xlink:href="#textext-da179487-9" />
        </g>
        <g
           id="g1049"
           style="fill:rgb(0%,0%,0%);fill-opacity:1;">
          <use
             id="use1047"
             y="125.201"
             x="255.039"
             xlink:href="#textext-da179487-2" />
        </g>
        <g
           id="g1053"
           style="fill:rgb(0%,0%,0%);fill-opacity:1;">
          <use
             id="use1051"
             y="139.248"
             x="263.065"
             xlink:href="#textext-da179487-11" />
        </g>
        <g
           id="g1057"
           style="fill:rgb(0%,0%,0%);fill-opacity:1;">
          <use
             id="use1055"
             y="125.201"
             x="273.581"
             xlink:href="#textext-da179487-1" />
        </g>
        <g
           id="g1061"
           style="fill:rgb(0%,0%,0%);fill-opacity:1;">
          <use
             id="use1059"
             y="133.171"
             x="283.82"
             xlink:href="#textext-da179487-12" />
        </g>
        <g
           id="g1065"
           style="fill:rgb(0%,0%,0%);fill-opacity:1;">
          <use
             id="use1063"
             y="133.171"
             x="298.7639"
             xlink:href="#textext-da179487-12" />
        </g>
        <g
           id="g1069"
           style="fill:rgb(0%,0%,0%);fill-opacity:1;">
          <use
             id="use1067"
             y="145.126"
             x="283.82"
             xlink:href="#textext-da179487-12" />
        </g>
        <g
           id="g1073"
           style="fill:rgb(0%,0%,0%);fill-opacity:1;">
          <use
             id="use1071"
             y="145.126"
             x="298.7639"
             xlink:href="#textext-da179487-12" />
        </g>
        <g
           id="g1077"
           style="fill:rgb(0%,0%,0%);fill-opacity:1;">
          <use
             id="use1075"
             y="125.201"
             x="308.727"
             xlink:href="#textext-da179487-2" />
        </g>
        <g
           id="g1081"
           style="fill:rgb(0%,0%,0%);fill-opacity:1;">
          <use
             id="use1079"
             y="125.201"
             x="315.649014"
             xlink:href="#textext-da179487-1" />
        </g>
        <g
           id="g1085"
           style="fill:rgb(0%,0%,0%);fill-opacity:1;">
          <use
             id="use1083"
             y="133.171"
             x="325.885"
             xlink:href="#textext-da179487-7" />
        </g>
        <g
           id="g1089"
           style="fill:rgb(0%,0%,0%);fill-opacity:1;">
          <use
             id="use1087"
             y="134.665"
             x="331.696"
             xlink:href="#textext-da179487-14" />
        </g>
        <g
           id="g1093"
           style="fill:rgb(0%,0%,0%);fill-opacity:1;">
          <use
             id="use1091"
             y="145.126"
             x="325.885"
             xlink:href="#textext-da179487-7" />
        </g>
        <g
           id="g1097"
           style="fill:rgb(0%,0%,0%);fill-opacity:1;">
          <use
             id="use1095"
             y="146.621"
             x="331.696"
             xlink:href="#textext-da179487-15" />
        </g>
        <g
           id="g1101"
           style="fill:rgb(0%,0%,0%);fill-opacity:1;">
          <use
             id="use1099"
             y="125.201"
             x="341.147"
             xlink:href="#textext-da179487-2" />
        </g>
      </g>
    </g>
  </g>
</svg>
