<?xml version="1.0" encoding="UTF-8" standalone="no"?>
<!-- Created with Inkscape (http://www.inkscape.org/) -->

<svg
   xmlns:ns0="http://www.iki.fi/pav/software/textext/"
   xmlns:dc="http://purl.org/dc/elements/1.1/"
   xmlns:cc="http://creativecommons.org/ns#"
   xmlns:rdf="http://www.w3.org/1999/02/22-rdf-syntax-ns#"
   xmlns:svg="http://www.w3.org/2000/svg"
   xmlns="http://www.w3.org/2000/svg"
   xmlns:xlink="http://www.w3.org/1999/xlink"
   xmlns:sodipodi="http://sodipodi.sourceforge.net/DTD/sodipodi-0.dtd"
   xmlns:inkscape="http://www.inkscape.org/namespaces/inkscape"
   width="425"
   height="105"
   id="svg14078"
   version="1.1"
   inkscape:version="0.48.4 r9939"
   sodipodi:docname="stampL.svg">
  <sodipodi:namedview
     id="base"
     pagecolor="#ffffff"
     bordercolor="#666666"
     borderopacity="1.0"
     inkscape:pageopacity="0.0"
     inkscape:pageshadow="2"
     inkscape:zoom="3.959798"
     inkscape:cx="185.85604"
     inkscape:cy="37.28191"
     inkscape:document-units="px"
     inkscape:current-layer="layer1"
     showgrid="true"
     inkscape:object-paths="true"
     inkscape:object-nodes="true"
     inkscape:window-width="1665"
     inkscape:window-height="1028"
     inkscape:window-x="66"
     inkscape:window-y="0"
     inkscape:window-maximized="0"
     fit-margin-top="0"
     fit-margin-left="0"
     fit-margin-right="0"
     fit-margin-bottom="0">
    <inkscape:grid
       type="xygrid"
       id="grid14086"
       empspacing="5"
       visible="true"
       enabled="true"
       snapvisiblegridlinesonly="true"
       originx="70px"
       originy="-855px" />
  </sodipodi:namedview>
  <defs
     id="defs14080">
    <marker
       inkscape:stockid="Arrow2Mend"
       orient="auto"
       refY="0"
       refX="0"
       id="Arrow2Mend-00"
       style="overflow:visible">
      <path
         inkscape:connector-curvature="0"
         id="path5872-4"
         style="font-size:12px;fill-rule:evenodd;stroke-width:0.625;stroke-linejoin:round"
         d="M 8.7185878,4.0337352 -2.2072895,0.01601326 8.7185884,-4.0017078 c -1.7454984,2.3720609 -1.7354408,5.6174519 -6e-7,8.035443 z"
         transform="scale(-0.6,-0.6)" />
    </marker>
    <marker
       style="overflow:visible"
       id="Arrow2Mend-00-6"
       refX="0"
       refY="0"
       orient="auto"
       inkscape:stockid="Arrow2Mend">
      <path
         transform="scale(-0.6,-0.6)"
         d="M 8.7185878,4.0337352 -2.2072895,0.01601326 8.7185884,-4.0017078 c -1.7454984,2.3720609 -1.7354408,5.6174519 -6e-7,8.035443 z"
         style="font-size:12px;fill-rule:evenodd;stroke-width:0.625;stroke-linejoin:round"
         id="path5872-4-75"
         inkscape:connector-curvature="0" />
    </marker>
  </defs>
  <metadata
     id="metadata14083">
    <rdf:RDF>
      <cc:Work
         rdf:about="">
        <dc:format>image/svg+xml</dc:format>
        <dc:type
           rdf:resource="http://purl.org/dc/dcmitype/StillImage" />
        <dc:title />
      </cc:Work>
    </rdf:RDF>
  </metadata>
  <g
     inkscape:label="Layer 1"
     inkscape:groupmode="layer"
     id="layer1"
     transform="translate(70,-92.362183)">
    <g
       id="g60446"
       transform="translate(-44.999997,-108.00002)">
      <path
         sodipodi:type="arc"
         style="fill:#000000;fill-opacity:1;stroke:#000000;stroke-opacity:1"
         id="path6451-2-6"
         sodipodi:cx="306"
         sodipodi:cy="28.362183"
         sodipodi:rx="1"
         sodipodi:ry="1"
         d="m 307,28.362183 c 0,0.552284 -0.44772,1 -1,1 -0.55228,0 -1,-0.447716 -1,-1 0,-0.552285 0.44772,-1 1,-1 0.55228,0 1,0.447715 1,1 z"
         transform="matrix(2,0,0,1.9999986,-482,193.63786)" />
      <path
         sodipodi:type="arc"
         style="fill:#000000;fill-opacity:1;stroke:#000000;stroke-opacity:1"
         id="path6451-2-0"
         sodipodi:cx="306"
         sodipodi:cy="28.362183"
         sodipodi:rx="1"
         sodipodi:ry="1"
         d="m 307,28.362183 c 0,0.552284 -0.44772,1 -1,1 -0.55228,0 -1,-0.447716 -1,-1 0,-0.552285 0.44772,-1 1,-1 0.55228,0 1,0.447715 1,1 z"
         transform="matrix(2,0,0,1.9999986,-482,233.63786)" />
      <text
         sodipodi:linespacing="100%"
         id="text60130-9-2"
         y="290.36221"
         x="115"
         style="font-size:8px;font-style:normal;font-variant:normal;font-weight:normal;font-stretch:normal;text-align:start;line-height:100%;writing-mode:lr-tb;text-anchor:start;fill:#000000;fill-opacity:1;stroke:none;font-family:Arial;-inkscape-font-specification:Arial"
         xml:space="preserve"><tspan
           y="290.36221"
           x="115"
           id="tspan60132-3-1"
           sodipodi:role="line">(2)</tspan></text>
      <text
         sodipodi:linespacing="100%"
         id="text60130-0"
         y="250.3622"
         x="115"
         style="font-size:8px;font-style:normal;font-variant:normal;font-weight:normal;font-stretch:normal;text-align:start;line-height:100%;writing-mode:lr-tb;text-anchor:start;fill:#000000;fill-opacity:1;stroke:none;font-family:Arial;-inkscape-font-specification:Arial"
         xml:space="preserve"><tspan
           y="250.3622"
           x="115"
           id="tspan60132-5"
           sodipodi:role="line">(1)</tspan></text>
      <g
         id="g5669"
         transform="translate(-100,-2922.6299)">
        <path
           style="fill:none;stroke:#000000;stroke-width:0.9425323;stroke-miterlimit:4;stroke-opacity:1;stroke-dasharray:none"
           id="path2406"
           d="m 230.93278,3182.9921 c 0,0 0,0 0,0 1.80215,0 3.26475,1.4933 3.26475,3.3333 l 0,0 c 0,1.84 -1.4626,3.3333 -3.26475,3.3333 0,0 0,0 0,0"
           inkscape:connector-curvature="0" />
        <path
           style="fill:none;stroke:#000000;stroke-width:0.9425323;stroke-miterlimit:4;stroke-opacity:1;stroke-dasharray:none"
           id="path2408"
           d="m 230.93278,3196.3254 c 0,0 0,0 0,0 1.80215,0 3.26475,1.4933 3.26475,3.3333 l 0,0 c 0,1.84 -1.4626,3.3334 -3.26475,3.3334 0,0 0,0 0,0"
           inkscape:connector-curvature="0" />
        <path
           style="fill:none;stroke:#000000;stroke-width:0.9425323;stroke-miterlimit:4;stroke-opacity:1;stroke-dasharray:none"
           id="path2410"
           d="m 230.93278,3189.6587 c 0,0 0,0 0,0 1.80215,0 3.26475,1.4934 3.26475,3.3334 l 0,0 c 0,1.84 -1.4626,3.3333 -3.26475,3.3333 0,0 0,0 0,0"
           inkscape:connector-curvature="0" />
        <path
           style="fill:none;stroke:#000000;stroke-width:0.97590297px;stroke-linecap:butt;stroke-linejoin:miter;stroke-opacity:1"
           id="path2412"
           d="m 231,3182.9921 -1,0"
           inkscape:connector-curvature="0" />
        <path
           style="fill:none;stroke:#000000;stroke-width:0.97590297px;stroke-linecap:butt;stroke-linejoin:miter;stroke-opacity:1"
           id="path2414"
           d="m 231,3202.9921 -1,0"
           inkscape:connector-curvature="0" />
        <path
           style="fill:none;stroke:#000000;stroke-width:0.9425323px;stroke-linecap:butt;stroke-linejoin:miter;stroke-opacity:1"
           id="path2416"
           d="m 230.93278,3189.6587 -0.93278,0"
           inkscape:connector-curvature="0" />
        <path
           style="fill:none;stroke:#000000;stroke-width:0.9425323px;stroke-linecap:butt;stroke-linejoin:miter;stroke-opacity:1"
           id="path2418"
           d="m 230.93278,3196.3254 -0.93278,0"
           inkscape:connector-curvature="0" />
        <path
           style="fill:#000000;fill-opacity:1"
           id="path3959-3"
           transform="matrix(1.04854,0,0,0.99167816,156.07793,3152.3867)"
           d="m 71,30.862183 a 0.5,0.5 0 1 1 -1,0 0.5,0.5 0 1 1 1,0 z"
           inkscape:connector-curvature="0" />
        <path
           style="fill:#000000;fill-opacity:1"
           id="path3959-2"
           transform="matrix(1,0,0,0.99167856,159.48469,3172.3867)"
           d="m 71,30.862183 a 0.5,0.5 0 1 1 -1,0 0.5,0.5 0 1 1 1,0 z"
           inkscape:connector-curvature="0" />
        <path
           style="fill:none;stroke:#000000;stroke-width:1px;stroke-linecap:round;stroke-linejoin:miter;stroke-opacity:1"
           id="path4195-6-2-9-7"
           d="m 230,3172.9922 0,10"
           inkscape:connector-curvature="0" />
        <path
           style="fill:none;stroke:#000000;stroke-width:1px;stroke-linecap:round;stroke-linejoin:miter;stroke-opacity:1"
           id="path4195-6-2-9-72"
           d="m 230,3202.9922 0,10"
           inkscape:connector-curvature="0" />
      </g>
    </g>
    <text
       xml:space="preserve"
       style="font-size:8px;font-style:normal;font-variant:normal;font-weight:bold;font-stretch:normal;text-align:start;line-height:100%;writing-mode:lr-tb;text-anchor:start;fill:#000000;fill-opacity:1;stroke:none;font-family:Courier New;-inkscape-font-specification:Courier New Bold"
       x="50"
       y="127.36218"
       id="text60370-1"
       sodipodi:linespacing="100%"><tspan
         sodipodi:role="line"
         id="tspan60372-0"
         x="50"
         y="127.36218">Lx 1 2 {L}</tspan></text>
    <text
       sodipodi:linespacing="125%"
       id="text13474-1"
       y="112.36218"
       x="50"
       style="font-size:10px;font-style:normal;font-variant:normal;font-weight:normal;font-stretch:normal;text-align:start;line-height:125%;letter-spacing:0px;word-spacing:0px;writing-mode:lr-tb;text-anchor:start;fill:#000000;fill-opacity:1;stroke:none;font-family:Sans;-inkscape-font-specification:Sans"
       xml:space="preserve"><tspan
         y="112.36218"
         x="50"
         id="tspan13476-2"
         sodipodi:role="line">Inductor</tspan></text>
    <path
       inkscape:connector-curvature="0"
       id="path26135-46"
       d="m 70.000003,152.36218 0,20"
       style="fill:none;stroke:#000000;stroke-width:1px;stroke-linecap:butt;stroke-linejoin:miter;stroke-opacity:1;marker-end:url(#Arrow2Mend-00-6)" />
    <rect
       width="425"
       height="105"
       x="-70"
       y="92.362183"
       id="rect6470-9-4-1"
       style="fill:#0064ff;fill-opacity:0.0745098;stroke:none" />
    <g
       id="g20967"
       transform="translate(-171.89871,29.539029)"
       ns0:preamble=""
       ns0:text="$I_{Lx}$">
      <defs
         id="defs20969">
        <g
           id="g20971">
          <symbol
             id="textext-0663e1d0-0"
             overflow="visible"
             style="overflow:visible">
            <path
               id="path20974"
               d=""
               style="stroke:none"
               inkscape:connector-curvature="0" />
          </symbol>
          <symbol
             id="textext-0663e1d0-1"
             overflow="visible"
             style="overflow:visible">
            <path
               id="path20977"
               d="M 3.734375,-6.046875 C 3.8125,-6.40625 3.84375,-6.5 4.640625,-6.5 c 0.234375,0 0.3125,0 0.3125,-0.1875 0,-0.125 -0.109375,-0.125 -0.140625,-0.125 -0.296875,0 -1.03125,0.03125 -1.328125,0.03125 -0.296875,0 -1.015625,-0.03125 -1.328125,-0.03125 -0.0625,0 -0.1875,0 -0.1875,0.203125 C 1.96875,-6.5 2.046875,-6.5 2.25,-6.5 c 0.40625,0 0.6875,0 0.6875,0.1875 0,0.046875 0,0.078125 -0.03125,0.15625 l -1.34375,5.375 c -0.09375,0.375 -0.109375,0.46875 -0.90625,0.46875 -0.234375,0 -0.3125,0 -0.3125,0.203125 C 0.34375,0 0.453125,0 0.484375,0 0.78125,0 1.5,-0.03125 1.796875,-0.03125 2.09375,-0.03125 2.828125,0 3.125,0 c 0.078125,0 0.203125,0 0.203125,-0.1875 0,-0.125 -0.078125,-0.125 -0.296875,-0.125 -0.1875,0 -0.234375,0 -0.421875,-0.015625 -0.21875,-0.015625 -0.25,-0.0625 -0.25,-0.171875 0,-0.078125 0.015625,-0.15625 0.03125,-0.234375 z m 0,0"
               style="stroke:none"
               inkscape:connector-curvature="0" />
          </symbol>
          <symbol
             id="textext-0663e1d0-2"
             overflow="visible"
             style="overflow:visible">
            <path
               id="path20980"
               d=""
               style="stroke:none"
               inkscape:connector-curvature="0" />
          </symbol>
          <symbol
             id="textext-0663e1d0-3"
             overflow="visible"
             style="overflow:visible">
            <path
               id="path20983"
               d="m 2.875,-4.1875 c 0.0625,-0.25 0.078125,-0.328125 0.71875,-0.328125 0.21875,0 0.28125,0 0.28125,-0.140625 0,-0.015625 0,-0.109375 -0.109375,-0.109375 -0.15625,0 -0.34375,0.015625 -0.515625,0.03125 -0.171875,0 -0.390625,0 -0.5625,0 -0.140625,0 -0.328125,0 -0.484375,0 -0.140625,0 -0.3125,-0.03125 -0.453125,-0.03125 -0.03125,0 -0.140625,0 -0.140625,0.15625 0,0.09375 0.078125,0.09375 0.21875,0.09375 0.015625,0 0.140625,0 0.265625,0.015625 0.15625,0.015625 0.171875,0.03125 0.171875,0.109375 0,0 0,0.046875 -0.03125,0.140625 l -0.9375,3.703125 C 1.234375,-0.3125 1.21875,-0.25 0.6875,-0.25 c -0.109375,0 -0.203125,0 -0.203125,0.140625 C 0.484375,0 0.5625,0 0.6875,0 l 3.5,0 c 0.1875,0 0.1875,0 0.25,-0.140625 0.0625,-0.1875 0.59375,-1.53125 0.59375,-1.59375 0,-0.015625 -0.015625,-0.09375 -0.125,-0.09375 -0.078125,0 -0.09375,0.03125 -0.140625,0.140625 C 4.5,-1.03125 4.1875,-0.25 2.921875,-0.25 l -0.796875,0 c -0.203125,0 -0.21875,-0.015625 -0.21875,-0.078125 0,0 0,-0.03125 0.03125,-0.140625 z m 0,0"
               style="stroke:none"
               inkscape:connector-curvature="0" />
          </symbol>
          <symbol
             id="textext-0663e1d0-4"
             overflow="visible"
             style="overflow:visible">
            <path
               id="path20986"
               d="M 1.734375,-0.734375 C 1.671875,-0.5 1.4375,-0.125 1.078125,-0.125 c -0.015625,0 -0.234375,0 -0.375,-0.09375 0.28125,-0.09375 0.3125,-0.34375 0.3125,-0.390625 0,-0.15625 -0.125,-0.25 -0.28125,-0.25 -0.203125,0 -0.40625,0.15625 -0.40625,0.421875 0,0.34375 0.390625,0.5 0.734375,0.5 0.328125,0 0.609375,-0.1875 0.78125,-0.484375 C 2.015625,-0.0625 2.390625,0.0625 2.671875,0.0625 c 0.8125,0 1.234375,-0.859375 1.234375,-1.0625 0,-0.09375 -0.09375,-0.09375 -0.109375,-0.09375 -0.109375,0 -0.109375,0.046875 -0.140625,0.125 -0.140625,0.484375 -0.5625,0.84375 -0.953125,0.84375 -0.28125,0 -0.421875,-0.1875 -0.421875,-0.453125 0,-0.1875 0.171875,-0.8125 0.359375,-1.59375 C 2.78125,-2.703125 3.09375,-2.875 3.328125,-2.875 c 0.015625,0 0.21875,0 0.375,0.09375 -0.21875,0.0625 -0.3125,0.265625 -0.3125,0.390625 0,0.140625 0.125,0.25 0.28125,0.25 0.15625,0 0.390625,-0.125 0.390625,-0.421875 0,-0.390625 -0.453125,-0.515625 -0.71875,-0.515625 -0.359375,0 -0.640625,0.234375 -0.78125,0.5 -0.125,-0.28125 -0.453125,-0.5 -0.84375,-0.5 C 0.9375,-3.078125 0.5,-2.21875 0.5,-2 c 0,0.078125 0.09375,0.078125 0.109375,0.078125 0.09375,0 0.09375,-0.015625 0.140625,-0.109375 C 0.921875,-2.578125 1.359375,-2.875 1.703125,-2.875 1.9375,-2.875 2.125,-2.75 2.125,-2.421875 2.125,-2.28125 2.03125,-1.9375 1.96875,-1.6875 z m 0,0"
               style="stroke:none"
               inkscape:connector-curvature="0" />
          </symbol>
        </g>
      </defs>
      <g
         id="textext-0663e1d0-5">
        <g
           id="g20989"
           style="fill:#000000;fill-opacity:1">
          <use
             id="use20991"
             y="134.765"
             x="223.43201"
             xlink:href="#textext-0663e1d0-1"
             width="744.09448"
             height="1052.3622" />
        </g>
        <g
           id="g20993"
           style="fill:#000000;fill-opacity:1">
          <use
             id="use20995"
             y="136.259"
             x="227.812"
             xlink:href="#textext-0663e1d0-3"
             width="744.09448"
             height="1052.3622" />
          <use
             id="use20997"
             y="136.259"
             x="233.27737"
             xlink:href="#textext-0663e1d0-4"
             width="744.09448"
             height="1052.3622" />
        </g>
      </g>
    </g>
    <g
       ns0:text="$L$"
       ns0:preamble=""
       transform="translate(-128.57378,29.39343)"
       id="g21339">
      <defs
         id="defs21341">
        <g
           id="g21343">
          <symbol
             style="overflow:visible"
             overflow="visible"
             id="textext-5328596a-0">
            <path
               inkscape:connector-curvature="0"
               style="stroke:none"
               d=""
               id="path21346" />
          </symbol>
          <symbol
             style="overflow:visible"
             overflow="visible"
             id="textext-5328596a-1">
            <path
               inkscape:connector-curvature="0"
               style="stroke:none"
               d="M 3.734375,-6.03125 C 3.8125,-6.390625 3.84375,-6.5 4.78125,-6.5 c 0.296875,0 0.375,0 0.375,-0.1875 0,-0.125 -0.109375,-0.125 -0.15625,-0.125 -0.328125,0 -1.140625,0.03125 -1.46875,0.03125 -0.296875,0 -1.03125,-0.03125 -1.328125,-0.03125 -0.0625,0 -0.1875,0 -0.1875,0.203125 0,0.109375 0.09375,0.109375 0.28125,0.109375 0.015625,0 0.203125,0 0.375,0.015625 0.171875,0.03125 0.265625,0.03125 0.265625,0.171875 0,0.03125 0,0.0625 -0.03125,0.1875 L 1.5625,-0.78125 c -0.09375,0.390625 -0.109375,0.46875 -0.90625,0.46875 -0.171875,0 -0.265625,0 -0.265625,0.203125 C 0.390625,0 0.484375,0 0.65625,0 l 4.625,0 C 5.515625,0 5.515625,0 5.578125,-0.171875 L 6.375,-2.328125 c 0.03125,-0.109375 0.03125,-0.125 0.03125,-0.140625 0,-0.03125 -0.03125,-0.109375 -0.109375,-0.109375 -0.09375,0 -0.109375,0.0625 -0.171875,0.21875 -0.34375,0.90625 -0.78125,2.046875 -2.5,2.046875 l -0.9375,0 c -0.140625,0 -0.171875,0 -0.21875,0 -0.109375,-0.015625 -0.140625,-0.03125 -0.140625,-0.109375 0,-0.03125 0,-0.046875 0.046875,-0.21875 z m 0,0"
               id="path21349" />
          </symbol>
        </g>
      </defs>
      <g
         id="textext-5328596a-2">
        <g
           style="fill:#000000;fill-opacity:1"
           id="g21352">
          <use
             height="1052.3622"
             width="744.09448"
             xlink:href="#textext-5328596a-1"
             x="223.43201"
             y="134.765"
             id="use21354" />
        </g>
      </g>
    </g>
    <g
       id="g21594"
       transform="translate(-96.296914,17.704218)"
       ns0:preamble=""
       ns0:text="$\\left[\n\\begin{array}\n[c]{c}%\n0\\\\\n0\\\\\n0\n\\end{array}\n\\right]  =\\left[\n\\begin{array}\n[c]{ccc}%\n0 &amp; 0 &amp; 1\\\\\n0 &amp; 0 &amp; -1\\\\\n1 &amp; -1 &amp; -sL\n\\end{array}\n\\right]  \\left[\n\\begin{array}\n[c]{c}%\nV_{1}\\\\\nV_{2}\\\\\nI_{Lx}%\n\\end{array}\n\\right]  $">
      <defs
         id="defs21596">
        <g
           id="g21598">
          <symbol
             id="textext-a52a29df-0"
             overflow="visible"
             style="overflow:visible">
            <path
               id="path21601"
               d=""
               style="stroke:none"
               inkscape:connector-curvature="0" />
          </symbol>
          <symbol
             id="textext-a52a29df-1"
             overflow="visible"
             style="overflow:visible">
            <path
               id="path21604"
               d="m 3.25,17.546875 0.6875,0 0,-17.25 2.625,0 0,-0.6875 -3.3125,0 z m 0,0"
               style="stroke:none"
               inkscape:connector-curvature="0" />
          </symbol>
          <symbol
             id="textext-a52a29df-2"
             overflow="visible"
             style="overflow:visible">
            <path
               id="path21607"
               d="m 3.25,17.53125 3.3125,0 0,-0.6875 -2.625,0 0,-17.25 -0.6875,0 z m 0,0"
               style="stroke:none"
               inkscape:connector-curvature="0" />
          </symbol>
          <symbol
             id="textext-a52a29df-3"
             overflow="visible"
             style="overflow:visible">
            <path
               id="path21610"
               d="m 2.703125,17.546875 0.6875,0 0,-17.9375 -3.328125,0 0,0.6875 2.640625,0 z m 0,0"
               style="stroke:none"
               inkscape:connector-curvature="0" />
          </symbol>
          <symbol
             id="textext-a52a29df-4"
             overflow="visible"
             style="overflow:visible">
            <path
               id="path21613"
               d="m 2.703125,16.84375 -2.640625,0 0,0.6875 3.328125,0 0,-17.9375 -0.6875,0 z m 0,0"
               style="stroke:none"
               inkscape:connector-curvature="0" />
          </symbol>
          <symbol
             id="textext-a52a29df-5"
             overflow="visible"
             style="overflow:visible">
            <path
               id="path21616"
               d=""
               style="stroke:none"
               inkscape:connector-curvature="0" />
          </symbol>
          <symbol
             id="textext-a52a29df-6"
             overflow="visible"
             style="overflow:visible">
            <path
               id="path21619"
               d="m 4.578125,-3.1875 c 0,-0.796875 -0.046875,-1.59375 -0.390625,-2.328125 -0.453125,-0.96875 -1.28125,-1.125 -1.6875,-1.125 -0.609375,0 -1.328125,0.265625 -1.75,1.1875 -0.3125,0.6875 -0.359375,1.46875 -0.359375,2.265625 0,0.75 0.03125,1.640625 0.453125,2.40625 0.421875,0.796875 1.15625,1 1.640625,1 0.53125,0 1.296875,-0.203125 1.734375,-1.15625 0.3125,-0.6875 0.359375,-1.46875 0.359375,-2.25 z M 2.484375,0 C 2.09375,0 1.5,-0.25 1.328125,-1.203125 1.21875,-1.796875 1.21875,-2.71875 1.21875,-3.3125 c 0,-0.640625 0,-1.296875 0.078125,-1.828125 0.1875,-1.1875 0.9375,-1.28125 1.1875,-1.28125 0.328125,0 0.984375,0.1875 1.171875,1.171875 0.109375,0.5625 0.109375,1.3125 0.109375,1.9375 0,0.75 0,1.421875 -0.109375,2.0625 C 3.5,-0.296875 2.9375,0 2.484375,0 z m 0,0"
               style="stroke:none"
               inkscape:connector-curvature="0" />
          </symbol>
          <symbol
             id="textext-a52a29df-7"
             overflow="visible"
             style="overflow:visible">
            <path
               id="path21622"
               d="m 6.84375,-3.265625 c 0.15625,0 0.34375,0 0.34375,-0.1875 C 7.1875,-3.65625 7,-3.65625 6.859375,-3.65625 l -5.96875,0 c -0.140625,0 -0.328125,0 -0.328125,0.203125 0,0.1875 0.1875,0.1875 0.328125,0.1875 z m 0.015625,1.9375 c 0.140625,0 0.328125,0 0.328125,-0.203125 0,-0.1875 -0.1875,-0.1875 -0.34375,-0.1875 l -5.953125,0 c -0.140625,0 -0.328125,0 -0.328125,0.1875 0,0.203125 0.1875,0.203125 0.328125,0.203125 z m 0,0"
               style="stroke:none"
               inkscape:connector-curvature="0" />
          </symbol>
          <symbol
             id="textext-a52a29df-8"
             overflow="visible"
             style="overflow:visible">
            <path
               id="path21625"
               d="m 2.9375,-6.375 c 0,-0.25 0,-0.265625 -0.234375,-0.265625 C 2.078125,-6 1.203125,-6 0.890625,-6 l 0,0.3125 c 0.203125,0 0.78125,0 1.296875,-0.265625 l 0,5.171875 c 0,0.359375 -0.03125,0.46875 -0.921875,0.46875 l -0.3125,0 0,0.3125 c 0.34375,-0.03125 1.203125,-0.03125 1.609375,-0.03125 0.390625,0 1.265625,0 1.609375,0.03125 l 0,-0.3125 -0.3125,0 c -0.90625,0 -0.921875,-0.109375 -0.921875,-0.46875 z m 0,0"
               style="stroke:none"
               inkscape:connector-curvature="0" />
          </symbol>
          <symbol
             id="textext-a52a29df-9"
             overflow="visible"
             style="overflow:visible">
            <path
               id="path21628"
               d=""
               style="stroke:none"
               inkscape:connector-curvature="0" />
          </symbol>
          <symbol
             id="textext-a52a29df-10"
             overflow="visible"
             style="overflow:visible">
            <path
               id="path21631"
               d="m 6.5625,-2.296875 c 0.171875,0 0.359375,0 0.359375,-0.203125 0,-0.1875 -0.1875,-0.1875 -0.359375,-0.1875 l -5.390625,0 c -0.171875,0 -0.34375,0 -0.34375,0.1875 0,0.203125 0.171875,0.203125 0.34375,0.203125 z m 0,0"
               style="stroke:none"
               inkscape:connector-curvature="0" />
          </symbol>
          <symbol
             id="textext-a52a29df-11"
             overflow="visible"
             style="overflow:visible">
            <path
               id="path21634"
               d=""
               style="stroke:none"
               inkscape:connector-curvature="0" />
          </symbol>
          <symbol
             id="textext-a52a29df-12"
             overflow="visible"
             style="overflow:visible">
            <path
               id="path21637"
               d="M 3.890625,-3.734375 C 3.625,-3.71875 3.421875,-3.5 3.421875,-3.28125 c 0,0.140625 0.09375,0.296875 0.3125,0.296875 0.21875,0 0.453125,-0.171875 0.453125,-0.5625 C 4.1875,-4 3.765625,-4.40625 3,-4.40625 c -1.3125,0 -1.6875,1.015625 -1.6875,1.453125 0,0.78125 0.734375,0.921875 1.03125,0.984375 0.515625,0.109375 1.03125,0.21875 1.03125,0.765625 0,0.25 -0.21875,1.09375 -1.421875,1.09375 -0.140625,0 -0.90625,0 -1.140625,-0.53125 0.390625,0.046875 0.640625,-0.25 0.640625,-0.53125 0,-0.21875 -0.171875,-0.34375 -0.375,-0.34375 -0.265625,0 -0.5625,0.203125 -0.5625,0.65625 0,0.5625 0.578125,0.96875 1.421875,0.96875 1.625,0 2.015625,-1.203125 2.015625,-1.65625 0,-0.359375 -0.1875,-0.609375 -0.3125,-0.71875 -0.265625,-0.28125 -0.5625,-0.34375 -1,-0.421875 -0.359375,-0.078125 -0.75,-0.15625 -0.75,-0.609375 C 1.890625,-3.578125 2.125,-4.1875 3,-4.1875 c 0.25,0 0.75,0.078125 0.890625,0.453125 z m 0,0"
               style="stroke:none"
               inkscape:connector-curvature="0" />
          </symbol>
          <symbol
             id="textext-a52a29df-13"
             overflow="visible"
             style="overflow:visible">
            <path
               id="path21640"
               d="M 3.734375,-6.03125 C 3.8125,-6.390625 3.84375,-6.5 4.78125,-6.5 c 0.296875,0 0.375,0 0.375,-0.1875 0,-0.125 -0.109375,-0.125 -0.15625,-0.125 -0.328125,0 -1.140625,0.03125 -1.46875,0.03125 -0.296875,0 -1.03125,-0.03125 -1.328125,-0.03125 -0.0625,0 -0.1875,0 -0.1875,0.203125 0,0.109375 0.09375,0.109375 0.28125,0.109375 0.015625,0 0.203125,0 0.375,0.015625 0.171875,0.03125 0.265625,0.03125 0.265625,0.171875 0,0.03125 0,0.0625 -0.03125,0.1875 L 1.5625,-0.78125 c -0.09375,0.390625 -0.109375,0.46875 -0.90625,0.46875 -0.171875,0 -0.265625,0 -0.265625,0.203125 C 0.390625,0 0.484375,0 0.65625,0 l 4.625,0 C 5.515625,0 5.515625,0 5.578125,-0.171875 L 6.375,-2.328125 c 0.03125,-0.109375 0.03125,-0.125 0.03125,-0.140625 0,-0.03125 -0.03125,-0.109375 -0.109375,-0.109375 -0.09375,0 -0.109375,0.0625 -0.171875,0.21875 -0.34375,0.90625 -0.78125,2.046875 -2.5,2.046875 l -0.9375,0 c -0.140625,0 -0.171875,0 -0.21875,0 -0.109375,-0.015625 -0.140625,-0.03125 -0.140625,-0.109375 0,-0.03125 0,-0.046875 0.046875,-0.21875 z m 0,0"
               style="stroke:none"
               inkscape:connector-curvature="0" />
          </symbol>
          <symbol
             id="textext-a52a29df-14"
             overflow="visible"
             style="overflow:visible">
            <path
               id="path21643"
               d="M 6.265625,-5.671875 C 6.75,-6.453125 7.171875,-6.484375 7.53125,-6.5 c 0.125,-0.015625 0.140625,-0.171875 0.140625,-0.1875 0,-0.078125 -0.0625,-0.125 -0.140625,-0.125 -0.25,0 -0.546875,0.03125 -0.8125,0.03125 -0.328125,0 -0.671875,-0.03125 -0.984375,-0.03125 -0.0625,0 -0.1875,0 -0.1875,0.1875 0,0.109375 0.078125,0.125 0.15625,0.125 0.265625,0.015625 0.453125,0.125 0.453125,0.328125 0,0.15625 -0.140625,0.375 -0.140625,0.375 l -3.0625,4.875 -0.6875,-5.28125 C 2.265625,-6.375 2.5,-6.5 2.953125,-6.5 c 0.140625,0 0.25,0 0.25,-0.203125 0,-0.078125 -0.078125,-0.109375 -0.125,-0.109375 -0.40625,0 -0.828125,0.03125 -1.25,0.03125 -0.171875,0 -0.359375,0 -0.546875,0 -0.171875,0 -0.359375,-0.03125 -0.53125,-0.03125 -0.078125,0 -0.1875,0 -0.1875,0.1875 0,0.125 0.078125,0.125 0.25,0.125 0.546875,0 0.5625,0.09375 0.59375,0.34375 L 2.1875,-0.015625 C 2.21875,0.1875 2.265625,0.21875 2.390625,0.21875 c 0.15625,0 0.203125,-0.046875 0.28125,-0.171875 z m 0,0"
               style="stroke:none"
               inkscape:connector-curvature="0" />
          </symbol>
          <symbol
             id="textext-a52a29df-15"
             overflow="visible"
             style="overflow:visible">
            <path
               id="path21646"
               d="M 3.734375,-6.046875 C 3.8125,-6.40625 3.84375,-6.5 4.640625,-6.5 c 0.234375,0 0.3125,0 0.3125,-0.1875 0,-0.125 -0.109375,-0.125 -0.140625,-0.125 -0.296875,0 -1.03125,0.03125 -1.328125,0.03125 -0.296875,0 -1.015625,-0.03125 -1.328125,-0.03125 -0.0625,0 -0.1875,0 -0.1875,0.203125 C 1.96875,-6.5 2.046875,-6.5 2.25,-6.5 c 0.40625,0 0.6875,0 0.6875,0.1875 0,0.046875 0,0.078125 -0.03125,0.15625 l -1.34375,5.375 c -0.09375,0.375 -0.109375,0.46875 -0.90625,0.46875 -0.234375,0 -0.3125,0 -0.3125,0.203125 C 0.34375,0 0.453125,0 0.484375,0 0.78125,0 1.5,-0.03125 1.796875,-0.03125 2.09375,-0.03125 2.828125,0 3.125,0 c 0.078125,0 0.203125,0 0.203125,-0.1875 0,-0.125 -0.078125,-0.125 -0.296875,-0.125 -0.1875,0 -0.234375,0 -0.421875,-0.015625 -0.21875,-0.015625 -0.25,-0.0625 -0.25,-0.171875 0,-0.078125 0.015625,-0.15625 0.03125,-0.234375 z m 0,0"
               style="stroke:none"
               inkscape:connector-curvature="0" />
          </symbol>
          <symbol
             id="textext-a52a29df-16"
             overflow="visible"
             style="overflow:visible">
            <path
               id="path21649"
               d=""
               style="stroke:none"
               inkscape:connector-curvature="0" />
          </symbol>
          <symbol
             id="textext-a52a29df-17"
             overflow="visible"
             style="overflow:visible">
            <path
               id="path21652"
               d="m 2.328125,-4.4375 c 0,-0.1875 0,-0.1875 -0.203125,-0.1875 -0.453125,0.4375 -1.078125,0.4375 -1.359375,0.4375 l 0,0.25 c 0.15625,0 0.625,0 1,-0.1875 l 0,3.546875 c 0,0.234375 0,0.328125 -0.6875,0.328125 l -0.265625,0 0,0.25 c 0.125,0 0.984375,-0.03125 1.234375,-0.03125 0.21875,0 1.09375,0.03125 1.25,0.03125 l 0,-0.25 -0.265625,0 c -0.703125,0 -0.703125,-0.09375 -0.703125,-0.328125 z m 0,0"
               style="stroke:none"
               inkscape:connector-curvature="0" />
          </symbol>
          <symbol
             id="textext-a52a29df-18"
             overflow="visible"
             style="overflow:visible">
            <path
               id="path21655"
               d="m 3.515625,-1.265625 -0.234375,0 c -0.015625,0.15625 -0.09375,0.5625 -0.1875,0.625 -0.046875,0.046875 -0.578125,0.046875 -0.6875,0.046875 l -1.28125,0 c 0.734375,-0.640625 0.984375,-0.84375 1.390625,-1.171875 0.515625,-0.40625 1,-0.84375 1,-1.5 0,-0.84375 -0.734375,-1.359375 -1.625,-1.359375 -0.859375,0 -1.453125,0.609375 -1.453125,1.25 0,0.34375 0.296875,0.390625 0.375,0.390625 0.15625,0 0.359375,-0.125 0.359375,-0.375 0,-0.125 -0.046875,-0.375 -0.40625,-0.375 C 0.984375,-4.21875 1.453125,-4.375 1.78125,-4.375 c 0.703125,0 1.0625,0.546875 1.0625,1.109375 0,0.609375 -0.4375,1.078125 -0.65625,1.328125 L 0.515625,-0.265625 C 0.4375,-0.203125 0.4375,-0.1875 0.4375,0 l 2.875,0 z m 0,0"
               style="stroke:none"
               inkscape:connector-curvature="0" />
          </symbol>
          <symbol
             id="textext-a52a29df-19"
             overflow="visible"
             style="overflow:visible">
            <path
               id="path21658"
               d=""
               style="stroke:none"
               inkscape:connector-curvature="0" />
          </symbol>
          <symbol
             id="textext-a52a29df-20"
             overflow="visible"
             style="overflow:visible">
            <path
               id="path21661"
               d="m 2.875,-4.1875 c 0.0625,-0.25 0.078125,-0.328125 0.71875,-0.328125 0.21875,0 0.28125,0 0.28125,-0.140625 0,-0.015625 0,-0.109375 -0.109375,-0.109375 -0.15625,0 -0.34375,0.015625 -0.515625,0.03125 -0.171875,0 -0.390625,0 -0.5625,0 -0.140625,0 -0.328125,0 -0.484375,0 -0.140625,0 -0.3125,-0.03125 -0.453125,-0.03125 -0.03125,0 -0.140625,0 -0.140625,0.15625 0,0.09375 0.078125,0.09375 0.21875,0.09375 0.015625,0 0.140625,0 0.265625,0.015625 0.15625,0.015625 0.171875,0.03125 0.171875,0.109375 0,0 0,0.046875 -0.03125,0.140625 l -0.9375,3.703125 C 1.234375,-0.3125 1.21875,-0.25 0.6875,-0.25 c -0.109375,0 -0.203125,0 -0.203125,0.140625 C 0.484375,0 0.5625,0 0.6875,0 l 3.5,0 c 0.1875,0 0.1875,0 0.25,-0.140625 0.0625,-0.1875 0.59375,-1.53125 0.59375,-1.59375 0,-0.015625 -0.015625,-0.09375 -0.125,-0.09375 -0.078125,0 -0.09375,0.03125 -0.140625,0.140625 C 4.5,-1.03125 4.1875,-0.25 2.921875,-0.25 l -0.796875,0 c -0.203125,0 -0.21875,-0.015625 -0.21875,-0.078125 0,0 0,-0.03125 0.03125,-0.140625 z m 0,0"
               style="stroke:none"
               inkscape:connector-curvature="0" />
          </symbol>
          <symbol
             id="textext-a52a29df-21"
             overflow="visible"
             style="overflow:visible">
            <path
               id="path21664"
               d="M 1.734375,-0.734375 C 1.671875,-0.5 1.4375,-0.125 1.078125,-0.125 c -0.015625,0 -0.234375,0 -0.375,-0.09375 0.28125,-0.09375 0.3125,-0.34375 0.3125,-0.390625 0,-0.15625 -0.125,-0.25 -0.28125,-0.25 -0.203125,0 -0.40625,0.15625 -0.40625,0.421875 0,0.34375 0.390625,0.5 0.734375,0.5 0.328125,0 0.609375,-0.1875 0.78125,-0.484375 C 2.015625,-0.0625 2.390625,0.0625 2.671875,0.0625 c 0.8125,0 1.234375,-0.859375 1.234375,-1.0625 0,-0.09375 -0.09375,-0.09375 -0.109375,-0.09375 -0.109375,0 -0.109375,0.046875 -0.140625,0.125 -0.140625,0.484375 -0.5625,0.84375 -0.953125,0.84375 -0.28125,0 -0.421875,-0.1875 -0.421875,-0.453125 0,-0.1875 0.171875,-0.8125 0.359375,-1.59375 C 2.78125,-2.703125 3.09375,-2.875 3.328125,-2.875 c 0.015625,0 0.21875,0 0.375,0.09375 -0.21875,0.0625 -0.3125,0.265625 -0.3125,0.390625 0,0.140625 0.125,0.25 0.28125,0.25 0.15625,0 0.390625,-0.125 0.390625,-0.421875 0,-0.390625 -0.453125,-0.515625 -0.71875,-0.515625 -0.359375,0 -0.640625,0.234375 -0.78125,0.5 -0.125,-0.28125 -0.453125,-0.5 -0.84375,-0.5 C 0.9375,-3.078125 0.5,-2.21875 0.5,-2 c 0,0.078125 0.09375,0.078125 0.109375,0.078125 0.09375,0 0.09375,-0.015625 0.140625,-0.109375 C 0.921875,-2.578125 1.359375,-2.875 1.703125,-2.875 1.9375,-2.875 2.125,-2.75 2.125,-2.421875 2.125,-2.28125 2.03125,-1.9375 1.96875,-1.6875 z m 0,0"
               style="stroke:none"
               inkscape:connector-curvature="0" />
          </symbol>
        </g>
      </defs>
      <g
         id="textext-a52a29df-22">
        <g
           id="g21667"
           style="fill:#000000;fill-opacity:1">
          <use
             id="use21669"
             y="125.201"
             x="223.43201"
             xlink:href="#textext-a52a29df-1"
             width="744.09448"
             height="1052.3622" />
        </g>
        <g
           id="g21671"
           style="fill:#000000;fill-opacity:1">
          <use
             id="use21673"
             y="143.134"
             x="223.43201"
             xlink:href="#textext-a52a29df-2"
             width="744.09448"
             height="1052.3622" />
        </g>
        <g
           id="g21675"
           style="fill:#000000;fill-opacity:1">
          <use
             id="use21677"
             y="133.17101"
             x="235.05499"
             xlink:href="#textext-a52a29df-6"
             width="744.09448"
             height="1052.3622" />
        </g>
        <g
           id="g21679"
           style="fill:#000000;fill-opacity:1">
          <use
             id="use21681"
             y="145.12601"
             x="235.05499"
             xlink:href="#textext-a52a29df-6"
             width="744.09448"
             height="1052.3622" />
        </g>
        <g
           id="g21683"
           style="fill:#000000;fill-opacity:1">
          <use
             id="use21685"
             y="157.08099"
             x="235.05499"
             xlink:href="#textext-a52a29df-6"
             width="744.09448"
             height="1052.3622" />
        </g>
        <g
           id="g21687"
           style="fill:#000000;fill-opacity:1">
          <use
             id="use21689"
             y="125.201"
             x="245.01801"
             xlink:href="#textext-a52a29df-3"
             width="744.09448"
             height="1052.3622" />
        </g>
        <g
           id="g21691"
           style="fill:#000000;fill-opacity:1">
          <use
             id="use21693"
             y="143.134"
             x="245.01801"
             xlink:href="#textext-a52a29df-4"
             width="744.09448"
             height="1052.3622" />
        </g>
        <g
           id="g21695"
           style="fill:#000000;fill-opacity:1">
          <use
             id="use21697"
             y="145.226"
             x="254.427"
             xlink:href="#textext-a52a29df-7"
             width="744.09448"
             height="1052.3622" />
        </g>
        <g
           id="g21699"
           style="fill:#000000;fill-opacity:1">
          <use
             id="use21701"
             y="125.201"
             x="264.94299"
             xlink:href="#textext-a52a29df-1"
             width="744.09448"
             height="1052.3622" />
        </g>
        <g
           id="g21703"
           style="fill:#000000;fill-opacity:1">
          <use
             id="use21705"
             y="143.134"
             x="264.94299"
             xlink:href="#textext-a52a29df-2"
             width="744.09448"
             height="1052.3622" />
        </g>
        <g
           id="g21707"
           style="fill:#000000;fill-opacity:1">
          <use
             id="use21709"
             y="133.17101"
             x="276.56601"
             xlink:href="#textext-a52a29df-6"
             width="744.09448"
             height="1052.3622" />
        </g>
        <g
           id="g21711"
           style="fill:#000000;fill-opacity:1">
          <use
             id="use21713"
             y="133.17101"
             x="295.38535"
             xlink:href="#textext-a52a29df-6"
             width="744.09448"
             height="1052.3622" />
        </g>
        <g
           id="g21715"
           style="fill:#000000;fill-opacity:1">
          <use
             id="use21717"
             y="133.17101"
             x="321.30804"
             xlink:href="#textext-a52a29df-8"
             width="744.09448"
             height="1052.3622" />
        </g>
        <g
           id="g21719"
           style="fill:#000000;fill-opacity:1">
          <use
             id="use21721"
             y="145.12601"
             x="276.56601"
             xlink:href="#textext-a52a29df-6"
             width="744.09448"
             height="1052.3622" />
        </g>
        <g
           id="g21723"
           style="fill:#000000;fill-opacity:1">
          <use
             id="use21725"
             y="145.12601"
             x="295.38535"
             xlink:href="#textext-a52a29df-6"
             width="744.09448"
             height="1052.3622" />
        </g>
        <g
           id="g21727"
           style="fill:#000000;fill-opacity:1">
          <use
             id="use21729"
             y="145.12601"
             x="317.43701"
             xlink:href="#textext-a52a29df-10"
             width="744.09448"
             height="1052.3622" />
        </g>
        <g
           id="g21731"
           style="fill:#000000;fill-opacity:1">
          <use
             id="use21733"
             y="145.12601"
             x="325.186"
             xlink:href="#textext-a52a29df-8"
             width="744.09448"
             height="1052.3622" />
        </g>
        <g
           id="g21735"
           style="fill:#000000;fill-opacity:1">
          <use
             id="use21737"
             y="157.08099"
             x="276.56601"
             xlink:href="#textext-a52a29df-8"
             width="744.09448"
             height="1052.3622" />
        </g>
        <g
           id="g21739"
           style="fill:#000000;fill-opacity:1">
          <use
             id="use21741"
             y="157.08099"
             x="291.51001"
             xlink:href="#textext-a52a29df-10"
             width="744.09448"
             height="1052.3622" />
        </g>
        <g
           id="g21743"
           style="fill:#000000;fill-opacity:1">
          <use
             id="use21745"
             y="157.08099"
             x="299.259"
             xlink:href="#textext-a52a29df-8"
             width="744.09448"
             height="1052.3622" />
        </g>
        <g
           id="g21747"
           style="fill:#000000;fill-opacity:1">
          <use
             id="use21749"
             y="157.08099"
             x="314.203"
             xlink:href="#textext-a52a29df-10"
             width="744.09448"
             height="1052.3622" />
        </g>
        <g
           id="g21751"
           style="fill:#000000;fill-opacity:1">
          <use
             id="use21753"
             y="157.08099"
             x="321.952"
             xlink:href="#textext-a52a29df-12"
             width="744.09448"
             height="1052.3622" />
          <use
             id="use21755"
             y="157.08099"
             x="326.62247"
             xlink:href="#textext-a52a29df-13"
             width="744.09448"
             height="1052.3622" />
        </g>
        <g
           id="g21757"
           style="fill:#000000;fill-opacity:1">
          <use
             id="use21759"
             y="125.201"
             x="338.383"
             xlink:href="#textext-a52a29df-3"
             width="744.09448"
             height="1052.3622" />
        </g>
        <g
           id="g21761"
           style="fill:#000000;fill-opacity:1">
          <use
             id="use21763"
             y="143.134"
             x="338.383"
             xlink:href="#textext-a52a29df-4"
             width="744.09448"
             height="1052.3622" />
        </g>
        <g
           id="g21765"
           style="fill:#000000;fill-opacity:1">
          <use
             id="use21767"
             y="125.201"
             x="346.685"
             xlink:href="#textext-a52a29df-1"
             width="744.09448"
             height="1052.3622" />
        </g>
        <g
           id="g21769"
           style="fill:#000000;fill-opacity:1">
          <use
             id="use21771"
             y="143.134"
             x="346.685"
             xlink:href="#textext-a52a29df-2"
             width="744.09448"
             height="1052.3622" />
        </g>
        <g
           id="g21773"
           style="fill:#000000;fill-opacity:1">
          <use
             id="use21775"
             y="133.17101"
             x="360.59799"
             xlink:href="#textext-a52a29df-14"
             width="744.09448"
             height="1052.3622" />
        </g>
        <g
           id="g21777"
           style="fill:#000000;fill-opacity:1">
          <use
             id="use21779"
             y="134.66499"
             x="366.41"
             xlink:href="#textext-a52a29df-17"
             width="744.09448"
             height="1052.3622" />
        </g>
        <g
           id="g21781"
           style="fill:#000000;fill-opacity:1">
          <use
             id="use21783"
             y="145.12601"
             x="360.59799"
             xlink:href="#textext-a52a29df-14"
             width="744.09448"
             height="1052.3622" />
        </g>
        <g
           id="g21785"
           style="fill:#000000;fill-opacity:1">
          <use
             id="use21787"
             y="146.621"
             x="366.41"
             xlink:href="#textext-a52a29df-18"
             width="744.09448"
             height="1052.3622" />
        </g>
        <g
           id="g21789"
           style="fill:#000000;fill-opacity:1">
          <use
             id="use21791"
             y="157.08099"
             x="358.30801"
             xlink:href="#textext-a52a29df-15"
             width="744.09448"
             height="1052.3622" />
        </g>
        <g
           id="g21793"
           style="fill:#000000;fill-opacity:1">
          <use
             id="use21795"
             y="158.576"
             x="362.68799"
             xlink:href="#textext-a52a29df-20"
             width="744.09448"
             height="1052.3622" />
          <use
             id="use21797"
             y="158.576"
             x="368.15338"
             xlink:href="#textext-a52a29df-21"
             width="744.09448"
             height="1052.3622" />
        </g>
        <g
           id="g21799"
           style="fill:#000000;fill-opacity:1">
          <use
             id="use21801"
             y="125.201"
             x="378.151"
             xlink:href="#textext-a52a29df-3"
             width="744.09448"
             height="1052.3622" />
        </g>
        <g
           id="g21803"
           style="fill:#000000;fill-opacity:1">
          <use
             id="use21805"
             y="143.134"
             x="378.151"
             xlink:href="#textext-a52a29df-4"
             width="744.09448"
             height="1052.3622" />
        </g>
      </g>
    </g>
  </g>
</svg>
