<?xml version="1.0" encoding="UTF-8" standalone="no"?>
<!-- Created with Inkscape (http://www.inkscape.org/) -->

<svg
   xmlns:ns0="http://www.iki.fi/pav/software/textext/"
   xmlns:dc="http://purl.org/dc/elements/1.1/"
   xmlns:cc="http://creativecommons.org/ns#"
   xmlns:rdf="http://www.w3.org/1999/02/22-rdf-syntax-ns#"
   xmlns:svg="http://www.w3.org/2000/svg"
   xmlns="http://www.w3.org/2000/svg"
   xmlns:xlink="http://www.w3.org/1999/xlink"
   xmlns:sodipodi="http://sodipodi.sourceforge.net/DTD/sodipodi-0.dtd"
   xmlns:inkscape="http://www.inkscape.org/namespaces/inkscape"
   width="425"
   height="105"
   id="svg14078"
   version="1.1"
   inkscape:version="0.48.4 r9939"
   sodipodi:docname="stampC.svg">
  <sodipodi:namedview
     id="base"
     pagecolor="#ffffff"
     bordercolor="#666666"
     borderopacity="1.0"
     inkscape:pageopacity="0.0"
     inkscape:pageshadow="2"
     inkscape:zoom="2.8"
     inkscape:cx="180.24552"
     inkscape:cy="24.44231"
     inkscape:document-units="px"
     inkscape:current-layer="layer1"
     showgrid="true"
     inkscape:object-paths="true"
     inkscape:object-nodes="true"
     inkscape:window-width="1665"
     inkscape:window-height="1028"
     inkscape:window-x="66"
     inkscape:window-y="0"
     inkscape:window-maximized="0"
     fit-margin-top="0"
     fit-margin-left="0"
     fit-margin-right="0"
     fit-margin-bottom="0">
    <inkscape:grid
       id="grid14086"
       type="xygrid"
       empspacing="5"
       visible="true"
       enabled="true"
       snapvisiblegridlinesonly="true"
       originx="80.000008px"
       originy="-855px" />
  </sodipodi:namedview>
  <defs
     id="defs14080">
    <marker
       style="overflow:visible"
       id="Arrow2Mend-00"
       refX="0"
       refY="0"
       orient="auto"
       inkscape:stockid="Arrow2Mend">
      <path
         transform="scale(-0.6,-0.6)"
         d="M 8.7185878,4.0337352 -2.2072895,0.01601326 8.7185884,-4.0017078 c -1.7454984,2.3720609 -1.7354408,5.6174519 -6e-7,8.035443 z"
         style="font-size:12px;fill-rule:evenodd;stroke-width:0.625;stroke-linejoin:round"
         id="path5872-4"
         inkscape:connector-curvature="0" />
    </marker>
    <marker
       inkscape:stockid="Arrow2Mend"
       orient="auto"
       refY="0"
       refX="0"
       id="Arrow2Mend-00-6"
       style="overflow:visible">
      <path
         inkscape:connector-curvature="0"
         id="path5872-4-75"
         style="font-size:12px;fill-rule:evenodd;stroke-width:0.625;stroke-linejoin:round"
         d="M 8.7185878,4.0337352 -2.2072895,0.01601326 8.7185884,-4.0017078 c -1.7454984,2.3720609 -1.7354408,5.6174519 -6e-7,8.035443 z"
         transform="scale(-0.6,-0.6)" />
    </marker>
  </defs>
  <metadata
     id="metadata14083">
    <rdf:RDF>
      <cc:Work
         rdf:about="">
        <dc:format>image/svg+xml</dc:format>
        <dc:type
           rdf:resource="http://purl.org/dc/dcmitype/StillImage" />
        <dc:title />
      </cc:Work>
    </rdf:RDF>
  </metadata>
  <g
     id="layer1"
     inkscape:groupmode="layer"
     inkscape:label="Layer 1"
     transform="translate(80.000008,-92.362183)">
    <g
       transform="translate(-44.999997,-108.00002)"
       id="g60446">
      <path
         transform="matrix(2,0,0,1.9999986,-482,193.63786)"
         d="m 307,28.362183 c 0,0.552284 -0.44772,1 -1,1 -0.55228,0 -1,-0.447716 -1,-1 0,-0.552285 0.44772,-1 1,-1 0.55228,0 1,0.447715 1,1 z"
         sodipodi:ry="1"
         sodipodi:rx="1"
         sodipodi:cy="28.362183"
         sodipodi:cx="306"
         id="path6451-2-6"
         style="fill:#000000;fill-opacity:1;stroke:#000000;stroke-opacity:1"
         sodipodi:type="arc" />
      <path
         transform="matrix(2,0,0,1.9999986,-482,233.63786)"
         d="m 307,28.362183 c 0,0.552284 -0.44772,1 -1,1 -0.55228,0 -1,-0.447716 -1,-1 0,-0.552285 0.44772,-1 1,-1 0.55228,0 1,0.447715 1,1 z"
         sodipodi:ry="1"
         sodipodi:rx="1"
         sodipodi:cy="28.362183"
         sodipodi:cx="306"
         id="path6451-2-0"
         style="fill:#000000;fill-opacity:1;stroke:#000000;stroke-opacity:1"
         sodipodi:type="arc" />
      <text
         xml:space="preserve"
         style="font-size:8px;font-style:normal;font-variant:normal;font-weight:normal;font-stretch:normal;text-align:start;line-height:100%;writing-mode:lr-tb;text-anchor:start;fill:#000000;fill-opacity:1;stroke:none;font-family:Arial;-inkscape-font-specification:Arial"
         x="115"
         y="290.36221"
         id="text60130-9-2"
         sodipodi:linespacing="100%"><tspan
           sodipodi:role="line"
           id="tspan60132-3-1"
           x="115"
           y="290.36221">(2)</tspan></text>
      <text
         xml:space="preserve"
         style="font-size:8px;font-style:normal;font-variant:normal;font-weight:normal;font-stretch:normal;text-align:start;line-height:100%;writing-mode:lr-tb;text-anchor:start;fill:#000000;fill-opacity:1;stroke:none;font-family:Arial;-inkscape-font-specification:Arial"
         x="115"
         y="250.3622"
         id="text60130-0"
         sodipodi:linespacing="100%"><tspan
           sodipodi:role="line"
           id="tspan60132-5"
           x="115"
           y="250.3622">(1)</tspan></text>
      <g
         id="g6498"
         transform="translate(39.999997,-2967.63)">
        <path
           style="fill:none;stroke:#000000;stroke-width:1px;stroke-linecap:round;stroke-linejoin:miter;stroke-opacity:1"
           id="path2391"
           d="m 90,3239.9922 0,18"
           inkscape:connector-curvature="0" />
        <path
           style="fill:none;stroke:#000000;stroke-width:1px;stroke-linecap:round;stroke-linejoin:miter;stroke-opacity:1"
           id="path2393"
           d="m 90,3217.9922 0,18"
           inkscape:connector-curvature="0" />
        <path
           style="fill:none;stroke:#000000;stroke-width:2;stroke-linecap:butt;stroke-linejoin:miter;stroke-miterlimit:4;stroke-opacity:1;stroke-dasharray:none"
           id="path2394"
           d="m 97,3235.9922 -14,0"
           inkscape:connector-curvature="0" />
        <path
           style="fill:none;stroke:#000000;stroke-width:2;stroke-linecap:butt;stroke-linejoin:miter;stroke-miterlimit:4;stroke-opacity:1;stroke-dasharray:none"
           id="path2396"
           d="m 97,3239.9922 -14,0"
           inkscape:connector-curvature="0" />
      </g>
    </g>
    <text
       sodipodi:linespacing="100%"
       id="text60370-1"
       y="127.36218"
       x="65"
       style="font-size:8px;font-style:normal;font-variant:normal;font-weight:bold;font-stretch:normal;text-align:start;line-height:100%;writing-mode:lr-tb;text-anchor:start;fill:#000000;fill-opacity:1;stroke:none;font-family:Courier New;-inkscape-font-specification:Courier New Bold"
       xml:space="preserve"><tspan
         y="127.36218"
         x="65"
         id="tspan60372-0"
         sodipodi:role="line">Cx 1 2 {C}</tspan></text>
    <text
       xml:space="preserve"
       style="font-size:10px;font-style:normal;font-variant:normal;font-weight:normal;font-stretch:normal;text-align:start;line-height:125%;letter-spacing:0px;word-spacing:0px;writing-mode:lr-tb;text-anchor:start;fill:#000000;fill-opacity:1;stroke:none;font-family:Sans;-inkscape-font-specification:Sans"
       x="65"
       y="112.36218"
       id="text13474-1"
       sodipodi:linespacing="125%"><tspan
         sodipodi:role="line"
         id="tspan13476-2"
         x="65"
         y="112.36218">Capacitor</tspan></text>
    <rect
       style="fill:#0064ff;fill-opacity:0.0745098;stroke:none"
       id="rect6470-9-4-1"
       y="92.362183"
       x="-80.000008"
       height="105"
       width="425" />
    <g
       id="g22220"
       transform="translate(-128.57378,29.39343)"
       ns0:preamble=""
       ns0:text="$C$">
      <defs
         id="defs22222">
        <g
           id="g22224">
          <symbol
             id="textext-de7fe78c-0"
             overflow="visible"
             style="overflow:visible">
            <path
               id="path22227"
               d=""
               style="stroke:none"
               inkscape:connector-curvature="0" />
          </symbol>
          <symbol
             id="textext-de7fe78c-1"
             overflow="visible"
             style="overflow:visible">
            <path
               id="path22230"
               d="m 7.578125,-6.921875 c 0,-0.03125 -0.015625,-0.109375 -0.109375,-0.109375 -0.03125,0 -0.046875,0.015625 -0.15625,0.125 L 6.625,-6.140625 C 6.53125,-6.28125 6.078125,-7.03125 4.96875,-7.03125 2.734375,-7.03125 0.5,-4.828125 0.5,-2.515625 0.5,-0.875 1.671875,0.21875 3.203125,0.21875 c 0.859375,0 1.625,-0.390625 2.15625,-0.859375 0.921875,-0.8125 1.09375,-1.71875 1.09375,-1.75 C 6.453125,-2.5 6.34375,-2.5 6.328125,-2.5 c -0.0625,0 -0.109375,0.03125 -0.125,0.109375 -0.09375,0.28125 -0.328125,1 -1.015625,1.578125 -0.6875,0.546875 -1.3125,0.71875 -1.828125,0.71875 -0.890625,0 -1.953125,-0.515625 -1.953125,-2.0625 0,-0.578125 0.203125,-2.1875 1.203125,-3.359375 0.609375,-0.703125 1.546875,-1.203125 2.4375,-1.203125 1.015625,0 1.609375,0.765625 1.609375,1.921875 0,0.40625 -0.03125,0.40625 -0.03125,0.515625 0,0.09375 0.109375,0.09375 0.140625,0.09375 0.125,0 0.125,-0.015625 0.1875,-0.203125 z m 0,0"
               style="stroke:none"
               inkscape:connector-curvature="0" />
          </symbol>
        </g>
      </defs>
      <g
         id="textext-de7fe78c-2">
        <g
           id="g22233"
           style="fill:#000000;fill-opacity:1">
          <use
             id="use22235"
             y="134.765"
             x="223.43201"
             xlink:href="#textext-de7fe78c-1"
             width="744.09448"
             height="1052.3622" />
        </g>
      </g>
    </g>
    <g
       id="g22767"
       transform="translate(-96.296914,17.704218)"
       ns0:preamble=""
       ns0:text="$\\left[\n\\begin{array}\n[c]{c}%\n0\\\\\n0\n\\end{array}\n\\right]  =\\left[\n\\begin{array}\n[c]{ccc}%\nsC &amp; -sC\\\\\n-sC &amp; sC\n\\end{array}\n\\right]  \\left[\n\\begin{array}\n[c]{c}%\nV_{1}\\\\\nV_{2}%\n\\end{array}\n\\right]  $">
      <defs
         id="defs22769">
        <g
           id="g22771">
          <symbol
             id="textext-5a4ebca2-0"
             overflow="visible"
             style="overflow:visible">
            <path
               id="path22774"
               d=""
               style="stroke:none"
               inkscape:connector-curvature="0" />
          </symbol>
          <symbol
             id="textext-5a4ebca2-1"
             overflow="visible"
             style="overflow:visible">
            <path
               id="path22777"
               d="m 2.5,23.515625 2.609375,0 0,-0.546875 -2.0625,0 0,-22.8125 2.0625,0 0,-0.5625 -2.609375,0 z m 0,0"
               style="stroke:none"
               inkscape:connector-curvature="0" />
          </symbol>
          <symbol
             id="textext-5a4ebca2-2"
             overflow="visible"
             style="overflow:visible">
            <path
               id="path22780"
               d="m 2.21875,22.96875 -2.078125,0 0,0.546875 2.625,0 0,-23.921875 -2.625,0 0,0.5625 2.078125,0 z m 0,0"
               style="stroke:none"
               inkscape:connector-curvature="0" />
          </symbol>
          <symbol
             id="textext-5a4ebca2-3"
             overflow="visible"
             style="overflow:visible">
            <path
               id="path22783"
               d=""
               style="stroke:none"
               inkscape:connector-curvature="0" />
          </symbol>
          <symbol
             id="textext-5a4ebca2-4"
             overflow="visible"
             style="overflow:visible">
            <path
               id="path22786"
               d="m 4.578125,-3.1875 c 0,-0.796875 -0.046875,-1.59375 -0.390625,-2.328125 -0.453125,-0.96875 -1.28125,-1.125 -1.6875,-1.125 -0.609375,0 -1.328125,0.265625 -1.75,1.1875 -0.3125,0.6875 -0.359375,1.46875 -0.359375,2.265625 0,0.75 0.03125,1.640625 0.453125,2.40625 0.421875,0.796875 1.15625,1 1.640625,1 0.53125,0 1.296875,-0.203125 1.734375,-1.15625 0.3125,-0.6875 0.359375,-1.46875 0.359375,-2.25 z M 2.484375,0 C 2.09375,0 1.5,-0.25 1.328125,-1.203125 1.21875,-1.796875 1.21875,-2.71875 1.21875,-3.3125 c 0,-0.640625 0,-1.296875 0.078125,-1.828125 0.1875,-1.1875 0.9375,-1.28125 1.1875,-1.28125 0.328125,0 0.984375,0.1875 1.171875,1.171875 0.109375,0.5625 0.109375,1.3125 0.109375,1.9375 0,0.75 0,1.421875 -0.109375,2.0625 C 3.5,-0.296875 2.9375,0 2.484375,0 z m 0,0"
               style="stroke:none"
               inkscape:connector-curvature="0" />
          </symbol>
          <symbol
             id="textext-5a4ebca2-5"
             overflow="visible"
             style="overflow:visible">
            <path
               id="path22789"
               d="m 6.84375,-3.265625 c 0.15625,0 0.34375,0 0.34375,-0.1875 C 7.1875,-3.65625 7,-3.65625 6.859375,-3.65625 l -5.96875,0 c -0.140625,0 -0.328125,0 -0.328125,0.203125 0,0.1875 0.1875,0.1875 0.328125,0.1875 z m 0.015625,1.9375 c 0.140625,0 0.328125,0 0.328125,-0.203125 0,-0.1875 -0.1875,-0.1875 -0.34375,-0.1875 l -5.953125,0 c -0.140625,0 -0.328125,0 -0.328125,0.1875 0,0.203125 0.1875,0.203125 0.328125,0.203125 z m 0,0"
               style="stroke:none"
               inkscape:connector-curvature="0" />
          </symbol>
          <symbol
             id="textext-5a4ebca2-6"
             overflow="visible"
             style="overflow:visible">
            <path
               id="path22792"
               d=""
               style="stroke:none"
               inkscape:connector-curvature="0" />
          </symbol>
          <symbol
             id="textext-5a4ebca2-7"
             overflow="visible"
             style="overflow:visible">
            <path
               id="path22795"
               d="M 3.890625,-3.734375 C 3.625,-3.71875 3.421875,-3.5 3.421875,-3.28125 c 0,0.140625 0.09375,0.296875 0.3125,0.296875 0.21875,0 0.453125,-0.171875 0.453125,-0.5625 C 4.1875,-4 3.765625,-4.40625 3,-4.40625 c -1.3125,0 -1.6875,1.015625 -1.6875,1.453125 0,0.78125 0.734375,0.921875 1.03125,0.984375 0.515625,0.109375 1.03125,0.21875 1.03125,0.765625 0,0.25 -0.21875,1.09375 -1.421875,1.09375 -0.140625,0 -0.90625,0 -1.140625,-0.53125 0.390625,0.046875 0.640625,-0.25 0.640625,-0.53125 0,-0.21875 -0.171875,-0.34375 -0.375,-0.34375 -0.265625,0 -0.5625,0.203125 -0.5625,0.65625 0,0.5625 0.578125,0.96875 1.421875,0.96875 1.625,0 2.015625,-1.203125 2.015625,-1.65625 0,-0.359375 -0.1875,-0.609375 -0.3125,-0.71875 -0.265625,-0.28125 -0.5625,-0.34375 -1,-0.421875 -0.359375,-0.078125 -0.75,-0.15625 -0.75,-0.609375 C 1.890625,-3.578125 2.125,-4.1875 3,-4.1875 c 0.25,0 0.75,0.078125 0.890625,0.453125 z m 0,0"
               style="stroke:none"
               inkscape:connector-curvature="0" />
          </symbol>
          <symbol
             id="textext-5a4ebca2-8"
             overflow="visible"
             style="overflow:visible">
            <path
               id="path22798"
               d="m 7.578125,-6.921875 c 0,-0.03125 -0.015625,-0.109375 -0.109375,-0.109375 -0.03125,0 -0.046875,0.015625 -0.15625,0.125 L 6.625,-6.140625 C 6.53125,-6.28125 6.078125,-7.03125 4.96875,-7.03125 2.734375,-7.03125 0.5,-4.828125 0.5,-2.515625 0.5,-0.875 1.671875,0.21875 3.203125,0.21875 c 0.859375,0 1.625,-0.390625 2.15625,-0.859375 0.921875,-0.8125 1.09375,-1.71875 1.09375,-1.75 C 6.453125,-2.5 6.34375,-2.5 6.328125,-2.5 c -0.0625,0 -0.109375,0.03125 -0.125,0.109375 -0.09375,0.28125 -0.328125,1 -1.015625,1.578125 -0.6875,0.546875 -1.3125,0.71875 -1.828125,0.71875 -0.890625,0 -1.953125,-0.515625 -1.953125,-2.0625 0,-0.578125 0.203125,-2.1875 1.203125,-3.359375 0.609375,-0.703125 1.546875,-1.203125 2.4375,-1.203125 1.015625,0 1.609375,0.765625 1.609375,1.921875 0,0.40625 -0.03125,0.40625 -0.03125,0.515625 0,0.09375 0.109375,0.09375 0.140625,0.09375 0.125,0 0.125,-0.015625 0.1875,-0.203125 z m 0,0"
               style="stroke:none"
               inkscape:connector-curvature="0" />
          </symbol>
          <symbol
             id="textext-5a4ebca2-9"
             overflow="visible"
             style="overflow:visible">
            <path
               id="path22801"
               d="M 6.265625,-5.671875 C 6.75,-6.453125 7.171875,-6.484375 7.53125,-6.5 c 0.125,-0.015625 0.140625,-0.171875 0.140625,-0.1875 0,-0.078125 -0.0625,-0.125 -0.140625,-0.125 -0.25,0 -0.546875,0.03125 -0.8125,0.03125 -0.328125,0 -0.671875,-0.03125 -0.984375,-0.03125 -0.0625,0 -0.1875,0 -0.1875,0.1875 0,0.109375 0.078125,0.125 0.15625,0.125 0.265625,0.015625 0.453125,0.125 0.453125,0.328125 0,0.15625 -0.140625,0.375 -0.140625,0.375 l -3.0625,4.875 -0.6875,-5.28125 C 2.265625,-6.375 2.5,-6.5 2.953125,-6.5 c 0.140625,0 0.25,0 0.25,-0.203125 0,-0.078125 -0.078125,-0.109375 -0.125,-0.109375 -0.40625,0 -0.828125,0.03125 -1.25,0.03125 -0.171875,0 -0.359375,0 -0.546875,0 -0.171875,0 -0.359375,-0.03125 -0.53125,-0.03125 -0.078125,0 -0.1875,0 -0.1875,0.1875 0,0.125 0.078125,0.125 0.25,0.125 0.546875,0 0.5625,0.09375 0.59375,0.34375 L 2.1875,-0.015625 C 2.21875,0.1875 2.265625,0.21875 2.390625,0.21875 c 0.15625,0 0.203125,-0.046875 0.28125,-0.171875 z m 0,0"
               style="stroke:none"
               inkscape:connector-curvature="0" />
          </symbol>
          <symbol
             id="textext-5a4ebca2-10"
             overflow="visible"
             style="overflow:visible">
            <path
               id="path22804"
               d=""
               style="stroke:none"
               inkscape:connector-curvature="0" />
          </symbol>
          <symbol
             id="textext-5a4ebca2-11"
             overflow="visible"
             style="overflow:visible">
            <path
               id="path22807"
               d="m 6.5625,-2.296875 c 0.171875,0 0.359375,0 0.359375,-0.203125 0,-0.1875 -0.1875,-0.1875 -0.359375,-0.1875 l -5.390625,0 c -0.171875,0 -0.34375,0 -0.34375,0.1875 0,0.203125 0.171875,0.203125 0.34375,0.203125 z m 0,0"
               style="stroke:none"
               inkscape:connector-curvature="0" />
          </symbol>
          <symbol
             id="textext-5a4ebca2-12"
             overflow="visible"
             style="overflow:visible">
            <path
               id="path22810"
               d=""
               style="stroke:none"
               inkscape:connector-curvature="0" />
          </symbol>
          <symbol
             id="textext-5a4ebca2-13"
             overflow="visible"
             style="overflow:visible">
            <path
               id="path22813"
               d="m 2.328125,-4.4375 c 0,-0.1875 0,-0.1875 -0.203125,-0.1875 -0.453125,0.4375 -1.078125,0.4375 -1.359375,0.4375 l 0,0.25 c 0.15625,0 0.625,0 1,-0.1875 l 0,3.546875 c 0,0.234375 0,0.328125 -0.6875,0.328125 l -0.265625,0 0,0.25 c 0.125,0 0.984375,-0.03125 1.234375,-0.03125 0.21875,0 1.09375,0.03125 1.25,0.03125 l 0,-0.25 -0.265625,0 c -0.703125,0 -0.703125,-0.09375 -0.703125,-0.328125 z m 0,0"
               style="stroke:none"
               inkscape:connector-curvature="0" />
          </symbol>
          <symbol
             id="textext-5a4ebca2-14"
             overflow="visible"
             style="overflow:visible">
            <path
               id="path22816"
               d="m 3.515625,-1.265625 -0.234375,0 c -0.015625,0.15625 -0.09375,0.5625 -0.1875,0.625 -0.046875,0.046875 -0.578125,0.046875 -0.6875,0.046875 l -1.28125,0 c 0.734375,-0.640625 0.984375,-0.84375 1.390625,-1.171875 0.515625,-0.40625 1,-0.84375 1,-1.5 0,-0.84375 -0.734375,-1.359375 -1.625,-1.359375 -0.859375,0 -1.453125,0.609375 -1.453125,1.25 0,0.34375 0.296875,0.390625 0.375,0.390625 0.15625,0 0.359375,-0.125 0.359375,-0.375 0,-0.125 -0.046875,-0.375 -0.40625,-0.375 C 0.984375,-4.21875 1.453125,-4.375 1.78125,-4.375 c 0.703125,0 1.0625,0.546875 1.0625,1.109375 0,0.609375 -0.4375,1.078125 -0.65625,1.328125 L 0.515625,-0.265625 C 0.4375,-0.203125 0.4375,-0.1875 0.4375,0 l 2.875,0 z m 0,0"
               style="stroke:none"
               inkscape:connector-curvature="0" />
          </symbol>
        </g>
      </defs>
      <g
         id="textext-5a4ebca2-15">
        <g
           id="g22819"
           style="fill:#000000;fill-opacity:1">
          <use
             id="use22821"
             y="125.201"
             x="223.43201"
             xlink:href="#textext-5a4ebca2-1"
             width="744.09448"
             height="1052.3622" />
        </g>
        <g
           id="g22823"
           style="fill:#000000;fill-opacity:1">
          <use
             id="use22825"
             y="133.17101"
             x="233.672"
             xlink:href="#textext-5a4ebca2-4"
             width="744.09448"
             height="1052.3622" />
        </g>
        <g
           id="g22827"
           style="fill:#000000;fill-opacity:1">
          <use
             id="use22829"
             y="145.12601"
             x="233.672"
             xlink:href="#textext-5a4ebca2-4"
             width="744.09448"
             height="1052.3622" />
        </g>
        <g
           id="g22831"
           style="fill:#000000;fill-opacity:1">
          <use
             id="use22833"
             y="125.201"
             x="243.634"
             xlink:href="#textext-5a4ebca2-2"
             width="744.09448"
             height="1052.3622" />
        </g>
        <g
           id="g22835"
           style="fill:#000000;fill-opacity:1">
          <use
             id="use22837"
             y="139.248"
             x="251.66"
             xlink:href="#textext-5a4ebca2-5"
             width="744.09448"
             height="1052.3622" />
        </g>
        <g
           id="g22839"
           style="fill:#000000;fill-opacity:1">
          <use
             id="use22841"
             y="125.201"
             x="262.17599"
             xlink:href="#textext-5a4ebca2-1"
             width="744.09448"
             height="1052.3622" />
        </g>
        <g
           id="g22843"
           style="fill:#000000;fill-opacity:1">
          <use
             id="use22845"
             y="133.17101"
             x="276.289"
             xlink:href="#textext-5a4ebca2-7"
             width="744.09448"
             height="1052.3622" />
          <use
             id="use22847"
             y="133.17101"
             x="280.95947"
             xlink:href="#textext-5a4ebca2-8"
             width="744.09448"
             height="1052.3622" />
        </g>
        <g
           id="g22849"
           style="fill:#000000;fill-opacity:1">
          <use
             id="use22851"
             y="133.17101"
             x="302.63"
             xlink:href="#textext-5a4ebca2-11"
             width="744.09448"
             height="1052.3622" />
        </g>
        <g
           id="g22853"
           style="fill:#000000;fill-opacity:1">
          <use
             id="use22855"
             y="133.17101"
             x="310.37799"
             xlink:href="#textext-5a4ebca2-7"
             width="744.09448"
             height="1052.3622" />
          <use
             id="use22857"
             y="133.17101"
             x="315.04846"
             xlink:href="#textext-5a4ebca2-8"
             width="744.09448"
             height="1052.3622" />
        </g>
        <g
           id="g22859"
           style="fill:#000000;fill-opacity:1">
          <use
             id="use22861"
             y="145.12601"
             x="272.41501"
             xlink:href="#textext-5a4ebca2-11"
             width="744.09448"
             height="1052.3622" />
        </g>
        <g
           id="g22863"
           style="fill:#000000;fill-opacity:1">
          <use
             id="use22865"
             y="145.12601"
             x="280.164"
             xlink:href="#textext-5a4ebca2-7"
             width="744.09448"
             height="1052.3622" />
          <use
             id="use22867"
             y="145.12601"
             x="284.83447"
             xlink:href="#textext-5a4ebca2-8"
             width="744.09448"
             height="1052.3622" />
        </g>
        <g
           id="g22869"
           style="fill:#000000;fill-opacity:1">
          <use
             id="use22871"
             y="145.12601"
             x="306.50012"
             xlink:href="#textext-5a4ebca2-7"
             width="744.09448"
             height="1052.3622" />
          <use
             id="use22873"
             y="145.12601"
             x="311.17059"
             xlink:href="#textext-5a4ebca2-8"
             width="744.09448"
             height="1052.3622" />
        </g>
        <g
           id="g22875"
           style="fill:#000000;fill-opacity:1">
          <use
             id="use22877"
             y="125.201"
             x="327.86301"
             xlink:href="#textext-5a4ebca2-2"
             width="744.09448"
             height="1052.3622" />
        </g>
        <g
           id="g22879"
           style="fill:#000000;fill-opacity:1">
          <use
             id="use22881"
             y="125.201"
             x="334.785"
             xlink:href="#textext-5a4ebca2-1"
             width="744.09448"
             height="1052.3622" />
        </g>
        <g
           id="g22883"
           style="fill:#000000;fill-opacity:1">
          <use
             id="use22885"
             y="133.17101"
             x="345.021"
             xlink:href="#textext-5a4ebca2-9"
             width="744.09448"
             height="1052.3622" />
        </g>
        <g
           id="g22887"
           style="fill:#000000;fill-opacity:1">
          <use
             id="use22889"
             y="134.66499"
             x="350.832"
             xlink:href="#textext-5a4ebca2-13"
             width="744.09448"
             height="1052.3622" />
        </g>
        <g
           id="g22891"
           style="fill:#000000;fill-opacity:1">
          <use
             id="use22893"
             y="145.12601"
             x="345.021"
             xlink:href="#textext-5a4ebca2-9"
             width="744.09448"
             height="1052.3622" />
        </g>
        <g
           id="g22895"
           style="fill:#000000;fill-opacity:1">
          <use
             id="use22897"
             y="146.621"
             x="350.832"
             xlink:href="#textext-5a4ebca2-14"
             width="744.09448"
             height="1052.3622" />
        </g>
        <g
           id="g22899"
           style="fill:#000000;fill-opacity:1">
          <use
             id="use22901"
             y="125.201"
             x="360.28299"
             xlink:href="#textext-5a4ebca2-2"
             width="744.09448"
             height="1052.3622" />
        </g>
      </g>
    </g>
  </g>
</svg>
