<?xml version="1.0" encoding="utf-8" standalone="no"?>
<!DOCTYPE svg PUBLIC "-//W3C//DTD SVG 1.1//EN"
  "http://www.w3.org/Graphics/SVG/1.1/DTD/svg11.dtd">
<!-- Created with matplotlib (http://matplotlib.org/) -->
<svg height="360pt" version="1.1" viewBox="0 0 504 360" width="504pt" xmlns="http://www.w3.org/2000/svg" xmlns:xlink="http://www.w3.org/1999/xlink">
 <defs>
  <style type="text/css">
*{stroke-linecap:butt;stroke-linejoin:round;}
  </style>
 </defs>
 <g id="figure_1">
  <g id="patch_1">
   <path d="M 0 360 
L 504 360 
L 504 0 
L 0 0 
z
" style="fill:#ffffff;"/>
  </g>
  <g id="axes_1">
   <g id="patch_2">
    <path d="M 389.905 178.295 
C 389.905 160.185481 386.33782 142.252055 379.407607 125.521041 
C 372.477394 108.790028 362.318924 93.586803 349.513561 80.781439 
C 336.708197 67.976076 321.504972 57.817606 304.773959 50.887393 
C 288.042945 43.95718 270.109519 40.39 252 40.39 
C 233.890481 40.39 215.957055 43.95718 199.226041 50.887393 
C 182.495028 57.817606 167.291803 67.976076 154.486439 80.781439 
C 141.681076 93.586803 131.522606 108.790028 124.592393 125.521041 
C 117.66218 142.252055 114.095 160.185481 114.095 178.295 
C 114.095 196.404519 117.66218 214.337945 124.592393 231.068959 
C 131.522606 247.799972 141.681076 263.003197 154.486439 275.808561 
C 167.291803 288.613924 182.495028 298.772394 199.226041 305.702607 
C 215.957055 312.63282 233.890481 316.2 252 316.2 
C 270.109519 316.2 288.042945 312.63282 304.773959 305.702607 
C 321.504972 298.772394 336.708197 288.613924 349.513561 275.808561 
C 362.318924 263.003197 372.477394 247.799972 379.407607 231.068959 
C 386.33782 214.337945 389.905 196.404519 389.905 178.295 
M 252 178.295 
C 252 178.295 252 178.295 252 178.295 
C 252 178.295 252 178.295 252 178.295 
C 252 178.295 252 178.295 252 178.295 
C 252 178.295 252 178.295 252 178.295 
C 252 178.295 252 178.295 252 178.295 
C 252 178.295 252 178.295 252 178.295 
C 252 178.295 252 178.295 252 178.295 
C 252 178.295 252 178.295 252 178.295 
C 252 178.295 252 178.295 252 178.295 
C 252 178.295 252 178.295 252 178.295 
C 252 178.295 252 178.295 252 178.295 
C 252 178.295 252 178.295 252 178.295 
C 252 178.295 252 178.295 252 178.295 
C 252 178.295 252 178.295 252 178.295 
C 252 178.295 252 178.295 252 178.295 
C 252 178.295 252 178.295 252 178.295 
M 389.905 178.295 
z
" style="fill:#ffffff;"/>
   </g>
   <g id="matplotlib.axis_1">
    <g id="xtick_1">
     <g id="line2d_1">
      <path clip-path="url(#pe0f48ae4a3)" d="M 252 178.295 
L 389.905 178.295 
" style="fill:none;stroke:#808080;stroke-linecap:square;stroke-width:0.8;"/>
     </g>
     <g id="text_1">
      <!-- 0° -->
      <defs>
       <path d="M 31.78125 66.40625 
Q 24.171875 66.40625 20.328125 58.90625 
Q 16.5 51.421875 16.5 36.375 
Q 16.5 21.390625 20.328125 13.890625 
Q 24.171875 6.390625 31.78125 6.390625 
Q 39.453125 6.390625 43.28125 13.890625 
Q 47.125 21.390625 47.125 36.375 
Q 47.125 51.421875 43.28125 58.90625 
Q 39.453125 66.40625 31.78125 66.40625 
z
M 31.78125 74.21875 
Q 44.046875 74.21875 50.515625 64.515625 
Q 56.984375 54.828125 56.984375 36.375 
Q 56.984375 17.96875 50.515625 8.265625 
Q 44.046875 -1.421875 31.78125 -1.421875 
Q 19.53125 -1.421875 13.0625 8.265625 
Q 6.59375 17.96875 6.59375 36.375 
Q 6.59375 54.828125 13.0625 64.515625 
Q 19.53125 74.21875 31.78125 74.21875 
z
" id="DejaVuSans-30"/>
       <path d="M 25 67.921875 
Q 21.09375 67.921875 18.40625 65.203125 
Q 15.71875 62.5 15.71875 58.59375 
Q 15.71875 54.734375 18.40625 52.078125 
Q 21.09375 49.421875 25 49.421875 
Q 28.90625 49.421875 31.59375 52.078125 
Q 34.28125 54.734375 34.28125 58.59375 
Q 34.28125 62.453125 31.5625 65.1875 
Q 28.859375 67.921875 25 67.921875 
z
M 25 74.21875 
Q 28.125 74.21875 31 73.015625 
Q 33.890625 71.828125 35.984375 69.578125 
Q 38.234375 67.390625 39.359375 64.59375 
Q 40.484375 61.8125 40.484375 58.59375 
Q 40.484375 52.15625 35.96875 47.6875 
Q 31.453125 43.21875 24.90625 43.21875 
Q 18.3125 43.21875 13.90625 47.609375 
Q 9.515625 52 9.515625 58.59375 
Q 9.515625 65.140625 14 69.671875 
Q 18.5 74.21875 25 74.21875 
z
" id="DejaVuSans-b0"/>
      </defs>
      <g transform="translate(397.0875 181.60625)scale(0.12 -0.12)">
       <use xlink:href="#DejaVuSans-30"/>
       <use x="63.623047" xlink:href="#DejaVuSans-b0"/>
      </g>
     </g>
    </g>
    <g id="xtick_2">
     <g id="line2d_2">
      <path clip-path="url(#pe0f48ae4a3)" d="M 252 178.295 
L 349.513561 80.781439 
" style="fill:none;stroke:#808080;stroke-linecap:square;stroke-width:0.8;"/>
     </g>
     <g id="text_2">
      <!-- 45° -->
      <defs>
       <path d="M 37.796875 64.3125 
L 12.890625 25.390625 
L 37.796875 25.390625 
z
M 35.203125 72.90625 
L 47.609375 72.90625 
L 47.609375 25.390625 
L 58.015625 25.390625 
L 58.015625 17.1875 
L 47.609375 17.1875 
L 47.609375 0 
L 37.796875 0 
L 37.796875 17.1875 
L 4.890625 17.1875 
L 4.890625 26.703125 
z
" id="DejaVuSans-34"/>
       <path d="M 10.796875 72.90625 
L 49.515625 72.90625 
L 49.515625 64.59375 
L 19.828125 64.59375 
L 19.828125 46.734375 
Q 21.96875 47.46875 24.109375 47.828125 
Q 26.265625 48.1875 28.421875 48.1875 
Q 40.625 48.1875 47.75 41.5 
Q 54.890625 34.8125 54.890625 23.390625 
Q 54.890625 11.625 47.5625 5.09375 
Q 40.234375 -1.421875 26.90625 -1.421875 
Q 22.3125 -1.421875 17.546875 -0.640625 
Q 12.796875 0.140625 7.71875 1.703125 
L 7.71875 11.625 
Q 12.109375 9.234375 16.796875 8.0625 
Q 21.484375 6.890625 26.703125 6.890625 
Q 35.15625 6.890625 40.078125 11.328125 
Q 45.015625 15.765625 45.015625 23.390625 
Q 45.015625 31 40.078125 35.4375 
Q 35.15625 39.890625 26.703125 39.890625 
Q 22.75 39.890625 18.8125 39.015625 
Q 14.890625 38.140625 10.796875 36.28125 
z
" id="DejaVuSans-35"/>
      </defs>
      <g transform="translate(348.778056 74.193194)scale(0.12 -0.12)">
       <use xlink:href="#DejaVuSans-34"/>
       <use x="63.623047" xlink:href="#DejaVuSans-35"/>
       <use x="127.246094" xlink:href="#DejaVuSans-b0"/>
      </g>
     </g>
    </g>
    <g id="xtick_3">
     <g id="line2d_3">
      <path clip-path="url(#pe0f48ae4a3)" d="M 252 178.295 
L 252 40.39 
" style="fill:none;stroke:#808080;stroke-linecap:square;stroke-width:0.8;"/>
     </g>
     <g id="text_3">
      <!-- 90° -->
      <defs>
       <path d="M 10.984375 1.515625 
L 10.984375 10.5 
Q 14.703125 8.734375 18.5 7.8125 
Q 22.3125 6.890625 25.984375 6.890625 
Q 35.75 6.890625 40.890625 13.453125 
Q 46.046875 20.015625 46.78125 33.40625 
Q 43.953125 29.203125 39.59375 26.953125 
Q 35.25 24.703125 29.984375 24.703125 
Q 19.046875 24.703125 12.671875 31.3125 
Q 6.296875 37.9375 6.296875 49.421875 
Q 6.296875 60.640625 12.9375 67.421875 
Q 19.578125 74.21875 30.609375 74.21875 
Q 43.265625 74.21875 49.921875 64.515625 
Q 56.59375 54.828125 56.59375 36.375 
Q 56.59375 19.140625 48.40625 8.859375 
Q 40.234375 -1.421875 26.421875 -1.421875 
Q 22.703125 -1.421875 18.890625 -0.6875 
Q 15.09375 0.046875 10.984375 1.515625 
z
M 30.609375 32.421875 
Q 37.25 32.421875 41.125 36.953125 
Q 45.015625 41.5 45.015625 49.421875 
Q 45.015625 57.28125 41.125 61.84375 
Q 37.25 66.40625 30.609375 66.40625 
Q 23.96875 66.40625 20.09375 61.84375 
Q 16.21875 57.28125 16.21875 49.421875 
Q 16.21875 41.5 20.09375 36.953125 
Q 23.96875 32.421875 30.609375 32.421875 
z
" id="DejaVuSans-39"/>
      </defs>
      <g transform="translate(241.365 29.70125)scale(0.12 -0.12)">
       <use xlink:href="#DejaVuSans-39"/>
       <use x="63.623047" xlink:href="#DejaVuSans-30"/>
       <use x="127.246094" xlink:href="#DejaVuSans-b0"/>
      </g>
     </g>
    </g>
    <g id="xtick_4">
     <g id="line2d_4">
      <path clip-path="url(#pe0f48ae4a3)" d="M 252 178.295 
L 154.486439 80.781439 
" style="fill:none;stroke:#808080;stroke-linecap:square;stroke-width:0.8;"/>
     </g>
     <g id="text_4">
      <!-- 135° -->
      <defs>
       <path d="M 12.40625 8.296875 
L 28.515625 8.296875 
L 28.515625 63.921875 
L 10.984375 60.40625 
L 10.984375 69.390625 
L 28.421875 72.90625 
L 38.28125 72.90625 
L 38.28125 8.296875 
L 54.390625 8.296875 
L 54.390625 0 
L 12.40625 0 
z
" id="DejaVuSans-31"/>
       <path d="M 40.578125 39.3125 
Q 47.65625 37.796875 51.625 33 
Q 55.609375 28.21875 55.609375 21.1875 
Q 55.609375 10.40625 48.1875 4.484375 
Q 40.765625 -1.421875 27.09375 -1.421875 
Q 22.515625 -1.421875 17.65625 -0.515625 
Q 12.796875 0.390625 7.625 2.203125 
L 7.625 11.71875 
Q 11.71875 9.328125 16.59375 8.109375 
Q 21.484375 6.890625 26.8125 6.890625 
Q 36.078125 6.890625 40.9375 10.546875 
Q 45.796875 14.203125 45.796875 21.1875 
Q 45.796875 27.640625 41.28125 31.265625 
Q 36.765625 34.90625 28.71875 34.90625 
L 20.21875 34.90625 
L 20.21875 43.015625 
L 29.109375 43.015625 
Q 36.375 43.015625 40.234375 45.921875 
Q 44.09375 48.828125 44.09375 54.296875 
Q 44.09375 59.90625 40.109375 62.90625 
Q 36.140625 65.921875 28.71875 65.921875 
Q 24.65625 65.921875 20.015625 65.03125 
Q 15.375 64.15625 9.8125 62.3125 
L 9.8125 71.09375 
Q 15.4375 72.65625 20.34375 73.4375 
Q 25.25 74.21875 29.59375 74.21875 
Q 40.828125 74.21875 47.359375 69.109375 
Q 53.90625 64.015625 53.90625 55.328125 
Q 53.90625 49.265625 50.4375 45.09375 
Q 46.96875 40.921875 40.578125 39.3125 
z
" id="DejaVuSans-33"/>
      </defs>
      <g transform="translate(130.134444 74.193194)scale(0.12 -0.12)">
       <use xlink:href="#DejaVuSans-31"/>
       <use x="63.623047" xlink:href="#DejaVuSans-33"/>
       <use x="127.246094" xlink:href="#DejaVuSans-35"/>
       <use x="190.869141" xlink:href="#DejaVuSans-b0"/>
      </g>
     </g>
    </g>
    <g id="xtick_5">
     <g id="line2d_5">
      <path clip-path="url(#pe0f48ae4a3)" d="M 252 178.295 
L 114.095 178.295 
" style="fill:none;stroke:#808080;stroke-linecap:square;stroke-width:0.8;"/>
     </g>
     <g id="text_5">
      <!-- 180° -->
      <defs>
       <path d="M 31.78125 34.625 
Q 24.75 34.625 20.71875 30.859375 
Q 16.703125 27.09375 16.703125 20.515625 
Q 16.703125 13.921875 20.71875 10.15625 
Q 24.75 6.390625 31.78125 6.390625 
Q 38.8125 6.390625 42.859375 10.171875 
Q 46.921875 13.96875 46.921875 20.515625 
Q 46.921875 27.09375 42.890625 30.859375 
Q 38.875 34.625 31.78125 34.625 
z
M 21.921875 38.8125 
Q 15.578125 40.375 12.03125 44.71875 
Q 8.5 49.078125 8.5 55.328125 
Q 8.5 64.0625 14.71875 69.140625 
Q 20.953125 74.21875 31.78125 74.21875 
Q 42.671875 74.21875 48.875 69.140625 
Q 55.078125 64.0625 55.078125 55.328125 
Q 55.078125 49.078125 51.53125 44.71875 
Q 48 40.375 41.703125 38.8125 
Q 48.828125 37.15625 52.796875 32.3125 
Q 56.78125 27.484375 56.78125 20.515625 
Q 56.78125 9.90625 50.3125 4.234375 
Q 43.84375 -1.421875 31.78125 -1.421875 
Q 19.734375 -1.421875 13.25 4.234375 
Q 6.78125 9.90625 6.78125 20.515625 
Q 6.78125 27.484375 10.78125 32.3125 
Q 14.796875 37.15625 21.921875 38.8125 
z
M 18.3125 54.390625 
Q 18.3125 48.734375 21.84375 45.5625 
Q 25.390625 42.390625 31.78125 42.390625 
Q 38.140625 42.390625 41.71875 45.5625 
Q 45.3125 48.734375 45.3125 54.390625 
Q 45.3125 60.0625 41.71875 63.234375 
Q 38.140625 66.40625 31.78125 66.40625 
Q 25.390625 66.40625 21.84375 63.234375 
Q 18.3125 60.0625 18.3125 54.390625 
z
" id="DejaVuSans-38"/>
      </defs>
      <g transform="translate(85.6425 181.60625)scale(0.12 -0.12)">
       <use xlink:href="#DejaVuSans-31"/>
       <use x="63.623047" xlink:href="#DejaVuSans-38"/>
       <use x="127.246094" xlink:href="#DejaVuSans-30"/>
       <use x="190.869141" xlink:href="#DejaVuSans-b0"/>
      </g>
     </g>
    </g>
    <g id="xtick_6">
     <g id="line2d_6">
      <path clip-path="url(#pe0f48ae4a3)" d="M 252 178.295 
L 154.486439 275.808561 
" style="fill:none;stroke:#808080;stroke-linecap:square;stroke-width:0.8;"/>
     </g>
     <g id="text_6">
      <!-- 225° -->
      <defs>
       <path d="M 19.1875 8.296875 
L 53.609375 8.296875 
L 53.609375 0 
L 7.328125 0 
L 7.328125 8.296875 
Q 12.9375 14.109375 22.625 23.890625 
Q 32.328125 33.6875 34.8125 36.53125 
Q 39.546875 41.84375 41.421875 45.53125 
Q 43.3125 49.21875 43.3125 52.78125 
Q 43.3125 58.59375 39.234375 62.25 
Q 35.15625 65.921875 28.609375 65.921875 
Q 23.96875 65.921875 18.8125 64.3125 
Q 13.671875 62.703125 7.8125 59.421875 
L 7.8125 69.390625 
Q 13.765625 71.78125 18.9375 73 
Q 24.125 74.21875 28.421875 74.21875 
Q 39.75 74.21875 46.484375 68.546875 
Q 53.21875 62.890625 53.21875 53.421875 
Q 53.21875 48.921875 51.53125 44.890625 
Q 49.859375 40.875 45.40625 35.40625 
Q 44.1875 33.984375 37.640625 27.21875 
Q 31.109375 20.453125 19.1875 8.296875 
z
" id="DejaVuSans-32"/>
      </defs>
      <g transform="translate(130.134444 289.019306)scale(0.12 -0.12)">
       <use xlink:href="#DejaVuSans-32"/>
       <use x="63.623047" xlink:href="#DejaVuSans-32"/>
       <use x="127.246094" xlink:href="#DejaVuSans-35"/>
       <use x="190.869141" xlink:href="#DejaVuSans-b0"/>
      </g>
     </g>
    </g>
    <g id="xtick_7">
     <g id="line2d_7">
      <path clip-path="url(#pe0f48ae4a3)" d="M 252 178.295 
L 252 316.2 
" style="fill:none;stroke:#808080;stroke-linecap:square;stroke-width:0.8;"/>
     </g>
     <g id="text_7">
      <!-- 270° -->
      <defs>
       <path d="M 8.203125 72.90625 
L 55.078125 72.90625 
L 55.078125 68.703125 
L 28.609375 0 
L 18.3125 0 
L 43.21875 64.59375 
L 8.203125 64.59375 
z
" id="DejaVuSans-37"/>
      </defs>
      <g transform="translate(237.5475 333.51125)scale(0.12 -0.12)">
       <use xlink:href="#DejaVuSans-32"/>
       <use x="63.623047" xlink:href="#DejaVuSans-37"/>
       <use x="127.246094" xlink:href="#DejaVuSans-30"/>
       <use x="190.869141" xlink:href="#DejaVuSans-b0"/>
      </g>
     </g>
    </g>
    <g id="xtick_8">
     <g id="line2d_8">
      <path clip-path="url(#pe0f48ae4a3)" d="M 252 178.295 
L 349.513561 275.808561 
" style="fill:none;stroke:#808080;stroke-linecap:square;stroke-width:0.8;"/>
     </g>
     <g id="text_8">
      <!-- 315° -->
      <g transform="translate(344.960556 289.019306)scale(0.12 -0.12)">
       <use xlink:href="#DejaVuSans-33"/>
       <use x="63.623047" xlink:href="#DejaVuSans-31"/>
       <use x="127.246094" xlink:href="#DejaVuSans-35"/>
       <use x="190.869141" xlink:href="#DejaVuSans-b0"/>
      </g>
     </g>
    </g>
    <g id="text_9">
     <!-- frequency [kHz] -->
     <defs>
      <path d="M 37.109375 75.984375 
L 37.109375 68.5 
L 28.515625 68.5 
Q 23.6875 68.5 21.796875 66.546875 
Q 19.921875 64.59375 19.921875 59.515625 
L 19.921875 54.6875 
L 34.71875 54.6875 
L 34.71875 47.703125 
L 19.921875 47.703125 
L 19.921875 0 
L 10.890625 0 
L 10.890625 47.703125 
L 2.296875 47.703125 
L 2.296875 54.6875 
L 10.890625 54.6875 
L 10.890625 58.5 
Q 10.890625 67.625 15.140625 71.796875 
Q 19.390625 75.984375 28.609375 75.984375 
z
" id="DejaVuSans-66"/>
      <path d="M 41.109375 46.296875 
Q 39.59375 47.171875 37.8125 47.578125 
Q 36.03125 48 33.890625 48 
Q 26.265625 48 22.1875 43.046875 
Q 18.109375 38.09375 18.109375 28.8125 
L 18.109375 0 
L 9.078125 0 
L 9.078125 54.6875 
L 18.109375 54.6875 
L 18.109375 46.1875 
Q 20.953125 51.171875 25.484375 53.578125 
Q 30.03125 56 36.53125 56 
Q 37.453125 56 38.578125 55.875 
Q 39.703125 55.765625 41.0625 55.515625 
z
" id="DejaVuSans-72"/>
      <path d="M 56.203125 29.59375 
L 56.203125 25.203125 
L 14.890625 25.203125 
Q 15.484375 15.921875 20.484375 11.0625 
Q 25.484375 6.203125 34.421875 6.203125 
Q 39.59375 6.203125 44.453125 7.46875 
Q 49.3125 8.734375 54.109375 11.28125 
L 54.109375 2.78125 
Q 49.265625 0.734375 44.1875 -0.34375 
Q 39.109375 -1.421875 33.890625 -1.421875 
Q 20.796875 -1.421875 13.15625 6.1875 
Q 5.515625 13.8125 5.515625 26.8125 
Q 5.515625 40.234375 12.765625 48.109375 
Q 20.015625 56 32.328125 56 
Q 43.359375 56 49.78125 48.890625 
Q 56.203125 41.796875 56.203125 29.59375 
z
M 47.21875 32.234375 
Q 47.125 39.59375 43.09375 43.984375 
Q 39.0625 48.390625 32.421875 48.390625 
Q 24.90625 48.390625 20.390625 44.140625 
Q 15.875 39.890625 15.1875 32.171875 
z
" id="DejaVuSans-65"/>
      <path d="M 14.796875 27.296875 
Q 14.796875 17.390625 18.875 11.75 
Q 22.953125 6.109375 30.078125 6.109375 
Q 37.203125 6.109375 41.296875 11.75 
Q 45.40625 17.390625 45.40625 27.296875 
Q 45.40625 37.203125 41.296875 42.84375 
Q 37.203125 48.484375 30.078125 48.484375 
Q 22.953125 48.484375 18.875 42.84375 
Q 14.796875 37.203125 14.796875 27.296875 
z
M 45.40625 8.203125 
Q 42.578125 3.328125 38.25 0.953125 
Q 33.9375 -1.421875 27.875 -1.421875 
Q 17.96875 -1.421875 11.734375 6.484375 
Q 5.515625 14.40625 5.515625 27.296875 
Q 5.515625 40.1875 11.734375 48.09375 
Q 17.96875 56 27.875 56 
Q 33.9375 56 38.25 53.625 
Q 42.578125 51.265625 45.40625 46.390625 
L 45.40625 54.6875 
L 54.390625 54.6875 
L 54.390625 -20.796875 
L 45.40625 -20.796875 
z
" id="DejaVuSans-71"/>
      <path d="M 8.5 21.578125 
L 8.5 54.6875 
L 17.484375 54.6875 
L 17.484375 21.921875 
Q 17.484375 14.15625 20.5 10.265625 
Q 23.53125 6.390625 29.59375 6.390625 
Q 36.859375 6.390625 41.078125 11.03125 
Q 45.3125 15.671875 45.3125 23.6875 
L 45.3125 54.6875 
L 54.296875 54.6875 
L 54.296875 0 
L 45.3125 0 
L 45.3125 8.40625 
Q 42.046875 3.421875 37.71875 1 
Q 33.40625 -1.421875 27.6875 -1.421875 
Q 18.265625 -1.421875 13.375 4.4375 
Q 8.5 10.296875 8.5 21.578125 
z
M 31.109375 56 
z
" id="DejaVuSans-75"/>
      <path d="M 54.890625 33.015625 
L 54.890625 0 
L 45.90625 0 
L 45.90625 32.71875 
Q 45.90625 40.484375 42.875 44.328125 
Q 39.84375 48.1875 33.796875 48.1875 
Q 26.515625 48.1875 22.3125 43.546875 
Q 18.109375 38.921875 18.109375 30.90625 
L 18.109375 0 
L 9.078125 0 
L 9.078125 54.6875 
L 18.109375 54.6875 
L 18.109375 46.1875 
Q 21.34375 51.125 25.703125 53.5625 
Q 30.078125 56 35.796875 56 
Q 45.21875 56 50.046875 50.171875 
Q 54.890625 44.34375 54.890625 33.015625 
z
" id="DejaVuSans-6e"/>
      <path d="M 48.78125 52.59375 
L 48.78125 44.1875 
Q 44.96875 46.296875 41.140625 47.34375 
Q 37.3125 48.390625 33.40625 48.390625 
Q 24.65625 48.390625 19.8125 42.84375 
Q 14.984375 37.3125 14.984375 27.296875 
Q 14.984375 17.28125 19.8125 11.734375 
Q 24.65625 6.203125 33.40625 6.203125 
Q 37.3125 6.203125 41.140625 7.25 
Q 44.96875 8.296875 48.78125 10.40625 
L 48.78125 2.09375 
Q 45.015625 0.34375 40.984375 -0.53125 
Q 36.96875 -1.421875 32.421875 -1.421875 
Q 20.0625 -1.421875 12.78125 6.34375 
Q 5.515625 14.109375 5.515625 27.296875 
Q 5.515625 40.671875 12.859375 48.328125 
Q 20.21875 56 33.015625 56 
Q 37.15625 56 41.109375 55.140625 
Q 45.0625 54.296875 48.78125 52.59375 
z
" id="DejaVuSans-63"/>
      <path d="M 32.171875 -5.078125 
Q 28.375 -14.84375 24.75 -17.8125 
Q 21.140625 -20.796875 15.09375 -20.796875 
L 7.90625 -20.796875 
L 7.90625 -13.28125 
L 13.1875 -13.28125 
Q 16.890625 -13.28125 18.9375 -11.515625 
Q 21 -9.765625 23.484375 -3.21875 
L 25.09375 0.875 
L 2.984375 54.6875 
L 12.5 54.6875 
L 29.59375 11.921875 
L 46.6875 54.6875 
L 56.203125 54.6875 
z
" id="DejaVuSans-79"/>
      <path id="DejaVuSans-20"/>
      <path d="M 8.59375 75.984375 
L 29.296875 75.984375 
L 29.296875 69 
L 17.578125 69 
L 17.578125 -6.203125 
L 29.296875 -6.203125 
L 29.296875 -13.1875 
L 8.59375 -13.1875 
z
" id="DejaVuSans-5b"/>
      <path d="M 9.078125 75.984375 
L 18.109375 75.984375 
L 18.109375 31.109375 
L 44.921875 54.6875 
L 56.390625 54.6875 
L 27.390625 29.109375 
L 57.625 0 
L 45.90625 0 
L 18.109375 26.703125 
L 18.109375 0 
L 9.078125 0 
z
" id="DejaVuSans-6b"/>
      <path d="M 9.8125 72.90625 
L 19.671875 72.90625 
L 19.671875 43.015625 
L 55.515625 43.015625 
L 55.515625 72.90625 
L 65.375 72.90625 
L 65.375 0 
L 55.515625 0 
L 55.515625 34.71875 
L 19.671875 34.71875 
L 19.671875 0 
L 9.8125 0 
z
" id="DejaVuSans-48"/>
      <path d="M 5.515625 54.6875 
L 48.1875 54.6875 
L 48.1875 46.484375 
L 14.40625 7.171875 
L 48.1875 7.171875 
L 48.1875 0 
L 4.296875 0 
L 4.296875 8.203125 
L 38.09375 47.515625 
L 5.515625 47.515625 
z
" id="DejaVuSans-7a"/>
      <path d="M 30.421875 75.984375 
L 30.421875 -13.1875 
L 9.71875 -13.1875 
L 9.71875 -6.203125 
L 21.390625 -6.203125 
L 21.390625 69 
L 9.71875 69 
L 9.71875 75.984375 
z
" id="DejaVuSans-5d"/>
     </defs>
     <g transform="translate(204.050625 349.125)scale(0.12 -0.12)">
      <use xlink:href="#DejaVuSans-66"/>
      <use x="35.205078" xlink:href="#DejaVuSans-72"/>
      <use x="76.287109" xlink:href="#DejaVuSans-65"/>
      <use x="137.810547" xlink:href="#DejaVuSans-71"/>
      <use x="201.287109" xlink:href="#DejaVuSans-75"/>
      <use x="264.666016" xlink:href="#DejaVuSans-65"/>
      <use x="326.189453" xlink:href="#DejaVuSans-6e"/>
      <use x="389.568359" xlink:href="#DejaVuSans-63"/>
      <use x="444.548828" xlink:href="#DejaVuSans-79"/>
      <use x="503.728516" xlink:href="#DejaVuSans-20"/>
      <use x="535.515625" xlink:href="#DejaVuSans-5b"/>
      <use x="574.529297" xlink:href="#DejaVuSans-6b"/>
      <use x="632.439453" xlink:href="#DejaVuSans-48"/>
      <use x="707.634766" xlink:href="#DejaVuSans-7a"/>
      <use x="760.125" xlink:href="#DejaVuSans-5d"/>
     </g>
    </g>
   </g>
   <g id="matplotlib.axis_2">
    <g id="ytick_1">
     <g id="line2d_9">
      <path clip-path="url(#pe0f48ae4a3)" d="M 263.986355 178.295 
L 263.869705 176.626822 
L 263.522024 174.991113 
L 262.950081 173.41971 
L 262.165006 171.943199 
L 261.182081 170.590319 
L 260.020437 169.387402 
L 258.702685 168.357861 
L 257.254472 167.521735 
L 255.703988 166.895299 
L 254.081409 166.490744 
L 252.418318 166.315946 
L 250.747085 166.374307 
L 249.100238 166.664691 
L 247.509832 167.181445 
L 246.006822 167.914512 
L 244.620463 168.849623 
L 243.377737 169.968578 
L 242.302835 171.249597 
L 241.416676 172.667747 
L 240.73651 174.195425 
L 240.275575 175.802897 
L 240.042843 177.458874 
L 240.042843 179.131126 
L 240.275575 180.787103 
L 240.73651 182.394575 
L 241.416676 183.922253 
L 242.302835 185.340403 
L 243.377737 186.621422 
L 244.620463 187.740377 
L 246.006822 188.675488 
L 247.509832 189.408555 
L 249.100238 189.925309 
L 250.747085 190.215693 
L 252.418318 190.274054 
L 254.081409 190.099256 
L 255.703988 189.694701 
L 257.254472 189.068265 
L 258.702685 188.232139 
L 260.020437 187.202598 
L 261.182081 185.999681 
L 262.165006 184.646801 
L 262.950081 183.17029 
L 263.522024 181.598887 
L 263.869705 179.963178 
L 263.986355 178.295 
L 263.986355 178.295 
" style="fill:none;stroke:#808080;stroke-linecap:square;stroke-width:0.8;"/>
     </g>
     <g id="text_10">
      <!-- −30 -->
      <defs>
       <path d="M 10.59375 35.5 
L 73.1875 35.5 
L 73.1875 27.203125 
L 10.59375 27.203125 
z
" id="DejaVuSans-2212"/>
      </defs>
      <g transform="translate(263.073948 171.212395)scale(0.12 -0.12)">
       <use xlink:href="#DejaVuSans-2212"/>
       <use x="83.789062" xlink:href="#DejaVuSans-33"/>
       <use x="147.412109" xlink:href="#DejaVuSans-30"/>
      </g>
     </g>
    </g>
    <g id="ytick_2">
     <g id="line2d_10">
      <path clip-path="url(#pe0f48ae4a3)" d="M 284.65411 178.295 
L 284.574566 176.017164 
L 284.336322 173.750426 
L 283.940539 171.505829 
L 283.389145 169.294307 
L 282.684826 167.126637 
L 281.831014 165.013377 
L 280.831868 162.964824 
L 279.692256 160.990958 
L 278.41773 159.101396 
L 277.014499 157.305343 
L 275.489401 155.611549 
L 273.849864 154.028267 
L 272.103877 152.56321 
L 270.259947 151.223516 
L 268.327055 150.015711 
L 266.31462 148.94568 
L 264.232445 148.018636 
L 262.090675 147.239096 
L 259.899744 146.610857 
L 257.670327 146.136979 
L 255.413284 145.819773 
L 253.139612 145.660782 
L 250.860388 145.660782 
L 248.586716 145.819773 
L 246.329673 146.136979 
L 244.100256 146.610857 
L 241.909325 147.239096 
L 239.767555 148.018636 
L 237.68538 148.94568 
L 235.672945 150.015711 
L 233.740053 151.223516 
L 231.896123 152.56321 
L 230.150136 154.028267 
L 228.510599 155.611549 
L 226.985501 157.305343 
L 225.58227 159.101396 
L 224.307744 160.990958 
L 223.168132 162.964824 
L 222.168986 165.013377 
L 221.315174 167.126637 
L 220.610855 169.294307 
L 220.059461 171.505829 
L 219.663678 173.750426 
L 219.425434 176.017164 
L 219.34589 178.295 
L 219.425434 180.572836 
L 219.663678 182.839574 
L 220.059461 185.084171 
L 220.610855 187.295693 
L 221.315174 189.463363 
L 222.168986 191.576623 
L 223.168132 193.625176 
L 224.307744 195.599042 
L 225.58227 197.488604 
L 226.985501 199.284657 
L 228.510599 200.978451 
L 230.150136 202.561733 
L 231.896123 204.02679 
L 233.740053 205.366484 
L 235.672945 206.574289 
L 237.68538 207.64432 
L 239.767555 208.571364 
L 241.909325 209.350904 
L 244.100256 209.979143 
L 246.329673 210.453021 
L 248.586716 210.770227 
L 250.860388 210.929218 
L 253.139612 210.929218 
L 255.413284 210.770227 
L 257.670327 210.453021 
L 259.899744 209.979143 
L 262.090675 209.350904 
L 264.232445 208.571364 
L 266.31462 207.64432 
L 268.327055 206.574289 
L 270.259947 205.366484 
L 272.103877 204.02679 
L 273.849864 202.561733 
L 275.489401 200.978451 
L 277.014499 199.284657 
L 278.41773 197.488604 
L 279.692256 195.599042 
L 280.831868 193.625176 
L 281.831014 191.576623 
L 282.684826 189.463363 
L 283.389145 187.295693 
L 283.940539 185.084171 
L 284.336322 182.839574 
L 284.574566 180.572836 
L 284.65411 178.295 
L 284.65411 178.295 
" style="fill:none;stroke:#808080;stroke-linecap:square;stroke-width:0.8;"/>
     </g>
     <g id="text_11">
      <!-- −20 -->
      <g transform="translate(282.168464 163.303188)scale(0.12 -0.12)">
       <use xlink:href="#DejaVuSans-2212"/>
       <use x="83.789062" xlink:href="#DejaVuSans-32"/>
       <use x="147.412109" xlink:href="#DejaVuSans-30"/>
      </g>
     </g>
    </g>
    <g id="ytick_3">
     <g id="line2d_11">
      <path clip-path="url(#pe0f48ae4a3)" d="M 305.321864 178.295 
L 305.191975 174.575455 
L 304.80294 170.874031 
L 304.156654 167.208761 
L 303.256266 163.597502 
L 302.106163 160.057848 
L 300.711947 156.607044 
L 299.080412 153.261901 
L 297.219506 150.038717 
L 295.138294 146.953194 
L 292.846918 144.020366 
L 290.356539 141.254521 
L 287.679291 138.669132 
L 284.828218 136.276797 
L 281.817208 134.089171 
L 278.660932 132.116911 
L 275.374767 130.369626 
L 271.974722 128.855828 
L 268.477362 127.582893 
L 264.899727 126.557023 
L 261.259245 125.783215 
L 257.573653 125.265238 
L 253.860906 125.005618 
L 250.139094 125.005618 
L 246.426347 125.265238 
L 242.740755 125.783215 
L 239.100273 126.557023 
L 235.522638 127.582893 
L 232.025278 128.855828 
L 228.625233 130.369626 
L 225.339068 132.116911 
L 222.182792 134.089171 
L 219.171782 136.276797 
L 216.320709 138.669132 
L 213.643461 141.254521 
L 211.153082 144.020366 
L 208.861706 146.953194 
L 206.780494 150.038717 
L 204.919588 153.261901 
L 203.288053 156.607044 
L 201.893837 160.057848 
L 200.743734 163.597502 
L 199.843346 167.208761 
L 199.19706 170.874031 
L 198.808025 174.575455 
L 198.678136 178.295 
L 198.808025 182.014545 
L 199.19706 185.715969 
L 199.843346 189.381239 
L 200.743734 192.992498 
L 201.893837 196.532152 
L 203.288053 199.982956 
L 204.919588 203.328099 
L 206.780494 206.551283 
L 208.861706 209.636806 
L 211.153082 212.569634 
L 213.643461 215.335479 
L 216.320709 217.920868 
L 219.171782 220.313203 
L 222.182792 222.500829 
L 225.339068 224.473089 
L 228.625233 226.220374 
L 232.025278 227.734172 
L 235.522638 229.007107 
L 239.100273 230.032977 
L 242.740755 230.806785 
L 246.426347 231.324762 
L 250.139094 231.584382 
L 253.860906 231.584382 
L 257.573653 231.324762 
L 261.259245 230.806785 
L 264.899727 230.032977 
L 268.477362 229.007107 
L 271.974722 227.734172 
L 275.374767 226.220374 
L 278.660932 224.473089 
L 281.817208 222.500829 
L 284.828218 220.313203 
L 287.679291 217.920868 
L 290.356539 215.335479 
L 292.846918 212.569634 
L 295.138294 209.636806 
L 297.219506 206.551283 
L 299.080412 203.328099 
L 300.711947 199.982956 
L 302.106163 196.532152 
L 303.256266 192.992498 
L 304.156654 189.381239 
L 304.80294 185.715969 
L 305.191975 182.014545 
L 305.321864 178.295 
L 305.321864 178.295 
" style="fill:none;stroke:#808080;stroke-linecap:square;stroke-width:0.8;"/>
     </g>
     <g id="text_12">
      <!-- −10 -->
      <g transform="translate(301.262979 155.393981)scale(0.12 -0.12)">
       <use xlink:href="#DejaVuSans-2212"/>
       <use x="83.789062" xlink:href="#DejaVuSans-31"/>
       <use x="147.412109" xlink:href="#DejaVuSans-30"/>
      </g>
     </g>
    </g>
    <g id="ytick_4">
     <g id="line2d_12">
      <path clip-path="url(#pe0f48ae4a3)" d="M 325.989619 178.295 
L 325.809384 173.133745 
L 325.269557 167.997635 
L 324.372768 162.911693 
L 323.123387 157.900697 
L 321.527499 152.98906 
L 319.59288 148.200711 
L 317.328956 143.558978 
L 314.746755 139.086476 
L 311.858859 134.804993 
L 308.679336 130.73539 
L 305.223678 126.897492 
L 301.508719 123.309998 
L 297.552558 119.990385 
L 293.37447 116.954826 
L 288.994809 114.21811 
L 284.434914 111.793571 
L 279.716999 109.69302 
L 274.86405 107.926691 
L 269.899709 106.503189 
L 264.848162 105.42945 
L 259.734021 104.710704 
L 254.5822 104.350454 
L 249.4178 104.350454 
L 244.265979 104.710704 
L 239.151838 105.42945 
L 234.100291 106.503189 
L 229.13595 107.926691 
L 224.283001 109.69302 
L 219.565086 111.793571 
L 215.005191 114.21811 
L 210.62553 116.954826 
L 206.447442 119.990385 
L 202.491281 123.309998 
L 198.776322 126.897492 
L 195.320664 130.73539 
L 192.141141 134.804993 
L 189.253245 139.086476 
L 186.671044 143.558978 
L 184.40712 148.200711 
L 182.472501 152.98906 
L 180.876613 157.900697 
L 179.627232 162.911693 
L 178.730443 167.997635 
L 178.190616 173.133745 
L 178.010381 178.295 
L 178.190616 183.456255 
L 178.730443 188.592365 
L 179.627232 193.678307 
L 180.876613 198.689303 
L 182.472501 203.60094 
L 184.40712 208.389289 
L 186.671044 213.031022 
L 189.253245 217.503524 
L 192.141141 221.785007 
L 195.320664 225.85461 
L 198.776322 229.692508 
L 202.491281 233.280002 
L 206.447442 236.599615 
L 210.62553 239.635174 
L 215.005191 242.37189 
L 219.565086 244.796429 
L 224.283001 246.89698 
L 229.13595 248.663309 
L 234.100291 250.086811 
L 239.151838 251.16055 
L 244.265979 251.879296 
L 249.4178 252.239546 
L 254.5822 252.239546 
L 259.734021 251.879296 
L 264.848162 251.16055 
L 269.899709 250.086811 
L 274.86405 248.663309 
L 279.716999 246.89698 
L 284.434914 244.796429 
L 288.994809 242.37189 
L 293.37447 239.635174 
L 297.552558 236.599615 
L 301.508719 233.280002 
L 305.223678 229.692508 
L 308.679336 225.85461 
L 311.858859 221.785007 
L 314.746755 217.503524 
L 317.328956 213.031022 
L 319.59288 208.389289 
L 321.527499 203.60094 
L 323.123387 198.689303 
L 324.372768 193.678307 
L 325.269557 188.592365 
L 325.809384 183.456255 
L 325.989619 178.295 
L 325.989619 178.295 
" style="fill:none;stroke:#808080;stroke-linecap:square;stroke-width:0.8;"/>
     </g>
     <g id="text_13">
      <!-- 0 -->
      <g transform="translate(320.357495 147.484774)scale(0.12 -0.12)">
       <use xlink:href="#DejaVuSans-30"/>
      </g>
     </g>
    </g>
    <g id="ytick_5">
     <g id="line2d_13">
      <path clip-path="url(#pe0f48ae4a3)" d="M 346.657373 178.295 
L 346.599711 174.991505 
L 346.426793 171.692035 
L 346.13883 168.40061 
L 345.736174 165.12124 
L 345.219315 161.85792 
L 344.588883 158.614625 
L 343.845645 155.395309 
L 342.990507 152.203892 
L 342.024512 149.044263 
L 340.948835 145.920272 
L 339.764788 142.835724 
L 338.473814 139.794378 
L 337.077484 136.799939 
L 335.5775 133.856055 
L 333.97569 130.966313 
L 332.274005 128.134234 
L 330.474519 125.363269 
L 328.579424 122.656792 
L 326.591028 120.018102 
L 324.511755 117.450413 
L 322.344137 114.956854 
L 320.090816 112.540463 
L 317.754537 110.204184 
L 315.338146 107.950863 
L 312.844587 105.783245 
L 310.276898 103.703972 
L 307.638208 101.715576 
L 304.931731 99.820481 
L 302.160766 98.020995 
L 299.328687 96.31931 
L 296.438945 94.7175 
L 293.495061 93.217516 
L 290.500622 91.821186 
L 287.459276 90.530212 
L 284.374728 89.346165 
L 281.250737 88.270488 
L 278.091108 87.304493 
L 274.899691 86.449355 
L 271.680375 85.706117 
L 268.43708 85.075685 
L 265.17376 84.558826 
L 261.89439 84.15617 
L 258.602965 83.868207 
L 255.303495 83.695289 
L 252 83.637627 
L 248.696505 83.695289 
L 245.397035 83.868207 
L 242.10561 84.15617 
L 238.82624 84.558826 
L 235.56292 85.075685 
L 232.319625 85.706117 
L 229.100309 86.449355 
L 225.908892 87.304493 
L 222.749263 88.270488 
L 219.625272 89.346165 
L 216.540724 90.530212 
L 213.499378 91.821186 
L 210.504939 93.217516 
L 207.561055 94.7175 
L 204.671313 96.31931 
L 201.839234 98.020995 
L 199.068269 99.820481 
L 196.361792 101.715576 
L 193.723102 103.703972 
L 191.155413 105.783245 
L 188.661854 107.950863 
L 186.245463 110.204184 
L 183.909184 112.540463 
L 181.655863 114.956854 
L 179.488245 117.450413 
L 177.408972 120.018102 
L 175.420576 122.656792 
L 173.525481 125.363269 
L 171.725995 128.134234 
L 170.02431 130.966313 
L 168.4225 133.856055 
L 166.922516 136.799939 
L 165.526186 139.794378 
L 164.235212 142.835724 
L 163.051165 145.920272 
L 161.975488 149.044263 
L 161.009493 152.203892 
L 160.154355 155.395309 
L 159.411117 158.614625 
L 158.780685 161.85792 
L 158.263826 165.12124 
L 157.86117 168.40061 
L 157.573207 171.692035 
L 157.400289 174.991505 
L 157.342627 178.295 
L 157.400289 181.598495 
L 157.573207 184.897965 
L 157.86117 188.18939 
L 158.263826 191.46876 
L 158.780685 194.73208 
L 159.411117 197.975375 
L 160.154355 201.194691 
L 161.009493 204.386108 
L 161.975488 207.545737 
L 163.051165 210.669728 
L 164.235212 213.754276 
L 165.526186 216.795622 
L 166.922516 219.790061 
L 168.4225 222.733945 
L 170.02431 225.623687 
L 171.725995 228.455766 
L 173.525481 231.226731 
L 175.420576 233.933208 
L 177.408972 236.571898 
L 179.488245 239.139587 
L 181.655863 241.633146 
L 183.909184 244.049537 
L 186.245463 246.385816 
L 188.661854 248.639137 
L 191.155413 250.806755 
L 193.723102 252.886028 
L 196.361792 254.874424 
L 199.068269 256.769519 
L 201.839234 258.569005 
L 204.671313 260.27069 
L 207.561055 261.8725 
L 210.504939 263.372484 
L 213.499378 264.768814 
L 216.540724 266.059788 
L 219.625272 267.243835 
L 222.749263 268.319512 
L 225.908892 269.285507 
L 229.100309 270.140645 
L 232.319625 270.883883 
L 235.56292 271.514315 
L 238.82624 272.031174 
L 242.10561 272.43383 
L 245.397035 272.721793 
L 248.696505 272.894711 
L 252 272.952373 
L 255.303495 272.894711 
L 258.602965 272.721793 
L 261.89439 272.43383 
L 265.17376 272.031174 
L 268.43708 271.514315 
L 271.680375 270.883883 
L 274.899691 270.140645 
L 278.091108 269.285507 
L 281.250737 268.319512 
L 284.374728 267.243835 
L 287.459276 266.059788 
L 290.500622 264.768814 
L 293.495061 263.372484 
L 296.438945 261.8725 
L 299.328687 260.27069 
L 302.160766 258.569005 
L 304.931731 256.769519 
L 307.638208 254.874424 
L 310.276898 252.886028 
L 312.844587 250.806755 
L 315.338146 248.639137 
L 317.754537 246.385816 
L 320.090816 244.049537 
L 322.344137 241.633146 
L 324.511755 239.139587 
L 326.591028 236.571898 
L 328.579424 233.933208 
L 330.474519 231.226731 
L 332.274005 228.455766 
L 333.97569 225.623687 
L 335.5775 222.733945 
L 337.077484 219.790061 
L 338.473814 216.795622 
L 339.764788 213.754276 
L 340.948835 210.669728 
L 342.024512 207.545737 
L 342.990507 204.386108 
L 343.845645 201.194691 
L 344.588883 197.975375 
L 345.219315 194.73208 
L 345.736174 191.46876 
L 346.13883 188.18939 
L 346.426793 184.897965 
L 346.599711 181.598495 
L 346.657373 178.295 
L 346.657373 178.295 
" style="fill:none;stroke:#808080;stroke-linecap:square;stroke-width:0.8;"/>
     </g>
     <g id="text_14">
      <!-- 10 -->
      <g transform="translate(339.45201 139.575566)scale(0.12 -0.12)">
       <use xlink:href="#DejaVuSans-31"/>
       <use x="63.623047" xlink:href="#DejaVuSans-30"/>
      </g>
     </g>
    </g>
    <g id="ytick_6">
     <g id="line2d_14">
      <path clip-path="url(#pe0f48ae4a3)" d="M 367.325128 178.295 
L 367.254875 174.270211 
L 367.044202 170.250326 
L 366.693365 166.240242 
L 366.202792 162.244844 
L 365.57308 158.269002 
L 364.804997 154.317558 
L 363.899479 150.395326 
L 362.857628 146.507087 
L 361.680714 142.657576 
L 360.370172 138.851483 
L 358.927597 135.093447 
L 357.354747 131.388045 
L 355.653538 127.739791 
L 353.826044 124.153132 
L 351.874491 120.632436 
L 349.801255 117.181993 
L 347.608864 113.806007 
L 345.299988 110.508591 
L 342.877441 107.293762 
L 340.344173 104.165437 
L 337.703272 101.127427 
L 334.957955 98.183435 
L 332.111565 95.337045 
L 329.167573 92.591728 
L 326.129563 89.950827 
L 323.001238 87.417559 
L 319.786409 84.995012 
L 316.488993 82.686136 
L 313.113007 80.493745 
L 309.662564 78.420509 
L 306.141868 76.468956 
L 302.555209 74.641462 
L 298.906955 72.940253 
L 295.201553 71.367403 
L 291.443517 69.924828 
L 287.637424 68.614286 
L 283.787913 67.437372 
L 279.899674 66.395521 
L 275.977442 65.490003 
L 272.025998 64.72192 
L 268.050156 64.092208 
L 264.054758 63.601635 
L 260.044674 63.250798 
L 256.024789 63.040125 
L 252 62.969872 
L 247.975211 63.040125 
L 243.955326 63.250798 
L 239.945242 63.601635 
L 235.949844 64.092208 
L 231.974002 64.72192 
L 228.022558 65.490003 
L 224.100326 66.395521 
L 220.212087 67.437372 
L 216.362576 68.614286 
L 212.556483 69.924828 
L 208.798447 71.367403 
L 205.093045 72.940253 
L 201.444791 74.641462 
L 197.858132 76.468956 
L 194.337436 78.420509 
L 190.886993 80.493745 
L 187.511007 82.686136 
L 184.213591 84.995012 
L 180.998762 87.417559 
L 177.870437 89.950827 
L 174.832427 92.591728 
L 171.888435 95.337045 
L 169.042045 98.183435 
L 166.296728 101.127427 
L 163.655827 104.165437 
L 161.122559 107.293762 
L 158.700012 110.508591 
L 156.391136 113.806007 
L 154.198745 117.181993 
L 152.125509 120.632436 
L 150.173956 124.153132 
L 148.346462 127.739791 
L 146.645253 131.388045 
L 145.072403 135.093447 
L 143.629828 138.851483 
L 142.319286 142.657576 
L 141.142372 146.507087 
L 140.100521 150.395326 
L 139.195003 154.317558 
L 138.42692 158.269002 
L 137.797208 162.244844 
L 137.306635 166.240242 
L 136.955798 170.250326 
L 136.745125 174.270211 
L 136.674872 178.295 
L 136.745125 182.319789 
L 136.955798 186.339674 
L 137.306635 190.349758 
L 137.797208 194.345156 
L 138.42692 198.320998 
L 139.195003 202.272442 
L 140.100521 206.194674 
L 141.142372 210.082913 
L 142.319286 213.932424 
L 143.629828 217.738517 
L 145.072403 221.496553 
L 146.645253 225.201955 
L 148.346462 228.850209 
L 150.173956 232.436868 
L 152.125509 235.957564 
L 154.198745 239.408007 
L 156.391136 242.783993 
L 158.700012 246.081409 
L 161.122559 249.296238 
L 163.655827 252.424563 
L 166.296728 255.462573 
L 169.042045 258.406565 
L 171.888435 261.252955 
L 174.832427 263.998272 
L 177.870437 266.639173 
L 180.998762 269.172441 
L 184.213591 271.594988 
L 187.511007 273.903864 
L 190.886993 276.096255 
L 194.337436 278.169491 
L 197.858132 280.121044 
L 201.444791 281.948538 
L 205.093045 283.649747 
L 208.798447 285.222597 
L 212.556483 286.665172 
L 216.362576 287.975714 
L 220.212087 289.152628 
L 224.100326 290.194479 
L 228.022558 291.099997 
L 231.974002 291.86808 
L 235.949844 292.497792 
L 239.945242 292.988365 
L 243.955326 293.339202 
L 247.975211 293.549875 
L 252 293.620128 
L 256.024789 293.549875 
L 260.044674 293.339202 
L 264.054758 292.988365 
L 268.050156 292.497792 
L 272.025998 291.86808 
L 275.977442 291.099997 
L 279.899674 290.194479 
L 283.787913 289.152628 
L 287.637424 287.975714 
L 291.443517 286.665172 
L 295.201553 285.222597 
L 298.906955 283.649747 
L 302.555209 281.948538 
L 306.141868 280.121044 
L 309.662564 278.169491 
L 313.113007 276.096255 
L 316.488993 273.903864 
L 319.786409 271.594988 
L 323.001238 269.172441 
L 326.129563 266.639173 
L 329.167573 263.998272 
L 332.111565 261.252955 
L 334.957955 258.406565 
L 337.703272 255.462573 
L 340.344173 252.424563 
L 342.877441 249.296238 
L 345.299988 246.081409 
L 347.608864 242.783993 
L 349.801255 239.408007 
L 351.874491 235.957564 
L 353.826044 232.436868 
L 355.653538 228.850209 
L 357.354747 225.201955 
L 358.927597 221.496553 
L 360.370172 217.738517 
L 361.680714 213.932424 
L 362.857628 210.082913 
L 363.899479 206.194674 
L 364.804997 202.272442 
L 365.57308 198.320998 
L 366.202792 194.345156 
L 366.693365 190.349758 
L 367.044202 186.339674 
L 367.254875 182.319789 
L 367.325128 178.295 
L 367.325128 178.295 
" style="fill:none;stroke:#808080;stroke-linecap:square;stroke-width:0.8;"/>
     </g>
     <g id="text_15">
      <!-- 20 -->
      <g transform="translate(358.546525 131.666359)scale(0.12 -0.12)">
       <use xlink:href="#DejaVuSans-32"/>
       <use x="63.623047" xlink:href="#DejaVuSans-30"/>
      </g>
     </g>
    </g>
    <g id="ytick_7">
     <g id="line2d_15">
      <path clip-path="url(#pe0f48ae4a3)" d="M 387.992882 178.295 
L 387.910039 173.548917 
L 387.661611 168.808616 
L 387.247899 164.079873 
L 386.669409 159.368449 
L 385.926845 154.680084 
L 385.021112 150.02049 
L 383.953313 145.395344 
L 382.724749 140.810281 
L 381.336917 136.270888 
L 379.791508 131.782695 
L 378.090405 127.35117 
L 376.23568 122.981712 
L 374.229593 118.679644 
L 372.074588 114.450209 
L 369.773291 110.298559 
L 367.328505 106.229752 
L 364.743209 102.248745 
L 362.020553 98.360389 
L 359.163854 94.569421 
L 356.176592 90.88046 
L 353.062407 87.298 
L 349.825093 83.826406 
L 346.468594 80.469907 
L 342.997 77.232593 
L 339.41454 74.118408 
L 335.725579 71.131146 
L 331.934611 68.274447 
L 328.046255 65.551791 
L 324.065248 62.966495 
L 319.996441 60.521709 
L 315.844791 58.220412 
L 311.615356 56.065407 
L 307.313288 54.05932 
L 302.94383 52.204595 
L 298.512305 50.503492 
L 294.024112 48.958083 
L 289.484719 47.570251 
L 284.899656 46.341687 
L 280.27451 45.273888 
L 275.614916 44.368155 
L 270.926551 43.625591 
L 266.215127 43.047101 
L 261.486384 42.633389 
L 256.746083 42.384961 
L 252 42.302118 
L 247.253917 42.384961 
L 242.513616 42.633389 
L 237.784873 43.047101 
L 233.073449 43.625591 
L 228.385084 44.368155 
L 223.72549 45.273888 
L 219.100344 46.341687 
L 214.515281 47.570251 
L 209.975888 48.958083 
L 205.487695 50.503492 
L 201.05617 52.204595 
L 196.686712 54.05932 
L 192.384644 56.065407 
L 188.155209 58.220412 
L 184.003559 60.521709 
L 179.934752 62.966495 
L 175.953745 65.551791 
L 172.065389 68.274447 
L 168.274421 71.131146 
L 164.58546 74.118408 
L 161.003 77.232593 
L 157.531406 80.469907 
L 154.174907 83.826406 
L 150.937593 87.298 
L 147.823408 90.88046 
L 144.836146 94.569421 
L 141.979447 98.360389 
L 139.256791 102.248745 
L 136.671495 106.229752 
L 134.226709 110.298559 
L 131.925412 114.450209 
L 129.770407 118.679644 
L 127.76432 122.981712 
L 125.909595 127.35117 
L 124.208492 131.782695 
L 122.663083 136.270888 
L 121.275251 140.810281 
L 120.046687 145.395344 
L 118.978888 150.02049 
L 118.073155 154.680084 
L 117.330591 159.368449 
L 116.752101 164.079873 
L 116.338389 168.808616 
L 116.089961 173.548917 
L 116.007118 178.295 
L 116.089961 183.041083 
L 116.338389 187.781384 
L 116.752101 192.510127 
L 117.330591 197.221551 
L 118.073155 201.909916 
L 118.978888 206.56951 
L 120.046687 211.194656 
L 121.275251 215.779719 
L 122.663083 220.319112 
L 124.208492 224.807305 
L 125.909595 229.23883 
L 127.76432 233.608288 
L 129.770407 237.910356 
L 131.925412 242.139791 
L 134.226709 246.291441 
L 136.671495 250.360248 
L 139.256791 254.341255 
L 141.979447 258.229611 
L 144.836146 262.020579 
L 147.823408 265.70954 
L 150.937593 269.292 
L 154.174907 272.763594 
L 157.531406 276.120093 
L 161.003 279.357407 
L 164.58546 282.471592 
L 168.274421 285.458854 
L 172.065389 288.315553 
L 175.953745 291.038209 
L 179.934752 293.623505 
L 184.003559 296.068291 
L 188.155209 298.369588 
L 192.384644 300.524593 
L 196.686712 302.53068 
L 201.05617 304.385405 
L 205.487695 306.086508 
L 209.975888 307.631917 
L 214.515281 309.019749 
L 219.100344 310.248313 
L 223.72549 311.316112 
L 228.385084 312.221845 
L 233.073449 312.964409 
L 237.784873 313.542899 
L 242.513616 313.956611 
L 247.253917 314.205039 
L 252 314.287882 
L 256.746083 314.205039 
L 261.486384 313.956611 
L 266.215127 313.542899 
L 270.926551 312.964409 
L 275.614916 312.221845 
L 280.27451 311.316112 
L 284.899656 310.248313 
L 289.484719 309.019749 
L 294.024112 307.631917 
L 298.512305 306.086508 
L 302.94383 304.385405 
L 307.313288 302.53068 
L 311.615356 300.524593 
L 315.844791 298.369588 
L 319.996441 296.068291 
L 324.065248 293.623505 
L 328.046255 291.038209 
L 331.934611 288.315553 
L 335.725579 285.458854 
L 339.41454 282.471592 
L 342.997 279.357407 
L 346.468594 276.120093 
L 349.825093 272.763594 
L 353.062407 269.292 
L 356.176592 265.70954 
L 359.163854 262.020579 
L 362.020553 258.229611 
L 364.743209 254.341255 
L 367.328505 250.360248 
L 369.773291 246.291441 
L 372.074588 242.139791 
L 374.229593 237.910356 
L 376.23568 233.608288 
L 378.090405 229.23883 
L 379.791508 224.807305 
L 381.336917 220.319112 
L 382.724749 215.779719 
L 383.953313 211.194656 
L 385.021112 206.56951 
L 385.926845 201.909916 
L 386.669409 197.221551 
L 387.247899 192.510127 
L 387.661611 187.781384 
L 387.910039 183.041083 
L 387.992882 178.295 
L 387.992882 178.295 
" style="fill:none;stroke:#808080;stroke-linecap:square;stroke-width:0.8;"/>
     </g>
     <g id="text_16">
      <!-- 30 -->
      <g transform="translate(377.641041 123.757152)scale(0.12 -0.12)">
       <use xlink:href="#DejaVuSans-33"/>
       <use x="63.623047" xlink:href="#DejaVuSans-30"/>
      </g>
     </g>
    </g>
    <g id="text_17">
     <!-- magnitude [dB] -->
     <defs>
      <path d="M 52 44.1875 
Q 55.375 50.25 60.0625 53.125 
Q 64.75 56 71.09375 56 
Q 79.640625 56 84.28125 50.015625 
Q 88.921875 44.046875 88.921875 33.015625 
L 88.921875 0 
L 79.890625 0 
L 79.890625 32.71875 
Q 79.890625 40.578125 77.09375 44.375 
Q 74.3125 48.1875 68.609375 48.1875 
Q 61.625 48.1875 57.5625 43.546875 
Q 53.515625 38.921875 53.515625 30.90625 
L 53.515625 0 
L 44.484375 0 
L 44.484375 32.71875 
Q 44.484375 40.625 41.703125 44.40625 
Q 38.921875 48.1875 33.109375 48.1875 
Q 26.21875 48.1875 22.15625 43.53125 
Q 18.109375 38.875 18.109375 30.90625 
L 18.109375 0 
L 9.078125 0 
L 9.078125 54.6875 
L 18.109375 54.6875 
L 18.109375 46.1875 
Q 21.1875 51.21875 25.484375 53.609375 
Q 29.78125 56 35.6875 56 
Q 41.65625 56 45.828125 52.96875 
Q 50 49.953125 52 44.1875 
z
" id="DejaVuSans-6d"/>
      <path d="M 34.28125 27.484375 
Q 23.390625 27.484375 19.1875 25 
Q 14.984375 22.515625 14.984375 16.5 
Q 14.984375 11.71875 18.140625 8.90625 
Q 21.296875 6.109375 26.703125 6.109375 
Q 34.1875 6.109375 38.703125 11.40625 
Q 43.21875 16.703125 43.21875 25.484375 
L 43.21875 27.484375 
z
M 52.203125 31.203125 
L 52.203125 0 
L 43.21875 0 
L 43.21875 8.296875 
Q 40.140625 3.328125 35.546875 0.953125 
Q 30.953125 -1.421875 24.3125 -1.421875 
Q 15.921875 -1.421875 10.953125 3.296875 
Q 6 8.015625 6 15.921875 
Q 6 25.140625 12.171875 29.828125 
Q 18.359375 34.515625 30.609375 34.515625 
L 43.21875 34.515625 
L 43.21875 35.40625 
Q 43.21875 41.609375 39.140625 45 
Q 35.0625 48.390625 27.6875 48.390625 
Q 23 48.390625 18.546875 47.265625 
Q 14.109375 46.140625 10.015625 43.890625 
L 10.015625 52.203125 
Q 14.9375 54.109375 19.578125 55.046875 
Q 24.21875 56 28.609375 56 
Q 40.484375 56 46.34375 49.84375 
Q 52.203125 43.703125 52.203125 31.203125 
z
" id="DejaVuSans-61"/>
      <path d="M 45.40625 27.984375 
Q 45.40625 37.75 41.375 43.109375 
Q 37.359375 48.484375 30.078125 48.484375 
Q 22.859375 48.484375 18.828125 43.109375 
Q 14.796875 37.75 14.796875 27.984375 
Q 14.796875 18.265625 18.828125 12.890625 
Q 22.859375 7.515625 30.078125 7.515625 
Q 37.359375 7.515625 41.375 12.890625 
Q 45.40625 18.265625 45.40625 27.984375 
z
M 54.390625 6.78125 
Q 54.390625 -7.171875 48.1875 -13.984375 
Q 42 -20.796875 29.203125 -20.796875 
Q 24.46875 -20.796875 20.265625 -20.09375 
Q 16.0625 -19.390625 12.109375 -17.921875 
L 12.109375 -9.1875 
Q 16.0625 -11.328125 19.921875 -12.34375 
Q 23.78125 -13.375 27.78125 -13.375 
Q 36.625 -13.375 41.015625 -8.765625 
Q 45.40625 -4.15625 45.40625 5.171875 
L 45.40625 9.625 
Q 42.625 4.78125 38.28125 2.390625 
Q 33.9375 0 27.875 0 
Q 17.828125 0 11.671875 7.65625 
Q 5.515625 15.328125 5.515625 27.984375 
Q 5.515625 40.671875 11.671875 48.328125 
Q 17.828125 56 27.875 56 
Q 33.9375 56 38.28125 53.609375 
Q 42.625 51.21875 45.40625 46.390625 
L 45.40625 54.6875 
L 54.390625 54.6875 
z
" id="DejaVuSans-67"/>
      <path d="M 9.421875 54.6875 
L 18.40625 54.6875 
L 18.40625 0 
L 9.421875 0 
z
M 9.421875 75.984375 
L 18.40625 75.984375 
L 18.40625 64.59375 
L 9.421875 64.59375 
z
" id="DejaVuSans-69"/>
      <path d="M 18.3125 70.21875 
L 18.3125 54.6875 
L 36.8125 54.6875 
L 36.8125 47.703125 
L 18.3125 47.703125 
L 18.3125 18.015625 
Q 18.3125 11.328125 20.140625 9.421875 
Q 21.96875 7.515625 27.59375 7.515625 
L 36.8125 7.515625 
L 36.8125 0 
L 27.59375 0 
Q 17.1875 0 13.234375 3.875 
Q 9.28125 7.765625 9.28125 18.015625 
L 9.28125 47.703125 
L 2.6875 47.703125 
L 2.6875 54.6875 
L 9.28125 54.6875 
L 9.28125 70.21875 
z
" id="DejaVuSans-74"/>
      <path d="M 45.40625 46.390625 
L 45.40625 75.984375 
L 54.390625 75.984375 
L 54.390625 0 
L 45.40625 0 
L 45.40625 8.203125 
Q 42.578125 3.328125 38.25 0.953125 
Q 33.9375 -1.421875 27.875 -1.421875 
Q 17.96875 -1.421875 11.734375 6.484375 
Q 5.515625 14.40625 5.515625 27.296875 
Q 5.515625 40.1875 11.734375 48.09375 
Q 17.96875 56 27.875 56 
Q 33.9375 56 38.25 53.625 
Q 42.578125 51.265625 45.40625 46.390625 
z
M 14.796875 27.296875 
Q 14.796875 17.390625 18.875 11.75 
Q 22.953125 6.109375 30.078125 6.109375 
Q 37.203125 6.109375 41.296875 11.75 
Q 45.40625 17.390625 45.40625 27.296875 
Q 45.40625 37.203125 41.296875 42.84375 
Q 37.203125 48.484375 30.078125 48.484375 
Q 22.953125 48.484375 18.875 42.84375 
Q 14.796875 37.203125 14.796875 27.296875 
z
" id="DejaVuSans-64"/>
      <path d="M 19.671875 34.8125 
L 19.671875 8.109375 
L 35.5 8.109375 
Q 43.453125 8.109375 47.28125 11.40625 
Q 51.125 14.703125 51.125 21.484375 
Q 51.125 28.328125 47.28125 31.5625 
Q 43.453125 34.8125 35.5 34.8125 
z
M 19.671875 64.796875 
L 19.671875 42.828125 
L 34.28125 42.828125 
Q 41.5 42.828125 45.03125 45.53125 
Q 48.578125 48.25 48.578125 53.8125 
Q 48.578125 59.328125 45.03125 62.0625 
Q 41.5 64.796875 34.28125 64.796875 
z
M 9.8125 72.90625 
L 35.015625 72.90625 
Q 46.296875 72.90625 52.390625 68.21875 
Q 58.5 63.53125 58.5 54.890625 
Q 58.5 48.1875 55.375 44.234375 
Q 52.25 40.28125 46.1875 39.3125 
Q 53.46875 37.75 57.5 32.78125 
Q 61.53125 27.828125 61.53125 20.40625 
Q 61.53125 10.640625 54.890625 5.3125 
Q 48.25 0 35.984375 0 
L 9.8125 0 
z
" id="DejaVuSans-42"/>
     </defs>
     <g transform="translate(107.599375 225.264688)rotate(-90)scale(0.12 -0.12)">
      <use xlink:href="#DejaVuSans-6d"/>
      <use x="97.412109" xlink:href="#DejaVuSans-61"/>
      <use x="158.691406" xlink:href="#DejaVuSans-67"/>
      <use x="222.167969" xlink:href="#DejaVuSans-6e"/>
      <use x="285.546875" xlink:href="#DejaVuSans-69"/>
      <use x="313.330078" xlink:href="#DejaVuSans-74"/>
      <use x="352.539062" xlink:href="#DejaVuSans-75"/>
      <use x="415.917969" xlink:href="#DejaVuSans-64"/>
      <use x="479.394531" xlink:href="#DejaVuSans-65"/>
      <use x="540.917969" xlink:href="#DejaVuSans-20"/>
      <use x="572.705078" xlink:href="#DejaVuSans-5b"/>
      <use x="611.71875" xlink:href="#DejaVuSans-64"/>
      <use x="675.195312" xlink:href="#DejaVuSans-42"/>
      <use x="743.798828" xlink:href="#DejaVuSans-5d"/>
     </g>
    </g>
   </g>
   <g id="line2d_16">
    <path clip-path="url(#pe0f48ae4a3)" d="M 120.458669 173.287969 
L 120.47345 172.926334 
L 120.490444 172.538613 
L 120.509982 172.122932 
L 120.532445 171.677286 
L 120.55827 171.199525 
L 120.587961 170.68735 
L 120.622096 170.138301 
L 120.661339 169.549744 
L 120.706455 168.918864 
L 120.75832 168.242653 
L 120.817945 167.517894 
L 120.886489 166.741154 
L 120.965283 165.908768 
L 121.055859 165.016829 
L 121.159974 164.061173 
L 121.279648 163.037369 
L 121.417202 161.940703 
L 121.575297 160.766174 
L 121.756992 159.50848 
L 121.965796 158.162009 
L 122.205737 156.72084 
L 122.481432 155.178738 
L 122.798179 153.529161 
L 123.162047 151.765269 
L 123.57999 149.879945 
L 124.059968 147.865828 
L 124.611088 145.715352 
L 125.243757 143.420818 
L 125.969858 140.974474 
L 126.802942 138.368631 
L 127.758438 135.595817 
L 128.853881 132.648968 
L 130.109157 129.521683 
L 131.546754 126.208543 
L 133.192024 122.705513 
L 135.073422 119.010446 
L 137.222735 115.123709 
L 139.675236 111.048946 
L 142.46976 106.794014 
L 145.648625 102.372084 
L 149.257338 97.802948 
L 153.343998 93.114503 
L 157.958272 88.344397 
L 163.149831 83.541761 
L 168.966088 78.768898 
L 175.449127 74.102727 
L 182.631739 69.635687 
L 190.53258 65.475701 
L 199.15066 61.744736 
L 208.459576 58.575498 
L 218.402223 56.105879 
L 228.886964 54.471112 
L 239.786371 53.793968 
L 250.939576 54.17399 
L 262.158764 55.677217 
L 273.239623 58.328202 
L 283.974601 62.105926 
L 294.167102 66.944615 
L 303.644401 72.739408 
L 312.267366 79.355867 
L 319.935826 86.641578 
L 326.589408 94.437916 
L 332.204526 102.590359 
L 336.788721 110.956335 
L 340.37366 119.410247 
L 343.007941 127.845868 
L 344.750507 136.176605 
L 345.665121 144.334241 
L 345.816053 152.266747 
L 345.264955 159.935618 
L 344.068741 167.313092 
L 342.278321 174.379434 
L 339.937962 181.120415 
L 337.085136 187.52501 
L 333.750734 193.583316 
L 329.959551 199.284641 
L 325.731021 204.615728 
L 321.080198 209.559044 
L 316.019029 214.091109 
L 310.558027 218.180828 
L 304.708459 221.787858 
L 298.485273 224.861087 
L 291.910974 227.337419 
L 285.020709 229.141235 
L 277.868766 230.185116 
L 270.536472 230.372729 
L 263.141103 229.6051 
L 255.844638 227.791664 
L 248.860089 224.867322 
L 242.451831 220.815721 
L 236.925424 215.69689 
L 232.602826 209.674181 
L 229.781709 203.032242 
L 228.68302 196.176433 
L 229.397169 189.60687 
L 231.842967 183.867273 
L 235.75164 179.47726 
L 240.681349 176.862248 
L 246.059219 176.294982 
" style="fill:none;stroke:#0000ff;stroke-linecap:square;stroke-width:2;"/>
   </g>
   <g id="patch_3">
    <path d="M 389.905 178.295 
C 389.905 160.185481 386.33782 142.252055 379.407607 125.521041 
C 372.477394 108.790028 362.318924 93.586803 349.513561 80.781439 
C 336.708197 67.976076 321.504972 57.817606 304.773959 50.887393 
C 288.042945 43.95718 270.109519 40.39 252 40.39 
C 233.890481 40.39 215.957055 43.95718 199.226041 50.887393 
C 182.495028 57.817606 167.291803 67.976076 154.486439 80.781439 
C 141.681076 93.586803 131.522606 108.790028 124.592393 125.521041 
C 117.66218 142.252055 114.095 160.185481 114.095 178.295 
C 114.095 196.404519 117.66218 214.337945 124.592393 231.068959 
C 131.522606 247.799972 141.681076 263.003197 154.486439 275.808561 
C 167.291803 288.613924 182.495028 298.772394 199.226041 305.702607 
C 215.957055 312.63282 233.890481 316.2 252 316.2 
C 270.109519 316.2 288.042945 312.63282 304.773959 305.702607 
C 321.504972 298.772394 336.708197 288.613924 349.513561 275.808561 
C 362.318924 263.003197 372.477394 247.799972 379.407607 231.068959 
C 386.33782 214.337945 389.905 196.404519 389.905 178.295 
" style="fill:none;stroke:#000000;stroke-linecap:square;stroke-linejoin:miter;stroke-width:0.8;"/>
   </g>
   <g id="text_18">
    <!-- dB polar -->
    <defs>
     <path d="M 18.109375 8.203125 
L 18.109375 -20.796875 
L 9.078125 -20.796875 
L 9.078125 54.6875 
L 18.109375 54.6875 
L 18.109375 46.390625 
Q 20.953125 51.265625 25.265625 53.625 
Q 29.59375 56 35.59375 56 
Q 45.5625 56 51.78125 48.09375 
Q 58.015625 40.1875 58.015625 27.296875 
Q 58.015625 14.40625 51.78125 6.484375 
Q 45.5625 -1.421875 35.59375 -1.421875 
Q 29.59375 -1.421875 25.265625 0.953125 
Q 20.953125 3.328125 18.109375 8.203125 
z
M 48.6875 27.296875 
Q 48.6875 37.203125 44.609375 42.84375 
Q 40.53125 48.484375 33.40625 48.484375 
Q 26.265625 48.484375 22.1875 42.84375 
Q 18.109375 37.203125 18.109375 27.296875 
Q 18.109375 17.390625 22.1875 11.75 
Q 26.265625 6.109375 33.40625 6.109375 
Q 40.53125 6.109375 44.609375 11.75 
Q 48.6875 17.390625 48.6875 27.296875 
z
" id="DejaVuSans-70"/>
     <path d="M 30.609375 48.390625 
Q 23.390625 48.390625 19.1875 42.75 
Q 14.984375 37.109375 14.984375 27.296875 
Q 14.984375 17.484375 19.15625 11.84375 
Q 23.34375 6.203125 30.609375 6.203125 
Q 37.796875 6.203125 41.984375 11.859375 
Q 46.1875 17.53125 46.1875 27.296875 
Q 46.1875 37.015625 41.984375 42.703125 
Q 37.796875 48.390625 30.609375 48.390625 
z
M 30.609375 56 
Q 42.328125 56 49.015625 48.375 
Q 55.71875 40.765625 55.71875 27.296875 
Q 55.71875 13.875 49.015625 6.21875 
Q 42.328125 -1.421875 30.609375 -1.421875 
Q 18.84375 -1.421875 12.171875 6.21875 
Q 5.515625 13.875 5.515625 27.296875 
Q 5.515625 40.765625 12.171875 48.375 
Q 18.84375 56 30.609375 56 
z
" id="DejaVuSans-6f"/>
     <path d="M 9.421875 75.984375 
L 18.40625 75.984375 
L 18.40625 0 
L 9.421875 0 
z
" id="DejaVuSans-6c"/>
    </defs>
    <g transform="translate(226.876875 20.5995)scale(0.12 -0.12)">
     <use xlink:href="#DejaVuSans-64"/>
     <use x="63.476562" xlink:href="#DejaVuSans-42"/>
     <use x="132.080078" xlink:href="#DejaVuSans-20"/>
     <use x="163.867188" xlink:href="#DejaVuSans-70"/>
     <use x="227.34375" xlink:href="#DejaVuSans-6f"/>
     <use x="288.525391" xlink:href="#DejaVuSans-6c"/>
     <use x="316.308594" xlink:href="#DejaVuSans-61"/>
     <use x="377.587891" xlink:href="#DejaVuSans-72"/>
    </g>
   </g>
   <g id="legend_1">
    <g id="patch_4">
     <path d="M 382.905 49.39 
L 382.905 49.39 
Q 384.905 49.39 384.905 47.39 
L 384.905 47.39 
Q 384.905 45.39 382.905 45.39 
L 382.905 45.39 
Q 380.905 45.39 380.905 47.39 
L 380.905 47.39 
Q 380.905 49.39 382.905 49.39 
z
" style="fill:#ffffff;opacity:0.8;stroke:#cccccc;stroke-linejoin:miter;"/>
    </g>
   </g>
  </g>
 </g>
 <defs>
  <clipPath id="pe0f48ae4a3">
   <path d="M 389.905 178.295 
C 389.905 160.185481 386.33782 142.252055 379.407607 125.521041 
C 372.477394 108.790028 362.318924 93.586803 349.513561 80.781439 
C 336.708197 67.976076 321.504972 57.817606 304.773959 50.887393 
C 288.042945 43.95718 270.109519 40.39 252 40.39 
C 233.890481 40.39 215.957055 43.95718 199.226041 50.887393 
C 182.495028 57.817606 167.291803 67.976076 154.486439 80.781439 
C 141.681076 93.586803 131.522606 108.790028 124.592393 125.521041 
C 117.66218 142.252055 114.095 160.185481 114.095 178.295 
C 114.095 196.404519 117.66218 214.337945 124.592393 231.068959 
C 131.522606 247.799972 141.681076 263.003197 154.486439 275.808561 
C 167.291803 288.613924 182.495028 298.772394 199.226041 305.702607 
C 215.957055 312.63282 233.890481 316.2 252 316.2 
C 270.109519 316.2 288.042945 312.63282 304.773959 305.702607 
C 321.504972 298.772394 336.708197 288.613924 349.513561 275.808561 
C 362.318924 263.003197 372.477394 247.799972 379.407607 231.068959 
C 386.33782 214.337945 389.905 196.404519 389.905 178.295 
M 252 178.295 
C 252 178.295 252 178.295 252 178.295 
C 252 178.295 252 178.295 252 178.295 
C 252 178.295 252 178.295 252 178.295 
C 252 178.295 252 178.295 252 178.295 
C 252 178.295 252 178.295 252 178.295 
C 252 178.295 252 178.295 252 178.295 
C 252 178.295 252 178.295 252 178.295 
C 252 178.295 252 178.295 252 178.295 
C 252 178.295 252 178.295 252 178.295 
C 252 178.295 252 178.295 252 178.295 
C 252 178.295 252 178.295 252 178.295 
C 252 178.295 252 178.295 252 178.295 
C 252 178.295 252 178.295 252 178.295 
C 252 178.295 252 178.295 252 178.295 
C 252 178.295 252 178.295 252 178.295 
C 252 178.295 252 178.295 252 178.295 
M 389.905 178.295 
z
"/>
  </clipPath>
 </defs>
</svg>
