<?xml version="1.0" encoding="utf-8" standalone="no"?>
<!DOCTYPE svg PUBLIC "-//W3C//DTD SVG 1.1//EN"
  "http://www.w3.org/Graphics/SVG/1.1/DTD/svg11.dtd">
<!-- Created with matplotlib (https://matplotlib.org/) -->
<svg height="360pt" version="1.1" viewBox="0 0 504 360" width="504pt" xmlns="http://www.w3.org/2000/svg" xmlns:xlink="http://www.w3.org/1999/xlink">
 <defs>
  <style type="text/css">
*{stroke-linecap:butt;stroke-linejoin:round;}
  </style>
 </defs>
 <g id="figure_1">
  <g id="patch_1">
   <path d="M 0 360 
L 504 360 
L 504 0 
L 0 0 
z
" style="fill:#ffffff;"/>
  </g>
  <g id="axes_1">
   <g id="patch_2">
    <path d="M 387.905 177.295 
C 387.905 159.448119 384.389554 141.774776 377.559848 125.286408 
C 370.730142 108.79804 360.718998 93.815304 348.099347 81.195653 
C 335.479696 68.576002 320.49696 58.564858 304.008592 51.735152 
C 287.520224 44.905446 269.846881 41.39 252 41.39 
C 234.153119 41.39 216.479776 44.905446 199.991408 51.735152 
C 183.50304 58.564858 168.520304 68.576002 155.900653 81.195653 
C 143.281002 93.815304 133.269858 108.79804 126.440152 125.286408 
C 119.610446 141.774776 116.095 159.448119 116.095 177.295 
C 116.095 195.141881 119.610446 212.815224 126.440152 229.303592 
C 133.269858 245.79196 143.281002 260.774696 155.900653 273.394347 
C 168.520304 286.013998 183.50304 296.025142 199.991408 302.854848 
C 216.479776 309.684554 234.153119 313.2 252 313.2 
C 269.846881 313.2 287.520224 309.684554 304.008592 302.854848 
C 320.49696 296.025142 335.479696 286.013998 348.099347 273.394347 
C 360.718998 260.774696 370.730142 245.79196 377.559848 229.303592 
C 384.389554 212.815224 387.905 195.141881 387.905 177.295 
M 252 177.295 
C 252 177.295 252 177.295 252 177.295 
C 252 177.295 252 177.295 252 177.295 
C 252 177.295 252 177.295 252 177.295 
C 252 177.295 252 177.295 252 177.295 
C 252 177.295 252 177.295 252 177.295 
C 252 177.295 252 177.295 252 177.295 
C 252 177.295 252 177.295 252 177.295 
C 252 177.295 252 177.295 252 177.295 
C 252 177.295 252 177.295 252 177.295 
C 252 177.295 252 177.295 252 177.295 
C 252 177.295 252 177.295 252 177.295 
C 252 177.295 252 177.295 252 177.295 
C 252 177.295 252 177.295 252 177.295 
C 252 177.295 252 177.295 252 177.295 
C 252 177.295 252 177.295 252 177.295 
C 252 177.295 252 177.295 252 177.295 
M 387.905 177.295 
z
" style="fill:#e5e5e5;"/>
   </g>
   <g id="matplotlib.axis_1">
    <g id="xtick_1">
     <g id="line2d_1">
      <path clip-path="url(#pa92bed31bb)" d="M 252 177.295 
L 387.905 177.295 
" style="fill:none;stroke:#808080;stroke-linecap:square;stroke-width:0.8;"/>
     </g>
     <g id="text_1">
      <!-- 0° -->
      <defs>
       <path d="M 31.78125 66.40625 
Q 24.171875 66.40625 20.328125 58.90625 
Q 16.5 51.421875 16.5 36.375 
Q 16.5 21.390625 20.328125 13.890625 
Q 24.171875 6.390625 31.78125 6.390625 
Q 39.453125 6.390625 43.28125 13.890625 
Q 47.125 21.390625 47.125 36.375 
Q 47.125 51.421875 43.28125 58.90625 
Q 39.453125 66.40625 31.78125 66.40625 
z
M 31.78125 74.21875 
Q 44.046875 74.21875 50.515625 64.515625 
Q 56.984375 54.828125 56.984375 36.375 
Q 56.984375 17.96875 50.515625 8.265625 
Q 44.046875 -1.421875 31.78125 -1.421875 
Q 19.53125 -1.421875 13.0625 8.265625 
Q 6.59375 17.96875 6.59375 36.375 
Q 6.59375 54.828125 13.0625 64.515625 
Q 19.53125 74.21875 31.78125 74.21875 
z
" id="DejaVuSans-48"/>
       <path d="M 25 67.921875 
Q 21.09375 67.921875 18.40625 65.203125 
Q 15.71875 62.5 15.71875 58.59375 
Q 15.71875 54.734375 18.40625 52.078125 
Q 21.09375 49.421875 25 49.421875 
Q 28.90625 49.421875 31.59375 52.078125 
Q 34.28125 54.734375 34.28125 58.59375 
Q 34.28125 62.453125 31.5625 65.1875 
Q 28.859375 67.921875 25 67.921875 
z
M 25 74.21875 
Q 28.125 74.21875 31 73.015625 
Q 33.890625 71.828125 35.984375 69.578125 
Q 38.234375 67.390625 39.359375 64.59375 
Q 40.484375 61.8125 40.484375 58.59375 
Q 40.484375 52.15625 35.96875 47.6875 
Q 31.453125 43.21875 24.90625 43.21875 
Q 18.3125 43.21875 13.90625 47.609375 
Q 9.515625 52 9.515625 58.59375 
Q 9.515625 65.140625 14 69.671875 
Q 18.5 74.21875 25 74.21875 
z
" id="DejaVuSans-176"/>
      </defs>
      <g style="fill:#555555;" transform="translate(395.0875 180.60625)scale(0.12 -0.12)">
       <use xlink:href="#DejaVuSans-48"/>
       <use x="63.623047" xlink:href="#DejaVuSans-176"/>
      </g>
     </g>
    </g>
    <g id="xtick_2">
     <g id="line2d_2">
      <path clip-path="url(#pa92bed31bb)" d="M 252 177.295 
L 348.099347 81.195653 
" style="fill:none;stroke:#808080;stroke-linecap:square;stroke-width:0.8;"/>
     </g>
     <g id="text_2">
      <!-- 45° -->
      <defs>
       <path d="M 37.796875 64.3125 
L 12.890625 25.390625 
L 37.796875 25.390625 
z
M 35.203125 72.90625 
L 47.609375 72.90625 
L 47.609375 25.390625 
L 58.015625 25.390625 
L 58.015625 17.1875 
L 47.609375 17.1875 
L 47.609375 0 
L 37.796875 0 
L 37.796875 17.1875 
L 4.890625 17.1875 
L 4.890625 26.703125 
z
" id="DejaVuSans-52"/>
       <path d="M 10.796875 72.90625 
L 49.515625 72.90625 
L 49.515625 64.59375 
L 19.828125 64.59375 
L 19.828125 46.734375 
Q 21.96875 47.46875 24.109375 47.828125 
Q 26.265625 48.1875 28.421875 48.1875 
Q 40.625 48.1875 47.75 41.5 
Q 54.890625 34.8125 54.890625 23.390625 
Q 54.890625 11.625 47.5625 5.09375 
Q 40.234375 -1.421875 26.90625 -1.421875 
Q 22.3125 -1.421875 17.546875 -0.640625 
Q 12.796875 0.140625 7.71875 1.703125 
L 7.71875 11.625 
Q 12.109375 9.234375 16.796875 8.0625 
Q 21.484375 6.890625 26.703125 6.890625 
Q 35.15625 6.890625 40.078125 11.328125 
Q 45.015625 15.765625 45.015625 23.390625 
Q 45.015625 31 40.078125 35.4375 
Q 35.15625 39.890625 26.703125 39.890625 
Q 22.75 39.890625 18.8125 39.015625 
Q 14.890625 38.140625 10.796875 36.28125 
z
" id="DejaVuSans-53"/>
      </defs>
      <g style="fill:#555555;" transform="translate(347.363842 74.607408)scale(0.12 -0.12)">
       <use xlink:href="#DejaVuSans-52"/>
       <use x="63.623047" xlink:href="#DejaVuSans-53"/>
       <use x="127.246094" xlink:href="#DejaVuSans-176"/>
      </g>
     </g>
    </g>
    <g id="xtick_3">
     <g id="line2d_3">
      <path clip-path="url(#pa92bed31bb)" d="M 252 177.295 
L 252 41.39 
" style="fill:none;stroke:#808080;stroke-linecap:square;stroke-width:0.8;"/>
     </g>
     <g id="text_3">
      <!-- 90° -->
      <defs>
       <path d="M 10.984375 1.515625 
L 10.984375 10.5 
Q 14.703125 8.734375 18.5 7.8125 
Q 22.3125 6.890625 25.984375 6.890625 
Q 35.75 6.890625 40.890625 13.453125 
Q 46.046875 20.015625 46.78125 33.40625 
Q 43.953125 29.203125 39.59375 26.953125 
Q 35.25 24.703125 29.984375 24.703125 
Q 19.046875 24.703125 12.671875 31.3125 
Q 6.296875 37.9375 6.296875 49.421875 
Q 6.296875 60.640625 12.9375 67.421875 
Q 19.578125 74.21875 30.609375 74.21875 
Q 43.265625 74.21875 49.921875 64.515625 
Q 56.59375 54.828125 56.59375 36.375 
Q 56.59375 19.140625 48.40625 8.859375 
Q 40.234375 -1.421875 26.421875 -1.421875 
Q 22.703125 -1.421875 18.890625 -0.6875 
Q 15.09375 0.046875 10.984375 1.515625 
z
M 30.609375 32.421875 
Q 37.25 32.421875 41.125 36.953125 
Q 45.015625 41.5 45.015625 49.421875 
Q 45.015625 57.28125 41.125 61.84375 
Q 37.25 66.40625 30.609375 66.40625 
Q 23.96875 66.40625 20.09375 61.84375 
Q 16.21875 57.28125 16.21875 49.421875 
Q 16.21875 41.5 20.09375 36.953125 
Q 23.96875 32.421875 30.609375 32.421875 
z
" id="DejaVuSans-57"/>
      </defs>
      <g style="fill:#555555;" transform="translate(241.365 30.70125)scale(0.12 -0.12)">
       <use xlink:href="#DejaVuSans-57"/>
       <use x="63.623047" xlink:href="#DejaVuSans-48"/>
       <use x="127.246094" xlink:href="#DejaVuSans-176"/>
      </g>
     </g>
    </g>
    <g id="xtick_4">
     <g id="line2d_4">
      <path clip-path="url(#pa92bed31bb)" d="M 252 177.295 
L 155.900653 81.195653 
" style="fill:none;stroke:#808080;stroke-linecap:square;stroke-width:0.8;"/>
     </g>
     <g id="text_4">
      <!-- 135° -->
      <defs>
       <path d="M 12.40625 8.296875 
L 28.515625 8.296875 
L 28.515625 63.921875 
L 10.984375 60.40625 
L 10.984375 69.390625 
L 28.421875 72.90625 
L 38.28125 72.90625 
L 38.28125 8.296875 
L 54.390625 8.296875 
L 54.390625 0 
L 12.40625 0 
z
" id="DejaVuSans-49"/>
       <path d="M 40.578125 39.3125 
Q 47.65625 37.796875 51.625 33 
Q 55.609375 28.21875 55.609375 21.1875 
Q 55.609375 10.40625 48.1875 4.484375 
Q 40.765625 -1.421875 27.09375 -1.421875 
Q 22.515625 -1.421875 17.65625 -0.515625 
Q 12.796875 0.390625 7.625 2.203125 
L 7.625 11.71875 
Q 11.71875 9.328125 16.59375 8.109375 
Q 21.484375 6.890625 26.8125 6.890625 
Q 36.078125 6.890625 40.9375 10.546875 
Q 45.796875 14.203125 45.796875 21.1875 
Q 45.796875 27.640625 41.28125 31.265625 
Q 36.765625 34.90625 28.71875 34.90625 
L 20.21875 34.90625 
L 20.21875 43.015625 
L 29.109375 43.015625 
Q 36.375 43.015625 40.234375 45.921875 
Q 44.09375 48.828125 44.09375 54.296875 
Q 44.09375 59.90625 40.109375 62.90625 
Q 36.140625 65.921875 28.71875 65.921875 
Q 24.65625 65.921875 20.015625 65.03125 
Q 15.375 64.15625 9.8125 62.3125 
L 9.8125 71.09375 
Q 15.4375 72.65625 20.34375 73.4375 
Q 25.25 74.21875 29.59375 74.21875 
Q 40.828125 74.21875 47.359375 69.109375 
Q 53.90625 64.015625 53.90625 55.328125 
Q 53.90625 49.265625 50.4375 45.09375 
Q 46.96875 40.921875 40.578125 39.3125 
z
" id="DejaVuSans-51"/>
      </defs>
      <g style="fill:#555555;" transform="translate(131.548658 74.607408)scale(0.12 -0.12)">
       <use xlink:href="#DejaVuSans-49"/>
       <use x="63.623047" xlink:href="#DejaVuSans-51"/>
       <use x="127.246094" xlink:href="#DejaVuSans-53"/>
       <use x="190.869141" xlink:href="#DejaVuSans-176"/>
      </g>
     </g>
    </g>
    <g id="xtick_5">
     <g id="line2d_5">
      <path clip-path="url(#pa92bed31bb)" d="M 252 177.295 
L 116.095 177.295 
" style="fill:none;stroke:#808080;stroke-linecap:square;stroke-width:0.8;"/>
     </g>
     <g id="text_5">
      <!-- 180° -->
      <defs>
       <path d="M 31.78125 34.625 
Q 24.75 34.625 20.71875 30.859375 
Q 16.703125 27.09375 16.703125 20.515625 
Q 16.703125 13.921875 20.71875 10.15625 
Q 24.75 6.390625 31.78125 6.390625 
Q 38.8125 6.390625 42.859375 10.171875 
Q 46.921875 13.96875 46.921875 20.515625 
Q 46.921875 27.09375 42.890625 30.859375 
Q 38.875 34.625 31.78125 34.625 
z
M 21.921875 38.8125 
Q 15.578125 40.375 12.03125 44.71875 
Q 8.5 49.078125 8.5 55.328125 
Q 8.5 64.0625 14.71875 69.140625 
Q 20.953125 74.21875 31.78125 74.21875 
Q 42.671875 74.21875 48.875 69.140625 
Q 55.078125 64.0625 55.078125 55.328125 
Q 55.078125 49.078125 51.53125 44.71875 
Q 48 40.375 41.703125 38.8125 
Q 48.828125 37.15625 52.796875 32.3125 
Q 56.78125 27.484375 56.78125 20.515625 
Q 56.78125 9.90625 50.3125 4.234375 
Q 43.84375 -1.421875 31.78125 -1.421875 
Q 19.734375 -1.421875 13.25 4.234375 
Q 6.78125 9.90625 6.78125 20.515625 
Q 6.78125 27.484375 10.78125 32.3125 
Q 14.796875 37.15625 21.921875 38.8125 
z
M 18.3125 54.390625 
Q 18.3125 48.734375 21.84375 45.5625 
Q 25.390625 42.390625 31.78125 42.390625 
Q 38.140625 42.390625 41.71875 45.5625 
Q 45.3125 48.734375 45.3125 54.390625 
Q 45.3125 60.0625 41.71875 63.234375 
Q 38.140625 66.40625 31.78125 66.40625 
Q 25.390625 66.40625 21.84375 63.234375 
Q 18.3125 60.0625 18.3125 54.390625 
z
" id="DejaVuSans-56"/>
      </defs>
      <g style="fill:#555555;" transform="translate(87.6425 180.60625)scale(0.12 -0.12)">
       <use xlink:href="#DejaVuSans-49"/>
       <use x="63.623047" xlink:href="#DejaVuSans-56"/>
       <use x="127.246094" xlink:href="#DejaVuSans-48"/>
       <use x="190.869141" xlink:href="#DejaVuSans-176"/>
      </g>
     </g>
    </g>
    <g id="xtick_6">
     <g id="line2d_6">
      <path clip-path="url(#pa92bed31bb)" d="M 252 177.295 
L 155.900653 273.394347 
" style="fill:none;stroke:#808080;stroke-linecap:square;stroke-width:0.8;"/>
     </g>
     <g id="text_6">
      <!-- 225° -->
      <defs>
       <path d="M 19.1875 8.296875 
L 53.609375 8.296875 
L 53.609375 0 
L 7.328125 0 
L 7.328125 8.296875 
Q 12.9375 14.109375 22.625 23.890625 
Q 32.328125 33.6875 34.8125 36.53125 
Q 39.546875 41.84375 41.421875 45.53125 
Q 43.3125 49.21875 43.3125 52.78125 
Q 43.3125 58.59375 39.234375 62.25 
Q 35.15625 65.921875 28.609375 65.921875 
Q 23.96875 65.921875 18.8125 64.3125 
Q 13.671875 62.703125 7.8125 59.421875 
L 7.8125 69.390625 
Q 13.765625 71.78125 18.9375 73 
Q 24.125 74.21875 28.421875 74.21875 
Q 39.75 74.21875 46.484375 68.546875 
Q 53.21875 62.890625 53.21875 53.421875 
Q 53.21875 48.921875 51.53125 44.890625 
Q 49.859375 40.875 45.40625 35.40625 
Q 44.1875 33.984375 37.640625 27.21875 
Q 31.109375 20.453125 19.1875 8.296875 
z
" id="DejaVuSans-50"/>
      </defs>
      <g style="fill:#555555;" transform="translate(131.548658 286.605092)scale(0.12 -0.12)">
       <use xlink:href="#DejaVuSans-50"/>
       <use x="63.623047" xlink:href="#DejaVuSans-50"/>
       <use x="127.246094" xlink:href="#DejaVuSans-53"/>
       <use x="190.869141" xlink:href="#DejaVuSans-176"/>
      </g>
     </g>
    </g>
    <g id="xtick_7">
     <g id="line2d_7">
      <path clip-path="url(#pa92bed31bb)" d="M 252 177.295 
L 252 313.2 
" style="fill:none;stroke:#808080;stroke-linecap:square;stroke-width:0.8;"/>
     </g>
     <g id="text_7">
      <!-- 270° -->
      <defs>
       <path d="M 8.203125 72.90625 
L 55.078125 72.90625 
L 55.078125 68.703125 
L 28.609375 0 
L 18.3125 0 
L 43.21875 64.59375 
L 8.203125 64.59375 
z
" id="DejaVuSans-55"/>
      </defs>
      <g style="fill:#555555;" transform="translate(237.5475 330.51125)scale(0.12 -0.12)">
       <use xlink:href="#DejaVuSans-50"/>
       <use x="63.623047" xlink:href="#DejaVuSans-55"/>
       <use x="127.246094" xlink:href="#DejaVuSans-48"/>
       <use x="190.869141" xlink:href="#DejaVuSans-176"/>
      </g>
     </g>
    </g>
    <g id="xtick_8">
     <g id="line2d_8">
      <path clip-path="url(#pa92bed31bb)" d="M 252 177.295 
L 348.099347 273.394347 
" style="fill:none;stroke:#808080;stroke-linecap:square;stroke-width:0.8;"/>
     </g>
     <g id="text_8">
      <!-- 315° -->
      <g style="fill:#555555;" transform="translate(343.546342 286.605092)scale(0.12 -0.12)">
       <use xlink:href="#DejaVuSans-51"/>
       <use x="63.623047" xlink:href="#DejaVuSans-49"/>
       <use x="127.246094" xlink:href="#DejaVuSans-53"/>
       <use x="190.869141" xlink:href="#DejaVuSans-176"/>
      </g>
     </g>
    </g>
    <g id="text_9">
     <!-- frequency [kHz] -->
     <defs>
      <path d="M 37.109375 75.984375 
L 37.109375 68.5 
L 28.515625 68.5 
Q 23.6875 68.5 21.796875 66.546875 
Q 19.921875 64.59375 19.921875 59.515625 
L 19.921875 54.6875 
L 34.71875 54.6875 
L 34.71875 47.703125 
L 19.921875 47.703125 
L 19.921875 0 
L 10.890625 0 
L 10.890625 47.703125 
L 2.296875 47.703125 
L 2.296875 54.6875 
L 10.890625 54.6875 
L 10.890625 58.5 
Q 10.890625 67.625 15.140625 71.796875 
Q 19.390625 75.984375 28.609375 75.984375 
z
" id="DejaVuSans-102"/>
      <path d="M 41.109375 46.296875 
Q 39.59375 47.171875 37.8125 47.578125 
Q 36.03125 48 33.890625 48 
Q 26.265625 48 22.1875 43.046875 
Q 18.109375 38.09375 18.109375 28.8125 
L 18.109375 0 
L 9.078125 0 
L 9.078125 54.6875 
L 18.109375 54.6875 
L 18.109375 46.1875 
Q 20.953125 51.171875 25.484375 53.578125 
Q 30.03125 56 36.53125 56 
Q 37.453125 56 38.578125 55.875 
Q 39.703125 55.765625 41.0625 55.515625 
z
" id="DejaVuSans-114"/>
      <path d="M 56.203125 29.59375 
L 56.203125 25.203125 
L 14.890625 25.203125 
Q 15.484375 15.921875 20.484375 11.0625 
Q 25.484375 6.203125 34.421875 6.203125 
Q 39.59375 6.203125 44.453125 7.46875 
Q 49.3125 8.734375 54.109375 11.28125 
L 54.109375 2.78125 
Q 49.265625 0.734375 44.1875 -0.34375 
Q 39.109375 -1.421875 33.890625 -1.421875 
Q 20.796875 -1.421875 13.15625 6.1875 
Q 5.515625 13.8125 5.515625 26.8125 
Q 5.515625 40.234375 12.765625 48.109375 
Q 20.015625 56 32.328125 56 
Q 43.359375 56 49.78125 48.890625 
Q 56.203125 41.796875 56.203125 29.59375 
z
M 47.21875 32.234375 
Q 47.125 39.59375 43.09375 43.984375 
Q 39.0625 48.390625 32.421875 48.390625 
Q 24.90625 48.390625 20.390625 44.140625 
Q 15.875 39.890625 15.1875 32.171875 
z
" id="DejaVuSans-101"/>
      <path d="M 14.796875 27.296875 
Q 14.796875 17.390625 18.875 11.75 
Q 22.953125 6.109375 30.078125 6.109375 
Q 37.203125 6.109375 41.296875 11.75 
Q 45.40625 17.390625 45.40625 27.296875 
Q 45.40625 37.203125 41.296875 42.84375 
Q 37.203125 48.484375 30.078125 48.484375 
Q 22.953125 48.484375 18.875 42.84375 
Q 14.796875 37.203125 14.796875 27.296875 
z
M 45.40625 8.203125 
Q 42.578125 3.328125 38.25 0.953125 
Q 33.9375 -1.421875 27.875 -1.421875 
Q 17.96875 -1.421875 11.734375 6.484375 
Q 5.515625 14.40625 5.515625 27.296875 
Q 5.515625 40.1875 11.734375 48.09375 
Q 17.96875 56 27.875 56 
Q 33.9375 56 38.25 53.625 
Q 42.578125 51.265625 45.40625 46.390625 
L 45.40625 54.6875 
L 54.390625 54.6875 
L 54.390625 -20.796875 
L 45.40625 -20.796875 
z
" id="DejaVuSans-113"/>
      <path d="M 8.5 21.578125 
L 8.5 54.6875 
L 17.484375 54.6875 
L 17.484375 21.921875 
Q 17.484375 14.15625 20.5 10.265625 
Q 23.53125 6.390625 29.59375 6.390625 
Q 36.859375 6.390625 41.078125 11.03125 
Q 45.3125 15.671875 45.3125 23.6875 
L 45.3125 54.6875 
L 54.296875 54.6875 
L 54.296875 0 
L 45.3125 0 
L 45.3125 8.40625 
Q 42.046875 3.421875 37.71875 1 
Q 33.40625 -1.421875 27.6875 -1.421875 
Q 18.265625 -1.421875 13.375 4.4375 
Q 8.5 10.296875 8.5 21.578125 
z
M 31.109375 56 
z
" id="DejaVuSans-117"/>
      <path d="M 54.890625 33.015625 
L 54.890625 0 
L 45.90625 0 
L 45.90625 32.71875 
Q 45.90625 40.484375 42.875 44.328125 
Q 39.84375 48.1875 33.796875 48.1875 
Q 26.515625 48.1875 22.3125 43.546875 
Q 18.109375 38.921875 18.109375 30.90625 
L 18.109375 0 
L 9.078125 0 
L 9.078125 54.6875 
L 18.109375 54.6875 
L 18.109375 46.1875 
Q 21.34375 51.125 25.703125 53.5625 
Q 30.078125 56 35.796875 56 
Q 45.21875 56 50.046875 50.171875 
Q 54.890625 44.34375 54.890625 33.015625 
z
" id="DejaVuSans-110"/>
      <path d="M 48.78125 52.59375 
L 48.78125 44.1875 
Q 44.96875 46.296875 41.140625 47.34375 
Q 37.3125 48.390625 33.40625 48.390625 
Q 24.65625 48.390625 19.8125 42.84375 
Q 14.984375 37.3125 14.984375 27.296875 
Q 14.984375 17.28125 19.8125 11.734375 
Q 24.65625 6.203125 33.40625 6.203125 
Q 37.3125 6.203125 41.140625 7.25 
Q 44.96875 8.296875 48.78125 10.40625 
L 48.78125 2.09375 
Q 45.015625 0.34375 40.984375 -0.53125 
Q 36.96875 -1.421875 32.421875 -1.421875 
Q 20.0625 -1.421875 12.78125 6.34375 
Q 5.515625 14.109375 5.515625 27.296875 
Q 5.515625 40.671875 12.859375 48.328125 
Q 20.21875 56 33.015625 56 
Q 37.15625 56 41.109375 55.140625 
Q 45.0625 54.296875 48.78125 52.59375 
z
" id="DejaVuSans-99"/>
      <path d="M 32.171875 -5.078125 
Q 28.375 -14.84375 24.75 -17.8125 
Q 21.140625 -20.796875 15.09375 -20.796875 
L 7.90625 -20.796875 
L 7.90625 -13.28125 
L 13.1875 -13.28125 
Q 16.890625 -13.28125 18.9375 -11.515625 
Q 21 -9.765625 23.484375 -3.21875 
L 25.09375 0.875 
L 2.984375 54.6875 
L 12.5 54.6875 
L 29.59375 11.921875 
L 46.6875 54.6875 
L 56.203125 54.6875 
z
" id="DejaVuSans-121"/>
      <path id="DejaVuSans-32"/>
      <path d="M 8.59375 75.984375 
L 29.296875 75.984375 
L 29.296875 69 
L 17.578125 69 
L 17.578125 -6.203125 
L 29.296875 -6.203125 
L 29.296875 -13.1875 
L 8.59375 -13.1875 
z
" id="DejaVuSans-91"/>
      <path d="M 9.078125 75.984375 
L 18.109375 75.984375 
L 18.109375 31.109375 
L 44.921875 54.6875 
L 56.390625 54.6875 
L 27.390625 29.109375 
L 57.625 0 
L 45.90625 0 
L 18.109375 26.703125 
L 18.109375 0 
L 9.078125 0 
z
" id="DejaVuSans-107"/>
      <path d="M 9.8125 72.90625 
L 19.671875 72.90625 
L 19.671875 43.015625 
L 55.515625 43.015625 
L 55.515625 72.90625 
L 65.375 72.90625 
L 65.375 0 
L 55.515625 0 
L 55.515625 34.71875 
L 19.671875 34.71875 
L 19.671875 0 
L 9.8125 0 
z
" id="DejaVuSans-72"/>
      <path d="M 5.515625 54.6875 
L 48.1875 54.6875 
L 48.1875 46.484375 
L 14.40625 7.171875 
L 48.1875 7.171875 
L 48.1875 0 
L 4.296875 0 
L 4.296875 8.203125 
L 38.09375 47.515625 
L 5.515625 47.515625 
z
" id="DejaVuSans-122"/>
      <path d="M 30.421875 75.984375 
L 30.421875 -13.1875 
L 9.71875 -13.1875 
L 9.71875 -6.203125 
L 21.390625 -6.203125 
L 21.390625 69 
L 9.71875 69 
L 9.71875 75.984375 
z
" id="DejaVuSans-93"/>
     </defs>
     <g style="fill:#555555;" transform="translate(204.050625 346.125)scale(0.12 -0.12)">
      <use xlink:href="#DejaVuSans-102"/>
      <use x="35.205078" xlink:href="#DejaVuSans-114"/>
      <use x="76.287109" xlink:href="#DejaVuSans-101"/>
      <use x="137.810547" xlink:href="#DejaVuSans-113"/>
      <use x="201.287109" xlink:href="#DejaVuSans-117"/>
      <use x="264.666016" xlink:href="#DejaVuSans-101"/>
      <use x="326.189453" xlink:href="#DejaVuSans-110"/>
      <use x="389.568359" xlink:href="#DejaVuSans-99"/>
      <use x="444.548828" xlink:href="#DejaVuSans-121"/>
      <use x="503.728516" xlink:href="#DejaVuSans-32"/>
      <use x="535.515625" xlink:href="#DejaVuSans-91"/>
      <use x="574.529297" xlink:href="#DejaVuSans-107"/>
      <use x="632.439453" xlink:href="#DejaVuSans-72"/>
      <use x="707.634766" xlink:href="#DejaVuSans-122"/>
      <use x="760.125" xlink:href="#DejaVuSans-93"/>
     </g>
    </g>
   </g>
   <g id="matplotlib.axis_2">
    <g id="ytick_1">
     <g id="line2d_9">
      <path clip-path="url(#pa92bed31bb)" d="M 258.062868 177.295 
L 257.93038 176.034459 
L 257.538706 174.829009 
L 256.904964 173.731335 
L 256.056851 172.789411 
L 255.031434 172.044402 
L 253.873529 171.528869 
L 252.633742 171.265345 
L 251.366258 171.265345 
L 250.126471 171.528869 
L 248.968566 172.044402 
L 247.943149 172.789411 
L 247.095036 173.731335 
L 246.461294 174.829009 
L 246.06962 176.034459 
L 245.937132 177.295 
L 246.06962 178.555541 
L 246.461294 179.760991 
L 247.095036 180.858665 
L 247.943149 181.800589 
L 248.968566 182.545598 
L 250.126471 183.061131 
L 251.366258 183.324655 
L 252.633742 183.324655 
L 253.873529 183.061131 
L 255.031434 182.545598 
L 256.056851 181.800589 
L 256.904964 180.858665 
L 257.538706 179.760991 
L 257.93038 178.555541 
L 258.062868 177.295 
L 258.062868 177.295 
" style="fill:none;stroke:#808080;stroke-linecap:square;stroke-width:0.8;"/>
     </g>
     <g id="text_10">
      <!-- 0 -->
      <g style="fill:#555555;" transform="translate(257.60136 172.479216)scale(0.12 -0.12)">
       <use xlink:href="#DejaVuSans-48"/>
      </g>
     </g>
    </g>
    <g id="ytick_2">
     <g id="line2d_10">
      <path clip-path="url(#pa92bed31bb)" d="M 282.986086 177.295 
L 282.910606 175.13352 
L 282.684532 172.98257 
L 282.308966 170.85263 
L 281.785738 168.754077 
L 281.117397 166.697134 
L 280.307199 164.691823 
L 279.35909 162.747914 
L 278.277692 160.874876 
L 277.068271 159.081835 
L 275.736719 157.377528 
L 274.289525 155.770256 
L 272.733739 154.26785 
L 271.07694 152.877631 
L 269.3272 151.60637 
L 267.493043 150.460262 
L 265.583406 149.44489 
L 263.607592 148.565201 
L 261.575227 147.825481 
L 259.496213 147.229333 
L 257.380677 146.779662 
L 255.238928 146.478659 
L 253.081399 146.327789 
L 250.918601 146.327789 
L 248.761072 146.478659 
L 246.619323 146.779662 
L 244.503787 147.229333 
L 242.424773 147.825481 
L 240.392408 148.565201 
L 238.416594 149.44489 
L 236.506957 150.460262 
L 234.6728 151.60637 
L 232.92306 152.877631 
L 231.266261 154.26785 
L 229.710475 155.770256 
L 228.263281 157.377528 
L 226.931729 159.081835 
L 225.722308 160.874876 
L 224.64091 162.747914 
L 223.692801 164.691823 
L 222.882603 166.697134 
L 222.214262 168.754077 
L 221.691034 170.85263 
L 221.315468 172.98257 
L 221.089394 175.13352 
L 221.013914 177.295 
L 221.089394 179.45648 
L 221.315468 181.60743 
L 221.691034 183.73737 
L 222.214262 185.835923 
L 222.882603 187.892866 
L 223.692801 189.898177 
L 224.64091 191.842086 
L 225.722308 193.715124 
L 226.931729 195.508165 
L 228.263281 197.212472 
L 229.710475 198.819744 
L 231.266261 200.32215 
L 232.92306 201.712369 
L 234.6728 202.98363 
L 236.506957 204.129738 
L 238.416594 205.14511 
L 240.392408 206.024799 
L 242.424773 206.764519 
L 244.503787 207.360667 
L 246.619323 207.810338 
L 248.761072 208.111341 
L 250.918601 208.262211 
L 253.081399 208.262211 
L 255.238928 208.111341 
L 257.380677 207.810338 
L 259.496213 207.360667 
L 261.575227 206.764519 
L 263.607592 206.024799 
L 265.583406 205.14511 
L 267.493043 204.129738 
L 269.3272 202.98363 
L 271.07694 201.712369 
L 272.733739 200.32215 
L 274.289525 198.819744 
L 275.736719 197.212472 
L 277.068271 195.508165 
L 278.277692 193.715124 
L 279.35909 191.842086 
L 280.307199 189.898177 
L 281.117397 187.892866 
L 281.785738 185.835923 
L 282.308966 183.73737 
L 282.684532 181.60743 
L 282.910606 179.45648 
L 282.986086 177.295 
L 282.986086 177.295 
" style="fill:none;stroke:#808080;stroke-linecap:square;stroke-width:0.8;"/>
     </g>
     <g id="text_11">
      <!-- 5 -->
      <g style="fill:#555555;" transform="translate(280.627411 162.941513)scale(0.12 -0.12)">
       <use xlink:href="#DejaVuSans-53"/>
      </g>
     </g>
    </g>
    <g id="ytick_3">
     <g id="line2d_11">
      <path clip-path="url(#pa92bed31bb)" d="M 307.909304 177.295 
L 307.773112 173.394964 
L 307.365199 169.513929 
L 306.687552 165.670802 
L 305.743473 161.884307 
L 304.537561 158.172892 
L 303.075691 154.554637 
L 301.364986 151.047172 
L 299.413779 147.667583 
L 297.231577 144.432335 
L 294.829012 141.357192 
L 292.217788 138.457134 
L 289.410627 135.74629 
L 286.421205 133.237867 
L 283.264086 130.944086 
L 279.954652 128.876122 
L 276.509026 127.04405 
L 272.943994 125.456796 
L 269.276925 124.122092 
L 265.525685 123.046441 
L 261.708549 122.235084 
L 257.844114 121.691973 
L 253.951207 121.419754 
L 250.048793 121.419754 
L 246.155886 121.691973 
L 242.291451 122.235084 
L 238.474315 123.046441 
L 234.723075 124.122092 
L 231.056006 125.456796 
L 227.490974 127.04405 
L 224.045348 128.876122 
L 220.735914 130.944086 
L 217.578795 133.237867 
L 214.589373 135.74629 
L 211.782212 138.457134 
L 209.170988 141.357192 
L 206.768423 144.432335 
L 204.586221 147.667583 
L 202.635014 151.047172 
L 200.924309 154.554637 
L 199.462439 158.172892 
L 198.256527 161.884307 
L 197.312448 165.670802 
L 196.634801 169.513929 
L 196.226888 173.394964 
L 196.090696 177.295 
L 196.226888 181.195036 
L 196.634801 185.076071 
L 197.312448 188.919198 
L 198.256527 192.705693 
L 199.462439 196.417108 
L 200.924309 200.035363 
L 202.635014 203.542828 
L 204.586221 206.922417 
L 206.768423 210.157665 
L 209.170988 213.232808 
L 211.782212 216.132866 
L 214.589373 218.84371 
L 217.578795 221.352133 
L 220.735914 223.645914 
L 224.045348 225.713878 
L 227.490974 227.54595 
L 231.056006 229.133204 
L 234.723075 230.467908 
L 238.474315 231.543559 
L 242.291451 232.354916 
L 246.155886 232.898027 
L 250.048793 233.170246 
L 253.951207 233.170246 
L 257.844114 232.898027 
L 261.708549 232.354916 
L 265.525685 231.543559 
L 269.276925 230.467908 
L 272.943994 229.133204 
L 276.509026 227.54595 
L 279.954652 225.713878 
L 283.264086 223.645914 
L 286.421205 221.352133 
L 289.410627 218.84371 
L 292.217788 216.132866 
L 294.829012 213.232808 
L 297.231577 210.157665 
L 299.413779 206.922417 
L 301.364986 203.542828 
L 303.075691 200.035363 
L 304.537561 196.417108 
L 305.743473 192.705693 
L 306.687552 188.919198 
L 307.365199 185.076071 
L 307.773112 181.195036 
L 307.909304 177.295 
L 307.909304 177.295 
" style="fill:none;stroke:#808080;stroke-linecap:square;stroke-width:0.8;"/>
     </g>
     <g id="text_12">
      <!-- 10 -->
      <g style="fill:#555555;" transform="translate(303.653462 153.403811)scale(0.12 -0.12)">
       <use xlink:href="#DejaVuSans-49"/>
       <use x="63.623047" xlink:href="#DejaVuSans-48"/>
      </g>
     </g>
    </g>
    <g id="ytick_4">
     <g id="line2d_12">
      <path clip-path="url(#pa92bed31bb)" d="M 332.832522 177.295 
L 332.635618 171.656408 
L 332.045866 166.045287 
L 331.066138 160.488974 
L 329.701207 155.014537 
L 327.957725 149.648649 
L 325.844184 144.417451 
L 323.370881 139.346429 
L 320.549867 134.460289 
L 317.394884 129.782835 
L 313.921305 125.336856 
L 310.14605 121.144012 
L 306.087515 117.224729 
L 301.76547 113.598103 
L 297.200973 110.281802 
L 292.416261 107.291982 
L 287.434645 104.64321 
L 282.280396 102.34839 
L 276.978623 100.418703 
L 271.555157 98.863549 
L 266.03642 97.690505 
L 260.449299 96.905287 
L 254.821014 96.511719 
L 249.178986 96.511719 
L 243.550701 96.905287 
L 237.96358 97.690505 
L 232.444843 98.863549 
L 227.021377 100.418703 
L 221.719604 102.34839 
L 216.565355 104.64321 
L 211.583739 107.291982 
L 206.799027 110.281802 
L 202.23453 113.598103 
L 197.912485 117.224729 
L 193.85395 121.144012 
L 190.078695 125.336856 
L 186.605116 129.782835 
L 183.450133 134.460289 
L 180.629119 139.346429 
L 178.155816 144.417451 
L 176.042275 149.648649 
L 174.298793 155.014537 
L 172.933862 160.488974 
L 171.954134 166.045287 
L 171.364382 171.656408 
L 171.167478 177.295 
L 171.364382 182.933592 
L 171.954134 188.544713 
L 172.933862 194.101026 
L 174.298793 199.575463 
L 176.042275 204.941351 
L 178.155816 210.172549 
L 180.629119 215.243571 
L 183.450133 220.129711 
L 186.605116 224.807165 
L 190.078695 229.253144 
L 193.85395 233.445988 
L 197.912485 237.365271 
L 202.23453 240.991897 
L 206.799027 244.308198 
L 211.583739 247.298018 
L 216.565355 249.94679 
L 221.719604 252.24161 
L 227.021377 254.171297 
L 232.444843 255.726451 
L 237.96358 256.899495 
L 243.550701 257.684713 
L 249.178986 258.078281 
L 254.821014 258.078281 
L 260.449299 257.684713 
L 266.03642 256.899495 
L 271.555157 255.726451 
L 276.978623 254.171297 
L 282.280396 252.24161 
L 287.434645 249.94679 
L 292.416261 247.298018 
L 297.200973 244.308198 
L 301.76547 240.991897 
L 306.087515 237.365271 
L 310.14605 233.445988 
L 313.921305 229.253144 
L 317.394884 224.807165 
L 320.549867 220.129711 
L 323.370881 215.243571 
L 325.844184 210.172549 
L 327.957725 204.941351 
L 329.701207 199.575463 
L 331.066138 194.101026 
L 332.045866 188.544713 
L 332.635618 182.933592 
L 332.832522 177.295 
L 332.832522 177.295 
" style="fill:none;stroke:#808080;stroke-linecap:square;stroke-width:0.8;"/>
     </g>
     <g id="text_13">
      <!-- 15 -->
      <g style="fill:#555555;" transform="translate(326.679513 143.866108)scale(0.12 -0.12)">
       <use xlink:href="#DejaVuSans-49"/>
       <use x="63.623047" xlink:href="#DejaVuSans-53"/>
      </g>
     </g>
    </g>
    <g id="ytick_5">
     <g id="line2d_13">
      <path clip-path="url(#pa92bed31bb)" d="M 357.75574 177.295 
L 357.691317 173.604178 
L 357.498125 169.917852 
L 357.176399 166.240515 
L 356.726533 162.576646 
L 356.149073 158.930708 
L 355.444724 155.307145 
L 354.614343 151.710371 
L 353.658942 148.144767 
L 352.579686 144.614679 
L 351.377889 141.124407 
L 350.055015 137.678202 
L 348.612676 134.280265 
L 347.05263 130.934735 
L 345.376776 127.645687 
L 343.587158 124.41713 
L 341.685954 121.252996 
L 339.675482 118.157141 
L 337.558191 115.133336 
L 335.336661 112.185265 
L 333.013597 109.316521 
L 330.591831 106.530597 
L 328.074313 103.83089 
L 325.46411 101.220687 
L 322.764403 98.703169 
L 319.978479 96.281403 
L 317.109735 93.958339 
L 314.161664 91.736809 
L 311.137859 89.619518 
L 308.042004 87.609046 
L 304.87787 85.707842 
L 301.649313 83.918224 
L 298.360265 82.24237 
L 295.014735 80.682324 
L 291.616798 79.239985 
L 288.170593 77.917111 
L 284.680321 76.715314 
L 281.150233 75.636058 
L 277.584629 74.680657 
L 273.987855 73.850276 
L 270.364292 73.145927 
L 266.718354 72.568467 
L 263.054485 72.118601 
L 259.377148 71.796875 
L 255.690822 71.603683 
L 252 71.53926 
L 248.309178 71.603683 
L 244.622852 71.796875 
L 240.945515 72.118601 
L 237.281646 72.568467 
L 233.635708 73.145927 
L 230.012145 73.850276 
L 226.415371 74.680657 
L 222.849767 75.636058 
L 219.319679 76.715314 
L 215.829407 77.917111 
L 212.383202 79.239985 
L 208.985265 80.682324 
L 205.639735 82.24237 
L 202.350687 83.918224 
L 199.12213 85.707842 
L 195.957996 87.609046 
L 192.862141 89.619518 
L 189.838336 91.736809 
L 186.890265 93.958339 
L 184.021521 96.281403 
L 181.235597 98.703169 
L 178.53589 101.220687 
L 175.925687 103.83089 
L 173.408169 106.530597 
L 170.986403 109.316521 
L 168.663339 112.185265 
L 166.441809 115.133336 
L 164.324518 118.157141 
L 162.314046 121.252996 
L 160.412842 124.41713 
L 158.623224 127.645687 
L 156.94737 130.934735 
L 155.387324 134.280265 
L 153.944985 137.678202 
L 152.622111 141.124407 
L 151.420314 144.614679 
L 150.341058 148.144767 
L 149.385657 151.710371 
L 148.555276 155.307145 
L 147.850927 158.930708 
L 147.273467 162.576646 
L 146.823601 166.240515 
L 146.501875 169.917852 
L 146.308683 173.604178 
L 146.24426 177.295 
L 146.308683 180.985822 
L 146.501875 184.672148 
L 146.823601 188.349485 
L 147.273467 192.013354 
L 147.850927 195.659292 
L 148.555276 199.282855 
L 149.385657 202.879629 
L 150.341058 206.445233 
L 151.420314 209.975321 
L 152.622111 213.465593 
L 153.944985 216.911798 
L 155.387324 220.309735 
L 156.94737 223.655265 
L 158.623224 226.944313 
L 160.412842 230.17287 
L 162.314046 233.337004 
L 164.324518 236.432859 
L 166.441809 239.456664 
L 168.663339 242.404735 
L 170.986403 245.273479 
L 173.408169 248.059403 
L 175.925687 250.75911 
L 178.53589 253.369313 
L 181.235597 255.886831 
L 184.021521 258.308597 
L 186.890265 260.631661 
L 189.838336 262.853191 
L 192.862141 264.970482 
L 195.957996 266.980954 
L 199.12213 268.882158 
L 202.350687 270.671776 
L 205.639735 272.34763 
L 208.985265 273.907676 
L 212.383202 275.350015 
L 215.829407 276.672889 
L 219.319679 277.874686 
L 222.849767 278.953942 
L 226.415371 279.909343 
L 230.012145 280.739724 
L 233.635708 281.444073 
L 237.281646 282.021533 
L 240.945515 282.471399 
L 244.622852 282.793125 
L 248.309178 282.986317 
L 252 283.05074 
L 255.690822 282.986317 
L 259.377148 282.793125 
L 263.054485 282.471399 
L 266.718354 282.021533 
L 270.364292 281.444073 
L 273.987855 280.739724 
L 277.584629 279.909343 
L 281.150233 278.953942 
L 284.680321 277.874686 
L 288.170593 276.672889 
L 291.616798 275.350015 
L 295.014735 273.907676 
L 298.360265 272.34763 
L 301.649313 270.671776 
L 304.87787 268.882158 
L 308.042004 266.980954 
L 311.137859 264.970482 
L 314.161664 262.853191 
L 317.109735 260.631661 
L 319.978479 258.308597 
L 322.764403 255.886831 
L 325.46411 253.369313 
L 328.074313 250.75911 
L 330.591831 248.059403 
L 333.013597 245.273479 
L 335.336661 242.404735 
L 337.558191 239.456664 
L 339.675482 236.432859 
L 341.685954 233.337004 
L 343.587158 230.17287 
L 345.376776 226.944313 
L 347.05263 223.655265 
L 348.612676 220.309735 
L 350.055015 216.911798 
L 351.377889 213.465593 
L 352.579686 209.975321 
L 353.658942 206.445233 
L 354.614343 202.879629 
L 355.444724 199.282855 
L 356.149073 195.659292 
L 356.726533 192.013354 
L 357.176399 188.349485 
L 357.498125 184.672148 
L 357.691317 180.985822 
L 357.75574 177.295 
L 357.75574 177.295 
" style="fill:none;stroke:#808080;stroke-linecap:square;stroke-width:0.8;"/>
     </g>
     <g id="text_14">
      <!-- 20 -->
      <g style="fill:#555555;" transform="translate(349.705564 134.328405)scale(0.12 -0.12)">
       <use xlink:href="#DejaVuSans-50"/>
       <use x="63.623047" xlink:href="#DejaVuSans-48"/>
      </g>
     </g>
    </g>
    <g id="ytick_6">
     <g id="line2d_14">
      <path clip-path="url(#pa92bed31bb)" d="M 382.678958 177.295 
L 382.599352 172.73437 
L 382.360631 168.179297 
L 381.963085 163.635329 
L 381.4072 159.108004 
L 380.693651 154.602837 
L 379.823309 150.125317 
L 378.797235 145.680899 
L 377.616677 141.274998 
L 376.283075 136.912981 
L 374.798053 132.600164 
L 373.16342 128.341801 
L 371.381169 124.143079 
L 369.45347 120.009115 
L 367.382672 115.944945 
L 365.171298 111.955521 
L 362.822042 108.045703 
L 360.337766 104.220254 
L 357.721498 100.483836 
L 354.976424 96.841 
L 352.10589 93.296185 
L 349.113392 89.853709 
L 346.002576 86.517768 
L 342.777232 83.292424 
L 339.441291 80.181608 
L 335.998815 77.18911 
L 332.454 74.318576 
L 328.811164 71.573502 
L 325.074746 68.957234 
L 321.249297 66.472958 
L 317.339479 64.123702 
L 313.350055 61.912328 
L 309.285885 59.84153 
L 305.151921 57.913831 
L 300.953199 56.13158 
L 296.694836 54.496947 
L 292.382019 53.011925 
L 288.020002 51.678323 
L 283.614101 50.497765 
L 279.169683 49.471691 
L 274.692163 48.601349 
L 270.186996 47.8878 
L 265.659671 47.331915 
L 261.115703 46.934369 
L 256.56063 46.695648 
L 252 46.616042 
L 247.43937 46.695648 
L 242.884297 46.934369 
L 238.340329 47.331915 
L 233.813004 47.8878 
L 229.307837 48.601349 
L 224.830317 49.471691 
L 220.385899 50.497765 
L 215.979998 51.678323 
L 211.617981 53.011925 
L 207.305164 54.496947 
L 203.046801 56.13158 
L 198.848079 57.913831 
L 194.714115 59.84153 
L 190.649945 61.912328 
L 186.660521 64.123702 
L 182.750703 66.472958 
L 178.925254 68.957234 
L 175.188836 71.573502 
L 171.546 74.318576 
L 168.001185 77.18911 
L 164.558709 80.181608 
L 161.222768 83.292424 
L 157.997424 86.517768 
L 154.886608 89.853709 
L 151.89411 93.296185 
L 149.023576 96.841 
L 146.278502 100.483836 
L 143.662234 104.220254 
L 141.177958 108.045703 
L 138.828702 111.955521 
L 136.617328 115.944945 
L 134.54653 120.009115 
L 132.618831 124.143079 
L 130.83658 128.341801 
L 129.201947 132.600164 
L 127.716925 136.912981 
L 126.383323 141.274998 
L 125.202765 145.680899 
L 124.176691 150.125317 
L 123.306349 154.602837 
L 122.5928 159.108004 
L 122.036915 163.635329 
L 121.639369 168.179297 
L 121.400648 172.73437 
L 121.321042 177.295 
L 121.400648 181.85563 
L 121.639369 186.410703 
L 122.036915 190.954671 
L 122.5928 195.481996 
L 123.306349 199.987163 
L 124.176691 204.464683 
L 125.202765 208.909101 
L 126.383323 213.315002 
L 127.716925 217.677019 
L 129.201947 221.989836 
L 130.83658 226.248199 
L 132.618831 230.446921 
L 134.54653 234.580885 
L 136.617328 238.645055 
L 138.828702 242.634479 
L 141.177958 246.544297 
L 143.662234 250.369746 
L 146.278502 254.106164 
L 149.023576 257.749 
L 151.89411 261.293815 
L 154.886608 264.736291 
L 157.997424 268.072232 
L 161.222768 271.297576 
L 164.558709 274.408392 
L 168.001185 277.40089 
L 171.546 280.271424 
L 175.188836 283.016498 
L 178.925254 285.632766 
L 182.750703 288.117042 
L 186.660521 290.466298 
L 190.649945 292.677672 
L 194.714115 294.74847 
L 198.848079 296.676169 
L 203.046801 298.45842 
L 207.305164 300.093053 
L 211.617981 301.578075 
L 215.979998 302.911677 
L 220.385899 304.092235 
L 224.830317 305.118309 
L 229.307837 305.988651 
L 233.813004 306.7022 
L 238.340329 307.258085 
L 242.884297 307.655631 
L 247.43937 307.894352 
L 252 307.973958 
L 256.56063 307.894352 
L 261.115703 307.655631 
L 265.659671 307.258085 
L 270.186996 306.7022 
L 274.692163 305.988651 
L 279.169683 305.118309 
L 283.614101 304.092235 
L 288.020002 302.911677 
L 292.382019 301.578075 
L 296.694836 300.093053 
L 300.953199 298.45842 
L 305.151921 296.676169 
L 309.285885 294.74847 
L 313.350055 292.677672 
L 317.339479 290.466298 
L 321.249297 288.117042 
L 325.074746 285.632766 
L 328.811164 283.016498 
L 332.454 280.271424 
L 335.998815 277.40089 
L 339.441291 274.408392 
L 342.777232 271.297576 
L 346.002576 268.072232 
L 349.113392 264.736291 
L 352.10589 261.293815 
L 354.976424 257.749 
L 357.721498 254.106164 
L 360.337766 250.369746 
L 362.822042 246.544297 
L 365.171298 242.634479 
L 367.382672 238.645055 
L 369.45347 234.580885 
L 371.381169 230.446921 
L 373.16342 226.248199 
L 374.798053 221.989836 
L 376.283075 217.677019 
L 377.616677 213.315002 
L 378.797235 208.909101 
L 379.823309 204.464683 
L 380.693651 199.987163 
L 381.4072 195.481996 
L 381.963085 190.954671 
L 382.360631 186.410703 
L 382.599352 181.85563 
L 382.678958 177.295 
L 382.678958 177.295 
" style="fill:none;stroke:#808080;stroke-linecap:square;stroke-width:0.8;"/>
     </g>
     <g id="text_15">
      <!-- 25 -->
      <g style="fill:#555555;" transform="translate(372.731615 124.790703)scale(0.12 -0.12)">
       <use xlink:href="#DejaVuSans-50"/>
       <use x="63.623047" xlink:href="#DejaVuSans-53"/>
      </g>
     </g>
    </g>
    <g id="text_16">
     <!-- magnitude [] -->
     <defs>
      <path d="M 52 44.1875 
Q 55.375 50.25 60.0625 53.125 
Q 64.75 56 71.09375 56 
Q 79.640625 56 84.28125 50.015625 
Q 88.921875 44.046875 88.921875 33.015625 
L 88.921875 0 
L 79.890625 0 
L 79.890625 32.71875 
Q 79.890625 40.578125 77.09375 44.375 
Q 74.3125 48.1875 68.609375 48.1875 
Q 61.625 48.1875 57.5625 43.546875 
Q 53.515625 38.921875 53.515625 30.90625 
L 53.515625 0 
L 44.484375 0 
L 44.484375 32.71875 
Q 44.484375 40.625 41.703125 44.40625 
Q 38.921875 48.1875 33.109375 48.1875 
Q 26.21875 48.1875 22.15625 43.53125 
Q 18.109375 38.875 18.109375 30.90625 
L 18.109375 0 
L 9.078125 0 
L 9.078125 54.6875 
L 18.109375 54.6875 
L 18.109375 46.1875 
Q 21.1875 51.21875 25.484375 53.609375 
Q 29.78125 56 35.6875 56 
Q 41.65625 56 45.828125 52.96875 
Q 50 49.953125 52 44.1875 
z
" id="DejaVuSans-109"/>
      <path d="M 34.28125 27.484375 
Q 23.390625 27.484375 19.1875 25 
Q 14.984375 22.515625 14.984375 16.5 
Q 14.984375 11.71875 18.140625 8.90625 
Q 21.296875 6.109375 26.703125 6.109375 
Q 34.1875 6.109375 38.703125 11.40625 
Q 43.21875 16.703125 43.21875 25.484375 
L 43.21875 27.484375 
z
M 52.203125 31.203125 
L 52.203125 0 
L 43.21875 0 
L 43.21875 8.296875 
Q 40.140625 3.328125 35.546875 0.953125 
Q 30.953125 -1.421875 24.3125 -1.421875 
Q 15.921875 -1.421875 10.953125 3.296875 
Q 6 8.015625 6 15.921875 
Q 6 25.140625 12.171875 29.828125 
Q 18.359375 34.515625 30.609375 34.515625 
L 43.21875 34.515625 
L 43.21875 35.40625 
Q 43.21875 41.609375 39.140625 45 
Q 35.0625 48.390625 27.6875 48.390625 
Q 23 48.390625 18.546875 47.265625 
Q 14.109375 46.140625 10.015625 43.890625 
L 10.015625 52.203125 
Q 14.9375 54.109375 19.578125 55.046875 
Q 24.21875 56 28.609375 56 
Q 40.484375 56 46.34375 49.84375 
Q 52.203125 43.703125 52.203125 31.203125 
z
" id="DejaVuSans-97"/>
      <path d="M 45.40625 27.984375 
Q 45.40625 37.75 41.375 43.109375 
Q 37.359375 48.484375 30.078125 48.484375 
Q 22.859375 48.484375 18.828125 43.109375 
Q 14.796875 37.75 14.796875 27.984375 
Q 14.796875 18.265625 18.828125 12.890625 
Q 22.859375 7.515625 30.078125 7.515625 
Q 37.359375 7.515625 41.375 12.890625 
Q 45.40625 18.265625 45.40625 27.984375 
z
M 54.390625 6.78125 
Q 54.390625 -7.171875 48.1875 -13.984375 
Q 42 -20.796875 29.203125 -20.796875 
Q 24.46875 -20.796875 20.265625 -20.09375 
Q 16.0625 -19.390625 12.109375 -17.921875 
L 12.109375 -9.1875 
Q 16.0625 -11.328125 19.921875 -12.34375 
Q 23.78125 -13.375 27.78125 -13.375 
Q 36.625 -13.375 41.015625 -8.765625 
Q 45.40625 -4.15625 45.40625 5.171875 
L 45.40625 9.625 
Q 42.625 4.78125 38.28125 2.390625 
Q 33.9375 0 27.875 0 
Q 17.828125 0 11.671875 7.65625 
Q 5.515625 15.328125 5.515625 27.984375 
Q 5.515625 40.671875 11.671875 48.328125 
Q 17.828125 56 27.875 56 
Q 33.9375 56 38.28125 53.609375 
Q 42.625 51.21875 45.40625 46.390625 
L 45.40625 54.6875 
L 54.390625 54.6875 
z
" id="DejaVuSans-103"/>
      <path d="M 9.421875 54.6875 
L 18.40625 54.6875 
L 18.40625 0 
L 9.421875 0 
z
M 9.421875 75.984375 
L 18.40625 75.984375 
L 18.40625 64.59375 
L 9.421875 64.59375 
z
" id="DejaVuSans-105"/>
      <path d="M 18.3125 70.21875 
L 18.3125 54.6875 
L 36.8125 54.6875 
L 36.8125 47.703125 
L 18.3125 47.703125 
L 18.3125 18.015625 
Q 18.3125 11.328125 20.140625 9.421875 
Q 21.96875 7.515625 27.59375 7.515625 
L 36.8125 7.515625 
L 36.8125 0 
L 27.59375 0 
Q 17.1875 0 13.234375 3.875 
Q 9.28125 7.765625 9.28125 18.015625 
L 9.28125 47.703125 
L 2.6875 47.703125 
L 2.6875 54.6875 
L 9.28125 54.6875 
L 9.28125 70.21875 
z
" id="DejaVuSans-116"/>
      <path d="M 45.40625 46.390625 
L 45.40625 75.984375 
L 54.390625 75.984375 
L 54.390625 0 
L 45.40625 0 
L 45.40625 8.203125 
Q 42.578125 3.328125 38.25 0.953125 
Q 33.9375 -1.421875 27.875 -1.421875 
Q 17.96875 -1.421875 11.734375 6.484375 
Q 5.515625 14.40625 5.515625 27.296875 
Q 5.515625 40.1875 11.734375 48.09375 
Q 17.96875 56 27.875 56 
Q 33.9375 56 38.25 53.625 
Q 42.578125 51.265625 45.40625 46.390625 
z
M 14.796875 27.296875 
Q 14.796875 17.390625 18.875 11.75 
Q 22.953125 6.109375 30.078125 6.109375 
Q 37.203125 6.109375 41.296875 11.75 
Q 45.40625 17.390625 45.40625 27.296875 
Q 45.40625 37.203125 41.296875 42.84375 
Q 37.203125 48.484375 30.078125 48.484375 
Q 22.953125 48.484375 18.875 42.84375 
Q 14.796875 37.203125 14.796875 27.296875 
z
" id="DejaVuSans-100"/>
     </defs>
     <g style="fill:#555555;" transform="translate(109.599375 216.339063)rotate(-90)scale(0.12 -0.12)">
      <use xlink:href="#DejaVuSans-109"/>
      <use x="97.412109" xlink:href="#DejaVuSans-97"/>
      <use x="158.691406" xlink:href="#DejaVuSans-103"/>
      <use x="222.167969" xlink:href="#DejaVuSans-110"/>
      <use x="285.546875" xlink:href="#DejaVuSans-105"/>
      <use x="313.330078" xlink:href="#DejaVuSans-116"/>
      <use x="352.539062" xlink:href="#DejaVuSans-117"/>
      <use x="415.917969" xlink:href="#DejaVuSans-100"/>
      <use x="479.394531" xlink:href="#DejaVuSans-101"/>
      <use x="540.917969" xlink:href="#DejaVuSans-32"/>
      <use x="572.705078" xlink:href="#DejaVuSans-91"/>
      <use x="611.71875" xlink:href="#DejaVuSans-93"/>
     </g>
    </g>
   </g>
   <g id="line2d_15">
    <path clip-path="url(#pa92bed31bb)" d="M 122.366379 172.360585 
L 122.383997 172.004319 
L 122.404252 171.622383 
L 122.427538 171.212941 
L 122.45431 170.774027 
L 122.485088 170.303538 
L 122.520471 169.799226 
L 122.561148 169.258688 
L 122.607909 168.679357 
L 122.661664 168.058493 
L 122.723457 167.393171 
L 122.794488 166.680274 
L 122.876134 165.916483 
L 122.969979 165.098265 
L 123.077841 164.221865 
L 123.201806 163.2833 
L 123.34427 162.27835 
L 123.507981 161.202554 
L 123.696094 160.051205 
L 123.912226 158.819355 
L 124.160522 157.501815 
L 124.445734 156.093168 
L 124.773303 154.587788 
L 125.149455 152.979862 
L 125.581313 151.263434 
L 126.077012 149.432453 
L 126.645841 147.48085 
L 127.298388 145.402627 
L 128.046703 143.191987 
L 128.904483 140.843486 
L 129.887257 138.352245 
L 131.012586 135.714198 
L 132.300274 132.926427 
L 133.772564 129.987557 
L 135.454325 126.898257 
L 137.373202 123.66186 
L 139.559705 120.285098 
L 142.047201 116.779006 
L 144.871759 113.159976 
L 148.071778 109.450994 
L 151.687321 105.683034 
L 155.759034 101.896595 
L 160.326541 98.143295 
L 165.426159 94.487406 
L 171.087812 91.007129 
L 177.33104 87.795296 
L 184.160089 84.95909 
L 191.558243 82.618275 
L 199.481784 80.90136 
L 207.854321 79.939186 
L 216.56259 79.855686 
L 225.45513 80.756043 
L 234.345311 82.713212 
L 243.019836 85.754662 
L 251.252932 89.851872 
L 258.825074 94.915348 
L 265.543607 100.797256 
L 271.261612 107.302292 
L 275.891306 114.205388 
L 279.409405 121.273129 
L 281.853831 128.284859 
L 283.313148 135.04988 
L 283.911566 141.418447 
L 283.792717 147.286018 
L 283.104912 152.591676 
L 281.989574 157.312477 
L 280.57346 161.455654 
L 278.964446 165.050332 
L 277.250196 168.139876 
L 275.498852 170.775497 
L 273.760952 173.011316 
L 272.071945 174.90083 
L 270.454843 176.494574 
L 268.922747 177.838722 
L 267.48107 178.974382 
L 266.129425 179.937363 
L 264.863153 180.758244 
L 263.674538 181.462613 
L 262.553748 182.071374 
L 261.489558 182.601067 
L 260.469912 183.06414 
L 259.482392 183.469163 
L 258.51463 183.820956 
L 257.554743 184.120642 
L 256.591841 184.365649 
L 255.616681 184.549694 
L 254.622498 184.66284 
L 253.606073 184.691736 
L 252.568983 184.620205 
L 251.518933 184.430362 
L 250.470925 184.104407 
L 249.447878 183.627132 
L 248.48026 182.988951 
L 247.604385 182.188959 
L 246.859301 181.237323 
L 246.282686 180.156301 
L 245.906506 178.979504 
L 245.753299 177.749521 
L 245.833698 176.514449 
L 246.145376 175.323988 
" style="fill:none;stroke:#0000ff;stroke-linecap:square;stroke-width:2;"/>
   </g>
   <g id="patch_3">
    <path d="M 387.905 177.295 
C 387.905 159.448119 384.389554 141.774776 377.559848 125.286408 
C 370.730142 108.79804 360.718998 93.815304 348.099347 81.195653 
C 335.479696 68.576002 320.49696 58.564858 304.008592 51.735152 
C 287.520224 44.905446 269.846881 41.39 252 41.39 
C 234.153119 41.39 216.479776 44.905446 199.991408 51.735152 
C 183.50304 58.564858 168.520304 68.576002 155.900653 81.195653 
C 143.281002 93.815304 133.269858 108.79804 126.440152 125.286408 
C 119.610446 141.774776 116.095 159.448119 116.095 177.295 
C 116.095 195.141881 119.610446 212.815224 126.440152 229.303592 
C 133.269858 245.79196 143.281002 260.774696 155.900653 273.394347 
C 168.520304 286.013998 183.50304 296.025142 199.991408 302.854848 
C 216.479776 309.684554 234.153119 313.2 252 313.2 
C 269.846881 313.2 287.520224 309.684554 304.008592 302.854848 
C 320.49696 296.025142 335.479696 286.013998 348.099347 273.394347 
C 360.718998 260.774696 370.730142 245.79196 377.559848 229.303592 
C 384.389554 212.815224 387.905 195.141881 387.905 177.295 
" style="fill:none;stroke:#ffffff;stroke-linecap:square;stroke-linejoin:miter;"/>
   </g>
   <g id="text_17">
    <!-- Polar -->
    <defs>
     <path d="M 19.671875 64.796875 
L 19.671875 37.40625 
L 32.078125 37.40625 
Q 38.96875 37.40625 42.71875 40.96875 
Q 46.484375 44.53125 46.484375 51.125 
Q 46.484375 57.671875 42.71875 61.234375 
Q 38.96875 64.796875 32.078125 64.796875 
z
M 9.8125 72.90625 
L 32.078125 72.90625 
Q 44.34375 72.90625 50.609375 67.359375 
Q 56.890625 61.8125 56.890625 51.125 
Q 56.890625 40.328125 50.609375 34.8125 
Q 44.34375 29.296875 32.078125 29.296875 
L 19.671875 29.296875 
L 19.671875 0 
L 9.8125 0 
z
" id="DejaVuSans-80"/>
     <path d="M 30.609375 48.390625 
Q 23.390625 48.390625 19.1875 42.75 
Q 14.984375 37.109375 14.984375 27.296875 
Q 14.984375 17.484375 19.15625 11.84375 
Q 23.34375 6.203125 30.609375 6.203125 
Q 37.796875 6.203125 41.984375 11.859375 
Q 46.1875 17.53125 46.1875 27.296875 
Q 46.1875 37.015625 41.984375 42.703125 
Q 37.796875 48.390625 30.609375 48.390625 
z
M 30.609375 56 
Q 42.328125 56 49.015625 48.375 
Q 55.71875 40.765625 55.71875 27.296875 
Q 55.71875 13.875 49.015625 6.21875 
Q 42.328125 -1.421875 30.609375 -1.421875 
Q 18.84375 -1.421875 12.171875 6.21875 
Q 5.515625 13.875 5.515625 27.296875 
Q 5.515625 40.765625 12.171875 48.375 
Q 18.84375 56 30.609375 56 
z
" id="DejaVuSans-111"/>
     <path d="M 9.421875 75.984375 
L 18.40625 75.984375 
L 18.40625 0 
L 9.421875 0 
z
" id="DejaVuSans-108"/>
    </defs>
    <g transform="translate(236.903437 21.7995)scale(0.12 -0.12)">
     <use xlink:href="#DejaVuSans-80"/>
     <use x="60.255859" xlink:href="#DejaVuSans-111"/>
     <use x="121.4375" xlink:href="#DejaVuSans-108"/>
     <use x="149.220703" xlink:href="#DejaVuSans-97"/>
     <use x="210.5" xlink:href="#DejaVuSans-114"/>
    </g>
   </g>
   <g id="legend_1">
    <g id="patch_4">
     <path d="M 380.905 50.39 
L 380.905 50.39 
Q 382.905 50.39 382.905 48.39 
L 382.905 48.39 
Q 382.905 46.39 380.905 46.39 
L 380.905 46.39 
Q 378.905 46.39 378.905 48.39 
L 378.905 48.39 
Q 378.905 50.39 380.905 50.39 
z
" style="fill:#e5e5e5;opacity:0.8;stroke:#cccccc;stroke-linejoin:miter;stroke-width:0.5;"/>
    </g>
   </g>
  </g>
 </g>
 <defs>
  <clipPath id="pa92bed31bb">
   <path d="M 387.905 177.295 
C 387.905 159.448119 384.389554 141.774776 377.559848 125.286408 
C 370.730142 108.79804 360.718998 93.815304 348.099347 81.195653 
C 335.479696 68.576002 320.49696 58.564858 304.008592 51.735152 
C 287.520224 44.905446 269.846881 41.39 252 41.39 
C 234.153119 41.39 216.479776 44.905446 199.991408 51.735152 
C 183.50304 58.564858 168.520304 68.576002 155.900653 81.195653 
C 143.281002 93.815304 133.269858 108.79804 126.440152 125.286408 
C 119.610446 141.774776 116.095 159.448119 116.095 177.295 
C 116.095 195.141881 119.610446 212.815224 126.440152 229.303592 
C 133.269858 245.79196 143.281002 260.774696 155.900653 273.394347 
C 168.520304 286.013998 183.50304 296.025142 199.991408 302.854848 
C 216.479776 309.684554 234.153119 313.2 252 313.2 
C 269.846881 313.2 287.520224 309.684554 304.008592 302.854848 
C 320.49696 296.025142 335.479696 286.013998 348.099347 273.394347 
C 360.718998 260.774696 370.730142 245.79196 377.559848 229.303592 
C 384.389554 212.815224 387.905 195.141881 387.905 177.295 
M 252 177.295 
C 252 177.295 252 177.295 252 177.295 
C 252 177.295 252 177.295 252 177.295 
C 252 177.295 252 177.295 252 177.295 
C 252 177.295 252 177.295 252 177.295 
C 252 177.295 252 177.295 252 177.295 
C 252 177.295 252 177.295 252 177.295 
C 252 177.295 252 177.295 252 177.295 
C 252 177.295 252 177.295 252 177.295 
C 252 177.295 252 177.295 252 177.295 
C 252 177.295 252 177.295 252 177.295 
C 252 177.295 252 177.295 252 177.295 
C 252 177.295 252 177.295 252 177.295 
C 252 177.295 252 177.295 252 177.295 
C 252 177.295 252 177.295 252 177.295 
C 252 177.295 252 177.295 252 177.295 
C 252 177.295 252 177.295 252 177.295 
M 387.905 177.295 
z
"/>
  </clipPath>
 </defs>
</svg>
