<?xml version="1.0" encoding="utf-8" standalone="no"?>
<!DOCTYPE svg PUBLIC "-//W3C//DTD SVG 1.1//EN"
  "http://www.w3.org/Graphics/SVG/1.1/DTD/svg11.dtd">
<!-- Created with matplotlib (http://matplotlib.org/) -->
<svg height="360pt" version="1.1" viewBox="0 0 504 360" width="504pt" xmlns="http://www.w3.org/2000/svg" xmlns:xlink="http://www.w3.org/1999/xlink">
 <defs>
  <style type="text/css">
*{stroke-linecap:butt;stroke-linejoin:round;}
  </style>
 </defs>
 <g id="figure_1">
  <g id="patch_1">
   <path d="M 0 360 
L 504 360 
L 504 0 
L 0 0 
z
" style="fill:#ffffff;"/>
  </g>
  <g id="axes_1">
   <g id="patch_2">
    <path d="M 389.905 178.295 
C 389.905 160.185481 386.33782 142.252055 379.407607 125.521041 
C 372.477394 108.790028 362.318924 93.586803 349.513561 80.781439 
C 336.708197 67.976076 321.504972 57.817606 304.773959 50.887393 
C 288.042945 43.95718 270.109519 40.39 252 40.39 
C 233.890481 40.39 215.957055 43.95718 199.226041 50.887393 
C 182.495028 57.817606 167.291803 67.976076 154.486439 80.781439 
C 141.681076 93.586803 131.522606 108.790028 124.592393 125.521041 
C 117.66218 142.252055 114.095 160.185481 114.095 178.295 
C 114.095 196.404519 117.66218 214.337945 124.592393 231.068959 
C 131.522606 247.799972 141.681076 263.003197 154.486439 275.808561 
C 167.291803 288.613924 182.495028 298.772394 199.226041 305.702607 
C 215.957055 312.63282 233.890481 316.2 252 316.2 
C 270.109519 316.2 288.042945 312.63282 304.773959 305.702607 
C 321.504972 298.772394 336.708197 288.613924 349.513561 275.808561 
C 362.318924 263.003197 372.477394 247.799972 379.407607 231.068959 
C 386.33782 214.337945 389.905 196.404519 389.905 178.295 
M 252 178.295 
C 252 178.295 252 178.295 252 178.295 
C 252 178.295 252 178.295 252 178.295 
C 252 178.295 252 178.295 252 178.295 
C 252 178.295 252 178.295 252 178.295 
C 252 178.295 252 178.295 252 178.295 
C 252 178.295 252 178.295 252 178.295 
C 252 178.295 252 178.295 252 178.295 
C 252 178.295 252 178.295 252 178.295 
C 252 178.295 252 178.295 252 178.295 
C 252 178.295 252 178.295 252 178.295 
C 252 178.295 252 178.295 252 178.295 
C 252 178.295 252 178.295 252 178.295 
C 252 178.295 252 178.295 252 178.295 
C 252 178.295 252 178.295 252 178.295 
C 252 178.295 252 178.295 252 178.295 
C 252 178.295 252 178.295 252 178.295 
M 389.905 178.295 
z
" style="fill:#ffffff;"/>
   </g>
   <g id="matplotlib.axis_1">
    <g id="xtick_1">
     <g id="line2d_1">
      <path clip-path="url(#p488851cd33)" d="M 252 178.295 
L 389.905 178.295 
" style="fill:none;stroke:#808080;stroke-linecap:square;stroke-width:0.8;"/>
     </g>
     <g id="text_1">
      <!-- 0° -->
      <defs>
       <path d="M 31.78125 66.40625 
Q 24.171875 66.40625 20.328125 58.90625 
Q 16.5 51.421875 16.5 36.375 
Q 16.5 21.390625 20.328125 13.890625 
Q 24.171875 6.390625 31.78125 6.390625 
Q 39.453125 6.390625 43.28125 13.890625 
Q 47.125 21.390625 47.125 36.375 
Q 47.125 51.421875 43.28125 58.90625 
Q 39.453125 66.40625 31.78125 66.40625 
z
M 31.78125 74.21875 
Q 44.046875 74.21875 50.515625 64.515625 
Q 56.984375 54.828125 56.984375 36.375 
Q 56.984375 17.96875 50.515625 8.265625 
Q 44.046875 -1.421875 31.78125 -1.421875 
Q 19.53125 -1.421875 13.0625 8.265625 
Q 6.59375 17.96875 6.59375 36.375 
Q 6.59375 54.828125 13.0625 64.515625 
Q 19.53125 74.21875 31.78125 74.21875 
z
" id="DejaVuSans-30"/>
       <path d="M 25 67.921875 
Q 21.09375 67.921875 18.40625 65.203125 
Q 15.71875 62.5 15.71875 58.59375 
Q 15.71875 54.734375 18.40625 52.078125 
Q 21.09375 49.421875 25 49.421875 
Q 28.90625 49.421875 31.59375 52.078125 
Q 34.28125 54.734375 34.28125 58.59375 
Q 34.28125 62.453125 31.5625 65.1875 
Q 28.859375 67.921875 25 67.921875 
z
M 25 74.21875 
Q 28.125 74.21875 31 73.015625 
Q 33.890625 71.828125 35.984375 69.578125 
Q 38.234375 67.390625 39.359375 64.59375 
Q 40.484375 61.8125 40.484375 58.59375 
Q 40.484375 52.15625 35.96875 47.6875 
Q 31.453125 43.21875 24.90625 43.21875 
Q 18.3125 43.21875 13.90625 47.609375 
Q 9.515625 52 9.515625 58.59375 
Q 9.515625 65.140625 14 69.671875 
Q 18.5 74.21875 25 74.21875 
z
" id="DejaVuSans-b0"/>
      </defs>
      <g transform="translate(397.0875 181.60625)scale(0.12 -0.12)">
       <use xlink:href="#DejaVuSans-30"/>
       <use x="63.623047" xlink:href="#DejaVuSans-b0"/>
      </g>
     </g>
    </g>
    <g id="xtick_2">
     <g id="line2d_2">
      <path clip-path="url(#p488851cd33)" d="M 252 178.295 
L 349.513561 80.781439 
" style="fill:none;stroke:#808080;stroke-linecap:square;stroke-width:0.8;"/>
     </g>
     <g id="text_2">
      <!-- 45° -->
      <defs>
       <path d="M 37.796875 64.3125 
L 12.890625 25.390625 
L 37.796875 25.390625 
z
M 35.203125 72.90625 
L 47.609375 72.90625 
L 47.609375 25.390625 
L 58.015625 25.390625 
L 58.015625 17.1875 
L 47.609375 17.1875 
L 47.609375 0 
L 37.796875 0 
L 37.796875 17.1875 
L 4.890625 17.1875 
L 4.890625 26.703125 
z
" id="DejaVuSans-34"/>
       <path d="M 10.796875 72.90625 
L 49.515625 72.90625 
L 49.515625 64.59375 
L 19.828125 64.59375 
L 19.828125 46.734375 
Q 21.96875 47.46875 24.109375 47.828125 
Q 26.265625 48.1875 28.421875 48.1875 
Q 40.625 48.1875 47.75 41.5 
Q 54.890625 34.8125 54.890625 23.390625 
Q 54.890625 11.625 47.5625 5.09375 
Q 40.234375 -1.421875 26.90625 -1.421875 
Q 22.3125 -1.421875 17.546875 -0.640625 
Q 12.796875 0.140625 7.71875 1.703125 
L 7.71875 11.625 
Q 12.109375 9.234375 16.796875 8.0625 
Q 21.484375 6.890625 26.703125 6.890625 
Q 35.15625 6.890625 40.078125 11.328125 
Q 45.015625 15.765625 45.015625 23.390625 
Q 45.015625 31 40.078125 35.4375 
Q 35.15625 39.890625 26.703125 39.890625 
Q 22.75 39.890625 18.8125 39.015625 
Q 14.890625 38.140625 10.796875 36.28125 
z
" id="DejaVuSans-35"/>
      </defs>
      <g transform="translate(348.778056 74.193194)scale(0.12 -0.12)">
       <use xlink:href="#DejaVuSans-34"/>
       <use x="63.623047" xlink:href="#DejaVuSans-35"/>
       <use x="127.246094" xlink:href="#DejaVuSans-b0"/>
      </g>
     </g>
    </g>
    <g id="xtick_3">
     <g id="line2d_3">
      <path clip-path="url(#p488851cd33)" d="M 252 178.295 
L 252 40.39 
" style="fill:none;stroke:#808080;stroke-linecap:square;stroke-width:0.8;"/>
     </g>
     <g id="text_3">
      <!-- 90° -->
      <defs>
       <path d="M 10.984375 1.515625 
L 10.984375 10.5 
Q 14.703125 8.734375 18.5 7.8125 
Q 22.3125 6.890625 25.984375 6.890625 
Q 35.75 6.890625 40.890625 13.453125 
Q 46.046875 20.015625 46.78125 33.40625 
Q 43.953125 29.203125 39.59375 26.953125 
Q 35.25 24.703125 29.984375 24.703125 
Q 19.046875 24.703125 12.671875 31.3125 
Q 6.296875 37.9375 6.296875 49.421875 
Q 6.296875 60.640625 12.9375 67.421875 
Q 19.578125 74.21875 30.609375 74.21875 
Q 43.265625 74.21875 49.921875 64.515625 
Q 56.59375 54.828125 56.59375 36.375 
Q 56.59375 19.140625 48.40625 8.859375 
Q 40.234375 -1.421875 26.421875 -1.421875 
Q 22.703125 -1.421875 18.890625 -0.6875 
Q 15.09375 0.046875 10.984375 1.515625 
z
M 30.609375 32.421875 
Q 37.25 32.421875 41.125 36.953125 
Q 45.015625 41.5 45.015625 49.421875 
Q 45.015625 57.28125 41.125 61.84375 
Q 37.25 66.40625 30.609375 66.40625 
Q 23.96875 66.40625 20.09375 61.84375 
Q 16.21875 57.28125 16.21875 49.421875 
Q 16.21875 41.5 20.09375 36.953125 
Q 23.96875 32.421875 30.609375 32.421875 
z
" id="DejaVuSans-39"/>
      </defs>
      <g transform="translate(241.365 29.70125)scale(0.12 -0.12)">
       <use xlink:href="#DejaVuSans-39"/>
       <use x="63.623047" xlink:href="#DejaVuSans-30"/>
       <use x="127.246094" xlink:href="#DejaVuSans-b0"/>
      </g>
     </g>
    </g>
    <g id="xtick_4">
     <g id="line2d_4">
      <path clip-path="url(#p488851cd33)" d="M 252 178.295 
L 154.486439 80.781439 
" style="fill:none;stroke:#808080;stroke-linecap:square;stroke-width:0.8;"/>
     </g>
     <g id="text_4">
      <!-- 135° -->
      <defs>
       <path d="M 12.40625 8.296875 
L 28.515625 8.296875 
L 28.515625 63.921875 
L 10.984375 60.40625 
L 10.984375 69.390625 
L 28.421875 72.90625 
L 38.28125 72.90625 
L 38.28125 8.296875 
L 54.390625 8.296875 
L 54.390625 0 
L 12.40625 0 
z
" id="DejaVuSans-31"/>
       <path d="M 40.578125 39.3125 
Q 47.65625 37.796875 51.625 33 
Q 55.609375 28.21875 55.609375 21.1875 
Q 55.609375 10.40625 48.1875 4.484375 
Q 40.765625 -1.421875 27.09375 -1.421875 
Q 22.515625 -1.421875 17.65625 -0.515625 
Q 12.796875 0.390625 7.625 2.203125 
L 7.625 11.71875 
Q 11.71875 9.328125 16.59375 8.109375 
Q 21.484375 6.890625 26.8125 6.890625 
Q 36.078125 6.890625 40.9375 10.546875 
Q 45.796875 14.203125 45.796875 21.1875 
Q 45.796875 27.640625 41.28125 31.265625 
Q 36.765625 34.90625 28.71875 34.90625 
L 20.21875 34.90625 
L 20.21875 43.015625 
L 29.109375 43.015625 
Q 36.375 43.015625 40.234375 45.921875 
Q 44.09375 48.828125 44.09375 54.296875 
Q 44.09375 59.90625 40.109375 62.90625 
Q 36.140625 65.921875 28.71875 65.921875 
Q 24.65625 65.921875 20.015625 65.03125 
Q 15.375 64.15625 9.8125 62.3125 
L 9.8125 71.09375 
Q 15.4375 72.65625 20.34375 73.4375 
Q 25.25 74.21875 29.59375 74.21875 
Q 40.828125 74.21875 47.359375 69.109375 
Q 53.90625 64.015625 53.90625 55.328125 
Q 53.90625 49.265625 50.4375 45.09375 
Q 46.96875 40.921875 40.578125 39.3125 
z
" id="DejaVuSans-33"/>
      </defs>
      <g transform="translate(130.134444 74.193194)scale(0.12 -0.12)">
       <use xlink:href="#DejaVuSans-31"/>
       <use x="63.623047" xlink:href="#DejaVuSans-33"/>
       <use x="127.246094" xlink:href="#DejaVuSans-35"/>
       <use x="190.869141" xlink:href="#DejaVuSans-b0"/>
      </g>
     </g>
    </g>
    <g id="xtick_5">
     <g id="line2d_5">
      <path clip-path="url(#p488851cd33)" d="M 252 178.295 
L 114.095 178.295 
" style="fill:none;stroke:#808080;stroke-linecap:square;stroke-width:0.8;"/>
     </g>
     <g id="text_5">
      <!-- 180° -->
      <defs>
       <path d="M 31.78125 34.625 
Q 24.75 34.625 20.71875 30.859375 
Q 16.703125 27.09375 16.703125 20.515625 
Q 16.703125 13.921875 20.71875 10.15625 
Q 24.75 6.390625 31.78125 6.390625 
Q 38.8125 6.390625 42.859375 10.171875 
Q 46.921875 13.96875 46.921875 20.515625 
Q 46.921875 27.09375 42.890625 30.859375 
Q 38.875 34.625 31.78125 34.625 
z
M 21.921875 38.8125 
Q 15.578125 40.375 12.03125 44.71875 
Q 8.5 49.078125 8.5 55.328125 
Q 8.5 64.0625 14.71875 69.140625 
Q 20.953125 74.21875 31.78125 74.21875 
Q 42.671875 74.21875 48.875 69.140625 
Q 55.078125 64.0625 55.078125 55.328125 
Q 55.078125 49.078125 51.53125 44.71875 
Q 48 40.375 41.703125 38.8125 
Q 48.828125 37.15625 52.796875 32.3125 
Q 56.78125 27.484375 56.78125 20.515625 
Q 56.78125 9.90625 50.3125 4.234375 
Q 43.84375 -1.421875 31.78125 -1.421875 
Q 19.734375 -1.421875 13.25 4.234375 
Q 6.78125 9.90625 6.78125 20.515625 
Q 6.78125 27.484375 10.78125 32.3125 
Q 14.796875 37.15625 21.921875 38.8125 
z
M 18.3125 54.390625 
Q 18.3125 48.734375 21.84375 45.5625 
Q 25.390625 42.390625 31.78125 42.390625 
Q 38.140625 42.390625 41.71875 45.5625 
Q 45.3125 48.734375 45.3125 54.390625 
Q 45.3125 60.0625 41.71875 63.234375 
Q 38.140625 66.40625 31.78125 66.40625 
Q 25.390625 66.40625 21.84375 63.234375 
Q 18.3125 60.0625 18.3125 54.390625 
z
" id="DejaVuSans-38"/>
      </defs>
      <g transform="translate(85.6425 181.60625)scale(0.12 -0.12)">
       <use xlink:href="#DejaVuSans-31"/>
       <use x="63.623047" xlink:href="#DejaVuSans-38"/>
       <use x="127.246094" xlink:href="#DejaVuSans-30"/>
       <use x="190.869141" xlink:href="#DejaVuSans-b0"/>
      </g>
     </g>
    </g>
    <g id="xtick_6">
     <g id="line2d_6">
      <path clip-path="url(#p488851cd33)" d="M 252 178.295 
L 154.486439 275.808561 
" style="fill:none;stroke:#808080;stroke-linecap:square;stroke-width:0.8;"/>
     </g>
     <g id="text_6">
      <!-- 225° -->
      <defs>
       <path d="M 19.1875 8.296875 
L 53.609375 8.296875 
L 53.609375 0 
L 7.328125 0 
L 7.328125 8.296875 
Q 12.9375 14.109375 22.625 23.890625 
Q 32.328125 33.6875 34.8125 36.53125 
Q 39.546875 41.84375 41.421875 45.53125 
Q 43.3125 49.21875 43.3125 52.78125 
Q 43.3125 58.59375 39.234375 62.25 
Q 35.15625 65.921875 28.609375 65.921875 
Q 23.96875 65.921875 18.8125 64.3125 
Q 13.671875 62.703125 7.8125 59.421875 
L 7.8125 69.390625 
Q 13.765625 71.78125 18.9375 73 
Q 24.125 74.21875 28.421875 74.21875 
Q 39.75 74.21875 46.484375 68.546875 
Q 53.21875 62.890625 53.21875 53.421875 
Q 53.21875 48.921875 51.53125 44.890625 
Q 49.859375 40.875 45.40625 35.40625 
Q 44.1875 33.984375 37.640625 27.21875 
Q 31.109375 20.453125 19.1875 8.296875 
z
" id="DejaVuSans-32"/>
      </defs>
      <g transform="translate(130.134444 289.019306)scale(0.12 -0.12)">
       <use xlink:href="#DejaVuSans-32"/>
       <use x="63.623047" xlink:href="#DejaVuSans-32"/>
       <use x="127.246094" xlink:href="#DejaVuSans-35"/>
       <use x="190.869141" xlink:href="#DejaVuSans-b0"/>
      </g>
     </g>
    </g>
    <g id="xtick_7">
     <g id="line2d_7">
      <path clip-path="url(#p488851cd33)" d="M 252 178.295 
L 252 316.2 
" style="fill:none;stroke:#808080;stroke-linecap:square;stroke-width:0.8;"/>
     </g>
     <g id="text_7">
      <!-- 270° -->
      <defs>
       <path d="M 8.203125 72.90625 
L 55.078125 72.90625 
L 55.078125 68.703125 
L 28.609375 0 
L 18.3125 0 
L 43.21875 64.59375 
L 8.203125 64.59375 
z
" id="DejaVuSans-37"/>
      </defs>
      <g transform="translate(237.5475 333.51125)scale(0.12 -0.12)">
       <use xlink:href="#DejaVuSans-32"/>
       <use x="63.623047" xlink:href="#DejaVuSans-37"/>
       <use x="127.246094" xlink:href="#DejaVuSans-30"/>
       <use x="190.869141" xlink:href="#DejaVuSans-b0"/>
      </g>
     </g>
    </g>
    <g id="xtick_8">
     <g id="line2d_8">
      <path clip-path="url(#p488851cd33)" d="M 252 178.295 
L 349.513561 275.808561 
" style="fill:none;stroke:#808080;stroke-linecap:square;stroke-width:0.8;"/>
     </g>
     <g id="text_8">
      <!-- 315° -->
      <g transform="translate(344.960556 289.019306)scale(0.12 -0.12)">
       <use xlink:href="#DejaVuSans-33"/>
       <use x="63.623047" xlink:href="#DejaVuSans-31"/>
       <use x="127.246094" xlink:href="#DejaVuSans-35"/>
       <use x="190.869141" xlink:href="#DejaVuSans-b0"/>
      </g>
     </g>
    </g>
    <g id="text_9">
     <!-- frequency [kHz] -->
     <defs>
      <path d="M 37.109375 75.984375 
L 37.109375 68.5 
L 28.515625 68.5 
Q 23.6875 68.5 21.796875 66.546875 
Q 19.921875 64.59375 19.921875 59.515625 
L 19.921875 54.6875 
L 34.71875 54.6875 
L 34.71875 47.703125 
L 19.921875 47.703125 
L 19.921875 0 
L 10.890625 0 
L 10.890625 47.703125 
L 2.296875 47.703125 
L 2.296875 54.6875 
L 10.890625 54.6875 
L 10.890625 58.5 
Q 10.890625 67.625 15.140625 71.796875 
Q 19.390625 75.984375 28.609375 75.984375 
z
" id="DejaVuSans-66"/>
      <path d="M 41.109375 46.296875 
Q 39.59375 47.171875 37.8125 47.578125 
Q 36.03125 48 33.890625 48 
Q 26.265625 48 22.1875 43.046875 
Q 18.109375 38.09375 18.109375 28.8125 
L 18.109375 0 
L 9.078125 0 
L 9.078125 54.6875 
L 18.109375 54.6875 
L 18.109375 46.1875 
Q 20.953125 51.171875 25.484375 53.578125 
Q 30.03125 56 36.53125 56 
Q 37.453125 56 38.578125 55.875 
Q 39.703125 55.765625 41.0625 55.515625 
z
" id="DejaVuSans-72"/>
      <path d="M 56.203125 29.59375 
L 56.203125 25.203125 
L 14.890625 25.203125 
Q 15.484375 15.921875 20.484375 11.0625 
Q 25.484375 6.203125 34.421875 6.203125 
Q 39.59375 6.203125 44.453125 7.46875 
Q 49.3125 8.734375 54.109375 11.28125 
L 54.109375 2.78125 
Q 49.265625 0.734375 44.1875 -0.34375 
Q 39.109375 -1.421875 33.890625 -1.421875 
Q 20.796875 -1.421875 13.15625 6.1875 
Q 5.515625 13.8125 5.515625 26.8125 
Q 5.515625 40.234375 12.765625 48.109375 
Q 20.015625 56 32.328125 56 
Q 43.359375 56 49.78125 48.890625 
Q 56.203125 41.796875 56.203125 29.59375 
z
M 47.21875 32.234375 
Q 47.125 39.59375 43.09375 43.984375 
Q 39.0625 48.390625 32.421875 48.390625 
Q 24.90625 48.390625 20.390625 44.140625 
Q 15.875 39.890625 15.1875 32.171875 
z
" id="DejaVuSans-65"/>
      <path d="M 14.796875 27.296875 
Q 14.796875 17.390625 18.875 11.75 
Q 22.953125 6.109375 30.078125 6.109375 
Q 37.203125 6.109375 41.296875 11.75 
Q 45.40625 17.390625 45.40625 27.296875 
Q 45.40625 37.203125 41.296875 42.84375 
Q 37.203125 48.484375 30.078125 48.484375 
Q 22.953125 48.484375 18.875 42.84375 
Q 14.796875 37.203125 14.796875 27.296875 
z
M 45.40625 8.203125 
Q 42.578125 3.328125 38.25 0.953125 
Q 33.9375 -1.421875 27.875 -1.421875 
Q 17.96875 -1.421875 11.734375 6.484375 
Q 5.515625 14.40625 5.515625 27.296875 
Q 5.515625 40.1875 11.734375 48.09375 
Q 17.96875 56 27.875 56 
Q 33.9375 56 38.25 53.625 
Q 42.578125 51.265625 45.40625 46.390625 
L 45.40625 54.6875 
L 54.390625 54.6875 
L 54.390625 -20.796875 
L 45.40625 -20.796875 
z
" id="DejaVuSans-71"/>
      <path d="M 8.5 21.578125 
L 8.5 54.6875 
L 17.484375 54.6875 
L 17.484375 21.921875 
Q 17.484375 14.15625 20.5 10.265625 
Q 23.53125 6.390625 29.59375 6.390625 
Q 36.859375 6.390625 41.078125 11.03125 
Q 45.3125 15.671875 45.3125 23.6875 
L 45.3125 54.6875 
L 54.296875 54.6875 
L 54.296875 0 
L 45.3125 0 
L 45.3125 8.40625 
Q 42.046875 3.421875 37.71875 1 
Q 33.40625 -1.421875 27.6875 -1.421875 
Q 18.265625 -1.421875 13.375 4.4375 
Q 8.5 10.296875 8.5 21.578125 
z
M 31.109375 56 
z
" id="DejaVuSans-75"/>
      <path d="M 54.890625 33.015625 
L 54.890625 0 
L 45.90625 0 
L 45.90625 32.71875 
Q 45.90625 40.484375 42.875 44.328125 
Q 39.84375 48.1875 33.796875 48.1875 
Q 26.515625 48.1875 22.3125 43.546875 
Q 18.109375 38.921875 18.109375 30.90625 
L 18.109375 0 
L 9.078125 0 
L 9.078125 54.6875 
L 18.109375 54.6875 
L 18.109375 46.1875 
Q 21.34375 51.125 25.703125 53.5625 
Q 30.078125 56 35.796875 56 
Q 45.21875 56 50.046875 50.171875 
Q 54.890625 44.34375 54.890625 33.015625 
z
" id="DejaVuSans-6e"/>
      <path d="M 48.78125 52.59375 
L 48.78125 44.1875 
Q 44.96875 46.296875 41.140625 47.34375 
Q 37.3125 48.390625 33.40625 48.390625 
Q 24.65625 48.390625 19.8125 42.84375 
Q 14.984375 37.3125 14.984375 27.296875 
Q 14.984375 17.28125 19.8125 11.734375 
Q 24.65625 6.203125 33.40625 6.203125 
Q 37.3125 6.203125 41.140625 7.25 
Q 44.96875 8.296875 48.78125 10.40625 
L 48.78125 2.09375 
Q 45.015625 0.34375 40.984375 -0.53125 
Q 36.96875 -1.421875 32.421875 -1.421875 
Q 20.0625 -1.421875 12.78125 6.34375 
Q 5.515625 14.109375 5.515625 27.296875 
Q 5.515625 40.671875 12.859375 48.328125 
Q 20.21875 56 33.015625 56 
Q 37.15625 56 41.109375 55.140625 
Q 45.0625 54.296875 48.78125 52.59375 
z
" id="DejaVuSans-63"/>
      <path d="M 32.171875 -5.078125 
Q 28.375 -14.84375 24.75 -17.8125 
Q 21.140625 -20.796875 15.09375 -20.796875 
L 7.90625 -20.796875 
L 7.90625 -13.28125 
L 13.1875 -13.28125 
Q 16.890625 -13.28125 18.9375 -11.515625 
Q 21 -9.765625 23.484375 -3.21875 
L 25.09375 0.875 
L 2.984375 54.6875 
L 12.5 54.6875 
L 29.59375 11.921875 
L 46.6875 54.6875 
L 56.203125 54.6875 
z
" id="DejaVuSans-79"/>
      <path id="DejaVuSans-20"/>
      <path d="M 8.59375 75.984375 
L 29.296875 75.984375 
L 29.296875 69 
L 17.578125 69 
L 17.578125 -6.203125 
L 29.296875 -6.203125 
L 29.296875 -13.1875 
L 8.59375 -13.1875 
z
" id="DejaVuSans-5b"/>
      <path d="M 9.078125 75.984375 
L 18.109375 75.984375 
L 18.109375 31.109375 
L 44.921875 54.6875 
L 56.390625 54.6875 
L 27.390625 29.109375 
L 57.625 0 
L 45.90625 0 
L 18.109375 26.703125 
L 18.109375 0 
L 9.078125 0 
z
" id="DejaVuSans-6b"/>
      <path d="M 9.8125 72.90625 
L 19.671875 72.90625 
L 19.671875 43.015625 
L 55.515625 43.015625 
L 55.515625 72.90625 
L 65.375 72.90625 
L 65.375 0 
L 55.515625 0 
L 55.515625 34.71875 
L 19.671875 34.71875 
L 19.671875 0 
L 9.8125 0 
z
" id="DejaVuSans-48"/>
      <path d="M 5.515625 54.6875 
L 48.1875 54.6875 
L 48.1875 46.484375 
L 14.40625 7.171875 
L 48.1875 7.171875 
L 48.1875 0 
L 4.296875 0 
L 4.296875 8.203125 
L 38.09375 47.515625 
L 5.515625 47.515625 
z
" id="DejaVuSans-7a"/>
      <path d="M 30.421875 75.984375 
L 30.421875 -13.1875 
L 9.71875 -13.1875 
L 9.71875 -6.203125 
L 21.390625 -6.203125 
L 21.390625 69 
L 9.71875 69 
L 9.71875 75.984375 
z
" id="DejaVuSans-5d"/>
     </defs>
     <g transform="translate(204.050625 349.125)scale(0.12 -0.12)">
      <use xlink:href="#DejaVuSans-66"/>
      <use x="35.205078" xlink:href="#DejaVuSans-72"/>
      <use x="76.287109" xlink:href="#DejaVuSans-65"/>
      <use x="137.810547" xlink:href="#DejaVuSans-71"/>
      <use x="201.287109" xlink:href="#DejaVuSans-75"/>
      <use x="264.666016" xlink:href="#DejaVuSans-65"/>
      <use x="326.189453" xlink:href="#DejaVuSans-6e"/>
      <use x="389.568359" xlink:href="#DejaVuSans-63"/>
      <use x="444.548828" xlink:href="#DejaVuSans-79"/>
      <use x="503.728516" xlink:href="#DejaVuSans-20"/>
      <use x="535.515625" xlink:href="#DejaVuSans-5b"/>
      <use x="574.529297" xlink:href="#DejaVuSans-6b"/>
      <use x="632.439453" xlink:href="#DejaVuSans-48"/>
      <use x="707.634766" xlink:href="#DejaVuSans-7a"/>
      <use x="760.125" xlink:href="#DejaVuSans-5d"/>
     </g>
    </g>
   </g>
   <g id="matplotlib.axis_2">
    <g id="ytick_1">
     <g id="line2d_9">
      <path clip-path="url(#p488851cd33)" d="M 258.152091 178.295 
L 258.058627 177.226701 
L 257.781074 176.190861 
L 257.327867 175.218955 
L 256.712775 174.340512 
L 255.954488 173.582225 
L 255.076045 172.967133 
L 254.104139 172.513926 
L 253.068299 172.236373 
L 252 172.142909 
L 250.931701 172.236373 
L 249.895861 172.513926 
L 248.923955 172.967133 
L 248.045512 173.582225 
L 247.287225 174.340512 
L 246.672133 175.218955 
L 246.218926 176.190861 
L 245.941373 177.226701 
L 245.847909 178.295 
L 245.941373 179.363299 
L 246.218926 180.399139 
L 246.672133 181.371045 
L 247.287225 182.249488 
L 248.045512 183.007775 
L 248.923955 183.622867 
L 249.895861 184.076074 
L 250.931701 184.353627 
L 252 184.447091 
L 253.068299 184.353627 
L 254.104139 184.076074 
L 255.076045 183.622867 
L 255.954488 183.007775 
L 256.712775 182.249488 
L 257.327867 181.371045 
L 257.781074 180.399139 
L 258.058627 179.363299 
L 258.152091 178.295 
L 258.152091 178.295 
" style="fill:none;stroke:#808080;stroke-linecap:square;stroke-width:0.8;"/>
     </g>
     <g id="text_10">
      <!-- 0 -->
      <g transform="translate(257.683791 173.445072)scale(0.12 -0.12)">
       <use xlink:href="#DejaVuSans-30"/>
      </g>
     </g>
    </g>
    <g id="ytick_2">
     <g id="line2d_10">
      <path clip-path="url(#p488851cd33)" d="M 283.442083 178.295 
L 283.365491 176.101711 
L 283.136091 173.919108 
L 282.754998 171.757823 
L 282.22407 169.628387 
L 281.545893 167.541174 
L 280.723772 165.506353 
L 279.761711 163.533836 
L 278.664398 161.633235 
L 277.437179 159.813807 
L 276.086033 158.084419 
L 274.617541 156.453494 
L 273.03886 154.928979 
L 271.357679 153.518301 
L 269.58219 152.228332 
L 267.721041 151.065358 
L 265.783302 150.035043 
L 263.778411 149.142409 
L 261.716138 148.391802 
L 259.606528 147.786882 
L 257.45986 147.330593 
L 255.286593 147.02516 
L 253.097313 146.872071 
L 250.902687 146.872071 
L 248.713407 147.02516 
L 246.54014 147.330593 
L 244.393472 147.786882 
L 242.283862 148.391802 
L 240.221589 149.142409 
L 238.216698 150.035043 
L 236.278959 151.065358 
L 234.41781 152.228332 
L 232.642321 153.518301 
L 230.96114 154.928979 
L 229.382459 156.453494 
L 227.913967 158.084419 
L 226.562821 159.813807 
L 225.335602 161.633235 
L 224.238289 163.533836 
L 223.276228 165.506353 
L 222.454107 167.541174 
L 221.77593 169.628387 
L 221.245002 171.757823 
L 220.863909 173.919108 
L 220.634509 176.101711 
L 220.557917 178.295 
L 220.634509 180.488289 
L 220.863909 182.670892 
L 221.245002 184.832177 
L 221.77593 186.961613 
L 222.454107 189.048826 
L 223.276228 191.083647 
L 224.238289 193.056164 
L 225.335602 194.956765 
L 226.562821 196.776193 
L 227.913967 198.505581 
L 229.382459 200.136506 
L 230.96114 201.661021 
L 232.642321 203.071699 
L 234.41781 204.361668 
L 236.278959 205.524642 
L 238.216698 206.554957 
L 240.221589 207.447591 
L 242.283862 208.198198 
L 244.393472 208.803118 
L 246.54014 209.259407 
L 248.713407 209.56484 
L 250.902687 209.717929 
L 253.097313 209.717929 
L 255.286593 209.56484 
L 257.45986 209.259407 
L 259.606528 208.803118 
L 261.716138 208.198198 
L 263.778411 207.447591 
L 265.783302 206.554957 
L 267.721041 205.524642 
L 269.58219 204.361668 
L 271.357679 203.071699 
L 273.03886 201.661021 
L 274.617541 200.136506 
L 276.086033 198.505581 
L 277.437179 196.776193 
L 278.664398 194.956765 
L 279.761711 193.056164 
L 280.723772 191.083647 
L 281.545893 189.048826 
L 282.22407 186.961613 
L 282.754998 184.832177 
L 283.136091 182.670892 
L 283.365491 180.488289 
L 283.442083 178.295 
L 283.442083 178.295 
" style="fill:none;stroke:#808080;stroke-linecap:square;stroke-width:0.8;"/>
     </g>
     <g id="text_11">
      <!-- 5 -->
      <g transform="translate(281.048697 163.767011)scale(0.12 -0.12)">
       <use xlink:href="#DejaVuSans-35"/>
      </g>
     </g>
    </g>
    <g id="ytick_3">
     <g id="line2d_11">
      <path clip-path="url(#p488851cd33)" d="M 308.732075 178.295 
L 308.593878 174.337571 
L 308.179962 170.399421 
L 307.492343 166.499738 
L 306.53437 162.657521 
L 305.310712 158.891488 
L 303.827329 155.219986 
L 302.091449 151.660904 
L 300.111528 148.231581 
L 297.897213 144.948723 
L 295.459291 141.828325 
L 292.809639 138.885589 
L 289.961168 136.134852 
L 286.927753 133.589515 
L 283.724174 131.261978 
L 280.366037 129.163582 
L 276.869705 127.304549 
L 273.252209 125.693936 
L 269.531175 124.339591 
L 265.724731 123.24811 
L 261.851421 122.424813 
L 257.930117 121.873709 
L 253.979921 121.597485 
L 250.020079 121.597485 
L 246.069883 121.873709 
L 242.148579 122.424813 
L 238.275269 123.24811 
L 234.468825 124.339591 
L 230.747791 125.693936 
L 227.130295 127.304549 
L 223.633963 129.163582 
L 220.275826 131.261978 
L 217.072247 133.589515 
L 214.038832 136.134852 
L 211.190361 138.885589 
L 208.540709 141.828325 
L 206.102787 144.948723 
L 203.888472 148.231581 
L 201.908551 151.660904 
L 200.172671 155.219986 
L 198.689288 158.891488 
L 197.46563 162.657521 
L 196.507657 166.499738 
L 195.820038 170.399421 
L 195.406122 174.337571 
L 195.267925 178.295 
L 195.406122 182.252429 
L 195.820038 186.190579 
L 196.507657 190.090262 
L 197.46563 193.932479 
L 198.689288 197.698512 
L 200.172671 201.370014 
L 201.908551 204.929096 
L 203.888472 208.358419 
L 206.102787 211.641277 
L 208.540709 214.761675 
L 211.190361 217.704411 
L 214.038832 220.455148 
L 217.072247 223.000485 
L 220.275826 225.328022 
L 223.633963 227.426418 
L 227.130295 229.285451 
L 230.747791 230.896064 
L 234.468825 232.250409 
L 238.275269 233.34189 
L 242.148579 234.165187 
L 246.069883 234.716291 
L 250.020079 234.992515 
L 253.979921 234.992515 
L 257.930117 234.716291 
L 261.851421 234.165187 
L 265.724731 233.34189 
L 269.531175 232.250409 
L 273.252209 230.896064 
L 276.869705 229.285451 
L 280.366037 227.426418 
L 283.724174 225.328022 
L 286.927753 223.000485 
L 289.961168 220.455148 
L 292.809639 217.704411 
L 295.459291 214.761675 
L 297.897213 211.641277 
L 300.111528 208.358419 
L 302.091449 204.929096 
L 303.827329 201.370014 
L 305.310712 197.698512 
L 306.53437 193.932479 
L 307.492343 190.090262 
L 308.179962 186.190579 
L 308.593878 182.252429 
L 308.732075 178.295 
L 308.732075 178.295 
" style="fill:none;stroke:#808080;stroke-linecap:square;stroke-width:0.8;"/>
     </g>
     <g id="text_12">
      <!-- 10 -->
      <g transform="translate(304.413603 154.08895)scale(0.12 -0.12)">
       <use xlink:href="#DejaVuSans-31"/>
       <use x="63.623047" xlink:href="#DejaVuSans-30"/>
      </g>
     </g>
    </g>
    <g id="ytick_4">
     <g id="line2d_12">
      <path clip-path="url(#p488851cd33)" d="M 334.022067 178.295 
L 333.822265 172.57343 
L 333.223834 166.879735 
L 332.229688 161.241653 
L 330.844671 155.686654 
L 329.075531 150.241801 
L 326.930887 144.93362 
L 324.421186 139.787972 
L 321.558658 134.829927 
L 318.357246 130.083639 
L 314.832548 125.572232 
L 311.001737 121.317685 
L 306.883475 117.340725 
L 302.497827 113.660729 
L 297.866158 110.295625 
L 293.011033 107.261806 
L 287.956107 104.574055 
L 282.726007 102.245464 
L 277.346213 100.287379 
L 271.842934 98.709339 
L 266.242982 97.519033 
L 260.573641 96.722259 
L 254.862529 96.322899 
L 249.137471 96.322899 
L 243.426359 96.722259 
L 237.757018 97.519033 
L 232.157066 98.709339 
L 226.653787 100.287379 
L 221.273993 102.245464 
L 216.043893 104.574055 
L 210.988967 107.261806 
L 206.133842 110.295625 
L 201.502173 113.660729 
L 197.116525 117.340725 
L 192.998263 121.317685 
L 189.167452 125.572232 
L 185.642754 130.083639 
L 182.441342 134.829927 
L 179.578814 139.787972 
L 177.069113 144.93362 
L 174.924469 150.241801 
L 173.155329 155.686654 
L 171.770312 161.241653 
L 170.776166 166.879735 
L 170.177735 172.57343 
L 169.977933 178.295 
L 170.177735 184.01657 
L 170.776166 189.710265 
L 171.770312 195.348347 
L 173.155329 200.903346 
L 174.924469 206.348199 
L 177.069113 211.65638 
L 179.578814 216.802028 
L 182.441342 221.760073 
L 185.642754 226.506361 
L 189.167452 231.017768 
L 192.998263 235.272315 
L 197.116525 239.249275 
L 201.502173 242.929271 
L 206.133842 246.294375 
L 210.988967 249.328194 
L 216.043893 252.015945 
L 221.273993 254.344536 
L 226.653787 256.302621 
L 232.157066 257.880661 
L 237.757018 259.070967 
L 243.426359 259.867741 
L 249.137471 260.267101 
L 254.862529 260.267101 
L 260.573641 259.867741 
L 266.242982 259.070967 
L 271.842934 257.880661 
L 277.346213 256.302621 
L 282.726007 254.344536 
L 287.956107 252.015945 
L 293.011033 249.328194 
L 297.866158 246.294375 
L 302.497827 242.929271 
L 306.883475 239.249275 
L 311.001737 235.272315 
L 314.832548 231.017768 
L 318.357246 226.506361 
L 321.558658 221.760073 
L 324.421186 216.802028 
L 326.930887 211.65638 
L 329.075531 206.348199 
L 330.844671 200.903346 
L 332.229688 195.348347 
L 333.223834 189.710265 
L 333.822265 184.01657 
L 334.022067 178.295 
L 334.022067 178.295 
" style="fill:none;stroke:#808080;stroke-linecap:square;stroke-width:0.8;"/>
     </g>
     <g id="text_13">
      <!-- 15 -->
      <g transform="translate(327.778509 144.410889)scale(0.12 -0.12)">
       <use xlink:href="#DejaVuSans-31"/>
       <use x="63.623047" xlink:href="#DejaVuSans-35"/>
      </g>
     </g>
    </g>
    <g id="ytick_5">
     <g id="line2d_13">
      <path clip-path="url(#p488851cd33)" d="M 359.312059 178.295 
L 359.246687 174.549863 
L 359.050652 170.809289 
L 358.724192 167.077835 
L 358.267705 163.360048 
L 357.681748 159.660457 
L 356.967033 155.983568 
L 356.124432 152.333863 
L 355.154972 148.715788 
L 354.059833 145.13375 
L 352.84035 141.592114 
L 351.498008 138.095195 
L 350.034444 134.647253 
L 348.45144 131.25249 
L 346.750924 127.91504 
L 344.934969 124.638971 
L 343.005787 121.428273 
L 340.965729 118.286858 
L 338.817279 115.218554 
L 336.563056 112.2271 
L 334.205806 109.316138 
L 331.748401 106.489217 
L 329.193835 103.74978 
L 326.54522 101.101165 
L 323.805783 98.546599 
L 320.978862 96.089194 
L 318.0679 93.731944 
L 315.076446 91.477721 
L 312.008142 89.329271 
L 308.866727 87.289213 
L 305.656029 85.360031 
L 302.37996 83.544076 
L 299.04251 81.84356 
L 295.647747 80.260556 
L 292.199805 78.796992 
L 288.702886 77.45465 
L 285.16125 76.235167 
L 281.579212 75.140028 
L 277.961137 74.170568 
L 274.311432 73.327967 
L 270.634543 72.613252 
L 266.934952 72.027295 
L 263.217165 71.570808 
L 259.485711 71.244348 
L 255.745137 71.048313 
L 252 70.982941 
L 248.254863 71.048313 
L 244.514289 71.244348 
L 240.782835 71.570808 
L 237.065048 72.027295 
L 233.365457 72.613252 
L 229.688568 73.327967 
L 226.038863 74.170568 
L 222.420788 75.140028 
L 218.83875 76.235167 
L 215.297114 77.45465 
L 211.800195 78.796992 
L 208.352253 80.260556 
L 204.95749 81.84356 
L 201.62004 83.544076 
L 198.343971 85.360031 
L 195.133273 87.289213 
L 191.991858 89.329271 
L 188.923554 91.477721 
L 185.9321 93.731944 
L 183.021138 96.089194 
L 180.194217 98.546599 
L 177.45478 101.101165 
L 174.806165 103.74978 
L 172.251599 106.489217 
L 169.794194 109.316138 
L 167.436944 112.2271 
L 165.182721 115.218554 
L 163.034271 118.286858 
L 160.994213 121.428273 
L 159.065031 124.638971 
L 157.249076 127.91504 
L 155.54856 131.25249 
L 153.965556 134.647253 
L 152.501992 138.095195 
L 151.15965 141.592114 
L 149.940167 145.13375 
L 148.845028 148.715788 
L 147.875568 152.333863 
L 147.032967 155.983568 
L 146.318252 159.660457 
L 145.732295 163.360048 
L 145.275808 167.077835 
L 144.949348 170.809289 
L 144.753313 174.549863 
L 144.687941 178.295 
L 144.753313 182.040137 
L 144.949348 185.780711 
L 145.275808 189.512165 
L 145.732295 193.229952 
L 146.318252 196.929543 
L 147.032967 200.606432 
L 147.875568 204.256137 
L 148.845028 207.874212 
L 149.940167 211.45625 
L 151.15965 214.997886 
L 152.501992 218.494805 
L 153.965556 221.942747 
L 155.54856 225.33751 
L 157.249076 228.67496 
L 159.065031 231.951029 
L 160.994213 235.161727 
L 163.034271 238.303142 
L 165.182721 241.371446 
L 167.436944 244.3629 
L 169.794194 247.273862 
L 172.251599 250.100783 
L 174.806165 252.84022 
L 177.45478 255.488835 
L 180.194217 258.043401 
L 183.021138 260.500806 
L 185.9321 262.858056 
L 188.923554 265.112279 
L 191.991858 267.260729 
L 195.133273 269.300787 
L 198.343971 271.229969 
L 201.62004 273.045924 
L 204.95749 274.74644 
L 208.352253 276.329444 
L 211.800195 277.793008 
L 215.297114 279.13535 
L 218.83875 280.354833 
L 222.420788 281.449972 
L 226.038863 282.419432 
L 229.688568 283.262033 
L 233.365457 283.976748 
L 237.065048 284.562705 
L 240.782835 285.019192 
L 244.514289 285.345652 
L 248.254863 285.541687 
L 252 285.607059 
L 255.745137 285.541687 
L 259.485711 285.345652 
L 263.217165 285.019192 
L 266.934952 284.562705 
L 270.634543 283.976748 
L 274.311432 283.262033 
L 277.961137 282.419432 
L 281.579212 281.449972 
L 285.16125 280.354833 
L 288.702886 279.13535 
L 292.199805 277.793008 
L 295.647747 276.329444 
L 299.04251 274.74644 
L 302.37996 273.045924 
L 305.656029 271.229969 
L 308.866727 269.300787 
L 312.008142 267.260729 
L 315.076446 265.112279 
L 318.0679 262.858056 
L 320.978862 260.500806 
L 323.805783 258.043401 
L 326.54522 255.488835 
L 329.193835 252.84022 
L 331.748401 250.100783 
L 334.205806 247.273862 
L 336.563056 244.3629 
L 338.817279 241.371446 
L 340.965729 238.303142 
L 343.005787 235.161727 
L 344.934969 231.951029 
L 346.750924 228.67496 
L 348.45144 225.33751 
L 350.034444 221.942747 
L 351.498008 218.494805 
L 352.84035 214.997886 
L 354.059833 211.45625 
L 355.154972 207.874212 
L 356.124432 204.256137 
L 356.967033 200.606432 
L 357.681748 196.929543 
L 358.267705 193.229952 
L 358.724192 189.512165 
L 359.050652 185.780711 
L 359.246687 182.040137 
L 359.312059 178.295 
L 359.312059 178.295 
" style="fill:none;stroke:#808080;stroke-linecap:square;stroke-width:0.8;"/>
     </g>
     <g id="text_14">
      <!-- 20 -->
      <g transform="translate(351.143415 134.732828)scale(0.12 -0.12)">
       <use xlink:href="#DejaVuSans-32"/>
       <use x="63.623047" xlink:href="#DejaVuSans-30"/>
      </g>
     </g>
    </g>
    <g id="ytick_6">
     <g id="line2d_14">
      <path clip-path="url(#p488851cd33)" d="M 384.602051 178.295 
L 384.521273 173.667255 
L 384.279039 169.045149 
L 383.875643 164.434311 
L 383.311577 159.840361 
L 382.587528 155.268896 
L 381.704378 150.725483 
L 380.663203 146.21566 
L 379.465272 141.744921 
L 378.112045 137.318713 
L 376.605169 132.942428 
L 374.946481 128.621397 
L 373.138001 124.360887 
L 371.181934 120.166087 
L 369.080662 116.042108 
L 366.836745 111.993975 
L 364.452917 108.026619 
L 361.932082 104.144874 
L 359.277313 100.35347 
L 356.491842 96.657026 
L 353.579064 93.060045 
L 350.542528 89.566909 
L 347.385933 86.181875 
L 344.113125 82.909067 
L 340.728091 79.752472 
L 337.234955 76.715936 
L 333.637974 73.803158 
L 329.94153 71.017687 
L 326.150126 68.362918 
L 322.268381 65.842083 
L 318.301025 63.458255 
L 314.252892 61.214338 
L 310.128913 59.113066 
L 305.934113 57.156999 
L 301.673603 55.348519 
L 297.352572 53.689831 
L 292.976287 52.182955 
L 288.550079 50.829728 
L 284.07934 49.631797 
L 279.569517 48.590622 
L 275.026104 47.707472 
L 270.454639 46.983423 
L 265.860689 46.419357 
L 261.249851 46.015961 
L 256.627745 45.773727 
L 252 45.692949 
L 247.372255 45.773727 
L 242.750149 46.015961 
L 238.139311 46.419357 
L 233.545361 46.983423 
L 228.973896 47.707472 
L 224.430483 48.590622 
L 219.92066 49.631797 
L 215.449921 50.829728 
L 211.023713 52.182955 
L 206.647428 53.689831 
L 202.326397 55.348519 
L 198.065887 57.156999 
L 193.871087 59.113066 
L 189.747108 61.214338 
L 185.698975 63.458255 
L 181.731619 65.842083 
L 177.849874 68.362918 
L 174.05847 71.017687 
L 170.362026 73.803158 
L 166.765045 76.715936 
L 163.271909 79.752472 
L 159.886875 82.909067 
L 156.614067 86.181875 
L 153.457472 89.566909 
L 150.420936 93.060045 
L 147.508158 96.657026 
L 144.722687 100.35347 
L 142.067918 104.144874 
L 139.547083 108.026619 
L 137.163255 111.993975 
L 134.919338 116.042108 
L 132.818066 120.166087 
L 130.861999 124.360887 
L 129.053519 128.621397 
L 127.394831 132.942428 
L 125.887955 137.318713 
L 124.534728 141.744921 
L 123.336797 146.21566 
L 122.295622 150.725483 
L 121.412472 155.268896 
L 120.688423 159.840361 
L 120.124357 164.434311 
L 119.720961 169.045149 
L 119.478727 173.667255 
L 119.397949 178.295 
L 119.478727 182.922745 
L 119.720961 187.544851 
L 120.124357 192.155689 
L 120.688423 196.749639 
L 121.412472 201.321104 
L 122.295622 205.864517 
L 123.336797 210.37434 
L 124.534728 214.845079 
L 125.887955 219.271287 
L 127.394831 223.647572 
L 129.053519 227.968603 
L 130.861999 232.229113 
L 132.818066 236.423913 
L 134.919338 240.547892 
L 137.163255 244.596025 
L 139.547083 248.563381 
L 142.067918 252.445126 
L 144.722687 256.23653 
L 147.508158 259.932974 
L 150.420936 263.529955 
L 153.457472 267.023091 
L 156.614067 270.408125 
L 159.886875 273.680933 
L 163.271909 276.837528 
L 166.765045 279.874064 
L 170.362026 282.786842 
L 174.05847 285.572313 
L 177.849874 288.227082 
L 181.731619 290.747917 
L 185.698975 293.131745 
L 189.747108 295.375662 
L 193.871087 297.476934 
L 198.065887 299.433001 
L 202.326397 301.241481 
L 206.647428 302.900169 
L 211.023713 304.407045 
L 215.449921 305.760272 
L 219.92066 306.958203 
L 224.430483 307.999378 
L 228.973896 308.882528 
L 233.545361 309.606577 
L 238.139311 310.170643 
L 242.750149 310.574039 
L 247.372255 310.816273 
L 252 310.897051 
L 256.627745 310.816273 
L 261.249851 310.574039 
L 265.860689 310.170643 
L 270.454639 309.606577 
L 275.026104 308.882528 
L 279.569517 307.999378 
L 284.07934 306.958203 
L 288.550079 305.760272 
L 292.976287 304.407045 
L 297.352572 302.900169 
L 301.673603 301.241481 
L 305.934113 299.433001 
L 310.128913 297.476934 
L 314.252892 295.375662 
L 318.301025 293.131745 
L 322.268381 290.747917 
L 326.150126 288.227082 
L 329.94153 285.572313 
L 333.637974 282.786842 
L 337.234955 279.874064 
L 340.728091 276.837528 
L 344.113125 273.680933 
L 347.385933 270.408125 
L 350.542528 267.023091 
L 353.579064 263.529955 
L 356.491842 259.932974 
L 359.277313 256.23653 
L 361.932082 252.445126 
L 364.452917 248.563381 
L 366.836745 244.596025 
L 369.080662 240.547892 
L 371.181934 236.423913 
L 373.138001 232.229113 
L 374.946481 227.968603 
L 376.605169 223.647572 
L 378.112045 219.271287 
L 379.465272 214.845079 
L 380.663203 210.37434 
L 381.704378 205.864517 
L 382.587528 201.321104 
L 383.311577 196.749639 
L 383.875643 192.155689 
L 384.279039 187.544851 
L 384.521273 182.922745 
L 384.602051 178.295 
L 384.602051 178.295 
" style="fill:none;stroke:#808080;stroke-linecap:square;stroke-width:0.8;"/>
     </g>
     <g id="text_15">
      <!-- 25 -->
      <g transform="translate(374.508321 125.054767)scale(0.12 -0.12)">
       <use xlink:href="#DejaVuSans-32"/>
       <use x="63.623047" xlink:href="#DejaVuSans-35"/>
      </g>
     </g>
    </g>
    <g id="text_16">
     <!-- magnitude [] -->
     <defs>
      <path d="M 52 44.1875 
Q 55.375 50.25 60.0625 53.125 
Q 64.75 56 71.09375 56 
Q 79.640625 56 84.28125 50.015625 
Q 88.921875 44.046875 88.921875 33.015625 
L 88.921875 0 
L 79.890625 0 
L 79.890625 32.71875 
Q 79.890625 40.578125 77.09375 44.375 
Q 74.3125 48.1875 68.609375 48.1875 
Q 61.625 48.1875 57.5625 43.546875 
Q 53.515625 38.921875 53.515625 30.90625 
L 53.515625 0 
L 44.484375 0 
L 44.484375 32.71875 
Q 44.484375 40.625 41.703125 44.40625 
Q 38.921875 48.1875 33.109375 48.1875 
Q 26.21875 48.1875 22.15625 43.53125 
Q 18.109375 38.875 18.109375 30.90625 
L 18.109375 0 
L 9.078125 0 
L 9.078125 54.6875 
L 18.109375 54.6875 
L 18.109375 46.1875 
Q 21.1875 51.21875 25.484375 53.609375 
Q 29.78125 56 35.6875 56 
Q 41.65625 56 45.828125 52.96875 
Q 50 49.953125 52 44.1875 
z
" id="DejaVuSans-6d"/>
      <path d="M 34.28125 27.484375 
Q 23.390625 27.484375 19.1875 25 
Q 14.984375 22.515625 14.984375 16.5 
Q 14.984375 11.71875 18.140625 8.90625 
Q 21.296875 6.109375 26.703125 6.109375 
Q 34.1875 6.109375 38.703125 11.40625 
Q 43.21875 16.703125 43.21875 25.484375 
L 43.21875 27.484375 
z
M 52.203125 31.203125 
L 52.203125 0 
L 43.21875 0 
L 43.21875 8.296875 
Q 40.140625 3.328125 35.546875 0.953125 
Q 30.953125 -1.421875 24.3125 -1.421875 
Q 15.921875 -1.421875 10.953125 3.296875 
Q 6 8.015625 6 15.921875 
Q 6 25.140625 12.171875 29.828125 
Q 18.359375 34.515625 30.609375 34.515625 
L 43.21875 34.515625 
L 43.21875 35.40625 
Q 43.21875 41.609375 39.140625 45 
Q 35.0625 48.390625 27.6875 48.390625 
Q 23 48.390625 18.546875 47.265625 
Q 14.109375 46.140625 10.015625 43.890625 
L 10.015625 52.203125 
Q 14.9375 54.109375 19.578125 55.046875 
Q 24.21875 56 28.609375 56 
Q 40.484375 56 46.34375 49.84375 
Q 52.203125 43.703125 52.203125 31.203125 
z
" id="DejaVuSans-61"/>
      <path d="M 45.40625 27.984375 
Q 45.40625 37.75 41.375 43.109375 
Q 37.359375 48.484375 30.078125 48.484375 
Q 22.859375 48.484375 18.828125 43.109375 
Q 14.796875 37.75 14.796875 27.984375 
Q 14.796875 18.265625 18.828125 12.890625 
Q 22.859375 7.515625 30.078125 7.515625 
Q 37.359375 7.515625 41.375 12.890625 
Q 45.40625 18.265625 45.40625 27.984375 
z
M 54.390625 6.78125 
Q 54.390625 -7.171875 48.1875 -13.984375 
Q 42 -20.796875 29.203125 -20.796875 
Q 24.46875 -20.796875 20.265625 -20.09375 
Q 16.0625 -19.390625 12.109375 -17.921875 
L 12.109375 -9.1875 
Q 16.0625 -11.328125 19.921875 -12.34375 
Q 23.78125 -13.375 27.78125 -13.375 
Q 36.625 -13.375 41.015625 -8.765625 
Q 45.40625 -4.15625 45.40625 5.171875 
L 45.40625 9.625 
Q 42.625 4.78125 38.28125 2.390625 
Q 33.9375 0 27.875 0 
Q 17.828125 0 11.671875 7.65625 
Q 5.515625 15.328125 5.515625 27.984375 
Q 5.515625 40.671875 11.671875 48.328125 
Q 17.828125 56 27.875 56 
Q 33.9375 56 38.28125 53.609375 
Q 42.625 51.21875 45.40625 46.390625 
L 45.40625 54.6875 
L 54.390625 54.6875 
z
" id="DejaVuSans-67"/>
      <path d="M 9.421875 54.6875 
L 18.40625 54.6875 
L 18.40625 0 
L 9.421875 0 
z
M 9.421875 75.984375 
L 18.40625 75.984375 
L 18.40625 64.59375 
L 9.421875 64.59375 
z
" id="DejaVuSans-69"/>
      <path d="M 18.3125 70.21875 
L 18.3125 54.6875 
L 36.8125 54.6875 
L 36.8125 47.703125 
L 18.3125 47.703125 
L 18.3125 18.015625 
Q 18.3125 11.328125 20.140625 9.421875 
Q 21.96875 7.515625 27.59375 7.515625 
L 36.8125 7.515625 
L 36.8125 0 
L 27.59375 0 
Q 17.1875 0 13.234375 3.875 
Q 9.28125 7.765625 9.28125 18.015625 
L 9.28125 47.703125 
L 2.6875 47.703125 
L 2.6875 54.6875 
L 9.28125 54.6875 
L 9.28125 70.21875 
z
" id="DejaVuSans-74"/>
      <path d="M 45.40625 46.390625 
L 45.40625 75.984375 
L 54.390625 75.984375 
L 54.390625 0 
L 45.40625 0 
L 45.40625 8.203125 
Q 42.578125 3.328125 38.25 0.953125 
Q 33.9375 -1.421875 27.875 -1.421875 
Q 17.96875 -1.421875 11.734375 6.484375 
Q 5.515625 14.40625 5.515625 27.296875 
Q 5.515625 40.1875 11.734375 48.09375 
Q 17.96875 56 27.875 56 
Q 33.9375 56 38.25 53.625 
Q 42.578125 51.265625 45.40625 46.390625 
z
M 14.796875 27.296875 
Q 14.796875 17.390625 18.875 11.75 
Q 22.953125 6.109375 30.078125 6.109375 
Q 37.203125 6.109375 41.296875 11.75 
Q 45.40625 17.390625 45.40625 27.296875 
Q 45.40625 37.203125 41.296875 42.84375 
Q 37.203125 48.484375 30.078125 48.484375 
Q 22.953125 48.484375 18.875 42.84375 
Q 14.796875 37.203125 14.796875 27.296875 
z
" id="DejaVuSans-64"/>
     </defs>
     <g transform="translate(107.599375 217.339063)rotate(-90)scale(0.12 -0.12)">
      <use xlink:href="#DejaVuSans-6d"/>
      <use x="97.412109" xlink:href="#DejaVuSans-61"/>
      <use x="158.691406" xlink:href="#DejaVuSans-67"/>
      <use x="222.167969" xlink:href="#DejaVuSans-6e"/>
      <use x="285.546875" xlink:href="#DejaVuSans-69"/>
      <use x="313.330078" xlink:href="#DejaVuSans-74"/>
      <use x="352.539062" xlink:href="#DejaVuSans-75"/>
      <use x="415.917969" xlink:href="#DejaVuSans-64"/>
      <use x="479.394531" xlink:href="#DejaVuSans-65"/>
      <use x="540.917969" xlink:href="#DejaVuSans-20"/>
      <use x="572.705078" xlink:href="#DejaVuSans-5b"/>
      <use x="611.71875" xlink:href="#DejaVuSans-5d"/>
     </g>
    </g>
   </g>
   <g id="line2d_15">
    <path clip-path="url(#p488851cd33)" d="M 120.458669 173.287969 
L 120.476546 172.92646 
L 120.4971 172.538904 
L 120.520729 172.123437 
L 120.547895 171.678064 
L 120.579126 171.200651 
L 120.615029 170.688917 
L 120.656305 170.140424 
L 120.703754 169.552568 
L 120.7583 168.922567 
L 120.821003 168.247454 
L 120.893078 167.524066 
L 120.975926 166.749035 
L 121.071153 165.918776 
L 121.180601 165.029479 
L 121.306391 164.077102 
L 121.450951 163.057363 
L 121.617072 161.965735 
L 121.807953 160.797443 
L 122.027265 159.547465 
L 122.279216 158.210535 
L 122.568625 156.781159 
L 122.901014 155.253625 
L 123.282702 153.622036 
L 123.720915 151.880349 
L 124.223909 150.022423 
L 124.801109 148.0421 
L 125.463258 145.933294 
L 126.222586 143.690122 
L 127.09299 141.30706 
L 128.090226 138.779157 
L 129.232116 136.102289 
L 130.538754 133.273492 
L 132.03271 130.291373 
L 133.73922 127.156611 
L 135.686336 123.872586 
L 137.905015 120.446131 
L 140.429118 116.888443 
L 143.295242 113.216155 
L 146.542354 109.45259 
L 150.211103 105.629181 
L 154.342737 101.78702 
L 158.977459 97.978485 
L 164.152124 94.268796 
L 169.897095 90.737303 
L 176.232199 87.478204 
L 183.161746 84.600259 
L 190.668772 82.224997 
L 198.708917 80.482815 
L 207.204666 79.506482 
L 216.041087 79.421754 
L 225.064491 80.33536 
L 234.085501 82.321331 
L 242.887682 85.407539 
L 251.241938 89.565045 
L 258.925513 94.703035 
L 265.742917 100.671503 
L 271.54507 107.272268 
L 276.242894 114.276952 
L 279.812766 121.448702 
L 282.293165 128.563618 
L 283.773957 135.428194 
L 284.381182 141.890481 
L 284.260584 147.8444 
L 283.562657 153.228138 
L 282.430906 158.018411 
L 280.993952 162.22256 
L 279.361259 165.870137 
L 277.621782 169.005147 
L 275.844665 171.679555 
L 274.08119 173.948276 
L 272.367327 175.865597 
L 270.726428 177.482794 
L 269.171785 178.846723 
L 267.708892 179.999096 
L 266.337356 180.976248 
L 265.052449 181.80921 
L 263.846343 182.523944 
L 262.709059 183.141664 
L 261.629208 183.679152 
L 260.594557 184.14904 
L 259.592505 184.560023 
L 258.610501 184.916993 
L 257.636487 185.221089 
L 256.659416 185.469702 
L 255.669904 185.656455 
L 254.661091 185.771266 
L 253.629709 185.800587 
L 252.577356 185.728004 
L 251.511854 185.535367 
L 250.448423 185.204615 
L 249.41032 184.720317 
L 248.428463 184.072744 
L 247.539698 183.260979 
L 246.783649 182.295339 
L 246.198549 181.198409 
L 245.816833 180.004294 
L 245.661372 178.75621 
L 245.742954 177.502963 
L 246.059219 176.294982 
" style="fill:none;stroke:#0000ff;stroke-linecap:square;stroke-width:2;"/>
   </g>
   <g id="patch_3">
    <path d="M 389.905 178.295 
C 389.905 160.185481 386.33782 142.252055 379.407607 125.521041 
C 372.477394 108.790028 362.318924 93.586803 349.513561 80.781439 
C 336.708197 67.976076 321.504972 57.817606 304.773959 50.887393 
C 288.042945 43.95718 270.109519 40.39 252 40.39 
C 233.890481 40.39 215.957055 43.95718 199.226041 50.887393 
C 182.495028 57.817606 167.291803 67.976076 154.486439 80.781439 
C 141.681076 93.586803 131.522606 108.790028 124.592393 125.521041 
C 117.66218 142.252055 114.095 160.185481 114.095 178.295 
C 114.095 196.404519 117.66218 214.337945 124.592393 231.068959 
C 131.522606 247.799972 141.681076 263.003197 154.486439 275.808561 
C 167.291803 288.613924 182.495028 298.772394 199.226041 305.702607 
C 215.957055 312.63282 233.890481 316.2 252 316.2 
C 270.109519 316.2 288.042945 312.63282 304.773959 305.702607 
C 321.504972 298.772394 336.708197 288.613924 349.513561 275.808561 
C 362.318924 263.003197 372.477394 247.799972 379.407607 231.068959 
C 386.33782 214.337945 389.905 196.404519 389.905 178.295 
" style="fill:none;stroke:#000000;stroke-linecap:square;stroke-linejoin:miter;stroke-width:0.8;"/>
   </g>
   <g id="text_17">
    <!-- Polar -->
    <defs>
     <path d="M 19.671875 64.796875 
L 19.671875 37.40625 
L 32.078125 37.40625 
Q 38.96875 37.40625 42.71875 40.96875 
Q 46.484375 44.53125 46.484375 51.125 
Q 46.484375 57.671875 42.71875 61.234375 
Q 38.96875 64.796875 32.078125 64.796875 
z
M 9.8125 72.90625 
L 32.078125 72.90625 
Q 44.34375 72.90625 50.609375 67.359375 
Q 56.890625 61.8125 56.890625 51.125 
Q 56.890625 40.328125 50.609375 34.8125 
Q 44.34375 29.296875 32.078125 29.296875 
L 19.671875 29.296875 
L 19.671875 0 
L 9.8125 0 
z
" id="DejaVuSans-50"/>
     <path d="M 30.609375 48.390625 
Q 23.390625 48.390625 19.1875 42.75 
Q 14.984375 37.109375 14.984375 27.296875 
Q 14.984375 17.484375 19.15625 11.84375 
Q 23.34375 6.203125 30.609375 6.203125 
Q 37.796875 6.203125 41.984375 11.859375 
Q 46.1875 17.53125 46.1875 27.296875 
Q 46.1875 37.015625 41.984375 42.703125 
Q 37.796875 48.390625 30.609375 48.390625 
z
M 30.609375 56 
Q 42.328125 56 49.015625 48.375 
Q 55.71875 40.765625 55.71875 27.296875 
Q 55.71875 13.875 49.015625 6.21875 
Q 42.328125 -1.421875 30.609375 -1.421875 
Q 18.84375 -1.421875 12.171875 6.21875 
Q 5.515625 13.875 5.515625 27.296875 
Q 5.515625 40.765625 12.171875 48.375 
Q 18.84375 56 30.609375 56 
z
" id="DejaVuSans-6f"/>
     <path d="M 9.421875 75.984375 
L 18.40625 75.984375 
L 18.40625 0 
L 9.421875 0 
z
" id="DejaVuSans-6c"/>
    </defs>
    <g transform="translate(236.903437 20.5995)scale(0.12 -0.12)">
     <use xlink:href="#DejaVuSans-50"/>
     <use x="60.255859" xlink:href="#DejaVuSans-6f"/>
     <use x="121.4375" xlink:href="#DejaVuSans-6c"/>
     <use x="149.220703" xlink:href="#DejaVuSans-61"/>
     <use x="210.5" xlink:href="#DejaVuSans-72"/>
    </g>
   </g>
   <g id="legend_1">
    <g id="patch_4">
     <path d="M 382.905 49.39 
L 382.905 49.39 
Q 384.905 49.39 384.905 47.39 
L 384.905 47.39 
Q 384.905 45.39 382.905 45.39 
L 382.905 45.39 
Q 380.905 45.39 380.905 47.39 
L 380.905 47.39 
Q 380.905 49.39 382.905 49.39 
z
" style="fill:#ffffff;opacity:0.8;stroke:#cccccc;stroke-linejoin:miter;"/>
    </g>
   </g>
  </g>
 </g>
 <defs>
  <clipPath id="p488851cd33">
   <path d="M 389.905 178.295 
C 389.905 160.185481 386.33782 142.252055 379.407607 125.521041 
C 372.477394 108.790028 362.318924 93.586803 349.513561 80.781439 
C 336.708197 67.976076 321.504972 57.817606 304.773959 50.887393 
C 288.042945 43.95718 270.109519 40.39 252 40.39 
C 233.890481 40.39 215.957055 43.95718 199.226041 50.887393 
C 182.495028 57.817606 167.291803 67.976076 154.486439 80.781439 
C 141.681076 93.586803 131.522606 108.790028 124.592393 125.521041 
C 117.66218 142.252055 114.095 160.185481 114.095 178.295 
C 114.095 196.404519 117.66218 214.337945 124.592393 231.068959 
C 131.522606 247.799972 141.681076 263.003197 154.486439 275.808561 
C 167.291803 288.613924 182.495028 298.772394 199.226041 305.702607 
C 215.957055 312.63282 233.890481 316.2 252 316.2 
C 270.109519 316.2 288.042945 312.63282 304.773959 305.702607 
C 321.504972 298.772394 336.708197 288.613924 349.513561 275.808561 
C 362.318924 263.003197 372.477394 247.799972 379.407607 231.068959 
C 386.33782 214.337945 389.905 196.404519 389.905 178.295 
M 252 178.295 
C 252 178.295 252 178.295 252 178.295 
C 252 178.295 252 178.295 252 178.295 
C 252 178.295 252 178.295 252 178.295 
C 252 178.295 252 178.295 252 178.295 
C 252 178.295 252 178.295 252 178.295 
C 252 178.295 252 178.295 252 178.295 
C 252 178.295 252 178.295 252 178.295 
C 252 178.295 252 178.295 252 178.295 
C 252 178.295 252 178.295 252 178.295 
C 252 178.295 252 178.295 252 178.295 
C 252 178.295 252 178.295 252 178.295 
C 252 178.295 252 178.295 252 178.295 
C 252 178.295 252 178.295 252 178.295 
C 252 178.295 252 178.295 252 178.295 
C 252 178.295 252 178.295 252 178.295 
C 252 178.295 252 178.295 252 178.295 
M 389.905 178.295 
z
"/>
  </clipPath>
 </defs>
</svg>
