<?xml version="1.0" encoding="utf-8" standalone="no"?>
<!DOCTYPE svg PUBLIC "-//W3C//DTD SVG 1.1//EN"
  "http://www.w3.org/Graphics/SVG/1.1/DTD/svg11.dtd">
<!-- Created with matplotlib (https://matplotlib.org/) -->
<svg height="360pt" version="1.1" viewBox="0 0 504 360" width="504pt" xmlns="http://www.w3.org/2000/svg" xmlns:xlink="http://www.w3.org/1999/xlink">
 <defs>
  <style type="text/css">
*{stroke-linecap:butt;stroke-linejoin:round;}
  </style>
 </defs>
 <g id="figure_1">
  <g id="patch_1">
   <path d="M 0 360 
L 504 360 
L 504 0 
L 0 0 
z
" style="fill:#ffffff;"/>
  </g>
  <g id="axes_1">
   <g id="patch_2">
    <path d="M 67.425 312.2 
L 493.2 312.2 
L 493.2 27.8 
L 67.425 27.8 
z
" style="fill:#e5e5e5;"/>
   </g>
   <g id="matplotlib.axis_1">
    <g id="xtick_1">
     <g id="line2d_1">
      <path clip-path="url(#p935f3d1d05)" d="M 86.778409 312.2 
L 86.778409 27.8 
" style="fill:none;stroke:#808080;stroke-linecap:square;stroke-width:0.8;"/>
     </g>
     <g id="line2d_2">
      <defs>
       <path d="M 0 0 
L 0 3.5 
" id="md51ace02ec" style="stroke:#555555;stroke-width:0.8;"/>
      </defs>
      <g>
       <use style="fill:#555555;stroke:#555555;stroke-width:0.8;" x="86.778409" xlink:href="#md51ace02ec" y="312.2"/>
      </g>
     </g>
     <g id="text_1">
      <!-- 0 -->
      <defs>
       <path d="M 31.78125 66.40625 
Q 24.171875 66.40625 20.328125 58.90625 
Q 16.5 51.421875 16.5 36.375 
Q 16.5 21.390625 20.328125 13.890625 
Q 24.171875 6.390625 31.78125 6.390625 
Q 39.453125 6.390625 43.28125 13.890625 
Q 47.125 21.390625 47.125 36.375 
Q 47.125 51.421875 43.28125 58.90625 
Q 39.453125 66.40625 31.78125 66.40625 
z
M 31.78125 74.21875 
Q 44.046875 74.21875 50.515625 64.515625 
Q 56.984375 54.828125 56.984375 36.375 
Q 56.984375 17.96875 50.515625 8.265625 
Q 44.046875 -1.421875 31.78125 -1.421875 
Q 19.53125 -1.421875 13.0625 8.265625 
Q 6.59375 17.96875 6.59375 36.375 
Q 6.59375 54.828125 13.0625 64.515625 
Q 19.53125 74.21875 31.78125 74.21875 
z
" id="DejaVuSans-48"/>
      </defs>
      <g style="fill:#555555;" transform="translate(82.960909 328.318125)scale(0.12 -0.12)">
       <use xlink:href="#DejaVuSans-48"/>
      </g>
     </g>
    </g>
    <g id="xtick_2">
     <g id="line2d_3">
      <path clip-path="url(#p935f3d1d05)" d="M 164.192045 312.2 
L 164.192045 27.8 
" style="fill:none;stroke:#808080;stroke-linecap:square;stroke-width:0.8;"/>
     </g>
     <g id="line2d_4">
      <g>
       <use style="fill:#555555;stroke:#555555;stroke-width:0.8;" x="164.192045" xlink:href="#md51ace02ec" y="312.2"/>
      </g>
     </g>
     <g id="text_2">
      <!-- 10 -->
      <defs>
       <path d="M 12.40625 8.296875 
L 28.515625 8.296875 
L 28.515625 63.921875 
L 10.984375 60.40625 
L 10.984375 69.390625 
L 28.421875 72.90625 
L 38.28125 72.90625 
L 38.28125 8.296875 
L 54.390625 8.296875 
L 54.390625 0 
L 12.40625 0 
z
" id="DejaVuSans-49"/>
      </defs>
      <g style="fill:#555555;" transform="translate(156.557045 328.318125)scale(0.12 -0.12)">
       <use xlink:href="#DejaVuSans-49"/>
       <use x="63.623047" xlink:href="#DejaVuSans-48"/>
      </g>
     </g>
    </g>
    <g id="xtick_3">
     <g id="line2d_5">
      <path clip-path="url(#p935f3d1d05)" d="M 241.605682 312.2 
L 241.605682 27.8 
" style="fill:none;stroke:#808080;stroke-linecap:square;stroke-width:0.8;"/>
     </g>
     <g id="line2d_6">
      <g>
       <use style="fill:#555555;stroke:#555555;stroke-width:0.8;" x="241.605682" xlink:href="#md51ace02ec" y="312.2"/>
      </g>
     </g>
     <g id="text_3">
      <!-- 20 -->
      <defs>
       <path d="M 19.1875 8.296875 
L 53.609375 8.296875 
L 53.609375 0 
L 7.328125 0 
L 7.328125 8.296875 
Q 12.9375 14.109375 22.625 23.890625 
Q 32.328125 33.6875 34.8125 36.53125 
Q 39.546875 41.84375 41.421875 45.53125 
Q 43.3125 49.21875 43.3125 52.78125 
Q 43.3125 58.59375 39.234375 62.25 
Q 35.15625 65.921875 28.609375 65.921875 
Q 23.96875 65.921875 18.8125 64.3125 
Q 13.671875 62.703125 7.8125 59.421875 
L 7.8125 69.390625 
Q 13.765625 71.78125 18.9375 73 
Q 24.125 74.21875 28.421875 74.21875 
Q 39.75 74.21875 46.484375 68.546875 
Q 53.21875 62.890625 53.21875 53.421875 
Q 53.21875 48.921875 51.53125 44.890625 
Q 49.859375 40.875 45.40625 35.40625 
Q 44.1875 33.984375 37.640625 27.21875 
Q 31.109375 20.453125 19.1875 8.296875 
z
" id="DejaVuSans-50"/>
      </defs>
      <g style="fill:#555555;" transform="translate(233.970682 328.318125)scale(0.12 -0.12)">
       <use xlink:href="#DejaVuSans-50"/>
       <use x="63.623047" xlink:href="#DejaVuSans-48"/>
      </g>
     </g>
    </g>
    <g id="xtick_4">
     <g id="line2d_7">
      <path clip-path="url(#p935f3d1d05)" d="M 319.019318 312.2 
L 319.019318 27.8 
" style="fill:none;stroke:#808080;stroke-linecap:square;stroke-width:0.8;"/>
     </g>
     <g id="line2d_8">
      <g>
       <use style="fill:#555555;stroke:#555555;stroke-width:0.8;" x="319.019318" xlink:href="#md51ace02ec" y="312.2"/>
      </g>
     </g>
     <g id="text_4">
      <!-- 30 -->
      <defs>
       <path d="M 40.578125 39.3125 
Q 47.65625 37.796875 51.625 33 
Q 55.609375 28.21875 55.609375 21.1875 
Q 55.609375 10.40625 48.1875 4.484375 
Q 40.765625 -1.421875 27.09375 -1.421875 
Q 22.515625 -1.421875 17.65625 -0.515625 
Q 12.796875 0.390625 7.625 2.203125 
L 7.625 11.71875 
Q 11.71875 9.328125 16.59375 8.109375 
Q 21.484375 6.890625 26.8125 6.890625 
Q 36.078125 6.890625 40.9375 10.546875 
Q 45.796875 14.203125 45.796875 21.1875 
Q 45.796875 27.640625 41.28125 31.265625 
Q 36.765625 34.90625 28.71875 34.90625 
L 20.21875 34.90625 
L 20.21875 43.015625 
L 29.109375 43.015625 
Q 36.375 43.015625 40.234375 45.921875 
Q 44.09375 48.828125 44.09375 54.296875 
Q 44.09375 59.90625 40.109375 62.90625 
Q 36.140625 65.921875 28.71875 65.921875 
Q 24.65625 65.921875 20.015625 65.03125 
Q 15.375 64.15625 9.8125 62.3125 
L 9.8125 71.09375 
Q 15.4375 72.65625 20.34375 73.4375 
Q 25.25 74.21875 29.59375 74.21875 
Q 40.828125 74.21875 47.359375 69.109375 
Q 53.90625 64.015625 53.90625 55.328125 
Q 53.90625 49.265625 50.4375 45.09375 
Q 46.96875 40.921875 40.578125 39.3125 
z
" id="DejaVuSans-51"/>
      </defs>
      <g style="fill:#555555;" transform="translate(311.384318 328.318125)scale(0.12 -0.12)">
       <use xlink:href="#DejaVuSans-51"/>
       <use x="63.623047" xlink:href="#DejaVuSans-48"/>
      </g>
     </g>
    </g>
    <g id="xtick_5">
     <g id="line2d_9">
      <path clip-path="url(#p935f3d1d05)" d="M 396.432955 312.2 
L 396.432955 27.8 
" style="fill:none;stroke:#808080;stroke-linecap:square;stroke-width:0.8;"/>
     </g>
     <g id="line2d_10">
      <g>
       <use style="fill:#555555;stroke:#555555;stroke-width:0.8;" x="396.432955" xlink:href="#md51ace02ec" y="312.2"/>
      </g>
     </g>
     <g id="text_5">
      <!-- 40 -->
      <defs>
       <path d="M 37.796875 64.3125 
L 12.890625 25.390625 
L 37.796875 25.390625 
z
M 35.203125 72.90625 
L 47.609375 72.90625 
L 47.609375 25.390625 
L 58.015625 25.390625 
L 58.015625 17.1875 
L 47.609375 17.1875 
L 47.609375 0 
L 37.796875 0 
L 37.796875 17.1875 
L 4.890625 17.1875 
L 4.890625 26.703125 
z
" id="DejaVuSans-52"/>
      </defs>
      <g style="fill:#555555;" transform="translate(388.797955 328.318125)scale(0.12 -0.12)">
       <use xlink:href="#DejaVuSans-52"/>
       <use x="63.623047" xlink:href="#DejaVuSans-48"/>
      </g>
     </g>
    </g>
    <g id="xtick_6">
     <g id="line2d_11">
      <path clip-path="url(#p935f3d1d05)" d="M 473.846591 312.2 
L 473.846591 27.8 
" style="fill:none;stroke:#808080;stroke-linecap:square;stroke-width:0.8;"/>
     </g>
     <g id="line2d_12">
      <g>
       <use style="fill:#555555;stroke:#555555;stroke-width:0.8;" x="473.846591" xlink:href="#md51ace02ec" y="312.2"/>
      </g>
     </g>
     <g id="text_6">
      <!-- 50 -->
      <defs>
       <path d="M 10.796875 72.90625 
L 49.515625 72.90625 
L 49.515625 64.59375 
L 19.828125 64.59375 
L 19.828125 46.734375 
Q 21.96875 47.46875 24.109375 47.828125 
Q 26.265625 48.1875 28.421875 48.1875 
Q 40.625 48.1875 47.75 41.5 
Q 54.890625 34.8125 54.890625 23.390625 
Q 54.890625 11.625 47.5625 5.09375 
Q 40.234375 -1.421875 26.90625 -1.421875 
Q 22.3125 -1.421875 17.546875 -0.640625 
Q 12.796875 0.140625 7.71875 1.703125 
L 7.71875 11.625 
Q 12.109375 9.234375 16.796875 8.0625 
Q 21.484375 6.890625 26.703125 6.890625 
Q 35.15625 6.890625 40.078125 11.328125 
Q 45.015625 15.765625 45.015625 23.390625 
Q 45.015625 31 40.078125 35.4375 
Q 35.15625 39.890625 26.703125 39.890625 
Q 22.75 39.890625 18.8125 39.015625 
Q 14.890625 38.140625 10.796875 36.28125 
z
" id="DejaVuSans-53"/>
      </defs>
      <g style="fill:#555555;" transform="translate(466.211591 328.318125)scale(0.12 -0.12)">
       <use xlink:href="#DejaVuSans-53"/>
       <use x="63.623047" xlink:href="#DejaVuSans-48"/>
      </g>
     </g>
    </g>
    <g id="text_7">
     <!-- time [us] -->
     <defs>
      <path d="M 18.3125 70.21875 
L 18.3125 54.6875 
L 36.8125 54.6875 
L 36.8125 47.703125 
L 18.3125 47.703125 
L 18.3125 18.015625 
Q 18.3125 11.328125 20.140625 9.421875 
Q 21.96875 7.515625 27.59375 7.515625 
L 36.8125 7.515625 
L 36.8125 0 
L 27.59375 0 
Q 17.1875 0 13.234375 3.875 
Q 9.28125 7.765625 9.28125 18.015625 
L 9.28125 47.703125 
L 2.6875 47.703125 
L 2.6875 54.6875 
L 9.28125 54.6875 
L 9.28125 70.21875 
z
" id="DejaVuSans-116"/>
      <path d="M 9.421875 54.6875 
L 18.40625 54.6875 
L 18.40625 0 
L 9.421875 0 
z
M 9.421875 75.984375 
L 18.40625 75.984375 
L 18.40625 64.59375 
L 9.421875 64.59375 
z
" id="DejaVuSans-105"/>
      <path d="M 52 44.1875 
Q 55.375 50.25 60.0625 53.125 
Q 64.75 56 71.09375 56 
Q 79.640625 56 84.28125 50.015625 
Q 88.921875 44.046875 88.921875 33.015625 
L 88.921875 0 
L 79.890625 0 
L 79.890625 32.71875 
Q 79.890625 40.578125 77.09375 44.375 
Q 74.3125 48.1875 68.609375 48.1875 
Q 61.625 48.1875 57.5625 43.546875 
Q 53.515625 38.921875 53.515625 30.90625 
L 53.515625 0 
L 44.484375 0 
L 44.484375 32.71875 
Q 44.484375 40.625 41.703125 44.40625 
Q 38.921875 48.1875 33.109375 48.1875 
Q 26.21875 48.1875 22.15625 43.53125 
Q 18.109375 38.875 18.109375 30.90625 
L 18.109375 0 
L 9.078125 0 
L 9.078125 54.6875 
L 18.109375 54.6875 
L 18.109375 46.1875 
Q 21.1875 51.21875 25.484375 53.609375 
Q 29.78125 56 35.6875 56 
Q 41.65625 56 45.828125 52.96875 
Q 50 49.953125 52 44.1875 
z
" id="DejaVuSans-109"/>
      <path d="M 56.203125 29.59375 
L 56.203125 25.203125 
L 14.890625 25.203125 
Q 15.484375 15.921875 20.484375 11.0625 
Q 25.484375 6.203125 34.421875 6.203125 
Q 39.59375 6.203125 44.453125 7.46875 
Q 49.3125 8.734375 54.109375 11.28125 
L 54.109375 2.78125 
Q 49.265625 0.734375 44.1875 -0.34375 
Q 39.109375 -1.421875 33.890625 -1.421875 
Q 20.796875 -1.421875 13.15625 6.1875 
Q 5.515625 13.8125 5.515625 26.8125 
Q 5.515625 40.234375 12.765625 48.109375 
Q 20.015625 56 32.328125 56 
Q 43.359375 56 49.78125 48.890625 
Q 56.203125 41.796875 56.203125 29.59375 
z
M 47.21875 32.234375 
Q 47.125 39.59375 43.09375 43.984375 
Q 39.0625 48.390625 32.421875 48.390625 
Q 24.90625 48.390625 20.390625 44.140625 
Q 15.875 39.890625 15.1875 32.171875 
z
" id="DejaVuSans-101"/>
      <path id="DejaVuSans-32"/>
      <path d="M 8.59375 75.984375 
L 29.296875 75.984375 
L 29.296875 69 
L 17.578125 69 
L 17.578125 -6.203125 
L 29.296875 -6.203125 
L 29.296875 -13.1875 
L 8.59375 -13.1875 
z
" id="DejaVuSans-91"/>
      <path d="M 8.5 21.578125 
L 8.5 54.6875 
L 17.484375 54.6875 
L 17.484375 21.921875 
Q 17.484375 14.15625 20.5 10.265625 
Q 23.53125 6.390625 29.59375 6.390625 
Q 36.859375 6.390625 41.078125 11.03125 
Q 45.3125 15.671875 45.3125 23.6875 
L 45.3125 54.6875 
L 54.296875 54.6875 
L 54.296875 0 
L 45.3125 0 
L 45.3125 8.40625 
Q 42.046875 3.421875 37.71875 1 
Q 33.40625 -1.421875 27.6875 -1.421875 
Q 18.265625 -1.421875 13.375 4.4375 
Q 8.5 10.296875 8.5 21.578125 
z
M 31.109375 56 
z
" id="DejaVuSans-117"/>
      <path d="M 44.28125 53.078125 
L 44.28125 44.578125 
Q 40.484375 46.53125 36.375 47.5 
Q 32.28125 48.484375 27.875 48.484375 
Q 21.1875 48.484375 17.84375 46.4375 
Q 14.5 44.390625 14.5 40.28125 
Q 14.5 37.15625 16.890625 35.375 
Q 19.28125 33.59375 26.515625 31.984375 
L 29.59375 31.296875 
Q 39.15625 29.25 43.1875 25.515625 
Q 47.21875 21.78125 47.21875 15.09375 
Q 47.21875 7.46875 41.1875 3.015625 
Q 35.15625 -1.421875 24.609375 -1.421875 
Q 20.21875 -1.421875 15.453125 -0.5625 
Q 10.6875 0.296875 5.421875 2 
L 5.421875 11.28125 
Q 10.40625 8.6875 15.234375 7.390625 
Q 20.0625 6.109375 24.8125 6.109375 
Q 31.15625 6.109375 34.5625 8.28125 
Q 37.984375 10.453125 37.984375 14.40625 
Q 37.984375 18.0625 35.515625 20.015625 
Q 33.0625 21.96875 24.703125 23.78125 
L 21.578125 24.515625 
Q 13.234375 26.265625 9.515625 29.90625 
Q 5.8125 33.546875 5.8125 39.890625 
Q 5.8125 47.609375 11.28125 51.796875 
Q 16.75 56 26.8125 56 
Q 31.78125 56 36.171875 55.265625 
Q 40.578125 54.546875 44.28125 53.078125 
z
" id="DejaVuSans-115"/>
      <path d="M 30.421875 75.984375 
L 30.421875 -13.1875 
L 9.71875 -13.1875 
L 9.71875 -6.203125 
L 21.390625 -6.203125 
L 21.390625 69 
L 9.71875 69 
L 9.71875 75.984375 
z
" id="DejaVuSans-93"/>
     </defs>
     <g style="fill:#555555;" transform="translate(253.240313 343.931875)scale(0.12 -0.12)">
      <use xlink:href="#DejaVuSans-116"/>
      <use x="39.208984" xlink:href="#DejaVuSans-105"/>
      <use x="66.992188" xlink:href="#DejaVuSans-109"/>
      <use x="164.404297" xlink:href="#DejaVuSans-101"/>
      <use x="225.927734" xlink:href="#DejaVuSans-32"/>
      <use x="257.714844" xlink:href="#DejaVuSans-91"/>
      <use x="296.728516" xlink:href="#DejaVuSans-117"/>
      <use x="360.107422" xlink:href="#DejaVuSans-115"/>
      <use x="412.207031" xlink:href="#DejaVuSans-93"/>
     </g>
    </g>
   </g>
   <g id="matplotlib.axis_2">
    <g id="ytick_1">
     <g id="line2d_13">
      <path clip-path="url(#p935f3d1d05)" d="M 67.425 290.473291 
L 493.2 290.473291 
" style="fill:none;stroke:#808080;stroke-linecap:square;stroke-width:0.8;"/>
     </g>
     <g id="line2d_14">
      <defs>
       <path d="M 0 0 
L -3.5 0 
" id="m287518a98d" style="stroke:#555555;stroke-width:0.8;"/>
      </defs>
      <g>
       <use style="fill:#555555;stroke:#555555;stroke-width:0.8;" x="67.425" xlink:href="#m287518a98d" y="290.473291"/>
      </g>
     </g>
     <g id="text_8">
      <!-- −100 -->
      <defs>
       <path d="M 10.59375 35.5 
L 73.1875 35.5 
L 73.1875 27.203125 
L 10.59375 27.203125 
z
" id="DejaVuSans-8722"/>
      </defs>
      <g style="fill:#555555;" transform="translate(27.464375 295.032354)scale(0.12 -0.12)">
       <use xlink:href="#DejaVuSans-8722"/>
       <use x="83.789062" xlink:href="#DejaVuSans-49"/>
       <use x="147.412109" xlink:href="#DejaVuSans-48"/>
       <use x="211.035156" xlink:href="#DejaVuSans-48"/>
      </g>
     </g>
    </g>
    <g id="ytick_2">
     <g id="line2d_15">
      <path clip-path="url(#p935f3d1d05)" d="M 67.425 254.339629 
L 493.2 254.339629 
" style="fill:none;stroke:#808080;stroke-linecap:square;stroke-width:0.8;"/>
     </g>
     <g id="line2d_16">
      <g>
       <use style="fill:#555555;stroke:#555555;stroke-width:0.8;" x="67.425" xlink:href="#m287518a98d" y="254.339629"/>
      </g>
     </g>
     <g id="text_9">
      <!-- −75 -->
      <defs>
       <path d="M 8.203125 72.90625 
L 55.078125 72.90625 
L 55.078125 68.703125 
L 28.609375 0 
L 18.3125 0 
L 43.21875 64.59375 
L 8.203125 64.59375 
z
" id="DejaVuSans-55"/>
      </defs>
      <g style="fill:#555555;" transform="translate(35.099375 258.898692)scale(0.12 -0.12)">
       <use xlink:href="#DejaVuSans-8722"/>
       <use x="83.789062" xlink:href="#DejaVuSans-55"/>
       <use x="147.412109" xlink:href="#DejaVuSans-53"/>
      </g>
     </g>
    </g>
    <g id="ytick_3">
     <g id="line2d_17">
      <path clip-path="url(#p935f3d1d05)" d="M 67.425 218.205967 
L 493.2 218.205967 
" style="fill:none;stroke:#808080;stroke-linecap:square;stroke-width:0.8;"/>
     </g>
     <g id="line2d_18">
      <g>
       <use style="fill:#555555;stroke:#555555;stroke-width:0.8;" x="67.425" xlink:href="#m287518a98d" y="218.205967"/>
      </g>
     </g>
     <g id="text_10">
      <!-- −50 -->
      <g style="fill:#555555;" transform="translate(35.099375 222.76503)scale(0.12 -0.12)">
       <use xlink:href="#DejaVuSans-8722"/>
       <use x="83.789062" xlink:href="#DejaVuSans-53"/>
       <use x="147.412109" xlink:href="#DejaVuSans-48"/>
      </g>
     </g>
    </g>
    <g id="ytick_4">
     <g id="line2d_19">
      <path clip-path="url(#p935f3d1d05)" d="M 67.425 182.072305 
L 493.2 182.072305 
" style="fill:none;stroke:#808080;stroke-linecap:square;stroke-width:0.8;"/>
     </g>
     <g id="line2d_20">
      <g>
       <use style="fill:#555555;stroke:#555555;stroke-width:0.8;" x="67.425" xlink:href="#m287518a98d" y="182.072305"/>
      </g>
     </g>
     <g id="text_11">
      <!-- −25 -->
      <g style="fill:#555555;" transform="translate(35.099375 186.631368)scale(0.12 -0.12)">
       <use xlink:href="#DejaVuSans-8722"/>
       <use x="83.789062" xlink:href="#DejaVuSans-50"/>
       <use x="147.412109" xlink:href="#DejaVuSans-53"/>
      </g>
     </g>
    </g>
    <g id="ytick_5">
     <g id="line2d_21">
      <path clip-path="url(#p935f3d1d05)" d="M 67.425 145.938643 
L 493.2 145.938643 
" style="fill:none;stroke:#808080;stroke-linecap:square;stroke-width:0.8;"/>
     </g>
     <g id="line2d_22">
      <g>
       <use style="fill:#555555;stroke:#555555;stroke-width:0.8;" x="67.425" xlink:href="#m287518a98d" y="145.938643"/>
      </g>
     </g>
     <g id="text_12">
      <!-- 0 -->
      <g style="fill:#555555;" transform="translate(52.79 150.497706)scale(0.12 -0.12)">
       <use xlink:href="#DejaVuSans-48"/>
      </g>
     </g>
    </g>
    <g id="ytick_6">
     <g id="line2d_23">
      <path clip-path="url(#p935f3d1d05)" d="M 67.425 109.804981 
L 493.2 109.804981 
" style="fill:none;stroke:#808080;stroke-linecap:square;stroke-width:0.8;"/>
     </g>
     <g id="line2d_24">
      <g>
       <use style="fill:#555555;stroke:#555555;stroke-width:0.8;" x="67.425" xlink:href="#m287518a98d" y="109.804981"/>
      </g>
     </g>
     <g id="text_13">
      <!-- 25 -->
      <g style="fill:#555555;" transform="translate(45.155 114.364044)scale(0.12 -0.12)">
       <use xlink:href="#DejaVuSans-50"/>
       <use x="63.623047" xlink:href="#DejaVuSans-53"/>
      </g>
     </g>
    </g>
    <g id="ytick_7">
     <g id="line2d_25">
      <path clip-path="url(#p935f3d1d05)" d="M 67.425 73.671319 
L 493.2 73.671319 
" style="fill:none;stroke:#808080;stroke-linecap:square;stroke-width:0.8;"/>
     </g>
     <g id="line2d_26">
      <g>
       <use style="fill:#555555;stroke:#555555;stroke-width:0.8;" x="67.425" xlink:href="#m287518a98d" y="73.671319"/>
      </g>
     </g>
     <g id="text_14">
      <!-- 50 -->
      <g style="fill:#555555;" transform="translate(45.155 78.230382)scale(0.12 -0.12)">
       <use xlink:href="#DejaVuSans-53"/>
       <use x="63.623047" xlink:href="#DejaVuSans-48"/>
      </g>
     </g>
    </g>
    <g id="ytick_8">
     <g id="line2d_27">
      <path clip-path="url(#p935f3d1d05)" d="M 67.425 37.537657 
L 493.2 37.537657 
" style="fill:none;stroke:#808080;stroke-linecap:square;stroke-width:0.8;"/>
     </g>
     <g id="line2d_28">
      <g>
       <use style="fill:#555555;stroke:#555555;stroke-width:0.8;" x="67.425" xlink:href="#m287518a98d" y="37.537657"/>
      </g>
     </g>
     <g id="text_15">
      <!-- 75 -->
      <g style="fill:#555555;" transform="translate(45.155 42.09672)scale(0.12 -0.12)">
       <use xlink:href="#DejaVuSans-55"/>
       <use x="63.623047" xlink:href="#DejaVuSans-53"/>
      </g>
     </g>
    </g>
    <g id="text_16">
     <!-- [V] -->
     <defs>
      <path d="M 28.609375 0 
L 0.78125 72.90625 
L 11.078125 72.90625 
L 34.1875 11.53125 
L 57.328125 72.90625 
L 67.578125 72.90625 
L 39.796875 0 
z
" id="DejaVuSans-86"/>
     </defs>
     <g style="fill:#555555;" transform="translate(20.96875 178.78625)rotate(-90)scale(0.12 -0.12)">
      <use xlink:href="#DejaVuSans-91"/>
      <use x="39.013672" xlink:href="#DejaVuSans-86"/>
      <use x="107.421875" xlink:href="#DejaVuSans-93"/>
     </g>
    </g>
   </g>
   <g id="line2d_29">
    <path clip-path="url(#p935f3d1d05)" d="M 86.778409 145.938643 
L 90.688189 145.932568 
L 94.597968 145.900172 
L 98.507748 145.848759 
L 102.417528 145.786695 
L 106.327307 145.715779 
L 110.237087 145.637532 
L 114.146866 145.553615 
L 118.056646 145.465699 
L 121.966426 145.375455 
L 125.876205 145.28457 
L 129.785985 145.194737 
L 133.695764 145.107659 
L 137.605544 145.025048 
L 141.515324 144.948624 
L 145.425103 144.880115 
L 149.334883 144.821259 
L 153.244663 144.773797 
L 157.154442 144.73948 
L 161.064222 144.720063 
L 164.974001 144.717305 
L 168.883781 144.732971 
L 172.793561 144.768826 
L 176.70334 144.826641 
L 180.61312 144.908182 
L 184.522899 145.01522 
L 188.432679 145.149519 
L 192.342459 145.312842 
L 196.252238 145.506948 
L 200.162018 145.733588 
L 204.071798 145.994503 
L 207.981577 146.291428 
L 211.891357 146.626082 
L 215.801136 147.000173 
L 219.710916 147.415391 
L 223.620696 147.873411 
L 227.530475 148.375884 
L 231.440255 148.92444 
L 235.350034 149.520686 
L 239.259814 150.1662 
L 243.169594 150.86253 
L 247.079373 151.611192 
L 250.989153 152.413668 
L 254.898933 153.2714 
L 258.808712 154.185791 
L 262.718492 155.158202 
L 266.628271 156.189944 
L 270.538051 157.282281 
L 274.447831 158.436426 
L 278.35761 159.653532 
L 282.26739 160.934697 
L 286.177169 162.280956 
L 290.086949 163.693279 
L 293.996729 165.172566 
L 297.906508 166.719646 
L 301.816288 168.335272 
L 305.726067 170.020119 
L 309.635847 171.774779 
L 313.545627 173.599758 
L 317.455406 175.495473 
L 321.365186 177.462247 
L 325.274966 179.500307 
L 329.184745 181.609779 
L 333.094525 183.790686 
L 337.004304 186.042944 
L 340.914084 188.366355 
L 344.823864 190.76061 
L 348.733643 193.225279 
L 352.643423 195.759811 
L 356.553202 198.36353 
L 360.462982 201.03563 
L 364.372762 203.775173 
L 368.282541 206.581086 
L 372.192321 209.452157 
L 376.102101 212.387028 
L 380.01188 215.384201 
L 383.92166 218.442023 
L 387.831439 221.558693 
L 391.741219 224.732254 
L 395.650999 227.960591 
L 399.560778 231.241426 
L 403.470558 234.572322 
L 407.380337 237.950673 
L 411.290117 241.373704 
L 415.199897 244.838471 
L 419.109676 248.341856 
L 423.019456 251.880567 
L 426.929236 255.451133 
L 430.839015 259.049908 
L 434.748795 262.673063 
L 438.658574 266.316588 
L 442.568354 269.976294 
L 446.478134 273.647804 
L 450.387913 277.32656 
L 454.297693 281.007818 
L 458.207472 284.686652 
L 462.117252 288.357948 
L 466.027032 292.01641 
L 469.936811 295.656558 
L 473.846591 299.272727 
" style="fill:none;stroke:#ff0000;stroke-linecap:square;stroke-width:2;"/>
   </g>
   <g id="line2d_30">
    <path clip-path="url(#p935f3d1d05)" d="M 86.778409 145.938643 
L 90.688189 145.932606 
L 94.597968 145.901111 
L 98.507748 145.854195 
L 102.417528 145.803865 
L 106.327307 145.755609 
L 110.237087 145.714607 
L 114.146866 145.686171 
L 118.056646 145.675589 
L 121.966426 145.688126 
L 125.876205 145.729013 
L 129.785985 145.803438 
L 133.695764 145.916537 
L 137.605544 146.073379 
L 141.515324 146.278958 
L 145.425103 146.538178 
L 149.334883 146.85584 
L 153.244663 147.236628 
L 157.154442 147.685096 
L 161.064222 148.205651 
L 164.974001 148.80254 
L 168.883781 149.479833 
L 172.793561 150.241405 
L 176.70334 151.090923 
L 180.61312 152.031828 
L 184.522899 153.067317 
L 188.432679 154.200326 
L 192.342459 155.433515 
L 196.252238 156.769247 
L 200.162018 158.209573 
L 204.071798 159.756216 
L 207.981577 161.410549 
L 211.891357 163.173583 
L 215.801136 165.045949 
L 219.710916 167.027881 
L 223.620696 169.1192 
L 227.530475 171.319299 
L 231.440255 173.627129 
L 235.350034 176.041182 
L 239.259814 178.559482 
L 243.169594 181.17957 
L 247.079373 183.898492 
L 250.989153 186.712789 
L 254.898933 189.618487 
L 258.808712 192.61109 
L 262.718492 195.685571 
L 266.628271 198.836368 
L 270.538051 202.057379 
L 274.447831 205.341957 
L 278.35761 208.682914 
L 282.26739 212.072513 
L 286.177169 215.502481 
L 290.086949 218.964003 
L 293.996729 222.447732 
L 297.906508 225.9438 
L 301.816288 229.44182 
L 305.726067 232.930907 
L 309.635847 236.399683 
L 313.545627 239.8363 
L 317.455406 243.228457 
L 321.365186 246.563417 
L 325.274966 249.828035 
L 329.184745 253.008782 
L 333.094525 256.091769 
L 337.004304 259.062785 
L 340.914084 261.907321 
L 344.823864 264.610611 
L 348.733643 267.157667 
L 352.643423 269.53332 
L 356.553202 271.722262 
L 360.462982 273.709089 
L 364.372762 275.478351 
L 368.282541 277.014596 
L 372.192321 278.30243 
L 376.102101 279.32656 
L 380.01188 280.071858 
L 383.92166 280.523414 
L 387.831439 280.666597 
L 391.741219 280.487118 
L 395.650999 279.971086 
L 399.560778 279.105083 
L 403.470558 277.876219 
L 407.380337 276.272207 
L 411.290117 274.281426 
L 415.199897 271.892992 
L 419.109676 269.096827 
L 423.019456 265.88373 
L 426.929236 262.245447 
L 430.839015 258.174738 
L 434.748795 253.665454 
L 438.658574 248.712601 
L 442.568354 243.312412 
L 446.478134 237.462414 
L 450.387913 231.161497 
L 454.297693 224.409978 
L 458.207472 217.209666 
L 462.117252 209.563921 
L 466.027032 201.477722 
L 469.936811 192.957712 
L 473.846591 184.012263 
" style="fill:none;stroke:#0000ff;stroke-linecap:square;stroke-width:2;"/>
   </g>
   <g id="line2d_31">
    <path clip-path="url(#p935f3d1d05)" d="M 86.778409 145.938643 
L 90.688189 145.932724 
L 94.597968 145.904059 
L 98.507748 145.871211 
L 102.417528 145.857364 
L 106.327307 145.879041 
L 110.237087 145.952027 
L 114.146866 146.091771 
L 118.056646 146.31316 
L 121.966426 146.630418 
L 125.876205 147.057017 
L 129.785985 147.605577 
L 133.695764 148.287767 
L 137.605544 149.114201 
L 141.515324 150.094346 
L 145.425103 151.236421 
L 149.334883 152.547307 
L 153.244663 154.032453 
L 157.154442 155.695797 
L 161.064222 157.539681 
L 164.974001 159.564784 
L 168.883781 161.770058 
L 172.793561 164.15267 
L 176.70334 166.707958 
L 180.61312 169.429398 
L 184.522899 172.308581 
L 188.432679 175.335199 
L 192.342459 178.497054 
L 196.252238 181.780066 
L 200.162018 185.168314 
L 204.071798 188.644071 
L 207.981577 192.187875 
L 211.891357 195.7786 
L 215.801136 199.393549 
L 219.710916 203.008565 
L 223.620696 206.598157 
L 227.530475 210.135635 
L 231.440255 213.593273 
L 235.350034 216.942476 
L 239.259814 220.153967 
L 243.169594 223.197989 
L 247.079373 226.044514 
L 250.989153 228.663472 
L 254.898933 231.024986 
L 258.808712 233.099615 
L 262.718492 234.858614 
L 266.628271 236.274188 
L 270.538051 237.319763 
L 274.447831 237.970255 
L 278.35761 238.202337 
L 282.26739 237.994714 
L 286.177169 237.328386 
L 290.086949 236.186915 
L 293.996729 234.556676 
L 297.906508 232.427106 
L 301.816288 229.790939 
L 305.726067 226.644422 
L 309.635847 222.987524 
L 313.545627 218.824114 
L 317.455406 214.16213 
L 321.365186 209.013719 
L 325.274966 203.395344 
L 329.184745 197.32788 
L 333.094525 190.83666 
L 337.004304 183.951508 
L 340.914084 176.706724 
L 344.823864 169.141044 
L 348.733643 161.297553 
L 352.643423 153.223574 
L 356.553202 144.970504 
L 360.462982 136.593621 
L 364.372762 128.15185 
L 368.282541 119.707481 
L 372.192321 111.32586 
L 376.102101 103.075029 
L 380.01188 95.025337 
L 383.92166 87.249011 
L 387.831439 79.819684 
L 391.741219 72.811906 
L 395.650999 66.300602 
L 399.560778 60.360524 
L 403.470558 55.065654 
L 407.380337 50.488606 
L 411.290117 46.69999 
L 415.199897 43.767775 
L 419.109676 41.756631 
L 423.019456 40.727273 
L 426.929236 40.735792 
L 430.839015 41.833003 
L 434.748795 44.06379 
L 438.658574 47.466472 
L 442.568354 52.072183 
L 446.478134 57.904285 
L 450.387913 64.977801 
L 454.297693 73.298898 
L 458.207472 82.864401 
L 462.117252 93.661364 
L 466.027032 105.66669 
L 469.936811 118.846813 
L 473.846591 133.157449 
" style="fill:none;stroke:#008000;stroke-linecap:square;stroke-width:2;"/>
   </g>
   <g id="line2d_32">
    <path clip-path="url(#p935f3d1d05)" d="M 86.778409 145.938643 
L 90.688189 145.933095 
L 94.597968 145.913191 
L 98.507748 145.92332 
L 102.417528 146.018847 
L 106.327307 146.245412 
L 110.237087 146.643589 
L 114.146866 147.248945 
L 118.056646 148.091365 
L 121.966426 149.19457 
L 125.876205 150.575731 
L 129.785985 152.245165 
L 133.695764 154.206128 
L 137.605544 156.45472 
L 141.515324 158.979901 
L 145.425103 161.763622 
L 149.334883 164.781085 
L 153.244663 168.001108 
L 157.154442 171.38662 
L 161.064222 174.89526 
L 164.974001 178.480088 
L 168.883781 182.090381 
L 172.793561 185.672529 
L 176.70334 189.170992 
L 180.61312 192.529314 
L 184.522899 195.691191 
L 188.432679 198.601542 
L 192.342459 201.207604 
L 196.252238 203.459999 
L 200.162018 205.313779 
L 204.071798 206.729405 
L 207.981577 207.673662 
L 211.891357 208.120486 
L 215.801136 208.051671 
L 219.710916 207.457463 
L 223.620696 206.337014 
L 227.530475 204.698678 
L 231.440255 202.560158 
L 235.350034 199.948481 
L 239.259814 196.899798 
L 243.169594 193.45902 
L 247.079373 189.679275 
L 250.989153 185.621202 
L 254.898933 181.352093 
L 258.808712 176.944874 
L 262.718492 172.47697 
L 266.628271 168.029043 
L 270.538051 163.683633 
L 274.447831 159.523734 
L 278.35761 155.631311 
L 282.26739 152.085792 
L 286.177169 148.962563 
L 290.086949 146.331496 
L 293.996729 144.255522 
L 297.906508 142.789298 
L 301.816288 141.977979 
L 305.726067 141.856127 
L 309.635847 142.446778 
L 313.545627 143.760694 
L 317.455406 145.795809 
L 321.365186 148.536896 
L 325.274966 151.955461 
L 329.184745 156.009871 
L 333.094525 160.645725 
L 337.004304 165.796473 
L 340.914084 171.384258 
L 344.823864 177.321007 
L 348.733643 183.50972 
L 352.643423 189.84597 
L 356.553202 196.219581 
L 360.462982 202.516449 
L 364.372762 208.620501 
L 368.282541 214.415737 
L 372.192321 219.788335 
L 376.102101 224.628777 
L 380.01188 228.833957 
L 383.92166 232.309243 
L 387.831439 234.970432 
L 391.741219 236.745587 
L 395.650999 237.576697 
L 399.560778 237.421138 
L 403.470558 236.252895 
L 407.380337 234.063521 
L 411.290117 230.862805 
L 415.199897 226.679132 
L 419.109676 221.55951 
L 423.019456 215.569271 
L 426.929236 208.791418 
L 430.839015 201.325649 
L 434.748795 193.287034 
L 438.658574 184.804384 
L 442.568354 176.018326 
L 446.478134 167.079096 
L 450.387913 158.144108 
L 454.297693 149.375306 
L 458.207472 140.936373 
L 462.117252 132.98981 
L 466.027032 125.693968 
L 469.936811 119.200049 
L 473.846591 113.649167 
" style="fill:none;stroke:#00bfbf;stroke-linecap:square;stroke-width:2;"/>
   </g>
   <g id="line2d_33">
    <path clip-path="url(#p935f3d1d05)" d="M 86.778409 145.938643 
L 90.688189 145.934211 
L 94.597968 145.940236 
L 98.507748 146.072417 
L 102.417528 146.461048 
L 106.327307 147.198951 
L 110.237087 148.344233 
L 114.146866 149.922672 
L 118.056646 151.929962 
L 121.966426 154.335034 
L 125.876205 157.084148 
L 129.785985 160.105536 
L 133.695764 163.31437 
L 137.605544 166.617854 
L 141.515324 169.920215 
L 145.425103 173.127413 
L 149.334883 176.151398 
L 153.244663 178.913775 
L 157.154442 181.348779 
L 161.064222 183.405479 
L 164.974001 185.049185 
L 168.883781 186.262057 
L 172.793561 187.04295 
L 176.70334 187.406553 
L 180.61312 187.381915 
L 184.522899 187.010452 
L 188.432679 186.343571 
L 192.342459 185.440021 
L 196.252238 184.363109 
L 200.162018 183.177908 
L 204.071798 181.948565 
L 207.981577 180.735825 
L 211.891357 179.59485 
L 215.801136 178.573412 
L 219.710916 177.710498 
L 223.620696 177.035377 
L 227.530475 176.567107 
L 231.440255 176.314507 
L 235.350034 176.276536 
L 239.259814 176.443049 
L 243.169594 176.795873 
L 247.079373 177.310139 
L 250.989153 177.955787 
L 254.898933 178.699184 
L 258.808712 179.50478 
L 262.718492 180.336714 
L 266.628271 181.160337 
L 270.538051 181.943564 
L 274.447831 182.658039 
L 278.35761 183.280057 
L 282.26739 183.791234 
L 286.177169 184.17891 
L 290.086949 184.436288 
L 293.996729 184.562321 
L 297.906508 184.561373 
L 301.816288 184.44267 
L 305.726067 184.2196 
L 309.635847 183.908882 
L 313.545627 183.529654 
L 317.455406 183.102525 
L 321.365186 182.648634 
L 325.274966 182.188744 
L 329.184745 181.742416 
L 333.094525 181.327295 
L 337.004304 180.958511 
L 340.914084 180.648237 
L 344.823864 180.405386 
L 348.733643 180.235476 
L 352.643423 180.140631 
L 356.553202 180.119729 
L 360.462982 180.168675 
L 364.372762 180.280766 
L 368.282541 180.447153 
L 372.192321 180.657352 
L 376.102101 180.899783 
L 380.01188 181.162326 
L 383.92166 181.432858 
L 387.831439 181.699749 
L 391.741219 181.952309 
L 395.650999 182.181166 
L 399.560778 182.378559 
L 403.470558 182.538546 
L 407.380337 182.657131 
L 411.290117 182.732289 
L 415.199897 182.763916 
L 419.109676 182.753708 
L 423.019456 182.70496 
L 426.929236 182.622326 
L 430.839015 182.511536 
L 434.748795 182.379084 
L 438.658574 182.23191 
L 442.568354 182.077083 
L 446.478134 181.921504 
L 450.387913 181.771633 
L 454.297693 181.63325 
L 458.207472 181.511269 
L 462.117252 181.409593 
L 466.027032 181.331019 
L 469.936811 181.277207 
L 473.846591 181.24868 
" style="fill:none;stroke:#bf00bf;stroke-linecap:square;stroke-width:2;"/>
   </g>
   <g id="line2d_34">
    <path clip-path="url(#p935f3d1d05)" d="M 86.778409 145.938643 
L 90.688189 145.937217 
L 94.597968 146.010029 
L 98.507748 146.42152 
L 102.417528 147.37632 
L 106.327307 148.91436 
L 110.237087 150.967459 
L 114.146866 153.412287 
L 118.056646 156.106081 
L 121.966426 158.910006 
L 125.876205 161.702904 
L 129.785985 164.387977 
L 133.695764 166.894555 
L 137.605544 169.176713 
L 141.515324 171.210066 
L 145.425103 172.987709 
L 149.334883 174.516 
L 153.244663 175.810599 
L 157.154442 176.893028 
L 161.064222 177.787853 
L 164.974001 178.520506 
L 168.883781 179.115713 
L 172.793561 179.596438 
L 176.70334 179.983261 
L 180.61312 180.29409 
L 184.522899 180.544113 
L 188.432679 180.745935 
L 192.342459 180.909805 
L 196.252238 181.043911 
L 200.162018 181.154687 
L 204.071798 181.247121 
L 207.981577 181.325029 
L 211.891357 181.391311 
L 215.801136 181.448153 
L 219.710916 181.497209 
L 223.620696 181.539733 
L 227.530475 181.576691 
L 231.440255 181.608843 
L 235.350034 181.636802 
L 239.259814 181.661074 
L 243.169594 181.682097 
L 247.079373 181.700249 
L 250.989153 181.715869 
L 254.898933 181.729264 
L 258.808712 181.740708 
L 262.718492 181.750453 
L 266.628271 181.758725 
L 270.538051 181.765726 
L 274.447831 181.771637 
L 278.35761 181.776618 
L 282.26739 181.78081 
L 286.177169 181.784333 
L 290.086949 181.787293 
L 293.996729 181.78978 
L 297.906508 181.79187 
L 301.816288 181.793628 
L 305.726067 181.795108 
L 309.635847 181.796356 
L 313.545627 181.79741 
L 317.455406 181.798301 
L 321.365186 181.799056 
L 325.274966 181.799696 
L 329.184745 181.800239 
L 333.094525 181.800701 
L 337.004304 181.801093 
L 340.914084 181.801427 
L 344.823864 181.801711 
L 348.733643 181.801953 
L 352.643423 181.802159 
L 356.553202 181.802334 
L 360.462982 181.802483 
L 364.372762 181.80261 
L 368.282541 181.802718 
L 372.192321 181.802809 
L 376.102101 181.802887 
L 380.01188 181.802953 
L 383.92166 181.803008 
L 387.831439 181.803056 
L 391.741219 181.803096 
L 395.650999 181.80313 
L 399.560778 181.803158 
L 403.470558 181.803183 
L 407.380337 181.803203 
L 411.290117 181.803221 
L 415.199897 181.803236 
L 419.109676 181.803248 
L 423.019456 181.803259 
L 426.929236 181.803268 
L 430.839015 181.803275 
L 434.748795 181.803282 
L 438.658574 181.803287 
L 442.568354 181.803292 
L 446.478134 181.803296 
L 450.387913 181.803299 
L 454.297693 181.803302 
L 458.207472 181.803304 
L 462.117252 181.803306 
L 466.027032 181.803308 
L 469.936811 181.80331 
L 473.846591 181.803311 
" style="fill:none;stroke:#bfbf00;stroke-linecap:square;stroke-width:2;"/>
   </g>
   <g id="line2d_35">
    <path clip-path="url(#p935f3d1d05)" d="M 86.778409 145.938643 
L 90.688189 145.943259 
L 94.597968 146.136107 
L 98.507748 146.918831 
L 102.417528 148.360651 
L 106.327307 150.282324 
L 110.237087 152.499815 
L 114.146866 154.87573 
L 118.056646 157.308869 
L 121.966426 159.723703 
L 125.876205 162.064655 
L 129.785985 164.292325 
L 133.695764 166.380348 
L 137.605544 168.312693 
L 141.515324 170.081388 
L 145.425103 171.684621 
L 149.334883 173.125193 
L 153.244663 174.409249 
L 157.154442 175.545255 
L 161.064222 176.543188 
L 164.974001 177.41389 
L 168.883781 178.168577 
L 172.793561 178.818456 
L 176.70334 179.374452 
L 180.61312 179.847004 
L 184.522899 180.245933 
L 188.432679 180.580353 
L 192.342459 180.858628 
L 196.252238 181.08836 
L 200.162018 181.276391 
L 204.071798 181.428832 
L 207.981577 181.551102 
L 211.891357 181.647967 
L 215.801136 181.723593 
L 219.710916 181.781596 
L 223.620696 181.825097 
L 227.530475 181.856769 
L 231.440255 181.878887 
L 235.350034 181.893377 
L 239.259814 181.901855 
L 243.169594 181.905667 
L 247.079373 181.90593 
L 250.989153 181.903556 
L 254.898933 181.89929 
L 258.808712 181.893729 
L 262.718492 181.887347 
L 266.628271 181.880519 
L 270.538051 181.87353 
L 274.447831 181.866596 
L 278.35761 181.859878 
L 282.26739 181.853487 
L 286.177169 181.847498 
L 290.086949 181.841958 
L 293.996729 181.836887 
L 297.906508 181.832292 
L 301.816288 181.828164 
L 305.726067 181.824485 
L 309.635847 181.82123 
L 313.545627 181.818372 
L 317.455406 181.815878 
L 321.365186 181.813717 
L 325.274966 181.811856 
L 329.184745 181.810264 
L 333.094525 181.808912 
L 337.004304 181.80777 
L 340.914084 181.806813 
L 344.823864 181.806017 
L 348.733643 181.805359 
L 352.643423 181.804822 
L 356.553202 181.804386 
L 360.462982 181.804036 
L 364.372762 181.803759 
L 368.282541 181.803543 
L 372.192321 181.803378 
L 376.102101 181.803253 
L 380.01188 181.803163 
L 383.92166 181.8031 
L 387.831439 181.803059 
L 391.741219 181.803035 
L 395.650999 181.803024 
L 399.560778 181.803023 
L 403.470558 181.80303 
L 407.380337 181.803043 
L 411.290117 181.803059 
L 415.199897 181.803077 
L 419.109676 181.803097 
L 423.019456 181.803117 
L 426.929236 181.803137 
L 430.839015 181.803156 
L 434.748795 181.803174 
L 438.658574 181.803192 
L 442.568354 181.803207 
L 446.478134 181.803222 
L 450.387913 181.803235 
L 454.297693 181.803247 
L 458.207472 181.803258 
L 462.117252 181.803267 
L 466.027032 181.803275 
L 469.936811 181.803282 
L 473.846591 181.803288 
" style="fill:none;stroke:#000000;stroke-linecap:square;stroke-width:2;"/>
   </g>
   <g id="patch_3">
    <path d="M 67.425 312.2 
L 67.425 27.8 
" style="fill:none;stroke:#ffffff;stroke-linecap:square;stroke-linejoin:miter;"/>
   </g>
   <g id="patch_4">
    <path d="M 493.2 312.2 
L 493.2 27.8 
" style="fill:none;stroke:#ffffff;stroke-linecap:square;stroke-linejoin:miter;"/>
   </g>
   <g id="patch_5">
    <path d="M 67.425 312.2 
L 493.2 312.2 
" style="fill:none;stroke:#ffffff;stroke-linecap:square;stroke-linejoin:miter;"/>
   </g>
   <g id="patch_6">
    <path d="M 67.425 27.8 
L 493.2 27.8 
" style="fill:none;stroke:#ffffff;stroke-linecap:square;stroke-linejoin:miter;"/>
   </g>
   <g id="text_17">
    <!-- step response versus $I_D$ -->
    <defs>
     <path d="M 18.109375 8.203125 
L 18.109375 -20.796875 
L 9.078125 -20.796875 
L 9.078125 54.6875 
L 18.109375 54.6875 
L 18.109375 46.390625 
Q 20.953125 51.265625 25.265625 53.625 
Q 29.59375 56 35.59375 56 
Q 45.5625 56 51.78125 48.09375 
Q 58.015625 40.1875 58.015625 27.296875 
Q 58.015625 14.40625 51.78125 6.484375 
Q 45.5625 -1.421875 35.59375 -1.421875 
Q 29.59375 -1.421875 25.265625 0.953125 
Q 20.953125 3.328125 18.109375 8.203125 
z
M 48.6875 27.296875 
Q 48.6875 37.203125 44.609375 42.84375 
Q 40.53125 48.484375 33.40625 48.484375 
Q 26.265625 48.484375 22.1875 42.84375 
Q 18.109375 37.203125 18.109375 27.296875 
Q 18.109375 17.390625 22.1875 11.75 
Q 26.265625 6.109375 33.40625 6.109375 
Q 40.53125 6.109375 44.609375 11.75 
Q 48.6875 17.390625 48.6875 27.296875 
z
" id="DejaVuSans-112"/>
     <path d="M 41.109375 46.296875 
Q 39.59375 47.171875 37.8125 47.578125 
Q 36.03125 48 33.890625 48 
Q 26.265625 48 22.1875 43.046875 
Q 18.109375 38.09375 18.109375 28.8125 
L 18.109375 0 
L 9.078125 0 
L 9.078125 54.6875 
L 18.109375 54.6875 
L 18.109375 46.1875 
Q 20.953125 51.171875 25.484375 53.578125 
Q 30.03125 56 36.53125 56 
Q 37.453125 56 38.578125 55.875 
Q 39.703125 55.765625 41.0625 55.515625 
z
" id="DejaVuSans-114"/>
     <path d="M 30.609375 48.390625 
Q 23.390625 48.390625 19.1875 42.75 
Q 14.984375 37.109375 14.984375 27.296875 
Q 14.984375 17.484375 19.15625 11.84375 
Q 23.34375 6.203125 30.609375 6.203125 
Q 37.796875 6.203125 41.984375 11.859375 
Q 46.1875 17.53125 46.1875 27.296875 
Q 46.1875 37.015625 41.984375 42.703125 
Q 37.796875 48.390625 30.609375 48.390625 
z
M 30.609375 56 
Q 42.328125 56 49.015625 48.375 
Q 55.71875 40.765625 55.71875 27.296875 
Q 55.71875 13.875 49.015625 6.21875 
Q 42.328125 -1.421875 30.609375 -1.421875 
Q 18.84375 -1.421875 12.171875 6.21875 
Q 5.515625 13.875 5.515625 27.296875 
Q 5.515625 40.765625 12.171875 48.375 
Q 18.84375 56 30.609375 56 
z
" id="DejaVuSans-111"/>
     <path d="M 54.890625 33.015625 
L 54.890625 0 
L 45.90625 0 
L 45.90625 32.71875 
Q 45.90625 40.484375 42.875 44.328125 
Q 39.84375 48.1875 33.796875 48.1875 
Q 26.515625 48.1875 22.3125 43.546875 
Q 18.109375 38.921875 18.109375 30.90625 
L 18.109375 0 
L 9.078125 0 
L 9.078125 54.6875 
L 18.109375 54.6875 
L 18.109375 46.1875 
Q 21.34375 51.125 25.703125 53.5625 
Q 30.078125 56 35.796875 56 
Q 45.21875 56 50.046875 50.171875 
Q 54.890625 44.34375 54.890625 33.015625 
z
" id="DejaVuSans-110"/>
     <path d="M 2.984375 54.6875 
L 12.5 54.6875 
L 29.59375 8.796875 
L 46.6875 54.6875 
L 56.203125 54.6875 
L 35.6875 0 
L 23.484375 0 
z
" id="DejaVuSans-118"/>
     <path d="M 16.890625 72.90625 
L 26.8125 72.90625 
L 12.59375 0 
L 2.6875 0 
z
" id="DejaVuSans-Oblique-73"/>
     <path d="M 16.890625 72.90625 
L 38.09375 72.90625 
Q 54.984375 72.90625 63.59375 65.75 
Q 72.21875 58.59375 72.21875 44.484375 
Q 72.21875 35.15625 68.9375 26.53125 
Q 65.671875 17.921875 59.90625 12.015625 
Q 54.109375 5.953125 45.171875 2.96875 
Q 36.234375 0 24.03125 0 
L 2.6875 0 
z
M 25.203125 64.796875 
L 14.203125 8.109375 
L 27.09375 8.109375 
Q 43.65625 8.109375 52.734375 17.625 
Q 61.8125 27.15625 61.8125 44.484375 
Q 61.8125 54.984375 55.953125 59.890625 
Q 50.09375 64.796875 37.59375 64.796875 
z
" id="DejaVuSans-Oblique-68"/>
    </defs>
    <g transform="translate(209.2725 21.8)scale(0.12 -0.12)">
     <use transform="translate(0 0.09375)" xlink:href="#DejaVuSans-115"/>
     <use transform="translate(52.099609 0.09375)" xlink:href="#DejaVuSans-116"/>
     <use transform="translate(91.308594 0.09375)" xlink:href="#DejaVuSans-101"/>
     <use transform="translate(152.832031 0.09375)" xlink:href="#DejaVuSans-112"/>
     <use transform="translate(216.308594 0.09375)" xlink:href="#DejaVuSans-32"/>
     <use transform="translate(248.095703 0.09375)" xlink:href="#DejaVuSans-114"/>
     <use transform="translate(289.208984 0.09375)" xlink:href="#DejaVuSans-101"/>
     <use transform="translate(350.732422 0.09375)" xlink:href="#DejaVuSans-115"/>
     <use transform="translate(402.832031 0.09375)" xlink:href="#DejaVuSans-112"/>
     <use transform="translate(466.308594 0.09375)" xlink:href="#DejaVuSans-111"/>
     <use transform="translate(527.490234 0.09375)" xlink:href="#DejaVuSans-110"/>
     <use transform="translate(590.869141 0.09375)" xlink:href="#DejaVuSans-115"/>
     <use transform="translate(642.96875 0.09375)" xlink:href="#DejaVuSans-101"/>
     <use transform="translate(704.492188 0.09375)" xlink:href="#DejaVuSans-32"/>
     <use transform="translate(736.279297 0.09375)" xlink:href="#DejaVuSans-118"/>
     <use transform="translate(795.458984 0.09375)" xlink:href="#DejaVuSans-101"/>
     <use transform="translate(856.982422 0.09375)" xlink:href="#DejaVuSans-114"/>
     <use transform="translate(898.095703 0.09375)" xlink:href="#DejaVuSans-115"/>
     <use transform="translate(950.195312 0.09375)" xlink:href="#DejaVuSans-117"/>
     <use transform="translate(1013.574219 0.09375)" xlink:href="#DejaVuSans-115"/>
     <use transform="translate(1065.673828 0.09375)" xlink:href="#DejaVuSans-32"/>
     <use transform="translate(1097.460938 0.09375)" xlink:href="#DejaVuSans-Oblique-73"/>
     <use transform="translate(1126.953125 -16.3125)scale(0.7)" xlink:href="#DejaVuSans-Oblique-68"/>
    </g>
   </g>
   <g id="legend_1">
    <g id="patch_7">
     <path d="M 74.425 120.4325 
L 206.306875 120.4325 
Q 208.306875 120.4325 208.306875 118.4325 
L 208.306875 34.8 
Q 208.306875 32.8 206.306875 32.8 
L 74.425 32.8 
Q 72.425 32.8 72.425 34.8 
L 72.425 118.4325 
Q 72.425 120.4325 74.425 120.4325 
z
" style="fill:#e5e5e5;opacity:0.8;stroke:#cccccc;stroke-linejoin:miter;stroke-width:0.5;"/>
    </g>
    <g id="line2d_36">
     <path d="M 74.425 40.418125 
L 84.425 40.418125 
" style="fill:none;stroke:#ff0000;stroke-linecap:square;stroke-width:2;"/>
    </g>
    <g id="line2d_37"/>
    <g id="text_18">
     <!-- gain, I_D =  1.0e-12 -->
     <defs>
      <path d="M 45.40625 27.984375 
Q 45.40625 37.75 41.375 43.109375 
Q 37.359375 48.484375 30.078125 48.484375 
Q 22.859375 48.484375 18.828125 43.109375 
Q 14.796875 37.75 14.796875 27.984375 
Q 14.796875 18.265625 18.828125 12.890625 
Q 22.859375 7.515625 30.078125 7.515625 
Q 37.359375 7.515625 41.375 12.890625 
Q 45.40625 18.265625 45.40625 27.984375 
z
M 54.390625 6.78125 
Q 54.390625 -7.171875 48.1875 -13.984375 
Q 42 -20.796875 29.203125 -20.796875 
Q 24.46875 -20.796875 20.265625 -20.09375 
Q 16.0625 -19.390625 12.109375 -17.921875 
L 12.109375 -9.1875 
Q 16.0625 -11.328125 19.921875 -12.34375 
Q 23.78125 -13.375 27.78125 -13.375 
Q 36.625 -13.375 41.015625 -8.765625 
Q 45.40625 -4.15625 45.40625 5.171875 
L 45.40625 9.625 
Q 42.625 4.78125 38.28125 2.390625 
Q 33.9375 0 27.875 0 
Q 17.828125 0 11.671875 7.65625 
Q 5.515625 15.328125 5.515625 27.984375 
Q 5.515625 40.671875 11.671875 48.328125 
Q 17.828125 56 27.875 56 
Q 33.9375 56 38.28125 53.609375 
Q 42.625 51.21875 45.40625 46.390625 
L 45.40625 54.6875 
L 54.390625 54.6875 
z
" id="DejaVuSans-103"/>
      <path d="M 34.28125 27.484375 
Q 23.390625 27.484375 19.1875 25 
Q 14.984375 22.515625 14.984375 16.5 
Q 14.984375 11.71875 18.140625 8.90625 
Q 21.296875 6.109375 26.703125 6.109375 
Q 34.1875 6.109375 38.703125 11.40625 
Q 43.21875 16.703125 43.21875 25.484375 
L 43.21875 27.484375 
z
M 52.203125 31.203125 
L 52.203125 0 
L 43.21875 0 
L 43.21875 8.296875 
Q 40.140625 3.328125 35.546875 0.953125 
Q 30.953125 -1.421875 24.3125 -1.421875 
Q 15.921875 -1.421875 10.953125 3.296875 
Q 6 8.015625 6 15.921875 
Q 6 25.140625 12.171875 29.828125 
Q 18.359375 34.515625 30.609375 34.515625 
L 43.21875 34.515625 
L 43.21875 35.40625 
Q 43.21875 41.609375 39.140625 45 
Q 35.0625 48.390625 27.6875 48.390625 
Q 23 48.390625 18.546875 47.265625 
Q 14.109375 46.140625 10.015625 43.890625 
L 10.015625 52.203125 
Q 14.9375 54.109375 19.578125 55.046875 
Q 24.21875 56 28.609375 56 
Q 40.484375 56 46.34375 49.84375 
Q 52.203125 43.703125 52.203125 31.203125 
z
" id="DejaVuSans-97"/>
      <path d="M 11.71875 12.40625 
L 22.015625 12.40625 
L 22.015625 4 
L 14.015625 -11.625 
L 7.71875 -11.625 
L 11.71875 4 
z
" id="DejaVuSans-44"/>
      <path d="M 9.8125 72.90625 
L 19.671875 72.90625 
L 19.671875 0 
L 9.8125 0 
z
" id="DejaVuSans-73"/>
      <path d="M 50.984375 -16.609375 
L 50.984375 -23.578125 
L -0.984375 -23.578125 
L -0.984375 -16.609375 
z
" id="DejaVuSans-95"/>
      <path d="M 19.671875 64.796875 
L 19.671875 8.109375 
L 31.59375 8.109375 
Q 46.6875 8.109375 53.6875 14.9375 
Q 60.6875 21.78125 60.6875 36.53125 
Q 60.6875 51.171875 53.6875 57.984375 
Q 46.6875 64.796875 31.59375 64.796875 
z
M 9.8125 72.90625 
L 30.078125 72.90625 
Q 51.265625 72.90625 61.171875 64.09375 
Q 71.09375 55.28125 71.09375 36.53125 
Q 71.09375 17.671875 61.125 8.828125 
Q 51.171875 0 30.078125 0 
L 9.8125 0 
z
" id="DejaVuSans-68"/>
      <path d="M 10.59375 45.40625 
L 73.1875 45.40625 
L 73.1875 37.203125 
L 10.59375 37.203125 
z
M 10.59375 25.484375 
L 73.1875 25.484375 
L 73.1875 17.1875 
L 10.59375 17.1875 
z
" id="DejaVuSans-61"/>
      <path d="M 10.6875 12.40625 
L 21 12.40625 
L 21 0 
L 10.6875 0 
z
" id="DejaVuSans-46"/>
      <path d="M 4.890625 31.390625 
L 31.203125 31.390625 
L 31.203125 23.390625 
L 4.890625 23.390625 
z
" id="DejaVuSans-45"/>
     </defs>
     <g transform="translate(86.425 43.918125)scale(0.12 -0.12)">
      <use xlink:href="#DejaVuSans-103"/>
      <use x="63.476562" xlink:href="#DejaVuSans-97"/>
      <use x="124.755859" xlink:href="#DejaVuSans-105"/>
      <use x="152.539062" xlink:href="#DejaVuSans-110"/>
      <use x="215.917969" xlink:href="#DejaVuSans-44"/>
      <use x="247.705078" xlink:href="#DejaVuSans-32"/>
      <use x="279.492188" xlink:href="#DejaVuSans-73"/>
      <use x="308.984375" xlink:href="#DejaVuSans-95"/>
      <use x="358.984375" xlink:href="#DejaVuSans-68"/>
      <use x="435.986328" xlink:href="#DejaVuSans-32"/>
      <use x="467.773438" xlink:href="#DejaVuSans-61"/>
      <use x="551.5625" xlink:href="#DejaVuSans-32"/>
      <use x="583.349609" xlink:href="#DejaVuSans-32"/>
      <use x="615.136719" xlink:href="#DejaVuSans-49"/>
      <use x="678.759766" xlink:href="#DejaVuSans-46"/>
      <use x="710.546875" xlink:href="#DejaVuSans-48"/>
      <use x="774.169922" xlink:href="#DejaVuSans-101"/>
      <use x="835.693359" xlink:href="#DejaVuSans-45"/>
      <use x="871.777344" xlink:href="#DejaVuSans-49"/>
      <use x="935.400391" xlink:href="#DejaVuSans-50"/>
     </g>
    </g>
    <g id="line2d_38">
     <path d="M 74.425 52.365625 
L 84.425 52.365625 
" style="fill:none;stroke:#0000ff;stroke-linecap:square;stroke-width:2;"/>
    </g>
    <g id="line2d_39"/>
    <g id="text_19">
     <!-- gain, I_D =  1.0e-11 -->
     <g transform="translate(86.425 55.865625)scale(0.12 -0.12)">
      <use xlink:href="#DejaVuSans-103"/>
      <use x="63.476562" xlink:href="#DejaVuSans-97"/>
      <use x="124.755859" xlink:href="#DejaVuSans-105"/>
      <use x="152.539062" xlink:href="#DejaVuSans-110"/>
      <use x="215.917969" xlink:href="#DejaVuSans-44"/>
      <use x="247.705078" xlink:href="#DejaVuSans-32"/>
      <use x="279.492188" xlink:href="#DejaVuSans-73"/>
      <use x="308.984375" xlink:href="#DejaVuSans-95"/>
      <use x="358.984375" xlink:href="#DejaVuSans-68"/>
      <use x="435.986328" xlink:href="#DejaVuSans-32"/>
      <use x="467.773438" xlink:href="#DejaVuSans-61"/>
      <use x="551.5625" xlink:href="#DejaVuSans-32"/>
      <use x="583.349609" xlink:href="#DejaVuSans-32"/>
      <use x="615.136719" xlink:href="#DejaVuSans-49"/>
      <use x="678.759766" xlink:href="#DejaVuSans-46"/>
      <use x="710.546875" xlink:href="#DejaVuSans-48"/>
      <use x="774.169922" xlink:href="#DejaVuSans-101"/>
      <use x="835.693359" xlink:href="#DejaVuSans-45"/>
      <use x="871.777344" xlink:href="#DejaVuSans-49"/>
      <use x="935.400391" xlink:href="#DejaVuSans-49"/>
     </g>
    </g>
    <g id="line2d_40">
     <path d="M 74.425 64.313125 
L 84.425 64.313125 
" style="fill:none;stroke:#008000;stroke-linecap:square;stroke-width:2;"/>
    </g>
    <g id="line2d_41"/>
    <g id="text_20">
     <!-- gain, I_D =  1.0e-10 -->
     <g transform="translate(86.425 67.813125)scale(0.12 -0.12)">
      <use xlink:href="#DejaVuSans-103"/>
      <use x="63.476562" xlink:href="#DejaVuSans-97"/>
      <use x="124.755859" xlink:href="#DejaVuSans-105"/>
      <use x="152.539062" xlink:href="#DejaVuSans-110"/>
      <use x="215.917969" xlink:href="#DejaVuSans-44"/>
      <use x="247.705078" xlink:href="#DejaVuSans-32"/>
      <use x="279.492188" xlink:href="#DejaVuSans-73"/>
      <use x="308.984375" xlink:href="#DejaVuSans-95"/>
      <use x="358.984375" xlink:href="#DejaVuSans-68"/>
      <use x="435.986328" xlink:href="#DejaVuSans-32"/>
      <use x="467.773438" xlink:href="#DejaVuSans-61"/>
      <use x="551.5625" xlink:href="#DejaVuSans-32"/>
      <use x="583.349609" xlink:href="#DejaVuSans-32"/>
      <use x="615.136719" xlink:href="#DejaVuSans-49"/>
      <use x="678.759766" xlink:href="#DejaVuSans-46"/>
      <use x="710.546875" xlink:href="#DejaVuSans-48"/>
      <use x="774.169922" xlink:href="#DejaVuSans-101"/>
      <use x="835.693359" xlink:href="#DejaVuSans-45"/>
      <use x="871.777344" xlink:href="#DejaVuSans-49"/>
      <use x="935.400391" xlink:href="#DejaVuSans-48"/>
     </g>
    </g>
    <g id="line2d_42">
     <path d="M 74.425 76.260625 
L 84.425 76.260625 
" style="fill:none;stroke:#00bfbf;stroke-linecap:square;stroke-width:2;"/>
    </g>
    <g id="line2d_43"/>
    <g id="text_21">
     <!-- gain, I_D =  1.0e-09 -->
     <defs>
      <path d="M 10.984375 1.515625 
L 10.984375 10.5 
Q 14.703125 8.734375 18.5 7.8125 
Q 22.3125 6.890625 25.984375 6.890625 
Q 35.75 6.890625 40.890625 13.453125 
Q 46.046875 20.015625 46.78125 33.40625 
Q 43.953125 29.203125 39.59375 26.953125 
Q 35.25 24.703125 29.984375 24.703125 
Q 19.046875 24.703125 12.671875 31.3125 
Q 6.296875 37.9375 6.296875 49.421875 
Q 6.296875 60.640625 12.9375 67.421875 
Q 19.578125 74.21875 30.609375 74.21875 
Q 43.265625 74.21875 49.921875 64.515625 
Q 56.59375 54.828125 56.59375 36.375 
Q 56.59375 19.140625 48.40625 8.859375 
Q 40.234375 -1.421875 26.421875 -1.421875 
Q 22.703125 -1.421875 18.890625 -0.6875 
Q 15.09375 0.046875 10.984375 1.515625 
z
M 30.609375 32.421875 
Q 37.25 32.421875 41.125 36.953125 
Q 45.015625 41.5 45.015625 49.421875 
Q 45.015625 57.28125 41.125 61.84375 
Q 37.25 66.40625 30.609375 66.40625 
Q 23.96875 66.40625 20.09375 61.84375 
Q 16.21875 57.28125 16.21875 49.421875 
Q 16.21875 41.5 20.09375 36.953125 
Q 23.96875 32.421875 30.609375 32.421875 
z
" id="DejaVuSans-57"/>
     </defs>
     <g transform="translate(86.425 79.760625)scale(0.12 -0.12)">
      <use xlink:href="#DejaVuSans-103"/>
      <use x="63.476562" xlink:href="#DejaVuSans-97"/>
      <use x="124.755859" xlink:href="#DejaVuSans-105"/>
      <use x="152.539062" xlink:href="#DejaVuSans-110"/>
      <use x="215.917969" xlink:href="#DejaVuSans-44"/>
      <use x="247.705078" xlink:href="#DejaVuSans-32"/>
      <use x="279.492188" xlink:href="#DejaVuSans-73"/>
      <use x="308.984375" xlink:href="#DejaVuSans-95"/>
      <use x="358.984375" xlink:href="#DejaVuSans-68"/>
      <use x="435.986328" xlink:href="#DejaVuSans-32"/>
      <use x="467.773438" xlink:href="#DejaVuSans-61"/>
      <use x="551.5625" xlink:href="#DejaVuSans-32"/>
      <use x="583.349609" xlink:href="#DejaVuSans-32"/>
      <use x="615.136719" xlink:href="#DejaVuSans-49"/>
      <use x="678.759766" xlink:href="#DejaVuSans-46"/>
      <use x="710.546875" xlink:href="#DejaVuSans-48"/>
      <use x="774.169922" xlink:href="#DejaVuSans-101"/>
      <use x="835.693359" xlink:href="#DejaVuSans-45"/>
      <use x="871.777344" xlink:href="#DejaVuSans-48"/>
      <use x="935.400391" xlink:href="#DejaVuSans-57"/>
     </g>
    </g>
    <g id="line2d_44">
     <path d="M 74.425 88.208125 
L 84.425 88.208125 
" style="fill:none;stroke:#bf00bf;stroke-linecap:square;stroke-width:2;"/>
    </g>
    <g id="line2d_45"/>
    <g id="text_22">
     <!-- gain, I_D =  1.0e-08 -->
     <defs>
      <path d="M 31.78125 34.625 
Q 24.75 34.625 20.71875 30.859375 
Q 16.703125 27.09375 16.703125 20.515625 
Q 16.703125 13.921875 20.71875 10.15625 
Q 24.75 6.390625 31.78125 6.390625 
Q 38.8125 6.390625 42.859375 10.171875 
Q 46.921875 13.96875 46.921875 20.515625 
Q 46.921875 27.09375 42.890625 30.859375 
Q 38.875 34.625 31.78125 34.625 
z
M 21.921875 38.8125 
Q 15.578125 40.375 12.03125 44.71875 
Q 8.5 49.078125 8.5 55.328125 
Q 8.5 64.0625 14.71875 69.140625 
Q 20.953125 74.21875 31.78125 74.21875 
Q 42.671875 74.21875 48.875 69.140625 
Q 55.078125 64.0625 55.078125 55.328125 
Q 55.078125 49.078125 51.53125 44.71875 
Q 48 40.375 41.703125 38.8125 
Q 48.828125 37.15625 52.796875 32.3125 
Q 56.78125 27.484375 56.78125 20.515625 
Q 56.78125 9.90625 50.3125 4.234375 
Q 43.84375 -1.421875 31.78125 -1.421875 
Q 19.734375 -1.421875 13.25 4.234375 
Q 6.78125 9.90625 6.78125 20.515625 
Q 6.78125 27.484375 10.78125 32.3125 
Q 14.796875 37.15625 21.921875 38.8125 
z
M 18.3125 54.390625 
Q 18.3125 48.734375 21.84375 45.5625 
Q 25.390625 42.390625 31.78125 42.390625 
Q 38.140625 42.390625 41.71875 45.5625 
Q 45.3125 48.734375 45.3125 54.390625 
Q 45.3125 60.0625 41.71875 63.234375 
Q 38.140625 66.40625 31.78125 66.40625 
Q 25.390625 66.40625 21.84375 63.234375 
Q 18.3125 60.0625 18.3125 54.390625 
z
" id="DejaVuSans-56"/>
     </defs>
     <g transform="translate(86.425 91.708125)scale(0.12 -0.12)">
      <use xlink:href="#DejaVuSans-103"/>
      <use x="63.476562" xlink:href="#DejaVuSans-97"/>
      <use x="124.755859" xlink:href="#DejaVuSans-105"/>
      <use x="152.539062" xlink:href="#DejaVuSans-110"/>
      <use x="215.917969" xlink:href="#DejaVuSans-44"/>
      <use x="247.705078" xlink:href="#DejaVuSans-32"/>
      <use x="279.492188" xlink:href="#DejaVuSans-73"/>
      <use x="308.984375" xlink:href="#DejaVuSans-95"/>
      <use x="358.984375" xlink:href="#DejaVuSans-68"/>
      <use x="435.986328" xlink:href="#DejaVuSans-32"/>
      <use x="467.773438" xlink:href="#DejaVuSans-61"/>
      <use x="551.5625" xlink:href="#DejaVuSans-32"/>
      <use x="583.349609" xlink:href="#DejaVuSans-32"/>
      <use x="615.136719" xlink:href="#DejaVuSans-49"/>
      <use x="678.759766" xlink:href="#DejaVuSans-46"/>
      <use x="710.546875" xlink:href="#DejaVuSans-48"/>
      <use x="774.169922" xlink:href="#DejaVuSans-101"/>
      <use x="835.693359" xlink:href="#DejaVuSans-45"/>
      <use x="871.777344" xlink:href="#DejaVuSans-48"/>
      <use x="935.400391" xlink:href="#DejaVuSans-56"/>
     </g>
    </g>
    <g id="line2d_46">
     <path d="M 74.425 100.155625 
L 84.425 100.155625 
" style="fill:none;stroke:#bfbf00;stroke-linecap:square;stroke-width:2;"/>
    </g>
    <g id="line2d_47"/>
    <g id="text_23">
     <!-- gain, I_D =  1.0e-07 -->
     <g transform="translate(86.425 103.655625)scale(0.12 -0.12)">
      <use xlink:href="#DejaVuSans-103"/>
      <use x="63.476562" xlink:href="#DejaVuSans-97"/>
      <use x="124.755859" xlink:href="#DejaVuSans-105"/>
      <use x="152.539062" xlink:href="#DejaVuSans-110"/>
      <use x="215.917969" xlink:href="#DejaVuSans-44"/>
      <use x="247.705078" xlink:href="#DejaVuSans-32"/>
      <use x="279.492188" xlink:href="#DejaVuSans-73"/>
      <use x="308.984375" xlink:href="#DejaVuSans-95"/>
      <use x="358.984375" xlink:href="#DejaVuSans-68"/>
      <use x="435.986328" xlink:href="#DejaVuSans-32"/>
      <use x="467.773438" xlink:href="#DejaVuSans-61"/>
      <use x="551.5625" xlink:href="#DejaVuSans-32"/>
      <use x="583.349609" xlink:href="#DejaVuSans-32"/>
      <use x="615.136719" xlink:href="#DejaVuSans-49"/>
      <use x="678.759766" xlink:href="#DejaVuSans-46"/>
      <use x="710.546875" xlink:href="#DejaVuSans-48"/>
      <use x="774.169922" xlink:href="#DejaVuSans-101"/>
      <use x="835.693359" xlink:href="#DejaVuSans-45"/>
      <use x="871.777344" xlink:href="#DejaVuSans-48"/>
      <use x="935.400391" xlink:href="#DejaVuSans-55"/>
     </g>
    </g>
    <g id="line2d_48">
     <path d="M 74.425 112.103125 
L 84.425 112.103125 
" style="fill:none;stroke:#000000;stroke-linecap:square;stroke-width:2;"/>
    </g>
    <g id="line2d_49"/>
    <g id="text_24">
     <!-- gain, I_D =  1.0e-06 -->
     <defs>
      <path d="M 33.015625 40.375 
Q 26.375 40.375 22.484375 35.828125 
Q 18.609375 31.296875 18.609375 23.390625 
Q 18.609375 15.53125 22.484375 10.953125 
Q 26.375 6.390625 33.015625 6.390625 
Q 39.65625 6.390625 43.53125 10.953125 
Q 47.40625 15.53125 47.40625 23.390625 
Q 47.40625 31.296875 43.53125 35.828125 
Q 39.65625 40.375 33.015625 40.375 
z
M 52.59375 71.296875 
L 52.59375 62.3125 
Q 48.875 64.0625 45.09375 64.984375 
Q 41.3125 65.921875 37.59375 65.921875 
Q 27.828125 65.921875 22.671875 59.328125 
Q 17.53125 52.734375 16.796875 39.40625 
Q 19.671875 43.65625 24.015625 45.921875 
Q 28.375 48.1875 33.59375 48.1875 
Q 44.578125 48.1875 50.953125 41.515625 
Q 57.328125 34.859375 57.328125 23.390625 
Q 57.328125 12.15625 50.6875 5.359375 
Q 44.046875 -1.421875 33.015625 -1.421875 
Q 20.359375 -1.421875 13.671875 8.265625 
Q 6.984375 17.96875 6.984375 36.375 
Q 6.984375 53.65625 15.1875 63.9375 
Q 23.390625 74.21875 37.203125 74.21875 
Q 40.921875 74.21875 44.703125 73.484375 
Q 48.484375 72.75 52.59375 71.296875 
z
" id="DejaVuSans-54"/>
     </defs>
     <g transform="translate(86.425 115.603125)scale(0.12 -0.12)">
      <use xlink:href="#DejaVuSans-103"/>
      <use x="63.476562" xlink:href="#DejaVuSans-97"/>
      <use x="124.755859" xlink:href="#DejaVuSans-105"/>
      <use x="152.539062" xlink:href="#DejaVuSans-110"/>
      <use x="215.917969" xlink:href="#DejaVuSans-44"/>
      <use x="247.705078" xlink:href="#DejaVuSans-32"/>
      <use x="279.492188" xlink:href="#DejaVuSans-73"/>
      <use x="308.984375" xlink:href="#DejaVuSans-95"/>
      <use x="358.984375" xlink:href="#DejaVuSans-68"/>
      <use x="435.986328" xlink:href="#DejaVuSans-32"/>
      <use x="467.773438" xlink:href="#DejaVuSans-61"/>
      <use x="551.5625" xlink:href="#DejaVuSans-32"/>
      <use x="583.349609" xlink:href="#DejaVuSans-32"/>
      <use x="615.136719" xlink:href="#DejaVuSans-49"/>
      <use x="678.759766" xlink:href="#DejaVuSans-46"/>
      <use x="710.546875" xlink:href="#DejaVuSans-48"/>
      <use x="774.169922" xlink:href="#DejaVuSans-101"/>
      <use x="835.693359" xlink:href="#DejaVuSans-45"/>
      <use x="871.777344" xlink:href="#DejaVuSans-48"/>
      <use x="935.400391" xlink:href="#DejaVuSans-54"/>
     </g>
    </g>
   </g>
  </g>
 </g>
 <defs>
  <clipPath id="p935f3d1d05">
   <rect height="284.4" width="425.775" x="67.425" y="27.8"/>
  </clipPath>
 </defs>
</svg>
