<?xml version="1.0" encoding="utf-8" standalone="no"?>
<!DOCTYPE svg PUBLIC "-//W3C//DTD SVG 1.1//EN"
  "http://www.w3.org/Graphics/SVG/1.1/DTD/svg11.dtd">
<!-- Created with matplotlib (https://matplotlib.org/) -->
<svg height="360pt" version="1.1" viewBox="0 0 504 360" width="504pt" xmlns="http://www.w3.org/2000/svg" xmlns:xlink="http://www.w3.org/1999/xlink">
 <defs>
  <style type="text/css">
*{stroke-linecap:butt;stroke-linejoin:round;}
  </style>
 </defs>
 <g id="figure_1">
  <g id="patch_1">
   <path d="M 0 360 
L 504 360 
L 504 0 
L 0 0 
z
" style="fill:#ffffff;"/>
  </g>
  <g id="axes_1">
   <g id="patch_2">
    <path d="M 390.39 177.69 
C 390.39 159.516792 386.810274 141.520295 379.855689 124.73044 
C 372.901103 107.940585 362.706906 92.683891 349.856507 79.833493 
C 337.006109 66.983094 321.749415 56.788897 304.95956 49.834311 
C 288.169705 42.879726 270.173208 39.3 252 39.3 
C 233.826792 39.3 215.830295 42.879726 199.04044 49.834311 
C 182.250585 56.788897 166.993891 66.983094 154.143493 79.833493 
C 141.293094 92.683891 131.098897 107.940585 124.144311 124.73044 
C 117.189726 141.520295 113.61 159.516792 113.61 177.69 
C 113.61 195.863208 117.189726 213.859705 124.144311 230.64956 
C 131.098897 247.439415 141.293094 262.696109 154.143493 275.546507 
C 166.993891 288.396906 182.250585 298.591103 199.04044 305.545689 
C 215.830295 312.500274 233.826792 316.08 252 316.08 
C 270.173208 316.08 288.169705 312.500274 304.95956 305.545689 
C 321.749415 298.591103 337.006109 288.396906 349.856507 275.546507 
C 362.706906 262.696109 372.901103 247.439415 379.855689 230.64956 
C 386.810274 213.859705 390.39 195.863208 390.39 177.69 
M 252 177.69 
C 252 177.69 252 177.69 252 177.69 
C 252 177.69 252 177.69 252 177.69 
C 252 177.69 252 177.69 252 177.69 
C 252 177.69 252 177.69 252 177.69 
C 252 177.69 252 177.69 252 177.69 
C 252 177.69 252 177.69 252 177.69 
C 252 177.69 252 177.69 252 177.69 
C 252 177.69 252 177.69 252 177.69 
C 252 177.69 252 177.69 252 177.69 
C 252 177.69 252 177.69 252 177.69 
C 252 177.69 252 177.69 252 177.69 
C 252 177.69 252 177.69 252 177.69 
C 252 177.69 252 177.69 252 177.69 
C 252 177.69 252 177.69 252 177.69 
C 252 177.69 252 177.69 252 177.69 
C 252 177.69 252 177.69 252 177.69 
M 390.39 177.69 
z
" style="fill:#ffffff;"/>
   </g>
   <g id="matplotlib.axis_1">
    <g id="xtick_1">
     <g id="line2d_1">
      <path clip-path="url(#pdc264cb948)" d="M 252 177.69 
L 390.39 177.69 
" style="fill:none;stroke:#808080;stroke-linecap:square;stroke-width:0.8;"/>
     </g>
     <g id="text_1">
      <!-- 0° -->
      <defs>
       <path d="M 31.78125 66.40625 
Q 24.171875 66.40625 20.328125 58.90625 
Q 16.5 51.421875 16.5 36.375 
Q 16.5 21.390625 20.328125 13.890625 
Q 24.171875 6.390625 31.78125 6.390625 
Q 39.453125 6.390625 43.28125 13.890625 
Q 47.125 21.390625 47.125 36.375 
Q 47.125 51.421875 43.28125 58.90625 
Q 39.453125 66.40625 31.78125 66.40625 
z
M 31.78125 74.21875 
Q 44.046875 74.21875 50.515625 64.515625 
Q 56.984375 54.828125 56.984375 36.375 
Q 56.984375 17.96875 50.515625 8.265625 
Q 44.046875 -1.421875 31.78125 -1.421875 
Q 19.53125 -1.421875 13.0625 8.265625 
Q 6.59375 17.96875 6.59375 36.375 
Q 6.59375 54.828125 13.0625 64.515625 
Q 19.53125 74.21875 31.78125 74.21875 
z
" id="DejaVuSans-48"/>
       <path d="M 25 67.921875 
Q 21.09375 67.921875 18.40625 65.203125 
Q 15.71875 62.5 15.71875 58.59375 
Q 15.71875 54.734375 18.40625 52.078125 
Q 21.09375 49.421875 25 49.421875 
Q 28.90625 49.421875 31.59375 52.078125 
Q 34.28125 54.734375 34.28125 58.59375 
Q 34.28125 62.453125 31.5625 65.1875 
Q 28.859375 67.921875 25 67.921875 
z
M 25 74.21875 
Q 28.125 74.21875 31 73.015625 
Q 33.890625 71.828125 35.984375 69.578125 
Q 38.234375 67.390625 39.359375 64.59375 
Q 40.484375 61.8125 40.484375 58.59375 
Q 40.484375 52.15625 35.96875 47.6875 
Q 31.453125 43.21875 24.90625 43.21875 
Q 18.3125 43.21875 13.90625 47.609375 
Q 9.515625 52 9.515625 58.59375 
Q 9.515625 65.140625 14 69.671875 
Q 18.5 74.21875 25 74.21875 
z
" id="DejaVuSans-176"/>
      </defs>
      <g transform="translate(397.5725 181.00125)scale(0.12 -0.12)">
       <use xlink:href="#DejaVuSans-48"/>
       <use x="63.623047" xlink:href="#DejaVuSans-176"/>
      </g>
     </g>
    </g>
    <g id="xtick_2">
     <g id="line2d_2">
      <path clip-path="url(#pdc264cb948)" d="M 252 177.69 
L 349.856507 79.833493 
" style="fill:none;stroke:#808080;stroke-linecap:square;stroke-width:0.8;"/>
     </g>
     <g id="text_2">
      <!-- 45° -->
      <defs>
       <path d="M 37.796875 64.3125 
L 12.890625 25.390625 
L 37.796875 25.390625 
z
M 35.203125 72.90625 
L 47.609375 72.90625 
L 47.609375 25.390625 
L 58.015625 25.390625 
L 58.015625 17.1875 
L 47.609375 17.1875 
L 47.609375 0 
L 37.796875 0 
L 37.796875 17.1875 
L 4.890625 17.1875 
L 4.890625 26.703125 
z
" id="DejaVuSans-52"/>
       <path d="M 10.796875 72.90625 
L 49.515625 72.90625 
L 49.515625 64.59375 
L 19.828125 64.59375 
L 19.828125 46.734375 
Q 21.96875 47.46875 24.109375 47.828125 
Q 26.265625 48.1875 28.421875 48.1875 
Q 40.625 48.1875 47.75 41.5 
Q 54.890625 34.8125 54.890625 23.390625 
Q 54.890625 11.625 47.5625 5.09375 
Q 40.234375 -1.421875 26.90625 -1.421875 
Q 22.3125 -1.421875 17.546875 -0.640625 
Q 12.796875 0.140625 7.71875 1.703125 
L 7.71875 11.625 
Q 12.109375 9.234375 16.796875 8.0625 
Q 21.484375 6.890625 26.703125 6.890625 
Q 35.15625 6.890625 40.078125 11.328125 
Q 45.015625 15.765625 45.015625 23.390625 
Q 45.015625 31 40.078125 35.4375 
Q 35.15625 39.890625 26.703125 39.890625 
Q 22.75 39.890625 18.8125 39.015625 
Q 14.890625 38.140625 10.796875 36.28125 
z
" id="DejaVuSans-53"/>
      </defs>
      <g transform="translate(349.121002 73.245248)scale(0.12 -0.12)">
       <use xlink:href="#DejaVuSans-52"/>
       <use x="63.623047" xlink:href="#DejaVuSans-53"/>
       <use x="127.246094" xlink:href="#DejaVuSans-176"/>
      </g>
     </g>
    </g>
    <g id="xtick_3">
     <g id="line2d_3">
      <path clip-path="url(#pdc264cb948)" d="M 252 177.69 
L 252 39.3 
" style="fill:none;stroke:#808080;stroke-linecap:square;stroke-width:0.8;"/>
     </g>
     <g id="text_3">
      <!-- 90° -->
      <defs>
       <path d="M 10.984375 1.515625 
L 10.984375 10.5 
Q 14.703125 8.734375 18.5 7.8125 
Q 22.3125 6.890625 25.984375 6.890625 
Q 35.75 6.890625 40.890625 13.453125 
Q 46.046875 20.015625 46.78125 33.40625 
Q 43.953125 29.203125 39.59375 26.953125 
Q 35.25 24.703125 29.984375 24.703125 
Q 19.046875 24.703125 12.671875 31.3125 
Q 6.296875 37.9375 6.296875 49.421875 
Q 6.296875 60.640625 12.9375 67.421875 
Q 19.578125 74.21875 30.609375 74.21875 
Q 43.265625 74.21875 49.921875 64.515625 
Q 56.59375 54.828125 56.59375 36.375 
Q 56.59375 19.140625 48.40625 8.859375 
Q 40.234375 -1.421875 26.421875 -1.421875 
Q 22.703125 -1.421875 18.890625 -0.6875 
Q 15.09375 0.046875 10.984375 1.515625 
z
M 30.609375 32.421875 
Q 37.25 32.421875 41.125 36.953125 
Q 45.015625 41.5 45.015625 49.421875 
Q 45.015625 57.28125 41.125 61.84375 
Q 37.25 66.40625 30.609375 66.40625 
Q 23.96875 66.40625 20.09375 61.84375 
Q 16.21875 57.28125 16.21875 49.421875 
Q 16.21875 41.5 20.09375 36.953125 
Q 23.96875 32.421875 30.609375 32.421875 
z
" id="DejaVuSans-57"/>
      </defs>
      <g transform="translate(241.365 28.61125)scale(0.12 -0.12)">
       <use xlink:href="#DejaVuSans-57"/>
       <use x="63.623047" xlink:href="#DejaVuSans-48"/>
       <use x="127.246094" xlink:href="#DejaVuSans-176"/>
      </g>
     </g>
    </g>
    <g id="xtick_4">
     <g id="line2d_4">
      <path clip-path="url(#pdc264cb948)" d="M 252 177.69 
L 154.143493 79.833493 
" style="fill:none;stroke:#808080;stroke-linecap:square;stroke-width:0.8;"/>
     </g>
     <g id="text_4">
      <!-- 135° -->
      <defs>
       <path d="M 12.40625 8.296875 
L 28.515625 8.296875 
L 28.515625 63.921875 
L 10.984375 60.40625 
L 10.984375 69.390625 
L 28.421875 72.90625 
L 38.28125 72.90625 
L 38.28125 8.296875 
L 54.390625 8.296875 
L 54.390625 0 
L 12.40625 0 
z
" id="DejaVuSans-49"/>
       <path d="M 40.578125 39.3125 
Q 47.65625 37.796875 51.625 33 
Q 55.609375 28.21875 55.609375 21.1875 
Q 55.609375 10.40625 48.1875 4.484375 
Q 40.765625 -1.421875 27.09375 -1.421875 
Q 22.515625 -1.421875 17.65625 -0.515625 
Q 12.796875 0.390625 7.625 2.203125 
L 7.625 11.71875 
Q 11.71875 9.328125 16.59375 8.109375 
Q 21.484375 6.890625 26.8125 6.890625 
Q 36.078125 6.890625 40.9375 10.546875 
Q 45.796875 14.203125 45.796875 21.1875 
Q 45.796875 27.640625 41.28125 31.265625 
Q 36.765625 34.90625 28.71875 34.90625 
L 20.21875 34.90625 
L 20.21875 43.015625 
L 29.109375 43.015625 
Q 36.375 43.015625 40.234375 45.921875 
Q 44.09375 48.828125 44.09375 54.296875 
Q 44.09375 59.90625 40.109375 62.90625 
Q 36.140625 65.921875 28.71875 65.921875 
Q 24.65625 65.921875 20.015625 65.03125 
Q 15.375 64.15625 9.8125 62.3125 
L 9.8125 71.09375 
Q 15.4375 72.65625 20.34375 73.4375 
Q 25.25 74.21875 29.59375 74.21875 
Q 40.828125 74.21875 47.359375 69.109375 
Q 53.90625 64.015625 53.90625 55.328125 
Q 53.90625 49.265625 50.4375 45.09375 
Q 46.96875 40.921875 40.578125 39.3125 
z
" id="DejaVuSans-51"/>
      </defs>
      <g transform="translate(129.791498 73.245248)scale(0.12 -0.12)">
       <use xlink:href="#DejaVuSans-49"/>
       <use x="63.623047" xlink:href="#DejaVuSans-51"/>
       <use x="127.246094" xlink:href="#DejaVuSans-53"/>
       <use x="190.869141" xlink:href="#DejaVuSans-176"/>
      </g>
     </g>
    </g>
    <g id="xtick_5">
     <g id="line2d_5">
      <path clip-path="url(#pdc264cb948)" d="M 252 177.69 
L 113.61 177.69 
" style="fill:none;stroke:#808080;stroke-linecap:square;stroke-width:0.8;"/>
     </g>
     <g id="text_5">
      <!-- 180° -->
      <defs>
       <path d="M 31.78125 34.625 
Q 24.75 34.625 20.71875 30.859375 
Q 16.703125 27.09375 16.703125 20.515625 
Q 16.703125 13.921875 20.71875 10.15625 
Q 24.75 6.390625 31.78125 6.390625 
Q 38.8125 6.390625 42.859375 10.171875 
Q 46.921875 13.96875 46.921875 20.515625 
Q 46.921875 27.09375 42.890625 30.859375 
Q 38.875 34.625 31.78125 34.625 
z
M 21.921875 38.8125 
Q 15.578125 40.375 12.03125 44.71875 
Q 8.5 49.078125 8.5 55.328125 
Q 8.5 64.0625 14.71875 69.140625 
Q 20.953125 74.21875 31.78125 74.21875 
Q 42.671875 74.21875 48.875 69.140625 
Q 55.078125 64.0625 55.078125 55.328125 
Q 55.078125 49.078125 51.53125 44.71875 
Q 48 40.375 41.703125 38.8125 
Q 48.828125 37.15625 52.796875 32.3125 
Q 56.78125 27.484375 56.78125 20.515625 
Q 56.78125 9.90625 50.3125 4.234375 
Q 43.84375 -1.421875 31.78125 -1.421875 
Q 19.734375 -1.421875 13.25 4.234375 
Q 6.78125 9.90625 6.78125 20.515625 
Q 6.78125 27.484375 10.78125 32.3125 
Q 14.796875 37.15625 21.921875 38.8125 
z
M 18.3125 54.390625 
Q 18.3125 48.734375 21.84375 45.5625 
Q 25.390625 42.390625 31.78125 42.390625 
Q 38.140625 42.390625 41.71875 45.5625 
Q 45.3125 48.734375 45.3125 54.390625 
Q 45.3125 60.0625 41.71875 63.234375 
Q 38.140625 66.40625 31.78125 66.40625 
Q 25.390625 66.40625 21.84375 63.234375 
Q 18.3125 60.0625 18.3125 54.390625 
z
" id="DejaVuSans-56"/>
      </defs>
      <g transform="translate(85.1575 181.00125)scale(0.12 -0.12)">
       <use xlink:href="#DejaVuSans-49"/>
       <use x="63.623047" xlink:href="#DejaVuSans-56"/>
       <use x="127.246094" xlink:href="#DejaVuSans-48"/>
       <use x="190.869141" xlink:href="#DejaVuSans-176"/>
      </g>
     </g>
    </g>
    <g id="xtick_6">
     <g id="line2d_6">
      <path clip-path="url(#pdc264cb948)" d="M 252 177.69 
L 154.143493 275.546507 
" style="fill:none;stroke:#808080;stroke-linecap:square;stroke-width:0.8;"/>
     </g>
     <g id="text_6">
      <!-- 225° -->
      <defs>
       <path d="M 19.1875 8.296875 
L 53.609375 8.296875 
L 53.609375 0 
L 7.328125 0 
L 7.328125 8.296875 
Q 12.9375 14.109375 22.625 23.890625 
Q 32.328125 33.6875 34.8125 36.53125 
Q 39.546875 41.84375 41.421875 45.53125 
Q 43.3125 49.21875 43.3125 52.78125 
Q 43.3125 58.59375 39.234375 62.25 
Q 35.15625 65.921875 28.609375 65.921875 
Q 23.96875 65.921875 18.8125 64.3125 
Q 13.671875 62.703125 7.8125 59.421875 
L 7.8125 69.390625 
Q 13.765625 71.78125 18.9375 73 
Q 24.125 74.21875 28.421875 74.21875 
Q 39.75 74.21875 46.484375 68.546875 
Q 53.21875 62.890625 53.21875 53.421875 
Q 53.21875 48.921875 51.53125 44.890625 
Q 49.859375 40.875 45.40625 35.40625 
Q 44.1875 33.984375 37.640625 27.21875 
Q 31.109375 20.453125 19.1875 8.296875 
z
" id="DejaVuSans-50"/>
      </defs>
      <g transform="translate(129.791498 288.757252)scale(0.12 -0.12)">
       <use xlink:href="#DejaVuSans-50"/>
       <use x="63.623047" xlink:href="#DejaVuSans-50"/>
       <use x="127.246094" xlink:href="#DejaVuSans-53"/>
       <use x="190.869141" xlink:href="#DejaVuSans-176"/>
      </g>
     </g>
    </g>
    <g id="xtick_7">
     <g id="line2d_7">
      <path clip-path="url(#pdc264cb948)" d="M 252 177.69 
L 252 316.08 
" style="fill:none;stroke:#808080;stroke-linecap:square;stroke-width:0.8;"/>
     </g>
     <g id="text_7">
      <!-- 270° -->
      <defs>
       <path d="M 8.203125 72.90625 
L 55.078125 72.90625 
L 55.078125 68.703125 
L 28.609375 0 
L 18.3125 0 
L 43.21875 64.59375 
L 8.203125 64.59375 
z
" id="DejaVuSans-55"/>
      </defs>
      <g transform="translate(237.5475 333.39125)scale(0.12 -0.12)">
       <use xlink:href="#DejaVuSans-50"/>
       <use x="63.623047" xlink:href="#DejaVuSans-55"/>
       <use x="127.246094" xlink:href="#DejaVuSans-48"/>
       <use x="190.869141" xlink:href="#DejaVuSans-176"/>
      </g>
     </g>
    </g>
    <g id="xtick_8">
     <g id="line2d_8">
      <path clip-path="url(#pdc264cb948)" d="M 252 177.69 
L 349.856507 275.546507 
" style="fill:none;stroke:#808080;stroke-linecap:square;stroke-width:0.8;"/>
     </g>
     <g id="text_8">
      <!-- 315° -->
      <g transform="translate(345.303502 288.757252)scale(0.12 -0.12)">
       <use xlink:href="#DejaVuSans-51"/>
       <use x="63.623047" xlink:href="#DejaVuSans-49"/>
       <use x="127.246094" xlink:href="#DejaVuSans-53"/>
       <use x="190.869141" xlink:href="#DejaVuSans-176"/>
      </g>
     </g>
    </g>
    <g id="text_9">
     <!-- frequency [Hz] -->
     <defs>
      <path d="M 37.109375 75.984375 
L 37.109375 68.5 
L 28.515625 68.5 
Q 23.6875 68.5 21.796875 66.546875 
Q 19.921875 64.59375 19.921875 59.515625 
L 19.921875 54.6875 
L 34.71875 54.6875 
L 34.71875 47.703125 
L 19.921875 47.703125 
L 19.921875 0 
L 10.890625 0 
L 10.890625 47.703125 
L 2.296875 47.703125 
L 2.296875 54.6875 
L 10.890625 54.6875 
L 10.890625 58.5 
Q 10.890625 67.625 15.140625 71.796875 
Q 19.390625 75.984375 28.609375 75.984375 
z
" id="DejaVuSans-102"/>
      <path d="M 41.109375 46.296875 
Q 39.59375 47.171875 37.8125 47.578125 
Q 36.03125 48 33.890625 48 
Q 26.265625 48 22.1875 43.046875 
Q 18.109375 38.09375 18.109375 28.8125 
L 18.109375 0 
L 9.078125 0 
L 9.078125 54.6875 
L 18.109375 54.6875 
L 18.109375 46.1875 
Q 20.953125 51.171875 25.484375 53.578125 
Q 30.03125 56 36.53125 56 
Q 37.453125 56 38.578125 55.875 
Q 39.703125 55.765625 41.0625 55.515625 
z
" id="DejaVuSans-114"/>
      <path d="M 56.203125 29.59375 
L 56.203125 25.203125 
L 14.890625 25.203125 
Q 15.484375 15.921875 20.484375 11.0625 
Q 25.484375 6.203125 34.421875 6.203125 
Q 39.59375 6.203125 44.453125 7.46875 
Q 49.3125 8.734375 54.109375 11.28125 
L 54.109375 2.78125 
Q 49.265625 0.734375 44.1875 -0.34375 
Q 39.109375 -1.421875 33.890625 -1.421875 
Q 20.796875 -1.421875 13.15625 6.1875 
Q 5.515625 13.8125 5.515625 26.8125 
Q 5.515625 40.234375 12.765625 48.109375 
Q 20.015625 56 32.328125 56 
Q 43.359375 56 49.78125 48.890625 
Q 56.203125 41.796875 56.203125 29.59375 
z
M 47.21875 32.234375 
Q 47.125 39.59375 43.09375 43.984375 
Q 39.0625 48.390625 32.421875 48.390625 
Q 24.90625 48.390625 20.390625 44.140625 
Q 15.875 39.890625 15.1875 32.171875 
z
" id="DejaVuSans-101"/>
      <path d="M 14.796875 27.296875 
Q 14.796875 17.390625 18.875 11.75 
Q 22.953125 6.109375 30.078125 6.109375 
Q 37.203125 6.109375 41.296875 11.75 
Q 45.40625 17.390625 45.40625 27.296875 
Q 45.40625 37.203125 41.296875 42.84375 
Q 37.203125 48.484375 30.078125 48.484375 
Q 22.953125 48.484375 18.875 42.84375 
Q 14.796875 37.203125 14.796875 27.296875 
z
M 45.40625 8.203125 
Q 42.578125 3.328125 38.25 0.953125 
Q 33.9375 -1.421875 27.875 -1.421875 
Q 17.96875 -1.421875 11.734375 6.484375 
Q 5.515625 14.40625 5.515625 27.296875 
Q 5.515625 40.1875 11.734375 48.09375 
Q 17.96875 56 27.875 56 
Q 33.9375 56 38.25 53.625 
Q 42.578125 51.265625 45.40625 46.390625 
L 45.40625 54.6875 
L 54.390625 54.6875 
L 54.390625 -20.796875 
L 45.40625 -20.796875 
z
" id="DejaVuSans-113"/>
      <path d="M 8.5 21.578125 
L 8.5 54.6875 
L 17.484375 54.6875 
L 17.484375 21.921875 
Q 17.484375 14.15625 20.5 10.265625 
Q 23.53125 6.390625 29.59375 6.390625 
Q 36.859375 6.390625 41.078125 11.03125 
Q 45.3125 15.671875 45.3125 23.6875 
L 45.3125 54.6875 
L 54.296875 54.6875 
L 54.296875 0 
L 45.3125 0 
L 45.3125 8.40625 
Q 42.046875 3.421875 37.71875 1 
Q 33.40625 -1.421875 27.6875 -1.421875 
Q 18.265625 -1.421875 13.375 4.4375 
Q 8.5 10.296875 8.5 21.578125 
z
M 31.109375 56 
z
" id="DejaVuSans-117"/>
      <path d="M 54.890625 33.015625 
L 54.890625 0 
L 45.90625 0 
L 45.90625 32.71875 
Q 45.90625 40.484375 42.875 44.328125 
Q 39.84375 48.1875 33.796875 48.1875 
Q 26.515625 48.1875 22.3125 43.546875 
Q 18.109375 38.921875 18.109375 30.90625 
L 18.109375 0 
L 9.078125 0 
L 9.078125 54.6875 
L 18.109375 54.6875 
L 18.109375 46.1875 
Q 21.34375 51.125 25.703125 53.5625 
Q 30.078125 56 35.796875 56 
Q 45.21875 56 50.046875 50.171875 
Q 54.890625 44.34375 54.890625 33.015625 
z
" id="DejaVuSans-110"/>
      <path d="M 48.78125 52.59375 
L 48.78125 44.1875 
Q 44.96875 46.296875 41.140625 47.34375 
Q 37.3125 48.390625 33.40625 48.390625 
Q 24.65625 48.390625 19.8125 42.84375 
Q 14.984375 37.3125 14.984375 27.296875 
Q 14.984375 17.28125 19.8125 11.734375 
Q 24.65625 6.203125 33.40625 6.203125 
Q 37.3125 6.203125 41.140625 7.25 
Q 44.96875 8.296875 48.78125 10.40625 
L 48.78125 2.09375 
Q 45.015625 0.34375 40.984375 -0.53125 
Q 36.96875 -1.421875 32.421875 -1.421875 
Q 20.0625 -1.421875 12.78125 6.34375 
Q 5.515625 14.109375 5.515625 27.296875 
Q 5.515625 40.671875 12.859375 48.328125 
Q 20.21875 56 33.015625 56 
Q 37.15625 56 41.109375 55.140625 
Q 45.0625 54.296875 48.78125 52.59375 
z
" id="DejaVuSans-99"/>
      <path d="M 32.171875 -5.078125 
Q 28.375 -14.84375 24.75 -17.8125 
Q 21.140625 -20.796875 15.09375 -20.796875 
L 7.90625 -20.796875 
L 7.90625 -13.28125 
L 13.1875 -13.28125 
Q 16.890625 -13.28125 18.9375 -11.515625 
Q 21 -9.765625 23.484375 -3.21875 
L 25.09375 0.875 
L 2.984375 54.6875 
L 12.5 54.6875 
L 29.59375 11.921875 
L 46.6875 54.6875 
L 56.203125 54.6875 
z
" id="DejaVuSans-121"/>
      <path id="DejaVuSans-32"/>
      <path d="M 8.59375 75.984375 
L 29.296875 75.984375 
L 29.296875 69 
L 17.578125 69 
L 17.578125 -6.203125 
L 29.296875 -6.203125 
L 29.296875 -13.1875 
L 8.59375 -13.1875 
z
" id="DejaVuSans-91"/>
      <path d="M 9.8125 72.90625 
L 19.671875 72.90625 
L 19.671875 43.015625 
L 55.515625 43.015625 
L 55.515625 72.90625 
L 65.375 72.90625 
L 65.375 0 
L 55.515625 0 
L 55.515625 34.71875 
L 19.671875 34.71875 
L 19.671875 0 
L 9.8125 0 
z
" id="DejaVuSans-72"/>
      <path d="M 5.515625 54.6875 
L 48.1875 54.6875 
L 48.1875 46.484375 
L 14.40625 7.171875 
L 48.1875 7.171875 
L 48.1875 0 
L 4.296875 0 
L 4.296875 8.203125 
L 38.09375 47.515625 
L 5.515625 47.515625 
z
" id="DejaVuSans-122"/>
      <path d="M 30.421875 75.984375 
L 30.421875 -13.1875 
L 9.71875 -13.1875 
L 9.71875 -6.203125 
L 21.390625 -6.203125 
L 21.390625 69 
L 9.71875 69 
L 9.71875 75.984375 
z
" id="DejaVuSans-93"/>
     </defs>
     <g transform="translate(207.525 349.005)scale(0.12 -0.12)">
      <use xlink:href="#DejaVuSans-102"/>
      <use x="35.205078" xlink:href="#DejaVuSans-114"/>
      <use x="76.287109" xlink:href="#DejaVuSans-101"/>
      <use x="137.810547" xlink:href="#DejaVuSans-113"/>
      <use x="201.287109" xlink:href="#DejaVuSans-117"/>
      <use x="264.666016" xlink:href="#DejaVuSans-101"/>
      <use x="326.189453" xlink:href="#DejaVuSans-110"/>
      <use x="389.568359" xlink:href="#DejaVuSans-99"/>
      <use x="444.548828" xlink:href="#DejaVuSans-121"/>
      <use x="503.728516" xlink:href="#DejaVuSans-32"/>
      <use x="535.515625" xlink:href="#DejaVuSans-91"/>
      <use x="574.529297" xlink:href="#DejaVuSans-72"/>
      <use x="649.724609" xlink:href="#DejaVuSans-122"/>
      <use x="702.214844" xlink:href="#DejaVuSans-93"/>
     </g>
    </g>
   </g>
   <g id="matplotlib.axis_2">
    <g id="ytick_1">
     <g id="line2d_9">
      <path clip-path="url(#pdc264cb948)" d="M 257.019656 177.69 
L 256.909964 176.646355 
L 256.585684 175.648322 
L 256.060987 174.73952 
L 255.358805 173.959669 
L 254.509828 173.342851 
L 253.551159 172.916024 
L 252.524697 172.697843 
L 251.475303 172.697843 
L 250.448841 172.916024 
L 249.490172 173.342851 
L 248.641195 173.959669 
L 247.939013 174.73952 
L 247.414316 175.648322 
L 247.090036 176.646355 
L 246.980344 177.69 
L 247.090036 178.733645 
L 247.414316 179.731678 
L 247.939013 180.64048 
L 248.641195 181.420331 
L 249.490172 182.037149 
L 250.448841 182.463976 
L 251.475303 182.682157 
L 252.524697 182.682157 
L 253.551159 182.463976 
L 254.509828 182.037149 
L 255.358805 181.420331 
L 256.060987 180.64048 
L 256.585684 179.731678 
L 256.909964 178.733645 
L 257.019656 177.69 
L 257.019656 177.69 
" style="fill:none;stroke:#808080;stroke-linecap:square;stroke-width:0.8;"/>
     </g>
     <g id="text_10">
      <!-- 0.0 -->
      <defs>
       <path d="M 10.6875 12.40625 
L 21 12.40625 
L 21 0 
L 10.6875 0 
z
" id="DejaVuSans-46"/>
      </defs>
      <g transform="translate(256.637557 173.273436)scale(0.12 -0.12)">
       <use xlink:href="#DejaVuSans-48"/>
       <use x="63.623047" xlink:href="#DejaVuSans-46"/>
       <use x="95.410156" xlink:href="#DejaVuSans-48"/>
      </g>
     </g>
    </g>
    <g id="ytick_2">
     <g id="line2d_10">
      <path clip-path="url(#pdc264cb948)" d="M 282.436904 177.69 
L 282.362762 175.566829 
L 282.140695 173.454002 
L 281.771785 171.361812 
L 281.25783 169.300452 
L 280.601334 167.279966 
L 279.805496 165.310196 
L 278.874191 163.400739 
L 277.811959 161.560898 
L 276.623973 159.799636 
L 275.316021 158.125535 
L 273.894477 156.54675 
L 272.366264 155.070972 
L 270.738829 153.705392 
L 269.020101 152.456663 
L 267.218452 151.330868 
L 265.342661 150.333492 
L 263.401865 149.469394 
L 261.405521 148.742784 
L 259.363354 148.157202 
L 257.285313 147.715501 
L 255.181523 147.419832 
L 253.062233 147.271637 
L 250.937767 147.271637 
L 248.818477 147.419832 
L 246.714687 147.715501 
L 244.636646 148.157202 
L 242.594479 148.742784 
L 240.598135 149.469394 
L 238.657339 150.333492 
L 236.781548 151.330868 
L 234.979899 152.456663 
L 233.261171 153.705392 
L 231.633736 155.070972 
L 230.105523 156.54675 
L 228.683979 158.125535 
L 227.376027 159.799636 
L 226.188041 161.560898 
L 225.125809 163.400739 
L 224.194504 165.310196 
L 223.398666 167.279966 
L 222.74217 169.300452 
L 222.228215 171.361812 
L 221.859305 173.454002 
L 221.637238 175.566829 
L 221.563096 177.69 
L 221.637238 179.813171 
L 221.859305 181.925998 
L 222.228215 184.018188 
L 222.74217 186.079548 
L 223.398666 188.100034 
L 224.194504 190.069804 
L 225.125809 191.979261 
L 226.188041 193.819102 
L 227.376027 195.580364 
L 228.683979 197.254465 
L 230.105523 198.83325 
L 231.633736 200.309028 
L 233.261171 201.674608 
L 234.979899 202.923337 
L 236.781548 204.049132 
L 238.657339 205.046508 
L 240.598135 205.910606 
L 242.594479 206.637216 
L 244.636646 207.222798 
L 246.714687 207.664499 
L 248.818477 207.960168 
L 250.937767 208.108363 
L 253.062233 208.108363 
L 255.181523 207.960168 
L 257.285313 207.664499 
L 259.363354 207.222798 
L 261.405521 206.637216 
L 263.401865 205.910606 
L 265.342661 205.046508 
L 267.218452 204.049132 
L 269.020101 202.923337 
L 270.738829 201.674608 
L 272.366264 200.309028 
L 273.894477 198.83325 
L 275.316021 197.254465 
L 276.623973 195.580364 
L 277.811959 193.819102 
L 278.874191 191.979261 
L 279.805496 190.069804 
L 280.601334 188.100034 
L 281.25783 186.079548 
L 281.771785 184.018188 
L 282.140695 181.925998 
L 282.362762 179.813171 
L 282.436904 177.69 
L 282.436904 177.69 
" style="fill:none;stroke:#808080;stroke-linecap:square;stroke-width:0.8;"/>
     </g>
     <g id="text_11">
      <!-- 0.2 -->
      <g transform="translate(280.120033 163.546676)scale(0.12 -0.12)">
       <use xlink:href="#DejaVuSans-48"/>
       <use x="63.623047" xlink:href="#DejaVuSans-46"/>
       <use x="95.410156" xlink:href="#DejaVuSans-50"/>
      </g>
     </g>
    </g>
    <g id="ytick_3">
     <g id="line2d_11">
      <path clip-path="url(#pdc264cb948)" d="M 307.854153 177.69 
L 307.718095 173.793811 
L 307.310584 169.916604 
L 306.633606 166.077269 
L 305.690458 162.294509 
L 304.485736 158.586755 
L 303.025308 154.972069 
L 301.31629 151.468063 
L 299.367008 148.091808 
L 297.186959 144.859753 
L 294.786764 141.787642 
L 292.178115 138.890445 
L 289.373723 136.182275 
L 286.38725 133.676327 
L 283.233246 131.384808 
L 279.927077 129.318885 
L 276.484849 127.48862 
L 272.923334 125.902931 
L 269.259883 124.569544 
L 265.512343 123.494954 
L 261.698972 122.684397 
L 257.838349 122.141822 
L 253.949282 121.869872 
L 250.050718 121.869872 
L 246.161651 122.141822 
L 242.301028 122.684397 
L 238.487657 123.494954 
L 234.740117 124.569544 
L 231.076666 125.902931 
L 227.515151 127.48862 
L 224.072923 129.318885 
L 220.766754 131.384808 
L 217.61275 133.676327 
L 214.626277 136.182275 
L 211.821885 138.890445 
L 209.213236 141.787642 
L 206.813041 144.859753 
L 204.632992 148.091808 
L 202.68371 151.468063 
L 200.974692 154.972069 
L 199.514264 158.586755 
L 198.309542 162.294509 
L 197.366394 166.077269 
L 196.689416 169.916604 
L 196.281905 173.793811 
L 196.145847 177.69 
L 196.281905 181.586189 
L 196.689416 185.463396 
L 197.366394 189.302731 
L 198.309542 193.085491 
L 199.514264 196.793245 
L 200.974692 200.407931 
L 202.68371 203.911937 
L 204.632992 207.288192 
L 206.813041 210.520247 
L 209.213236 213.592358 
L 211.821885 216.489555 
L 214.626277 219.197725 
L 217.61275 221.703673 
L 220.766754 223.995192 
L 224.072923 226.061115 
L 227.515151 227.89138 
L 231.076666 229.477069 
L 234.740117 230.810456 
L 238.487657 231.885046 
L 242.301028 232.695603 
L 246.161651 233.238178 
L 250.050718 233.510128 
L 253.949282 233.510128 
L 257.838349 233.238178 
L 261.698972 232.695603 
L 265.512343 231.885046 
L 269.259883 230.810456 
L 272.923334 229.477069 
L 276.484849 227.89138 
L 279.927077 226.061115 
L 283.233246 223.995192 
L 286.38725 221.703673 
L 289.373723 219.197725 
L 292.178115 216.489555 
L 294.786764 213.592358 
L 297.186959 210.520247 
L 299.367008 207.288192 
L 301.31629 203.911937 
L 303.025308 200.407931 
L 304.485736 196.793245 
L 305.690458 193.085491 
L 306.633606 189.302731 
L 307.310584 185.463396 
L 307.718095 181.586189 
L 307.854153 177.69 
L 307.854153 177.69 
" style="fill:none;stroke:#808080;stroke-linecap:square;stroke-width:0.8;"/>
     </g>
     <g id="text_12">
      <!-- 0.4 -->
      <g transform="translate(303.602509 153.819916)scale(0.12 -0.12)">
       <use xlink:href="#DejaVuSans-48"/>
       <use x="63.623047" xlink:href="#DejaVuSans-46"/>
       <use x="95.410156" xlink:href="#DejaVuSans-52"/>
      </g>
     </g>
    </g>
    <g id="ytick_4">
     <g id="line2d_12">
      <path clip-path="url(#pdc264cb948)" d="M 333.271402 177.69 
L 333.073429 172.020794 
L 332.480474 166.379207 
L 331.495427 160.792725 
L 330.123086 155.288566 
L 328.370137 149.893543 
L 326.24512 144.633943 
L 323.758389 139.535388 
L 320.922058 134.622719 
L 317.749945 129.919869 
L 314.257506 125.44975 
L 310.461754 121.23414 
L 306.381182 117.293578 
L 302.035671 113.647261 
L 297.446391 110.312954 
L 292.635701 107.306901 
L 287.627038 104.643748 
L 282.444803 102.336468 
L 277.114244 100.396304 
L 271.661332 98.832706 
L 266.112631 97.653293 
L 260.495175 96.863811 
L 254.836331 96.468107 
L 249.163669 96.468107 
L 243.504825 96.863811 
L 237.887369 97.653293 
L 232.338668 98.832706 
L 226.885756 100.396304 
L 221.555197 102.336468 
L 216.372962 104.643748 
L 211.364299 107.306901 
L 206.553609 110.312954 
L 201.964329 113.647261 
L 197.618818 117.293578 
L 193.538246 121.23414 
L 189.742494 125.44975 
L 186.250055 129.919869 
L 183.077942 134.622719 
L 180.241611 139.535388 
L 177.75488 144.633943 
L 175.629863 149.893543 
L 173.876914 155.288566 
L 172.504573 160.792725 
L 171.519526 166.379207 
L 170.926571 172.020794 
L 170.728598 177.69 
L 170.926571 183.359206 
L 171.519526 189.000793 
L 172.504573 194.587275 
L 173.876914 200.091434 
L 175.629863 205.486457 
L 177.75488 210.746057 
L 180.241611 215.844612 
L 183.077942 220.757281 
L 186.250055 225.460131 
L 189.742494 229.93025 
L 193.538246 234.14586 
L 197.618818 238.086422 
L 201.964329 241.732739 
L 206.553609 245.067046 
L 211.364299 248.073099 
L 216.372962 250.736252 
L 221.555197 253.043532 
L 226.885756 254.983696 
L 232.338668 256.547294 
L 237.887369 257.726707 
L 243.504825 258.516189 
L 249.163669 258.911893 
L 254.836331 258.911893 
L 260.495175 258.516189 
L 266.112631 257.726707 
L 271.661332 256.547294 
L 277.114244 254.983696 
L 282.444803 253.043532 
L 287.627038 250.736252 
L 292.635701 248.073099 
L 297.446391 245.067046 
L 302.035671 241.732739 
L 306.381182 238.086422 
L 310.461754 234.14586 
L 314.257506 229.93025 
L 317.749945 225.460131 
L 320.922058 220.757281 
L 323.758389 215.844612 
L 326.24512 210.746057 
L 328.370137 205.486457 
L 330.123086 200.091434 
L 331.495427 194.587275 
L 332.480474 189.000793 
L 333.073429 183.359206 
L 333.271402 177.69 
L 333.271402 177.69 
" style="fill:none;stroke:#808080;stroke-linecap:square;stroke-width:0.8;"/>
     </g>
     <g id="text_13">
      <!-- 0.6 -->
      <defs>
       <path d="M 33.015625 40.375 
Q 26.375 40.375 22.484375 35.828125 
Q 18.609375 31.296875 18.609375 23.390625 
Q 18.609375 15.53125 22.484375 10.953125 
Q 26.375 6.390625 33.015625 6.390625 
Q 39.65625 6.390625 43.53125 10.953125 
Q 47.40625 15.53125 47.40625 23.390625 
Q 47.40625 31.296875 43.53125 35.828125 
Q 39.65625 40.375 33.015625 40.375 
z
M 52.59375 71.296875 
L 52.59375 62.3125 
Q 48.875 64.0625 45.09375 64.984375 
Q 41.3125 65.921875 37.59375 65.921875 
Q 27.828125 65.921875 22.671875 59.328125 
Q 17.53125 52.734375 16.796875 39.40625 
Q 19.671875 43.65625 24.015625 45.921875 
Q 28.375 48.1875 33.59375 48.1875 
Q 44.578125 48.1875 50.953125 41.515625 
Q 57.328125 34.859375 57.328125 23.390625 
Q 57.328125 12.15625 50.6875 5.359375 
Q 44.046875 -1.421875 33.015625 -1.421875 
Q 20.359375 -1.421875 13.671875 8.265625 
Q 6.984375 17.96875 6.984375 36.375 
Q 6.984375 53.65625 15.1875 63.9375 
Q 23.390625 74.21875 37.203125 74.21875 
Q 40.921875 74.21875 44.703125 73.484375 
Q 48.484375 72.75 52.59375 71.296875 
z
" id="DejaVuSans-54"/>
      </defs>
      <g transform="translate(327.084985 144.093156)scale(0.12 -0.12)">
       <use xlink:href="#DejaVuSans-48"/>
       <use x="63.623047" xlink:href="#DejaVuSans-46"/>
       <use x="95.410156" xlink:href="#DejaVuSans-54"/>
      </g>
     </g>
    </g>
    <g id="ytick_5">
     <g id="line2d_13">
      <path clip-path="url(#pdc264cb948)" d="M 358.688651 177.69 
L 358.623659 173.96662 
L 358.428762 170.247776 
L 358.104199 166.537999 
L 357.650364 162.84181 
L 357.06781 159.16371 
L 356.357248 155.508182 
L 355.519542 151.879679 
L 354.555713 148.282622 
L 353.466936 144.721394 
L 352.254538 141.200332 
L 350.919994 137.723728 
L 349.464932 134.295816 
L 347.891124 130.920774 
L 346.200487 127.602712 
L 344.395082 124.345675 
L 342.477107 121.153629 
L 340.4489 118.030464 
L 338.312931 114.979985 
L 336.071804 112.005908 
L 333.728248 109.111857 
L 331.285119 106.301359 
L 328.745393 103.577836 
L 326.112164 100.944607 
L 323.388641 98.404881 
L 320.578143 95.961752 
L 317.684092 93.618196 
L 314.710015 91.377069 
L 311.659536 89.2411 
L 308.536371 87.212893 
L 305.344325 85.294918 
L 302.087288 83.489513 
L 298.769226 81.798876 
L 295.394184 80.225068 
L 291.966272 78.770006 
L 288.489668 77.435462 
L 284.968606 76.223064 
L 281.407378 75.134287 
L 277.810321 74.170458 
L 274.181818 73.332752 
L 270.52629 72.62219 
L 266.84819 72.039636 
L 263.152001 71.585801 
L 259.442224 71.261238 
L 255.72338 71.066341 
L 252 71.001349 
L 248.27662 71.066341 
L 244.557776 71.261238 
L 240.847999 71.585801 
L 237.15181 72.039636 
L 233.47371 72.62219 
L 229.818182 73.332752 
L 226.189679 74.170458 
L 222.592622 75.134287 
L 219.031394 76.223064 
L 215.510332 77.435462 
L 212.033728 78.770006 
L 208.605816 80.225068 
L 205.230774 81.798876 
L 201.912712 83.489513 
L 198.655675 85.294918 
L 195.463629 87.212893 
L 192.340464 89.2411 
L 189.289985 91.377069 
L 186.315908 93.618196 
L 183.421857 95.961752 
L 180.611359 98.404881 
L 177.887836 100.944607 
L 175.254607 103.577836 
L 172.714881 106.301359 
L 170.271752 109.111857 
L 167.928196 112.005908 
L 165.687069 114.979985 
L 163.5511 118.030464 
L 161.522893 121.153629 
L 159.604918 124.345675 
L 157.799513 127.602712 
L 156.108876 130.920774 
L 154.535068 134.295816 
L 153.080006 137.723728 
L 151.745462 141.200332 
L 150.533064 144.721394 
L 149.444287 148.282622 
L 148.480458 151.879679 
L 147.642752 155.508182 
L 146.93219 159.16371 
L 146.349636 162.84181 
L 145.895801 166.537999 
L 145.571238 170.247776 
L 145.376341 173.96662 
L 145.311349 177.69 
L 145.376341 181.41338 
L 145.571238 185.132224 
L 145.895801 188.842001 
L 146.349636 192.53819 
L 146.93219 196.21629 
L 147.642752 199.871818 
L 148.480458 203.500321 
L 149.444287 207.097378 
L 150.533064 210.658606 
L 151.745462 214.179668 
L 153.080006 217.656272 
L 154.535068 221.084184 
L 156.108876 224.459226 
L 157.799513 227.777288 
L 159.604918 231.034325 
L 161.522893 234.226371 
L 163.5511 237.349536 
L 165.687069 240.400015 
L 167.928196 243.374092 
L 170.271752 246.268143 
L 172.714881 249.078641 
L 175.254607 251.802164 
L 177.887836 254.435393 
L 180.611359 256.975119 
L 183.421857 259.418248 
L 186.315908 261.761804 
L 189.289985 264.002931 
L 192.340464 266.1389 
L 195.463629 268.167107 
L 198.655675 270.085082 
L 201.912712 271.890487 
L 205.230774 273.581124 
L 208.605816 275.154932 
L 212.033728 276.609994 
L 215.510332 277.944538 
L 219.031394 279.156936 
L 222.592622 280.245713 
L 226.189679 281.209542 
L 229.818182 282.047248 
L 233.47371 282.75781 
L 237.15181 283.340364 
L 240.847999 283.794199 
L 244.557776 284.118762 
L 248.27662 284.313659 
L 252 284.378651 
L 255.72338 284.313659 
L 259.442224 284.118762 
L 263.152001 283.794199 
L 266.84819 283.340364 
L 270.52629 282.75781 
L 274.181818 282.047248 
L 277.810321 281.209542 
L 281.407378 280.245713 
L 284.968606 279.156936 
L 288.489668 277.944538 
L 291.966272 276.609994 
L 295.394184 275.154932 
L 298.769226 273.581124 
L 302.087288 271.890487 
L 305.344325 270.085082 
L 308.536371 268.167107 
L 311.659536 266.1389 
L 314.710015 264.002931 
L 317.684092 261.761804 
L 320.578143 259.418248 
L 323.388641 256.975119 
L 326.112164 254.435393 
L 328.745393 251.802164 
L 331.285119 249.078641 
L 333.728248 246.268143 
L 336.071804 243.374092 
L 338.312931 240.400015 
L 340.4489 237.349536 
L 342.477107 234.226371 
L 344.395082 231.034325 
L 346.200487 227.777288 
L 347.891124 224.459226 
L 349.464932 221.084184 
L 350.919994 217.656272 
L 352.254538 214.179668 
L 353.466936 210.658606 
L 354.555713 207.097378 
L 355.519542 203.500321 
L 356.357248 199.871818 
L 357.06781 196.21629 
L 357.650364 192.53819 
L 358.104199 188.842001 
L 358.428762 185.132224 
L 358.623659 181.41338 
L 358.688651 177.69 
L 358.688651 177.69 
" style="fill:none;stroke:#808080;stroke-linecap:square;stroke-width:0.8;"/>
     </g>
     <g id="text_14">
      <!-- 0.8 -->
      <g transform="translate(350.567461 134.366396)scale(0.12 -0.12)">
       <use xlink:href="#DejaVuSans-48"/>
       <use x="63.623047" xlink:href="#DejaVuSans-46"/>
       <use x="95.410156" xlink:href="#DejaVuSans-56"/>
      </g>
     </g>
    </g>
    <g id="ytick_6">
     <g id="line2d_14">
      <path clip-path="url(#pdc264cb948)" d="M 384.105899 177.69 
L 384.025424 173.079571 
L 383.784096 168.474758 
L 383.382209 163.881173 
L 382.820254 159.304412 
L 382.098914 154.750051 
L 381.219068 150.223639 
L 380.181789 145.73069 
L 378.988341 141.276679 
L 377.640176 136.867032 
L 376.138939 132.507121 
L 374.486457 128.202259 
L 372.684744 123.95769 
L 370.735996 119.778585 
L 368.642586 115.670037 
L 366.407065 111.63705 
L 364.032156 107.684539 
L 361.520754 103.817319 
L 358.875918 100.040101 
L 356.100869 96.357487 
L 353.19899 92.773965 
L 350.173815 89.2939 
L 347.029031 85.921531 
L 343.768469 82.660969 
L 340.3961 79.516185 
L 336.916035 76.49101 
L 333.332513 73.589131 
L 329.649899 70.814082 
L 325.872681 68.169246 
L 322.005461 65.657844 
L 318.05295 63.282935 
L 314.019963 61.047414 
L 309.911415 58.954004 
L 305.73231 57.005256 
L 301.487741 55.203543 
L 297.182879 53.551061 
L 292.822968 52.049824 
L 288.413321 50.701659 
L 283.95931 49.508211 
L 279.466361 48.470932 
L 274.939949 47.591086 
L 270.385588 46.869746 
L 265.808827 46.307791 
L 261.215242 45.905904 
L 256.610429 45.664576 
L 252 45.584101 
L 247.389571 45.664576 
L 242.784758 45.905904 
L 238.191173 46.307791 
L 233.614412 46.869746 
L 229.060051 47.591086 
L 224.533639 48.470932 
L 220.04069 49.508211 
L 215.586679 50.701659 
L 211.177032 52.049824 
L 206.817121 53.551061 
L 202.512259 55.203543 
L 198.26769 57.005256 
L 194.088585 58.954004 
L 189.980037 61.047414 
L 185.94705 63.282935 
L 181.994539 65.657844 
L 178.127319 68.169246 
L 174.350101 70.814082 
L 170.667487 73.589131 
L 167.083965 76.49101 
L 163.6039 79.516185 
L 160.231531 82.660969 
L 156.970969 85.921531 
L 153.826185 89.2939 
L 150.80101 92.773965 
L 147.899131 96.357487 
L 145.124082 100.040101 
L 142.479246 103.817319 
L 139.967844 107.684539 
L 137.592935 111.63705 
L 135.357414 115.670037 
L 133.264004 119.778585 
L 131.315256 123.95769 
L 129.513543 128.202259 
L 127.861061 132.507121 
L 126.359824 136.867032 
L 125.011659 141.276679 
L 123.818211 145.73069 
L 122.780932 150.223639 
L 121.901086 154.750051 
L 121.179746 159.304412 
L 120.617791 163.881173 
L 120.215904 168.474758 
L 119.974576 173.079571 
L 119.894101 177.69 
L 119.974576 182.300429 
L 120.215904 186.905242 
L 120.617791 191.498827 
L 121.179746 196.075588 
L 121.901086 200.629949 
L 122.780932 205.156361 
L 123.818211 209.64931 
L 125.011659 214.103321 
L 126.359824 218.512968 
L 127.861061 222.872879 
L 129.513543 227.177741 
L 131.315256 231.42231 
L 133.264004 235.601415 
L 135.357414 239.709963 
L 137.592935 243.74295 
L 139.967844 247.695461 
L 142.479246 251.562681 
L 145.124082 255.339899 
L 147.899131 259.022513 
L 150.80101 262.606035 
L 153.826185 266.0861 
L 156.970969 269.458469 
L 160.231531 272.719031 
L 163.6039 275.863815 
L 167.083965 278.88899 
L 170.667487 281.790869 
L 174.350101 284.565918 
L 178.127319 287.210754 
L 181.994539 289.722156 
L 185.94705 292.097065 
L 189.980037 294.332586 
L 194.088585 296.425996 
L 198.26769 298.374744 
L 202.512259 300.176457 
L 206.817121 301.828939 
L 211.177032 303.330176 
L 215.586679 304.678341 
L 220.04069 305.871789 
L 224.533639 306.909068 
L 229.060051 307.788914 
L 233.614412 308.510254 
L 238.191173 309.072209 
L 242.784758 309.474096 
L 247.389571 309.715424 
L 252 309.795899 
L 256.610429 309.715424 
L 261.215242 309.474096 
L 265.808827 309.072209 
L 270.385588 308.510254 
L 274.939949 307.788914 
L 279.466361 306.909068 
L 283.95931 305.871789 
L 288.413321 304.678341 
L 292.822968 303.330176 
L 297.182879 301.828939 
L 301.487741 300.176457 
L 305.73231 298.374744 
L 309.911415 296.425996 
L 314.019963 294.332586 
L 318.05295 292.097065 
L 322.005461 289.722156 
L 325.872681 287.210754 
L 329.649899 284.565918 
L 333.332513 281.790869 
L 336.916035 278.88899 
L 340.3961 275.863815 
L 343.768469 272.719031 
L 347.029031 269.458469 
L 350.173815 266.0861 
L 353.19899 262.606035 
L 356.100869 259.022513 
L 358.875918 255.339899 
L 361.520754 251.562681 
L 364.032156 247.695461 
L 366.407065 243.74295 
L 368.642586 239.709963 
L 370.735996 235.601415 
L 372.684744 231.42231 
L 374.486457 227.177741 
L 376.138939 222.872879 
L 377.640176 218.512968 
L 378.988341 214.103321 
L 380.181789 209.64931 
L 381.219068 205.156361 
L 382.098914 200.629949 
L 382.820254 196.075588 
L 383.382209 191.498827 
L 383.784096 186.905242 
L 384.025424 182.300429 
L 384.105899 177.69 
L 384.105899 177.69 
" style="fill:none;stroke:#808080;stroke-linecap:square;stroke-width:0.8;"/>
     </g>
     <g id="text_15">
      <!-- 1.0 -->
      <g transform="translate(374.049936 124.639636)scale(0.12 -0.12)">
       <use xlink:href="#DejaVuSans-49"/>
       <use x="63.623047" xlink:href="#DejaVuSans-46"/>
       <use x="95.410156" xlink:href="#DejaVuSans-48"/>
      </g>
     </g>
    </g>
    <g id="text_16">
     <!-- magnitude [] -->
     <defs>
      <path d="M 52 44.1875 
Q 55.375 50.25 60.0625 53.125 
Q 64.75 56 71.09375 56 
Q 79.640625 56 84.28125 50.015625 
Q 88.921875 44.046875 88.921875 33.015625 
L 88.921875 0 
L 79.890625 0 
L 79.890625 32.71875 
Q 79.890625 40.578125 77.09375 44.375 
Q 74.3125 48.1875 68.609375 48.1875 
Q 61.625 48.1875 57.5625 43.546875 
Q 53.515625 38.921875 53.515625 30.90625 
L 53.515625 0 
L 44.484375 0 
L 44.484375 32.71875 
Q 44.484375 40.625 41.703125 44.40625 
Q 38.921875 48.1875 33.109375 48.1875 
Q 26.21875 48.1875 22.15625 43.53125 
Q 18.109375 38.875 18.109375 30.90625 
L 18.109375 0 
L 9.078125 0 
L 9.078125 54.6875 
L 18.109375 54.6875 
L 18.109375 46.1875 
Q 21.1875 51.21875 25.484375 53.609375 
Q 29.78125 56 35.6875 56 
Q 41.65625 56 45.828125 52.96875 
Q 50 49.953125 52 44.1875 
z
" id="DejaVuSans-109"/>
      <path d="M 34.28125 27.484375 
Q 23.390625 27.484375 19.1875 25 
Q 14.984375 22.515625 14.984375 16.5 
Q 14.984375 11.71875 18.140625 8.90625 
Q 21.296875 6.109375 26.703125 6.109375 
Q 34.1875 6.109375 38.703125 11.40625 
Q 43.21875 16.703125 43.21875 25.484375 
L 43.21875 27.484375 
z
M 52.203125 31.203125 
L 52.203125 0 
L 43.21875 0 
L 43.21875 8.296875 
Q 40.140625 3.328125 35.546875 0.953125 
Q 30.953125 -1.421875 24.3125 -1.421875 
Q 15.921875 -1.421875 10.953125 3.296875 
Q 6 8.015625 6 15.921875 
Q 6 25.140625 12.171875 29.828125 
Q 18.359375 34.515625 30.609375 34.515625 
L 43.21875 34.515625 
L 43.21875 35.40625 
Q 43.21875 41.609375 39.140625 45 
Q 35.0625 48.390625 27.6875 48.390625 
Q 23 48.390625 18.546875 47.265625 
Q 14.109375 46.140625 10.015625 43.890625 
L 10.015625 52.203125 
Q 14.9375 54.109375 19.578125 55.046875 
Q 24.21875 56 28.609375 56 
Q 40.484375 56 46.34375 49.84375 
Q 52.203125 43.703125 52.203125 31.203125 
z
" id="DejaVuSans-97"/>
      <path d="M 45.40625 27.984375 
Q 45.40625 37.75 41.375 43.109375 
Q 37.359375 48.484375 30.078125 48.484375 
Q 22.859375 48.484375 18.828125 43.109375 
Q 14.796875 37.75 14.796875 27.984375 
Q 14.796875 18.265625 18.828125 12.890625 
Q 22.859375 7.515625 30.078125 7.515625 
Q 37.359375 7.515625 41.375 12.890625 
Q 45.40625 18.265625 45.40625 27.984375 
z
M 54.390625 6.78125 
Q 54.390625 -7.171875 48.1875 -13.984375 
Q 42 -20.796875 29.203125 -20.796875 
Q 24.46875 -20.796875 20.265625 -20.09375 
Q 16.0625 -19.390625 12.109375 -17.921875 
L 12.109375 -9.1875 
Q 16.0625 -11.328125 19.921875 -12.34375 
Q 23.78125 -13.375 27.78125 -13.375 
Q 36.625 -13.375 41.015625 -8.765625 
Q 45.40625 -4.15625 45.40625 5.171875 
L 45.40625 9.625 
Q 42.625 4.78125 38.28125 2.390625 
Q 33.9375 0 27.875 0 
Q 17.828125 0 11.671875 7.65625 
Q 5.515625 15.328125 5.515625 27.984375 
Q 5.515625 40.671875 11.671875 48.328125 
Q 17.828125 56 27.875 56 
Q 33.9375 56 38.28125 53.609375 
Q 42.625 51.21875 45.40625 46.390625 
L 45.40625 54.6875 
L 54.390625 54.6875 
z
" id="DejaVuSans-103"/>
      <path d="M 9.421875 54.6875 
L 18.40625 54.6875 
L 18.40625 0 
L 9.421875 0 
z
M 9.421875 75.984375 
L 18.40625 75.984375 
L 18.40625 64.59375 
L 9.421875 64.59375 
z
" id="DejaVuSans-105"/>
      <path d="M 18.3125 70.21875 
L 18.3125 54.6875 
L 36.8125 54.6875 
L 36.8125 47.703125 
L 18.3125 47.703125 
L 18.3125 18.015625 
Q 18.3125 11.328125 20.140625 9.421875 
Q 21.96875 7.515625 27.59375 7.515625 
L 36.8125 7.515625 
L 36.8125 0 
L 27.59375 0 
Q 17.1875 0 13.234375 3.875 
Q 9.28125 7.765625 9.28125 18.015625 
L 9.28125 47.703125 
L 2.6875 47.703125 
L 2.6875 54.6875 
L 9.28125 54.6875 
L 9.28125 70.21875 
z
" id="DejaVuSans-116"/>
      <path d="M 45.40625 46.390625 
L 45.40625 75.984375 
L 54.390625 75.984375 
L 54.390625 0 
L 45.40625 0 
L 45.40625 8.203125 
Q 42.578125 3.328125 38.25 0.953125 
Q 33.9375 -1.421875 27.875 -1.421875 
Q 17.96875 -1.421875 11.734375 6.484375 
Q 5.515625 14.40625 5.515625 27.296875 
Q 5.515625 40.1875 11.734375 48.09375 
Q 17.96875 56 27.875 56 
Q 33.9375 56 38.25 53.625 
Q 42.578125 51.265625 45.40625 46.390625 
z
M 14.796875 27.296875 
Q 14.796875 17.390625 18.875 11.75 
Q 22.953125 6.109375 30.078125 6.109375 
Q 37.203125 6.109375 41.296875 11.75 
Q 45.40625 17.390625 45.40625 27.296875 
Q 45.40625 37.203125 41.296875 42.84375 
Q 37.203125 48.484375 30.078125 48.484375 
Q 22.953125 48.484375 18.875 42.84375 
Q 14.796875 37.203125 14.796875 27.296875 
z
" id="DejaVuSans-100"/>
     </defs>
     <g transform="translate(107.114375 216.734062)rotate(-90)scale(0.12 -0.12)">
      <use xlink:href="#DejaVuSans-109"/>
      <use x="97.412109" xlink:href="#DejaVuSans-97"/>
      <use x="158.691406" xlink:href="#DejaVuSans-103"/>
      <use x="222.167969" xlink:href="#DejaVuSans-110"/>
      <use x="285.546875" xlink:href="#DejaVuSans-105"/>
      <use x="313.330078" xlink:href="#DejaVuSans-116"/>
      <use x="352.539062" xlink:href="#DejaVuSans-117"/>
      <use x="415.917969" xlink:href="#DejaVuSans-100"/>
      <use x="479.394531" xlink:href="#DejaVuSans-101"/>
      <use x="540.917969" xlink:href="#DejaVuSans-32"/>
      <use x="572.705078" xlink:href="#DejaVuSans-91"/>
      <use x="611.71875" xlink:href="#DejaVuSans-93"/>
     </g>
    </g>
   </g>
   <g id="line2d_15">
    <path clip-path="url(#pdc264cb948)" d="M 384.092941 179.010929 
L 384.090291 179.139689 
L 384.0871 179.280994 
L 384.083256 179.436063 
L 384.078626 179.606235 
L 384.07305 179.792976 
L 384.066335 179.997897 
L 384.058246 180.222759 
L 384.048505 180.469494 
L 384.036774 180.740221 
L 384.022647 181.037255 
L 384.005635 181.363135 
L 383.98515 181.720636 
L 383.960483 182.112791 
L 383.930785 182.542915 
L 383.895032 183.014625 
L 383.851993 183.531863 
L 383.80019 184.098918 
L 383.737848 184.720453 
L 383.662836 185.40152 
L 383.5726 186.147583 
L 383.464075 186.964531 
L 383.333599 187.858684 
L 383.176787 188.836793 
L 382.988411 189.906023 
L 382.762238 191.073921 
L 382.490863 192.348352 
L 382.165503 193.737412 
L 381.775784 195.249284 
L 381.309499 196.89205 
L 380.75235 198.673425 
L 380.087696 200.6004 
L 379.296303 202.678782 
L 378.356141 204.912605 
L 377.242254 207.303398 
L 375.926748 209.849291 
L 374.378974 212.543971 
L 372.565982 215.3755 
L 370.453318 218.325047 
L 368.006284 221.365621 
L 365.191719 224.460959 
L 361.980341 227.564748 
L 358.349626 230.62046 
L 354.287076 233.562036 
L 349.793592 236.315718 
L 344.886544 238.803144 
L 339.601991 240.945725 
L 333.995483 242.670018 
L 328.141001 243.913559 
L 322.127809 244.630392 
L 316.055381 244.795426 
L 310.026946 244.406887 
L 304.142526 243.486406 
L 298.492439 242.076745 
L 293.152129 240.237577 
L 288.178909 238.040058 
L 283.610766 235.56104 
L 279.467051 232.877704 
L 275.750589 230.063154 
L 272.45067 227.183245 
L 269.546367 224.294692 
L 267.009775 221.444291 
L 264.808875 218.669013 
L 262.909888 215.996709 
L 261.279071 213.447164 
L 259.883991 211.033313 
L 258.694362 208.762475 
L 257.682513 206.637504 
L 256.823598 204.657822 
L 256.095611 202.820291 
L 255.479272 201.119942 
L 254.957838 199.550562 
L 254.516875 198.105153 
L 254.144009 196.776288 
L 253.828679 195.556381 
L 253.561913 194.437879 
L 253.336102 193.413408 
L 253.144816 192.475867 
L 252.982628 191.618492 
L 252.844964 190.834897 
L 252.727974 190.119088 
L 252.628422 189.465472 
L 252.543583 188.868852 
L 252.471171 188.324415 
L 252.409261 187.827716 
L 252.356239 187.374661 
L 252.310743 186.961485 
L 252.271632 186.584731 
L 252.237943 186.241228 
L 252.208865 185.928073 
L 252.183716 185.642608 
L 252.161918 185.382403 
L 252.142985 185.145237 
L 252.126505 184.92908 
L 252.11213 184.732079 
L 252.099564 184.552543 
L 252.088556 184.388929 
L 252.078893 184.239828 
L 252.070393 184.103955 
L 252.062901 183.98014 
" style="fill:none;stroke:#0000ff;stroke-linecap:square;stroke-width:2;"/>
   </g>
   <g id="patch_3">
    <path d="M 390.39 177.69 
C 390.39 159.516792 386.810274 141.520295 379.855689 124.73044 
C 372.901103 107.940585 362.706906 92.683891 349.856507 79.833493 
C 337.006109 66.983094 321.749415 56.788897 304.95956 49.834311 
C 288.169705 42.879726 270.173208 39.3 252 39.3 
C 233.826792 39.3 215.830295 42.879726 199.04044 49.834311 
C 182.250585 56.788897 166.993891 66.983094 154.143493 79.833493 
C 141.293094 92.683891 131.098897 107.940585 124.144311 124.73044 
C 117.189726 141.520295 113.61 159.516792 113.61 177.69 
C 113.61 195.863208 117.189726 213.859705 124.144311 230.64956 
C 131.098897 247.439415 141.293094 262.696109 154.143493 275.546507 
C 166.993891 288.396906 182.250585 298.591103 199.04044 305.545689 
C 215.830295 312.500274 233.826792 316.08 252 316.08 
C 270.173208 316.08 288.169705 312.500274 304.95956 305.545689 
C 321.749415 298.591103 337.006109 288.396906 349.856507 275.546507 
C 362.706906 262.696109 372.901103 247.439415 379.855689 230.64956 
C 386.810274 213.859705 390.39 195.863208 390.39 177.69 
" style="fill:none;stroke:#000000;stroke-linecap:square;stroke-linejoin:miter;stroke-width:0.8;"/>
   </g>
   <g id="text_17">
    <!-- Polar plot -->
    <defs>
     <path d="M 19.671875 64.796875 
L 19.671875 37.40625 
L 32.078125 37.40625 
Q 38.96875 37.40625 42.71875 40.96875 
Q 46.484375 44.53125 46.484375 51.125 
Q 46.484375 57.671875 42.71875 61.234375 
Q 38.96875 64.796875 32.078125 64.796875 
z
M 9.8125 72.90625 
L 32.078125 72.90625 
Q 44.34375 72.90625 50.609375 67.359375 
Q 56.890625 61.8125 56.890625 51.125 
Q 56.890625 40.328125 50.609375 34.8125 
Q 44.34375 29.296875 32.078125 29.296875 
L 19.671875 29.296875 
L 19.671875 0 
L 9.8125 0 
z
" id="DejaVuSans-80"/>
     <path d="M 30.609375 48.390625 
Q 23.390625 48.390625 19.1875 42.75 
Q 14.984375 37.109375 14.984375 27.296875 
Q 14.984375 17.484375 19.15625 11.84375 
Q 23.34375 6.203125 30.609375 6.203125 
Q 37.796875 6.203125 41.984375 11.859375 
Q 46.1875 17.53125 46.1875 27.296875 
Q 46.1875 37.015625 41.984375 42.703125 
Q 37.796875 48.390625 30.609375 48.390625 
z
M 30.609375 56 
Q 42.328125 56 49.015625 48.375 
Q 55.71875 40.765625 55.71875 27.296875 
Q 55.71875 13.875 49.015625 6.21875 
Q 42.328125 -1.421875 30.609375 -1.421875 
Q 18.84375 -1.421875 12.171875 6.21875 
Q 5.515625 13.875 5.515625 27.296875 
Q 5.515625 40.765625 12.171875 48.375 
Q 18.84375 56 30.609375 56 
z
" id="DejaVuSans-111"/>
     <path d="M 9.421875 75.984375 
L 18.40625 75.984375 
L 18.40625 0 
L 9.421875 0 
z
" id="DejaVuSans-108"/>
     <path d="M 18.109375 8.203125 
L 18.109375 -20.796875 
L 9.078125 -20.796875 
L 9.078125 54.6875 
L 18.109375 54.6875 
L 18.109375 46.390625 
Q 20.953125 51.265625 25.265625 53.625 
Q 29.59375 56 35.59375 56 
Q 45.5625 56 51.78125 48.09375 
Q 58.015625 40.1875 58.015625 27.296875 
Q 58.015625 14.40625 51.78125 6.484375 
Q 45.5625 -1.421875 35.59375 -1.421875 
Q 29.59375 -1.421875 25.265625 0.953125 
Q 20.953125 3.328125 18.109375 8.203125 
z
M 48.6875 27.296875 
Q 48.6875 37.203125 44.609375 42.84375 
Q 40.53125 48.484375 33.40625 48.484375 
Q 26.265625 48.484375 22.1875 42.84375 
Q 18.109375 37.203125 18.109375 27.296875 
Q 18.109375 17.390625 22.1875 11.75 
Q 26.265625 6.109375 33.40625 6.109375 
Q 40.53125 6.109375 44.609375 11.75 
Q 48.6875 17.390625 48.6875 27.296875 
z
" id="DejaVuSans-112"/>
    </defs>
    <g transform="translate(223.497188 19.461)scale(0.12 -0.12)">
     <use xlink:href="#DejaVuSans-80"/>
     <use x="60.255859" xlink:href="#DejaVuSans-111"/>
     <use x="121.4375" xlink:href="#DejaVuSans-108"/>
     <use x="149.220703" xlink:href="#DejaVuSans-97"/>
     <use x="210.5" xlink:href="#DejaVuSans-114"/>
     <use x="251.613281" xlink:href="#DejaVuSans-32"/>
     <use x="283.400391" xlink:href="#DejaVuSans-112"/>
     <use x="346.876953" xlink:href="#DejaVuSans-108"/>
     <use x="374.660156" xlink:href="#DejaVuSans-111"/>
     <use x="435.841797" xlink:href="#DejaVuSans-116"/>
    </g>
   </g>
   <g id="legend_1">
    <g id="patch_4">
     <path d="M 345.479375 59.91375 
L 383.39 59.91375 
Q 385.39 59.91375 385.39 57.91375 
L 385.39 46.3 
Q 385.39 44.3 383.39 44.3 
L 345.479375 44.3 
Q 343.479375 44.3 343.479375 46.3 
L 343.479375 57.91375 
Q 343.479375 59.91375 345.479375 59.91375 
z
" style="fill:#ffffff;opacity:0.8;stroke:#cccccc;stroke-linejoin:miter;"/>
    </g>
    <g id="line2d_16">
     <path d="M 345.479375 51.918125 
L 355.479375 51.918125 
" style="fill:none;stroke:#0000ff;stroke-linecap:square;stroke-width:2;"/>
    </g>
    <g id="line2d_17"/>
    <g id="text_18">
     <!-- gain -->
     <g transform="translate(357.479375 55.418125)scale(0.12 -0.12)">
      <use xlink:href="#DejaVuSans-103"/>
      <use x="63.476562" xlink:href="#DejaVuSans-97"/>
      <use x="124.755859" xlink:href="#DejaVuSans-105"/>
      <use x="152.539062" xlink:href="#DejaVuSans-110"/>
     </g>
    </g>
   </g>
  </g>
 </g>
 <defs>
  <clipPath id="pdc264cb948">
   <path d="M 390.39 177.69 
C 390.39 159.516792 386.810274 141.520295 379.855689 124.73044 
C 372.901103 107.940585 362.706906 92.683891 349.856507 79.833493 
C 337.006109 66.983094 321.749415 56.788897 304.95956 49.834311 
C 288.169705 42.879726 270.173208 39.3 252 39.3 
C 233.826792 39.3 215.830295 42.879726 199.04044 49.834311 
C 182.250585 56.788897 166.993891 66.983094 154.143493 79.833493 
C 141.293094 92.683891 131.098897 107.940585 124.144311 124.73044 
C 117.189726 141.520295 113.61 159.516792 113.61 177.69 
C 113.61 195.863208 117.189726 213.859705 124.144311 230.64956 
C 131.098897 247.439415 141.293094 262.696109 154.143493 275.546507 
C 166.993891 288.396906 182.250585 298.591103 199.04044 305.545689 
C 215.830295 312.500274 233.826792 316.08 252 316.08 
C 270.173208 316.08 288.169705 312.500274 304.95956 305.545689 
C 321.749415 298.591103 337.006109 288.396906 349.856507 275.546507 
C 362.706906 262.696109 372.901103 247.439415 379.855689 230.64956 
C 386.810274 213.859705 390.39 195.863208 390.39 177.69 
M 252 177.69 
C 252 177.69 252 177.69 252 177.69 
C 252 177.69 252 177.69 252 177.69 
C 252 177.69 252 177.69 252 177.69 
C 252 177.69 252 177.69 252 177.69 
C 252 177.69 252 177.69 252 177.69 
C 252 177.69 252 177.69 252 177.69 
C 252 177.69 252 177.69 252 177.69 
C 252 177.69 252 177.69 252 177.69 
C 252 177.69 252 177.69 252 177.69 
C 252 177.69 252 177.69 252 177.69 
C 252 177.69 252 177.69 252 177.69 
C 252 177.69 252 177.69 252 177.69 
C 252 177.69 252 177.69 252 177.69 
C 252 177.69 252 177.69 252 177.69 
C 252 177.69 252 177.69 252 177.69 
C 252 177.69 252 177.69 252 177.69 
M 390.39 177.69 
z
"/>
  </clipPath>
 </defs>
</svg>
