<?xml version="1.0" encoding="utf-8" standalone="no"?>
<!DOCTYPE svg PUBLIC "-//W3C//DTD SVG 1.1//EN"
  "http://www.w3.org/Graphics/SVG/1.1/DTD/svg11.dtd">
<svg height="360pt" version="1.1" viewBox="0 0 504 360" width="504pt" xmlns="http://www.w3.org/2000/svg" xmlns:xlink="http://www.w3.org/1999/xlink">
 <metadata>
  <rdf:RDF xmlns:cc="http://creativecommons.org/ns#" xmlns:dc="http://purl.org/dc/elements/1.1/" xmlns:rdf="http://www.w3.org/1999/02/22-rdf-syntax-ns#">
   <cc:Work>
    <dc:type rdf:resource="http://purl.org/dc/dcmitype/StillImage"/>
    <dc:date>2023-06-12T11:46:57.400807</dc:date>
    <dc:format>image/svg+xml</dc:format>
    <dc:creator>
     <cc:Agent>
      <dc:title>Matplotlib v3.4.2, https://matplotlib.org/</dc:title>
     </cc:Agent>
    </dc:creator>
   </cc:Work>
  </rdf:RDF>
 </metadata>
 <defs>
  <style type="text/css">*{stroke-linecap:butt;stroke-linejoin:round;}</style>
 </defs>
 <g id="figure_1">
  <g id="patch_1">
   <path d="M 0 360 
L 504 360 
L 504 0 
L 0 0 
z
" style="fill:#ffffff;"/>
  </g>
  <g id="axes_1">
   <g id="patch_2">
    <path d="M 64.275 309.1 
L 493.2 309.1 
L 493.2 28.8 
L 64.275 28.8 
z
" style="fill:#ffffff;"/>
   </g>
   <g id="matplotlib.axis_1">
    <g id="xtick_1">
     <g id="line2d_1">
      <path clip-path="url(#p38286c1004)" d="M 94.60303 309.1 
L 94.60303 28.8 
" style="fill:none;stroke:#808080;stroke-linecap:square;stroke-width:0.8;"/>
     </g>
     <g id="line2d_2">
      <defs>
       <path d="M 0 0 
L 0 3.5 
" id="mae323b314c" style="stroke:#000000;stroke-width:0.8;"/>
      </defs>
      <g>
       <use style="stroke:#000000;stroke-width:0.8;" x="94.60303" xlink:href="#mae323b314c" y="309.1"/>
      </g>
     </g>
     <g id="text_1">
      <!-- −1.75 -->
      <g transform="translate(76.215843 325.218125)scale(0.12 -0.12)">
       <defs>
        <path d="M 678 2272 
L 4684 2272 
L 4684 1741 
L 678 1741 
L 678 2272 
z
" id="DejaVuSans-2212" transform="scale(0.015625)"/>
        <path d="M 794 531 
L 1825 531 
L 1825 4091 
L 703 3866 
L 703 4441 
L 1819 4666 
L 2450 4666 
L 2450 531 
L 3481 531 
L 3481 0 
L 794 0 
L 794 531 
z
" id="DejaVuSans-31" transform="scale(0.015625)"/>
        <path d="M 684 794 
L 1344 794 
L 1344 0 
L 684 0 
L 684 794 
z
" id="DejaVuSans-2e" transform="scale(0.015625)"/>
        <path d="M 525 4666 
L 3525 4666 
L 3525 4397 
L 1831 0 
L 1172 0 
L 2766 4134 
L 525 4134 
L 525 4666 
z
" id="DejaVuSans-37" transform="scale(0.015625)"/>
        <path d="M 691 4666 
L 3169 4666 
L 3169 4134 
L 1269 4134 
L 1269 2991 
Q 1406 3038 1543 3061 
Q 1681 3084 1819 3084 
Q 2600 3084 3056 2656 
Q 3513 2228 3513 1497 
Q 3513 744 3044 326 
Q 2575 -91 1722 -91 
Q 1428 -91 1123 -41 
Q 819 9 494 109 
L 494 744 
Q 775 591 1075 516 
Q 1375 441 1709 441 
Q 2250 441 2565 725 
Q 2881 1009 2881 1497 
Q 2881 1984 2565 2268 
Q 2250 2553 1709 2553 
Q 1456 2553 1204 2497 
Q 953 2441 691 2322 
L 691 4666 
z
" id="DejaVuSans-35" transform="scale(0.015625)"/>
       </defs>
       <use xlink:href="#DejaVuSans-2212"/>
       <use x="83.789062" xlink:href="#DejaVuSans-31"/>
       <use x="147.412109" xlink:href="#DejaVuSans-2e"/>
       <use x="179.199219" xlink:href="#DejaVuSans-37"/>
       <use x="242.822266" xlink:href="#DejaVuSans-35"/>
      </g>
     </g>
    </g>
    <g id="xtick_2">
     <g id="line2d_3">
      <path clip-path="url(#p38286c1004)" d="M 148.760227 309.1 
L 148.760227 28.8 
" style="fill:none;stroke:#808080;stroke-linecap:square;stroke-width:0.8;"/>
     </g>
     <g id="line2d_4">
      <g>
       <use style="stroke:#000000;stroke-width:0.8;" x="148.760227" xlink:href="#mae323b314c" y="309.1"/>
      </g>
     </g>
     <g id="text_2">
      <!-- −1.50 -->
      <g transform="translate(130.37304 325.218125)scale(0.12 -0.12)">
       <defs>
        <path d="M 2034 4250 
Q 1547 4250 1301 3770 
Q 1056 3291 1056 2328 
Q 1056 1369 1301 889 
Q 1547 409 2034 409 
Q 2525 409 2770 889 
Q 3016 1369 3016 2328 
Q 3016 3291 2770 3770 
Q 2525 4250 2034 4250 
z
M 2034 4750 
Q 2819 4750 3233 4129 
Q 3647 3509 3647 2328 
Q 3647 1150 3233 529 
Q 2819 -91 2034 -91 
Q 1250 -91 836 529 
Q 422 1150 422 2328 
Q 422 3509 836 4129 
Q 1250 4750 2034 4750 
z
" id="DejaVuSans-30" transform="scale(0.015625)"/>
       </defs>
       <use xlink:href="#DejaVuSans-2212"/>
       <use x="83.789062" xlink:href="#DejaVuSans-31"/>
       <use x="147.412109" xlink:href="#DejaVuSans-2e"/>
       <use x="179.199219" xlink:href="#DejaVuSans-35"/>
       <use x="242.822266" xlink:href="#DejaVuSans-30"/>
      </g>
     </g>
    </g>
    <g id="xtick_3">
     <g id="line2d_5">
      <path clip-path="url(#p38286c1004)" d="M 202.917424 309.1 
L 202.917424 28.8 
" style="fill:none;stroke:#808080;stroke-linecap:square;stroke-width:0.8;"/>
     </g>
     <g id="line2d_6">
      <g>
       <use style="stroke:#000000;stroke-width:0.8;" x="202.917424" xlink:href="#mae323b314c" y="309.1"/>
      </g>
     </g>
     <g id="text_3">
      <!-- −1.25 -->
      <g transform="translate(184.530237 325.218125)scale(0.12 -0.12)">
       <defs>
        <path d="M 1228 531 
L 3431 531 
L 3431 0 
L 469 0 
L 469 531 
Q 828 903 1448 1529 
Q 2069 2156 2228 2338 
Q 2531 2678 2651 2914 
Q 2772 3150 2772 3378 
Q 2772 3750 2511 3984 
Q 2250 4219 1831 4219 
Q 1534 4219 1204 4116 
Q 875 4013 500 3803 
L 500 4441 
Q 881 4594 1212 4672 
Q 1544 4750 1819 4750 
Q 2544 4750 2975 4387 
Q 3406 4025 3406 3419 
Q 3406 3131 3298 2873 
Q 3191 2616 2906 2266 
Q 2828 2175 2409 1742 
Q 1991 1309 1228 531 
z
" id="DejaVuSans-32" transform="scale(0.015625)"/>
       </defs>
       <use xlink:href="#DejaVuSans-2212"/>
       <use x="83.789062" xlink:href="#DejaVuSans-31"/>
       <use x="147.412109" xlink:href="#DejaVuSans-2e"/>
       <use x="179.199219" xlink:href="#DejaVuSans-32"/>
       <use x="242.822266" xlink:href="#DejaVuSans-35"/>
      </g>
     </g>
    </g>
    <g id="xtick_4">
     <g id="line2d_7">
      <path clip-path="url(#p38286c1004)" d="M 257.074621 309.1 
L 257.074621 28.8 
" style="fill:none;stroke:#808080;stroke-linecap:square;stroke-width:0.8;"/>
     </g>
     <g id="line2d_8">
      <g>
       <use style="stroke:#000000;stroke-width:0.8;" x="257.074621" xlink:href="#mae323b314c" y="309.1"/>
      </g>
     </g>
     <g id="text_4">
      <!-- −1.00 -->
      <g transform="translate(238.687434 325.218125)scale(0.12 -0.12)">
       <use xlink:href="#DejaVuSans-2212"/>
       <use x="83.789062" xlink:href="#DejaVuSans-31"/>
       <use x="147.412109" xlink:href="#DejaVuSans-2e"/>
       <use x="179.199219" xlink:href="#DejaVuSans-30"/>
       <use x="242.822266" xlink:href="#DejaVuSans-30"/>
      </g>
     </g>
    </g>
    <g id="xtick_5">
     <g id="line2d_9">
      <path clip-path="url(#p38286c1004)" d="M 311.231818 309.1 
L 311.231818 28.8 
" style="fill:none;stroke:#808080;stroke-linecap:square;stroke-width:0.8;"/>
     </g>
     <g id="line2d_10">
      <g>
       <use style="stroke:#000000;stroke-width:0.8;" x="311.231818" xlink:href="#mae323b314c" y="309.1"/>
      </g>
     </g>
     <g id="text_5">
      <!-- −0.75 -->
      <g transform="translate(292.844631 325.218125)scale(0.12 -0.12)">
       <use xlink:href="#DejaVuSans-2212"/>
       <use x="83.789062" xlink:href="#DejaVuSans-30"/>
       <use x="147.412109" xlink:href="#DejaVuSans-2e"/>
       <use x="179.199219" xlink:href="#DejaVuSans-37"/>
       <use x="242.822266" xlink:href="#DejaVuSans-35"/>
      </g>
     </g>
    </g>
    <g id="xtick_6">
     <g id="line2d_11">
      <path clip-path="url(#p38286c1004)" d="M 365.389015 309.1 
L 365.389015 28.8 
" style="fill:none;stroke:#808080;stroke-linecap:square;stroke-width:0.8;"/>
     </g>
     <g id="line2d_12">
      <g>
       <use style="stroke:#000000;stroke-width:0.8;" x="365.389015" xlink:href="#mae323b314c" y="309.1"/>
      </g>
     </g>
     <g id="text_6">
      <!-- −0.50 -->
      <g transform="translate(347.001828 325.218125)scale(0.12 -0.12)">
       <use xlink:href="#DejaVuSans-2212"/>
       <use x="83.789062" xlink:href="#DejaVuSans-30"/>
       <use x="147.412109" xlink:href="#DejaVuSans-2e"/>
       <use x="179.199219" xlink:href="#DejaVuSans-35"/>
       <use x="242.822266" xlink:href="#DejaVuSans-30"/>
      </g>
     </g>
    </g>
    <g id="xtick_7">
     <g id="line2d_13">
      <path clip-path="url(#p38286c1004)" d="M 419.546212 309.1 
L 419.546212 28.8 
" style="fill:none;stroke:#808080;stroke-linecap:square;stroke-width:0.8;"/>
     </g>
     <g id="line2d_14">
      <g>
       <use style="stroke:#000000;stroke-width:0.8;" x="419.546212" xlink:href="#mae323b314c" y="309.1"/>
      </g>
     </g>
     <g id="text_7">
      <!-- −0.25 -->
      <g transform="translate(401.159025 325.218125)scale(0.12 -0.12)">
       <use xlink:href="#DejaVuSans-2212"/>
       <use x="83.789062" xlink:href="#DejaVuSans-30"/>
       <use x="147.412109" xlink:href="#DejaVuSans-2e"/>
       <use x="179.199219" xlink:href="#DejaVuSans-32"/>
       <use x="242.822266" xlink:href="#DejaVuSans-35"/>
      </g>
     </g>
    </g>
    <g id="xtick_8">
     <g id="line2d_15">
      <path clip-path="url(#p38286c1004)" d="M 473.703409 309.1 
L 473.703409 28.8 
" style="fill:none;stroke:#808080;stroke-linecap:square;stroke-width:0.8;"/>
     </g>
     <g id="line2d_16">
      <g>
       <use style="stroke:#000000;stroke-width:0.8;" x="473.703409" xlink:href="#mae323b314c" y="309.1"/>
      </g>
     </g>
     <g id="text_8">
      <!-- 0.00 -->
      <g transform="translate(460.344034 325.218125)scale(0.12 -0.12)">
       <use xlink:href="#DejaVuSans-30"/>
       <use x="63.623047" xlink:href="#DejaVuSans-2e"/>
       <use x="95.410156" xlink:href="#DejaVuSans-30"/>
       <use x="159.033203" xlink:href="#DejaVuSans-30"/>
      </g>
     </g>
    </g>
    <g id="text_9">
     <!-- $V_{G}$ [V] -->
     <g transform="translate(260.4975 340.831875)scale(0.12 -0.12)">
      <defs>
       <path d="M 1319 0 
L 500 4666 
L 1119 4666 
L 1797 653 
L 4063 4666 
L 4750 4666 
L 2053 0 
L 1319 0 
z
" id="DejaVuSans-Oblique-56" transform="scale(0.015625)"/>
       <path d="M 3494 697 
L 3738 1919 
L 2700 1919 
L 2797 2438 
L 4453 2438 
L 4050 384 
Q 3634 156 3143 32 
Q 2653 -91 2156 -91 
Q 1278 -91 783 396 
Q 288 884 288 1753 
Q 288 2475 589 3126 
Q 891 3778 1422 4213 
Q 1756 4484 2153 4617 
Q 2550 4750 3034 4750 
Q 3472 4750 3873 4639 
Q 4275 4528 4641 4306 
L 4513 3634 
Q 4231 3928 3853 4083 
Q 3475 4238 3047 4238 
Q 2550 4238 2172 4048 
Q 1794 3859 1497 3463 
Q 1244 3125 1098 2667 
Q 953 2209 953 1734 
Q 953 1081 1287 751 
Q 1622 422 2284 422 
Q 2616 422 2925 492 
Q 3234 563 3494 697 
z
" id="DejaVuSans-Oblique-47" transform="scale(0.015625)"/>
       <path id="DejaVuSans-20" transform="scale(0.015625)"/>
       <path d="M 550 4863 
L 1875 4863 
L 1875 4416 
L 1125 4416 
L 1125 -397 
L 1875 -397 
L 1875 -844 
L 550 -844 
L 550 4863 
z
" id="DejaVuSans-5b" transform="scale(0.015625)"/>
       <path d="M 1831 0 
L 50 4666 
L 709 4666 
L 2188 738 
L 3669 4666 
L 4325 4666 
L 2547 0 
L 1831 0 
z
" id="DejaVuSans-56" transform="scale(0.015625)"/>
       <path d="M 1947 4863 
L 1947 -844 
L 622 -844 
L 622 -397 
L 1369 -397 
L 1369 4416 
L 622 4416 
L 622 4863 
L 1947 4863 
z
" id="DejaVuSans-5d" transform="scale(0.015625)"/>
      </defs>
      <use transform="translate(0 0.015625)" xlink:href="#DejaVuSans-Oblique-56"/>
      <use transform="translate(68.408203 -16.390625)scale(0.7)" xlink:href="#DejaVuSans-Oblique-47"/>
      <use transform="translate(125.385742 0.015625)" xlink:href="#DejaVuSans-20"/>
      <use transform="translate(157.172852 0.015625)" xlink:href="#DejaVuSans-5b"/>
      <use transform="translate(196.186523 0.015625)" xlink:href="#DejaVuSans-56"/>
      <use transform="translate(264.594727 0.015625)" xlink:href="#DejaVuSans-5d"/>
     </g>
    </g>
   </g>
   <g id="matplotlib.axis_2">
    <g id="ytick_1">
     <g id="line2d_17">
      <path clip-path="url(#p38286c1004)" d="M 64.275 261.244701 
L 493.2 261.244701 
" style="fill:none;stroke:#808080;stroke-linecap:square;stroke-width:0.8;"/>
     </g>
     <g id="line2d_18">
      <defs>
       <path d="M 0 0 
L -3.5 0 
" id="m947707cbe4" style="stroke:#000000;stroke-width:0.8;"/>
      </defs>
      <g>
       <use style="stroke:#000000;stroke-width:0.8;" x="64.275" xlink:href="#m947707cbe4" y="261.244701"/>
      </g>
     </g>
     <g id="text_10">
      <!-- 0.25 -->
      <g transform="translate(30.55625 265.803763)scale(0.12 -0.12)">
       <use xlink:href="#DejaVuSans-30"/>
       <use x="63.623047" xlink:href="#DejaVuSans-2e"/>
       <use x="95.410156" xlink:href="#DejaVuSans-32"/>
       <use x="159.033203" xlink:href="#DejaVuSans-35"/>
      </g>
     </g>
    </g>
    <g id="ytick_2">
     <g id="line2d_19">
      <path clip-path="url(#p38286c1004)" d="M 64.275 204.905117 
L 493.2 204.905117 
" style="fill:none;stroke:#808080;stroke-linecap:square;stroke-width:0.8;"/>
     </g>
     <g id="line2d_20">
      <g>
       <use style="stroke:#000000;stroke-width:0.8;" x="64.275" xlink:href="#m947707cbe4" y="204.905117"/>
      </g>
     </g>
     <g id="text_11">
      <!-- 0.30 -->
      <g transform="translate(30.55625 209.46418)scale(0.12 -0.12)">
       <defs>
        <path d="M 2597 2516 
Q 3050 2419 3304 2112 
Q 3559 1806 3559 1356 
Q 3559 666 3084 287 
Q 2609 -91 1734 -91 
Q 1441 -91 1130 -33 
Q 819 25 488 141 
L 488 750 
Q 750 597 1062 519 
Q 1375 441 1716 441 
Q 2309 441 2620 675 
Q 2931 909 2931 1356 
Q 2931 1769 2642 2001 
Q 2353 2234 1838 2234 
L 1294 2234 
L 1294 2753 
L 1863 2753 
Q 2328 2753 2575 2939 
Q 2822 3125 2822 3475 
Q 2822 3834 2567 4026 
Q 2313 4219 1838 4219 
Q 1578 4219 1281 4162 
Q 984 4106 628 3988 
L 628 4550 
Q 988 4650 1302 4700 
Q 1616 4750 1894 4750 
Q 2613 4750 3031 4423 
Q 3450 4097 3450 3541 
Q 3450 3153 3228 2886 
Q 3006 2619 2597 2516 
z
" id="DejaVuSans-33" transform="scale(0.015625)"/>
       </defs>
       <use xlink:href="#DejaVuSans-30"/>
       <use x="63.623047" xlink:href="#DejaVuSans-2e"/>
       <use x="95.410156" xlink:href="#DejaVuSans-33"/>
       <use x="159.033203" xlink:href="#DejaVuSans-30"/>
      </g>
     </g>
    </g>
    <g id="ytick_3">
     <g id="line2d_21">
      <path clip-path="url(#p38286c1004)" d="M 64.275 148.565533 
L 493.2 148.565533 
" style="fill:none;stroke:#808080;stroke-linecap:square;stroke-width:0.8;"/>
     </g>
     <g id="line2d_22">
      <g>
       <use style="stroke:#000000;stroke-width:0.8;" x="64.275" xlink:href="#m947707cbe4" y="148.565533"/>
      </g>
     </g>
     <g id="text_12">
      <!-- 0.35 -->
      <g transform="translate(30.55625 153.124596)scale(0.12 -0.12)">
       <use xlink:href="#DejaVuSans-30"/>
       <use x="63.623047" xlink:href="#DejaVuSans-2e"/>
       <use x="95.410156" xlink:href="#DejaVuSans-33"/>
       <use x="159.033203" xlink:href="#DejaVuSans-35"/>
      </g>
     </g>
    </g>
    <g id="ytick_4">
     <g id="line2d_23">
      <path clip-path="url(#p38286c1004)" d="M 64.275 92.225949 
L 493.2 92.225949 
" style="fill:none;stroke:#808080;stroke-linecap:square;stroke-width:0.8;"/>
     </g>
     <g id="line2d_24">
      <g>
       <use style="stroke:#000000;stroke-width:0.8;" x="64.275" xlink:href="#m947707cbe4" y="92.225949"/>
      </g>
     </g>
     <g id="text_13">
      <!-- 0.40 -->
      <g transform="translate(30.55625 96.785012)scale(0.12 -0.12)">
       <defs>
        <path d="M 2419 4116 
L 825 1625 
L 2419 1625 
L 2419 4116 
z
M 2253 4666 
L 3047 4666 
L 3047 1625 
L 3713 1625 
L 3713 1100 
L 3047 1100 
L 3047 0 
L 2419 0 
L 2419 1100 
L 313 1100 
L 313 1709 
L 2253 4666 
z
" id="DejaVuSans-34" transform="scale(0.015625)"/>
       </defs>
       <use xlink:href="#DejaVuSans-30"/>
       <use x="63.623047" xlink:href="#DejaVuSans-2e"/>
       <use x="95.410156" xlink:href="#DejaVuSans-34"/>
       <use x="159.033203" xlink:href="#DejaVuSans-30"/>
      </g>
     </g>
    </g>
    <g id="ytick_5">
     <g id="line2d_25">
      <path clip-path="url(#p38286c1004)" d="M 64.275 35.886366 
L 493.2 35.886366 
" style="fill:none;stroke:#808080;stroke-linecap:square;stroke-width:0.8;"/>
     </g>
     <g id="line2d_26">
      <g>
       <use style="stroke:#000000;stroke-width:0.8;" x="64.275" xlink:href="#m947707cbe4" y="35.886366"/>
      </g>
     </g>
     <g id="text_14">
      <!-- 0.45 -->
      <g transform="translate(30.55625 40.445428)scale(0.12 -0.12)">
       <use xlink:href="#DejaVuSans-30"/>
       <use x="63.623047" xlink:href="#DejaVuSans-2e"/>
       <use x="95.410156" xlink:href="#DejaVuSans-34"/>
       <use x="159.033203" xlink:href="#DejaVuSans-35"/>
      </g>
     </g>
    </g>
    <g id="text_15">
     <!-- $c_{iss X1}\,$ [fF] -->
     <g transform="translate(24.060625 196.67)rotate(-90)scale(0.12 -0.12)">
      <defs>
       <path d="M 3431 3366 
L 3316 2797 
Q 3109 2947 2876 3022 
Q 2644 3097 2394 3097 
Q 2119 3097 1870 3000 
Q 1622 2903 1453 2725 
Q 1184 2453 1037 2087 
Q 891 1722 891 1331 
Q 891 859 1127 628 
Q 1363 397 1844 397 
Q 2081 397 2348 469 
Q 2616 541 2906 684 
L 2797 116 
Q 2547 13 2283 -39 
Q 2019 -91 1741 -91 
Q 1044 -91 669 257 
Q 294 606 294 1253 
Q 294 1797 489 2255 
Q 684 2713 1069 3078 
Q 1331 3328 1684 3456 
Q 2038 3584 2456 3584 
Q 2700 3584 2940 3529 
Q 3181 3475 3431 3366 
z
" id="DejaVuSans-Oblique-63" transform="scale(0.015625)"/>
       <path d="M 1172 4863 
L 1747 4863 
L 1606 4134 
L 1031 4134 
L 1172 4863 
z
M 909 3500 
L 1484 3500 
L 800 0 
L 225 0 
L 909 3500 
z
" id="DejaVuSans-Oblique-69" transform="scale(0.015625)"/>
       <path d="M 3200 3397 
L 3091 2853 
Q 2863 2978 2609 3040 
Q 2356 3103 2088 3103 
Q 1634 3103 1373 2948 
Q 1113 2794 1113 2528 
Q 1113 2219 1719 2053 
Q 1766 2041 1788 2034 
L 1972 1978 
Q 2547 1819 2739 1644 
Q 2931 1469 2931 1166 
Q 2931 609 2489 259 
Q 2047 -91 1331 -91 
Q 1053 -91 747 -37 
Q 441 16 72 128 
L 184 722 
Q 500 559 806 475 
Q 1113 391 1394 391 
Q 1816 391 2080 572 
Q 2344 753 2344 1031 
Q 2344 1331 1650 1516 
L 1591 1531 
L 1394 1581 
Q 956 1697 753 1886 
Q 550 2075 550 2369 
Q 550 2928 970 3256 
Q 1391 3584 2113 3584 
Q 2397 3584 2667 3537 
Q 2938 3491 3200 3397 
z
" id="DejaVuSans-Oblique-73" transform="scale(0.015625)"/>
       <path d="M 878 4666 
L 1516 4666 
L 2316 2981 
L 3763 4666 
L 4500 4666 
L 2578 2438 
L 3738 0 
L 3103 0 
L 2163 1966 
L 459 0 
L -275 0 
L 1906 2509 
L 878 4666 
z
" id="DejaVuSans-Oblique-58" transform="scale(0.015625)"/>
       <path d="M 2375 4863 
L 2375 4384 
L 1825 4384 
Q 1516 4384 1395 4259 
Q 1275 4134 1275 3809 
L 1275 3500 
L 2222 3500 
L 2222 3053 
L 1275 3053 
L 1275 0 
L 697 0 
L 697 3053 
L 147 3053 
L 147 3500 
L 697 3500 
L 697 3744 
Q 697 4328 969 4595 
Q 1241 4863 1831 4863 
L 2375 4863 
z
" id="DejaVuSans-66" transform="scale(0.015625)"/>
       <path d="M 628 4666 
L 3309 4666 
L 3309 4134 
L 1259 4134 
L 1259 2759 
L 3109 2759 
L 3109 2228 
L 1259 2228 
L 1259 0 
L 628 0 
L 628 4666 
z
" id="DejaVuSans-46" transform="scale(0.015625)"/>
      </defs>
      <use transform="translate(0 0.015625)" xlink:href="#DejaVuSans-Oblique-63"/>
      <use transform="translate(54.980469 -16.390625)scale(0.7)" xlink:href="#DejaVuSans-Oblique-69"/>
      <use transform="translate(74.428711 -16.390625)scale(0.7)" xlink:href="#DejaVuSans-Oblique-73"/>
      <use transform="translate(110.898438 -16.390625)scale(0.7)" xlink:href="#DejaVuSans-Oblique-73"/>
      <use transform="translate(147.368164 -16.390625)scale(0.7)" xlink:href="#DejaVuSans-Oblique-58"/>
      <use transform="translate(195.322266 -16.390625)scale(0.7)" xlink:href="#DejaVuSans-31"/>
      <use transform="translate(258.82845 0.015625)" xlink:href="#DejaVuSans-20"/>
      <use transform="translate(290.615559 0.015625)" xlink:href="#DejaVuSans-5b"/>
      <use transform="translate(329.629231 0.015625)" xlink:href="#DejaVuSans-66"/>
      <use transform="translate(364.834309 0.015625)" xlink:href="#DejaVuSans-46"/>
      <use transform="translate(422.35384 0.015625)" xlink:href="#DejaVuSans-5d"/>
     </g>
    </g>
   </g>
   <g id="line2d_27">
    <path clip-path="url(#p38286c1004)" d="M 473.703409 296.359091 
L 465.745617 296.342099 
L 457.787825 296.293839 
L 449.830032 296.157664 
L 441.87224 295.777998 
L 433.914448 294.743169 
L 425.956656 292.043948 
L 417.998864 285.577867 
L 410.041071 272.299777 
L 402.083279 250.784465 
L 394.125487 224.518766 
L 386.167695 199.607472 
L 378.209903 179.648844 
L 370.25211 164.954791 
L 362.294318 154.421989 
L 354.336526 146.833625 
L 346.378734 141.258262 
L 338.420942 137.059782 
L 330.463149 133.818346 
L 322.505357 131.257077 
L 314.547565 129.190815 
L 306.589773 127.493223 
L 298.631981 126.076166 
L 290.674188 124.876791 
L 282.716396 123.849321 
L 274.758604 122.959752 
L 266.800812 122.182371 
L 258.843019 121.497411 
L 250.885227 120.889446 
L 242.927435 120.346277 
L 234.969643 119.858132 
L 227.011851 119.417102 
L 219.054058 119.016713 
L 211.096266 118.651621 
L 203.138474 118.317378 
L 195.180682 118.010246 
L 187.22289 117.727069 
L 179.265097 117.46516 
L 171.307305 117.222216 
L 163.349513 116.996256 
L 155.391721 116.785566 
L 147.433929 116.588651 
L 139.476136 116.404208 
L 131.518344 116.231091 
L 123.560552 116.06829 
L 115.60276 115.914912 
L 107.644968 115.770164 
L 99.687175 115.633338 
L 91.729383 115.503804 
L 83.771591 115.380994 
" style="fill:none;stroke:#ff0000;stroke-linecap:square;stroke-width:2;"/>
   </g>
   <g id="line2d_28">
    <path clip-path="url(#p38286c1004)" d="M 473.703409 296.359091 
L 465.745617 296.342099 
L 457.787825 296.293839 
L 449.830032 296.157664 
L 441.87224 295.777998 
L 433.914448 294.743169 
L 425.956656 292.043948 
L 417.998864 285.577867 
L 410.041071 272.299777 
L 402.083279 250.784465 
L 394.125487 224.518766 
L 386.167695 199.607472 
L 378.209903 179.648844 
L 370.25211 164.954791 
L 362.294318 154.421989 
L 354.336526 146.833625 
L 346.378734 141.258262 
L 338.420942 137.059782 
L 330.463149 133.818346 
L 322.505357 131.257077 
L 314.547565 129.190815 
L 306.589773 127.493223 
L 298.631981 126.076166 
L 290.674188 124.876791 
L 282.716396 123.849321 
L 274.758604 122.959752 
L 266.800812 122.182371 
L 258.843019 121.497411 
L 250.885227 120.889446 
L 242.927435 120.346277 
L 234.969643 119.858132 
L 227.011851 119.417102 
L 219.054058 119.016713 
L 211.096266 118.651621 
L 203.138474 118.317378 
L 195.180682 118.010246 
L 187.22289 117.727069 
L 179.265097 117.465159 
L 171.307305 117.222215 
L 163.349513 116.996253 
L 155.391721 116.785556 
L 147.433929 116.588625 
L 139.476136 116.404134 
L 131.518344 116.230885 
L 123.560552 116.067718 
L 115.60276 115.913324 
L 107.644968 115.765761 
L 99.687175 115.621179 
L 91.729383 115.470471 
L 83.771591 115.290841 
" style="fill:none;stroke:#0000ff;stroke-linecap:square;stroke-width:2;"/>
   </g>
   <g id="line2d_29">
    <path clip-path="url(#p38286c1004)" d="M 473.703409 296.359091 
L 465.745617 296.342099 
L 457.787825 296.293839 
L 449.830032 296.157664 
L 441.87224 295.777998 
L 433.914448 294.743169 
L 425.956656 292.043948 
L 417.998864 285.577867 
L 410.041071 272.299777 
L 402.083279 250.784465 
L 394.125487 224.518766 
L 386.167695 199.607472 
L 378.209903 179.648844 
L 370.25211 164.954791 
L 362.294318 154.421988 
L 354.336526 146.833624 
L 346.378734 141.258258 
L 338.420942 137.059771 
L 330.463149 133.818315 
L 322.505357 131.256996 
L 314.547565 129.190602 
L 306.589773 127.492657 
L 298.631981 126.074658 
L 290.674188 124.872763 
L 282.716396 123.838545 
L 274.758604 122.930961 
L 266.800812 122.105846 
L 258.843019 121.296406 
L 250.885227 120.373835 
L 242.927435 119.080689 
L 234.969643 116.977478 
L 227.011851 113.55203 
L 219.054058 108.570509 
L 211.096266 102.317914 
L 203.138474 95.415896 
L 195.180682 88.483582 
L 187.22289 81.946386 
L 179.265097 76.016677 
L 171.307305 70.75404 
L 163.349513 66.132822 
L 155.391721 62.08984 
L 147.433929 58.551384 
L 139.476136 55.446212 
L 131.518344 52.710732 
L 123.560552 50.290306 
L 115.60276 48.138851 
L 107.644968 46.217815 
L 99.687175 44.495015 
L 91.729383 42.94356 
L 83.771591 41.540909 
" style="fill:none;stroke:#008000;stroke-linecap:square;stroke-width:2;"/>
   </g>
   <g id="patch_3">
    <path d="M 64.275 309.1 
L 64.275 28.8 
" style="fill:none;stroke:#000000;stroke-linecap:square;stroke-linejoin:miter;stroke-width:0.8;"/>
   </g>
   <g id="patch_4">
    <path d="M 493.2 309.1 
L 493.2 28.8 
" style="fill:none;stroke:#000000;stroke-linecap:square;stroke-linejoin:miter;stroke-width:0.8;"/>
   </g>
   <g id="patch_5">
    <path d="M 64.275 309.1 
L 493.2 309.1 
" style="fill:none;stroke:#000000;stroke-linecap:square;stroke-linejoin:miter;stroke-width:0.8;"/>
   </g>
   <g id="patch_6">
    <path d="M 64.275 28.8 
L 493.2 28.8 
" style="fill:none;stroke:#000000;stroke-linecap:square;stroke-linejoin:miter;stroke-width:0.8;"/>
   </g>
   <g id="text_16">
    <!-- $c_{iss}(V_{gs})$ -->
    <g transform="translate(255.8775 22.8)scale(0.12 -0.12)">
     <defs>
      <path d="M 1984 4856 
Q 1566 4138 1362 3434 
Q 1159 2731 1159 2009 
Q 1159 1288 1364 580 
Q 1569 -128 1984 -844 
L 1484 -844 
Q 1016 -109 783 600 
Q 550 1309 550 2009 
Q 550 2706 781 3412 
Q 1013 4119 1484 4856 
L 1984 4856 
z
" id="DejaVuSans-28" transform="scale(0.015625)"/>
      <path d="M 3816 3500 
L 3219 434 
Q 3047 -456 2561 -893 
Q 2075 -1331 1253 -1331 
Q 950 -1331 690 -1286 
Q 431 -1241 206 -1147 
L 313 -588 
Q 525 -725 762 -790 
Q 1000 -856 1269 -856 
Q 1816 -856 2167 -557 
Q 2519 -259 2631 300 
L 2681 563 
Q 2441 288 2122 144 
Q 1803 0 1434 0 
Q 903 0 598 351 
Q 294 703 294 1319 
Q 294 1803 478 2267 
Q 663 2731 997 3091 
Q 1219 3328 1514 3456 
Q 1809 3584 2131 3584 
Q 2484 3584 2746 3420 
Q 3009 3256 3138 2956 
L 3238 3500 
L 3816 3500 
z
M 2950 2216 
Q 2950 2641 2750 2872 
Q 2550 3103 2181 3103 
Q 1953 3103 1747 3012 
Q 1541 2922 1394 2759 
Q 1156 2491 1023 2127 
Q 891 1763 891 1375 
Q 891 944 1092 712 
Q 1294 481 1672 481 
Q 2219 481 2584 976 
Q 2950 1472 2950 2216 
z
" id="DejaVuSans-Oblique-67" transform="scale(0.015625)"/>
      <path d="M 513 4856 
L 1013 4856 
Q 1481 4119 1714 3412 
Q 1947 2706 1947 2009 
Q 1947 1309 1714 600 
Q 1481 -109 1013 -844 
L 513 -844 
Q 928 -128 1133 580 
Q 1338 1288 1338 2009 
Q 1338 2731 1133 3434 
Q 928 4138 513 4856 
z
" id="DejaVuSans-29" transform="scale(0.015625)"/>
     </defs>
     <use transform="translate(0 0.125)" xlink:href="#DejaVuSans-Oblique-63"/>
     <use transform="translate(54.980469 -16.28125)scale(0.7)" xlink:href="#DejaVuSans-Oblique-69"/>
     <use transform="translate(74.428711 -16.28125)scale(0.7)" xlink:href="#DejaVuSans-Oblique-73"/>
     <use transform="translate(110.898438 -16.28125)scale(0.7)" xlink:href="#DejaVuSans-Oblique-73"/>
     <use transform="translate(150.102539 0.125)" xlink:href="#DejaVuSans-28"/>
     <use transform="translate(189.116211 0.125)" xlink:href="#DejaVuSans-Oblique-56"/>
     <use transform="translate(257.524414 -16.28125)scale(0.7)" xlink:href="#DejaVuSans-Oblique-67"/>
     <use transform="translate(301.958008 -16.28125)scale(0.7)" xlink:href="#DejaVuSans-Oblique-73"/>
     <use transform="translate(341.162109 0.125)" xlink:href="#DejaVuSans-29"/>
    </g>
   </g>
   <g id="legend_1">
    <g id="patch_7">
     <path d="M 347.84 72.64125 
L 486.2 72.64125 
Q 488.2 72.64125 488.2 70.64125 
L 488.2 35.8 
Q 488.2 33.8 486.2 33.8 
L 347.84 33.8 
Q 345.84 33.8 345.84 35.8 
L 345.84 70.64125 
Q 345.84 72.64125 347.84 72.64125 
z
" style="fill:#ffffff;opacity:0.8;stroke:#cccccc;stroke-linejoin:miter;"/>
    </g>
    <g id="line2d_30">
     <path d="M 347.84 41.418125 
L 357.84 41.418125 
" style="fill:none;stroke:#ff0000;stroke-linecap:square;stroke-width:2;"/>
    </g>
    <g id="line2d_31"/>
    <g id="text_17">
     <!-- $c_{iss X1}: V_{D}$ = -6.0e-01 -->
     <g transform="translate(359.84 44.918125)scale(0.12 -0.12)">
      <defs>
       <path d="M 750 794 
L 1409 794 
L 1409 0 
L 750 0 
L 750 794 
z
M 750 3309 
L 1409 3309 
L 1409 2516 
L 750 2516 
L 750 3309 
z
" id="DejaVuSans-3a" transform="scale(0.015625)"/>
       <path d="M 1081 4666 
L 2438 4666 
Q 3519 4666 4070 4208 
Q 4622 3750 4622 2847 
Q 4622 2250 4412 1698 
Q 4203 1147 3834 769 
Q 3463 381 2891 190 
Q 2319 0 1538 0 
L 172 0 
L 1081 4666 
z
M 1613 4147 
L 909 519 
L 1734 519 
Q 2794 519 3375 1128 
Q 3956 1738 3956 2847 
Q 3956 3519 3581 3833 
Q 3206 4147 2406 4147 
L 1613 4147 
z
" id="DejaVuSans-Oblique-44" transform="scale(0.015625)"/>
       <path d="M 678 2906 
L 4684 2906 
L 4684 2381 
L 678 2381 
L 678 2906 
z
M 678 1631 
L 4684 1631 
L 4684 1100 
L 678 1100 
L 678 1631 
z
" id="DejaVuSans-3d" transform="scale(0.015625)"/>
       <path d="M 313 2009 
L 1997 2009 
L 1997 1497 
L 313 1497 
L 313 2009 
z
" id="DejaVuSans-2d" transform="scale(0.015625)"/>
       <path d="M 2113 2584 
Q 1688 2584 1439 2293 
Q 1191 2003 1191 1497 
Q 1191 994 1439 701 
Q 1688 409 2113 409 
Q 2538 409 2786 701 
Q 3034 994 3034 1497 
Q 3034 2003 2786 2293 
Q 2538 2584 2113 2584 
z
M 3366 4563 
L 3366 3988 
Q 3128 4100 2886 4159 
Q 2644 4219 2406 4219 
Q 1781 4219 1451 3797 
Q 1122 3375 1075 2522 
Q 1259 2794 1537 2939 
Q 1816 3084 2150 3084 
Q 2853 3084 3261 2657 
Q 3669 2231 3669 1497 
Q 3669 778 3244 343 
Q 2819 -91 2113 -91 
Q 1303 -91 875 529 
Q 447 1150 447 2328 
Q 447 3434 972 4092 
Q 1497 4750 2381 4750 
Q 2619 4750 2861 4703 
Q 3103 4656 3366 4563 
z
" id="DejaVuSans-36" transform="scale(0.015625)"/>
       <path d="M 3597 1894 
L 3597 1613 
L 953 1613 
Q 991 1019 1311 708 
Q 1631 397 2203 397 
Q 2534 397 2845 478 
Q 3156 559 3463 722 
L 3463 178 
Q 3153 47 2828 -22 
Q 2503 -91 2169 -91 
Q 1331 -91 842 396 
Q 353 884 353 1716 
Q 353 2575 817 3079 
Q 1281 3584 2069 3584 
Q 2775 3584 3186 3129 
Q 3597 2675 3597 1894 
z
M 3022 2063 
Q 3016 2534 2758 2815 
Q 2500 3097 2075 3097 
Q 1594 3097 1305 2825 
Q 1016 2553 972 2059 
L 3022 2063 
z
" id="DejaVuSans-65" transform="scale(0.015625)"/>
      </defs>
      <use transform="translate(0 0.78125)" xlink:href="#DejaVuSans-Oblique-63"/>
      <use transform="translate(54.980469 -15.625)scale(0.7)" xlink:href="#DejaVuSans-Oblique-69"/>
      <use transform="translate(74.428711 -15.625)scale(0.7)" xlink:href="#DejaVuSans-Oblique-73"/>
      <use transform="translate(110.898438 -15.625)scale(0.7)" xlink:href="#DejaVuSans-Oblique-73"/>
      <use transform="translate(147.368164 -15.625)scale(0.7)" xlink:href="#DejaVuSans-Oblique-58"/>
      <use transform="translate(195.322266 -15.625)scale(0.7)" xlink:href="#DejaVuSans-31"/>
      <use transform="translate(262.075195 0.78125)" xlink:href="#DejaVuSans-3a"/>
      <use transform="translate(315.249023 0.78125)" xlink:href="#DejaVuSans-Oblique-56"/>
      <use transform="translate(383.657227 -15.625)scale(0.7)" xlink:href="#DejaVuSans-Oblique-44"/>
      <use transform="translate(440.292969 0.78125)" xlink:href="#DejaVuSans-20"/>
      <use transform="translate(472.080078 0.78125)" xlink:href="#DejaVuSans-3d"/>
      <use transform="translate(555.869141 0.78125)" xlink:href="#DejaVuSans-20"/>
      <use transform="translate(587.65625 0.78125)" xlink:href="#DejaVuSans-2d"/>
      <use transform="translate(623.740234 0.78125)" xlink:href="#DejaVuSans-36"/>
      <use transform="translate(687.363281 0.78125)" xlink:href="#DejaVuSans-2e"/>
      <use transform="translate(719.150391 0.78125)" xlink:href="#DejaVuSans-30"/>
      <use transform="translate(782.773438 0.78125)" xlink:href="#DejaVuSans-65"/>
      <use transform="translate(844.296875 0.78125)" xlink:href="#DejaVuSans-2d"/>
      <use transform="translate(880.380859 0.78125)" xlink:href="#DejaVuSans-30"/>
      <use transform="translate(944.003906 0.78125)" xlink:href="#DejaVuSans-31"/>
     </g>
    </g>
    <g id="line2d_32">
     <path d="M 347.84 53.031875 
L 357.84 53.031875 
" style="fill:none;stroke:#0000ff;stroke-linecap:square;stroke-width:2;"/>
    </g>
    <g id="line2d_33"/>
    <g id="text_18">
     <!-- $c_{iss X1}: V_{D}$ = -1.2e+00 -->
     <g transform="translate(359.84 56.531875)scale(0.12 -0.12)">
      <defs>
       <path d="M 2944 4013 
L 2944 2272 
L 4684 2272 
L 4684 1741 
L 2944 1741 
L 2944 0 
L 2419 0 
L 2419 1741 
L 678 1741 
L 678 2272 
L 2419 2272 
L 2419 4013 
L 2944 4013 
z
" id="DejaVuSans-2b" transform="scale(0.015625)"/>
      </defs>
      <use transform="translate(0 0.78125)" xlink:href="#DejaVuSans-Oblique-63"/>
      <use transform="translate(54.980469 -15.625)scale(0.7)" xlink:href="#DejaVuSans-Oblique-69"/>
      <use transform="translate(74.428711 -15.625)scale(0.7)" xlink:href="#DejaVuSans-Oblique-73"/>
      <use transform="translate(110.898438 -15.625)scale(0.7)" xlink:href="#DejaVuSans-Oblique-73"/>
      <use transform="translate(147.368164 -15.625)scale(0.7)" xlink:href="#DejaVuSans-Oblique-58"/>
      <use transform="translate(195.322266 -15.625)scale(0.7)" xlink:href="#DejaVuSans-31"/>
      <use transform="translate(262.075195 0.78125)" xlink:href="#DejaVuSans-3a"/>
      <use transform="translate(315.249023 0.78125)" xlink:href="#DejaVuSans-Oblique-56"/>
      <use transform="translate(383.657227 -15.625)scale(0.7)" xlink:href="#DejaVuSans-Oblique-44"/>
      <use transform="translate(440.292969 0.78125)" xlink:href="#DejaVuSans-20"/>
      <use transform="translate(472.080078 0.78125)" xlink:href="#DejaVuSans-3d"/>
      <use transform="translate(555.869141 0.78125)" xlink:href="#DejaVuSans-20"/>
      <use transform="translate(587.65625 0.78125)" xlink:href="#DejaVuSans-2d"/>
      <use transform="translate(623.740234 0.78125)" xlink:href="#DejaVuSans-31"/>
      <use transform="translate(687.363281 0.78125)" xlink:href="#DejaVuSans-2e"/>
      <use transform="translate(713.650391 0.78125)" xlink:href="#DejaVuSans-32"/>
      <use transform="translate(777.273438 0.78125)" xlink:href="#DejaVuSans-65"/>
      <use transform="translate(838.796875 0.78125)" xlink:href="#DejaVuSans-2b"/>
      <use transform="translate(922.585938 0.78125)" xlink:href="#DejaVuSans-30"/>
      <use transform="translate(986.208984 0.78125)" xlink:href="#DejaVuSans-30"/>
     </g>
    </g>
    <g id="line2d_34">
     <path d="M 347.84 64.645625 
L 357.84 64.645625 
" style="fill:none;stroke:#008000;stroke-linecap:square;stroke-width:2;"/>
    </g>
    <g id="line2d_35"/>
    <g id="text_19">
     <!-- $c_{iss X1}: V_{D}$ = -1.8e+00 -->
     <g transform="translate(359.84 68.145625)scale(0.12 -0.12)">
      <defs>
       <path d="M 2034 2216 
Q 1584 2216 1326 1975 
Q 1069 1734 1069 1313 
Q 1069 891 1326 650 
Q 1584 409 2034 409 
Q 2484 409 2743 651 
Q 3003 894 3003 1313 
Q 3003 1734 2745 1975 
Q 2488 2216 2034 2216 
z
M 1403 2484 
Q 997 2584 770 2862 
Q 544 3141 544 3541 
Q 544 4100 942 4425 
Q 1341 4750 2034 4750 
Q 2731 4750 3128 4425 
Q 3525 4100 3525 3541 
Q 3525 3141 3298 2862 
Q 3072 2584 2669 2484 
Q 3125 2378 3379 2068 
Q 3634 1759 3634 1313 
Q 3634 634 3220 271 
Q 2806 -91 2034 -91 
Q 1263 -91 848 271 
Q 434 634 434 1313 
Q 434 1759 690 2068 
Q 947 2378 1403 2484 
z
M 1172 3481 
Q 1172 3119 1398 2916 
Q 1625 2713 2034 2713 
Q 2441 2713 2670 2916 
Q 2900 3119 2900 3481 
Q 2900 3844 2670 4047 
Q 2441 4250 2034 4250 
Q 1625 4250 1398 4047 
Q 1172 3844 1172 3481 
z
" id="DejaVuSans-38" transform="scale(0.015625)"/>
      </defs>
      <use transform="translate(0 0.78125)" xlink:href="#DejaVuSans-Oblique-63"/>
      <use transform="translate(54.980469 -15.625)scale(0.7)" xlink:href="#DejaVuSans-Oblique-69"/>
      <use transform="translate(74.428711 -15.625)scale(0.7)" xlink:href="#DejaVuSans-Oblique-73"/>
      <use transform="translate(110.898438 -15.625)scale(0.7)" xlink:href="#DejaVuSans-Oblique-73"/>
      <use transform="translate(147.368164 -15.625)scale(0.7)" xlink:href="#DejaVuSans-Oblique-58"/>
      <use transform="translate(195.322266 -15.625)scale(0.7)" xlink:href="#DejaVuSans-31"/>
      <use transform="translate(262.075195 0.78125)" xlink:href="#DejaVuSans-3a"/>
      <use transform="translate(315.249023 0.78125)" xlink:href="#DejaVuSans-Oblique-56"/>
      <use transform="translate(383.657227 -15.625)scale(0.7)" xlink:href="#DejaVuSans-Oblique-44"/>
      <use transform="translate(440.292969 0.78125)" xlink:href="#DejaVuSans-20"/>
      <use transform="translate(472.080078 0.78125)" xlink:href="#DejaVuSans-3d"/>
      <use transform="translate(555.869141 0.78125)" xlink:href="#DejaVuSans-20"/>
      <use transform="translate(587.65625 0.78125)" xlink:href="#DejaVuSans-2d"/>
      <use transform="translate(623.740234 0.78125)" xlink:href="#DejaVuSans-31"/>
      <use transform="translate(687.363281 0.78125)" xlink:href="#DejaVuSans-2e"/>
      <use transform="translate(716.525391 0.78125)" xlink:href="#DejaVuSans-38"/>
      <use transform="translate(780.148438 0.78125)" xlink:href="#DejaVuSans-65"/>
      <use transform="translate(841.671875 0.78125)" xlink:href="#DejaVuSans-2b"/>
      <use transform="translate(925.460938 0.78125)" xlink:href="#DejaVuSans-30"/>
      <use transform="translate(989.083984 0.78125)" xlink:href="#DejaVuSans-30"/>
     </g>
    </g>
   </g>
  </g>
 </g>
 <defs>
  <clipPath id="p38286c1004">
   <rect height="280.3" width="428.925" x="64.275" y="28.8"/>
  </clipPath>
 </defs>
</svg>
