<?xml version="1.0" encoding="utf-8" standalone="no"?>
<!DOCTYPE svg PUBLIC "-//W3C//DTD SVG 1.1//EN"
  "http://www.w3.org/Graphics/SVG/1.1/DTD/svg11.dtd">
<svg height="360pt" version="1.1" viewBox="0 0 504 360" width="504pt" xmlns="http://www.w3.org/2000/svg" xmlns:xlink="http://www.w3.org/1999/xlink">
 <metadata>
  <rdf:RDF xmlns:cc="http://creativecommons.org/ns#" xmlns:dc="http://purl.org/dc/elements/1.1/" xmlns:rdf="http://www.w3.org/1999/02/22-rdf-syntax-ns#">
   <cc:Work>
    <dc:type rdf:resource="http://purl.org/dc/dcmitype/StillImage"/>
    <dc:date>2023-06-12T11:46:55.585289</dc:date>
    <dc:format>image/svg+xml</dc:format>
    <dc:creator>
     <cc:Agent>
      <dc:title>Matplotlib v3.4.2, https://matplotlib.org/</dc:title>
     </cc:Agent>
    </dc:creator>
   </cc:Work>
  </rdf:RDF>
 </metadata>
 <defs>
  <style type="text/css">*{stroke-linecap:butt;stroke-linejoin:round;}</style>
 </defs>
 <g id="figure_1">
  <g id="patch_1">
   <path d="M 0 360 
L 504 360 
L 504 0 
L 0 0 
z
" style="fill:#ffffff;"/>
  </g>
  <g id="axes_1">
   <g id="patch_2">
    <path d="M 63.025 309.1 
L 493.2 309.1 
L 493.2 28.8 
L 63.025 28.8 
z
" style="fill:#ffffff;"/>
   </g>
   <g id="matplotlib.axis_1">
    <g id="xtick_1">
     <g id="line2d_1">
      <path clip-path="url(#p12a6fd4040)" d="M 93.441414 309.1 
L 93.441414 28.8 
" style="fill:none;stroke:#808080;stroke-linecap:square;stroke-width:0.8;"/>
     </g>
     <g id="line2d_2">
      <defs>
       <path d="M 0 0 
L 0 3.5 
" id="m3364e98d7e" style="stroke:#000000;stroke-width:0.8;"/>
      </defs>
      <g>
       <use style="stroke:#000000;stroke-width:0.8;" x="93.441414" xlink:href="#m3364e98d7e" y="309.1"/>
      </g>
     </g>
     <g id="text_1">
      <!-- −1.75 -->
      <g transform="translate(75.054227 325.218125)scale(0.12 -0.12)">
       <defs>
        <path d="M 678 2272 
L 4684 2272 
L 4684 1741 
L 678 1741 
L 678 2272 
z
" id="DejaVuSans-2212" transform="scale(0.015625)"/>
        <path d="M 794 531 
L 1825 531 
L 1825 4091 
L 703 3866 
L 703 4441 
L 1819 4666 
L 2450 4666 
L 2450 531 
L 3481 531 
L 3481 0 
L 794 0 
L 794 531 
z
" id="DejaVuSans-31" transform="scale(0.015625)"/>
        <path d="M 684 794 
L 1344 794 
L 1344 0 
L 684 0 
L 684 794 
z
" id="DejaVuSans-2e" transform="scale(0.015625)"/>
        <path d="M 525 4666 
L 3525 4666 
L 3525 4397 
L 1831 0 
L 1172 0 
L 2766 4134 
L 525 4134 
L 525 4666 
z
" id="DejaVuSans-37" transform="scale(0.015625)"/>
        <path d="M 691 4666 
L 3169 4666 
L 3169 4134 
L 1269 4134 
L 1269 2991 
Q 1406 3038 1543 3061 
Q 1681 3084 1819 3084 
Q 2600 3084 3056 2656 
Q 3513 2228 3513 1497 
Q 3513 744 3044 326 
Q 2575 -91 1722 -91 
Q 1428 -91 1123 -41 
Q 819 9 494 109 
L 494 744 
Q 775 591 1075 516 
Q 1375 441 1709 441 
Q 2250 441 2565 725 
Q 2881 1009 2881 1497 
Q 2881 1984 2565 2268 
Q 2250 2553 1709 2553 
Q 1456 2553 1204 2497 
Q 953 2441 691 2322 
L 691 4666 
z
" id="DejaVuSans-35" transform="scale(0.015625)"/>
       </defs>
       <use xlink:href="#DejaVuSans-2212"/>
       <use x="83.789062" xlink:href="#DejaVuSans-31"/>
       <use x="147.412109" xlink:href="#DejaVuSans-2e"/>
       <use x="179.199219" xlink:href="#DejaVuSans-37"/>
       <use x="242.822266" xlink:href="#DejaVuSans-35"/>
      </g>
     </g>
    </g>
    <g id="xtick_2">
     <g id="line2d_3">
      <path clip-path="url(#p12a6fd4040)" d="M 147.756439 309.1 
L 147.756439 28.8 
" style="fill:none;stroke:#808080;stroke-linecap:square;stroke-width:0.8;"/>
     </g>
     <g id="line2d_4">
      <g>
       <use style="stroke:#000000;stroke-width:0.8;" x="147.756439" xlink:href="#m3364e98d7e" y="309.1"/>
      </g>
     </g>
     <g id="text_2">
      <!-- −1.50 -->
      <g transform="translate(129.369252 325.218125)scale(0.12 -0.12)">
       <defs>
        <path d="M 2034 4250 
Q 1547 4250 1301 3770 
Q 1056 3291 1056 2328 
Q 1056 1369 1301 889 
Q 1547 409 2034 409 
Q 2525 409 2770 889 
Q 3016 1369 3016 2328 
Q 3016 3291 2770 3770 
Q 2525 4250 2034 4250 
z
M 2034 4750 
Q 2819 4750 3233 4129 
Q 3647 3509 3647 2328 
Q 3647 1150 3233 529 
Q 2819 -91 2034 -91 
Q 1250 -91 836 529 
Q 422 1150 422 2328 
Q 422 3509 836 4129 
Q 1250 4750 2034 4750 
z
" id="DejaVuSans-30" transform="scale(0.015625)"/>
       </defs>
       <use xlink:href="#DejaVuSans-2212"/>
       <use x="83.789062" xlink:href="#DejaVuSans-31"/>
       <use x="147.412109" xlink:href="#DejaVuSans-2e"/>
       <use x="179.199219" xlink:href="#DejaVuSans-35"/>
       <use x="242.822266" xlink:href="#DejaVuSans-30"/>
      </g>
     </g>
    </g>
    <g id="xtick_3">
     <g id="line2d_5">
      <path clip-path="url(#p12a6fd4040)" d="M 202.071465 309.1 
L 202.071465 28.8 
" style="fill:none;stroke:#808080;stroke-linecap:square;stroke-width:0.8;"/>
     </g>
     <g id="line2d_6">
      <g>
       <use style="stroke:#000000;stroke-width:0.8;" x="202.071465" xlink:href="#m3364e98d7e" y="309.1"/>
      </g>
     </g>
     <g id="text_3">
      <!-- −1.25 -->
      <g transform="translate(183.684277 325.218125)scale(0.12 -0.12)">
       <defs>
        <path d="M 1228 531 
L 3431 531 
L 3431 0 
L 469 0 
L 469 531 
Q 828 903 1448 1529 
Q 2069 2156 2228 2338 
Q 2531 2678 2651 2914 
Q 2772 3150 2772 3378 
Q 2772 3750 2511 3984 
Q 2250 4219 1831 4219 
Q 1534 4219 1204 4116 
Q 875 4013 500 3803 
L 500 4441 
Q 881 4594 1212 4672 
Q 1544 4750 1819 4750 
Q 2544 4750 2975 4387 
Q 3406 4025 3406 3419 
Q 3406 3131 3298 2873 
Q 3191 2616 2906 2266 
Q 2828 2175 2409 1742 
Q 1991 1309 1228 531 
z
" id="DejaVuSans-32" transform="scale(0.015625)"/>
       </defs>
       <use xlink:href="#DejaVuSans-2212"/>
       <use x="83.789062" xlink:href="#DejaVuSans-31"/>
       <use x="147.412109" xlink:href="#DejaVuSans-2e"/>
       <use x="179.199219" xlink:href="#DejaVuSans-32"/>
       <use x="242.822266" xlink:href="#DejaVuSans-35"/>
      </g>
     </g>
    </g>
    <g id="xtick_4">
     <g id="line2d_7">
      <path clip-path="url(#p12a6fd4040)" d="M 256.38649 309.1 
L 256.38649 28.8 
" style="fill:none;stroke:#808080;stroke-linecap:square;stroke-width:0.8;"/>
     </g>
     <g id="line2d_8">
      <g>
       <use style="stroke:#000000;stroke-width:0.8;" x="256.38649" xlink:href="#m3364e98d7e" y="309.1"/>
      </g>
     </g>
     <g id="text_4">
      <!-- −1.00 -->
      <g transform="translate(237.999302 325.218125)scale(0.12 -0.12)">
       <use xlink:href="#DejaVuSans-2212"/>
       <use x="83.789062" xlink:href="#DejaVuSans-31"/>
       <use x="147.412109" xlink:href="#DejaVuSans-2e"/>
       <use x="179.199219" xlink:href="#DejaVuSans-30"/>
       <use x="242.822266" xlink:href="#DejaVuSans-30"/>
      </g>
     </g>
    </g>
    <g id="xtick_5">
     <g id="line2d_9">
      <path clip-path="url(#p12a6fd4040)" d="M 310.701515 309.1 
L 310.701515 28.8 
" style="fill:none;stroke:#808080;stroke-linecap:square;stroke-width:0.8;"/>
     </g>
     <g id="line2d_10">
      <g>
       <use style="stroke:#000000;stroke-width:0.8;" x="310.701515" xlink:href="#m3364e98d7e" y="309.1"/>
      </g>
     </g>
     <g id="text_5">
      <!-- −0.75 -->
      <g transform="translate(292.314328 325.218125)scale(0.12 -0.12)">
       <use xlink:href="#DejaVuSans-2212"/>
       <use x="83.789062" xlink:href="#DejaVuSans-30"/>
       <use x="147.412109" xlink:href="#DejaVuSans-2e"/>
       <use x="179.199219" xlink:href="#DejaVuSans-37"/>
       <use x="242.822266" xlink:href="#DejaVuSans-35"/>
      </g>
     </g>
    </g>
    <g id="xtick_6">
     <g id="line2d_11">
      <path clip-path="url(#p12a6fd4040)" d="M 365.01654 309.1 
L 365.01654 28.8 
" style="fill:none;stroke:#808080;stroke-linecap:square;stroke-width:0.8;"/>
     </g>
     <g id="line2d_12">
      <g>
       <use style="stroke:#000000;stroke-width:0.8;" x="365.01654" xlink:href="#m3364e98d7e" y="309.1"/>
      </g>
     </g>
     <g id="text_6">
      <!-- −0.50 -->
      <g transform="translate(346.629353 325.218125)scale(0.12 -0.12)">
       <use xlink:href="#DejaVuSans-2212"/>
       <use x="83.789062" xlink:href="#DejaVuSans-30"/>
       <use x="147.412109" xlink:href="#DejaVuSans-2e"/>
       <use x="179.199219" xlink:href="#DejaVuSans-35"/>
       <use x="242.822266" xlink:href="#DejaVuSans-30"/>
      </g>
     </g>
    </g>
    <g id="xtick_7">
     <g id="line2d_13">
      <path clip-path="url(#p12a6fd4040)" d="M 419.331566 309.1 
L 419.331566 28.8 
" style="fill:none;stroke:#808080;stroke-linecap:square;stroke-width:0.8;"/>
     </g>
     <g id="line2d_14">
      <g>
       <use style="stroke:#000000;stroke-width:0.8;" x="419.331566" xlink:href="#m3364e98d7e" y="309.1"/>
      </g>
     </g>
     <g id="text_7">
      <!-- −0.25 -->
      <g transform="translate(400.944378 325.218125)scale(0.12 -0.12)">
       <use xlink:href="#DejaVuSans-2212"/>
       <use x="83.789062" xlink:href="#DejaVuSans-30"/>
       <use x="147.412109" xlink:href="#DejaVuSans-2e"/>
       <use x="179.199219" xlink:href="#DejaVuSans-32"/>
       <use x="242.822266" xlink:href="#DejaVuSans-35"/>
      </g>
     </g>
    </g>
    <g id="xtick_8">
     <g id="line2d_15">
      <path clip-path="url(#p12a6fd4040)" d="M 473.646591 309.1 
L 473.646591 28.8 
" style="fill:none;stroke:#808080;stroke-linecap:square;stroke-width:0.8;"/>
     </g>
     <g id="line2d_16">
      <g>
       <use style="stroke:#000000;stroke-width:0.8;" x="473.646591" xlink:href="#m3364e98d7e" y="309.1"/>
      </g>
     </g>
     <g id="text_8">
      <!-- 0.00 -->
      <g transform="translate(460.287216 325.218125)scale(0.12 -0.12)">
       <use xlink:href="#DejaVuSans-30"/>
       <use x="63.623047" xlink:href="#DejaVuSans-2e"/>
       <use x="95.410156" xlink:href="#DejaVuSans-30"/>
       <use x="159.033203" xlink:href="#DejaVuSans-30"/>
      </g>
     </g>
    </g>
    <g id="text_9">
     <!-- $V_{D}$ [V] -->
     <g transform="translate(259.8725 340.831875)scale(0.12 -0.12)">
      <defs>
       <path d="M 1319 0 
L 500 4666 
L 1119 4666 
L 1797 653 
L 4063 4666 
L 4750 4666 
L 2053 0 
L 1319 0 
z
" id="DejaVuSans-Oblique-56" transform="scale(0.015625)"/>
       <path d="M 1081 4666 
L 2438 4666 
Q 3519 4666 4070 4208 
Q 4622 3750 4622 2847 
Q 4622 2250 4412 1698 
Q 4203 1147 3834 769 
Q 3463 381 2891 190 
Q 2319 0 1538 0 
L 172 0 
L 1081 4666 
z
M 1613 4147 
L 909 519 
L 1734 519 
Q 2794 519 3375 1128 
Q 3956 1738 3956 2847 
Q 3956 3519 3581 3833 
Q 3206 4147 2406 4147 
L 1613 4147 
z
" id="DejaVuSans-Oblique-44" transform="scale(0.015625)"/>
       <path id="DejaVuSans-20" transform="scale(0.015625)"/>
       <path d="M 550 4863 
L 1875 4863 
L 1875 4416 
L 1125 4416 
L 1125 -397 
L 1875 -397 
L 1875 -844 
L 550 -844 
L 550 4863 
z
" id="DejaVuSans-5b" transform="scale(0.015625)"/>
       <path d="M 1831 0 
L 50 4666 
L 709 4666 
L 2188 738 
L 3669 4666 
L 4325 4666 
L 2547 0 
L 1831 0 
z
" id="DejaVuSans-56" transform="scale(0.015625)"/>
       <path d="M 1947 4863 
L 1947 -844 
L 622 -844 
L 622 -397 
L 1369 -397 
L 1369 4416 
L 622 4416 
L 622 4863 
L 1947 4863 
z
" id="DejaVuSans-5d" transform="scale(0.015625)"/>
      </defs>
      <use transform="translate(0 0.015625)" xlink:href="#DejaVuSans-Oblique-56"/>
      <use transform="translate(68.408203 -16.390625)scale(0.7)" xlink:href="#DejaVuSans-Oblique-44"/>
      <use transform="translate(125.043945 0.015625)" xlink:href="#DejaVuSans-20"/>
      <use transform="translate(156.831055 0.015625)" xlink:href="#DejaVuSans-5b"/>
      <use transform="translate(195.844727 0.015625)" xlink:href="#DejaVuSans-56"/>
      <use transform="translate(264.25293 0.015625)" xlink:href="#DejaVuSans-5d"/>
     </g>
    </g>
   </g>
   <g id="matplotlib.axis_2">
    <g id="ytick_1">
     <g id="line2d_17">
      <path clip-path="url(#p12a6fd4040)" d="M 63.025 301.221442 
L 493.2 301.221442 
" style="fill:none;stroke:#808080;stroke-linecap:square;stroke-width:0.8;"/>
     </g>
     <g id="line2d_18">
      <defs>
       <path d="M 0 0 
L -3.5 0 
" id="mbde3b7ea2f" style="stroke:#000000;stroke-width:0.8;"/>
      </defs>
      <g>
       <use style="stroke:#000000;stroke-width:0.8;" x="63.025" xlink:href="#mbde3b7ea2f" y="301.221442"/>
      </g>
     </g>
     <g id="text_10">
      <!-- −50 -->
      <g transform="translate(30.699375 305.780505)scale(0.12 -0.12)">
       <use xlink:href="#DejaVuSans-2212"/>
       <use x="83.789062" xlink:href="#DejaVuSans-35"/>
       <use x="147.412109" xlink:href="#DejaVuSans-30"/>
      </g>
     </g>
    </g>
    <g id="ytick_2">
     <g id="line2d_19">
      <path clip-path="url(#p12a6fd4040)" d="M 63.025 249.285336 
L 493.2 249.285336 
" style="fill:none;stroke:#808080;stroke-linecap:square;stroke-width:0.8;"/>
     </g>
     <g id="line2d_20">
      <g>
       <use style="stroke:#000000;stroke-width:0.8;" x="63.025" xlink:href="#mbde3b7ea2f" y="249.285336"/>
      </g>
     </g>
     <g id="text_11">
      <!-- −40 -->
      <g transform="translate(30.699375 253.844398)scale(0.12 -0.12)">
       <defs>
        <path d="M 2419 4116 
L 825 1625 
L 2419 1625 
L 2419 4116 
z
M 2253 4666 
L 3047 4666 
L 3047 1625 
L 3713 1625 
L 3713 1100 
L 3047 1100 
L 3047 0 
L 2419 0 
L 2419 1100 
L 313 1100 
L 313 1709 
L 2253 4666 
z
" id="DejaVuSans-34" transform="scale(0.015625)"/>
       </defs>
       <use xlink:href="#DejaVuSans-2212"/>
       <use x="83.789062" xlink:href="#DejaVuSans-34"/>
       <use x="147.412109" xlink:href="#DejaVuSans-30"/>
      </g>
     </g>
    </g>
    <g id="ytick_3">
     <g id="line2d_21">
      <path clip-path="url(#p12a6fd4040)" d="M 63.025 197.349229 
L 493.2 197.349229 
" style="fill:none;stroke:#808080;stroke-linecap:square;stroke-width:0.8;"/>
     </g>
     <g id="line2d_22">
      <g>
       <use style="stroke:#000000;stroke-width:0.8;" x="63.025" xlink:href="#mbde3b7ea2f" y="197.349229"/>
      </g>
     </g>
     <g id="text_12">
      <!-- −30 -->
      <g transform="translate(30.699375 201.908291)scale(0.12 -0.12)">
       <defs>
        <path d="M 2597 2516 
Q 3050 2419 3304 2112 
Q 3559 1806 3559 1356 
Q 3559 666 3084 287 
Q 2609 -91 1734 -91 
Q 1441 -91 1130 -33 
Q 819 25 488 141 
L 488 750 
Q 750 597 1062 519 
Q 1375 441 1716 441 
Q 2309 441 2620 675 
Q 2931 909 2931 1356 
Q 2931 1769 2642 2001 
Q 2353 2234 1838 2234 
L 1294 2234 
L 1294 2753 
L 1863 2753 
Q 2328 2753 2575 2939 
Q 2822 3125 2822 3475 
Q 2822 3834 2567 4026 
Q 2313 4219 1838 4219 
Q 1578 4219 1281 4162 
Q 984 4106 628 3988 
L 628 4550 
Q 988 4650 1302 4700 
Q 1616 4750 1894 4750 
Q 2613 4750 3031 4423 
Q 3450 4097 3450 3541 
Q 3450 3153 3228 2886 
Q 3006 2619 2597 2516 
z
" id="DejaVuSans-33" transform="scale(0.015625)"/>
       </defs>
       <use xlink:href="#DejaVuSans-2212"/>
       <use x="83.789062" xlink:href="#DejaVuSans-33"/>
       <use x="147.412109" xlink:href="#DejaVuSans-30"/>
      </g>
     </g>
    </g>
    <g id="ytick_4">
     <g id="line2d_23">
      <path clip-path="url(#p12a6fd4040)" d="M 63.025 145.413122 
L 493.2 145.413122 
" style="fill:none;stroke:#808080;stroke-linecap:square;stroke-width:0.8;"/>
     </g>
     <g id="line2d_24">
      <g>
       <use style="stroke:#000000;stroke-width:0.8;" x="63.025" xlink:href="#mbde3b7ea2f" y="145.413122"/>
      </g>
     </g>
     <g id="text_13">
      <!-- −20 -->
      <g transform="translate(30.699375 149.972185)scale(0.12 -0.12)">
       <use xlink:href="#DejaVuSans-2212"/>
       <use x="83.789062" xlink:href="#DejaVuSans-32"/>
       <use x="147.412109" xlink:href="#DejaVuSans-30"/>
      </g>
     </g>
    </g>
    <g id="ytick_5">
     <g id="line2d_25">
      <path clip-path="url(#p12a6fd4040)" d="M 63.025 93.477016 
L 493.2 93.477016 
" style="fill:none;stroke:#808080;stroke-linecap:square;stroke-width:0.8;"/>
     </g>
     <g id="line2d_26">
      <g>
       <use style="stroke:#000000;stroke-width:0.8;" x="63.025" xlink:href="#mbde3b7ea2f" y="93.477016"/>
      </g>
     </g>
     <g id="text_14">
      <!-- −10 -->
      <g transform="translate(30.699375 98.036078)scale(0.12 -0.12)">
       <use xlink:href="#DejaVuSans-2212"/>
       <use x="83.789062" xlink:href="#DejaVuSans-31"/>
       <use x="147.412109" xlink:href="#DejaVuSans-30"/>
      </g>
     </g>
    </g>
    <g id="ytick_6">
     <g id="line2d_27">
      <path clip-path="url(#p12a6fd4040)" d="M 63.025 41.540909 
L 493.2 41.540909 
" style="fill:none;stroke:#808080;stroke-linecap:square;stroke-width:0.8;"/>
     </g>
     <g id="line2d_28">
      <g>
       <use style="stroke:#000000;stroke-width:0.8;" x="63.025" xlink:href="#mbde3b7ea2f" y="41.540909"/>
      </g>
     </g>
     <g id="text_15">
      <!-- 0 -->
      <g transform="translate(48.39 46.099972)scale(0.12 -0.12)">
       <use xlink:href="#DejaVuSans-30"/>
      </g>
     </g>
    </g>
    <g id="text_16">
     <!-- $I_{DS X1}\,$ [uA] -->
     <g transform="translate(24.20375 197.81)rotate(-90)scale(0.12 -0.12)">
      <defs>
       <path d="M 1081 4666 
L 1716 4666 
L 806 0 
L 172 0 
L 1081 4666 
z
" id="DejaVuSans-Oblique-49" transform="scale(0.015625)"/>
       <path d="M 3859 4513 
L 3738 3897 
Q 3422 4066 3111 4152 
Q 2800 4238 2509 4238 
Q 1944 4238 1609 3991 
Q 1275 3744 1275 3334 
Q 1275 3109 1398 2989 
Q 1522 2869 2034 2731 
L 2413 2638 
Q 3053 2472 3303 2217 
Q 3553 1963 3553 1503 
Q 3553 797 2998 353 
Q 2444 -91 1538 -91 
Q 1166 -91 791 -17 
Q 416 56 38 206 
L 166 856 
Q 513 641 861 531 
Q 1209 422 1556 422 
Q 2147 422 2503 684 
Q 2859 947 2859 1369 
Q 2859 1650 2717 1795 
Q 2575 1941 2106 2059 
L 1728 2156 
Q 1081 2325 845 2545 
Q 609 2766 609 3163 
Q 609 3859 1145 4304 
Q 1681 4750 2541 4750 
Q 2875 4750 3203 4690 
Q 3531 4631 3859 4513 
z
" id="DejaVuSans-Oblique-53" transform="scale(0.015625)"/>
       <path d="M 878 4666 
L 1516 4666 
L 2316 2981 
L 3763 4666 
L 4500 4666 
L 2578 2438 
L 3738 0 
L 3103 0 
L 2163 1966 
L 459 0 
L -275 0 
L 1906 2509 
L 878 4666 
z
" id="DejaVuSans-Oblique-58" transform="scale(0.015625)"/>
       <path d="M 544 1381 
L 544 3500 
L 1119 3500 
L 1119 1403 
Q 1119 906 1312 657 
Q 1506 409 1894 409 
Q 2359 409 2629 706 
Q 2900 1003 2900 1516 
L 2900 3500 
L 3475 3500 
L 3475 0 
L 2900 0 
L 2900 538 
Q 2691 219 2414 64 
Q 2138 -91 1772 -91 
Q 1169 -91 856 284 
Q 544 659 544 1381 
z
M 1991 3584 
L 1991 3584 
z
" id="DejaVuSans-75" transform="scale(0.015625)"/>
       <path d="M 2188 4044 
L 1331 1722 
L 3047 1722 
L 2188 4044 
z
M 1831 4666 
L 2547 4666 
L 4325 0 
L 3669 0 
L 3244 1197 
L 1141 1197 
L 716 0 
L 50 0 
L 1831 4666 
z
" id="DejaVuSans-41" transform="scale(0.015625)"/>
      </defs>
      <use transform="translate(0 0.015625)" xlink:href="#DejaVuSans-Oblique-49"/>
      <use transform="translate(29.492188 -16.390625)scale(0.7)" xlink:href="#DejaVuSans-Oblique-44"/>
      <use transform="translate(83.393555 -16.390625)scale(0.7)" xlink:href="#DejaVuSans-Oblique-53"/>
      <use transform="translate(127.827148 -16.390625)scale(0.7)" xlink:href="#DejaVuSans-Oblique-58"/>
      <use transform="translate(175.78125 -16.390625)scale(0.7)" xlink:href="#DejaVuSans-31"/>
      <use transform="translate(239.287434 0.015625)" xlink:href="#DejaVuSans-20"/>
      <use transform="translate(271.074543 0.015625)" xlink:href="#DejaVuSans-5b"/>
      <use transform="translate(310.088215 0.015625)" xlink:href="#DejaVuSans-75"/>
      <use transform="translate(373.467122 0.015625)" xlink:href="#DejaVuSans-41"/>
      <use transform="translate(441.875325 0.015625)" xlink:href="#DejaVuSans-5d"/>
     </g>
    </g>
   </g>
   <g id="line2d_29">
    <path clip-path="url(#p12a6fd4040)" d="M 473.646591 41.540909 
L 465.665608 54.417754 
L 457.684624 67.028542 
L 449.703641 79.368254 
L 441.722658 91.431549 
L 433.741674 103.21273 
L 425.760691 114.705717 
L 417.779708 125.904015 
L 409.798724 136.800676 
L 401.817741 147.388261 
L 393.836758 157.658793 
L 385.855775 167.603706 
L 377.874791 177.213794 
L 369.893808 186.479139 
L 361.912825 195.389043 
L 353.931841 203.931938 
L 345.950858 212.095278 
L 337.969875 219.865402 
L 329.988891 227.227356 
L 322.007908 234.164636 
L 314.026925 240.658836 
L 306.045942 246.689126 
L 298.064958 252.231558 
L 290.083975 257.258234 
L 282.102992 261.73679 
L 274.122008 265.631562 
L 266.141025 268.909885 
L 258.160042 271.55933 
L 250.179058 273.618321 
L 242.198075 275.20146 
L 234.217092 276.477969 
L 226.236109 277.602521 
L 218.255125 278.668355 
L 210.274142 279.71549 
L 202.293159 280.75738 
L 194.312175 281.797906 
L 186.331192 282.838091 
L 178.350209 283.878192 
L 170.369225 284.918273 
L 162.388242 285.958348 
L 154.407259 286.998423 
L 146.426276 288.038497 
L 138.445292 289.078571 
L 130.464309 290.118646 
L 122.483326 291.15872 
L 114.502342 292.198794 
L 106.521359 293.238868 
L 98.540376 294.278942 
L 90.559392 295.319017 
L 82.578409 296.359091 
" style="fill:none;stroke:#ff0000;stroke-linecap:square;stroke-width:2;"/>
   </g>
   <g id="line2d_30">
    <path clip-path="url(#p12a6fd4040)" d="M 473.646591 41.540909 
L 465.665608 50.67877 
L 457.684624 59.442015 
L 449.703641 67.817903 
L 441.722658 75.792617 
L 433.741674 83.351103 
L 425.760691 90.476877 
L 417.779708 97.151734 
L 409.798724 103.355356 
L 401.817741 109.064731 
L 393.836758 114.25338 
L 385.855775 118.890467 
L 377.874791 122.940323 
L 369.893808 126.364013 
L 361.912825 129.126928 
L 353.931841 131.218756 
L 345.950858 132.687228 
L 337.969875 133.662478 
L 329.988891 134.327541 
L 322.007908 134.842754 
L 314.026925 135.301294 
L 306.045942 135.742055 
L 298.064958 136.177875 
L 290.083975 136.612415 
L 282.102992 137.046635 
L 274.122008 137.480777 
L 266.141025 137.9149 
L 258.160042 138.349019 
L 250.179058 138.783136 
L 242.198075 139.217253 
L 234.217092 139.65137 
L 226.236109 140.085487 
L 218.255125 140.519604 
L 210.274142 140.953722 
L 202.293159 141.387839 
L 194.312175 141.821956 
L 186.331192 142.256073 
L 178.350209 142.69019 
L 170.369225 143.124307 
L 162.388242 143.558424 
L 154.407259 143.992541 
L 146.426276 144.426658 
L 138.445292 144.860775 
L 130.464309 145.294892 
L 122.483326 145.72901 
L 114.502342 146.163127 
L 106.521359 146.597244 
L 98.540376 147.031361 
L 90.559392 147.465478 
L 82.578409 147.899595 
" style="fill:none;stroke:#0000ff;stroke-linecap:square;stroke-width:2;"/>
   </g>
   <g id="line2d_31">
    <path clip-path="url(#p12a6fd4040)" d="M 473.646591 41.540909 
L 465.665608 44.703635 
L 457.684624 47.160997 
L 449.703641 48.905655 
L 441.722658 49.99594 
L 433.741674 50.578311 
L 425.760691 50.849073 
L 417.779708 50.973073 
L 409.798724 51.042719 
L 401.817741 51.095557 
L 393.836758 51.143763 
L 385.855775 51.190775 
L 377.874791 51.237489 
L 369.893808 51.284131 
L 361.912825 51.330755 
L 353.931841 51.377375 
L 345.950858 51.423993 
L 337.969875 51.470612 
L 329.988891 51.51723 
L 322.007908 51.563848 
L 314.026925 51.610467 
L 306.045942 51.657085 
L 298.064958 51.703703 
L 290.083975 51.750322 
L 282.102992 51.79694 
L 274.122008 51.843558 
L 266.141025 51.890177 
L 258.160042 51.936795 
L 250.179058 51.983413 
L 242.198075 52.030031 
L 234.217092 52.07665 
L 226.236109 52.123268 
L 218.255125 52.169886 
L 210.274142 52.216505 
L 202.293159 52.263123 
L 194.312175 52.309741 
L 186.331192 52.35636 
L 178.350209 52.402978 
L 170.369225 52.449596 
L 162.388242 52.496215 
L 154.407259 52.542833 
L 146.426276 52.589451 
L 138.445292 52.63607 
L 130.464309 52.682688 
L 122.483326 52.729306 
L 114.502342 52.775925 
L 106.521359 52.822543 
L 98.540376 52.869161 
L 90.559392 52.91578 
L 82.578409 52.962398 
" style="fill:none;stroke:#008000;stroke-linecap:square;stroke-width:2;"/>
   </g>
   <g id="patch_3">
    <path d="M 63.025 309.1 
L 63.025 28.8 
" style="fill:none;stroke:#000000;stroke-linecap:square;stroke-linejoin:miter;stroke-width:0.8;"/>
   </g>
   <g id="patch_4">
    <path d="M 493.2 309.1 
L 493.2 28.8 
" style="fill:none;stroke:#000000;stroke-linecap:square;stroke-linejoin:miter;stroke-width:0.8;"/>
   </g>
   <g id="patch_5">
    <path d="M 63.025 309.1 
L 493.2 309.1 
" style="fill:none;stroke:#000000;stroke-linecap:square;stroke-linejoin:miter;stroke-width:0.8;"/>
   </g>
   <g id="patch_6">
    <path d="M 63.025 28.8 
L 493.2 28.8 
" style="fill:none;stroke:#000000;stroke-linecap:square;stroke-linejoin:miter;stroke-width:0.8;"/>
   </g>
   <g id="text_17">
    <!-- $I_{ds}(V_{ds})$ -->
    <g transform="translate(257.4725 22.8)scale(0.12 -0.12)">
     <defs>
      <path d="M 2675 525 
Q 2444 222 2128 65 
Q 1813 -91 1428 -91 
Q 903 -91 598 267 
Q 294 625 294 1247 
Q 294 1766 478 2236 
Q 663 2706 1013 3078 
Q 1244 3325 1534 3454 
Q 1825 3584 2144 3584 
Q 2481 3584 2739 3421 
Q 2997 3259 3138 2956 
L 3513 4863 
L 4091 4863 
L 3144 0 
L 2566 0 
L 2675 525 
z
M 891 1350 
Q 891 897 1095 644 
Q 1300 391 1663 391 
Q 1931 391 2161 520 
Q 2391 650 2566 903 
Q 2750 1166 2856 1509 
Q 2963 1853 2963 2188 
Q 2963 2622 2758 2865 
Q 2553 3109 2194 3109 
Q 1922 3109 1687 2981 
Q 1453 2853 1288 2613 
Q 1106 2353 998 2009 
Q 891 1666 891 1350 
z
" id="DejaVuSans-Oblique-64" transform="scale(0.015625)"/>
      <path d="M 3200 3397 
L 3091 2853 
Q 2863 2978 2609 3040 
Q 2356 3103 2088 3103 
Q 1634 3103 1373 2948 
Q 1113 2794 1113 2528 
Q 1113 2219 1719 2053 
Q 1766 2041 1788 2034 
L 1972 1978 
Q 2547 1819 2739 1644 
Q 2931 1469 2931 1166 
Q 2931 609 2489 259 
Q 2047 -91 1331 -91 
Q 1053 -91 747 -37 
Q 441 16 72 128 
L 184 722 
Q 500 559 806 475 
Q 1113 391 1394 391 
Q 1816 391 2080 572 
Q 2344 753 2344 1031 
Q 2344 1331 1650 1516 
L 1591 1531 
L 1394 1581 
Q 956 1697 753 1886 
Q 550 2075 550 2369 
Q 550 2928 970 3256 
Q 1391 3584 2113 3584 
Q 2397 3584 2667 3537 
Q 2938 3491 3200 3397 
z
" id="DejaVuSans-Oblique-73" transform="scale(0.015625)"/>
      <path d="M 1984 4856 
Q 1566 4138 1362 3434 
Q 1159 2731 1159 2009 
Q 1159 1288 1364 580 
Q 1569 -128 1984 -844 
L 1484 -844 
Q 1016 -109 783 600 
Q 550 1309 550 2009 
Q 550 2706 781 3412 
Q 1013 4119 1484 4856 
L 1984 4856 
z
" id="DejaVuSans-28" transform="scale(0.015625)"/>
      <path d="M 513 4856 
L 1013 4856 
Q 1481 4119 1714 3412 
Q 1947 2706 1947 2009 
Q 1947 1309 1714 600 
Q 1481 -109 1013 -844 
L 513 -844 
Q 928 -128 1133 580 
Q 1338 1288 1338 2009 
Q 1338 2731 1133 3434 
Q 928 4138 513 4856 
z
" id="DejaVuSans-29" transform="scale(0.015625)"/>
     </defs>
     <use transform="translate(0 0.125)" xlink:href="#DejaVuSans-Oblique-49"/>
     <use transform="translate(29.492188 -16.28125)scale(0.7)" xlink:href="#DejaVuSans-Oblique-64"/>
     <use transform="translate(73.925781 -16.28125)scale(0.7)" xlink:href="#DejaVuSans-Oblique-73"/>
     <use transform="translate(113.129883 0.125)" xlink:href="#DejaVuSans-28"/>
     <use transform="translate(152.143555 0.125)" xlink:href="#DejaVuSans-Oblique-56"/>
     <use transform="translate(220.551758 -16.28125)scale(0.7)" xlink:href="#DejaVuSans-Oblique-64"/>
     <use transform="translate(264.985352 -16.28125)scale(0.7)" xlink:href="#DejaVuSans-Oblique-73"/>
     <use transform="translate(304.189453 0.125)" xlink:href="#DejaVuSans-29"/>
    </g>
   </g>
   <g id="legend_1">
    <g id="patch_7">
     <path d="M 350.12 304.1 
L 486.2 304.1 
Q 488.2 304.1 488.2 302.1 
L 488.2 267.25875 
Q 488.2 265.25875 486.2 265.25875 
L 350.12 265.25875 
Q 348.12 265.25875 348.12 267.25875 
L 348.12 302.1 
Q 348.12 304.1 350.12 304.1 
z
" style="fill:#ffffff;opacity:0.8;stroke:#cccccc;stroke-linejoin:miter;"/>
    </g>
    <g id="line2d_32">
     <path d="M 350.12 272.876875 
L 360.12 272.876875 
" style="fill:none;stroke:#ff0000;stroke-linecap:square;stroke-width:2;"/>
    </g>
    <g id="line2d_33"/>
    <g id="text_18">
     <!-- $I_{DS X1}: V_{G}$ = -6.0e-01 -->
     <g transform="translate(362.12 276.376875)scale(0.12 -0.12)">
      <defs>
       <path d="M 750 794 
L 1409 794 
L 1409 0 
L 750 0 
L 750 794 
z
M 750 3309 
L 1409 3309 
L 1409 2516 
L 750 2516 
L 750 3309 
z
" id="DejaVuSans-3a" transform="scale(0.015625)"/>
       <path d="M 3494 697 
L 3738 1919 
L 2700 1919 
L 2797 2438 
L 4453 2438 
L 4050 384 
Q 3634 156 3143 32 
Q 2653 -91 2156 -91 
Q 1278 -91 783 396 
Q 288 884 288 1753 
Q 288 2475 589 3126 
Q 891 3778 1422 4213 
Q 1756 4484 2153 4617 
Q 2550 4750 3034 4750 
Q 3472 4750 3873 4639 
Q 4275 4528 4641 4306 
L 4513 3634 
Q 4231 3928 3853 4083 
Q 3475 4238 3047 4238 
Q 2550 4238 2172 4048 
Q 1794 3859 1497 3463 
Q 1244 3125 1098 2667 
Q 953 2209 953 1734 
Q 953 1081 1287 751 
Q 1622 422 2284 422 
Q 2616 422 2925 492 
Q 3234 563 3494 697 
z
" id="DejaVuSans-Oblique-47" transform="scale(0.015625)"/>
       <path d="M 678 2906 
L 4684 2906 
L 4684 2381 
L 678 2381 
L 678 2906 
z
M 678 1631 
L 4684 1631 
L 4684 1100 
L 678 1100 
L 678 1631 
z
" id="DejaVuSans-3d" transform="scale(0.015625)"/>
       <path d="M 313 2009 
L 1997 2009 
L 1997 1497 
L 313 1497 
L 313 2009 
z
" id="DejaVuSans-2d" transform="scale(0.015625)"/>
       <path d="M 2113 2584 
Q 1688 2584 1439 2293 
Q 1191 2003 1191 1497 
Q 1191 994 1439 701 
Q 1688 409 2113 409 
Q 2538 409 2786 701 
Q 3034 994 3034 1497 
Q 3034 2003 2786 2293 
Q 2538 2584 2113 2584 
z
M 3366 4563 
L 3366 3988 
Q 3128 4100 2886 4159 
Q 2644 4219 2406 4219 
Q 1781 4219 1451 3797 
Q 1122 3375 1075 2522 
Q 1259 2794 1537 2939 
Q 1816 3084 2150 3084 
Q 2853 3084 3261 2657 
Q 3669 2231 3669 1497 
Q 3669 778 3244 343 
Q 2819 -91 2113 -91 
Q 1303 -91 875 529 
Q 447 1150 447 2328 
Q 447 3434 972 4092 
Q 1497 4750 2381 4750 
Q 2619 4750 2861 4703 
Q 3103 4656 3366 4563 
z
" id="DejaVuSans-36" transform="scale(0.015625)"/>
       <path d="M 3597 1894 
L 3597 1613 
L 953 1613 
Q 991 1019 1311 708 
Q 1631 397 2203 397 
Q 2534 397 2845 478 
Q 3156 559 3463 722 
L 3463 178 
Q 3153 47 2828 -22 
Q 2503 -91 2169 -91 
Q 1331 -91 842 396 
Q 353 884 353 1716 
Q 353 2575 817 3079 
Q 1281 3584 2069 3584 
Q 2775 3584 3186 3129 
Q 3597 2675 3597 1894 
z
M 3022 2063 
Q 3016 2534 2758 2815 
Q 2500 3097 2075 3097 
Q 1594 3097 1305 2825 
Q 1016 2553 972 2059 
L 3022 2063 
z
" id="DejaVuSans-65" transform="scale(0.015625)"/>
      </defs>
      <use transform="translate(0 0.78125)" xlink:href="#DejaVuSans-Oblique-49"/>
      <use transform="translate(29.492188 -15.625)scale(0.7)" xlink:href="#DejaVuSans-Oblique-44"/>
      <use transform="translate(83.393555 -15.625)scale(0.7)" xlink:href="#DejaVuSans-Oblique-53"/>
      <use transform="translate(127.827148 -15.625)scale(0.7)" xlink:href="#DejaVuSans-Oblique-58"/>
      <use transform="translate(175.78125 -15.625)scale(0.7)" xlink:href="#DejaVuSans-31"/>
      <use transform="translate(242.53418 0.78125)" xlink:href="#DejaVuSans-3a"/>
      <use transform="translate(295.708008 0.78125)" xlink:href="#DejaVuSans-Oblique-56"/>
      <use transform="translate(364.116211 -15.625)scale(0.7)" xlink:href="#DejaVuSans-Oblique-47"/>
      <use transform="translate(421.09375 0.78125)" xlink:href="#DejaVuSans-20"/>
      <use transform="translate(452.880859 0.78125)" xlink:href="#DejaVuSans-3d"/>
      <use transform="translate(536.669922 0.78125)" xlink:href="#DejaVuSans-20"/>
      <use transform="translate(568.457031 0.78125)" xlink:href="#DejaVuSans-2d"/>
      <use transform="translate(604.541016 0.78125)" xlink:href="#DejaVuSans-36"/>
      <use transform="translate(668.164062 0.78125)" xlink:href="#DejaVuSans-2e"/>
      <use transform="translate(699.951172 0.78125)" xlink:href="#DejaVuSans-30"/>
      <use transform="translate(763.574219 0.78125)" xlink:href="#DejaVuSans-65"/>
      <use transform="translate(825.097656 0.78125)" xlink:href="#DejaVuSans-2d"/>
      <use transform="translate(861.181641 0.78125)" xlink:href="#DejaVuSans-30"/>
      <use transform="translate(924.804688 0.78125)" xlink:href="#DejaVuSans-31"/>
     </g>
    </g>
    <g id="line2d_34">
     <path d="M 350.12 284.490625 
L 360.12 284.490625 
" style="fill:none;stroke:#0000ff;stroke-linecap:square;stroke-width:2;"/>
    </g>
    <g id="line2d_35"/>
    <g id="text_19">
     <!-- $I_{DS X1}: V_{G}$ = -1.2e+00 -->
     <g transform="translate(362.12 287.990625)scale(0.12 -0.12)">
      <defs>
       <path d="M 2944 4013 
L 2944 2272 
L 4684 2272 
L 4684 1741 
L 2944 1741 
L 2944 0 
L 2419 0 
L 2419 1741 
L 678 1741 
L 678 2272 
L 2419 2272 
L 2419 4013 
L 2944 4013 
z
" id="DejaVuSans-2b" transform="scale(0.015625)"/>
      </defs>
      <use transform="translate(0 0.78125)" xlink:href="#DejaVuSans-Oblique-49"/>
      <use transform="translate(29.492188 -15.625)scale(0.7)" xlink:href="#DejaVuSans-Oblique-44"/>
      <use transform="translate(83.393555 -15.625)scale(0.7)" xlink:href="#DejaVuSans-Oblique-53"/>
      <use transform="translate(127.827148 -15.625)scale(0.7)" xlink:href="#DejaVuSans-Oblique-58"/>
      <use transform="translate(175.78125 -15.625)scale(0.7)" xlink:href="#DejaVuSans-31"/>
      <use transform="translate(242.53418 0.78125)" xlink:href="#DejaVuSans-3a"/>
      <use transform="translate(295.708008 0.78125)" xlink:href="#DejaVuSans-Oblique-56"/>
      <use transform="translate(364.116211 -15.625)scale(0.7)" xlink:href="#DejaVuSans-Oblique-47"/>
      <use transform="translate(421.09375 0.78125)" xlink:href="#DejaVuSans-20"/>
      <use transform="translate(452.880859 0.78125)" xlink:href="#DejaVuSans-3d"/>
      <use transform="translate(536.669922 0.78125)" xlink:href="#DejaVuSans-20"/>
      <use transform="translate(568.457031 0.78125)" xlink:href="#DejaVuSans-2d"/>
      <use transform="translate(604.541016 0.78125)" xlink:href="#DejaVuSans-31"/>
      <use transform="translate(668.164062 0.78125)" xlink:href="#DejaVuSans-2e"/>
      <use transform="translate(694.451172 0.78125)" xlink:href="#DejaVuSans-32"/>
      <use transform="translate(758.074219 0.78125)" xlink:href="#DejaVuSans-65"/>
      <use transform="translate(819.597656 0.78125)" xlink:href="#DejaVuSans-2b"/>
      <use transform="translate(903.386719 0.78125)" xlink:href="#DejaVuSans-30"/>
      <use transform="translate(967.009766 0.78125)" xlink:href="#DejaVuSans-30"/>
     </g>
    </g>
    <g id="line2d_36">
     <path d="M 350.12 296.104375 
L 360.12 296.104375 
" style="fill:none;stroke:#008000;stroke-linecap:square;stroke-width:2;"/>
    </g>
    <g id="line2d_37"/>
    <g id="text_20">
     <!-- $I_{DS X1}: V_{G}$ = -1.8e+00 -->
     <g transform="translate(362.12 299.604375)scale(0.12 -0.12)">
      <defs>
       <path d="M 2034 2216 
Q 1584 2216 1326 1975 
Q 1069 1734 1069 1313 
Q 1069 891 1326 650 
Q 1584 409 2034 409 
Q 2484 409 2743 651 
Q 3003 894 3003 1313 
Q 3003 1734 2745 1975 
Q 2488 2216 2034 2216 
z
M 1403 2484 
Q 997 2584 770 2862 
Q 544 3141 544 3541 
Q 544 4100 942 4425 
Q 1341 4750 2034 4750 
Q 2731 4750 3128 4425 
Q 3525 4100 3525 3541 
Q 3525 3141 3298 2862 
Q 3072 2584 2669 2484 
Q 3125 2378 3379 2068 
Q 3634 1759 3634 1313 
Q 3634 634 3220 271 
Q 2806 -91 2034 -91 
Q 1263 -91 848 271 
Q 434 634 434 1313 
Q 434 1759 690 2068 
Q 947 2378 1403 2484 
z
M 1172 3481 
Q 1172 3119 1398 2916 
Q 1625 2713 2034 2713 
Q 2441 2713 2670 2916 
Q 2900 3119 2900 3481 
Q 2900 3844 2670 4047 
Q 2441 4250 2034 4250 
Q 1625 4250 1398 4047 
Q 1172 3844 1172 3481 
z
" id="DejaVuSans-38" transform="scale(0.015625)"/>
      </defs>
      <use transform="translate(0 0.78125)" xlink:href="#DejaVuSans-Oblique-49"/>
      <use transform="translate(29.492188 -15.625)scale(0.7)" xlink:href="#DejaVuSans-Oblique-44"/>
      <use transform="translate(83.393555 -15.625)scale(0.7)" xlink:href="#DejaVuSans-Oblique-53"/>
      <use transform="translate(127.827148 -15.625)scale(0.7)" xlink:href="#DejaVuSans-Oblique-58"/>
      <use transform="translate(175.78125 -15.625)scale(0.7)" xlink:href="#DejaVuSans-31"/>
      <use transform="translate(242.53418 0.78125)" xlink:href="#DejaVuSans-3a"/>
      <use transform="translate(295.708008 0.78125)" xlink:href="#DejaVuSans-Oblique-56"/>
      <use transform="translate(364.116211 -15.625)scale(0.7)" xlink:href="#DejaVuSans-Oblique-47"/>
      <use transform="translate(421.09375 0.78125)" xlink:href="#DejaVuSans-20"/>
      <use transform="translate(452.880859 0.78125)" xlink:href="#DejaVuSans-3d"/>
      <use transform="translate(536.669922 0.78125)" xlink:href="#DejaVuSans-20"/>
      <use transform="translate(568.457031 0.78125)" xlink:href="#DejaVuSans-2d"/>
      <use transform="translate(604.541016 0.78125)" xlink:href="#DejaVuSans-31"/>
      <use transform="translate(668.164062 0.78125)" xlink:href="#DejaVuSans-2e"/>
      <use transform="translate(697.326172 0.78125)" xlink:href="#DejaVuSans-38"/>
      <use transform="translate(760.949219 0.78125)" xlink:href="#DejaVuSans-65"/>
      <use transform="translate(822.472656 0.78125)" xlink:href="#DejaVuSans-2b"/>
      <use transform="translate(906.261719 0.78125)" xlink:href="#DejaVuSans-30"/>
      <use transform="translate(969.884766 0.78125)" xlink:href="#DejaVuSans-30"/>
     </g>
    </g>
   </g>
  </g>
 </g>
 <defs>
  <clipPath id="p12a6fd4040">
   <rect height="280.3" width="430.175" x="63.025" y="28.8"/>
  </clipPath>
 </defs>
</svg>
