<?xml version="1.0" encoding="utf-8" standalone="no"?>
<!DOCTYPE svg PUBLIC "-//W3C//DTD SVG 1.1//EN"
  "http://www.w3.org/Graphics/SVG/1.1/DTD/svg11.dtd">
<!-- Created with matplotlib (https://matplotlib.org/) -->
<svg height="360pt" version="1.1" viewBox="0 0 504 360" width="504pt" xmlns="http://www.w3.org/2000/svg" xmlns:xlink="http://www.w3.org/1999/xlink">
 <defs>
  <style type="text/css">
*{stroke-linecap:butt;stroke-linejoin:round;}
  </style>
 </defs>
 <g id="figure_1">
  <g id="patch_1">
   <path d="M 0 360 
L 504 360 
L 504 0 
L 0 0 
z
" style="fill:#ffffff;"/>
  </g>
  <g id="axes_1">
   <g id="patch_2">
    <path d="M 389.905 178.295 
C 389.905 160.185481 386.33782 142.252055 379.407607 125.521041 
C 372.477394 108.790028 362.318924 93.586803 349.513561 80.781439 
C 336.708197 67.976076 321.504972 57.817606 304.773959 50.887393 
C 288.042945 43.95718 270.109519 40.39 252 40.39 
C 233.890481 40.39 215.957055 43.95718 199.226041 50.887393 
C 182.495028 57.817606 167.291803 67.976076 154.486439 80.781439 
C 141.681076 93.586803 131.522606 108.790028 124.592393 125.521041 
C 117.66218 142.252055 114.095 160.185481 114.095 178.295 
C 114.095 196.404519 117.66218 214.337945 124.592393 231.068959 
C 131.522606 247.799972 141.681076 263.003197 154.486439 275.808561 
C 167.291803 288.613924 182.495028 298.772394 199.226041 305.702607 
C 215.957055 312.63282 233.890481 316.2 252 316.2 
C 270.109519 316.2 288.042945 312.63282 304.773959 305.702607 
C 321.504972 298.772394 336.708197 288.613924 349.513561 275.808561 
C 362.318924 263.003197 372.477394 247.799972 379.407607 231.068959 
C 386.33782 214.337945 389.905 196.404519 389.905 178.295 
M 252 178.295 
C 252 178.295 252 178.295 252 178.295 
C 252 178.295 252 178.295 252 178.295 
C 252 178.295 252 178.295 252 178.295 
C 252 178.295 252 178.295 252 178.295 
C 252 178.295 252 178.295 252 178.295 
C 252 178.295 252 178.295 252 178.295 
C 252 178.295 252 178.295 252 178.295 
C 252 178.295 252 178.295 252 178.295 
C 252 178.295 252 178.295 252 178.295 
C 252 178.295 252 178.295 252 178.295 
C 252 178.295 252 178.295 252 178.295 
C 252 178.295 252 178.295 252 178.295 
C 252 178.295 252 178.295 252 178.295 
C 252 178.295 252 178.295 252 178.295 
C 252 178.295 252 178.295 252 178.295 
C 252 178.295 252 178.295 252 178.295 
M 389.905 178.295 
z
" style="fill:#ffffff;"/>
   </g>
   <g id="matplotlib.axis_1">
    <g id="xtick_1">
     <g id="line2d_1">
      <path clip-path="url(#p7842626665)" d="M 252 178.295 
L 389.905 178.295 
" style="fill:none;stroke:#808080;stroke-linecap:square;stroke-width:0.8;"/>
     </g>
     <g id="text_1">
      <!-- 0° -->
      <defs>
       <path d="M 31.78125 66.40625 
Q 24.171875 66.40625 20.328125 58.90625 
Q 16.5 51.421875 16.5 36.375 
Q 16.5 21.390625 20.328125 13.890625 
Q 24.171875 6.390625 31.78125 6.390625 
Q 39.453125 6.390625 43.28125 13.890625 
Q 47.125 21.390625 47.125 36.375 
Q 47.125 51.421875 43.28125 58.90625 
Q 39.453125 66.40625 31.78125 66.40625 
z
M 31.78125 74.21875 
Q 44.046875 74.21875 50.515625 64.515625 
Q 56.984375 54.828125 56.984375 36.375 
Q 56.984375 17.96875 50.515625 8.265625 
Q 44.046875 -1.421875 31.78125 -1.421875 
Q 19.53125 -1.421875 13.0625 8.265625 
Q 6.59375 17.96875 6.59375 36.375 
Q 6.59375 54.828125 13.0625 64.515625 
Q 19.53125 74.21875 31.78125 74.21875 
z
" id="DejaVuSans-48"/>
       <path d="M 25 67.921875 
Q 21.09375 67.921875 18.40625 65.203125 
Q 15.71875 62.5 15.71875 58.59375 
Q 15.71875 54.734375 18.40625 52.078125 
Q 21.09375 49.421875 25 49.421875 
Q 28.90625 49.421875 31.59375 52.078125 
Q 34.28125 54.734375 34.28125 58.59375 
Q 34.28125 62.453125 31.5625 65.1875 
Q 28.859375 67.921875 25 67.921875 
z
M 25 74.21875 
Q 28.125 74.21875 31 73.015625 
Q 33.890625 71.828125 35.984375 69.578125 
Q 38.234375 67.390625 39.359375 64.59375 
Q 40.484375 61.8125 40.484375 58.59375 
Q 40.484375 52.15625 35.96875 47.6875 
Q 31.453125 43.21875 24.90625 43.21875 
Q 18.3125 43.21875 13.90625 47.609375 
Q 9.515625 52 9.515625 58.59375 
Q 9.515625 65.140625 14 69.671875 
Q 18.5 74.21875 25 74.21875 
z
" id="DejaVuSans-176"/>
      </defs>
      <g transform="translate(397.0875 181.60625)scale(0.12 -0.12)">
       <use xlink:href="#DejaVuSans-48"/>
       <use x="63.623047" xlink:href="#DejaVuSans-176"/>
      </g>
     </g>
    </g>
    <g id="xtick_2">
     <g id="line2d_2">
      <path clip-path="url(#p7842626665)" d="M 252 178.295 
L 349.513561 80.781439 
" style="fill:none;stroke:#808080;stroke-linecap:square;stroke-width:0.8;"/>
     </g>
     <g id="text_2">
      <!-- 45° -->
      <defs>
       <path d="M 37.796875 64.3125 
L 12.890625 25.390625 
L 37.796875 25.390625 
z
M 35.203125 72.90625 
L 47.609375 72.90625 
L 47.609375 25.390625 
L 58.015625 25.390625 
L 58.015625 17.1875 
L 47.609375 17.1875 
L 47.609375 0 
L 37.796875 0 
L 37.796875 17.1875 
L 4.890625 17.1875 
L 4.890625 26.703125 
z
" id="DejaVuSans-52"/>
       <path d="M 10.796875 72.90625 
L 49.515625 72.90625 
L 49.515625 64.59375 
L 19.828125 64.59375 
L 19.828125 46.734375 
Q 21.96875 47.46875 24.109375 47.828125 
Q 26.265625 48.1875 28.421875 48.1875 
Q 40.625 48.1875 47.75 41.5 
Q 54.890625 34.8125 54.890625 23.390625 
Q 54.890625 11.625 47.5625 5.09375 
Q 40.234375 -1.421875 26.90625 -1.421875 
Q 22.3125 -1.421875 17.546875 -0.640625 
Q 12.796875 0.140625 7.71875 1.703125 
L 7.71875 11.625 
Q 12.109375 9.234375 16.796875 8.0625 
Q 21.484375 6.890625 26.703125 6.890625 
Q 35.15625 6.890625 40.078125 11.328125 
Q 45.015625 15.765625 45.015625 23.390625 
Q 45.015625 31 40.078125 35.4375 
Q 35.15625 39.890625 26.703125 39.890625 
Q 22.75 39.890625 18.8125 39.015625 
Q 14.890625 38.140625 10.796875 36.28125 
z
" id="DejaVuSans-53"/>
      </defs>
      <g transform="translate(348.778056 74.193194)scale(0.12 -0.12)">
       <use xlink:href="#DejaVuSans-52"/>
       <use x="63.623047" xlink:href="#DejaVuSans-53"/>
       <use x="127.246094" xlink:href="#DejaVuSans-176"/>
      </g>
     </g>
    </g>
    <g id="xtick_3">
     <g id="line2d_3">
      <path clip-path="url(#p7842626665)" d="M 252 178.295 
L 252 40.39 
" style="fill:none;stroke:#808080;stroke-linecap:square;stroke-width:0.8;"/>
     </g>
     <g id="text_3">
      <!-- 90° -->
      <defs>
       <path d="M 10.984375 1.515625 
L 10.984375 10.5 
Q 14.703125 8.734375 18.5 7.8125 
Q 22.3125 6.890625 25.984375 6.890625 
Q 35.75 6.890625 40.890625 13.453125 
Q 46.046875 20.015625 46.78125 33.40625 
Q 43.953125 29.203125 39.59375 26.953125 
Q 35.25 24.703125 29.984375 24.703125 
Q 19.046875 24.703125 12.671875 31.3125 
Q 6.296875 37.9375 6.296875 49.421875 
Q 6.296875 60.640625 12.9375 67.421875 
Q 19.578125 74.21875 30.609375 74.21875 
Q 43.265625 74.21875 49.921875 64.515625 
Q 56.59375 54.828125 56.59375 36.375 
Q 56.59375 19.140625 48.40625 8.859375 
Q 40.234375 -1.421875 26.421875 -1.421875 
Q 22.703125 -1.421875 18.890625 -0.6875 
Q 15.09375 0.046875 10.984375 1.515625 
z
M 30.609375 32.421875 
Q 37.25 32.421875 41.125 36.953125 
Q 45.015625 41.5 45.015625 49.421875 
Q 45.015625 57.28125 41.125 61.84375 
Q 37.25 66.40625 30.609375 66.40625 
Q 23.96875 66.40625 20.09375 61.84375 
Q 16.21875 57.28125 16.21875 49.421875 
Q 16.21875 41.5 20.09375 36.953125 
Q 23.96875 32.421875 30.609375 32.421875 
z
" id="DejaVuSans-57"/>
      </defs>
      <g transform="translate(241.365 29.70125)scale(0.12 -0.12)">
       <use xlink:href="#DejaVuSans-57"/>
       <use x="63.623047" xlink:href="#DejaVuSans-48"/>
       <use x="127.246094" xlink:href="#DejaVuSans-176"/>
      </g>
     </g>
    </g>
    <g id="xtick_4">
     <g id="line2d_4">
      <path clip-path="url(#p7842626665)" d="M 252 178.295 
L 154.486439 80.781439 
" style="fill:none;stroke:#808080;stroke-linecap:square;stroke-width:0.8;"/>
     </g>
     <g id="text_4">
      <!-- 135° -->
      <defs>
       <path d="M 12.40625 8.296875 
L 28.515625 8.296875 
L 28.515625 63.921875 
L 10.984375 60.40625 
L 10.984375 69.390625 
L 28.421875 72.90625 
L 38.28125 72.90625 
L 38.28125 8.296875 
L 54.390625 8.296875 
L 54.390625 0 
L 12.40625 0 
z
" id="DejaVuSans-49"/>
       <path d="M 40.578125 39.3125 
Q 47.65625 37.796875 51.625 33 
Q 55.609375 28.21875 55.609375 21.1875 
Q 55.609375 10.40625 48.1875 4.484375 
Q 40.765625 -1.421875 27.09375 -1.421875 
Q 22.515625 -1.421875 17.65625 -0.515625 
Q 12.796875 0.390625 7.625 2.203125 
L 7.625 11.71875 
Q 11.71875 9.328125 16.59375 8.109375 
Q 21.484375 6.890625 26.8125 6.890625 
Q 36.078125 6.890625 40.9375 10.546875 
Q 45.796875 14.203125 45.796875 21.1875 
Q 45.796875 27.640625 41.28125 31.265625 
Q 36.765625 34.90625 28.71875 34.90625 
L 20.21875 34.90625 
L 20.21875 43.015625 
L 29.109375 43.015625 
Q 36.375 43.015625 40.234375 45.921875 
Q 44.09375 48.828125 44.09375 54.296875 
Q 44.09375 59.90625 40.109375 62.90625 
Q 36.140625 65.921875 28.71875 65.921875 
Q 24.65625 65.921875 20.015625 65.03125 
Q 15.375 64.15625 9.8125 62.3125 
L 9.8125 71.09375 
Q 15.4375 72.65625 20.34375 73.4375 
Q 25.25 74.21875 29.59375 74.21875 
Q 40.828125 74.21875 47.359375 69.109375 
Q 53.90625 64.015625 53.90625 55.328125 
Q 53.90625 49.265625 50.4375 45.09375 
Q 46.96875 40.921875 40.578125 39.3125 
z
" id="DejaVuSans-51"/>
      </defs>
      <g transform="translate(130.134444 74.193194)scale(0.12 -0.12)">
       <use xlink:href="#DejaVuSans-49"/>
       <use x="63.623047" xlink:href="#DejaVuSans-51"/>
       <use x="127.246094" xlink:href="#DejaVuSans-53"/>
       <use x="190.869141" xlink:href="#DejaVuSans-176"/>
      </g>
     </g>
    </g>
    <g id="xtick_5">
     <g id="line2d_5">
      <path clip-path="url(#p7842626665)" d="M 252 178.295 
L 114.095 178.295 
" style="fill:none;stroke:#808080;stroke-linecap:square;stroke-width:0.8;"/>
     </g>
     <g id="text_5">
      <!-- 180° -->
      <defs>
       <path d="M 31.78125 34.625 
Q 24.75 34.625 20.71875 30.859375 
Q 16.703125 27.09375 16.703125 20.515625 
Q 16.703125 13.921875 20.71875 10.15625 
Q 24.75 6.390625 31.78125 6.390625 
Q 38.8125 6.390625 42.859375 10.171875 
Q 46.921875 13.96875 46.921875 20.515625 
Q 46.921875 27.09375 42.890625 30.859375 
Q 38.875 34.625 31.78125 34.625 
z
M 21.921875 38.8125 
Q 15.578125 40.375 12.03125 44.71875 
Q 8.5 49.078125 8.5 55.328125 
Q 8.5 64.0625 14.71875 69.140625 
Q 20.953125 74.21875 31.78125 74.21875 
Q 42.671875 74.21875 48.875 69.140625 
Q 55.078125 64.0625 55.078125 55.328125 
Q 55.078125 49.078125 51.53125 44.71875 
Q 48 40.375 41.703125 38.8125 
Q 48.828125 37.15625 52.796875 32.3125 
Q 56.78125 27.484375 56.78125 20.515625 
Q 56.78125 9.90625 50.3125 4.234375 
Q 43.84375 -1.421875 31.78125 -1.421875 
Q 19.734375 -1.421875 13.25 4.234375 
Q 6.78125 9.90625 6.78125 20.515625 
Q 6.78125 27.484375 10.78125 32.3125 
Q 14.796875 37.15625 21.921875 38.8125 
z
M 18.3125 54.390625 
Q 18.3125 48.734375 21.84375 45.5625 
Q 25.390625 42.390625 31.78125 42.390625 
Q 38.140625 42.390625 41.71875 45.5625 
Q 45.3125 48.734375 45.3125 54.390625 
Q 45.3125 60.0625 41.71875 63.234375 
Q 38.140625 66.40625 31.78125 66.40625 
Q 25.390625 66.40625 21.84375 63.234375 
Q 18.3125 60.0625 18.3125 54.390625 
z
" id="DejaVuSans-56"/>
      </defs>
      <g transform="translate(85.6425 181.60625)scale(0.12 -0.12)">
       <use xlink:href="#DejaVuSans-49"/>
       <use x="63.623047" xlink:href="#DejaVuSans-56"/>
       <use x="127.246094" xlink:href="#DejaVuSans-48"/>
       <use x="190.869141" xlink:href="#DejaVuSans-176"/>
      </g>
     </g>
    </g>
    <g id="xtick_6">
     <g id="line2d_6">
      <path clip-path="url(#p7842626665)" d="M 252 178.295 
L 154.486439 275.808561 
" style="fill:none;stroke:#808080;stroke-linecap:square;stroke-width:0.8;"/>
     </g>
     <g id="text_6">
      <!-- 225° -->
      <defs>
       <path d="M 19.1875 8.296875 
L 53.609375 8.296875 
L 53.609375 0 
L 7.328125 0 
L 7.328125 8.296875 
Q 12.9375 14.109375 22.625 23.890625 
Q 32.328125 33.6875 34.8125 36.53125 
Q 39.546875 41.84375 41.421875 45.53125 
Q 43.3125 49.21875 43.3125 52.78125 
Q 43.3125 58.59375 39.234375 62.25 
Q 35.15625 65.921875 28.609375 65.921875 
Q 23.96875 65.921875 18.8125 64.3125 
Q 13.671875 62.703125 7.8125 59.421875 
L 7.8125 69.390625 
Q 13.765625 71.78125 18.9375 73 
Q 24.125 74.21875 28.421875 74.21875 
Q 39.75 74.21875 46.484375 68.546875 
Q 53.21875 62.890625 53.21875 53.421875 
Q 53.21875 48.921875 51.53125 44.890625 
Q 49.859375 40.875 45.40625 35.40625 
Q 44.1875 33.984375 37.640625 27.21875 
Q 31.109375 20.453125 19.1875 8.296875 
z
" id="DejaVuSans-50"/>
      </defs>
      <g transform="translate(130.134444 289.019306)scale(0.12 -0.12)">
       <use xlink:href="#DejaVuSans-50"/>
       <use x="63.623047" xlink:href="#DejaVuSans-50"/>
       <use x="127.246094" xlink:href="#DejaVuSans-53"/>
       <use x="190.869141" xlink:href="#DejaVuSans-176"/>
      </g>
     </g>
    </g>
    <g id="xtick_7">
     <g id="line2d_7">
      <path clip-path="url(#p7842626665)" d="M 252 178.295 
L 252 316.2 
" style="fill:none;stroke:#808080;stroke-linecap:square;stroke-width:0.8;"/>
     </g>
     <g id="text_7">
      <!-- 270° -->
      <defs>
       <path d="M 8.203125 72.90625 
L 55.078125 72.90625 
L 55.078125 68.703125 
L 28.609375 0 
L 18.3125 0 
L 43.21875 64.59375 
L 8.203125 64.59375 
z
" id="DejaVuSans-55"/>
      </defs>
      <g transform="translate(237.5475 333.51125)scale(0.12 -0.12)">
       <use xlink:href="#DejaVuSans-50"/>
       <use x="63.623047" xlink:href="#DejaVuSans-55"/>
       <use x="127.246094" xlink:href="#DejaVuSans-48"/>
       <use x="190.869141" xlink:href="#DejaVuSans-176"/>
      </g>
     </g>
    </g>
    <g id="xtick_8">
     <g id="line2d_8">
      <path clip-path="url(#p7842626665)" d="M 252 178.295 
L 349.513561 275.808561 
" style="fill:none;stroke:#808080;stroke-linecap:square;stroke-width:0.8;"/>
     </g>
     <g id="text_8">
      <!-- 315° -->
      <g transform="translate(344.960556 289.019306)scale(0.12 -0.12)">
       <use xlink:href="#DejaVuSans-51"/>
       <use x="63.623047" xlink:href="#DejaVuSans-49"/>
       <use x="127.246094" xlink:href="#DejaVuSans-53"/>
       <use x="190.869141" xlink:href="#DejaVuSans-176"/>
      </g>
     </g>
    </g>
    <g id="text_9">
     <!-- frequency [Hz] -->
     <defs>
      <path d="M 37.109375 75.984375 
L 37.109375 68.5 
L 28.515625 68.5 
Q 23.6875 68.5 21.796875 66.546875 
Q 19.921875 64.59375 19.921875 59.515625 
L 19.921875 54.6875 
L 34.71875 54.6875 
L 34.71875 47.703125 
L 19.921875 47.703125 
L 19.921875 0 
L 10.890625 0 
L 10.890625 47.703125 
L 2.296875 47.703125 
L 2.296875 54.6875 
L 10.890625 54.6875 
L 10.890625 58.5 
Q 10.890625 67.625 15.140625 71.796875 
Q 19.390625 75.984375 28.609375 75.984375 
z
" id="DejaVuSans-102"/>
      <path d="M 41.109375 46.296875 
Q 39.59375 47.171875 37.8125 47.578125 
Q 36.03125 48 33.890625 48 
Q 26.265625 48 22.1875 43.046875 
Q 18.109375 38.09375 18.109375 28.8125 
L 18.109375 0 
L 9.078125 0 
L 9.078125 54.6875 
L 18.109375 54.6875 
L 18.109375 46.1875 
Q 20.953125 51.171875 25.484375 53.578125 
Q 30.03125 56 36.53125 56 
Q 37.453125 56 38.578125 55.875 
Q 39.703125 55.765625 41.0625 55.515625 
z
" id="DejaVuSans-114"/>
      <path d="M 56.203125 29.59375 
L 56.203125 25.203125 
L 14.890625 25.203125 
Q 15.484375 15.921875 20.484375 11.0625 
Q 25.484375 6.203125 34.421875 6.203125 
Q 39.59375 6.203125 44.453125 7.46875 
Q 49.3125 8.734375 54.109375 11.28125 
L 54.109375 2.78125 
Q 49.265625 0.734375 44.1875 -0.34375 
Q 39.109375 -1.421875 33.890625 -1.421875 
Q 20.796875 -1.421875 13.15625 6.1875 
Q 5.515625 13.8125 5.515625 26.8125 
Q 5.515625 40.234375 12.765625 48.109375 
Q 20.015625 56 32.328125 56 
Q 43.359375 56 49.78125 48.890625 
Q 56.203125 41.796875 56.203125 29.59375 
z
M 47.21875 32.234375 
Q 47.125 39.59375 43.09375 43.984375 
Q 39.0625 48.390625 32.421875 48.390625 
Q 24.90625 48.390625 20.390625 44.140625 
Q 15.875 39.890625 15.1875 32.171875 
z
" id="DejaVuSans-101"/>
      <path d="M 14.796875 27.296875 
Q 14.796875 17.390625 18.875 11.75 
Q 22.953125 6.109375 30.078125 6.109375 
Q 37.203125 6.109375 41.296875 11.75 
Q 45.40625 17.390625 45.40625 27.296875 
Q 45.40625 37.203125 41.296875 42.84375 
Q 37.203125 48.484375 30.078125 48.484375 
Q 22.953125 48.484375 18.875 42.84375 
Q 14.796875 37.203125 14.796875 27.296875 
z
M 45.40625 8.203125 
Q 42.578125 3.328125 38.25 0.953125 
Q 33.9375 -1.421875 27.875 -1.421875 
Q 17.96875 -1.421875 11.734375 6.484375 
Q 5.515625 14.40625 5.515625 27.296875 
Q 5.515625 40.1875 11.734375 48.09375 
Q 17.96875 56 27.875 56 
Q 33.9375 56 38.25 53.625 
Q 42.578125 51.265625 45.40625 46.390625 
L 45.40625 54.6875 
L 54.390625 54.6875 
L 54.390625 -20.796875 
L 45.40625 -20.796875 
z
" id="DejaVuSans-113"/>
      <path d="M 8.5 21.578125 
L 8.5 54.6875 
L 17.484375 54.6875 
L 17.484375 21.921875 
Q 17.484375 14.15625 20.5 10.265625 
Q 23.53125 6.390625 29.59375 6.390625 
Q 36.859375 6.390625 41.078125 11.03125 
Q 45.3125 15.671875 45.3125 23.6875 
L 45.3125 54.6875 
L 54.296875 54.6875 
L 54.296875 0 
L 45.3125 0 
L 45.3125 8.40625 
Q 42.046875 3.421875 37.71875 1 
Q 33.40625 -1.421875 27.6875 -1.421875 
Q 18.265625 -1.421875 13.375 4.4375 
Q 8.5 10.296875 8.5 21.578125 
z
M 31.109375 56 
z
" id="DejaVuSans-117"/>
      <path d="M 54.890625 33.015625 
L 54.890625 0 
L 45.90625 0 
L 45.90625 32.71875 
Q 45.90625 40.484375 42.875 44.328125 
Q 39.84375 48.1875 33.796875 48.1875 
Q 26.515625 48.1875 22.3125 43.546875 
Q 18.109375 38.921875 18.109375 30.90625 
L 18.109375 0 
L 9.078125 0 
L 9.078125 54.6875 
L 18.109375 54.6875 
L 18.109375 46.1875 
Q 21.34375 51.125 25.703125 53.5625 
Q 30.078125 56 35.796875 56 
Q 45.21875 56 50.046875 50.171875 
Q 54.890625 44.34375 54.890625 33.015625 
z
" id="DejaVuSans-110"/>
      <path d="M 48.78125 52.59375 
L 48.78125 44.1875 
Q 44.96875 46.296875 41.140625 47.34375 
Q 37.3125 48.390625 33.40625 48.390625 
Q 24.65625 48.390625 19.8125 42.84375 
Q 14.984375 37.3125 14.984375 27.296875 
Q 14.984375 17.28125 19.8125 11.734375 
Q 24.65625 6.203125 33.40625 6.203125 
Q 37.3125 6.203125 41.140625 7.25 
Q 44.96875 8.296875 48.78125 10.40625 
L 48.78125 2.09375 
Q 45.015625 0.34375 40.984375 -0.53125 
Q 36.96875 -1.421875 32.421875 -1.421875 
Q 20.0625 -1.421875 12.78125 6.34375 
Q 5.515625 14.109375 5.515625 27.296875 
Q 5.515625 40.671875 12.859375 48.328125 
Q 20.21875 56 33.015625 56 
Q 37.15625 56 41.109375 55.140625 
Q 45.0625 54.296875 48.78125 52.59375 
z
" id="DejaVuSans-99"/>
      <path d="M 32.171875 -5.078125 
Q 28.375 -14.84375 24.75 -17.8125 
Q 21.140625 -20.796875 15.09375 -20.796875 
L 7.90625 -20.796875 
L 7.90625 -13.28125 
L 13.1875 -13.28125 
Q 16.890625 -13.28125 18.9375 -11.515625 
Q 21 -9.765625 23.484375 -3.21875 
L 25.09375 0.875 
L 2.984375 54.6875 
L 12.5 54.6875 
L 29.59375 11.921875 
L 46.6875 54.6875 
L 56.203125 54.6875 
z
" id="DejaVuSans-121"/>
      <path id="DejaVuSans-32"/>
      <path d="M 8.59375 75.984375 
L 29.296875 75.984375 
L 29.296875 69 
L 17.578125 69 
L 17.578125 -6.203125 
L 29.296875 -6.203125 
L 29.296875 -13.1875 
L 8.59375 -13.1875 
z
" id="DejaVuSans-91"/>
      <path d="M 9.8125 72.90625 
L 19.671875 72.90625 
L 19.671875 43.015625 
L 55.515625 43.015625 
L 55.515625 72.90625 
L 65.375 72.90625 
L 65.375 0 
L 55.515625 0 
L 55.515625 34.71875 
L 19.671875 34.71875 
L 19.671875 0 
L 9.8125 0 
z
" id="DejaVuSans-72"/>
      <path d="M 5.515625 54.6875 
L 48.1875 54.6875 
L 48.1875 46.484375 
L 14.40625 7.171875 
L 48.1875 7.171875 
L 48.1875 0 
L 4.296875 0 
L 4.296875 8.203125 
L 38.09375 47.515625 
L 5.515625 47.515625 
z
" id="DejaVuSans-122"/>
      <path d="M 30.421875 75.984375 
L 30.421875 -13.1875 
L 9.71875 -13.1875 
L 9.71875 -6.203125 
L 21.390625 -6.203125 
L 21.390625 69 
L 9.71875 69 
L 9.71875 75.984375 
z
" id="DejaVuSans-93"/>
     </defs>
     <g transform="translate(207.525 349.125)scale(0.12 -0.12)">
      <use xlink:href="#DejaVuSans-102"/>
      <use x="35.205078" xlink:href="#DejaVuSans-114"/>
      <use x="76.287109" xlink:href="#DejaVuSans-101"/>
      <use x="137.810547" xlink:href="#DejaVuSans-113"/>
      <use x="201.287109" xlink:href="#DejaVuSans-117"/>
      <use x="264.666016" xlink:href="#DejaVuSans-101"/>
      <use x="326.189453" xlink:href="#DejaVuSans-110"/>
      <use x="389.568359" xlink:href="#DejaVuSans-99"/>
      <use x="444.548828" xlink:href="#DejaVuSans-121"/>
      <use x="503.728516" xlink:href="#DejaVuSans-32"/>
      <use x="535.515625" xlink:href="#DejaVuSans-91"/>
      <use x="574.529297" xlink:href="#DejaVuSans-72"/>
      <use x="649.724609" xlink:href="#DejaVuSans-122"/>
      <use x="702.214844" xlink:href="#DejaVuSans-93"/>
     </g>
    </g>
   </g>
   <g id="matplotlib.axis_2">
    <g id="ytick_1">
     <g id="line2d_9">
      <path clip-path="url(#p7842626665)" d="M 257.002064 178.295 
L 256.892757 177.255012 
L 256.569613 176.260477 
L 256.046755 175.354861 
L 255.347034 174.577742 
L 254.501032 173.963086 
L 253.545723 173.537755 
L 252.522858 173.320338 
L 251.477142 173.320338 
L 250.454277 173.537755 
L 249.498968 173.963086 
L 248.652966 174.577742 
L 247.953245 175.354861 
L 247.430387 176.260477 
L 247.107243 177.255012 
L 246.997936 178.295 
L 247.107243 179.334988 
L 247.430387 180.329523 
L 247.953245 181.235139 
L 248.652966 182.012258 
L 249.498968 182.626914 
L 250.454277 183.052245 
L 251.477142 183.269662 
L 252.522858 183.269662 
L 253.545723 183.052245 
L 254.501032 182.626914 
L 255.347034 182.012258 
L 256.046755 181.235139 
L 256.569613 180.329523 
L 256.892757 179.334988 
L 257.002064 178.295 
L 257.002064 178.295 
" style="fill:none;stroke:#808080;stroke-linecap:square;stroke-width:0.8;"/>
     </g>
     <g id="text_10">
      <!-- 0.0 -->
      <defs>
       <path d="M 10.6875 12.40625 
L 21 12.40625 
L 21 0 
L 10.6875 0 
z
" id="DejaVuSans-46"/>
      </defs>
      <g transform="translate(256.621304 173.885168)scale(0.12 -0.12)">
       <use xlink:href="#DejaVuSans-48"/>
       <use x="63.623047" xlink:href="#DejaVuSans-46"/>
       <use x="95.410156" xlink:href="#DejaVuSans-48"/>
      </g>
     </g>
    </g>
    <g id="ytick_2">
     <g id="line2d_10">
      <path clip-path="url(#p7842626665)" d="M 282.330236 178.295 
L 282.164083 175.124627 
L 281.667447 171.988989 
L 280.845768 168.922442 
L 279.708049 165.958582 
L 278.266754 163.129882 
L 276.537676 160.467335 
L 274.539758 158.000111 
L 272.294889 155.755242 
L 269.827665 153.757324 
L 267.165118 152.028246 
L 264.336418 150.586951 
L 261.372558 149.449232 
L 258.306011 148.627553 
L 255.170373 148.130917 
L 252 147.964764 
L 248.829627 148.130917 
L 245.693989 148.627553 
L 242.627442 149.449232 
L 239.663582 150.586951 
L 236.834882 152.028246 
L 234.172335 153.757324 
L 231.705111 155.755242 
L 229.460242 158.000111 
L 227.462324 160.467335 
L 225.733246 163.129882 
L 224.291951 165.958582 
L 223.154232 168.922442 
L 222.332553 171.988989 
L 221.835917 175.124627 
L 221.669764 178.295 
L 221.835917 181.465373 
L 222.332553 184.601011 
L 223.154232 187.667558 
L 224.291951 190.631418 
L 225.733246 193.460118 
L 227.462324 196.122665 
L 229.460242 198.589889 
L 231.705111 200.834758 
L 234.172335 202.832676 
L 236.834882 204.561754 
L 239.663582 206.003049 
L 242.627442 207.140768 
L 245.693989 207.962447 
L 248.829627 208.459083 
L 252 208.625236 
L 255.170373 208.459083 
L 258.306011 207.962447 
L 261.372558 207.140768 
L 264.336418 206.003049 
L 267.165118 204.561754 
L 269.827665 202.832676 
L 272.294889 200.834758 
L 274.539758 198.589889 
L 276.537676 196.122665 
L 278.266754 193.460118 
L 279.708049 190.631418 
L 280.845768 187.667558 
L 281.667447 184.601011 
L 282.164083 181.465373 
L 282.330236 178.295 
L 282.330236 178.295 
" style="fill:none;stroke:#808080;stroke-linecap:square;stroke-width:0.8;"/>
     </g>
     <g id="text_11">
      <!-- 0.2 -->
      <g transform="translate(280.021484 164.192496)scale(0.12 -0.12)">
       <use xlink:href="#DejaVuSans-48"/>
       <use x="63.623047" xlink:href="#DejaVuSans-46"/>
       <use x="95.410156" xlink:href="#DejaVuSans-50"/>
      </g>
     </g>
    </g>
    <g id="ytick_3">
     <g id="line2d_11">
      <path clip-path="url(#p7842626665)" d="M 307.658407 178.295 
L 307.522826 174.412466 
L 307.116743 170.548847 
L 306.442138 166.722966 
L 305.502295 162.953464 
L 304.301795 159.258704 
L 302.846485 155.656686 
L 301.143457 152.164961 
L 299.201006 148.800538 
L 297.028597 145.579809 
L 294.636814 142.518465 
L 292.037308 139.631421 
L 289.242744 136.932743 
L 286.266737 134.435577 
L 283.123786 132.152089 
L 279.829204 130.093405 
L 276.39904 128.269555 
L 272.850006 126.689423 
L 269.199394 125.360709 
L 265.464987 124.289885 
L 261.664981 123.482169 
L 257.817888 122.941495 
L 253.94245 122.670498 
L 250.05755 122.670498 
L 246.182112 122.941495 
L 242.335019 123.482169 
L 238.535013 124.289885 
L 234.800606 125.360709 
L 231.149994 126.689423 
L 227.60096 128.269555 
L 224.170796 130.093405 
L 220.876214 132.152089 
L 217.733263 134.435577 
L 214.757256 136.932743 
L 211.962692 139.631421 
L 209.363186 142.518465 
L 206.971403 145.579809 
L 204.798994 148.800538 
L 202.856543 152.164961 
L 201.153515 155.656686 
L 199.698205 159.258704 
L 198.497705 162.953464 
L 197.557862 166.722966 
L 196.883257 170.548847 
L 196.477174 174.412466 
L 196.341593 178.295 
L 196.477174 182.177534 
L 196.883257 186.041153 
L 197.557862 189.867034 
L 198.497705 193.636536 
L 199.698205 197.331296 
L 201.153515 200.933314 
L 202.856543 204.425039 
L 204.798994 207.789462 
L 206.971403 211.010191 
L 209.363186 214.071535 
L 211.962692 216.958579 
L 214.757256 219.657257 
L 217.733263 222.154423 
L 220.876214 224.437911 
L 224.170796 226.496595 
L 227.60096 228.320445 
L 231.149994 229.900577 
L 234.800606 231.229291 
L 238.535013 232.300115 
L 242.335019 233.107831 
L 246.182112 233.648505 
L 250.05755 233.919502 
L 253.94245 233.919502 
L 257.817888 233.648505 
L 261.664981 233.107831 
L 265.464987 232.300115 
L 269.199394 231.229291 
L 272.850006 229.900577 
L 276.39904 228.320445 
L 279.829204 226.496595 
L 283.123786 224.437911 
L 286.266737 222.154423 
L 289.242744 219.657257 
L 292.037308 216.958579 
L 294.636814 214.071535 
L 297.028597 211.010191 
L 299.201006 207.789462 
L 301.143457 204.425039 
L 302.846485 200.933314 
L 304.301795 197.331296 
L 305.502295 193.636536 
L 306.442138 189.867034 
L 307.116743 186.041153 
L 307.522826 182.177534 
L 307.658407 178.295 
L 307.658407 178.295 
" style="fill:none;stroke:#808080;stroke-linecap:square;stroke-width:0.8;"/>
     </g>
     <g id="text_12">
      <!-- 0.4 -->
      <g transform="translate(303.421663 154.499825)scale(0.12 -0.12)">
       <use xlink:href="#DejaVuSans-48"/>
       <use x="63.623047" xlink:href="#DejaVuSans-46"/>
       <use x="95.410156" xlink:href="#DejaVuSans-52"/>
      </g>
     </g>
    </g>
    <g id="ytick_4">
     <g id="line2d_12">
      <path clip-path="url(#p7842626665)" d="M 332.986579 178.295 
L 332.7893 172.645662 
L 332.198423 167.023847 
L 331.216828 161.456943 
L 329.849296 155.972074 
L 328.102491 150.595959 
L 325.984921 145.354791 
L 323.506905 140.274104 
L 320.680514 135.378652 
L 317.519519 130.692283 
L 314.039319 126.23783 
L 310.25687 122.036995 
L 306.190599 118.110243 
L 301.860317 114.476705 
L 297.28712 111.154083 
L 292.49329 108.158565 
L 287.50218 105.504745 
L 282.338106 103.205552 
L 277.026229 101.272186 
L 271.592427 99.714068 
L 266.063172 98.538789 
L 260.465403 97.752074 
L 254.826391 97.357756 
L 249.173609 97.357756 
L 243.534597 97.752074 
L 237.936828 98.538789 
L 232.407573 99.714068 
L 226.973771 101.272186 
L 221.661894 103.205552 
L 216.49782 105.504745 
L 211.50671 108.158565 
L 206.71288 111.154083 
L 202.139683 114.476705 
L 197.809401 118.110243 
L 193.74313 122.036995 
L 189.960681 126.23783 
L 186.480481 130.692283 
L 183.319486 135.378652 
L 180.493095 140.274104 
L 178.015079 145.354791 
L 175.897509 150.595959 
L 174.150704 155.972074 
L 172.783172 161.456943 
L 171.801577 167.023847 
L 171.2107 172.645662 
L 171.013421 178.295 
L 171.2107 183.944338 
L 171.801577 189.566153 
L 172.783172 195.133057 
L 174.150704 200.617926 
L 175.897509 205.994041 
L 178.015079 211.235209 
L 180.493095 216.315896 
L 183.319486 221.211348 
L 186.480481 225.897717 
L 189.960681 230.35217 
L 193.74313 234.553005 
L 197.809401 238.479757 
L 202.139683 242.113295 
L 206.71288 245.435917 
L 211.50671 248.431435 
L 216.49782 251.085255 
L 221.661894 253.384448 
L 226.973771 255.317814 
L 232.407573 256.875932 
L 237.936828 258.051211 
L 243.534597 258.837926 
L 249.173609 259.232244 
L 254.826391 259.232244 
L 260.465403 258.837926 
L 266.063172 258.051211 
L 271.592427 256.875932 
L 277.026229 255.317814 
L 282.338106 253.384448 
L 287.50218 251.085255 
L 292.49329 248.431435 
L 297.28712 245.435917 
L 301.860317 242.113295 
L 306.190599 238.479757 
L 310.25687 234.553005 
L 314.039319 230.35217 
L 317.519519 225.897717 
L 320.680514 221.211348 
L 323.506905 216.315896 
L 325.984921 211.235209 
L 328.102491 205.994041 
L 329.849296 200.617926 
L 331.216828 195.133057 
L 332.198423 189.566153 
L 332.7893 183.944338 
L 332.986579 178.295 
L 332.986579 178.295 
" style="fill:none;stroke:#808080;stroke-linecap:square;stroke-width:0.8;"/>
     </g>
     <g id="text_13">
      <!-- 0.6 -->
      <defs>
       <path d="M 33.015625 40.375 
Q 26.375 40.375 22.484375 35.828125 
Q 18.609375 31.296875 18.609375 23.390625 
Q 18.609375 15.53125 22.484375 10.953125 
Q 26.375 6.390625 33.015625 6.390625 
Q 39.65625 6.390625 43.53125 10.953125 
Q 47.40625 15.53125 47.40625 23.390625 
Q 47.40625 31.296875 43.53125 35.828125 
Q 39.65625 40.375 33.015625 40.375 
z
M 52.59375 71.296875 
L 52.59375 62.3125 
Q 48.875 64.0625 45.09375 64.984375 
Q 41.3125 65.921875 37.59375 65.921875 
Q 27.828125 65.921875 22.671875 59.328125 
Q 17.53125 52.734375 16.796875 39.40625 
Q 19.671875 43.65625 24.015625 45.921875 
Q 28.375 48.1875 33.59375 48.1875 
Q 44.578125 48.1875 50.953125 41.515625 
Q 57.328125 34.859375 57.328125 23.390625 
Q 57.328125 12.15625 50.6875 5.359375 
Q 44.046875 -1.421875 33.015625 -1.421875 
Q 20.359375 -1.421875 13.671875 8.265625 
Q 6.984375 17.96875 6.984375 36.375 
Q 6.984375 53.65625 15.1875 63.9375 
Q 23.390625 74.21875 37.203125 74.21875 
Q 40.921875 74.21875 44.703125 73.484375 
Q 48.484375 72.75 52.59375 71.296875 
z
" id="DejaVuSans-54"/>
      </defs>
      <g transform="translate(326.821843 144.807153)scale(0.12 -0.12)">
       <use xlink:href="#DejaVuSans-48"/>
       <use x="63.623047" xlink:href="#DejaVuSans-46"/>
       <use x="95.410156" xlink:href="#DejaVuSans-54"/>
      </g>
     </g>
    </g>
    <g id="ytick_5">
     <g id="line2d_13">
      <path clip-path="url(#p7842626665)" d="M 358.314751 178.295 
L 358.249987 174.584669 
L 358.055773 170.878858 
L 357.732347 167.182082 
L 357.280103 163.498846 
L 356.699591 159.833637 
L 355.991518 156.19092 
L 355.156748 152.575134 
L 354.196298 148.990683 
L 353.111336 145.441935 
L 351.903187 141.933214 
L 350.57332 138.468793 
L 349.123358 135.052895 
L 347.555065 131.689681 
L 345.870353 128.383248 
L 344.071275 125.137625 
L 342.160022 121.956766 
L 340.138923 118.844546 
L 338.01044 115.804757 
L 335.777167 112.841104 
L 333.441824 109.957195 
L 331.007257 107.156546 
L 328.476432 104.442568 
L 325.852432 101.818568 
L 323.138454 99.287743 
L 320.337805 96.853176 
L 317.453896 94.517833 
L 314.490243 92.28456 
L 311.450454 90.156077 
L 308.338234 88.134978 
L 305.157375 86.223725 
L 301.911752 84.424647 
L 298.605319 82.739935 
L 295.242105 81.171642 
L 291.826207 79.72168 
L 288.361786 78.391813 
L 284.853065 77.183664 
L 281.304317 76.098702 
L 277.719866 75.138252 
L 274.10408 74.303482 
L 270.461363 73.595409 
L 266.796154 73.014897 
L 263.112918 72.562653 
L 259.416142 72.239227 
L 255.710331 72.045013 
L 252 71.980249 
L 248.289669 72.045013 
L 244.583858 72.239227 
L 240.887082 72.562653 
L 237.203846 73.014897 
L 233.538637 73.595409 
L 229.89592 74.303482 
L 226.280134 75.138252 
L 222.695683 76.098702 
L 219.146935 77.183664 
L 215.638214 78.391813 
L 212.173793 79.72168 
L 208.757895 81.171642 
L 205.394681 82.739935 
L 202.088248 84.424647 
L 198.842625 86.223725 
L 195.661766 88.134978 
L 192.549546 90.156077 
L 189.509757 92.28456 
L 186.546104 94.517833 
L 183.662195 96.853176 
L 180.861546 99.287743 
L 178.147568 101.818568 
L 175.523568 104.442568 
L 172.992743 107.156546 
L 170.558176 109.957195 
L 168.222833 112.841104 
L 165.98956 115.804757 
L 163.861077 118.844546 
L 161.839978 121.956766 
L 159.928725 125.137625 
L 158.129647 128.383248 
L 156.444935 131.689681 
L 154.876642 135.052895 
L 153.42668 138.468793 
L 152.096813 141.933214 
L 150.888664 145.441935 
L 149.803702 148.990683 
L 148.843252 152.575134 
L 148.008482 156.19092 
L 147.300409 159.833637 
L 146.719897 163.498846 
L 146.267653 167.182082 
L 145.944227 170.878858 
L 145.750013 174.584669 
L 145.685249 178.295 
L 145.750013 182.005331 
L 145.944227 185.711142 
L 146.267653 189.407918 
L 146.719897 193.091154 
L 147.300409 196.756363 
L 148.008482 200.39908 
L 148.843252 204.014866 
L 149.803702 207.599317 
L 150.888664 211.148065 
L 152.096813 214.656786 
L 153.42668 218.121207 
L 154.876642 221.537105 
L 156.444935 224.900319 
L 158.129647 228.206752 
L 159.928725 231.452375 
L 161.839978 234.633234 
L 163.861077 237.745454 
L 165.98956 240.785243 
L 168.222833 243.748896 
L 170.558176 246.632805 
L 172.992743 249.433454 
L 175.523568 252.147432 
L 178.147568 254.771432 
L 180.861546 257.302257 
L 183.662195 259.736824 
L 186.546104 262.072167 
L 189.509757 264.30544 
L 192.549546 266.433923 
L 195.661766 268.455022 
L 198.842625 270.366275 
L 202.088248 272.165353 
L 205.394681 273.850065 
L 208.757895 275.418358 
L 212.173793 276.86832 
L 215.638214 278.198187 
L 219.146935 279.406336 
L 222.695683 280.491298 
L 226.280134 281.451748 
L 229.89592 282.286518 
L 233.538637 282.994591 
L 237.203846 283.575103 
L 240.887082 284.027347 
L 244.583858 284.350773 
L 248.289669 284.544987 
L 252 284.609751 
L 255.710331 284.544987 
L 259.416142 284.350773 
L 263.112918 284.027347 
L 266.796154 283.575103 
L 270.461363 282.994591 
L 274.10408 282.286518 
L 277.719866 281.451748 
L 281.304317 280.491298 
L 284.853065 279.406336 
L 288.361786 278.198187 
L 291.826207 276.86832 
L 295.242105 275.418358 
L 298.605319 273.850065 
L 301.911752 272.165353 
L 305.157375 270.366275 
L 308.338234 268.455022 
L 311.450454 266.433923 
L 314.490243 264.30544 
L 317.453896 262.072167 
L 320.337805 259.736824 
L 323.138454 257.302257 
L 325.852432 254.771432 
L 328.476432 252.147432 
L 331.007257 249.433454 
L 333.441824 246.632805 
L 335.777167 243.748896 
L 338.01044 240.785243 
L 340.138923 237.745454 
L 342.160022 234.633234 
L 344.071275 231.452375 
L 345.870353 228.206752 
L 347.555065 224.900319 
L 349.123358 221.537105 
L 350.57332 218.121207 
L 351.903187 214.656786 
L 353.111336 211.148065 
L 354.196298 207.599317 
L 355.156748 204.014866 
L 355.991518 200.39908 
L 356.699591 196.756363 
L 357.280103 193.091154 
L 357.732347 189.407918 
L 358.055773 185.711142 
L 358.249987 182.005331 
L 358.314751 178.295 
L 358.314751 178.295 
" style="fill:none;stroke:#808080;stroke-linecap:square;stroke-width:0.8;"/>
     </g>
     <g id="text_14">
      <!-- 0.8 -->
      <g transform="translate(350.222022 135.114481)scale(0.12 -0.12)">
       <use xlink:href="#DejaVuSans-48"/>
       <use x="63.623047" xlink:href="#DejaVuSans-46"/>
       <use x="95.410156" xlink:href="#DejaVuSans-56"/>
      </g>
     </g>
    </g>
    <g id="ytick_6">
     <g id="line2d_14">
      <path clip-path="url(#p7842626665)" d="M 383.642922 178.295 
L 383.562729 173.700728 
L 383.322247 169.112054 
L 382.921769 164.534568 
L 382.361783 159.973846 
L 381.642971 155.435446 
L 380.766209 150.924897 
L 379.732565 146.447695 
L 378.543299 142.009293 
L 377.199859 137.6151 
L 375.703883 133.270469 
L 374.057192 128.980693 
L 372.261794 124.751 
L 370.319875 120.586541 
L 368.233802 116.492391 
L 366.006115 112.473539 
L 363.63953 108.534879 
L 361.136929 104.681212 
L 358.501361 100.917232 
L 355.736039 97.247524 
L 352.844329 93.676561 
L 349.829757 90.208691 
L 346.695994 86.848142 
L 343.446858 83.599006 
L 340.086309 80.465243 
L 336.618439 77.450671 
L 333.047476 74.558961 
L 329.377768 71.793639 
L 325.613788 69.158071 
L 321.760121 66.65547 
L 317.821461 64.288885 
L 313.802609 62.061198 
L 309.708459 59.975125 
L 305.544 58.033206 
L 301.314307 56.237808 
L 297.024531 54.591117 
L 292.6799 53.095141 
L 288.285707 51.751701 
L 283.847305 50.562435 
L 279.370103 49.528791 
L 274.859554 48.652029 
L 270.321154 47.933217 
L 265.760432 47.373231 
L 261.182946 46.972753 
L 256.594272 46.732271 
L 252 46.652078 
L 247.405728 46.732271 
L 242.817054 46.972753 
L 238.239568 47.373231 
L 233.678846 47.933217 
L 229.140446 48.652029 
L 224.629897 49.528791 
L 220.152695 50.562435 
L 215.714293 51.751701 
L 211.3201 53.095141 
L 206.975469 54.591117 
L 202.685693 56.237808 
L 198.456 58.033206 
L 194.291541 59.975125 
L 190.197391 62.061198 
L 186.178539 64.288885 
L 182.239879 66.65547 
L 178.386212 69.158071 
L 174.622232 71.793639 
L 170.952524 74.558961 
L 167.381561 77.450671 
L 163.913691 80.465243 
L 160.553142 83.599006 
L 157.304006 86.848142 
L 154.170243 90.208691 
L 151.155671 93.676561 
L 148.263961 97.247524 
L 145.498639 100.917232 
L 142.863071 104.681212 
L 140.36047 108.534879 
L 137.993885 112.473539 
L 135.766198 116.492391 
L 133.680125 120.586541 
L 131.738206 124.751 
L 129.942808 128.980693 
L 128.296117 133.270469 
L 126.800141 137.6151 
L 125.456701 142.009293 
L 124.267435 146.447695 
L 123.233791 150.924897 
L 122.357029 155.435446 
L 121.638217 159.973846 
L 121.078231 164.534568 
L 120.677753 169.112054 
L 120.437271 173.700728 
L 120.357078 178.295 
L 120.437271 182.889272 
L 120.677753 187.477946 
L 121.078231 192.055432 
L 121.638217 196.616154 
L 122.357029 201.154554 
L 123.233791 205.665103 
L 124.267435 210.142305 
L 125.456701 214.580707 
L 126.800141 218.9749 
L 128.296117 223.319531 
L 129.942808 227.609307 
L 131.738206 231.839 
L 133.680125 236.003459 
L 135.766198 240.097609 
L 137.993885 244.116461 
L 140.36047 248.055121 
L 142.863071 251.908788 
L 145.498639 255.672768 
L 148.263961 259.342476 
L 151.155671 262.913439 
L 154.170243 266.381309 
L 157.304006 269.741858 
L 160.553142 272.990994 
L 163.913691 276.124757 
L 167.381561 279.139329 
L 170.952524 282.031039 
L 174.622232 284.796361 
L 178.386212 287.431929 
L 182.239879 289.93453 
L 186.178539 292.301115 
L 190.197391 294.528802 
L 194.291541 296.614875 
L 198.456 298.556794 
L 202.685693 300.352192 
L 206.975469 301.998883 
L 211.3201 303.494859 
L 215.714293 304.838299 
L 220.152695 306.027565 
L 224.629897 307.061209 
L 229.140446 307.937971 
L 233.678846 308.656783 
L 238.239568 309.216769 
L 242.817054 309.617247 
L 247.405728 309.857729 
L 252 309.937922 
L 256.594272 309.857729 
L 261.182946 309.617247 
L 265.760432 309.216769 
L 270.321154 308.656783 
L 274.859554 307.937971 
L 279.370103 307.061209 
L 283.847305 306.027565 
L 288.285707 304.838299 
L 292.6799 303.494859 
L 297.024531 301.998883 
L 301.314307 300.352192 
L 305.544 298.556794 
L 309.708459 296.614875 
L 313.802609 294.528802 
L 317.821461 292.301115 
L 321.760121 289.93453 
L 325.613788 287.431929 
L 329.377768 284.796361 
L 333.047476 282.031039 
L 336.618439 279.139329 
L 340.086309 276.124757 
L 343.446858 272.990994 
L 346.695994 269.741858 
L 349.829757 266.381309 
L 352.844329 262.913439 
L 355.736039 259.342476 
L 358.501361 255.672768 
L 361.136929 251.908788 
L 363.63953 248.055121 
L 366.006115 244.116461 
L 368.233802 240.097609 
L 370.319875 236.003459 
L 372.261794 231.839 
L 374.057192 227.609307 
L 375.703883 223.319531 
L 377.199859 218.9749 
L 378.543299 214.580707 
L 379.732565 210.142305 
L 380.766209 205.665103 
L 381.642971 201.154554 
L 382.361783 196.616154 
L 382.921769 192.055432 
L 383.322247 187.477946 
L 383.562729 182.889272 
L 383.642922 178.295 
L 383.642922 178.295 
" style="fill:none;stroke:#808080;stroke-linecap:square;stroke-width:0.8;"/>
     </g>
     <g id="text_15">
      <!-- 1.0 -->
      <g transform="translate(373.622202 125.42181)scale(0.12 -0.12)">
       <use xlink:href="#DejaVuSans-49"/>
       <use x="63.623047" xlink:href="#DejaVuSans-46"/>
       <use x="95.410156" xlink:href="#DejaVuSans-48"/>
      </g>
     </g>
    </g>
    <g id="text_16">
     <!-- magnitude [] -->
     <defs>
      <path d="M 52 44.1875 
Q 55.375 50.25 60.0625 53.125 
Q 64.75 56 71.09375 56 
Q 79.640625 56 84.28125 50.015625 
Q 88.921875 44.046875 88.921875 33.015625 
L 88.921875 0 
L 79.890625 0 
L 79.890625 32.71875 
Q 79.890625 40.578125 77.09375 44.375 
Q 74.3125 48.1875 68.609375 48.1875 
Q 61.625 48.1875 57.5625 43.546875 
Q 53.515625 38.921875 53.515625 30.90625 
L 53.515625 0 
L 44.484375 0 
L 44.484375 32.71875 
Q 44.484375 40.625 41.703125 44.40625 
Q 38.921875 48.1875 33.109375 48.1875 
Q 26.21875 48.1875 22.15625 43.53125 
Q 18.109375 38.875 18.109375 30.90625 
L 18.109375 0 
L 9.078125 0 
L 9.078125 54.6875 
L 18.109375 54.6875 
L 18.109375 46.1875 
Q 21.1875 51.21875 25.484375 53.609375 
Q 29.78125 56 35.6875 56 
Q 41.65625 56 45.828125 52.96875 
Q 50 49.953125 52 44.1875 
z
" id="DejaVuSans-109"/>
      <path d="M 34.28125 27.484375 
Q 23.390625 27.484375 19.1875 25 
Q 14.984375 22.515625 14.984375 16.5 
Q 14.984375 11.71875 18.140625 8.90625 
Q 21.296875 6.109375 26.703125 6.109375 
Q 34.1875 6.109375 38.703125 11.40625 
Q 43.21875 16.703125 43.21875 25.484375 
L 43.21875 27.484375 
z
M 52.203125 31.203125 
L 52.203125 0 
L 43.21875 0 
L 43.21875 8.296875 
Q 40.140625 3.328125 35.546875 0.953125 
Q 30.953125 -1.421875 24.3125 -1.421875 
Q 15.921875 -1.421875 10.953125 3.296875 
Q 6 8.015625 6 15.921875 
Q 6 25.140625 12.171875 29.828125 
Q 18.359375 34.515625 30.609375 34.515625 
L 43.21875 34.515625 
L 43.21875 35.40625 
Q 43.21875 41.609375 39.140625 45 
Q 35.0625 48.390625 27.6875 48.390625 
Q 23 48.390625 18.546875 47.265625 
Q 14.109375 46.140625 10.015625 43.890625 
L 10.015625 52.203125 
Q 14.9375 54.109375 19.578125 55.046875 
Q 24.21875 56 28.609375 56 
Q 40.484375 56 46.34375 49.84375 
Q 52.203125 43.703125 52.203125 31.203125 
z
" id="DejaVuSans-97"/>
      <path d="M 45.40625 27.984375 
Q 45.40625 37.75 41.375 43.109375 
Q 37.359375 48.484375 30.078125 48.484375 
Q 22.859375 48.484375 18.828125 43.109375 
Q 14.796875 37.75 14.796875 27.984375 
Q 14.796875 18.265625 18.828125 12.890625 
Q 22.859375 7.515625 30.078125 7.515625 
Q 37.359375 7.515625 41.375 12.890625 
Q 45.40625 18.265625 45.40625 27.984375 
z
M 54.390625 6.78125 
Q 54.390625 -7.171875 48.1875 -13.984375 
Q 42 -20.796875 29.203125 -20.796875 
Q 24.46875 -20.796875 20.265625 -20.09375 
Q 16.0625 -19.390625 12.109375 -17.921875 
L 12.109375 -9.1875 
Q 16.0625 -11.328125 19.921875 -12.34375 
Q 23.78125 -13.375 27.78125 -13.375 
Q 36.625 -13.375 41.015625 -8.765625 
Q 45.40625 -4.15625 45.40625 5.171875 
L 45.40625 9.625 
Q 42.625 4.78125 38.28125 2.390625 
Q 33.9375 0 27.875 0 
Q 17.828125 0 11.671875 7.65625 
Q 5.515625 15.328125 5.515625 27.984375 
Q 5.515625 40.671875 11.671875 48.328125 
Q 17.828125 56 27.875 56 
Q 33.9375 56 38.28125 53.609375 
Q 42.625 51.21875 45.40625 46.390625 
L 45.40625 54.6875 
L 54.390625 54.6875 
z
" id="DejaVuSans-103"/>
      <path d="M 9.421875 54.6875 
L 18.40625 54.6875 
L 18.40625 0 
L 9.421875 0 
z
M 9.421875 75.984375 
L 18.40625 75.984375 
L 18.40625 64.59375 
L 9.421875 64.59375 
z
" id="DejaVuSans-105"/>
      <path d="M 18.3125 70.21875 
L 18.3125 54.6875 
L 36.8125 54.6875 
L 36.8125 47.703125 
L 18.3125 47.703125 
L 18.3125 18.015625 
Q 18.3125 11.328125 20.140625 9.421875 
Q 21.96875 7.515625 27.59375 7.515625 
L 36.8125 7.515625 
L 36.8125 0 
L 27.59375 0 
Q 17.1875 0 13.234375 3.875 
Q 9.28125 7.765625 9.28125 18.015625 
L 9.28125 47.703125 
L 2.6875 47.703125 
L 2.6875 54.6875 
L 9.28125 54.6875 
L 9.28125 70.21875 
z
" id="DejaVuSans-116"/>
      <path d="M 45.40625 46.390625 
L 45.40625 75.984375 
L 54.390625 75.984375 
L 54.390625 0 
L 45.40625 0 
L 45.40625 8.203125 
Q 42.578125 3.328125 38.25 0.953125 
Q 33.9375 -1.421875 27.875 -1.421875 
Q 17.96875 -1.421875 11.734375 6.484375 
Q 5.515625 14.40625 5.515625 27.296875 
Q 5.515625 40.1875 11.734375 48.09375 
Q 17.96875 56 27.875 56 
Q 33.9375 56 38.25 53.625 
Q 42.578125 51.265625 45.40625 46.390625 
z
M 14.796875 27.296875 
Q 14.796875 17.390625 18.875 11.75 
Q 22.953125 6.109375 30.078125 6.109375 
Q 37.203125 6.109375 41.296875 11.75 
Q 45.40625 17.390625 45.40625 27.296875 
Q 45.40625 37.203125 41.296875 42.84375 
Q 37.203125 48.484375 30.078125 48.484375 
Q 22.953125 48.484375 18.875 42.84375 
Q 14.796875 37.203125 14.796875 27.296875 
z
" id="DejaVuSans-100"/>
     </defs>
     <g transform="translate(107.599375 217.339063)rotate(-90)scale(0.12 -0.12)">
      <use xlink:href="#DejaVuSans-109"/>
      <use x="97.412109" xlink:href="#DejaVuSans-97"/>
      <use x="158.691406" xlink:href="#DejaVuSans-103"/>
      <use x="222.167969" xlink:href="#DejaVuSans-110"/>
      <use x="285.546875" xlink:href="#DejaVuSans-105"/>
      <use x="313.330078" xlink:href="#DejaVuSans-116"/>
      <use x="352.539062" xlink:href="#DejaVuSans-117"/>
      <use x="415.917969" xlink:href="#DejaVuSans-100"/>
      <use x="479.394531" xlink:href="#DejaVuSans-101"/>
      <use x="540.917969" xlink:href="#DejaVuSans-32"/>
      <use x="572.705078" xlink:href="#DejaVuSans-91"/>
      <use x="611.71875" xlink:href="#DejaVuSans-93"/>
     </g>
    </g>
   </g>
   <g id="line2d_15">
    <path clip-path="url(#p7842626665)" d="M 383.63001 179.6113 
L 383.627369 179.739609 
L 383.624189 179.880418 
L 383.620358 180.034944 
L 383.615745 180.204519 
L 383.610189 180.390606 
L 383.603496 180.594808 
L 383.595437 180.818882 
L 383.58573 181.064753 
L 383.57404 181.334531 
L 383.559962 181.630525 
L 383.54301 181.955262 
L 383.522596 182.31151 
L 383.498016 182.702291 
L 383.468422 183.130908 
L 383.432794 183.600965 
L 383.389906 184.116389 
L 383.338285 184.681458 
L 383.276161 185.300814 
L 383.201412 185.979494 
L 383.111492 186.722943 
L 383.003348 187.537027 
L 382.873328 188.428047 
L 382.717066 189.402728 
L 382.52935 190.468211 
L 382.30397 191.632016 
L 382.033546 192.901981 
L 381.709326 194.286172 
L 381.320974 195.792746 
L 380.856322 197.429755 
L 380.301126 199.204887 
L 379.638801 201.125108 
L 378.850181 203.196206 
L 377.913315 205.422201 
L 376.803331 207.804616 
L 375.492435 210.341586 
L 373.950086 213.026822 
L 372.143448 215.848428 
L 370.038188 218.787638 
L 367.59973 221.817556 
L 364.795029 224.902046 
L 361.594905 227.994958 
L 357.976915 231.03996 
L 353.928602 233.971228 
L 349.450865 236.715259 
L 344.561015 239.193967 
L 339.294982 241.329039 
L 333.708122 243.047289 
L 327.874158 244.286473 
L 321.88204 245.000793 
L 315.830893 245.165249 
L 309.823585 244.778072 
L 303.959788 243.860817 
L 298.329502 242.456096 
L 293.007908 240.623374 
L 288.052117 238.433556 
L 283.499983 235.963226 
L 279.37079 233.289294 
L 275.667353 230.484607 
L 272.378999 227.614791 
L 269.484875 224.736362 
L 266.957172 221.89595 
L 264.763985 219.130398 
L 262.871654 216.46746 
L 261.246551 213.92685 
L 259.856361 211.521459 
L 258.670901 209.258579 
L 257.662598 207.141055 
L 256.806693 205.168311 
L 256.081258 203.337219 
L 255.467079 201.64283 
L 254.947472 200.07895 
L 254.508055 198.638606 
L 254.136495 197.314399 
L 253.822271 196.098766 
L 253.556439 194.984184 
L 253.331419 193.963303 
L 253.140804 193.029048 
L 252.979184 192.174679 
L 252.842002 191.39383 
L 252.725423 190.680529 
L 252.626219 190.029204 
L 252.541678 189.434675 
L 252.469519 188.892145 
L 252.407827 188.397187 
L 252.35499 187.945721 
L 252.309654 187.533992 
L 252.27068 187.158558 
L 252.237109 186.816259 
L 252.208133 186.504202 
L 252.183072 186.219737 
L 252.16135 185.960444 
L 252.142484 185.724109 
L 252.126062 185.50871 
L 252.111737 185.312399 
L 252.099215 185.133493 
L 252.088246 184.970452 
L 252.078616 184.821873 
L 252.070146 184.686477 
L 252.062681 184.563096 
" style="fill:none;stroke:#0000ff;stroke-linecap:square;stroke-width:2;"/>
   </g>
   <g id="patch_3">
    <path d="M 389.905 178.295 
C 389.905 160.185481 386.33782 142.252055 379.407607 125.521041 
C 372.477394 108.790028 362.318924 93.586803 349.513561 80.781439 
C 336.708197 67.976076 321.504972 57.817606 304.773959 50.887393 
C 288.042945 43.95718 270.109519 40.39 252 40.39 
C 233.890481 40.39 215.957055 43.95718 199.226041 50.887393 
C 182.495028 57.817606 167.291803 67.976076 154.486439 80.781439 
C 141.681076 93.586803 131.522606 108.790028 124.592393 125.521041 
C 117.66218 142.252055 114.095 160.185481 114.095 178.295 
C 114.095 196.404519 117.66218 214.337945 124.592393 231.068959 
C 131.522606 247.799972 141.681076 263.003197 154.486439 275.808561 
C 167.291803 288.613924 182.495028 298.772394 199.226041 305.702607 
C 215.957055 312.63282 233.890481 316.2 252 316.2 
C 270.109519 316.2 288.042945 312.63282 304.773959 305.702607 
C 321.504972 298.772394 336.708197 288.613924 349.513561 275.808561 
C 362.318924 263.003197 372.477394 247.799972 379.407607 231.068959 
C 386.33782 214.337945 389.905 196.404519 389.905 178.295 
" style="fill:none;stroke:#000000;stroke-linecap:square;stroke-linejoin:miter;stroke-width:0.8;"/>
   </g>
   <g id="text_17">
    <!-- Polar plot -->
    <defs>
     <path d="M 19.671875 64.796875 
L 19.671875 37.40625 
L 32.078125 37.40625 
Q 38.96875 37.40625 42.71875 40.96875 
Q 46.484375 44.53125 46.484375 51.125 
Q 46.484375 57.671875 42.71875 61.234375 
Q 38.96875 64.796875 32.078125 64.796875 
z
M 9.8125 72.90625 
L 32.078125 72.90625 
Q 44.34375 72.90625 50.609375 67.359375 
Q 56.890625 61.8125 56.890625 51.125 
Q 56.890625 40.328125 50.609375 34.8125 
Q 44.34375 29.296875 32.078125 29.296875 
L 19.671875 29.296875 
L 19.671875 0 
L 9.8125 0 
z
" id="DejaVuSans-80"/>
     <path d="M 30.609375 48.390625 
Q 23.390625 48.390625 19.1875 42.75 
Q 14.984375 37.109375 14.984375 27.296875 
Q 14.984375 17.484375 19.15625 11.84375 
Q 23.34375 6.203125 30.609375 6.203125 
Q 37.796875 6.203125 41.984375 11.859375 
Q 46.1875 17.53125 46.1875 27.296875 
Q 46.1875 37.015625 41.984375 42.703125 
Q 37.796875 48.390625 30.609375 48.390625 
z
M 30.609375 56 
Q 42.328125 56 49.015625 48.375 
Q 55.71875 40.765625 55.71875 27.296875 
Q 55.71875 13.875 49.015625 6.21875 
Q 42.328125 -1.421875 30.609375 -1.421875 
Q 18.84375 -1.421875 12.171875 6.21875 
Q 5.515625 13.875 5.515625 27.296875 
Q 5.515625 40.765625 12.171875 48.375 
Q 18.84375 56 30.609375 56 
z
" id="DejaVuSans-111"/>
     <path d="M 9.421875 75.984375 
L 18.40625 75.984375 
L 18.40625 0 
L 9.421875 0 
z
" id="DejaVuSans-108"/>
     <path d="M 18.109375 8.203125 
L 18.109375 -20.796875 
L 9.078125 -20.796875 
L 9.078125 54.6875 
L 18.109375 54.6875 
L 18.109375 46.390625 
Q 20.953125 51.265625 25.265625 53.625 
Q 29.59375 56 35.59375 56 
Q 45.5625 56 51.78125 48.09375 
Q 58.015625 40.1875 58.015625 27.296875 
Q 58.015625 14.40625 51.78125 6.484375 
Q 45.5625 -1.421875 35.59375 -1.421875 
Q 29.59375 -1.421875 25.265625 0.953125 
Q 20.953125 3.328125 18.109375 8.203125 
z
M 48.6875 27.296875 
Q 48.6875 37.203125 44.609375 42.84375 
Q 40.53125 48.484375 33.40625 48.484375 
Q 26.265625 48.484375 22.1875 42.84375 
Q 18.109375 37.203125 18.109375 27.296875 
Q 18.109375 17.390625 22.1875 11.75 
Q 26.265625 6.109375 33.40625 6.109375 
Q 40.53125 6.109375 44.609375 11.75 
Q 48.6875 17.390625 48.6875 27.296875 
z
" id="DejaVuSans-112"/>
    </defs>
    <g transform="translate(223.497187 20.5995)scale(0.12 -0.12)">
     <use xlink:href="#DejaVuSans-80"/>
     <use x="60.255859" xlink:href="#DejaVuSans-111"/>
     <use x="121.4375" xlink:href="#DejaVuSans-108"/>
     <use x="149.220703" xlink:href="#DejaVuSans-97"/>
     <use x="210.5" xlink:href="#DejaVuSans-114"/>
     <use x="251.613281" xlink:href="#DejaVuSans-32"/>
     <use x="283.400391" xlink:href="#DejaVuSans-112"/>
     <use x="346.876953" xlink:href="#DejaVuSans-108"/>
     <use x="374.660156" xlink:href="#DejaVuSans-111"/>
     <use x="435.841797" xlink:href="#DejaVuSans-116"/>
    </g>
   </g>
   <g id="legend_1">
    <g id="patch_4">
     <path d="M 344.994375 61.00375 
L 382.905 61.00375 
Q 384.905 61.00375 384.905 59.00375 
L 384.905 47.39 
Q 384.905 45.39 382.905 45.39 
L 344.994375 45.39 
Q 342.994375 45.39 342.994375 47.39 
L 342.994375 59.00375 
Q 342.994375 61.00375 344.994375 61.00375 
z
" style="fill:#ffffff;opacity:0.8;stroke:#cccccc;stroke-linejoin:miter;"/>
    </g>
    <g id="line2d_16">
     <path d="M 344.994375 53.008125 
L 354.994375 53.008125 
" style="fill:none;stroke:#0000ff;stroke-linecap:square;stroke-width:2;"/>
    </g>
    <g id="line2d_17"/>
    <g id="text_18">
     <!-- gain -->
     <g transform="translate(356.994375 56.508125)scale(0.12 -0.12)">
      <use xlink:href="#DejaVuSans-103"/>
      <use x="63.476562" xlink:href="#DejaVuSans-97"/>
      <use x="124.755859" xlink:href="#DejaVuSans-105"/>
      <use x="152.539062" xlink:href="#DejaVuSans-110"/>
     </g>
    </g>
   </g>
  </g>
 </g>
 <defs>
  <clipPath id="p7842626665">
   <path d="M 389.905 178.295 
C 389.905 160.185481 386.33782 142.252055 379.407607 125.521041 
C 372.477394 108.790028 362.318924 93.586803 349.513561 80.781439 
C 336.708197 67.976076 321.504972 57.817606 304.773959 50.887393 
C 288.042945 43.95718 270.109519 40.39 252 40.39 
C 233.890481 40.39 215.957055 43.95718 199.226041 50.887393 
C 182.495028 57.817606 167.291803 67.976076 154.486439 80.781439 
C 141.681076 93.586803 131.522606 108.790028 124.592393 125.521041 
C 117.66218 142.252055 114.095 160.185481 114.095 178.295 
C 114.095 196.404519 117.66218 214.337945 124.592393 231.068959 
C 131.522606 247.799972 141.681076 263.003197 154.486439 275.808561 
C 167.291803 288.613924 182.495028 298.772394 199.226041 305.702607 
C 215.957055 312.63282 233.890481 316.2 252 316.2 
C 270.109519 316.2 288.042945 312.63282 304.773959 305.702607 
C 321.504972 298.772394 336.708197 288.613924 349.513561 275.808561 
C 362.318924 263.003197 372.477394 247.799972 379.407607 231.068959 
C 386.33782 214.337945 389.905 196.404519 389.905 178.295 
M 252 178.295 
C 252 178.295 252 178.295 252 178.295 
C 252 178.295 252 178.295 252 178.295 
C 252 178.295 252 178.295 252 178.295 
C 252 178.295 252 178.295 252 178.295 
C 252 178.295 252 178.295 252 178.295 
C 252 178.295 252 178.295 252 178.295 
C 252 178.295 252 178.295 252 178.295 
C 252 178.295 252 178.295 252 178.295 
C 252 178.295 252 178.295 252 178.295 
C 252 178.295 252 178.295 252 178.295 
C 252 178.295 252 178.295 252 178.295 
C 252 178.295 252 178.295 252 178.295 
C 252 178.295 252 178.295 252 178.295 
C 252 178.295 252 178.295 252 178.295 
C 252 178.295 252 178.295 252 178.295 
C 252 178.295 252 178.295 252 178.295 
M 389.905 178.295 
z
"/>
  </clipPath>
 </defs>
</svg>
