<?xml version="1.0" encoding="utf-8" standalone="no"?>
<!DOCTYPE svg PUBLIC "-//W3C//DTD SVG 1.1//EN"
  "http://www.w3.org/Graphics/SVG/1.1/DTD/svg11.dtd">
<!-- Created with matplotlib (https://matplotlib.org/) -->
<svg height="360pt" version="1.1" viewBox="0 0 504 360" width="504pt" xmlns="http://www.w3.org/2000/svg" xmlns:xlink="http://www.w3.org/1999/xlink">
 <defs>
  <style type="text/css">
*{stroke-linecap:butt;stroke-linejoin:round;}
  </style>
 </defs>
 <g id="figure_1">
  <g id="patch_1">
   <path d="M 0 360 
L 504 360 
L 504 0 
L 0 0 
z
" style="fill:#ffffff;"/>
  </g>
  <g id="axes_1">
   <g id="patch_2">
    <path d="M 387.905 177.295 
C 387.905 159.448119 384.389554 141.774776 377.559848 125.286408 
C 370.730142 108.79804 360.718998 93.815304 348.099347 81.195653 
C 335.479696 68.576002 320.49696 58.564858 304.008592 51.735152 
C 287.520224 44.905446 269.846881 41.39 252 41.39 
C 234.153119 41.39 216.479776 44.905446 199.991408 51.735152 
C 183.50304 58.564858 168.520304 68.576002 155.900653 81.195653 
C 143.281002 93.815304 133.269858 108.79804 126.440152 125.286408 
C 119.610446 141.774776 116.095 159.448119 116.095 177.295 
C 116.095 195.141881 119.610446 212.815224 126.440152 229.303592 
C 133.269858 245.79196 143.281002 260.774696 155.900653 273.394347 
C 168.520304 286.013998 183.50304 296.025142 199.991408 302.854848 
C 216.479776 309.684554 234.153119 313.2 252 313.2 
C 269.846881 313.2 287.520224 309.684554 304.008592 302.854848 
C 320.49696 296.025142 335.479696 286.013998 348.099347 273.394347 
C 360.718998 260.774696 370.730142 245.79196 377.559848 229.303592 
C 384.389554 212.815224 387.905 195.141881 387.905 177.295 
M 252 177.295 
C 252 177.295 252 177.295 252 177.295 
C 252 177.295 252 177.295 252 177.295 
C 252 177.295 252 177.295 252 177.295 
C 252 177.295 252 177.295 252 177.295 
C 252 177.295 252 177.295 252 177.295 
C 252 177.295 252 177.295 252 177.295 
C 252 177.295 252 177.295 252 177.295 
C 252 177.295 252 177.295 252 177.295 
C 252 177.295 252 177.295 252 177.295 
C 252 177.295 252 177.295 252 177.295 
C 252 177.295 252 177.295 252 177.295 
C 252 177.295 252 177.295 252 177.295 
C 252 177.295 252 177.295 252 177.295 
C 252 177.295 252 177.295 252 177.295 
C 252 177.295 252 177.295 252 177.295 
C 252 177.295 252 177.295 252 177.295 
M 387.905 177.295 
z
" style="fill:#e5e5e5;"/>
   </g>
   <g id="matplotlib.axis_1">
    <g id="xtick_1">
     <g id="line2d_1">
      <path clip-path="url(#p94600bfdf7)" d="M 252 177.295 
L 387.905 177.295 
" style="fill:none;stroke:#808080;stroke-linecap:square;stroke-width:0.8;"/>
     </g>
     <g id="text_1">
      <!-- 0° -->
      <defs>
       <path d="M 31.78125 66.40625 
Q 24.171875 66.40625 20.328125 58.90625 
Q 16.5 51.421875 16.5 36.375 
Q 16.5 21.390625 20.328125 13.890625 
Q 24.171875 6.390625 31.78125 6.390625 
Q 39.453125 6.390625 43.28125 13.890625 
Q 47.125 21.390625 47.125 36.375 
Q 47.125 51.421875 43.28125 58.90625 
Q 39.453125 66.40625 31.78125 66.40625 
z
M 31.78125 74.21875 
Q 44.046875 74.21875 50.515625 64.515625 
Q 56.984375 54.828125 56.984375 36.375 
Q 56.984375 17.96875 50.515625 8.265625 
Q 44.046875 -1.421875 31.78125 -1.421875 
Q 19.53125 -1.421875 13.0625 8.265625 
Q 6.59375 17.96875 6.59375 36.375 
Q 6.59375 54.828125 13.0625 64.515625 
Q 19.53125 74.21875 31.78125 74.21875 
z
" id="DejaVuSans-48"/>
       <path d="M 25 67.921875 
Q 21.09375 67.921875 18.40625 65.203125 
Q 15.71875 62.5 15.71875 58.59375 
Q 15.71875 54.734375 18.40625 52.078125 
Q 21.09375 49.421875 25 49.421875 
Q 28.90625 49.421875 31.59375 52.078125 
Q 34.28125 54.734375 34.28125 58.59375 
Q 34.28125 62.453125 31.5625 65.1875 
Q 28.859375 67.921875 25 67.921875 
z
M 25 74.21875 
Q 28.125 74.21875 31 73.015625 
Q 33.890625 71.828125 35.984375 69.578125 
Q 38.234375 67.390625 39.359375 64.59375 
Q 40.484375 61.8125 40.484375 58.59375 
Q 40.484375 52.15625 35.96875 47.6875 
Q 31.453125 43.21875 24.90625 43.21875 
Q 18.3125 43.21875 13.90625 47.609375 
Q 9.515625 52 9.515625 58.59375 
Q 9.515625 65.140625 14 69.671875 
Q 18.5 74.21875 25 74.21875 
z
" id="DejaVuSans-176"/>
      </defs>
      <g style="fill:#555555;" transform="translate(395.0875 180.60625)scale(0.12 -0.12)">
       <use xlink:href="#DejaVuSans-48"/>
       <use x="63.623047" xlink:href="#DejaVuSans-176"/>
      </g>
     </g>
    </g>
    <g id="xtick_2">
     <g id="line2d_2">
      <path clip-path="url(#p94600bfdf7)" d="M 252 177.295 
L 348.099347 81.195653 
" style="fill:none;stroke:#808080;stroke-linecap:square;stroke-width:0.8;"/>
     </g>
     <g id="text_2">
      <!-- 45° -->
      <defs>
       <path d="M 37.796875 64.3125 
L 12.890625 25.390625 
L 37.796875 25.390625 
z
M 35.203125 72.90625 
L 47.609375 72.90625 
L 47.609375 25.390625 
L 58.015625 25.390625 
L 58.015625 17.1875 
L 47.609375 17.1875 
L 47.609375 0 
L 37.796875 0 
L 37.796875 17.1875 
L 4.890625 17.1875 
L 4.890625 26.703125 
z
" id="DejaVuSans-52"/>
       <path d="M 10.796875 72.90625 
L 49.515625 72.90625 
L 49.515625 64.59375 
L 19.828125 64.59375 
L 19.828125 46.734375 
Q 21.96875 47.46875 24.109375 47.828125 
Q 26.265625 48.1875 28.421875 48.1875 
Q 40.625 48.1875 47.75 41.5 
Q 54.890625 34.8125 54.890625 23.390625 
Q 54.890625 11.625 47.5625 5.09375 
Q 40.234375 -1.421875 26.90625 -1.421875 
Q 22.3125 -1.421875 17.546875 -0.640625 
Q 12.796875 0.140625 7.71875 1.703125 
L 7.71875 11.625 
Q 12.109375 9.234375 16.796875 8.0625 
Q 21.484375 6.890625 26.703125 6.890625 
Q 35.15625 6.890625 40.078125 11.328125 
Q 45.015625 15.765625 45.015625 23.390625 
Q 45.015625 31 40.078125 35.4375 
Q 35.15625 39.890625 26.703125 39.890625 
Q 22.75 39.890625 18.8125 39.015625 
Q 14.890625 38.140625 10.796875 36.28125 
z
" id="DejaVuSans-53"/>
      </defs>
      <g style="fill:#555555;" transform="translate(347.363842 74.607408)scale(0.12 -0.12)">
       <use xlink:href="#DejaVuSans-52"/>
       <use x="63.623047" xlink:href="#DejaVuSans-53"/>
       <use x="127.246094" xlink:href="#DejaVuSans-176"/>
      </g>
     </g>
    </g>
    <g id="xtick_3">
     <g id="line2d_3">
      <path clip-path="url(#p94600bfdf7)" d="M 252 177.295 
L 252 41.39 
" style="fill:none;stroke:#808080;stroke-linecap:square;stroke-width:0.8;"/>
     </g>
     <g id="text_3">
      <!-- 90° -->
      <defs>
       <path d="M 10.984375 1.515625 
L 10.984375 10.5 
Q 14.703125 8.734375 18.5 7.8125 
Q 22.3125 6.890625 25.984375 6.890625 
Q 35.75 6.890625 40.890625 13.453125 
Q 46.046875 20.015625 46.78125 33.40625 
Q 43.953125 29.203125 39.59375 26.953125 
Q 35.25 24.703125 29.984375 24.703125 
Q 19.046875 24.703125 12.671875 31.3125 
Q 6.296875 37.9375 6.296875 49.421875 
Q 6.296875 60.640625 12.9375 67.421875 
Q 19.578125 74.21875 30.609375 74.21875 
Q 43.265625 74.21875 49.921875 64.515625 
Q 56.59375 54.828125 56.59375 36.375 
Q 56.59375 19.140625 48.40625 8.859375 
Q 40.234375 -1.421875 26.421875 -1.421875 
Q 22.703125 -1.421875 18.890625 -0.6875 
Q 15.09375 0.046875 10.984375 1.515625 
z
M 30.609375 32.421875 
Q 37.25 32.421875 41.125 36.953125 
Q 45.015625 41.5 45.015625 49.421875 
Q 45.015625 57.28125 41.125 61.84375 
Q 37.25 66.40625 30.609375 66.40625 
Q 23.96875 66.40625 20.09375 61.84375 
Q 16.21875 57.28125 16.21875 49.421875 
Q 16.21875 41.5 20.09375 36.953125 
Q 23.96875 32.421875 30.609375 32.421875 
z
" id="DejaVuSans-57"/>
      </defs>
      <g style="fill:#555555;" transform="translate(241.365 30.70125)scale(0.12 -0.12)">
       <use xlink:href="#DejaVuSans-57"/>
       <use x="63.623047" xlink:href="#DejaVuSans-48"/>
       <use x="127.246094" xlink:href="#DejaVuSans-176"/>
      </g>
     </g>
    </g>
    <g id="xtick_4">
     <g id="line2d_4">
      <path clip-path="url(#p94600bfdf7)" d="M 252 177.295 
L 155.900653 81.195653 
" style="fill:none;stroke:#808080;stroke-linecap:square;stroke-width:0.8;"/>
     </g>
     <g id="text_4">
      <!-- 135° -->
      <defs>
       <path d="M 12.40625 8.296875 
L 28.515625 8.296875 
L 28.515625 63.921875 
L 10.984375 60.40625 
L 10.984375 69.390625 
L 28.421875 72.90625 
L 38.28125 72.90625 
L 38.28125 8.296875 
L 54.390625 8.296875 
L 54.390625 0 
L 12.40625 0 
z
" id="DejaVuSans-49"/>
       <path d="M 40.578125 39.3125 
Q 47.65625 37.796875 51.625 33 
Q 55.609375 28.21875 55.609375 21.1875 
Q 55.609375 10.40625 48.1875 4.484375 
Q 40.765625 -1.421875 27.09375 -1.421875 
Q 22.515625 -1.421875 17.65625 -0.515625 
Q 12.796875 0.390625 7.625 2.203125 
L 7.625 11.71875 
Q 11.71875 9.328125 16.59375 8.109375 
Q 21.484375 6.890625 26.8125 6.890625 
Q 36.078125 6.890625 40.9375 10.546875 
Q 45.796875 14.203125 45.796875 21.1875 
Q 45.796875 27.640625 41.28125 31.265625 
Q 36.765625 34.90625 28.71875 34.90625 
L 20.21875 34.90625 
L 20.21875 43.015625 
L 29.109375 43.015625 
Q 36.375 43.015625 40.234375 45.921875 
Q 44.09375 48.828125 44.09375 54.296875 
Q 44.09375 59.90625 40.109375 62.90625 
Q 36.140625 65.921875 28.71875 65.921875 
Q 24.65625 65.921875 20.015625 65.03125 
Q 15.375 64.15625 9.8125 62.3125 
L 9.8125 71.09375 
Q 15.4375 72.65625 20.34375 73.4375 
Q 25.25 74.21875 29.59375 74.21875 
Q 40.828125 74.21875 47.359375 69.109375 
Q 53.90625 64.015625 53.90625 55.328125 
Q 53.90625 49.265625 50.4375 45.09375 
Q 46.96875 40.921875 40.578125 39.3125 
z
" id="DejaVuSans-51"/>
      </defs>
      <g style="fill:#555555;" transform="translate(131.548658 74.607408)scale(0.12 -0.12)">
       <use xlink:href="#DejaVuSans-49"/>
       <use x="63.623047" xlink:href="#DejaVuSans-51"/>
       <use x="127.246094" xlink:href="#DejaVuSans-53"/>
       <use x="190.869141" xlink:href="#DejaVuSans-176"/>
      </g>
     </g>
    </g>
    <g id="xtick_5">
     <g id="line2d_5">
      <path clip-path="url(#p94600bfdf7)" d="M 252 177.295 
L 116.095 177.295 
" style="fill:none;stroke:#808080;stroke-linecap:square;stroke-width:0.8;"/>
     </g>
     <g id="text_5">
      <!-- 180° -->
      <defs>
       <path d="M 31.78125 34.625 
Q 24.75 34.625 20.71875 30.859375 
Q 16.703125 27.09375 16.703125 20.515625 
Q 16.703125 13.921875 20.71875 10.15625 
Q 24.75 6.390625 31.78125 6.390625 
Q 38.8125 6.390625 42.859375 10.171875 
Q 46.921875 13.96875 46.921875 20.515625 
Q 46.921875 27.09375 42.890625 30.859375 
Q 38.875 34.625 31.78125 34.625 
z
M 21.921875 38.8125 
Q 15.578125 40.375 12.03125 44.71875 
Q 8.5 49.078125 8.5 55.328125 
Q 8.5 64.0625 14.71875 69.140625 
Q 20.953125 74.21875 31.78125 74.21875 
Q 42.671875 74.21875 48.875 69.140625 
Q 55.078125 64.0625 55.078125 55.328125 
Q 55.078125 49.078125 51.53125 44.71875 
Q 48 40.375 41.703125 38.8125 
Q 48.828125 37.15625 52.796875 32.3125 
Q 56.78125 27.484375 56.78125 20.515625 
Q 56.78125 9.90625 50.3125 4.234375 
Q 43.84375 -1.421875 31.78125 -1.421875 
Q 19.734375 -1.421875 13.25 4.234375 
Q 6.78125 9.90625 6.78125 20.515625 
Q 6.78125 27.484375 10.78125 32.3125 
Q 14.796875 37.15625 21.921875 38.8125 
z
M 18.3125 54.390625 
Q 18.3125 48.734375 21.84375 45.5625 
Q 25.390625 42.390625 31.78125 42.390625 
Q 38.140625 42.390625 41.71875 45.5625 
Q 45.3125 48.734375 45.3125 54.390625 
Q 45.3125 60.0625 41.71875 63.234375 
Q 38.140625 66.40625 31.78125 66.40625 
Q 25.390625 66.40625 21.84375 63.234375 
Q 18.3125 60.0625 18.3125 54.390625 
z
" id="DejaVuSans-56"/>
      </defs>
      <g style="fill:#555555;" transform="translate(87.6425 180.60625)scale(0.12 -0.12)">
       <use xlink:href="#DejaVuSans-49"/>
       <use x="63.623047" xlink:href="#DejaVuSans-56"/>
       <use x="127.246094" xlink:href="#DejaVuSans-48"/>
       <use x="190.869141" xlink:href="#DejaVuSans-176"/>
      </g>
     </g>
    </g>
    <g id="xtick_6">
     <g id="line2d_6">
      <path clip-path="url(#p94600bfdf7)" d="M 252 177.295 
L 155.900653 273.394347 
" style="fill:none;stroke:#808080;stroke-linecap:square;stroke-width:0.8;"/>
     </g>
     <g id="text_6">
      <!-- 225° -->
      <defs>
       <path d="M 19.1875 8.296875 
L 53.609375 8.296875 
L 53.609375 0 
L 7.328125 0 
L 7.328125 8.296875 
Q 12.9375 14.109375 22.625 23.890625 
Q 32.328125 33.6875 34.8125 36.53125 
Q 39.546875 41.84375 41.421875 45.53125 
Q 43.3125 49.21875 43.3125 52.78125 
Q 43.3125 58.59375 39.234375 62.25 
Q 35.15625 65.921875 28.609375 65.921875 
Q 23.96875 65.921875 18.8125 64.3125 
Q 13.671875 62.703125 7.8125 59.421875 
L 7.8125 69.390625 
Q 13.765625 71.78125 18.9375 73 
Q 24.125 74.21875 28.421875 74.21875 
Q 39.75 74.21875 46.484375 68.546875 
Q 53.21875 62.890625 53.21875 53.421875 
Q 53.21875 48.921875 51.53125 44.890625 
Q 49.859375 40.875 45.40625 35.40625 
Q 44.1875 33.984375 37.640625 27.21875 
Q 31.109375 20.453125 19.1875 8.296875 
z
" id="DejaVuSans-50"/>
      </defs>
      <g style="fill:#555555;" transform="translate(131.548658 286.605092)scale(0.12 -0.12)">
       <use xlink:href="#DejaVuSans-50"/>
       <use x="63.623047" xlink:href="#DejaVuSans-50"/>
       <use x="127.246094" xlink:href="#DejaVuSans-53"/>
       <use x="190.869141" xlink:href="#DejaVuSans-176"/>
      </g>
     </g>
    </g>
    <g id="xtick_7">
     <g id="line2d_7">
      <path clip-path="url(#p94600bfdf7)" d="M 252 177.295 
L 252 313.2 
" style="fill:none;stroke:#808080;stroke-linecap:square;stroke-width:0.8;"/>
     </g>
     <g id="text_7">
      <!-- 270° -->
      <defs>
       <path d="M 8.203125 72.90625 
L 55.078125 72.90625 
L 55.078125 68.703125 
L 28.609375 0 
L 18.3125 0 
L 43.21875 64.59375 
L 8.203125 64.59375 
z
" id="DejaVuSans-55"/>
      </defs>
      <g style="fill:#555555;" transform="translate(237.5475 330.51125)scale(0.12 -0.12)">
       <use xlink:href="#DejaVuSans-50"/>
       <use x="63.623047" xlink:href="#DejaVuSans-55"/>
       <use x="127.246094" xlink:href="#DejaVuSans-48"/>
       <use x="190.869141" xlink:href="#DejaVuSans-176"/>
      </g>
     </g>
    </g>
    <g id="xtick_8">
     <g id="line2d_8">
      <path clip-path="url(#p94600bfdf7)" d="M 252 177.295 
L 348.099347 273.394347 
" style="fill:none;stroke:#808080;stroke-linecap:square;stroke-width:0.8;"/>
     </g>
     <g id="text_8">
      <!-- 315° -->
      <g style="fill:#555555;" transform="translate(343.546342 286.605092)scale(0.12 -0.12)">
       <use xlink:href="#DejaVuSans-51"/>
       <use x="63.623047" xlink:href="#DejaVuSans-49"/>
       <use x="127.246094" xlink:href="#DejaVuSans-53"/>
       <use x="190.869141" xlink:href="#DejaVuSans-176"/>
      </g>
     </g>
    </g>
    <g id="text_9">
     <!-- frequency [Hz] -->
     <defs>
      <path d="M 37.109375 75.984375 
L 37.109375 68.5 
L 28.515625 68.5 
Q 23.6875 68.5 21.796875 66.546875 
Q 19.921875 64.59375 19.921875 59.515625 
L 19.921875 54.6875 
L 34.71875 54.6875 
L 34.71875 47.703125 
L 19.921875 47.703125 
L 19.921875 0 
L 10.890625 0 
L 10.890625 47.703125 
L 2.296875 47.703125 
L 2.296875 54.6875 
L 10.890625 54.6875 
L 10.890625 58.5 
Q 10.890625 67.625 15.140625 71.796875 
Q 19.390625 75.984375 28.609375 75.984375 
z
" id="DejaVuSans-102"/>
      <path d="M 41.109375 46.296875 
Q 39.59375 47.171875 37.8125 47.578125 
Q 36.03125 48 33.890625 48 
Q 26.265625 48 22.1875 43.046875 
Q 18.109375 38.09375 18.109375 28.8125 
L 18.109375 0 
L 9.078125 0 
L 9.078125 54.6875 
L 18.109375 54.6875 
L 18.109375 46.1875 
Q 20.953125 51.171875 25.484375 53.578125 
Q 30.03125 56 36.53125 56 
Q 37.453125 56 38.578125 55.875 
Q 39.703125 55.765625 41.0625 55.515625 
z
" id="DejaVuSans-114"/>
      <path d="M 56.203125 29.59375 
L 56.203125 25.203125 
L 14.890625 25.203125 
Q 15.484375 15.921875 20.484375 11.0625 
Q 25.484375 6.203125 34.421875 6.203125 
Q 39.59375 6.203125 44.453125 7.46875 
Q 49.3125 8.734375 54.109375 11.28125 
L 54.109375 2.78125 
Q 49.265625 0.734375 44.1875 -0.34375 
Q 39.109375 -1.421875 33.890625 -1.421875 
Q 20.796875 -1.421875 13.15625 6.1875 
Q 5.515625 13.8125 5.515625 26.8125 
Q 5.515625 40.234375 12.765625 48.109375 
Q 20.015625 56 32.328125 56 
Q 43.359375 56 49.78125 48.890625 
Q 56.203125 41.796875 56.203125 29.59375 
z
M 47.21875 32.234375 
Q 47.125 39.59375 43.09375 43.984375 
Q 39.0625 48.390625 32.421875 48.390625 
Q 24.90625 48.390625 20.390625 44.140625 
Q 15.875 39.890625 15.1875 32.171875 
z
" id="DejaVuSans-101"/>
      <path d="M 14.796875 27.296875 
Q 14.796875 17.390625 18.875 11.75 
Q 22.953125 6.109375 30.078125 6.109375 
Q 37.203125 6.109375 41.296875 11.75 
Q 45.40625 17.390625 45.40625 27.296875 
Q 45.40625 37.203125 41.296875 42.84375 
Q 37.203125 48.484375 30.078125 48.484375 
Q 22.953125 48.484375 18.875 42.84375 
Q 14.796875 37.203125 14.796875 27.296875 
z
M 45.40625 8.203125 
Q 42.578125 3.328125 38.25 0.953125 
Q 33.9375 -1.421875 27.875 -1.421875 
Q 17.96875 -1.421875 11.734375 6.484375 
Q 5.515625 14.40625 5.515625 27.296875 
Q 5.515625 40.1875 11.734375 48.09375 
Q 17.96875 56 27.875 56 
Q 33.9375 56 38.25 53.625 
Q 42.578125 51.265625 45.40625 46.390625 
L 45.40625 54.6875 
L 54.390625 54.6875 
L 54.390625 -20.796875 
L 45.40625 -20.796875 
z
" id="DejaVuSans-113"/>
      <path d="M 8.5 21.578125 
L 8.5 54.6875 
L 17.484375 54.6875 
L 17.484375 21.921875 
Q 17.484375 14.15625 20.5 10.265625 
Q 23.53125 6.390625 29.59375 6.390625 
Q 36.859375 6.390625 41.078125 11.03125 
Q 45.3125 15.671875 45.3125 23.6875 
L 45.3125 54.6875 
L 54.296875 54.6875 
L 54.296875 0 
L 45.3125 0 
L 45.3125 8.40625 
Q 42.046875 3.421875 37.71875 1 
Q 33.40625 -1.421875 27.6875 -1.421875 
Q 18.265625 -1.421875 13.375 4.4375 
Q 8.5 10.296875 8.5 21.578125 
z
M 31.109375 56 
z
" id="DejaVuSans-117"/>
      <path d="M 54.890625 33.015625 
L 54.890625 0 
L 45.90625 0 
L 45.90625 32.71875 
Q 45.90625 40.484375 42.875 44.328125 
Q 39.84375 48.1875 33.796875 48.1875 
Q 26.515625 48.1875 22.3125 43.546875 
Q 18.109375 38.921875 18.109375 30.90625 
L 18.109375 0 
L 9.078125 0 
L 9.078125 54.6875 
L 18.109375 54.6875 
L 18.109375 46.1875 
Q 21.34375 51.125 25.703125 53.5625 
Q 30.078125 56 35.796875 56 
Q 45.21875 56 50.046875 50.171875 
Q 54.890625 44.34375 54.890625 33.015625 
z
" id="DejaVuSans-110"/>
      <path d="M 48.78125 52.59375 
L 48.78125 44.1875 
Q 44.96875 46.296875 41.140625 47.34375 
Q 37.3125 48.390625 33.40625 48.390625 
Q 24.65625 48.390625 19.8125 42.84375 
Q 14.984375 37.3125 14.984375 27.296875 
Q 14.984375 17.28125 19.8125 11.734375 
Q 24.65625 6.203125 33.40625 6.203125 
Q 37.3125 6.203125 41.140625 7.25 
Q 44.96875 8.296875 48.78125 10.40625 
L 48.78125 2.09375 
Q 45.015625 0.34375 40.984375 -0.53125 
Q 36.96875 -1.421875 32.421875 -1.421875 
Q 20.0625 -1.421875 12.78125 6.34375 
Q 5.515625 14.109375 5.515625 27.296875 
Q 5.515625 40.671875 12.859375 48.328125 
Q 20.21875 56 33.015625 56 
Q 37.15625 56 41.109375 55.140625 
Q 45.0625 54.296875 48.78125 52.59375 
z
" id="DejaVuSans-99"/>
      <path d="M 32.171875 -5.078125 
Q 28.375 -14.84375 24.75 -17.8125 
Q 21.140625 -20.796875 15.09375 -20.796875 
L 7.90625 -20.796875 
L 7.90625 -13.28125 
L 13.1875 -13.28125 
Q 16.890625 -13.28125 18.9375 -11.515625 
Q 21 -9.765625 23.484375 -3.21875 
L 25.09375 0.875 
L 2.984375 54.6875 
L 12.5 54.6875 
L 29.59375 11.921875 
L 46.6875 54.6875 
L 56.203125 54.6875 
z
" id="DejaVuSans-121"/>
      <path id="DejaVuSans-32"/>
      <path d="M 8.59375 75.984375 
L 29.296875 75.984375 
L 29.296875 69 
L 17.578125 69 
L 17.578125 -6.203125 
L 29.296875 -6.203125 
L 29.296875 -13.1875 
L 8.59375 -13.1875 
z
" id="DejaVuSans-91"/>
      <path d="M 9.8125 72.90625 
L 19.671875 72.90625 
L 19.671875 43.015625 
L 55.515625 43.015625 
L 55.515625 72.90625 
L 65.375 72.90625 
L 65.375 0 
L 55.515625 0 
L 55.515625 34.71875 
L 19.671875 34.71875 
L 19.671875 0 
L 9.8125 0 
z
" id="DejaVuSans-72"/>
      <path d="M 5.515625 54.6875 
L 48.1875 54.6875 
L 48.1875 46.484375 
L 14.40625 7.171875 
L 48.1875 7.171875 
L 48.1875 0 
L 4.296875 0 
L 4.296875 8.203125 
L 38.09375 47.515625 
L 5.515625 47.515625 
z
" id="DejaVuSans-122"/>
      <path d="M 30.421875 75.984375 
L 30.421875 -13.1875 
L 9.71875 -13.1875 
L 9.71875 -6.203125 
L 21.390625 -6.203125 
L 21.390625 69 
L 9.71875 69 
L 9.71875 75.984375 
z
" id="DejaVuSans-93"/>
     </defs>
     <g style="fill:#555555;" transform="translate(207.525 346.125)scale(0.12 -0.12)">
      <use xlink:href="#DejaVuSans-102"/>
      <use x="35.205078" xlink:href="#DejaVuSans-114"/>
      <use x="76.287109" xlink:href="#DejaVuSans-101"/>
      <use x="137.810547" xlink:href="#DejaVuSans-113"/>
      <use x="201.287109" xlink:href="#DejaVuSans-117"/>
      <use x="264.666016" xlink:href="#DejaVuSans-101"/>
      <use x="326.189453" xlink:href="#DejaVuSans-110"/>
      <use x="389.568359" xlink:href="#DejaVuSans-99"/>
      <use x="444.548828" xlink:href="#DejaVuSans-121"/>
      <use x="503.728516" xlink:href="#DejaVuSans-32"/>
      <use x="535.515625" xlink:href="#DejaVuSans-91"/>
      <use x="574.529297" xlink:href="#DejaVuSans-72"/>
      <use x="649.724609" xlink:href="#DejaVuSans-122"/>
      <use x="702.214844" xlink:href="#DejaVuSans-93"/>
     </g>
    </g>
   </g>
   <g id="matplotlib.axis_2">
    <g id="ytick_1">
     <g id="line2d_9">
      <path clip-path="url(#p94600bfdf7)" d="M 256.92952 177.295 
L 256.821798 176.270095 
L 256.503341 175.289984 
L 255.988066 174.397501 
L 255.298493 173.631653 
L 254.46476 173.02591 
L 253.523306 172.606748 
L 252.515275 172.392484 
L 251.484725 172.392484 
L 250.476694 172.606748 
L 249.53524 173.02591 
L 248.701507 173.631653 
L 248.011934 174.397501 
L 247.496659 175.289984 
L 247.178202 176.270095 
L 247.07048 177.295 
L 247.178202 178.319905 
L 247.496659 179.300016 
L 248.011934 180.192499 
L 248.701507 180.958347 
L 249.53524 181.56409 
L 250.476694 181.983252 
L 251.484725 182.197516 
L 252.515275 182.197516 
L 253.523306 181.983252 
L 254.46476 181.56409 
L 255.298493 180.958347 
L 255.988066 180.192499 
L 256.503341 179.300016 
L 256.821798 178.319905 
L 256.92952 177.295 
L 256.92952 177.295 
" style="fill:none;stroke:#808080;stroke-linecap:square;stroke-width:0.8;"/>
     </g>
     <g id="text_10">
      <!-- 0.0 -->
      <defs>
       <path d="M 10.6875 12.40625 
L 21 12.40625 
L 21 0 
L 10.6875 0 
z
" id="DejaVuSans-46"/>
      </defs>
      <g style="fill:#555555;" transform="translate(256.554283 172.912929)scale(0.12 -0.12)">
       <use xlink:href="#DejaVuSans-48"/>
       <use x="63.623047" xlink:href="#DejaVuSans-46"/>
       <use x="95.410156" xlink:href="#DejaVuSans-48"/>
      </g>
     </g>
    </g>
    <g id="ytick_2">
     <g id="line2d_10">
      <path clip-path="url(#p94600bfdf7)" d="M 281.890364 177.295 
L 281.726622 174.170606 
L 281.237188 171.080444 
L 280.427426 168.05837 
L 279.306206 165.137494 
L 277.885815 162.349818 
L 276.181813 159.725885 
L 274.212869 157.294443 
L 272.000557 155.082131 
L 269.569115 153.113187 
L 266.945182 151.409185 
L 264.157506 149.988794 
L 261.23663 148.867574 
L 258.214556 148.057812 
L 255.124394 147.568378 
L 252 147.404636 
L 248.875606 147.568378 
L 245.785444 148.057812 
L 242.76337 148.867574 
L 239.842494 149.988794 
L 237.054818 151.409185 
L 234.430885 153.113187 
L 231.999443 155.082131 
L 229.787131 157.294443 
L 227.818187 159.725885 
L 226.114185 162.349818 
L 224.693794 165.137494 
L 223.572574 168.05837 
L 222.762812 171.080444 
L 222.273378 174.170606 
L 222.109636 177.295 
L 222.273378 180.419394 
L 222.762812 183.509556 
L 223.572574 186.53163 
L 224.693794 189.452506 
L 226.114185 192.240182 
L 227.818187 194.864115 
L 229.787131 197.295557 
L 231.999443 199.507869 
L 234.430885 201.476813 
L 237.054818 203.180815 
L 239.842494 204.601206 
L 242.76337 205.722426 
L 245.785444 206.532188 
L 248.875606 207.021622 
L 252 207.185364 
L 255.124394 207.021622 
L 258.214556 206.532188 
L 261.23663 205.722426 
L 264.157506 204.601206 
L 266.945182 203.180815 
L 269.569115 201.476813 
L 272.000557 199.507869 
L 274.212869 197.295557 
L 276.181813 194.864115 
L 277.885815 192.240182 
L 279.306206 189.452506 
L 280.427426 186.53163 
L 281.237188 183.509556 
L 281.726622 180.419394 
L 281.890364 177.295 
L 281.890364 177.295 
" style="fill:none;stroke:#808080;stroke-linecap:square;stroke-width:0.8;"/>
     </g>
     <g id="text_11">
      <!-- 0.2 -->
      <g style="fill:#555555;" transform="translate(279.615096 163.360828)scale(0.12 -0.12)">
       <use xlink:href="#DejaVuSans-48"/>
       <use x="63.623047" xlink:href="#DejaVuSans-46"/>
       <use x="95.410156" xlink:href="#DejaVuSans-50"/>
      </g>
     </g>
    </g>
    <g id="ytick_3">
     <g id="line2d_11">
      <path clip-path="url(#p94600bfdf7)" d="M 306.851208 177.295 
L 306.717593 173.468773 
L 306.3174 169.661187 
L 305.652578 165.890793 
L 304.726365 162.175958 
L 303.543275 158.534782 
L 302.109072 154.985004 
L 300.430742 151.543918 
L 298.516463 148.228288 
L 296.375559 145.054269 
L 294.018463 142.037323 
L 291.456657 139.192149 
L 288.702622 136.532609 
L 285.769776 134.071658 
L 282.672406 131.821288 
L 279.425604 129.79246 
L 276.045187 127.995061 
L 272.547624 126.437846 
L 268.949955 125.128401 
L 265.269708 124.073107 
L 261.524812 123.277105 
L 257.733512 122.744273 
L 253.91428 122.477206 
L 250.08572 122.477206 
L 246.266488 122.744273 
L 242.475188 123.277105 
L 238.730292 124.073107 
L 235.050045 125.128401 
L 231.452376 126.437846 
L 227.954813 127.995061 
L 224.574396 129.79246 
L 221.327594 131.821288 
L 218.230224 134.071658 
L 215.297378 136.532609 
L 212.543343 139.192149 
L 209.981537 142.037323 
L 207.624441 145.054269 
L 205.483537 148.228288 
L 203.569258 151.543918 
L 201.890928 154.985004 
L 200.456725 158.534782 
L 199.273635 162.175958 
L 198.347422 165.890793 
L 197.6826 169.661187 
L 197.282407 173.468773 
L 197.148792 177.295 
L 197.282407 181.121227 
L 197.6826 184.928813 
L 198.347422 188.699207 
L 199.273635 192.414042 
L 200.456725 196.055218 
L 201.890928 199.604996 
L 203.569258 203.046082 
L 205.483537 206.361712 
L 207.624441 209.535731 
L 209.981537 212.552677 
L 212.543343 215.397851 
L 215.297378 218.057391 
L 218.230224 220.518342 
L 221.327594 222.768712 
L 224.574396 224.79754 
L 227.954813 226.594939 
L 231.452376 228.152154 
L 235.050045 229.461599 
L 238.730292 230.516893 
L 242.475188 231.312895 
L 246.266488 231.845727 
L 250.08572 232.112794 
L 253.91428 232.112794 
L 257.733512 231.845727 
L 261.524812 231.312895 
L 265.269708 230.516893 
L 268.949955 229.461599 
L 272.547624 228.152154 
L 276.045187 226.594939 
L 279.425604 224.79754 
L 282.672406 222.768712 
L 285.769776 220.518342 
L 288.702622 218.057391 
L 291.456657 215.397851 
L 294.018463 212.552677 
L 296.375559 209.535731 
L 298.516463 206.361712 
L 300.430742 203.046082 
L 302.109072 199.604996 
L 303.543275 196.055218 
L 304.726365 192.414042 
L 305.652578 188.699207 
L 306.3174 184.928813 
L 306.717593 181.121227 
L 306.851208 177.295 
L 306.851208 177.295 
" style="fill:none;stroke:#808080;stroke-linecap:square;stroke-width:0.8;"/>
     </g>
     <g id="text_12">
      <!-- 0.4 -->
      <g style="fill:#555555;" transform="translate(302.675908 153.808726)scale(0.12 -0.12)">
       <use xlink:href="#DejaVuSans-48"/>
       <use x="63.623047" xlink:href="#DejaVuSans-46"/>
       <use x="95.410156" xlink:href="#DejaVuSans-52"/>
      </g>
     </g>
    </g>
    <g id="ytick_4">
     <g id="line2d_12">
      <path clip-path="url(#p94600bfdf7)" d="M 331.812052 177.295 
L 331.617634 171.727593 
L 331.035327 166.187309 
L 330.067967 160.701141 
L 328.720268 155.295817 
L 326.998796 149.997671 
L 324.911938 144.832514 
L 322.469859 139.825511 
L 319.684459 135.001056 
L 316.569306 130.382653 
L 313.139579 125.992802 
L 309.411985 121.85289 
L 305.404687 117.983087 
L 301.137206 114.402245 
L 296.630333 111.12781 
L 291.906026 108.175736 
L 286.987301 105.560403 
L 281.898121 103.294554 
L 276.66328 101.389228 
L 271.308283 99.853707 
L 265.859217 98.695472 
L 260.342631 97.920167 
L 254.7854 97.531567 
L 249.2146 97.531567 
L 243.657369 97.920167 
L 238.140783 98.695472 
L 232.691717 99.853707 
L 227.33672 101.389228 
L 222.101879 103.294554 
L 217.012699 105.560403 
L 212.093974 108.175736 
L 207.369667 111.12781 
L 202.862794 114.402245 
L 198.595313 117.983087 
L 194.588015 121.85289 
L 190.860421 125.992802 
L 187.430694 130.382653 
L 184.315541 135.001056 
L 181.530141 139.825511 
L 179.088062 144.832514 
L 177.001204 149.997671 
L 175.279732 155.295817 
L 173.932033 160.701141 
L 172.964673 166.187309 
L 172.382366 171.727593 
L 172.187948 177.295 
L 172.382366 182.862407 
L 172.964673 188.402691 
L 173.932033 193.888859 
L 175.279732 199.294183 
L 177.001204 204.592329 
L 179.088062 209.757486 
L 181.530141 214.764489 
L 184.315541 219.588944 
L 187.430694 224.207347 
L 190.860421 228.597198 
L 194.588015 232.73711 
L 198.595313 236.606913 
L 202.862794 240.187755 
L 207.369667 243.46219 
L 212.093974 246.414264 
L 217.012699 249.029597 
L 222.101879 251.295446 
L 227.33672 253.200772 
L 232.691717 254.736293 
L 238.140783 255.894528 
L 243.657369 256.669833 
L 249.2146 257.058433 
L 254.7854 257.058433 
L 260.342631 256.669833 
L 265.859217 255.894528 
L 271.308283 254.736293 
L 276.66328 253.200772 
L 281.898121 251.295446 
L 286.987301 249.029597 
L 291.906026 246.414264 
L 296.630333 243.46219 
L 301.137206 240.187755 
L 305.404687 236.606913 
L 309.411985 232.73711 
L 313.139579 228.597198 
L 316.569306 224.207347 
L 319.684459 219.588944 
L 322.469859 214.764489 
L 324.911938 209.757486 
L 326.998796 204.592329 
L 328.720268 199.294183 
L 330.067967 193.888859 
L 331.035327 188.402691 
L 331.617634 182.862407 
L 331.812052 177.295 
L 331.812052 177.295 
" style="fill:none;stroke:#808080;stroke-linecap:square;stroke-width:0.8;"/>
     </g>
     <g id="text_13">
      <!-- 0.6 -->
      <defs>
       <path d="M 33.015625 40.375 
Q 26.375 40.375 22.484375 35.828125 
Q 18.609375 31.296875 18.609375 23.390625 
Q 18.609375 15.53125 22.484375 10.953125 
Q 26.375 6.390625 33.015625 6.390625 
Q 39.65625 6.390625 43.53125 10.953125 
Q 47.40625 15.53125 47.40625 23.390625 
Q 47.40625 31.296875 43.53125 35.828125 
Q 39.65625 40.375 33.015625 40.375 
z
M 52.59375 71.296875 
L 52.59375 62.3125 
Q 48.875 64.0625 45.09375 64.984375 
Q 41.3125 65.921875 37.59375 65.921875 
Q 27.828125 65.921875 22.671875 59.328125 
Q 17.53125 52.734375 16.796875 39.40625 
Q 19.671875 43.65625 24.015625 45.921875 
Q 28.375 48.1875 33.59375 48.1875 
Q 44.578125 48.1875 50.953125 41.515625 
Q 57.328125 34.859375 57.328125 23.390625 
Q 57.328125 12.15625 50.6875 5.359375 
Q 44.046875 -1.421875 33.015625 -1.421875 
Q 20.359375 -1.421875 13.671875 8.265625 
Q 6.984375 17.96875 6.984375 36.375 
Q 6.984375 53.65625 15.1875 63.9375 
Q 23.390625 74.21875 37.203125 74.21875 
Q 40.921875 74.21875 44.703125 73.484375 
Q 48.484375 72.75 52.59375 71.296875 
z
" id="DejaVuSans-54"/>
      </defs>
      <g style="fill:#555555;" transform="translate(325.736721 144.256625)scale(0.12 -0.12)">
       <use xlink:href="#DejaVuSans-48"/>
       <use x="63.623047" xlink:href="#DejaVuSans-46"/>
       <use x="95.410156" xlink:href="#DejaVuSans-54"/>
      </g>
     </g>
    </g>
    <g id="ytick_5">
     <g id="line2d_13">
      <path clip-path="url(#p94600bfdf7)" d="M 356.772896 177.295 
L 356.709071 173.638479 
L 356.517674 169.986412 
L 356.198939 166.34325 
L 355.753253 162.713431 
L 355.18116 159.101378 
L 354.483357 155.51149 
L 353.660693 151.948142 
L 352.714172 148.415676 
L 351.644945 144.918395 
L 350.454317 141.460559 
L 349.143737 138.046382 
L 347.714803 134.680024 
L 346.169255 131.365586 
L 344.508976 128.107105 
L 342.735989 124.908552 
L 340.852455 121.773824 
L 338.860667 118.70674 
L 336.763053 115.711037 
L 334.562169 112.790364 
L 332.260695 109.948281 
L 329.861435 107.188249 
L 327.367314 104.513631 
L 324.781369 101.927686 
L 322.106751 99.433565 
L 319.346719 97.034305 
L 316.504636 94.732831 
L 313.583963 92.531947 
L 310.58826 90.434333 
L 307.521176 88.442545 
L 304.386448 86.559011 
L 301.187895 84.786024 
L 297.929414 83.125745 
L 294.614976 81.580197 
L 291.248618 80.151263 
L 287.834441 78.840683 
L 284.376605 77.650055 
L 280.879324 76.580828 
L 277.346858 75.634307 
L 273.78351 74.811643 
L 270.193622 74.11384 
L 266.581569 73.541747 
L 262.95175 73.096061 
L 259.308588 72.777326 
L 255.656521 72.585929 
L 252 72.522104 
L 248.343479 72.585929 
L 244.691412 72.777326 
L 241.04825 73.096061 
L 237.418431 73.541747 
L 233.806378 74.11384 
L 230.21649 74.811643 
L 226.653142 75.634307 
L 223.120676 76.580828 
L 219.623395 77.650055 
L 216.165559 78.840683 
L 212.751382 80.151263 
L 209.385024 81.580197 
L 206.070586 83.125745 
L 202.812105 84.786024 
L 199.613552 86.559011 
L 196.478824 88.442545 
L 193.41174 90.434333 
L 190.416037 92.531947 
L 187.495364 94.732831 
L 184.653281 97.034305 
L 181.893249 99.433565 
L 179.218631 101.927686 
L 176.632686 104.513631 
L 174.138565 107.188249 
L 171.739305 109.948281 
L 169.437831 112.790364 
L 167.236947 115.711037 
L 165.139333 118.70674 
L 163.147545 121.773824 
L 161.264011 124.908552 
L 159.491024 128.107105 
L 157.830745 131.365586 
L 156.285197 134.680024 
L 154.856263 138.046382 
L 153.545683 141.460559 
L 152.355055 144.918395 
L 151.285828 148.415676 
L 150.339307 151.948142 
L 149.516643 155.51149 
L 148.81884 159.101378 
L 148.246747 162.713431 
L 147.801061 166.34325 
L 147.482326 169.986412 
L 147.290929 173.638479 
L 147.227104 177.295 
L 147.290929 180.951521 
L 147.482326 184.603588 
L 147.801061 188.24675 
L 148.246747 191.876569 
L 148.81884 195.488622 
L 149.516643 199.07851 
L 150.339307 202.641858 
L 151.285828 206.174324 
L 152.355055 209.671605 
L 153.545683 213.129441 
L 154.856263 216.543618 
L 156.285197 219.909976 
L 157.830745 223.224414 
L 159.491024 226.482895 
L 161.264011 229.681448 
L 163.147545 232.816176 
L 165.139333 235.88326 
L 167.236947 238.878963 
L 169.437831 241.799636 
L 171.739305 244.641719 
L 174.138565 247.401751 
L 176.632686 250.076369 
L 179.218631 252.662314 
L 181.893249 255.156435 
L 184.653281 257.555695 
L 187.495364 259.857169 
L 190.416037 262.058053 
L 193.41174 264.155667 
L 196.478824 266.147455 
L 199.613552 268.030989 
L 202.812105 269.803976 
L 206.070586 271.464255 
L 209.385024 273.009803 
L 212.751382 274.438737 
L 216.165559 275.749317 
L 219.623395 276.939945 
L 223.120676 278.009172 
L 226.653142 278.955693 
L 230.21649 279.778357 
L 233.806378 280.47616 
L 237.418431 281.048253 
L 241.04825 281.493939 
L 244.691412 281.812674 
L 248.343479 282.004071 
L 252 282.067896 
L 255.656521 282.004071 
L 259.308588 281.812674 
L 262.95175 281.493939 
L 266.581569 281.048253 
L 270.193622 280.47616 
L 273.78351 279.778357 
L 277.346858 278.955693 
L 280.879324 278.009172 
L 284.376605 276.939945 
L 287.834441 275.749317 
L 291.248618 274.438737 
L 294.614976 273.009803 
L 297.929414 271.464255 
L 301.187895 269.803976 
L 304.386448 268.030989 
L 307.521176 266.147455 
L 310.58826 264.155667 
L 313.583963 262.058053 
L 316.504636 259.857169 
L 319.346719 257.555695 
L 322.106751 255.156435 
L 324.781369 252.662314 
L 327.367314 250.076369 
L 329.861435 247.401751 
L 332.260695 244.641719 
L 334.562169 241.799636 
L 336.763053 238.878963 
L 338.860667 235.88326 
L 340.852455 232.816176 
L 342.735989 229.681448 
L 344.508976 226.482895 
L 346.169255 223.224414 
L 347.714803 219.909976 
L 349.143737 216.543618 
L 350.454317 213.129441 
L 351.644945 209.671605 
L 352.714172 206.174324 
L 353.660693 202.641858 
L 354.483357 199.07851 
L 355.18116 195.488622 
L 355.753253 191.876569 
L 356.198939 188.24675 
L 356.517674 184.603588 
L 356.709071 180.951521 
L 356.772896 177.295 
L 356.772896 177.295 
" style="fill:none;stroke:#808080;stroke-linecap:square;stroke-width:0.8;"/>
     </g>
     <g id="text_14">
      <!-- 0.8 -->
      <g style="fill:#555555;" transform="translate(348.797534 134.704524)scale(0.12 -0.12)">
       <use xlink:href="#DejaVuSans-48"/>
       <use x="63.623047" xlink:href="#DejaVuSans-46"/>
       <use x="95.410156" xlink:href="#DejaVuSans-56"/>
      </g>
     </g>
    </g>
    <g id="ytick_6">
     <g id="line2d_14">
      <path clip-path="url(#p94600bfdf7)" d="M 381.73374 177.295 
L 381.654709 172.767358 
L 381.417715 168.245232 
L 381.023045 163.734132 
L 380.47118 159.239553 
L 379.762793 154.766973 
L 378.898746 150.321839 
L 377.880093 145.909568 
L 376.708075 141.535535 
L 375.384119 137.20507 
L 373.909838 132.923448 
L 372.287029 128.695886 
L 370.517669 124.527534 
L 368.603913 120.423472 
L 366.548093 116.388698 
L 364.352714 112.42813 
L 362.020451 108.546592 
L 359.554145 104.748813 
L 356.9568 101.039421 
L 354.231582 97.422934 
L 351.38181 93.90376 
L 348.410957 90.486184 
L 345.322642 87.174372 
L 342.120628 83.972358 
L 338.808816 80.884043 
L 335.39124 77.91319 
L 331.872066 75.063418 
L 328.255579 72.3382 
L 324.546187 69.740855 
L 320.748408 67.274549 
L 316.86687 64.942286 
L 312.906302 62.746907 
L 308.871528 60.691087 
L 304.767466 58.777331 
L 300.599114 57.007971 
L 296.371552 55.385162 
L 292.08993 53.910881 
L 287.759465 52.586925 
L 283.385432 51.414907 
L 278.973161 50.396254 
L 274.528027 49.532207 
L 270.055447 48.82382 
L 265.560868 48.271955 
L 261.049768 47.877285 
L 256.527642 47.640291 
L 252 47.56126 
L 247.472358 47.640291 
L 242.950232 47.877285 
L 238.439132 48.271955 
L 233.944553 48.82382 
L 229.471973 49.532207 
L 225.026839 50.396254 
L 220.614568 51.414907 
L 216.240535 52.586925 
L 211.91007 53.910881 
L 207.628448 55.385162 
L 203.400886 57.007971 
L 199.232534 58.777331 
L 195.128472 60.691087 
L 191.093698 62.746907 
L 187.13313 64.942286 
L 183.251592 67.274549 
L 179.453813 69.740855 
L 175.744421 72.3382 
L 172.127934 75.063418 
L 168.60876 77.91319 
L 165.191184 80.884043 
L 161.879372 83.972358 
L 158.677358 87.174372 
L 155.589043 90.486184 
L 152.61819 93.90376 
L 149.768418 97.422934 
L 147.0432 101.039421 
L 144.445855 104.748813 
L 141.979549 108.546592 
L 139.647286 112.42813 
L 137.451907 116.388698 
L 135.396087 120.423472 
L 133.482331 124.527534 
L 131.712971 128.695886 
L 130.090162 132.923448 
L 128.615881 137.20507 
L 127.291925 141.535535 
L 126.119907 145.909568 
L 125.101254 150.321839 
L 124.237207 154.766973 
L 123.52882 159.239553 
L 122.976955 163.734132 
L 122.582285 168.245232 
L 122.345291 172.767358 
L 122.26626 177.295 
L 122.345291 181.822642 
L 122.582285 186.344768 
L 122.976955 190.855868 
L 123.52882 195.350447 
L 124.237207 199.823027 
L 125.101254 204.268161 
L 126.119907 208.680432 
L 127.291925 213.054465 
L 128.615881 217.38493 
L 130.090162 221.666552 
L 131.712971 225.894114 
L 133.482331 230.062466 
L 135.396087 234.166528 
L 137.451907 238.201302 
L 139.647286 242.16187 
L 141.979549 246.043408 
L 144.445855 249.841187 
L 147.0432 253.550579 
L 149.768418 257.167066 
L 152.61819 260.68624 
L 155.589043 264.103816 
L 158.677358 267.415628 
L 161.879372 270.617642 
L 165.191184 273.705957 
L 168.60876 276.67681 
L 172.127934 279.526582 
L 175.744421 282.2518 
L 179.453813 284.849145 
L 183.251592 287.315451 
L 187.13313 289.647714 
L 191.093698 291.843093 
L 195.128472 293.898913 
L 199.232534 295.812669 
L 203.400886 297.582029 
L 207.628448 299.204838 
L 211.91007 300.679119 
L 216.240535 302.003075 
L 220.614568 303.175093 
L 225.026839 304.193746 
L 229.471973 305.057793 
L 233.944553 305.76618 
L 238.439132 306.318045 
L 242.950232 306.712715 
L 247.472358 306.949709 
L 252 307.02874 
L 256.527642 306.949709 
L 261.049768 306.712715 
L 265.560868 306.318045 
L 270.055447 305.76618 
L 274.528027 305.057793 
L 278.973161 304.193746 
L 283.385432 303.175093 
L 287.759465 302.003075 
L 292.08993 300.679119 
L 296.371552 299.204838 
L 300.599114 297.582029 
L 304.767466 295.812669 
L 308.871528 293.898913 
L 312.906302 291.843093 
L 316.86687 289.647714 
L 320.748408 287.315451 
L 324.546187 284.849145 
L 328.255579 282.2518 
L 331.872066 279.526582 
L 335.39124 276.67681 
L 338.808816 273.705957 
L 342.120628 270.617642 
L 345.322642 267.415628 
L 348.410957 264.103816 
L 351.38181 260.68624 
L 354.231582 257.167066 
L 356.9568 253.550579 
L 359.554145 249.841187 
L 362.020451 246.043408 
L 364.352714 242.16187 
L 366.548093 238.201302 
L 368.603913 234.166528 
L 370.517669 230.062466 
L 372.287029 225.894114 
L 373.909838 221.666552 
L 375.384119 217.38493 
L 376.708075 213.054465 
L 377.880093 208.680432 
L 378.898746 204.268161 
L 379.762793 199.823027 
L 380.47118 195.350447 
L 381.023045 190.855868 
L 381.417715 186.344768 
L 381.654709 181.822642 
L 381.73374 177.295 
L 381.73374 177.295 
" style="fill:none;stroke:#808080;stroke-linecap:square;stroke-width:0.8;"/>
     </g>
     <g id="text_15">
      <!-- 1.0 -->
      <g style="fill:#555555;" transform="translate(371.858347 125.152422)scale(0.12 -0.12)">
       <use xlink:href="#DejaVuSans-49"/>
       <use x="63.623047" xlink:href="#DejaVuSans-46"/>
       <use x="95.410156" xlink:href="#DejaVuSans-48"/>
      </g>
     </g>
    </g>
    <g id="text_16">
     <!-- magnitude [] -->
     <defs>
      <path d="M 52 44.1875 
Q 55.375 50.25 60.0625 53.125 
Q 64.75 56 71.09375 56 
Q 79.640625 56 84.28125 50.015625 
Q 88.921875 44.046875 88.921875 33.015625 
L 88.921875 0 
L 79.890625 0 
L 79.890625 32.71875 
Q 79.890625 40.578125 77.09375 44.375 
Q 74.3125 48.1875 68.609375 48.1875 
Q 61.625 48.1875 57.5625 43.546875 
Q 53.515625 38.921875 53.515625 30.90625 
L 53.515625 0 
L 44.484375 0 
L 44.484375 32.71875 
Q 44.484375 40.625 41.703125 44.40625 
Q 38.921875 48.1875 33.109375 48.1875 
Q 26.21875 48.1875 22.15625 43.53125 
Q 18.109375 38.875 18.109375 30.90625 
L 18.109375 0 
L 9.078125 0 
L 9.078125 54.6875 
L 18.109375 54.6875 
L 18.109375 46.1875 
Q 21.1875 51.21875 25.484375 53.609375 
Q 29.78125 56 35.6875 56 
Q 41.65625 56 45.828125 52.96875 
Q 50 49.953125 52 44.1875 
z
" id="DejaVuSans-109"/>
      <path d="M 34.28125 27.484375 
Q 23.390625 27.484375 19.1875 25 
Q 14.984375 22.515625 14.984375 16.5 
Q 14.984375 11.71875 18.140625 8.90625 
Q 21.296875 6.109375 26.703125 6.109375 
Q 34.1875 6.109375 38.703125 11.40625 
Q 43.21875 16.703125 43.21875 25.484375 
L 43.21875 27.484375 
z
M 52.203125 31.203125 
L 52.203125 0 
L 43.21875 0 
L 43.21875 8.296875 
Q 40.140625 3.328125 35.546875 0.953125 
Q 30.953125 -1.421875 24.3125 -1.421875 
Q 15.921875 -1.421875 10.953125 3.296875 
Q 6 8.015625 6 15.921875 
Q 6 25.140625 12.171875 29.828125 
Q 18.359375 34.515625 30.609375 34.515625 
L 43.21875 34.515625 
L 43.21875 35.40625 
Q 43.21875 41.609375 39.140625 45 
Q 35.0625 48.390625 27.6875 48.390625 
Q 23 48.390625 18.546875 47.265625 
Q 14.109375 46.140625 10.015625 43.890625 
L 10.015625 52.203125 
Q 14.9375 54.109375 19.578125 55.046875 
Q 24.21875 56 28.609375 56 
Q 40.484375 56 46.34375 49.84375 
Q 52.203125 43.703125 52.203125 31.203125 
z
" id="DejaVuSans-97"/>
      <path d="M 45.40625 27.984375 
Q 45.40625 37.75 41.375 43.109375 
Q 37.359375 48.484375 30.078125 48.484375 
Q 22.859375 48.484375 18.828125 43.109375 
Q 14.796875 37.75 14.796875 27.984375 
Q 14.796875 18.265625 18.828125 12.890625 
Q 22.859375 7.515625 30.078125 7.515625 
Q 37.359375 7.515625 41.375 12.890625 
Q 45.40625 18.265625 45.40625 27.984375 
z
M 54.390625 6.78125 
Q 54.390625 -7.171875 48.1875 -13.984375 
Q 42 -20.796875 29.203125 -20.796875 
Q 24.46875 -20.796875 20.265625 -20.09375 
Q 16.0625 -19.390625 12.109375 -17.921875 
L 12.109375 -9.1875 
Q 16.0625 -11.328125 19.921875 -12.34375 
Q 23.78125 -13.375 27.78125 -13.375 
Q 36.625 -13.375 41.015625 -8.765625 
Q 45.40625 -4.15625 45.40625 5.171875 
L 45.40625 9.625 
Q 42.625 4.78125 38.28125 2.390625 
Q 33.9375 0 27.875 0 
Q 17.828125 0 11.671875 7.65625 
Q 5.515625 15.328125 5.515625 27.984375 
Q 5.515625 40.671875 11.671875 48.328125 
Q 17.828125 56 27.875 56 
Q 33.9375 56 38.28125 53.609375 
Q 42.625 51.21875 45.40625 46.390625 
L 45.40625 54.6875 
L 54.390625 54.6875 
z
" id="DejaVuSans-103"/>
      <path d="M 9.421875 54.6875 
L 18.40625 54.6875 
L 18.40625 0 
L 9.421875 0 
z
M 9.421875 75.984375 
L 18.40625 75.984375 
L 18.40625 64.59375 
L 9.421875 64.59375 
z
" id="DejaVuSans-105"/>
      <path d="M 18.3125 70.21875 
L 18.3125 54.6875 
L 36.8125 54.6875 
L 36.8125 47.703125 
L 18.3125 47.703125 
L 18.3125 18.015625 
Q 18.3125 11.328125 20.140625 9.421875 
Q 21.96875 7.515625 27.59375 7.515625 
L 36.8125 7.515625 
L 36.8125 0 
L 27.59375 0 
Q 17.1875 0 13.234375 3.875 
Q 9.28125 7.765625 9.28125 18.015625 
L 9.28125 47.703125 
L 2.6875 47.703125 
L 2.6875 54.6875 
L 9.28125 54.6875 
L 9.28125 70.21875 
z
" id="DejaVuSans-116"/>
      <path d="M 45.40625 46.390625 
L 45.40625 75.984375 
L 54.390625 75.984375 
L 54.390625 0 
L 45.40625 0 
L 45.40625 8.203125 
Q 42.578125 3.328125 38.25 0.953125 
Q 33.9375 -1.421875 27.875 -1.421875 
Q 17.96875 -1.421875 11.734375 6.484375 
Q 5.515625 14.40625 5.515625 27.296875 
Q 5.515625 40.1875 11.734375 48.09375 
Q 17.96875 56 27.875 56 
Q 33.9375 56 38.25 53.625 
Q 42.578125 51.265625 45.40625 46.390625 
z
M 14.796875 27.296875 
Q 14.796875 17.390625 18.875 11.75 
Q 22.953125 6.109375 30.078125 6.109375 
Q 37.203125 6.109375 41.296875 11.75 
Q 45.40625 17.390625 45.40625 27.296875 
Q 45.40625 37.203125 41.296875 42.84375 
Q 37.203125 48.484375 30.078125 48.484375 
Q 22.953125 48.484375 18.875 42.84375 
Q 14.796875 37.203125 14.796875 27.296875 
z
" id="DejaVuSans-100"/>
     </defs>
     <g style="fill:#555555;" transform="translate(109.599375 216.339063)rotate(-90)scale(0.12 -0.12)">
      <use xlink:href="#DejaVuSans-109"/>
      <use x="97.412109" xlink:href="#DejaVuSans-97"/>
      <use x="158.691406" xlink:href="#DejaVuSans-103"/>
      <use x="222.167969" xlink:href="#DejaVuSans-110"/>
      <use x="285.546875" xlink:href="#DejaVuSans-105"/>
      <use x="313.330078" xlink:href="#DejaVuSans-116"/>
      <use x="352.539062" xlink:href="#DejaVuSans-117"/>
      <use x="415.917969" xlink:href="#DejaVuSans-100"/>
      <use x="479.394531" xlink:href="#DejaVuSans-101"/>
      <use x="540.917969" xlink:href="#DejaVuSans-32"/>
      <use x="572.705078" xlink:href="#DejaVuSans-91"/>
      <use x="611.71875" xlink:href="#DejaVuSans-93"/>
     </g>
    </g>
   </g>
   <g id="line2d_15">
    <path clip-path="url(#p94600bfdf7)" d="M 381.721014 178.59221 
L 381.718412 178.718658 
L 381.715278 178.857425 
L 381.711503 179.00971 
L 381.706956 179.176826 
L 381.701481 179.360214 
L 381.694885 179.561455 
L 381.686943 179.782279 
L 381.677377 180.024584 
L 381.665856 180.290449 
L 381.651983 180.58215 
L 381.635276 180.902179 
L 381.615158 181.25326 
L 381.590935 181.638373 
L 381.56177 182.060774 
L 381.526659 182.524014 
L 381.484393 183.031963 
L 381.43352 183.588836 
L 381.372298 184.19921 
L 381.298633 184.868048 
L 381.210016 185.600714 
L 381.103441 186.402993 
L 380.975307 187.28109 
L 380.821311 188.241635 
L 380.636317 189.291666 
L 380.414206 190.438592 
L 380.147703 191.690139 
L 379.828186 193.054256 
L 379.445465 194.53898 
L 378.987553 196.152249 
L 378.440409 197.901636 
L 377.787689 199.794009 
L 377.010507 201.835071 
L 376.087227 204.028783 
L 374.993342 206.376645 
L 373.701457 208.876823 
L 372.181476 211.523116 
L 370.401039 214.3038 
L 368.326311 217.200384 
L 365.923217 220.18636 
L 363.159192 223.226116 
L 360.005479 226.274173 
L 356.439959 229.275014 
L 352.450358 232.16377 
L 348.037561 234.868005 
L 343.218627 237.310766 
L 338.028966 239.414873 
L 332.523131 241.108204 
L 326.773775 242.329416 
L 320.868559 243.033377 
L 314.905171 243.195448 
L 308.984985 242.813885 
L 303.206229 241.909933 
L 297.657598 240.525585 
L 292.413181 238.719442 
L 287.529263 236.561382 
L 283.043147 234.126878 
L 278.973838 231.491726 
L 275.324112 228.727715 
L 272.083448 225.899519 
L 269.231296 223.062835 
L 266.740252 220.263617 
L 264.578872 217.538173 
L 262.713985 214.913855 
L 261.112451 212.410091 
L 259.742422 210.039584 
L 258.574154 207.809522 
L 257.580475 205.722708 
L 256.736983 203.778574 
L 256.022068 201.974039 
L 255.416796 200.304222 
L 254.904726 198.763023 
L 254.471681 197.343568 
L 254.10551 196.038565 
L 253.795843 194.840563 
L 253.533866 193.742145 
L 253.31211 192.73607 
L 253.124259 191.815364 
L 252.964983 190.973385 
L 252.829791 190.203861 
L 252.714902 189.500905 
L 252.617137 188.859026 
L 252.533822 188.273119 
L 252.46271 187.738458 
L 252.401912 187.250678 
L 252.349842 186.805759 
L 252.305163 186.400002 
L 252.266755 186.030013 
L 252.23367 185.692678 
L 252.205115 185.385146 
L 252.180417 185.104807 
L 252.15901 184.849274 
L 252.140417 184.616367 
L 252.124233 184.404091 
L 252.110116 184.210628 
L 252.097776 184.034316 
L 252.086966 183.87364 
L 252.077476 183.727216 
L 252.069129 183.593783 
L 252.061772 183.472191 
" style="fill:none;stroke:#0000ff;stroke-linecap:square;stroke-width:2;"/>
   </g>
   <g id="patch_3">
    <path d="M 387.905 177.295 
C 387.905 159.448119 384.389554 141.774776 377.559848 125.286408 
C 370.730142 108.79804 360.718998 93.815304 348.099347 81.195653 
C 335.479696 68.576002 320.49696 58.564858 304.008592 51.735152 
C 287.520224 44.905446 269.846881 41.39 252 41.39 
C 234.153119 41.39 216.479776 44.905446 199.991408 51.735152 
C 183.50304 58.564858 168.520304 68.576002 155.900653 81.195653 
C 143.281002 93.815304 133.269858 108.79804 126.440152 125.286408 
C 119.610446 141.774776 116.095 159.448119 116.095 177.295 
C 116.095 195.141881 119.610446 212.815224 126.440152 229.303592 
C 133.269858 245.79196 143.281002 260.774696 155.900653 273.394347 
C 168.520304 286.013998 183.50304 296.025142 199.991408 302.854848 
C 216.479776 309.684554 234.153119 313.2 252 313.2 
C 269.846881 313.2 287.520224 309.684554 304.008592 302.854848 
C 320.49696 296.025142 335.479696 286.013998 348.099347 273.394347 
C 360.718998 260.774696 370.730142 245.79196 377.559848 229.303592 
C 384.389554 212.815224 387.905 195.141881 387.905 177.295 
" style="fill:none;stroke:#ffffff;stroke-linecap:square;stroke-linejoin:miter;"/>
   </g>
   <g id="text_17">
    <!-- Polar plot -->
    <defs>
     <path d="M 19.671875 64.796875 
L 19.671875 37.40625 
L 32.078125 37.40625 
Q 38.96875 37.40625 42.71875 40.96875 
Q 46.484375 44.53125 46.484375 51.125 
Q 46.484375 57.671875 42.71875 61.234375 
Q 38.96875 64.796875 32.078125 64.796875 
z
M 9.8125 72.90625 
L 32.078125 72.90625 
Q 44.34375 72.90625 50.609375 67.359375 
Q 56.890625 61.8125 56.890625 51.125 
Q 56.890625 40.328125 50.609375 34.8125 
Q 44.34375 29.296875 32.078125 29.296875 
L 19.671875 29.296875 
L 19.671875 0 
L 9.8125 0 
z
" id="DejaVuSans-80"/>
     <path d="M 30.609375 48.390625 
Q 23.390625 48.390625 19.1875 42.75 
Q 14.984375 37.109375 14.984375 27.296875 
Q 14.984375 17.484375 19.15625 11.84375 
Q 23.34375 6.203125 30.609375 6.203125 
Q 37.796875 6.203125 41.984375 11.859375 
Q 46.1875 17.53125 46.1875 27.296875 
Q 46.1875 37.015625 41.984375 42.703125 
Q 37.796875 48.390625 30.609375 48.390625 
z
M 30.609375 56 
Q 42.328125 56 49.015625 48.375 
Q 55.71875 40.765625 55.71875 27.296875 
Q 55.71875 13.875 49.015625 6.21875 
Q 42.328125 -1.421875 30.609375 -1.421875 
Q 18.84375 -1.421875 12.171875 6.21875 
Q 5.515625 13.875 5.515625 27.296875 
Q 5.515625 40.765625 12.171875 48.375 
Q 18.84375 56 30.609375 56 
z
" id="DejaVuSans-111"/>
     <path d="M 9.421875 75.984375 
L 18.40625 75.984375 
L 18.40625 0 
L 9.421875 0 
z
" id="DejaVuSans-108"/>
     <path d="M 18.109375 8.203125 
L 18.109375 -20.796875 
L 9.078125 -20.796875 
L 9.078125 54.6875 
L 18.109375 54.6875 
L 18.109375 46.390625 
Q 20.953125 51.265625 25.265625 53.625 
Q 29.59375 56 35.59375 56 
Q 45.5625 56 51.78125 48.09375 
Q 58.015625 40.1875 58.015625 27.296875 
Q 58.015625 14.40625 51.78125 6.484375 
Q 45.5625 -1.421875 35.59375 -1.421875 
Q 29.59375 -1.421875 25.265625 0.953125 
Q 20.953125 3.328125 18.109375 8.203125 
z
M 48.6875 27.296875 
Q 48.6875 37.203125 44.609375 42.84375 
Q 40.53125 48.484375 33.40625 48.484375 
Q 26.265625 48.484375 22.1875 42.84375 
Q 18.109375 37.203125 18.109375 27.296875 
Q 18.109375 17.390625 22.1875 11.75 
Q 26.265625 6.109375 33.40625 6.109375 
Q 40.53125 6.109375 44.609375 11.75 
Q 48.6875 17.390625 48.6875 27.296875 
z
" id="DejaVuSans-112"/>
    </defs>
    <g transform="translate(223.497187 21.7995)scale(0.12 -0.12)">
     <use xlink:href="#DejaVuSans-80"/>
     <use x="60.255859" xlink:href="#DejaVuSans-111"/>
     <use x="121.4375" xlink:href="#DejaVuSans-108"/>
     <use x="149.220703" xlink:href="#DejaVuSans-97"/>
     <use x="210.5" xlink:href="#DejaVuSans-114"/>
     <use x="251.613281" xlink:href="#DejaVuSans-32"/>
     <use x="283.400391" xlink:href="#DejaVuSans-112"/>
     <use x="346.876953" xlink:href="#DejaVuSans-108"/>
     <use x="374.660156" xlink:href="#DejaVuSans-111"/>
     <use x="435.841797" xlink:href="#DejaVuSans-116"/>
    </g>
   </g>
   <g id="legend_1">
    <g id="patch_4">
     <path d="M 342.994375 62.00375 
L 380.905 62.00375 
Q 382.905 62.00375 382.905 60.00375 
L 382.905 48.39 
Q 382.905 46.39 380.905 46.39 
L 342.994375 46.39 
Q 340.994375 46.39 340.994375 48.39 
L 340.994375 60.00375 
Q 340.994375 62.00375 342.994375 62.00375 
z
" style="fill:#e5e5e5;opacity:0.8;stroke:#cccccc;stroke-linejoin:miter;stroke-width:0.5;"/>
    </g>
    <g id="line2d_16">
     <path d="M 342.994375 54.008125 
L 352.994375 54.008125 
" style="fill:none;stroke:#0000ff;stroke-linecap:square;stroke-width:2;"/>
    </g>
    <g id="line2d_17"/>
    <g id="text_18">
     <!-- gain -->
     <g transform="translate(354.994375 57.508125)scale(0.12 -0.12)">
      <use xlink:href="#DejaVuSans-103"/>
      <use x="63.476562" xlink:href="#DejaVuSans-97"/>
      <use x="124.755859" xlink:href="#DejaVuSans-105"/>
      <use x="152.539062" xlink:href="#DejaVuSans-110"/>
     </g>
    </g>
   </g>
  </g>
 </g>
 <defs>
  <clipPath id="p94600bfdf7">
   <path d="M 387.905 177.295 
C 387.905 159.448119 384.389554 141.774776 377.559848 125.286408 
C 370.730142 108.79804 360.718998 93.815304 348.099347 81.195653 
C 335.479696 68.576002 320.49696 58.564858 304.008592 51.735152 
C 287.520224 44.905446 269.846881 41.39 252 41.39 
C 234.153119 41.39 216.479776 44.905446 199.991408 51.735152 
C 183.50304 58.564858 168.520304 68.576002 155.900653 81.195653 
C 143.281002 93.815304 133.269858 108.79804 126.440152 125.286408 
C 119.610446 141.774776 116.095 159.448119 116.095 177.295 
C 116.095 195.141881 119.610446 212.815224 126.440152 229.303592 
C 133.269858 245.79196 143.281002 260.774696 155.900653 273.394347 
C 168.520304 286.013998 183.50304 296.025142 199.991408 302.854848 
C 216.479776 309.684554 234.153119 313.2 252 313.2 
C 269.846881 313.2 287.520224 309.684554 304.008592 302.854848 
C 320.49696 296.025142 335.479696 286.013998 348.099347 273.394347 
C 360.718998 260.774696 370.730142 245.79196 377.559848 229.303592 
C 384.389554 212.815224 387.905 195.141881 387.905 177.295 
M 252 177.295 
C 252 177.295 252 177.295 252 177.295 
C 252 177.295 252 177.295 252 177.295 
C 252 177.295 252 177.295 252 177.295 
C 252 177.295 252 177.295 252 177.295 
C 252 177.295 252 177.295 252 177.295 
C 252 177.295 252 177.295 252 177.295 
C 252 177.295 252 177.295 252 177.295 
C 252 177.295 252 177.295 252 177.295 
C 252 177.295 252 177.295 252 177.295 
C 252 177.295 252 177.295 252 177.295 
C 252 177.295 252 177.295 252 177.295 
C 252 177.295 252 177.295 252 177.295 
C 252 177.295 252 177.295 252 177.295 
C 252 177.295 252 177.295 252 177.295 
C 252 177.295 252 177.295 252 177.295 
C 252 177.295 252 177.295 252 177.295 
M 387.905 177.295 
z
"/>
  </clipPath>
 </defs>
</svg>
