<?xml version="1.0" encoding="utf-8" standalone="no"?>
<!DOCTYPE svg PUBLIC "-//W3C//DTD SVG 1.1//EN"
  "http://www.w3.org/Graphics/SVG/1.1/DTD/svg11.dtd">
<!-- Created with matplotlib (https://matplotlib.org/) -->
<svg height="360pt" version="1.1" viewBox="0 0 504 360" width="504pt" xmlns="http://www.w3.org/2000/svg" xmlns:xlink="http://www.w3.org/1999/xlink">
 <defs>
  <style type="text/css">
*{stroke-linecap:butt;stroke-linejoin:round;}
  </style>
 </defs>
 <g id="figure_1">
  <g id="patch_1">
   <path d="M 0 360 
L 504 360 
L 504 0 
L 0 0 
z
" style="fill:#ffffff;"/>
  </g>
  <g id="axes_1">
   <g id="patch_2">
    <path d="M 389.905 178.295 
C 389.905 160.185481 386.33782 142.252055 379.407607 125.521041 
C 372.477394 108.790028 362.318924 93.586803 349.513561 80.781439 
C 336.708197 67.976076 321.504972 57.817606 304.773959 50.887393 
C 288.042945 43.95718 270.109519 40.39 252 40.39 
C 233.890481 40.39 215.957055 43.95718 199.226041 50.887393 
C 182.495028 57.817606 167.291803 67.976076 154.486439 80.781439 
C 141.681076 93.586803 131.522606 108.790028 124.592393 125.521041 
C 117.66218 142.252055 114.095 160.185481 114.095 178.295 
C 114.095 196.404519 117.66218 214.337945 124.592393 231.068959 
C 131.522606 247.799972 141.681076 263.003197 154.486439 275.808561 
C 167.291803 288.613924 182.495028 298.772394 199.226041 305.702607 
C 215.957055 312.63282 233.890481 316.2 252 316.2 
C 270.109519 316.2 288.042945 312.63282 304.773959 305.702607 
C 321.504972 298.772394 336.708197 288.613924 349.513561 275.808561 
C 362.318924 263.003197 372.477394 247.799972 379.407607 231.068959 
C 386.33782 214.337945 389.905 196.404519 389.905 178.295 
M 252 178.295 
C 252 178.295 252 178.295 252 178.295 
C 252 178.295 252 178.295 252 178.295 
C 252 178.295 252 178.295 252 178.295 
C 252 178.295 252 178.295 252 178.295 
C 252 178.295 252 178.295 252 178.295 
C 252 178.295 252 178.295 252 178.295 
C 252 178.295 252 178.295 252 178.295 
C 252 178.295 252 178.295 252 178.295 
C 252 178.295 252 178.295 252 178.295 
C 252 178.295 252 178.295 252 178.295 
C 252 178.295 252 178.295 252 178.295 
C 252 178.295 252 178.295 252 178.295 
C 252 178.295 252 178.295 252 178.295 
C 252 178.295 252 178.295 252 178.295 
C 252 178.295 252 178.295 252 178.295 
C 252 178.295 252 178.295 252 178.295 
M 389.905 178.295 
z
" style="fill:#ffffff;"/>
   </g>
   <g id="matplotlib.axis_1">
    <g id="xtick_1">
     <g id="line2d_1">
      <path clip-path="url(#p89a1f94ecf)" d="M 252 178.295 
L 389.905 178.295 
" style="fill:none;stroke:#808080;stroke-linecap:square;stroke-width:0.8;"/>
     </g>
     <g id="text_1">
      <!-- 0° -->
      <defs>
       <path d="M 31.78125 66.40625 
Q 24.171875 66.40625 20.328125 58.90625 
Q 16.5 51.421875 16.5 36.375 
Q 16.5 21.390625 20.328125 13.890625 
Q 24.171875 6.390625 31.78125 6.390625 
Q 39.453125 6.390625 43.28125 13.890625 
Q 47.125 21.390625 47.125 36.375 
Q 47.125 51.421875 43.28125 58.90625 
Q 39.453125 66.40625 31.78125 66.40625 
z
M 31.78125 74.21875 
Q 44.046875 74.21875 50.515625 64.515625 
Q 56.984375 54.828125 56.984375 36.375 
Q 56.984375 17.96875 50.515625 8.265625 
Q 44.046875 -1.421875 31.78125 -1.421875 
Q 19.53125 -1.421875 13.0625 8.265625 
Q 6.59375 17.96875 6.59375 36.375 
Q 6.59375 54.828125 13.0625 64.515625 
Q 19.53125 74.21875 31.78125 74.21875 
z
" id="DejaVuSans-48"/>
       <path d="M 25 67.921875 
Q 21.09375 67.921875 18.40625 65.203125 
Q 15.71875 62.5 15.71875 58.59375 
Q 15.71875 54.734375 18.40625 52.078125 
Q 21.09375 49.421875 25 49.421875 
Q 28.90625 49.421875 31.59375 52.078125 
Q 34.28125 54.734375 34.28125 58.59375 
Q 34.28125 62.453125 31.5625 65.1875 
Q 28.859375 67.921875 25 67.921875 
z
M 25 74.21875 
Q 28.125 74.21875 31 73.015625 
Q 33.890625 71.828125 35.984375 69.578125 
Q 38.234375 67.390625 39.359375 64.59375 
Q 40.484375 61.8125 40.484375 58.59375 
Q 40.484375 52.15625 35.96875 47.6875 
Q 31.453125 43.21875 24.90625 43.21875 
Q 18.3125 43.21875 13.90625 47.609375 
Q 9.515625 52 9.515625 58.59375 
Q 9.515625 65.140625 14 69.671875 
Q 18.5 74.21875 25 74.21875 
z
" id="DejaVuSans-176"/>
      </defs>
      <g transform="translate(397.0875 181.60625)scale(0.12 -0.12)">
       <use xlink:href="#DejaVuSans-48"/>
       <use x="63.623047" xlink:href="#DejaVuSans-176"/>
      </g>
     </g>
    </g>
    <g id="xtick_2">
     <g id="line2d_2">
      <path clip-path="url(#p89a1f94ecf)" d="M 252 178.295 
L 349.513561 80.781439 
" style="fill:none;stroke:#808080;stroke-linecap:square;stroke-width:0.8;"/>
     </g>
     <g id="text_2">
      <!-- 45° -->
      <defs>
       <path d="M 37.796875 64.3125 
L 12.890625 25.390625 
L 37.796875 25.390625 
z
M 35.203125 72.90625 
L 47.609375 72.90625 
L 47.609375 25.390625 
L 58.015625 25.390625 
L 58.015625 17.1875 
L 47.609375 17.1875 
L 47.609375 0 
L 37.796875 0 
L 37.796875 17.1875 
L 4.890625 17.1875 
L 4.890625 26.703125 
z
" id="DejaVuSans-52"/>
       <path d="M 10.796875 72.90625 
L 49.515625 72.90625 
L 49.515625 64.59375 
L 19.828125 64.59375 
L 19.828125 46.734375 
Q 21.96875 47.46875 24.109375 47.828125 
Q 26.265625 48.1875 28.421875 48.1875 
Q 40.625 48.1875 47.75 41.5 
Q 54.890625 34.8125 54.890625 23.390625 
Q 54.890625 11.625 47.5625 5.09375 
Q 40.234375 -1.421875 26.90625 -1.421875 
Q 22.3125 -1.421875 17.546875 -0.640625 
Q 12.796875 0.140625 7.71875 1.703125 
L 7.71875 11.625 
Q 12.109375 9.234375 16.796875 8.0625 
Q 21.484375 6.890625 26.703125 6.890625 
Q 35.15625 6.890625 40.078125 11.328125 
Q 45.015625 15.765625 45.015625 23.390625 
Q 45.015625 31 40.078125 35.4375 
Q 35.15625 39.890625 26.703125 39.890625 
Q 22.75 39.890625 18.8125 39.015625 
Q 14.890625 38.140625 10.796875 36.28125 
z
" id="DejaVuSans-53"/>
      </defs>
      <g transform="translate(348.778056 74.193194)scale(0.12 -0.12)">
       <use xlink:href="#DejaVuSans-52"/>
       <use x="63.623047" xlink:href="#DejaVuSans-53"/>
       <use x="127.246094" xlink:href="#DejaVuSans-176"/>
      </g>
     </g>
    </g>
    <g id="xtick_3">
     <g id="line2d_3">
      <path clip-path="url(#p89a1f94ecf)" d="M 252 178.295 
L 252 40.39 
" style="fill:none;stroke:#808080;stroke-linecap:square;stroke-width:0.8;"/>
     </g>
     <g id="text_3">
      <!-- 90° -->
      <defs>
       <path d="M 10.984375 1.515625 
L 10.984375 10.5 
Q 14.703125 8.734375 18.5 7.8125 
Q 22.3125 6.890625 25.984375 6.890625 
Q 35.75 6.890625 40.890625 13.453125 
Q 46.046875 20.015625 46.78125 33.40625 
Q 43.953125 29.203125 39.59375 26.953125 
Q 35.25 24.703125 29.984375 24.703125 
Q 19.046875 24.703125 12.671875 31.3125 
Q 6.296875 37.9375 6.296875 49.421875 
Q 6.296875 60.640625 12.9375 67.421875 
Q 19.578125 74.21875 30.609375 74.21875 
Q 43.265625 74.21875 49.921875 64.515625 
Q 56.59375 54.828125 56.59375 36.375 
Q 56.59375 19.140625 48.40625 8.859375 
Q 40.234375 -1.421875 26.421875 -1.421875 
Q 22.703125 -1.421875 18.890625 -0.6875 
Q 15.09375 0.046875 10.984375 1.515625 
z
M 30.609375 32.421875 
Q 37.25 32.421875 41.125 36.953125 
Q 45.015625 41.5 45.015625 49.421875 
Q 45.015625 57.28125 41.125 61.84375 
Q 37.25 66.40625 30.609375 66.40625 
Q 23.96875 66.40625 20.09375 61.84375 
Q 16.21875 57.28125 16.21875 49.421875 
Q 16.21875 41.5 20.09375 36.953125 
Q 23.96875 32.421875 30.609375 32.421875 
z
" id="DejaVuSans-57"/>
      </defs>
      <g transform="translate(241.365 29.70125)scale(0.12 -0.12)">
       <use xlink:href="#DejaVuSans-57"/>
       <use x="63.623047" xlink:href="#DejaVuSans-48"/>
       <use x="127.246094" xlink:href="#DejaVuSans-176"/>
      </g>
     </g>
    </g>
    <g id="xtick_4">
     <g id="line2d_4">
      <path clip-path="url(#p89a1f94ecf)" d="M 252 178.295 
L 154.486439 80.781439 
" style="fill:none;stroke:#808080;stroke-linecap:square;stroke-width:0.8;"/>
     </g>
     <g id="text_4">
      <!-- 135° -->
      <defs>
       <path d="M 12.40625 8.296875 
L 28.515625 8.296875 
L 28.515625 63.921875 
L 10.984375 60.40625 
L 10.984375 69.390625 
L 28.421875 72.90625 
L 38.28125 72.90625 
L 38.28125 8.296875 
L 54.390625 8.296875 
L 54.390625 0 
L 12.40625 0 
z
" id="DejaVuSans-49"/>
       <path d="M 40.578125 39.3125 
Q 47.65625 37.796875 51.625 33 
Q 55.609375 28.21875 55.609375 21.1875 
Q 55.609375 10.40625 48.1875 4.484375 
Q 40.765625 -1.421875 27.09375 -1.421875 
Q 22.515625 -1.421875 17.65625 -0.515625 
Q 12.796875 0.390625 7.625 2.203125 
L 7.625 11.71875 
Q 11.71875 9.328125 16.59375 8.109375 
Q 21.484375 6.890625 26.8125 6.890625 
Q 36.078125 6.890625 40.9375 10.546875 
Q 45.796875 14.203125 45.796875 21.1875 
Q 45.796875 27.640625 41.28125 31.265625 
Q 36.765625 34.90625 28.71875 34.90625 
L 20.21875 34.90625 
L 20.21875 43.015625 
L 29.109375 43.015625 
Q 36.375 43.015625 40.234375 45.921875 
Q 44.09375 48.828125 44.09375 54.296875 
Q 44.09375 59.90625 40.109375 62.90625 
Q 36.140625 65.921875 28.71875 65.921875 
Q 24.65625 65.921875 20.015625 65.03125 
Q 15.375 64.15625 9.8125 62.3125 
L 9.8125 71.09375 
Q 15.4375 72.65625 20.34375 73.4375 
Q 25.25 74.21875 29.59375 74.21875 
Q 40.828125 74.21875 47.359375 69.109375 
Q 53.90625 64.015625 53.90625 55.328125 
Q 53.90625 49.265625 50.4375 45.09375 
Q 46.96875 40.921875 40.578125 39.3125 
z
" id="DejaVuSans-51"/>
      </defs>
      <g transform="translate(130.134444 74.193194)scale(0.12 -0.12)">
       <use xlink:href="#DejaVuSans-49"/>
       <use x="63.623047" xlink:href="#DejaVuSans-51"/>
       <use x="127.246094" xlink:href="#DejaVuSans-53"/>
       <use x="190.869141" xlink:href="#DejaVuSans-176"/>
      </g>
     </g>
    </g>
    <g id="xtick_5">
     <g id="line2d_5">
      <path clip-path="url(#p89a1f94ecf)" d="M 252 178.295 
L 114.095 178.295 
" style="fill:none;stroke:#808080;stroke-linecap:square;stroke-width:0.8;"/>
     </g>
     <g id="text_5">
      <!-- 180° -->
      <defs>
       <path d="M 31.78125 34.625 
Q 24.75 34.625 20.71875 30.859375 
Q 16.703125 27.09375 16.703125 20.515625 
Q 16.703125 13.921875 20.71875 10.15625 
Q 24.75 6.390625 31.78125 6.390625 
Q 38.8125 6.390625 42.859375 10.171875 
Q 46.921875 13.96875 46.921875 20.515625 
Q 46.921875 27.09375 42.890625 30.859375 
Q 38.875 34.625 31.78125 34.625 
z
M 21.921875 38.8125 
Q 15.578125 40.375 12.03125 44.71875 
Q 8.5 49.078125 8.5 55.328125 
Q 8.5 64.0625 14.71875 69.140625 
Q 20.953125 74.21875 31.78125 74.21875 
Q 42.671875 74.21875 48.875 69.140625 
Q 55.078125 64.0625 55.078125 55.328125 
Q 55.078125 49.078125 51.53125 44.71875 
Q 48 40.375 41.703125 38.8125 
Q 48.828125 37.15625 52.796875 32.3125 
Q 56.78125 27.484375 56.78125 20.515625 
Q 56.78125 9.90625 50.3125 4.234375 
Q 43.84375 -1.421875 31.78125 -1.421875 
Q 19.734375 -1.421875 13.25 4.234375 
Q 6.78125 9.90625 6.78125 20.515625 
Q 6.78125 27.484375 10.78125 32.3125 
Q 14.796875 37.15625 21.921875 38.8125 
z
M 18.3125 54.390625 
Q 18.3125 48.734375 21.84375 45.5625 
Q 25.390625 42.390625 31.78125 42.390625 
Q 38.140625 42.390625 41.71875 45.5625 
Q 45.3125 48.734375 45.3125 54.390625 
Q 45.3125 60.0625 41.71875 63.234375 
Q 38.140625 66.40625 31.78125 66.40625 
Q 25.390625 66.40625 21.84375 63.234375 
Q 18.3125 60.0625 18.3125 54.390625 
z
" id="DejaVuSans-56"/>
      </defs>
      <g transform="translate(85.6425 181.60625)scale(0.12 -0.12)">
       <use xlink:href="#DejaVuSans-49"/>
       <use x="63.623047" xlink:href="#DejaVuSans-56"/>
       <use x="127.246094" xlink:href="#DejaVuSans-48"/>
       <use x="190.869141" xlink:href="#DejaVuSans-176"/>
      </g>
     </g>
    </g>
    <g id="xtick_6">
     <g id="line2d_6">
      <path clip-path="url(#p89a1f94ecf)" d="M 252 178.295 
L 154.486439 275.808561 
" style="fill:none;stroke:#808080;stroke-linecap:square;stroke-width:0.8;"/>
     </g>
     <g id="text_6">
      <!-- 225° -->
      <defs>
       <path d="M 19.1875 8.296875 
L 53.609375 8.296875 
L 53.609375 0 
L 7.328125 0 
L 7.328125 8.296875 
Q 12.9375 14.109375 22.625 23.890625 
Q 32.328125 33.6875 34.8125 36.53125 
Q 39.546875 41.84375 41.421875 45.53125 
Q 43.3125 49.21875 43.3125 52.78125 
Q 43.3125 58.59375 39.234375 62.25 
Q 35.15625 65.921875 28.609375 65.921875 
Q 23.96875 65.921875 18.8125 64.3125 
Q 13.671875 62.703125 7.8125 59.421875 
L 7.8125 69.390625 
Q 13.765625 71.78125 18.9375 73 
Q 24.125 74.21875 28.421875 74.21875 
Q 39.75 74.21875 46.484375 68.546875 
Q 53.21875 62.890625 53.21875 53.421875 
Q 53.21875 48.921875 51.53125 44.890625 
Q 49.859375 40.875 45.40625 35.40625 
Q 44.1875 33.984375 37.640625 27.21875 
Q 31.109375 20.453125 19.1875 8.296875 
z
" id="DejaVuSans-50"/>
      </defs>
      <g transform="translate(130.134444 289.019306)scale(0.12 -0.12)">
       <use xlink:href="#DejaVuSans-50"/>
       <use x="63.623047" xlink:href="#DejaVuSans-50"/>
       <use x="127.246094" xlink:href="#DejaVuSans-53"/>
       <use x="190.869141" xlink:href="#DejaVuSans-176"/>
      </g>
     </g>
    </g>
    <g id="xtick_7">
     <g id="line2d_7">
      <path clip-path="url(#p89a1f94ecf)" d="M 252 178.295 
L 252 316.2 
" style="fill:none;stroke:#808080;stroke-linecap:square;stroke-width:0.8;"/>
     </g>
     <g id="text_7">
      <!-- 270° -->
      <defs>
       <path d="M 8.203125 72.90625 
L 55.078125 72.90625 
L 55.078125 68.703125 
L 28.609375 0 
L 18.3125 0 
L 43.21875 64.59375 
L 8.203125 64.59375 
z
" id="DejaVuSans-55"/>
      </defs>
      <g transform="translate(237.5475 333.51125)scale(0.12 -0.12)">
       <use xlink:href="#DejaVuSans-50"/>
       <use x="63.623047" xlink:href="#DejaVuSans-55"/>
       <use x="127.246094" xlink:href="#DejaVuSans-48"/>
       <use x="190.869141" xlink:href="#DejaVuSans-176"/>
      </g>
     </g>
    </g>
    <g id="xtick_8">
     <g id="line2d_8">
      <path clip-path="url(#p89a1f94ecf)" d="M 252 178.295 
L 349.513561 275.808561 
" style="fill:none;stroke:#808080;stroke-linecap:square;stroke-width:0.8;"/>
     </g>
     <g id="text_8">
      <!-- 315° -->
      <g transform="translate(344.960556 289.019306)scale(0.12 -0.12)">
       <use xlink:href="#DejaVuSans-51"/>
       <use x="63.623047" xlink:href="#DejaVuSans-49"/>
       <use x="127.246094" xlink:href="#DejaVuSans-53"/>
       <use x="190.869141" xlink:href="#DejaVuSans-176"/>
      </g>
     </g>
    </g>
    <g id="text_9">
     <!-- frequency [Hz] -->
     <defs>
      <path d="M 37.109375 75.984375 
L 37.109375 68.5 
L 28.515625 68.5 
Q 23.6875 68.5 21.796875 66.546875 
Q 19.921875 64.59375 19.921875 59.515625 
L 19.921875 54.6875 
L 34.71875 54.6875 
L 34.71875 47.703125 
L 19.921875 47.703125 
L 19.921875 0 
L 10.890625 0 
L 10.890625 47.703125 
L 2.296875 47.703125 
L 2.296875 54.6875 
L 10.890625 54.6875 
L 10.890625 58.5 
Q 10.890625 67.625 15.140625 71.796875 
Q 19.390625 75.984375 28.609375 75.984375 
z
" id="DejaVuSans-102"/>
      <path d="M 41.109375 46.296875 
Q 39.59375 47.171875 37.8125 47.578125 
Q 36.03125 48 33.890625 48 
Q 26.265625 48 22.1875 43.046875 
Q 18.109375 38.09375 18.109375 28.8125 
L 18.109375 0 
L 9.078125 0 
L 9.078125 54.6875 
L 18.109375 54.6875 
L 18.109375 46.1875 
Q 20.953125 51.171875 25.484375 53.578125 
Q 30.03125 56 36.53125 56 
Q 37.453125 56 38.578125 55.875 
Q 39.703125 55.765625 41.0625 55.515625 
z
" id="DejaVuSans-114"/>
      <path d="M 56.203125 29.59375 
L 56.203125 25.203125 
L 14.890625 25.203125 
Q 15.484375 15.921875 20.484375 11.0625 
Q 25.484375 6.203125 34.421875 6.203125 
Q 39.59375 6.203125 44.453125 7.46875 
Q 49.3125 8.734375 54.109375 11.28125 
L 54.109375 2.78125 
Q 49.265625 0.734375 44.1875 -0.34375 
Q 39.109375 -1.421875 33.890625 -1.421875 
Q 20.796875 -1.421875 13.15625 6.1875 
Q 5.515625 13.8125 5.515625 26.8125 
Q 5.515625 40.234375 12.765625 48.109375 
Q 20.015625 56 32.328125 56 
Q 43.359375 56 49.78125 48.890625 
Q 56.203125 41.796875 56.203125 29.59375 
z
M 47.21875 32.234375 
Q 47.125 39.59375 43.09375 43.984375 
Q 39.0625 48.390625 32.421875 48.390625 
Q 24.90625 48.390625 20.390625 44.140625 
Q 15.875 39.890625 15.1875 32.171875 
z
" id="DejaVuSans-101"/>
      <path d="M 14.796875 27.296875 
Q 14.796875 17.390625 18.875 11.75 
Q 22.953125 6.109375 30.078125 6.109375 
Q 37.203125 6.109375 41.296875 11.75 
Q 45.40625 17.390625 45.40625 27.296875 
Q 45.40625 37.203125 41.296875 42.84375 
Q 37.203125 48.484375 30.078125 48.484375 
Q 22.953125 48.484375 18.875 42.84375 
Q 14.796875 37.203125 14.796875 27.296875 
z
M 45.40625 8.203125 
Q 42.578125 3.328125 38.25 0.953125 
Q 33.9375 -1.421875 27.875 -1.421875 
Q 17.96875 -1.421875 11.734375 6.484375 
Q 5.515625 14.40625 5.515625 27.296875 
Q 5.515625 40.1875 11.734375 48.09375 
Q 17.96875 56 27.875 56 
Q 33.9375 56 38.25 53.625 
Q 42.578125 51.265625 45.40625 46.390625 
L 45.40625 54.6875 
L 54.390625 54.6875 
L 54.390625 -20.796875 
L 45.40625 -20.796875 
z
" id="DejaVuSans-113"/>
      <path d="M 8.5 21.578125 
L 8.5 54.6875 
L 17.484375 54.6875 
L 17.484375 21.921875 
Q 17.484375 14.15625 20.5 10.265625 
Q 23.53125 6.390625 29.59375 6.390625 
Q 36.859375 6.390625 41.078125 11.03125 
Q 45.3125 15.671875 45.3125 23.6875 
L 45.3125 54.6875 
L 54.296875 54.6875 
L 54.296875 0 
L 45.3125 0 
L 45.3125 8.40625 
Q 42.046875 3.421875 37.71875 1 
Q 33.40625 -1.421875 27.6875 -1.421875 
Q 18.265625 -1.421875 13.375 4.4375 
Q 8.5 10.296875 8.5 21.578125 
z
M 31.109375 56 
z
" id="DejaVuSans-117"/>
      <path d="M 54.890625 33.015625 
L 54.890625 0 
L 45.90625 0 
L 45.90625 32.71875 
Q 45.90625 40.484375 42.875 44.328125 
Q 39.84375 48.1875 33.796875 48.1875 
Q 26.515625 48.1875 22.3125 43.546875 
Q 18.109375 38.921875 18.109375 30.90625 
L 18.109375 0 
L 9.078125 0 
L 9.078125 54.6875 
L 18.109375 54.6875 
L 18.109375 46.1875 
Q 21.34375 51.125 25.703125 53.5625 
Q 30.078125 56 35.796875 56 
Q 45.21875 56 50.046875 50.171875 
Q 54.890625 44.34375 54.890625 33.015625 
z
" id="DejaVuSans-110"/>
      <path d="M 48.78125 52.59375 
L 48.78125 44.1875 
Q 44.96875 46.296875 41.140625 47.34375 
Q 37.3125 48.390625 33.40625 48.390625 
Q 24.65625 48.390625 19.8125 42.84375 
Q 14.984375 37.3125 14.984375 27.296875 
Q 14.984375 17.28125 19.8125 11.734375 
Q 24.65625 6.203125 33.40625 6.203125 
Q 37.3125 6.203125 41.140625 7.25 
Q 44.96875 8.296875 48.78125 10.40625 
L 48.78125 2.09375 
Q 45.015625 0.34375 40.984375 -0.53125 
Q 36.96875 -1.421875 32.421875 -1.421875 
Q 20.0625 -1.421875 12.78125 6.34375 
Q 5.515625 14.109375 5.515625 27.296875 
Q 5.515625 40.671875 12.859375 48.328125 
Q 20.21875 56 33.015625 56 
Q 37.15625 56 41.109375 55.140625 
Q 45.0625 54.296875 48.78125 52.59375 
z
" id="DejaVuSans-99"/>
      <path d="M 32.171875 -5.078125 
Q 28.375 -14.84375 24.75 -17.8125 
Q 21.140625 -20.796875 15.09375 -20.796875 
L 7.90625 -20.796875 
L 7.90625 -13.28125 
L 13.1875 -13.28125 
Q 16.890625 -13.28125 18.9375 -11.515625 
Q 21 -9.765625 23.484375 -3.21875 
L 25.09375 0.875 
L 2.984375 54.6875 
L 12.5 54.6875 
L 29.59375 11.921875 
L 46.6875 54.6875 
L 56.203125 54.6875 
z
" id="DejaVuSans-121"/>
      <path id="DejaVuSans-32"/>
      <path d="M 8.59375 75.984375 
L 29.296875 75.984375 
L 29.296875 69 
L 17.578125 69 
L 17.578125 -6.203125 
L 29.296875 -6.203125 
L 29.296875 -13.1875 
L 8.59375 -13.1875 
z
" id="DejaVuSans-91"/>
      <path d="M 9.8125 72.90625 
L 19.671875 72.90625 
L 19.671875 43.015625 
L 55.515625 43.015625 
L 55.515625 72.90625 
L 65.375 72.90625 
L 65.375 0 
L 55.515625 0 
L 55.515625 34.71875 
L 19.671875 34.71875 
L 19.671875 0 
L 9.8125 0 
z
" id="DejaVuSans-72"/>
      <path d="M 5.515625 54.6875 
L 48.1875 54.6875 
L 48.1875 46.484375 
L 14.40625 7.171875 
L 48.1875 7.171875 
L 48.1875 0 
L 4.296875 0 
L 4.296875 8.203125 
L 38.09375 47.515625 
L 5.515625 47.515625 
z
" id="DejaVuSans-122"/>
      <path d="M 30.421875 75.984375 
L 30.421875 -13.1875 
L 9.71875 -13.1875 
L 9.71875 -6.203125 
L 21.390625 -6.203125 
L 21.390625 69 
L 9.71875 69 
L 9.71875 75.984375 
z
" id="DejaVuSans-93"/>
     </defs>
     <g transform="translate(207.658125 349.125)scale(0.12 -0.12)">
      <use xlink:href="#DejaVuSans-102"/>
      <use x="35.205078" xlink:href="#DejaVuSans-114"/>
      <use x="74.068359" xlink:href="#DejaVuSans-101"/>
      <use x="135.591797" xlink:href="#DejaVuSans-113"/>
      <use x="199.068359" xlink:href="#DejaVuSans-117"/>
      <use x="262.447266" xlink:href="#DejaVuSans-101"/>
      <use x="323.970703" xlink:href="#DejaVuSans-110"/>
      <use x="387.349609" xlink:href="#DejaVuSans-99"/>
      <use x="442.330078" xlink:href="#DejaVuSans-121"/>
      <use x="501.509766" xlink:href="#DejaVuSans-32"/>
      <use x="533.296875" xlink:href="#DejaVuSans-91"/>
      <use x="572.310547" xlink:href="#DejaVuSans-72"/>
      <use x="647.505859" xlink:href="#DejaVuSans-122"/>
      <use x="699.996094" xlink:href="#DejaVuSans-93"/>
     </g>
    </g>
   </g>
   <g id="matplotlib.axis_2">
    <g id="ytick_1">
     <g id="line2d_9">
      <path clip-path="url(#p89a1f94ecf)" d="M 278.281447 178.295 
L 278.137475 175.547841 
L 277.707135 172.83078 
L 276.995142 170.173586 
L 276.009297 167.605372 
L 274.760401 165.154276 
L 273.262138 162.847153 
L 271.530922 160.709279 
L 269.585721 158.764078 
L 267.447847 157.032862 
L 265.140724 155.534599 
L 262.689628 154.285703 
L 260.121414 153.299858 
L 257.46422 152.587865 
L 254.747159 152.157525 
L 252 152.013553 
L 249.252841 152.157525 
L 246.53578 152.587865 
L 243.878586 153.299858 
L 241.310372 154.285703 
L 238.859276 155.534599 
L 236.552153 157.032862 
L 234.414279 158.764078 
L 232.469078 160.709279 
L 230.737862 162.847153 
L 229.239599 165.154276 
L 227.990703 167.605372 
L 227.004858 170.173586 
L 226.292865 172.83078 
L 225.862525 175.547841 
L 225.718553 178.295 
L 225.862525 181.042159 
L 226.292865 183.75922 
L 227.004858 186.416414 
L 227.990703 188.984628 
L 229.239599 191.435724 
L 230.737862 193.742847 
L 232.469078 195.880721 
L 234.414279 197.825922 
L 236.552153 199.557138 
L 238.859276 201.055401 
L 241.310372 202.304297 
L 243.878586 203.290142 
L 246.53578 204.002135 
L 249.252841 204.432475 
L 252 204.576447 
L 254.747159 204.432475 
L 257.46422 204.002135 
L 260.121414 203.290142 
L 262.689628 202.304297 
L 265.140724 201.055401 
L 267.447847 199.557138 
L 269.585721 197.825922 
L 271.530922 195.880721 
L 273.262138 193.742847 
L 274.760401 191.435724 
L 276.009297 188.984628 
L 276.995142 186.416414 
L 277.707135 183.75922 
L 278.137475 181.042159 
L 278.281447 178.295 
L 278.281447 178.295 
" style="fill:none;stroke:#808080;stroke-linecap:square;stroke-width:0.8;"/>
     </g>
     <g id="text_10">
      <!-- 0.2 -->
      <defs>
       <path d="M 10.6875 12.40625 
L 21 12.40625 
L 21 0 
L 10.6875 0 
z
" id="DejaVuSans-46"/>
      </defs>
      <g transform="translate(276.280891 165.741901)scale(0.12 -0.12)">
       <use xlink:href="#DejaVuSans-48"/>
       <use x="63.623047" xlink:href="#DejaVuSans-46"/>
       <use x="95.410156" xlink:href="#DejaVuSans-50"/>
      </g>
     </g>
    </g>
    <g id="ytick_2">
     <g id="line2d_10">
      <path clip-path="url(#p89a1f94ecf)" d="M 304.562895 178.295 
L 304.434854 174.628398 
L 304.051356 170.979659 
L 303.414269 167.36656 
L 302.526697 163.806703 
L 301.392964 160.317431 
L 300.018594 156.915745 
L 298.410281 153.618216 
L 296.575863 150.440909 
L 294.524275 147.399306 
L 292.265513 144.508223 
L 289.810582 141.781745 
L 287.171442 139.233157 
L 284.360949 136.874874 
L 281.392798 134.718385 
L 278.281447 132.774198 
L 275.042056 131.051783 
L 271.690407 129.559533 
L 268.242828 128.304716 
L 264.716115 127.293448 
L 261.127451 126.530654 
L 257.494319 126.02005 
L 253.834419 125.764125 
L 250.165581 125.764125 
L 246.505681 126.02005 
L 242.872549 126.530654 
L 239.283885 127.293448 
L 235.757172 128.304716 
L 232.309593 129.559533 
L 228.957944 131.051783 
L 225.718553 132.774198 
L 222.607202 134.718385 
L 219.639051 136.874874 
L 216.828558 139.233157 
L 214.189418 141.781745 
L 211.734487 144.508223 
L 209.475725 147.399306 
L 207.424137 150.440909 
L 205.589719 153.618216 
L 203.981406 156.915745 
L 202.607036 160.317431 
L 201.473303 163.806703 
L 200.585731 167.36656 
L 199.948644 170.979659 
L 199.565146 174.628398 
L 199.437105 178.295 
L 199.565146 181.961602 
L 199.948644 185.610341 
L 200.585731 189.22344 
L 201.473303 192.783297 
L 202.607036 196.272569 
L 203.981406 199.674255 
L 205.589719 202.971784 
L 207.424137 206.149091 
L 209.475725 209.190694 
L 211.734487 212.081777 
L 214.189418 214.808255 
L 216.828558 217.356843 
L 219.639051 219.715126 
L 222.607202 221.871615 
L 225.718553 223.815802 
L 228.957944 225.538217 
L 232.309593 227.030467 
L 235.757172 228.285284 
L 239.283885 229.296552 
L 242.872549 230.059346 
L 246.505681 230.56995 
L 250.165581 230.825875 
L 253.834419 230.825875 
L 257.494319 230.56995 
L 261.127451 230.059346 
L 264.716115 229.296552 
L 268.242828 228.285284 
L 271.690407 227.030467 
L 275.042056 225.538217 
L 278.281447 223.815802 
L 281.392798 221.871615 
L 284.360949 219.715126 
L 287.171442 217.356843 
L 289.810582 214.808255 
L 292.265513 212.081777 
L 294.524275 209.190694 
L 296.575863 206.149091 
L 298.410281 202.971784 
L 300.018594 199.674255 
L 301.392964 196.272569 
L 302.526697 192.783297 
L 303.414269 189.22344 
L 304.051356 185.610341 
L 304.434854 181.961602 
L 304.562895 178.295 
L 304.562895 178.295 
" style="fill:none;stroke:#808080;stroke-linecap:square;stroke-width:0.8;"/>
     </g>
     <g id="text_11">
      <!-- 0.4 -->
      <g transform="translate(300.561783 155.684426)scale(0.12 -0.12)">
       <use xlink:href="#DejaVuSans-48"/>
       <use x="63.623047" xlink:href="#DejaVuSans-46"/>
       <use x="95.410156" xlink:href="#DejaVuSans-52"/>
      </g>
     </g>
    </g>
    <g id="ytick_3">
     <g id="line2d_11">
      <path clip-path="url(#p89a1f94ecf)" d="M 330.844342 178.295 
L 330.652281 172.795097 
L 330.077034 167.321988 
L 329.121404 161.90234 
L 327.790046 156.562554 
L 326.089446 151.328647 
L 324.027891 146.226117 
L 321.615422 141.279823 
L 318.863794 136.513864 
L 315.786413 131.951458 
L 312.39827 127.614834 
L 308.715873 123.525118 
L 304.757162 119.702235 
L 300.541424 116.164811 
L 296.089197 112.930078 
L 291.422171 110.013797 
L 286.563085 107.430175 
L 281.53561 105.191799 
L 276.364242 103.309575 
L 271.074173 101.792672 
L 265.691176 100.648481 
L 260.241478 99.882575 
L 254.751628 99.498688 
L 249.248372 99.498688 
L 243.758522 99.882575 
L 238.308824 100.648481 
L 232.925827 101.792672 
L 227.635758 103.309575 
L 222.46439 105.191799 
L 217.436915 107.430175 
L 212.577829 110.013797 
L 207.910803 112.930078 
L 203.458576 116.164811 
L 199.242838 119.702235 
L 195.284127 123.525118 
L 191.60173 127.614834 
L 188.213587 131.951458 
L 185.136206 136.513864 
L 182.384578 141.279823 
L 179.972109 146.226117 
L 177.910554 151.328647 
L 176.209954 156.562554 
L 174.878596 161.90234 
L 173.922966 167.321988 
L 173.347719 172.795097 
L 173.155658 178.295 
L 173.347719 183.794903 
L 173.922966 189.268012 
L 174.878596 194.68766 
L 176.209954 200.027446 
L 177.910554 205.261353 
L 179.972109 210.363883 
L 182.384578 215.310177 
L 185.136206 220.076136 
L 188.213587 224.638542 
L 191.60173 228.975166 
L 195.284127 233.064882 
L 199.242838 236.887765 
L 203.458576 240.425189 
L 207.910803 243.659922 
L 212.577829 246.576203 
L 217.436915 249.159825 
L 222.46439 251.398201 
L 227.635758 253.280425 
L 232.925827 254.797328 
L 238.308824 255.941519 
L 243.758522 256.707425 
L 249.248372 257.091312 
L 254.751628 257.091312 
L 260.241478 256.707425 
L 265.691176 255.941519 
L 271.074173 254.797328 
L 276.364242 253.280425 
L 281.53561 251.398201 
L 286.563085 249.159825 
L 291.422171 246.576203 
L 296.089197 243.659922 
L 300.541424 240.425189 
L 304.757162 236.887765 
L 308.715873 233.064882 
L 312.39827 228.975166 
L 315.786413 224.638542 
L 318.863794 220.076136 
L 321.615422 215.310177 
L 324.027891 210.363883 
L 326.089446 205.261353 
L 327.790046 200.027446 
L 329.121404 194.68766 
L 330.077034 189.268012 
L 330.652281 183.794903 
L 330.844342 178.295 
L 330.844342 178.295 
" style="fill:none;stroke:#808080;stroke-linecap:square;stroke-width:0.8;"/>
     </g>
     <g id="text_12">
      <!-- 0.6 -->
      <defs>
       <path d="M 33.015625 40.375 
Q 26.375 40.375 22.484375 35.828125 
Q 18.609375 31.296875 18.609375 23.390625 
Q 18.609375 15.53125 22.484375 10.953125 
Q 26.375 6.390625 33.015625 6.390625 
Q 39.65625 6.390625 43.53125 10.953125 
Q 47.40625 15.53125 47.40625 23.390625 
Q 47.40625 31.296875 43.53125 35.828125 
Q 39.65625 40.375 33.015625 40.375 
z
M 52.59375 71.296875 
L 52.59375 62.3125 
Q 48.875 64.0625 45.09375 64.984375 
Q 41.3125 65.921875 37.59375 65.921875 
Q 27.828125 65.921875 22.671875 59.328125 
Q 17.53125 52.734375 16.796875 39.40625 
Q 19.671875 43.65625 24.015625 45.921875 
Q 28.375 48.1875 33.59375 48.1875 
Q 44.578125 48.1875 50.953125 41.515625 
Q 57.328125 34.859375 57.328125 23.390625 
Q 57.328125 12.15625 50.6875 5.359375 
Q 44.046875 -1.421875 33.015625 -1.421875 
Q 20.359375 -1.421875 13.671875 8.265625 
Q 6.984375 17.96875 6.984375 36.375 
Q 6.984375 53.65625 15.1875 63.9375 
Q 23.390625 74.21875 37.203125 74.21875 
Q 40.921875 74.21875 44.703125 73.484375 
Q 48.484375 72.75 52.59375 71.296875 
z
" id="DejaVuSans-54"/>
      </defs>
      <g transform="translate(324.842674 145.626952)scale(0.12 -0.12)">
       <use xlink:href="#DejaVuSans-48"/>
       <use x="63.623047" xlink:href="#DejaVuSans-46"/>
       <use x="95.410156" xlink:href="#DejaVuSans-54"/>
      </g>
     </g>
    </g>
    <g id="ytick_4">
     <g id="line2d_12">
      <path clip-path="url(#p89a1f94ecf)" d="M 357.125789 178.295 
L 357.06175 174.626163 
L 356.869708 170.961796 
L 356.549899 167.306363 
L 356.102713 163.664318 
L 355.528693 160.040098 
L 354.828539 156.438119 
L 354.003104 152.86277 
L 353.053395 149.318405 
L 351.980567 145.809345 
L 350.785929 142.339862 
L 349.470935 138.914186 
L 348.037187 135.536489 
L 346.486434 132.210887 
L 344.820563 128.941431 
L 343.041604 125.732105 
L 341.151726 122.586819 
L 339.153229 119.509405 
L 337.04855 116.503611 
L 334.840253 113.573101 
L 332.531027 110.721445 
L 330.123686 107.952117 
L 327.621164 105.26849 
L 325.02651 102.673836 
L 322.342883 100.171314 
L 319.573555 97.763973 
L 316.721899 95.454747 
L 313.791389 93.24645 
L 310.785595 91.141771 
L 307.708181 89.143274 
L 304.562895 87.253396 
L 301.353569 85.474437 
L 298.084113 83.808566 
L 294.758511 82.257813 
L 291.380814 80.824065 
L 287.955138 79.509071 
L 284.485655 78.314433 
L 280.976595 77.241605 
L 277.43223 76.291896 
L 273.856881 75.466461 
L 270.254902 74.766307 
L 266.630682 74.192287 
L 262.988637 73.745101 
L 259.333204 73.425292 
L 255.668837 73.23325 
L 252 73.169211 
L 248.331163 73.23325 
L 244.666796 73.425292 
L 241.011363 73.745101 
L 237.369318 74.192287 
L 233.745098 74.766307 
L 230.143119 75.466461 
L 226.56777 76.291896 
L 223.023405 77.241605 
L 219.514345 78.314433 
L 216.044862 79.509071 
L 212.619186 80.824065 
L 209.241489 82.257813 
L 205.915887 83.808566 
L 202.646431 85.474437 
L 199.437105 87.253396 
L 196.291819 89.143274 
L 193.214405 91.141771 
L 190.208611 93.24645 
L 187.278101 95.454747 
L 184.426445 97.763973 
L 181.657117 100.171314 
L 178.97349 102.673836 
L 176.378836 105.26849 
L 173.876314 107.952117 
L 171.468973 110.721445 
L 169.159747 113.573101 
L 166.95145 116.503611 
L 164.846771 119.509405 
L 162.848274 122.586819 
L 160.958396 125.732105 
L 159.179437 128.941431 
L 157.513566 132.210887 
L 155.962813 135.536489 
L 154.529065 138.914186 
L 153.214071 142.339862 
L 152.019433 145.809345 
L 150.946605 149.318405 
L 149.996896 152.86277 
L 149.171461 156.438119 
L 148.471307 160.040098 
L 147.897287 163.664318 
L 147.450101 167.306363 
L 147.130292 170.961796 
L 146.93825 174.626163 
L 146.874211 178.295 
L 146.93825 181.963837 
L 147.130292 185.628204 
L 147.450101 189.283637 
L 147.897287 192.925682 
L 148.471307 196.549902 
L 149.171461 200.151881 
L 149.996896 203.72723 
L 150.946605 207.271595 
L 152.019433 210.780655 
L 153.214071 214.250138 
L 154.529065 217.675814 
L 155.962813 221.053511 
L 157.513566 224.379113 
L 159.179437 227.648569 
L 160.958396 230.857895 
L 162.848274 234.003181 
L 164.846771 237.080595 
L 166.95145 240.086389 
L 169.159747 243.016899 
L 171.468973 245.868555 
L 173.876314 248.637883 
L 176.378836 251.32151 
L 178.97349 253.916164 
L 181.657117 256.418686 
L 184.426445 258.826027 
L 187.278101 261.135253 
L 190.208611 263.34355 
L 193.214405 265.448229 
L 196.291819 267.446726 
L 199.437105 269.336604 
L 202.646431 271.115563 
L 205.915887 272.781434 
L 209.241489 274.332187 
L 212.619186 275.765935 
L 216.044862 277.080929 
L 219.514345 278.275567 
L 223.023405 279.348395 
L 226.56777 280.298104 
L 230.143119 281.123539 
L 233.745098 281.823693 
L 237.369318 282.397713 
L 241.011363 282.844899 
L 244.666796 283.164708 
L 248.331163 283.35675 
L 252 283.420789 
L 255.668837 283.35675 
L 259.333204 283.164708 
L 262.988637 282.844899 
L 266.630682 282.397713 
L 270.254902 281.823693 
L 273.856881 281.123539 
L 277.43223 280.298104 
L 280.976595 279.348395 
L 284.485655 278.275567 
L 287.955138 277.080929 
L 291.380814 275.765935 
L 294.758511 274.332187 
L 298.084113 272.781434 
L 301.353569 271.115563 
L 304.562895 269.336604 
L 307.708181 267.446726 
L 310.785595 265.448229 
L 313.791389 263.34355 
L 316.721899 261.135253 
L 319.573555 258.826027 
L 322.342883 256.418686 
L 325.02651 253.916164 
L 327.621164 251.32151 
L 330.123686 248.637883 
L 332.531027 245.868555 
L 334.840253 243.016899 
L 337.04855 240.086389 
L 339.153229 237.080595 
L 341.151726 234.003181 
L 343.041604 230.857895 
L 344.820563 227.648569 
L 346.486434 224.379113 
L 348.037187 221.053511 
L 349.470935 217.675814 
L 350.785929 214.250138 
L 351.980567 210.780655 
L 353.053395 207.271595 
L 354.003104 203.72723 
L 354.828539 200.151881 
L 355.528693 196.549902 
L 356.102713 192.925682 
L 356.549899 189.283637 
L 356.869708 185.628204 
L 357.06175 181.963837 
L 357.125789 178.295 
L 357.125789 178.295 
" style="fill:none;stroke:#808080;stroke-linecap:square;stroke-width:0.8;"/>
     </g>
     <g id="text_13">
      <!-- 0.8 -->
      <g transform="translate(349.123565 135.569477)scale(0.12 -0.12)">
       <use xlink:href="#DejaVuSans-48"/>
       <use x="63.623047" xlink:href="#DejaVuSans-46"/>
       <use x="95.410156" xlink:href="#DejaVuSans-56"/>
      </g>
     </g>
    </g>
    <g id="ytick_5">
     <g id="line2d_13">
      <path clip-path="url(#p89a1f94ecf)" d="M 383.407237 178.295 
L 383.327187 173.708954 
L 383.087135 169.128495 
L 382.687374 164.559203 
L 382.128391 160.006647 
L 381.410866 155.476373 
L 380.535673 150.973899 
L 379.50388 146.504712 
L 378.316743 142.074257 
L 376.975709 137.687931 
L 375.482411 133.351078 
L 373.838668 129.068983 
L 372.046484 124.846862 
L 370.108042 120.689859 
L 368.025703 116.603039 
L 365.802005 112.591382 
L 363.439657 108.659774 
L 360.941537 104.813006 
L 358.310688 101.055764 
L 355.550316 97.392627 
L 352.663784 93.828056 
L 349.654608 90.366396 
L 346.526456 87.011863 
L 343.283137 83.768544 
L 339.928604 80.640392 
L 336.466944 77.631216 
L 332.902373 74.744684 
L 329.239236 71.984312 
L 325.481994 69.353463 
L 321.635226 66.855343 
L 317.703618 64.492995 
L 313.691961 62.269297 
L 309.605141 60.186958 
L 305.448138 58.248516 
L 301.226017 56.456332 
L 296.943922 54.812589 
L 292.607069 53.319291 
L 288.220743 51.978257 
L 283.790288 50.79112 
L 279.321101 49.759327 
L 274.818627 48.884134 
L 270.288353 48.166609 
L 265.735797 47.607626 
L 261.166505 47.207865 
L 256.586046 46.967813 
L 252 46.887763 
L 247.413954 46.967813 
L 242.833495 47.207865 
L 238.264203 47.607626 
L 233.711647 48.166609 
L 229.181373 48.884134 
L 224.678899 49.759327 
L 220.209712 50.79112 
L 215.779257 51.978257 
L 211.392931 53.319291 
L 207.056078 54.812589 
L 202.773983 56.456332 
L 198.551862 58.248516 
L 194.394859 60.186958 
L 190.308039 62.269297 
L 186.296382 64.492995 
L 182.364774 66.855343 
L 178.518006 69.353463 
L 174.760764 71.984312 
L 171.097627 74.744684 
L 167.533056 77.631216 
L 164.071396 80.640392 
L 160.716863 83.768544 
L 157.473544 87.011863 
L 154.345392 90.366396 
L 151.336216 93.828056 
L 148.449684 97.392627 
L 145.689312 101.055764 
L 143.058463 104.813006 
L 140.560343 108.659774 
L 138.197995 112.591382 
L 135.974297 116.603039 
L 133.891958 120.689859 
L 131.953516 124.846862 
L 130.161332 129.068983 
L 128.517589 133.351078 
L 127.024291 137.687931 
L 125.683257 142.074257 
L 124.49612 146.504712 
L 123.464327 150.973899 
L 122.589134 155.476373 
L 121.871609 160.006647 
L 121.312626 164.559203 
L 120.912865 169.128495 
L 120.672813 173.708954 
L 120.592763 178.295 
L 120.672813 182.881046 
L 120.912865 187.461505 
L 121.312626 192.030797 
L 121.871609 196.583353 
L 122.589134 201.113627 
L 123.464327 205.616101 
L 124.49612 210.085288 
L 125.683257 214.515743 
L 127.024291 218.902069 
L 128.517589 223.238922 
L 130.161332 227.521017 
L 131.953516 231.743138 
L 133.891958 235.900141 
L 135.974297 239.986961 
L 138.197995 243.998618 
L 140.560343 247.930226 
L 143.058463 251.776994 
L 145.689312 255.534236 
L 148.449684 259.197373 
L 151.336216 262.761944 
L 154.345392 266.223604 
L 157.473544 269.578137 
L 160.716863 272.821456 
L 164.071396 275.949608 
L 167.533056 278.958784 
L 171.097627 281.845316 
L 174.760764 284.605688 
L 178.518006 287.236537 
L 182.364774 289.734657 
L 186.296382 292.097005 
L 190.308039 294.320703 
L 194.394859 296.403042 
L 198.551862 298.341484 
L 202.773983 300.133668 
L 207.056078 301.777411 
L 211.392931 303.270709 
L 215.779257 304.611743 
L 220.209712 305.79888 
L 224.678899 306.830673 
L 229.181373 307.705866 
L 233.711647 308.423391 
L 238.264203 308.982374 
L 242.833495 309.382135 
L 247.413954 309.622187 
L 252 309.702237 
L 256.586046 309.622187 
L 261.166505 309.382135 
L 265.735797 308.982374 
L 270.288353 308.423391 
L 274.818627 307.705866 
L 279.321101 306.830673 
L 283.790288 305.79888 
L 288.220743 304.611743 
L 292.607069 303.270709 
L 296.943922 301.777411 
L 301.226017 300.133668 
L 305.448138 298.341484 
L 309.605141 296.403042 
L 313.691961 294.320703 
L 317.703618 292.097005 
L 321.635226 289.734657 
L 325.481994 287.236537 
L 329.239236 284.605688 
L 332.902373 281.845316 
L 336.466944 278.958784 
L 339.928604 275.949608 
L 343.283137 272.821456 
L 346.526456 269.578137 
L 349.654608 266.223604 
L 352.663784 262.761944 
L 355.550316 259.197373 
L 358.310688 255.534236 
L 360.941537 251.776994 
L 363.439657 247.930226 
L 365.802005 243.998618 
L 368.025703 239.986961 
L 370.108042 235.900141 
L 372.046484 231.743138 
L 373.838668 227.521017 
L 375.482411 223.238922 
L 376.975709 218.902069 
L 378.316743 214.515743 
L 379.50388 210.085288 
L 380.535673 205.616101 
L 381.410866 201.113627 
L 382.128391 196.583353 
L 382.687374 192.030797 
L 383.087135 187.461505 
L 383.327187 182.881046 
L 383.407237 178.295 
L 383.407237 178.295 
" style="fill:none;stroke:#808080;stroke-linecap:square;stroke-width:0.8;"/>
     </g>
     <g id="text_14">
      <!-- 1.0 -->
      <g transform="translate(373.404457 125.512003)scale(0.12 -0.12)">
       <use xlink:href="#DejaVuSans-49"/>
       <use x="63.623047" xlink:href="#DejaVuSans-46"/>
       <use x="95.410156" xlink:href="#DejaVuSans-48"/>
      </g>
     </g>
    </g>
    <g id="text_15">
     <!-- magnitude [] -->
     <defs>
      <path d="M 52 44.1875 
Q 55.375 50.25 60.0625 53.125 
Q 64.75 56 71.09375 56 
Q 79.640625 56 84.28125 50.015625 
Q 88.921875 44.046875 88.921875 33.015625 
L 88.921875 0 
L 79.890625 0 
L 79.890625 32.71875 
Q 79.890625 40.578125 77.09375 44.375 
Q 74.3125 48.1875 68.609375 48.1875 
Q 61.625 48.1875 57.5625 43.546875 
Q 53.515625 38.921875 53.515625 30.90625 
L 53.515625 0 
L 44.484375 0 
L 44.484375 32.71875 
Q 44.484375 40.625 41.703125 44.40625 
Q 38.921875 48.1875 33.109375 48.1875 
Q 26.21875 48.1875 22.15625 43.53125 
Q 18.109375 38.875 18.109375 30.90625 
L 18.109375 0 
L 9.078125 0 
L 9.078125 54.6875 
L 18.109375 54.6875 
L 18.109375 46.1875 
Q 21.1875 51.21875 25.484375 53.609375 
Q 29.78125 56 35.6875 56 
Q 41.65625 56 45.828125 52.96875 
Q 50 49.953125 52 44.1875 
z
" id="DejaVuSans-109"/>
      <path d="M 34.28125 27.484375 
Q 23.390625 27.484375 19.1875 25 
Q 14.984375 22.515625 14.984375 16.5 
Q 14.984375 11.71875 18.140625 8.90625 
Q 21.296875 6.109375 26.703125 6.109375 
Q 34.1875 6.109375 38.703125 11.40625 
Q 43.21875 16.703125 43.21875 25.484375 
L 43.21875 27.484375 
z
M 52.203125 31.203125 
L 52.203125 0 
L 43.21875 0 
L 43.21875 8.296875 
Q 40.140625 3.328125 35.546875 0.953125 
Q 30.953125 -1.421875 24.3125 -1.421875 
Q 15.921875 -1.421875 10.953125 3.296875 
Q 6 8.015625 6 15.921875 
Q 6 25.140625 12.171875 29.828125 
Q 18.359375 34.515625 30.609375 34.515625 
L 43.21875 34.515625 
L 43.21875 35.40625 
Q 43.21875 41.609375 39.140625 45 
Q 35.0625 48.390625 27.6875 48.390625 
Q 23 48.390625 18.546875 47.265625 
Q 14.109375 46.140625 10.015625 43.890625 
L 10.015625 52.203125 
Q 14.9375 54.109375 19.578125 55.046875 
Q 24.21875 56 28.609375 56 
Q 40.484375 56 46.34375 49.84375 
Q 52.203125 43.703125 52.203125 31.203125 
z
" id="DejaVuSans-97"/>
      <path d="M 45.40625 27.984375 
Q 45.40625 37.75 41.375 43.109375 
Q 37.359375 48.484375 30.078125 48.484375 
Q 22.859375 48.484375 18.828125 43.109375 
Q 14.796875 37.75 14.796875 27.984375 
Q 14.796875 18.265625 18.828125 12.890625 
Q 22.859375 7.515625 30.078125 7.515625 
Q 37.359375 7.515625 41.375 12.890625 
Q 45.40625 18.265625 45.40625 27.984375 
z
M 54.390625 6.78125 
Q 54.390625 -7.171875 48.1875 -13.984375 
Q 42 -20.796875 29.203125 -20.796875 
Q 24.46875 -20.796875 20.265625 -20.09375 
Q 16.0625 -19.390625 12.109375 -17.921875 
L 12.109375 -9.1875 
Q 16.0625 -11.328125 19.921875 -12.34375 
Q 23.78125 -13.375 27.78125 -13.375 
Q 36.625 -13.375 41.015625 -8.765625 
Q 45.40625 -4.15625 45.40625 5.171875 
L 45.40625 9.625 
Q 42.625 4.78125 38.28125 2.390625 
Q 33.9375 0 27.875 0 
Q 17.828125 0 11.671875 7.65625 
Q 5.515625 15.328125 5.515625 27.984375 
Q 5.515625 40.671875 11.671875 48.328125 
Q 17.828125 56 27.875 56 
Q 33.9375 56 38.28125 53.609375 
Q 42.625 51.21875 45.40625 46.390625 
L 45.40625 54.6875 
L 54.390625 54.6875 
z
" id="DejaVuSans-103"/>
      <path d="M 9.421875 54.6875 
L 18.40625 54.6875 
L 18.40625 0 
L 9.421875 0 
z
M 9.421875 75.984375 
L 18.40625 75.984375 
L 18.40625 64.59375 
L 9.421875 64.59375 
z
" id="DejaVuSans-105"/>
      <path d="M 18.3125 70.21875 
L 18.3125 54.6875 
L 36.8125 54.6875 
L 36.8125 47.703125 
L 18.3125 47.703125 
L 18.3125 18.015625 
Q 18.3125 11.328125 20.140625 9.421875 
Q 21.96875 7.515625 27.59375 7.515625 
L 36.8125 7.515625 
L 36.8125 0 
L 27.59375 0 
Q 17.1875 0 13.234375 3.875 
Q 9.28125 7.765625 9.28125 18.015625 
L 9.28125 47.703125 
L 2.6875 47.703125 
L 2.6875 54.6875 
L 9.28125 54.6875 
L 9.28125 70.21875 
z
" id="DejaVuSans-116"/>
      <path d="M 45.40625 46.390625 
L 45.40625 75.984375 
L 54.390625 75.984375 
L 54.390625 0 
L 45.40625 0 
L 45.40625 8.203125 
Q 42.578125 3.328125 38.25 0.953125 
Q 33.9375 -1.421875 27.875 -1.421875 
Q 17.96875 -1.421875 11.734375 6.484375 
Q 5.515625 14.40625 5.515625 27.296875 
Q 5.515625 40.1875 11.734375 48.09375 
Q 17.96875 56 27.875 56 
Q 33.9375 56 38.25 53.625 
Q 42.578125 51.265625 45.40625 46.390625 
z
M 14.796875 27.296875 
Q 14.796875 17.390625 18.875 11.75 
Q 22.953125 6.109375 30.078125 6.109375 
Q 37.203125 6.109375 41.296875 11.75 
Q 45.40625 17.390625 45.40625 27.296875 
Q 45.40625 37.203125 41.296875 42.84375 
Q 37.203125 48.484375 30.078125 48.484375 
Q 22.953125 48.484375 18.875 42.84375 
Q 14.796875 37.203125 14.796875 27.296875 
z
" id="DejaVuSans-100"/>
     </defs>
     <g transform="translate(107.599375 217.339063)rotate(-90)scale(0.12 -0.12)">
      <use xlink:href="#DejaVuSans-109"/>
      <use x="97.412109" xlink:href="#DejaVuSans-97"/>
      <use x="158.691406" xlink:href="#DejaVuSans-103"/>
      <use x="222.167969" xlink:href="#DejaVuSans-110"/>
      <use x="285.546875" xlink:href="#DejaVuSans-105"/>
      <use x="313.330078" xlink:href="#DejaVuSans-116"/>
      <use x="352.539062" xlink:href="#DejaVuSans-117"/>
      <use x="415.917969" xlink:href="#DejaVuSans-100"/>
      <use x="479.394531" xlink:href="#DejaVuSans-101"/>
      <use x="540.917969" xlink:href="#DejaVuSans-32"/>
      <use x="572.705078" xlink:href="#DejaVuSans-91"/>
      <use x="611.71875" xlink:href="#DejaVuSans-93"/>
     </g>
    </g>
   </g>
   <g id="line2d_14">
    <path clip-path="url(#p89a1f94ecf)" d="M 383.394097 179.608941 
L 383.391411 179.737019 
L 383.388175 179.877575 
L 383.384277 180.031823 
L 383.379583 180.201093 
L 383.373929 180.386844 
L 383.367119 180.590678 
L 383.358918 180.814346 
L 383.349041 181.059771 
L 383.337146 181.329058 
L 383.322822 181.624512 
L 383.305572 181.948656 
L 383.2848 182.304248 
L 383.25979 182.694307 
L 383.229677 183.122126 
L 383.193424 183.591301 
L 383.149784 184.10575 
L 383.097259 184.669737 
L 383.034047 185.287893 
L 382.957989 185.965237 
L 382.866495 186.707194 
L 382.756459 187.51961 
L 382.624166 188.408755 
L 382.465173 189.381323 
L 382.274178 190.444413 
L 382.044866 191.605495 
L 381.769729 192.872345 
L 381.439866 194.252952 
L 381.044765 195.755373 
L 380.572055 197.387542 
L 380.007252 199.156993 
L 379.333498 201.0705 
L 378.531316 203.133612 
L 377.578404 205.350047 
L 376.449501 207.720953 
L 375.116393 210.244002 
L 373.548096 212.912334 
L 371.711322 215.713358 
L 369.571305 218.627475 
L 367.093089 221.626809 
L 364.24334 224.674087 
L 360.992745 227.721886 
L 357.318933 230.712481 
L 353.209802 233.5786 
L 348.66694 236.245308 
L 343.708721 238.633214 
L 338.372529 240.662953 
L 332.715531 242.260678 
L 326.813539 243.364001 
L 320.757743 243.927597 
L 314.649494 243.927597 
L 308.593698 243.364001 
L 302.691706 242.260678 
L 297.034708 240.662953 
L 291.698516 238.633214 
L 286.740297 236.245308 
L 282.197435 233.5786 
L 278.088304 230.712481 
L 274.414492 227.721886 
L 271.163896 224.674087 
L 268.314148 221.626809 
L 265.835932 218.627475 
L 263.695915 215.713358 
L 261.859141 212.912334 
L 260.290843 210.244002 
L 258.957735 207.720953 
L 257.828833 205.350047 
L 256.87592 203.133612 
L 256.073739 201.0705 
L 255.399985 199.156993 
L 254.835182 197.387542 
L 254.362472 195.755373 
L 253.967371 194.252952 
L 253.637508 192.872345 
L 253.362371 191.605495 
L 253.133058 190.444413 
L 252.942064 189.381323 
L 252.783071 188.408755 
L 252.650778 187.51961 
L 252.540742 186.707194 
L 252.449247 185.965237 
L 252.37319 185.287893 
L 252.309978 184.669737 
L 252.257452 184.10575 
L 252.213813 183.591301 
L 252.17756 183.122126 
L 252.147447 182.694307 
L 252.122437 182.304248 
L 252.101665 181.948656 
L 252.084415 181.624512 
L 252.070091 181.329058 
L 252.058196 181.059771 
L 252.048319 180.814346 
L 252.040118 180.590678 
L 252.033308 180.386844 
L 252.027654 180.201093 
L 252.02296 180.031823 
L 252.019062 179.877575 
L 252.015826 179.737019 
L 252.013139 179.608941 
" style="fill:none;stroke:#0000ff;stroke-linecap:square;stroke-width:2;"/>
   </g>
   <g id="patch_3">
    <path d="M 389.905 178.295 
C 389.905 160.185481 386.33782 142.252055 379.407607 125.521041 
C 372.477394 108.790028 362.318924 93.586803 349.513561 80.781439 
C 336.708197 67.976076 321.504972 57.817606 304.773959 50.887393 
C 288.042945 43.95718 270.109519 40.39 252 40.39 
C 233.890481 40.39 215.957055 43.95718 199.226041 50.887393 
C 182.495028 57.817606 167.291803 67.976076 154.486439 80.781439 
C 141.681076 93.586803 131.522606 108.790028 124.592393 125.521041 
C 117.66218 142.252055 114.095 160.185481 114.095 178.295 
C 114.095 196.404519 117.66218 214.337945 124.592393 231.068959 
C 131.522606 247.799972 141.681076 263.003197 154.486439 275.808561 
C 167.291803 288.613924 182.495028 298.772394 199.226041 305.702607 
C 215.957055 312.63282 233.890481 316.2 252 316.2 
C 270.109519 316.2 288.042945 312.63282 304.773959 305.702607 
C 321.504972 298.772394 336.708197 288.613924 349.513561 275.808561 
C 362.318924 263.003197 372.477394 247.799972 379.407607 231.068959 
C 386.33782 214.337945 389.905 196.404519 389.905 178.295 
" style="fill:none;stroke:#000000;stroke-linecap:square;stroke-linejoin:miter;stroke-width:0.8;"/>
   </g>
   <g id="text_16">
    <!-- Polar plot -->
    <defs>
     <path d="M 19.671875 64.796875 
L 19.671875 37.40625 
L 32.078125 37.40625 
Q 38.96875 37.40625 42.71875 40.96875 
Q 46.484375 44.53125 46.484375 51.125 
Q 46.484375 57.671875 42.71875 61.234375 
Q 38.96875 64.796875 32.078125 64.796875 
z
M 9.8125 72.90625 
L 32.078125 72.90625 
Q 44.34375 72.90625 50.609375 67.359375 
Q 56.890625 61.8125 56.890625 51.125 
Q 56.890625 40.328125 50.609375 34.8125 
Q 44.34375 29.296875 32.078125 29.296875 
L 19.671875 29.296875 
L 19.671875 0 
L 9.8125 0 
z
" id="DejaVuSans-80"/>
     <path d="M 30.609375 48.390625 
Q 23.390625 48.390625 19.1875 42.75 
Q 14.984375 37.109375 14.984375 27.296875 
Q 14.984375 17.484375 19.15625 11.84375 
Q 23.34375 6.203125 30.609375 6.203125 
Q 37.796875 6.203125 41.984375 11.859375 
Q 46.1875 17.53125 46.1875 27.296875 
Q 46.1875 37.015625 41.984375 42.703125 
Q 37.796875 48.390625 30.609375 48.390625 
z
M 30.609375 56 
Q 42.328125 56 49.015625 48.375 
Q 55.71875 40.765625 55.71875 27.296875 
Q 55.71875 13.875 49.015625 6.21875 
Q 42.328125 -1.421875 30.609375 -1.421875 
Q 18.84375 -1.421875 12.171875 6.21875 
Q 5.515625 13.875 5.515625 27.296875 
Q 5.515625 40.765625 12.171875 48.375 
Q 18.84375 56 30.609375 56 
z
" id="DejaVuSans-111"/>
     <path d="M 9.421875 75.984375 
L 18.40625 75.984375 
L 18.40625 0 
L 9.421875 0 
z
" id="DejaVuSans-108"/>
     <path d="M 18.109375 8.203125 
L 18.109375 -20.796875 
L 9.078125 -20.796875 
L 9.078125 54.6875 
L 18.109375 54.6875 
L 18.109375 46.390625 
Q 20.953125 51.265625 25.265625 53.625 
Q 29.59375 56 35.59375 56 
Q 45.5625 56 51.78125 48.09375 
Q 58.015625 40.1875 58.015625 27.296875 
Q 58.015625 14.40625 51.78125 6.484375 
Q 45.5625 -1.421875 35.59375 -1.421875 
Q 29.59375 -1.421875 25.265625 0.953125 
Q 20.953125 3.328125 18.109375 8.203125 
z
M 48.6875 27.296875 
Q 48.6875 37.203125 44.609375 42.84375 
Q 40.53125 48.484375 33.40625 48.484375 
Q 26.265625 48.484375 22.1875 42.84375 
Q 18.109375 37.203125 18.109375 27.296875 
Q 18.109375 17.390625 22.1875 11.75 
Q 26.265625 6.109375 33.40625 6.109375 
Q 40.53125 6.109375 44.609375 11.75 
Q 48.6875 17.390625 48.6875 27.296875 
z
" id="DejaVuSans-112"/>
    </defs>
    <g transform="translate(223.711875 20.5995)scale(0.12 -0.12)">
     <use xlink:href="#DejaVuSans-80"/>
     <use x="56.677734" xlink:href="#DejaVuSans-111"/>
     <use x="117.859375" xlink:href="#DejaVuSans-108"/>
     <use x="145.642578" xlink:href="#DejaVuSans-97"/>
     <use x="206.921875" xlink:href="#DejaVuSans-114"/>
     <use x="248.035156" xlink:href="#DejaVuSans-32"/>
     <use x="279.822266" xlink:href="#DejaVuSans-112"/>
     <use x="343.298828" xlink:href="#DejaVuSans-108"/>
     <use x="371.082031" xlink:href="#DejaVuSans-111"/>
     <use x="432.263672" xlink:href="#DejaVuSans-116"/>
    </g>
   </g>
   <g id="legend_1">
    <g id="patch_4">
     <path d="M 344.994375 61.00375 
L 382.905 61.00375 
Q 384.905 61.00375 384.905 59.00375 
L 384.905 47.39 
Q 384.905 45.39 382.905 45.39 
L 344.994375 45.39 
Q 342.994375 45.39 342.994375 47.39 
L 342.994375 59.00375 
Q 342.994375 61.00375 344.994375 61.00375 
z
" style="fill:#ffffff;opacity:0.8;stroke:#cccccc;stroke-linejoin:miter;"/>
    </g>
    <g id="line2d_15">
     <path d="M 344.994375 53.008125 
L 354.994375 53.008125 
" style="fill:none;stroke:#0000ff;stroke-linecap:square;stroke-width:2;"/>
    </g>
    <g id="line2d_16"/>
    <g id="text_17">
     <!-- gain -->
     <g transform="translate(356.994375 56.508125)scale(0.12 -0.12)">
      <use xlink:href="#DejaVuSans-103"/>
      <use x="63.476562" xlink:href="#DejaVuSans-97"/>
      <use x="124.755859" xlink:href="#DejaVuSans-105"/>
      <use x="152.539062" xlink:href="#DejaVuSans-110"/>
     </g>
    </g>
   </g>
  </g>
 </g>
 <defs>
  <clipPath id="p89a1f94ecf">
   <path d="M 389.905 178.295 
C 389.905 160.185481 386.33782 142.252055 379.407607 125.521041 
C 372.477394 108.790028 362.318924 93.586803 349.513561 80.781439 
C 336.708197 67.976076 321.504972 57.817606 304.773959 50.887393 
C 288.042945 43.95718 270.109519 40.39 252 40.39 
C 233.890481 40.39 215.957055 43.95718 199.226041 50.887393 
C 182.495028 57.817606 167.291803 67.976076 154.486439 80.781439 
C 141.681076 93.586803 131.522606 108.790028 124.592393 125.521041 
C 117.66218 142.252055 114.095 160.185481 114.095 178.295 
C 114.095 196.404519 117.66218 214.337945 124.592393 231.068959 
C 131.522606 247.799972 141.681076 263.003197 154.486439 275.808561 
C 167.291803 288.613924 182.495028 298.772394 199.226041 305.702607 
C 215.957055 312.63282 233.890481 316.2 252 316.2 
C 270.109519 316.2 288.042945 312.63282 304.773959 305.702607 
C 321.504972 298.772394 336.708197 288.613924 349.513561 275.808561 
C 362.318924 263.003197 372.477394 247.799972 379.407607 231.068959 
C 386.33782 214.337945 389.905 196.404519 389.905 178.295 
M 252 178.295 
C 252 178.295 252 178.295 252 178.295 
C 252 178.295 252 178.295 252 178.295 
C 252 178.295 252 178.295 252 178.295 
C 252 178.295 252 178.295 252 178.295 
C 252 178.295 252 178.295 252 178.295 
C 252 178.295 252 178.295 252 178.295 
C 252 178.295 252 178.295 252 178.295 
C 252 178.295 252 178.295 252 178.295 
C 252 178.295 252 178.295 252 178.295 
C 252 178.295 252 178.295 252 178.295 
C 252 178.295 252 178.295 252 178.295 
C 252 178.295 252 178.295 252 178.295 
C 252 178.295 252 178.295 252 178.295 
C 252 178.295 252 178.295 252 178.295 
C 252 178.295 252 178.295 252 178.295 
C 252 178.295 252 178.295 252 178.295 
M 389.905 178.295 
z
"/>
  </clipPath>
 </defs>
</svg>
