<?xml version="1.0" encoding="utf-8" standalone="no"?>
<!DOCTYPE svg PUBLIC "-//W3C//DTD SVG 1.1//EN"
  "http://www.w3.org/Graphics/SVG/1.1/DTD/svg11.dtd">
<svg height="360pt" version="1.1" viewBox="0 0 504 360" width="504pt" xmlns="http://www.w3.org/2000/svg" xmlns:xlink="http://www.w3.org/1999/xlink">
 <metadata>
  <rdf:RDF xmlns:cc="http://creativecommons.org/ns#" xmlns:dc="http://purl.org/dc/elements/1.1/" xmlns:rdf="http://www.w3.org/1999/02/22-rdf-syntax-ns#">
   <cc:Work>
    <dc:type rdf:resource="http://purl.org/dc/dcmitype/StillImage"/>
    <dc:date>2023-06-12T11:38:03.589650</dc:date>
    <dc:format>image/svg+xml</dc:format>
    <dc:creator>
     <cc:Agent>
      <dc:title>Matplotlib v3.4.2, https://matplotlib.org/</dc:title>
     </cc:Agent>
    </dc:creator>
   </cc:Work>
  </rdf:RDF>
 </metadata>
 <defs>
  <style type="text/css">*{stroke-linecap:butt;stroke-linejoin:round;}</style>
 </defs>
 <g id="figure_1">
  <g id="patch_1">
   <path d="M 0 360 
L 504 360 
L 504 0 
L 0 0 
z
" style="fill:#ffffff;"/>
  </g>
  <g id="axes_1">
   <g id="patch_2">
    <path d="M 55.6125 310.2625 
L 493.2 310.2625 
L 493.2 28.8 
L 55.6125 28.8 
z
" style="fill:#ffffff;"/>
   </g>
   <g id="matplotlib.axis_1">
    <g id="xtick_1">
     <g id="line2d_1">
      <path clip-path="url(#p6c85e6946b)" d="M 106.908642 310.2625 
L 106.908642 28.8 
" style="fill:none;stroke:#808080;stroke-linecap:square;stroke-width:0.8;"/>
     </g>
     <g id="line2d_2">
      <defs>
       <path d="M 0 0 
L 0 3.5 
" id="m295074b856" style="stroke:#000000;stroke-width:0.8;"/>
      </defs>
      <g>
       <use style="stroke:#000000;stroke-width:0.8;" x="106.908642" xlink:href="#m295074b856" y="310.2625"/>
      </g>
     </g>
     <g id="text_1">
      <!-- 25 -->
      <g transform="translate(99.273642 326.380625)scale(0.12 -0.12)">
       <defs>
        <path d="M 1228 531 
L 3431 531 
L 3431 0 
L 469 0 
L 469 531 
Q 828 903 1448 1529 
Q 2069 2156 2228 2338 
Q 2531 2678 2651 2914 
Q 2772 3150 2772 3378 
Q 2772 3750 2511 3984 
Q 2250 4219 1831 4219 
Q 1534 4219 1204 4116 
Q 875 4013 500 3803 
L 500 4441 
Q 881 4594 1212 4672 
Q 1544 4750 1819 4750 
Q 2544 4750 2975 4387 
Q 3406 4025 3406 3419 
Q 3406 3131 3298 2873 
Q 3191 2616 2906 2266 
Q 2828 2175 2409 1742 
Q 1991 1309 1228 531 
z
" id="DejaVuSans-32" transform="scale(0.015625)"/>
        <path d="M 691 4666 
L 3169 4666 
L 3169 4134 
L 1269 4134 
L 1269 2991 
Q 1406 3038 1543 3061 
Q 1681 3084 1819 3084 
Q 2600 3084 3056 2656 
Q 3513 2228 3513 1497 
Q 3513 744 3044 326 
Q 2575 -91 1722 -91 
Q 1428 -91 1123 -41 
Q 819 9 494 109 
L 494 744 
Q 775 591 1075 516 
Q 1375 441 1709 441 
Q 2250 441 2565 725 
Q 2881 1009 2881 1497 
Q 2881 1984 2565 2268 
Q 2250 2553 1709 2553 
Q 1456 2553 1204 2497 
Q 953 2441 691 2322 
L 691 4666 
z
" id="DejaVuSans-35" transform="scale(0.015625)"/>
       </defs>
       <use xlink:href="#DejaVuSans-32"/>
       <use x="63.623047" xlink:href="#DejaVuSans-35"/>
      </g>
     </g>
    </g>
    <g id="xtick_2">
     <g id="line2d_3">
      <path clip-path="url(#p6c85e6946b)" d="M 159.251645 310.2625 
L 159.251645 28.8 
" style="fill:none;stroke:#808080;stroke-linecap:square;stroke-width:0.8;"/>
     </g>
     <g id="line2d_4">
      <g>
       <use style="stroke:#000000;stroke-width:0.8;" x="159.251645" xlink:href="#m295074b856" y="310.2625"/>
      </g>
     </g>
     <g id="text_2">
      <!-- 50 -->
      <g transform="translate(151.616645 326.380625)scale(0.12 -0.12)">
       <defs>
        <path d="M 2034 4250 
Q 1547 4250 1301 3770 
Q 1056 3291 1056 2328 
Q 1056 1369 1301 889 
Q 1547 409 2034 409 
Q 2525 409 2770 889 
Q 3016 1369 3016 2328 
Q 3016 3291 2770 3770 
Q 2525 4250 2034 4250 
z
M 2034 4750 
Q 2819 4750 3233 4129 
Q 3647 3509 3647 2328 
Q 3647 1150 3233 529 
Q 2819 -91 2034 -91 
Q 1250 -91 836 529 
Q 422 1150 422 2328 
Q 422 3509 836 4129 
Q 1250 4750 2034 4750 
z
" id="DejaVuSans-30" transform="scale(0.015625)"/>
       </defs>
       <use xlink:href="#DejaVuSans-35"/>
       <use x="63.623047" xlink:href="#DejaVuSans-30"/>
      </g>
     </g>
    </g>
    <g id="xtick_3">
     <g id="line2d_5">
      <path clip-path="url(#p6c85e6946b)" d="M 211.594647 310.2625 
L 211.594647 28.8 
" style="fill:none;stroke:#808080;stroke-linecap:square;stroke-width:0.8;"/>
     </g>
     <g id="line2d_6">
      <g>
       <use style="stroke:#000000;stroke-width:0.8;" x="211.594647" xlink:href="#m295074b856" y="310.2625"/>
      </g>
     </g>
     <g id="text_3">
      <!-- 75 -->
      <g transform="translate(203.959647 326.380625)scale(0.12 -0.12)">
       <defs>
        <path d="M 525 4666 
L 3525 4666 
L 3525 4397 
L 1831 0 
L 1172 0 
L 2766 4134 
L 525 4134 
L 525 4666 
z
" id="DejaVuSans-37" transform="scale(0.015625)"/>
       </defs>
       <use xlink:href="#DejaVuSans-37"/>
       <use x="63.623047" xlink:href="#DejaVuSans-35"/>
      </g>
     </g>
    </g>
    <g id="xtick_4">
     <g id="line2d_7">
      <path clip-path="url(#p6c85e6946b)" d="M 263.93765 310.2625 
L 263.93765 28.8 
" style="fill:none;stroke:#808080;stroke-linecap:square;stroke-width:0.8;"/>
     </g>
     <g id="line2d_8">
      <g>
       <use style="stroke:#000000;stroke-width:0.8;" x="263.93765" xlink:href="#m295074b856" y="310.2625"/>
      </g>
     </g>
     <g id="text_4">
      <!-- 100 -->
      <g transform="translate(252.48515 326.380625)scale(0.12 -0.12)">
       <defs>
        <path d="M 794 531 
L 1825 531 
L 1825 4091 
L 703 3866 
L 703 4441 
L 1819 4666 
L 2450 4666 
L 2450 531 
L 3481 531 
L 3481 0 
L 794 0 
L 794 531 
z
" id="DejaVuSans-31" transform="scale(0.015625)"/>
       </defs>
       <use xlink:href="#DejaVuSans-31"/>
       <use x="63.623047" xlink:href="#DejaVuSans-30"/>
       <use x="127.246094" xlink:href="#DejaVuSans-30"/>
      </g>
     </g>
    </g>
    <g id="xtick_5">
     <g id="line2d_9">
      <path clip-path="url(#p6c85e6946b)" d="M 316.280652 310.2625 
L 316.280652 28.8 
" style="fill:none;stroke:#808080;stroke-linecap:square;stroke-width:0.8;"/>
     </g>
     <g id="line2d_10">
      <g>
       <use style="stroke:#000000;stroke-width:0.8;" x="316.280652" xlink:href="#m295074b856" y="310.2625"/>
      </g>
     </g>
     <g id="text_5">
      <!-- 125 -->
      <g transform="translate(304.828152 326.380625)scale(0.12 -0.12)">
       <use xlink:href="#DejaVuSans-31"/>
       <use x="63.623047" xlink:href="#DejaVuSans-32"/>
       <use x="127.246094" xlink:href="#DejaVuSans-35"/>
      </g>
     </g>
    </g>
    <g id="xtick_6">
     <g id="line2d_11">
      <path clip-path="url(#p6c85e6946b)" d="M 368.623654 310.2625 
L 368.623654 28.8 
" style="fill:none;stroke:#808080;stroke-linecap:square;stroke-width:0.8;"/>
     </g>
     <g id="line2d_12">
      <g>
       <use style="stroke:#000000;stroke-width:0.8;" x="368.623654" xlink:href="#m295074b856" y="310.2625"/>
      </g>
     </g>
     <g id="text_6">
      <!-- 150 -->
      <g transform="translate(357.171154 326.380625)scale(0.12 -0.12)">
       <use xlink:href="#DejaVuSans-31"/>
       <use x="63.623047" xlink:href="#DejaVuSans-35"/>
       <use x="127.246094" xlink:href="#DejaVuSans-30"/>
      </g>
     </g>
    </g>
    <g id="xtick_7">
     <g id="line2d_13">
      <path clip-path="url(#p6c85e6946b)" d="M 420.966657 310.2625 
L 420.966657 28.8 
" style="fill:none;stroke:#808080;stroke-linecap:square;stroke-width:0.8;"/>
     </g>
     <g id="line2d_14">
      <g>
       <use style="stroke:#000000;stroke-width:0.8;" x="420.966657" xlink:href="#m295074b856" y="310.2625"/>
      </g>
     </g>
     <g id="text_7">
      <!-- 175 -->
      <g transform="translate(409.514157 326.380625)scale(0.12 -0.12)">
       <use xlink:href="#DejaVuSans-31"/>
       <use x="63.623047" xlink:href="#DejaVuSans-37"/>
       <use x="127.246094" xlink:href="#DejaVuSans-35"/>
      </g>
     </g>
    </g>
    <g id="xtick_8">
     <g id="line2d_15">
      <path clip-path="url(#p6c85e6946b)" d="M 473.309659 310.2625 
L 473.309659 28.8 
" style="fill:none;stroke:#808080;stroke-linecap:square;stroke-width:0.8;"/>
     </g>
     <g id="line2d_16">
      <g>
       <use style="stroke:#000000;stroke-width:0.8;" x="473.309659" xlink:href="#m295074b856" y="310.2625"/>
      </g>
     </g>
     <g id="text_8">
      <!-- 200 -->
      <g transform="translate(461.857159 326.380625)scale(0.12 -0.12)">
       <use xlink:href="#DejaVuSans-32"/>
       <use x="63.623047" xlink:href="#DejaVuSans-30"/>
       <use x="127.246094" xlink:href="#DejaVuSans-30"/>
      </g>
     </g>
    </g>
    <g id="text_9">
     <!-- $W$ [um] -->
     <g transform="translate(252.20625 341.994375)scale(0.12 -0.12)">
      <defs>
       <path d="M 616 4666 
L 1228 4666 
L 1453 697 
L 3213 4666 
L 3916 4666 
L 4147 697 
L 5888 4666 
L 6528 4666 
L 4453 0 
L 3659 0 
L 3444 3891 
L 1697 0 
L 903 0 
L 616 4666 
z
" id="DejaVuSans-Oblique-57" transform="scale(0.015625)"/>
       <path id="DejaVuSans-20" transform="scale(0.015625)"/>
       <path d="M 550 4863 
L 1875 4863 
L 1875 4416 
L 1125 4416 
L 1125 -397 
L 1875 -397 
L 1875 -844 
L 550 -844 
L 550 4863 
z
" id="DejaVuSans-5b" transform="scale(0.015625)"/>
       <path d="M 544 1381 
L 544 3500 
L 1119 3500 
L 1119 1403 
Q 1119 906 1312 657 
Q 1506 409 1894 409 
Q 2359 409 2629 706 
Q 2900 1003 2900 1516 
L 2900 3500 
L 3475 3500 
L 3475 0 
L 2900 0 
L 2900 538 
Q 2691 219 2414 64 
Q 2138 -91 1772 -91 
Q 1169 -91 856 284 
Q 544 659 544 1381 
z
M 1991 3584 
L 1991 3584 
z
" id="DejaVuSans-75" transform="scale(0.015625)"/>
       <path d="M 3328 2828 
Q 3544 3216 3844 3400 
Q 4144 3584 4550 3584 
Q 5097 3584 5394 3201 
Q 5691 2819 5691 2113 
L 5691 0 
L 5113 0 
L 5113 2094 
Q 5113 2597 4934 2840 
Q 4756 3084 4391 3084 
Q 3944 3084 3684 2787 
Q 3425 2491 3425 1978 
L 3425 0 
L 2847 0 
L 2847 2094 
Q 2847 2600 2669 2842 
Q 2491 3084 2119 3084 
Q 1678 3084 1418 2786 
Q 1159 2488 1159 1978 
L 1159 0 
L 581 0 
L 581 3500 
L 1159 3500 
L 1159 2956 
Q 1356 3278 1631 3431 
Q 1906 3584 2284 3584 
Q 2666 3584 2933 3390 
Q 3200 3197 3328 2828 
z
" id="DejaVuSans-6d" transform="scale(0.015625)"/>
       <path d="M 1947 4863 
L 1947 -844 
L 622 -844 
L 622 -397 
L 1369 -397 
L 1369 4416 
L 622 4416 
L 622 4863 
L 1947 4863 
z
" id="DejaVuSans-5d" transform="scale(0.015625)"/>
      </defs>
      <use transform="translate(0 0.015625)" xlink:href="#DejaVuSans-Oblique-57"/>
      <use transform="translate(98.876953 0.015625)" xlink:href="#DejaVuSans-20"/>
      <use transform="translate(130.664062 0.015625)" xlink:href="#DejaVuSans-5b"/>
      <use transform="translate(169.677734 0.015625)" xlink:href="#DejaVuSans-75"/>
      <use transform="translate(233.056641 0.015625)" xlink:href="#DejaVuSans-6d"/>
      <use transform="translate(330.46875 0.015625)" xlink:href="#DejaVuSans-5d"/>
     </g>
    </g>
   </g>
   <g id="matplotlib.axis_2">
    <g id="ytick_1">
     <g id="line2d_17">
      <path clip-path="url(#p6c85e6946b)" d="M 55.6125 283.454559 
L 493.2 283.454559 
" style="fill:none;stroke:#808080;stroke-linecap:square;stroke-width:0.8;"/>
     </g>
     <g id="line2d_18">
      <defs>
       <path d="M 0 0 
L -3.5 0 
" id="m9c21238932" style="stroke:#000000;stroke-width:0.8;"/>
      </defs>
      <g>
       <use style="stroke:#000000;stroke-width:0.8;" x="55.6125" xlink:href="#m9c21238932" y="283.454559"/>
      </g>
     </g>
     <g id="text_10">
      <!-- 0.5 -->
      <g transform="translate(29.52875 288.013622)scale(0.12 -0.12)">
       <defs>
        <path d="M 684 794 
L 1344 794 
L 1344 0 
L 684 0 
L 684 794 
z
" id="DejaVuSans-2e" transform="scale(0.015625)"/>
       </defs>
       <use xlink:href="#DejaVuSans-30"/>
       <use x="63.623047" xlink:href="#DejaVuSans-2e"/>
       <use x="95.410156" xlink:href="#DejaVuSans-35"/>
      </g>
     </g>
    </g>
    <g id="ytick_2">
     <g id="line2d_19">
      <path clip-path="url(#p6c85e6946b)" d="M 55.6125 246.493386 
L 493.2 246.493386 
" style="fill:none;stroke:#808080;stroke-linecap:square;stroke-width:0.8;"/>
     </g>
     <g id="line2d_20">
      <g>
       <use style="stroke:#000000;stroke-width:0.8;" x="55.6125" xlink:href="#m9c21238932" y="246.493386"/>
      </g>
     </g>
     <g id="text_11">
      <!-- 1.0 -->
      <g transform="translate(29.52875 251.052449)scale(0.12 -0.12)">
       <use xlink:href="#DejaVuSans-31"/>
       <use x="63.623047" xlink:href="#DejaVuSans-2e"/>
       <use x="95.410156" xlink:href="#DejaVuSans-30"/>
      </g>
     </g>
    </g>
    <g id="ytick_3">
     <g id="line2d_21">
      <path clip-path="url(#p6c85e6946b)" d="M 55.6125 209.532213 
L 493.2 209.532213 
" style="fill:none;stroke:#808080;stroke-linecap:square;stroke-width:0.8;"/>
     </g>
     <g id="line2d_22">
      <g>
       <use style="stroke:#000000;stroke-width:0.8;" x="55.6125" xlink:href="#m9c21238932" y="209.532213"/>
      </g>
     </g>
     <g id="text_12">
      <!-- 1.5 -->
      <g transform="translate(29.52875 214.091276)scale(0.12 -0.12)">
       <use xlink:href="#DejaVuSans-31"/>
       <use x="63.623047" xlink:href="#DejaVuSans-2e"/>
       <use x="95.410156" xlink:href="#DejaVuSans-35"/>
      </g>
     </g>
    </g>
    <g id="ytick_4">
     <g id="line2d_23">
      <path clip-path="url(#p6c85e6946b)" d="M 55.6125 172.57104 
L 493.2 172.57104 
" style="fill:none;stroke:#808080;stroke-linecap:square;stroke-width:0.8;"/>
     </g>
     <g id="line2d_24">
      <g>
       <use style="stroke:#000000;stroke-width:0.8;" x="55.6125" xlink:href="#m9c21238932" y="172.57104"/>
      </g>
     </g>
     <g id="text_13">
      <!-- 2.0 -->
      <g transform="translate(29.52875 177.130102)scale(0.12 -0.12)">
       <use xlink:href="#DejaVuSans-32"/>
       <use x="63.623047" xlink:href="#DejaVuSans-2e"/>
       <use x="95.410156" xlink:href="#DejaVuSans-30"/>
      </g>
     </g>
    </g>
    <g id="ytick_5">
     <g id="line2d_25">
      <path clip-path="url(#p6c85e6946b)" d="M 55.6125 135.609867 
L 493.2 135.609867 
" style="fill:none;stroke:#808080;stroke-linecap:square;stroke-width:0.8;"/>
     </g>
     <g id="line2d_26">
      <g>
       <use style="stroke:#000000;stroke-width:0.8;" x="55.6125" xlink:href="#m9c21238932" y="135.609867"/>
      </g>
     </g>
     <g id="text_14">
      <!-- 2.5 -->
      <g transform="translate(29.52875 140.168929)scale(0.12 -0.12)">
       <use xlink:href="#DejaVuSans-32"/>
       <use x="63.623047" xlink:href="#DejaVuSans-2e"/>
       <use x="95.410156" xlink:href="#DejaVuSans-35"/>
      </g>
     </g>
    </g>
    <g id="ytick_6">
     <g id="line2d_27">
      <path clip-path="url(#p6c85e6946b)" d="M 55.6125 98.648694 
L 493.2 98.648694 
" style="fill:none;stroke:#808080;stroke-linecap:square;stroke-width:0.8;"/>
     </g>
     <g id="line2d_28">
      <g>
       <use style="stroke:#000000;stroke-width:0.8;" x="55.6125" xlink:href="#m9c21238932" y="98.648694"/>
      </g>
     </g>
     <g id="text_15">
      <!-- 3.0 -->
      <g transform="translate(29.52875 103.207756)scale(0.12 -0.12)">
       <defs>
        <path d="M 2597 2516 
Q 3050 2419 3304 2112 
Q 3559 1806 3559 1356 
Q 3559 666 3084 287 
Q 2609 -91 1734 -91 
Q 1441 -91 1130 -33 
Q 819 25 488 141 
L 488 750 
Q 750 597 1062 519 
Q 1375 441 1716 441 
Q 2309 441 2620 675 
Q 2931 909 2931 1356 
Q 2931 1769 2642 2001 
Q 2353 2234 1838 2234 
L 1294 2234 
L 1294 2753 
L 1863 2753 
Q 2328 2753 2575 2939 
Q 2822 3125 2822 3475 
Q 2822 3834 2567 4026 
Q 2313 4219 1838 4219 
Q 1578 4219 1281 4162 
Q 984 4106 628 3988 
L 628 4550 
Q 988 4650 1302 4700 
Q 1616 4750 1894 4750 
Q 2613 4750 3031 4423 
Q 3450 4097 3450 3541 
Q 3450 3153 3228 2886 
Q 3006 2619 2597 2516 
z
" id="DejaVuSans-33" transform="scale(0.015625)"/>
       </defs>
       <use xlink:href="#DejaVuSans-33"/>
       <use x="63.623047" xlink:href="#DejaVuSans-2e"/>
       <use x="95.410156" xlink:href="#DejaVuSans-30"/>
      </g>
     </g>
    </g>
    <g id="ytick_7">
     <g id="line2d_29">
      <path clip-path="url(#p6c85e6946b)" d="M 55.6125 61.687521 
L 493.2 61.687521 
" style="fill:none;stroke:#808080;stroke-linecap:square;stroke-width:0.8;"/>
     </g>
     <g id="line2d_30">
      <g>
       <use style="stroke:#000000;stroke-width:0.8;" x="55.6125" xlink:href="#m9c21238932" y="61.687521"/>
      </g>
     </g>
     <g id="text_16">
      <!-- 3.5 -->
      <g transform="translate(29.52875 66.246583)scale(0.12 -0.12)">
       <use xlink:href="#DejaVuSans-33"/>
       <use x="63.623047" xlink:href="#DejaVuSans-2e"/>
       <use x="95.410156" xlink:href="#DejaVuSans-35"/>
      </g>
     </g>
    </g>
    <g id="text_17">
     <!-- $NF\,$ [dB] -->
     <g transform="translate(23.033125 192.99125)rotate(-90)scale(0.12 -0.12)">
      <defs>
       <path d="M 1081 4666 
L 1931 4666 
L 3219 666 
L 4000 4666 
L 4616 4666 
L 3706 0 
L 2853 0 
L 1569 4025 
L 788 0 
L 172 0 
L 1081 4666 
z
" id="DejaVuSans-Oblique-4e" transform="scale(0.015625)"/>
       <path d="M 1081 4666 
L 3756 4666 
L 3653 4134 
L 1606 4134 
L 1338 2759 
L 3188 2759 
L 3084 2228 
L 1234 2228 
L 800 0 
L 172 0 
L 1081 4666 
z
" id="DejaVuSans-Oblique-46" transform="scale(0.015625)"/>
       <path d="M 2906 2969 
L 2906 4863 
L 3481 4863 
L 3481 0 
L 2906 0 
L 2906 525 
Q 2725 213 2448 61 
Q 2172 -91 1784 -91 
Q 1150 -91 751 415 
Q 353 922 353 1747 
Q 353 2572 751 3078 
Q 1150 3584 1784 3584 
Q 2172 3584 2448 3432 
Q 2725 3281 2906 2969 
z
M 947 1747 
Q 947 1113 1208 752 
Q 1469 391 1925 391 
Q 2381 391 2643 752 
Q 2906 1113 2906 1747 
Q 2906 2381 2643 2742 
Q 2381 3103 1925 3103 
Q 1469 3103 1208 2742 
Q 947 2381 947 1747 
z
" id="DejaVuSans-64" transform="scale(0.015625)"/>
       <path d="M 1259 2228 
L 1259 519 
L 2272 519 
Q 2781 519 3026 730 
Q 3272 941 3272 1375 
Q 3272 1813 3026 2020 
Q 2781 2228 2272 2228 
L 1259 2228 
z
M 1259 4147 
L 1259 2741 
L 2194 2741 
Q 2656 2741 2882 2914 
Q 3109 3088 3109 3444 
Q 3109 3797 2882 3972 
Q 2656 4147 2194 4147 
L 1259 4147 
z
M 628 4666 
L 2241 4666 
Q 2963 4666 3353 4366 
Q 3744 4066 3744 3513 
Q 3744 3084 3544 2831 
Q 3344 2578 2956 2516 
Q 3422 2416 3680 2098 
Q 3938 1781 3938 1306 
Q 3938 681 3513 340 
Q 3088 0 2303 0 
L 628 0 
L 628 4666 
z
" id="DejaVuSans-42" transform="scale(0.015625)"/>
      </defs>
      <use transform="translate(0 0.015625)" xlink:href="#DejaVuSans-Oblique-4e"/>
      <use transform="translate(74.804688 0.015625)" xlink:href="#DejaVuSans-Oblique-46"/>
      <use transform="translate(148.559895 0.015625)" xlink:href="#DejaVuSans-20"/>
      <use transform="translate(180.347004 0.015625)" xlink:href="#DejaVuSans-5b"/>
      <use transform="translate(219.360676 0.015625)" xlink:href="#DejaVuSans-64"/>
      <use transform="translate(282.837239 0.015625)" xlink:href="#DejaVuSans-42"/>
      <use transform="translate(351.440754 0.015625)" xlink:href="#DejaVuSans-5d"/>
     </g>
    </g>
   </g>
   <g id="line2d_31">
    <path clip-path="url(#p6c85e6946b)" d="M 75.502841 197.446894 
L 83.621347 226.866653 
L 91.739854 244.578865 
L 99.85836 256.37035 
L 107.976867 264.746392 
L 116.095373 270.971458 
L 124.21388 275.753689 
L 132.332386 279.520847 
L 140.450893 282.546702 
L 148.569399 285.014658 
L 156.687906 287.052216 
L 164.806412 288.75078 
L 172.924919 290.177589 
L 181.043425 291.383216 
L 189.161932 292.406429 
L 197.280438 293.277447 
L 205.398945 294.020175 
L 213.517451 294.653771 
L 221.635958 295.193769 
L 229.754464 295.652896 
L 237.872971 296.041683 
L 245.991477 296.368914 
L 254.109984 296.641976 
L 262.22849 296.867128 
L 270.346997 297.049703 
L 278.465503 297.194281 
L 286.58401 297.30481 
L 294.702516 297.384717 
L 302.821023 297.436985 
L 310.939529 297.46423 
L 319.058036 297.46875 
L 327.176542 297.452574 
L 335.295049 297.417502 
L 343.413555 297.365131 
L 351.532062 297.296889 
L 359.650568 297.214055 
L 367.769075 297.117773 
L 375.887581 297.009078 
L 384.006088 296.888901 
L 392.124594 296.758086 
L 400.243101 296.617399 
L 408.361607 296.467534 
L 416.480114 296.309127 
L 424.59862 296.142757 
L 432.717127 295.968954 
L 440.835633 295.788203 
L 448.95414 295.600951 
L 457.072646 295.40761 
L 465.191153 295.208556 
L 473.309659 295.004141 
" style="fill:none;stroke:#ff0000;stroke-linecap:square;stroke-width:2;"/>
   </g>
   <g id="line2d_32">
    <path clip-path="url(#p6c85e6946b)" d="M 75.502841 195.643005 
L 83.621347 224.127085 
L 91.739854 240.880577 
L 99.85836 251.702899 
L 107.976867 259.105428 
L 116.095373 264.355928 
L 124.21388 268.164467 
L 132.332386 270.960001 
L 140.450893 273.017078 
L 148.569399 274.519615 
L 156.687906 275.59547 
L 164.806412 276.336293 
L 172.924919 276.809497 
L 181.043425 277.065776 
L 189.161932 277.143984 
L 197.280438 277.074398 
L 205.398945 276.880961 
L 213.517451 276.582855 
L 221.635958 276.195625 
L 229.754464 275.732003 
L 237.872971 275.202514 
L 245.991477 274.615933 
L 254.109984 273.979634 
L 262.22849 273.299858 
L 270.346997 272.581921 
L 278.465503 271.830379 
L 286.58401 271.049157 
L 294.702516 270.241657 
L 302.821023 269.410837 
L 310.939529 268.559284 
L 319.058036 267.689271 
L 327.176542 266.802798 
L 335.295049 265.901635 
L 343.413555 264.987353 
L 351.532062 264.061349 
L 359.650568 263.124872 
L 367.769075 262.179041 
L 375.887581 261.224857 
L 384.006088 260.263224 
L 392.124594 259.294956 
L 400.243101 258.320791 
L 408.361607 257.341394 
L 416.480114 256.357371 
L 424.59862 255.369273 
L 432.717127 254.377601 
L 440.835633 253.382812 
L 448.95414 252.385326 
L 457.072646 251.385524 
L 465.191153 250.383758 
L 473.309659 249.380349 
" style="fill:none;stroke:#0000ff;stroke-linecap:square;stroke-width:2;"/>
   </g>
   <g id="line2d_33">
    <path clip-path="url(#p6c85e6946b)" d="M 75.502841 192.697195 
L 83.621347 219.670307 
L 91.739854 234.887496 
L 99.85836 244.168837 
L 107.976867 250.035525 
L 116.095373 253.760469 
L 124.21388 256.056609 
L 132.332386 257.354563 
L 140.450893 257.929839 
L 148.569399 257.9669 
L 156.687906 257.593885 
L 164.806412 256.902555 
L 172.924919 255.96032 
L 181.043425 254.817794 
L 189.161932 253.513698 
L 197.280438 252.078139 
L 205.398945 250.534866 
L 213.517451 248.902847 
L 221.635958 247.197405 
L 229.754464 245.431039 
L 237.872971 243.614038 
L 245.991477 241.75494 
L 254.109984 239.860878 
L 262.22849 237.937857 
L 270.346997 235.990953 
L 278.465503 234.02449 
L 286.58401 232.04216 
L 294.702516 230.047136 
L 302.821023 228.042152 
L 310.939529 226.029573 
L 319.058036 224.011454 
L 327.176542 221.989582 
L 335.295049 219.965516 
L 343.413555 217.940622 
L 351.532062 215.916096 
L 359.650568 213.892989 
L 367.769075 211.872223 
L 375.887581 209.854613 
L 384.006088 207.840876 
L 392.124594 205.831643 
L 400.243101 203.827472 
L 408.361607 201.828855 
L 416.480114 199.836226 
L 424.59862 197.849969 
L 432.717127 195.870419 
L 440.835633 193.897875 
L 448.95414 191.932596 
L 457.072646 189.97481 
L 465.191153 188.024717 
L 473.309659 186.082491 
" style="fill:none;stroke:#008000;stroke-linecap:square;stroke-width:2;"/>
   </g>
   <g id="line2d_34">
    <path clip-path="url(#p6c85e6946b)" d="M 75.502841 188.64066 
L 83.621347 213.567025 
L 91.739854 226.726199 
L 99.85836 233.966206 
L 107.976867 237.820833 
L 116.095373 239.569017 
L 124.21388 239.926555 
L 132.332386 239.325263 
L 140.450893 238.040923 
L 148.569399 236.257741 
L 156.687906 234.10328 
L 164.806412 231.668537 
L 172.924919 229.020053 
L 181.043425 226.207508 
L 189.161932 223.268662 
L 197.280438 220.232651 
L 205.398945 217.122257 
L 213.517451 213.955497 
L 221.635958 210.746759 
L 229.754464 207.507631 
L 237.872971 204.247518 
L 245.991477 200.974096 
L 254.109984 197.693669 
L 262.22849 194.411434 
L 270.346997 191.131693 
L 278.465503 187.858014 
L 286.58401 184.593369 
L 294.702516 181.340227 
L 302.821023 178.100648 
L 310.939529 174.876346 
L 319.058036 171.668746 
L 327.176542 168.479029 
L 335.295049 165.308169 
L 343.413555 162.156967 
L 351.532062 159.026072 
L 359.650568 155.91601 
L 367.769075 152.827195 
L 375.887581 149.75995 
L 384.006088 146.714518 
L 392.124594 143.691072 
L 400.243101 140.689727 
L 408.361607 137.710547 
L 416.480114 134.753552 
L 424.59862 131.818725 
L 432.717127 128.906016 
L 440.835633 126.015346 
L 448.95414 123.146613 
L 457.072646 120.299694 
L 465.191153 117.474449 
L 473.309659 114.670722 
" style="fill:none;stroke:#00bfbf;stroke-linecap:square;stroke-width:2;"/>
   </g>
   <g id="line2d_35">
    <path clip-path="url(#p6c85e6946b)" d="M 75.502841 183.51528 
L 83.621347 205.910428 
L 91.739854 216.560445 
L 99.85836 221.346512 
L 107.976867 222.815658 
L 116.095373 222.251703 
L 124.21388 220.371436 
L 132.332386 217.605723 
L 140.450893 214.228421 
L 148.569399 210.421314 
L 156.687906 206.309323 
L 164.806412 201.980726 
L 172.924919 197.499358 
L 181.043425 192.912255 
L 189.161932 188.254621 
L 197.280438 183.553143 
L 205.398945 178.828262 
L 213.517451 174.095766 
L 221.635958 169.367927 
L 229.754464 164.654328 
L 237.872971 159.962466 
L 245.991477 155.298218 
L 254.109984 150.666177 
L 262.22849 146.06992 
L 270.346997 141.512216 
L 278.465503 136.995179 
L 286.58401 132.520397 
L 294.702516 128.089036 
L 302.821023 123.70191 
L 310.939529 119.359556 
L 319.058036 115.062277 
L 327.176542 110.810188 
L 335.295049 106.603252 
L 343.413555 102.441303 
L 351.532062 98.324076 
L 359.650568 94.251221 
L 367.769075 90.222319 
L 375.887581 86.236898 
L 384.006088 82.294443 
L 392.124594 78.394404 
L 400.243101 74.536206 
L 408.361607 70.719251 
L 416.480114 66.94293 
L 424.59862 63.206619 
L 432.717127 59.509693 
L 440.835633 55.85152 
L 448.95414 52.231467 
L 457.072646 48.648905 
L 465.191153 45.103207 
L 473.309659 41.59375 
" style="fill:none;stroke:#bf00bf;stroke-linecap:square;stroke-width:2;"/>
   </g>
   <g id="patch_3">
    <path d="M 55.6125 310.2625 
L 55.6125 28.8 
" style="fill:none;stroke:#000000;stroke-linecap:square;stroke-linejoin:miter;stroke-width:0.8;"/>
   </g>
   <g id="patch_4">
    <path d="M 493.2 310.2625 
L 493.2 28.8 
" style="fill:none;stroke:#000000;stroke-linecap:square;stroke-linejoin:miter;stroke-width:0.8;"/>
   </g>
   <g id="patch_5">
    <path d="M 55.6125 310.2625 
L 493.2 310.2625 
" style="fill:none;stroke:#000000;stroke-linecap:square;stroke-linejoin:miter;stroke-width:0.8;"/>
   </g>
   <g id="patch_6">
    <path d="M 55.6125 28.8 
L 493.2 28.8 
" style="fill:none;stroke:#000000;stroke-linecap:square;stroke-linejoin:miter;stroke-width:0.8;"/>
   </g>
   <g id="text_18">
    <!-- Noise Figure versus width, $f_{min}$ = 200MHz -->
    <g transform="translate(149.66625 22.8)scale(0.12 -0.12)">
     <defs>
      <path d="M 628 4666 
L 1478 4666 
L 3547 763 
L 3547 4666 
L 4159 4666 
L 4159 0 
L 3309 0 
L 1241 3903 
L 1241 0 
L 628 0 
L 628 4666 
z
" id="DejaVuSans-4e" transform="scale(0.015625)"/>
      <path d="M 1959 3097 
Q 1497 3097 1228 2736 
Q 959 2375 959 1747 
Q 959 1119 1226 758 
Q 1494 397 1959 397 
Q 2419 397 2687 759 
Q 2956 1122 2956 1747 
Q 2956 2369 2687 2733 
Q 2419 3097 1959 3097 
z
M 1959 3584 
Q 2709 3584 3137 3096 
Q 3566 2609 3566 1747 
Q 3566 888 3137 398 
Q 2709 -91 1959 -91 
Q 1206 -91 779 398 
Q 353 888 353 1747 
Q 353 2609 779 3096 
Q 1206 3584 1959 3584 
z
" id="DejaVuSans-6f" transform="scale(0.015625)"/>
      <path d="M 603 3500 
L 1178 3500 
L 1178 0 
L 603 0 
L 603 3500 
z
M 603 4863 
L 1178 4863 
L 1178 4134 
L 603 4134 
L 603 4863 
z
" id="DejaVuSans-69" transform="scale(0.015625)"/>
      <path d="M 2834 3397 
L 2834 2853 
Q 2591 2978 2328 3040 
Q 2066 3103 1784 3103 
Q 1356 3103 1142 2972 
Q 928 2841 928 2578 
Q 928 2378 1081 2264 
Q 1234 2150 1697 2047 
L 1894 2003 
Q 2506 1872 2764 1633 
Q 3022 1394 3022 966 
Q 3022 478 2636 193 
Q 2250 -91 1575 -91 
Q 1294 -91 989 -36 
Q 684 19 347 128 
L 347 722 
Q 666 556 975 473 
Q 1284 391 1588 391 
Q 1994 391 2212 530 
Q 2431 669 2431 922 
Q 2431 1156 2273 1281 
Q 2116 1406 1581 1522 
L 1381 1569 
Q 847 1681 609 1914 
Q 372 2147 372 2553 
Q 372 3047 722 3315 
Q 1072 3584 1716 3584 
Q 2034 3584 2315 3537 
Q 2597 3491 2834 3397 
z
" id="DejaVuSans-73" transform="scale(0.015625)"/>
      <path d="M 3597 1894 
L 3597 1613 
L 953 1613 
Q 991 1019 1311 708 
Q 1631 397 2203 397 
Q 2534 397 2845 478 
Q 3156 559 3463 722 
L 3463 178 
Q 3153 47 2828 -22 
Q 2503 -91 2169 -91 
Q 1331 -91 842 396 
Q 353 884 353 1716 
Q 353 2575 817 3079 
Q 1281 3584 2069 3584 
Q 2775 3584 3186 3129 
Q 3597 2675 3597 1894 
z
M 3022 2063 
Q 3016 2534 2758 2815 
Q 2500 3097 2075 3097 
Q 1594 3097 1305 2825 
Q 1016 2553 972 2059 
L 3022 2063 
z
" id="DejaVuSans-65" transform="scale(0.015625)"/>
      <path d="M 628 4666 
L 3309 4666 
L 3309 4134 
L 1259 4134 
L 1259 2759 
L 3109 2759 
L 3109 2228 
L 1259 2228 
L 1259 0 
L 628 0 
L 628 4666 
z
" id="DejaVuSans-46" transform="scale(0.015625)"/>
      <path d="M 2906 1791 
Q 2906 2416 2648 2759 
Q 2391 3103 1925 3103 
Q 1463 3103 1205 2759 
Q 947 2416 947 1791 
Q 947 1169 1205 825 
Q 1463 481 1925 481 
Q 2391 481 2648 825 
Q 2906 1169 2906 1791 
z
M 3481 434 
Q 3481 -459 3084 -895 
Q 2688 -1331 1869 -1331 
Q 1566 -1331 1297 -1286 
Q 1028 -1241 775 -1147 
L 775 -588 
Q 1028 -725 1275 -790 
Q 1522 -856 1778 -856 
Q 2344 -856 2625 -561 
Q 2906 -266 2906 331 
L 2906 616 
Q 2728 306 2450 153 
Q 2172 0 1784 0 
Q 1141 0 747 490 
Q 353 981 353 1791 
Q 353 2603 747 3093 
Q 1141 3584 1784 3584 
Q 2172 3584 2450 3431 
Q 2728 3278 2906 2969 
L 2906 3500 
L 3481 3500 
L 3481 434 
z
" id="DejaVuSans-67" transform="scale(0.015625)"/>
      <path d="M 2631 2963 
Q 2534 3019 2420 3045 
Q 2306 3072 2169 3072 
Q 1681 3072 1420 2755 
Q 1159 2438 1159 1844 
L 1159 0 
L 581 0 
L 581 3500 
L 1159 3500 
L 1159 2956 
Q 1341 3275 1631 3429 
Q 1922 3584 2338 3584 
Q 2397 3584 2469 3576 
Q 2541 3569 2628 3553 
L 2631 2963 
z
" id="DejaVuSans-72" transform="scale(0.015625)"/>
      <path d="M 191 3500 
L 800 3500 
L 1894 563 
L 2988 3500 
L 3597 3500 
L 2284 0 
L 1503 0 
L 191 3500 
z
" id="DejaVuSans-76" transform="scale(0.015625)"/>
      <path d="M 269 3500 
L 844 3500 
L 1563 769 
L 2278 3500 
L 2956 3500 
L 3675 769 
L 4391 3500 
L 4966 3500 
L 4050 0 
L 3372 0 
L 2619 2869 
L 1863 0 
L 1184 0 
L 269 3500 
z
" id="DejaVuSans-77" transform="scale(0.015625)"/>
      <path d="M 1172 4494 
L 1172 3500 
L 2356 3500 
L 2356 3053 
L 1172 3053 
L 1172 1153 
Q 1172 725 1289 603 
Q 1406 481 1766 481 
L 2356 481 
L 2356 0 
L 1766 0 
Q 1100 0 847 248 
Q 594 497 594 1153 
L 594 3053 
L 172 3053 
L 172 3500 
L 594 3500 
L 594 4494 
L 1172 4494 
z
" id="DejaVuSans-74" transform="scale(0.015625)"/>
      <path d="M 3513 2113 
L 3513 0 
L 2938 0 
L 2938 2094 
Q 2938 2591 2744 2837 
Q 2550 3084 2163 3084 
Q 1697 3084 1428 2787 
Q 1159 2491 1159 1978 
L 1159 0 
L 581 0 
L 581 4863 
L 1159 4863 
L 1159 2956 
Q 1366 3272 1645 3428 
Q 1925 3584 2291 3584 
Q 2894 3584 3203 3211 
Q 3513 2838 3513 2113 
z
" id="DejaVuSans-68" transform="scale(0.015625)"/>
      <path d="M 750 794 
L 1409 794 
L 1409 256 
L 897 -744 
L 494 -744 
L 750 256 
L 750 794 
z
" id="DejaVuSans-2c" transform="scale(0.015625)"/>
      <path d="M 3059 4863 
L 2969 4384 
L 2419 4384 
Q 2106 4384 1964 4261 
Q 1822 4138 1753 3809 
L 1691 3500 
L 2638 3500 
L 2553 3053 
L 1606 3053 
L 1013 0 
L 434 0 
L 1031 3053 
L 481 3053 
L 563 3500 
L 1113 3500 
L 1159 3744 
Q 1278 4363 1576 4613 
Q 1875 4863 2516 4863 
L 3059 4863 
z
" id="DejaVuSans-Oblique-66" transform="scale(0.015625)"/>
      <path d="M 5747 2113 
L 5338 0 
L 4763 0 
L 5166 2094 
Q 5191 2228 5203 2325 
Q 5216 2422 5216 2491 
Q 5216 2772 5059 2928 
Q 4903 3084 4622 3084 
Q 4203 3084 3875 2770 
Q 3547 2456 3450 1953 
L 3066 0 
L 2491 0 
L 2900 2094 
Q 2925 2209 2937 2307 
Q 2950 2406 2950 2484 
Q 2950 2769 2794 2926 
Q 2638 3084 2363 3084 
Q 1938 3084 1609 2770 
Q 1281 2456 1184 1953 
L 800 0 
L 225 0 
L 909 3500 
L 1484 3500 
L 1375 2956 
Q 1609 3263 1923 3423 
Q 2238 3584 2597 3584 
Q 2978 3584 3223 3384 
Q 3469 3184 3519 2828 
Q 3781 3197 4126 3390 
Q 4472 3584 4856 3584 
Q 5306 3584 5551 3325 
Q 5797 3066 5797 2591 
Q 5797 2488 5784 2364 
Q 5772 2241 5747 2113 
z
" id="DejaVuSans-Oblique-6d" transform="scale(0.015625)"/>
      <path d="M 1172 4863 
L 1747 4863 
L 1606 4134 
L 1031 4134 
L 1172 4863 
z
M 909 3500 
L 1484 3500 
L 800 0 
L 225 0 
L 909 3500 
z
" id="DejaVuSans-Oblique-69" transform="scale(0.015625)"/>
      <path d="M 3566 2113 
L 3156 0 
L 2578 0 
L 2988 2091 
Q 3016 2238 3031 2350 
Q 3047 2463 3047 2528 
Q 3047 2791 2881 2937 
Q 2716 3084 2419 3084 
Q 1956 3084 1622 2776 
Q 1288 2469 1184 1941 
L 800 0 
L 225 0 
L 903 3500 
L 1478 3500 
L 1363 2950 
Q 1603 3253 1940 3418 
Q 2278 3584 2650 3584 
Q 3113 3584 3367 3334 
Q 3622 3084 3622 2631 
Q 3622 2519 3608 2391 
Q 3594 2263 3566 2113 
z
" id="DejaVuSans-Oblique-6e" transform="scale(0.015625)"/>
      <path d="M 678 2906 
L 4684 2906 
L 4684 2381 
L 678 2381 
L 678 2906 
z
M 678 1631 
L 4684 1631 
L 4684 1100 
L 678 1100 
L 678 1631 
z
" id="DejaVuSans-3d" transform="scale(0.015625)"/>
      <path d="M 628 4666 
L 1569 4666 
L 2759 1491 
L 3956 4666 
L 4897 4666 
L 4897 0 
L 4281 0 
L 4281 4097 
L 3078 897 
L 2444 897 
L 1241 4097 
L 1241 0 
L 628 0 
L 628 4666 
z
" id="DejaVuSans-4d" transform="scale(0.015625)"/>
      <path d="M 628 4666 
L 1259 4666 
L 1259 2753 
L 3553 2753 
L 3553 4666 
L 4184 4666 
L 4184 0 
L 3553 0 
L 3553 2222 
L 1259 2222 
L 1259 0 
L 628 0 
L 628 4666 
z
" id="DejaVuSans-48" transform="scale(0.015625)"/>
      <path d="M 353 3500 
L 3084 3500 
L 3084 2975 
L 922 459 
L 3084 459 
L 3084 0 
L 275 0 
L 275 525 
L 2438 3041 
L 353 3041 
L 353 3500 
z
" id="DejaVuSans-7a" transform="scale(0.015625)"/>
     </defs>
     <use transform="translate(0 0.015625)" xlink:href="#DejaVuSans-4e"/>
     <use transform="translate(74.804688 0.015625)" xlink:href="#DejaVuSans-6f"/>
     <use transform="translate(135.986328 0.015625)" xlink:href="#DejaVuSans-69"/>
     <use transform="translate(163.769531 0.015625)" xlink:href="#DejaVuSans-73"/>
     <use transform="translate(215.869141 0.015625)" xlink:href="#DejaVuSans-65"/>
     <use transform="translate(277.392578 0.015625)" xlink:href="#DejaVuSans-20"/>
     <use transform="translate(309.179688 0.015625)" xlink:href="#DejaVuSans-46"/>
     <use transform="translate(366.699219 0.015625)" xlink:href="#DejaVuSans-69"/>
     <use transform="translate(394.482422 0.015625)" xlink:href="#DejaVuSans-67"/>
     <use transform="translate(457.958984 0.015625)" xlink:href="#DejaVuSans-75"/>
     <use transform="translate(521.337891 0.015625)" xlink:href="#DejaVuSans-72"/>
     <use transform="translate(562.451172 0.015625)" xlink:href="#DejaVuSans-65"/>
     <use transform="translate(623.974609 0.015625)" xlink:href="#DejaVuSans-20"/>
     <use transform="translate(655.761719 0.015625)" xlink:href="#DejaVuSans-76"/>
     <use transform="translate(714.941406 0.015625)" xlink:href="#DejaVuSans-65"/>
     <use transform="translate(776.464844 0.015625)" xlink:href="#DejaVuSans-72"/>
     <use transform="translate(817.578125 0.015625)" xlink:href="#DejaVuSans-73"/>
     <use transform="translate(869.677734 0.015625)" xlink:href="#DejaVuSans-75"/>
     <use transform="translate(933.056641 0.015625)" xlink:href="#DejaVuSans-73"/>
     <use transform="translate(985.15625 0.015625)" xlink:href="#DejaVuSans-20"/>
     <use transform="translate(1016.943359 0.015625)" xlink:href="#DejaVuSans-77"/>
     <use transform="translate(1098.730469 0.015625)" xlink:href="#DejaVuSans-69"/>
     <use transform="translate(1126.513672 0.015625)" xlink:href="#DejaVuSans-64"/>
     <use transform="translate(1189.990234 0.015625)" xlink:href="#DejaVuSans-74"/>
     <use transform="translate(1229.199219 0.015625)" xlink:href="#DejaVuSans-68"/>
     <use transform="translate(1292.578125 0.015625)" xlink:href="#DejaVuSans-2c"/>
     <use transform="translate(1324.365234 0.015625)" xlink:href="#DejaVuSans-20"/>
     <use transform="translate(1356.152344 0.015625)" xlink:href="#DejaVuSans-Oblique-66"/>
     <use transform="translate(1391.357422 -16.390625)scale(0.7)" xlink:href="#DejaVuSans-Oblique-6d"/>
     <use transform="translate(1459.545898 -16.390625)scale(0.7)" xlink:href="#DejaVuSans-Oblique-69"/>
     <use transform="translate(1478.994141 -16.390625)scale(0.7)" xlink:href="#DejaVuSans-Oblique-6e"/>
     <use transform="translate(1526.09375 0.015625)" xlink:href="#DejaVuSans-20"/>
     <use transform="translate(1557.880859 0.015625)" xlink:href="#DejaVuSans-3d"/>
     <use transform="translate(1641.669922 0.015625)" xlink:href="#DejaVuSans-20"/>
     <use transform="translate(1673.457031 0.015625)" xlink:href="#DejaVuSans-32"/>
     <use transform="translate(1737.080078 0.015625)" xlink:href="#DejaVuSans-30"/>
     <use transform="translate(1800.703125 0.015625)" xlink:href="#DejaVuSans-30"/>
     <use transform="translate(1864.326172 0.015625)" xlink:href="#DejaVuSans-4d"/>
     <use transform="translate(1950.605469 0.015625)" xlink:href="#DejaVuSans-48"/>
     <use transform="translate(2025.800781 0.015625)" xlink:href="#DejaVuSans-7a"/>
    </g>
   </g>
   <g id="legend_1">
    <g id="patch_7">
     <path d="M 62.6125 95.86875 
L 195.4525 95.86875 
Q 197.4525 95.86875 197.4525 93.86875 
L 197.4525 35.8 
Q 197.4525 33.8 195.4525 33.8 
L 62.6125 33.8 
Q 60.6125 33.8 60.6125 35.8 
L 60.6125 93.86875 
Q 60.6125 95.86875 62.6125 95.86875 
z
" style="fill:#ffffff;opacity:0.8;stroke:#cccccc;stroke-linejoin:miter;"/>
    </g>
    <g id="line2d_36">
     <path d="M 62.6125 41.418125 
L 72.6125 41.418125 
" style="fill:none;stroke:#ff0000;stroke-linecap:square;stroke-width:2;"/>
    </g>
    <g id="line2d_37"/>
    <g id="text_19">
     <!-- $NF: f_{max}$ =  2.0e+09 -->
     <g transform="translate(74.6125 44.918125)scale(0.12 -0.12)">
      <defs>
       <path d="M 750 794 
L 1409 794 
L 1409 0 
L 750 0 
L 750 794 
z
M 750 3309 
L 1409 3309 
L 1409 2516 
L 750 2516 
L 750 3309 
z
" id="DejaVuSans-3a" transform="scale(0.015625)"/>
       <path d="M 3438 1997 
L 3047 0 
L 2472 0 
L 2578 531 
Q 2325 219 2001 64 
Q 1678 -91 1281 -91 
Q 834 -91 548 182 
Q 263 456 263 884 
Q 263 1497 752 1853 
Q 1241 2209 2100 2209 
L 2900 2209 
L 2931 2363 
Q 2938 2388 2941 2417 
Q 2944 2447 2944 2509 
Q 2944 2788 2717 2942 
Q 2491 3097 2081 3097 
Q 1800 3097 1504 3025 
Q 1209 2953 897 2809 
L 997 3341 
Q 1322 3463 1633 3523 
Q 1944 3584 2234 3584 
Q 2853 3584 3176 3315 
Q 3500 3047 3500 2534 
Q 3500 2431 3484 2292 
Q 3469 2153 3438 1997 
z
M 2816 1759 
L 2241 1759 
Q 1534 1759 1195 1570 
Q 856 1381 856 984 
Q 856 709 1029 553 
Q 1203 397 1509 397 
Q 1978 397 2328 733 
Q 2678 1069 2791 1631 
L 2816 1759 
z
" id="DejaVuSans-Oblique-61" transform="scale(0.015625)"/>
       <path d="M 3841 3500 
L 2234 1784 
L 3219 0 
L 2559 0 
L 1819 1388 
L 531 0 
L -166 0 
L 1556 1844 
L 641 3500 
L 1300 3500 
L 1972 2234 
L 3144 3500 
L 3841 3500 
z
" id="DejaVuSans-Oblique-78" transform="scale(0.015625)"/>
       <path d="M 2944 4013 
L 2944 2272 
L 4684 2272 
L 4684 1741 
L 2944 1741 
L 2944 0 
L 2419 0 
L 2419 1741 
L 678 1741 
L 678 2272 
L 2419 2272 
L 2419 4013 
L 2944 4013 
z
" id="DejaVuSans-2b" transform="scale(0.015625)"/>
       <path d="M 703 97 
L 703 672 
Q 941 559 1184 500 
Q 1428 441 1663 441 
Q 2288 441 2617 861 
Q 2947 1281 2994 2138 
Q 2813 1869 2534 1725 
Q 2256 1581 1919 1581 
Q 1219 1581 811 2004 
Q 403 2428 403 3163 
Q 403 3881 828 4315 
Q 1253 4750 1959 4750 
Q 2769 4750 3195 4129 
Q 3622 3509 3622 2328 
Q 3622 1225 3098 567 
Q 2575 -91 1691 -91 
Q 1453 -91 1209 -44 
Q 966 3 703 97 
z
M 1959 2075 
Q 2384 2075 2632 2365 
Q 2881 2656 2881 3163 
Q 2881 3666 2632 3958 
Q 2384 4250 1959 4250 
Q 1534 4250 1286 3958 
Q 1038 3666 1038 3163 
Q 1038 2656 1286 2365 
Q 1534 2075 1959 2075 
z
" id="DejaVuSans-39" transform="scale(0.015625)"/>
      </defs>
      <use transform="translate(0 0.015625)" xlink:href="#DejaVuSans-Oblique-4e"/>
      <use transform="translate(74.804688 0.015625)" xlink:href="#DejaVuSans-Oblique-46"/>
      <use transform="translate(151.806641 0.015625)" xlink:href="#DejaVuSans-3a"/>
      <use transform="translate(204.980469 0.015625)" xlink:href="#DejaVuSans-Oblique-66"/>
      <use transform="translate(240.185547 -16.390625)scale(0.7)" xlink:href="#DejaVuSans-Oblique-6d"/>
      <use transform="translate(308.374023 -16.390625)scale(0.7)" xlink:href="#DejaVuSans-Oblique-61"/>
      <use transform="translate(351.269531 -16.390625)scale(0.7)" xlink:href="#DejaVuSans-Oblique-78"/>
      <use transform="translate(395.429688 0.015625)" xlink:href="#DejaVuSans-20"/>
      <use transform="translate(427.216797 0.015625)" xlink:href="#DejaVuSans-3d"/>
      <use transform="translate(511.005859 0.015625)" xlink:href="#DejaVuSans-20"/>
      <use transform="translate(542.792969 0.015625)" xlink:href="#DejaVuSans-20"/>
      <use transform="translate(574.580078 0.015625)" xlink:href="#DejaVuSans-32"/>
      <use transform="translate(638.203125 0.015625)" xlink:href="#DejaVuSans-2e"/>
      <use transform="translate(669.990234 0.015625)" xlink:href="#DejaVuSans-30"/>
      <use transform="translate(733.613281 0.015625)" xlink:href="#DejaVuSans-65"/>
      <use transform="translate(795.136719 0.015625)" xlink:href="#DejaVuSans-2b"/>
      <use transform="translate(878.925781 0.015625)" xlink:href="#DejaVuSans-30"/>
      <use transform="translate(942.548828 0.015625)" xlink:href="#DejaVuSans-39"/>
     </g>
    </g>
    <g id="line2d_38">
     <path d="M 62.6125 53.031875 
L 72.6125 53.031875 
" style="fill:none;stroke:#0000ff;stroke-linecap:square;stroke-width:2;"/>
    </g>
    <g id="line2d_39"/>
    <g id="text_20">
     <!-- $NF: f_{max}$ =  4.0e+09 -->
     <g transform="translate(74.6125 56.531875)scale(0.12 -0.12)">
      <defs>
       <path d="M 2419 4116 
L 825 1625 
L 2419 1625 
L 2419 4116 
z
M 2253 4666 
L 3047 4666 
L 3047 1625 
L 3713 1625 
L 3713 1100 
L 3047 1100 
L 3047 0 
L 2419 0 
L 2419 1100 
L 313 1100 
L 313 1709 
L 2253 4666 
z
" id="DejaVuSans-34" transform="scale(0.015625)"/>
      </defs>
      <use transform="translate(0 0.015625)" xlink:href="#DejaVuSans-Oblique-4e"/>
      <use transform="translate(74.804688 0.015625)" xlink:href="#DejaVuSans-Oblique-46"/>
      <use transform="translate(151.806641 0.015625)" xlink:href="#DejaVuSans-3a"/>
      <use transform="translate(204.980469 0.015625)" xlink:href="#DejaVuSans-Oblique-66"/>
      <use transform="translate(240.185547 -16.390625)scale(0.7)" xlink:href="#DejaVuSans-Oblique-6d"/>
      <use transform="translate(308.374023 -16.390625)scale(0.7)" xlink:href="#DejaVuSans-Oblique-61"/>
      <use transform="translate(351.269531 -16.390625)scale(0.7)" xlink:href="#DejaVuSans-Oblique-78"/>
      <use transform="translate(395.429688 0.015625)" xlink:href="#DejaVuSans-20"/>
      <use transform="translate(427.216797 0.015625)" xlink:href="#DejaVuSans-3d"/>
      <use transform="translate(511.005859 0.015625)" xlink:href="#DejaVuSans-20"/>
      <use transform="translate(542.792969 0.015625)" xlink:href="#DejaVuSans-20"/>
      <use transform="translate(574.580078 0.015625)" xlink:href="#DejaVuSans-34"/>
      <use transform="translate(638.203125 0.015625)" xlink:href="#DejaVuSans-2e"/>
      <use transform="translate(669.990234 0.015625)" xlink:href="#DejaVuSans-30"/>
      <use transform="translate(733.613281 0.015625)" xlink:href="#DejaVuSans-65"/>
      <use transform="translate(795.136719 0.015625)" xlink:href="#DejaVuSans-2b"/>
      <use transform="translate(878.925781 0.015625)" xlink:href="#DejaVuSans-30"/>
      <use transform="translate(942.548828 0.015625)" xlink:href="#DejaVuSans-39"/>
     </g>
    </g>
    <g id="line2d_40">
     <path d="M 62.6125 64.645625 
L 72.6125 64.645625 
" style="fill:none;stroke:#008000;stroke-linecap:square;stroke-width:2;"/>
    </g>
    <g id="line2d_41"/>
    <g id="text_21">
     <!-- $NF: f_{max}$ =  6.0e+09 -->
     <g transform="translate(74.6125 68.145625)scale(0.12 -0.12)">
      <defs>
       <path d="M 2113 2584 
Q 1688 2584 1439 2293 
Q 1191 2003 1191 1497 
Q 1191 994 1439 701 
Q 1688 409 2113 409 
Q 2538 409 2786 701 
Q 3034 994 3034 1497 
Q 3034 2003 2786 2293 
Q 2538 2584 2113 2584 
z
M 3366 4563 
L 3366 3988 
Q 3128 4100 2886 4159 
Q 2644 4219 2406 4219 
Q 1781 4219 1451 3797 
Q 1122 3375 1075 2522 
Q 1259 2794 1537 2939 
Q 1816 3084 2150 3084 
Q 2853 3084 3261 2657 
Q 3669 2231 3669 1497 
Q 3669 778 3244 343 
Q 2819 -91 2113 -91 
Q 1303 -91 875 529 
Q 447 1150 447 2328 
Q 447 3434 972 4092 
Q 1497 4750 2381 4750 
Q 2619 4750 2861 4703 
Q 3103 4656 3366 4563 
z
" id="DejaVuSans-36" transform="scale(0.015625)"/>
      </defs>
      <use transform="translate(0 0.015625)" xlink:href="#DejaVuSans-Oblique-4e"/>
      <use transform="translate(74.804688 0.015625)" xlink:href="#DejaVuSans-Oblique-46"/>
      <use transform="translate(151.806641 0.015625)" xlink:href="#DejaVuSans-3a"/>
      <use transform="translate(204.980469 0.015625)" xlink:href="#DejaVuSans-Oblique-66"/>
      <use transform="translate(240.185547 -16.390625)scale(0.7)" xlink:href="#DejaVuSans-Oblique-6d"/>
      <use transform="translate(308.374023 -16.390625)scale(0.7)" xlink:href="#DejaVuSans-Oblique-61"/>
      <use transform="translate(351.269531 -16.390625)scale(0.7)" xlink:href="#DejaVuSans-Oblique-78"/>
      <use transform="translate(395.429688 0.015625)" xlink:href="#DejaVuSans-20"/>
      <use transform="translate(427.216797 0.015625)" xlink:href="#DejaVuSans-3d"/>
      <use transform="translate(511.005859 0.015625)" xlink:href="#DejaVuSans-20"/>
      <use transform="translate(542.792969 0.015625)" xlink:href="#DejaVuSans-20"/>
      <use transform="translate(574.580078 0.015625)" xlink:href="#DejaVuSans-36"/>
      <use transform="translate(638.203125 0.015625)" xlink:href="#DejaVuSans-2e"/>
      <use transform="translate(669.990234 0.015625)" xlink:href="#DejaVuSans-30"/>
      <use transform="translate(733.613281 0.015625)" xlink:href="#DejaVuSans-65"/>
      <use transform="translate(795.136719 0.015625)" xlink:href="#DejaVuSans-2b"/>
      <use transform="translate(878.925781 0.015625)" xlink:href="#DejaVuSans-30"/>
      <use transform="translate(942.548828 0.015625)" xlink:href="#DejaVuSans-39"/>
     </g>
    </g>
    <g id="line2d_42">
     <path d="M 62.6125 76.259375 
L 72.6125 76.259375 
" style="fill:none;stroke:#00bfbf;stroke-linecap:square;stroke-width:2;"/>
    </g>
    <g id="line2d_43"/>
    <g id="text_22">
     <!-- $NF: f_{max}$ =  8.0e+09 -->
     <g transform="translate(74.6125 79.759375)scale(0.12 -0.12)">
      <defs>
       <path d="M 2034 2216 
Q 1584 2216 1326 1975 
Q 1069 1734 1069 1313 
Q 1069 891 1326 650 
Q 1584 409 2034 409 
Q 2484 409 2743 651 
Q 3003 894 3003 1313 
Q 3003 1734 2745 1975 
Q 2488 2216 2034 2216 
z
M 1403 2484 
Q 997 2584 770 2862 
Q 544 3141 544 3541 
Q 544 4100 942 4425 
Q 1341 4750 2034 4750 
Q 2731 4750 3128 4425 
Q 3525 4100 3525 3541 
Q 3525 3141 3298 2862 
Q 3072 2584 2669 2484 
Q 3125 2378 3379 2068 
Q 3634 1759 3634 1313 
Q 3634 634 3220 271 
Q 2806 -91 2034 -91 
Q 1263 -91 848 271 
Q 434 634 434 1313 
Q 434 1759 690 2068 
Q 947 2378 1403 2484 
z
M 1172 3481 
Q 1172 3119 1398 2916 
Q 1625 2713 2034 2713 
Q 2441 2713 2670 2916 
Q 2900 3119 2900 3481 
Q 2900 3844 2670 4047 
Q 2441 4250 2034 4250 
Q 1625 4250 1398 4047 
Q 1172 3844 1172 3481 
z
" id="DejaVuSans-38" transform="scale(0.015625)"/>
      </defs>
      <use transform="translate(0 0.015625)" xlink:href="#DejaVuSans-Oblique-4e"/>
      <use transform="translate(74.804688 0.015625)" xlink:href="#DejaVuSans-Oblique-46"/>
      <use transform="translate(151.806641 0.015625)" xlink:href="#DejaVuSans-3a"/>
      <use transform="translate(204.980469 0.015625)" xlink:href="#DejaVuSans-Oblique-66"/>
      <use transform="translate(240.185547 -16.390625)scale(0.7)" xlink:href="#DejaVuSans-Oblique-6d"/>
      <use transform="translate(308.374023 -16.390625)scale(0.7)" xlink:href="#DejaVuSans-Oblique-61"/>
      <use transform="translate(351.269531 -16.390625)scale(0.7)" xlink:href="#DejaVuSans-Oblique-78"/>
      <use transform="translate(395.429688 0.015625)" xlink:href="#DejaVuSans-20"/>
      <use transform="translate(427.216797 0.015625)" xlink:href="#DejaVuSans-3d"/>
      <use transform="translate(511.005859 0.015625)" xlink:href="#DejaVuSans-20"/>
      <use transform="translate(542.792969 0.015625)" xlink:href="#DejaVuSans-20"/>
      <use transform="translate(574.580078 0.015625)" xlink:href="#DejaVuSans-38"/>
      <use transform="translate(638.203125 0.015625)" xlink:href="#DejaVuSans-2e"/>
      <use transform="translate(669.990234 0.015625)" xlink:href="#DejaVuSans-30"/>
      <use transform="translate(733.613281 0.015625)" xlink:href="#DejaVuSans-65"/>
      <use transform="translate(795.136719 0.015625)" xlink:href="#DejaVuSans-2b"/>
      <use transform="translate(878.925781 0.015625)" xlink:href="#DejaVuSans-30"/>
      <use transform="translate(942.548828 0.015625)" xlink:href="#DejaVuSans-39"/>
     </g>
    </g>
    <g id="line2d_44">
     <path d="M 62.6125 87.873125 
L 72.6125 87.873125 
" style="fill:none;stroke:#bf00bf;stroke-linecap:square;stroke-width:2;"/>
    </g>
    <g id="line2d_45"/>
    <g id="text_23">
     <!-- $NF: f_{max}$ =  1.0e+10 -->
     <g transform="translate(74.6125 91.373125)scale(0.12 -0.12)">
      <use transform="translate(0 0.015625)" xlink:href="#DejaVuSans-Oblique-4e"/>
      <use transform="translate(74.804688 0.015625)" xlink:href="#DejaVuSans-Oblique-46"/>
      <use transform="translate(151.806641 0.015625)" xlink:href="#DejaVuSans-3a"/>
      <use transform="translate(204.980469 0.015625)" xlink:href="#DejaVuSans-Oblique-66"/>
      <use transform="translate(240.185547 -16.390625)scale(0.7)" xlink:href="#DejaVuSans-Oblique-6d"/>
      <use transform="translate(308.374023 -16.390625)scale(0.7)" xlink:href="#DejaVuSans-Oblique-61"/>
      <use transform="translate(351.269531 -16.390625)scale(0.7)" xlink:href="#DejaVuSans-Oblique-78"/>
      <use transform="translate(395.429688 0.015625)" xlink:href="#DejaVuSans-20"/>
      <use transform="translate(427.216797 0.015625)" xlink:href="#DejaVuSans-3d"/>
      <use transform="translate(511.005859 0.015625)" xlink:href="#DejaVuSans-20"/>
      <use transform="translate(542.792969 0.015625)" xlink:href="#DejaVuSans-20"/>
      <use transform="translate(574.580078 0.015625)" xlink:href="#DejaVuSans-31"/>
      <use transform="translate(638.203125 0.015625)" xlink:href="#DejaVuSans-2e"/>
      <use transform="translate(669.990234 0.015625)" xlink:href="#DejaVuSans-30"/>
      <use transform="translate(733.613281 0.015625)" xlink:href="#DejaVuSans-65"/>
      <use transform="translate(795.136719 0.015625)" xlink:href="#DejaVuSans-2b"/>
      <use transform="translate(878.925781 0.015625)" xlink:href="#DejaVuSans-31"/>
      <use transform="translate(942.548828 0.015625)" xlink:href="#DejaVuSans-30"/>
     </g>
    </g>
   </g>
  </g>
 </g>
 <defs>
  <clipPath id="p6c85e6946b">
   <rect height="281.4625" width="437.5875" x="55.6125" y="28.8"/>
  </clipPath>
 </defs>
</svg>
