<?xml version="1.0" encoding="utf-8" standalone="no"?>
<!DOCTYPE svg PUBLIC "-//W3C//DTD SVG 1.1//EN"
  "http://www.w3.org/Graphics/SVG/1.1/DTD/svg11.dtd">
<!-- Created with matplotlib (https://matplotlib.org/) -->
<svg height="360pt" version="1.1" viewBox="0 0 504 360" width="504pt" xmlns="http://www.w3.org/2000/svg" xmlns:xlink="http://www.w3.org/1999/xlink">
 <defs>
  <style type="text/css">
*{stroke-linecap:butt;stroke-linejoin:round;}
  </style>
 </defs>
 <g id="figure_1">
  <g id="patch_1">
   <path d="M 0 360 
L 504 360 
L 504 0 
L 0 0 
z
" style="fill:#ffffff;"/>
  </g>
  <g id="axes_1">
   <g id="patch_2">
    <path d="M 55.7375 310.2625 
L 493.2 310.2625 
L 493.2 28.8 
L 55.7375 28.8 
z
" style="fill:#ffffff;"/>
   </g>
   <g id="matplotlib.axis_1">
    <g id="xtick_1">
     <g id="line2d_1">
      <path clip-path="url(#pd01ec00051)" d="M 107.018989 310.2625 
L 107.018989 28.8 
" style="fill:none;stroke:#808080;stroke-linecap:square;stroke-width:0.8;"/>
     </g>
     <g id="line2d_2">
      <defs>
       <path d="M 0 0 
L 0 3.5 
" id="mabc362e544" style="stroke:#000000;stroke-width:0.8;"/>
      </defs>
      <g>
       <use style="stroke:#000000;stroke-width:0.8;" x="107.018989" xlink:href="#mabc362e544" y="310.2625"/>
      </g>
     </g>
     <g id="text_1">
      <!-- 25 -->
      <defs>
       <path d="M 19.1875 8.296875 
L 53.609375 8.296875 
L 53.609375 0 
L 7.328125 0 
L 7.328125 8.296875 
Q 12.9375 14.109375 22.625 23.890625 
Q 32.328125 33.6875 34.8125 36.53125 
Q 39.546875 41.84375 41.421875 45.53125 
Q 43.3125 49.21875 43.3125 52.78125 
Q 43.3125 58.59375 39.234375 62.25 
Q 35.15625 65.921875 28.609375 65.921875 
Q 23.96875 65.921875 18.8125 64.3125 
Q 13.671875 62.703125 7.8125 59.421875 
L 7.8125 69.390625 
Q 13.765625 71.78125 18.9375 73 
Q 24.125 74.21875 28.421875 74.21875 
Q 39.75 74.21875 46.484375 68.546875 
Q 53.21875 62.890625 53.21875 53.421875 
Q 53.21875 48.921875 51.53125 44.890625 
Q 49.859375 40.875 45.40625 35.40625 
Q 44.1875 33.984375 37.640625 27.21875 
Q 31.109375 20.453125 19.1875 8.296875 
z
" id="DejaVuSans-50"/>
       <path d="M 10.796875 72.90625 
L 49.515625 72.90625 
L 49.515625 64.59375 
L 19.828125 64.59375 
L 19.828125 46.734375 
Q 21.96875 47.46875 24.109375 47.828125 
Q 26.265625 48.1875 28.421875 48.1875 
Q 40.625 48.1875 47.75 41.5 
Q 54.890625 34.8125 54.890625 23.390625 
Q 54.890625 11.625 47.5625 5.09375 
Q 40.234375 -1.421875 26.90625 -1.421875 
Q 22.3125 -1.421875 17.546875 -0.640625 
Q 12.796875 0.140625 7.71875 1.703125 
L 7.71875 11.625 
Q 12.109375 9.234375 16.796875 8.0625 
Q 21.484375 6.890625 26.703125 6.890625 
Q 35.15625 6.890625 40.078125 11.328125 
Q 45.015625 15.765625 45.015625 23.390625 
Q 45.015625 31 40.078125 35.4375 
Q 35.15625 39.890625 26.703125 39.890625 
Q 22.75 39.890625 18.8125 39.015625 
Q 14.890625 38.140625 10.796875 36.28125 
z
" id="DejaVuSans-53"/>
      </defs>
      <g transform="translate(99.383989 326.380625)scale(0.12 -0.12)">
       <use xlink:href="#DejaVuSans-50"/>
       <use x="63.623047" xlink:href="#DejaVuSans-53"/>
      </g>
     </g>
    </g>
    <g id="xtick_2">
     <g id="line2d_3">
      <path clip-path="url(#pd01ec00051)" d="M 159.347039 310.2625 
L 159.347039 28.8 
" style="fill:none;stroke:#808080;stroke-linecap:square;stroke-width:0.8;"/>
     </g>
     <g id="line2d_4">
      <g>
       <use style="stroke:#000000;stroke-width:0.8;" x="159.347039" xlink:href="#mabc362e544" y="310.2625"/>
      </g>
     </g>
     <g id="text_2">
      <!-- 50 -->
      <defs>
       <path d="M 31.78125 66.40625 
Q 24.171875 66.40625 20.328125 58.90625 
Q 16.5 51.421875 16.5 36.375 
Q 16.5 21.390625 20.328125 13.890625 
Q 24.171875 6.390625 31.78125 6.390625 
Q 39.453125 6.390625 43.28125 13.890625 
Q 47.125 21.390625 47.125 36.375 
Q 47.125 51.421875 43.28125 58.90625 
Q 39.453125 66.40625 31.78125 66.40625 
z
M 31.78125 74.21875 
Q 44.046875 74.21875 50.515625 64.515625 
Q 56.984375 54.828125 56.984375 36.375 
Q 56.984375 17.96875 50.515625 8.265625 
Q 44.046875 -1.421875 31.78125 -1.421875 
Q 19.53125 -1.421875 13.0625 8.265625 
Q 6.59375 17.96875 6.59375 36.375 
Q 6.59375 54.828125 13.0625 64.515625 
Q 19.53125 74.21875 31.78125 74.21875 
z
" id="DejaVuSans-48"/>
      </defs>
      <g transform="translate(151.712039 326.380625)scale(0.12 -0.12)">
       <use xlink:href="#DejaVuSans-53"/>
       <use x="63.623047" xlink:href="#DejaVuSans-48"/>
      </g>
     </g>
    </g>
    <g id="xtick_3">
     <g id="line2d_5">
      <path clip-path="url(#pd01ec00051)" d="M 211.67509 310.2625 
L 211.67509 28.8 
" style="fill:none;stroke:#808080;stroke-linecap:square;stroke-width:0.8;"/>
     </g>
     <g id="line2d_6">
      <g>
       <use style="stroke:#000000;stroke-width:0.8;" x="211.67509" xlink:href="#mabc362e544" y="310.2625"/>
      </g>
     </g>
     <g id="text_3">
      <!-- 75 -->
      <defs>
       <path d="M 8.203125 72.90625 
L 55.078125 72.90625 
L 55.078125 68.703125 
L 28.609375 0 
L 18.3125 0 
L 43.21875 64.59375 
L 8.203125 64.59375 
z
" id="DejaVuSans-55"/>
      </defs>
      <g transform="translate(204.04009 326.380625)scale(0.12 -0.12)">
       <use xlink:href="#DejaVuSans-55"/>
       <use x="63.623047" xlink:href="#DejaVuSans-53"/>
      </g>
     </g>
    </g>
    <g id="xtick_4">
     <g id="line2d_7">
      <path clip-path="url(#pd01ec00051)" d="M 264.00314 310.2625 
L 264.00314 28.8 
" style="fill:none;stroke:#808080;stroke-linecap:square;stroke-width:0.8;"/>
     </g>
     <g id="line2d_8">
      <g>
       <use style="stroke:#000000;stroke-width:0.8;" x="264.00314" xlink:href="#mabc362e544" y="310.2625"/>
      </g>
     </g>
     <g id="text_4">
      <!-- 100 -->
      <defs>
       <path d="M 12.40625 8.296875 
L 28.515625 8.296875 
L 28.515625 63.921875 
L 10.984375 60.40625 
L 10.984375 69.390625 
L 28.421875 72.90625 
L 38.28125 72.90625 
L 38.28125 8.296875 
L 54.390625 8.296875 
L 54.390625 0 
L 12.40625 0 
z
" id="DejaVuSans-49"/>
      </defs>
      <g transform="translate(252.55064 326.380625)scale(0.12 -0.12)">
       <use xlink:href="#DejaVuSans-49"/>
       <use x="63.623047" xlink:href="#DejaVuSans-48"/>
       <use x="127.246094" xlink:href="#DejaVuSans-48"/>
      </g>
     </g>
    </g>
    <g id="xtick_5">
     <g id="line2d_9">
      <path clip-path="url(#pd01ec00051)" d="M 316.33119 310.2625 
L 316.33119 28.8 
" style="fill:none;stroke:#808080;stroke-linecap:square;stroke-width:0.8;"/>
     </g>
     <g id="line2d_10">
      <g>
       <use style="stroke:#000000;stroke-width:0.8;" x="316.33119" xlink:href="#mabc362e544" y="310.2625"/>
      </g>
     </g>
     <g id="text_5">
      <!-- 125 -->
      <g transform="translate(304.87869 326.380625)scale(0.12 -0.12)">
       <use xlink:href="#DejaVuSans-49"/>
       <use x="63.623047" xlink:href="#DejaVuSans-50"/>
       <use x="127.246094" xlink:href="#DejaVuSans-53"/>
      </g>
     </g>
    </g>
    <g id="xtick_6">
     <g id="line2d_11">
      <path clip-path="url(#pd01ec00051)" d="M 368.65924 310.2625 
L 368.65924 28.8 
" style="fill:none;stroke:#808080;stroke-linecap:square;stroke-width:0.8;"/>
     </g>
     <g id="line2d_12">
      <g>
       <use style="stroke:#000000;stroke-width:0.8;" x="368.65924" xlink:href="#mabc362e544" y="310.2625"/>
      </g>
     </g>
     <g id="text_6">
      <!-- 150 -->
      <g transform="translate(357.20674 326.380625)scale(0.12 -0.12)">
       <use xlink:href="#DejaVuSans-49"/>
       <use x="63.623047" xlink:href="#DejaVuSans-53"/>
       <use x="127.246094" xlink:href="#DejaVuSans-48"/>
      </g>
     </g>
    </g>
    <g id="xtick_7">
     <g id="line2d_13">
      <path clip-path="url(#pd01ec00051)" d="M 420.987291 310.2625 
L 420.987291 28.8 
" style="fill:none;stroke:#808080;stroke-linecap:square;stroke-width:0.8;"/>
     </g>
     <g id="line2d_14">
      <g>
       <use style="stroke:#000000;stroke-width:0.8;" x="420.987291" xlink:href="#mabc362e544" y="310.2625"/>
      </g>
     </g>
     <g id="text_7">
      <!-- 175 -->
      <g transform="translate(409.534791 326.380625)scale(0.12 -0.12)">
       <use xlink:href="#DejaVuSans-49"/>
       <use x="63.623047" xlink:href="#DejaVuSans-55"/>
       <use x="127.246094" xlink:href="#DejaVuSans-53"/>
      </g>
     </g>
    </g>
    <g id="xtick_8">
     <g id="line2d_15">
      <path clip-path="url(#pd01ec00051)" d="M 473.315341 310.2625 
L 473.315341 28.8 
" style="fill:none;stroke:#808080;stroke-linecap:square;stroke-width:0.8;"/>
     </g>
     <g id="line2d_16">
      <g>
       <use style="stroke:#000000;stroke-width:0.8;" x="473.315341" xlink:href="#mabc362e544" y="310.2625"/>
      </g>
     </g>
     <g id="text_8">
      <!-- 200 -->
      <g transform="translate(461.862841 326.380625)scale(0.12 -0.12)">
       <use xlink:href="#DejaVuSans-50"/>
       <use x="63.623047" xlink:href="#DejaVuSans-48"/>
       <use x="127.246094" xlink:href="#DejaVuSans-48"/>
      </g>
     </g>
    </g>
    <g id="text_9">
     <!-- $W$ [um] -->
     <defs>
      <path d="M 9.625 72.90625 
L 19.1875 72.90625 
L 22.703125 10.890625 
L 50.203125 72.90625 
L 61.1875 72.90625 
L 64.796875 10.890625 
L 92 72.90625 
L 102 72.90625 
L 69.578125 0 
L 57.171875 0 
L 53.8125 60.796875 
L 26.515625 0 
L 14.109375 0 
z
" id="DejaVuSans-Oblique-87"/>
      <path id="DejaVuSans-32"/>
      <path d="M 8.59375 75.984375 
L 29.296875 75.984375 
L 29.296875 69 
L 17.578125 69 
L 17.578125 -6.203125 
L 29.296875 -6.203125 
L 29.296875 -13.1875 
L 8.59375 -13.1875 
z
" id="DejaVuSans-91"/>
      <path d="M 8.5 21.578125 
L 8.5 54.6875 
L 17.484375 54.6875 
L 17.484375 21.921875 
Q 17.484375 14.15625 20.5 10.265625 
Q 23.53125 6.390625 29.59375 6.390625 
Q 36.859375 6.390625 41.078125 11.03125 
Q 45.3125 15.671875 45.3125 23.6875 
L 45.3125 54.6875 
L 54.296875 54.6875 
L 54.296875 0 
L 45.3125 0 
L 45.3125 8.40625 
Q 42.046875 3.421875 37.71875 1 
Q 33.40625 -1.421875 27.6875 -1.421875 
Q 18.265625 -1.421875 13.375 4.4375 
Q 8.5 10.296875 8.5 21.578125 
z
M 31.109375 56 
z
" id="DejaVuSans-117"/>
      <path d="M 52 44.1875 
Q 55.375 50.25 60.0625 53.125 
Q 64.75 56 71.09375 56 
Q 79.640625 56 84.28125 50.015625 
Q 88.921875 44.046875 88.921875 33.015625 
L 88.921875 0 
L 79.890625 0 
L 79.890625 32.71875 
Q 79.890625 40.578125 77.09375 44.375 
Q 74.3125 48.1875 68.609375 48.1875 
Q 61.625 48.1875 57.5625 43.546875 
Q 53.515625 38.921875 53.515625 30.90625 
L 53.515625 0 
L 44.484375 0 
L 44.484375 32.71875 
Q 44.484375 40.625 41.703125 44.40625 
Q 38.921875 48.1875 33.109375 48.1875 
Q 26.21875 48.1875 22.15625 43.53125 
Q 18.109375 38.875 18.109375 30.90625 
L 18.109375 0 
L 9.078125 0 
L 9.078125 54.6875 
L 18.109375 54.6875 
L 18.109375 46.1875 
Q 21.1875 51.21875 25.484375 53.609375 
Q 29.78125 56 35.6875 56 
Q 41.65625 56 45.828125 52.96875 
Q 50 49.953125 52 44.1875 
z
" id="DejaVuSans-109"/>
      <path d="M 30.421875 75.984375 
L 30.421875 -13.1875 
L 9.71875 -13.1875 
L 9.71875 -6.203125 
L 21.390625 -6.203125 
L 21.390625 69 
L 9.71875 69 
L 9.71875 75.984375 
z
" id="DejaVuSans-93"/>
     </defs>
     <g transform="translate(252.26875 341.994375)scale(0.12 -0.12)">
      <use transform="translate(0 0.015625)" xlink:href="#DejaVuSans-Oblique-87"/>
      <use transform="translate(98.876953 0.015625)" xlink:href="#DejaVuSans-32"/>
      <use transform="translate(130.664062 0.015625)" xlink:href="#DejaVuSans-91"/>
      <use transform="translate(169.677734 0.015625)" xlink:href="#DejaVuSans-117"/>
      <use transform="translate(233.056641 0.015625)" xlink:href="#DejaVuSans-109"/>
      <use transform="translate(330.46875 0.015625)" xlink:href="#DejaVuSans-93"/>
     </g>
    </g>
   </g>
   <g id="matplotlib.axis_2">
    <g id="ytick_1">
     <g id="line2d_17">
      <path clip-path="url(#pd01ec00051)" d="M 55.7375 283.454559 
L 493.2 283.454559 
" style="fill:none;stroke:#808080;stroke-linecap:square;stroke-width:0.8;"/>
     </g>
     <g id="line2d_18">
      <defs>
       <path d="M 0 0 
L -3.5 0 
" id="mbc8297eb9e" style="stroke:#000000;stroke-width:0.8;"/>
      </defs>
      <g>
       <use style="stroke:#000000;stroke-width:0.8;" x="55.7375" xlink:href="#mbc8297eb9e" y="283.454559"/>
      </g>
     </g>
     <g id="text_10">
      <!-- 0.5 -->
      <defs>
       <path d="M 10.6875 12.40625 
L 21 12.40625 
L 21 0 
L 10.6875 0 
z
" id="DejaVuSans-46"/>
      </defs>
      <g transform="translate(29.65375 288.013622)scale(0.12 -0.12)">
       <use xlink:href="#DejaVuSans-48"/>
       <use x="63.623047" xlink:href="#DejaVuSans-46"/>
       <use x="95.410156" xlink:href="#DejaVuSans-53"/>
      </g>
     </g>
    </g>
    <g id="ytick_2">
     <g id="line2d_19">
      <path clip-path="url(#pd01ec00051)" d="M 55.7375 246.493386 
L 493.2 246.493386 
" style="fill:none;stroke:#808080;stroke-linecap:square;stroke-width:0.8;"/>
     </g>
     <g id="line2d_20">
      <g>
       <use style="stroke:#000000;stroke-width:0.8;" x="55.7375" xlink:href="#mbc8297eb9e" y="246.493386"/>
      </g>
     </g>
     <g id="text_11">
      <!-- 1.0 -->
      <g transform="translate(29.65375 251.052449)scale(0.12 -0.12)">
       <use xlink:href="#DejaVuSans-49"/>
       <use x="63.623047" xlink:href="#DejaVuSans-46"/>
       <use x="95.410156" xlink:href="#DejaVuSans-48"/>
      </g>
     </g>
    </g>
    <g id="ytick_3">
     <g id="line2d_21">
      <path clip-path="url(#pd01ec00051)" d="M 55.7375 209.532213 
L 493.2 209.532213 
" style="fill:none;stroke:#808080;stroke-linecap:square;stroke-width:0.8;"/>
     </g>
     <g id="line2d_22">
      <g>
       <use style="stroke:#000000;stroke-width:0.8;" x="55.7375" xlink:href="#mbc8297eb9e" y="209.532213"/>
      </g>
     </g>
     <g id="text_12">
      <!-- 1.5 -->
      <g transform="translate(29.65375 214.091276)scale(0.12 -0.12)">
       <use xlink:href="#DejaVuSans-49"/>
       <use x="63.623047" xlink:href="#DejaVuSans-46"/>
       <use x="95.410156" xlink:href="#DejaVuSans-53"/>
      </g>
     </g>
    </g>
    <g id="ytick_4">
     <g id="line2d_23">
      <path clip-path="url(#pd01ec00051)" d="M 55.7375 172.57104 
L 493.2 172.57104 
" style="fill:none;stroke:#808080;stroke-linecap:square;stroke-width:0.8;"/>
     </g>
     <g id="line2d_24">
      <g>
       <use style="stroke:#000000;stroke-width:0.8;" x="55.7375" xlink:href="#mbc8297eb9e" y="172.57104"/>
      </g>
     </g>
     <g id="text_13">
      <!-- 2.0 -->
      <g transform="translate(29.65375 177.130102)scale(0.12 -0.12)">
       <use xlink:href="#DejaVuSans-50"/>
       <use x="63.623047" xlink:href="#DejaVuSans-46"/>
       <use x="95.410156" xlink:href="#DejaVuSans-48"/>
      </g>
     </g>
    </g>
    <g id="ytick_5">
     <g id="line2d_25">
      <path clip-path="url(#pd01ec00051)" d="M 55.7375 135.609867 
L 493.2 135.609867 
" style="fill:none;stroke:#808080;stroke-linecap:square;stroke-width:0.8;"/>
     </g>
     <g id="line2d_26">
      <g>
       <use style="stroke:#000000;stroke-width:0.8;" x="55.7375" xlink:href="#mbc8297eb9e" y="135.609867"/>
      </g>
     </g>
     <g id="text_14">
      <!-- 2.5 -->
      <g transform="translate(29.65375 140.168929)scale(0.12 -0.12)">
       <use xlink:href="#DejaVuSans-50"/>
       <use x="63.623047" xlink:href="#DejaVuSans-46"/>
       <use x="95.410156" xlink:href="#DejaVuSans-53"/>
      </g>
     </g>
    </g>
    <g id="ytick_6">
     <g id="line2d_27">
      <path clip-path="url(#pd01ec00051)" d="M 55.7375 98.648694 
L 493.2 98.648694 
" style="fill:none;stroke:#808080;stroke-linecap:square;stroke-width:0.8;"/>
     </g>
     <g id="line2d_28">
      <g>
       <use style="stroke:#000000;stroke-width:0.8;" x="55.7375" xlink:href="#mbc8297eb9e" y="98.648694"/>
      </g>
     </g>
     <g id="text_15">
      <!-- 3.0 -->
      <defs>
       <path d="M 40.578125 39.3125 
Q 47.65625 37.796875 51.625 33 
Q 55.609375 28.21875 55.609375 21.1875 
Q 55.609375 10.40625 48.1875 4.484375 
Q 40.765625 -1.421875 27.09375 -1.421875 
Q 22.515625 -1.421875 17.65625 -0.515625 
Q 12.796875 0.390625 7.625 2.203125 
L 7.625 11.71875 
Q 11.71875 9.328125 16.59375 8.109375 
Q 21.484375 6.890625 26.8125 6.890625 
Q 36.078125 6.890625 40.9375 10.546875 
Q 45.796875 14.203125 45.796875 21.1875 
Q 45.796875 27.640625 41.28125 31.265625 
Q 36.765625 34.90625 28.71875 34.90625 
L 20.21875 34.90625 
L 20.21875 43.015625 
L 29.109375 43.015625 
Q 36.375 43.015625 40.234375 45.921875 
Q 44.09375 48.828125 44.09375 54.296875 
Q 44.09375 59.90625 40.109375 62.90625 
Q 36.140625 65.921875 28.71875 65.921875 
Q 24.65625 65.921875 20.015625 65.03125 
Q 15.375 64.15625 9.8125 62.3125 
L 9.8125 71.09375 
Q 15.4375 72.65625 20.34375 73.4375 
Q 25.25 74.21875 29.59375 74.21875 
Q 40.828125 74.21875 47.359375 69.109375 
Q 53.90625 64.015625 53.90625 55.328125 
Q 53.90625 49.265625 50.4375 45.09375 
Q 46.96875 40.921875 40.578125 39.3125 
z
" id="DejaVuSans-51"/>
      </defs>
      <g transform="translate(29.65375 103.207756)scale(0.12 -0.12)">
       <use xlink:href="#DejaVuSans-51"/>
       <use x="63.623047" xlink:href="#DejaVuSans-46"/>
       <use x="95.410156" xlink:href="#DejaVuSans-48"/>
      </g>
     </g>
    </g>
    <g id="ytick_7">
     <g id="line2d_29">
      <path clip-path="url(#pd01ec00051)" d="M 55.7375 61.687521 
L 493.2 61.687521 
" style="fill:none;stroke:#808080;stroke-linecap:square;stroke-width:0.8;"/>
     </g>
     <g id="line2d_30">
      <g>
       <use style="stroke:#000000;stroke-width:0.8;" x="55.7375" xlink:href="#mbc8297eb9e" y="61.687521"/>
      </g>
     </g>
     <g id="text_16">
      <!-- 3.5 -->
      <g transform="translate(29.65375 66.246583)scale(0.12 -0.12)">
       <use xlink:href="#DejaVuSans-51"/>
       <use x="63.623047" xlink:href="#DejaVuSans-46"/>
       <use x="95.410156" xlink:href="#DejaVuSans-53"/>
      </g>
     </g>
    </g>
    <g id="text_17">
     <!-- $NF\,$ [dB] -->
     <defs>
      <path d="M 16.890625 72.90625 
L 30.171875 72.90625 
L 50.296875 10.40625 
L 62.5 72.90625 
L 72.125 72.90625 
L 57.90625 0 
L 44.578125 0 
L 24.515625 62.890625 
L 12.3125 0 
L 2.6875 0 
z
" id="DejaVuSans-Oblique-78"/>
      <path d="M 16.890625 72.90625 
L 58.6875 72.90625 
L 57.078125 64.59375 
L 25.09375 64.59375 
L 20.90625 43.109375 
L 49.8125 43.109375 
L 48.1875 34.8125 
L 19.28125 34.8125 
L 12.5 0 
L 2.6875 0 
z
" id="DejaVuSans-Oblique-70"/>
      <path d="M 45.40625 46.390625 
L 45.40625 75.984375 
L 54.390625 75.984375 
L 54.390625 0 
L 45.40625 0 
L 45.40625 8.203125 
Q 42.578125 3.328125 38.25 0.953125 
Q 33.9375 -1.421875 27.875 -1.421875 
Q 17.96875 -1.421875 11.734375 6.484375 
Q 5.515625 14.40625 5.515625 27.296875 
Q 5.515625 40.1875 11.734375 48.09375 
Q 17.96875 56 27.875 56 
Q 33.9375 56 38.25 53.625 
Q 42.578125 51.265625 45.40625 46.390625 
z
M 14.796875 27.296875 
Q 14.796875 17.390625 18.875 11.75 
Q 22.953125 6.109375 30.078125 6.109375 
Q 37.203125 6.109375 41.296875 11.75 
Q 45.40625 17.390625 45.40625 27.296875 
Q 45.40625 37.203125 41.296875 42.84375 
Q 37.203125 48.484375 30.078125 48.484375 
Q 22.953125 48.484375 18.875 42.84375 
Q 14.796875 37.203125 14.796875 27.296875 
z
" id="DejaVuSans-100"/>
      <path d="M 19.671875 34.8125 
L 19.671875 8.109375 
L 35.5 8.109375 
Q 43.453125 8.109375 47.28125 11.40625 
Q 51.125 14.703125 51.125 21.484375 
Q 51.125 28.328125 47.28125 31.5625 
Q 43.453125 34.8125 35.5 34.8125 
z
M 19.671875 64.796875 
L 19.671875 42.828125 
L 34.28125 42.828125 
Q 41.5 42.828125 45.03125 45.53125 
Q 48.578125 48.25 48.578125 53.8125 
Q 48.578125 59.328125 45.03125 62.0625 
Q 41.5 64.796875 34.28125 64.796875 
z
M 9.8125 72.90625 
L 35.015625 72.90625 
Q 46.296875 72.90625 52.390625 68.21875 
Q 58.5 63.53125 58.5 54.890625 
Q 58.5 48.1875 55.375 44.234375 
Q 52.25 40.28125 46.1875 39.3125 
Q 53.46875 37.75 57.5 32.78125 
Q 61.53125 27.828125 61.53125 20.40625 
Q 61.53125 10.640625 54.890625 5.3125 
Q 48.25 0 35.984375 0 
L 9.8125 0 
z
" id="DejaVuSans-66"/>
     </defs>
     <g transform="translate(23.158125 192.99125)rotate(-90)scale(0.12 -0.12)">
      <use transform="translate(0 0.015625)" xlink:href="#DejaVuSans-Oblique-78"/>
      <use transform="translate(74.804688 0.015625)" xlink:href="#DejaVuSans-Oblique-70"/>
      <use transform="translate(148.559895 0.015625)" xlink:href="#DejaVuSans-32"/>
      <use transform="translate(180.347004 0.015625)" xlink:href="#DejaVuSans-91"/>
      <use transform="translate(219.360676 0.015625)" xlink:href="#DejaVuSans-100"/>
      <use transform="translate(282.837239 0.015625)" xlink:href="#DejaVuSans-66"/>
      <use transform="translate(351.440754 0.015625)" xlink:href="#DejaVuSans-93"/>
     </g>
    </g>
   </g>
   <g id="line2d_31">
    <path clip-path="url(#pd01ec00051)" d="M 75.622159 197.446894 
L 83.738346 226.866653 
L 91.854534 244.578865 
L 99.970721 256.37035 
L 108.086909 264.746392 
L 116.203096 270.971458 
L 124.319283 275.753689 
L 132.435471 279.520847 
L 140.551658 282.546702 
L 148.667846 285.014658 
L 156.784033 287.052216 
L 164.90022 288.75078 
L 173.016408 290.177589 
L 181.132595 291.383216 
L 189.248782 292.406429 
L 197.36497 293.277447 
L 205.481157 294.020175 
L 213.597345 294.653771 
L 221.713532 295.193769 
L 229.829719 295.652896 
L 237.945907 296.041683 
L 246.062094 296.368914 
L 254.178282 296.641976 
L 262.294469 296.867128 
L 270.410656 297.049703 
L 278.526844 297.194281 
L 286.643031 297.30481 
L 294.759218 297.384717 
L 302.875406 297.436985 
L 310.991593 297.46423 
L 319.107781 297.46875 
L 327.223968 297.452574 
L 335.340155 297.417502 
L 343.456343 297.365131 
L 351.57253 297.296889 
L 359.688718 297.214055 
L 367.804905 297.117773 
L 375.921092 297.009078 
L 384.03728 296.888901 
L 392.153467 296.758086 
L 400.269654 296.617399 
L 408.385842 296.467534 
L 416.502029 296.309127 
L 424.618217 296.142757 
L 432.734404 295.968954 
L 440.850591 295.788203 
L 448.966779 295.600951 
L 457.082966 295.40761 
L 465.199154 295.208556 
L 473.315341 295.004141 
" style="fill:none;stroke:#ff0000;stroke-linecap:square;stroke-width:2;"/>
   </g>
   <g id="line2d_32">
    <path clip-path="url(#pd01ec00051)" d="M 75.622159 195.643005 
L 83.738346 224.127085 
L 91.854534 240.880577 
L 99.970721 251.702899 
L 108.086909 259.105428 
L 116.203096 264.355928 
L 124.319283 268.164467 
L 132.435471 270.960001 
L 140.551658 273.017078 
L 148.667846 274.519615 
L 156.784033 275.59547 
L 164.90022 276.336293 
L 173.016408 276.809497 
L 181.132595 277.065776 
L 189.248782 277.143984 
L 197.36497 277.074398 
L 205.481157 276.880961 
L 213.597345 276.582855 
L 221.713532 276.195625 
L 229.829719 275.732003 
L 237.945907 275.202514 
L 246.062094 274.615933 
L 254.178282 273.979634 
L 262.294469 273.299858 
L 270.410656 272.581921 
L 278.526844 271.830379 
L 286.643031 271.049157 
L 294.759218 270.241657 
L 302.875406 269.410837 
L 310.991593 268.559284 
L 319.107781 267.689271 
L 327.223968 266.802798 
L 335.340155 265.901635 
L 343.456343 264.987353 
L 351.57253 264.061349 
L 359.688718 263.124872 
L 367.804905 262.179041 
L 375.921092 261.224857 
L 384.03728 260.263224 
L 392.153467 259.294956 
L 400.269654 258.320791 
L 408.385842 257.341394 
L 416.502029 256.357371 
L 424.618217 255.369273 
L 432.734404 254.377601 
L 440.850591 253.382812 
L 448.966779 252.385326 
L 457.082966 251.385524 
L 465.199154 250.383758 
L 473.315341 249.380349 
" style="fill:none;stroke:#0000ff;stroke-linecap:square;stroke-width:2;"/>
   </g>
   <g id="line2d_33">
    <path clip-path="url(#pd01ec00051)" d="M 75.622159 192.697195 
L 83.738346 219.670307 
L 91.854534 234.887496 
L 99.970721 244.168837 
L 108.086909 250.035525 
L 116.203096 253.760469 
L 124.319283 256.056609 
L 132.435471 257.354563 
L 140.551658 257.929839 
L 148.667846 257.9669 
L 156.784033 257.593885 
L 164.90022 256.902555 
L 173.016408 255.96032 
L 181.132595 254.817794 
L 189.248782 253.513698 
L 197.36497 252.078139 
L 205.481157 250.534866 
L 213.597345 248.902847 
L 221.713532 247.197405 
L 229.829719 245.431039 
L 237.945907 243.614038 
L 246.062094 241.75494 
L 254.178282 239.860878 
L 262.294469 237.937857 
L 270.410656 235.990953 
L 278.526844 234.02449 
L 286.643031 232.04216 
L 294.759218 230.047136 
L 302.875406 228.042152 
L 310.991593 226.029573 
L 319.107781 224.011454 
L 327.223968 221.989582 
L 335.340155 219.965516 
L 343.456343 217.940622 
L 351.57253 215.916096 
L 359.688718 213.892989 
L 367.804905 211.872223 
L 375.921092 209.854613 
L 384.03728 207.840876 
L 392.153467 205.831643 
L 400.269654 203.827472 
L 408.385842 201.828855 
L 416.502029 199.836226 
L 424.618217 197.849969 
L 432.734404 195.870419 
L 440.850591 193.897875 
L 448.966779 191.932596 
L 457.082966 189.97481 
L 465.199154 188.024717 
L 473.315341 186.082491 
" style="fill:none;stroke:#008000;stroke-linecap:square;stroke-width:2;"/>
   </g>
   <g id="line2d_34">
    <path clip-path="url(#pd01ec00051)" d="M 75.622159 188.64066 
L 83.738346 213.567025 
L 91.854534 226.726199 
L 99.970721 233.966206 
L 108.086909 237.820833 
L 116.203096 239.569017 
L 124.319283 239.926555 
L 132.435471 239.325263 
L 140.551658 238.040923 
L 148.667846 236.257741 
L 156.784033 234.10328 
L 164.90022 231.668537 
L 173.016408 229.020053 
L 181.132595 226.207508 
L 189.248782 223.268662 
L 197.36497 220.232651 
L 205.481157 217.122257 
L 213.597345 213.955497 
L 221.713532 210.746759 
L 229.829719 207.507631 
L 237.945907 204.247518 
L 246.062094 200.974096 
L 254.178282 197.693669 
L 262.294469 194.411434 
L 270.410656 191.131693 
L 278.526844 187.858014 
L 286.643031 184.593369 
L 294.759218 181.340227 
L 302.875406 178.100648 
L 310.991593 174.876346 
L 319.107781 171.668746 
L 327.223968 168.479029 
L 335.340155 165.308169 
L 343.456343 162.156967 
L 351.57253 159.026072 
L 359.688718 155.91601 
L 367.804905 152.827195 
L 375.921092 149.75995 
L 384.03728 146.714518 
L 392.153467 143.691072 
L 400.269654 140.689727 
L 408.385842 137.710547 
L 416.502029 134.753552 
L 424.618217 131.818725 
L 432.734404 128.906016 
L 440.850591 126.015346 
L 448.966779 123.146613 
L 457.082966 120.299694 
L 465.199154 117.474449 
L 473.315341 114.670722 
" style="fill:none;stroke:#00bfbf;stroke-linecap:square;stroke-width:2;"/>
   </g>
   <g id="line2d_35">
    <path clip-path="url(#pd01ec00051)" d="M 75.622159 183.51528 
L 83.738346 205.910428 
L 91.854534 216.560445 
L 99.970721 221.346512 
L 108.086909 222.815658 
L 116.203096 222.251703 
L 124.319283 220.371436 
L 132.435471 217.605723 
L 140.551658 214.228421 
L 148.667846 210.421314 
L 156.784033 206.309323 
L 164.90022 201.980726 
L 173.016408 197.499358 
L 181.132595 192.912255 
L 189.248782 188.254621 
L 197.36497 183.553143 
L 205.481157 178.828262 
L 213.597345 174.095766 
L 221.713532 169.367927 
L 229.829719 164.654328 
L 237.945907 159.962466 
L 246.062094 155.298218 
L 254.178282 150.666177 
L 262.294469 146.06992 
L 270.410656 141.512216 
L 278.526844 136.995179 
L 286.643031 132.520397 
L 294.759218 128.089036 
L 302.875406 123.70191 
L 310.991593 119.359556 
L 319.107781 115.062277 
L 327.223968 110.810188 
L 335.340155 106.603252 
L 343.456343 102.441303 
L 351.57253 98.324076 
L 359.688718 94.251221 
L 367.804905 90.222319 
L 375.921092 86.236898 
L 384.03728 82.294443 
L 392.153467 78.394404 
L 400.269654 74.536206 
L 408.385842 70.719251 
L 416.502029 66.94293 
L 424.618217 63.206619 
L 432.734404 59.509693 
L 440.850591 55.85152 
L 448.966779 52.231467 
L 457.082966 48.648905 
L 465.199154 45.103207 
L 473.315341 41.59375 
" style="fill:none;stroke:#bf00bf;stroke-linecap:square;stroke-width:2;"/>
   </g>
   <g id="patch_3">
    <path d="M 55.7375 310.2625 
L 55.7375 28.8 
" style="fill:none;stroke:#000000;stroke-linecap:square;stroke-linejoin:miter;stroke-width:0.8;"/>
   </g>
   <g id="patch_4">
    <path d="M 493.2 310.2625 
L 493.2 28.8 
" style="fill:none;stroke:#000000;stroke-linecap:square;stroke-linejoin:miter;stroke-width:0.8;"/>
   </g>
   <g id="patch_5">
    <path d="M 55.7375 310.2625 
L 493.2 310.2625 
" style="fill:none;stroke:#000000;stroke-linecap:square;stroke-linejoin:miter;stroke-width:0.8;"/>
   </g>
   <g id="patch_6">
    <path d="M 55.7375 28.8 
L 493.2 28.8 
" style="fill:none;stroke:#000000;stroke-linecap:square;stroke-linejoin:miter;stroke-width:0.8;"/>
   </g>
   <g id="text_18">
    <!-- Noise Figure versus width, $f_{min}$ = 200MHz -->
    <defs>
     <path d="M 9.8125 72.90625 
L 23.09375 72.90625 
L 55.421875 11.921875 
L 55.421875 72.90625 
L 64.984375 72.90625 
L 64.984375 0 
L 51.703125 0 
L 19.390625 60.984375 
L 19.390625 0 
L 9.8125 0 
z
" id="DejaVuSans-78"/>
     <path d="M 30.609375 48.390625 
Q 23.390625 48.390625 19.1875 42.75 
Q 14.984375 37.109375 14.984375 27.296875 
Q 14.984375 17.484375 19.15625 11.84375 
Q 23.34375 6.203125 30.609375 6.203125 
Q 37.796875 6.203125 41.984375 11.859375 
Q 46.1875 17.53125 46.1875 27.296875 
Q 46.1875 37.015625 41.984375 42.703125 
Q 37.796875 48.390625 30.609375 48.390625 
z
M 30.609375 56 
Q 42.328125 56 49.015625 48.375 
Q 55.71875 40.765625 55.71875 27.296875 
Q 55.71875 13.875 49.015625 6.21875 
Q 42.328125 -1.421875 30.609375 -1.421875 
Q 18.84375 -1.421875 12.171875 6.21875 
Q 5.515625 13.875 5.515625 27.296875 
Q 5.515625 40.765625 12.171875 48.375 
Q 18.84375 56 30.609375 56 
z
" id="DejaVuSans-111"/>
     <path d="M 9.421875 54.6875 
L 18.40625 54.6875 
L 18.40625 0 
L 9.421875 0 
z
M 9.421875 75.984375 
L 18.40625 75.984375 
L 18.40625 64.59375 
L 9.421875 64.59375 
z
" id="DejaVuSans-105"/>
     <path d="M 44.28125 53.078125 
L 44.28125 44.578125 
Q 40.484375 46.53125 36.375 47.5 
Q 32.28125 48.484375 27.875 48.484375 
Q 21.1875 48.484375 17.84375 46.4375 
Q 14.5 44.390625 14.5 40.28125 
Q 14.5 37.15625 16.890625 35.375 
Q 19.28125 33.59375 26.515625 31.984375 
L 29.59375 31.296875 
Q 39.15625 29.25 43.1875 25.515625 
Q 47.21875 21.78125 47.21875 15.09375 
Q 47.21875 7.46875 41.1875 3.015625 
Q 35.15625 -1.421875 24.609375 -1.421875 
Q 20.21875 -1.421875 15.453125 -0.5625 
Q 10.6875 0.296875 5.421875 2 
L 5.421875 11.28125 
Q 10.40625 8.6875 15.234375 7.390625 
Q 20.0625 6.109375 24.8125 6.109375 
Q 31.15625 6.109375 34.5625 8.28125 
Q 37.984375 10.453125 37.984375 14.40625 
Q 37.984375 18.0625 35.515625 20.015625 
Q 33.0625 21.96875 24.703125 23.78125 
L 21.578125 24.515625 
Q 13.234375 26.265625 9.515625 29.90625 
Q 5.8125 33.546875 5.8125 39.890625 
Q 5.8125 47.609375 11.28125 51.796875 
Q 16.75 56 26.8125 56 
Q 31.78125 56 36.171875 55.265625 
Q 40.578125 54.546875 44.28125 53.078125 
z
" id="DejaVuSans-115"/>
     <path d="M 56.203125 29.59375 
L 56.203125 25.203125 
L 14.890625 25.203125 
Q 15.484375 15.921875 20.484375 11.0625 
Q 25.484375 6.203125 34.421875 6.203125 
Q 39.59375 6.203125 44.453125 7.46875 
Q 49.3125 8.734375 54.109375 11.28125 
L 54.109375 2.78125 
Q 49.265625 0.734375 44.1875 -0.34375 
Q 39.109375 -1.421875 33.890625 -1.421875 
Q 20.796875 -1.421875 13.15625 6.1875 
Q 5.515625 13.8125 5.515625 26.8125 
Q 5.515625 40.234375 12.765625 48.109375 
Q 20.015625 56 32.328125 56 
Q 43.359375 56 49.78125 48.890625 
Q 56.203125 41.796875 56.203125 29.59375 
z
M 47.21875 32.234375 
Q 47.125 39.59375 43.09375 43.984375 
Q 39.0625 48.390625 32.421875 48.390625 
Q 24.90625 48.390625 20.390625 44.140625 
Q 15.875 39.890625 15.1875 32.171875 
z
" id="DejaVuSans-101"/>
     <path d="M 9.8125 72.90625 
L 51.703125 72.90625 
L 51.703125 64.59375 
L 19.671875 64.59375 
L 19.671875 43.109375 
L 48.578125 43.109375 
L 48.578125 34.8125 
L 19.671875 34.8125 
L 19.671875 0 
L 9.8125 0 
z
" id="DejaVuSans-70"/>
     <path d="M 45.40625 27.984375 
Q 45.40625 37.75 41.375 43.109375 
Q 37.359375 48.484375 30.078125 48.484375 
Q 22.859375 48.484375 18.828125 43.109375 
Q 14.796875 37.75 14.796875 27.984375 
Q 14.796875 18.265625 18.828125 12.890625 
Q 22.859375 7.515625 30.078125 7.515625 
Q 37.359375 7.515625 41.375 12.890625 
Q 45.40625 18.265625 45.40625 27.984375 
z
M 54.390625 6.78125 
Q 54.390625 -7.171875 48.1875 -13.984375 
Q 42 -20.796875 29.203125 -20.796875 
Q 24.46875 -20.796875 20.265625 -20.09375 
Q 16.0625 -19.390625 12.109375 -17.921875 
L 12.109375 -9.1875 
Q 16.0625 -11.328125 19.921875 -12.34375 
Q 23.78125 -13.375 27.78125 -13.375 
Q 36.625 -13.375 41.015625 -8.765625 
Q 45.40625 -4.15625 45.40625 5.171875 
L 45.40625 9.625 
Q 42.625 4.78125 38.28125 2.390625 
Q 33.9375 0 27.875 0 
Q 17.828125 0 11.671875 7.65625 
Q 5.515625 15.328125 5.515625 27.984375 
Q 5.515625 40.671875 11.671875 48.328125 
Q 17.828125 56 27.875 56 
Q 33.9375 56 38.28125 53.609375 
Q 42.625 51.21875 45.40625 46.390625 
L 45.40625 54.6875 
L 54.390625 54.6875 
z
" id="DejaVuSans-103"/>
     <path d="M 41.109375 46.296875 
Q 39.59375 47.171875 37.8125 47.578125 
Q 36.03125 48 33.890625 48 
Q 26.265625 48 22.1875 43.046875 
Q 18.109375 38.09375 18.109375 28.8125 
L 18.109375 0 
L 9.078125 0 
L 9.078125 54.6875 
L 18.109375 54.6875 
L 18.109375 46.1875 
Q 20.953125 51.171875 25.484375 53.578125 
Q 30.03125 56 36.53125 56 
Q 37.453125 56 38.578125 55.875 
Q 39.703125 55.765625 41.0625 55.515625 
z
" id="DejaVuSans-114"/>
     <path d="M 2.984375 54.6875 
L 12.5 54.6875 
L 29.59375 8.796875 
L 46.6875 54.6875 
L 56.203125 54.6875 
L 35.6875 0 
L 23.484375 0 
z
" id="DejaVuSans-118"/>
     <path d="M 4.203125 54.6875 
L 13.1875 54.6875 
L 24.421875 12.015625 
L 35.59375 54.6875 
L 46.1875 54.6875 
L 57.421875 12.015625 
L 68.609375 54.6875 
L 77.59375 54.6875 
L 63.28125 0 
L 52.6875 0 
L 40.921875 44.828125 
L 29.109375 0 
L 18.5 0 
z
" id="DejaVuSans-119"/>
     <path d="M 18.3125 70.21875 
L 18.3125 54.6875 
L 36.8125 54.6875 
L 36.8125 47.703125 
L 18.3125 47.703125 
L 18.3125 18.015625 
Q 18.3125 11.328125 20.140625 9.421875 
Q 21.96875 7.515625 27.59375 7.515625 
L 36.8125 7.515625 
L 36.8125 0 
L 27.59375 0 
Q 17.1875 0 13.234375 3.875 
Q 9.28125 7.765625 9.28125 18.015625 
L 9.28125 47.703125 
L 2.6875 47.703125 
L 2.6875 54.6875 
L 9.28125 54.6875 
L 9.28125 70.21875 
z
" id="DejaVuSans-116"/>
     <path d="M 54.890625 33.015625 
L 54.890625 0 
L 45.90625 0 
L 45.90625 32.71875 
Q 45.90625 40.484375 42.875 44.328125 
Q 39.84375 48.1875 33.796875 48.1875 
Q 26.515625 48.1875 22.3125 43.546875 
Q 18.109375 38.921875 18.109375 30.90625 
L 18.109375 0 
L 9.078125 0 
L 9.078125 75.984375 
L 18.109375 75.984375 
L 18.109375 46.1875 
Q 21.34375 51.125 25.703125 53.5625 
Q 30.078125 56 35.796875 56 
Q 45.21875 56 50.046875 50.171875 
Q 54.890625 44.34375 54.890625 33.015625 
z
" id="DejaVuSans-104"/>
     <path d="M 11.71875 12.40625 
L 22.015625 12.40625 
L 22.015625 4 
L 14.015625 -11.625 
L 7.71875 -11.625 
L 11.71875 4 
z
" id="DejaVuSans-44"/>
     <path d="M 47.796875 75.984375 
L 46.390625 68.5 
L 37.796875 68.5 
Q 32.90625 68.5 30.6875 66.578125 
Q 28.46875 64.65625 27.390625 59.515625 
L 26.421875 54.6875 
L 41.21875 54.6875 
L 39.890625 47.703125 
L 25.09375 47.703125 
L 15.828125 0 
L 6.78125 0 
L 16.109375 47.703125 
L 7.515625 47.703125 
L 8.796875 54.6875 
L 17.390625 54.6875 
L 18.109375 58.5 
Q 19.96875 68.171875 24.625 72.078125 
Q 29.296875 75.984375 39.3125 75.984375 
z
" id="DejaVuSans-Oblique-102"/>
     <path d="M 89.796875 33.015625 
L 83.40625 0 
L 74.421875 0 
L 80.71875 32.71875 
Q 81.109375 34.8125 81.296875 36.328125 
Q 81.5 37.84375 81.5 38.921875 
Q 81.5 43.3125 79.046875 45.75 
Q 76.609375 48.1875 72.21875 48.1875 
Q 65.671875 48.1875 60.546875 43.28125 
Q 55.421875 38.375 53.90625 30.515625 
L 47.90625 0 
L 38.921875 0 
L 45.3125 32.71875 
Q 45.703125 34.515625 45.890625 36.046875 
Q 46.09375 37.59375 46.09375 38.8125 
Q 46.09375 43.265625 43.65625 45.71875 
Q 41.21875 48.1875 36.921875 48.1875 
Q 30.28125 48.1875 25.140625 43.28125 
Q 20.015625 38.375 18.5 30.515625 
L 12.5 0 
L 3.515625 0 
L 14.203125 54.6875 
L 23.1875 54.6875 
L 21.484375 46.1875 
Q 25.140625 50.984375 30.046875 53.484375 
Q 34.96875 56 40.578125 56 
Q 46.53125 56 50.359375 52.875 
Q 54.203125 49.75 54.984375 44.1875 
Q 59.078125 49.953125 64.46875 52.96875 
Q 69.875 56 75.875 56 
Q 82.90625 56 86.734375 51.953125 
Q 90.578125 47.90625 90.578125 40.484375 
Q 90.578125 38.875 90.375 36.9375 
Q 90.1875 35.015625 89.796875 33.015625 
z
" id="DejaVuSans-Oblique-109"/>
     <path d="M 18.3125 75.984375 
L 27.296875 75.984375 
L 25.09375 64.59375 
L 16.109375 64.59375 
z
M 14.203125 54.6875 
L 23.1875 54.6875 
L 12.5 0 
L 3.515625 0 
z
" id="DejaVuSans-Oblique-105"/>
     <path d="M 55.71875 33.015625 
L 49.3125 0 
L 40.28125 0 
L 46.6875 32.671875 
Q 47.125 34.96875 47.359375 36.71875 
Q 47.609375 38.484375 47.609375 39.5 
Q 47.609375 43.609375 45.015625 45.890625 
Q 42.4375 48.1875 37.796875 48.1875 
Q 30.5625 48.1875 25.34375 43.375 
Q 20.125 38.578125 18.5 30.328125 
L 12.5 0 
L 3.515625 0 
L 14.109375 54.6875 
L 23.09375 54.6875 
L 21.296875 46.09375 
Q 25.046875 50.828125 30.3125 53.40625 
Q 35.59375 56 41.40625 56 
Q 48.640625 56 52.609375 52.09375 
Q 56.59375 48.1875 56.59375 41.109375 
Q 56.59375 39.359375 56.375 37.359375 
Q 56.15625 35.359375 55.71875 33.015625 
z
" id="DejaVuSans-Oblique-110"/>
     <path d="M 10.59375 45.40625 
L 73.1875 45.40625 
L 73.1875 37.203125 
L 10.59375 37.203125 
z
M 10.59375 25.484375 
L 73.1875 25.484375 
L 73.1875 17.1875 
L 10.59375 17.1875 
z
" id="DejaVuSans-61"/>
     <path d="M 9.8125 72.90625 
L 24.515625 72.90625 
L 43.109375 23.296875 
L 61.8125 72.90625 
L 76.515625 72.90625 
L 76.515625 0 
L 66.890625 0 
L 66.890625 64.015625 
L 48.09375 14.015625 
L 38.1875 14.015625 
L 19.390625 64.015625 
L 19.390625 0 
L 9.8125 0 
z
" id="DejaVuSans-77"/>
     <path d="M 9.8125 72.90625 
L 19.671875 72.90625 
L 19.671875 43.015625 
L 55.515625 43.015625 
L 55.515625 72.90625 
L 65.375 72.90625 
L 65.375 0 
L 55.515625 0 
L 55.515625 34.71875 
L 19.671875 34.71875 
L 19.671875 0 
L 9.8125 0 
z
" id="DejaVuSans-72"/>
     <path d="M 5.515625 54.6875 
L 48.1875 54.6875 
L 48.1875 46.484375 
L 14.40625 7.171875 
L 48.1875 7.171875 
L 48.1875 0 
L 4.296875 0 
L 4.296875 8.203125 
L 38.09375 47.515625 
L 5.515625 47.515625 
z
" id="DejaVuSans-122"/>
    </defs>
    <g transform="translate(149.72875 22.8)scale(0.12 -0.12)">
     <use transform="translate(0 0.015625)" xlink:href="#DejaVuSans-78"/>
     <use transform="translate(74.804688 0.015625)" xlink:href="#DejaVuSans-111"/>
     <use transform="translate(135.986328 0.015625)" xlink:href="#DejaVuSans-105"/>
     <use transform="translate(163.769531 0.015625)" xlink:href="#DejaVuSans-115"/>
     <use transform="translate(215.869141 0.015625)" xlink:href="#DejaVuSans-101"/>
     <use transform="translate(277.392578 0.015625)" xlink:href="#DejaVuSans-32"/>
     <use transform="translate(309.179688 0.015625)" xlink:href="#DejaVuSans-70"/>
     <use transform="translate(366.699219 0.015625)" xlink:href="#DejaVuSans-105"/>
     <use transform="translate(394.482422 0.015625)" xlink:href="#DejaVuSans-103"/>
     <use transform="translate(457.958984 0.015625)" xlink:href="#DejaVuSans-117"/>
     <use transform="translate(521.337891 0.015625)" xlink:href="#DejaVuSans-114"/>
     <use transform="translate(562.451172 0.015625)" xlink:href="#DejaVuSans-101"/>
     <use transform="translate(623.974609 0.015625)" xlink:href="#DejaVuSans-32"/>
     <use transform="translate(655.761719 0.015625)" xlink:href="#DejaVuSans-118"/>
     <use transform="translate(714.941406 0.015625)" xlink:href="#DejaVuSans-101"/>
     <use transform="translate(776.464844 0.015625)" xlink:href="#DejaVuSans-114"/>
     <use transform="translate(817.578125 0.015625)" xlink:href="#DejaVuSans-115"/>
     <use transform="translate(869.677734 0.015625)" xlink:href="#DejaVuSans-117"/>
     <use transform="translate(933.056641 0.015625)" xlink:href="#DejaVuSans-115"/>
     <use transform="translate(985.15625 0.015625)" xlink:href="#DejaVuSans-32"/>
     <use transform="translate(1016.943359 0.015625)" xlink:href="#DejaVuSans-119"/>
     <use transform="translate(1098.730469 0.015625)" xlink:href="#DejaVuSans-105"/>
     <use transform="translate(1126.513672 0.015625)" xlink:href="#DejaVuSans-100"/>
     <use transform="translate(1189.990234 0.015625)" xlink:href="#DejaVuSans-116"/>
     <use transform="translate(1229.199219 0.015625)" xlink:href="#DejaVuSans-104"/>
     <use transform="translate(1292.578125 0.015625)" xlink:href="#DejaVuSans-44"/>
     <use transform="translate(1324.365234 0.015625)" xlink:href="#DejaVuSans-32"/>
     <use transform="translate(1356.152344 0.015625)" xlink:href="#DejaVuSans-Oblique-102"/>
     <use transform="translate(1391.357422 -16.390625)scale(0.7)" xlink:href="#DejaVuSans-Oblique-109"/>
     <use transform="translate(1459.545898 -16.390625)scale(0.7)" xlink:href="#DejaVuSans-Oblique-105"/>
     <use transform="translate(1478.994141 -16.390625)scale(0.7)" xlink:href="#DejaVuSans-Oblique-110"/>
     <use transform="translate(1526.09375 0.015625)" xlink:href="#DejaVuSans-32"/>
     <use transform="translate(1557.880859 0.015625)" xlink:href="#DejaVuSans-61"/>
     <use transform="translate(1641.669922 0.015625)" xlink:href="#DejaVuSans-32"/>
     <use transform="translate(1673.457031 0.015625)" xlink:href="#DejaVuSans-50"/>
     <use transform="translate(1737.080078 0.015625)" xlink:href="#DejaVuSans-48"/>
     <use transform="translate(1800.703125 0.015625)" xlink:href="#DejaVuSans-48"/>
     <use transform="translate(1864.326172 0.015625)" xlink:href="#DejaVuSans-77"/>
     <use transform="translate(1950.605469 0.015625)" xlink:href="#DejaVuSans-72"/>
     <use transform="translate(2025.800781 0.015625)" xlink:href="#DejaVuSans-122"/>
    </g>
   </g>
   <g id="legend_1">
    <g id="patch_7">
     <path d="M 62.7375 95.86875 
L 195.5775 95.86875 
Q 197.5775 95.86875 197.5775 93.86875 
L 197.5775 35.8 
Q 197.5775 33.8 195.5775 33.8 
L 62.7375 33.8 
Q 60.7375 33.8 60.7375 35.8 
L 60.7375 93.86875 
Q 60.7375 95.86875 62.7375 95.86875 
z
" style="fill:#ffffff;opacity:0.8;stroke:#cccccc;stroke-linejoin:miter;"/>
    </g>
    <g id="line2d_36">
     <path d="M 62.7375 41.418125 
L 72.7375 41.418125 
" style="fill:none;stroke:#ff0000;stroke-linecap:square;stroke-width:2;"/>
    </g>
    <g id="line2d_37"/>
    <g id="text_19">
     <!-- $NF: f_{max}$ =  2.0e+09 -->
     <defs>
      <path d="M 11.71875 12.40625 
L 22.015625 12.40625 
L 22.015625 0 
L 11.71875 0 
z
M 11.71875 51.703125 
L 22.015625 51.703125 
L 22.015625 39.3125 
L 11.71875 39.3125 
z
" id="DejaVuSans-58"/>
      <path d="M 53.71875 31.203125 
L 47.609375 0 
L 38.625 0 
L 40.28125 8.296875 
Q 36.328125 3.421875 31.265625 1 
Q 26.21875 -1.421875 20.015625 -1.421875 
Q 13.03125 -1.421875 8.5625 2.84375 
Q 4.109375 7.125 4.109375 13.8125 
Q 4.109375 23.390625 11.75 28.953125 
Q 19.390625 34.515625 32.8125 34.515625 
L 45.3125 34.515625 
L 45.796875 36.921875 
Q 45.90625 37.3125 45.953125 37.765625 
Q 46 38.234375 46 39.203125 
Q 46 43.5625 42.453125 45.96875 
Q 38.921875 48.390625 32.515625 48.390625 
Q 28.125 48.390625 23.5 47.265625 
Q 18.890625 46.140625 14.015625 43.890625 
L 15.578125 52.203125 
Q 20.65625 54.109375 25.515625 55.046875 
Q 30.375 56 34.90625 56 
Q 44.578125 56 49.625 51.796875 
Q 54.6875 47.609375 54.6875 39.59375 
Q 54.6875 37.984375 54.4375 35.8125 
Q 54.203125 33.640625 53.71875 31.203125 
z
M 44 27.484375 
L 35.015625 27.484375 
Q 23.96875 27.484375 18.671875 24.53125 
Q 13.375 21.578125 13.375 15.375 
Q 13.375 11.078125 16.078125 8.640625 
Q 18.796875 6.203125 23.578125 6.203125 
Q 30.90625 6.203125 36.375 11.453125 
Q 41.84375 16.703125 43.609375 25.484375 
z
" id="DejaVuSans-Oblique-97"/>
      <path d="M 60.015625 54.6875 
L 34.90625 27.875 
L 50.296875 0 
L 39.984375 0 
L 28.421875 21.6875 
L 8.296875 0 
L -2.59375 0 
L 24.3125 28.8125 
L 10.015625 54.6875 
L 20.3125 54.6875 
L 30.8125 34.90625 
L 49.125 54.6875 
z
" id="DejaVuSans-Oblique-120"/>
      <path d="M 46 62.703125 
L 46 35.5 
L 73.1875 35.5 
L 73.1875 27.203125 
L 46 27.203125 
L 46 0 
L 37.796875 0 
L 37.796875 27.203125 
L 10.59375 27.203125 
L 10.59375 35.5 
L 37.796875 35.5 
L 37.796875 62.703125 
z
" id="DejaVuSans-43"/>
      <path d="M 10.984375 1.515625 
L 10.984375 10.5 
Q 14.703125 8.734375 18.5 7.8125 
Q 22.3125 6.890625 25.984375 6.890625 
Q 35.75 6.890625 40.890625 13.453125 
Q 46.046875 20.015625 46.78125 33.40625 
Q 43.953125 29.203125 39.59375 26.953125 
Q 35.25 24.703125 29.984375 24.703125 
Q 19.046875 24.703125 12.671875 31.3125 
Q 6.296875 37.9375 6.296875 49.421875 
Q 6.296875 60.640625 12.9375 67.421875 
Q 19.578125 74.21875 30.609375 74.21875 
Q 43.265625 74.21875 49.921875 64.515625 
Q 56.59375 54.828125 56.59375 36.375 
Q 56.59375 19.140625 48.40625 8.859375 
Q 40.234375 -1.421875 26.421875 -1.421875 
Q 22.703125 -1.421875 18.890625 -0.6875 
Q 15.09375 0.046875 10.984375 1.515625 
z
M 30.609375 32.421875 
Q 37.25 32.421875 41.125 36.953125 
Q 45.015625 41.5 45.015625 49.421875 
Q 45.015625 57.28125 41.125 61.84375 
Q 37.25 66.40625 30.609375 66.40625 
Q 23.96875 66.40625 20.09375 61.84375 
Q 16.21875 57.28125 16.21875 49.421875 
Q 16.21875 41.5 20.09375 36.953125 
Q 23.96875 32.421875 30.609375 32.421875 
z
" id="DejaVuSans-57"/>
     </defs>
     <g transform="translate(74.7375 44.918125)scale(0.12 -0.12)">
      <use transform="translate(0 0.015625)" xlink:href="#DejaVuSans-Oblique-78"/>
      <use transform="translate(74.804688 0.015625)" xlink:href="#DejaVuSans-Oblique-70"/>
      <use transform="translate(151.806641 0.015625)" xlink:href="#DejaVuSans-58"/>
      <use transform="translate(204.980469 0.015625)" xlink:href="#DejaVuSans-Oblique-102"/>
      <use transform="translate(240.185547 -16.390625)scale(0.7)" xlink:href="#DejaVuSans-Oblique-109"/>
      <use transform="translate(308.374023 -16.390625)scale(0.7)" xlink:href="#DejaVuSans-Oblique-97"/>
      <use transform="translate(351.269531 -16.390625)scale(0.7)" xlink:href="#DejaVuSans-Oblique-120"/>
      <use transform="translate(395.429688 0.015625)" xlink:href="#DejaVuSans-32"/>
      <use transform="translate(427.216797 0.015625)" xlink:href="#DejaVuSans-61"/>
      <use transform="translate(511.005859 0.015625)" xlink:href="#DejaVuSans-32"/>
      <use transform="translate(542.792969 0.015625)" xlink:href="#DejaVuSans-32"/>
      <use transform="translate(574.580078 0.015625)" xlink:href="#DejaVuSans-50"/>
      <use transform="translate(638.203125 0.015625)" xlink:href="#DejaVuSans-46"/>
      <use transform="translate(669.990234 0.015625)" xlink:href="#DejaVuSans-48"/>
      <use transform="translate(733.613281 0.015625)" xlink:href="#DejaVuSans-101"/>
      <use transform="translate(795.136719 0.015625)" xlink:href="#DejaVuSans-43"/>
      <use transform="translate(878.925781 0.015625)" xlink:href="#DejaVuSans-48"/>
      <use transform="translate(942.548828 0.015625)" xlink:href="#DejaVuSans-57"/>
     </g>
    </g>
    <g id="line2d_38">
     <path d="M 62.7375 53.031875 
L 72.7375 53.031875 
" style="fill:none;stroke:#0000ff;stroke-linecap:square;stroke-width:2;"/>
    </g>
    <g id="line2d_39"/>
    <g id="text_20">
     <!-- $NF: f_{max}$ =  4.0e+09 -->
     <defs>
      <path d="M 37.796875 64.3125 
L 12.890625 25.390625 
L 37.796875 25.390625 
z
M 35.203125 72.90625 
L 47.609375 72.90625 
L 47.609375 25.390625 
L 58.015625 25.390625 
L 58.015625 17.1875 
L 47.609375 17.1875 
L 47.609375 0 
L 37.796875 0 
L 37.796875 17.1875 
L 4.890625 17.1875 
L 4.890625 26.703125 
z
" id="DejaVuSans-52"/>
     </defs>
     <g transform="translate(74.7375 56.531875)scale(0.12 -0.12)">
      <use transform="translate(0 0.015625)" xlink:href="#DejaVuSans-Oblique-78"/>
      <use transform="translate(74.804688 0.015625)" xlink:href="#DejaVuSans-Oblique-70"/>
      <use transform="translate(151.806641 0.015625)" xlink:href="#DejaVuSans-58"/>
      <use transform="translate(204.980469 0.015625)" xlink:href="#DejaVuSans-Oblique-102"/>
      <use transform="translate(240.185547 -16.390625)scale(0.7)" xlink:href="#DejaVuSans-Oblique-109"/>
      <use transform="translate(308.374023 -16.390625)scale(0.7)" xlink:href="#DejaVuSans-Oblique-97"/>
      <use transform="translate(351.269531 -16.390625)scale(0.7)" xlink:href="#DejaVuSans-Oblique-120"/>
      <use transform="translate(395.429688 0.015625)" xlink:href="#DejaVuSans-32"/>
      <use transform="translate(427.216797 0.015625)" xlink:href="#DejaVuSans-61"/>
      <use transform="translate(511.005859 0.015625)" xlink:href="#DejaVuSans-32"/>
      <use transform="translate(542.792969 0.015625)" xlink:href="#DejaVuSans-32"/>
      <use transform="translate(574.580078 0.015625)" xlink:href="#DejaVuSans-52"/>
      <use transform="translate(638.203125 0.015625)" xlink:href="#DejaVuSans-46"/>
      <use transform="translate(669.990234 0.015625)" xlink:href="#DejaVuSans-48"/>
      <use transform="translate(733.613281 0.015625)" xlink:href="#DejaVuSans-101"/>
      <use transform="translate(795.136719 0.015625)" xlink:href="#DejaVuSans-43"/>
      <use transform="translate(878.925781 0.015625)" xlink:href="#DejaVuSans-48"/>
      <use transform="translate(942.548828 0.015625)" xlink:href="#DejaVuSans-57"/>
     </g>
    </g>
    <g id="line2d_40">
     <path d="M 62.7375 64.645625 
L 72.7375 64.645625 
" style="fill:none;stroke:#008000;stroke-linecap:square;stroke-width:2;"/>
    </g>
    <g id="line2d_41"/>
    <g id="text_21">
     <!-- $NF: f_{max}$ =  6.0e+09 -->
     <defs>
      <path d="M 33.015625 40.375 
Q 26.375 40.375 22.484375 35.828125 
Q 18.609375 31.296875 18.609375 23.390625 
Q 18.609375 15.53125 22.484375 10.953125 
Q 26.375 6.390625 33.015625 6.390625 
Q 39.65625 6.390625 43.53125 10.953125 
Q 47.40625 15.53125 47.40625 23.390625 
Q 47.40625 31.296875 43.53125 35.828125 
Q 39.65625 40.375 33.015625 40.375 
z
M 52.59375 71.296875 
L 52.59375 62.3125 
Q 48.875 64.0625 45.09375 64.984375 
Q 41.3125 65.921875 37.59375 65.921875 
Q 27.828125 65.921875 22.671875 59.328125 
Q 17.53125 52.734375 16.796875 39.40625 
Q 19.671875 43.65625 24.015625 45.921875 
Q 28.375 48.1875 33.59375 48.1875 
Q 44.578125 48.1875 50.953125 41.515625 
Q 57.328125 34.859375 57.328125 23.390625 
Q 57.328125 12.15625 50.6875 5.359375 
Q 44.046875 -1.421875 33.015625 -1.421875 
Q 20.359375 -1.421875 13.671875 8.265625 
Q 6.984375 17.96875 6.984375 36.375 
Q 6.984375 53.65625 15.1875 63.9375 
Q 23.390625 74.21875 37.203125 74.21875 
Q 40.921875 74.21875 44.703125 73.484375 
Q 48.484375 72.75 52.59375 71.296875 
z
" id="DejaVuSans-54"/>
     </defs>
     <g transform="translate(74.7375 68.145625)scale(0.12 -0.12)">
      <use transform="translate(0 0.015625)" xlink:href="#DejaVuSans-Oblique-78"/>
      <use transform="translate(74.804688 0.015625)" xlink:href="#DejaVuSans-Oblique-70"/>
      <use transform="translate(151.806641 0.015625)" xlink:href="#DejaVuSans-58"/>
      <use transform="translate(204.980469 0.015625)" xlink:href="#DejaVuSans-Oblique-102"/>
      <use transform="translate(240.185547 -16.390625)scale(0.7)" xlink:href="#DejaVuSans-Oblique-109"/>
      <use transform="translate(308.374023 -16.390625)scale(0.7)" xlink:href="#DejaVuSans-Oblique-97"/>
      <use transform="translate(351.269531 -16.390625)scale(0.7)" xlink:href="#DejaVuSans-Oblique-120"/>
      <use transform="translate(395.429688 0.015625)" xlink:href="#DejaVuSans-32"/>
      <use transform="translate(427.216797 0.015625)" xlink:href="#DejaVuSans-61"/>
      <use transform="translate(511.005859 0.015625)" xlink:href="#DejaVuSans-32"/>
      <use transform="translate(542.792969 0.015625)" xlink:href="#DejaVuSans-32"/>
      <use transform="translate(574.580078 0.015625)" xlink:href="#DejaVuSans-54"/>
      <use transform="translate(638.203125 0.015625)" xlink:href="#DejaVuSans-46"/>
      <use transform="translate(669.990234 0.015625)" xlink:href="#DejaVuSans-48"/>
      <use transform="translate(733.613281 0.015625)" xlink:href="#DejaVuSans-101"/>
      <use transform="translate(795.136719 0.015625)" xlink:href="#DejaVuSans-43"/>
      <use transform="translate(878.925781 0.015625)" xlink:href="#DejaVuSans-48"/>
      <use transform="translate(942.548828 0.015625)" xlink:href="#DejaVuSans-57"/>
     </g>
    </g>
    <g id="line2d_42">
     <path d="M 62.7375 76.259375 
L 72.7375 76.259375 
" style="fill:none;stroke:#00bfbf;stroke-linecap:square;stroke-width:2;"/>
    </g>
    <g id="line2d_43"/>
    <g id="text_22">
     <!-- $NF: f_{max}$ =  8.0e+09 -->
     <defs>
      <path d="M 31.78125 34.625 
Q 24.75 34.625 20.71875 30.859375 
Q 16.703125 27.09375 16.703125 20.515625 
Q 16.703125 13.921875 20.71875 10.15625 
Q 24.75 6.390625 31.78125 6.390625 
Q 38.8125 6.390625 42.859375 10.171875 
Q 46.921875 13.96875 46.921875 20.515625 
Q 46.921875 27.09375 42.890625 30.859375 
Q 38.875 34.625 31.78125 34.625 
z
M 21.921875 38.8125 
Q 15.578125 40.375 12.03125 44.71875 
Q 8.5 49.078125 8.5 55.328125 
Q 8.5 64.0625 14.71875 69.140625 
Q 20.953125 74.21875 31.78125 74.21875 
Q 42.671875 74.21875 48.875 69.140625 
Q 55.078125 64.0625 55.078125 55.328125 
Q 55.078125 49.078125 51.53125 44.71875 
Q 48 40.375 41.703125 38.8125 
Q 48.828125 37.15625 52.796875 32.3125 
Q 56.78125 27.484375 56.78125 20.515625 
Q 56.78125 9.90625 50.3125 4.234375 
Q 43.84375 -1.421875 31.78125 -1.421875 
Q 19.734375 -1.421875 13.25 4.234375 
Q 6.78125 9.90625 6.78125 20.515625 
Q 6.78125 27.484375 10.78125 32.3125 
Q 14.796875 37.15625 21.921875 38.8125 
z
M 18.3125 54.390625 
Q 18.3125 48.734375 21.84375 45.5625 
Q 25.390625 42.390625 31.78125 42.390625 
Q 38.140625 42.390625 41.71875 45.5625 
Q 45.3125 48.734375 45.3125 54.390625 
Q 45.3125 60.0625 41.71875 63.234375 
Q 38.140625 66.40625 31.78125 66.40625 
Q 25.390625 66.40625 21.84375 63.234375 
Q 18.3125 60.0625 18.3125 54.390625 
z
" id="DejaVuSans-56"/>
     </defs>
     <g transform="translate(74.7375 79.759375)scale(0.12 -0.12)">
      <use transform="translate(0 0.015625)" xlink:href="#DejaVuSans-Oblique-78"/>
      <use transform="translate(74.804688 0.015625)" xlink:href="#DejaVuSans-Oblique-70"/>
      <use transform="translate(151.806641 0.015625)" xlink:href="#DejaVuSans-58"/>
      <use transform="translate(204.980469 0.015625)" xlink:href="#DejaVuSans-Oblique-102"/>
      <use transform="translate(240.185547 -16.390625)scale(0.7)" xlink:href="#DejaVuSans-Oblique-109"/>
      <use transform="translate(308.374023 -16.390625)scale(0.7)" xlink:href="#DejaVuSans-Oblique-97"/>
      <use transform="translate(351.269531 -16.390625)scale(0.7)" xlink:href="#DejaVuSans-Oblique-120"/>
      <use transform="translate(395.429688 0.015625)" xlink:href="#DejaVuSans-32"/>
      <use transform="translate(427.216797 0.015625)" xlink:href="#DejaVuSans-61"/>
      <use transform="translate(511.005859 0.015625)" xlink:href="#DejaVuSans-32"/>
      <use transform="translate(542.792969 0.015625)" xlink:href="#DejaVuSans-32"/>
      <use transform="translate(574.580078 0.015625)" xlink:href="#DejaVuSans-56"/>
      <use transform="translate(638.203125 0.015625)" xlink:href="#DejaVuSans-46"/>
      <use transform="translate(669.990234 0.015625)" xlink:href="#DejaVuSans-48"/>
      <use transform="translate(733.613281 0.015625)" xlink:href="#DejaVuSans-101"/>
      <use transform="translate(795.136719 0.015625)" xlink:href="#DejaVuSans-43"/>
      <use transform="translate(878.925781 0.015625)" xlink:href="#DejaVuSans-48"/>
      <use transform="translate(942.548828 0.015625)" xlink:href="#DejaVuSans-57"/>
     </g>
    </g>
    <g id="line2d_44">
     <path d="M 62.7375 87.873125 
L 72.7375 87.873125 
" style="fill:none;stroke:#bf00bf;stroke-linecap:square;stroke-width:2;"/>
    </g>
    <g id="line2d_45"/>
    <g id="text_23">
     <!-- $NF: f_{max}$ =  1.0e+10 -->
     <g transform="translate(74.7375 91.373125)scale(0.12 -0.12)">
      <use transform="translate(0 0.015625)" xlink:href="#DejaVuSans-Oblique-78"/>
      <use transform="translate(74.804688 0.015625)" xlink:href="#DejaVuSans-Oblique-70"/>
      <use transform="translate(151.806641 0.015625)" xlink:href="#DejaVuSans-58"/>
      <use transform="translate(204.980469 0.015625)" xlink:href="#DejaVuSans-Oblique-102"/>
      <use transform="translate(240.185547 -16.390625)scale(0.7)" xlink:href="#DejaVuSans-Oblique-109"/>
      <use transform="translate(308.374023 -16.390625)scale(0.7)" xlink:href="#DejaVuSans-Oblique-97"/>
      <use transform="translate(351.269531 -16.390625)scale(0.7)" xlink:href="#DejaVuSans-Oblique-120"/>
      <use transform="translate(395.429688 0.015625)" xlink:href="#DejaVuSans-32"/>
      <use transform="translate(427.216797 0.015625)" xlink:href="#DejaVuSans-61"/>
      <use transform="translate(511.005859 0.015625)" xlink:href="#DejaVuSans-32"/>
      <use transform="translate(542.792969 0.015625)" xlink:href="#DejaVuSans-32"/>
      <use transform="translate(574.580078 0.015625)" xlink:href="#DejaVuSans-49"/>
      <use transform="translate(638.203125 0.015625)" xlink:href="#DejaVuSans-46"/>
      <use transform="translate(669.990234 0.015625)" xlink:href="#DejaVuSans-48"/>
      <use transform="translate(733.613281 0.015625)" xlink:href="#DejaVuSans-101"/>
      <use transform="translate(795.136719 0.015625)" xlink:href="#DejaVuSans-43"/>
      <use transform="translate(878.925781 0.015625)" xlink:href="#DejaVuSans-49"/>
      <use transform="translate(942.548828 0.015625)" xlink:href="#DejaVuSans-48"/>
     </g>
    </g>
   </g>
  </g>
 </g>
 <defs>
  <clipPath id="pd01ec00051">
   <rect height="281.4625" width="437.4625" x="55.7375" y="28.8"/>
  </clipPath>
 </defs>
</svg>
