<?xml version="1.0" encoding="UTF-8" standalone="no"?>
<!-- Created with Inkscape (http://www.inkscape.org/) -->

<svg
   xmlns:ns0="http://www.iki.fi/pav/software/textext/"
   xmlns:dc="http://purl.org/dc/elements/1.1/"
   xmlns:cc="http://creativecommons.org/ns#"
   xmlns:rdf="http://www.w3.org/1999/02/22-rdf-syntax-ns#"
   xmlns:svg="http://www.w3.org/2000/svg"
   xmlns="http://www.w3.org/2000/svg"
   xmlns:xlink="http://www.w3.org/1999/xlink"
   xmlns:sodipodi="http://sodipodi.sourceforge.net/DTD/sodipodi-0.dtd"
   xmlns:inkscape="http://www.inkscape.org/namespaces/inkscape"
   width="425"
   height="150"
   id="svg2"
   version="1.1"
   inkscape:version="0.48.4 r9939"
   sodipodi:docname="BWestimate.svg">
  <sodipodi:namedview
     id="base"
     pagecolor="#ffffff"
     bordercolor="#666666"
     borderopacity="1.0"
     inkscape:pageopacity="0.0"
     inkscape:pageshadow="2"
     inkscape:zoom="2.8"
     inkscape:cx="271.89982"
     inkscape:cy="69.953233"
     inkscape:document-units="px"
     inkscape:current-layer="layer1"
     showgrid="true"
     inkscape:object-paths="true"
     inkscape:object-nodes="true"
     inkscape:window-width="1920"
     inkscape:window-height="1028"
     inkscape:window-x="0"
     inkscape:window-y="0"
     inkscape:window-maximized="1"
     fit-margin-top="0"
     fit-margin-left="0"
     fit-margin-right="0"
     fit-margin-bottom="0">
    <inkscape:grid
       type="xygrid"
       id="grid2985"
       empspacing="5"
       visible="true"
       enabled="true"
       snapvisiblegridlinesonly="true"
       originx="-30px"
       originy="-595px" />
  </sodipodi:namedview>
  <defs
     id="defs4">
    <marker
       inkscape:stockid="Arrow2Mend"
       orient="auto"
       refY="0"
       refX="0"
       id="Arrow2Mend"
       style="overflow:visible">
      <path
         id="path15911"
         style="fill-rule:evenodd;stroke-width:0.625;stroke-linejoin:round"
         d="M 8.7185878,4.0337352 -2.2072895,0.01601326 8.7185884,-4.0017078 c -1.7454984,2.3720609 -1.7354408,5.6174519 -6e-7,8.035443 z"
         transform="scale(-0.6,-0.6)"
         inkscape:connector-curvature="0" />
    </marker>
    <marker
       inkscape:stockid="Arrow2Mend"
       orient="auto"
       refY="0"
       refX="0"
       id="Arrow2Mend-4"
       style="overflow:visible">
      <path
         inkscape:connector-curvature="0"
         id="path15911-1"
         style="fill-rule:evenodd;stroke-width:0.625;stroke-linejoin:round"
         d="M 8.7185878,4.0337352 -2.2072895,0.01601326 8.7185884,-4.0017078 c -1.7454984,2.3720609 -1.7354408,5.6174519 -6e-7,8.035443 z"
         transform="scale(-0.6,-0.6)" />
    </marker>
    <marker
       inkscape:stockid="Arrow2Mend"
       orient="auto"
       refY="0"
       refX="0"
       id="Arrow2Mend-4-4"
       style="overflow:visible">
      <path
         inkscape:connector-curvature="0"
         id="path15911-1-0"
         style="fill-rule:evenodd;stroke-width:0.625;stroke-linejoin:round"
         d="M 8.7185878,4.0337352 -2.2072895,0.01601326 8.7185884,-4.0017078 c -1.7454984,2.3720609 -1.7354408,5.6174519 -6e-7,8.035443 z"
         transform="scale(-0.6,-0.6)" />
    </marker>
  </defs>
  <metadata
     id="metadata7">
    <rdf:RDF>
      <cc:Work
         rdf:about="">
        <dc:format>image/svg+xml</dc:format>
        <dc:type
           rdf:resource="http://purl.org/dc/dcmitype/StillImage" />
        <dc:title />
      </cc:Work>
    </rdf:RDF>
  </metadata>
  <g
     inkscape:label="Layer 1"
     inkscape:groupmode="layer"
     id="layer1"
     transform="translate(-30,-307.36218)">
    <path
       style="fill:none;stroke:#000000;stroke-width:1px;stroke-linecap:butt;stroke-linejoin:miter;stroke-opacity:1"
       d="m 95.000003,427.36218 39.999997,0 80,-90 40,0 20,20 20,0 20,20 30,60"
       id="path2989"
       inkscape:connector-curvature="0" />
    <path
       style="fill:none;stroke:#000000;stroke-width:0.5;stroke-linecap:butt;stroke-linejoin:miter;stroke-miterlimit:4;stroke-opacity:1;stroke-dasharray:none"
       d="m 95,387.36218 280,0"
       id="path2991"
       inkscape:connector-curvature="0" />
    <rect
       width="425"
       height="150"
       x="30"
       y="307.36218"
       id="rect6470-9-4-1"
       style="fill:#0064ff;fill-opacity:0.0745098;stroke:none" />
    <text
       xml:space="preserve"
       style="font-size:8px;font-style:normal;font-weight:normal;line-height:125%;letter-spacing:0px;word-spacing:0px;fill:#000000;fill-opacity:1;stroke:none;font-family:Sans"
       x="115"
       y="367.36218"
       id="text15106"
       sodipodi:linespacing="125%"><tspan
         sodipodi:role="line"
         id="tspan15108"
         x="115"
         y="367.36218">order=+1</tspan></text>
    <path
       style="fill:none;stroke:#000000;stroke-width:1px;stroke-linecap:butt;stroke-linejoin:miter;stroke-opacity:1;marker-end:url(#Arrow2Mend)"
       d="m 155,372.36218 14,13"
       id="path15110"
       inkscape:connector-curvature="0" />
    <path
       style="fill:none;stroke:#000000;stroke-width:1px;stroke-linecap:butt;stroke-linejoin:miter;stroke-opacity:1;marker-end:url(#Arrow2Mend)"
       d="m 336,372.36218 -14,13"
       id="path15110-4"
       inkscape:connector-curvature="0" />
    <text
       xml:space="preserve"
       style="font-size:8px;font-style:normal;font-weight:normal;line-height:125%;letter-spacing:0px;word-spacing:0px;fill:#000000;fill-opacity:1;stroke:none;font-family:Sans"
       x="320"
       y="367.36218"
       id="text15106-6"
       sodipodi:linespacing="125%"><tspan
         sodipodi:role="line"
         id="tspan15108-8"
         x="320"
         y="367.36218">order=-2</tspan></text>
    <path
       style="fill:none;stroke:#ff00ff;stroke-width:1.00000012px;stroke-linecap:butt;stroke-linejoin:miter;stroke-opacity:1"
       d="m 350,448.36219 -30,-60.00001 -149,0 -36,40 -40,0"
       id="path16369"
       inkscape:connector-curvature="0"
       sodipodi:nodetypes="ccccc" />
    <path
       style="fill:none;stroke:#000000;stroke-width:1px;stroke-linecap:butt;stroke-linejoin:miter;stroke-opacity:1"
       d="m 379,415.36218 10,0"
       id="path16371"
       inkscape:connector-curvature="0" />
    <path
       style="fill:none;stroke:#ff00ff;stroke-width:1px;stroke-linecap:butt;stroke-linejoin:miter;stroke-opacity:1"
       d="m 379,430.36218 10,0"
       id="path16373"
       inkscape:connector-curvature="0" />
    <text
       xml:space="preserve"
       style="font-size:8px;font-style:normal;font-weight:normal;line-height:125%;letter-spacing:0px;word-spacing:0px;fill:#000000;fill-opacity:1;stroke:none;font-family:Sans"
       x="390"
       y="417.36218"
       id="text16375"
       sodipodi:linespacing="125%"><tspan
         sodipodi:role="line"
         id="tspan16377"
         x="390"
         y="417.36218">loop gain</tspan></text>
    <text
       xml:space="preserve"
       style="font-size:8px;font-style:normal;font-weight:normal;line-height:125%;letter-spacing:0px;word-spacing:0px;fill:#000000;fill-opacity:1;stroke:none;font-family:Sans"
       x="390"
       y="432.36218"
       id="text16379"
       sodipodi:linespacing="125%"><tspan
         sodipodi:role="line"
         id="tspan16381"
         x="390"
         y="432.36218">servo function</tspan></text>
    <path
       style="fill:none;stroke:#000000;stroke-width:0.5;stroke-linecap:butt;stroke-linejoin:miter;stroke-miterlimit:4;stroke-opacity:1;stroke-dasharray:none"
       d="m 320,387.36218 0,5"
       id="path16664"
       inkscape:connector-curvature="0" />
    <path
       style="fill:none;stroke:#000000;stroke-width:0.5;stroke-linecap:butt;stroke-linejoin:miter;stroke-miterlimit:4;stroke-opacity:1;stroke-dasharray:none"
       d="m 171,387.36218 0,5"
       id="path16666"
       inkscape:connector-curvature="0" />
    <path
       style="fill:none;stroke:#000000;stroke-width:1px;stroke-linecap:butt;stroke-linejoin:miter;stroke-opacity:1;marker-end:url(#Arrow2Mend-4)"
       d="m 100,352.36218 0,-15"
       id="path16668"
       inkscape:connector-curvature="0" />
    <text
       xml:space="preserve"
       style="font-size:8px;font-style:normal;font-weight:normal;line-height:125%;letter-spacing:0px;word-spacing:0px;fill:#000000;fill-opacity:1;stroke:none;font-family:Sans"
       x="60"
       y="332.36218"
       id="text16854"
       sodipodi:linespacing="125%"><tspan
         sodipodi:role="line"
         id="tspan16856"
         x="60"
         y="332.36218">Magnitude</tspan><tspan
         sodipodi:role="line"
         x="60"
         y="342.36218"
         id="tspan16886">(log)</tspan></text>
    <path
       style="fill:none;stroke:#000000;stroke-width:1px;stroke-linecap:butt;stroke-linejoin:miter;stroke-opacity:1;marker-end:url(#Arrow2Mend-4)"
       d="m 359,382.36218 15,0"
       id="path16668-6"
       inkscape:connector-curvature="0" />
    <text
       xml:space="preserve"
       style="font-size:8px;font-style:normal;font-weight:normal;line-height:125%;letter-spacing:0px;word-spacing:0px;fill:#000000;fill-opacity:1;stroke:none;font-family:Sans"
       x="380"
       y="385.36218"
       id="text16882"
       sodipodi:linespacing="125%"><tspan
         sodipodi:role="line"
         id="tspan16884"
         x="380"
         y="385.36218">frequency (log)</tspan></text>
    <path
       style="fill:none;stroke:#000000;stroke-width:0.5;stroke-linecap:butt;stroke-linejoin:miter;stroke-miterlimit:4;stroke-opacity:1;stroke-dasharray:none"
       d="m 105,317.36218 0,115"
       id="path16888"
       inkscape:connector-curvature="0" />
    <text
       xml:space="preserve"
       style="font-size:8px;font-style:normal;font-weight:normal;line-height:125%;letter-spacing:0px;word-spacing:0px;fill:#000000;fill-opacity:1;stroke:none;font-family:Sans"
       x="88"
       y="389.36218"
       id="text16890"
       sodipodi:linespacing="125%"><tspan
         sodipodi:role="line"
         id="tspan16892"
         x="88"
         y="389.36218">1</tspan></text>
    <g
       ns0:text="$\\omega_{\\ell}$"
       ns0:preamble=""
       transform="translate(-53.929013,264.69276)"
       id="g3229">
      <defs
         id="defs3231">
        <g
           id="g3233">
          <symbol
             overflow="visible"
             id="textext-3bc6aa2f-0"
             style="overflow:visible">
            <path
               style="stroke:none"
               d=""
               id="path3236"
               inkscape:connector-curvature="0" />
          </symbol>
          <symbol
             overflow="visible"
             id="textext-3bc6aa2f-1"
             style="overflow:visible">
            <path
               style="stroke:none"
               d="m 6.03125,-3.703125 c 0,-0.453125 -0.171875,-0.703125 -0.40625,-0.703125 -0.25,0 -0.515625,0.234375 -0.515625,0.46875 0,0.09375 0.046875,0.203125 0.140625,0.296875 0.171875,0.15625 0.359375,0.421875 0.359375,0.84375 0,0.390625 -0.203125,0.96875 -0.5,1.421875 C 4.8125,-0.953125 4.4375,-0.609375 3.96875,-0.609375 3.40625,-0.609375 3.09375,-0.96875 3,-1.5 c 0.109375,-0.265625 0.34375,-0.90625 0.34375,-1.1875 0,-0.109375 -0.046875,-0.21875 -0.1875,-0.21875 -0.078125,0 -0.1875,0.03125 -0.265625,0.171875 C 2.78125,-2.53125 2.65625,-1.890625 2.65625,-1.53125 2.328125,-1.0625 1.9375,-0.609375 1.3125,-0.609375 c -0.671875,0 -0.875,-0.59375 -0.875,-1.140625 0,-1.25 1.015625,-2.296875 1.015625,-2.421875 0,-0.109375 -0.078125,-0.1875 -0.1875,-0.1875 -0.125,0 -0.203125,0.125 -0.265625,0.21875 -0.5,0.734375 -0.875,1.921875 -0.875,2.828125 0,0.6875 0.21875,1.421875 1.046875,1.421875 0.703125,0 1.171875,-0.5 1.53125,-1.046875 0.09375,0.578125 0.484375,1.046875 1.09375,1.046875 0.78125,0 1.25,-0.609375 1.609375,-1.359375 0.25,-0.484375 0.625,-1.84375 0.625,-2.453125 z m 0,0"
               id="path3239"
               inkscape:connector-curvature="0" />
          </symbol>
          <symbol
             overflow="visible"
             id="textext-3bc6aa2f-2"
             style="overflow:visible">
            <path
               style="stroke:none"
               d=""
               id="path3242"
               inkscape:connector-curvature="0" />
          </symbol>
          <symbol
             overflow="visible"
             id="textext-3bc6aa2f-3"
             style="overflow:visible">
            <path
               style="stroke:none"
               d="M 0.828125,-0.953125 C 0.90625,-0.5 1.125,0.078125 1.71875,0.078125 1.9375,0.078125 2.1875,0 2.453125,-0.171875 2.5625,-0.234375 2.921875,-0.5 2.921875,-0.578125 c 0,-0.046875 -0.046875,-0.125 -0.109375,-0.125 -0.03125,0 -0.046875,0 -0.15625,0.09375 -0.296875,0.265625 -0.609375,0.5 -0.921875,0.5 C 1.25,-0.109375 1.25,-0.921875 1.25,-1.0625 c 0,-0.09375 0,-0.09375 0.015625,-0.234375 0.015625,-0.0625 0.015625,-0.078125 0.09375,-0.15625 0.375,-0.359375 1.703125,-1.640625 1.703125,-2.84375 0,-0.109375 0,-0.609375 -0.46875,-0.609375 C 2.015625,-4.90625 1.546875,-4 1.4375,-3.796875 1.140625,-3.203125 0.96875,-2.640625 0.90625,-2.28125 0.796875,-1.8125 0.796875,-1.578125 0.796875,-1.234375 0.75,-1.1875 0.34375,-0.828125 0.28125,-0.78125 c -0.109375,0.109375 -0.125,0.109375 -0.125,0.15625 0,0.046875 0.0625,0.125 0.125,0.125 0.046875,0 0.234375,-0.171875 0.28125,-0.21875 z m 0.5,-0.796875 C 1.453125,-2.453125 2,-4.703125 2.59375,-4.703125 c 0.15625,0 0.25,0.109375 0.25,0.359375 0,0.078125 0,0.703125 -0.609375,1.5625 C 1.875,-2.28125 1.5,-1.90625 1.328125,-1.75 z m 0,0"
               id="path3245"
               inkscape:connector-curvature="0" />
          </symbol>
        </g>
      </defs>
      <g
         id="textext-3bc6aa2f-4">
        <g
           style="fill:#000000;fill-opacity:1"
           id="g3248">
          <use
             xlink:href="#textext-3bc6aa2f-1"
             x="223.43201"
             y="134.765"
             id="use3250"
             width="744.09448"
             height="1052.3622" />
        </g>
        <g
           style="fill:#000000;fill-opacity:1"
           id="g3252">
          <use
             xlink:href="#textext-3bc6aa2f-3"
             x="229.633"
             y="136.259"
             id="use3254"
             width="744.09448"
             height="1052.3622" />
        </g>
      </g>
    </g>
    <g
       id="g3382"
       transform="translate(88.671873,267.16738)"
       ns0:preamble=""
       ns0:text="$\\omega_{h}$">
      <defs
         id="defs3384">
        <g
           id="g3386">
          <symbol
             id="textext-e0c0cfb4-0"
             overflow="visible"
             style="overflow:visible">
            <path
               id="path3389"
               d=""
               style="stroke:none"
               inkscape:connector-curvature="0" />
          </symbol>
          <symbol
             id="textext-e0c0cfb4-1"
             overflow="visible"
             style="overflow:visible">
            <path
               id="path3392"
               d="m 6.03125,-3.703125 c 0,-0.453125 -0.171875,-0.703125 -0.40625,-0.703125 -0.25,0 -0.515625,0.234375 -0.515625,0.46875 0,0.09375 0.046875,0.203125 0.140625,0.296875 0.171875,0.15625 0.359375,0.421875 0.359375,0.84375 0,0.390625 -0.203125,0.96875 -0.5,1.421875 C 4.8125,-0.953125 4.4375,-0.609375 3.96875,-0.609375 3.40625,-0.609375 3.09375,-0.96875 3,-1.5 c 0.109375,-0.265625 0.34375,-0.90625 0.34375,-1.1875 0,-0.109375 -0.046875,-0.21875 -0.1875,-0.21875 -0.078125,0 -0.1875,0.03125 -0.265625,0.171875 C 2.78125,-2.53125 2.65625,-1.890625 2.65625,-1.53125 2.328125,-1.0625 1.9375,-0.609375 1.3125,-0.609375 c -0.671875,0 -0.875,-0.59375 -0.875,-1.140625 0,-1.25 1.015625,-2.296875 1.015625,-2.421875 0,-0.109375 -0.078125,-0.1875 -0.1875,-0.1875 -0.125,0 -0.203125,0.125 -0.265625,0.21875 -0.5,0.734375 -0.875,1.921875 -0.875,2.828125 0,0.6875 0.21875,1.421875 1.046875,1.421875 0.703125,0 1.171875,-0.5 1.53125,-1.046875 0.09375,0.578125 0.484375,1.046875 1.09375,1.046875 0.78125,0 1.25,-0.609375 1.609375,-1.359375 0.25,-0.484375 0.625,-1.84375 0.625,-2.453125 z m 0,0"
               style="stroke:none"
               inkscape:connector-curvature="0" />
          </symbol>
          <symbol
             id="textext-e0c0cfb4-2"
             overflow="visible"
             style="overflow:visible">
            <path
               id="path3395"
               d=""
               style="stroke:none"
               inkscape:connector-curvature="0" />
          </symbol>
          <symbol
             id="textext-e0c0cfb4-3"
             overflow="visible"
             style="overflow:visible">
            <path
               id="path3398"
               d="m 2.1875,-4.625 c 0,-0.015625 0.015625,-0.109375 0.015625,-0.109375 0,-0.046875 -0.015625,-0.109375 -0.109375,-0.109375 -0.140625,0 -0.71875,0.0625 -0.890625,0.078125 -0.046875,0 -0.15625,0.015625 -0.15625,0.15625 0,0.09375 0.109375,0.09375 0.1875,0.09375 0.328125,0 0.328125,0.0625 0.328125,0.109375 0,0.046875 -0.015625,0.09375 -0.015625,0.15625 L 0.5625,-0.3125 c -0.046875,0.125 -0.046875,0.140625 -0.046875,0.15625 0,0.109375 0.09375,0.21875 0.25,0.21875 0.078125,0 0.203125,-0.03125 0.28125,-0.171875 C 1.0625,-0.15625 1.125,-0.40625 1.15625,-0.546875 l 0.171875,-0.625 C 1.34375,-1.28125 1.421875,-1.546875 1.4375,-1.640625 1.5,-1.90625 1.5,-1.921875 1.640625,-2.140625 1.875,-2.484375 2.21875,-2.875 2.765625,-2.875 c 0.390625,0 0.40625,0.3125 0.40625,0.484375 0,0.421875 -0.296875,1.1875 -0.40625,1.484375 -0.078125,0.203125 -0.109375,0.265625 -0.109375,0.375 0,0.375 0.3125,0.59375 0.65625,0.59375 0.703125,0 1.015625,-0.953125 1.015625,-1.0625 0,-0.09375 -0.09375,-0.09375 -0.125,-0.09375 -0.09375,0 -0.09375,0.046875 -0.125,0.125 -0.15625,0.5625 -0.46875,0.84375 -0.734375,0.84375 -0.15625,0 -0.1875,-0.09375 -0.1875,-0.25 0,-0.15625 0.046875,-0.25 0.171875,-0.5625 C 3.40625,-1.15625 3.6875,-1.890625 3.6875,-2.28125 c 0,-0.109375 0,-0.40625 -0.25,-0.609375 -0.125,-0.078125 -0.328125,-0.1875 -0.65625,-0.1875 -0.5,0 -0.875,0.28125 -1.125,0.578125 z m 0,0"
               style="stroke:none"
               inkscape:connector-curvature="0" />
          </symbol>
        </g>
      </defs>
      <g
         id="textext-e0c0cfb4-4">
        <g
           id="g3401"
           style="fill:#000000;fill-opacity:1">
          <use
             id="use3403"
             y="134.765"
             x="223.43201"
             xlink:href="#textext-e0c0cfb4-1"
             width="744.09448"
             height="1052.3622" />
        </g>
        <g
           id="g3405"
           style="fill:#000000;fill-opacity:1">
          <use
             id="use3407"
             y="136.259"
             x="229.633"
             xlink:href="#textext-e0c0cfb4-3"
             width="744.09448"
             height="1052.3622" />
        </g>
      </g>
    </g>
    <text
       xml:space="preserve"
       style="font-size:8px;font-style:normal;font-weight:normal;line-height:125%;letter-spacing:0px;word-spacing:0px;fill:#000000;fill-opacity:1;stroke:none;font-family:Sans"
       x="380"
       y="395.36218"
       id="text3479"
       sodipodi:linespacing="125%"><tspan
         sodipodi:role="line"
         id="tspan3481"
         x="380"
         y="395.36218">[rad/s]</tspan></text>
  </g>
</svg>
