<?xml version="1.0" encoding="UTF-8" standalone="no"?>
<!-- Created with Inkscape (http://www.inkscape.org/) -->

<svg
   xmlns:dc="http://purl.org/dc/elements/1.1/"
   xmlns:cc="http://creativecommons.org/ns#"
   xmlns:rdf="http://www.w3.org/1999/02/22-rdf-syntax-ns#"
   xmlns:svg="http://www.w3.org/2000/svg"
   xmlns="http://www.w3.org/2000/svg"
   xmlns:inkscape="http://www.inkscape.org/namespaces/inkscape"
   version="1.1"
   width="1052.5"
   height="743.75"
   id="svg2"
   xml:space="preserve"><metadata
     id="metadata8"><rdf:RDF><cc:Work
         rdf:about=""><dc:format>image/svg+xml</dc:format><dc:type
           rdf:resource="http://purl.org/dc/dcmitype/StillImage" /></cc:Work></rdf:RDF></metadata><defs
     id="defs6"><clipPath
       id="clipPath12"><path
         d="M 0,0 595,0 595,842 0,842 0,0 z"
         inkscape:connector-curvature="0"
         id="path14" /></clipPath></defs><g
     transform="matrix(0,1.25,1.25,0,0,0)"
     clip-path="url(#clipPath12)"
     id="g10"><g
       transform="scale(0.1,0.1)"
       id="g16"><path
         d="m 3059.42,2972.02 c -712.97,0 -1290.96,-577.98 -1290.96,-1290.95 0,-712.976 577.99,-1290.957 1290.96,-1290.957 712.97,0 1290.95,577.981 1290.95,1290.957 0,712.97 -577.98,1290.95 -1290.95,1290.95"
         inkscape:connector-curvature="0"
         id="path18"
         style="fill:none;stroke:#000000;stroke-width:64.54769897;stroke-linecap:square;stroke-linejoin:miter;stroke-miterlimit:10;stroke-opacity:1;stroke-dasharray:none" /><path
         d="m 3059.42,2972.02 0,-2581.907"
         inkscape:connector-curvature="0"
         id="path20"
         style="fill:none;stroke:#000000;stroke-width:64.54769897;stroke-linecap:square;stroke-linejoin:miter;stroke-miterlimit:10;stroke-opacity:1;stroke-dasharray:none" /><path
         d="m 4350.37,1681.07 1290.95,0"
         inkscape:connector-curvature="0"
         id="path22"
         style="fill:none;stroke:#000000;stroke-width:64.54769897;stroke-linecap:square;stroke-linejoin:miter;stroke-miterlimit:10;stroke-opacity:1;stroke-dasharray:none" /><path
         d="m 1768.46,1681.07 -1290.948,0"
         inkscape:connector-curvature="0"
         id="path24"
         style="fill:none;stroke:#000000;stroke-width:64.54769897;stroke-linecap:square;stroke-linejoin:miter;stroke-miterlimit:10;stroke-opacity:1;stroke-dasharray:none" /><path
         d="m 3704.89,3617.5 -1936.43,0"
         inkscape:connector-curvature="0"
         id="path26"
         style="fill:none;stroke:#000000;stroke-width:64.54769897;stroke-linecap:square;stroke-linejoin:miter;stroke-miterlimit:10;stroke-opacity:1;stroke-dasharray:none" /><path
         d="m 3543.53,3294.76 806.84,322.74 -806.84,322.73 161.36,-322.73 -161.36,-322.74 z"
         inkscape:connector-curvature="0"
         id="path28"
         style="fill:none;stroke:#000000;stroke-width:64.54769897;stroke-linecap:square;stroke-linejoin:miter;stroke-miterlimit:10;stroke-opacity:1;stroke-dasharray:none" /><path
         d="m 3543.53,3294.76 806.84,322.74 -806.84,322.73 161.36,-322.73"
         inkscape:connector-curvature="0"
         id="path30"
         style="fill:#000000;fill-opacity:1;fill-rule:nonzero;stroke:none" /><g
         transform="scale(10,10)"
         id="g32"><text
           transform="matrix(0,1,1,0,144.573,426.298)"
           id="text34"><tspan
             x="0 25.91947"
             y="0"
             id="tspan36"
             style="font-size:93.23549652px;font-variant:normal;font-weight:normal;writing-mode:lr-tb;fill:#000000;fill-opacity:1;fill-rule:nonzero;stroke:none;font-family:Helvetica;-inkscape-font-specification:Helvetica">I?</tspan><tspan
             x="0 51.83894 103.67788 124.37616 170.99391 222.83284 277.28238"
             y="387.28601"
             id="tspan38"
             style="font-size:93.23549652px;font-variant:normal;font-weight:normal;writing-mode:lr-tb;fill:#000000;fill-opacity:1;fill-rule:nonzero;stroke:none;font-family:Helvetica;-inkscape-font-specification:Helvetica">noise=0</tspan><tspan
             x="0 51.83894 98.456688 145.07443 196.91338 227.9608 282.41034"
             y="290.46451"
             id="tspan40"
             style="font-size:93.23549652px;font-variant:normal;font-weight:normal;writing-mode:lr-tb;fill:#000000;fill-opacity:1;fill-rule:nonzero;stroke:none;font-family:Helvetica;-inkscape-font-specification:Helvetica">dcvar=0</tspan><tspan
             x="0 51.83894 98.456688 152.90622"
             y="193.64301"
             id="tspan42"
             style="font-size:93.23549652px;font-variant:normal;font-weight:normal;writing-mode:lr-tb;fill:#000000;fill-opacity:1;fill-rule:nonzero;stroke:none;font-family:Helvetica;-inkscape-font-specification:Helvetica">dc=0</tspan><tspan
             x="0 46.617748 98.456688 119.15497 170.99391 222.83284 277.28238"
             y="96.821503"
             id="tspan44"
             style="font-size:93.23549652px;font-variant:normal;font-weight:normal;writing-mode:lr-tb;fill:#000000;fill-opacity:1;fill-rule:nonzero;stroke:none;font-family:Helvetica;-inkscape-font-specification:Helvetica">value=0</tspan></text>
</g><path
         d="m 5447.68,1487.43 387.285,0 0,387.285 -387.285,0 0,-387.285 z"
         inkscape:connector-curvature="0"
         id="path46"
         style="fill:#000000;fill-opacity:1;fill-rule:nonzero;stroke:none" /><path
         d="m 283.867,1487.43 387.289,0 0,387.285 -387.289,0 0,-387.285 z"
         inkscape:connector-curvature="0"
         id="path48"
         style="fill:#000000;fill-opacity:1;fill-rule:nonzero;stroke:none" /></g></g></svg>