<?xml version="1.0" encoding="UTF-8" standalone="no"?>
<!-- Created with Inkscape (http://www.inkscape.org/) -->

<svg
   xmlns:dc="http://purl.org/dc/elements/1.1/"
   xmlns:cc="http://creativecommons.org/ns#"
   xmlns:rdf="http://www.w3.org/1999/02/22-rdf-syntax-ns#"
   xmlns:svg="http://www.w3.org/2000/svg"
   xmlns="http://www.w3.org/2000/svg"
   xmlns:inkscape="http://www.inkscape.org/namespaces/inkscape"
   version="1.1"
   width="1052.5"
   height="743.75"
   id="svg2"
   xml:space="preserve"><metadata
     id="metadata8"><rdf:RDF><cc:Work
         rdf:about=""><dc:format>image/svg+xml</dc:format><dc:type
           rdf:resource="http://purl.org/dc/dcmitype/StillImage" /></cc:Work></rdf:RDF></metadata><defs
     id="defs6"><clipPath
       id="clipPath12"><path
         d="M 0,0 595,0 595,842 0,842 0,0 z"
         inkscape:connector-curvature="0"
         id="path14" /></clipPath></defs><g
     transform="matrix(0,1.25,1.25,0,0,0)"
     clip-path="url(#clipPath12)"
     id="g10"><g
       transform="scale(0.1,0.1)"
       id="g16"><g
         transform="scale(10,10)"
         id="g18"><text
           transform="matrix(0,1,1,0,286.989,36.8898)"
           id="text20"><tspan
             x="0 18.534063 57.71204 80.85878 96.308464 111.75815 127.20783 133.37659 141.10143 156.55112 172.00079 179.72563 185.89439 201.34409 207.51283 215.23767 221.40643 236.85612"
             y="0"
             id="tspan22"
             style="font-size:27.78720093px;font-variant:normal;font-weight:normal;writing-mode:lr-tb;fill:#000000;fill-opacity:1;fill-rule:nonzero;stroke:none;font-family:Helvetica;-inkscape-font-specification:Helvetica">A?Model definition</tspan><tspan
             x="0 7.7248416 30.87158 46.321262 61.770947 77.220627 83.389389 91.114227 107.34196 115.0668 138.21353 153.66322 169.1129 184.56258 190.73134 210.7937 226.24338 249.39012 264.83981 281.06754 288.79236 305.02008 312.74493 335.89166 351.34137 366.79105 382.24072 388.40948 405.38745 419.28107 434.73074 450.18042 457.90527 474.133 481.85785 498.08557 505.81039 521.26007 536.70978 545.96289 561.4126 584.55933 600.78705 614.68066 630.13031 636.29907 651.74878 667.19849 674.92328 682.64813 690.37299 698.09784 705.82269"
             y="57.712101"
             id="tspan24"
             style="font-size:27.78720093px;font-variant:normal;font-weight:normal;writing-mode:lr-tb;fill:#000000;fill-opacity:1;fill-rule:nonzero;stroke:none;font-family:Helvetica;-inkscape-font-specification:Helvetica">.model &lt; modelName&gt; &lt; modelType &gt; &lt; param=value ... &gt;</tspan></text>
</g><path
         d="m 3062.27,3639.24 0,-3270.342"
         inkscape:connector-curvature="0"
         id="path26"
         style="fill:none;stroke:#000000;stroke-width:19.23730087;stroke-linecap:square;stroke-linejoin:miter;stroke-miterlimit:10;stroke-opacity:1;stroke-dasharray:none" /></g></g></svg>