<?xml version="1.0" encoding="UTF-8" standalone="no"?>
<!-- Created with Inkscape (http://www.inkscape.org/) -->

<svg
   xmlns:dc="http://purl.org/dc/elements/1.1/"
   xmlns:cc="http://creativecommons.org/ns#"
   xmlns:rdf="http://www.w3.org/1999/02/22-rdf-syntax-ns#"
   xmlns:svg="http://www.w3.org/2000/svg"
   xmlns="http://www.w3.org/2000/svg"
   xmlns:inkscape="http://www.inkscape.org/namespaces/inkscape"
   version="1.1"
   width="1052.5"
   height="743.75"
   id="svg2"
   xml:space="preserve"><metadata
     id="metadata8"><rdf:RDF><cc:Work
         rdf:about=""><dc:format>image/svg+xml</dc:format><dc:type
           rdf:resource="http://purl.org/dc/dcmitype/StillImage" /></cc:Work></rdf:RDF></metadata><defs
     id="defs6"><clipPath
       id="clipPath12"><path
         d="M 0,0 595,0 595,842 0,842 0,0 z"
         inkscape:connector-curvature="0"
         id="path14" /></clipPath></defs><g
     transform="matrix(0,1.25,1.25,0,0,0)"
     clip-path="url(#clipPath12)"
     id="g10"><g
       transform="scale(0.1,0.1)"
       id="g16"><path
         d="m 4713.64,3079.37 0,-406.64"
         inkscape:connector-curvature="0"
         id="path18"
         style="fill:none;stroke:#000000;stroke-width:20.3321991;stroke-linecap:square;stroke-linejoin:miter;stroke-miterlimit:10;stroke-opacity:1;stroke-dasharray:none" /><path
         d="m 3087.06,3079.37 0,-406.64"
         inkscape:connector-curvature="0"
         id="path20"
         style="fill:none;stroke:#000000;stroke-width:20.3321991;stroke-linecap:square;stroke-linejoin:miter;stroke-miterlimit:10;stroke-opacity:1;stroke-dasharray:none" /><path
         d="m 4713.64,4705.95 0,406.64"
         inkscape:connector-curvature="0"
         id="path22"
         style="fill:none;stroke:#000000;stroke-width:20.3321991;stroke-linecap:square;stroke-linejoin:miter;stroke-miterlimit:10;stroke-opacity:1;stroke-dasharray:none" /><path
         d="m 3087.06,4705.95 0,406.64"
         inkscape:connector-curvature="0"
         id="path24"
         style="fill:none;stroke:#000000;stroke-width:20.3321991;stroke-linecap:square;stroke-linejoin:miter;stroke-miterlimit:10;stroke-opacity:1;stroke-dasharray:none" /><g
         transform="scale(10,10)"
         id="g26"><text
           transform="matrix(0,1,1,0,54.5535,318.103)"
           id="text28"><tspan
             x="0 19.588989"
             y="0"
             id="tspan30"
             style="font-size:29.36879921px;font-variant:normal;font-weight:normal;writing-mode:lr-tb;fill:#000000;fill-opacity:1;fill-rule:nonzero;stroke:none;font-family:Helvetica;-inkscape-font-specification:Helvetica">X?</tspan><tspan
             x="0 14.6844 29.368799 45.697853 62.849232 72.658409 87.342812 93.862686 110.19173 134.65594 150.985 167.31406 181.99846 198.3275"
             y="40.664501"
             id="tspan32"
             style="font-size:29.36879921px;font-variant:normal;font-weight:normal;writing-mode:lr-tb;fill:#000000;fill-opacity:1;fill-rule:nonzero;stroke:none;font-family:Helvetica;-inkscape-font-specification:Helvetica">svo={sigma_vo}</tspan><tspan
             x="0 14.6844 21.204273 37.533325 54.684704 64.493881 79.178284 85.698158 102.02721 126.49142 142.82048 159.14952 165.6694 181.99846"
             y="81.329002"
             id="tspan34"
             style="font-size:29.36879921px;font-variant:normal;font-weight:normal;writing-mode:lr-tb;fill:#000000;fill-opacity:1;fill-rule:nonzero;stroke:none;font-family:Helvetica;-inkscape-font-specification:Helvetica">sib={sigma_ib}</tspan><tspan
             x="0 14.6844 21.204273 37.533325 54.684704 64.493881 79.178284 85.698158 102.02721 126.49142 142.82048 159.14952 165.6694 181.99846"
             y="121.9935"
             id="tspan36"
             style="font-size:29.36879921px;font-variant:normal;font-weight:normal;writing-mode:lr-tb;fill:#000000;fill-opacity:1;fill-rule:nonzero;stroke:none;font-family:Helvetica;-inkscape-font-specification:Helvetica">sio={sigma_io}</tspan><tspan
             x="0 6.5198736 13.039747 29.368799 46.52018 56.329357 64.493881 80.822937 97.151993"
             y="162.658"
             id="tspan38"
             style="font-size:29.36879921px;font-variant:normal;font-weight:normal;writing-mode:lr-tb;fill:#000000;fill-opacity:1;fill-rule:nonzero;stroke:none;font-family:Helvetica;-inkscape-font-specification:Helvetica">iib={I_b}</tspan></text>
</g><path
         d="m 3087.06,3943.49 0,-864.12"
         inkscape:connector-curvature="0"
         id="path40"
         style="fill:none;stroke:#000000;stroke-width:20.3321991;stroke-linecap:square;stroke-linejoin:miter;stroke-miterlimit:10;stroke-opacity:1;stroke-dasharray:none" /><path
         d="m 4713.64,3943.49 0,-864.12"
         inkscape:connector-curvature="0"
         id="path42"
         style="fill:none;stroke:#000000;stroke-width:20.3321991;stroke-linecap:square;stroke-linejoin:miter;stroke-miterlimit:10;stroke-opacity:1;stroke-dasharray:none" /><path
         d="m 3087.06,4451.8 0,254.15"
         inkscape:connector-curvature="0"
         id="path44"
         style="fill:none;stroke:#000000;stroke-width:20.3321991;stroke-linecap:square;stroke-linejoin:miter;stroke-miterlimit:10;stroke-opacity:1;stroke-dasharray:none" /><path
         d="m 4713.64,4705.95 0,-254.15"
         inkscape:connector-curvature="0"
         id="path46"
         style="fill:none;stroke:#000000;stroke-width:20.3321991;stroke-linecap:square;stroke-linejoin:miter;stroke-miterlimit:10;stroke-opacity:1;stroke-dasharray:none" /><path
         d="m 3951.18,3791 c 84.22,0 152.5,68.27 152.5,152.49 0,84.22 -68.28,152.49 -152.5,152.49"
         inkscape:connector-curvature="0"
         id="path48"
         style="fill:none;stroke:#000000;stroke-width:20.3321991;stroke-linecap:square;stroke-linejoin:miter;stroke-miterlimit:10;stroke-opacity:1;stroke-dasharray:none" /><path
         d="m 3747.86,4095.98 c -84.22,0 -152.49,-68.27 -152.49,-152.49 0,-84.22 68.27,-152.49 152.49,-152.49"
         inkscape:connector-curvature="0"
         id="path50"
         style="fill:none;stroke:#000000;stroke-width:20.3321991;stroke-linecap:square;stroke-linejoin:miter;stroke-miterlimit:10;stroke-opacity:1;stroke-dasharray:none" /><path
         d="m 3697.03,4604.29 c -84.22,0 -152.49,-68.27 -152.49,-152.49 0,-84.22 68.27,-152.5 152.49,-152.5 84.22,0 152.49,68.28 152.49,152.5 0,84.22 -68.27,152.49 -152.49,152.49"
         inkscape:connector-curvature="0"
         id="path52"
         style="fill:none;stroke:#000000;stroke-width:20.3321991;stroke-linecap:square;stroke-linejoin:miter;stroke-miterlimit:10;stroke-opacity:1;stroke-dasharray:none" /><path
         d="m 4002.01,4604.29 c -84.22,0 -152.49,-68.27 -152.49,-152.49 0,-84.22 68.27,-152.5 152.49,-152.5 84.22,0 152.49,68.28 152.49,152.5 0,84.22 -68.27,152.49 -152.49,152.49"
         inkscape:connector-curvature="0"
         id="path54"
         style="fill:none;stroke:#000000;stroke-width:20.3321991;stroke-linecap:square;stroke-linejoin:miter;stroke-miterlimit:10;stroke-opacity:1;stroke-dasharray:none" /><path
         d="m 3849.52,3536.84 c -84.22,0 -152.49,-68.27 -152.49,-152.48 0,-84.22 68.27,-152.5 152.49,-152.5 84.22,0 152.49,68.28 152.49,152.5 0,84.21 -68.27,152.48 -152.49,152.48"
         inkscape:connector-curvature="0"
         id="path56"
         style="fill:none;stroke:#000000;stroke-width:20.3321991;stroke-linecap:square;stroke-linejoin:miter;stroke-miterlimit:10;stroke-opacity:1;stroke-dasharray:none" /><path
         d="m 3087.06,3791 c -84.22,0 -152.49,-68.27 -152.49,-152.49 0,-84.22 68.27,-152.49 152.49,-152.49 84.22,0 152.49,68.27 152.49,152.49 0,84.22 -68.27,152.49 -152.49,152.49"
         inkscape:connector-curvature="0"
         id="path58"
         style="fill:none;stroke:#000000;stroke-width:20.3321991;stroke-linecap:square;stroke-linejoin:miter;stroke-miterlimit:10;stroke-opacity:1;stroke-dasharray:none" /><path
         d="m 3747.86,4095.98 203.32,0"
         inkscape:connector-curvature="0"
         id="path60"
         style="fill:none;stroke:#000000;stroke-width:20.3321991;stroke-linecap:square;stroke-linejoin:miter;stroke-miterlimit:10;stroke-opacity:1;stroke-dasharray:none" /><path
         d="m 3747.86,3791 203.32,0"
         inkscape:connector-curvature="0"
         id="path62"
         style="fill:none;stroke:#000000;stroke-width:20.3321991;stroke-linecap:square;stroke-linejoin:miter;stroke-miterlimit:10;stroke-opacity:1;stroke-dasharray:none" /><path
         d="m 3595.37,3943.49 -508.31,0"
         inkscape:connector-curvature="0"
         id="path64"
         style="fill:none;stroke:#000000;stroke-width:20.3321991;stroke-linecap:square;stroke-linejoin:miter;stroke-miterlimit:10;stroke-opacity:1;stroke-dasharray:none" /><path
         d="m 4713.64,3943.49 -609.96,0"
         inkscape:connector-curvature="0"
         id="path66"
         style="fill:none;stroke:#000000;stroke-width:20.3321991;stroke-linecap:square;stroke-linejoin:miter;stroke-miterlimit:10;stroke-opacity:1;stroke-dasharray:none" /><path
         d="m 3087.06,4451.8 457.48,0"
         inkscape:connector-curvature="0"
         id="path68"
         style="fill:none;stroke:#000000;stroke-width:20.3321991;stroke-linecap:square;stroke-linejoin:miter;stroke-miterlimit:10;stroke-opacity:1;stroke-dasharray:none" /><path
         d="m 4713.64,4451.8 -559.14,0"
         inkscape:connector-curvature="0"
         id="path70"
         style="fill:none;stroke:#000000;stroke-width:20.3321991;stroke-linecap:square;stroke-linejoin:miter;stroke-miterlimit:10;stroke-opacity:1;stroke-dasharray:none" /><path
         d="m 3849.52,3536.84 0,-304.98"
         inkscape:connector-curvature="0"
         id="path72"
         style="fill:none;stroke:#000000;stroke-width:20.3321991;stroke-linecap:square;stroke-linejoin:miter;stroke-miterlimit:10;stroke-opacity:1;stroke-dasharray:none" /><path
         d="m 3087.06,3384.36 609.97,0"
         inkscape:connector-curvature="0"
         id="path74"
         style="fill:none;stroke:#000000;stroke-width:20.3321991;stroke-linecap:square;stroke-linejoin:miter;stroke-miterlimit:10;stroke-opacity:1;stroke-dasharray:none" /><path
         d="m 4713.64,3384.36 -711.63,0"
         inkscape:connector-curvature="0"
         id="path76"
         style="fill:none;stroke:#000000;stroke-width:20.3321991;stroke-linecap:square;stroke-linejoin:miter;stroke-miterlimit:10;stroke-opacity:1;stroke-dasharray:none" /><g
         transform="scale(10,10)"
         id="g78"><text
           transform="matrix(0,1,1,0,303.623,384.183)"
           id="text80"><tspan
             x="0 11.0133"
             y="0"
             id="tspan82"
             style="font-size:22.02659988px;font-variant:normal;font-weight:normal;writing-mode:lr-tb;fill:#000000;fill-opacity:1;fill-rule:nonzero;stroke:none;font-family:Helvetica;-inkscape-font-specification:Helvetica">vo</tspan><tspan
             x="-40.664501 -35.774593"
             y="60.996498"
             id="tspan84"
             style="font-size:22.02659988px;font-variant:normal;font-weight:normal;writing-mode:lr-tb;fill:#000000;fill-opacity:1;fill-rule:nonzero;stroke:none;font-family:Helvetica;-inkscape-font-specification:Helvetica">io</tspan></text>
</g><path
         d="m 2578.76,3791 c -84.22,0 -152.49,-68.27 -152.49,-152.49 0,-84.22 68.27,-152.49 152.49,-152.49 84.22,0 152.49,68.27 152.49,152.49 0,84.22 -68.27,152.49 -152.49,152.49"
         inkscape:connector-curvature="0"
         id="path86"
         style="fill:none;stroke:#000000;stroke-width:20.3321991;stroke-linecap:square;stroke-linejoin:miter;stroke-miterlimit:10;stroke-opacity:1;stroke-dasharray:none" /><path
         d="m 2426.27,3638.51 304.98,0"
         inkscape:connector-curvature="0"
         id="path88"
         style="fill:none;stroke:#000000;stroke-width:20.3321991;stroke-linecap:square;stroke-linejoin:miter;stroke-miterlimit:10;stroke-opacity:1;stroke-dasharray:none" /><path
         d="m 4967.79,3791 c -84.22,0 -152.49,-68.27 -152.49,-152.49 0,-84.22 68.27,-152.49 152.49,-152.49 84.22,0 152.5,68.27 152.5,152.49 0,84.22 -68.28,152.49 -152.5,152.49"
         inkscape:connector-curvature="0"
         id="path90"
         style="fill:none;stroke:#000000;stroke-width:20.3321991;stroke-linecap:square;stroke-linejoin:miter;stroke-miterlimit:10;stroke-opacity:1;stroke-dasharray:none" /><path
         d="m 4815.3,3638.51 304.99,0"
         inkscape:connector-curvature="0"
         id="path92"
         style="fill:none;stroke:#000000;stroke-width:20.3321991;stroke-linecap:square;stroke-linejoin:miter;stroke-miterlimit:10;stroke-opacity:1;stroke-dasharray:none" /><path
         d="m 2578.76,3181.03 0,304.99"
         inkscape:connector-curvature="0"
         id="path94"
         style="fill:none;stroke:#000000;stroke-width:20.3321991;stroke-linecap:square;stroke-linejoin:miter;stroke-miterlimit:10;stroke-opacity:1;stroke-dasharray:none" /><path
         d="m 3087.06,3181.03 -508.3,0"
         inkscape:connector-curvature="0"
         id="path96"
         style="fill:none;stroke:#000000;stroke-width:20.3321991;stroke-linecap:square;stroke-linejoin:miter;stroke-miterlimit:10;stroke-opacity:1;stroke-dasharray:none" /><path
         d="m 4967.79,3181.03 0,304.99"
         inkscape:connector-curvature="0"
         id="path98"
         style="fill:none;stroke:#000000;stroke-width:20.3321991;stroke-linecap:square;stroke-linejoin:miter;stroke-miterlimit:10;stroke-opacity:1;stroke-dasharray:none" /><path
         d="m 4713.64,3181.03 254.15,0"
         inkscape:connector-curvature="0"
         id="path100"
         style="fill:none;stroke:#000000;stroke-width:20.3321991;stroke-linecap:square;stroke-linejoin:miter;stroke-miterlimit:10;stroke-opacity:1;stroke-dasharray:none" /><path
         d="m 2578.76,4197.64 0,-406.64"
         inkscape:connector-curvature="0"
         id="path102"
         style="fill:none;stroke:#000000;stroke-width:20.3321991;stroke-linecap:square;stroke-linejoin:miter;stroke-miterlimit:10;stroke-opacity:1;stroke-dasharray:none" /><path
         d="m 4967.79,4197.64 0,-406.64"
         inkscape:connector-curvature="0"
         id="path104"
         style="fill:none;stroke:#000000;stroke-width:20.3321991;stroke-linecap:square;stroke-linejoin:miter;stroke-miterlimit:10;stroke-opacity:1;stroke-dasharray:none" /><path
         d="m 4967.79,4197.64 -2389.03,0"
         inkscape:connector-curvature="0"
         id="path106"
         style="fill:none;stroke:#000000;stroke-width:20.3321991;stroke-linecap:square;stroke-linejoin:miter;stroke-miterlimit:10;stroke-opacity:1;stroke-dasharray:none" /><path
         d="m 5425.27,4197.64 406.64,0"
         inkscape:connector-curvature="0"
         id="path108"
         style="fill:none;stroke:#000000;stroke-width:20.3321991;stroke-linecap:square;stroke-linejoin:miter;stroke-miterlimit:10;stroke-opacity:1;stroke-dasharray:none" /><g
         transform="scale(10,10)"
         id="g110"><text
           transform="matrix(0,1,1,0,278.208,384.183)"
           id="text112"><tspan
             x="0 4.889905 9.77981"
             y="0"
             id="tspan114"
             style="font-size:22.02659988px;font-variant:normal;font-weight:normal;writing-mode:lr-tb;fill:#000000;fill-opacity:1;fill-rule:nonzero;stroke:none;font-family:Helvetica;-inkscape-font-specification:Helvetica">iib</tspan><tspan
             x="0 4.889905 9.77981"
             y="238.90401"
             id="tspan116"
             style="font-size:22.02659988px;font-variant:normal;font-weight:normal;writing-mode:lr-tb;fill:#000000;fill-opacity:1;fill-rule:nonzero;stroke:none;font-family:Helvetica;-inkscape-font-specification:Helvetica">iib</tspan></text>
</g><path
         d="m 4967.79,4197.64 457.48,0"
         inkscape:connector-curvature="0"
         id="path118"
         style="fill:none;stroke:#000000;stroke-width:20.3321991;stroke-linecap:square;stroke-linejoin:miter;stroke-miterlimit:10;stroke-opacity:1;stroke-dasharray:none" /><path
         d="m 4652.64,2611.73 121.992,0 0,121.992 -121.992,0 0,-121.992 z"
         inkscape:connector-curvature="0"
         id="path120"
         style="fill:#000000;fill-opacity:1;fill-rule:nonzero;stroke:none" /><path
         d="m 3026.07,2611.73 121.992,0 0,121.992 -121.992,0 0,-121.992 z"
         inkscape:connector-curvature="0"
         id="path122"
         style="fill:#000000;fill-opacity:1;fill-rule:nonzero;stroke:none" /><path
         d="m 4652.64,5051.6 121.992,0 0,121.992 -121.992,0 0,-121.992 z"
         inkscape:connector-curvature="0"
         id="path124"
         style="fill:#000000;fill-opacity:1;fill-rule:nonzero;stroke:none" /><path
         d="m 3026.07,5051.6 121.992,0 0,121.992 -121.992,0 0,-121.992 z"
         inkscape:connector-curvature="0"
         id="path126"
         style="fill:#000000;fill-opacity:1;fill-rule:nonzero;stroke:none" /><path
         d="m 5770.92,4136.64 121.992,0 0,121.996 -121.992,0 0,-121.996 z"
         inkscape:connector-curvature="0"
         id="path128"
         style="fill:#000000;fill-opacity:1;fill-rule:nonzero;stroke:none" /></g></g></svg>