<?xml version="1.0" encoding="UTF-8" standalone="no"?>
<!-- Created with Inkscape (http://www.inkscape.org/) -->

<svg
   xmlns:dc="http://purl.org/dc/elements/1.1/"
   xmlns:cc="http://creativecommons.org/ns#"
   xmlns:rdf="http://www.w3.org/1999/02/22-rdf-syntax-ns#"
   xmlns:svg="http://www.w3.org/2000/svg"
   xmlns="http://www.w3.org/2000/svg"
   xmlns:inkscape="http://www.inkscape.org/namespaces/inkscape"
   version="1.1"
   width="1052.5"
   height="743.75"
   id="svg2"
   xml:space="preserve"><metadata
     id="metadata8"><rdf:RDF><cc:Work
         rdf:about=""><dc:format>image/svg+xml</dc:format><dc:type
           rdf:resource="http://purl.org/dc/dcmitype/StillImage" /></cc:Work></rdf:RDF></metadata><defs
     id="defs6"><clipPath
       id="clipPath12"><path
         d="M 0,0 595,0 595,842 0,842 0,0 z"
         inkscape:connector-curvature="0"
         id="path14" /></clipPath></defs><g
     transform="matrix(0,1.25,1.25,0,0,0)"
     clip-path="url(#clipPath12)"
     id="g10"><g
       transform="scale(0.1,0.1)"
       id="g16"><path
         d="m 5825.8,2599.96 0,-680"
         inkscape:connector-curvature="0"
         id="path18"
         style="fill:none;stroke:#000000;stroke-width:34;stroke-linecap:square;stroke-linejoin:miter;stroke-miterlimit:10;stroke-opacity:1;stroke-dasharray:none" /><path
         d="m 3105.8,2599.96 0,-680"
         inkscape:connector-curvature="0"
         id="path20"
         style="fill:none;stroke:#000000;stroke-width:34;stroke-linecap:square;stroke-linejoin:miter;stroke-miterlimit:10;stroke-opacity:1;stroke-dasharray:none" /><path
         d="m 5825.8,5319.96 0,680"
         inkscape:connector-curvature="0"
         id="path22"
         style="fill:none;stroke:#000000;stroke-width:34;stroke-linecap:square;stroke-linejoin:miter;stroke-miterlimit:10;stroke-opacity:1;stroke-dasharray:none" /><path
         d="m 3105.8,5319.96 0,680"
         inkscape:connector-curvature="0"
         id="path24"
         style="fill:none;stroke:#000000;stroke-width:34;stroke-linecap:square;stroke-linejoin:miter;stroke-miterlimit:10;stroke-opacity:1;stroke-dasharray:none" /><g
         transform="scale(10,10)"
         id="g26"><text
           transform="matrix(0,1,1,0,72.5801,310.996)"
           id="text28"><tspan
             x="0 32.757103"
             y="0"
             id="tspan30"
             style="font-size:49.11109924px;font-variant:normal;font-weight:normal;writing-mode:lr-tb;fill:#000000;fill-opacity:1;fill-rule:nonzero;stroke:none;font-family:Helvetica;-inkscape-font-specification:Helvetica">X?</tspan><tspan
             x="0 24.55555 49.111099 77.791985 94.195091 126.95219 154.25797 178.81352"
             y="68"
             id="tspan32"
             style="font-size:49.11109924px;font-variant:normal;font-weight:normal;writing-mode:lr-tb;fill:#000000;fill-opacity:1;fill-rule:nonzero;stroke:none;font-family:Helvetica;-inkscape-font-specification:Helvetica">sv={S_v}</tspan><tspan
             x="0 24.55555 35.458214 64.139099 80.542206 113.29931 140.60507 151.50774"
             y="136"
             id="tspan34"
             style="font-size:49.11109924px;font-variant:normal;font-weight:normal;writing-mode:lr-tb;fill:#000000;fill-opacity:1;fill-rule:nonzero;stroke:none;font-family:Helvetica;-inkscape-font-specification:Helvetica">si={S_i}</tspan></text>
</g><path
         d="m 3105.8,4044.96 0,-1445"
         inkscape:connector-curvature="0"
         id="path36"
         style="fill:none;stroke:#000000;stroke-width:34;stroke-linecap:square;stroke-linejoin:miter;stroke-miterlimit:10;stroke-opacity:1;stroke-dasharray:none" /><path
         d="m 5825.8,4044.96 0,-1445"
         inkscape:connector-curvature="0"
         id="path38"
         style="fill:none;stroke:#000000;stroke-width:34;stroke-linecap:square;stroke-linejoin:miter;stroke-miterlimit:10;stroke-opacity:1;stroke-dasharray:none" /><path
         d="m 3105.8,4894.96 0,425"
         inkscape:connector-curvature="0"
         id="path40"
         style="fill:none;stroke:#000000;stroke-width:34;stroke-linecap:square;stroke-linejoin:miter;stroke-miterlimit:10;stroke-opacity:1;stroke-dasharray:none" /><path
         d="m 5825.8,5319.96 0,-425"
         inkscape:connector-curvature="0"
         id="path42"
         style="fill:none;stroke:#000000;stroke-width:34;stroke-linecap:square;stroke-linejoin:miter;stroke-miterlimit:10;stroke-opacity:1;stroke-dasharray:none" /><path
         d="m 4550.8,3789.96 c 140.83,0 255,114.17 255,255 0,140.83 -114.17,255 -255,255"
         inkscape:connector-curvature="0"
         id="path44"
         style="fill:none;stroke:#000000;stroke-width:34;stroke-linecap:square;stroke-linejoin:miter;stroke-miterlimit:10;stroke-opacity:1;stroke-dasharray:none" /><path
         d="m 4210.8,4299.96 c -140.83,0 -255,-114.17 -255,-255 0,-140.83 114.17,-255 255,-255"
         inkscape:connector-curvature="0"
         id="path46"
         style="fill:none;stroke:#000000;stroke-width:34;stroke-linecap:square;stroke-linejoin:miter;stroke-miterlimit:10;stroke-opacity:1;stroke-dasharray:none" /><path
         d="m 4125.8,5149.96 c -140.83,0 -255,-114.17 -255,-255 0,-140.83 114.17,-255 255,-255 140.83,0 255,114.17 255,255 0,140.83 -114.17,255 -255,255"
         inkscape:connector-curvature="0"
         id="path48"
         style="fill:none;stroke:#000000;stroke-width:34;stroke-linecap:square;stroke-linejoin:miter;stroke-miterlimit:10;stroke-opacity:1;stroke-dasharray:none" /><path
         d="m 4635.8,5149.96 c -140.83,0 -255,-114.17 -255,-255 0,-140.83 114.17,-255 255,-255 140.83,0 255,114.17 255,255 0,140.83 -114.17,255 -255,255"
         inkscape:connector-curvature="0"
         id="path50"
         style="fill:none;stroke:#000000;stroke-width:34;stroke-linecap:square;stroke-linejoin:miter;stroke-miterlimit:10;stroke-opacity:1;stroke-dasharray:none" /><path
         d="m 4380.8,3364.96 c -140.83,0 -255,-114.17 -255,-255 0,-140.83 114.17,-255 255,-255 140.83,0 255,114.17 255,255 0,140.83 -114.17,255 -255,255"
         inkscape:connector-curvature="0"
         id="path52"
         style="fill:none;stroke:#000000;stroke-width:34;stroke-linecap:square;stroke-linejoin:miter;stroke-miterlimit:10;stroke-opacity:1;stroke-dasharray:none" /><path
         d="m 3105.8,3789.96 c -140.83,0 -255,-114.17 -255,-255 0,-140.83 114.17,-255 255,-255 140.83,0 255,114.17 255,255 0,140.83 -114.17,255 -255,255"
         inkscape:connector-curvature="0"
         id="path54"
         style="fill:none;stroke:#000000;stroke-width:34;stroke-linecap:square;stroke-linejoin:miter;stroke-miterlimit:10;stroke-opacity:1;stroke-dasharray:none" /><path
         d="m 4210.8,4299.96 340,0"
         inkscape:connector-curvature="0"
         id="path56"
         style="fill:none;stroke:#000000;stroke-width:34;stroke-linecap:square;stroke-linejoin:miter;stroke-miterlimit:10;stroke-opacity:1;stroke-dasharray:none" /><path
         d="m 4210.8,3789.96 340,0"
         inkscape:connector-curvature="0"
         id="path58"
         style="fill:none;stroke:#000000;stroke-width:34;stroke-linecap:square;stroke-linejoin:miter;stroke-miterlimit:10;stroke-opacity:1;stroke-dasharray:none" /><path
         d="m 3955.8,4044.96 -850,0"
         inkscape:connector-curvature="0"
         id="path60"
         style="fill:none;stroke:#000000;stroke-width:34;stroke-linecap:square;stroke-linejoin:miter;stroke-miterlimit:10;stroke-opacity:1;stroke-dasharray:none" /><path
         d="m 5825.8,4044.96 -1020,0"
         inkscape:connector-curvature="0"
         id="path62"
         style="fill:none;stroke:#000000;stroke-width:34;stroke-linecap:square;stroke-linejoin:miter;stroke-miterlimit:10;stroke-opacity:1;stroke-dasharray:none" /><path
         d="m 3105.8,4894.96 765,0"
         inkscape:connector-curvature="0"
         id="path64"
         style="fill:none;stroke:#000000;stroke-width:34;stroke-linecap:square;stroke-linejoin:miter;stroke-miterlimit:10;stroke-opacity:1;stroke-dasharray:none" /><path
         d="m 5825.8,4894.96 -935,0"
         inkscape:connector-curvature="0"
         id="path66"
         style="fill:none;stroke:#000000;stroke-width:34;stroke-linecap:square;stroke-linejoin:miter;stroke-miterlimit:10;stroke-opacity:1;stroke-dasharray:none" /><path
         d="m 4380.8,3364.96 0,-510"
         inkscape:connector-curvature="0"
         id="path68"
         style="fill:none;stroke:#000000;stroke-width:34;stroke-linecap:square;stroke-linejoin:miter;stroke-miterlimit:10;stroke-opacity:1;stroke-dasharray:none" /><path
         d="m 3105.8,3109.96 1020,0"
         inkscape:connector-curvature="0"
         id="path70"
         style="fill:none;stroke:#000000;stroke-width:34;stroke-linecap:square;stroke-linejoin:miter;stroke-miterlimit:10;stroke-opacity:1;stroke-dasharray:none" /><path
         d="m 5825.8,3109.96 -1190,0"
         inkscape:connector-curvature="0"
         id="path72"
         style="fill:none;stroke:#000000;stroke-width:34;stroke-linecap:square;stroke-linejoin:miter;stroke-miterlimit:10;stroke-opacity:1;stroke-dasharray:none" /><g
         transform="scale(10,10)"
         id="g74"><text
           transform="matrix(0,1,1,0,293.58,310.996)"
           id="text76"><tspan
             x="0"
             y="0"
             id="tspan78"
             style="font-size:36.83330154px;font-variant:normal;font-weight:normal;writing-mode:lr-tb;fill:#000000;fill-opacity:1;fill-rule:nonzero;stroke:none;font-family:Helvetica;-inkscape-font-specification:Helvetica">v</tspan><tspan
             x="8.5"
             y="110.5"
             id="tspan80"
             style="font-size:36.83330154px;font-variant:normal;font-weight:normal;writing-mode:lr-tb;fill:#000000;fill-opacity:1;fill-rule:nonzero;stroke:none;font-family:Helvetica;-inkscape-font-specification:Helvetica">i</tspan></text>
</g><path
         d="m 5723.8,1817.96 204,0 0,204 -204,0 0,-204 z"
         inkscape:connector-curvature="0"
         id="path82"
         style="fill:#000000;fill-opacity:1;fill-rule:nonzero;stroke:none" /><path
         d="m 3003.8,1817.96 204,0 0,204 -204,0 0,-204 z"
         inkscape:connector-curvature="0"
         id="path84"
         style="fill:#000000;fill-opacity:1;fill-rule:nonzero;stroke:none" /><path
         d="m 5723.8,5897.96 204,0 0,204 -204,0 0,-204 z"
         inkscape:connector-curvature="0"
         id="path86"
         style="fill:#000000;fill-opacity:1;fill-rule:nonzero;stroke:none" /><path
         d="m 3003.8,5897.96 204,0 0,204 -204,0 0,-204 z"
         inkscape:connector-curvature="0"
         id="path88"
         style="fill:#000000;fill-opacity:1;fill-rule:nonzero;stroke:none" /></g></g></svg>