<?xml version="1.0" encoding="UTF-8" standalone="no"?>
<!-- Created with Inkscape (http://www.inkscape.org/) -->

<svg
   xmlns:dc="http://purl.org/dc/elements/1.1/"
   xmlns:cc="http://creativecommons.org/ns#"
   xmlns:rdf="http://www.w3.org/1999/02/22-rdf-syntax-ns#"
   xmlns:svg="http://www.w3.org/2000/svg"
   xmlns="http://www.w3.org/2000/svg"
   xmlns:inkscape="http://www.inkscape.org/namespaces/inkscape"
   version="1.1"
   width="1052.5"
   height="743.75"
   id="svg2"
   xml:space="preserve"><metadata
     id="metadata8"><rdf:RDF><cc:Work
         rdf:about=""><dc:format>image/svg+xml</dc:format><dc:type
           rdf:resource="http://purl.org/dc/dcmitype/StillImage" /></cc:Work></rdf:RDF></metadata><defs
     id="defs6"><clipPath
       id="clipPath12"><path
         d="M 0,0 595,0 595,842 0,842 0,0 z"
         inkscape:connector-curvature="0"
         id="path14" /></clipPath></defs><g
     transform="matrix(0,1.25,1.25,0,0,0)"
     clip-path="url(#clipPath12)"
     id="g10"><g
       transform="scale(0.1,0.1)"
       id="g16"><g
         transform="scale(10,10)"
         id="g18"><text
           transform="matrix(0,1,1,0,265.249,37.9316)"
           id="text20"><tspan
             x="0 39.992054 124.52818 164.52023 197.85693 217.82298 251.15968 301.10477 334.4415 351.10983 384.44653 404.4126 421.08093 454.41763 487.75433 504.4227 517.7334 551.07013 564.3808 581.04913 594.35986 627.69653 661.03326"
             y="0"
             id="tspan22"
             style="font-size:59.95809937px;font-variant:normal;font-weight:normal;writing-mode:lr-tb;fill:#000000;fill-opacity:1;fill-rule:nonzero;stroke:none;font-family:Helvetica;-inkscape-font-specification:Helvetica">A?Parameter definitions</tspan><tspan
             x="0 16.668352 50.005054 83.341759 103.30781 136.64452 186.5896 203.25797 238.27348 254.94185 288.27853 321.61523 341.5813 374.918 424.8631 459.87863 489.85767 523.1944 536.50507 569.8418 603.17847 619.84686 636.5152 653.18353 669.85187 686.52026"
             y="124.528"
             id="tspan24"
             style="font-size:59.95809937px;font-variant:normal;font-weight:normal;writing-mode:lr-tb;fill:#000000;fill-opacity:1;fill-rule:nonzero;stroke:none;font-family:Helvetica;-inkscape-font-specification:Helvetica">.param &lt; param=value ... &gt;</tspan></text>
</g><path
         d="m 3067.59,7435.92 0,-7056.604"
         inkscape:connector-curvature="0"
         id="path26"
         style="fill:none;stroke:#000000;stroke-width:41.50939941;stroke-linecap:square;stroke-linejoin:miter;stroke-miterlimit:10;stroke-opacity:1;stroke-dasharray:none" /></g></g></svg>