<?xml version="1.0" encoding="UTF-8" standalone="no"?>
<!-- Created with Inkscape (http://www.inkscape.org/) -->

<svg
   xmlns:ns0="http://www.iki.fi/pav/software/textext/"
   xmlns:dc="http://purl.org/dc/elements/1.1/"
   xmlns:cc="http://creativecommons.org/ns#"
   xmlns:rdf="http://www.w3.org/1999/02/22-rdf-syntax-ns#"
   xmlns:svg="http://www.w3.org/2000/svg"
   xmlns="http://www.w3.org/2000/svg"
   xmlns:xlink="http://www.w3.org/1999/xlink"
   xmlns:sodipodi="http://sodipodi.sourceforge.net/DTD/sodipodi-0.dtd"
   xmlns:inkscape="http://www.inkscape.org/namespaces/inkscape"
   width="425"
   height="110"
   id="svg14078"
   version="1.1"
   inkscape:version="0.48.4 r9939"
   sodipodi:docname="stampK.svg">
  <sodipodi:namedview
     id="base"
     pagecolor="#ffffff"
     bordercolor="#666666"
     borderopacity="1.0"
     inkscape:pageopacity="0.0"
     inkscape:pageshadow="2"
     inkscape:zoom="2.8"
     inkscape:cx="194.55437"
     inkscape:cy="42.643542"
     inkscape:document-units="px"
     inkscape:current-layer="layer1"
     showgrid="true"
     inkscape:object-paths="true"
     inkscape:object-nodes="true"
     inkscape:window-width="1665"
     inkscape:window-height="1028"
     inkscape:window-x="66"
     inkscape:window-y="0"
     inkscape:window-maximized="0"
     fit-margin-top="0"
     fit-margin-left="0"
     fit-margin-right="0"
     fit-margin-bottom="0">
    <inkscape:grid
       id="grid14086"
       type="xygrid"
       empspacing="5"
       visible="true"
       enabled="true"
       snapvisiblegridlinesonly="true"
       originx="50px"
       originy="-855px" />
  </sodipodi:namedview>
  <defs
     id="defs14080">
    <marker
       style="overflow:visible"
       id="Arrow2Mend-00"
       refX="0"
       refY="0"
       orient="auto"
       inkscape:stockid="Arrow2Mend">
      <path
         transform="scale(-0.6,-0.6)"
         d="M 8.7185878,4.0337352 -2.2072895,0.01601326 8.7185884,-4.0017078 c -1.7454984,2.3720609 -1.7354408,5.6174519 -6e-7,8.035443 z"
         style="font-size:12px;fill-rule:evenodd;stroke-width:0.625;stroke-linejoin:round"
         id="path5872-4"
         inkscape:connector-curvature="0" />
    </marker>
    <marker
       inkscape:stockid="Arrow2Mend"
       orient="auto"
       refY="0"
       refX="0"
       id="Arrow2Mend-00-6"
       style="overflow:visible">
      <path
         inkscape:connector-curvature="0"
         id="path5872-4-75"
         style="font-size:12px;fill-rule:evenodd;stroke-width:0.625;stroke-linejoin:round"
         d="M 8.7185878,4.0337352 -2.2072895,0.01601326 8.7185884,-4.0017078 c -1.7454984,2.3720609 -1.7354408,5.6174519 -6e-7,8.035443 z"
         transform="scale(-0.6,-0.6)" />
    </marker>
  </defs>
  <metadata
     id="metadata14083">
    <rdf:RDF>
      <cc:Work
         rdf:about="">
        <dc:format>image/svg+xml</dc:format>
        <dc:type
           rdf:resource="http://purl.org/dc/dcmitype/StillImage" />
        <dc:title />
      </cc:Work>
    </rdf:RDF>
  </metadata>
  <g
     id="layer1"
     inkscape:groupmode="layer"
     inkscape:label="Layer 1"
     transform="translate(50,-87.362183)">
    <rect
       style="fill:#0064ff;fill-opacity:0.0745098;stroke:none"
       id="rect6470-9-4-1"
       y="87.362183"
       x="-50"
       height="110"
       width="425" />
    <text
       xml:space="preserve"
       style="font-size:10px;font-style:normal;font-variant:normal;font-weight:normal;font-stretch:normal;text-align:start;line-height:125%;letter-spacing:0px;word-spacing:0px;writing-mode:lr-tb;text-anchor:start;fill:#000000;fill-opacity:1;stroke:none;font-family:Sans;-inkscape-font-specification:Sans"
       x="50"
       y="107.36218"
       id="text13474-1"
       sodipodi:linespacing="125%"><tspan
         sodipodi:role="line"
         id="tspan13476-2"
         x="50"
         y="107.36218">Coupling factor</tspan></text>
    <text
       sodipodi:linespacing="100%"
       id="text60370-1-6-7"
       y="122.36218"
       x="50"
       style="font-size:8px;font-style:normal;font-variant:normal;font-weight:bold;font-stretch:normal;text-align:start;line-height:100%;writing-mode:lr-tb;text-anchor:start;fill:#000000;fill-opacity:1;stroke:none;font-family:Courier New;-inkscape-font-specification:Courier New Bold"
       xml:space="preserve"><tspan
         y="122.36218"
         x="50"
         id="tspan60372-0-2-0"
         sodipodi:role="line">kxy Lx Ly</tspan></text>
    <g
       transform="translate(-173.4937,37.88072)"
       ns0:text="$L_a$: value of Lx\\\\\n$L_b$: value of Ly"
       ns0:preamble=""
       id="g77548">
      <defs
         id="defs77550">
        <g
           id="g77552">
          <symbol
             style="overflow:visible"
             overflow="visible"
             id="textext-1bb95908-0">
            <path
               inkscape:connector-curvature="0"
               style="stroke:none"
               d=""
               id="path77555" />
          </symbol>
          <symbol
             style="overflow:visible"
             overflow="visible"
             id="textext-1bb95908-1">
            <path
               inkscape:connector-curvature="0"
               style="stroke:none"
               d="M 3.734375,-6.03125 C 3.8125,-6.390625 3.84375,-6.5 4.78125,-6.5 c 0.296875,0 0.375,0 0.375,-0.1875 0,-0.125 -0.109375,-0.125 -0.15625,-0.125 -0.328125,0 -1.140625,0.03125 -1.46875,0.03125 -0.296875,0 -1.03125,-0.03125 -1.328125,-0.03125 -0.0625,0 -0.1875,0 -0.1875,0.203125 0,0.109375 0.09375,0.109375 0.28125,0.109375 0.015625,0 0.203125,0 0.375,0.015625 0.171875,0.03125 0.265625,0.03125 0.265625,0.171875 0,0.03125 0,0.0625 -0.03125,0.1875 L 1.5625,-0.78125 c -0.09375,0.390625 -0.109375,0.46875 -0.90625,0.46875 -0.171875,0 -0.265625,0 -0.265625,0.203125 C 0.390625,0 0.484375,0 0.65625,0 l 4.625,0 C 5.515625,0 5.515625,0 5.578125,-0.171875 L 6.375,-2.328125 c 0.03125,-0.109375 0.03125,-0.125 0.03125,-0.140625 0,-0.03125 -0.03125,-0.109375 -0.109375,-0.109375 -0.09375,0 -0.109375,0.0625 -0.171875,0.21875 -0.34375,0.90625 -0.78125,2.046875 -2.5,2.046875 l -0.9375,0 c -0.140625,0 -0.171875,0 -0.21875,0 -0.109375,-0.015625 -0.140625,-0.03125 -0.140625,-0.109375 0,-0.03125 0,-0.046875 0.046875,-0.21875 z m 0,0"
               id="path77558" />
          </symbol>
          <symbol
             style="overflow:visible"
             overflow="visible"
             id="textext-1bb95908-2">
            <path
               inkscape:connector-curvature="0"
               style="stroke:none"
               d=""
               id="path77561" />
          </symbol>
          <symbol
             style="overflow:visible"
             overflow="visible"
             id="textext-1bb95908-3">
            <path
               inkscape:connector-curvature="0"
               style="stroke:none"
               d="m 2.9375,-2.65625 c -0.140625,-0.234375 -0.375,-0.421875 -0.71875,-0.421875 -0.890625,0 -1.796875,0.984375 -1.796875,1.984375 0,0.6875 0.453125,1.15625 1.0625,1.15625 0.375,0 0.703125,-0.203125 0.984375,-0.484375 C 2.59375,0 3,0.0625 3.1875,0.0625 c 0.25,0 0.421875,-0.140625 0.546875,-0.359375 0.15625,-0.28125 0.25,-0.671875 0.25,-0.703125 0,-0.09375 -0.09375,-0.09375 -0.109375,-0.09375 -0.109375,0 -0.109375,0.03125 -0.15625,0.21875 C 3.625,-0.53125 3.5,-0.125 3.203125,-0.125 3.03125,-0.125 2.96875,-0.28125 2.96875,-0.46875 c 0,-0.109375 0.0625,-0.375 0.109375,-0.546875 0.046875,-0.1875 0.125,-0.46875 0.15625,-0.625 L 3.375,-2.171875 C 3.421875,-2.359375 3.5,-2.6875 3.5,-2.71875 3.5,-2.875 3.375,-2.9375 3.265625,-2.9375 c -0.125,0 -0.28125,0.078125 -0.328125,0.28125 z M 2.5,-0.875 C 2.453125,-0.671875 2.296875,-0.53125 2.140625,-0.40625 2.078125,-0.34375 1.796875,-0.125 1.5,-0.125 c -0.265625,0 -0.515625,-0.1875 -0.515625,-0.671875 0,-0.375 0.203125,-1.140625 0.375,-1.421875 0.3125,-0.5625 0.671875,-0.65625 0.859375,-0.65625 0.484375,0 0.625,0.53125 0.625,0.609375 0,0.015625 -0.015625,0.078125 -0.015625,0.09375 z m 0,0"
               id="path77564" />
          </symbol>
          <symbol
             style="overflow:visible"
             overflow="visible"
             id="textext-1bb95908-4">
            <path
               inkscape:connector-curvature="0"
               style="stroke:none"
               d="m 1.84375,-4.625 c 0,-0.015625 0.03125,-0.109375 0.03125,-0.109375 0,-0.046875 -0.03125,-0.109375 -0.125,-0.109375 -0.140625,0 -0.71875,0.0625 -0.890625,0.078125 -0.046875,0 -0.15625,0.015625 -0.15625,0.15625 0,0.09375 0.109375,0.09375 0.1875,0.09375 0.328125,0 0.328125,0.0625 0.328125,0.109375 0,0.046875 -0.0625,0.328125 -0.109375,0.484375 l -0.15625,0.640625 c -0.0625,0.25 -0.4375,1.765625 -0.453125,1.859375 -0.046875,0.171875 -0.046875,0.265625 -0.046875,0.34375 0,0.703125 0.453125,1.140625 1.03125,1.140625 0.875,0 1.796875,-0.9375 1.796875,-1.96875 0,-0.8125 -0.5625,-1.171875 -1.046875,-1.171875 -0.359375,0 -0.671875,0.203125 -0.875,0.390625 z m -0.359375,4.5 c -0.328125,0 -0.53125,-0.296875 -0.53125,-0.71875 0,-0.25 0.0625,-0.484375 0.265625,-1.28125 C 1.25,-2.25 1.25,-2.265625 1.390625,-2.421875 1.65625,-2.71875 1.96875,-2.875 2.21875,-2.875 c 0.265625,0 0.5,0.203125 0.5,0.671875 0,0.28125 -0.140625,1 -0.359375,1.40625 C 2.1875,-0.453125 1.84375,-0.125 1.484375,-0.125 z m 0,0"
               id="path77567" />
          </symbol>
          <symbol
             style="overflow:visible"
             overflow="visible"
             id="textext-1bb95908-5">
            <path
               inkscape:connector-curvature="0"
               style="stroke:none"
               d=""
               id="path77570" />
          </symbol>
          <symbol
             style="overflow:visible"
             overflow="visible"
             id="textext-1bb95908-6">
            <path
               inkscape:connector-curvature="0"
               style="stroke:none"
               d="m 1.90625,-3.765625 c 0,-0.296875 -0.234375,-0.53125 -0.515625,-0.53125 -0.296875,0 -0.53125,0.234375 -0.53125,0.53125 0,0.28125 0.234375,0.53125 0.53125,0.53125 0.28125,0 0.515625,-0.25 0.515625,-0.53125 z m 0,3.234375 c 0,-0.28125 -0.234375,-0.53125 -0.515625,-0.53125 -0.296875,0 -0.53125,0.25 -0.53125,0.53125 C 0.859375,-0.234375 1.09375,0 1.390625,0 1.671875,0 1.90625,-0.234375 1.90625,-0.53125 z m 0,0"
               id="path77573" />
          </symbol>
          <symbol
             style="overflow:visible"
             overflow="visible"
             id="textext-1bb95908-7">
            <path
               inkscape:connector-curvature="0"
               style="stroke:none"
               d="M 4.140625,-3.3125 C 4.234375,-3.546875 4.40625,-3.984375 5.0625,-3.984375 l 0,-0.3125 c -0.234375,0.015625 -0.515625,0.03125 -0.75,0.03125 -0.234375,0 -0.6875,-0.015625 -0.859375,-0.03125 l 0,0.3125 c 0.359375,0 0.46875,0.234375 0.46875,0.421875 0,0.09375 -0.015625,0.140625 -0.046875,0.25 L 2.84375,-0.78125 1.734375,-3.5625 c -0.0625,-0.125 -0.0625,-0.140625 -0.0625,-0.171875 0,-0.25 0.390625,-0.25 0.578125,-0.25 l 0,-0.3125 c -0.3125,0.015625 -0.859375,0.03125 -1.09375,0.03125 -0.265625,0 -0.671875,-0.015625 -0.96875,-0.03125 l 0,0.3125 c 0.625,0 0.671875,0.0625 0.796875,0.359375 l 1.4375,3.546875 C 2.484375,0.0625 2.5,0.109375 2.625,0.109375 c 0.140625,0 0.171875,-0.09375 0.21875,-0.1875 z m 0,0"
               id="path77576" />
          </symbol>
          <symbol
             style="overflow:visible"
             overflow="visible"
             id="textext-1bb95908-8">
            <path
               inkscape:connector-curvature="0"
               style="stroke:none"
               d="m 3.3125,-0.75 c 0.046875,0.390625 0.3125,0.8125 0.78125,0.8125 0.21875,0 0.828125,-0.140625 0.828125,-0.953125 l 0,-0.5625 -0.25,0 0,0.5625 c 0,0.578125 -0.25,0.640625 -0.359375,0.640625 -0.328125,0 -0.375,-0.453125 -0.375,-0.5 l 0,-1.984375 c 0,-0.421875 0,-0.8125 -0.359375,-1.1875 C 3.1875,-4.3125 2.6875,-4.46875 2.21875,-4.46875 c -0.828125,0 -1.515625,0.46875 -1.515625,1.125 0,0.296875 0.203125,0.46875 0.46875,0.46875 0.28125,0 0.453125,-0.203125 0.453125,-0.453125 0,-0.125 -0.046875,-0.453125 -0.515625,-0.453125 C 1.390625,-4.140625 1.875,-4.25 2.1875,-4.25 c 0.5,0 1.0625,0.390625 1.0625,1.28125 l 0,0.359375 c -0.515625,0.03125 -1.203125,0.0625 -1.828125,0.359375 -0.75,0.34375 -1,0.859375 -1,1.296875 0,0.8125 0.96875,1.0625 1.59375,1.0625 0.65625,0 1.109375,-0.40625 1.296875,-0.859375 z M 3.25,-2.390625 l 0,1 c 0,0.9375 -0.71875,1.28125 -1.171875,1.28125 -0.484375,0 -0.890625,-0.34375 -0.890625,-0.84375 0,-0.546875 0.421875,-1.375 2.0625,-1.4375 z m 0,0"
               id="path77579" />
          </symbol>
          <symbol
             style="overflow:visible"
             overflow="visible"
             id="textext-1bb95908-9">
            <path
               inkscape:connector-curvature="0"
               style="stroke:none"
               d="m 1.765625,-6.921875 -1.4375,0.109375 0,0.3125 c 0.703125,0 0.78125,0.0625 0.78125,0.5625 l 0,5.1875 c 0,0.4375 -0.109375,0.4375 -0.78125,0.4375 l 0,0.3125 C 0.65625,-0.015625 1.1875,-0.03125 1.4375,-0.03125 c 0.25,0 0.734375,0.015625 1.109375,0.03125 l 0,-0.3125 c -0.671875,0 -0.78125,0 -0.78125,-0.4375 z m 0,0"
               id="path77582" />
          </symbol>
          <symbol
             style="overflow:visible"
             overflow="visible"
             id="textext-1bb95908-10">
            <path
               inkscape:connector-curvature="0"
               style="stroke:none"
               d="m 3.890625,-0.78125 0,0.890625 L 5.328125,0 l 0,-0.3125 C 4.640625,-0.3125 4.5625,-0.375 4.5625,-0.875 l 0,-3.53125 -1.46875,0.109375 0,0.3125 c 0.6875,0 0.78125,0.0625 0.78125,0.5625 l 0,1.765625 c 0,0.875 -0.484375,1.546875 -1.21875,1.546875 -0.828125,0 -0.875,-0.46875 -0.875,-0.984375 l 0,-3.3125 -1.46875,0.109375 0,0.3125 c 0.78125,0 0.78125,0.03125 0.78125,0.90625 l 0,1.5 c 0,0.78125 0,1.6875 1.515625,1.6875 0.5625,0 1,-0.28125 1.28125,-0.890625 z m 0,0"
               id="path77585" />
          </symbol>
          <symbol
             style="overflow:visible"
             overflow="visible"
             id="textext-1bb95908-11">
            <path
               inkscape:connector-curvature="0"
               style="stroke:none"
               d="M 1.109375,-2.515625 C 1.171875,-4 2.015625,-4.25 2.359375,-4.25 c 1.015625,0 1.125,1.34375 1.125,1.734375 z m 0,0.21875 2.78125,0 c 0.21875,0 0.25,0 0.25,-0.21875 0,-0.984375 -0.546875,-1.953125 -1.78125,-1.953125 -1.15625,0 -2.078125,1.03125 -2.078125,2.28125 0,1.328125 1.046875,2.296875 2.1875,2.296875 C 3.6875,0.109375 4.140625,-1 4.140625,-1.1875 4.140625,-1.28125 4.0625,-1.3125 4,-1.3125 c -0.078125,0 -0.109375,0.0625 -0.125,0.140625 -0.34375,1.03125 -1.25,1.03125 -1.34375,1.03125 -0.5,0 -0.890625,-0.296875 -1.125,-0.671875 -0.296875,-0.46875 -0.296875,-1.125 -0.296875,-1.484375 z m 0,0"
               id="path77588" />
          </symbol>
          <symbol
             style="overflow:visible"
             overflow="visible"
             id="textext-1bb95908-12">
            <path
               inkscape:connector-curvature="0"
               style="stroke:none"
               d="M 4.6875,-2.140625 C 4.6875,-3.40625 3.703125,-4.46875 2.5,-4.46875 c -1.25,0 -2.21875,1.09375 -2.21875,2.328125 0,1.296875 1.03125,2.25 2.203125,2.25 1.203125,0 2.203125,-0.984375 2.203125,-2.25 z m -2.1875,2 c -0.4375,0 -0.875,-0.203125 -1.140625,-0.671875 -0.25,-0.4375 -0.25,-1.046875 -0.25,-1.40625 0,-0.390625 0,-0.921875 0.234375,-1.359375 C 1.609375,-4.03125 2.078125,-4.25 2.484375,-4.25 c 0.4375,0 0.859375,0.21875 1.125,0.65625 0.265625,0.421875 0.265625,1 0.265625,1.375 0,0.359375 0,0.90625 -0.21875,1.34375 C 3.421875,-0.421875 2.984375,-0.140625 2.5,-0.140625 z m 0,0"
               id="path77591" />
          </symbol>
          <symbol
             style="overflow:visible"
             overflow="visible"
             id="textext-1bb95908-13">
            <path
               inkscape:connector-curvature="0"
               style="stroke:none"
               d="m 1.75,-4.296875 0,-1.15625 c 0,-0.875 0.46875,-1.359375 0.90625,-1.359375 0.03125,0 0.1875,0 0.328125,0.078125 C 2.875,-6.703125 2.6875,-6.5625 2.6875,-6.3125 c 0,0.21875 0.15625,0.421875 0.4375,0.421875 0.28125,0 0.4375,-0.203125 0.4375,-0.4375 0,-0.375 -0.375,-0.703125 -0.90625,-0.703125 -0.6875,0 -1.546875,0.53125 -1.546875,1.59375 l 0,1.140625 -0.78125,0 0,0.3125 0.78125,0 0,3.234375 c 0,0.4375 -0.109375,0.4375 -0.765625,0.4375 l 0,0.3125 c 0.390625,-0.015625 0.859375,-0.03125 1.125,-0.03125 0.40625,0 0.875,0 1.265625,0.03125 l 0,-0.3125 -0.203125,0 c -0.734375,0 -0.75,-0.109375 -0.75,-0.46875 l 0,-3.203125 1.125,0 0,-0.3125 z m 0,0"
               id="path77594" />
          </symbol>
          <symbol
             style="overflow:visible"
             overflow="visible"
             id="textext-1bb95908-14">
            <path
               inkscape:connector-curvature="0"
               style="stroke:none"
               d="m 5.796875,-2.578125 -0.25,0 c -0.109375,1.015625 -0.25,2.265625 -2,2.265625 l -0.8125,0 C 2.265625,-0.3125 2.25,-0.375 2.25,-0.703125 l 0,-5.3125 C 2.25,-6.359375 2.25,-6.5 3.1875,-6.5 l 0.328125,0 0,-0.3125 C 3.15625,-6.78125 2.25,-6.78125 1.84375,-6.78125 c -0.390625,0 -1.171875,0 -1.515625,-0.03125 l 0,0.3125 0.234375,0 c 0.765625,0 0.796875,0.109375 0.796875,0.46875 l 0,5.25 c 0,0.359375 -0.03125,0.46875 -0.796875,0.46875 l -0.234375,0 0,0.3125 5.1875,0 z m 0,0"
               id="path77597" />
          </symbol>
          <symbol
             style="overflow:visible"
             overflow="visible"
             id="textext-1bb95908-15">
            <path
               inkscape:connector-curvature="0"
               style="stroke:none"
               d="M 2.859375,-2.34375 C 3.15625,-2.71875 3.53125,-3.203125 3.78125,-3.46875 4.09375,-3.828125 4.5,-3.984375 4.96875,-3.984375 l 0,-0.3125 c -0.265625,0.015625 -0.5625,0.03125 -0.828125,0.03125 -0.296875,0 -0.828125,-0.015625 -0.953125,-0.03125 l 0,0.3125 c 0.21875,0.015625 0.296875,0.140625 0.296875,0.3125 0,0.15625 -0.109375,0.28125 -0.15625,0.34375 L 2.71875,-2.546875 1.9375,-3.5625 C 1.84375,-3.65625 1.84375,-3.671875 1.84375,-3.734375 c 0,-0.15625 0.15625,-0.25 0.34375,-0.25 l 0,-0.3125 c -0.25,0.015625 -0.90625,0.03125 -1.078125,0.03125 -0.203125,0 -0.671875,-0.015625 -0.9375,-0.03125 l 0,0.3125 c 0.703125,0 0.703125,0 1.171875,0.609375 l 0.984375,1.28125 -0.9375,1.1875 C 0.921875,-0.328125 0.328125,-0.3125 0.125,-0.3125 L 0.125,0 c 0.25,-0.015625 0.5625,-0.03125 0.828125,-0.03125 0.28125,0 0.703125,0.015625 0.9375,0.03125 l 0,-0.3125 c -0.21875,-0.03125 -0.28125,-0.15625 -0.28125,-0.3125 0,-0.21875 0.28125,-0.546875 0.890625,-1.265625 l 0.765625,1 C 3.34375,-0.78125 3.46875,-0.625 3.46875,-0.5625 c 0,0.09375 -0.09375,0.25 -0.359375,0.25 l 0,0.3125 C 3.40625,-0.015625 3.96875,-0.03125 4.1875,-0.03125 c 0.265625,0 0.65625,0.015625 0.953125,0.03125 l 0,-0.3125 c -0.53125,0 -0.71875,-0.015625 -0.9375,-0.3125 z m 0,0"
               id="path77600" />
          </symbol>
          <symbol
             style="overflow:visible"
             overflow="visible"
             id="textext-1bb95908-16">
            <path
               inkscape:connector-curvature="0"
               style="stroke:none"
               d="m 4.140625,-3.34375 c 0.25,-0.640625 0.765625,-0.640625 0.921875,-0.640625 l 0,-0.3125 c -0.234375,0.015625 -0.515625,0.03125 -0.75,0.03125 -0.171875,0 -0.640625,-0.015625 -0.859375,-0.03125 l 0,0.3125 c 0.3125,0 0.46875,0.171875 0.46875,0.421875 0,0.109375 -0.015625,0.125 -0.0625,0.25 L 2.84375,-0.875 1.75,-3.546875 C 1.703125,-3.65625 1.6875,-3.6875 1.6875,-3.734375 c 0,-0.25 0.359375,-0.25 0.5625,-0.25 l 0,-0.3125 c -0.265625,0.015625 -0.921875,0.03125 -1.09375,0.03125 -0.265625,0 -0.671875,-0.015625 -0.96875,-0.03125 l 0,0.3125 c 0.484375,0 0.671875,0 0.8125,0.34375 L 2.5,0 C 2.4375,0.125 2.296875,0.453125 2.25,0.59375 2.03125,1.140625 1.75,1.828125 1.109375,1.828125 c -0.046875,0 -0.28125,0 -0.46875,-0.1875 0.3125,-0.03125 0.390625,-0.25 0.390625,-0.421875 0,-0.25 -0.1875,-0.40625 -0.421875,-0.40625 -0.203125,0 -0.421875,0.125 -0.421875,0.421875 0,0.453125 0.421875,0.8125 0.921875,0.8125 0.625,0 1.03125,-0.578125 1.265625,-1.140625 z m 0,0"
               id="path77603" />
          </symbol>
        </g>
      </defs>
      <g
         id="textext-1bb95908-17">
        <g
           style="fill:#000000;fill-opacity:1"
           id="g77606">
          <use
             height="1052.3622"
             width="744.09448"
             xlink:href="#textext-1bb95908-1"
             x="223.43201"
             y="134.765"
             id="use77608" />
        </g>
        <g
           style="fill:#000000;fill-opacity:1"
           id="g77610">
          <use
             height="1052.3622"
             width="744.09448"
             xlink:href="#textext-1bb95908-3"
             x="230.21201"
             y="136.259"
             id="use77612" />
        </g>
        <g
           style="fill:#000000;fill-opacity:1"
           id="g77614">
          <use
             height="1052.3622"
             width="744.09448"
             xlink:href="#textext-1bb95908-6"
             x="235.032"
             y="134.765"
             id="use77616" />
        </g>
        <g
           style="fill:#000000;fill-opacity:1"
           id="g77618">
          <use
             height="1052.3622"
             width="744.09448"
             xlink:href="#textext-1bb95908-7"
             x="242.22301"
             y="134.765"
             id="use77620" />
        </g>
        <g
           style="fill:#000000;fill-opacity:1"
           id="g77622">
          <use
             height="1052.3622"
             width="744.09448"
             xlink:href="#textext-1bb95908-8"
             x="246.93332"
             y="134.765"
             id="use77624" />
          <use
             height="1052.3622"
             width="744.09448"
             xlink:href="#textext-1bb95908-9"
             x="251.91463"
             y="134.765"
             id="use77626" />
          <use
             height="1052.3622"
             width="744.09448"
             xlink:href="#textext-1bb95908-10"
             x="254.68224"
             y="134.765"
             id="use77628" />
          <use
             height="1052.3622"
             width="744.09448"
             xlink:href="#textext-1bb95908-11"
             x="260.21744"
             y="134.765"
             id="use77630" />
        </g>
        <g
           style="fill:#000000;fill-opacity:1"
           id="g77632">
          <use
             height="1052.3622"
             width="744.09448"
             xlink:href="#textext-1bb95908-12"
             x="267.96237"
             y="134.765"
             id="use77634" />
          <use
             height="1052.3622"
             width="744.09448"
             xlink:href="#textext-1bb95908-13"
             x="272.94366"
             y="134.765"
             id="use77636" />
        </g>
        <g
           style="fill:#000000;fill-opacity:1"
           id="g77638">
          <use
             height="1052.3622"
             width="744.09448"
             xlink:href="#textext-1bb95908-14"
             x="279.30579"
             y="134.765"
             id="use77640" />
          <use
             height="1052.3622"
             width="744.09448"
             xlink:href="#textext-1bb95908-15"
             x="285.53241"
             y="134.765"
             id="use77642" />
        </g>
        <g
           style="fill:#000000;fill-opacity:1"
           id="g77644">
          <use
             height="1052.3622"
             width="744.09448"
             xlink:href="#textext-1bb95908-1"
             x="223.43201"
             y="146.72"
             id="use77646" />
        </g>
        <g
           style="fill:#000000;fill-opacity:1"
           id="g77648">
          <use
             height="1052.3622"
             width="744.09448"
             xlink:href="#textext-1bb95908-4"
             x="230.21201"
             y="148.214"
             id="use77650" />
        </g>
        <g
           style="fill:#000000;fill-opacity:1"
           id="g77652">
          <use
             height="1052.3622"
             width="744.09448"
             xlink:href="#textext-1bb95908-6"
             x="234.214"
             y="146.72"
             id="use77654" />
        </g>
        <g
           style="fill:#000000;fill-opacity:1"
           id="g77656">
          <use
             height="1052.3622"
             width="744.09448"
             xlink:href="#textext-1bb95908-7"
             x="241.405"
             y="146.72"
             id="use77658" />
        </g>
        <g
           style="fill:#000000;fill-opacity:1"
           id="g77660">
          <use
             height="1052.3622"
             width="744.09448"
             xlink:href="#textext-1bb95908-8"
             x="246.11533"
             y="146.72"
             id="use77662" />
          <use
             height="1052.3622"
             width="744.09448"
             xlink:href="#textext-1bb95908-9"
             x="251.09662"
             y="146.72"
             id="use77664" />
          <use
             height="1052.3622"
             width="744.09448"
             xlink:href="#textext-1bb95908-10"
             x="253.86423"
             y="146.72"
             id="use77666" />
          <use
             height="1052.3622"
             width="744.09448"
             xlink:href="#textext-1bb95908-11"
             x="259.39944"
             y="146.72"
             id="use77668" />
        </g>
        <g
           style="fill:#000000;fill-opacity:1"
           id="g77670">
          <use
             height="1052.3622"
             width="744.09448"
             xlink:href="#textext-1bb95908-12"
             x="267.14438"
             y="146.72"
             id="use77672" />
          <use
             height="1052.3622"
             width="744.09448"
             xlink:href="#textext-1bb95908-13"
             x="272.12567"
             y="146.72"
             id="use77674" />
        </g>
        <g
           style="fill:#000000;fill-opacity:1"
           id="g77676">
          <use
             height="1052.3622"
             width="744.09448"
             xlink:href="#textext-1bb95908-14"
             x="278.48779"
             y="146.72"
             id="use77678" />
          <use
             height="1052.3622"
             width="744.09448"
             xlink:href="#textext-1bb95908-16"
             x="284.71442"
             y="146.72"
             id="use77680" />
        </g>
      </g>
    </g>
    <g
       id="g77970"
       transform="translate(-173.63672,6.9637451)"
       ns0:preamble=""
       ns0:text="$\\left[\n\\begin{array}\n[c]{c}%\n0\\\\\n\n0\n\\end{array}\n\\right]  =\\left[\n\\begin{array}\n[c]{cc}%\n0 &amp; -sk \\sqrt{L_a L_b}\\\\\n-sk \\sqrt{L_a L_b} &amp; 0\\\\\n\\end{array}\n\\right]  \\left[\n\\begin{array}\n[c]{c}%\nI_{Lx}\\\\\nI_{Ly}%\n\\end{array}\n\\right]  $">
      <defs
         id="defs77972">
        <g
           id="g77974">
          <symbol
             id="textext-9cc1bc47-0"
             overflow="visible"
             style="overflow:visible">
            <path
               id="path77977"
               d=""
               style="stroke:none"
               inkscape:connector-curvature="0" />
          </symbol>
          <symbol
             id="textext-9cc1bc47-1"
             overflow="visible"
             style="overflow:visible">
            <path
               id="path77980"
               d="m 2.5,23.515625 2.609375,0 0,-0.546875 -2.0625,0 0,-22.8125 2.0625,0 0,-0.5625 -2.609375,0 z m 0,0"
               style="stroke:none"
               inkscape:connector-curvature="0" />
          </symbol>
          <symbol
             id="textext-9cc1bc47-2"
             overflow="visible"
             style="overflow:visible">
            <path
               id="path77983"
               d="m 2.21875,22.96875 -2.078125,0 0,0.546875 2.625,0 0,-23.921875 -2.625,0 0,0.5625 2.078125,0 z m 0,0"
               style="stroke:none"
               inkscape:connector-curvature="0" />
          </symbol>
          <symbol
             id="textext-9cc1bc47-3"
             overflow="visible"
             style="overflow:visible">
            <path
               id="path77986"
               d=""
               style="stroke:none"
               inkscape:connector-curvature="0" />
          </symbol>
          <symbol
             id="textext-9cc1bc47-4"
             overflow="visible"
             style="overflow:visible">
            <path
               id="path77989"
               d="m 4.578125,-3.1875 c 0,-0.796875 -0.046875,-1.59375 -0.390625,-2.328125 -0.453125,-0.96875 -1.28125,-1.125 -1.6875,-1.125 -0.609375,0 -1.328125,0.265625 -1.75,1.1875 -0.3125,0.6875 -0.359375,1.46875 -0.359375,2.265625 0,0.75 0.03125,1.640625 0.453125,2.40625 0.421875,0.796875 1.15625,1 1.640625,1 0.53125,0 1.296875,-0.203125 1.734375,-1.15625 0.3125,-0.6875 0.359375,-1.46875 0.359375,-2.25 z M 2.484375,0 C 2.09375,0 1.5,-0.25 1.328125,-1.203125 1.21875,-1.796875 1.21875,-2.71875 1.21875,-3.3125 c 0,-0.640625 0,-1.296875 0.078125,-1.828125 0.1875,-1.1875 0.9375,-1.28125 1.1875,-1.28125 0.328125,0 0.984375,0.1875 1.171875,1.171875 0.109375,0.5625 0.109375,1.3125 0.109375,1.9375 0,0.75 0,1.421875 -0.109375,2.0625 C 3.5,-0.296875 2.9375,0 2.484375,0 z m 0,0"
               style="stroke:none"
               inkscape:connector-curvature="0" />
          </symbol>
          <symbol
             id="textext-9cc1bc47-5"
             overflow="visible"
             style="overflow:visible">
            <path
               id="path77992"
               d="m 6.84375,-3.265625 c 0.15625,0 0.34375,0 0.34375,-0.1875 C 7.1875,-3.65625 7,-3.65625 6.859375,-3.65625 l -5.96875,0 c -0.140625,0 -0.328125,0 -0.328125,0.203125 0,0.1875 0.1875,0.1875 0.328125,0.1875 z m 0.015625,1.9375 c 0.140625,0 0.328125,0 0.328125,-0.203125 0,-0.1875 -0.1875,-0.1875 -0.34375,-0.1875 l -5.953125,0 c -0.140625,0 -0.328125,0 -0.328125,0.1875 0,0.203125 0.1875,0.203125 0.328125,0.203125 z m 0,0"
               style="stroke:none"
               inkscape:connector-curvature="0" />
          </symbol>
          <symbol
             id="textext-9cc1bc47-6"
             overflow="visible"
             style="overflow:visible">
            <path
               id="path77995"
               d=""
               style="stroke:none"
               inkscape:connector-curvature="0" />
          </symbol>
          <symbol
             id="textext-9cc1bc47-7"
             overflow="visible"
             style="overflow:visible">
            <path
               id="path77998"
               d="m 6.5625,-2.296875 c 0.171875,0 0.359375,0 0.359375,-0.203125 0,-0.1875 -0.1875,-0.1875 -0.359375,-0.1875 l -5.390625,0 c -0.171875,0 -0.34375,0 -0.34375,0.1875 0,0.203125 0.171875,0.203125 0.34375,0.203125 z m 0,0"
               style="stroke:none"
               inkscape:connector-curvature="0" />
          </symbol>
          <symbol
             id="textext-9cc1bc47-8"
             overflow="visible"
             style="overflow:visible">
            <path
               id="path78001"
               d="m 3.875,8.515625 -1.75,-3.875 C 2.046875,4.484375 2,4.484375 1.96875,4.484375 c 0,0 -0.0625,0 -0.171875,0.078125 l -0.9375,0.71875 c -0.125,0.109375 -0.125,0.125 -0.125,0.15625 0,0.0625 0.015625,0.109375 0.09375,0.109375 0.0625,0 0.234375,-0.140625 0.34375,-0.21875 C 1.21875,5.28125 1.375,5.171875 1.484375,5.09375 l 1.96875,4.3125 C 3.515625,9.5625 3.5625,9.5625 3.65625,9.5625 c 0.15625,0 0.1875,-0.046875 0.25,-0.1875 L 8.4375,0 C 8.5,-0.140625 8.5,-0.171875 8.5,-0.203125 8.5,-0.296875 8.421875,-0.40625 8.296875,-0.40625 c -0.078125,0 -0.140625,0.0625 -0.21875,0.21875 z m 0,0"
               style="stroke:none"
               inkscape:connector-curvature="0" />
          </symbol>
          <symbol
             id="textext-9cc1bc47-9"
             overflow="visible"
             style="overflow:visible">
            <path
               id="path78004"
               d=""
               style="stroke:none"
               inkscape:connector-curvature="0" />
          </symbol>
          <symbol
             id="textext-9cc1bc47-10"
             overflow="visible"
             style="overflow:visible">
            <path
               id="path78007"
               d="M 3.890625,-3.734375 C 3.625,-3.71875 3.421875,-3.5 3.421875,-3.28125 c 0,0.140625 0.09375,0.296875 0.3125,0.296875 0.21875,0 0.453125,-0.171875 0.453125,-0.5625 C 4.1875,-4 3.765625,-4.40625 3,-4.40625 c -1.3125,0 -1.6875,1.015625 -1.6875,1.453125 0,0.78125 0.734375,0.921875 1.03125,0.984375 0.515625,0.109375 1.03125,0.21875 1.03125,0.765625 0,0.25 -0.21875,1.09375 -1.421875,1.09375 -0.140625,0 -0.90625,0 -1.140625,-0.53125 0.390625,0.046875 0.640625,-0.25 0.640625,-0.53125 0,-0.21875 -0.171875,-0.34375 -0.375,-0.34375 -0.265625,0 -0.5625,0.203125 -0.5625,0.65625 0,0.5625 0.578125,0.96875 1.421875,0.96875 1.625,0 2.015625,-1.203125 2.015625,-1.65625 0,-0.359375 -0.1875,-0.609375 -0.3125,-0.71875 -0.265625,-0.28125 -0.5625,-0.34375 -1,-0.421875 -0.359375,-0.078125 -0.75,-0.15625 -0.75,-0.609375 C 1.890625,-3.578125 2.125,-4.1875 3,-4.1875 c 0.25,0 0.75,0.078125 0.890625,0.453125 z m 0,0"
               style="stroke:none"
               inkscape:connector-curvature="0" />
          </symbol>
          <symbol
             id="textext-9cc1bc47-11"
             overflow="visible"
             style="overflow:visible">
            <path
               id="path78010"
               d="m 2.859375,-6.8125 c 0,0 0,-0.109375 -0.125,-0.109375 -0.234375,0 -0.953125,0.078125 -1.21875,0.109375 -0.078125,0 -0.1875,0.015625 -0.1875,0.1875 0,0.125 0.09375,0.125 0.234375,0.125 0.484375,0 0.5,0.0625 0.5,0.171875 L 2.03125,-6.125 0.59375,-0.390625 c -0.046875,0.140625 -0.046875,0.15625 -0.046875,0.21875 0,0.234375 0.203125,0.28125 0.296875,0.28125 0.125,0 0.265625,-0.09375 0.328125,-0.203125 0.046875,-0.09375 0.5,-1.9375 0.5625,-2.1875 0.34375,0.03125 1.15625,0.1875 1.15625,0.84375 0,0.078125 0,0.109375 -0.03125,0.21875 -0.015625,0.109375 -0.03125,0.234375 -0.03125,0.34375 0,0.578125 0.390625,0.984375 0.90625,0.984375 0.296875,0 0.578125,-0.15625 0.796875,-0.53125 0.25,-0.4375 0.359375,-0.984375 0.359375,-1 0,-0.109375 -0.09375,-0.109375 -0.125,-0.109375 -0.09375,0 -0.109375,0.046875 -0.140625,0.1875 -0.203125,0.71875 -0.421875,1.234375 -0.859375,1.234375 -0.203125,0 -0.328125,-0.109375 -0.328125,-0.46875 0,-0.171875 0.046875,-0.40625 0.078125,-0.5625 C 3.5625,-1.3125 3.5625,-1.34375 3.5625,-1.453125 3.5625,-2.09375 2.9375,-2.375 2.078125,-2.5 2.390625,-2.671875 2.71875,-2.984375 2.9375,-3.234375 3.421875,-3.765625 3.875,-4.1875 4.359375,-4.1875 c 0.0625,0 0.078125,0 0.09375,0.015625 0.125,0.015625 0.125,0.015625 0.21875,0.078125 0.015625,0 0.015625,0.015625 0.03125,0.03125 -0.46875,0.03125 -0.5625,0.421875 -0.5625,0.546875 0,0.15625 0.109375,0.34375 0.375,0.34375 0.265625,0 0.546875,-0.21875 0.546875,-0.609375 0,-0.296875 -0.234375,-0.625 -0.671875,-0.625 -0.28125,0 -0.734375,0.078125 -1.453125,0.875 -0.34375,0.375 -0.734375,0.78125 -1.109375,0.921875 z m 0,0"
               style="stroke:none"
               inkscape:connector-curvature="0" />
          </symbol>
          <symbol
             id="textext-9cc1bc47-12"
             overflow="visible"
             style="overflow:visible">
            <path
               id="path78013"
               d="M 3.734375,-6.03125 C 3.8125,-6.390625 3.84375,-6.5 4.78125,-6.5 c 0.296875,0 0.375,0 0.375,-0.1875 0,-0.125 -0.109375,-0.125 -0.15625,-0.125 -0.328125,0 -1.140625,0.03125 -1.46875,0.03125 -0.296875,0 -1.03125,-0.03125 -1.328125,-0.03125 -0.0625,0 -0.1875,0 -0.1875,0.203125 0,0.109375 0.09375,0.109375 0.28125,0.109375 0.015625,0 0.203125,0 0.375,0.015625 0.171875,0.03125 0.265625,0.03125 0.265625,0.171875 0,0.03125 0,0.0625 -0.03125,0.1875 L 1.5625,-0.78125 c -0.09375,0.390625 -0.109375,0.46875 -0.90625,0.46875 -0.171875,0 -0.265625,0 -0.265625,0.203125 C 0.390625,0 0.484375,0 0.65625,0 l 4.625,0 C 5.515625,0 5.515625,0 5.578125,-0.171875 L 6.375,-2.328125 c 0.03125,-0.109375 0.03125,-0.125 0.03125,-0.140625 0,-0.03125 -0.03125,-0.109375 -0.109375,-0.109375 -0.09375,0 -0.109375,0.0625 -0.171875,0.21875 -0.34375,0.90625 -0.78125,2.046875 -2.5,2.046875 l -0.9375,0 c -0.140625,0 -0.171875,0 -0.21875,0 -0.109375,-0.015625 -0.140625,-0.03125 -0.140625,-0.109375 0,-0.03125 0,-0.046875 0.046875,-0.21875 z m 0,0"
               style="stroke:none"
               inkscape:connector-curvature="0" />
          </symbol>
          <symbol
             id="textext-9cc1bc47-13"
             overflow="visible"
             style="overflow:visible">
            <path
               id="path78016"
               d="M 3.734375,-6.046875 C 3.8125,-6.40625 3.84375,-6.5 4.640625,-6.5 c 0.234375,0 0.3125,0 0.3125,-0.1875 0,-0.125 -0.109375,-0.125 -0.140625,-0.125 -0.296875,0 -1.03125,0.03125 -1.328125,0.03125 -0.296875,0 -1.015625,-0.03125 -1.328125,-0.03125 -0.0625,0 -0.1875,0 -0.1875,0.203125 C 1.96875,-6.5 2.046875,-6.5 2.25,-6.5 c 0.40625,0 0.6875,0 0.6875,0.1875 0,0.046875 0,0.078125 -0.03125,0.15625 l -1.34375,5.375 c -0.09375,0.375 -0.109375,0.46875 -0.90625,0.46875 -0.234375,0 -0.3125,0 -0.3125,0.203125 C 0.34375,0 0.453125,0 0.484375,0 0.78125,0 1.5,-0.03125 1.796875,-0.03125 2.09375,-0.03125 2.828125,0 3.125,0 c 0.078125,0 0.203125,0 0.203125,-0.1875 0,-0.125 -0.078125,-0.125 -0.296875,-0.125 -0.1875,0 -0.234375,0 -0.421875,-0.015625 -0.21875,-0.015625 -0.25,-0.0625 -0.25,-0.171875 0,-0.078125 0.015625,-0.15625 0.03125,-0.234375 z m 0,0"
               style="stroke:none"
               inkscape:connector-curvature="0" />
          </symbol>
          <symbol
             id="textext-9cc1bc47-14"
             overflow="visible"
             style="overflow:visible">
            <path
               id="path78019"
               d=""
               style="stroke:none"
               inkscape:connector-curvature="0" />
          </symbol>
          <symbol
             id="textext-9cc1bc47-15"
             overflow="visible"
             style="overflow:visible">
            <path
               id="path78022"
               d="m 2.9375,-2.65625 c -0.140625,-0.234375 -0.375,-0.421875 -0.71875,-0.421875 -0.890625,0 -1.796875,0.984375 -1.796875,1.984375 0,0.6875 0.453125,1.15625 1.0625,1.15625 0.375,0 0.703125,-0.203125 0.984375,-0.484375 C 2.59375,0 3,0.0625 3.1875,0.0625 c 0.25,0 0.421875,-0.140625 0.546875,-0.359375 0.15625,-0.28125 0.25,-0.671875 0.25,-0.703125 0,-0.09375 -0.09375,-0.09375 -0.109375,-0.09375 -0.109375,0 -0.109375,0.03125 -0.15625,0.21875 C 3.625,-0.53125 3.5,-0.125 3.203125,-0.125 3.03125,-0.125 2.96875,-0.28125 2.96875,-0.46875 c 0,-0.109375 0.0625,-0.375 0.109375,-0.546875 0.046875,-0.1875 0.125,-0.46875 0.15625,-0.625 L 3.375,-2.171875 C 3.421875,-2.359375 3.5,-2.6875 3.5,-2.71875 3.5,-2.875 3.375,-2.9375 3.265625,-2.9375 c -0.125,0 -0.28125,0.078125 -0.328125,0.28125 z M 2.5,-0.875 C 2.453125,-0.671875 2.296875,-0.53125 2.140625,-0.40625 2.078125,-0.34375 1.796875,-0.125 1.5,-0.125 c -0.265625,0 -0.515625,-0.1875 -0.515625,-0.671875 0,-0.375 0.203125,-1.140625 0.375,-1.421875 0.3125,-0.5625 0.671875,-0.65625 0.859375,-0.65625 0.484375,0 0.625,0.53125 0.625,0.609375 0,0.015625 -0.015625,0.078125 -0.015625,0.09375 z m 0,0"
               style="stroke:none"
               inkscape:connector-curvature="0" />
          </symbol>
          <symbol
             id="textext-9cc1bc47-16"
             overflow="visible"
             style="overflow:visible">
            <path
               id="path78025"
               d="m 1.84375,-4.625 c 0,-0.015625 0.03125,-0.109375 0.03125,-0.109375 0,-0.046875 -0.03125,-0.109375 -0.125,-0.109375 -0.140625,0 -0.71875,0.0625 -0.890625,0.078125 -0.046875,0 -0.15625,0.015625 -0.15625,0.15625 0,0.09375 0.109375,0.09375 0.1875,0.09375 0.328125,0 0.328125,0.0625 0.328125,0.109375 0,0.046875 -0.0625,0.328125 -0.109375,0.484375 l -0.15625,0.640625 c -0.0625,0.25 -0.4375,1.765625 -0.453125,1.859375 -0.046875,0.171875 -0.046875,0.265625 -0.046875,0.34375 0,0.703125 0.453125,1.140625 1.03125,1.140625 0.875,0 1.796875,-0.9375 1.796875,-1.96875 0,-0.8125 -0.5625,-1.171875 -1.046875,-1.171875 -0.359375,0 -0.671875,0.203125 -0.875,0.390625 z m -0.359375,4.5 c -0.328125,0 -0.53125,-0.296875 -0.53125,-0.71875 0,-0.25 0.0625,-0.484375 0.265625,-1.28125 C 1.25,-2.25 1.25,-2.265625 1.390625,-2.421875 1.65625,-2.71875 1.96875,-2.875 2.21875,-2.875 c 0.265625,0 0.5,0.203125 0.5,0.671875 0,0.28125 -0.140625,1 -0.359375,1.40625 C 2.1875,-0.453125 1.84375,-0.125 1.484375,-0.125 z m 0,0"
               style="stroke:none"
               inkscape:connector-curvature="0" />
          </symbol>
          <symbol
             id="textext-9cc1bc47-17"
             overflow="visible"
             style="overflow:visible">
            <path
               id="path78028"
               d="m 2.875,-4.1875 c 0.0625,-0.25 0.078125,-0.328125 0.71875,-0.328125 0.21875,0 0.28125,0 0.28125,-0.140625 0,-0.015625 0,-0.109375 -0.109375,-0.109375 -0.15625,0 -0.34375,0.015625 -0.515625,0.03125 -0.171875,0 -0.390625,0 -0.5625,0 -0.140625,0 -0.328125,0 -0.484375,0 -0.140625,0 -0.3125,-0.03125 -0.453125,-0.03125 -0.03125,0 -0.140625,0 -0.140625,0.15625 0,0.09375 0.078125,0.09375 0.21875,0.09375 0.015625,0 0.140625,0 0.265625,0.015625 0.15625,0.015625 0.171875,0.03125 0.171875,0.109375 0,0 0,0.046875 -0.03125,0.140625 l -0.9375,3.703125 C 1.234375,-0.3125 1.21875,-0.25 0.6875,-0.25 c -0.109375,0 -0.203125,0 -0.203125,0.140625 C 0.484375,0 0.5625,0 0.6875,0 l 3.5,0 c 0.1875,0 0.1875,0 0.25,-0.140625 0.0625,-0.1875 0.59375,-1.53125 0.59375,-1.59375 0,-0.015625 -0.015625,-0.09375 -0.125,-0.09375 -0.078125,0 -0.09375,0.03125 -0.140625,0.140625 C 4.5,-1.03125 4.1875,-0.25 2.921875,-0.25 l -0.796875,0 c -0.203125,0 -0.21875,-0.015625 -0.21875,-0.078125 0,0 0,-0.03125 0.03125,-0.140625 z m 0,0"
               style="stroke:none"
               inkscape:connector-curvature="0" />
          </symbol>
          <symbol
             id="textext-9cc1bc47-18"
             overflow="visible"
             style="overflow:visible">
            <path
               id="path78031"
               d="M 1.734375,-0.734375 C 1.671875,-0.5 1.4375,-0.125 1.078125,-0.125 c -0.015625,0 -0.234375,0 -0.375,-0.09375 0.28125,-0.09375 0.3125,-0.34375 0.3125,-0.390625 0,-0.15625 -0.125,-0.25 -0.28125,-0.25 -0.203125,0 -0.40625,0.15625 -0.40625,0.421875 0,0.34375 0.390625,0.5 0.734375,0.5 0.328125,0 0.609375,-0.1875 0.78125,-0.484375 C 2.015625,-0.0625 2.390625,0.0625 2.671875,0.0625 c 0.8125,0 1.234375,-0.859375 1.234375,-1.0625 0,-0.09375 -0.09375,-0.09375 -0.109375,-0.09375 -0.109375,0 -0.109375,0.046875 -0.140625,0.125 -0.140625,0.484375 -0.5625,0.84375 -0.953125,0.84375 -0.28125,0 -0.421875,-0.1875 -0.421875,-0.453125 0,-0.1875 0.171875,-0.8125 0.359375,-1.59375 C 2.78125,-2.703125 3.09375,-2.875 3.328125,-2.875 c 0.015625,0 0.21875,0 0.375,0.09375 -0.21875,0.0625 -0.3125,0.265625 -0.3125,0.390625 0,0.140625 0.125,0.25 0.28125,0.25 0.15625,0 0.390625,-0.125 0.390625,-0.421875 0,-0.390625 -0.453125,-0.515625 -0.71875,-0.515625 -0.359375,0 -0.640625,0.234375 -0.78125,0.5 -0.125,-0.28125 -0.453125,-0.5 -0.84375,-0.5 C 0.9375,-3.078125 0.5,-2.21875 0.5,-2 c 0,0.078125 0.09375,0.078125 0.109375,0.078125 0.09375,0 0.09375,-0.015625 0.140625,-0.109375 C 0.921875,-2.578125 1.359375,-2.875 1.703125,-2.875 1.9375,-2.875 2.125,-2.75 2.125,-2.421875 2.125,-2.28125 2.03125,-1.9375 1.96875,-1.6875 z m 0,0"
               style="stroke:none"
               inkscape:connector-curvature="0" />
          </symbol>
          <symbol
             id="textext-9cc1bc47-19"
             overflow="visible"
             style="overflow:visible">
            <path
               id="path78034"
               d="M 3.875,-2.625 C 3.90625,-2.71875 3.90625,-2.734375 3.90625,-2.78125 3.90625,-2.921875 3.796875,-3 3.671875,-3 3.59375,-3 3.46875,-2.96875 3.390625,-2.84375 3.359375,-2.796875 3.3125,-2.578125 3.28125,-2.4375 L 3.125,-1.859375 c -0.03125,0.171875 -0.25,1.046875 -0.28125,1.125 0,0 -0.3125,0.609375 -0.84375,0.609375 -0.484375,0 -0.484375,-0.453125 -0.484375,-0.578125 0,-0.375 0.15625,-0.8125 0.375,-1.359375 C 1.96875,-2.28125 2,-2.359375 2,-2.484375 2,-2.8125 1.71875,-3.078125 1.34375,-3.078125 0.640625,-3.078125 0.328125,-2.125 0.328125,-2 c 0,0.078125 0.09375,0.078125 0.125,0.078125 0.09375,0 0.09375,-0.03125 0.125,-0.109375 C 0.75,-2.609375 1.046875,-2.875 1.328125,-2.875 1.4375,-2.875 1.5,-2.796875 1.5,-2.640625 c 0,0.171875 -0.0625,0.3125 -0.09375,0.40625 C 1.0625,-1.375 1,-1.125 1,-0.8125 1,-0.703125 1,-0.375 1.265625,-0.140625 1.484375,0.03125 1.78125,0.0625 1.96875,0.0625 2.25,0.0625 2.5,-0.03125 2.71875,-0.25 2.640625,0.140625 2.5625,0.4375 2.265625,0.78125 2.078125,1 1.796875,1.21875 1.421875,1.21875 c -0.046875,0 -0.375,0 -0.515625,-0.21875 0.375,-0.046875 0.375,-0.375 0.375,-0.390625 0,-0.21875 -0.203125,-0.265625 -0.265625,-0.265625 -0.171875,0 -0.40625,0.140625 -0.40625,0.46875 0,0.34375 0.328125,0.609375 0.828125,0.609375 C 2.140625,1.421875 3,0.875 3.21875,0 z m 0,0"
               style="stroke:none"
               inkscape:connector-curvature="0" />
          </symbol>
        </g>
      </defs>
      <g
         id="textext-9cc1bc47-20">
        <g
           id="g78037"
           style="fill:#000000;fill-opacity:1">
          <use
             id="use78039"
             y="125.317"
             x="223.43201"
             xlink:href="#textext-9cc1bc47-1"
             width="744.09448"
             height="1052.3622" />
        </g>
        <g
           id="g78041"
           style="fill:#000000;fill-opacity:1">
          <use
             id="use78043"
             y="133.287"
             x="233.672"
             xlink:href="#textext-9cc1bc47-4"
             width="744.09448"
             height="1052.3622" />
        </g>
        <g
           id="g78045"
           style="fill:#000000;fill-opacity:1">
          <use
             id="use78047"
             y="145.242"
             x="233.672"
             xlink:href="#textext-9cc1bc47-4"
             width="744.09448"
             height="1052.3622" />
        </g>
        <g
           id="g78049"
           style="fill:#000000;fill-opacity:1">
          <use
             id="use78051"
             y="125.317"
             x="243.634"
             xlink:href="#textext-9cc1bc47-2"
             width="744.09448"
             height="1052.3622" />
        </g>
        <g
           id="g78053"
           style="fill:#000000;fill-opacity:1">
          <use
             id="use78055"
             y="139.364"
             x="251.66"
             xlink:href="#textext-9cc1bc47-5"
             width="744.09448"
             height="1052.3622" />
        </g>
        <g
           id="g78057"
           style="fill:#000000;fill-opacity:1">
          <use
             id="use78059"
             y="125.317"
             x="262.17599"
             xlink:href="#textext-9cc1bc47-1"
             width="744.09448"
             height="1052.3622" />
        </g>
        <g
           id="g78061"
           style="fill:#000000;fill-opacity:1">
          <use
             id="use78063"
             y="133.287"
             x="294.22601"
             xlink:href="#textext-9cc1bc47-4"
             width="744.09448"
             height="1052.3622" />
        </g>
        <g
           id="g78065"
           style="fill:#000000;fill-opacity:1">
          <use
             id="use78067"
             y="133.287"
             x="330.98001"
             xlink:href="#textext-9cc1bc47-7"
             width="744.09448"
             height="1052.3622" />
        </g>
        <g
           id="g78069"
           style="fill:#000000;fill-opacity:1">
          <use
             id="use78071"
             y="133.287"
             x="338.729"
             xlink:href="#textext-9cc1bc47-10"
             width="744.09448"
             height="1052.3622" />
          <use
             id="use78073"
             y="133.287"
             x="343.39948"
             xlink:href="#textext-9cc1bc47-11"
             width="744.09448"
             height="1052.3622" />
        </g>
        <g
           id="g78075"
           style="fill:#000000;fill-opacity:1">
          <use
             id="use78077"
             y="125.599"
             x="348.89899"
             xlink:href="#textext-9cc1bc47-8"
             width="744.09448"
             height="1052.3622" />
        </g>
        <path
           id="path78079"
           transform="matrix(1,0,0,-1,357.202,125.4)"
           d="m 0.001125,0.0015625 22.382813,0"
           style="fill:none;stroke:#000000;stroke-width:0.398;stroke-linecap:butt;stroke-linejoin:miter;stroke-miterlimit:10;stroke-opacity:1"
           inkscape:connector-curvature="0" />
        <g
           id="g78081"
           style="fill:#000000;fill-opacity:1">
          <use
             id="use78083"
             y="133.287"
             x="357.202"
             xlink:href="#textext-9cc1bc47-12"
             width="744.09448"
             height="1052.3622" />
        </g>
        <g
           id="g78085"
           style="fill:#000000;fill-opacity:1">
          <use
             id="use78087"
             y="134.78101"
             x="363.98199"
             xlink:href="#textext-9cc1bc47-15"
             width="744.09448"
             height="1052.3622" />
        </g>
        <g
           id="g78089"
           style="fill:#000000;fill-opacity:1">
          <use
             id="use78091"
             y="133.287"
             x="368.80099"
             xlink:href="#textext-9cc1bc47-12"
             width="744.09448"
             height="1052.3622" />
        </g>
        <g
           id="g78093"
           style="fill:#000000;fill-opacity:1">
          <use
             id="use78095"
             y="134.78101"
             x="375.58099"
             xlink:href="#textext-9cc1bc47-16"
             width="744.09448"
             height="1052.3622" />
        </g>
        <g
           id="g78097"
           style="fill:#000000;fill-opacity:1">
          <use
             id="use78099"
             y="145.358"
             x="272.41501"
             xlink:href="#textext-9cc1bc47-7"
             width="744.09448"
             height="1052.3622" />
        </g>
        <g
           id="g78101"
           style="fill:#000000;fill-opacity:1">
          <use
             id="use78103"
             y="145.358"
             x="280.164"
             xlink:href="#textext-9cc1bc47-10"
             width="744.09448"
             height="1052.3622" />
          <use
             id="use78105"
             y="145.358"
             x="284.83447"
             xlink:href="#textext-9cc1bc47-11"
             width="744.09448"
             height="1052.3622" />
        </g>
        <g
           id="g78107"
           style="fill:#000000;fill-opacity:1">
          <use
             id="use78109"
             y="137.67101"
             x="290.33401"
             xlink:href="#textext-9cc1bc47-8"
             width="744.09448"
             height="1052.3622" />
        </g>
        <path
           id="path78111"
           transform="matrix(1,0,0,-1,298.636,137.471)"
           d="m 7.1875e-4,-0.00165625 22.38281225,0"
           style="fill:none;stroke:#000000;stroke-width:0.398;stroke-linecap:butt;stroke-linejoin:miter;stroke-miterlimit:10;stroke-opacity:1"
           inkscape:connector-curvature="0" />
        <g
           id="g78113"
           style="fill:#000000;fill-opacity:1">
          <use
             id="use78115"
             y="145.358"
             x="298.63599"
             xlink:href="#textext-9cc1bc47-12"
             width="744.09448"
             height="1052.3622" />
        </g>
        <g
           id="g78117"
           style="fill:#000000;fill-opacity:1">
          <use
             id="use78119"
             y="146.853"
             x="305.41599"
             xlink:href="#textext-9cc1bc47-15"
             width="744.09448"
             height="1052.3622" />
        </g>
        <g
           id="g78121"
           style="fill:#000000;fill-opacity:1">
          <use
             id="use78123"
             y="145.358"
             x="310.23599"
             xlink:href="#textext-9cc1bc47-12"
             width="744.09448"
             height="1052.3622" />
        </g>
        <g
           id="g78125"
           style="fill:#000000;fill-opacity:1">
          <use
             id="use78127"
             y="146.853"
             x="317.01599"
             xlink:href="#textext-9cc1bc47-16"
             width="744.09448"
             height="1052.3622" />
        </g>
        <g
           id="g78129"
           style="fill:#000000;fill-opacity:1">
          <use
             id="use78131"
             y="145.358"
             x="352.79099"
             xlink:href="#textext-9cc1bc47-4"
             width="744.09448"
             height="1052.3622" />
        </g>
        <g
           id="g78133"
           style="fill:#000000;fill-opacity:1">
          <use
             id="use78135"
             y="125.317"
             x="384.564"
             xlink:href="#textext-9cc1bc47-2"
             width="744.09448"
             height="1052.3622" />
        </g>
        <g
           id="g78137"
           style="fill:#000000;fill-opacity:1">
          <use
             id="use78139"
             y="125.317"
             x="391.48602"
             xlink:href="#textext-9cc1bc47-1"
             width="744.09448"
             height="1052.3622" />
        </g>
        <g
           id="g78141"
           style="fill:#000000;fill-opacity:1">
          <use
             id="use78143"
             y="133.287"
             x="401.72198"
             xlink:href="#textext-9cc1bc47-13"
             width="744.09448"
             height="1052.3622" />
        </g>
        <g
           id="g78145"
           style="fill:#000000;fill-opacity:1">
          <use
             id="use78147"
             y="134.78101"
             x="406.10199"
             xlink:href="#textext-9cc1bc47-17"
             width="744.09448"
             height="1052.3622" />
          <use
             id="use78149"
             y="134.78101"
             x="411.56735"
             xlink:href="#textext-9cc1bc47-18"
             width="744.09448"
             height="1052.3622" />
        </g>
        <g
           id="g78151"
           style="fill:#000000;fill-opacity:1">
          <use
             id="use78153"
             y="145.242"
             x="401.836"
             xlink:href="#textext-9cc1bc47-13"
             width="744.09448"
             height="1052.3622" />
        </g>
        <g
           id="g78155"
           style="fill:#000000;fill-opacity:1">
          <use
             id="use78157"
             y="146.737"
             x="406.215"
             xlink:href="#textext-9cc1bc47-17"
             width="744.09448"
             height="1052.3622" />
          <use
             id="use78159"
             y="146.737"
             x="411.68036"
             xlink:href="#textext-9cc1bc47-19"
             width="744.09448"
             height="1052.3622" />
        </g>
        <g
           id="g78161"
           style="fill:#000000;fill-opacity:1">
          <use
             id="use78163"
             y="125.317"
             x="421.565"
             xlink:href="#textext-9cc1bc47-2"
             width="744.09448"
             height="1052.3622" />
        </g>
      </g>
    </g>
    <text
       xml:space="preserve"
       style="font-size:8px;font-style:normal;font-weight:normal;line-height:125%;letter-spacing:0px;word-spacing:0px;fill:#000000;fill-opacity:1;stroke:none;font-family:Sans"
       x="130"
       y="172.36218"
       id="text78362"
       sodipodi:linespacing="125%"><tspan
         sodipodi:role="line"
         id="tspan78364"
         x="130"
         y="172.36218">row and column positions are those of </tspan><tspan
         sodipodi:role="line"
         x="130"
         y="182.36218"
         id="tspan78366">dependent currents through the inductors</tspan></text>
  </g>
</svg>
