<?xml version="1.0" encoding="UTF-8" standalone="no"?>
<!-- Created with Inkscape (http://www.inkscape.org/) -->

<svg
   xmlns:ns0="http://www.iki.fi/pav/software/textext/"
   xmlns:dc="http://purl.org/dc/elements/1.1/"
   xmlns:cc="http://creativecommons.org/ns#"
   xmlns:rdf="http://www.w3.org/1999/02/22-rdf-syntax-ns#"
   xmlns:svg="http://www.w3.org/2000/svg"
   xmlns="http://www.w3.org/2000/svg"
   xmlns:xlink="http://www.w3.org/1999/xlink"
   xmlns:sodipodi="http://sodipodi.sourceforge.net/DTD/sodipodi-0.dtd"
   xmlns:inkscape="http://www.inkscape.org/namespaces/inkscape"
   width="425"
   height="135"
   id="svg14078"
   version="1.1"
   inkscape:version="0.48.4 r9939"
   sodipodi:docname="stampZ.pdf">
  <sodipodi:namedview
     id="base"
     pagecolor="#ffffff"
     bordercolor="#666666"
     borderopacity="1.0"
     inkscape:pageopacity="0.0"
     inkscape:pageshadow="2"
     inkscape:zoom="3.959798"
     inkscape:cx="173.8012"
     inkscape:cy="31.382476"
     inkscape:document-units="px"
     inkscape:current-layer="layer1"
     showgrid="true"
     inkscape:object-paths="true"
     inkscape:object-nodes="true"
     inkscape:window-width="1665"
     inkscape:window-height="1028"
     inkscape:window-x="66"
     inkscape:window-y="0"
     inkscape:window-maximized="0"
     fit-margin-top="0"
     fit-margin-left="0"
     fit-margin-right="0"
     fit-margin-bottom="0">
    <inkscape:grid
       type="xygrid"
       id="grid14086"
       empspacing="5"
       visible="true"
       enabled="true"
       snapvisiblegridlinesonly="true"
       originx="20px"
       originy="-870px" />
  </sodipodi:namedview>
  <defs
     id="defs14080">
    <marker
       inkscape:stockid="Arrow2Mend"
       orient="auto"
       refY="0"
       refX="0"
       id="Arrow2Mend-00"
       style="overflow:visible">
      <path
         inkscape:connector-curvature="0"
         id="path5872-4"
         style="font-size:12px;fill-rule:evenodd;stroke-width:0.625;stroke-linejoin:round"
         d="M 8.7185878,4.0337352 -2.2072895,0.01601326 8.7185884,-4.0017078 c -1.7454984,2.3720609 -1.7354408,5.6174519 -6e-7,8.035443 z"
         transform="scale(-0.6,-0.6)" />
    </marker>
    <marker
       style="overflow:visible"
       id="Arrow2Mend-00-6"
       refX="0"
       refY="0"
       orient="auto"
       inkscape:stockid="Arrow2Mend">
      <path
         transform="scale(-0.6,-0.6)"
         d="M 8.7185878,4.0337352 -2.2072895,0.01601326 8.7185884,-4.0017078 c -1.7454984,2.3720609 -1.7354408,5.6174519 -6e-7,8.035443 z"
         style="font-size:12px;fill-rule:evenodd;stroke-width:0.625;stroke-linejoin:round"
         id="path5872-4-75"
         inkscape:connector-curvature="0" />
    </marker>
  </defs>
  <metadata
     id="metadata14083">
    <rdf:RDF>
      <cc:Work
         rdf:about="">
        <dc:format>image/svg+xml</dc:format>
        <dc:type
           rdf:resource="http://purl.org/dc/dcmitype/StillImage" />
        <dc:title></dc:title>
      </cc:Work>
    </rdf:RDF>
  </metadata>
  <g
     inkscape:label="Layer 1"
     inkscape:groupmode="layer"
     id="layer1"
     transform="translate(20,-47.362183)">
    <g
       id="g60446"
       transform="translate(-44.999997,-108.00002)">
      <path
         sodipodi:type="arc"
         style="fill:#000000;fill-opacity:1;stroke:#000000;stroke-opacity:1"
         id="path6451-2-6"
         sodipodi:cx="306"
         sodipodi:cy="28.362183"
         sodipodi:rx="1"
         sodipodi:ry="1"
         d="m 307,28.362183 c 0,0.552284 -0.44772,1 -1,1 -0.55228,0 -1,-0.447716 -1,-1 0,-0.552285 0.44772,-1 1,-1 0.55228,0 1,0.447715 1,1 z"
         transform="matrix(2,0,0,1.9999986,-482,153.63787)" />
      <path
         sodipodi:type="arc"
         style="fill:#000000;fill-opacity:1;stroke:#000000;stroke-opacity:1"
         id="path6451-2-0"
         sodipodi:cx="306"
         sodipodi:cy="28.362183"
         sodipodi:rx="1"
         sodipodi:ry="1"
         d="m 307,28.362183 c 0,0.552284 -0.44772,1 -1,1 -0.55228,0 -1,-0.447716 -1,-1 0,-0.552285 0.44772,-1 1,-1 0.55228,0 1,0.447715 1,1 z"
         transform="matrix(2,0,0,1.9999986,-482,213.63788)" />
      <text
         sodipodi:linespacing="100%"
         id="text60130-9-2"
         y="275.36221"
         x="115"
         style="font-size:8px;font-style:normal;font-variant:normal;font-weight:normal;font-stretch:normal;text-align:start;line-height:100%;writing-mode:lr-tb;text-anchor:start;fill:#000000;fill-opacity:1;stroke:none;font-family:Arial;-inkscape-font-specification:Arial"
         xml:space="preserve"><tspan
           y="275.36221"
           x="115"
           id="tspan60132-3-1"
           sodipodi:role="line">(2)</tspan></text>
      <text
         sodipodi:linespacing="100%"
         id="text60130-0"
         y="210.3622"
         x="115"
         style="font-size:8px;font-style:normal;font-variant:normal;font-weight:normal;font-stretch:normal;text-align:start;line-height:100%;writing-mode:lr-tb;text-anchor:start;fill:#000000;fill-opacity:1;stroke:none;font-family:Arial;-inkscape-font-specification:Arial"
         xml:space="preserve"><tspan
           y="210.3622"
           x="115"
           id="tspan60132-5"
           sodipodi:role="line">(1)</tspan></text>
      <g
         id="g6192"
         transform="translate(-255,198)">
        <rect
           style="fill:none;stroke:#000000;stroke-width:1;stroke-linecap:round;stroke-miterlimit:4;stroke-opacity:1;stroke-dasharray:none"
           id="rect6682"
           y="22.362188"
           x="380"
           height="20"
           width="10" />
        <path
           style="fill:none;stroke:#000000;stroke-width:0.99921262;stroke-linecap:round;stroke-linejoin:miter;stroke-miterlimit:4;stroke-opacity:1;stroke-dasharray:none"
           id="path6684"
           d="m 385,12.3621 0,10.0001"
           inkscape:connector-curvature="0" />
        <path
           style="fill:none;stroke:#000000;stroke-width:0.99921262;stroke-linecap:round;stroke-linejoin:miter;stroke-miterlimit:4;stroke-opacity:1;stroke-dasharray:none"
           id="path6684-3"
           d="m 385,42.3622 0,10"
           inkscape:connector-curvature="0" />
      </g>
    </g>
    <text
       xml:space="preserve"
       style="font-size:8px;font-style:normal;font-variant:normal;font-weight:bold;font-stretch:normal;text-align:start;line-height:100%;writing-mode:lr-tb;text-anchor:start;fill:#000000;fill-opacity:1;stroke:none;font-family:Courier New;-inkscape-font-specification:Courier New Bold"
       x="50"
       y="82.362183"
       id="text60370-1"
       sodipodi:linespacing="100%"><tspan
         sodipodi:role="line"
         id="tspan60372-0"
         x="50"
         y="82.362183">Zx 1 2 Z z={Nz_s/Dz_s}</tspan></text>
    <text
       sodipodi:linespacing="125%"
       id="text13474-1"
       y="67.362183"
       x="50"
       style="font-size:10px;font-style:normal;font-variant:normal;font-weight:normal;font-stretch:normal;text-align:start;line-height:125%;letter-spacing:0px;word-spacing:0px;writing-mode:lr-tb;text-anchor:start;fill:#000000;fill-opacity:1;stroke:none;font-family:Sans;-inkscape-font-specification:Sans"
       xml:space="preserve"><tspan
         y="67.362183"
         x="50"
         id="tspan13476-2"
         sodipodi:role="line">Impedance</tspan></text>
    <path
       inkscape:connector-curvature="0"
       id="path26135-46"
       d="m 85,132.36218 0,20"
       style="fill:none;stroke:#000000;stroke-width:1px;stroke-linecap:butt;stroke-linejoin:miter;stroke-opacity:1;marker-end:url(#Arrow2Mend-00-6)" />
    <rect
       width="425"
       height="135"
       x="-20"
       y="47.362183"
       id="rect6470-9-4-1"
       style="fill:#0064ff;fill-opacity:0.0745098;stroke:none" />
    <g
       ns0:text="$V$"
       ns0:preamble=""
       transform="translate(-124.78571,29.39343)"
       id="g20531">
      <defs
         id="defs20533">
        <g
           id="g20535">
          <symbol
             style="overflow:visible"
             overflow="visible"
             id="textext-39728949-0">
            <path
               inkscape:connector-curvature="0"
               style="stroke:none"
               d=""
               id="path20538" />
          </symbol>
          <symbol
             style="overflow:visible"
             overflow="visible"
             id="textext-39728949-1">
            <path
               inkscape:connector-curvature="0"
               style="stroke:none"
               d="M 6.265625,-5.671875 C 6.75,-6.453125 7.171875,-6.484375 7.53125,-6.5 c 0.125,-0.015625 0.140625,-0.171875 0.140625,-0.1875 0,-0.078125 -0.0625,-0.125 -0.140625,-0.125 -0.25,0 -0.546875,0.03125 -0.8125,0.03125 -0.328125,0 -0.671875,-0.03125 -0.984375,-0.03125 -0.0625,0 -0.1875,0 -0.1875,0.1875 0,0.109375 0.078125,0.125 0.15625,0.125 0.265625,0.015625 0.453125,0.125 0.453125,0.328125 0,0.15625 -0.140625,0.375 -0.140625,0.375 l -3.0625,4.875 -0.6875,-5.28125 C 2.265625,-6.375 2.5,-6.5 2.953125,-6.5 c 0.140625,0 0.25,0 0.25,-0.203125 0,-0.078125 -0.078125,-0.109375 -0.125,-0.109375 -0.40625,0 -0.828125,0.03125 -1.25,0.03125 -0.171875,0 -0.359375,0 -0.546875,0 -0.171875,0 -0.359375,-0.03125 -0.53125,-0.03125 -0.078125,0 -0.1875,0 -0.1875,0.1875 0,0.125 0.078125,0.125 0.25,0.125 0.546875,0 0.5625,0.09375 0.59375,0.34375 L 2.1875,-0.015625 C 2.21875,0.1875 2.265625,0.21875 2.390625,0.21875 c 0.15625,0 0.203125,-0.046875 0.28125,-0.171875 z m 0,0"
               id="path20541" />
          </symbol>
        </g>
      </defs>
      <g
         ns0:text="$\\frac{Nz_{s}}{Dz_{s}}$"
         ns0:preamble=""
         transform="translate(-4.542415,-39.304685)"
         id="g23983">
        <defs
           id="defs23985">
          <g
             id="g23987">
            <symbol
               style="overflow:visible"
               overflow="visible"
               id="textext-12b33ca6-0">
              <path
                 inkscape:connector-curvature="0"
                 style="stroke:none"
                 d=""
                 id="path23990" />
            </symbol>
            <symbol
               style="overflow:visible"
               overflow="visible"
               id="textext-12b33ca6-1">
              <path
                 inkscape:connector-curvature="0"
                 style="stroke:none"
                 d="M 5.8125,-4 C 5.875,-4.265625 6,-4.5 6.546875,-4.515625 c 0.03125,0 0.140625,0 0.140625,-0.140625 0,-0.046875 -0.03125,-0.109375 -0.109375,-0.109375 -0.21875,0 -0.484375,0.03125 -0.71875,0.03125 -0.171875,0 -0.5625,-0.03125 -0.734375,-0.03125 -0.03125,0 -0.140625,0 -0.140625,0.15625 0,0.09375 0.09375,0.09375 0.15625,0.09375 0.328125,0.015625 0.4375,0.125 0.4375,0.296875 0,0.046875 0,0.09375 -0.03125,0.15625 l -0.75,3.046875 -1.765625,-3.625 c -0.0625,-0.125 -0.078125,-0.125 -0.25,-0.125 l -0.953125,0 c -0.125,0 -0.21875,0 -0.21875,0.15625 0,0.09375 0.078125,0.09375 0.234375,0.09375 0.140625,0 0.296875,0.015625 0.4375,0.046875 L 1.359375,-0.75 c -0.0625,0.265625 -0.1875,0.484375 -0.734375,0.5 -0.046875,0 -0.140625,0 -0.140625,0.140625 C 0.484375,-0.03125 0.53125,0 0.578125,0 0.8125,0 1.078125,-0.03125 1.3125,-0.03125 1.484375,-0.03125 1.875,0 2.046875,0 2.125,0 2.1875,-0.03125 2.1875,-0.140625 2.1875,-0.25 2.109375,-0.25 2.03125,-0.25 c -0.4375,-0.015625 -0.4375,-0.203125 -0.4375,-0.296875 0,-0.03125 0,-0.0625 0.015625,-0.171875 l 0.90625,-3.5625 2.03125,4.15625 C 4.59375,0 4.625,0 4.703125,0 4.8125,0 4.8125,-0.015625 4.84375,-0.140625 z m 0,0"
                 id="path23993" />
            </symbol>
            <symbol
               style="overflow:visible"
               overflow="visible"
               id="textext-12b33ca6-2">
              <path
                 inkscape:connector-curvature="0"
                 style="stroke:none"
                 d="m 1.171875,-0.609375 c 0.1875,-0.1875 0.3125,-0.3125 0.890625,-0.796875 0.15625,-0.109375 0.671875,-0.53125 0.875,-0.71875 0.421875,-0.421875 0.6875,-0.78125 0.6875,-0.859375 0,-0.09375 -0.078125,-0.09375 -0.109375,-0.09375 -0.0625,0 -0.09375,0.015625 -0.125,0.078125 -0.21875,0.3125 -0.359375,0.421875 -0.53125,0.421875 -0.078125,0 -0.1875,0 -0.390625,-0.203125 -0.234375,-0.25 -0.390625,-0.296875 -0.546875,-0.296875 -0.5625,0 -0.9375,0.609375 -0.9375,0.8125 0,0.078125 0.0625,0.09375 0.109375,0.09375 0.09375,0 0.109375,-0.015625 0.125,-0.09375 0.109375,-0.25 0.5,-0.265625 0.609375,-0.265625 0.171875,0 0.34375,0.046875 0.4375,0.0625 0.390625,0.078125 0.4375,0.078125 0.609375,0.078125 -0.171875,0.203125 -0.296875,0.328125 -0.96875,0.84375 -0.546875,0.4375 -0.734375,0.609375 -0.859375,0.75 -0.421875,0.40625 -0.625,0.71875 -0.625,0.78125 0,0.078125 0.09375,0.078125 0.125,0.078125 0.0625,0 0.078125,0 0.109375,-0.0625 0.1875,-0.265625 0.40625,-0.421875 0.640625,-0.421875 0.09375,0 0.1875,0 0.375,0.171875 0.21875,0.21875 0.359375,0.3125 0.59375,0.3125 C 3,0.0625 3.46875,-0.78125 3.46875,-1.015625 3.46875,-1.09375 3.390625,-1.09375 3.359375,-1.09375 3.265625,-1.09375 3.25,-1.0625 3.21875,-0.984375 3.09375,-0.640625 2.6875,-0.46875 2.34375,-0.46875 2.1875,-0.46875 2,-0.515625 1.828125,-0.546875 1.515625,-0.625 1.453125,-0.625 1.328125,-0.625 c -0.015625,0 -0.109375,0 -0.15625,0.015625 z m 0,0"
                 id="path23996" />
            </symbol>
            <symbol
               style="overflow:visible"
               overflow="visible"
               id="textext-12b33ca6-3">
              <path
                 inkscape:connector-curvature="0"
                 style="stroke:none"
                 d="M 1.3125,-0.546875 C 1.265625,-0.3125 1.25,-0.25 0.703125,-0.25 0.578125,-0.25 0.5,-0.25 0.5,-0.09375 0.5,0 0.578125,0 0.703125,0 L 3.1875,0 c 1.546875,0 3.03125,-1.421875 3.03125,-2.9375 0,-1.015625 -0.703125,-1.828125 -1.828125,-1.828125 l -2.546875,0 c -0.140625,0 -0.21875,0 -0.21875,0.15625 0,0.09375 0.078125,0.09375 0.234375,0.09375 0.109375,0 0.140625,0 0.265625,0.015625 0.140625,0.015625 0.140625,0.03125 0.140625,0.109375 0,0 0,0.046875 -0.015625,0.140625 z m 1.5625,-3.71875 c 0.0625,-0.21875 0.0625,-0.25 0.359375,-0.25 l 0.890625,0 c 0.78125,0 1.4375,0.390625 1.4375,1.34375 0,0.15625 -0.078125,1.359375 -0.765625,2.15625 C 4.515625,-0.703125 3.921875,-0.25 3.0625,-0.25 l -0.9375,0 c -0.21875,0 -0.234375,-0.015625 -0.234375,-0.078125 0,0 0,-0.03125 0.03125,-0.140625 z m 0,0"
                 id="path23999" />
            </symbol>
            <symbol
               style="overflow:visible"
               overflow="visible"
               id="textext-12b33ca6-4">
              <path
                 inkscape:connector-curvature="0"
                 style="stroke:none"
                 d=""
                 id="path24002" />
            </symbol>
            <symbol
               style="overflow:visible"
               overflow="visible"
               id="textext-12b33ca6-5">
              <path
                 inkscape:connector-curvature="0"
                 style="stroke:none"
                 d="m 2.53125,-1.890625 c -0.171875,0.0625 -0.203125,0.203125 -0.203125,0.25 0,0.125 0.109375,0.1875 0.1875,0.1875 0.0625,0 0.265625,-0.046875 0.265625,-0.3125 0,-0.328125 -0.390625,-0.4375 -0.765625,-0.4375 -0.84375,0 -1,0.515625 -1,0.6875 0,0.1875 0.09375,0.296875 0.1875,0.359375 0.140625,0.09375 0.296875,0.125 0.5625,0.171875 0.3125,0.046875 0.65625,0.09375 0.65625,0.34375 0,0.015625 0,0.53125 -0.921875,0.53125 -0.1875,0 -0.5,-0.015625 -0.65625,-0.171875 0.1875,-0.046875 0.265625,-0.1875 0.265625,-0.3125 0,-0.140625 -0.109375,-0.203125 -0.21875,-0.203125 -0.171875,0 -0.3125,0.140625 -0.3125,0.359375 0,0.5 0.765625,0.5 0.921875,0.5 1.015625,0 1.1875,-0.59375 1.1875,-0.796875 C 2.6875,-1.1875 2.140625,-1.265625 1.890625,-1.3125 1.53125,-1.375 1.28125,-1.40625 1.28125,-1.609375 c 0,-0.015625 0,-0.421875 0.71875,-0.421875 0.140625,0 0.390625,0 0.53125,0.140625 z m 0,0"
                 id="path24005" />
            </symbol>
          </g>
        </defs>
        <g
           id="textext-12b33ca6-6">
          <g
             style="fill:#000000;fill-opacity:1"
             id="g24008">
            <use
               height="1052.3622"
               width="744.09448"
               xlink:href="#textext-12b33ca6-1"
               x="224.62801"
               y="130.67999"
               id="use24010" />
          </g>
          <g
             style="fill:#000000;fill-opacity:1"
             id="g24012">
            <use
               height="1052.3622"
               width="744.09448"
               xlink:href="#textext-12b33ca6-2"
               x="231.68478"
               y="130.67999"
               id="use24014" />
          </g>
          <g
             style="fill:#000000;fill-opacity:1"
             id="g24016">
            <use
               height="1052.3622"
               width="744.09448"
               xlink:href="#textext-12b33ca6-5"
               x="235.492"
               y="131.67599"
               id="use24018" />
          </g>
          <path
             inkscape:connector-curvature="0"
             style="fill:none;stroke:#000000;stroke-width:0.398;stroke-linecap:butt;stroke-linejoin:miter;stroke-miterlimit:10;stroke-opacity:1"
             d="m 9.0625e-4,5.625e-4 14.69921875,0"
             transform="matrix(1,0,0,-1,224.628,132.274)"
             id="path24020" />
          <g
             style="fill:#000000;fill-opacity:1"
             id="g24022">
            <use
               height="1052.3622"
               width="744.09448"
               xlink:href="#textext-12b33ca6-3"
               x="224.79201"
               y="138.2"
               id="use24024" />
          </g>
          <g
             style="fill:#000000;fill-opacity:1"
             id="g24026">
            <use
               height="1052.3622"
               width="744.09448"
               xlink:href="#textext-12b33ca6-2"
               x="231.52242"
               y="138.2"
               id="use24028" />
          </g>
          <g
             style="fill:#000000;fill-opacity:1"
             id="g24030">
            <use
               height="1052.3622"
               width="744.09448"
               xlink:href="#textext-12b33ca6-5"
               x="235.327"
               y="139.19701"
               id="use24032" />
          </g>
        </g>
      </g>
    </g>
    <g
       ns0:text="$\\left[\n\\begin{array}\n[c]{c}%\n0\\\\\n0\\\\\n0\n\\end{array}\n\\right]  =\\left[\n\\begin{array}\n[c]{ccc}%\n0 &amp; 0 &amp; 1\\\\\n0 &amp; 0 &amp; -1\\\\\nDz_{s} &amp; -Dz_{s} &amp; -Nz_{s}\n\\end{array}\n\\right]  \\left[\n\\begin{array}\n[c]{c}%\nV_{1}\\\\\nV_{2}\\\\\nI_{Zx}%\n\\end{array}\n\\right]  $"
       ns0:preamble=""
       transform="translate(-97.0112,-7.6529249)"
       id="g3960">
      <defs
         id="defs3962">
        <g
           id="g3964">
          <symbol
             overflow="visible"
             id="textext-df284df8-0"
             style="overflow:visible">
            <path
               style="stroke:none"
               d=""
               id="path3967"
               inkscape:connector-curvature="0" />
          </symbol>
          <symbol
             overflow="visible"
             id="textext-df284df8-1"
             style="overflow:visible">
            <path
               style="stroke:none"
               d="m 3.25,17.546875 0.6875,0 0,-17.25 2.625,0 0,-0.6875 -3.3125,0 z m 0,0"
               id="path3970"
               inkscape:connector-curvature="0" />
          </symbol>
          <symbol
             overflow="visible"
             id="textext-df284df8-2"
             style="overflow:visible">
            <path
               style="stroke:none"
               d="m 3.25,17.53125 3.3125,0 0,-0.6875 -2.625,0 0,-17.25 -0.6875,0 z m 0,0"
               id="path3973"
               inkscape:connector-curvature="0" />
          </symbol>
          <symbol
             overflow="visible"
             id="textext-df284df8-3"
             style="overflow:visible">
            <path
               style="stroke:none"
               d="m 2.703125,17.546875 0.6875,0 0,-17.9375 -3.328125,0 0,0.6875 2.640625,0 z m 0,0"
               id="path3976"
               inkscape:connector-curvature="0" />
          </symbol>
          <symbol
             overflow="visible"
             id="textext-df284df8-4"
             style="overflow:visible">
            <path
               style="stroke:none"
               d="m 2.703125,16.84375 -2.640625,0 0,0.6875 3.328125,0 0,-17.9375 -0.6875,0 z m 0,0"
               id="path3979"
               inkscape:connector-curvature="0" />
          </symbol>
          <symbol
             overflow="visible"
             id="textext-df284df8-5"
             style="overflow:visible">
            <path
               style="stroke:none"
               d=""
               id="path3982"
               inkscape:connector-curvature="0" />
          </symbol>
          <symbol
             overflow="visible"
             id="textext-df284df8-6"
             style="overflow:visible">
            <path
               style="stroke:none"
               d="m 4.578125,-3.1875 c 0,-0.796875 -0.046875,-1.59375 -0.390625,-2.328125 -0.453125,-0.96875 -1.28125,-1.125 -1.6875,-1.125 -0.609375,0 -1.328125,0.265625 -1.75,1.1875 -0.3125,0.6875 -0.359375,1.46875 -0.359375,2.265625 0,0.75 0.03125,1.640625 0.453125,2.40625 0.421875,0.796875 1.15625,1 1.640625,1 0.53125,0 1.296875,-0.203125 1.734375,-1.15625 0.3125,-0.6875 0.359375,-1.46875 0.359375,-2.25 z M 2.484375,0 C 2.09375,0 1.5,-0.25 1.328125,-1.203125 1.21875,-1.796875 1.21875,-2.71875 1.21875,-3.3125 c 0,-0.640625 0,-1.296875 0.078125,-1.828125 0.1875,-1.1875 0.9375,-1.28125 1.1875,-1.28125 0.328125,0 0.984375,0.1875 1.171875,1.171875 0.109375,0.5625 0.109375,1.3125 0.109375,1.9375 0,0.75 0,1.421875 -0.109375,2.0625 C 3.5,-0.296875 2.9375,0 2.484375,0 z m 0,0"
               id="path3985"
               inkscape:connector-curvature="0" />
          </symbol>
          <symbol
             overflow="visible"
             id="textext-df284df8-7"
             style="overflow:visible">
            <path
               style="stroke:none"
               d="m 6.84375,-3.265625 c 0.15625,0 0.34375,0 0.34375,-0.1875 C 7.1875,-3.65625 7,-3.65625 6.859375,-3.65625 l -5.96875,0 c -0.140625,0 -0.328125,0 -0.328125,0.203125 0,0.1875 0.1875,0.1875 0.328125,0.1875 z m 0.015625,1.9375 c 0.140625,0 0.328125,0 0.328125,-0.203125 0,-0.1875 -0.1875,-0.1875 -0.34375,-0.1875 l -5.953125,0 c -0.140625,0 -0.328125,0 -0.328125,0.1875 0,0.203125 0.1875,0.203125 0.328125,0.203125 z m 0,0"
               id="path3988"
               inkscape:connector-curvature="0" />
          </symbol>
          <symbol
             overflow="visible"
             id="textext-df284df8-8"
             style="overflow:visible">
            <path
               style="stroke:none"
               d="m 2.9375,-6.375 c 0,-0.25 0,-0.265625 -0.234375,-0.265625 C 2.078125,-6 1.203125,-6 0.890625,-6 l 0,0.3125 c 0.203125,0 0.78125,0 1.296875,-0.265625 l 0,5.171875 c 0,0.359375 -0.03125,0.46875 -0.921875,0.46875 l -0.3125,0 0,0.3125 c 0.34375,-0.03125 1.203125,-0.03125 1.609375,-0.03125 0.390625,0 1.265625,0 1.609375,0.03125 l 0,-0.3125 -0.3125,0 c -0.90625,0 -0.921875,-0.109375 -0.921875,-0.46875 z m 0,0"
               id="path3991"
               inkscape:connector-curvature="0" />
          </symbol>
          <symbol
             overflow="visible"
             id="textext-df284df8-9"
             style="overflow:visible">
            <path
               style="stroke:none"
               d=""
               id="path3994"
               inkscape:connector-curvature="0" />
          </symbol>
          <symbol
             overflow="visible"
             id="textext-df284df8-10"
             style="overflow:visible">
            <path
               style="stroke:none"
               d="m 6.5625,-2.296875 c 0.171875,0 0.359375,0 0.359375,-0.203125 0,-0.1875 -0.1875,-0.1875 -0.359375,-0.1875 l -5.390625,0 c -0.171875,0 -0.34375,0 -0.34375,0.1875 0,0.203125 0.171875,0.203125 0.34375,0.203125 z m 0,0"
               id="path3997"
               inkscape:connector-curvature="0" />
          </symbol>
          <symbol
             overflow="visible"
             id="textext-df284df8-11"
             style="overflow:visible">
            <path
               style="stroke:none"
               d=""
               id="path4000"
               inkscape:connector-curvature="0" />
          </symbol>
          <symbol
             overflow="visible"
             id="textext-df284df8-12"
             style="overflow:visible">
            <path
               style="stroke:none"
               d="m 1.578125,-0.78125 c -0.09375,0.390625 -0.109375,0.46875 -0.90625,0.46875 -0.15625,0 -0.265625,0 -0.265625,0.1875 C 0.40625,0 0.484375,0 0.671875,0 l 3.3125,0 c 2.0625,0 4.03125,-2.109375 4.03125,-4.28125 0,-1.40625 -0.84375,-2.53125 -2.34375,-2.53125 l -3.34375,0 c -0.1875,0 -0.296875,0 -0.296875,0.1875 0,0.125 0.078125,0.125 0.28125,0.125 0.125,0 0.3125,0.015625 0.421875,0.015625 0.171875,0.03125 0.21875,0.046875 0.21875,0.171875 0,0.03125 0,0.0625 -0.03125,0.1875 z M 3.734375,-6.125 C 3.828125,-6.46875 3.84375,-6.5 4.28125,-6.5 l 1.0625,0 c 0.96875,0 1.796875,0.53125 1.796875,1.84375 0,0.484375 -0.1875,2.125 -1.046875,3.21875 -0.28125,0.375 -1.0625,1.125 -2.296875,1.125 l -1.125,0 c -0.140625,0 -0.15625,0 -0.21875,0 -0.09375,-0.015625 -0.125,-0.03125 -0.125,-0.109375 0,-0.03125 0,-0.046875 0.046875,-0.21875 z m 0,0"
               id="path4003"
               inkscape:connector-curvature="0" />
          </symbol>
          <symbol
             overflow="visible"
             id="textext-df284df8-13"
             style="overflow:visible">
            <path
               style="stroke:none"
               d="m 1.328125,-0.828125 c 0.53125,-0.578125 0.828125,-0.828125 1.1875,-1.140625 0,0 0.609375,-0.53125 0.96875,-0.890625 C 4.4375,-3.78125 4.65625,-4.265625 4.65625,-4.3125 c 0,-0.09375 -0.09375,-0.09375 -0.109375,-0.09375 -0.078125,0 -0.09375,0.015625 -0.15625,0.109375 -0.296875,0.484375 -0.5,0.640625 -0.734375,0.640625 -0.25,0 -0.359375,-0.15625 -0.515625,-0.328125 -0.1875,-0.21875 -0.359375,-0.421875 -0.6875,-0.421875 -0.75,0 -1.203125,0.921875 -1.203125,1.140625 0,0.046875 0.03125,0.109375 0.109375,0.109375 0.09375,0 0.109375,-0.046875 0.140625,-0.109375 0.1875,-0.46875 0.765625,-0.46875 0.84375,-0.46875 0.203125,0 0.390625,0.0625 0.625,0.140625 0.40625,0.15625 0.515625,0.15625 0.765625,0.15625 -0.359375,0.421875 -1.1875,1.140625 -1.375,1.296875 l -0.90625,0.84375 C 0.78125,-0.625 0.421875,-0.0625 0.421875,0.015625 c 0,0.09375 0.109375,0.09375 0.125,0.09375 0.078125,0 0.09375,-0.015625 0.15625,-0.125 0.234375,-0.359375 0.53125,-0.625 0.859375,-0.625 0.21875,0 0.328125,0.09375 0.578125,0.375 0.15625,0.21875 0.34375,0.375 0.625,0.375 1,0 1.578125,-1.265625 1.578125,-1.53125 0,-0.046875 -0.046875,-0.109375 -0.125,-0.109375 -0.09375,0 -0.109375,0.0625 -0.140625,0.140625 C 3.84375,-0.75 3.203125,-0.5625 2.875,-0.5625 c -0.1875,0 -0.375,-0.0625 -0.578125,-0.125 -0.34375,-0.125 -0.5,-0.171875 -0.703125,-0.171875 -0.015625,0 -0.171875,0 -0.265625,0.03125 z m 0,0"
               id="path4006"
               inkscape:connector-curvature="0" />
          </symbol>
          <symbol
             overflow="visible"
             id="textext-df284df8-14"
             style="overflow:visible">
            <path
               style="stroke:none"
               d="M 7.53125,-5.765625 C 7.640625,-6.15625 7.8125,-6.46875 8.609375,-6.5 c 0.046875,0 0.171875,-0.015625 0.171875,-0.203125 0,0 0,-0.109375 -0.125,-0.109375 -0.328125,0 -0.6875,0.03125 -1.015625,0.03125 -0.328125,0 -0.6875,-0.03125 -1.015625,-0.03125 -0.0625,0 -0.171875,0 -0.171875,0.203125 C 6.453125,-6.5 6.546875,-6.5 6.625,-6.5 c 0.578125,0.015625 0.6875,0.21875 0.6875,0.4375 0,0.03125 -0.03125,0.1875 -0.03125,0.203125 l -1.125,4.4375 L 3.953125,-6.625 C 3.875,-6.796875 3.875,-6.8125 3.640625,-6.8125 l -1.34375,0 c -0.1875,0 -0.28125,0 -0.28125,0.203125 0,0.109375 0.09375,0.109375 0.28125,0.109375 0.046875,0 0.671875,0 0.671875,0.09375 L 1.640625,-1.0625 c -0.109375,0.40625 -0.28125,0.71875 -1.078125,0.75 -0.0625,0 -0.171875,0.015625 -0.171875,0.203125 0,0.0625 0.046875,0.109375 0.125,0.109375 0.328125,0 0.671875,-0.03125 1,-0.03125 C 1.859375,-0.03125 2.21875,0 2.546875,0 2.59375,0 2.71875,0 2.71875,-0.203125 2.71875,-0.296875 2.625,-0.3125 2.515625,-0.3125 1.9375,-0.328125 1.859375,-0.546875 1.859375,-0.75 c 0,-0.0625 0.015625,-0.125 0.046875,-0.234375 l 1.3125,-5.25 C 3.265625,-6.1875 3.265625,-6.15625 3.3125,-6.0625 l 2.484375,5.875 C 5.859375,-0.015625 5.890625,0 5.984375,0 6.09375,0 6.09375,-0.03125 6.140625,-0.203125 z m 0,0"
               id="path4009"
               inkscape:connector-curvature="0" />
          </symbol>
          <symbol
             overflow="visible"
             id="textext-df284df8-15"
             style="overflow:visible">
            <path
               style="stroke:none"
               d="M 6.265625,-5.671875 C 6.75,-6.453125 7.171875,-6.484375 7.53125,-6.5 c 0.125,-0.015625 0.140625,-0.171875 0.140625,-0.1875 0,-0.078125 -0.0625,-0.125 -0.140625,-0.125 -0.25,0 -0.546875,0.03125 -0.8125,0.03125 -0.328125,0 -0.671875,-0.03125 -0.984375,-0.03125 -0.0625,0 -0.1875,0 -0.1875,0.1875 0,0.109375 0.078125,0.125 0.15625,0.125 0.265625,0.015625 0.453125,0.125 0.453125,0.328125 0,0.15625 -0.140625,0.375 -0.140625,0.375 l -3.0625,4.875 -0.6875,-5.28125 C 2.265625,-6.375 2.5,-6.5 2.953125,-6.5 c 0.140625,0 0.25,0 0.25,-0.203125 0,-0.078125 -0.078125,-0.109375 -0.125,-0.109375 -0.40625,0 -0.828125,0.03125 -1.25,0.03125 -0.171875,0 -0.359375,0 -0.546875,0 -0.171875,0 -0.359375,-0.03125 -0.53125,-0.03125 -0.078125,0 -0.1875,0 -0.1875,0.1875 0,0.125 0.078125,0.125 0.25,0.125 0.546875,0 0.5625,0.09375 0.59375,0.34375 L 2.1875,-0.015625 C 2.21875,0.1875 2.265625,0.21875 2.390625,0.21875 c 0.15625,0 0.203125,-0.046875 0.28125,-0.171875 z m 0,0"
               id="path4012"
               inkscape:connector-curvature="0" />
          </symbol>
          <symbol
             overflow="visible"
             id="textext-df284df8-16"
             style="overflow:visible">
            <path
               style="stroke:none"
               d="M 3.734375,-6.046875 C 3.8125,-6.40625 3.84375,-6.5 4.640625,-6.5 c 0.234375,0 0.3125,0 0.3125,-0.1875 0,-0.125 -0.109375,-0.125 -0.140625,-0.125 -0.296875,0 -1.03125,0.03125 -1.328125,0.03125 -0.296875,0 -1.015625,-0.03125 -1.328125,-0.03125 -0.0625,0 -0.1875,0 -0.1875,0.203125 C 1.96875,-6.5 2.046875,-6.5 2.25,-6.5 c 0.40625,0 0.6875,0 0.6875,0.1875 0,0.046875 0,0.078125 -0.03125,0.15625 l -1.34375,5.375 c -0.09375,0.375 -0.109375,0.46875 -0.90625,0.46875 -0.234375,0 -0.3125,0 -0.3125,0.203125 C 0.34375,0 0.453125,0 0.484375,0 0.78125,0 1.5,-0.03125 1.796875,-0.03125 2.09375,-0.03125 2.828125,0 3.125,0 c 0.078125,0 0.203125,0 0.203125,-0.1875 0,-0.125 -0.078125,-0.125 -0.296875,-0.125 -0.1875,0 -0.234375,0 -0.421875,-0.015625 -0.21875,-0.015625 -0.25,-0.0625 -0.25,-0.171875 0,-0.078125 0.015625,-0.15625 0.03125,-0.234375 z m 0,0"
               id="path4015"
               inkscape:connector-curvature="0" />
          </symbol>
          <symbol
             overflow="visible"
             id="textext-df284df8-17"
             style="overflow:visible">
            <path
               style="stroke:none"
               d=""
               id="path4018"
               inkscape:connector-curvature="0" />
          </symbol>
          <symbol
             overflow="visible"
             id="textext-df284df8-18"
             style="overflow:visible">
            <path
               style="stroke:none"
               d="m 3,-2.625 c -0.171875,0.046875 -0.296875,0.1875 -0.296875,0.328125 0,0.171875 0.140625,0.234375 0.234375,0.234375 0.078125,0 0.34375,-0.046875 0.34375,-0.40625 0,-0.453125 -0.5,-0.609375 -0.9375,-0.609375 -1.078125,0 -1.28125,0.8125 -1.28125,1.015625 0,0.265625 0.15625,0.4375 0.25,0.515625 0.171875,0.140625 0.296875,0.171875 0.78125,0.25 0.15625,0.03125 0.59375,0.109375 0.59375,0.453125 0,0.125 -0.078125,0.390625 -0.359375,0.5625 C 2.046875,-0.125 1.703125,-0.125 1.625,-0.125 1.34375,-0.125 0.953125,-0.1875 0.78125,-0.421875 1.015625,-0.453125 1.171875,-0.625 1.171875,-0.8125 c 0,-0.171875 -0.125,-0.265625 -0.265625,-0.265625 -0.203125,0 -0.40625,0.171875 -0.40625,0.46875 0,0.421875 0.4375,0.671875 1.109375,0.671875 1.296875,0 1.53125,-0.875 1.53125,-1.140625 0,-0.640625 -0.703125,-0.765625 -0.96875,-0.8125 -0.0625,-0.015625 -0.234375,-0.046875 -0.28125,-0.0625 -0.25,-0.046875 -0.375,-0.1875 -0.375,-0.34375 0,-0.15625 0.125,-0.34375 0.28125,-0.453125 0.1875,-0.109375 0.421875,-0.125 0.546875,-0.125 0.140625,0 0.5,0.015625 0.65625,0.25 z m 0,0"
               id="path4021"
               inkscape:connector-curvature="0" />
          </symbol>
          <symbol
             overflow="visible"
             id="textext-df284df8-19"
             style="overflow:visible">
            <path
               style="stroke:none"
               d="m 5.453125,-4.484375 c 0.0625,-0.0625 0.09375,-0.109375 0.09375,-0.203125 0,-0.078125 -0.046875,-0.078125 -0.1875,-0.078125 l -3.25,0 C 1.9375,-4.765625 1.921875,-4.75 1.875,-4.625 L 1.484375,-3.359375 C 1.46875,-3.28125 1.46875,-3.28125 1.46875,-3.25 c 0,0.03125 0.015625,0.09375 0.109375,0.09375 0.09375,0 0.109375,-0.046875 0.125,-0.109375 0.34375,-0.984375 0.875,-1.25 1.78125,-1.25 l 1.25,0 -4.0625,4.203125 C 0.625,-0.265625 0.5625,-0.1875 0.5625,-0.078125 0.5625,0 0.625,0 0.75,0 l 3.375,0 c 0.171875,0 0.1875,0 0.21875,-0.140625 l 0.5,-1.546875 C 4.875,-1.78125 4.875,-1.796875 4.875,-1.8125 c 0,0 0,-0.09375 -0.109375,-0.09375 -0.09375,0 -0.109375,0.03125 -0.15625,0.1875 -0.3125,0.953125 -0.671875,1.4375 -1.890625,1.4375 l -1.328125,0 z m 0,0"
               id="path4024"
               inkscape:connector-curvature="0" />
          </symbol>
          <symbol
             overflow="visible"
             id="textext-df284df8-20"
             style="overflow:visible">
            <path
               style="stroke:none"
               d="M 1.734375,-0.734375 C 1.671875,-0.5 1.4375,-0.125 1.078125,-0.125 c -0.015625,0 -0.234375,0 -0.375,-0.09375 0.28125,-0.09375 0.3125,-0.34375 0.3125,-0.390625 0,-0.15625 -0.125,-0.25 -0.28125,-0.25 -0.203125,0 -0.40625,0.15625 -0.40625,0.421875 0,0.34375 0.390625,0.5 0.734375,0.5 0.328125,0 0.609375,-0.1875 0.78125,-0.484375 C 2.015625,-0.0625 2.390625,0.0625 2.671875,0.0625 c 0.8125,0 1.234375,-0.859375 1.234375,-1.0625 0,-0.09375 -0.09375,-0.09375 -0.109375,-0.09375 -0.109375,0 -0.109375,0.046875 -0.140625,0.125 -0.140625,0.484375 -0.5625,0.84375 -0.953125,0.84375 -0.28125,0 -0.421875,-0.1875 -0.421875,-0.453125 0,-0.1875 0.171875,-0.8125 0.359375,-1.59375 C 2.78125,-2.703125 3.09375,-2.875 3.328125,-2.875 c 0.015625,0 0.21875,0 0.375,0.09375 -0.21875,0.0625 -0.3125,0.265625 -0.3125,0.390625 0,0.140625 0.125,0.25 0.28125,0.25 0.15625,0 0.390625,-0.125 0.390625,-0.421875 0,-0.390625 -0.453125,-0.515625 -0.71875,-0.515625 -0.359375,0 -0.640625,0.234375 -0.78125,0.5 -0.125,-0.28125 -0.453125,-0.5 -0.84375,-0.5 C 0.9375,-3.078125 0.5,-2.21875 0.5,-2 c 0,0.078125 0.09375,0.078125 0.109375,0.078125 0.09375,0 0.09375,-0.015625 0.140625,-0.109375 C 0.921875,-2.578125 1.359375,-2.875 1.703125,-2.875 1.9375,-2.875 2.125,-2.75 2.125,-2.421875 2.125,-2.28125 2.03125,-1.9375 1.96875,-1.6875 z m 0,0"
               id="path4027"
               inkscape:connector-curvature="0" />
          </symbol>
          <symbol
             overflow="visible"
             id="textext-df284df8-21"
             style="overflow:visible">
            <path
               style="stroke:none"
               d=""
               id="path4030"
               inkscape:connector-curvature="0" />
          </symbol>
          <symbol
             overflow="visible"
             id="textext-df284df8-22"
             style="overflow:visible">
            <path
               style="stroke:none"
               d="m 2.328125,-4.4375 c 0,-0.1875 0,-0.1875 -0.203125,-0.1875 -0.453125,0.4375 -1.078125,0.4375 -1.359375,0.4375 l 0,0.25 c 0.15625,0 0.625,0 1,-0.1875 l 0,3.546875 c 0,0.234375 0,0.328125 -0.6875,0.328125 l -0.265625,0 0,0.25 c 0.125,0 0.984375,-0.03125 1.234375,-0.03125 0.21875,0 1.09375,0.03125 1.25,0.03125 l 0,-0.25 -0.265625,0 c -0.703125,0 -0.703125,-0.09375 -0.703125,-0.328125 z m 0,0"
               id="path4033"
               inkscape:connector-curvature="0" />
          </symbol>
          <symbol
             overflow="visible"
             id="textext-df284df8-23"
             style="overflow:visible">
            <path
               style="stroke:none"
               d="m 3.515625,-1.265625 -0.234375,0 c -0.015625,0.15625 -0.09375,0.5625 -0.1875,0.625 -0.046875,0.046875 -0.578125,0.046875 -0.6875,0.046875 l -1.28125,0 c 0.734375,-0.640625 0.984375,-0.84375 1.390625,-1.171875 0.515625,-0.40625 1,-0.84375 1,-1.5 0,-0.84375 -0.734375,-1.359375 -1.625,-1.359375 -0.859375,0 -1.453125,0.609375 -1.453125,1.25 0,0.34375 0.296875,0.390625 0.375,0.390625 0.15625,0 0.359375,-0.125 0.359375,-0.375 0,-0.125 -0.046875,-0.375 -0.40625,-0.375 C 0.984375,-4.21875 1.453125,-4.375 1.78125,-4.375 c 0.703125,0 1.0625,0.546875 1.0625,1.109375 0,0.609375 -0.4375,1.078125 -0.65625,1.328125 L 0.515625,-0.265625 C 0.4375,-0.203125 0.4375,-0.1875 0.4375,0 l 2.875,0 z m 0,0"
               id="path4036"
               inkscape:connector-curvature="0" />
          </symbol>
        </g>
      </defs>
      <g
         id="textext-df284df8-24">
        <g
           style="fill:#000000;fill-opacity:1"
           id="g4039">
          <use
             xlink:href="#textext-df284df8-1"
             x="223.43201"
             y="125.201"
             id="use4041"
             width="425"
             height="150" />
        </g>
        <g
           style="fill:#000000;fill-opacity:1"
           id="g4043">
          <use
             xlink:href="#textext-df284df8-2"
             x="223.43201"
             y="143.134"
             id="use4045"
             width="425"
             height="150" />
        </g>
        <g
           style="fill:#000000;fill-opacity:1"
           id="g4047">
          <use
             xlink:href="#textext-df284df8-6"
             x="235.05499"
             y="133.17101"
             id="use4049"
             width="425"
             height="150" />
        </g>
        <g
           style="fill:#000000;fill-opacity:1"
           id="g4051">
          <use
             xlink:href="#textext-df284df8-6"
             x="235.05499"
             y="145.12601"
             id="use4053"
             width="425"
             height="150" />
        </g>
        <g
           style="fill:#000000;fill-opacity:1"
           id="g4055">
          <use
             xlink:href="#textext-df284df8-6"
             x="235.05499"
             y="157.08099"
             id="use4057"
             width="425"
             height="150" />
        </g>
        <g
           style="fill:#000000;fill-opacity:1"
           id="g4059">
          <use
             xlink:href="#textext-df284df8-3"
             x="245.01801"
             y="125.201"
             id="use4061"
             width="425"
             height="150" />
        </g>
        <g
           style="fill:#000000;fill-opacity:1"
           id="g4063">
          <use
             xlink:href="#textext-df284df8-4"
             x="245.01801"
             y="143.134"
             id="use4065"
             width="425"
             height="150" />
        </g>
        <g
           style="fill:#000000;fill-opacity:1"
           id="g4067">
          <use
             xlink:href="#textext-df284df8-7"
             x="254.427"
             y="145.226"
             id="use4069"
             width="425"
             height="150" />
        </g>
        <g
           style="fill:#000000;fill-opacity:1"
           id="g4071">
          <use
             xlink:href="#textext-df284df8-1"
             x="264.94299"
             y="125.201"
             id="use4073"
             width="425"
             height="150" />
        </g>
        <g
           style="fill:#000000;fill-opacity:1"
           id="g4075">
          <use
             xlink:href="#textext-df284df8-2"
             x="264.94299"
             y="143.134"
             id="use4077"
             width="425"
             height="150" />
        </g>
        <g
           style="fill:#000000;fill-opacity:1"
           id="g4079">
          <use
             xlink:href="#textext-df284df8-6"
             x="282.784"
             y="133.17101"
             id="use4081"
             width="425"
             height="150" />
        </g>
        <g
           style="fill:#000000;fill-opacity:1"
           id="g4083">
          <use
             xlink:href="#textext-df284df8-6"
             x="314.03668"
             y="133.17101"
             id="use4085"
             width="425"
             height="150" />
        </g>
        <g
           style="fill:#000000;fill-opacity:1"
           id="g4087">
          <use
             xlink:href="#textext-df284df8-8"
             x="349.44376"
             y="133.17101"
             id="use4089"
             width="425"
             height="150" />
        </g>
        <g
           style="fill:#000000;fill-opacity:1"
           id="g4091">
          <use
             xlink:href="#textext-df284df8-6"
             x="282.784"
             y="145.12601"
             id="use4093"
             width="425"
             height="150" />
        </g>
        <g
           style="fill:#000000;fill-opacity:1"
           id="g4095">
          <use
             xlink:href="#textext-df284df8-6"
             x="314.03668"
             y="145.12601"
             id="use4097"
             width="425"
             height="150" />
        </g>
        <g
           style="fill:#000000;fill-opacity:1"
           id="g4099">
          <use
             xlink:href="#textext-df284df8-10"
             x="345.57401"
             y="145.12601"
             id="use4101"
             width="425"
             height="150" />
        </g>
        <g
           style="fill:#000000;fill-opacity:1"
           id="g4103">
          <use
             xlink:href="#textext-df284df8-8"
             x="353.32199"
             y="145.12601"
             id="use4105"
             width="425"
             height="150" />
        </g>
        <g
           style="fill:#000000;fill-opacity:1"
           id="g4107">
          <use
             xlink:href="#textext-df284df8-12"
             x="276.56601"
             y="157.08099"
             id="use4109"
             width="425"
             height="150" />
        </g>
        <g
           style="fill:#000000;fill-opacity:1"
           id="g4111">
          <use
             xlink:href="#textext-df284df8-13"
             x="285.09299"
             y="157.08099"
             id="use4113"
             width="425"
             height="150" />
        </g>
        <g
           style="fill:#000000;fill-opacity:1"
           id="g4115">
          <use
             xlink:href="#textext-df284df8-18"
             x="289.724"
             y="158.576"
             id="use4117"
             width="425"
             height="150" />
        </g>
        <g
           style="fill:#000000;fill-opacity:1"
           id="g4119">
          <use
             xlink:href="#textext-df284df8-10"
             x="303.94501"
             y="157.08099"
             id="use4121"
             width="425"
             height="150" />
        </g>
        <g
           style="fill:#000000;fill-opacity:1"
           id="g4123">
          <use
             xlink:href="#textext-df284df8-12"
             x="311.694"
             y="157.08099"
             id="use4125"
             width="425"
             height="150" />
        </g>
        <g
           style="fill:#000000;fill-opacity:1"
           id="g4127">
          <use
             xlink:href="#textext-df284df8-13"
             x="320.22098"
             y="157.08099"
             id="use4129"
             width="425"
             height="150" />
        </g>
        <g
           style="fill:#000000;fill-opacity:1"
           id="g4131">
          <use
             xlink:href="#textext-df284df8-18"
             x="324.85199"
             y="158.576"
             id="use4133"
             width="425"
             height="150" />
        </g>
        <g
           style="fill:#000000;fill-opacity:1"
           id="g4135">
          <use
             xlink:href="#textext-df284df8-10"
             x="339.073"
             y="157.08099"
             id="use4137"
             width="425"
             height="150" />
        </g>
        <g
           style="fill:#000000;fill-opacity:1"
           id="g4139">
          <use
             xlink:href="#textext-df284df8-14"
             x="346.82199"
             y="157.08099"
             id="use4141"
             width="425"
             height="150" />
        </g>
        <g
           style="fill:#000000;fill-opacity:1"
           id="g4143">
          <use
             xlink:href="#textext-df284df8-13"
             x="355.91287"
             y="157.08099"
             id="use4145"
             width="425"
             height="150" />
        </g>
        <g
           style="fill:#000000;fill-opacity:1"
           id="g4147">
          <use
             xlink:href="#textext-df284df8-18"
             x="360.54599"
             y="158.576"
             id="use4149"
             width="425"
             height="150" />
        </g>
        <g
           style="fill:#000000;fill-opacity:1"
           id="g4151">
          <use
             xlink:href="#textext-df284df8-3"
             x="369.78601"
             y="125.201"
             id="use4153"
             width="425"
             height="150" />
        </g>
        <g
           style="fill:#000000;fill-opacity:1"
           id="g4155">
          <use
             xlink:href="#textext-df284df8-4"
             x="369.78601"
             y="143.134"
             id="use4157"
             width="425"
             height="150" />
        </g>
        <g
           style="fill:#000000;fill-opacity:1"
           id="g4159">
          <use
             xlink:href="#textext-df284df8-1"
             x="378.08801"
             y="125.201"
             id="use4161"
             width="425"
             height="150" />
        </g>
        <g
           style="fill:#000000;fill-opacity:1"
           id="g4163">
          <use
             xlink:href="#textext-df284df8-2"
             x="378.08801"
             y="143.134"
             id="use4165"
             width="425"
             height="150" />
        </g>
        <g
           style="fill:#000000;fill-opacity:1"
           id="g4167">
          <use
             xlink:href="#textext-df284df8-15"
             x="392.22601"
             y="133.17101"
             id="use4169"
             width="425"
             height="150" />
        </g>
        <g
           style="fill:#000000;fill-opacity:1"
           id="g4171">
          <use
             xlink:href="#textext-df284df8-22"
             x="398.03799"
             y="134.66499"
             id="use4173"
             width="425"
             height="150" />
        </g>
        <g
           style="fill:#000000;fill-opacity:1"
           id="g4175">
          <use
             xlink:href="#textext-df284df8-15"
             x="392.22601"
             y="145.12601"
             id="use4177"
             width="425"
             height="150" />
        </g>
        <g
           style="fill:#000000;fill-opacity:1"
           id="g4179">
          <use
             xlink:href="#textext-df284df8-23"
             x="398.03799"
             y="146.621"
             id="use4181"
             width="425"
             height="150" />
        </g>
        <g
           style="fill:#000000;fill-opacity:1"
           id="g4183">
          <use
             xlink:href="#textext-df284df8-16"
             x="389.711"
             y="157.08099"
             id="use4185"
             width="425"
             height="150" />
        </g>
        <g
           style="fill:#000000;fill-opacity:1"
           id="g4187">
          <use
             xlink:href="#textext-df284df8-19"
             x="394.09"
             y="158.576"
             id="use4189"
             width="425"
             height="150" />
        </g>
        <g
           style="fill:#000000;fill-opacity:1"
           id="g4191">
          <use
             xlink:href="#textext-df284df8-20"
             x="400.00656"
             y="158.576"
             id="use4193"
             width="425"
             height="150" />
        </g>
        <g
           style="fill:#000000;fill-opacity:1"
           id="g4195">
          <use
             xlink:href="#textext-df284df8-3"
             x="410.004"
             y="125.201"
             id="use4197"
             width="425"
             height="150" />
        </g>
        <g
           style="fill:#000000;fill-opacity:1"
           id="g4199">
          <use
             xlink:href="#textext-df284df8-4"
             x="410.004"
             y="143.134"
             id="use4201"
             width="425"
             height="150" />
        </g>
      </g>
    </g>
    <path
       transform="translate(-20,47.362183)"
       inkscape:connector-curvature="0"
       id="path4444"
       d="m 105,95 0,20"
       style="fill:none;stroke:#000000;stroke-width:1px;stroke-linecap:butt;stroke-linejoin:miter;stroke-opacity:1" />
    <g
       id="g4660"
       transform="translate(-157.613,18.110458)"
       ns0:preamble=""
       ns0:text="$I_{Zx}$">
      <defs
         id="defs4662">
        <g
           id="g4664">
          <symbol
             id="textext-791995a9-0"
             overflow="visible"
             style="overflow:visible">
            <path
               id="path4667"
               d=""
               style="stroke:none"
               inkscape:connector-curvature="0" />
          </symbol>
          <symbol
             id="textext-791995a9-1"
             overflow="visible"
             style="overflow:visible">
            <path
               id="path4670"
               d="M 3.734375,-6.046875 C 3.8125,-6.40625 3.84375,-6.5 4.640625,-6.5 c 0.234375,0 0.3125,0 0.3125,-0.1875 0,-0.125 -0.109375,-0.125 -0.140625,-0.125 -0.296875,0 -1.03125,0.03125 -1.328125,0.03125 -0.296875,0 -1.015625,-0.03125 -1.328125,-0.03125 -0.0625,0 -0.1875,0 -0.1875,0.203125 C 1.96875,-6.5 2.046875,-6.5 2.25,-6.5 c 0.40625,0 0.6875,0 0.6875,0.1875 0,0.046875 0,0.078125 -0.03125,0.15625 l -1.34375,5.375 c -0.09375,0.375 -0.109375,0.46875 -0.90625,0.46875 -0.234375,0 -0.3125,0 -0.3125,0.203125 C 0.34375,0 0.453125,0 0.484375,0 0.78125,0 1.5,-0.03125 1.796875,-0.03125 2.09375,-0.03125 2.828125,0 3.125,0 c 0.078125,0 0.203125,0 0.203125,-0.1875 0,-0.125 -0.078125,-0.125 -0.296875,-0.125 -0.1875,0 -0.234375,0 -0.421875,-0.015625 -0.21875,-0.015625 -0.25,-0.0625 -0.25,-0.171875 0,-0.078125 0.015625,-0.15625 0.03125,-0.234375 z m 0,0"
               style="stroke:none"
               inkscape:connector-curvature="0" />
          </symbol>
          <symbol
             id="textext-791995a9-2"
             overflow="visible"
             style="overflow:visible">
            <path
               id="path4673"
               d=""
               style="stroke:none"
               inkscape:connector-curvature="0" />
          </symbol>
          <symbol
             id="textext-791995a9-3"
             overflow="visible"
             style="overflow:visible">
            <path
               id="path4676"
               d="m 5.453125,-4.484375 c 0.0625,-0.0625 0.09375,-0.109375 0.09375,-0.203125 0,-0.078125 -0.046875,-0.078125 -0.1875,-0.078125 l -3.25,0 C 1.9375,-4.765625 1.921875,-4.75 1.875,-4.625 L 1.484375,-3.359375 C 1.46875,-3.28125 1.46875,-3.28125 1.46875,-3.25 c 0,0.03125 0.015625,0.09375 0.109375,0.09375 0.09375,0 0.109375,-0.046875 0.125,-0.109375 0.34375,-0.984375 0.875,-1.25 1.78125,-1.25 l 1.25,0 -4.0625,4.203125 C 0.625,-0.265625 0.5625,-0.1875 0.5625,-0.078125 0.5625,0 0.625,0 0.75,0 l 3.375,0 c 0.171875,0 0.1875,0 0.21875,-0.140625 l 0.5,-1.546875 C 4.875,-1.78125 4.875,-1.796875 4.875,-1.8125 c 0,0 0,-0.09375 -0.109375,-0.09375 -0.09375,0 -0.109375,0.03125 -0.15625,0.1875 -0.3125,0.953125 -0.671875,1.4375 -1.890625,1.4375 l -1.328125,0 z m 0,0"
               style="stroke:none"
               inkscape:connector-curvature="0" />
          </symbol>
          <symbol
             id="textext-791995a9-4"
             overflow="visible"
             style="overflow:visible">
            <path
               id="path4679"
               d="M 1.734375,-0.734375 C 1.671875,-0.5 1.4375,-0.125 1.078125,-0.125 c -0.015625,0 -0.234375,0 -0.375,-0.09375 0.28125,-0.09375 0.3125,-0.34375 0.3125,-0.390625 0,-0.15625 -0.125,-0.25 -0.28125,-0.25 -0.203125,0 -0.40625,0.15625 -0.40625,0.421875 0,0.34375 0.390625,0.5 0.734375,0.5 0.328125,0 0.609375,-0.1875 0.78125,-0.484375 C 2.015625,-0.0625 2.390625,0.0625 2.671875,0.0625 c 0.8125,0 1.234375,-0.859375 1.234375,-1.0625 0,-0.09375 -0.09375,-0.09375 -0.109375,-0.09375 -0.109375,0 -0.109375,0.046875 -0.140625,0.125 -0.140625,0.484375 -0.5625,0.84375 -0.953125,0.84375 -0.28125,0 -0.421875,-0.1875 -0.421875,-0.453125 0,-0.1875 0.171875,-0.8125 0.359375,-1.59375 C 2.78125,-2.703125 3.09375,-2.875 3.328125,-2.875 c 0.015625,0 0.21875,0 0.375,0.09375 -0.21875,0.0625 -0.3125,0.265625 -0.3125,0.390625 0,0.140625 0.125,0.25 0.28125,0.25 0.15625,0 0.390625,-0.125 0.390625,-0.421875 0,-0.390625 -0.453125,-0.515625 -0.71875,-0.515625 -0.359375,0 -0.640625,0.234375 -0.78125,0.5 -0.125,-0.28125 -0.453125,-0.5 -0.84375,-0.5 C 0.9375,-3.078125 0.5,-2.21875 0.5,-2 c 0,0.078125 0.09375,0.078125 0.109375,0.078125 0.09375,0 0.09375,-0.015625 0.140625,-0.109375 C 0.921875,-2.578125 1.359375,-2.875 1.703125,-2.875 1.9375,-2.875 2.125,-2.75 2.125,-2.421875 2.125,-2.28125 2.03125,-1.9375 1.96875,-1.6875 z m 0,0"
               style="stroke:none"
               inkscape:connector-curvature="0" />
          </symbol>
        </g>
      </defs>
      <g
         id="textext-791995a9-5">
        <g
           id="g4682"
           style="fill:#000000;fill-opacity:1">
          <use
             id="use4684"
             y="134.765"
             x="223.43201"
             xlink:href="#textext-791995a9-1"
             width="425"
             height="150" />
        </g>
        <g
           id="g4686"
           style="fill:#000000;fill-opacity:1">
          <use
             id="use4688"
             y="136.259"
             x="227.812"
             xlink:href="#textext-791995a9-3"
             width="425"
             height="150" />
        </g>
        <g
           id="g4690"
           style="fill:#000000;fill-opacity:1">
          <use
             id="use4692"
             y="136.259"
             x="233.72858"
             xlink:href="#textext-791995a9-4"
             width="425"
             height="150" />
        </g>
      </g>
    </g>
  </g>
</svg>
