<?xml version="1.0" encoding="UTF-8" standalone="no"?>
<!-- Created with Inkscape (http://www.inkscape.org/) -->

<svg
   xmlns:ns0="http://www.iki.fi/pav/software/textext/"
   xmlns:dc="http://purl.org/dc/elements/1.1/"
   xmlns:cc="http://creativecommons.org/ns#"
   xmlns:rdf="http://www.w3.org/1999/02/22-rdf-syntax-ns#"
   xmlns:svg="http://www.w3.org/2000/svg"
   xmlns="http://www.w3.org/2000/svg"
   xmlns:xlink="http://www.w3.org/1999/xlink"
   xmlns:sodipodi="http://sodipodi.sourceforge.net/DTD/sodipodi-0.dtd"
   xmlns:inkscape="http://www.inkscape.org/namespaces/inkscape"
   width="425"
   height="105"
   id="svg14078"
   version="1.1"
   inkscape:version="0.48.4 r9939"
   sodipodi:docname="stampI.svg">
  <sodipodi:namedview
     id="base"
     pagecolor="#ffffff"
     bordercolor="#666666"
     borderopacity="1.0"
     inkscape:pageopacity="0.0"
     inkscape:pageshadow="2"
     inkscape:zoom="2.8"
     inkscape:cx="179.26934"
     inkscape:cy="26.33099"
     inkscape:document-units="px"
     inkscape:current-layer="layer1"
     showgrid="true"
     inkscape:object-paths="true"
     inkscape:object-nodes="true"
     inkscape:window-width="1657"
     inkscape:window-height="849"
     inkscape:window-x="66"
     inkscape:window-y="87"
     inkscape:window-maximized="0"
     fit-margin-top="0"
     fit-margin-left="0"
     fit-margin-right="0"
     fit-margin-bottom="0">
    <inkscape:grid
       id="grid14086"
       type="xygrid"
       empspacing="5"
       visible="true"
       enabled="true"
       snapvisiblegridlinesonly="true"
       originx="-25px"
       originy="-835px" />
  </sodipodi:namedview>
  <defs
     id="defs14080">
    <marker
       style="overflow:visible"
       id="Arrow2Mend-00"
       refX="0"
       refY="0"
       orient="auto"
       inkscape:stockid="Arrow2Mend">
      <path
         transform="scale(-0.6,-0.6)"
         d="M 8.7185878,4.0337352 -2.2072895,0.01601326 8.7185884,-4.0017078 c -1.7454984,2.3720609 -1.7354408,5.6174519 -6e-7,8.035443 z"
         style="font-size:12px;fill-rule:evenodd;stroke-width:0.625;stroke-linejoin:round"
         id="path5872-4"
         inkscape:connector-curvature="0" />
    </marker>
  </defs>
  <metadata
     id="metadata14083">
    <rdf:RDF>
      <cc:Work
         rdf:about="">
        <dc:format>image/svg+xml</dc:format>
        <dc:type
           rdf:resource="http://purl.org/dc/dcmitype/StillImage" />
        <dc:title />
      </cc:Work>
    </rdf:RDF>
  </metadata>
  <g
     id="layer1"
     inkscape:groupmode="layer"
     inkscape:label="Layer 1"
     transform="translate(-25,-112.36218)">
    <g
       id="g60432"
       transform="translate(25,14.999983)">
      <g
         id="g5548"
         transform="translate(-340,-3075.63)">
        <path
           inkscape:connector-curvature="0"
           style="fill:none;stroke:#000000;stroke-width:1;stroke-miterlimit:4;stroke-opacity:1;stroke-dasharray:none"
           id="path3187"
           d="m 485,3242.9922 c 0,5.5229 -4.47716,10 -10,10 -5.52285,0 -10,-4.4771 -10,-10 0,-5.5229 4.47715,-10 10,-10 5.52284,0 10,4.4771 10,10 l 0,0 z" />
        <path
           inkscape:connector-curvature="0"
           id="path6940-8"
           d="m 460,3232.9922 0,20"
           style="fill:none;stroke:#000000;stroke-width:1px;stroke-linecap:butt;stroke-linejoin:miter;stroke-opacity:1;marker-end:url(#Arrow2Mend-00)" />
        <path
           inkscape:connector-curvature="0"
           id="path4195-6-2-9-61-7"
           d="m 475,3252.9922 0,10"
           style="fill:none;stroke:#000000;stroke-width:1px;stroke-linecap:round;stroke-linejoin:miter;stroke-opacity:1" />
        <path
           inkscape:connector-curvature="0"
           id="path4195-6-2-9-61-6"
           d="m 475,3222.9922 0,10"
           style="fill:none;stroke:#000000;stroke-width:1px;stroke-linecap:round;stroke-linejoin:miter;stroke-opacity:1" />
        <path
           inkscape:connector-curvature="0"
           id="path4195-6-2-9-61-4"
           d="m 485,3243.4881 -20,0"
           style="fill:none;stroke:#000000;stroke-width:1;stroke-linecap:round;stroke-linejoin:miter;stroke-miterlimit:4;stroke-opacity:1;stroke-dasharray:none" />
      </g>
      <path
         sodipodi:type="arc"
         style="fill:#000000;fill-opacity:1;stroke:#000000;stroke-opacity:1"
         id="path6451"
         sodipodi:cx="306"
         sodipodi:cy="28.362183"
         sodipodi:rx="1"
         sodipodi:ry="1"
         d="m 307,28.362183 c 0,0.552284 -0.44772,1 -1,1 -0.55228,0 -1,-0.447716 -1,-1 0,-0.552285 0.44772,-1 1,-1 0.55228,0 1,0.447715 1,1 z"
         transform="matrix(2,0,0,1.9999986,-477,90.637855)" />
      <path
         sodipodi:type="arc"
         style="fill:#000000;fill-opacity:1;stroke:#000000;stroke-opacity:1"
         id="path6451-2"
         sodipodi:cx="306"
         sodipodi:cy="28.362183"
         sodipodi:rx="1"
         sodipodi:ry="1"
         d="m 307,28.362183 c 0,0.552284 -0.44772,1 -1,1 -0.55228,0 -1,-0.447716 -1,-1 0,-0.552285 0.44772,-1 1,-1 0.55228,0 1,0.447715 1,1 z"
         transform="matrix(2,0,0,1.9999986,-477,130.63786)" />
      <text
         sodipodi:linespacing="100%"
         id="text60130"
         y="149.36218"
         x="141"
         style="font-size:8px;font-style:normal;font-variant:normal;font-weight:normal;font-stretch:normal;text-align:start;line-height:100%;writing-mode:lr-tb;text-anchor:start;fill:#000000;fill-opacity:1;stroke:none;font-family:Arial;-inkscape-font-specification:Arial"
         xml:space="preserve"><tspan
           y="149.36218"
           x="141"
           id="tspan60132"
           sodipodi:role="line">(1)</tspan></text>
      <text
         sodipodi:linespacing="100%"
         id="text60130-9"
         y="189.36218"
         x="141"
         style="font-size:8px;font-style:normal;font-variant:normal;font-weight:normal;font-stretch:normal;text-align:start;line-height:100%;writing-mode:lr-tb;text-anchor:start;fill:#000000;fill-opacity:1;stroke:none;font-family:Arial;-inkscape-font-specification:Arial"
         xml:space="preserve"><tspan
           y="189.36218"
           x="141"
           id="tspan60132-3"
           sodipodi:role="line">(2)</tspan></text>
    </g>
    <text
       xml:space="preserve"
       style="font-size:8px;font-style:normal;font-variant:normal;font-weight:bold;font-stretch:normal;text-align:start;line-height:100%;writing-mode:lr-tb;text-anchor:start;fill:#000000;fill-opacity:1;stroke:none;font-family:Courier New;-inkscape-font-specification:Courier New Bold"
       x="135"
       y="147.36218"
       id="text60370"
       sodipodi:linespacing="100%"><tspan
         sodipodi:role="line"
         id="tspan60372"
         x="135"
         y="147.36218">Ix 1 2 {I_s}</tspan></text>
    <text
       sodipodi:linespacing="125%"
       id="text13474"
       y="132.36218"
       x="135"
       style="font-size:10px;font-style:normal;font-variant:normal;font-weight:normal;font-stretch:normal;text-align:start;line-height:125%;letter-spacing:0px;word-spacing:0px;writing-mode:lr-tb;text-anchor:start;fill:#000000;fill-opacity:1;stroke:none;font-family:Sans;-inkscape-font-specification:Sans"
       xml:space="preserve"><tspan
         y="132.36218"
         x="135"
         id="tspan13476"
         sodipodi:role="line">Independent current source</tspan></text>
    <g
       ns0:text="$I_s$"
       ns0:preamble=""
       transform="translate(-89.976921,47.526009)"
       id="g79578">
      <defs
         id="defs79580">
        <g
           id="g79582">
          <symbol
             style="overflow:visible"
             overflow="visible"
             id="textext-85835f08-0">
            <path
               inkscape:connector-curvature="0"
               style="stroke:none"
               d=""
               id="path79585" />
          </symbol>
          <symbol
             style="overflow:visible"
             overflow="visible"
             id="textext-85835f08-1">
            <path
               inkscape:connector-curvature="0"
               style="stroke:none"
               d="M 3.734375,-6.046875 C 3.8125,-6.40625 3.84375,-6.5 4.640625,-6.5 c 0.234375,0 0.3125,0 0.3125,-0.1875 0,-0.125 -0.109375,-0.125 -0.140625,-0.125 -0.296875,0 -1.03125,0.03125 -1.328125,0.03125 -0.296875,0 -1.015625,-0.03125 -1.328125,-0.03125 -0.0625,0 -0.1875,0 -0.1875,0.203125 C 1.96875,-6.5 2.046875,-6.5 2.25,-6.5 c 0.40625,0 0.6875,0 0.6875,0.1875 0,0.046875 0,0.078125 -0.03125,0.15625 l -1.34375,5.375 c -0.09375,0.375 -0.109375,0.46875 -0.90625,0.46875 -0.234375,0 -0.3125,0 -0.3125,0.203125 C 0.34375,0 0.453125,0 0.484375,0 0.78125,0 1.5,-0.03125 1.796875,-0.03125 2.09375,-0.03125 2.828125,0 3.125,0 c 0.078125,0 0.203125,0 0.203125,-0.1875 0,-0.125 -0.078125,-0.125 -0.296875,-0.125 -0.1875,0 -0.234375,0 -0.421875,-0.015625 -0.21875,-0.015625 -0.25,-0.0625 -0.25,-0.171875 0,-0.078125 0.015625,-0.15625 0.03125,-0.234375 z m 0,0"
               id="path79588" />
          </symbol>
          <symbol
             style="overflow:visible"
             overflow="visible"
             id="textext-85835f08-2">
            <path
               inkscape:connector-curvature="0"
               style="stroke:none"
               d=""
               id="path79591" />
          </symbol>
          <symbol
             style="overflow:visible"
             overflow="visible"
             id="textext-85835f08-3">
            <path
               inkscape:connector-curvature="0"
               style="stroke:none"
               d="m 3,-2.625 c -0.171875,0.046875 -0.296875,0.1875 -0.296875,0.328125 0,0.171875 0.140625,0.234375 0.234375,0.234375 0.078125,0 0.34375,-0.046875 0.34375,-0.40625 0,-0.453125 -0.5,-0.609375 -0.9375,-0.609375 -1.078125,0 -1.28125,0.8125 -1.28125,1.015625 0,0.265625 0.15625,0.4375 0.25,0.515625 0.171875,0.140625 0.296875,0.171875 0.78125,0.25 0.15625,0.03125 0.59375,0.109375 0.59375,0.453125 0,0.125 -0.078125,0.390625 -0.359375,0.5625 C 2.046875,-0.125 1.703125,-0.125 1.625,-0.125 1.34375,-0.125 0.953125,-0.1875 0.78125,-0.421875 1.015625,-0.453125 1.171875,-0.625 1.171875,-0.8125 c 0,-0.171875 -0.125,-0.265625 -0.265625,-0.265625 -0.203125,0 -0.40625,0.171875 -0.40625,0.46875 0,0.421875 0.4375,0.671875 1.109375,0.671875 1.296875,0 1.53125,-0.875 1.53125,-1.140625 0,-0.640625 -0.703125,-0.765625 -0.96875,-0.8125 -0.0625,-0.015625 -0.234375,-0.046875 -0.28125,-0.0625 -0.25,-0.046875 -0.375,-0.1875 -0.375,-0.34375 0,-0.15625 0.125,-0.34375 0.28125,-0.453125 0.1875,-0.109375 0.421875,-0.125 0.546875,-0.125 0.140625,0 0.5,0.015625 0.65625,0.25 z m 0,0"
               id="path79594" />
          </symbol>
        </g>
      </defs>
      <g
         id="textext-85835f08-4">
        <g
           style="fill:#000000;fill-opacity:1"
           id="g79597">
          <use
             height="1052.3622"
             width="744.09448"
             xlink:href="#textext-85835f08-1"
             x="223.43201"
             y="134.765"
             id="use79599" />
        </g>
        <g
           style="fill:#000000;fill-opacity:1"
           id="g79601">
          <use
             height="1052.3622"
             width="744.09448"
             xlink:href="#textext-85835f08-3"
             x="227.812"
             y="136.259"
             id="use79603" />
        </g>
      </g>
    </g>
    <g
       id="g79755"
       transform="translate(-41.211516,42.400475)"
       ns0:preamble=""
       ns0:text="$\\left[\n\\begin{array}\n[c]{c}%\nI_s\\\\\n-I_s\n\\end{array}\n\\right]  =\\left[\n\\begin{array}\n[c]{cc}%\n0 &amp; 0\\\\\n0 &amp; 0\n\\end{array}\n\\right]  \\left[\n\\begin{array}\n[c]{c}%\nV_{1}\\\\\nV_{2}%\n\\end{array}\n\\right]  $">
      <defs
         id="defs79757">
        <g
           id="g79759">
          <symbol
             id="textext-543eb64b-0"
             overflow="visible"
             style="overflow:visible">
            <path
               id="path79762"
               d=""
               style="stroke:none"
               inkscape:connector-curvature="0" />
          </symbol>
          <symbol
             id="textext-543eb64b-1"
             overflow="visible"
             style="overflow:visible">
            <path
               id="path79765"
               d="m 2.5,23.515625 2.609375,0 0,-0.546875 -2.0625,0 0,-22.8125 2.0625,0 0,-0.5625 -2.609375,0 z m 0,0"
               style="stroke:none"
               inkscape:connector-curvature="0" />
          </symbol>
          <symbol
             id="textext-543eb64b-2"
             overflow="visible"
             style="overflow:visible">
            <path
               id="path79768"
               d="m 2.21875,22.96875 -2.078125,0 0,0.546875 2.625,0 0,-23.921875 -2.625,0 0,0.5625 2.078125,0 z m 0,0"
               style="stroke:none"
               inkscape:connector-curvature="0" />
          </symbol>
          <symbol
             id="textext-543eb64b-3"
             overflow="visible"
             style="overflow:visible">
            <path
               id="path79771"
               d=""
               style="stroke:none"
               inkscape:connector-curvature="0" />
          </symbol>
          <symbol
             id="textext-543eb64b-4"
             overflow="visible"
             style="overflow:visible">
            <path
               id="path79774"
               d="M 3.734375,-6.046875 C 3.8125,-6.40625 3.84375,-6.5 4.640625,-6.5 c 0.234375,0 0.3125,0 0.3125,-0.1875 0,-0.125 -0.109375,-0.125 -0.140625,-0.125 -0.296875,0 -1.03125,0.03125 -1.328125,0.03125 -0.296875,0 -1.015625,-0.03125 -1.328125,-0.03125 -0.0625,0 -0.1875,0 -0.1875,0.203125 C 1.96875,-6.5 2.046875,-6.5 2.25,-6.5 c 0.40625,0 0.6875,0 0.6875,0.1875 0,0.046875 0,0.078125 -0.03125,0.15625 l -1.34375,5.375 c -0.09375,0.375 -0.109375,0.46875 -0.90625,0.46875 -0.234375,0 -0.3125,0 -0.3125,0.203125 C 0.34375,0 0.453125,0 0.484375,0 0.78125,0 1.5,-0.03125 1.796875,-0.03125 2.09375,-0.03125 2.828125,0 3.125,0 c 0.078125,0 0.203125,0 0.203125,-0.1875 0,-0.125 -0.078125,-0.125 -0.296875,-0.125 -0.1875,0 -0.234375,0 -0.421875,-0.015625 -0.21875,-0.015625 -0.25,-0.0625 -0.25,-0.171875 0,-0.078125 0.015625,-0.15625 0.03125,-0.234375 z m 0,0"
               style="stroke:none"
               inkscape:connector-curvature="0" />
          </symbol>
          <symbol
             id="textext-543eb64b-5"
             overflow="visible"
             style="overflow:visible">
            <path
               id="path79777"
               d="M 6.265625,-5.671875 C 6.75,-6.453125 7.171875,-6.484375 7.53125,-6.5 c 0.125,-0.015625 0.140625,-0.171875 0.140625,-0.1875 0,-0.078125 -0.0625,-0.125 -0.140625,-0.125 -0.25,0 -0.546875,0.03125 -0.8125,0.03125 -0.328125,0 -0.671875,-0.03125 -0.984375,-0.03125 -0.0625,0 -0.1875,0 -0.1875,0.1875 0,0.109375 0.078125,0.125 0.15625,0.125 0.265625,0.015625 0.453125,0.125 0.453125,0.328125 0,0.15625 -0.140625,0.375 -0.140625,0.375 l -3.0625,4.875 -0.6875,-5.28125 C 2.265625,-6.375 2.5,-6.5 2.953125,-6.5 c 0.140625,0 0.25,0 0.25,-0.203125 0,-0.078125 -0.078125,-0.109375 -0.125,-0.109375 -0.40625,0 -0.828125,0.03125 -1.25,0.03125 -0.171875,0 -0.359375,0 -0.546875,0 -0.171875,0 -0.359375,-0.03125 -0.53125,-0.03125 -0.078125,0 -0.1875,0 -0.1875,0.1875 0,0.125 0.078125,0.125 0.25,0.125 0.546875,0 0.5625,0.09375 0.59375,0.34375 L 2.1875,-0.015625 C 2.21875,0.1875 2.265625,0.21875 2.390625,0.21875 c 0.15625,0 0.203125,-0.046875 0.28125,-0.171875 z m 0,0"
               style="stroke:none"
               inkscape:connector-curvature="0" />
          </symbol>
          <symbol
             id="textext-543eb64b-6"
             overflow="visible"
             style="overflow:visible">
            <path
               id="path79780"
               d=""
               style="stroke:none"
               inkscape:connector-curvature="0" />
          </symbol>
          <symbol
             id="textext-543eb64b-7"
             overflow="visible"
             style="overflow:visible">
            <path
               id="path79783"
               d="m 3,-2.625 c -0.171875,0.046875 -0.296875,0.1875 -0.296875,0.328125 0,0.171875 0.140625,0.234375 0.234375,0.234375 0.078125,0 0.34375,-0.046875 0.34375,-0.40625 0,-0.453125 -0.5,-0.609375 -0.9375,-0.609375 -1.078125,0 -1.28125,0.8125 -1.28125,1.015625 0,0.265625 0.15625,0.4375 0.25,0.515625 0.171875,0.140625 0.296875,0.171875 0.78125,0.25 0.15625,0.03125 0.59375,0.109375 0.59375,0.453125 0,0.125 -0.078125,0.390625 -0.359375,0.5625 C 2.046875,-0.125 1.703125,-0.125 1.625,-0.125 1.34375,-0.125 0.953125,-0.1875 0.78125,-0.421875 1.015625,-0.453125 1.171875,-0.625 1.171875,-0.8125 c 0,-0.171875 -0.125,-0.265625 -0.265625,-0.265625 -0.203125,0 -0.40625,0.171875 -0.40625,0.46875 0,0.421875 0.4375,0.671875 1.109375,0.671875 1.296875,0 1.53125,-0.875 1.53125,-1.140625 0,-0.640625 -0.703125,-0.765625 -0.96875,-0.8125 -0.0625,-0.015625 -0.234375,-0.046875 -0.28125,-0.0625 -0.25,-0.046875 -0.375,-0.1875 -0.375,-0.34375 0,-0.15625 0.125,-0.34375 0.28125,-0.453125 0.1875,-0.109375 0.421875,-0.125 0.546875,-0.125 0.140625,0 0.5,0.015625 0.65625,0.25 z m 0,0"
               style="stroke:none"
               inkscape:connector-curvature="0" />
          </symbol>
          <symbol
             id="textext-543eb64b-8"
             overflow="visible"
             style="overflow:visible">
            <path
               id="path79786"
               d=""
               style="stroke:none"
               inkscape:connector-curvature="0" />
          </symbol>
          <symbol
             id="textext-543eb64b-9"
             overflow="visible"
             style="overflow:visible">
            <path
               id="path79789"
               d="m 6.5625,-2.296875 c 0.171875,0 0.359375,0 0.359375,-0.203125 0,-0.1875 -0.1875,-0.1875 -0.359375,-0.1875 l -5.390625,0 c -0.171875,0 -0.34375,0 -0.34375,0.1875 0,0.203125 0.171875,0.203125 0.34375,0.203125 z m 0,0"
               style="stroke:none"
               inkscape:connector-curvature="0" />
          </symbol>
          <symbol
             id="textext-543eb64b-10"
             overflow="visible"
             style="overflow:visible">
            <path
               id="path79792"
               d=""
               style="stroke:none"
               inkscape:connector-curvature="0" />
          </symbol>
          <symbol
             id="textext-543eb64b-11"
             overflow="visible"
             style="overflow:visible">
            <path
               id="path79795"
               d="m 6.84375,-3.265625 c 0.15625,0 0.34375,0 0.34375,-0.1875 C 7.1875,-3.65625 7,-3.65625 6.859375,-3.65625 l -5.96875,0 c -0.140625,0 -0.328125,0 -0.328125,0.203125 0,0.1875 0.1875,0.1875 0.328125,0.1875 z m 0.015625,1.9375 c 0.140625,0 0.328125,0 0.328125,-0.203125 0,-0.1875 -0.1875,-0.1875 -0.34375,-0.1875 l -5.953125,0 c -0.140625,0 -0.328125,0 -0.328125,0.1875 0,0.203125 0.1875,0.203125 0.328125,0.203125 z m 0,0"
               style="stroke:none"
               inkscape:connector-curvature="0" />
          </symbol>
          <symbol
             id="textext-543eb64b-12"
             overflow="visible"
             style="overflow:visible">
            <path
               id="path79798"
               d="m 4.578125,-3.1875 c 0,-0.796875 -0.046875,-1.59375 -0.390625,-2.328125 -0.453125,-0.96875 -1.28125,-1.125 -1.6875,-1.125 -0.609375,0 -1.328125,0.265625 -1.75,1.1875 -0.3125,0.6875 -0.359375,1.46875 -0.359375,2.265625 0,0.75 0.03125,1.640625 0.453125,2.40625 0.421875,0.796875 1.15625,1 1.640625,1 0.53125,0 1.296875,-0.203125 1.734375,-1.15625 0.3125,-0.6875 0.359375,-1.46875 0.359375,-2.25 z M 2.484375,0 C 2.09375,0 1.5,-0.25 1.328125,-1.203125 1.21875,-1.796875 1.21875,-2.71875 1.21875,-3.3125 c 0,-0.640625 0,-1.296875 0.078125,-1.828125 0.1875,-1.1875 0.9375,-1.28125 1.1875,-1.28125 0.328125,0 0.984375,0.1875 1.171875,1.171875 0.109375,0.5625 0.109375,1.3125 0.109375,1.9375 0,0.75 0,1.421875 -0.109375,2.0625 C 3.5,-0.296875 2.9375,0 2.484375,0 z m 0,0"
               style="stroke:none"
               inkscape:connector-curvature="0" />
          </symbol>
          <symbol
             id="textext-543eb64b-13"
             overflow="visible"
             style="overflow:visible">
            <path
               id="path79801"
               d=""
               style="stroke:none"
               inkscape:connector-curvature="0" />
          </symbol>
          <symbol
             id="textext-543eb64b-14"
             overflow="visible"
             style="overflow:visible">
            <path
               id="path79804"
               d="m 2.328125,-4.4375 c 0,-0.1875 0,-0.1875 -0.203125,-0.1875 -0.453125,0.4375 -1.078125,0.4375 -1.359375,0.4375 l 0,0.25 c 0.15625,0 0.625,0 1,-0.1875 l 0,3.546875 c 0,0.234375 0,0.328125 -0.6875,0.328125 l -0.265625,0 0,0.25 c 0.125,0 0.984375,-0.03125 1.234375,-0.03125 0.21875,0 1.09375,0.03125 1.25,0.03125 l 0,-0.25 -0.265625,0 c -0.703125,0 -0.703125,-0.09375 -0.703125,-0.328125 z m 0,0"
               style="stroke:none"
               inkscape:connector-curvature="0" />
          </symbol>
          <symbol
             id="textext-543eb64b-15"
             overflow="visible"
             style="overflow:visible">
            <path
               id="path79807"
               d="m 3.515625,-1.265625 -0.234375,0 c -0.015625,0.15625 -0.09375,0.5625 -0.1875,0.625 -0.046875,0.046875 -0.578125,0.046875 -0.6875,0.046875 l -1.28125,0 c 0.734375,-0.640625 0.984375,-0.84375 1.390625,-1.171875 0.515625,-0.40625 1,-0.84375 1,-1.5 0,-0.84375 -0.734375,-1.359375 -1.625,-1.359375 -0.859375,0 -1.453125,0.609375 -1.453125,1.25 0,0.34375 0.296875,0.390625 0.375,0.390625 0.15625,0 0.359375,-0.125 0.359375,-0.375 0,-0.125 -0.046875,-0.375 -0.40625,-0.375 C 0.984375,-4.21875 1.453125,-4.375 1.78125,-4.375 c 0.703125,0 1.0625,0.546875 1.0625,1.109375 0,0.609375 -0.4375,1.078125 -0.65625,1.328125 L 0.515625,-0.265625 C 0.4375,-0.203125 0.4375,-0.1875 0.4375,0 l 2.875,0 z m 0,0"
               style="stroke:none"
               inkscape:connector-curvature="0" />
          </symbol>
        </g>
      </defs>
      <g
         id="textext-543eb64b-16">
        <g
           id="g79810"
           style="fill:#000000;fill-opacity:1">
          <use
             id="use79812"
             y="125.201"
             x="223.43201"
             xlink:href="#textext-543eb64b-1"
             width="744.09448"
             height="1052.3622" />
        </g>
        <g
           id="g79814"
           style="fill:#000000;fill-opacity:1">
          <use
             id="use79816"
             y="133.17101"
             x="237.54601"
             xlink:href="#textext-543eb64b-4"
             width="744.09448"
             height="1052.3622" />
        </g>
        <g
           id="g79818"
           style="fill:#000000;fill-opacity:1">
          <use
             id="use79820"
             y="134.66499"
             x="241.925"
             xlink:href="#textext-543eb64b-7"
             width="744.09448"
             height="1052.3622" />
        </g>
        <g
           id="g79822"
           style="fill:#000000;fill-opacity:1">
          <use
             id="use79824"
             y="145.12601"
             x="233.672"
             xlink:href="#textext-543eb64b-9"
             width="744.09448"
             height="1052.3622" />
        </g>
        <g
           id="g79826"
           style="fill:#000000;fill-opacity:1">
          <use
             id="use79828"
             y="145.12601"
             x="241.42"
             xlink:href="#textext-543eb64b-4"
             width="744.09448"
             height="1052.3622" />
        </g>
        <g
           id="g79830"
           style="fill:#000000;fill-opacity:1">
          <use
             id="use79832"
             y="146.62"
             x="245.8"
             xlink:href="#textext-543eb64b-7"
             width="744.09448"
             height="1052.3622" />
        </g>
        <g
           id="g79834"
           style="fill:#000000;fill-opacity:1">
          <use
             id="use79836"
             y="125.201"
             x="255.039"
             xlink:href="#textext-543eb64b-2"
             width="744.09448"
             height="1052.3622" />
        </g>
        <g
           id="g79838"
           style="fill:#000000;fill-opacity:1">
          <use
             id="use79840"
             y="139.248"
             x="263.065"
             xlink:href="#textext-543eb64b-11"
             width="744.09448"
             height="1052.3622" />
        </g>
        <g
           id="g79842"
           style="fill:#000000;fill-opacity:1">
          <use
             id="use79844"
             y="125.201"
             x="273.58099"
             xlink:href="#textext-543eb64b-1"
             width="744.09448"
             height="1052.3622" />
        </g>
        <g
           id="g79846"
           style="fill:#000000;fill-opacity:1">
          <use
             id="use79848"
             y="133.17101"
             x="283.82001"
             xlink:href="#textext-543eb64b-12"
             width="744.09448"
             height="1052.3622" />
        </g>
        <g
           id="g79850"
           style="fill:#000000;fill-opacity:1">
          <use
             id="use79852"
             y="133.17101"
             x="298.76389"
             xlink:href="#textext-543eb64b-12"
             width="744.09448"
             height="1052.3622" />
        </g>
        <g
           id="g79854"
           style="fill:#000000;fill-opacity:1">
          <use
             id="use79856"
             y="145.12601"
             x="283.82001"
             xlink:href="#textext-543eb64b-12"
             width="744.09448"
             height="1052.3622" />
        </g>
        <g
           id="g79858"
           style="fill:#000000;fill-opacity:1">
          <use
             id="use79860"
             y="145.12601"
             x="298.76389"
             xlink:href="#textext-543eb64b-12"
             width="744.09448"
             height="1052.3622" />
        </g>
        <g
           id="g79862"
           style="fill:#000000;fill-opacity:1">
          <use
             id="use79864"
             y="125.201"
             x="308.72699"
             xlink:href="#textext-543eb64b-2"
             width="744.09448"
             height="1052.3622" />
        </g>
        <g
           id="g79866"
           style="fill:#000000;fill-opacity:1">
          <use
             id="use79868"
             y="125.201"
             x="315.64902"
             xlink:href="#textext-543eb64b-1"
             width="744.09448"
             height="1052.3622" />
        </g>
        <g
           id="g79870"
           style="fill:#000000;fill-opacity:1">
          <use
             id="use79872"
             y="133.17101"
             x="325.88501"
             xlink:href="#textext-543eb64b-5"
             width="744.09448"
             height="1052.3622" />
        </g>
        <g
           id="g79874"
           style="fill:#000000;fill-opacity:1">
          <use
             id="use79876"
             y="134.66499"
             x="331.69601"
             xlink:href="#textext-543eb64b-14"
             width="744.09448"
             height="1052.3622" />
        </g>
        <g
           id="g79878"
           style="fill:#000000;fill-opacity:1">
          <use
             id="use79880"
             y="145.12601"
             x="325.88501"
             xlink:href="#textext-543eb64b-5"
             width="744.09448"
             height="1052.3622" />
        </g>
        <g
           id="g79882"
           style="fill:#000000;fill-opacity:1">
          <use
             id="use79884"
             y="146.621"
             x="331.69601"
             xlink:href="#textext-543eb64b-15"
             width="744.09448"
             height="1052.3622" />
        </g>
        <g
           id="g79886"
           style="fill:#000000;fill-opacity:1">
          <use
             id="use79888"
             y="125.201"
             x="341.147"
             xlink:href="#textext-543eb64b-2"
             width="744.09448"
             height="1052.3622" />
        </g>
      </g>
    </g>
    <rect
       width="425"
       height="105"
       x="25"
       y="112.36218"
       id="rect6470-9-4-1"
       style="fill:#0064ff;fill-opacity:0.0745098;stroke:none" />
  </g>
</svg>
