<?xml version="1.0" encoding="UTF-8" standalone="no"?>
<!-- Created with Inkscape (http://www.inkscape.org/) -->

<svg
   xmlns:ns0="http://www.iki.fi/pav/software/textext/"
   xmlns:dc="http://purl.org/dc/elements/1.1/"
   xmlns:cc="http://creativecommons.org/ns#"
   xmlns:rdf="http://www.w3.org/1999/02/22-rdf-syntax-ns#"
   xmlns:svg="http://www.w3.org/2000/svg"
   xmlns="http://www.w3.org/2000/svg"
   xmlns:xlink="http://www.w3.org/1999/xlink"
   xmlns:sodipodi="http://sodipodi.sourceforge.net/DTD/sodipodi-0.dtd"
   xmlns:inkscape="http://www.inkscape.org/namespaces/inkscape"
   width="425"
   height="105"
   id="svg14078"
   version="1.1"
   inkscape:version="0.48.4 r9939"
   sodipodi:docname="stampV.svg">
  <sodipodi:namedview
     id="base"
     pagecolor="#ffffff"
     bordercolor="#666666"
     borderopacity="1.0"
     inkscape:pageopacity="0.0"
     inkscape:pageshadow="2"
     inkscape:zoom="2.8"
     inkscape:cx="216.99908"
     inkscape:cy="6.33099"
     inkscape:document-units="px"
     inkscape:current-layer="layer1"
     showgrid="true"
     inkscape:object-paths="true"
     inkscape:object-nodes="true"
     inkscape:window-width="1665"
     inkscape:window-height="1028"
     inkscape:window-x="66"
     inkscape:window-y="0"
     inkscape:window-maximized="0"
     fit-margin-top="0"
     fit-margin-left="0"
     fit-margin-right="0"
     fit-margin-bottom="0">
    <inkscape:grid
       id="grid14086"
       type="xygrid"
       empspacing="5"
       visible="true"
       enabled="true"
       snapvisiblegridlinesonly="true"
       originx="55px"
       originy="-855px" />
  </sodipodi:namedview>
  <defs
     id="defs14080">
    <marker
       style="overflow:visible"
       id="Arrow2Mend-00"
       refX="0"
       refY="0"
       orient="auto"
       inkscape:stockid="Arrow2Mend">
      <path
         transform="scale(-0.6,-0.6)"
         d="M 8.7185878,4.0337352 -2.2072895,0.01601326 8.7185884,-4.0017078 c -1.7454984,2.3720609 -1.7354408,5.6174519 -6e-7,8.035443 z"
         style="font-size:12px;fill-rule:evenodd;stroke-width:0.625;stroke-linejoin:round"
         id="path5872-4"
         inkscape:connector-curvature="0" />
    </marker>
    <marker
       inkscape:stockid="Arrow2Mend"
       orient="auto"
       refY="0"
       refX="0"
       id="Arrow2Mend-00-6"
       style="overflow:visible">
      <path
         inkscape:connector-curvature="0"
         id="path5872-4-75"
         style="font-size:12px;fill-rule:evenodd;stroke-width:0.625;stroke-linejoin:round"
         d="M 8.7185878,4.0337352 -2.2072895,0.01601326 8.7185884,-4.0017078 c -1.7454984,2.3720609 -1.7354408,5.6174519 -6e-7,8.035443 z"
         transform="scale(-0.6,-0.6)" />
    </marker>
  </defs>
  <metadata
     id="metadata14083">
    <rdf:RDF>
      <cc:Work
         rdf:about="">
        <dc:format>image/svg+xml</dc:format>
        <dc:type
           rdf:resource="http://purl.org/dc/dcmitype/StillImage" />
        <dc:title />
      </cc:Work>
    </rdf:RDF>
  </metadata>
  <g
     id="layer1"
     inkscape:groupmode="layer"
     inkscape:label="Layer 1"
     transform="translate(55,-92.362183)">
    <g
       transform="translate(-44.999997,-108.00002)"
       id="g60446">
      <g
         transform="translate(-345,-3022.63)"
         id="g5537">
        <path
           d="m 485,3292.9922 c 0,5.5229 -4.47716,10 -10,10 -5.52285,0 -10,-4.4771 -10,-10 0,-5.5229 4.47715,-10 10,-10 5.52284,0 10,4.4771 10,10 l 0,0 z"
           id="path3187-6"
           style="fill:none;stroke:#000000;stroke-width:1;stroke-miterlimit:4;stroke-opacity:1;stroke-dasharray:none"
           inkscape:connector-curvature="0" />
        <path
           style="fill:none;stroke:#000000;stroke-width:1px;stroke-linecap:round;stroke-linejoin:miter;stroke-opacity:1"
           d="m 475,3302.9922 0,10"
           id="path4195-6-2-9-61-7-9"
           inkscape:connector-curvature="0" />
        <path
           style="fill:none;stroke:#000000;stroke-width:1px;stroke-linecap:round;stroke-linejoin:miter;stroke-opacity:1"
           d="m 475,3272.9922 0,10"
           id="path4195-6-2-9-61-6-2"
           inkscape:connector-curvature="0" />
        <path
           style="fill:none;stroke:#000000;stroke-width:1;stroke-linecap:round;stroke-linejoin:miter;stroke-miterlimit:4;stroke-opacity:1;stroke-dasharray:none"
           d="m 475,3303.4881 0,-20"
           id="path4195-6-2-9-61-4-6"
           inkscape:connector-curvature="0" />
        <g
           transform="translate(325,49.999883)"
           id="g5289-3-6">
          <text
             transform="scale(0.99120711,1.0088709)"
             id="text4305-26-0-9-5-5-3-1-4"
             y="3204.5649"
             x="156.37498"
             style="font-size:9.32415676px;font-style:normal;font-weight:normal;fill:#000000;fill-opacity:1;stroke:none;font-family:Bitstream Vera Sans"
             xml:space="preserve"><tspan
               y="3204.5649"
               x="156.37498"
               id="tspan4307-1-5-3-2-2-8-1-9"
               sodipodi:role="line">+</tspan></text>
          <text
             transform="scale(1.4316841,0.69847811)"
             id="text4305-2-4-0-0-6-7-1-6-03-5"
             y="4664.4155"
             x="108.26411"
             style="font-size:15.34822845px;font-style:normal;font-weight:normal;fill:#000000;fill-opacity:1;stroke:none;font-family:Bitstream Vera Sans"
             xml:space="preserve"><tspan
               y="4664.4155"
               x="108.26411"
               id="tspan4307-7-9-9-4-2-9-5-0-40-0"
               sodipodi:role="line">-</tspan></text>
        </g>
      </g>
      <path
         transform="matrix(2,0,0,1.9999986,-482,193.63786)"
         d="m 307,28.362183 c 0,0.552284 -0.44772,1 -1,1 -0.55228,0 -1,-0.447716 -1,-1 0,-0.552285 0.44772,-1 1,-1 0.55228,0 1,0.447715 1,1 z"
         sodipodi:ry="1"
         sodipodi:rx="1"
         sodipodi:cy="28.362183"
         sodipodi:cx="306"
         id="path6451-2-6"
         style="fill:#000000;fill-opacity:1;stroke:#000000;stroke-opacity:1"
         sodipodi:type="arc" />
      <path
         transform="matrix(2,0,0,1.9999986,-482,233.63786)"
         d="m 307,28.362183 c 0,0.552284 -0.44772,1 -1,1 -0.55228,0 -1,-0.447716 -1,-1 0,-0.552285 0.44772,-1 1,-1 0.55228,0 1,0.447715 1,1 z"
         sodipodi:ry="1"
         sodipodi:rx="1"
         sodipodi:cy="28.362183"
         sodipodi:cx="306"
         id="path6451-2-0"
         style="fill:#000000;fill-opacity:1;stroke:#000000;stroke-opacity:1"
         sodipodi:type="arc" />
      <text
         xml:space="preserve"
         style="font-size:8px;font-style:normal;font-variant:normal;font-weight:normal;font-stretch:normal;text-align:start;line-height:100%;writing-mode:lr-tb;text-anchor:start;fill:#000000;fill-opacity:1;stroke:none;font-family:Arial;-inkscape-font-specification:Arial"
         x="115"
         y="290.36221"
         id="text60130-9-2"
         sodipodi:linespacing="100%"><tspan
           sodipodi:role="line"
           id="tspan60132-3-1"
           x="115"
           y="290.36221">(2)</tspan></text>
      <text
         xml:space="preserve"
         style="font-size:8px;font-style:normal;font-variant:normal;font-weight:normal;font-stretch:normal;text-align:start;line-height:100%;writing-mode:lr-tb;text-anchor:start;fill:#000000;fill-opacity:1;stroke:none;font-family:Arial;-inkscape-font-specification:Arial"
         x="115"
         y="250.3622"
         id="text60130-0"
         sodipodi:linespacing="100%"><tspan
           sodipodi:role="line"
           id="tspan60132-5"
           x="115"
           y="250.3622">(1)</tspan></text>
    </g>
    <text
       sodipodi:linespacing="100%"
       id="text60370-1"
       y="127.36218"
       x="50"
       style="font-size:8px;font-style:normal;font-variant:normal;font-weight:bold;font-stretch:normal;text-align:start;line-height:100%;writing-mode:lr-tb;text-anchor:start;fill:#000000;fill-opacity:1;stroke:none;font-family:Courier New;-inkscape-font-specification:Courier New Bold"
       xml:space="preserve"><tspan
         y="127.36218"
         x="50"
         id="tspan60372-0"
         sodipodi:role="line">Vx 1 2 {V}</tspan></text>
    <text
       xml:space="preserve"
       style="font-size:10px;font-style:normal;font-variant:normal;font-weight:normal;font-stretch:normal;text-align:start;line-height:125%;letter-spacing:0px;word-spacing:0px;writing-mode:lr-tb;text-anchor:start;fill:#000000;fill-opacity:1;stroke:none;font-family:Sans;-inkscape-font-specification:Sans"
       x="50"
       y="112.36218"
       id="text13474-1"
       sodipodi:linespacing="125%"><tspan
         sodipodi:role="line"
         id="tspan13476-2"
         x="50"
         y="112.36218">Independent voltage source</tspan></text>
    <path
       style="fill:none;stroke:#000000;stroke-width:1px;stroke-linecap:butt;stroke-linejoin:miter;stroke-opacity:1;marker-end:url(#Arrow2Mend-00-6)"
       d="m 70.000003,152.36218 0,20"
       id="path26135-46"
       inkscape:connector-curvature="0" />
    <rect
       style="fill:#0064ff;fill-opacity:0.0745098;stroke:none"
       id="rect6470-9-4-1"
       y="92.362183"
       x="-55"
       height="105"
       width="425" />
    <g
       id="g19638"
       transform="translate(-96.296914,17.704218)"
       ns0:preamble=""
       ns0:text="$\\left[\n\\begin{array}\n[c]{c}%\n0\\\\\n0\\\\\nV\n\\end{array}\n\\right]  =\\left[\n\\begin{array}\n[c]{ccc}%\n0 &amp; 0 &amp; 1\\\\\n0 &amp; 0 &amp; -1\\\\\n1 &amp; -1 &amp; 0\n\\end{array}\n\\right]  \\left[\n\\begin{array}\n[c]{c}%\nV_{1}\\\\\nV_{2}\\\\\nI_{Vx}%\n\\end{array}\n\\right]  $">
      <defs
         id="defs19640">
        <g
           id="g19642">
          <symbol
             id="textext-afbfda97-0"
             overflow="visible"
             style="overflow:visible">
            <path
               id="path19645"
               d=""
               style="stroke:none"
               inkscape:connector-curvature="0" />
          </symbol>
          <symbol
             id="textext-afbfda97-1"
             overflow="visible"
             style="overflow:visible">
            <path
               id="path19648"
               d="m 3.25,17.546875 0.6875,0 0,-17.25 2.625,0 0,-0.6875 -3.3125,0 z m 0,0"
               style="stroke:none"
               inkscape:connector-curvature="0" />
          </symbol>
          <symbol
             id="textext-afbfda97-2"
             overflow="visible"
             style="overflow:visible">
            <path
               id="path19651"
               d="m 3.25,17.53125 3.3125,0 0,-0.6875 -2.625,0 0,-17.25 -0.6875,0 z m 0,0"
               style="stroke:none"
               inkscape:connector-curvature="0" />
          </symbol>
          <symbol
             id="textext-afbfda97-3"
             overflow="visible"
             style="overflow:visible">
            <path
               id="path19654"
               d="m 2.703125,17.546875 0.6875,0 0,-17.9375 -3.328125,0 0,0.6875 2.640625,0 z m 0,0"
               style="stroke:none"
               inkscape:connector-curvature="0" />
          </symbol>
          <symbol
             id="textext-afbfda97-4"
             overflow="visible"
             style="overflow:visible">
            <path
               id="path19657"
               d="m 2.703125,16.84375 -2.640625,0 0,0.6875 3.328125,0 0,-17.9375 -0.6875,0 z m 0,0"
               style="stroke:none"
               inkscape:connector-curvature="0" />
          </symbol>
          <symbol
             id="textext-afbfda97-5"
             overflow="visible"
             style="overflow:visible">
            <path
               id="path19660"
               d=""
               style="stroke:none"
               inkscape:connector-curvature="0" />
          </symbol>
          <symbol
             id="textext-afbfda97-6"
             overflow="visible"
             style="overflow:visible">
            <path
               id="path19663"
               d="m 4.578125,-3.1875 c 0,-0.796875 -0.046875,-1.59375 -0.390625,-2.328125 -0.453125,-0.96875 -1.28125,-1.125 -1.6875,-1.125 -0.609375,0 -1.328125,0.265625 -1.75,1.1875 -0.3125,0.6875 -0.359375,1.46875 -0.359375,2.265625 0,0.75 0.03125,1.640625 0.453125,2.40625 0.421875,0.796875 1.15625,1 1.640625,1 0.53125,0 1.296875,-0.203125 1.734375,-1.15625 0.3125,-0.6875 0.359375,-1.46875 0.359375,-2.25 z M 2.484375,0 C 2.09375,0 1.5,-0.25 1.328125,-1.203125 1.21875,-1.796875 1.21875,-2.71875 1.21875,-3.3125 c 0,-0.640625 0,-1.296875 0.078125,-1.828125 0.1875,-1.1875 0.9375,-1.28125 1.1875,-1.28125 0.328125,0 0.984375,0.1875 1.171875,1.171875 0.109375,0.5625 0.109375,1.3125 0.109375,1.9375 0,0.75 0,1.421875 -0.109375,2.0625 C 3.5,-0.296875 2.9375,0 2.484375,0 z m 0,0"
               style="stroke:none"
               inkscape:connector-curvature="0" />
          </symbol>
          <symbol
             id="textext-afbfda97-7"
             overflow="visible"
             style="overflow:visible">
            <path
               id="path19666"
               d="m 6.84375,-3.265625 c 0.15625,0 0.34375,0 0.34375,-0.1875 C 7.1875,-3.65625 7,-3.65625 6.859375,-3.65625 l -5.96875,0 c -0.140625,0 -0.328125,0 -0.328125,0.203125 0,0.1875 0.1875,0.1875 0.328125,0.1875 z m 0.015625,1.9375 c 0.140625,0 0.328125,0 0.328125,-0.203125 0,-0.1875 -0.1875,-0.1875 -0.34375,-0.1875 l -5.953125,0 c -0.140625,0 -0.328125,0 -0.328125,0.1875 0,0.203125 0.1875,0.203125 0.328125,0.203125 z m 0,0"
               style="stroke:none"
               inkscape:connector-curvature="0" />
          </symbol>
          <symbol
             id="textext-afbfda97-8"
             overflow="visible"
             style="overflow:visible">
            <path
               id="path19669"
               d="m 2.9375,-6.375 c 0,-0.25 0,-0.265625 -0.234375,-0.265625 C 2.078125,-6 1.203125,-6 0.890625,-6 l 0,0.3125 c 0.203125,0 0.78125,0 1.296875,-0.265625 l 0,5.171875 c 0,0.359375 -0.03125,0.46875 -0.921875,0.46875 l -0.3125,0 0,0.3125 c 0.34375,-0.03125 1.203125,-0.03125 1.609375,-0.03125 0.390625,0 1.265625,0 1.609375,0.03125 l 0,-0.3125 -0.3125,0 c -0.90625,0 -0.921875,-0.109375 -0.921875,-0.46875 z m 0,0"
               style="stroke:none"
               inkscape:connector-curvature="0" />
          </symbol>
          <symbol
             id="textext-afbfda97-9"
             overflow="visible"
             style="overflow:visible">
            <path
               id="path19672"
               d=""
               style="stroke:none"
               inkscape:connector-curvature="0" />
          </symbol>
          <symbol
             id="textext-afbfda97-10"
             overflow="visible"
             style="overflow:visible">
            <path
               id="path19675"
               d="M 6.265625,-5.671875 C 6.75,-6.453125 7.171875,-6.484375 7.53125,-6.5 c 0.125,-0.015625 0.140625,-0.171875 0.140625,-0.1875 0,-0.078125 -0.0625,-0.125 -0.140625,-0.125 -0.25,0 -0.546875,0.03125 -0.8125,0.03125 -0.328125,0 -0.671875,-0.03125 -0.984375,-0.03125 -0.0625,0 -0.1875,0 -0.1875,0.1875 0,0.109375 0.078125,0.125 0.15625,0.125 0.265625,0.015625 0.453125,0.125 0.453125,0.328125 0,0.15625 -0.140625,0.375 -0.140625,0.375 l -3.0625,4.875 -0.6875,-5.28125 C 2.265625,-6.375 2.5,-6.5 2.953125,-6.5 c 0.140625,0 0.25,0 0.25,-0.203125 0,-0.078125 -0.078125,-0.109375 -0.125,-0.109375 -0.40625,0 -0.828125,0.03125 -1.25,0.03125 -0.171875,0 -0.359375,0 -0.546875,0 -0.171875,0 -0.359375,-0.03125 -0.53125,-0.03125 -0.078125,0 -0.1875,0 -0.1875,0.1875 0,0.125 0.078125,0.125 0.25,0.125 0.546875,0 0.5625,0.09375 0.59375,0.34375 L 2.1875,-0.015625 C 2.21875,0.1875 2.265625,0.21875 2.390625,0.21875 c 0.15625,0 0.203125,-0.046875 0.28125,-0.171875 z m 0,0"
               style="stroke:none"
               inkscape:connector-curvature="0" />
          </symbol>
          <symbol
             id="textext-afbfda97-11"
             overflow="visible"
             style="overflow:visible">
            <path
               id="path19678"
               d="M 3.734375,-6.046875 C 3.8125,-6.40625 3.84375,-6.5 4.640625,-6.5 c 0.234375,0 0.3125,0 0.3125,-0.1875 0,-0.125 -0.109375,-0.125 -0.140625,-0.125 -0.296875,0 -1.03125,0.03125 -1.328125,0.03125 -0.296875,0 -1.015625,-0.03125 -1.328125,-0.03125 -0.0625,0 -0.1875,0 -0.1875,0.203125 C 1.96875,-6.5 2.046875,-6.5 2.25,-6.5 c 0.40625,0 0.6875,0 0.6875,0.1875 0,0.046875 0,0.078125 -0.03125,0.15625 l -1.34375,5.375 c -0.09375,0.375 -0.109375,0.46875 -0.90625,0.46875 -0.234375,0 -0.3125,0 -0.3125,0.203125 C 0.34375,0 0.453125,0 0.484375,0 0.78125,0 1.5,-0.03125 1.796875,-0.03125 2.09375,-0.03125 2.828125,0 3.125,0 c 0.078125,0 0.203125,0 0.203125,-0.1875 0,-0.125 -0.078125,-0.125 -0.296875,-0.125 -0.1875,0 -0.234375,0 -0.421875,-0.015625 -0.21875,-0.015625 -0.25,-0.0625 -0.25,-0.171875 0,-0.078125 0.015625,-0.15625 0.03125,-0.234375 z m 0,0"
               style="stroke:none"
               inkscape:connector-curvature="0" />
          </symbol>
          <symbol
             id="textext-afbfda97-12"
             overflow="visible"
             style="overflow:visible">
            <path
               id="path19681"
               d=""
               style="stroke:none"
               inkscape:connector-curvature="0" />
          </symbol>
          <symbol
             id="textext-afbfda97-13"
             overflow="visible"
             style="overflow:visible">
            <path
               id="path19684"
               d="m 6.5625,-2.296875 c 0.171875,0 0.359375,0 0.359375,-0.203125 0,-0.1875 -0.1875,-0.1875 -0.359375,-0.1875 l -5.390625,0 c -0.171875,0 -0.34375,0 -0.34375,0.1875 0,0.203125 0.171875,0.203125 0.34375,0.203125 z m 0,0"
               style="stroke:none"
               inkscape:connector-curvature="0" />
          </symbol>
          <symbol
             id="textext-afbfda97-14"
             overflow="visible"
             style="overflow:visible">
            <path
               id="path19687"
               d=""
               style="stroke:none"
               inkscape:connector-curvature="0" />
          </symbol>
          <symbol
             id="textext-afbfda97-15"
             overflow="visible"
             style="overflow:visible">
            <path
               id="path19690"
               d="m 2.328125,-4.4375 c 0,-0.1875 0,-0.1875 -0.203125,-0.1875 -0.453125,0.4375 -1.078125,0.4375 -1.359375,0.4375 l 0,0.25 c 0.15625,0 0.625,0 1,-0.1875 l 0,3.546875 c 0,0.234375 0,0.328125 -0.6875,0.328125 l -0.265625,0 0,0.25 c 0.125,0 0.984375,-0.03125 1.234375,-0.03125 0.21875,0 1.09375,0.03125 1.25,0.03125 l 0,-0.25 -0.265625,0 c -0.703125,0 -0.703125,-0.09375 -0.703125,-0.328125 z m 0,0"
               style="stroke:none"
               inkscape:connector-curvature="0" />
          </symbol>
          <symbol
             id="textext-afbfda97-16"
             overflow="visible"
             style="overflow:visible">
            <path
               id="path19693"
               d="m 3.515625,-1.265625 -0.234375,0 c -0.015625,0.15625 -0.09375,0.5625 -0.1875,0.625 -0.046875,0.046875 -0.578125,0.046875 -0.6875,0.046875 l -1.28125,0 c 0.734375,-0.640625 0.984375,-0.84375 1.390625,-1.171875 0.515625,-0.40625 1,-0.84375 1,-1.5 0,-0.84375 -0.734375,-1.359375 -1.625,-1.359375 -0.859375,0 -1.453125,0.609375 -1.453125,1.25 0,0.34375 0.296875,0.390625 0.375,0.390625 0.15625,0 0.359375,-0.125 0.359375,-0.375 0,-0.125 -0.046875,-0.375 -0.40625,-0.375 C 0.984375,-4.21875 1.453125,-4.375 1.78125,-4.375 c 0.703125,0 1.0625,0.546875 1.0625,1.109375 0,0.609375 -0.4375,1.078125 -0.65625,1.328125 L 0.515625,-0.265625 C 0.4375,-0.203125 0.4375,-0.1875 0.4375,0 l 2.875,0 z m 0,0"
               style="stroke:none"
               inkscape:connector-curvature="0" />
          </symbol>
          <symbol
             id="textext-afbfda97-17"
             overflow="visible"
             style="overflow:visible">
            <path
               id="path19696"
               d=""
               style="stroke:none"
               inkscape:connector-curvature="0" />
          </symbol>
          <symbol
             id="textext-afbfda97-18"
             overflow="visible"
             style="overflow:visible">
            <path
               id="path19699"
               d="m 4.984375,-3.9375 c 0.25,-0.375 0.484375,-0.546875 0.859375,-0.578125 0.078125,0 0.15625,0 0.15625,-0.140625 0,-0.03125 -0.015625,-0.109375 -0.09375,-0.109375 -0.171875,0 -0.390625,0.03125 -0.5625,0.03125 -0.21875,0 -0.515625,-0.03125 -0.71875,-0.03125 -0.0625,0 -0.140625,0.03125 -0.140625,0.15625 0,0.09375 0.09375,0.09375 0.125,0.09375 0.21875,0.015625 0.28125,0.109375 0.28125,0.203125 0,0.109375 -0.046875,0.171875 -0.125,0.28125 l -2.28125,3.375 -0.640625,-3.5625 c -0.015625,-0.0625 -0.015625,-0.078125 -0.015625,-0.109375 0,-0.1875 0.390625,-0.1875 0.4375,-0.1875 0.125,0 0.21875,0 0.21875,-0.140625 0,-0.015625 -0.015625,-0.109375 -0.125,-0.109375 -0.203125,0 -0.6875,0.03125 -0.890625,0.03125 -0.171875,0 -0.609375,-0.03125 -0.78125,-0.03125 -0.0625,0 -0.140625,0.03125 -0.140625,0.15625 0,0.09375 0.09375,0.09375 0.171875,0.09375 0.390625,0 0.40625,0.046875 0.4375,0.234375 l 0.765625,4.234375 c 0.015625,0.140625 0.03125,0.1875 0.15625,0.1875 0.140625,0 0.171875,-0.046875 0.25,-0.15625 z m 0,0"
               style="stroke:none"
               inkscape:connector-curvature="0" />
          </symbol>
          <symbol
             id="textext-afbfda97-19"
             overflow="visible"
             style="overflow:visible">
            <path
               id="path19702"
               d="M 1.734375,-0.734375 C 1.671875,-0.5 1.4375,-0.125 1.078125,-0.125 c -0.015625,0 -0.234375,0 -0.375,-0.09375 0.28125,-0.09375 0.3125,-0.34375 0.3125,-0.390625 0,-0.15625 -0.125,-0.25 -0.28125,-0.25 -0.203125,0 -0.40625,0.15625 -0.40625,0.421875 0,0.34375 0.390625,0.5 0.734375,0.5 0.328125,0 0.609375,-0.1875 0.78125,-0.484375 C 2.015625,-0.0625 2.390625,0.0625 2.671875,0.0625 c 0.8125,0 1.234375,-0.859375 1.234375,-1.0625 0,-0.09375 -0.09375,-0.09375 -0.109375,-0.09375 -0.109375,0 -0.109375,0.046875 -0.140625,0.125 -0.140625,0.484375 -0.5625,0.84375 -0.953125,0.84375 -0.28125,0 -0.421875,-0.1875 -0.421875,-0.453125 0,-0.1875 0.171875,-0.8125 0.359375,-1.59375 C 2.78125,-2.703125 3.09375,-2.875 3.328125,-2.875 c 0.015625,0 0.21875,0 0.375,0.09375 -0.21875,0.0625 -0.3125,0.265625 -0.3125,0.390625 0,0.140625 0.125,0.25 0.28125,0.25 0.15625,0 0.390625,-0.125 0.390625,-0.421875 0,-0.390625 -0.453125,-0.515625 -0.71875,-0.515625 -0.359375,0 -0.640625,0.234375 -0.78125,0.5 -0.125,-0.28125 -0.453125,-0.5 -0.84375,-0.5 C 0.9375,-3.078125 0.5,-2.21875 0.5,-2 c 0,0.078125 0.09375,0.078125 0.109375,0.078125 0.09375,0 0.09375,-0.015625 0.140625,-0.109375 C 0.921875,-2.578125 1.359375,-2.875 1.703125,-2.875 1.9375,-2.875 2.125,-2.75 2.125,-2.421875 2.125,-2.28125 2.03125,-1.9375 1.96875,-1.6875 z m 0,0"
               style="stroke:none"
               inkscape:connector-curvature="0" />
          </symbol>
        </g>
      </defs>
      <g
         id="textext-afbfda97-20">
        <g
           id="g19705"
           style="fill:#000000;fill-opacity:1">
          <use
             id="use19707"
             y="125.201"
             x="223.43201"
             xlink:href="#textext-afbfda97-1"
             width="744.09448"
             height="1052.3622" />
        </g>
        <g
           id="g19709"
           style="fill:#000000;fill-opacity:1">
          <use
             id="use19711"
             y="143.134"
             x="223.43201"
             xlink:href="#textext-afbfda97-2"
             width="744.09448"
             height="1052.3622" />
        </g>
        <g
           id="g19713"
           style="fill:#000000;fill-opacity:1">
          <use
             id="use19715"
             y="133.17101"
             x="236.577"
             xlink:href="#textext-afbfda97-6"
             width="744.09448"
             height="1052.3622" />
        </g>
        <g
           id="g19717"
           style="fill:#000000;fill-opacity:1">
          <use
             id="use19719"
             y="145.12601"
             x="236.577"
             xlink:href="#textext-afbfda97-6"
             width="744.09448"
             height="1052.3622" />
        </g>
        <g
           id="g19721"
           style="fill:#000000;fill-opacity:1">
          <use
             id="use19723"
             y="157.08099"
             x="235.05499"
             xlink:href="#textext-afbfda97-10"
             width="744.09448"
             height="1052.3622" />
        </g>
        <g
           id="g19725"
           style="fill:#000000;fill-opacity:1">
          <use
             id="use19727"
             y="125.201"
             x="248.062"
             xlink:href="#textext-afbfda97-3"
             width="744.09448"
             height="1052.3622" />
        </g>
        <g
           id="g19729"
           style="fill:#000000;fill-opacity:1">
          <use
             id="use19731"
             y="143.134"
             x="248.062"
             xlink:href="#textext-afbfda97-4"
             width="744.09448"
             height="1052.3622" />
        </g>
        <g
           id="g19733"
           style="fill:#000000;fill-opacity:1">
          <use
             id="use19735"
             y="145.226"
             x="257.47101"
             xlink:href="#textext-afbfda97-7"
             width="744.09448"
             height="1052.3622" />
        </g>
        <g
           id="g19737"
           style="fill:#000000;fill-opacity:1">
          <use
             id="use19739"
             y="125.201"
             x="267.987"
             xlink:href="#textext-afbfda97-1"
             width="744.09448"
             height="1052.3622" />
        </g>
        <g
           id="g19741"
           style="fill:#000000;fill-opacity:1">
          <use
             id="use19743"
             y="143.134"
             x="267.987"
             xlink:href="#textext-afbfda97-2"
             width="744.09448"
             height="1052.3622" />
        </g>
        <g
           id="g19745"
           style="fill:#000000;fill-opacity:1">
          <use
             id="use19747"
             y="133.17101"
             x="279.60999"
             xlink:href="#textext-afbfda97-6"
             width="744.09448"
             height="1052.3622" />
        </g>
        <g
           id="g19749"
           style="fill:#000000;fill-opacity:1">
          <use
             id="use19751"
             y="133.17101"
             x="298.42935"
             xlink:href="#textext-afbfda97-6"
             width="744.09448"
             height="1052.3622" />
        </g>
        <g
           id="g19753"
           style="fill:#000000;fill-opacity:1">
          <use
             id="use19755"
             y="133.17101"
             x="321.12415"
             xlink:href="#textext-afbfda97-8"
             width="744.09448"
             height="1052.3622" />
        </g>
        <g
           id="g19757"
           style="fill:#000000;fill-opacity:1">
          <use
             id="use19759"
             y="145.12601"
             x="279.60999"
             xlink:href="#textext-afbfda97-6"
             width="744.09448"
             height="1052.3622" />
        </g>
        <g
           id="g19761"
           style="fill:#000000;fill-opacity:1">
          <use
             id="use19763"
             y="145.12601"
             x="298.42935"
             xlink:href="#textext-afbfda97-6"
             width="744.09448"
             height="1052.3622" />
        </g>
        <g
           id="g19765"
           style="fill:#000000;fill-opacity:1">
          <use
             id="use19767"
             y="145.12601"
             x="317.24701"
             xlink:href="#textext-afbfda97-13"
             width="744.09448"
             height="1052.3622" />
        </g>
        <g
           id="g19769"
           style="fill:#000000;fill-opacity:1">
          <use
             id="use19771"
             y="145.12601"
             x="324.996"
             xlink:href="#textext-afbfda97-8"
             width="744.09448"
             height="1052.3622" />
        </g>
        <g
           id="g19773"
           style="fill:#000000;fill-opacity:1">
          <use
             id="use19775"
             y="157.08099"
             x="279.60999"
             xlink:href="#textext-afbfda97-8"
             width="744.09448"
             height="1052.3622" />
        </g>
        <g
           id="g19777"
           style="fill:#000000;fill-opacity:1">
          <use
             id="use19779"
             y="157.08099"
             x="294.55399"
             xlink:href="#textext-afbfda97-13"
             width="744.09448"
             height="1052.3622" />
        </g>
        <g
           id="g19781"
           style="fill:#000000;fill-opacity:1">
          <use
             id="use19783"
             y="157.08099"
             x="302.30301"
             xlink:href="#textext-afbfda97-8"
             width="744.09448"
             height="1052.3622" />
        </g>
        <g
           id="g19785"
           style="fill:#000000;fill-opacity:1">
          <use
             id="use19787"
             y="157.08099"
             x="321.12234"
             xlink:href="#textext-afbfda97-6"
             width="744.09448"
             height="1052.3622" />
        </g>
        <g
           id="g19789"
           style="fill:#000000;fill-opacity:1">
          <use
             id="use19791"
             y="125.201"
             x="334.95801"
             xlink:href="#textext-afbfda97-3"
             width="744.09448"
             height="1052.3622" />
        </g>
        <g
           id="g19793"
           style="fill:#000000;fill-opacity:1">
          <use
             id="use19795"
             y="143.134"
             x="334.95801"
             xlink:href="#textext-afbfda97-4"
             width="744.09448"
             height="1052.3622" />
        </g>
        <g
           id="g19797"
           style="fill:#000000;fill-opacity:1">
          <use
             id="use19799"
             y="125.201"
             x="343.26099"
             xlink:href="#textext-afbfda97-1"
             width="744.09448"
             height="1052.3622" />
        </g>
        <g
           id="g19801"
           style="fill:#000000;fill-opacity:1">
          <use
             id="use19803"
             y="143.134"
             x="343.26099"
             xlink:href="#textext-afbfda97-2"
             width="744.09448"
             height="1052.3622" />
        </g>
        <g
           id="g19805"
           style="fill:#000000;fill-opacity:1">
          <use
             id="use19807"
             y="133.17101"
             x="357.651"
             xlink:href="#textext-afbfda97-10"
             width="744.09448"
             height="1052.3622" />
        </g>
        <g
           id="g19809"
           style="fill:#000000;fill-opacity:1">
          <use
             id="use19811"
             y="134.66499"
             x="363.46301"
             xlink:href="#textext-afbfda97-15"
             width="744.09448"
             height="1052.3622" />
        </g>
        <g
           id="g19813"
           style="fill:#000000;fill-opacity:1">
          <use
             id="use19815"
             y="145.12601"
             x="357.651"
             xlink:href="#textext-afbfda97-10"
             width="744.09448"
             height="1052.3622" />
        </g>
        <g
           id="g19817"
           style="fill:#000000;fill-opacity:1">
          <use
             id="use19819"
             y="146.621"
             x="363.46301"
             xlink:href="#textext-afbfda97-16"
             width="744.09448"
             height="1052.3622" />
        </g>
        <g
           id="g19821"
           style="fill:#000000;fill-opacity:1">
          <use
             id="use19823"
             y="157.08099"
             x="354.884"
             xlink:href="#textext-afbfda97-11"
             width="744.09448"
             height="1052.3622" />
        </g>
        <g
           id="g19825"
           style="fill:#000000;fill-opacity:1">
          <use
             id="use19827"
             y="158.576"
             x="359.263"
             xlink:href="#textext-afbfda97-18"
             width="744.09448"
             height="1052.3622" />
        </g>
        <g
           id="g19829"
           style="fill:#000000;fill-opacity:1">
          <use
             id="use19831"
             y="158.576"
             x="365.68307"
             xlink:href="#textext-afbfda97-19"
             width="744.09448"
             height="1052.3622" />
        </g>
        <g
           id="g19833"
           style="fill:#000000;fill-opacity:1">
          <use
             id="use19835"
             y="125.201"
             x="375.681"
             xlink:href="#textext-afbfda97-3"
             width="744.09448"
             height="1052.3622" />
        </g>
        <g
           id="g19837"
           style="fill:#000000;fill-opacity:1">
          <use
             id="use19839"
             y="143.134"
             x="375.681"
             xlink:href="#textext-afbfda97-4"
             width="744.09448"
             height="1052.3622" />
        </g>
      </g>
    </g>
    <g
       ns0:text="$I_{Vx}$"
       ns0:preamble=""
       transform="translate(-171.89871,29.539029)"
       id="g20161">
      <defs
         id="defs20163">
        <g
           id="g20165">
          <symbol
             overflow="visible"
             id="textext-3c771275-0"
             style="overflow:visible">
            <path
               style="stroke:none"
               d=""
               id="path20168"
               inkscape:connector-curvature="0" />
          </symbol>
          <symbol
             overflow="visible"
             id="textext-3c771275-1"
             style="overflow:visible">
            <path
               style="stroke:none"
               d="M 3.734375,-6.046875 C 3.8125,-6.40625 3.84375,-6.5 4.640625,-6.5 c 0.234375,0 0.3125,0 0.3125,-0.1875 0,-0.125 -0.109375,-0.125 -0.140625,-0.125 -0.296875,0 -1.03125,0.03125 -1.328125,0.03125 -0.296875,0 -1.015625,-0.03125 -1.328125,-0.03125 -0.0625,0 -0.1875,0 -0.1875,0.203125 C 1.96875,-6.5 2.046875,-6.5 2.25,-6.5 c 0.40625,0 0.6875,0 0.6875,0.1875 0,0.046875 0,0.078125 -0.03125,0.15625 l -1.34375,5.375 c -0.09375,0.375 -0.109375,0.46875 -0.90625,0.46875 -0.234375,0 -0.3125,0 -0.3125,0.203125 C 0.34375,0 0.453125,0 0.484375,0 0.78125,0 1.5,-0.03125 1.796875,-0.03125 2.09375,-0.03125 2.828125,0 3.125,0 c 0.078125,0 0.203125,0 0.203125,-0.1875 0,-0.125 -0.078125,-0.125 -0.296875,-0.125 -0.1875,0 -0.234375,0 -0.421875,-0.015625 -0.21875,-0.015625 -0.25,-0.0625 -0.25,-0.171875 0,-0.078125 0.015625,-0.15625 0.03125,-0.234375 z m 0,0"
               id="path20171"
               inkscape:connector-curvature="0" />
          </symbol>
          <symbol
             overflow="visible"
             id="textext-3c771275-2"
             style="overflow:visible">
            <path
               style="stroke:none"
               d=""
               id="path20174"
               inkscape:connector-curvature="0" />
          </symbol>
          <symbol
             overflow="visible"
             id="textext-3c771275-3"
             style="overflow:visible">
            <path
               style="stroke:none"
               d="m 4.984375,-3.9375 c 0.25,-0.375 0.484375,-0.546875 0.859375,-0.578125 0.078125,0 0.15625,0 0.15625,-0.140625 0,-0.03125 -0.015625,-0.109375 -0.09375,-0.109375 -0.171875,0 -0.390625,0.03125 -0.5625,0.03125 -0.21875,0 -0.515625,-0.03125 -0.71875,-0.03125 -0.0625,0 -0.140625,0.03125 -0.140625,0.15625 0,0.09375 0.09375,0.09375 0.125,0.09375 0.21875,0.015625 0.28125,0.109375 0.28125,0.203125 0,0.109375 -0.046875,0.171875 -0.125,0.28125 l -2.28125,3.375 -0.640625,-3.5625 c -0.015625,-0.0625 -0.015625,-0.078125 -0.015625,-0.109375 0,-0.1875 0.390625,-0.1875 0.4375,-0.1875 0.125,0 0.21875,0 0.21875,-0.140625 0,-0.015625 -0.015625,-0.109375 -0.125,-0.109375 -0.203125,0 -0.6875,0.03125 -0.890625,0.03125 -0.171875,0 -0.609375,-0.03125 -0.78125,-0.03125 -0.0625,0 -0.140625,0.03125 -0.140625,0.15625 0,0.09375 0.09375,0.09375 0.171875,0.09375 0.390625,0 0.40625,0.046875 0.4375,0.234375 l 0.765625,4.234375 c 0.015625,0.140625 0.03125,0.1875 0.15625,0.1875 0.140625,0 0.171875,-0.046875 0.25,-0.15625 z m 0,0"
               id="path20177"
               inkscape:connector-curvature="0" />
          </symbol>
          <symbol
             overflow="visible"
             id="textext-3c771275-4"
             style="overflow:visible">
            <path
               style="stroke:none"
               d="M 1.734375,-0.734375 C 1.671875,-0.5 1.4375,-0.125 1.078125,-0.125 c -0.015625,0 -0.234375,0 -0.375,-0.09375 0.28125,-0.09375 0.3125,-0.34375 0.3125,-0.390625 0,-0.15625 -0.125,-0.25 -0.28125,-0.25 -0.203125,0 -0.40625,0.15625 -0.40625,0.421875 0,0.34375 0.390625,0.5 0.734375,0.5 0.328125,0 0.609375,-0.1875 0.78125,-0.484375 C 2.015625,-0.0625 2.390625,0.0625 2.671875,0.0625 c 0.8125,0 1.234375,-0.859375 1.234375,-1.0625 0,-0.09375 -0.09375,-0.09375 -0.109375,-0.09375 -0.109375,0 -0.109375,0.046875 -0.140625,0.125 -0.140625,0.484375 -0.5625,0.84375 -0.953125,0.84375 -0.28125,0 -0.421875,-0.1875 -0.421875,-0.453125 0,-0.1875 0.171875,-0.8125 0.359375,-1.59375 C 2.78125,-2.703125 3.09375,-2.875 3.328125,-2.875 c 0.015625,0 0.21875,0 0.375,0.09375 -0.21875,0.0625 -0.3125,0.265625 -0.3125,0.390625 0,0.140625 0.125,0.25 0.28125,0.25 0.15625,0 0.390625,-0.125 0.390625,-0.421875 0,-0.390625 -0.453125,-0.515625 -0.71875,-0.515625 -0.359375,0 -0.640625,0.234375 -0.78125,0.5 -0.125,-0.28125 -0.453125,-0.5 -0.84375,-0.5 C 0.9375,-3.078125 0.5,-2.21875 0.5,-2 c 0,0.078125 0.09375,0.078125 0.109375,0.078125 0.09375,0 0.09375,-0.015625 0.140625,-0.109375 C 0.921875,-2.578125 1.359375,-2.875 1.703125,-2.875 1.9375,-2.875 2.125,-2.75 2.125,-2.421875 2.125,-2.28125 2.03125,-1.9375 1.96875,-1.6875 z m 0,0"
               id="path20180"
               inkscape:connector-curvature="0" />
          </symbol>
        </g>
      </defs>
      <g
         id="textext-3c771275-5">
        <g
           style="fill:#000000;fill-opacity:1"
           id="g20183">
          <use
             xlink:href="#textext-3c771275-1"
             x="223.43201"
             y="134.765"
             id="use20185"
             width="744.09448"
             height="1052.3622" />
        </g>
        <g
           style="fill:#000000;fill-opacity:1"
           id="g20187">
          <use
             xlink:href="#textext-3c771275-3"
             x="227.812"
             y="136.259"
             id="use20189"
             width="744.09448"
             height="1052.3622" />
        </g>
        <g
           style="fill:#000000;fill-opacity:1"
           id="g20191">
          <use
             xlink:href="#textext-3c771275-4"
             x="234.23209"
             y="136.259"
             id="use20193"
             width="744.09448"
             height="1052.3622" />
        </g>
      </g>
    </g>
    <g
       id="g20531"
       transform="translate(-124.78571,29.39343)"
       ns0:preamble=""
       ns0:text="$V$">
      <defs
         id="defs20533">
        <g
           id="g20535">
          <symbol
             id="textext-39728949-0"
             overflow="visible"
             style="overflow:visible">
            <path
               id="path20538"
               d=""
               style="stroke:none"
               inkscape:connector-curvature="0" />
          </symbol>
          <symbol
             id="textext-39728949-1"
             overflow="visible"
             style="overflow:visible">
            <path
               id="path20541"
               d="M 6.265625,-5.671875 C 6.75,-6.453125 7.171875,-6.484375 7.53125,-6.5 c 0.125,-0.015625 0.140625,-0.171875 0.140625,-0.1875 0,-0.078125 -0.0625,-0.125 -0.140625,-0.125 -0.25,0 -0.546875,0.03125 -0.8125,0.03125 -0.328125,0 -0.671875,-0.03125 -0.984375,-0.03125 -0.0625,0 -0.1875,0 -0.1875,0.1875 0,0.109375 0.078125,0.125 0.15625,0.125 0.265625,0.015625 0.453125,0.125 0.453125,0.328125 0,0.15625 -0.140625,0.375 -0.140625,0.375 l -3.0625,4.875 -0.6875,-5.28125 C 2.265625,-6.375 2.5,-6.5 2.953125,-6.5 c 0.140625,0 0.25,0 0.25,-0.203125 0,-0.078125 -0.078125,-0.109375 -0.125,-0.109375 -0.40625,0 -0.828125,0.03125 -1.25,0.03125 -0.171875,0 -0.359375,0 -0.546875,0 -0.171875,0 -0.359375,-0.03125 -0.53125,-0.03125 -0.078125,0 -0.1875,0 -0.1875,0.1875 0,0.125 0.078125,0.125 0.25,0.125 0.546875,0 0.5625,0.09375 0.59375,0.34375 L 2.1875,-0.015625 C 2.21875,0.1875 2.265625,0.21875 2.390625,0.21875 c 0.15625,0 0.203125,-0.046875 0.28125,-0.171875 z m 0,0"
               style="stroke:none"
               inkscape:connector-curvature="0" />
          </symbol>
        </g>
      </defs>
      <g
         id="textext-39728949-2">
        <g
           id="g20544"
           style="fill:#000000;fill-opacity:1">
          <use
             id="use20546"
             y="134.765"
             x="223.43201"
             xlink:href="#textext-39728949-1"
             width="744.09448"
             height="1052.3622" />
        </g>
      </g>
    </g>
  </g>
</svg>
