<?xml version="1.0" encoding="utf-8" standalone="no"?>
<!DOCTYPE svg PUBLIC "-//W3C//DTD SVG 1.1//EN"
  "http://www.w3.org/Graphics/SVG/1.1/DTD/svg11.dtd">
<!-- Created with matplotlib (http://matplotlib.org/) -->
<svg height="360pt" version="1.1" viewBox="0 0 504 360" width="504pt" xmlns="http://www.w3.org/2000/svg" xmlns:xlink="http://www.w3.org/1999/xlink">
 <defs>
  <style type="text/css">
*{stroke-linecap:butt;stroke-linejoin:round;}
  </style>
 </defs>
 <g id="figure_1">
  <g id="patch_1">
   <path d="M 0 360 
L 504 360 
L 504 0 
L 0 0 
z
" style="fill:#ffffff;"/>
  </g>
  <g id="axes_1">
   <g id="patch_2">
    <path d="M 64.275 309.1 
L 489.7 309.1 
L 489.7 28.7 
L 64.275 28.7 
z
" style="fill:#ffffff;"/>
   </g>
   <g id="matplotlib.axis_1">
    <g id="xtick_1">
     <g id="line2d_1">
      <path clip-path="url(#p42ef8955b0)" d="M 83.6125 309.1 
L 83.6125 28.7 
" style="fill:none;stroke:#808080;stroke-linecap:square;stroke-width:0.8;"/>
     </g>
     <g id="line2d_2">
      <defs>
       <path d="M 0 0 
L 0 3.5 
" id="m7c3a042c40" style="stroke:#000000;stroke-width:0.8;"/>
      </defs>
      <g>
       <use style="stroke:#000000;stroke-width:0.8;" x="83.6125" xlink:href="#m7c3a042c40" y="309.1"/>
      </g>
     </g>
     <g id="text_1">
      <!-- 0.00 -->
      <defs>
       <path d="M 31.78125 66.40625 
Q 24.171875 66.40625 20.328125 58.90625 
Q 16.5 51.421875 16.5 36.375 
Q 16.5 21.390625 20.328125 13.890625 
Q 24.171875 6.390625 31.78125 6.390625 
Q 39.453125 6.390625 43.28125 13.890625 
Q 47.125 21.390625 47.125 36.375 
Q 47.125 51.421875 43.28125 58.90625 
Q 39.453125 66.40625 31.78125 66.40625 
z
M 31.78125 74.21875 
Q 44.046875 74.21875 50.515625 64.515625 
Q 56.984375 54.828125 56.984375 36.375 
Q 56.984375 17.96875 50.515625 8.265625 
Q 44.046875 -1.421875 31.78125 -1.421875 
Q 19.53125 -1.421875 13.0625 8.265625 
Q 6.59375 17.96875 6.59375 36.375 
Q 6.59375 54.828125 13.0625 64.515625 
Q 19.53125 74.21875 31.78125 74.21875 
z
" id="DejaVuSans-30"/>
       <path d="M 10.6875 12.40625 
L 21 12.40625 
L 21 0 
L 10.6875 0 
z
" id="DejaVuSans-2e"/>
      </defs>
      <g transform="translate(70.253125 325.218125)scale(0.12 -0.12)">
       <use xlink:href="#DejaVuSans-30"/>
       <use x="63.623047" xlink:href="#DejaVuSans-2e"/>
       <use x="95.410156" xlink:href="#DejaVuSans-30"/>
       <use x="159.033203" xlink:href="#DejaVuSans-30"/>
      </g>
     </g>
    </g>
    <g id="xtick_2">
     <g id="line2d_3">
      <path clip-path="url(#p42ef8955b0)" d="M 137.327778 309.1 
L 137.327778 28.7 
" style="fill:none;stroke:#808080;stroke-linecap:square;stroke-width:0.8;"/>
     </g>
     <g id="line2d_4">
      <g>
       <use style="stroke:#000000;stroke-width:0.8;" x="137.327778" xlink:href="#m7c3a042c40" y="309.1"/>
      </g>
     </g>
     <g id="text_2">
      <!-- 0.25 -->
      <defs>
       <path d="M 19.1875 8.296875 
L 53.609375 8.296875 
L 53.609375 0 
L 7.328125 0 
L 7.328125 8.296875 
Q 12.9375 14.109375 22.625 23.890625 
Q 32.328125 33.6875 34.8125 36.53125 
Q 39.546875 41.84375 41.421875 45.53125 
Q 43.3125 49.21875 43.3125 52.78125 
Q 43.3125 58.59375 39.234375 62.25 
Q 35.15625 65.921875 28.609375 65.921875 
Q 23.96875 65.921875 18.8125 64.3125 
Q 13.671875 62.703125 7.8125 59.421875 
L 7.8125 69.390625 
Q 13.765625 71.78125 18.9375 73 
Q 24.125 74.21875 28.421875 74.21875 
Q 39.75 74.21875 46.484375 68.546875 
Q 53.21875 62.890625 53.21875 53.421875 
Q 53.21875 48.921875 51.53125 44.890625 
Q 49.859375 40.875 45.40625 35.40625 
Q 44.1875 33.984375 37.640625 27.21875 
Q 31.109375 20.453125 19.1875 8.296875 
z
" id="DejaVuSans-32"/>
       <path d="M 10.796875 72.90625 
L 49.515625 72.90625 
L 49.515625 64.59375 
L 19.828125 64.59375 
L 19.828125 46.734375 
Q 21.96875 47.46875 24.109375 47.828125 
Q 26.265625 48.1875 28.421875 48.1875 
Q 40.625 48.1875 47.75 41.5 
Q 54.890625 34.8125 54.890625 23.390625 
Q 54.890625 11.625 47.5625 5.09375 
Q 40.234375 -1.421875 26.90625 -1.421875 
Q 22.3125 -1.421875 17.546875 -0.640625 
Q 12.796875 0.140625 7.71875 1.703125 
L 7.71875 11.625 
Q 12.109375 9.234375 16.796875 8.0625 
Q 21.484375 6.890625 26.703125 6.890625 
Q 35.15625 6.890625 40.078125 11.328125 
Q 45.015625 15.765625 45.015625 23.390625 
Q 45.015625 31 40.078125 35.4375 
Q 35.15625 39.890625 26.703125 39.890625 
Q 22.75 39.890625 18.8125 39.015625 
Q 14.890625 38.140625 10.796875 36.28125 
z
" id="DejaVuSans-35"/>
      </defs>
      <g transform="translate(123.968403 325.218125)scale(0.12 -0.12)">
       <use xlink:href="#DejaVuSans-30"/>
       <use x="63.623047" xlink:href="#DejaVuSans-2e"/>
       <use x="95.410156" xlink:href="#DejaVuSans-32"/>
       <use x="159.033203" xlink:href="#DejaVuSans-35"/>
      </g>
     </g>
    </g>
    <g id="xtick_3">
     <g id="line2d_5">
      <path clip-path="url(#p42ef8955b0)" d="M 191.043056 309.1 
L 191.043056 28.7 
" style="fill:none;stroke:#808080;stroke-linecap:square;stroke-width:0.8;"/>
     </g>
     <g id="line2d_6">
      <g>
       <use style="stroke:#000000;stroke-width:0.8;" x="191.043056" xlink:href="#m7c3a042c40" y="309.1"/>
      </g>
     </g>
     <g id="text_3">
      <!-- 0.50 -->
      <g transform="translate(177.683681 325.218125)scale(0.12 -0.12)">
       <use xlink:href="#DejaVuSans-30"/>
       <use x="63.623047" xlink:href="#DejaVuSans-2e"/>
       <use x="95.410156" xlink:href="#DejaVuSans-35"/>
       <use x="159.033203" xlink:href="#DejaVuSans-30"/>
      </g>
     </g>
    </g>
    <g id="xtick_4">
     <g id="line2d_7">
      <path clip-path="url(#p42ef8955b0)" d="M 244.758333 309.1 
L 244.758333 28.7 
" style="fill:none;stroke:#808080;stroke-linecap:square;stroke-width:0.8;"/>
     </g>
     <g id="line2d_8">
      <g>
       <use style="stroke:#000000;stroke-width:0.8;" x="244.758333" xlink:href="#m7c3a042c40" y="309.1"/>
      </g>
     </g>
     <g id="text_4">
      <!-- 0.75 -->
      <defs>
       <path d="M 8.203125 72.90625 
L 55.078125 72.90625 
L 55.078125 68.703125 
L 28.609375 0 
L 18.3125 0 
L 43.21875 64.59375 
L 8.203125 64.59375 
z
" id="DejaVuSans-37"/>
      </defs>
      <g transform="translate(231.398958 325.218125)scale(0.12 -0.12)">
       <use xlink:href="#DejaVuSans-30"/>
       <use x="63.623047" xlink:href="#DejaVuSans-2e"/>
       <use x="95.410156" xlink:href="#DejaVuSans-37"/>
       <use x="159.033203" xlink:href="#DejaVuSans-35"/>
      </g>
     </g>
    </g>
    <g id="xtick_5">
     <g id="line2d_9">
      <path clip-path="url(#p42ef8955b0)" d="M 298.473611 309.1 
L 298.473611 28.7 
" style="fill:none;stroke:#808080;stroke-linecap:square;stroke-width:0.8;"/>
     </g>
     <g id="line2d_10">
      <g>
       <use style="stroke:#000000;stroke-width:0.8;" x="298.473611" xlink:href="#m7c3a042c40" y="309.1"/>
      </g>
     </g>
     <g id="text_5">
      <!-- 1.00 -->
      <defs>
       <path d="M 12.40625 8.296875 
L 28.515625 8.296875 
L 28.515625 63.921875 
L 10.984375 60.40625 
L 10.984375 69.390625 
L 28.421875 72.90625 
L 38.28125 72.90625 
L 38.28125 8.296875 
L 54.390625 8.296875 
L 54.390625 0 
L 12.40625 0 
z
" id="DejaVuSans-31"/>
      </defs>
      <g transform="translate(285.114236 325.218125)scale(0.12 -0.12)">
       <use xlink:href="#DejaVuSans-31"/>
       <use x="63.623047" xlink:href="#DejaVuSans-2e"/>
       <use x="95.410156" xlink:href="#DejaVuSans-30"/>
       <use x="159.033203" xlink:href="#DejaVuSans-30"/>
      </g>
     </g>
    </g>
    <g id="xtick_6">
     <g id="line2d_11">
      <path clip-path="url(#p42ef8955b0)" d="M 352.188889 309.1 
L 352.188889 28.7 
" style="fill:none;stroke:#808080;stroke-linecap:square;stroke-width:0.8;"/>
     </g>
     <g id="line2d_12">
      <g>
       <use style="stroke:#000000;stroke-width:0.8;" x="352.188889" xlink:href="#m7c3a042c40" y="309.1"/>
      </g>
     </g>
     <g id="text_6">
      <!-- 1.25 -->
      <g transform="translate(338.829514 325.218125)scale(0.12 -0.12)">
       <use xlink:href="#DejaVuSans-31"/>
       <use x="63.623047" xlink:href="#DejaVuSans-2e"/>
       <use x="95.410156" xlink:href="#DejaVuSans-32"/>
       <use x="159.033203" xlink:href="#DejaVuSans-35"/>
      </g>
     </g>
    </g>
    <g id="xtick_7">
     <g id="line2d_13">
      <path clip-path="url(#p42ef8955b0)" d="M 405.904167 309.1 
L 405.904167 28.7 
" style="fill:none;stroke:#808080;stroke-linecap:square;stroke-width:0.8;"/>
     </g>
     <g id="line2d_14">
      <g>
       <use style="stroke:#000000;stroke-width:0.8;" x="405.904167" xlink:href="#m7c3a042c40" y="309.1"/>
      </g>
     </g>
     <g id="text_7">
      <!-- 1.50 -->
      <g transform="translate(392.544792 325.218125)scale(0.12 -0.12)">
       <use xlink:href="#DejaVuSans-31"/>
       <use x="63.623047" xlink:href="#DejaVuSans-2e"/>
       <use x="95.410156" xlink:href="#DejaVuSans-35"/>
       <use x="159.033203" xlink:href="#DejaVuSans-30"/>
      </g>
     </g>
    </g>
    <g id="xtick_8">
     <g id="line2d_15">
      <path clip-path="url(#p42ef8955b0)" d="M 459.619444 309.1 
L 459.619444 28.7 
" style="fill:none;stroke:#808080;stroke-linecap:square;stroke-width:0.8;"/>
     </g>
     <g id="line2d_16">
      <g>
       <use style="stroke:#000000;stroke-width:0.8;" x="459.619444" xlink:href="#m7c3a042c40" y="309.1"/>
      </g>
     </g>
     <g id="text_8">
      <!-- 1.75 -->
      <g transform="translate(446.260069 325.218125)scale(0.12 -0.12)">
       <use xlink:href="#DejaVuSans-31"/>
       <use x="63.623047" xlink:href="#DejaVuSans-2e"/>
       <use x="95.410156" xlink:href="#DejaVuSans-37"/>
       <use x="159.033203" xlink:href="#DejaVuSans-35"/>
      </g>
     </g>
    </g>
    <g id="text_9">
     <!-- $V_{G}$[V] -->
     <defs>
      <path d="M 20.609375 0 
L 7.8125 72.90625 
L 17.484375 72.90625 
L 28.078125 10.203125 
L 63.484375 72.90625 
L 74.21875 72.90625 
L 32.078125 0 
z
" id="DejaVuSans-Oblique-56"/>
      <path d="M 54.59375 10.890625 
L 58.40625 29.984375 
L 42.1875 29.984375 
L 43.703125 38.09375 
L 69.578125 38.09375 
L 63.28125 6 
Q 56.78125 2.4375 49.109375 0.5 
Q 41.453125 -1.421875 33.6875 -1.421875 
Q 19.96875 -1.421875 12.234375 6.1875 
Q 4.5 13.8125 4.5 27.390625 
Q 4.5 38.671875 9.203125 48.84375 
Q 13.921875 59.03125 22.21875 65.828125 
Q 27.4375 70.0625 33.640625 72.140625 
Q 39.84375 74.21875 47.40625 74.21875 
Q 54.25 74.21875 60.515625 72.484375 
Q 66.796875 70.75 72.515625 67.28125 
L 70.515625 56.78125 
Q 66.109375 61.375 60.203125 63.796875 
Q 54.296875 66.21875 47.609375 66.21875 
Q 39.84375 66.21875 33.9375 63.25 
Q 28.03125 60.296875 23.390625 54.109375 
Q 19.4375 48.828125 17.15625 41.671875 
Q 14.890625 34.515625 14.890625 27.09375 
Q 14.890625 16.890625 20.109375 11.734375 
Q 25.34375 6.59375 35.6875 6.59375 
Q 40.875 6.59375 45.703125 7.6875 
Q 50.53125 8.796875 54.59375 10.890625 
z
" id="DejaVuSans-Oblique-47"/>
      <path d="M 8.59375 75.984375 
L 29.296875 75.984375 
L 29.296875 69 
L 17.578125 69 
L 17.578125 -6.203125 
L 29.296875 -6.203125 
L 29.296875 -13.1875 
L 8.59375 -13.1875 
z
" id="DejaVuSans-5b"/>
      <path d="M 28.609375 0 
L 0.78125 72.90625 
L 11.078125 72.90625 
L 34.1875 11.53125 
L 57.328125 72.90625 
L 67.578125 72.90625 
L 39.796875 0 
z
" id="DejaVuSans-56"/>
      <path d="M 30.421875 75.984375 
L 30.421875 -13.1875 
L 9.71875 -13.1875 
L 9.71875 -6.203125 
L 21.390625 -6.203125 
L 21.390625 69 
L 9.71875 69 
L 9.71875 75.984375 
z
" id="DejaVuSans-5d"/>
     </defs>
     <g transform="translate(260.6675 340.831875)scale(0.12 -0.12)">
      <use transform="translate(0 0.015625)" xlink:href="#DejaVuSans-Oblique-56"/>
      <use transform="translate(68.408203 -16.390625)scale(0.7)" xlink:href="#DejaVuSans-Oblique-47"/>
      <use transform="translate(125.385742 0.015625)" xlink:href="#DejaVuSans-5b"/>
      <use transform="translate(164.399414 0.015625)" xlink:href="#DejaVuSans-56"/>
      <use transform="translate(232.807617 0.015625)" xlink:href="#DejaVuSans-5d"/>
     </g>
    </g>
   </g>
   <g id="matplotlib.axis_2">
    <g id="ytick_1">
     <g id="line2d_17">
      <path clip-path="url(#p42ef8955b0)" d="M 64.275 263.400956 
L 489.7 263.400956 
" style="fill:none;stroke:#808080;stroke-linecap:square;stroke-width:0.8;"/>
     </g>
     <g id="line2d_18">
      <defs>
       <path d="M 0 0 
L -3.5 0 
" id="mbd3df357c5" style="stroke:#000000;stroke-width:0.8;"/>
      </defs>
      <g>
       <use style="stroke:#000000;stroke-width:0.8;" x="64.275" xlink:href="#mbd3df357c5" y="263.400956"/>
      </g>
     </g>
     <g id="text_10">
      <!-- 0.25 -->
      <g transform="translate(30.55625 267.960018)scale(0.12 -0.12)">
       <use xlink:href="#DejaVuSans-30"/>
       <use x="63.623047" xlink:href="#DejaVuSans-2e"/>
       <use x="95.410156" xlink:href="#DejaVuSans-32"/>
       <use x="159.033203" xlink:href="#DejaVuSans-35"/>
      </g>
     </g>
    </g>
    <g id="ytick_2">
     <g id="line2d_19">
      <path clip-path="url(#p42ef8955b0)" d="M 64.275 210.528286 
L 489.7 210.528286 
" style="fill:none;stroke:#808080;stroke-linecap:square;stroke-width:0.8;"/>
     </g>
     <g id="line2d_20">
      <g>
       <use style="stroke:#000000;stroke-width:0.8;" x="64.275" xlink:href="#mbd3df357c5" y="210.528286"/>
      </g>
     </g>
     <g id="text_11">
      <!-- 0.30 -->
      <defs>
       <path d="M 40.578125 39.3125 
Q 47.65625 37.796875 51.625 33 
Q 55.609375 28.21875 55.609375 21.1875 
Q 55.609375 10.40625 48.1875 4.484375 
Q 40.765625 -1.421875 27.09375 -1.421875 
Q 22.515625 -1.421875 17.65625 -0.515625 
Q 12.796875 0.390625 7.625 2.203125 
L 7.625 11.71875 
Q 11.71875 9.328125 16.59375 8.109375 
Q 21.484375 6.890625 26.8125 6.890625 
Q 36.078125 6.890625 40.9375 10.546875 
Q 45.796875 14.203125 45.796875 21.1875 
Q 45.796875 27.640625 41.28125 31.265625 
Q 36.765625 34.90625 28.71875 34.90625 
L 20.21875 34.90625 
L 20.21875 43.015625 
L 29.109375 43.015625 
Q 36.375 43.015625 40.234375 45.921875 
Q 44.09375 48.828125 44.09375 54.296875 
Q 44.09375 59.90625 40.109375 62.90625 
Q 36.140625 65.921875 28.71875 65.921875 
Q 24.65625 65.921875 20.015625 65.03125 
Q 15.375 64.15625 9.8125 62.3125 
L 9.8125 71.09375 
Q 15.4375 72.65625 20.34375 73.4375 
Q 25.25 74.21875 29.59375 74.21875 
Q 40.828125 74.21875 47.359375 69.109375 
Q 53.90625 64.015625 53.90625 55.328125 
Q 53.90625 49.265625 50.4375 45.09375 
Q 46.96875 40.921875 40.578125 39.3125 
z
" id="DejaVuSans-33"/>
      </defs>
      <g transform="translate(30.55625 215.087348)scale(0.12 -0.12)">
       <use xlink:href="#DejaVuSans-30"/>
       <use x="63.623047" xlink:href="#DejaVuSans-2e"/>
       <use x="95.410156" xlink:href="#DejaVuSans-33"/>
       <use x="159.033203" xlink:href="#DejaVuSans-30"/>
      </g>
     </g>
    </g>
    <g id="ytick_3">
     <g id="line2d_21">
      <path clip-path="url(#p42ef8955b0)" d="M 64.275 157.655616 
L 489.7 157.655616 
" style="fill:none;stroke:#808080;stroke-linecap:square;stroke-width:0.8;"/>
     </g>
     <g id="line2d_22">
      <g>
       <use style="stroke:#000000;stroke-width:0.8;" x="64.275" xlink:href="#mbd3df357c5" y="157.655616"/>
      </g>
     </g>
     <g id="text_12">
      <!-- 0.35 -->
      <g transform="translate(30.55625 162.214679)scale(0.12 -0.12)">
       <use xlink:href="#DejaVuSans-30"/>
       <use x="63.623047" xlink:href="#DejaVuSans-2e"/>
       <use x="95.410156" xlink:href="#DejaVuSans-33"/>
       <use x="159.033203" xlink:href="#DejaVuSans-35"/>
      </g>
     </g>
    </g>
    <g id="ytick_4">
     <g id="line2d_23">
      <path clip-path="url(#p42ef8955b0)" d="M 64.275 104.782947 
L 489.7 104.782947 
" style="fill:none;stroke:#808080;stroke-linecap:square;stroke-width:0.8;"/>
     </g>
     <g id="line2d_24">
      <g>
       <use style="stroke:#000000;stroke-width:0.8;" x="64.275" xlink:href="#mbd3df357c5" y="104.782947"/>
      </g>
     </g>
     <g id="text_13">
      <!-- 0.40 -->
      <defs>
       <path d="M 37.796875 64.3125 
L 12.890625 25.390625 
L 37.796875 25.390625 
z
M 35.203125 72.90625 
L 47.609375 72.90625 
L 47.609375 25.390625 
L 58.015625 25.390625 
L 58.015625 17.1875 
L 47.609375 17.1875 
L 47.609375 0 
L 37.796875 0 
L 37.796875 17.1875 
L 4.890625 17.1875 
L 4.890625 26.703125 
z
" id="DejaVuSans-34"/>
      </defs>
      <g transform="translate(30.55625 109.342009)scale(0.12 -0.12)">
       <use xlink:href="#DejaVuSans-30"/>
       <use x="63.623047" xlink:href="#DejaVuSans-2e"/>
       <use x="95.410156" xlink:href="#DejaVuSans-34"/>
       <use x="159.033203" xlink:href="#DejaVuSans-30"/>
      </g>
     </g>
    </g>
    <g id="ytick_5">
     <g id="line2d_25">
      <path clip-path="url(#p42ef8955b0)" d="M 64.275 51.910277 
L 489.7 51.910277 
" style="fill:none;stroke:#808080;stroke-linecap:square;stroke-width:0.8;"/>
     </g>
     <g id="line2d_26">
      <g>
       <use style="stroke:#000000;stroke-width:0.8;" x="64.275" xlink:href="#mbd3df357c5" y="51.910277"/>
      </g>
     </g>
     <g id="text_14">
      <!-- 0.45 -->
      <g transform="translate(30.55625 56.469339)scale(0.12 -0.12)">
       <use xlink:href="#DejaVuSans-30"/>
       <use x="63.623047" xlink:href="#DejaVuSans-2e"/>
       <use x="95.410156" xlink:href="#DejaVuSans-34"/>
       <use x="159.033203" xlink:href="#DejaVuSans-35"/>
      </g>
     </g>
    </g>
    <g id="text_15">
     <!-- $c_{iss X1}$[fF] -->
     <defs>
      <path d="M 53.609375 52.59375 
L 51.8125 43.703125 
Q 48.578125 46.046875 44.9375 47.21875 
Q 41.3125 48.390625 37.40625 48.390625 
Q 33.109375 48.390625 29.21875 46.875 
Q 25.34375 45.359375 22.703125 42.578125 
Q 18.5 38.328125 16.203125 32.609375 
Q 13.921875 26.90625 13.921875 20.796875 
Q 13.921875 13.421875 17.609375 9.8125 
Q 21.296875 6.203125 28.8125 6.203125 
Q 32.515625 6.203125 36.6875 7.328125 
Q 40.875 8.453125 45.40625 10.6875 
L 43.703125 1.8125 
Q 39.796875 0.203125 35.671875 -0.609375 
Q 31.546875 -1.421875 27.203125 -1.421875 
Q 16.3125 -1.421875 10.453125 4.015625 
Q 4.59375 9.46875 4.59375 19.578125 
Q 4.59375 28.078125 7.640625 35.234375 
Q 10.6875 42.390625 16.703125 48.09375 
Q 20.796875 52 26.3125 54 
Q 31.84375 56 38.375 56 
Q 42.1875 56 45.9375 55.140625 
Q 49.703125 54.296875 53.609375 52.59375 
z
" id="DejaVuSans-Oblique-63"/>
      <path d="M 18.3125 75.984375 
L 27.296875 75.984375 
L 25.09375 64.59375 
L 16.109375 64.59375 
z
M 14.203125 54.6875 
L 23.1875 54.6875 
L 12.5 0 
L 3.515625 0 
z
" id="DejaVuSans-Oblique-69"/>
      <path d="M 50 53.078125 
L 48.296875 44.578125 
Q 44.734375 46.53125 40.765625 47.5 
Q 36.8125 48.484375 32.625 48.484375 
Q 25.53125 48.484375 21.453125 46.0625 
Q 17.390625 43.65625 17.390625 39.5 
Q 17.390625 34.671875 26.859375 32.078125 
Q 27.59375 31.890625 27.9375 31.78125 
L 30.8125 30.90625 
Q 39.796875 28.421875 42.796875 25.6875 
Q 45.796875 22.953125 45.796875 18.21875 
Q 45.796875 9.515625 38.890625 4.046875 
Q 31.984375 -1.421875 20.796875 -1.421875 
Q 16.453125 -1.421875 11.671875 -0.578125 
Q 6.890625 0.25 1.125 2 
L 2.875 11.28125 
Q 7.8125 8.734375 12.59375 7.421875 
Q 17.390625 6.109375 21.78125 6.109375 
Q 28.375 6.109375 32.5 8.9375 
Q 36.625 11.765625 36.625 16.109375 
Q 36.625 20.796875 25.78125 23.6875 
L 24.859375 23.921875 
L 21.78125 24.703125 
Q 14.9375 26.515625 11.765625 29.46875 
Q 8.59375 32.421875 8.59375 37.015625 
Q 8.59375 45.75 15.15625 50.875 
Q 21.734375 56 33.015625 56 
Q 37.453125 56 41.671875 55.265625 
Q 45.90625 54.546875 50 53.078125 
z
" id="DejaVuSans-Oblique-73"/>
      <path d="M 13.71875 72.90625 
L 23.6875 72.90625 
L 36.1875 46.578125 
L 58.796875 72.90625 
L 70.3125 72.90625 
L 40.28125 38.09375 
L 58.40625 0 
L 48.484375 0 
L 33.796875 30.71875 
L 7.171875 0 
L -4.296875 0 
L 29.78125 39.203125 
z
" id="DejaVuSans-Oblique-58"/>
      <path d="M 37.109375 75.984375 
L 37.109375 68.5 
L 28.515625 68.5 
Q 23.6875 68.5 21.796875 66.546875 
Q 19.921875 64.59375 19.921875 59.515625 
L 19.921875 54.6875 
L 34.71875 54.6875 
L 34.71875 47.703125 
L 19.921875 47.703125 
L 19.921875 0 
L 10.890625 0 
L 10.890625 47.703125 
L 2.296875 47.703125 
L 2.296875 54.6875 
L 10.890625 54.6875 
L 10.890625 58.5 
Q 10.890625 67.625 15.140625 71.796875 
Q 19.390625 75.984375 28.609375 75.984375 
z
" id="DejaVuSans-66"/>
      <path d="M 9.8125 72.90625 
L 51.703125 72.90625 
L 51.703125 64.59375 
L 19.671875 64.59375 
L 19.671875 43.109375 
L 48.578125 43.109375 
L 48.578125 34.8125 
L 19.671875 34.8125 
L 19.671875 0 
L 9.8125 0 
z
" id="DejaVuSans-46"/>
     </defs>
     <g transform="translate(24.060625 193.74)rotate(-90)scale(0.12 -0.12)">
      <use transform="translate(0 0.015625)" xlink:href="#DejaVuSans-Oblique-63"/>
      <use transform="translate(54.980469 -16.390625)scale(0.7)" xlink:href="#DejaVuSans-Oblique-69"/>
      <use transform="translate(74.428711 -16.390625)scale(0.7)" xlink:href="#DejaVuSans-Oblique-73"/>
      <use transform="translate(110.898438 -16.390625)scale(0.7)" xlink:href="#DejaVuSans-Oblique-73"/>
      <use transform="translate(147.368164 -16.390625)scale(0.7)" xlink:href="#DejaVuSans-Oblique-58"/>
      <use transform="translate(195.322266 -16.390625)scale(0.7)" xlink:href="#DejaVuSans-31"/>
      <use transform="translate(242.592773 0.015625)" xlink:href="#DejaVuSans-5b"/>
      <use transform="translate(281.606445 0.015625)" xlink:href="#DejaVuSans-66"/>
      <use transform="translate(316.811523 0.015625)" xlink:href="#DejaVuSans-46"/>
      <use transform="translate(374.331055 0.015625)" xlink:href="#DejaVuSans-5d"/>
     </g>
    </g>
   </g>
   <g id="line2d_27">
    <path clip-path="url(#p42ef8955b0)" d="M 83.6125 296.345941 
L 91.505357 296.314052 
L 99.398214 296.223493 
L 107.291071 295.968077 
L 115.183929 295.256834 
L 123.076786 293.324786 
L 130.969643 288.329705 
L 138.8625 276.617233 
L 146.755357 253.614646 
L 154.648214 218.992148 
L 162.541071 180.410416 
L 170.433929 146.74403 
L 178.326786 121.286955 
L 186.219643 103.128058 
L 194.1125 90.281664 
L 202.005357 81.049405 
L 209.898214 74.246018 
L 217.791071 69.094671 
L 225.683929 65.091966 
L 233.576786 61.908266 
L 241.469643 59.323413 
L 249.3625 57.186926 
L 257.255357 55.393484 
L 265.148214 53.867664 
L 273.041071 52.554288 
L 280.933929 51.412183 
L 288.826786 50.41007 
L 296.719643 49.523796 
L 304.6125 48.734431 
L 312.505357 48.026941 
L 320.398214 47.389237 
L 328.291071 46.811495 
L 336.183929 46.285648 
L 344.076786 45.80501 
L 351.969643 45.363997 
L 359.8625 44.957907 
L 367.755357 44.582752 
L 375.648214 44.23513 
L 383.541071 43.912118 
L 391.433929 43.611193 
L 399.326786 43.330167 
L 407.219643 43.06713 
L 415.1125 42.820408 
L 423.005357 42.58853 
L 430.898214 42.370196 
L 438.791071 42.164253 
L 446.683929 41.969676 
L 454.576786 41.78555 
L 462.469643 41.611055 
L 470.3625 41.445455 
" style="fill:none;stroke:#ff0000;stroke-linecap:square;stroke-width:2;"/>
   </g>
   <g id="line2d_28">
    <path clip-path="url(#p42ef8955b0)" d="M 83.6125 296.354542 
L 91.505357 296.338588 
L 99.398214 296.293278 
L 107.291071 296.165425 
L 115.183929 295.808957 
L 123.076786 294.837339 
L 130.969643 292.302898 
L 138.8625 286.231099 
L 146.755357 273.760626 
L 154.648214 253.545876 
L 162.541071 228.840753 
L 170.433929 205.331068 
L 178.326786 186.292212 
L 186.219643 171.790872 
L 194.1125 160.336878 
L 202.005357 150.051624 
L 209.898214 139.325799 
L 217.791071 127.550084 
L 225.683929 115.35387 
L 233.576786 103.844771 
L 241.469643 93.790954 
L 249.3625 85.428522 
L 257.255357 78.642394 
L 265.148214 73.177539 
L 273.041071 68.764703 
L 280.933929 65.171462 
L 288.826786 62.213392 
L 296.719643 59.749449 
L 304.6125 57.673201 
L 312.505357 55.904429 
L 320.398214 54.382338 
L 328.291071 53.060444 
L 336.183929 51.902827 
L 344.076786 50.88142 
L 351.969643 49.974047 
L 359.8625 49.162999 
L 367.755357 48.433986 
L 375.648214 47.775366 
L 383.541071 47.17757 
L 391.433929 46.632666 
L 399.326786 46.134026 
L 407.219643 45.676075 
L 415.1125 45.254089 
L 423.005357 44.864039 
L 430.898214 44.502474 
L 438.791071 44.166415 
L 446.683929 43.853284 
L 454.576786 43.560834 
L 462.469643 43.2871 
L 470.3625 43.03036 
" style="fill:none;stroke:#0000ff;stroke-linecap:square;stroke-width:2;"/>
   </g>
   <g id="line2d_29">
    <path clip-path="url(#p42ef8955b0)" d="M 83.6125 296.354545 
L 91.505357 296.338599 
L 99.398214 296.293309 
L 107.291071 296.165514 
L 115.183929 295.80921 
L 123.076786 294.838061 
L 130.969643 292.304938 
L 138.8625 286.236753 
L 146.755357 273.775739 
L 154.648214 253.584384 
L 162.541071 228.934947 
L 170.433929 205.556534 
L 178.326786 186.825933 
L 186.219643 173.035728 
L 194.1125 163.150155 
L 202.005357 156.026427 
L 209.898214 150.788214 
L 217.791071 146.832852 
L 225.683929 143.751709 
L 233.576786 141.247969 
L 241.469643 139.057563 
L 249.3625 136.856667 
L 257.255357 134.158959 
L 265.148214 130.310056 
L 273.041071 124.788642 
L 280.933929 117.6732 
L 288.826786 109.657807 
L 296.719643 101.589343 
L 304.6125 94.083864 
L 312.505357 87.438416 
L 320.398214 81.713457 
L 328.291071 76.843193 
L 336.183929 72.713907 
L 344.076786 69.205787 
L 351.969643 66.210699 
L 359.8625 63.637432 
L 367.755357 61.411436 
L 375.648214 59.472612 
L 383.541071 57.772702 
L 391.433929 56.272911 
L 399.326786 54.941915 
L 407.219643 53.754277 
L 415.1125 52.689205 
L 423.005357 51.729583 
L 430.898214 50.861227 
L 438.791071 50.072301 
L 446.683929 49.352867 
L 454.576786 48.694527 
L 462.469643 48.090147 
L 470.3625 47.533627 
" style="fill:none;stroke:#008000;stroke-linecap:square;stroke-width:2;"/>
   </g>
   <g id="line2d_30">
    <path clip-path="url(#p42ef8955b0)" d="M 83.6125 296.354545 
L 91.505357 296.338599 
L 99.398214 296.293309 
L 107.291071 296.165514 
L 115.183929 295.80921 
L 123.076786 294.838061 
L 130.969643 292.304939 
L 138.8625 286.236755 
L 146.755357 273.775746 
L 154.648214 253.584401 
L 162.541071 228.934989 
L 170.433929 205.556637 
L 178.326786 186.826184 
L 186.219643 173.036344 
L 194.1125 163.151688 
L 202.005357 156.030281 
L 209.898214 150.798001 
L 217.791071 146.857872 
L 225.683929 143.815883 
L 233.576786 141.412177 
L 241.469643 139.472941 
L 249.3625 137.879481 
L 257.255357 136.54874 
L 265.148214 135.420805 
L 273.041071 134.450228 
L 280.933929 133.598494 
L 288.826786 132.824153 
L 296.719643 132.064523 
L 304.6125 131.198723 
L 312.505357 129.985152 
L 320.398214 128.011364 
L 328.291071 124.796705 
L 336.183929 120.121727 
L 344.076786 114.253891 
L 351.969643 107.776596 
L 359.8625 101.270869 
L 367.755357 95.135947 
L 375.648214 89.571129 
L 383.541071 84.632333 
L 391.433929 80.295486 
L 399.326786 76.501294 
L 407.219643 73.18058 
L 415.1125 70.266488 
L 423.005357 67.699338 
L 430.898214 65.427855 
L 438.791071 63.408793 
L 446.683929 61.605969 
L 454.576786 59.989184 
L 462.469643 58.533199 
L 470.3625 57.216862 
" style="fill:none;stroke:#00bfbf;stroke-linecap:square;stroke-width:2;"/>
   </g>
   <g id="line2d_31">
    <path clip-path="url(#p42ef8955b0)" d="M 83.6125 296.354545 
L 91.505357 296.338599 
L 99.398214 296.293309 
L 107.291071 296.165514 
L 115.183929 295.80921 
L 123.076786 294.838061 
L 130.969643 292.304939 
L 138.8625 286.236755 
L 146.755357 273.775746 
L 154.648214 253.584401 
L 162.541071 228.934989 
L 170.433929 205.556637 
L 178.326786 186.826184 
L 186.219643 173.036344 
L 194.1125 163.151688 
L 202.005357 156.030283 
L 209.898214 150.798005 
L 217.791071 146.857884 
L 225.683929 143.815912 
L 233.576786 141.412253 
L 241.469643 139.473141 
L 249.3625 137.880012 
L 257.255357 136.550155 
L 265.148214 135.424584 
L 273.041071 134.460337 
L 280.933929 133.6255 
L 288.826786 132.895936 
L 296.719643 132.253069 
L 304.6125 131.682363 
L 312.505357 131.172198 
L 320.398214 130.712945 
L 328.291071 130.295925 
L 336.183929 129.911668 
L 344.076786 129.546071 
L 351.969643 129.171199 
L 359.8625 128.724074 
L 367.755357 128.064861 
L 375.648214 126.923159 
L 383.541071 124.909545 
L 391.433929 121.708352 
L 399.326786 117.333307 
L 407.219643 112.134939 
L 415.1125 106.584795 
L 423.005357 101.082454 
L 430.898214 95.882914 
L 438.791071 91.109891 
L 446.683929 86.798615 
L 454.576786 82.935201 
L 462.469643 79.483151 
L 470.3625 76.398441 
" style="fill:none;stroke:#bf00bf;stroke-linecap:square;stroke-width:2;"/>
   </g>
   <g id="line2d_32">
    <path clip-path="url(#p42ef8955b0)" d="M 83.6125 296.354545 
L 91.505357 296.338599 
L 99.398214 296.293309 
L 107.291071 296.165514 
L 115.183929 295.80921 
L 123.076786 294.838061 
L 130.969643 292.304939 
L 138.8625 286.236755 
L 146.755357 273.775746 
L 154.648214 253.584401 
L 162.541071 228.934989 
L 170.433929 205.556637 
L 178.326786 186.826184 
L 186.219643 173.036344 
L 194.1125 163.151688 
L 202.005357 156.030283 
L 209.898214 150.798005 
L 217.791071 146.857884 
L 225.683929 143.815912 
L 233.576786 141.412253 
L 241.469643 139.473141 
L 249.3625 137.880012 
L 257.255357 136.550155 
L 265.148214 135.424585 
L 273.041071 134.460341 
L 280.933929 133.625513 
L 288.826786 132.895969 
L 296.719643 132.253158 
L 304.6125 131.682606 
L 312.505357 131.17286 
L 320.398214 130.714754 
L 328.291071 130.300861 
L 336.183929 129.925107 
L 344.076786 129.582471 
L 351.969643 129.268767 
L 359.8625 128.980455 
L 367.755357 128.714482 
L 375.648214 128.468078 
L 383.541071 128.2384 
L 391.433929 128.021716 
L 399.326786 127.811339 
L 407.219643 127.592358 
L 415.1125 127.328815 
L 423.005357 126.93605 
L 430.898214 126.235893 
L 438.791071 124.931247 
L 446.683929 122.69949 
L 454.576786 119.410631 
L 462.469643 115.235394 
L 470.3625 110.528635 
" style="fill:none;stroke:#bfbf00;stroke-linecap:square;stroke-width:2;"/>
   </g>
   <g id="line2d_33">
    <path clip-path="url(#p42ef8955b0)" d="M 83.6125 296.354545 
L 91.505357 296.338599 
L 99.398214 296.293309 
L 107.291071 296.165514 
L 115.183929 295.80921 
L 123.076786 294.838061 
L 130.969643 292.304939 
L 138.8625 286.236755 
L 146.755357 273.775746 
L 154.648214 253.584401 
L 162.541071 228.934989 
L 170.433929 205.556637 
L 178.326786 186.826184 
L 186.219643 173.036344 
L 194.1125 163.151688 
L 202.005357 156.030283 
L 209.898214 150.798005 
L 217.791071 146.857884 
L 225.683929 143.815912 
L 233.576786 141.412253 
L 241.469643 139.473141 
L 249.3625 137.880012 
L 257.255357 136.550155 
L 265.148214 135.424585 
L 273.041071 134.460341 
L 280.933929 133.625513 
L 288.826786 132.895969 
L 296.719643 132.253159 
L 304.6125 131.682606 
L 312.505357 131.172861 
L 320.398214 130.714755 
L 328.291071 130.300863 
L 336.183929 129.925113 
L 344.076786 129.582488 
L 351.969643 129.268812 
L 359.8625 128.98058 
L 367.755357 128.714829 
L 375.648214 128.469036 
L 383.541071 128.241041 
L 391.433929 128.028984 
L 399.326786 127.831253 
L 407.219643 127.646439 
L 415.1125 127.473302 
L 423.005357 127.310714 
L 430.898214 127.157588 
L 438.791071 127.012694 
L 446.683929 126.874212 
L 454.576786 126.738527 
L 462.469643 126.597093 
L 470.3625 126.428516 
" style="fill:none;stroke:#000000;stroke-linecap:square;stroke-width:2;"/>
   </g>
   <g id="line2d_34">
    <path clip-path="url(#p42ef8955b0)" d="M 83.6125 296.354545 
L 91.505357 296.338599 
L 99.398214 296.293309 
L 107.291071 296.165514 
L 115.183929 295.80921 
L 123.076786 294.838061 
L 130.969643 292.304939 
L 138.8625 286.236755 
L 146.755357 273.775746 
L 154.648214 253.584401 
L 162.541071 228.934989 
L 170.433929 205.556637 
L 178.326786 186.826184 
L 186.219643 173.036344 
L 194.1125 163.151688 
L 202.005357 156.030283 
L 209.898214 150.798005 
L 217.791071 146.857884 
L 225.683929 143.815912 
L 233.576786 141.412253 
L 241.469643 139.473141 
L 249.3625 137.880012 
L 257.255357 136.550155 
L 265.148214 135.424585 
L 273.041071 134.460341 
L 280.933929 133.625513 
L 288.826786 132.895969 
L 296.719643 132.253159 
L 304.6125 131.682606 
L 312.505357 131.172861 
L 320.398214 130.714755 
L 328.291071 130.300863 
L 336.183929 129.925113 
L 344.076786 129.582488 
L 351.969643 129.268812 
L 359.8625 128.98058 
L 367.755357 128.714829 
L 375.648214 128.469036 
L 383.541071 128.241042 
L 391.433929 128.028987 
L 399.326786 127.831262 
L 407.219643 127.646464 
L 415.1125 127.473371 
L 423.005357 127.310907 
L 430.898214 127.158124 
L 438.791071 127.014184 
L 446.683929 126.878342 
L 454.576786 126.749933 
L 462.469643 126.62836 
L 470.3625 126.513082 
" style="fill:none;stroke:#ff0000;stroke-linecap:square;stroke-width:2;"/>
   </g>
   <g id="line2d_35">
    <path clip-path="url(#p42ef8955b0)" d="M 83.6125 296.354545 
L 91.505357 296.338599 
L 99.398214 296.293309 
L 107.291071 296.165514 
L 115.183929 295.80921 
L 123.076786 294.838061 
L 130.969643 292.304939 
L 138.8625 286.236755 
L 146.755357 273.775746 
L 154.648214 253.584401 
L 162.541071 228.934989 
L 170.433929 205.556637 
L 178.326786 186.826184 
L 186.219643 173.036344 
L 194.1125 163.151688 
L 202.005357 156.030283 
L 209.898214 150.798005 
L 217.791071 146.857884 
L 225.683929 143.815912 
L 233.576786 141.412253 
L 241.469643 139.473141 
L 249.3625 137.880012 
L 257.255357 136.550155 
L 265.148214 135.424585 
L 273.041071 134.460341 
L 280.933929 133.625513 
L 288.826786 132.895969 
L 296.719643 132.253159 
L 304.6125 131.682606 
L 312.505357 131.172861 
L 320.398214 130.714755 
L 328.291071 130.300863 
L 336.183929 129.925113 
L 344.076786 129.582488 
L 351.969643 129.268812 
L 359.8625 128.98058 
L 367.755357 128.714829 
L 375.648214 128.469036 
L 383.541071 128.241042 
L 391.433929 128.028987 
L 399.326786 127.831262 
L 407.219643 127.646464 
L 415.1125 127.473371 
L 423.005357 127.310907 
L 430.898214 127.158124 
L 438.791071 127.014184 
L 446.683929 126.878343 
L 454.576786 126.749938 
L 462.469643 126.628374 
L 470.3625 126.513122 
" style="fill:none;stroke:#0000ff;stroke-linecap:square;stroke-width:2;"/>
   </g>
   <g id="line2d_36">
    <path clip-path="url(#p42ef8955b0)" d="M 83.6125 296.354545 
L 91.505357 296.338599 
L 99.398214 296.293309 
L 107.291071 296.165514 
L 115.183929 295.80921 
L 123.076786 294.838061 
L 130.969643 292.304939 
L 138.8625 286.236755 
L 146.755357 273.775746 
L 154.648214 253.584401 
L 162.541071 228.934989 
L 170.433929 205.556637 
L 178.326786 186.826184 
L 186.219643 173.036344 
L 194.1125 163.151688 
L 202.005357 156.030283 
L 209.898214 150.798005 
L 217.791071 146.857884 
L 225.683929 143.815912 
L 233.576786 141.412253 
L 241.469643 139.473141 
L 249.3625 137.880012 
L 257.255357 136.550155 
L 265.148214 135.424585 
L 273.041071 134.460341 
L 280.933929 133.625513 
L 288.826786 132.895969 
L 296.719643 132.253159 
L 304.6125 131.682606 
L 312.505357 131.172861 
L 320.398214 130.714755 
L 328.291071 130.300863 
L 336.183929 129.925113 
L 344.076786 129.582488 
L 351.969643 129.268812 
L 359.8625 128.98058 
L 367.755357 128.714829 
L 375.648214 128.469036 
L 383.541071 128.241042 
L 391.433929 128.028987 
L 399.326786 127.831262 
L 407.219643 127.646464 
L 415.1125 127.473371 
L 423.005357 127.310907 
L 430.898214 127.158124 
L 438.791071 127.014184 
L 446.683929 126.878343 
L 454.576786 126.749938 
L 462.469643 126.628374 
L 470.3625 126.513122 
" style="fill:none;stroke:#008000;stroke-linecap:square;stroke-width:2;"/>
   </g>
   <g id="patch_3">
    <path d="M 64.275 309.1 
L 64.275 28.7 
" style="fill:none;stroke:#000000;stroke-linecap:square;stroke-linejoin:miter;stroke-width:0.8;"/>
   </g>
   <g id="patch_4">
    <path d="M 489.7 309.1 
L 489.7 28.7 
" style="fill:none;stroke:#000000;stroke-linecap:square;stroke-linejoin:miter;stroke-width:0.8;"/>
   </g>
   <g id="patch_5">
    <path d="M 64.275 309.1 
L 489.7 309.1 
" style="fill:none;stroke:#000000;stroke-linecap:square;stroke-linejoin:miter;stroke-width:0.8;"/>
   </g>
   <g id="patch_6">
    <path d="M 64.275 28.7 
L 489.7 28.7 
" style="fill:none;stroke:#000000;stroke-linecap:square;stroke-linejoin:miter;stroke-width:0.8;"/>
   </g>
   <g id="text_16">
    <!-- $c_{iss}(V_{gs})$ -->
    <defs>
     <path d="M 31 75.875 
Q 24.46875 64.65625 21.28125 53.65625 
Q 18.109375 42.671875 18.109375 31.390625 
Q 18.109375 20.125 21.3125 9.0625 
Q 24.515625 -2 31 -13.1875 
L 23.1875 -13.1875 
Q 15.875 -1.703125 12.234375 9.375 
Q 8.59375 20.453125 8.59375 31.390625 
Q 8.59375 42.28125 12.203125 53.3125 
Q 15.828125 64.359375 23.1875 75.875 
z
" id="DejaVuSans-28"/>
     <path d="M 59.625 54.6875 
L 50.296875 6.78125 
Q 47.609375 -7.125 40.015625 -13.953125 
Q 32.421875 -20.796875 19.578125 -20.796875 
Q 14.84375 -20.796875 10.78125 -20.09375 
Q 6.734375 -19.390625 3.21875 -17.921875 
L 4.890625 -9.1875 
Q 8.203125 -11.328125 11.90625 -12.34375 
Q 15.625 -13.375 19.828125 -13.375 
Q 28.375 -13.375 33.859375 -8.703125 
Q 39.359375 -4.046875 41.109375 4.6875 
L 41.890625 8.796875 
Q 38.140625 4.5 33.15625 2.25 
Q 28.171875 0 22.40625 0 
Q 14.109375 0 9.34375 5.484375 
Q 4.59375 10.984375 4.59375 20.609375 
Q 4.59375 28.171875 7.46875 35.421875 
Q 10.359375 42.671875 15.578125 48.296875 
Q 19.046875 52 23.65625 54 
Q 28.265625 56 33.296875 56 
Q 38.8125 56 42.90625 53.4375 
Q 47.015625 50.875 49.03125 46.1875 
L 50.59375 54.6875 
z
M 46.09375 34.625 
Q 46.09375 41.265625 42.96875 44.875 
Q 39.84375 48.484375 34.078125 48.484375 
Q 30.515625 48.484375 27.296875 47.0625 
Q 24.078125 45.65625 21.78125 43.109375 
Q 18.0625 38.921875 15.984375 33.234375 
Q 13.921875 27.546875 13.921875 21.484375 
Q 13.921875 14.75 17.0625 11.125 
Q 20.21875 7.515625 26.125 7.515625 
Q 34.671875 7.515625 40.375 15.25 
Q 46.09375 23 46.09375 34.625 
z
" id="DejaVuSans-Oblique-67"/>
     <path d="M 8.015625 75.875 
L 15.828125 75.875 
Q 23.140625 64.359375 26.78125 53.3125 
Q 30.421875 42.28125 30.421875 31.390625 
Q 30.421875 20.453125 26.78125 9.375 
Q 23.140625 -1.703125 15.828125 -13.1875 
L 8.015625 -13.1875 
Q 14.5 -2 17.703125 9.0625 
Q 20.90625 20.125 20.90625 31.390625 
Q 20.90625 42.671875 17.703125 53.65625 
Q 14.5 64.65625 8.015625 75.875 
z
" id="DejaVuSans-29"/>
    </defs>
    <g transform="translate(254.1275 22.7)scale(0.12 -0.12)">
     <use transform="translate(0 0.125)" xlink:href="#DejaVuSans-Oblique-63"/>
     <use transform="translate(54.980469 -16.28125)scale(0.7)" xlink:href="#DejaVuSans-Oblique-69"/>
     <use transform="translate(74.428711 -16.28125)scale(0.7)" xlink:href="#DejaVuSans-Oblique-73"/>
     <use transform="translate(110.898438 -16.28125)scale(0.7)" xlink:href="#DejaVuSans-Oblique-73"/>
     <use transform="translate(150.102539 0.125)" xlink:href="#DejaVuSans-28"/>
     <use transform="translate(189.116211 0.125)" xlink:href="#DejaVuSans-Oblique-56"/>
     <use transform="translate(257.524414 -16.28125)scale(0.7)" xlink:href="#DejaVuSans-Oblique-67"/>
     <use transform="translate(301.958008 -16.28125)scale(0.7)" xlink:href="#DejaVuSans-Oblique-73"/>
     <use transform="translate(341.162109 0.125)" xlink:href="#DejaVuSans-29"/>
    </g>
   </g>
   <g id="legend_1">
    <g id="patch_7">
     <path d="M 71.275 153.8375 
L 148.915 153.8375 
Q 150.915 153.8375 150.915 151.8375 
L 150.915 35.7 
Q 150.915 33.7 148.915 33.7 
L 71.275 33.7 
Q 69.275 33.7 69.275 35.7 
L 69.275 151.8375 
Q 69.275 153.8375 71.275 153.8375 
z
" style="fill:#ffffff;opacity:0.8;stroke:#cccccc;stroke-linejoin:miter;"/>
    </g>
    <g id="line2d_37">
     <path d="M 71.275 41.318125 
L 81.275 41.318125 
" style="fill:none;stroke:#ff0000;stroke-linecap:square;stroke-width:2;"/>
    </g>
    <g id="line2d_38"/>
    <g id="text_17">
     <!-- $V_{D}$=0.0 [V] -->
     <defs>
      <path d="M 16.890625 72.90625 
L 38.09375 72.90625 
Q 54.984375 72.90625 63.59375 65.75 
Q 72.21875 58.59375 72.21875 44.484375 
Q 72.21875 35.15625 68.9375 26.53125 
Q 65.671875 17.921875 59.90625 12.015625 
Q 54.109375 5.953125 45.171875 2.96875 
Q 36.234375 0 24.03125 0 
L 2.6875 0 
z
M 25.203125 64.796875 
L 14.203125 8.109375 
L 27.09375 8.109375 
Q 43.65625 8.109375 52.734375 17.625 
Q 61.8125 27.15625 61.8125 44.484375 
Q 61.8125 54.984375 55.953125 59.890625 
Q 50.09375 64.796875 37.59375 64.796875 
z
" id="DejaVuSans-Oblique-44"/>
      <path d="M 10.59375 45.40625 
L 73.1875 45.40625 
L 73.1875 37.203125 
L 10.59375 37.203125 
z
M 10.59375 25.484375 
L 73.1875 25.484375 
L 73.1875 17.1875 
L 10.59375 17.1875 
z
" id="DejaVuSans-3d"/>
      <path id="DejaVuSans-20"/>
     </defs>
     <g transform="translate(83.275 44.818125)scale(0.12 -0.12)">
      <use transform="translate(0 0.015625)" xlink:href="#DejaVuSans-Oblique-56"/>
      <use transform="translate(68.408203 -16.390625)scale(0.7)" xlink:href="#DejaVuSans-Oblique-44"/>
      <use transform="translate(125.043945 0.015625)" xlink:href="#DejaVuSans-3d"/>
      <use transform="translate(208.833008 0.015625)" xlink:href="#DejaVuSans-30"/>
      <use transform="translate(272.456055 0.015625)" xlink:href="#DejaVuSans-2e"/>
      <use transform="translate(304.243164 0.015625)" xlink:href="#DejaVuSans-30"/>
      <use transform="translate(367.866211 0.015625)" xlink:href="#DejaVuSans-20"/>
      <use transform="translate(399.65332 0.015625)" xlink:href="#DejaVuSans-5b"/>
      <use transform="translate(438.666992 0.015625)" xlink:href="#DejaVuSans-56"/>
      <use transform="translate(507.075195 0.015625)" xlink:href="#DejaVuSans-5d"/>
     </g>
    </g>
    <g id="line2d_39">
     <path d="M 71.275 52.931875 
L 81.275 52.931875 
" style="fill:none;stroke:#0000ff;stroke-linecap:square;stroke-width:2;"/>
    </g>
    <g id="line2d_40"/>
    <g id="text_18">
     <!-- $V_{D}$=0.2 [V] -->
     <g transform="translate(83.275 56.431875)scale(0.12 -0.12)">
      <use transform="translate(0 0.015625)" xlink:href="#DejaVuSans-Oblique-56"/>
      <use transform="translate(68.408203 -16.390625)scale(0.7)" xlink:href="#DejaVuSans-Oblique-44"/>
      <use transform="translate(125.043945 0.015625)" xlink:href="#DejaVuSans-3d"/>
      <use transform="translate(208.833008 0.015625)" xlink:href="#DejaVuSans-30"/>
      <use transform="translate(272.456055 0.015625)" xlink:href="#DejaVuSans-2e"/>
      <use transform="translate(304.165039 0.015625)" xlink:href="#DejaVuSans-32"/>
      <use transform="translate(367.788086 0.015625)" xlink:href="#DejaVuSans-20"/>
      <use transform="translate(399.575195 0.015625)" xlink:href="#DejaVuSans-5b"/>
      <use transform="translate(438.588867 0.015625)" xlink:href="#DejaVuSans-56"/>
      <use transform="translate(506.99707 0.015625)" xlink:href="#DejaVuSans-5d"/>
     </g>
    </g>
    <g id="line2d_41">
     <path d="M 71.275 64.545625 
L 81.275 64.545625 
" style="fill:none;stroke:#008000;stroke-linecap:square;stroke-width:2;"/>
    </g>
    <g id="line2d_42"/>
    <g id="text_19">
     <!-- $V_{D}$=0.4 [V] -->
     <g transform="translate(83.275 68.045625)scale(0.12 -0.12)">
      <use transform="translate(0 0.015625)" xlink:href="#DejaVuSans-Oblique-56"/>
      <use transform="translate(68.408203 -16.390625)scale(0.7)" xlink:href="#DejaVuSans-Oblique-44"/>
      <use transform="translate(125.043945 0.015625)" xlink:href="#DejaVuSans-3d"/>
      <use transform="translate(208.833008 0.015625)" xlink:href="#DejaVuSans-30"/>
      <use transform="translate(272.456055 0.015625)" xlink:href="#DejaVuSans-2e"/>
      <use transform="translate(304.243164 0.015625)" xlink:href="#DejaVuSans-34"/>
      <use transform="translate(367.866211 0.015625)" xlink:href="#DejaVuSans-20"/>
      <use transform="translate(399.65332 0.015625)" xlink:href="#DejaVuSans-5b"/>
      <use transform="translate(438.666992 0.015625)" xlink:href="#DejaVuSans-56"/>
      <use transform="translate(507.075195 0.015625)" xlink:href="#DejaVuSans-5d"/>
     </g>
    </g>
    <g id="line2d_43">
     <path d="M 71.275 76.159375 
L 81.275 76.159375 
" style="fill:none;stroke:#00bfbf;stroke-linecap:square;stroke-width:2;"/>
    </g>
    <g id="line2d_44"/>
    <g id="text_20">
     <!-- $V_{D}$=0.6 [V] -->
     <defs>
      <path d="M 33.015625 40.375 
Q 26.375 40.375 22.484375 35.828125 
Q 18.609375 31.296875 18.609375 23.390625 
Q 18.609375 15.53125 22.484375 10.953125 
Q 26.375 6.390625 33.015625 6.390625 
Q 39.65625 6.390625 43.53125 10.953125 
Q 47.40625 15.53125 47.40625 23.390625 
Q 47.40625 31.296875 43.53125 35.828125 
Q 39.65625 40.375 33.015625 40.375 
z
M 52.59375 71.296875 
L 52.59375 62.3125 
Q 48.875 64.0625 45.09375 64.984375 
Q 41.3125 65.921875 37.59375 65.921875 
Q 27.828125 65.921875 22.671875 59.328125 
Q 17.53125 52.734375 16.796875 39.40625 
Q 19.671875 43.65625 24.015625 45.921875 
Q 28.375 48.1875 33.59375 48.1875 
Q 44.578125 48.1875 50.953125 41.515625 
Q 57.328125 34.859375 57.328125 23.390625 
Q 57.328125 12.15625 50.6875 5.359375 
Q 44.046875 -1.421875 33.015625 -1.421875 
Q 20.359375 -1.421875 13.671875 8.265625 
Q 6.984375 17.96875 6.984375 36.375 
Q 6.984375 53.65625 15.1875 63.9375 
Q 23.390625 74.21875 37.203125 74.21875 
Q 40.921875 74.21875 44.703125 73.484375 
Q 48.484375 72.75 52.59375 71.296875 
z
" id="DejaVuSans-36"/>
     </defs>
     <g transform="translate(83.275 79.659375)scale(0.12 -0.12)">
      <use transform="translate(0 0.015625)" xlink:href="#DejaVuSans-Oblique-56"/>
      <use transform="translate(68.408203 -16.390625)scale(0.7)" xlink:href="#DejaVuSans-Oblique-44"/>
      <use transform="translate(125.043945 0.015625)" xlink:href="#DejaVuSans-3d"/>
      <use transform="translate(208.833008 0.015625)" xlink:href="#DejaVuSans-30"/>
      <use transform="translate(272.456055 0.015625)" xlink:href="#DejaVuSans-2e"/>
      <use transform="translate(304.243164 0.015625)" xlink:href="#DejaVuSans-36"/>
      <use transform="translate(367.866211 0.015625)" xlink:href="#DejaVuSans-20"/>
      <use transform="translate(399.65332 0.015625)" xlink:href="#DejaVuSans-5b"/>
      <use transform="translate(438.666992 0.015625)" xlink:href="#DejaVuSans-56"/>
      <use transform="translate(507.075195 0.015625)" xlink:href="#DejaVuSans-5d"/>
     </g>
    </g>
    <g id="line2d_45">
     <path d="M 71.275 87.773125 
L 81.275 87.773125 
" style="fill:none;stroke:#bf00bf;stroke-linecap:square;stroke-width:2;"/>
    </g>
    <g id="line2d_46"/>
    <g id="text_21">
     <!-- $V_{D}$=0.8 [V] -->
     <defs>
      <path d="M 31.78125 34.625 
Q 24.75 34.625 20.71875 30.859375 
Q 16.703125 27.09375 16.703125 20.515625 
Q 16.703125 13.921875 20.71875 10.15625 
Q 24.75 6.390625 31.78125 6.390625 
Q 38.8125 6.390625 42.859375 10.171875 
Q 46.921875 13.96875 46.921875 20.515625 
Q 46.921875 27.09375 42.890625 30.859375 
Q 38.875 34.625 31.78125 34.625 
z
M 21.921875 38.8125 
Q 15.578125 40.375 12.03125 44.71875 
Q 8.5 49.078125 8.5 55.328125 
Q 8.5 64.0625 14.71875 69.140625 
Q 20.953125 74.21875 31.78125 74.21875 
Q 42.671875 74.21875 48.875 69.140625 
Q 55.078125 64.0625 55.078125 55.328125 
Q 55.078125 49.078125 51.53125 44.71875 
Q 48 40.375 41.703125 38.8125 
Q 48.828125 37.15625 52.796875 32.3125 
Q 56.78125 27.484375 56.78125 20.515625 
Q 56.78125 9.90625 50.3125 4.234375 
Q 43.84375 -1.421875 31.78125 -1.421875 
Q 19.734375 -1.421875 13.25 4.234375 
Q 6.78125 9.90625 6.78125 20.515625 
Q 6.78125 27.484375 10.78125 32.3125 
Q 14.796875 37.15625 21.921875 38.8125 
z
M 18.3125 54.390625 
Q 18.3125 48.734375 21.84375 45.5625 
Q 25.390625 42.390625 31.78125 42.390625 
Q 38.140625 42.390625 41.71875 45.5625 
Q 45.3125 48.734375 45.3125 54.390625 
Q 45.3125 60.0625 41.71875 63.234375 
Q 38.140625 66.40625 31.78125 66.40625 
Q 25.390625 66.40625 21.84375 63.234375 
Q 18.3125 60.0625 18.3125 54.390625 
z
" id="DejaVuSans-38"/>
     </defs>
     <g transform="translate(83.275 91.273125)scale(0.12 -0.12)">
      <use transform="translate(0 0.015625)" xlink:href="#DejaVuSans-Oblique-56"/>
      <use transform="translate(68.408203 -16.390625)scale(0.7)" xlink:href="#DejaVuSans-Oblique-44"/>
      <use transform="translate(125.043945 0.015625)" xlink:href="#DejaVuSans-3d"/>
      <use transform="translate(208.833008 0.015625)" xlink:href="#DejaVuSans-30"/>
      <use transform="translate(272.456055 0.015625)" xlink:href="#DejaVuSans-2e"/>
      <use transform="translate(304.211914 0.015625)" xlink:href="#DejaVuSans-38"/>
      <use transform="translate(367.834961 0.015625)" xlink:href="#DejaVuSans-20"/>
      <use transform="translate(399.62207 0.015625)" xlink:href="#DejaVuSans-5b"/>
      <use transform="translate(438.635742 0.015625)" xlink:href="#DejaVuSans-56"/>
      <use transform="translate(507.043945 0.015625)" xlink:href="#DejaVuSans-5d"/>
     </g>
    </g>
    <g id="line2d_47">
     <path d="M 71.275 99.386875 
L 81.275 99.386875 
" style="fill:none;stroke:#bfbf00;stroke-linecap:square;stroke-width:2;"/>
    </g>
    <g id="line2d_48"/>
    <g id="text_22">
     <!-- $V_{D}$=1.0 [V] -->
     <g transform="translate(83.275 102.886875)scale(0.12 -0.12)">
      <use transform="translate(0 0.015625)" xlink:href="#DejaVuSans-Oblique-56"/>
      <use transform="translate(68.408203 -16.390625)scale(0.7)" xlink:href="#DejaVuSans-Oblique-44"/>
      <use transform="translate(125.043945 0.015625)" xlink:href="#DejaVuSans-3d"/>
      <use transform="translate(208.833008 0.015625)" xlink:href="#DejaVuSans-31"/>
      <use transform="translate(272.456055 0.015625)" xlink:href="#DejaVuSans-2e"/>
      <use transform="translate(304.243164 0.015625)" xlink:href="#DejaVuSans-30"/>
      <use transform="translate(367.866211 0.015625)" xlink:href="#DejaVuSans-20"/>
      <use transform="translate(399.65332 0.015625)" xlink:href="#DejaVuSans-5b"/>
      <use transform="translate(438.666992 0.015625)" xlink:href="#DejaVuSans-56"/>
      <use transform="translate(507.075195 0.015625)" xlink:href="#DejaVuSans-5d"/>
     </g>
    </g>
    <g id="line2d_49">
     <path d="M 71.275 111.000625 
L 81.275 111.000625 
" style="fill:none;stroke:#000000;stroke-linecap:square;stroke-width:2;"/>
    </g>
    <g id="line2d_50"/>
    <g id="text_23">
     <!-- $V_{D}$=1.2 [V] -->
     <g transform="translate(83.275 114.500625)scale(0.12 -0.12)">
      <use transform="translate(0 0.015625)" xlink:href="#DejaVuSans-Oblique-56"/>
      <use transform="translate(68.408203 -16.390625)scale(0.7)" xlink:href="#DejaVuSans-Oblique-44"/>
      <use transform="translate(125.043945 0.015625)" xlink:href="#DejaVuSans-3d"/>
      <use transform="translate(208.833008 0.015625)" xlink:href="#DejaVuSans-31"/>
      <use transform="translate(272.456055 0.015625)" xlink:href="#DejaVuSans-2e"/>
      <use transform="translate(304.165039 0.015625)" xlink:href="#DejaVuSans-32"/>
      <use transform="translate(367.788086 0.015625)" xlink:href="#DejaVuSans-20"/>
      <use transform="translate(399.575195 0.015625)" xlink:href="#DejaVuSans-5b"/>
      <use transform="translate(438.588867 0.015625)" xlink:href="#DejaVuSans-56"/>
      <use transform="translate(506.99707 0.015625)" xlink:href="#DejaVuSans-5d"/>
     </g>
    </g>
    <g id="line2d_51">
     <path d="M 71.275 122.614375 
L 81.275 122.614375 
" style="fill:none;stroke:#ff0000;stroke-linecap:square;stroke-width:2;"/>
    </g>
    <g id="line2d_52"/>
    <g id="text_24">
     <!-- $V_{D}$=1.4 [V] -->
     <g transform="translate(83.275 126.114375)scale(0.12 -0.12)">
      <use transform="translate(0 0.015625)" xlink:href="#DejaVuSans-Oblique-56"/>
      <use transform="translate(68.408203 -16.390625)scale(0.7)" xlink:href="#DejaVuSans-Oblique-44"/>
      <use transform="translate(125.043945 0.015625)" xlink:href="#DejaVuSans-3d"/>
      <use transform="translate(208.833008 0.015625)" xlink:href="#DejaVuSans-31"/>
      <use transform="translate(272.456055 0.015625)" xlink:href="#DejaVuSans-2e"/>
      <use transform="translate(304.243164 0.015625)" xlink:href="#DejaVuSans-34"/>
      <use transform="translate(367.866211 0.015625)" xlink:href="#DejaVuSans-20"/>
      <use transform="translate(399.65332 0.015625)" xlink:href="#DejaVuSans-5b"/>
      <use transform="translate(438.666992 0.015625)" xlink:href="#DejaVuSans-56"/>
      <use transform="translate(507.075195 0.015625)" xlink:href="#DejaVuSans-5d"/>
     </g>
    </g>
    <g id="line2d_53">
     <path d="M 71.275 134.228125 
L 81.275 134.228125 
" style="fill:none;stroke:#0000ff;stroke-linecap:square;stroke-width:2;"/>
    </g>
    <g id="line2d_54"/>
    <g id="text_25">
     <!-- $V_{D}$=1.6 [V] -->
     <g transform="translate(83.275 137.728125)scale(0.12 -0.12)">
      <use transform="translate(0 0.015625)" xlink:href="#DejaVuSans-Oblique-56"/>
      <use transform="translate(68.408203 -16.390625)scale(0.7)" xlink:href="#DejaVuSans-Oblique-44"/>
      <use transform="translate(125.043945 0.015625)" xlink:href="#DejaVuSans-3d"/>
      <use transform="translate(208.833008 0.015625)" xlink:href="#DejaVuSans-31"/>
      <use transform="translate(272.456055 0.015625)" xlink:href="#DejaVuSans-2e"/>
      <use transform="translate(304.243164 0.015625)" xlink:href="#DejaVuSans-36"/>
      <use transform="translate(367.866211 0.015625)" xlink:href="#DejaVuSans-20"/>
      <use transform="translate(399.65332 0.015625)" xlink:href="#DejaVuSans-5b"/>
      <use transform="translate(438.666992 0.015625)" xlink:href="#DejaVuSans-56"/>
      <use transform="translate(507.075195 0.015625)" xlink:href="#DejaVuSans-5d"/>
     </g>
    </g>
    <g id="line2d_55">
     <path d="M 71.275 145.841875 
L 81.275 145.841875 
" style="fill:none;stroke:#008000;stroke-linecap:square;stroke-width:2;"/>
    </g>
    <g id="line2d_56"/>
    <g id="text_26">
     <!-- $V_{D}$=1.8 [V] -->
     <g transform="translate(83.275 149.341875)scale(0.12 -0.12)">
      <use transform="translate(0 0.015625)" xlink:href="#DejaVuSans-Oblique-56"/>
      <use transform="translate(68.408203 -16.390625)scale(0.7)" xlink:href="#DejaVuSans-Oblique-44"/>
      <use transform="translate(125.043945 0.015625)" xlink:href="#DejaVuSans-3d"/>
      <use transform="translate(208.833008 0.015625)" xlink:href="#DejaVuSans-31"/>
      <use transform="translate(272.456055 0.015625)" xlink:href="#DejaVuSans-2e"/>
      <use transform="translate(304.211914 0.015625)" xlink:href="#DejaVuSans-38"/>
      <use transform="translate(367.834961 0.015625)" xlink:href="#DejaVuSans-20"/>
      <use transform="translate(399.62207 0.015625)" xlink:href="#DejaVuSans-5b"/>
      <use transform="translate(438.635742 0.015625)" xlink:href="#DejaVuSans-56"/>
      <use transform="translate(507.043945 0.015625)" xlink:href="#DejaVuSans-5d"/>
     </g>
    </g>
   </g>
  </g>
 </g>
 <defs>
  <clipPath id="p42ef8955b0">
   <rect height="280.4" width="425.425" x="64.275" y="28.7"/>
  </clipPath>
 </defs>
</svg>
