<?xml version="1.0" encoding="utf-8" standalone="no"?>
<!DOCTYPE svg PUBLIC "-//W3C//DTD SVG 1.1//EN"
  "http://www.w3.org/Graphics/SVG/1.1/DTD/svg11.dtd">
<!-- Created with matplotlib (http://matplotlib.org/) -->
<svg height="360pt" version="1.1" viewBox="0 0 504 360" width="504pt" xmlns="http://www.w3.org/2000/svg" xmlns:xlink="http://www.w3.org/1999/xlink">
 <defs>
  <style type="text/css">
*{stroke-linecap:butt;stroke-linejoin:round;}
  </style>
 </defs>
 <g id="figure_1">
  <g id="patch_1">
   <path d="M 0 360 
L 504 360 
L 504 0 
L 0 0 
z
" style="fill:#ffffff;"/>
  </g>
  <g id="axes_1">
   <g id="patch_2">
    <path d="M 60.65 309.1 
L 489.7 309.1 
L 489.7 28.7 
L 60.65 28.7 
z
" style="fill:#ffffff;"/>
   </g>
   <g id="matplotlib.axis_1">
    <g id="xtick_1">
     <g id="line2d_1">
      <path clip-path="url(#pd2a2238273)" d="M 80.152273 309.1 
L 80.152273 28.7 
" style="fill:none;stroke:#808080;stroke-linecap:square;stroke-width:0.8;"/>
     </g>
     <g id="line2d_2">
      <defs>
       <path d="M 0 0 
L 0 3.5 
" id="meb470de035" style="stroke:#000000;stroke-width:0.8;"/>
      </defs>
      <g>
       <use style="stroke:#000000;stroke-width:0.8;" x="80.152273" xlink:href="#meb470de035" y="309.1"/>
      </g>
     </g>
     <g id="text_1">
      <!-- 0.00 -->
      <defs>
       <path d="M 31.78125 66.40625 
Q 24.171875 66.40625 20.328125 58.90625 
Q 16.5 51.421875 16.5 36.375 
Q 16.5 21.390625 20.328125 13.890625 
Q 24.171875 6.390625 31.78125 6.390625 
Q 39.453125 6.390625 43.28125 13.890625 
Q 47.125 21.390625 47.125 36.375 
Q 47.125 51.421875 43.28125 58.90625 
Q 39.453125 66.40625 31.78125 66.40625 
z
M 31.78125 74.21875 
Q 44.046875 74.21875 50.515625 64.515625 
Q 56.984375 54.828125 56.984375 36.375 
Q 56.984375 17.96875 50.515625 8.265625 
Q 44.046875 -1.421875 31.78125 -1.421875 
Q 19.53125 -1.421875 13.0625 8.265625 
Q 6.59375 17.96875 6.59375 36.375 
Q 6.59375 54.828125 13.0625 64.515625 
Q 19.53125 74.21875 31.78125 74.21875 
z
" id="DejaVuSans-30"/>
       <path d="M 10.6875 12.40625 
L 21 12.40625 
L 21 0 
L 10.6875 0 
z
" id="DejaVuSans-2e"/>
      </defs>
      <g transform="translate(66.792898 325.218125)scale(0.12 -0.12)">
       <use xlink:href="#DejaVuSans-30"/>
       <use x="63.623047" xlink:href="#DejaVuSans-2e"/>
       <use x="95.410156" xlink:href="#DejaVuSans-30"/>
       <use x="159.033203" xlink:href="#DejaVuSans-30"/>
      </g>
     </g>
    </g>
    <g id="xtick_2">
     <g id="line2d_3">
      <path clip-path="url(#pd2a2238273)" d="M 134.325253 309.1 
L 134.325253 28.7 
" style="fill:none;stroke:#808080;stroke-linecap:square;stroke-width:0.8;"/>
     </g>
     <g id="line2d_4">
      <g>
       <use style="stroke:#000000;stroke-width:0.8;" x="134.325253" xlink:href="#meb470de035" y="309.1"/>
      </g>
     </g>
     <g id="text_2">
      <!-- 0.25 -->
      <defs>
       <path d="M 19.1875 8.296875 
L 53.609375 8.296875 
L 53.609375 0 
L 7.328125 0 
L 7.328125 8.296875 
Q 12.9375 14.109375 22.625 23.890625 
Q 32.328125 33.6875 34.8125 36.53125 
Q 39.546875 41.84375 41.421875 45.53125 
Q 43.3125 49.21875 43.3125 52.78125 
Q 43.3125 58.59375 39.234375 62.25 
Q 35.15625 65.921875 28.609375 65.921875 
Q 23.96875 65.921875 18.8125 64.3125 
Q 13.671875 62.703125 7.8125 59.421875 
L 7.8125 69.390625 
Q 13.765625 71.78125 18.9375 73 
Q 24.125 74.21875 28.421875 74.21875 
Q 39.75 74.21875 46.484375 68.546875 
Q 53.21875 62.890625 53.21875 53.421875 
Q 53.21875 48.921875 51.53125 44.890625 
Q 49.859375 40.875 45.40625 35.40625 
Q 44.1875 33.984375 37.640625 27.21875 
Q 31.109375 20.453125 19.1875 8.296875 
z
" id="DejaVuSans-32"/>
       <path d="M 10.796875 72.90625 
L 49.515625 72.90625 
L 49.515625 64.59375 
L 19.828125 64.59375 
L 19.828125 46.734375 
Q 21.96875 47.46875 24.109375 47.828125 
Q 26.265625 48.1875 28.421875 48.1875 
Q 40.625 48.1875 47.75 41.5 
Q 54.890625 34.8125 54.890625 23.390625 
Q 54.890625 11.625 47.5625 5.09375 
Q 40.234375 -1.421875 26.90625 -1.421875 
Q 22.3125 -1.421875 17.546875 -0.640625 
Q 12.796875 0.140625 7.71875 1.703125 
L 7.71875 11.625 
Q 12.109375 9.234375 16.796875 8.0625 
Q 21.484375 6.890625 26.703125 6.890625 
Q 35.15625 6.890625 40.078125 11.328125 
Q 45.015625 15.765625 45.015625 23.390625 
Q 45.015625 31 40.078125 35.4375 
Q 35.15625 39.890625 26.703125 39.890625 
Q 22.75 39.890625 18.8125 39.015625 
Q 14.890625 38.140625 10.796875 36.28125 
z
" id="DejaVuSans-35"/>
      </defs>
      <g transform="translate(120.965878 325.218125)scale(0.12 -0.12)">
       <use xlink:href="#DejaVuSans-30"/>
       <use x="63.623047" xlink:href="#DejaVuSans-2e"/>
       <use x="95.410156" xlink:href="#DejaVuSans-32"/>
       <use x="159.033203" xlink:href="#DejaVuSans-35"/>
      </g>
     </g>
    </g>
    <g id="xtick_3">
     <g id="line2d_5">
      <path clip-path="url(#pd2a2238273)" d="M 188.498232 309.1 
L 188.498232 28.7 
" style="fill:none;stroke:#808080;stroke-linecap:square;stroke-width:0.8;"/>
     </g>
     <g id="line2d_6">
      <g>
       <use style="stroke:#000000;stroke-width:0.8;" x="188.498232" xlink:href="#meb470de035" y="309.1"/>
      </g>
     </g>
     <g id="text_3">
      <!-- 0.50 -->
      <g transform="translate(175.138857 325.218125)scale(0.12 -0.12)">
       <use xlink:href="#DejaVuSans-30"/>
       <use x="63.623047" xlink:href="#DejaVuSans-2e"/>
       <use x="95.410156" xlink:href="#DejaVuSans-35"/>
       <use x="159.033203" xlink:href="#DejaVuSans-30"/>
      </g>
     </g>
    </g>
    <g id="xtick_4">
     <g id="line2d_7">
      <path clip-path="url(#pd2a2238273)" d="M 242.671212 309.1 
L 242.671212 28.7 
" style="fill:none;stroke:#808080;stroke-linecap:square;stroke-width:0.8;"/>
     </g>
     <g id="line2d_8">
      <g>
       <use style="stroke:#000000;stroke-width:0.8;" x="242.671212" xlink:href="#meb470de035" y="309.1"/>
      </g>
     </g>
     <g id="text_4">
      <!-- 0.75 -->
      <defs>
       <path d="M 8.203125 72.90625 
L 55.078125 72.90625 
L 55.078125 68.703125 
L 28.609375 0 
L 18.3125 0 
L 43.21875 64.59375 
L 8.203125 64.59375 
z
" id="DejaVuSans-37"/>
      </defs>
      <g transform="translate(229.311837 325.218125)scale(0.12 -0.12)">
       <use xlink:href="#DejaVuSans-30"/>
       <use x="63.623047" xlink:href="#DejaVuSans-2e"/>
       <use x="95.410156" xlink:href="#DejaVuSans-37"/>
       <use x="159.033203" xlink:href="#DejaVuSans-35"/>
      </g>
     </g>
    </g>
    <g id="xtick_5">
     <g id="line2d_9">
      <path clip-path="url(#pd2a2238273)" d="M 296.844192 309.1 
L 296.844192 28.7 
" style="fill:none;stroke:#808080;stroke-linecap:square;stroke-width:0.8;"/>
     </g>
     <g id="line2d_10">
      <g>
       <use style="stroke:#000000;stroke-width:0.8;" x="296.844192" xlink:href="#meb470de035" y="309.1"/>
      </g>
     </g>
     <g id="text_5">
      <!-- 1.00 -->
      <defs>
       <path d="M 12.40625 8.296875 
L 28.515625 8.296875 
L 28.515625 63.921875 
L 10.984375 60.40625 
L 10.984375 69.390625 
L 28.421875 72.90625 
L 38.28125 72.90625 
L 38.28125 8.296875 
L 54.390625 8.296875 
L 54.390625 0 
L 12.40625 0 
z
" id="DejaVuSans-31"/>
      </defs>
      <g transform="translate(283.484817 325.218125)scale(0.12 -0.12)">
       <use xlink:href="#DejaVuSans-31"/>
       <use x="63.623047" xlink:href="#DejaVuSans-2e"/>
       <use x="95.410156" xlink:href="#DejaVuSans-30"/>
       <use x="159.033203" xlink:href="#DejaVuSans-30"/>
      </g>
     </g>
    </g>
    <g id="xtick_6">
     <g id="line2d_11">
      <path clip-path="url(#pd2a2238273)" d="M 351.017172 309.1 
L 351.017172 28.7 
" style="fill:none;stroke:#808080;stroke-linecap:square;stroke-width:0.8;"/>
     </g>
     <g id="line2d_12">
      <g>
       <use style="stroke:#000000;stroke-width:0.8;" x="351.017172" xlink:href="#meb470de035" y="309.1"/>
      </g>
     </g>
     <g id="text_6">
      <!-- 1.25 -->
      <g transform="translate(337.657797 325.218125)scale(0.12 -0.12)">
       <use xlink:href="#DejaVuSans-31"/>
       <use x="63.623047" xlink:href="#DejaVuSans-2e"/>
       <use x="95.410156" xlink:href="#DejaVuSans-32"/>
       <use x="159.033203" xlink:href="#DejaVuSans-35"/>
      </g>
     </g>
    </g>
    <g id="xtick_7">
     <g id="line2d_13">
      <path clip-path="url(#pd2a2238273)" d="M 405.190152 309.1 
L 405.190152 28.7 
" style="fill:none;stroke:#808080;stroke-linecap:square;stroke-width:0.8;"/>
     </g>
     <g id="line2d_14">
      <g>
       <use style="stroke:#000000;stroke-width:0.8;" x="405.190152" xlink:href="#meb470de035" y="309.1"/>
      </g>
     </g>
     <g id="text_7">
      <!-- 1.50 -->
      <g transform="translate(391.830777 325.218125)scale(0.12 -0.12)">
       <use xlink:href="#DejaVuSans-31"/>
       <use x="63.623047" xlink:href="#DejaVuSans-2e"/>
       <use x="95.410156" xlink:href="#DejaVuSans-35"/>
       <use x="159.033203" xlink:href="#DejaVuSans-30"/>
      </g>
     </g>
    </g>
    <g id="xtick_8">
     <g id="line2d_15">
      <path clip-path="url(#pd2a2238273)" d="M 459.363131 309.1 
L 459.363131 28.7 
" style="fill:none;stroke:#808080;stroke-linecap:square;stroke-width:0.8;"/>
     </g>
     <g id="line2d_16">
      <g>
       <use style="stroke:#000000;stroke-width:0.8;" x="459.363131" xlink:href="#meb470de035" y="309.1"/>
      </g>
     </g>
     <g id="text_8">
      <!-- 1.75 -->
      <g transform="translate(446.003756 325.218125)scale(0.12 -0.12)">
       <use xlink:href="#DejaVuSans-31"/>
       <use x="63.623047" xlink:href="#DejaVuSans-2e"/>
       <use x="95.410156" xlink:href="#DejaVuSans-37"/>
       <use x="159.033203" xlink:href="#DejaVuSans-35"/>
      </g>
     </g>
    </g>
    <g id="text_9">
     <!-- $V_{G}$ [V] -->
     <defs>
      <path d="M 20.609375 0 
L 7.8125 72.90625 
L 17.484375 72.90625 
L 28.078125 10.203125 
L 63.484375 72.90625 
L 74.21875 72.90625 
L 32.078125 0 
z
" id="DejaVuSans-Oblique-56"/>
      <path d="M 54.59375 10.890625 
L 58.40625 29.984375 
L 42.1875 29.984375 
L 43.703125 38.09375 
L 69.578125 38.09375 
L 63.28125 6 
Q 56.78125 2.4375 49.109375 0.5 
Q 41.453125 -1.421875 33.6875 -1.421875 
Q 19.96875 -1.421875 12.234375 6.1875 
Q 4.5 13.8125 4.5 27.390625 
Q 4.5 38.671875 9.203125 48.84375 
Q 13.921875 59.03125 22.21875 65.828125 
Q 27.4375 70.0625 33.640625 72.140625 
Q 39.84375 74.21875 47.40625 74.21875 
Q 54.25 74.21875 60.515625 72.484375 
Q 66.796875 70.75 72.515625 67.28125 
L 70.515625 56.78125 
Q 66.109375 61.375 60.203125 63.796875 
Q 54.296875 66.21875 47.609375 66.21875 
Q 39.84375 66.21875 33.9375 63.25 
Q 28.03125 60.296875 23.390625 54.109375 
Q 19.4375 48.828125 17.15625 41.671875 
Q 14.890625 34.515625 14.890625 27.09375 
Q 14.890625 16.890625 20.109375 11.734375 
Q 25.34375 6.59375 35.6875 6.59375 
Q 40.875 6.59375 45.703125 7.6875 
Q 50.53125 8.796875 54.59375 10.890625 
z
" id="DejaVuSans-Oblique-47"/>
      <path id="DejaVuSans-20"/>
      <path d="M 8.59375 75.984375 
L 29.296875 75.984375 
L 29.296875 69 
L 17.578125 69 
L 17.578125 -6.203125 
L 29.296875 -6.203125 
L 29.296875 -13.1875 
L 8.59375 -13.1875 
z
" id="DejaVuSans-5b"/>
      <path d="M 28.609375 0 
L 0.78125 72.90625 
L 11.078125 72.90625 
L 34.1875 11.53125 
L 57.328125 72.90625 
L 67.578125 72.90625 
L 39.796875 0 
z
" id="DejaVuSans-56"/>
      <path d="M 30.421875 75.984375 
L 30.421875 -13.1875 
L 9.71875 -13.1875 
L 9.71875 -6.203125 
L 21.390625 -6.203125 
L 21.390625 69 
L 9.71875 69 
L 9.71875 75.984375 
z
" id="DejaVuSans-5d"/>
     </defs>
     <g transform="translate(256.935 340.831875)scale(0.12 -0.12)">
      <use transform="translate(0 0.015625)" xlink:href="#DejaVuSans-Oblique-56"/>
      <use transform="translate(68.408203 -16.390625)scale(0.7)" xlink:href="#DejaVuSans-Oblique-47"/>
      <use transform="translate(125.385742 0.015625)" xlink:href="#DejaVuSans-20"/>
      <use transform="translate(157.172852 0.015625)" xlink:href="#DejaVuSans-5b"/>
      <use transform="translate(196.186523 0.015625)" xlink:href="#DejaVuSans-56"/>
      <use transform="translate(264.594727 0.015625)" xlink:href="#DejaVuSans-5d"/>
     </g>
    </g>
   </g>
   <g id="matplotlib.axis_2">
    <g id="ytick_1">
     <g id="line2d_17">
      <path clip-path="url(#pd2a2238273)" d="M 60.65 296.354584 
L 489.7 296.354584 
" style="fill:none;stroke:#808080;stroke-linecap:square;stroke-width:0.8;"/>
     </g>
     <g id="line2d_18">
      <defs>
       <path d="M 0 0 
L -3.5 0 
" id="m6c6c80b753" style="stroke:#000000;stroke-width:0.8;"/>
      </defs>
      <g>
       <use style="stroke:#000000;stroke-width:0.8;" x="60.65" xlink:href="#m6c6c80b753" y="296.354584"/>
      </g>
     </g>
     <g id="text_10">
      <!-- 0 -->
      <g transform="translate(46.015 300.913646)scale(0.12 -0.12)">
       <use xlink:href="#DejaVuSans-30"/>
      </g>
     </g>
    </g>
    <g id="ytick_2">
     <g id="line2d_19">
      <path clip-path="url(#pd2a2238273)" d="M 60.65 260.338435 
L 489.7 260.338435 
" style="fill:none;stroke:#808080;stroke-linecap:square;stroke-width:0.8;"/>
     </g>
     <g id="line2d_20">
      <g>
       <use style="stroke:#000000;stroke-width:0.8;" x="60.65" xlink:href="#m6c6c80b753" y="260.338435"/>
      </g>
     </g>
     <g id="text_11">
      <!-- 25 -->
      <g transform="translate(38.38 264.897498)scale(0.12 -0.12)">
       <use xlink:href="#DejaVuSans-32"/>
       <use x="63.623047" xlink:href="#DejaVuSans-35"/>
      </g>
     </g>
    </g>
    <g id="ytick_3">
     <g id="line2d_21">
      <path clip-path="url(#pd2a2238273)" d="M 60.65 224.322287 
L 489.7 224.322287 
" style="fill:none;stroke:#808080;stroke-linecap:square;stroke-width:0.8;"/>
     </g>
     <g id="line2d_22">
      <g>
       <use style="stroke:#000000;stroke-width:0.8;" x="60.65" xlink:href="#m6c6c80b753" y="224.322287"/>
      </g>
     </g>
     <g id="text_12">
      <!-- 50 -->
      <g transform="translate(38.38 228.881349)scale(0.12 -0.12)">
       <use xlink:href="#DejaVuSans-35"/>
       <use x="63.623047" xlink:href="#DejaVuSans-30"/>
      </g>
     </g>
    </g>
    <g id="ytick_4">
     <g id="line2d_23">
      <path clip-path="url(#pd2a2238273)" d="M 60.65 188.306139 
L 489.7 188.306139 
" style="fill:none;stroke:#808080;stroke-linecap:square;stroke-width:0.8;"/>
     </g>
     <g id="line2d_24">
      <g>
       <use style="stroke:#000000;stroke-width:0.8;" x="60.65" xlink:href="#m6c6c80b753" y="188.306139"/>
      </g>
     </g>
     <g id="text_13">
      <!-- 75 -->
      <g transform="translate(38.38 192.865201)scale(0.12 -0.12)">
       <use xlink:href="#DejaVuSans-37"/>
       <use x="63.623047" xlink:href="#DejaVuSans-35"/>
      </g>
     </g>
    </g>
    <g id="ytick_5">
     <g id="line2d_25">
      <path clip-path="url(#pd2a2238273)" d="M 60.65 152.28999 
L 489.7 152.28999 
" style="fill:none;stroke:#808080;stroke-linecap:square;stroke-width:0.8;"/>
     </g>
     <g id="line2d_26">
      <g>
       <use style="stroke:#000000;stroke-width:0.8;" x="60.65" xlink:href="#m6c6c80b753" y="152.28999"/>
      </g>
     </g>
     <g id="text_14">
      <!-- 100 -->
      <g transform="translate(30.745 156.849053)scale(0.12 -0.12)">
       <use xlink:href="#DejaVuSans-31"/>
       <use x="63.623047" xlink:href="#DejaVuSans-30"/>
       <use x="127.246094" xlink:href="#DejaVuSans-30"/>
      </g>
     </g>
    </g>
    <g id="ytick_6">
     <g id="line2d_27">
      <path clip-path="url(#pd2a2238273)" d="M 60.65 116.273842 
L 489.7 116.273842 
" style="fill:none;stroke:#808080;stroke-linecap:square;stroke-width:0.8;"/>
     </g>
     <g id="line2d_28">
      <g>
       <use style="stroke:#000000;stroke-width:0.8;" x="60.65" xlink:href="#m6c6c80b753" y="116.273842"/>
      </g>
     </g>
     <g id="text_15">
      <!-- 125 -->
      <g transform="translate(30.745 120.832904)scale(0.12 -0.12)">
       <use xlink:href="#DejaVuSans-31"/>
       <use x="63.623047" xlink:href="#DejaVuSans-32"/>
       <use x="127.246094" xlink:href="#DejaVuSans-35"/>
      </g>
     </g>
    </g>
    <g id="ytick_7">
     <g id="line2d_29">
      <path clip-path="url(#pd2a2238273)" d="M 60.65 80.257693 
L 489.7 80.257693 
" style="fill:none;stroke:#808080;stroke-linecap:square;stroke-width:0.8;"/>
     </g>
     <g id="line2d_30">
      <g>
       <use style="stroke:#000000;stroke-width:0.8;" x="60.65" xlink:href="#m6c6c80b753" y="80.257693"/>
      </g>
     </g>
     <g id="text_16">
      <!-- 150 -->
      <g transform="translate(30.745 84.816756)scale(0.12 -0.12)">
       <use xlink:href="#DejaVuSans-31"/>
       <use x="63.623047" xlink:href="#DejaVuSans-35"/>
       <use x="127.246094" xlink:href="#DejaVuSans-30"/>
      </g>
     </g>
    </g>
    <g id="ytick_8">
     <g id="line2d_31">
      <path clip-path="url(#pd2a2238273)" d="M 60.65 44.241545 
L 489.7 44.241545 
" style="fill:none;stroke:#808080;stroke-linecap:square;stroke-width:0.8;"/>
     </g>
     <g id="line2d_32">
      <g>
       <use style="stroke:#000000;stroke-width:0.8;" x="60.65" xlink:href="#m6c6c80b753" y="44.241545"/>
      </g>
     </g>
     <g id="text_17">
      <!-- 175 -->
      <g transform="translate(30.745 48.800607)scale(0.12 -0.12)">
       <use xlink:href="#DejaVuSans-31"/>
       <use x="63.623047" xlink:href="#DejaVuSans-37"/>
       <use x="127.246094" xlink:href="#DejaVuSans-35"/>
      </g>
     </g>
    </g>
    <g id="text_18">
     <!-- $I_{DS X1}$ [uA] -->
     <defs>
      <path d="M 16.890625 72.90625 
L 26.8125 72.90625 
L 12.59375 0 
L 2.6875 0 
z
" id="DejaVuSans-Oblique-49"/>
      <path d="M 16.890625 72.90625 
L 38.09375 72.90625 
Q 54.984375 72.90625 63.59375 65.75 
Q 72.21875 58.59375 72.21875 44.484375 
Q 72.21875 35.15625 68.9375 26.53125 
Q 65.671875 17.921875 59.90625 12.015625 
Q 54.109375 5.953125 45.171875 2.96875 
Q 36.234375 0 24.03125 0 
L 2.6875 0 
z
M 25.203125 64.796875 
L 14.203125 8.109375 
L 27.09375 8.109375 
Q 43.65625 8.109375 52.734375 17.625 
Q 61.8125 27.15625 61.8125 44.484375 
Q 61.8125 54.984375 55.953125 59.890625 
Q 50.09375 64.796875 37.59375 64.796875 
z
" id="DejaVuSans-Oblique-44"/>
      <path d="M 60.296875 70.515625 
L 58.40625 60.890625 
Q 53.46875 63.53125 48.609375 64.875 
Q 43.75 66.21875 39.203125 66.21875 
Q 30.375 66.21875 25.140625 62.359375 
Q 19.921875 58.5 19.921875 52.09375 
Q 19.921875 48.578125 21.84375 46.703125 
Q 23.78125 44.828125 31.78125 42.671875 
L 37.703125 41.21875 
Q 47.703125 38.625 51.609375 34.640625 
Q 55.515625 30.671875 55.515625 23.484375 
Q 55.515625 12.453125 46.84375 5.515625 
Q 38.1875 -1.421875 24.03125 -1.421875 
Q 18.21875 -1.421875 12.359375 -0.265625 
Q 6.5 0.875 0.59375 3.21875 
L 2.59375 13.375 
Q 8.015625 10.015625 13.453125 8.296875 
Q 18.890625 6.59375 24.3125 6.59375 
Q 33.546875 6.59375 39.109375 10.6875 
Q 44.671875 14.796875 44.671875 21.390625 
Q 44.671875 25.78125 42.453125 28.046875 
Q 40.234375 30.328125 32.90625 32.171875 
L 27 33.6875 
Q 16.890625 36.328125 13.203125 39.765625 
Q 9.515625 43.21875 9.515625 49.421875 
Q 9.515625 60.296875 17.890625 67.25 
Q 26.265625 74.21875 39.703125 74.21875 
Q 44.921875 74.21875 50.046875 73.28125 
Q 55.171875 72.359375 60.296875 70.515625 
z
" id="DejaVuSans-Oblique-53"/>
      <path d="M 13.71875 72.90625 
L 23.6875 72.90625 
L 36.1875 46.578125 
L 58.796875 72.90625 
L 70.3125 72.90625 
L 40.28125 38.09375 
L 58.40625 0 
L 48.484375 0 
L 33.796875 30.71875 
L 7.171875 0 
L -4.296875 0 
L 29.78125 39.203125 
z
" id="DejaVuSans-Oblique-58"/>
      <path d="M 8.5 21.578125 
L 8.5 54.6875 
L 17.484375 54.6875 
L 17.484375 21.921875 
Q 17.484375 14.15625 20.5 10.265625 
Q 23.53125 6.390625 29.59375 6.390625 
Q 36.859375 6.390625 41.078125 11.03125 
Q 45.3125 15.671875 45.3125 23.6875 
L 45.3125 54.6875 
L 54.296875 54.6875 
L 54.296875 0 
L 45.3125 0 
L 45.3125 8.40625 
Q 42.046875 3.421875 37.71875 1 
Q 33.40625 -1.421875 27.6875 -1.421875 
Q 18.265625 -1.421875 13.375 4.4375 
Q 8.5 10.296875 8.5 21.578125 
z
M 31.109375 56 
z
" id="DejaVuSans-75"/>
      <path d="M 34.1875 63.1875 
L 20.796875 26.90625 
L 47.609375 26.90625 
z
M 28.609375 72.90625 
L 39.796875 72.90625 
L 67.578125 0 
L 57.328125 0 
L 50.6875 18.703125 
L 17.828125 18.703125 
L 11.1875 0 
L 0.78125 0 
z
" id="DejaVuSans-41"/>
     </defs>
     <g transform="translate(24.249375 196.8)rotate(-90)scale(0.12 -0.12)">
      <use transform="translate(0 0.015625)" xlink:href="#DejaVuSans-Oblique-49"/>
      <use transform="translate(29.492188 -16.390625)scale(0.7)" xlink:href="#DejaVuSans-Oblique-44"/>
      <use transform="translate(83.393555 -16.390625)scale(0.7)" xlink:href="#DejaVuSans-Oblique-53"/>
      <use transform="translate(127.827148 -16.390625)scale(0.7)" xlink:href="#DejaVuSans-Oblique-58"/>
      <use transform="translate(175.78125 -16.390625)scale(0.7)" xlink:href="#DejaVuSans-31"/>
      <use transform="translate(223.051758 0.015625)" xlink:href="#DejaVuSans-20"/>
      <use transform="translate(254.838867 0.015625)" xlink:href="#DejaVuSans-5b"/>
      <use transform="translate(293.852539 0.015625)" xlink:href="#DejaVuSans-75"/>
      <use transform="translate(357.231445 0.015625)" xlink:href="#DejaVuSans-41"/>
      <use transform="translate(425.639648 0.015625)" xlink:href="#DejaVuSans-5d"/>
     </g>
    </g>
   </g>
   <g id="line2d_33">
    <path clip-path="url(#pd2a2238273)" d="M 80.152273 296.354545 
L 88.112384 296.354475 
L 96.072495 296.354274 
L 104.032607 296.353706 
L 111.992718 296.352119 
L 119.952829 296.347753 
L 127.912941 296.336044 
L 135.873052 296.305882 
L 143.833163 296.232643 
L 151.793275 296.068726 
L 159.753386 295.737586 
L 167.713497 295.141611 
L 175.673609 294.186628 
L 183.63372 292.809139 
L 191.593831 290.989441 
L 199.553942 288.749674 
L 207.514054 286.147266 
L 215.474165 283.269783 
L 223.434276 280.226743 
L 231.394388 277.132013 
L 239.354499 274.081286 
L 247.31461 271.137761 
L 255.274722 268.33227 
L 263.234833 265.672527 
L 271.194944 263.153501 
L 279.155056 260.764854 
L 287.115167 258.495075 
L 295.075278 256.333345 
L 303.03539 254.270155 
L 310.995501 252.297355 
L 318.955612 250.407979 
L 326.915724 248.596038 
L 334.875835 246.856317 
L 342.835946 245.184215 
L 350.796058 243.575625 
L 358.756169 242.026841 
L 366.71628 240.53449 
L 374.676391 239.095479 
L 382.636503 237.706959 
L 390.596614 236.366293 
L 398.556725 235.071035 
L 406.516837 233.818905 
L 414.476948 232.60778 
L 422.437059 231.435673 
L 430.397171 230.300728 
L 438.357282 229.201202 
L 446.317393 228.135462 
L 454.277505 227.101974 
L 462.237616 226.099296 
L 470.197727 225.12607 
" style="fill:none;stroke:#0000ff;stroke-linecap:square;stroke-width:2;"/>
   </g>
   <g id="line2d_34">
    <path clip-path="url(#pd2a2238273)" d="M 80.152273 296.354544 
L 88.112384 296.354472 
L 96.072495 296.354265 
L 104.032607 296.353682 
L 111.992718 296.352051 
L 119.952829 296.347565 
L 127.912941 296.335534 
L 135.873052 296.304539 
L 143.833163 296.229271 
L 151.793275 296.060786 
L 159.753386 295.720313 
L 167.713497 295.107173 
L 175.673609 294.123519 
L 183.63372 292.70123 
L 191.593831 290.812979 
L 199.553942 288.465507 
L 207.514054 285.685644 
L 215.474165 282.508271 
L 223.434276 278.969129 
L 231.394388 275.101722 
L 239.354499 270.936916 
L 247.31461 266.504494 
L 255.274722 261.836787 
L 263.234833 256.974668 
L 271.194944 251.974573 
L 279.155056 246.911433 
L 287.115167 241.871044 
L 295.075278 236.932766 
L 303.03539 232.153607 
L 310.995501 227.563403 
L 318.955612 223.170129 
L 326.915724 218.96858 
L 334.875835 214.947525 
L 342.835946 211.094052 
L 350.796058 207.395674 
L 358.756169 203.84112 
L 366.71628 200.420474 
L 374.676391 197.125059 
L 382.636503 193.947235 
L 390.596614 190.880214 
L 398.556725 187.917895 
L 406.516837 185.05474 
L 414.476948 182.28568 
L 422.437059 179.606039 
L 430.397171 177.011485 
L 438.357282 174.497985 
L 446.317393 172.06177 
L 454.277505 169.699313 
L 462.237616 167.407302 
L 470.197727 165.182627 
" style="fill:none;stroke:#008000;stroke-linecap:square;stroke-width:2;"/>
   </g>
   <g id="line2d_35">
    <path clip-path="url(#pd2a2238273)" d="M 80.152273 296.354543 
L 88.112384 296.354469 
L 96.072495 296.354257 
L 104.032607 296.353658 
L 111.992718 296.351985 
L 119.952829 296.34738 
L 127.912941 296.335033 
L 135.873052 296.303222 
L 143.833163 296.225973 
L 151.793275 296.053054 
L 159.753386 295.703621 
L 167.713497 295.074345 
L 175.673609 294.064805 
L 183.63372 292.605083 
L 191.593831 290.667131 
L 199.553942 288.257853 
L 207.514054 285.404753 
L 215.474165 282.143536 
L 223.434276 278.510632 
L 231.394388 274.539748 
L 239.354499 270.26079 
L 247.31461 265.699894 
L 255.274722 260.879869 
L 263.234833 255.820732 
L 271.194944 250.540207 
L 279.155056 245.054178 
L 287.115167 239.37717 
L 295.075278 233.523003 
L 303.03539 227.505996 
L 310.995501 221.343337 
L 318.955612 215.059353 
L 326.915724 208.691472 
L 334.875835 202.294703 
L 342.835946 195.938621 
L 350.796058 189.694307 
L 358.756169 183.618297 
L 366.71628 177.744077 
L 374.676391 172.083828 
L 382.636503 166.635461 
L 390.596614 161.389573 
L 398.556725 156.334122 
L 406.516837 151.456902 
L 414.476948 146.746591 
L 422.437059 142.193045 
L 430.397171 137.787262 
L 438.357282 133.52123 
L 446.317393 129.387757 
L 454.277505 125.380323 
L 462.237616 121.492963 
L 470.197727 117.720172 
" style="fill:none;stroke:#00bfbf;stroke-linecap:square;stroke-width:2;"/>
   </g>
   <g id="line2d_36">
    <path clip-path="url(#pd2a2238273)" d="M 80.152273 296.354542 
L 88.112384 296.354466 
L 96.072495 296.354248 
L 104.032607 296.353634 
L 111.992718 296.351918 
L 119.952829 296.347195 
L 127.912941 296.334531 
L 135.873052 296.301905 
L 143.833163 296.222676 
L 151.793275 296.045323 
L 159.753386 295.68693 
L 167.713497 295.041519 
L 175.673609 294.006093 
L 183.63372 292.508942 
L 191.593831 290.521298 
L 199.553942 288.050245 
L 207.514054 285.123988 
L 215.474165 281.77915 
L 223.434276 278.053095 
L 231.394388 273.980392 
L 239.354499 269.591715 
L 247.31461 264.913867 
L 255.274722 259.970234 
L 263.234833 254.781326 
L 271.194944 249.365266 
L 279.155056 243.738192 
L 287.115167 237.914584 
L 295.075278 231.907514 
L 303.03539 225.728847 
L 310.995501 219.389404 
L 318.955612 212.899089 
L 326.915724 206.267015 
L 334.875835 199.50163 
L 342.835946 192.610889 
L 350.796058 185.602589 
L 358.756169 178.485092 
L 366.71628 171.268901 
L 374.676391 163.969776 
L 382.636503 156.613699 
L 390.596614 149.241965 
L 398.556725 141.911559 
L 406.516837 134.686433 
L 414.476948 127.622805 
L 422.437059 120.758164 
L 430.397171 114.109636 
L 438.357282 107.679113 
L 446.317393 101.459823 
L 454.277505 95.441299 
L 462.237616 89.61224 
L 470.197727 83.961844 
" style="fill:none;stroke:#bf00bf;stroke-linecap:square;stroke-width:2;"/>
   </g>
   <g id="line2d_37">
    <path clip-path="url(#pd2a2238273)" d="M 80.152273 296.354541 
L 88.112384 296.354463 
L 96.072495 296.35424 
L 104.032607 296.353611 
L 111.992718 296.351851 
L 119.952829 296.347011 
L 127.912941 296.33403 
L 135.873052 296.300588 
L 143.833163 296.219378 
L 151.793275 296.037591 
L 159.753386 295.670238 
L 167.713497 295.008692 
L 175.673609 293.94738 
L 183.63372 292.412801 
L 191.593831 290.375466 
L 199.553942 287.842636 
L 207.514054 284.843223 
L 215.474165 281.414765 
L 223.434276 277.595557 
L 231.394388 273.421038 
L 239.354499 268.922644 
L 247.31461 264.127849 
L 255.274722 259.060625 
L 263.234833 253.741994 
L 271.194944 248.190533 
L 279.155056 242.422782 
L 287.115167 236.453583 
L 295.075278 230.296335 
L 303.03539 223.963198 
L 310.995501 217.465257 
L 318.955612 210.812655 
L 326.915724 204.014696 
L 334.875835 197.079943 
L 342.835946 190.01629 
L 350.796058 182.831033 
L 358.756169 175.530921 
L 366.71628 168.122217 
L 374.676391 160.610739 
L 382.636503 153.00191 
L 390.596614 145.300818 
L 398.556725 137.512316 
L 406.516837 129.641216 
L 414.476948 121.692764 
L 422.437059 113.673711 
L 430.397171 105.594579 
L 438.357282 97.473638 
L 446.317393 89.341919 
L 454.277505 81.245782 
L 462.237616 73.2421 
L 470.197727 65.385934 
" style="fill:none;stroke:#bfbf00;stroke-linecap:square;stroke-width:2;"/>
   </g>
   <g id="line2d_38">
    <path clip-path="url(#pd2a2238273)" d="M 80.152273 296.35454 
L 88.112384 296.35446 
L 96.072495 296.354232 
L 104.032607 296.353587 
L 111.992718 296.351785 
L 119.952829 296.346826 
L 127.912941 296.333529 
L 135.873052 296.299271 
L 143.833163 296.21608 
L 151.793275 296.02986 
L 159.753386 295.653547 
L 167.713497 294.975865 
L 175.673609 293.888668 
L 183.63372 292.31666 
L 191.593831 290.229634 
L 199.553942 287.635028 
L 207.514054 284.562458 
L 215.474165 281.050379 
L 223.434276 277.13802 
L 231.394388 272.861683 
L 239.354499 268.253572 
L 247.31461 263.341831 
L 255.274722 258.151016 
L 263.234833 252.702663 
L 271.194944 247.0158 
L 279.155056 241.107372 
L 287.115167 234.992583 
L 295.075278 228.685158 
L 303.03539 222.197554 
L 310.995501 215.541127 
L 318.955612 208.726266 
L 326.915724 201.762503 
L 334.875835 194.65861 
L 342.835946 187.422673 
L 350.796058 180.062164 
L 358.756169 172.583999 
L 366.71628 164.994588 
L 374.676391 157.299884 
L 382.636503 149.505422 
L 390.596614 141.616353 
L 398.556725 133.637482 
L 406.516837 125.573292 
L 414.476948 117.427975 
L 422.437059 109.205451 
L 430.397171 100.909398 
L 438.357282 92.54327 
L 446.317393 84.110337 
L 454.277505 75.613735 
L 462.237616 67.056604 
L 470.197727 58.442386 
" style="fill:none;stroke:#000000;stroke-linecap:square;stroke-width:2;"/>
   </g>
   <g id="line2d_39">
    <path clip-path="url(#pd2a2238273)" d="M 80.152273 296.354539 
L 88.112384 296.354457 
L 96.072495 296.354223 
L 104.032607 296.353563 
L 111.992718 296.351718 
L 119.952829 296.346641 
L 127.912941 296.333027 
L 135.873052 296.297954 
L 143.833163 296.212782 
L 151.793275 296.022128 
L 159.753386 295.636856 
L 167.713497 294.943039 
L 175.673609 293.829956 
L 183.63372 292.220519 
L 191.593831 290.083802 
L 199.553942 287.427419 
L 207.514054 284.281694 
L 215.474165 280.685993 
L 223.434276 276.680483 
L 231.394388 272.302328 
L 239.354499 267.5845 
L 247.31461 262.555813 
L 255.274722 257.241407 
L 263.234833 251.663332 
L 271.194944 245.841067 
L 279.155056 239.791962 
L 287.115167 233.531583 
L 295.075278 227.073981 
L 303.03539 220.431911 
L 310.995501 213.616998 
L 318.955612 206.639877 
L 326.915724 199.510311 
L 334.875835 192.237277 
L 342.835946 184.829056 
L 350.796058 177.293297 
L 358.756169 169.63708 
L 366.71628 161.866969 
L 374.676391 153.989058 
L 382.636503 146.009013 
L 390.596614 137.932109 
L 398.556725 129.763265 
L 406.516837 121.50707 
L 414.476948 113.167815 
L 422.437059 104.749513 
L 430.397171 96.255923 
L 438.357282 87.690568 
L 446.317393 79.056758 
L 454.277505 70.357598 
L 462.237616 61.596012 
L 470.197727 52.774751 
" style="fill:none;stroke:#ff0000;stroke-linecap:square;stroke-width:2;"/>
   </g>
   <g id="line2d_40">
    <path clip-path="url(#pd2a2238273)" d="M 80.152273 296.354538 
L 88.112384 296.354454 
L 96.072495 296.354215 
L 104.032607 296.35354 
L 111.992718 296.351651 
L 119.952829 296.346456 
L 127.912941 296.332526 
L 135.873052 296.296637 
L 143.833163 296.209485 
L 151.793275 296.014396 
L 159.753386 295.620164 
L 167.713497 294.910212 
L 175.673609 293.771243 
L 183.63372 292.124378 
L 191.593831 289.93797 
L 199.553942 287.219811 
L 207.514054 284.000929 
L 215.474165 280.321607 
L 223.434276 276.222946 
L 231.394388 271.742973 
L 239.354499 266.915428 
L 247.31461 261.769795 
L 255.274722 256.331798 
L 263.234833 250.624 
L 271.194944 244.666334 
L 279.155056 238.476552 
L 287.115167 232.070583 
L 295.075278 225.462805 
L 303.03539 218.666267 
L 310.995501 211.692868 
L 318.955612 204.553489 
L 326.915724 197.258118 
L 334.875835 189.815944 
L 342.835946 182.235439 
L 350.796058 174.52443 
L 358.756169 166.690162 
L 366.71628 158.739351 
L 374.676391 150.678232 
L 382.636503 142.512604 
L 390.596614 134.247866 
L 398.556725 125.889048 
L 406.516837 117.440849 
L 414.476948 108.907658 
L 422.437059 100.293581 
L 430.397171 91.602466 
L 438.357282 82.837917 
L 446.317393 74.00332 
L 454.277505 65.101854 
L 462.237616 56.13651 
L 470.197727 47.110102 
" style="fill:none;stroke:#0000ff;stroke-linecap:square;stroke-width:2;"/>
   </g>
   <g id="line2d_41">
    <path clip-path="url(#pd2a2238273)" d="M 80.152273 296.354537 
L 88.112384 296.354451 
L 96.072495 296.354206 
L 104.032607 296.353516 
L 111.992718 296.351585 
L 119.952829 296.346272 
L 127.912941 296.332025 
L 135.873052 296.29532 
L 143.833163 296.206187 
L 151.793275 296.006665 
L 159.753386 295.603473 
L 167.713497 294.877385 
L 175.673609 293.712531 
L 183.63372 292.028237 
L 191.593831 289.792138 
L 199.553942 287.012202 
L 207.514054 283.720164 
L 215.474165 279.957221 
L 223.434276 275.765408 
L 231.394388 271.183618 
L 239.354499 266.246357 
L 247.31461 260.983777 
L 255.274722 255.42219 
L 263.234833 249.584669 
L 271.194944 243.491601 
L 279.155056 237.161142 
L 287.115167 230.609583 
L 295.075278 223.851628 
L 303.03539 216.900624 
L 310.995501 209.768738 
L 318.955612 202.4671 
L 326.915724 195.005926 
L 334.875835 187.394612 
L 342.835946 179.641822 
L 350.796058 171.755563 
L 358.756169 163.743243 
L 366.71628 155.611732 
L 374.676391 147.367406 
L 382.636503 139.016196 
L 390.596614 130.563622 
L 398.556725 122.014831 
L 406.516837 113.374628 
L 414.476948 104.6475 
L 422.437059 95.837649 
L 430.397171 86.949008 
L 438.357282 77.985265 
L 446.317393 68.949882 
L 454.277505 59.846111 
L 462.237616 50.677009 
L 470.197727 41.445455 
" style="fill:none;stroke:#008000;stroke-linecap:square;stroke-width:2;"/>
   </g>
   <g id="patch_3">
    <path d="M 60.65 309.1 
L 60.65 28.7 
" style="fill:none;stroke:#000000;stroke-linecap:square;stroke-linejoin:miter;stroke-width:0.8;"/>
   </g>
   <g id="patch_4">
    <path d="M 489.7 309.1 
L 489.7 28.7 
" style="fill:none;stroke:#000000;stroke-linecap:square;stroke-linejoin:miter;stroke-width:0.8;"/>
   </g>
   <g id="patch_5">
    <path d="M 60.65 309.1 
L 489.7 309.1 
" style="fill:none;stroke:#000000;stroke-linecap:square;stroke-linejoin:miter;stroke-width:0.8;"/>
   </g>
   <g id="patch_6">
    <path d="M 60.65 28.7 
L 489.7 28.7 
" style="fill:none;stroke:#000000;stroke-linecap:square;stroke-linejoin:miter;stroke-width:0.8;"/>
   </g>
   <g id="text_19">
    <!-- $I_{ds}(V_{gs})$ -->
    <defs>
     <path d="M 41.796875 8.203125 
Q 38.1875 3.46875 33.25 1.015625 
Q 28.328125 -1.421875 22.3125 -1.421875 
Q 14.109375 -1.421875 9.34375 4.171875 
Q 4.59375 9.765625 4.59375 19.484375 
Q 4.59375 27.59375 7.46875 34.9375 
Q 10.359375 42.28125 15.828125 48.09375 
Q 19.4375 51.953125 23.96875 53.96875 
Q 28.515625 56 33.5 56 
Q 38.765625 56 42.796875 53.453125 
Q 46.828125 50.921875 49.03125 46.1875 
L 54.890625 75.984375 
L 63.921875 75.984375 
L 49.125 0 
L 40.09375 0 
z
M 13.921875 21.09375 
Q 13.921875 14.015625 17.109375 10.0625 
Q 20.3125 6.109375 25.984375 6.109375 
Q 30.171875 6.109375 33.765625 8.125 
Q 37.359375 10.15625 40.09375 14.109375 
Q 42.96875 18.21875 44.625 23.578125 
Q 46.296875 28.953125 46.296875 34.1875 
Q 46.296875 40.96875 43.09375 44.765625 
Q 39.890625 48.578125 34.28125 48.578125 
Q 30.03125 48.578125 26.359375 46.578125 
Q 22.703125 44.578125 20.125 40.828125 
Q 17.28125 36.765625 15.59375 31.390625 
Q 13.921875 26.03125 13.921875 21.09375 
z
" id="DejaVuSans-Oblique-64"/>
     <path d="M 50 53.078125 
L 48.296875 44.578125 
Q 44.734375 46.53125 40.765625 47.5 
Q 36.8125 48.484375 32.625 48.484375 
Q 25.53125 48.484375 21.453125 46.0625 
Q 17.390625 43.65625 17.390625 39.5 
Q 17.390625 34.671875 26.859375 32.078125 
Q 27.59375 31.890625 27.9375 31.78125 
L 30.8125 30.90625 
Q 39.796875 28.421875 42.796875 25.6875 
Q 45.796875 22.953125 45.796875 18.21875 
Q 45.796875 9.515625 38.890625 4.046875 
Q 31.984375 -1.421875 20.796875 -1.421875 
Q 16.453125 -1.421875 11.671875 -0.578125 
Q 6.890625 0.25 1.125 2 
L 2.875 11.28125 
Q 7.8125 8.734375 12.59375 7.421875 
Q 17.390625 6.109375 21.78125 6.109375 
Q 28.375 6.109375 32.5 8.9375 
Q 36.625 11.765625 36.625 16.109375 
Q 36.625 20.796875 25.78125 23.6875 
L 24.859375 23.921875 
L 21.78125 24.703125 
Q 14.9375 26.515625 11.765625 29.46875 
Q 8.59375 32.421875 8.59375 37.015625 
Q 8.59375 45.75 15.15625 50.875 
Q 21.734375 56 33.015625 56 
Q 37.453125 56 41.671875 55.265625 
Q 45.90625 54.546875 50 53.078125 
z
" id="DejaVuSans-Oblique-73"/>
     <path d="M 31 75.875 
Q 24.46875 64.65625 21.28125 53.65625 
Q 18.109375 42.671875 18.109375 31.390625 
Q 18.109375 20.125 21.3125 9.0625 
Q 24.515625 -2 31 -13.1875 
L 23.1875 -13.1875 
Q 15.875 -1.703125 12.234375 9.375 
Q 8.59375 20.453125 8.59375 31.390625 
Q 8.59375 42.28125 12.203125 53.3125 
Q 15.828125 64.359375 23.1875 75.875 
z
" id="DejaVuSans-28"/>
     <path d="M 59.625 54.6875 
L 50.296875 6.78125 
Q 47.609375 -7.125 40.015625 -13.953125 
Q 32.421875 -20.796875 19.578125 -20.796875 
Q 14.84375 -20.796875 10.78125 -20.09375 
Q 6.734375 -19.390625 3.21875 -17.921875 
L 4.890625 -9.1875 
Q 8.203125 -11.328125 11.90625 -12.34375 
Q 15.625 -13.375 19.828125 -13.375 
Q 28.375 -13.375 33.859375 -8.703125 
Q 39.359375 -4.046875 41.109375 4.6875 
L 41.890625 8.796875 
Q 38.140625 4.5 33.15625 2.25 
Q 28.171875 0 22.40625 0 
Q 14.109375 0 9.34375 5.484375 
Q 4.59375 10.984375 4.59375 20.609375 
Q 4.59375 28.171875 7.46875 35.421875 
Q 10.359375 42.671875 15.578125 48.296875 
Q 19.046875 52 23.65625 54 
Q 28.265625 56 33.296875 56 
Q 38.8125 56 42.90625 53.4375 
Q 47.015625 50.875 49.03125 46.1875 
L 50.59375 54.6875 
z
M 46.09375 34.625 
Q 46.09375 41.265625 42.96875 44.875 
Q 39.84375 48.484375 34.078125 48.484375 
Q 30.515625 48.484375 27.296875 47.0625 
Q 24.078125 45.65625 21.78125 43.109375 
Q 18.0625 38.921875 15.984375 33.234375 
Q 13.921875 27.546875 13.921875 21.484375 
Q 13.921875 14.75 17.0625 11.125 
Q 20.21875 7.515625 26.125 7.515625 
Q 34.671875 7.515625 40.375 15.25 
Q 46.09375 23 46.09375 34.625 
z
" id="DejaVuSans-Oblique-67"/>
     <path d="M 8.015625 75.875 
L 15.828125 75.875 
Q 23.140625 64.359375 26.78125 53.3125 
Q 30.421875 42.28125 30.421875 31.390625 
Q 30.421875 20.453125 26.78125 9.375 
Q 23.140625 -1.703125 15.828125 -13.1875 
L 8.015625 -13.1875 
Q 14.5 -2 17.703125 9.0625 
Q 20.90625 20.125 20.90625 31.390625 
Q 20.90625 42.671875 17.703125 53.65625 
Q 14.5 64.65625 8.015625 75.875 
z
" id="DejaVuSans-29"/>
    </defs>
    <g transform="translate(254.535 22.7)scale(0.12 -0.12)">
     <use transform="translate(0 0.125)" xlink:href="#DejaVuSans-Oblique-49"/>
     <use transform="translate(29.492188 -16.28125)scale(0.7)" xlink:href="#DejaVuSans-Oblique-64"/>
     <use transform="translate(73.925781 -16.28125)scale(0.7)" xlink:href="#DejaVuSans-Oblique-73"/>
     <use transform="translate(113.129883 0.125)" xlink:href="#DejaVuSans-28"/>
     <use transform="translate(152.143555 0.125)" xlink:href="#DejaVuSans-Oblique-56"/>
     <use transform="translate(220.551758 -16.28125)scale(0.7)" xlink:href="#DejaVuSans-Oblique-67"/>
     <use transform="translate(264.985352 -16.28125)scale(0.7)" xlink:href="#DejaVuSans-Oblique-73"/>
     <use transform="translate(304.189453 0.125)" xlink:href="#DejaVuSans-29"/>
    </g>
   </g>
   <g id="legend_1">
    <g id="patch_7">
     <path d="M 67.65 142.22375 
L 131.49 142.22375 
Q 133.49 142.22375 133.49 140.22375 
L 133.49 35.7 
Q 133.49 33.7 131.49 33.7 
L 67.65 33.7 
Q 65.65 33.7 65.65 35.7 
L 65.65 140.22375 
Q 65.65 142.22375 67.65 142.22375 
z
" style="fill:#ffffff;opacity:0.8;stroke:#cccccc;stroke-linejoin:miter;"/>
    </g>
    <g id="line2d_42">
     <path d="M 67.65 41.318125 
L 77.65 41.318125 
" style="fill:none;stroke:#0000ff;stroke-linecap:square;stroke-width:2;"/>
    </g>
    <g id="line2d_43"/>
    <g id="text_20">
     <!-- $V_{D}$ = 0.2 -->
     <defs>
      <path d="M 10.59375 45.40625 
L 73.1875 45.40625 
L 73.1875 37.203125 
L 10.59375 37.203125 
z
M 10.59375 25.484375 
L 73.1875 25.484375 
L 73.1875 17.1875 
L 10.59375 17.1875 
z
" id="DejaVuSans-3d"/>
     </defs>
     <g transform="translate(79.65 44.818125)scale(0.12 -0.12)">
      <use transform="translate(0 0.78125)" xlink:href="#DejaVuSans-Oblique-56"/>
      <use transform="translate(68.408203 -15.625)scale(0.7)" xlink:href="#DejaVuSans-Oblique-44"/>
      <use transform="translate(125.043945 0.78125)" xlink:href="#DejaVuSans-20"/>
      <use transform="translate(156.831055 0.78125)" xlink:href="#DejaVuSans-3d"/>
      <use transform="translate(240.620117 0.78125)" xlink:href="#DejaVuSans-20"/>
      <use transform="translate(272.407227 0.78125)" xlink:href="#DejaVuSans-30"/>
      <use transform="translate(336.030273 0.78125)" xlink:href="#DejaVuSans-2e"/>
      <use transform="translate(367.739258 0.78125)" xlink:href="#DejaVuSans-32"/>
     </g>
    </g>
    <g id="line2d_44">
     <path d="M 67.65 52.931875 
L 77.65 52.931875 
" style="fill:none;stroke:#008000;stroke-linecap:square;stroke-width:2;"/>
    </g>
    <g id="line2d_45"/>
    <g id="text_21">
     <!-- $V_{D}$ = 0.4 -->
     <defs>
      <path d="M 37.796875 64.3125 
L 12.890625 25.390625 
L 37.796875 25.390625 
z
M 35.203125 72.90625 
L 47.609375 72.90625 
L 47.609375 25.390625 
L 58.015625 25.390625 
L 58.015625 17.1875 
L 47.609375 17.1875 
L 47.609375 0 
L 37.796875 0 
L 37.796875 17.1875 
L 4.890625 17.1875 
L 4.890625 26.703125 
z
" id="DejaVuSans-34"/>
     </defs>
     <g transform="translate(79.65 56.431875)scale(0.12 -0.12)">
      <use transform="translate(0 0.78125)" xlink:href="#DejaVuSans-Oblique-56"/>
      <use transform="translate(68.408203 -15.625)scale(0.7)" xlink:href="#DejaVuSans-Oblique-44"/>
      <use transform="translate(125.043945 0.78125)" xlink:href="#DejaVuSans-20"/>
      <use transform="translate(156.831055 0.78125)" xlink:href="#DejaVuSans-3d"/>
      <use transform="translate(240.620117 0.78125)" xlink:href="#DejaVuSans-20"/>
      <use transform="translate(272.407227 0.78125)" xlink:href="#DejaVuSans-30"/>
      <use transform="translate(336.030273 0.78125)" xlink:href="#DejaVuSans-2e"/>
      <use transform="translate(367.817383 0.78125)" xlink:href="#DejaVuSans-34"/>
     </g>
    </g>
    <g id="line2d_46">
     <path d="M 67.65 64.545625 
L 77.65 64.545625 
" style="fill:none;stroke:#00bfbf;stroke-linecap:square;stroke-width:2;"/>
    </g>
    <g id="line2d_47"/>
    <g id="text_22">
     <!-- $V_{D}$ = 0.6 -->
     <defs>
      <path d="M 33.015625 40.375 
Q 26.375 40.375 22.484375 35.828125 
Q 18.609375 31.296875 18.609375 23.390625 
Q 18.609375 15.53125 22.484375 10.953125 
Q 26.375 6.390625 33.015625 6.390625 
Q 39.65625 6.390625 43.53125 10.953125 
Q 47.40625 15.53125 47.40625 23.390625 
Q 47.40625 31.296875 43.53125 35.828125 
Q 39.65625 40.375 33.015625 40.375 
z
M 52.59375 71.296875 
L 52.59375 62.3125 
Q 48.875 64.0625 45.09375 64.984375 
Q 41.3125 65.921875 37.59375 65.921875 
Q 27.828125 65.921875 22.671875 59.328125 
Q 17.53125 52.734375 16.796875 39.40625 
Q 19.671875 43.65625 24.015625 45.921875 
Q 28.375 48.1875 33.59375 48.1875 
Q 44.578125 48.1875 50.953125 41.515625 
Q 57.328125 34.859375 57.328125 23.390625 
Q 57.328125 12.15625 50.6875 5.359375 
Q 44.046875 -1.421875 33.015625 -1.421875 
Q 20.359375 -1.421875 13.671875 8.265625 
Q 6.984375 17.96875 6.984375 36.375 
Q 6.984375 53.65625 15.1875 63.9375 
Q 23.390625 74.21875 37.203125 74.21875 
Q 40.921875 74.21875 44.703125 73.484375 
Q 48.484375 72.75 52.59375 71.296875 
z
" id="DejaVuSans-36"/>
     </defs>
     <g transform="translate(79.65 68.045625)scale(0.12 -0.12)">
      <use transform="translate(0 0.78125)" xlink:href="#DejaVuSans-Oblique-56"/>
      <use transform="translate(68.408203 -15.625)scale(0.7)" xlink:href="#DejaVuSans-Oblique-44"/>
      <use transform="translate(125.043945 0.78125)" xlink:href="#DejaVuSans-20"/>
      <use transform="translate(156.831055 0.78125)" xlink:href="#DejaVuSans-3d"/>
      <use transform="translate(240.620117 0.78125)" xlink:href="#DejaVuSans-20"/>
      <use transform="translate(272.407227 0.78125)" xlink:href="#DejaVuSans-30"/>
      <use transform="translate(336.030273 0.78125)" xlink:href="#DejaVuSans-2e"/>
      <use transform="translate(367.817383 0.78125)" xlink:href="#DejaVuSans-36"/>
     </g>
    </g>
    <g id="line2d_48">
     <path d="M 67.65 76.159375 
L 77.65 76.159375 
" style="fill:none;stroke:#bf00bf;stroke-linecap:square;stroke-width:2;"/>
    </g>
    <g id="line2d_49"/>
    <g id="text_23">
     <!-- $V_{D}$ = 0.8 -->
     <defs>
      <path d="M 31.78125 34.625 
Q 24.75 34.625 20.71875 30.859375 
Q 16.703125 27.09375 16.703125 20.515625 
Q 16.703125 13.921875 20.71875 10.15625 
Q 24.75 6.390625 31.78125 6.390625 
Q 38.8125 6.390625 42.859375 10.171875 
Q 46.921875 13.96875 46.921875 20.515625 
Q 46.921875 27.09375 42.890625 30.859375 
Q 38.875 34.625 31.78125 34.625 
z
M 21.921875 38.8125 
Q 15.578125 40.375 12.03125 44.71875 
Q 8.5 49.078125 8.5 55.328125 
Q 8.5 64.0625 14.71875 69.140625 
Q 20.953125 74.21875 31.78125 74.21875 
Q 42.671875 74.21875 48.875 69.140625 
Q 55.078125 64.0625 55.078125 55.328125 
Q 55.078125 49.078125 51.53125 44.71875 
Q 48 40.375 41.703125 38.8125 
Q 48.828125 37.15625 52.796875 32.3125 
Q 56.78125 27.484375 56.78125 20.515625 
Q 56.78125 9.90625 50.3125 4.234375 
Q 43.84375 -1.421875 31.78125 -1.421875 
Q 19.734375 -1.421875 13.25 4.234375 
Q 6.78125 9.90625 6.78125 20.515625 
Q 6.78125 27.484375 10.78125 32.3125 
Q 14.796875 37.15625 21.921875 38.8125 
z
M 18.3125 54.390625 
Q 18.3125 48.734375 21.84375 45.5625 
Q 25.390625 42.390625 31.78125 42.390625 
Q 38.140625 42.390625 41.71875 45.5625 
Q 45.3125 48.734375 45.3125 54.390625 
Q 45.3125 60.0625 41.71875 63.234375 
Q 38.140625 66.40625 31.78125 66.40625 
Q 25.390625 66.40625 21.84375 63.234375 
Q 18.3125 60.0625 18.3125 54.390625 
z
" id="DejaVuSans-38"/>
     </defs>
     <g transform="translate(79.65 79.659375)scale(0.12 -0.12)">
      <use transform="translate(0 0.78125)" xlink:href="#DejaVuSans-Oblique-56"/>
      <use transform="translate(68.408203 -15.625)scale(0.7)" xlink:href="#DejaVuSans-Oblique-44"/>
      <use transform="translate(125.043945 0.78125)" xlink:href="#DejaVuSans-20"/>
      <use transform="translate(156.831055 0.78125)" xlink:href="#DejaVuSans-3d"/>
      <use transform="translate(240.620117 0.78125)" xlink:href="#DejaVuSans-20"/>
      <use transform="translate(272.407227 0.78125)" xlink:href="#DejaVuSans-30"/>
      <use transform="translate(336.030273 0.78125)" xlink:href="#DejaVuSans-2e"/>
      <use transform="translate(367.786133 0.78125)" xlink:href="#DejaVuSans-38"/>
     </g>
    </g>
    <g id="line2d_50">
     <path d="M 67.65 87.773125 
L 77.65 87.773125 
" style="fill:none;stroke:#bfbf00;stroke-linecap:square;stroke-width:2;"/>
    </g>
    <g id="line2d_51"/>
    <g id="text_24">
     <!-- $V_{D}$ = 1.0 -->
     <g transform="translate(79.65 91.273125)scale(0.12 -0.12)">
      <use transform="translate(0 0.78125)" xlink:href="#DejaVuSans-Oblique-56"/>
      <use transform="translate(68.408203 -15.625)scale(0.7)" xlink:href="#DejaVuSans-Oblique-44"/>
      <use transform="translate(125.043945 0.78125)" xlink:href="#DejaVuSans-20"/>
      <use transform="translate(156.831055 0.78125)" xlink:href="#DejaVuSans-3d"/>
      <use transform="translate(240.620117 0.78125)" xlink:href="#DejaVuSans-20"/>
      <use transform="translate(272.407227 0.78125)" xlink:href="#DejaVuSans-31"/>
      <use transform="translate(336.030273 0.78125)" xlink:href="#DejaVuSans-2e"/>
      <use transform="translate(367.817383 0.78125)" xlink:href="#DejaVuSans-30"/>
     </g>
    </g>
    <g id="line2d_52">
     <path d="M 67.65 99.386875 
L 77.65 99.386875 
" style="fill:none;stroke:#000000;stroke-linecap:square;stroke-width:2;"/>
    </g>
    <g id="line2d_53"/>
    <g id="text_25">
     <!-- $V_{D}$ = 1.2 -->
     <g transform="translate(79.65 102.886875)scale(0.12 -0.12)">
      <use transform="translate(0 0.78125)" xlink:href="#DejaVuSans-Oblique-56"/>
      <use transform="translate(68.408203 -15.625)scale(0.7)" xlink:href="#DejaVuSans-Oblique-44"/>
      <use transform="translate(125.043945 0.78125)" xlink:href="#DejaVuSans-20"/>
      <use transform="translate(156.831055 0.78125)" xlink:href="#DejaVuSans-3d"/>
      <use transform="translate(240.620117 0.78125)" xlink:href="#DejaVuSans-20"/>
      <use transform="translate(272.407227 0.78125)" xlink:href="#DejaVuSans-31"/>
      <use transform="translate(336.030273 0.78125)" xlink:href="#DejaVuSans-2e"/>
      <use transform="translate(367.739258 0.78125)" xlink:href="#DejaVuSans-32"/>
     </g>
    </g>
    <g id="line2d_54">
     <path d="M 67.65 111.000625 
L 77.65 111.000625 
" style="fill:none;stroke:#ff0000;stroke-linecap:square;stroke-width:2;"/>
    </g>
    <g id="line2d_55"/>
    <g id="text_26">
     <!-- $V_{D}$ = 1.4 -->
     <g transform="translate(79.65 114.500625)scale(0.12 -0.12)">
      <use transform="translate(0 0.09375)" xlink:href="#DejaVuSans-Oblique-56"/>
      <use transform="translate(68.408203 -16.3125)scale(0.7)" xlink:href="#DejaVuSans-Oblique-44"/>
      <use transform="translate(125.043945 0.09375)" xlink:href="#DejaVuSans-20"/>
      <use transform="translate(156.831055 0.09375)" xlink:href="#DejaVuSans-3d"/>
      <use transform="translate(240.620117 0.09375)" xlink:href="#DejaVuSans-20"/>
      <use transform="translate(272.407227 0.09375)" xlink:href="#DejaVuSans-31"/>
      <use transform="translate(336.030273 0.09375)" xlink:href="#DejaVuSans-2e"/>
      <use transform="translate(367.817383 0.09375)" xlink:href="#DejaVuSans-34"/>
     </g>
    </g>
    <g id="line2d_56">
     <path d="M 67.65 122.614375 
L 77.65 122.614375 
" style="fill:none;stroke:#0000ff;stroke-linecap:square;stroke-width:2;"/>
    </g>
    <g id="line2d_57"/>
    <g id="text_27">
     <!-- $V_{D}$ = 1.6 -->
     <g transform="translate(79.65 126.114375)scale(0.12 -0.12)">
      <use transform="translate(0 0.78125)" xlink:href="#DejaVuSans-Oblique-56"/>
      <use transform="translate(68.408203 -15.625)scale(0.7)" xlink:href="#DejaVuSans-Oblique-44"/>
      <use transform="translate(125.043945 0.78125)" xlink:href="#DejaVuSans-20"/>
      <use transform="translate(156.831055 0.78125)" xlink:href="#DejaVuSans-3d"/>
      <use transform="translate(240.620117 0.78125)" xlink:href="#DejaVuSans-20"/>
      <use transform="translate(272.407227 0.78125)" xlink:href="#DejaVuSans-31"/>
      <use transform="translate(336.030273 0.78125)" xlink:href="#DejaVuSans-2e"/>
      <use transform="translate(367.817383 0.78125)" xlink:href="#DejaVuSans-36"/>
     </g>
    </g>
    <g id="line2d_58">
     <path d="M 67.65 134.228125 
L 77.65 134.228125 
" style="fill:none;stroke:#008000;stroke-linecap:square;stroke-width:2;"/>
    </g>
    <g id="line2d_59"/>
    <g id="text_28">
     <!-- $V_{D}$ = 1.8 -->
     <g transform="translate(79.65 137.728125)scale(0.12 -0.12)">
      <use transform="translate(0 0.78125)" xlink:href="#DejaVuSans-Oblique-56"/>
      <use transform="translate(68.408203 -15.625)scale(0.7)" xlink:href="#DejaVuSans-Oblique-44"/>
      <use transform="translate(125.043945 0.78125)" xlink:href="#DejaVuSans-20"/>
      <use transform="translate(156.831055 0.78125)" xlink:href="#DejaVuSans-3d"/>
      <use transform="translate(240.620117 0.78125)" xlink:href="#DejaVuSans-20"/>
      <use transform="translate(272.407227 0.78125)" xlink:href="#DejaVuSans-31"/>
      <use transform="translate(336.030273 0.78125)" xlink:href="#DejaVuSans-2e"/>
      <use transform="translate(367.786133 0.78125)" xlink:href="#DejaVuSans-38"/>
     </g>
    </g>
   </g>
  </g>
 </g>
 <defs>
  <clipPath id="pd2a2238273">
   <rect height="280.4" width="429.05" x="60.65" y="28.7"/>
  </clipPath>
 </defs>
</svg>
