<?xml version="1.0" encoding="utf-8" standalone="no"?>
<!DOCTYPE svg PUBLIC "-//W3C//DTD SVG 1.1//EN"
  "http://www.w3.org/Graphics/SVG/1.1/DTD/svg11.dtd">
<!-- Created with matplotlib (https://matplotlib.org/) -->
<svg height="360pt" version="1.1" viewBox="0 0 504 360" width="504pt" xmlns="http://www.w3.org/2000/svg" xmlns:xlink="http://www.w3.org/1999/xlink">
 <defs>
  <style type="text/css">
*{stroke-linecap:butt;stroke-linejoin:round;}
  </style>
 </defs>
 <g id="figure_1">
  <g id="patch_1">
   <path d="M 0 360 
L 504 360 
L 504 0 
L 0 0 
z
" style="fill:#ffffff;"/>
  </g>
  <g id="axes_1">
   <g id="patch_2">
    <path d="M 53.15 309.1 
L 493.2 309.1 
L 493.2 28.8 
L 53.15 28.8 
z
" style="fill:#ffffff;"/>
   </g>
   <g id="matplotlib.axis_1">
    <g id="xtick_1">
     <g id="line2d_1">
      <path clip-path="url(#p547b1d5da4)" d="M 73.152271 309.1 
L 73.152271 28.8 
" style="fill:none;stroke:#808080;stroke-linecap:square;stroke-width:0.8;"/>
     </g>
     <g id="line2d_2">
      <defs>
       <path d="M 0 0 
L 0 3.5 
" id="m6d16f032e4" style="stroke:#000000;stroke-width:0.8;"/>
      </defs>
      <g>
       <use style="stroke:#000000;stroke-width:0.8;" x="73.152271" xlink:href="#m6d16f032e4" y="309.1"/>
      </g>
     </g>
     <g id="text_1">
      <!-- 0 -->
      <defs>
       <path d="M 31.78125 66.40625 
Q 24.171875 66.40625 20.328125 58.90625 
Q 16.5 51.421875 16.5 36.375 
Q 16.5 21.390625 20.328125 13.890625 
Q 24.171875 6.390625 31.78125 6.390625 
Q 39.453125 6.390625 43.28125 13.890625 
Q 47.125 21.390625 47.125 36.375 
Q 47.125 51.421875 43.28125 58.90625 
Q 39.453125 66.40625 31.78125 66.40625 
z
M 31.78125 74.21875 
Q 44.046875 74.21875 50.515625 64.515625 
Q 56.984375 54.828125 56.984375 36.375 
Q 56.984375 17.96875 50.515625 8.265625 
Q 44.046875 -1.421875 31.78125 -1.421875 
Q 19.53125 -1.421875 13.0625 8.265625 
Q 6.59375 17.96875 6.59375 36.375 
Q 6.59375 54.828125 13.0625 64.515625 
Q 19.53125 74.21875 31.78125 74.21875 
z
" id="DejaVuSans-48"/>
      </defs>
      <g transform="translate(69.334771 325.218125)scale(0.12 -0.12)">
       <use xlink:href="#DejaVuSans-48"/>
      </g>
     </g>
    </g>
    <g id="xtick_2">
     <g id="line2d_3">
      <path clip-path="url(#p547b1d5da4)" d="M 129.674752 309.1 
L 129.674752 28.8 
" style="fill:none;stroke:#808080;stroke-linecap:square;stroke-width:0.8;"/>
     </g>
     <g id="line2d_4">
      <g>
       <use style="stroke:#000000;stroke-width:0.8;" x="129.674752" xlink:href="#m6d16f032e4" y="309.1"/>
      </g>
     </g>
     <g id="text_2">
      <!-- 25 -->
      <defs>
       <path d="M 19.1875 8.296875 
L 53.609375 8.296875 
L 53.609375 0 
L 7.328125 0 
L 7.328125 8.296875 
Q 12.9375 14.109375 22.625 23.890625 
Q 32.328125 33.6875 34.8125 36.53125 
Q 39.546875 41.84375 41.421875 45.53125 
Q 43.3125 49.21875 43.3125 52.78125 
Q 43.3125 58.59375 39.234375 62.25 
Q 35.15625 65.921875 28.609375 65.921875 
Q 23.96875 65.921875 18.8125 64.3125 
Q 13.671875 62.703125 7.8125 59.421875 
L 7.8125 69.390625 
Q 13.765625 71.78125 18.9375 73 
Q 24.125 74.21875 28.421875 74.21875 
Q 39.75 74.21875 46.484375 68.546875 
Q 53.21875 62.890625 53.21875 53.421875 
Q 53.21875 48.921875 51.53125 44.890625 
Q 49.859375 40.875 45.40625 35.40625 
Q 44.1875 33.984375 37.640625 27.21875 
Q 31.109375 20.453125 19.1875 8.296875 
z
" id="DejaVuSans-50"/>
       <path d="M 10.796875 72.90625 
L 49.515625 72.90625 
L 49.515625 64.59375 
L 19.828125 64.59375 
L 19.828125 46.734375 
Q 21.96875 47.46875 24.109375 47.828125 
Q 26.265625 48.1875 28.421875 48.1875 
Q 40.625 48.1875 47.75 41.5 
Q 54.890625 34.8125 54.890625 23.390625 
Q 54.890625 11.625 47.5625 5.09375 
Q 40.234375 -1.421875 26.90625 -1.421875 
Q 22.3125 -1.421875 17.546875 -0.640625 
Q 12.796875 0.140625 7.71875 1.703125 
L 7.71875 11.625 
Q 12.109375 9.234375 16.796875 8.0625 
Q 21.484375 6.890625 26.703125 6.890625 
Q 35.15625 6.890625 40.078125 11.328125 
Q 45.015625 15.765625 45.015625 23.390625 
Q 45.015625 31 40.078125 35.4375 
Q 35.15625 39.890625 26.703125 39.890625 
Q 22.75 39.890625 18.8125 39.015625 
Q 14.890625 38.140625 10.796875 36.28125 
z
" id="DejaVuSans-53"/>
      </defs>
      <g transform="translate(122.039752 325.218125)scale(0.12 -0.12)">
       <use xlink:href="#DejaVuSans-50"/>
       <use x="63.623047" xlink:href="#DejaVuSans-53"/>
      </g>
     </g>
    </g>
    <g id="xtick_3">
     <g id="line2d_5">
      <path clip-path="url(#p547b1d5da4)" d="M 186.197233 309.1 
L 186.197233 28.8 
" style="fill:none;stroke:#808080;stroke-linecap:square;stroke-width:0.8;"/>
     </g>
     <g id="line2d_6">
      <g>
       <use style="stroke:#000000;stroke-width:0.8;" x="186.197233" xlink:href="#m6d16f032e4" y="309.1"/>
      </g>
     </g>
     <g id="text_3">
      <!-- 50 -->
      <g transform="translate(178.562233 325.218125)scale(0.12 -0.12)">
       <use xlink:href="#DejaVuSans-53"/>
       <use x="63.623047" xlink:href="#DejaVuSans-48"/>
      </g>
     </g>
    </g>
    <g id="xtick_4">
     <g id="line2d_7">
      <path clip-path="url(#p547b1d5da4)" d="M 242.719715 309.1 
L 242.719715 28.8 
" style="fill:none;stroke:#808080;stroke-linecap:square;stroke-width:0.8;"/>
     </g>
     <g id="line2d_8">
      <g>
       <use style="stroke:#000000;stroke-width:0.8;" x="242.719715" xlink:href="#m6d16f032e4" y="309.1"/>
      </g>
     </g>
     <g id="text_4">
      <!-- 75 -->
      <defs>
       <path d="M 8.203125 72.90625 
L 55.078125 72.90625 
L 55.078125 68.703125 
L 28.609375 0 
L 18.3125 0 
L 43.21875 64.59375 
L 8.203125 64.59375 
z
" id="DejaVuSans-55"/>
      </defs>
      <g transform="translate(235.084715 325.218125)scale(0.12 -0.12)">
       <use xlink:href="#DejaVuSans-55"/>
       <use x="63.623047" xlink:href="#DejaVuSans-53"/>
      </g>
     </g>
    </g>
    <g id="xtick_5">
     <g id="line2d_9">
      <path clip-path="url(#p547b1d5da4)" d="M 299.242196 309.1 
L 299.242196 28.8 
" style="fill:none;stroke:#808080;stroke-linecap:square;stroke-width:0.8;"/>
     </g>
     <g id="line2d_10">
      <g>
       <use style="stroke:#000000;stroke-width:0.8;" x="299.242196" xlink:href="#m6d16f032e4" y="309.1"/>
      </g>
     </g>
     <g id="text_5">
      <!-- 100 -->
      <defs>
       <path d="M 12.40625 8.296875 
L 28.515625 8.296875 
L 28.515625 63.921875 
L 10.984375 60.40625 
L 10.984375 69.390625 
L 28.421875 72.90625 
L 38.28125 72.90625 
L 38.28125 8.296875 
L 54.390625 8.296875 
L 54.390625 0 
L 12.40625 0 
z
" id="DejaVuSans-49"/>
      </defs>
      <g transform="translate(287.789696 325.218125)scale(0.12 -0.12)">
       <use xlink:href="#DejaVuSans-49"/>
       <use x="63.623047" xlink:href="#DejaVuSans-48"/>
       <use x="127.246094" xlink:href="#DejaVuSans-48"/>
      </g>
     </g>
    </g>
    <g id="xtick_6">
     <g id="line2d_11">
      <path clip-path="url(#p547b1d5da4)" d="M 355.764678 309.1 
L 355.764678 28.8 
" style="fill:none;stroke:#808080;stroke-linecap:square;stroke-width:0.8;"/>
     </g>
     <g id="line2d_12">
      <g>
       <use style="stroke:#000000;stroke-width:0.8;" x="355.764678" xlink:href="#m6d16f032e4" y="309.1"/>
      </g>
     </g>
     <g id="text_6">
      <!-- 125 -->
      <g transform="translate(344.312178 325.218125)scale(0.12 -0.12)">
       <use xlink:href="#DejaVuSans-49"/>
       <use x="63.623047" xlink:href="#DejaVuSans-50"/>
       <use x="127.246094" xlink:href="#DejaVuSans-53"/>
      </g>
     </g>
    </g>
    <g id="xtick_7">
     <g id="line2d_13">
      <path clip-path="url(#p547b1d5da4)" d="M 412.287159 309.1 
L 412.287159 28.8 
" style="fill:none;stroke:#808080;stroke-linecap:square;stroke-width:0.8;"/>
     </g>
     <g id="line2d_14">
      <g>
       <use style="stroke:#000000;stroke-width:0.8;" x="412.287159" xlink:href="#m6d16f032e4" y="309.1"/>
      </g>
     </g>
     <g id="text_7">
      <!-- 150 -->
      <g transform="translate(400.834659 325.218125)scale(0.12 -0.12)">
       <use xlink:href="#DejaVuSans-49"/>
       <use x="63.623047" xlink:href="#DejaVuSans-53"/>
       <use x="127.246094" xlink:href="#DejaVuSans-48"/>
      </g>
     </g>
    </g>
    <g id="xtick_8">
     <g id="line2d_15">
      <path clip-path="url(#p547b1d5da4)" d="M 468.809641 309.1 
L 468.809641 28.8 
" style="fill:none;stroke:#808080;stroke-linecap:square;stroke-width:0.8;"/>
     </g>
     <g id="line2d_16">
      <g>
       <use style="stroke:#000000;stroke-width:0.8;" x="468.809641" xlink:href="#m6d16f032e4" y="309.1"/>
      </g>
     </g>
     <g id="text_8">
      <!-- 175 -->
      <g transform="translate(457.357141 325.218125)scale(0.12 -0.12)">
       <use xlink:href="#DejaVuSans-49"/>
       <use x="63.623047" xlink:href="#DejaVuSans-55"/>
       <use x="127.246094" xlink:href="#DejaVuSans-53"/>
      </g>
     </g>
    </g>
    <g id="text_9">
     <!-- $I_{DS X1}$ [uA] -->
     <defs>
      <path d="M 16.890625 72.90625 
L 26.8125 72.90625 
L 12.59375 0 
L 2.6875 0 
z
" id="DejaVuSans-Oblique-73"/>
      <path d="M 16.890625 72.90625 
L 38.09375 72.90625 
Q 54.984375 72.90625 63.59375 65.75 
Q 72.21875 58.59375 72.21875 44.484375 
Q 72.21875 35.15625 68.9375 26.53125 
Q 65.671875 17.921875 59.90625 12.015625 
Q 54.109375 5.953125 45.171875 2.96875 
Q 36.234375 0 24.03125 0 
L 2.6875 0 
z
M 25.203125 64.796875 
L 14.203125 8.109375 
L 27.09375 8.109375 
Q 43.65625 8.109375 52.734375 17.625 
Q 61.8125 27.15625 61.8125 44.484375 
Q 61.8125 54.984375 55.953125 59.890625 
Q 50.09375 64.796875 37.59375 64.796875 
z
" id="DejaVuSans-Oblique-68"/>
      <path d="M 60.296875 70.515625 
L 58.40625 60.890625 
Q 53.46875 63.53125 48.609375 64.875 
Q 43.75 66.21875 39.203125 66.21875 
Q 30.375 66.21875 25.140625 62.359375 
Q 19.921875 58.5 19.921875 52.09375 
Q 19.921875 48.578125 21.84375 46.703125 
Q 23.78125 44.828125 31.78125 42.671875 
L 37.703125 41.21875 
Q 47.703125 38.625 51.609375 34.640625 
Q 55.515625 30.671875 55.515625 23.484375 
Q 55.515625 12.453125 46.84375 5.515625 
Q 38.1875 -1.421875 24.03125 -1.421875 
Q 18.21875 -1.421875 12.359375 -0.265625 
Q 6.5 0.875 0.59375 3.21875 
L 2.59375 13.375 
Q 8.015625 10.015625 13.453125 8.296875 
Q 18.890625 6.59375 24.3125 6.59375 
Q 33.546875 6.59375 39.109375 10.6875 
Q 44.671875 14.796875 44.671875 21.390625 
Q 44.671875 25.78125 42.453125 28.046875 
Q 40.234375 30.328125 32.90625 32.171875 
L 27 33.6875 
Q 16.890625 36.328125 13.203125 39.765625 
Q 9.515625 43.21875 9.515625 49.421875 
Q 9.515625 60.296875 17.890625 67.25 
Q 26.265625 74.21875 39.703125 74.21875 
Q 44.921875 74.21875 50.046875 73.28125 
Q 55.171875 72.359375 60.296875 70.515625 
z
" id="DejaVuSans-Oblique-83"/>
      <path d="M 13.71875 72.90625 
L 23.6875 72.90625 
L 36.1875 46.578125 
L 58.796875 72.90625 
L 70.3125 72.90625 
L 40.28125 38.09375 
L 58.40625 0 
L 48.484375 0 
L 33.796875 30.71875 
L 7.171875 0 
L -4.296875 0 
L 29.78125 39.203125 
z
" id="DejaVuSans-Oblique-88"/>
      <path id="DejaVuSans-32"/>
      <path d="M 8.59375 75.984375 
L 29.296875 75.984375 
L 29.296875 69 
L 17.578125 69 
L 17.578125 -6.203125 
L 29.296875 -6.203125 
L 29.296875 -13.1875 
L 8.59375 -13.1875 
z
" id="DejaVuSans-91"/>
      <path d="M 8.5 21.578125 
L 8.5 54.6875 
L 17.484375 54.6875 
L 17.484375 21.921875 
Q 17.484375 14.15625 20.5 10.265625 
Q 23.53125 6.390625 29.59375 6.390625 
Q 36.859375 6.390625 41.078125 11.03125 
Q 45.3125 15.671875 45.3125 23.6875 
L 45.3125 54.6875 
L 54.296875 54.6875 
L 54.296875 0 
L 45.3125 0 
L 45.3125 8.40625 
Q 42.046875 3.421875 37.71875 1 
Q 33.40625 -1.421875 27.6875 -1.421875 
Q 18.265625 -1.421875 13.375 4.4375 
Q 8.5 10.296875 8.5 21.578125 
z
M 31.109375 56 
z
" id="DejaVuSans-117"/>
      <path d="M 34.1875 63.1875 
L 20.796875 26.90625 
L 47.609375 26.90625 
z
M 28.609375 72.90625 
L 39.796875 72.90625 
L 67.578125 0 
L 57.328125 0 
L 50.6875 18.703125 
L 17.828125 18.703125 
L 11.1875 0 
L 0.78125 0 
z
" id="DejaVuSans-65"/>
      <path d="M 30.421875 75.984375 
L 30.421875 -13.1875 
L 9.71875 -13.1875 
L 9.71875 -6.203125 
L 21.390625 -6.203125 
L 21.390625 69 
L 9.71875 69 
L 9.71875 75.984375 
z
" id="DejaVuSans-93"/>
     </defs>
     <g transform="translate(245.275 340.831875)scale(0.12 -0.12)">
      <use transform="translate(0 0.015625)" xlink:href="#DejaVuSans-Oblique-73"/>
      <use transform="translate(29.492188 -16.390625)scale(0.7)" xlink:href="#DejaVuSans-Oblique-68"/>
      <use transform="translate(83.393555 -16.390625)scale(0.7)" xlink:href="#DejaVuSans-Oblique-83"/>
      <use transform="translate(127.827148 -16.390625)scale(0.7)" xlink:href="#DejaVuSans-Oblique-88"/>
      <use transform="translate(175.78125 -16.390625)scale(0.7)" xlink:href="#DejaVuSans-49"/>
      <use transform="translate(223.051758 0.015625)" xlink:href="#DejaVuSans-32"/>
      <use transform="translate(254.838867 0.015625)" xlink:href="#DejaVuSans-91"/>
      <use transform="translate(293.852539 0.015625)" xlink:href="#DejaVuSans-117"/>
      <use transform="translate(357.231445 0.015625)" xlink:href="#DejaVuSans-65"/>
      <use transform="translate(425.639648 0.015625)" xlink:href="#DejaVuSans-93"/>
     </g>
    </g>
   </g>
   <g id="matplotlib.axis_2">
    <g id="ytick_1">
     <g id="line2d_17">
      <path clip-path="url(#p547b1d5da4)" d="M 53.15 296.359172 
L 493.2 296.359172 
" style="fill:none;stroke:#808080;stroke-linecap:square;stroke-width:0.8;"/>
     </g>
     <g id="line2d_18">
      <defs>
       <path d="M 0 0 
L -3.5 0 
" id="mba0b7d2931" style="stroke:#000000;stroke-width:0.8;"/>
      </defs>
      <g>
       <use style="stroke:#000000;stroke-width:0.8;" x="53.15" xlink:href="#mba0b7d2931" y="296.359172"/>
      </g>
     </g>
     <g id="text_10">
      <!-- 0 -->
      <g transform="translate(38.515 300.918235)scale(0.12 -0.12)">
       <use xlink:href="#DejaVuSans-48"/>
      </g>
     </g>
    </g>
    <g id="ytick_2">
     <g id="line2d_19">
      <path clip-path="url(#p547b1d5da4)" d="M 53.15 256.396257 
L 493.2 256.396257 
" style="fill:none;stroke:#808080;stroke-linecap:square;stroke-width:0.8;"/>
     </g>
     <g id="line2d_20">
      <g>
       <use style="stroke:#000000;stroke-width:0.8;" x="53.15" xlink:href="#mba0b7d2931" y="256.396257"/>
      </g>
     </g>
     <g id="text_11">
      <!-- 10 -->
      <g transform="translate(30.88 260.955319)scale(0.12 -0.12)">
       <use xlink:href="#DejaVuSans-49"/>
       <use x="63.623047" xlink:href="#DejaVuSans-48"/>
      </g>
     </g>
    </g>
    <g id="ytick_3">
     <g id="line2d_21">
      <path clip-path="url(#p547b1d5da4)" d="M 53.15 216.433341 
L 493.2 216.433341 
" style="fill:none;stroke:#808080;stroke-linecap:square;stroke-width:0.8;"/>
     </g>
     <g id="line2d_22">
      <g>
       <use style="stroke:#000000;stroke-width:0.8;" x="53.15" xlink:href="#mba0b7d2931" y="216.433341"/>
      </g>
     </g>
     <g id="text_12">
      <!-- 20 -->
      <g transform="translate(30.88 220.992403)scale(0.12 -0.12)">
       <use xlink:href="#DejaVuSans-50"/>
       <use x="63.623047" xlink:href="#DejaVuSans-48"/>
      </g>
     </g>
    </g>
    <g id="ytick_4">
     <g id="line2d_23">
      <path clip-path="url(#p547b1d5da4)" d="M 53.15 176.470425 
L 493.2 176.470425 
" style="fill:none;stroke:#808080;stroke-linecap:square;stroke-width:0.8;"/>
     </g>
     <g id="line2d_24">
      <g>
       <use style="stroke:#000000;stroke-width:0.8;" x="53.15" xlink:href="#mba0b7d2931" y="176.470425"/>
      </g>
     </g>
     <g id="text_13">
      <!-- 30 -->
      <defs>
       <path d="M 40.578125 39.3125 
Q 47.65625 37.796875 51.625 33 
Q 55.609375 28.21875 55.609375 21.1875 
Q 55.609375 10.40625 48.1875 4.484375 
Q 40.765625 -1.421875 27.09375 -1.421875 
Q 22.515625 -1.421875 17.65625 -0.515625 
Q 12.796875 0.390625 7.625 2.203125 
L 7.625 11.71875 
Q 11.71875 9.328125 16.59375 8.109375 
Q 21.484375 6.890625 26.8125 6.890625 
Q 36.078125 6.890625 40.9375 10.546875 
Q 45.796875 14.203125 45.796875 21.1875 
Q 45.796875 27.640625 41.28125 31.265625 
Q 36.765625 34.90625 28.71875 34.90625 
L 20.21875 34.90625 
L 20.21875 43.015625 
L 29.109375 43.015625 
Q 36.375 43.015625 40.234375 45.921875 
Q 44.09375 48.828125 44.09375 54.296875 
Q 44.09375 59.90625 40.109375 62.90625 
Q 36.140625 65.921875 28.71875 65.921875 
Q 24.65625 65.921875 20.015625 65.03125 
Q 15.375 64.15625 9.8125 62.3125 
L 9.8125 71.09375 
Q 15.4375 72.65625 20.34375 73.4375 
Q 25.25 74.21875 29.59375 74.21875 
Q 40.828125 74.21875 47.359375 69.109375 
Q 53.90625 64.015625 53.90625 55.328125 
Q 53.90625 49.265625 50.4375 45.09375 
Q 46.96875 40.921875 40.578125 39.3125 
z
" id="DejaVuSans-51"/>
      </defs>
      <g transform="translate(30.88 181.029487)scale(0.12 -0.12)">
       <use xlink:href="#DejaVuSans-51"/>
       <use x="63.623047" xlink:href="#DejaVuSans-48"/>
      </g>
     </g>
    </g>
    <g id="ytick_5">
     <g id="line2d_25">
      <path clip-path="url(#p547b1d5da4)" d="M 53.15 136.507509 
L 493.2 136.507509 
" style="fill:none;stroke:#808080;stroke-linecap:square;stroke-width:0.8;"/>
     </g>
     <g id="line2d_26">
      <g>
       <use style="stroke:#000000;stroke-width:0.8;" x="53.15" xlink:href="#mba0b7d2931" y="136.507509"/>
      </g>
     </g>
     <g id="text_14">
      <!-- 40 -->
      <defs>
       <path d="M 37.796875 64.3125 
L 12.890625 25.390625 
L 37.796875 25.390625 
z
M 35.203125 72.90625 
L 47.609375 72.90625 
L 47.609375 25.390625 
L 58.015625 25.390625 
L 58.015625 17.1875 
L 47.609375 17.1875 
L 47.609375 0 
L 37.796875 0 
L 37.796875 17.1875 
L 4.890625 17.1875 
L 4.890625 26.703125 
z
" id="DejaVuSans-52"/>
      </defs>
      <g transform="translate(30.88 141.066571)scale(0.12 -0.12)">
       <use xlink:href="#DejaVuSans-52"/>
       <use x="63.623047" xlink:href="#DejaVuSans-48"/>
      </g>
     </g>
    </g>
    <g id="ytick_6">
     <g id="line2d_27">
      <path clip-path="url(#p547b1d5da4)" d="M 53.15 96.544593 
L 493.2 96.544593 
" style="fill:none;stroke:#808080;stroke-linecap:square;stroke-width:0.8;"/>
     </g>
     <g id="line2d_28">
      <g>
       <use style="stroke:#000000;stroke-width:0.8;" x="53.15" xlink:href="#mba0b7d2931" y="96.544593"/>
      </g>
     </g>
     <g id="text_15">
      <!-- 50 -->
      <g transform="translate(30.88 101.103656)scale(0.12 -0.12)">
       <use xlink:href="#DejaVuSans-53"/>
       <use x="63.623047" xlink:href="#DejaVuSans-48"/>
      </g>
     </g>
    </g>
    <g id="ytick_7">
     <g id="line2d_29">
      <path clip-path="url(#p547b1d5da4)" d="M 53.15 56.581677 
L 493.2 56.581677 
" style="fill:none;stroke:#808080;stroke-linecap:square;stroke-width:0.8;"/>
     </g>
     <g id="line2d_30">
      <g>
       <use style="stroke:#000000;stroke-width:0.8;" x="53.15" xlink:href="#mba0b7d2931" y="56.581677"/>
      </g>
     </g>
     <g id="text_16">
      <!-- 60 -->
      <defs>
       <path d="M 33.015625 40.375 
Q 26.375 40.375 22.484375 35.828125 
Q 18.609375 31.296875 18.609375 23.390625 
Q 18.609375 15.53125 22.484375 10.953125 
Q 26.375 6.390625 33.015625 6.390625 
Q 39.65625 6.390625 43.53125 10.953125 
Q 47.40625 15.53125 47.40625 23.390625 
Q 47.40625 31.296875 43.53125 35.828125 
Q 39.65625 40.375 33.015625 40.375 
z
M 52.59375 71.296875 
L 52.59375 62.3125 
Q 48.875 64.0625 45.09375 64.984375 
Q 41.3125 65.921875 37.59375 65.921875 
Q 27.828125 65.921875 22.671875 59.328125 
Q 17.53125 52.734375 16.796875 39.40625 
Q 19.671875 43.65625 24.015625 45.921875 
Q 28.375 48.1875 33.59375 48.1875 
Q 44.578125 48.1875 50.953125 41.515625 
Q 57.328125 34.859375 57.328125 23.390625 
Q 57.328125 12.15625 50.6875 5.359375 
Q 44.046875 -1.421875 33.015625 -1.421875 
Q 20.359375 -1.421875 13.671875 8.265625 
Q 6.984375 17.96875 6.984375 36.375 
Q 6.984375 53.65625 15.1875 63.9375 
Q 23.390625 74.21875 37.203125 74.21875 
Q 40.921875 74.21875 44.703125 73.484375 
Q 48.484375 72.75 52.59375 71.296875 
z
" id="DejaVuSans-54"/>
      </defs>
      <g transform="translate(30.88 61.14074)scale(0.12 -0.12)">
       <use xlink:href="#DejaVuSans-54"/>
       <use x="63.623047" xlink:href="#DejaVuSans-48"/>
      </g>
     </g>
    </g>
    <g id="text_17">
     <!-- $f_{T X1}$ [GHz] -->
     <defs>
      <path d="M 47.796875 75.984375 
L 46.390625 68.5 
L 37.796875 68.5 
Q 32.90625 68.5 30.6875 66.578125 
Q 28.46875 64.65625 27.390625 59.515625 
L 26.421875 54.6875 
L 41.21875 54.6875 
L 39.890625 47.703125 
L 25.09375 47.703125 
L 15.828125 0 
L 6.78125 0 
L 16.109375 47.703125 
L 7.515625 47.703125 
L 8.796875 54.6875 
L 17.390625 54.6875 
L 18.109375 58.5 
Q 19.96875 68.171875 24.625 72.078125 
Q 29.296875 75.984375 39.3125 75.984375 
z
" id="DejaVuSans-Oblique-102"/>
      <path d="M 5.90625 72.90625 
L 67.578125 72.90625 
L 66.015625 64.59375 
L 39.984375 64.59375 
L 27.484375 0 
L 17.578125 0 
L 30.078125 64.59375 
L 4.296875 64.59375 
z
" id="DejaVuSans-Oblique-84"/>
      <path d="M 59.515625 10.40625 
L 59.515625 29.984375 
L 43.40625 29.984375 
L 43.40625 38.09375 
L 69.28125 38.09375 
L 69.28125 6.78125 
Q 63.578125 2.734375 56.6875 0.65625 
Q 49.8125 -1.421875 42 -1.421875 
Q 24.90625 -1.421875 15.25 8.5625 
Q 5.609375 18.5625 5.609375 36.375 
Q 5.609375 54.25 15.25 64.234375 
Q 24.90625 74.21875 42 74.21875 
Q 49.125 74.21875 55.546875 72.453125 
Q 61.96875 70.703125 67.390625 67.28125 
L 67.390625 56.78125 
Q 61.921875 61.421875 55.765625 63.765625 
Q 49.609375 66.109375 42.828125 66.109375 
Q 29.4375 66.109375 22.71875 58.640625 
Q 16.015625 51.171875 16.015625 36.375 
Q 16.015625 21.625 22.71875 14.15625 
Q 29.4375 6.6875 42.828125 6.6875 
Q 48.046875 6.6875 52.140625 7.59375 
Q 56.25 8.5 59.515625 10.40625 
z
" id="DejaVuSans-71"/>
      <path d="M 9.8125 72.90625 
L 19.671875 72.90625 
L 19.671875 43.015625 
L 55.515625 43.015625 
L 55.515625 72.90625 
L 65.375 72.90625 
L 65.375 0 
L 55.515625 0 
L 55.515625 34.71875 
L 19.671875 34.71875 
L 19.671875 0 
L 9.8125 0 
z
" id="DejaVuSans-72"/>
      <path d="M 5.515625 54.6875 
L 48.1875 54.6875 
L 48.1875 46.484375 
L 14.40625 7.171875 
L 48.1875 7.171875 
L 48.1875 0 
L 4.296875 0 
L 4.296875 8.203125 
L 38.09375 47.515625 
L 5.515625 47.515625 
z
" id="DejaVuSans-122"/>
     </defs>
     <g transform="translate(24.384375 198.29)rotate(-90)scale(0.12 -0.12)">
      <use transform="translate(0 0.015625)" xlink:href="#DejaVuSans-Oblique-102"/>
      <use transform="translate(35.205078 -16.390625)scale(0.7)" xlink:href="#DejaVuSans-Oblique-84"/>
      <use transform="translate(77.963867 -16.390625)scale(0.7)" xlink:href="#DejaVuSans-Oblique-88"/>
      <use transform="translate(125.917969 -16.390625)scale(0.7)" xlink:href="#DejaVuSans-49"/>
      <use transform="translate(173.188477 0.015625)" xlink:href="#DejaVuSans-32"/>
      <use transform="translate(204.975586 0.015625)" xlink:href="#DejaVuSans-91"/>
      <use transform="translate(243.989258 0.015625)" xlink:href="#DejaVuSans-71"/>
      <use transform="translate(321.479492 0.015625)" xlink:href="#DejaVuSans-72"/>
      <use transform="translate(396.674805 0.015625)" xlink:href="#DejaVuSans-122"/>
      <use transform="translate(449.165039 0.015625)" xlink:href="#DejaVuSans-93"/>
     </g>
    </g>
   </g>
   <g id="line2d_31">
    <path clip-path="url(#p547b1d5da4)" d="M 73.152273 296.359091 
L 73.152277 296.358941 
L 73.152288 296.358517 
L 73.152321 296.357336 
L 73.15241 296.354112 
L 73.152652 296.345635 
L 73.153282 296.324842 
L 73.154829 296.279831 
L 73.158324 296.200098 
L 73.165364 296.091221 
L 73.177677 295.977796 
L 73.196134 295.887212 
L 73.22 295.834198 
L 73.247286 295.818562 
L 73.275796 295.832047 
L 73.303919 295.86454 
L 73.330779 295.907157 
L 73.356052 295.95333 
L 73.379715 295.998805 
L 73.40188 296.041181 
L 73.422698 296.07934 
L 73.442318 296.112966 
L 73.460868 296.142196 
L 73.478459 296.167394 
L 73.495181 296.189015 
L 73.511111 296.207525 
L 73.526312 296.223366 
L 73.540839 296.236932 
L 73.554741 296.24857 
L 73.568058 296.258574 
L 73.58083 296.267198 
L 73.59309 296.274652 
L 73.604868 296.281116 
L 73.616193 296.286738 
L 73.627091 296.291643 
L 73.637586 296.295936 
L 73.6477 296.299706 
L 73.657452 296.303026 
L 73.666864 296.30596 
L 73.675951 296.308558 
L 73.68473 296.310867 
L 73.693217 296.312925 
L 73.701427 296.314763 
L 73.709372 296.316409 
L 73.717065 296.317887 
L 73.724518 296.319218 
L 73.731742 296.320419 
L 73.738747 296.321504 
L 73.745544 296.322488 
L 73.752141 296.323381 
" style="fill:none;stroke:#ff0000;stroke-linecap:square;stroke-width:2;"/>
   </g>
   <g id="line2d_32">
    <path clip-path="url(#p547b1d5da4)" d="M 73.15233 296.356966 
L 73.152442 296.352884 
L 73.152757 296.34131 
L 73.153648 296.308749 
L 73.156139 296.218351 
L 73.162992 295.973299 
L 73.181369 295.336911 
L 73.228712 293.804908 
L 73.343667 290.541656 
L 73.600951 284.634468 
L 74.120711 275.591355 
L 75.056181 263.603004 
L 76.555219 249.488051 
L 78.717629 234.456819 
L 81.574644 219.897899 
L 85.092139 207.332098 
L 89.181021 198.335817 
L 93.705138 194.066406 
L 98.493535 194.623042 
L 103.36741 199.050009 
L 108.175412 205.968076 
L 112.816766 214.126033 
L 117.24174 222.602552 
L 121.437399 230.802327 
L 125.411249 238.387768 
L 129.179412 245.203221 
L 132.759979 251.210223 
L 136.170014 256.438868 
L 139.42453 260.95454 
L 142.536408 264.836899 
L 145.51665 268.167583 
L 148.374721 271.023639 
L 151.118858 273.474488 
L 153.756323 275.580937 
L 156.2936 277.395314 
L 158.736537 278.962146 
L 161.090459 280.319059 
L 163.360244 281.497719 
L 165.550387 282.524724 
L 167.665047 283.422402 
L 169.708085 284.209503 
L 171.683094 284.901796 
L 173.593427 285.512563 
L 175.442214 286.053017 
L 177.232387 286.532648 
L 178.966691 286.959504 
L 180.647704 287.340437 
L 182.277844 287.681289 
L 183.859389 287.987061 
L 185.394478 288.262042 
" style="fill:none;stroke:#0000ff;stroke-linecap:square;stroke-width:2;"/>
   </g>
   <g id="line2d_33">
    <path clip-path="url(#p547b1d5da4)" d="M 73.152332 296.356906 
L 73.152446 296.352711 
L 73.15277 296.34082 
L 73.153686 296.307365 
L 73.156245 296.214485 
L 73.163287 295.962697 
L 73.18217 295.308785 
L 73.230817 293.734448 
L 73.348952 290.380353 
L 73.613394 284.306055 
L 74.147775 274.997679 
L 75.110114 262.627116 
L 76.653983 247.970045 
L 78.886303 232.102487 
L 81.849961 216.061546 
L 85.53438 200.644806 
L 89.89745 186.359436 
L 94.884429 173.462 
L 100.439231 162.035213 
L 106.509299 152.073351 
L 113.046264 143.575743 
L 120.003554 136.668312 
L 127.330799 131.76169 
L 134.964521 129.644345 
L 142.817092 131.232554 
L 150.771794 136.923353 
L 158.694248 146.18231 
L 166.459312 157.823933 
L 173.976382 170.567218 
L 181.197519 183.383211 
L 188.109431 195.584418 
L 194.71988 206.782737 
L 201.046333 216.80967 
L 207.109039 225.640092 
L 212.927638 233.332841 
L 218.51988 239.989412 
L 223.901385 245.727581 
L 229.085827 250.665887 
L 234.085238 254.915337 
L 238.910311 258.575628 
L 243.570652 261.734013 
L 248.074978 264.465605 
L 252.431269 266.834397 
L 256.64688 268.894558 
L 260.72863 270.691771 
L 264.682865 272.264499 
L 268.515514 273.64511 
L 272.232128 274.860865 
L 275.837914 275.93475 
L 279.337767 276.886188 
" style="fill:none;stroke:#008000;stroke-linecap:square;stroke-width:2;"/>
   </g>
   <g id="line2d_34">
    <path clip-path="url(#p547b1d5da4)" d="M 73.152334 296.356846 
L 73.152451 296.352541 
L 73.152784 296.340338 
L 73.153723 296.306002 
L 73.15635 296.21068 
L 73.163577 295.95227 
L 73.182956 295.281161 
L 73.232883 293.665421 
L 73.354124 290.223117 
L 73.625521 283.989071 
L 74.173956 274.435889 
L 75.161604 261.739972 
L 76.746076 246.697364 
L 79.037108 230.412289 
L 82.078723 213.948854 
L 85.860082 198.124853 
L 90.33802 183.458648 
L 95.456496 170.207588 
L 101.158336 158.440214 
L 107.390635 148.106861 
L 114.106456 139.094205 
L 121.264779 131.261968 
L 128.829804 124.465292 
L 136.770117 118.567399 
L 145.057902 113.446848 
L 153.668234 109.003647 
L 162.578333 105.17007 
L 171.766547 101.936676 
L 181.210499 99.41151 
L 190.883435 97.92822 
L 200.747596 98.160145 
L 210.744901 101.046615 
L 220.78976 107.337751 
L 230.773407 117.056853 
L 240.584083 129.443411 
L 250.132309 143.353894 
L 259.364647 157.688553 
L 268.261291 171.612919 
L 276.825111 184.597979 
L 285.070682 196.370785 
L 293.016855 206.840831 
L 300.6828 216.032949 
L 308.086326 224.03647 
L 315.243394 230.970717 
L 322.168172 236.963496 
L 328.873267 242.138797 
L 335.369993 246.610517 
L 341.668604 250.479887 
L 347.778483 253.835017 
L 353.708283 256.751583 
" style="fill:none;stroke:#00bfbf;stroke-linecap:square;stroke-width:2;"/>
   </g>
   <g id="line2d_35">
    <path clip-path="url(#p547b1d5da4)" d="M 73.152335 296.356787 
L 73.152456 296.352372 
L 73.152797 296.339855 
L 73.15376 296.30464 
L 73.156454 296.206875 
L 73.163866 295.941843 
L 73.183742 295.253537 
L 73.234948 293.596395 
L 73.359297 290.065883 
L 73.637648 283.672092 
L 74.200136 273.874114 
L 75.213092 260.85287 
L 76.838166 245.4248 
L 79.187905 228.722427 
L 82.30746 211.837123 
L 86.185714 195.607638 
L 90.778398 180.565615 
L 96.028033 166.974996 
L 101.875981 154.906069 
L 108.267981 144.307875 
L 115.155895 135.064125 
L 122.497657 127.030772 
L 130.25656 120.058757 
L 138.400416 114.006427 
L 146.900781 108.745414 
L 155.732327 104.162663 
L 164.872328 100.160349 
L 174.300268 96.654765 
L 183.997524 93.574801 
L 193.947116 90.860417 
L 204.133497 88.461417 
L 214.542366 86.337024 
L 225.16047 84.457362 
L 235.97533 82.809654 
L 246.974728 81.415747 
L 258.145597 80.374141 
L 269.471578 79.943376 
L 280.928189 80.655877 
L 292.475093 83.345604 
L 304.04805 88.882806 
L 315.558072 97.671919 
L 326.904831 109.373034 
L 337.999657 123.082321 
L 348.783057 137.724428 
L 359.22757 152.35971 
L 369.329845 166.315258 
L 379.100315 179.187733 
L 388.555341 190.788641 
L 397.712653 201.078088 
L 406.589226 210.1077 
" style="fill:none;stroke:#bf00bf;stroke-linecap:square;stroke-width:2;"/>
   </g>
   <g id="line2d_36">
    <path clip-path="url(#p547b1d5da4)" d="M 73.152337 296.356727 
L 73.15246 296.352202 
L 73.15281 296.339372 
L 73.153797 296.303277 
L 73.156559 296.203069 
L 73.164156 295.931416 
L 73.184529 295.225913 
L 73.237014 293.527369 
L 73.364469 289.90865 
L 73.649775 283.355113 
L 74.226316 273.312339 
L 75.26458 259.965767 
L 76.930256 244.152237 
L 79.338701 227.032565 
L 82.536196 209.725392 
L 86.511347 193.090424 
L 91.218775 177.672585 
L 96.59957 163.742413 
L 102.593625 151.371951 
L 109.145325 140.508969 
L 116.20533 131.034269 
L 123.730521 122.800207 
L 131.683275 115.654 
L 140.0306 109.450455 
L 148.743342 104.057995 
L 157.795539 99.360735 
L 167.163898 95.258392 
L 176.827391 91.665128 
L 186.766933 88.507946 
L 196.965126 85.72499 
L 207.406053 83.263923 
L 218.07511 81.08047 
L 228.958859 79.137144 
L 240.044908 77.402156 
L 251.321811 75.848506 
L 262.778971 74.453239 
L 274.406561 73.196889 
L 286.195452 72.063172 
L 298.13713 71.039214 
L 310.223612 70.116997 
L 322.447288 69.297967 
L 334.800614 68.605409 
L 347.275387 68.114436 
L 359.861078 68.014739 
L 372.541324 68.710343 
L 385.287722 70.893986 
L 398.051966 75.426438 
L 410.761692 82.94037 
L 423.327795 93.458466 
L 435.663661 106.368398 
" style="fill:none;stroke:#bfbf00;stroke-linecap:square;stroke-width:2;"/>
   </g>
   <g id="line2d_37">
    <path clip-path="url(#p547b1d5da4)" d="M 73.152339 296.356667 
L 73.152465 296.352032 
L 73.152823 296.33889 
L 73.153835 296.301915 
L 73.156663 296.199264 
L 73.164446 295.92099 
L 73.185315 295.19829 
L 73.23908 293.458342 
L 73.369642 289.751416 
L 73.661901 283.038135 
L 74.252497 272.750564 
L 75.316069 259.078664 
L 77.022346 242.879673 
L 79.489498 225.342703 
L 82.764933 207.613661 
L 86.836979 190.573209 
L 91.659153 174.779555 
L 97.171107 160.50983 
L 103.311269 147.837834 
L 110.022669 136.710062 
L 117.254764 127.004413 
L 124.963384 118.569643 
L 133.10999 111.249244 
L 141.660784 104.894485 
L 150.585902 99.370582 
L 159.85875 94.558825 
L 169.455466 90.356486 
L 179.35451 86.675635 
L 189.536332 83.441495 
L 199.98311 80.590702 
L 210.67854 78.069645 
L 221.607659 75.832968 
L 232.756702 73.842265 
L 244.112979 72.064964 
L 255.664762 70.473381 
L 267.401198 69.04393 
L 279.312226 67.75646 
L 291.388504 66.593709 
L 303.621346 65.540844 
L 316.002665 64.585084 
L 328.524923 63.715386 
L 341.181082 62.922185 
L 353.964565 62.197202 
L 366.869217 61.533307 
L 379.88927 60.924532 
L 393.019299 60.366384 
L 406.254177 59.856975 
L 419.588979 59.400279 
L 433.018788 59.014788 
L 446.538213 58.754795 
" style="fill:none;stroke:#000000;stroke-linecap:square;stroke-width:2;"/>
   </g>
   <g id="line2d_38">
    <path clip-path="url(#p547b1d5da4)" d="M 73.15234 296.356608 
L 73.152469 296.351862 
L 73.152836 296.338407 
L 73.153872 296.300552 
L 73.156768 296.195459 
L 73.164736 295.910563 
L 73.186101 295.170666 
L 73.241145 293.389316 
L 73.374814 289.594182 
L 73.674028 282.721156 
L 74.278677 272.188789 
L 75.367557 258.191561 
L 77.114436 241.60711 
L 79.640294 223.652841 
L 82.99367 205.501931 
L 87.162612 188.055995 
L 92.099531 171.886525 
L 97.742643 157.277247 
L 104.028913 144.303716 
L 110.900013 132.911155 
L 118.304198 122.974557 
L 126.196248 114.339078 
L 134.536705 106.844488 
L 143.290968 100.338516 
L 152.428463 94.683169 
L 161.921961 89.756914 
L 171.747034 85.454579 
L 181.88163 81.686141 
L 192.305732 78.375044 
L 203.001095 75.456416 
L 213.951025 72.875369 
L 225.140207 70.585469 
L 236.554546 68.547396 
L 248.181049 66.727804 
L 260.007711 65.098349 
L 272.023419 63.634883 
L 284.217874 62.316778 
L 296.581512 61.126358 
L 309.105439 60.048438 
L 321.781376 59.069931 
L 334.601606 58.179523 
L 347.558923 57.367407 
L 360.646596 56.625056 
L 373.858326 55.945034 
L 387.188213 55.320839 
L 400.630727 54.746767 
L 414.180677 54.217808 
L 427.833186 53.729545 
L 441.583668 53.278082 
L 455.427805 52.859991 
" style="fill:none;stroke:#ff0000;stroke-linecap:square;stroke-width:2;"/>
   </g>
   <g id="line2d_39">
    <path clip-path="url(#p547b1d5da4)" d="M 73.152342 296.356548 
L 73.152474 296.351692 
L 73.152849 296.337924 
L 73.153909 296.29919 
L 73.156872 296.191654 
L 73.165025 295.900136 
L 73.186887 295.143043 
L 73.243211 293.32029 
L 73.379986 289.436948 
L 73.686155 282.404177 
L 74.304857 271.627014 
L 75.419045 257.304458 
L 77.206525 240.334546 
L 79.791091 221.962979 
L 83.222407 203.3902 
L 87.488244 185.538781 
L 92.539909 168.993496 
L 98.31418 154.044664 
L 104.746557 140.769598 
L 111.777357 129.112248 
L 119.353633 118.944701 
L 127.429112 110.108514 
L 135.96342 102.439732 
L 144.921152 95.782546 
L 154.271023 89.995757 
L 163.985172 84.955004 
L 174.038603 80.552673 
L 184.40875 76.696647 
L 195.075132 73.308593 
L 206.019079 70.322129 
L 217.223511 67.681093 
L 228.672755 65.33797 
L 240.35239 63.252528 
L 252.249119 61.390644 
L 264.35066 59.723317 
L 276.645641 58.225837 
L 289.123523 56.877096 
L 301.77452 55.659008 
L 314.589531 54.556035 
L 327.560087 53.554784 
L 340.678288 52.643681 
L 353.936763 51.81269 
L 367.328623 51.053086 
L 380.847424 50.357258 
L 394.487129 49.718554 
L 408.242078 49.131139 
L 422.10696 48.589882 
L 436.076784 48.090261 
L 450.146859 47.628278 
L 464.312767 47.200391 
" style="fill:none;stroke:#0000ff;stroke-linecap:square;stroke-width:2;"/>
   </g>
   <g id="line2d_40">
    <path clip-path="url(#p547b1d5da4)" d="M 73.152343 296.356489 
L 73.152479 296.351522 
L 73.152862 296.337442 
L 73.153946 296.297827 
L 73.156977 296.187849 
L 73.165315 295.88971 
L 73.187674 295.115419 
L 73.245277 293.251264 
L 73.385159 289.279714 
L 73.698282 282.087198 
L 74.331037 271.065239 
L 75.470534 256.417355 
L 77.298615 239.061983 
L 79.941888 220.273117 
L 83.451143 201.278469 
L 87.813877 183.021567 
L 92.980286 166.100466 
L 98.885717 150.812081 
L 105.464201 137.235481 
L 112.654702 125.313341 
L 120.403067 114.914845 
L 128.661975 105.87795 
L 137.390135 98.034976 
L 146.551337 91.226576 
L 156.113584 85.308344 
L 166.048383 80.153094 
L 176.330171 75.650766 
L 186.935869 71.707154 
L 197.844531 68.242142 
L 209.037064 65.187842 
L 220.495997 62.486817 
L 232.205303 60.090472 
L 244.150233 57.95766 
L 256.31719 56.053485 
L 268.693609 54.348285 
L 281.267863 52.816791 
L 294.029172 51.437414 
L 306.967528 50.191658 
L 320.073624 49.063631 
L 333.338797 48.039638 
L 346.75497 47.10784 
L 360.314603 46.257974 
L 374.010651 45.481115 
L 387.836522 44.769482 
L 401.786044 44.11627 
L 415.853428 43.515512 
L 430.033242 42.961961 
L 444.320382 42.450991 
L 458.71005 41.978515 
L 473.197727 41.540909 
" style="fill:none;stroke:#008000;stroke-linecap:square;stroke-width:2;"/>
   </g>
   <g id="patch_3">
    <path d="M 53.15 309.1 
L 53.15 28.8 
" style="fill:none;stroke:#000000;stroke-linecap:square;stroke-linejoin:miter;stroke-width:0.8;"/>
   </g>
   <g id="patch_4">
    <path d="M 493.2 309.1 
L 493.2 28.8 
" style="fill:none;stroke:#000000;stroke-linecap:square;stroke-linejoin:miter;stroke-width:0.8;"/>
   </g>
   <g id="patch_5">
    <path d="M 53.15 309.1 
L 493.2 309.1 
" style="fill:none;stroke:#000000;stroke-linecap:square;stroke-linejoin:miter;stroke-width:0.8;"/>
   </g>
   <g id="patch_6">
    <path d="M 53.15 28.8 
L 493.2 28.8 
" style="fill:none;stroke:#000000;stroke-linecap:square;stroke-linejoin:miter;stroke-width:0.8;"/>
   </g>
   <g id="text_18">
    <!-- $f_{T}(I_{ds})$ -->
    <defs>
     <path d="M 31 75.875 
Q 24.46875 64.65625 21.28125 53.65625 
Q 18.109375 42.671875 18.109375 31.390625 
Q 18.109375 20.125 21.3125 9.0625 
Q 24.515625 -2 31 -13.1875 
L 23.1875 -13.1875 
Q 15.875 -1.703125 12.234375 9.375 
Q 8.59375 20.453125 8.59375 31.390625 
Q 8.59375 42.28125 12.203125 53.3125 
Q 15.828125 64.359375 23.1875 75.875 
z
" id="DejaVuSans-40"/>
     <path d="M 41.796875 8.203125 
Q 38.1875 3.46875 33.25 1.015625 
Q 28.328125 -1.421875 22.3125 -1.421875 
Q 14.109375 -1.421875 9.34375 4.171875 
Q 4.59375 9.765625 4.59375 19.484375 
Q 4.59375 27.59375 7.46875 34.9375 
Q 10.359375 42.28125 15.828125 48.09375 
Q 19.4375 51.953125 23.96875 53.96875 
Q 28.515625 56 33.5 56 
Q 38.765625 56 42.796875 53.453125 
Q 46.828125 50.921875 49.03125 46.1875 
L 54.890625 75.984375 
L 63.921875 75.984375 
L 49.125 0 
L 40.09375 0 
z
M 13.921875 21.09375 
Q 13.921875 14.015625 17.109375 10.0625 
Q 20.3125 6.109375 25.984375 6.109375 
Q 30.171875 6.109375 33.765625 8.125 
Q 37.359375 10.15625 40.09375 14.109375 
Q 42.96875 18.21875 44.625 23.578125 
Q 46.296875 28.953125 46.296875 34.1875 
Q 46.296875 40.96875 43.09375 44.765625 
Q 39.890625 48.578125 34.28125 48.578125 
Q 30.03125 48.578125 26.359375 46.578125 
Q 22.703125 44.578125 20.125 40.828125 
Q 17.28125 36.765625 15.59375 31.390625 
Q 13.921875 26.03125 13.921875 21.09375 
z
" id="DejaVuSans-Oblique-100"/>
     <path d="M 50 53.078125 
L 48.296875 44.578125 
Q 44.734375 46.53125 40.765625 47.5 
Q 36.8125 48.484375 32.625 48.484375 
Q 25.53125 48.484375 21.453125 46.0625 
Q 17.390625 43.65625 17.390625 39.5 
Q 17.390625 34.671875 26.859375 32.078125 
Q 27.59375 31.890625 27.9375 31.78125 
L 30.8125 30.90625 
Q 39.796875 28.421875 42.796875 25.6875 
Q 45.796875 22.953125 45.796875 18.21875 
Q 45.796875 9.515625 38.890625 4.046875 
Q 31.984375 -1.421875 20.796875 -1.421875 
Q 16.453125 -1.421875 11.671875 -0.578125 
Q 6.890625 0.25 1.125 2 
L 2.875 11.28125 
Q 7.8125 8.734375 12.59375 7.421875 
Q 17.390625 6.109375 21.78125 6.109375 
Q 28.375 6.109375 32.5 8.9375 
Q 36.625 11.765625 36.625 16.109375 
Q 36.625 20.796875 25.78125 23.6875 
L 24.859375 23.921875 
L 21.78125 24.703125 
Q 14.9375 26.515625 11.765625 29.46875 
Q 8.59375 32.421875 8.59375 37.015625 
Q 8.59375 45.75 15.15625 50.875 
Q 21.734375 56 33.015625 56 
Q 37.453125 56 41.671875 55.265625 
Q 45.90625 54.546875 50 53.078125 
z
" id="DejaVuSans-Oblique-115"/>
     <path d="M 8.015625 75.875 
L 15.828125 75.875 
Q 23.140625 64.359375 26.78125 53.3125 
Q 30.421875 42.28125 30.421875 31.390625 
Q 30.421875 20.453125 26.78125 9.375 
Q 23.140625 -1.703125 15.828125 -13.1875 
L 8.015625 -13.1875 
Q 14.5 -2 17.703125 9.0625 
Q 20.90625 20.125 20.90625 31.390625 
Q 20.90625 42.671875 17.703125 53.65625 
Q 14.5 64.65625 8.015625 75.875 
z
" id="DejaVuSans-41"/>
    </defs>
    <g transform="translate(256.855 22.8)scale(0.12 -0.12)">
     <use transform="translate(0 0.015625)" xlink:href="#DejaVuSans-Oblique-102"/>
     <use transform="translate(35.205078 -16.390625)scale(0.7)" xlink:href="#DejaVuSans-Oblique-84"/>
     <use transform="translate(80.698242 0.015625)" xlink:href="#DejaVuSans-40"/>
     <use transform="translate(119.711914 0.015625)" xlink:href="#DejaVuSans-Oblique-73"/>
     <use transform="translate(149.204102 -16.390625)scale(0.7)" xlink:href="#DejaVuSans-Oblique-100"/>
     <use transform="translate(193.637695 -16.390625)scale(0.7)" xlink:href="#DejaVuSans-Oblique-115"/>
     <use transform="translate(232.841797 0.015625)" xlink:href="#DejaVuSans-41"/>
    </g>
   </g>
   <g id="legend_1">
    <g id="patch_7">
     <path d="M 385.88 304.1 
L 486.2 304.1 
Q 488.2 304.1 488.2 302.1 
L 488.2 185.9625 
Q 488.2 183.9625 486.2 183.9625 
L 385.88 183.9625 
Q 383.88 183.9625 383.88 185.9625 
L 383.88 302.1 
Q 383.88 304.1 385.88 304.1 
z
" style="fill:#ffffff;opacity:0.8;stroke:#cccccc;stroke-linejoin:miter;"/>
    </g>
    <g id="line2d_41">
     <path d="M 385.88 191.580625 
L 395.88 191.580625 
" style="fill:none;stroke:#ff0000;stroke-linecap:square;stroke-width:2;"/>
    </g>
    <g id="line2d_42"/>
    <g id="text_19">
     <!-- $V_{D}$ =  1.0e-03 -->
     <defs>
      <path d="M 20.609375 0 
L 7.8125 72.90625 
L 17.484375 72.90625 
L 28.078125 10.203125 
L 63.484375 72.90625 
L 74.21875 72.90625 
L 32.078125 0 
z
" id="DejaVuSans-Oblique-86"/>
      <path d="M 10.59375 45.40625 
L 73.1875 45.40625 
L 73.1875 37.203125 
L 10.59375 37.203125 
z
M 10.59375 25.484375 
L 73.1875 25.484375 
L 73.1875 17.1875 
L 10.59375 17.1875 
z
" id="DejaVuSans-61"/>
      <path d="M 10.6875 12.40625 
L 21 12.40625 
L 21 0 
L 10.6875 0 
z
" id="DejaVuSans-46"/>
      <path d="M 56.203125 29.59375 
L 56.203125 25.203125 
L 14.890625 25.203125 
Q 15.484375 15.921875 20.484375 11.0625 
Q 25.484375 6.203125 34.421875 6.203125 
Q 39.59375 6.203125 44.453125 7.46875 
Q 49.3125 8.734375 54.109375 11.28125 
L 54.109375 2.78125 
Q 49.265625 0.734375 44.1875 -0.34375 
Q 39.109375 -1.421875 33.890625 -1.421875 
Q 20.796875 -1.421875 13.15625 6.1875 
Q 5.515625 13.8125 5.515625 26.8125 
Q 5.515625 40.234375 12.765625 48.109375 
Q 20.015625 56 32.328125 56 
Q 43.359375 56 49.78125 48.890625 
Q 56.203125 41.796875 56.203125 29.59375 
z
M 47.21875 32.234375 
Q 47.125 39.59375 43.09375 43.984375 
Q 39.0625 48.390625 32.421875 48.390625 
Q 24.90625 48.390625 20.390625 44.140625 
Q 15.875 39.890625 15.1875 32.171875 
z
" id="DejaVuSans-101"/>
      <path d="M 4.890625 31.390625 
L 31.203125 31.390625 
L 31.203125 23.390625 
L 4.890625 23.390625 
z
" id="DejaVuSans-45"/>
     </defs>
     <g transform="translate(397.88 195.080625)scale(0.12 -0.12)">
      <use transform="translate(0 0.78125)" xlink:href="#DejaVuSans-Oblique-86"/>
      <use transform="translate(68.408203 -15.625)scale(0.7)" xlink:href="#DejaVuSans-Oblique-68"/>
      <use transform="translate(125.043945 0.78125)" xlink:href="#DejaVuSans-32"/>
      <use transform="translate(156.831055 0.78125)" xlink:href="#DejaVuSans-61"/>
      <use transform="translate(240.620117 0.78125)" xlink:href="#DejaVuSans-32"/>
      <use transform="translate(272.407227 0.78125)" xlink:href="#DejaVuSans-32"/>
      <use transform="translate(304.194336 0.78125)" xlink:href="#DejaVuSans-49"/>
      <use transform="translate(367.817383 0.78125)" xlink:href="#DejaVuSans-46"/>
      <use transform="translate(399.604492 0.78125)" xlink:href="#DejaVuSans-48"/>
      <use transform="translate(463.227539 0.78125)" xlink:href="#DejaVuSans-101"/>
      <use transform="translate(524.750977 0.78125)" xlink:href="#DejaVuSans-45"/>
      <use transform="translate(560.834961 0.78125)" xlink:href="#DejaVuSans-48"/>
      <use transform="translate(624.458008 0.78125)" xlink:href="#DejaVuSans-51"/>
     </g>
    </g>
    <g id="line2d_43">
     <path d="M 385.88 203.194375 
L 395.88 203.194375 
" style="fill:none;stroke:#0000ff;stroke-linecap:square;stroke-width:2;"/>
    </g>
    <g id="line2d_44"/>
    <g id="text_20">
     <!-- $V_{D}$ =  2.0e-01 -->
     <g transform="translate(397.88 206.694375)scale(0.12 -0.12)">
      <use transform="translate(0 0.78125)" xlink:href="#DejaVuSans-Oblique-86"/>
      <use transform="translate(68.408203 -15.625)scale(0.7)" xlink:href="#DejaVuSans-Oblique-68"/>
      <use transform="translate(125.043945 0.78125)" xlink:href="#DejaVuSans-32"/>
      <use transform="translate(156.831055 0.78125)" xlink:href="#DejaVuSans-61"/>
      <use transform="translate(240.620117 0.78125)" xlink:href="#DejaVuSans-32"/>
      <use transform="translate(272.407227 0.78125)" xlink:href="#DejaVuSans-32"/>
      <use transform="translate(304.194336 0.78125)" xlink:href="#DejaVuSans-50"/>
      <use transform="translate(367.817383 0.78125)" xlink:href="#DejaVuSans-46"/>
      <use transform="translate(399.604492 0.78125)" xlink:href="#DejaVuSans-48"/>
      <use transform="translate(463.227539 0.78125)" xlink:href="#DejaVuSans-101"/>
      <use transform="translate(524.750977 0.78125)" xlink:href="#DejaVuSans-45"/>
      <use transform="translate(560.834961 0.78125)" xlink:href="#DejaVuSans-48"/>
      <use transform="translate(624.458008 0.78125)" xlink:href="#DejaVuSans-49"/>
     </g>
    </g>
    <g id="line2d_45">
     <path d="M 385.88 214.808125 
L 395.88 214.808125 
" style="fill:none;stroke:#008000;stroke-linecap:square;stroke-width:2;"/>
    </g>
    <g id="line2d_46"/>
    <g id="text_21">
     <!-- $V_{D}$ =  4.0e-01 -->
     <g transform="translate(397.88 218.308125)scale(0.12 -0.12)">
      <use transform="translate(0 0.78125)" xlink:href="#DejaVuSans-Oblique-86"/>
      <use transform="translate(68.408203 -15.625)scale(0.7)" xlink:href="#DejaVuSans-Oblique-68"/>
      <use transform="translate(125.043945 0.78125)" xlink:href="#DejaVuSans-32"/>
      <use transform="translate(156.831055 0.78125)" xlink:href="#DejaVuSans-61"/>
      <use transform="translate(240.620117 0.78125)" xlink:href="#DejaVuSans-32"/>
      <use transform="translate(272.407227 0.78125)" xlink:href="#DejaVuSans-32"/>
      <use transform="translate(304.194336 0.78125)" xlink:href="#DejaVuSans-52"/>
      <use transform="translate(367.817383 0.78125)" xlink:href="#DejaVuSans-46"/>
      <use transform="translate(399.604492 0.78125)" xlink:href="#DejaVuSans-48"/>
      <use transform="translate(463.227539 0.78125)" xlink:href="#DejaVuSans-101"/>
      <use transform="translate(524.750977 0.78125)" xlink:href="#DejaVuSans-45"/>
      <use transform="translate(560.834961 0.78125)" xlink:href="#DejaVuSans-48"/>
      <use transform="translate(624.458008 0.78125)" xlink:href="#DejaVuSans-49"/>
     </g>
    </g>
    <g id="line2d_47">
     <path d="M 385.88 226.421875 
L 395.88 226.421875 
" style="fill:none;stroke:#00bfbf;stroke-linecap:square;stroke-width:2;"/>
    </g>
    <g id="line2d_48"/>
    <g id="text_22">
     <!-- $V_{D}$ =  6.0e-01 -->
     <g transform="translate(397.88 229.921875)scale(0.12 -0.12)">
      <use transform="translate(0 0.78125)" xlink:href="#DejaVuSans-Oblique-86"/>
      <use transform="translate(68.408203 -15.625)scale(0.7)" xlink:href="#DejaVuSans-Oblique-68"/>
      <use transform="translate(125.043945 0.78125)" xlink:href="#DejaVuSans-32"/>
      <use transform="translate(156.831055 0.78125)" xlink:href="#DejaVuSans-61"/>
      <use transform="translate(240.620117 0.78125)" xlink:href="#DejaVuSans-32"/>
      <use transform="translate(272.407227 0.78125)" xlink:href="#DejaVuSans-32"/>
      <use transform="translate(304.194336 0.78125)" xlink:href="#DejaVuSans-54"/>
      <use transform="translate(367.817383 0.78125)" xlink:href="#DejaVuSans-46"/>
      <use transform="translate(399.604492 0.78125)" xlink:href="#DejaVuSans-48"/>
      <use transform="translate(463.227539 0.78125)" xlink:href="#DejaVuSans-101"/>
      <use transform="translate(524.750977 0.78125)" xlink:href="#DejaVuSans-45"/>
      <use transform="translate(560.834961 0.78125)" xlink:href="#DejaVuSans-48"/>
      <use transform="translate(624.458008 0.78125)" xlink:href="#DejaVuSans-49"/>
     </g>
    </g>
    <g id="line2d_49">
     <path d="M 385.88 238.035625 
L 395.88 238.035625 
" style="fill:none;stroke:#bf00bf;stroke-linecap:square;stroke-width:2;"/>
    </g>
    <g id="line2d_50"/>
    <g id="text_23">
     <!-- $V_{D}$ =  8.0e-01 -->
     <defs>
      <path d="M 31.78125 34.625 
Q 24.75 34.625 20.71875 30.859375 
Q 16.703125 27.09375 16.703125 20.515625 
Q 16.703125 13.921875 20.71875 10.15625 
Q 24.75 6.390625 31.78125 6.390625 
Q 38.8125 6.390625 42.859375 10.171875 
Q 46.921875 13.96875 46.921875 20.515625 
Q 46.921875 27.09375 42.890625 30.859375 
Q 38.875 34.625 31.78125 34.625 
z
M 21.921875 38.8125 
Q 15.578125 40.375 12.03125 44.71875 
Q 8.5 49.078125 8.5 55.328125 
Q 8.5 64.0625 14.71875 69.140625 
Q 20.953125 74.21875 31.78125 74.21875 
Q 42.671875 74.21875 48.875 69.140625 
Q 55.078125 64.0625 55.078125 55.328125 
Q 55.078125 49.078125 51.53125 44.71875 
Q 48 40.375 41.703125 38.8125 
Q 48.828125 37.15625 52.796875 32.3125 
Q 56.78125 27.484375 56.78125 20.515625 
Q 56.78125 9.90625 50.3125 4.234375 
Q 43.84375 -1.421875 31.78125 -1.421875 
Q 19.734375 -1.421875 13.25 4.234375 
Q 6.78125 9.90625 6.78125 20.515625 
Q 6.78125 27.484375 10.78125 32.3125 
Q 14.796875 37.15625 21.921875 38.8125 
z
M 18.3125 54.390625 
Q 18.3125 48.734375 21.84375 45.5625 
Q 25.390625 42.390625 31.78125 42.390625 
Q 38.140625 42.390625 41.71875 45.5625 
Q 45.3125 48.734375 45.3125 54.390625 
Q 45.3125 60.0625 41.71875 63.234375 
Q 38.140625 66.40625 31.78125 66.40625 
Q 25.390625 66.40625 21.84375 63.234375 
Q 18.3125 60.0625 18.3125 54.390625 
z
" id="DejaVuSans-56"/>
     </defs>
     <g transform="translate(397.88 241.535625)scale(0.12 -0.12)">
      <use transform="translate(0 0.78125)" xlink:href="#DejaVuSans-Oblique-86"/>
      <use transform="translate(68.408203 -15.625)scale(0.7)" xlink:href="#DejaVuSans-Oblique-68"/>
      <use transform="translate(125.043945 0.78125)" xlink:href="#DejaVuSans-32"/>
      <use transform="translate(156.831055 0.78125)" xlink:href="#DejaVuSans-61"/>
      <use transform="translate(240.620117 0.78125)" xlink:href="#DejaVuSans-32"/>
      <use transform="translate(272.407227 0.78125)" xlink:href="#DejaVuSans-32"/>
      <use transform="translate(304.194336 0.78125)" xlink:href="#DejaVuSans-56"/>
      <use transform="translate(367.817383 0.78125)" xlink:href="#DejaVuSans-46"/>
      <use transform="translate(399.604492 0.78125)" xlink:href="#DejaVuSans-48"/>
      <use transform="translate(463.227539 0.78125)" xlink:href="#DejaVuSans-101"/>
      <use transform="translate(524.750977 0.78125)" xlink:href="#DejaVuSans-45"/>
      <use transform="translate(560.834961 0.78125)" xlink:href="#DejaVuSans-48"/>
      <use transform="translate(624.458008 0.78125)" xlink:href="#DejaVuSans-49"/>
     </g>
    </g>
    <g id="line2d_51">
     <path d="M 385.88 249.649375 
L 395.88 249.649375 
" style="fill:none;stroke:#bfbf00;stroke-linecap:square;stroke-width:2;"/>
    </g>
    <g id="line2d_52"/>
    <g id="text_24">
     <!-- $V_{D}$ =  1.0e+00 -->
     <defs>
      <path d="M 46 62.703125 
L 46 35.5 
L 73.1875 35.5 
L 73.1875 27.203125 
L 46 27.203125 
L 46 0 
L 37.796875 0 
L 37.796875 27.203125 
L 10.59375 27.203125 
L 10.59375 35.5 
L 37.796875 35.5 
L 37.796875 62.703125 
z
" id="DejaVuSans-43"/>
     </defs>
     <g transform="translate(397.88 253.149375)scale(0.12 -0.12)">
      <use transform="translate(0 0.78125)" xlink:href="#DejaVuSans-Oblique-86"/>
      <use transform="translate(68.408203 -15.625)scale(0.7)" xlink:href="#DejaVuSans-Oblique-68"/>
      <use transform="translate(125.043945 0.78125)" xlink:href="#DejaVuSans-32"/>
      <use transform="translate(156.831055 0.78125)" xlink:href="#DejaVuSans-61"/>
      <use transform="translate(240.620117 0.78125)" xlink:href="#DejaVuSans-32"/>
      <use transform="translate(272.407227 0.78125)" xlink:href="#DejaVuSans-32"/>
      <use transform="translate(304.194336 0.78125)" xlink:href="#DejaVuSans-49"/>
      <use transform="translate(367.817383 0.78125)" xlink:href="#DejaVuSans-46"/>
      <use transform="translate(399.604492 0.78125)" xlink:href="#DejaVuSans-48"/>
      <use transform="translate(463.227539 0.78125)" xlink:href="#DejaVuSans-101"/>
      <use transform="translate(524.750977 0.78125)" xlink:href="#DejaVuSans-43"/>
      <use transform="translate(608.540039 0.78125)" xlink:href="#DejaVuSans-48"/>
      <use transform="translate(672.163086 0.78125)" xlink:href="#DejaVuSans-48"/>
     </g>
    </g>
    <g id="line2d_53">
     <path d="M 385.88 261.263125 
L 395.88 261.263125 
" style="fill:none;stroke:#000000;stroke-linecap:square;stroke-width:2;"/>
    </g>
    <g id="line2d_54"/>
    <g id="text_25">
     <!-- $V_{D}$ =  1.2e+00 -->
     <g transform="translate(397.88 264.763125)scale(0.12 -0.12)">
      <use transform="translate(0 0.78125)" xlink:href="#DejaVuSans-Oblique-86"/>
      <use transform="translate(68.408203 -15.625)scale(0.7)" xlink:href="#DejaVuSans-Oblique-68"/>
      <use transform="translate(125.043945 0.78125)" xlink:href="#DejaVuSans-32"/>
      <use transform="translate(156.831055 0.78125)" xlink:href="#DejaVuSans-61"/>
      <use transform="translate(240.620117 0.78125)" xlink:href="#DejaVuSans-32"/>
      <use transform="translate(272.407227 0.78125)" xlink:href="#DejaVuSans-32"/>
      <use transform="translate(304.194336 0.78125)" xlink:href="#DejaVuSans-49"/>
      <use transform="translate(367.817383 0.78125)" xlink:href="#DejaVuSans-46"/>
      <use transform="translate(394.104492 0.78125)" xlink:href="#DejaVuSans-50"/>
      <use transform="translate(457.727539 0.78125)" xlink:href="#DejaVuSans-101"/>
      <use transform="translate(519.250977 0.78125)" xlink:href="#DejaVuSans-43"/>
      <use transform="translate(603.040039 0.78125)" xlink:href="#DejaVuSans-48"/>
      <use transform="translate(666.663086 0.78125)" xlink:href="#DejaVuSans-48"/>
     </g>
    </g>
    <g id="line2d_55">
     <path d="M 385.88 272.876875 
L 395.88 272.876875 
" style="fill:none;stroke:#ff0000;stroke-linecap:square;stroke-width:2;"/>
    </g>
    <g id="line2d_56"/>
    <g id="text_26">
     <!-- $V_{D}$ =  1.4e+00 -->
     <g transform="translate(397.88 276.376875)scale(0.12 -0.12)">
      <use transform="translate(0 0.78125)" xlink:href="#DejaVuSans-Oblique-86"/>
      <use transform="translate(68.408203 -15.625)scale(0.7)" xlink:href="#DejaVuSans-Oblique-68"/>
      <use transform="translate(125.043945 0.78125)" xlink:href="#DejaVuSans-32"/>
      <use transform="translate(156.831055 0.78125)" xlink:href="#DejaVuSans-61"/>
      <use transform="translate(240.620117 0.78125)" xlink:href="#DejaVuSans-32"/>
      <use transform="translate(272.407227 0.78125)" xlink:href="#DejaVuSans-32"/>
      <use transform="translate(304.194336 0.78125)" xlink:href="#DejaVuSans-49"/>
      <use transform="translate(367.817383 0.78125)" xlink:href="#DejaVuSans-46"/>
      <use transform="translate(399.604492 0.78125)" xlink:href="#DejaVuSans-52"/>
      <use transform="translate(463.227539 0.78125)" xlink:href="#DejaVuSans-101"/>
      <use transform="translate(524.750977 0.78125)" xlink:href="#DejaVuSans-43"/>
      <use transform="translate(608.540039 0.78125)" xlink:href="#DejaVuSans-48"/>
      <use transform="translate(672.163086 0.78125)" xlink:href="#DejaVuSans-48"/>
     </g>
    </g>
    <g id="line2d_57">
     <path d="M 385.88 284.490625 
L 395.88 284.490625 
" style="fill:none;stroke:#0000ff;stroke-linecap:square;stroke-width:2;"/>
    </g>
    <g id="line2d_58"/>
    <g id="text_27">
     <!-- $V_{D}$ =  1.6e+00 -->
     <g transform="translate(397.88 287.990625)scale(0.12 -0.12)">
      <use transform="translate(0 0.78125)" xlink:href="#DejaVuSans-Oblique-86"/>
      <use transform="translate(68.408203 -15.625)scale(0.7)" xlink:href="#DejaVuSans-Oblique-68"/>
      <use transform="translate(125.043945 0.78125)" xlink:href="#DejaVuSans-32"/>
      <use transform="translate(156.831055 0.78125)" xlink:href="#DejaVuSans-61"/>
      <use transform="translate(240.620117 0.78125)" xlink:href="#DejaVuSans-32"/>
      <use transform="translate(272.407227 0.78125)" xlink:href="#DejaVuSans-32"/>
      <use transform="translate(304.194336 0.78125)" xlink:href="#DejaVuSans-49"/>
      <use transform="translate(367.817383 0.78125)" xlink:href="#DejaVuSans-46"/>
      <use transform="translate(399.604492 0.78125)" xlink:href="#DejaVuSans-54"/>
      <use transform="translate(463.227539 0.78125)" xlink:href="#DejaVuSans-101"/>
      <use transform="translate(524.750977 0.78125)" xlink:href="#DejaVuSans-43"/>
      <use transform="translate(608.540039 0.78125)" xlink:href="#DejaVuSans-48"/>
      <use transform="translate(672.163086 0.78125)" xlink:href="#DejaVuSans-48"/>
     </g>
    </g>
    <g id="line2d_59">
     <path d="M 385.88 296.104375 
L 395.88 296.104375 
" style="fill:none;stroke:#008000;stroke-linecap:square;stroke-width:2;"/>
    </g>
    <g id="line2d_60"/>
    <g id="text_28">
     <!-- $V_{D}$ =  1.8e+00 -->
     <g transform="translate(397.88 299.604375)scale(0.12 -0.12)">
      <use transform="translate(0 0.78125)" xlink:href="#DejaVuSans-Oblique-86"/>
      <use transform="translate(68.408203 -15.625)scale(0.7)" xlink:href="#DejaVuSans-Oblique-68"/>
      <use transform="translate(125.043945 0.78125)" xlink:href="#DejaVuSans-32"/>
      <use transform="translate(156.831055 0.78125)" xlink:href="#DejaVuSans-61"/>
      <use transform="translate(240.620117 0.78125)" xlink:href="#DejaVuSans-32"/>
      <use transform="translate(272.407227 0.78125)" xlink:href="#DejaVuSans-32"/>
      <use transform="translate(304.194336 0.78125)" xlink:href="#DejaVuSans-49"/>
      <use transform="translate(367.817383 0.78125)" xlink:href="#DejaVuSans-46"/>
      <use transform="translate(396.979492 0.78125)" xlink:href="#DejaVuSans-56"/>
      <use transform="translate(460.602539 0.78125)" xlink:href="#DejaVuSans-101"/>
      <use transform="translate(522.125977 0.78125)" xlink:href="#DejaVuSans-43"/>
      <use transform="translate(605.915039 0.78125)" xlink:href="#DejaVuSans-48"/>
      <use transform="translate(669.538086 0.78125)" xlink:href="#DejaVuSans-48"/>
     </g>
    </g>
   </g>
  </g>
 </g>
 <defs>
  <clipPath id="p547b1d5da4">
   <rect height="280.3" width="440.05" x="53.15" y="28.8"/>
  </clipPath>
 </defs>
</svg>
