<?xml version="1.0" encoding="utf-8" standalone="no"?>
<!DOCTYPE svg PUBLIC "-//W3C//DTD SVG 1.1//EN"
  "http://www.w3.org/Graphics/SVG/1.1/DTD/svg11.dtd">
<!-- Created with matplotlib (http://matplotlib.org/) -->
<svg height="360pt" version="1.1" viewBox="0 0 504 360" width="504pt" xmlns="http://www.w3.org/2000/svg" xmlns:xlink="http://www.w3.org/1999/xlink">
 <defs>
  <style type="text/css">
*{stroke-linecap:butt;stroke-linejoin:round;}
  </style>
 </defs>
 <g id="figure_1">
  <g id="patch_1">
   <path d="M 0 360 
L 504 360 
L 504 0 
L 0 0 
z
" style="fill:#ffffff;"/>
  </g>
  <g id="axes_1">
   <g id="patch_2">
    <path d="M 53.025 309.1 
L 489.7 309.1 
L 489.7 28.8 
L 53.025 28.8 
z
" style="fill:#ffffff;"/>
   </g>
   <g id="matplotlib.axis_1">
    <g id="xtick_1">
     <g id="line2d_1">
      <path clip-path="url(#pb915255d30)" d="M 72.873861 309.1 
L 72.873861 28.8 
" style="fill:none;stroke:#808080;stroke-linecap:square;stroke-width:0.8;"/>
     </g>
     <g id="line2d_2">
      <defs>
       <path d="M 0 0 
L 0 3.5 
" id="mdbfd032939" style="stroke:#000000;stroke-width:0.8;"/>
      </defs>
      <g>
       <use style="stroke:#000000;stroke-width:0.8;" x="72.873861" xlink:href="#mdbfd032939" y="309.1"/>
      </g>
     </g>
     <g id="text_1">
      <!-- 0 -->
      <defs>
       <path d="M 31.78125 66.40625 
Q 24.171875 66.40625 20.328125 58.90625 
Q 16.5 51.421875 16.5 36.375 
Q 16.5 21.390625 20.328125 13.890625 
Q 24.171875 6.390625 31.78125 6.390625 
Q 39.453125 6.390625 43.28125 13.890625 
Q 47.125 21.390625 47.125 36.375 
Q 47.125 51.421875 43.28125 58.90625 
Q 39.453125 66.40625 31.78125 66.40625 
z
M 31.78125 74.21875 
Q 44.046875 74.21875 50.515625 64.515625 
Q 56.984375 54.828125 56.984375 36.375 
Q 56.984375 17.96875 50.515625 8.265625 
Q 44.046875 -1.421875 31.78125 -1.421875 
Q 19.53125 -1.421875 13.0625 8.265625 
Q 6.59375 17.96875 6.59375 36.375 
Q 6.59375 54.828125 13.0625 64.515625 
Q 19.53125 74.21875 31.78125 74.21875 
z
" id="DejaVuSans-30"/>
      </defs>
      <g transform="translate(69.056361 325.218125)scale(0.12 -0.12)">
       <use xlink:href="#DejaVuSans-30"/>
      </g>
     </g>
    </g>
    <g id="xtick_2">
     <g id="line2d_3">
      <path clip-path="url(#pb915255d30)" d="M 128.962839 309.1 
L 128.962839 28.8 
" style="fill:none;stroke:#808080;stroke-linecap:square;stroke-width:0.8;"/>
     </g>
     <g id="line2d_4">
      <g>
       <use style="stroke:#000000;stroke-width:0.8;" x="128.962839" xlink:href="#mdbfd032939" y="309.1"/>
      </g>
     </g>
     <g id="text_2">
      <!-- 25 -->
      <defs>
       <path d="M 19.1875 8.296875 
L 53.609375 8.296875 
L 53.609375 0 
L 7.328125 0 
L 7.328125 8.296875 
Q 12.9375 14.109375 22.625 23.890625 
Q 32.328125 33.6875 34.8125 36.53125 
Q 39.546875 41.84375 41.421875 45.53125 
Q 43.3125 49.21875 43.3125 52.78125 
Q 43.3125 58.59375 39.234375 62.25 
Q 35.15625 65.921875 28.609375 65.921875 
Q 23.96875 65.921875 18.8125 64.3125 
Q 13.671875 62.703125 7.8125 59.421875 
L 7.8125 69.390625 
Q 13.765625 71.78125 18.9375 73 
Q 24.125 74.21875 28.421875 74.21875 
Q 39.75 74.21875 46.484375 68.546875 
Q 53.21875 62.890625 53.21875 53.421875 
Q 53.21875 48.921875 51.53125 44.890625 
Q 49.859375 40.875 45.40625 35.40625 
Q 44.1875 33.984375 37.640625 27.21875 
Q 31.109375 20.453125 19.1875 8.296875 
z
" id="DejaVuSans-32"/>
       <path d="M 10.796875 72.90625 
L 49.515625 72.90625 
L 49.515625 64.59375 
L 19.828125 64.59375 
L 19.828125 46.734375 
Q 21.96875 47.46875 24.109375 47.828125 
Q 26.265625 48.1875 28.421875 48.1875 
Q 40.625 48.1875 47.75 41.5 
Q 54.890625 34.8125 54.890625 23.390625 
Q 54.890625 11.625 47.5625 5.09375 
Q 40.234375 -1.421875 26.90625 -1.421875 
Q 22.3125 -1.421875 17.546875 -0.640625 
Q 12.796875 0.140625 7.71875 1.703125 
L 7.71875 11.625 
Q 12.109375 9.234375 16.796875 8.0625 
Q 21.484375 6.890625 26.703125 6.890625 
Q 35.15625 6.890625 40.078125 11.328125 
Q 45.015625 15.765625 45.015625 23.390625 
Q 45.015625 31 40.078125 35.4375 
Q 35.15625 39.890625 26.703125 39.890625 
Q 22.75 39.890625 18.8125 39.015625 
Q 14.890625 38.140625 10.796875 36.28125 
z
" id="DejaVuSans-35"/>
      </defs>
      <g transform="translate(121.327839 325.218125)scale(0.12 -0.12)">
       <use xlink:href="#DejaVuSans-32"/>
       <use x="63.623047" xlink:href="#DejaVuSans-35"/>
      </g>
     </g>
    </g>
    <g id="xtick_3">
     <g id="line2d_5">
      <path clip-path="url(#pb915255d30)" d="M 185.051817 309.1 
L 185.051817 28.8 
" style="fill:none;stroke:#808080;stroke-linecap:square;stroke-width:0.8;"/>
     </g>
     <g id="line2d_6">
      <g>
       <use style="stroke:#000000;stroke-width:0.8;" x="185.051817" xlink:href="#mdbfd032939" y="309.1"/>
      </g>
     </g>
     <g id="text_3">
      <!-- 50 -->
      <g transform="translate(177.416817 325.218125)scale(0.12 -0.12)">
       <use xlink:href="#DejaVuSans-35"/>
       <use x="63.623047" xlink:href="#DejaVuSans-30"/>
      </g>
     </g>
    </g>
    <g id="xtick_4">
     <g id="line2d_7">
      <path clip-path="url(#pb915255d30)" d="M 241.140794 309.1 
L 241.140794 28.8 
" style="fill:none;stroke:#808080;stroke-linecap:square;stroke-width:0.8;"/>
     </g>
     <g id="line2d_8">
      <g>
       <use style="stroke:#000000;stroke-width:0.8;" x="241.140794" xlink:href="#mdbfd032939" y="309.1"/>
      </g>
     </g>
     <g id="text_4">
      <!-- 75 -->
      <defs>
       <path d="M 8.203125 72.90625 
L 55.078125 72.90625 
L 55.078125 68.703125 
L 28.609375 0 
L 18.3125 0 
L 43.21875 64.59375 
L 8.203125 64.59375 
z
" id="DejaVuSans-37"/>
      </defs>
      <g transform="translate(233.505794 325.218125)scale(0.12 -0.12)">
       <use xlink:href="#DejaVuSans-37"/>
       <use x="63.623047" xlink:href="#DejaVuSans-35"/>
      </g>
     </g>
    </g>
    <g id="xtick_5">
     <g id="line2d_9">
      <path clip-path="url(#pb915255d30)" d="M 297.229772 309.1 
L 297.229772 28.8 
" style="fill:none;stroke:#808080;stroke-linecap:square;stroke-width:0.8;"/>
     </g>
     <g id="line2d_10">
      <g>
       <use style="stroke:#000000;stroke-width:0.8;" x="297.229772" xlink:href="#mdbfd032939" y="309.1"/>
      </g>
     </g>
     <g id="text_5">
      <!-- 100 -->
      <defs>
       <path d="M 12.40625 8.296875 
L 28.515625 8.296875 
L 28.515625 63.921875 
L 10.984375 60.40625 
L 10.984375 69.390625 
L 28.421875 72.90625 
L 38.28125 72.90625 
L 38.28125 8.296875 
L 54.390625 8.296875 
L 54.390625 0 
L 12.40625 0 
z
" id="DejaVuSans-31"/>
      </defs>
      <g transform="translate(285.777272 325.218125)scale(0.12 -0.12)">
       <use xlink:href="#DejaVuSans-31"/>
       <use x="63.623047" xlink:href="#DejaVuSans-30"/>
       <use x="127.246094" xlink:href="#DejaVuSans-30"/>
      </g>
     </g>
    </g>
    <g id="xtick_6">
     <g id="line2d_11">
      <path clip-path="url(#pb915255d30)" d="M 353.31875 309.1 
L 353.31875 28.8 
" style="fill:none;stroke:#808080;stroke-linecap:square;stroke-width:0.8;"/>
     </g>
     <g id="line2d_12">
      <g>
       <use style="stroke:#000000;stroke-width:0.8;" x="353.31875" xlink:href="#mdbfd032939" y="309.1"/>
      </g>
     </g>
     <g id="text_6">
      <!-- 125 -->
      <g transform="translate(341.86625 325.218125)scale(0.12 -0.12)">
       <use xlink:href="#DejaVuSans-31"/>
       <use x="63.623047" xlink:href="#DejaVuSans-32"/>
       <use x="127.246094" xlink:href="#DejaVuSans-35"/>
      </g>
     </g>
    </g>
    <g id="xtick_7">
     <g id="line2d_13">
      <path clip-path="url(#pb915255d30)" d="M 409.407727 309.1 
L 409.407727 28.8 
" style="fill:none;stroke:#808080;stroke-linecap:square;stroke-width:0.8;"/>
     </g>
     <g id="line2d_14">
      <g>
       <use style="stroke:#000000;stroke-width:0.8;" x="409.407727" xlink:href="#mdbfd032939" y="309.1"/>
      </g>
     </g>
     <g id="text_7">
      <!-- 150 -->
      <g transform="translate(397.955227 325.218125)scale(0.12 -0.12)">
       <use xlink:href="#DejaVuSans-31"/>
       <use x="63.623047" xlink:href="#DejaVuSans-35"/>
       <use x="127.246094" xlink:href="#DejaVuSans-30"/>
      </g>
     </g>
    </g>
    <g id="xtick_8">
     <g id="line2d_15">
      <path clip-path="url(#pb915255d30)" d="M 465.496705 309.1 
L 465.496705 28.8 
" style="fill:none;stroke:#808080;stroke-linecap:square;stroke-width:0.8;"/>
     </g>
     <g id="line2d_16">
      <g>
       <use style="stroke:#000000;stroke-width:0.8;" x="465.496705" xlink:href="#mdbfd032939" y="309.1"/>
      </g>
     </g>
     <g id="text_8">
      <!-- 175 -->
      <g transform="translate(454.044205 325.218125)scale(0.12 -0.12)">
       <use xlink:href="#DejaVuSans-31"/>
       <use x="63.623047" xlink:href="#DejaVuSans-37"/>
       <use x="127.246094" xlink:href="#DejaVuSans-35"/>
      </g>
     </g>
    </g>
    <g id="text_9">
     <!-- $I_{DS X1}$ [uA] -->
     <defs>
      <path d="M 16.890625 72.90625 
L 26.8125 72.90625 
L 12.59375 0 
L 2.6875 0 
z
" id="DejaVuSans-Oblique-49"/>
      <path d="M 16.890625 72.90625 
L 38.09375 72.90625 
Q 54.984375 72.90625 63.59375 65.75 
Q 72.21875 58.59375 72.21875 44.484375 
Q 72.21875 35.15625 68.9375 26.53125 
Q 65.671875 17.921875 59.90625 12.015625 
Q 54.109375 5.953125 45.171875 2.96875 
Q 36.234375 0 24.03125 0 
L 2.6875 0 
z
M 25.203125 64.796875 
L 14.203125 8.109375 
L 27.09375 8.109375 
Q 43.65625 8.109375 52.734375 17.625 
Q 61.8125 27.15625 61.8125 44.484375 
Q 61.8125 54.984375 55.953125 59.890625 
Q 50.09375 64.796875 37.59375 64.796875 
z
" id="DejaVuSans-Oblique-44"/>
      <path d="M 60.296875 70.515625 
L 58.40625 60.890625 
Q 53.46875 63.53125 48.609375 64.875 
Q 43.75 66.21875 39.203125 66.21875 
Q 30.375 66.21875 25.140625 62.359375 
Q 19.921875 58.5 19.921875 52.09375 
Q 19.921875 48.578125 21.84375 46.703125 
Q 23.78125 44.828125 31.78125 42.671875 
L 37.703125 41.21875 
Q 47.703125 38.625 51.609375 34.640625 
Q 55.515625 30.671875 55.515625 23.484375 
Q 55.515625 12.453125 46.84375 5.515625 
Q 38.1875 -1.421875 24.03125 -1.421875 
Q 18.21875 -1.421875 12.359375 -0.265625 
Q 6.5 0.875 0.59375 3.21875 
L 2.59375 13.375 
Q 8.015625 10.015625 13.453125 8.296875 
Q 18.890625 6.59375 24.3125 6.59375 
Q 33.546875 6.59375 39.109375 10.6875 
Q 44.671875 14.796875 44.671875 21.390625 
Q 44.671875 25.78125 42.453125 28.046875 
Q 40.234375 30.328125 32.90625 32.171875 
L 27 33.6875 
Q 16.890625 36.328125 13.203125 39.765625 
Q 9.515625 43.21875 9.515625 49.421875 
Q 9.515625 60.296875 17.890625 67.25 
Q 26.265625 74.21875 39.703125 74.21875 
Q 44.921875 74.21875 50.046875 73.28125 
Q 55.171875 72.359375 60.296875 70.515625 
z
" id="DejaVuSans-Oblique-53"/>
      <path d="M 13.71875 72.90625 
L 23.6875 72.90625 
L 36.1875 46.578125 
L 58.796875 72.90625 
L 70.3125 72.90625 
L 40.28125 38.09375 
L 58.40625 0 
L 48.484375 0 
L 33.796875 30.71875 
L 7.171875 0 
L -4.296875 0 
L 29.78125 39.203125 
z
" id="DejaVuSans-Oblique-58"/>
      <path id="DejaVuSans-20"/>
      <path d="M 8.59375 75.984375 
L 29.296875 75.984375 
L 29.296875 69 
L 17.578125 69 
L 17.578125 -6.203125 
L 29.296875 -6.203125 
L 29.296875 -13.1875 
L 8.59375 -13.1875 
z
" id="DejaVuSans-5b"/>
      <path d="M 8.5 21.578125 
L 8.5 54.6875 
L 17.484375 54.6875 
L 17.484375 21.921875 
Q 17.484375 14.15625 20.5 10.265625 
Q 23.53125 6.390625 29.59375 6.390625 
Q 36.859375 6.390625 41.078125 11.03125 
Q 45.3125 15.671875 45.3125 23.6875 
L 45.3125 54.6875 
L 54.296875 54.6875 
L 54.296875 0 
L 45.3125 0 
L 45.3125 8.40625 
Q 42.046875 3.421875 37.71875 1 
Q 33.40625 -1.421875 27.6875 -1.421875 
Q 18.265625 -1.421875 13.375 4.4375 
Q 8.5 10.296875 8.5 21.578125 
z
M 31.109375 56 
z
" id="DejaVuSans-75"/>
      <path d="M 34.1875 63.1875 
L 20.796875 26.90625 
L 47.609375 26.90625 
z
M 28.609375 72.90625 
L 39.796875 72.90625 
L 67.578125 0 
L 57.328125 0 
L 50.6875 18.703125 
L 17.828125 18.703125 
L 11.1875 0 
L 0.78125 0 
z
" id="DejaVuSans-41"/>
      <path d="M 30.421875 75.984375 
L 30.421875 -13.1875 
L 9.71875 -13.1875 
L 9.71875 -6.203125 
L 21.390625 -6.203125 
L 21.390625 69 
L 9.71875 69 
L 9.71875 75.984375 
z
" id="DejaVuSans-5d"/>
     </defs>
     <g transform="translate(243.4625 340.831875)scale(0.12 -0.12)">
      <use transform="translate(0 0.015625)" xlink:href="#DejaVuSans-Oblique-49"/>
      <use transform="translate(29.492188 -16.390625)scale(0.7)" xlink:href="#DejaVuSans-Oblique-44"/>
      <use transform="translate(83.393555 -16.390625)scale(0.7)" xlink:href="#DejaVuSans-Oblique-53"/>
      <use transform="translate(127.827148 -16.390625)scale(0.7)" xlink:href="#DejaVuSans-Oblique-58"/>
      <use transform="translate(175.78125 -16.390625)scale(0.7)" xlink:href="#DejaVuSans-31"/>
      <use transform="translate(223.051758 0.015625)" xlink:href="#DejaVuSans-20"/>
      <use transform="translate(254.838867 0.015625)" xlink:href="#DejaVuSans-5b"/>
      <use transform="translate(293.852539 0.015625)" xlink:href="#DejaVuSans-75"/>
      <use transform="translate(357.231445 0.015625)" xlink:href="#DejaVuSans-41"/>
      <use transform="translate(425.639648 0.015625)" xlink:href="#DejaVuSans-5d"/>
     </g>
    </g>
   </g>
   <g id="matplotlib.axis_2">
    <g id="ytick_1">
     <g id="line2d_17">
      <path clip-path="url(#pb915255d30)" d="M 53.025 296.359172 
L 489.7 296.359172 
" style="fill:none;stroke:#808080;stroke-linecap:square;stroke-width:0.8;"/>
     </g>
     <g id="line2d_18">
      <defs>
       <path d="M 0 0 
L -3.5 0 
" id="m6f777ec562" style="stroke:#000000;stroke-width:0.8;"/>
      </defs>
      <g>
       <use style="stroke:#000000;stroke-width:0.8;" x="53.025" xlink:href="#m6f777ec562" y="296.359172"/>
      </g>
     </g>
     <g id="text_10">
      <!-- 0 -->
      <g transform="translate(38.39 300.918235)scale(0.12 -0.12)">
       <use xlink:href="#DejaVuSans-30"/>
      </g>
     </g>
    </g>
    <g id="ytick_2">
     <g id="line2d_19">
      <path clip-path="url(#pb915255d30)" d="M 53.025 256.396257 
L 489.7 256.396257 
" style="fill:none;stroke:#808080;stroke-linecap:square;stroke-width:0.8;"/>
     </g>
     <g id="line2d_20">
      <g>
       <use style="stroke:#000000;stroke-width:0.8;" x="53.025" xlink:href="#m6f777ec562" y="256.396257"/>
      </g>
     </g>
     <g id="text_11">
      <!-- 10 -->
      <g transform="translate(30.755 260.955319)scale(0.12 -0.12)">
       <use xlink:href="#DejaVuSans-31"/>
       <use x="63.623047" xlink:href="#DejaVuSans-30"/>
      </g>
     </g>
    </g>
    <g id="ytick_3">
     <g id="line2d_21">
      <path clip-path="url(#pb915255d30)" d="M 53.025 216.433341 
L 489.7 216.433341 
" style="fill:none;stroke:#808080;stroke-linecap:square;stroke-width:0.8;"/>
     </g>
     <g id="line2d_22">
      <g>
       <use style="stroke:#000000;stroke-width:0.8;" x="53.025" xlink:href="#m6f777ec562" y="216.433341"/>
      </g>
     </g>
     <g id="text_12">
      <!-- 20 -->
      <g transform="translate(30.755 220.992403)scale(0.12 -0.12)">
       <use xlink:href="#DejaVuSans-32"/>
       <use x="63.623047" xlink:href="#DejaVuSans-30"/>
      </g>
     </g>
    </g>
    <g id="ytick_4">
     <g id="line2d_23">
      <path clip-path="url(#pb915255d30)" d="M 53.025 176.470425 
L 489.7 176.470425 
" style="fill:none;stroke:#808080;stroke-linecap:square;stroke-width:0.8;"/>
     </g>
     <g id="line2d_24">
      <g>
       <use style="stroke:#000000;stroke-width:0.8;" x="53.025" xlink:href="#m6f777ec562" y="176.470425"/>
      </g>
     </g>
     <g id="text_13">
      <!-- 30 -->
      <defs>
       <path d="M 40.578125 39.3125 
Q 47.65625 37.796875 51.625 33 
Q 55.609375 28.21875 55.609375 21.1875 
Q 55.609375 10.40625 48.1875 4.484375 
Q 40.765625 -1.421875 27.09375 -1.421875 
Q 22.515625 -1.421875 17.65625 -0.515625 
Q 12.796875 0.390625 7.625 2.203125 
L 7.625 11.71875 
Q 11.71875 9.328125 16.59375 8.109375 
Q 21.484375 6.890625 26.8125 6.890625 
Q 36.078125 6.890625 40.9375 10.546875 
Q 45.796875 14.203125 45.796875 21.1875 
Q 45.796875 27.640625 41.28125 31.265625 
Q 36.765625 34.90625 28.71875 34.90625 
L 20.21875 34.90625 
L 20.21875 43.015625 
L 29.109375 43.015625 
Q 36.375 43.015625 40.234375 45.921875 
Q 44.09375 48.828125 44.09375 54.296875 
Q 44.09375 59.90625 40.109375 62.90625 
Q 36.140625 65.921875 28.71875 65.921875 
Q 24.65625 65.921875 20.015625 65.03125 
Q 15.375 64.15625 9.8125 62.3125 
L 9.8125 71.09375 
Q 15.4375 72.65625 20.34375 73.4375 
Q 25.25 74.21875 29.59375 74.21875 
Q 40.828125 74.21875 47.359375 69.109375 
Q 53.90625 64.015625 53.90625 55.328125 
Q 53.90625 49.265625 50.4375 45.09375 
Q 46.96875 40.921875 40.578125 39.3125 
z
" id="DejaVuSans-33"/>
      </defs>
      <g transform="translate(30.755 181.029487)scale(0.12 -0.12)">
       <use xlink:href="#DejaVuSans-33"/>
       <use x="63.623047" xlink:href="#DejaVuSans-30"/>
      </g>
     </g>
    </g>
    <g id="ytick_5">
     <g id="line2d_25">
      <path clip-path="url(#pb915255d30)" d="M 53.025 136.507509 
L 489.7 136.507509 
" style="fill:none;stroke:#808080;stroke-linecap:square;stroke-width:0.8;"/>
     </g>
     <g id="line2d_26">
      <g>
       <use style="stroke:#000000;stroke-width:0.8;" x="53.025" xlink:href="#m6f777ec562" y="136.507509"/>
      </g>
     </g>
     <g id="text_14">
      <!-- 40 -->
      <defs>
       <path d="M 37.796875 64.3125 
L 12.890625 25.390625 
L 37.796875 25.390625 
z
M 35.203125 72.90625 
L 47.609375 72.90625 
L 47.609375 25.390625 
L 58.015625 25.390625 
L 58.015625 17.1875 
L 47.609375 17.1875 
L 47.609375 0 
L 37.796875 0 
L 37.796875 17.1875 
L 4.890625 17.1875 
L 4.890625 26.703125 
z
" id="DejaVuSans-34"/>
      </defs>
      <g transform="translate(30.755 141.066571)scale(0.12 -0.12)">
       <use xlink:href="#DejaVuSans-34"/>
       <use x="63.623047" xlink:href="#DejaVuSans-30"/>
      </g>
     </g>
    </g>
    <g id="ytick_6">
     <g id="line2d_27">
      <path clip-path="url(#pb915255d30)" d="M 53.025 96.544593 
L 489.7 96.544593 
" style="fill:none;stroke:#808080;stroke-linecap:square;stroke-width:0.8;"/>
     </g>
     <g id="line2d_28">
      <g>
       <use style="stroke:#000000;stroke-width:0.8;" x="53.025" xlink:href="#m6f777ec562" y="96.544593"/>
      </g>
     </g>
     <g id="text_15">
      <!-- 50 -->
      <g transform="translate(30.755 101.103656)scale(0.12 -0.12)">
       <use xlink:href="#DejaVuSans-35"/>
       <use x="63.623047" xlink:href="#DejaVuSans-30"/>
      </g>
     </g>
    </g>
    <g id="ytick_7">
     <g id="line2d_29">
      <path clip-path="url(#pb915255d30)" d="M 53.025 56.581677 
L 489.7 56.581677 
" style="fill:none;stroke:#808080;stroke-linecap:square;stroke-width:0.8;"/>
     </g>
     <g id="line2d_30">
      <g>
       <use style="stroke:#000000;stroke-width:0.8;" x="53.025" xlink:href="#m6f777ec562" y="56.581677"/>
      </g>
     </g>
     <g id="text_16">
      <!-- 60 -->
      <defs>
       <path d="M 33.015625 40.375 
Q 26.375 40.375 22.484375 35.828125 
Q 18.609375 31.296875 18.609375 23.390625 
Q 18.609375 15.53125 22.484375 10.953125 
Q 26.375 6.390625 33.015625 6.390625 
Q 39.65625 6.390625 43.53125 10.953125 
Q 47.40625 15.53125 47.40625 23.390625 
Q 47.40625 31.296875 43.53125 35.828125 
Q 39.65625 40.375 33.015625 40.375 
z
M 52.59375 71.296875 
L 52.59375 62.3125 
Q 48.875 64.0625 45.09375 64.984375 
Q 41.3125 65.921875 37.59375 65.921875 
Q 27.828125 65.921875 22.671875 59.328125 
Q 17.53125 52.734375 16.796875 39.40625 
Q 19.671875 43.65625 24.015625 45.921875 
Q 28.375 48.1875 33.59375 48.1875 
Q 44.578125 48.1875 50.953125 41.515625 
Q 57.328125 34.859375 57.328125 23.390625 
Q 57.328125 12.15625 50.6875 5.359375 
Q 44.046875 -1.421875 33.015625 -1.421875 
Q 20.359375 -1.421875 13.671875 8.265625 
Q 6.984375 17.96875 6.984375 36.375 
Q 6.984375 53.65625 15.1875 63.9375 
Q 23.390625 74.21875 37.203125 74.21875 
Q 40.921875 74.21875 44.703125 73.484375 
Q 48.484375 72.75 52.59375 71.296875 
z
" id="DejaVuSans-36"/>
      </defs>
      <g transform="translate(30.755 61.14074)scale(0.12 -0.12)">
       <use xlink:href="#DejaVuSans-36"/>
       <use x="63.623047" xlink:href="#DejaVuSans-30"/>
      </g>
     </g>
    </g>
    <g id="text_17">
     <!-- $f_{T X1}$ [GHz] -->
     <defs>
      <path d="M 47.796875 75.984375 
L 46.390625 68.5 
L 37.796875 68.5 
Q 32.90625 68.5 30.6875 66.578125 
Q 28.46875 64.65625 27.390625 59.515625 
L 26.421875 54.6875 
L 41.21875 54.6875 
L 39.890625 47.703125 
L 25.09375 47.703125 
L 15.828125 0 
L 6.78125 0 
L 16.109375 47.703125 
L 7.515625 47.703125 
L 8.796875 54.6875 
L 17.390625 54.6875 
L 18.109375 58.5 
Q 19.96875 68.171875 24.625 72.078125 
Q 29.296875 75.984375 39.3125 75.984375 
z
" id="DejaVuSans-Oblique-66"/>
      <path d="M 5.90625 72.90625 
L 67.578125 72.90625 
L 66.015625 64.59375 
L 39.984375 64.59375 
L 27.484375 0 
L 17.578125 0 
L 30.078125 64.59375 
L 4.296875 64.59375 
z
" id="DejaVuSans-Oblique-54"/>
      <path d="M 59.515625 10.40625 
L 59.515625 29.984375 
L 43.40625 29.984375 
L 43.40625 38.09375 
L 69.28125 38.09375 
L 69.28125 6.78125 
Q 63.578125 2.734375 56.6875 0.65625 
Q 49.8125 -1.421875 42 -1.421875 
Q 24.90625 -1.421875 15.25 8.5625 
Q 5.609375 18.5625 5.609375 36.375 
Q 5.609375 54.25 15.25 64.234375 
Q 24.90625 74.21875 42 74.21875 
Q 49.125 74.21875 55.546875 72.453125 
Q 61.96875 70.703125 67.390625 67.28125 
L 67.390625 56.78125 
Q 61.921875 61.421875 55.765625 63.765625 
Q 49.609375 66.109375 42.828125 66.109375 
Q 29.4375 66.109375 22.71875 58.640625 
Q 16.015625 51.171875 16.015625 36.375 
Q 16.015625 21.625 22.71875 14.15625 
Q 29.4375 6.6875 42.828125 6.6875 
Q 48.046875 6.6875 52.140625 7.59375 
Q 56.25 8.5 59.515625 10.40625 
z
" id="DejaVuSans-47"/>
      <path d="M 9.8125 72.90625 
L 19.671875 72.90625 
L 19.671875 43.015625 
L 55.515625 43.015625 
L 55.515625 72.90625 
L 65.375 72.90625 
L 65.375 0 
L 55.515625 0 
L 55.515625 34.71875 
L 19.671875 34.71875 
L 19.671875 0 
L 9.8125 0 
z
" id="DejaVuSans-48"/>
      <path d="M 5.515625 54.6875 
L 48.1875 54.6875 
L 48.1875 46.484375 
L 14.40625 7.171875 
L 48.1875 7.171875 
L 48.1875 0 
L 4.296875 0 
L 4.296875 8.203125 
L 38.09375 47.515625 
L 5.515625 47.515625 
z
" id="DejaVuSans-7a"/>
     </defs>
     <g transform="translate(24.259375 198.29)rotate(-90)scale(0.12 -0.12)">
      <use transform="translate(0 0.015625)" xlink:href="#DejaVuSans-Oblique-66"/>
      <use transform="translate(35.205078 -16.390625)scale(0.7)" xlink:href="#DejaVuSans-Oblique-54"/>
      <use transform="translate(77.963867 -16.390625)scale(0.7)" xlink:href="#DejaVuSans-Oblique-58"/>
      <use transform="translate(125.917969 -16.390625)scale(0.7)" xlink:href="#DejaVuSans-31"/>
      <use transform="translate(173.188477 0.015625)" xlink:href="#DejaVuSans-20"/>
      <use transform="translate(204.975586 0.015625)" xlink:href="#DejaVuSans-5b"/>
      <use transform="translate(243.989258 0.015625)" xlink:href="#DejaVuSans-47"/>
      <use transform="translate(321.479492 0.015625)" xlink:href="#DejaVuSans-48"/>
      <use transform="translate(396.674805 0.015625)" xlink:href="#DejaVuSans-7a"/>
      <use transform="translate(449.165039 0.015625)" xlink:href="#DejaVuSans-5d"/>
     </g>
    </g>
   </g>
   <g id="line2d_31">
    <path clip-path="url(#pb915255d30)" d="M 72.873864 296.359091 
L 72.873868 296.358941 
L 72.873879 296.358517 
L 72.873911 296.357336 
L 72.874 296.354112 
L 72.87424 296.345635 
L 72.874865 296.324842 
L 72.8764 296.279831 
L 72.879868 296.200098 
L 72.886854 296.091221 
L 72.899073 295.977796 
L 72.917388 295.887212 
L 72.941072 295.834198 
L 72.968148 295.818562 
L 72.99644 295.832047 
L 73.024346 295.86454 
L 73.051001 295.907157 
L 73.07608 295.95333 
L 73.099562 295.998805 
L 73.121557 296.041181 
L 73.142215 296.07934 
L 73.161684 296.112966 
L 73.180092 296.142196 
L 73.197548 296.167394 
L 73.214142 296.189015 
L 73.229949 296.207525 
L 73.245034 296.223366 
L 73.25945 296.236932 
L 73.273245 296.24857 
L 73.28646 296.258574 
L 73.299134 296.267198 
L 73.3113 296.274652 
L 73.322988 296.281116 
L 73.334226 296.286738 
L 73.34504 296.291643 
L 73.355455 296.295936 
L 73.365491 296.299706 
L 73.375169 296.303026 
L 73.384508 296.30596 
L 73.393525 296.308558 
L 73.402237 296.310867 
L 73.41066 296.312925 
L 73.418806 296.314763 
L 73.42669 296.316409 
L 73.434324 296.317887 
L 73.44172 296.319218 
L 73.448888 296.320419 
L 73.45584 296.321504 
L 73.462585 296.322488 
L 73.469131 296.323381 
" style="fill:none;stroke:#ff0000;stroke-linecap:square;stroke-width:2;"/>
   </g>
   <g id="line2d_32">
    <path clip-path="url(#pb915255d30)" d="M 72.873921 296.356966 
L 72.874031 296.352884 
L 72.874344 296.34131 
L 72.875228 296.308749 
L 72.8777 296.218351 
L 72.884501 295.973299 
L 72.902737 295.336911 
L 72.949716 293.804908 
L 73.06379 290.541656 
L 73.319101 284.634468 
L 73.834875 275.591355 
L 74.763169 263.603004 
L 76.25071 249.488051 
L 78.396536 234.456819 
L 81.231639 219.897899 
L 84.722156 207.332098 
L 88.779678 198.335817 
L 93.269097 194.066406 
L 98.020769 194.623042 
L 102.857263 199.050009 
L 107.62839 205.968076 
L 112.234146 214.126033 
L 116.625183 222.602552 
L 120.788663 230.802327 
L 124.732036 238.387768 
L 128.471298 245.203221 
L 132.024404 251.210223 
L 135.408285 256.438868 
L 138.63784 260.95454 
L 141.725851 264.836899 
L 144.683236 268.167583 
L 147.519387 271.023639 
L 150.242478 273.474488 
L 152.859714 275.580937 
L 155.377531 277.395314 
L 157.801732 278.962146 
L 160.1376 280.319059 
L 162.389977 281.497719 
L 164.563322 282.524724 
L 166.661764 283.422402 
L 168.689133 284.209503 
L 170.648995 284.901796 
L 172.544676 285.512563 
L 174.379284 286.053017 
L 176.155727 286.532648 
L 177.87673 286.959504 
L 179.544849 287.340437 
L 181.162488 287.681289 
L 182.731902 287.987061 
L 184.255218 288.262042 
" style="fill:none;stroke:#0000ff;stroke-linecap:square;stroke-width:2;"/>
   </g>
   <g id="line2d_33">
    <path clip-path="url(#pb915255d30)" d="M 72.873923 296.356906 
L 72.874036 296.352711 
L 72.874358 296.34082 
L 72.875266 296.307365 
L 72.877806 296.214485 
L 72.884793 295.962697 
L 72.903531 295.308785 
L 72.951805 293.734448 
L 73.069034 290.380353 
L 73.331448 284.306055 
L 73.861731 274.997679 
L 74.816689 262.627116 
L 76.348718 247.970045 
L 78.563916 232.102487 
L 81.504845 216.061546 
L 85.161005 200.644806 
L 89.490612 186.359436 
L 94.439343 173.462 
L 99.951542 162.035213 
L 105.975055 152.073351 
L 112.461885 143.575743 
L 119.365815 136.668312 
L 126.636863 131.76169 
L 134.212038 129.644345 
L 142.004382 131.232554 
L 149.898075 136.923353 
L 157.759768 146.18231 
L 165.465277 157.823933 
L 172.924694 170.567218 
L 180.090448 183.383211 
L 186.949349 195.584418 
L 193.509098 206.782737 
L 199.78703 216.80967 
L 205.803238 225.640092 
L 211.57721 233.332841 
L 217.126562 239.989412 
L 222.466793 245.727581 
L 227.611472 250.665887 
L 232.57254 254.915337 
L 237.360607 258.575628 
L 241.985205 261.734013 
L 246.454985 264.465605 
L 250.777865 266.834397 
L 254.961144 268.894558 
L 259.011588 270.691771 
L 262.935496 272.264499 
L 266.738751 273.64511 
L 270.426859 274.860865 
L 274.00499 275.93475 
L 277.478002 276.886188 
" style="fill:none;stroke:#008000;stroke-linecap:square;stroke-width:2;"/>
   </g>
   <g id="line2d_34">
    <path clip-path="url(#pb915255d30)" d="M 72.873924 296.356846 
L 72.87404 296.352541 
L 72.874371 296.340338 
L 72.875303 296.306002 
L 72.877909 296.21068 
L 72.885081 295.95227 
L 72.904312 295.281161 
L 72.953855 293.665421 
L 73.074167 290.223117 
L 73.343482 283.989071 
L 73.887711 274.435889 
L 74.867784 261.739972 
L 76.440104 246.697364 
L 78.713565 230.412289 
L 81.731852 213.948854 
L 85.484209 198.124853 
L 89.927803 183.458648 
L 95.007023 170.207588 
L 100.665132 158.440214 
L 106.849632 148.106861 
L 113.513945 139.094205 
L 120.617367 131.261968 
L 128.124372 124.465292 
L 136.003785 118.567399 
L 144.228007 113.446848 
L 152.772301 109.003647 
L 161.614063 105.17007 
L 170.731807 101.936676 
L 180.103329 99.41151 
L 189.702077 97.92822 
L 199.490584 98.160145 
L 209.411214 101.046615 
L 219.379033 107.337751 
L 229.28611 117.056853 
L 239.021542 129.443411 
L 248.496537 143.353894 
L 257.658067 157.688553 
L 266.486477 171.612919 
L 274.984616 184.597979 
L 283.166947 196.370785 
L 291.052176 206.840831 
L 298.659327 216.032949 
L 306.00607 224.03647 
L 313.108247 230.970717 
L 319.979915 236.963496 
L 326.633584 242.138797 
L 333.080483 246.610517 
L 339.330787 250.479887 
L 345.393805 253.835017 
L 351.278127 256.751583 
" style="fill:none;stroke:#00bfbf;stroke-linecap:square;stroke-width:2;"/>
   </g>
   <g id="line2d_35">
    <path clip-path="url(#pb915255d30)" d="M 72.873926 296.356787 
L 72.874045 296.352372 
L 72.874384 296.339855 
L 72.87534 296.30464 
L 72.878013 296.206875 
L 72.885368 295.941843 
L 72.905092 295.253537 
L 72.955905 293.596395 
L 73.0793 290.065883 
L 73.355516 283.672092 
L 73.91369 273.874114 
L 74.918877 260.85287 
L 76.531488 245.4248 
L 78.863205 228.722427 
L 81.958834 211.837123 
L 85.807344 195.607638 
L 90.364803 180.565615 
L 95.574177 166.974996 
L 101.377273 154.906069 
L 107.720249 144.307875 
L 114.555336 135.064125 
L 121.840789 127.030772 
L 129.540185 120.058757 
L 137.62158 114.006427 
L 146.056752 108.745414 
L 154.820563 104.162663 
L 163.890464 100.160349 
L 173.246096 96.654765 
L 182.868978 93.574801 
L 192.742261 90.860417 
L 202.850517 88.461417 
L 213.179554 86.337024 
L 223.716221 84.457362 
L 234.448136 82.809654 
L 245.363173 81.415747 
L 256.448366 80.374141 
L 267.687481 79.943376 
L 279.056225 80.655877 
L 290.51457 83.345604 
L 301.998766 88.882806 
L 313.420512 97.671919 
L 324.680245 109.373034 
L 335.689979 123.082321 
L 346.390675 137.724428 
L 356.755083 152.35971 
L 366.779877 166.315258 
L 376.475412 179.187733 
L 385.857921 190.788641 
L 394.945001 201.078088 
L 403.753494 210.1077 
" style="fill:none;stroke:#bf00bf;stroke-linecap:square;stroke-width:2;"/>
   </g>
   <g id="line2d_36">
    <path clip-path="url(#pb915255d30)" d="M 72.873927 296.356727 
L 72.87405 296.352202 
L 72.874397 296.339372 
L 72.875377 296.303277 
L 72.878117 296.203069 
L 72.885656 295.931416 
L 72.905872 295.225913 
L 72.957955 293.527369 
L 73.084433 289.90865 
L 73.36755 283.355113 
L 73.93967 273.312339 
L 74.969971 259.965767 
L 76.622871 244.152237 
L 79.012845 227.032565 
L 82.185817 209.725392 
L 86.130479 193.090424 
L 90.801804 177.672585 
L 96.14133 163.742413 
L 102.089413 151.371951 
L 108.590864 140.508969 
L 115.596721 131.034269 
L 123.064198 122.800207 
L 130.955958 115.654 
L 139.239262 109.450455 
L 147.885181 104.057995 
L 156.867951 99.360735 
L 166.164459 95.258392 
L 175.753837 91.665128 
L 185.617146 88.507946 
L 195.737124 85.72499 
L 206.097974 83.263923 
L 216.685203 81.08047 
L 227.485478 79.137144 
L 238.486502 77.402156 
L 249.676916 75.848506 
L 261.046204 74.453239 
L 272.584616 73.196889 
L 284.28309 72.063172 
L 296.133181 71.039214 
L 308.126965 70.116997 
L 320.25689 69.297967 
L 332.515472 68.605409 
L 344.894568 68.114436 
L 357.383732 68.014739 
L 369.966725 68.710343 
L 382.615364 70.893986 
L 395.281712 75.426438 
L 407.89396 82.94037 
L 420.363686 93.458466 
L 432.604941 106.368398 
" style="fill:none;stroke:#bfbf00;stroke-linecap:square;stroke-width:2;"/>
   </g>
   <g id="line2d_37">
    <path clip-path="url(#pb915255d30)" d="M 72.873929 296.356667 
L 72.874054 296.352032 
L 72.87441 296.33889 
L 72.875414 296.301915 
L 72.87822 296.199264 
L 72.885943 295.92099 
L 72.906652 295.19829 
L 72.960005 293.458342 
L 73.089565 289.751416 
L 73.379584 283.038135 
L 73.965649 272.750564 
L 75.021064 259.078664 
L 76.714255 242.879673 
L 79.162485 225.342703 
L 82.412799 207.613661 
L 86.453614 190.573209 
L 91.238804 174.779555 
L 96.708483 160.50983 
L 102.801553 147.837834 
L 109.46148 136.710062 
L 116.638107 127.004413 
L 124.287606 118.569643 
L 132.371731 111.249244 
L 140.856943 104.894485 
L 149.71361 99.370582 
L 158.915338 94.558825 
L 168.438452 90.356486 
L 178.261574 86.675635 
L 188.365306 83.441495 
L 198.731961 80.590702 
L 209.345361 78.069645 
L 220.190659 75.832968 
L 231.254194 73.842265 
L 242.523372 72.064964 
L 253.986558 70.473381 
L 265.63298 69.04393 
L 277.452656 67.75646 
L 289.436314 66.593709 
L 301.575335 65.540844 
L 313.861695 64.585084 
L 326.287912 63.715386 
L 338.847004 62.922185 
L 351.532443 62.197202 
L 364.338122 61.533307 
L 377.258316 60.924532 
L 390.287643 60.366384 
L 403.421015 59.856975 
L 416.653545 59.400279 
L 429.980352 59.014788 
L 443.39609 58.754795 
" style="fill:none;stroke:#000000;stroke-linecap:square;stroke-width:2;"/>
   </g>
   <g id="line2d_38">
    <path clip-path="url(#pb915255d30)" d="M 72.873931 296.356608 
L 72.874059 296.351862 
L 72.874423 296.338407 
L 72.875451 296.300552 
L 72.878324 296.195459 
L 72.886231 295.910563 
L 72.907433 295.170666 
L 72.962055 293.389316 
L 73.094698 289.594182 
L 73.391618 282.721156 
L 73.991629 272.188789 
L 75.072158 258.191561 
L 76.805638 241.60711 
L 79.312125 223.652841 
L 82.639781 205.501931 
L 86.776749 188.055995 
L 91.675804 171.886525 
L 97.275636 157.277247 
L 103.513693 144.303716 
L 110.332095 132.911155 
L 117.679493 122.974557 
L 125.511014 114.339078 
L 133.787503 106.844488 
L 142.474625 100.338516 
L 151.542039 94.683169 
L 160.962725 89.756914 
L 170.712445 85.454579 
L 180.769312 81.686141 
L 191.113466 78.375044 
L 201.726799 75.456416 
L 212.592749 72.875369 
L 223.696114 70.585469 
L 235.02291 68.547396 
L 246.560242 66.727804 
L 258.296198 65.098349 
L 270.219752 63.634883 
L 282.32068 62.316778 
L 294.589493 61.126358 
L 307.017367 60.048438 
L 319.596086 59.069931 
L 332.317989 58.179523 
L 345.17593 57.367407 
L 358.163225 56.625056 
L 371.273627 55.945034 
L 384.501279 55.320839 
L 397.840695 54.746767 
L 411.286723 54.217808 
L 424.834522 53.729545 
L 438.479543 53.278082 
L 452.217502 52.859991 
" style="fill:none;stroke:#ff0000;stroke-linecap:square;stroke-width:2;"/>
   </g>
   <g id="line2d_39">
    <path clip-path="url(#pb915255d30)" d="M 72.873932 296.356548 
L 72.874063 296.351692 
L 72.874436 296.337924 
L 72.875487 296.29919 
L 72.878428 296.191654 
L 72.886518 295.900136 
L 72.908213 295.143043 
L 72.964104 293.32029 
L 73.099831 289.436948 
L 73.403651 282.404177 
L 74.017608 271.627014 
L 75.123251 257.304458 
L 76.897022 240.334546 
L 79.461765 221.962979 
L 82.866764 203.3902 
L 87.099884 185.538781 
L 92.112805 168.993496 
L 97.842789 154.044664 
L 104.225833 140.769598 
L 111.20271 129.112248 
L 118.720878 118.944701 
L 126.734422 110.108514 
L 135.203276 102.439732 
L 144.092306 95.782546 
L 153.370467 89.995757 
L 163.010113 84.955004 
L 172.986438 80.552673 
L 183.27705 76.696647 
L 193.861625 73.308593 
L 204.721637 70.322129 
L 215.840136 67.681093 
L 227.201569 65.33797 
L 238.791625 63.252528 
L 250.597112 61.390644 
L 262.605839 59.723317 
L 274.806523 58.225837 
L 287.188705 56.877096 
L 299.742673 55.659008 
L 312.459399 54.556035 
L 325.330476 53.554784 
L 338.348066 52.643681 
L 351.504854 51.81269 
L 364.794004 51.053086 
L 378.209121 50.357258 
L 391.744215 49.718554 
L 405.39367 49.131139 
L 419.152214 48.589882 
L 433.014896 48.090261 
L 446.977059 47.628278 
L 461.03432 47.200391 
" style="fill:none;stroke:#0000ff;stroke-linecap:square;stroke-width:2;"/>
   </g>
   <g id="line2d_40">
    <path clip-path="url(#pb915255d30)" d="M 72.873934 296.356489 
L 72.874068 296.351522 
L 72.874449 296.337442 
L 72.875524 296.297827 
L 72.878532 296.187849 
L 72.886806 295.88971 
L 72.908993 295.115419 
L 72.966154 293.251264 
L 73.104964 289.279714 
L 73.415685 282.087198 
L 74.043588 271.065239 
L 75.174344 256.417355 
L 76.988405 239.061983 
L 79.611405 220.273117 
L 83.093746 201.278469 
L 87.423019 183.021567 
L 92.549805 166.100466 
L 98.409943 150.812081 
L 104.937973 137.235481 
L 112.073325 125.313341 
L 119.762264 114.914845 
L 127.95783 105.87795 
L 136.619049 98.034976 
L 145.709987 91.226576 
L 155.198896 85.308344 
L 165.0575 80.153094 
L 175.260431 75.650766 
L 185.784788 71.707154 
L 196.609785 68.242142 
L 207.716475 65.187842 
L 219.087523 62.486817 
L 230.707024 60.090472 
L 242.560341 57.95766 
L 254.633982 56.053485 
L 266.915479 54.348285 
L 279.393294 52.816791 
L 292.056729 51.437414 
L 304.895853 50.191658 
L 317.901431 49.063631 
L 331.064866 48.039638 
L 344.378142 47.10784 
L 357.833779 46.257974 
L 371.424784 45.481115 
L 385.144616 44.769482 
L 398.987151 44.11627 
L 412.946644 43.515512 
L 427.017705 42.961961 
L 441.195269 42.450991 
L 455.474573 41.978515 
L 469.851136 41.540909 
" style="fill:none;stroke:#008000;stroke-linecap:square;stroke-width:2;"/>
   </g>
   <g id="patch_3">
    <path d="M 53.025 309.1 
L 53.025 28.8 
" style="fill:none;stroke:#000000;stroke-linecap:square;stroke-linejoin:miter;stroke-width:0.8;"/>
   </g>
   <g id="patch_4">
    <path d="M 489.7 309.1 
L 489.7 28.8 
" style="fill:none;stroke:#000000;stroke-linecap:square;stroke-linejoin:miter;stroke-width:0.8;"/>
   </g>
   <g id="patch_5">
    <path d="M 53.025 309.1 
L 489.7 309.1 
" style="fill:none;stroke:#000000;stroke-linecap:square;stroke-linejoin:miter;stroke-width:0.8;"/>
   </g>
   <g id="patch_6">
    <path d="M 53.025 28.8 
L 489.7 28.8 
" style="fill:none;stroke:#000000;stroke-linecap:square;stroke-linejoin:miter;stroke-width:0.8;"/>
   </g>
   <g id="text_18">
    <!-- $f_{T}(I_{ds})$ -->
    <defs>
     <path d="M 31 75.875 
Q 24.46875 64.65625 21.28125 53.65625 
Q 18.109375 42.671875 18.109375 31.390625 
Q 18.109375 20.125 21.3125 9.0625 
Q 24.515625 -2 31 -13.1875 
L 23.1875 -13.1875 
Q 15.875 -1.703125 12.234375 9.375 
Q 8.59375 20.453125 8.59375 31.390625 
Q 8.59375 42.28125 12.203125 53.3125 
Q 15.828125 64.359375 23.1875 75.875 
z
" id="DejaVuSans-28"/>
     <path d="M 41.796875 8.203125 
Q 38.1875 3.46875 33.25 1.015625 
Q 28.328125 -1.421875 22.3125 -1.421875 
Q 14.109375 -1.421875 9.34375 4.171875 
Q 4.59375 9.765625 4.59375 19.484375 
Q 4.59375 27.59375 7.46875 34.9375 
Q 10.359375 42.28125 15.828125 48.09375 
Q 19.4375 51.953125 23.96875 53.96875 
Q 28.515625 56 33.5 56 
Q 38.765625 56 42.796875 53.453125 
Q 46.828125 50.921875 49.03125 46.1875 
L 54.890625 75.984375 
L 63.921875 75.984375 
L 49.125 0 
L 40.09375 0 
z
M 13.921875 21.09375 
Q 13.921875 14.015625 17.109375 10.0625 
Q 20.3125 6.109375 25.984375 6.109375 
Q 30.171875 6.109375 33.765625 8.125 
Q 37.359375 10.15625 40.09375 14.109375 
Q 42.96875 18.21875 44.625 23.578125 
Q 46.296875 28.953125 46.296875 34.1875 
Q 46.296875 40.96875 43.09375 44.765625 
Q 39.890625 48.578125 34.28125 48.578125 
Q 30.03125 48.578125 26.359375 46.578125 
Q 22.703125 44.578125 20.125 40.828125 
Q 17.28125 36.765625 15.59375 31.390625 
Q 13.921875 26.03125 13.921875 21.09375 
z
" id="DejaVuSans-Oblique-64"/>
     <path d="M 50 53.078125 
L 48.296875 44.578125 
Q 44.734375 46.53125 40.765625 47.5 
Q 36.8125 48.484375 32.625 48.484375 
Q 25.53125 48.484375 21.453125 46.0625 
Q 17.390625 43.65625 17.390625 39.5 
Q 17.390625 34.671875 26.859375 32.078125 
Q 27.59375 31.890625 27.9375 31.78125 
L 30.8125 30.90625 
Q 39.796875 28.421875 42.796875 25.6875 
Q 45.796875 22.953125 45.796875 18.21875 
Q 45.796875 9.515625 38.890625 4.046875 
Q 31.984375 -1.421875 20.796875 -1.421875 
Q 16.453125 -1.421875 11.671875 -0.578125 
Q 6.890625 0.25 1.125 2 
L 2.875 11.28125 
Q 7.8125 8.734375 12.59375 7.421875 
Q 17.390625 6.109375 21.78125 6.109375 
Q 28.375 6.109375 32.5 8.9375 
Q 36.625 11.765625 36.625 16.109375 
Q 36.625 20.796875 25.78125 23.6875 
L 24.859375 23.921875 
L 21.78125 24.703125 
Q 14.9375 26.515625 11.765625 29.46875 
Q 8.59375 32.421875 8.59375 37.015625 
Q 8.59375 45.75 15.15625 50.875 
Q 21.734375 56 33.015625 56 
Q 37.453125 56 41.671875 55.265625 
Q 45.90625 54.546875 50 53.078125 
z
" id="DejaVuSans-Oblique-73"/>
     <path d="M 8.015625 75.875 
L 15.828125 75.875 
Q 23.140625 64.359375 26.78125 53.3125 
Q 30.421875 42.28125 30.421875 31.390625 
Q 30.421875 20.453125 26.78125 9.375 
Q 23.140625 -1.703125 15.828125 -13.1875 
L 8.015625 -13.1875 
Q 14.5 -2 17.703125 9.0625 
Q 20.90625 20.125 20.90625 31.390625 
Q 20.90625 42.671875 17.703125 53.65625 
Q 14.5 64.65625 8.015625 75.875 
z
" id="DejaVuSans-29"/>
    </defs>
    <g transform="translate(255.0425 22.8)scale(0.12 -0.12)">
     <use transform="translate(0 0.015625)" xlink:href="#DejaVuSans-Oblique-66"/>
     <use transform="translate(35.205078 -16.390625)scale(0.7)" xlink:href="#DejaVuSans-Oblique-54"/>
     <use transform="translate(80.698242 0.015625)" xlink:href="#DejaVuSans-28"/>
     <use transform="translate(119.711914 0.015625)" xlink:href="#DejaVuSans-Oblique-49"/>
     <use transform="translate(149.204102 -16.390625)scale(0.7)" xlink:href="#DejaVuSans-Oblique-64"/>
     <use transform="translate(193.637695 -16.390625)scale(0.7)" xlink:href="#DejaVuSans-Oblique-73"/>
     <use transform="translate(232.841797 0.015625)" xlink:href="#DejaVuSans-29"/>
    </g>
   </g>
   <g id="legend_1">
    <g id="patch_7">
     <path d="M 382.38 304.1 
L 482.7 304.1 
Q 484.7 304.1 484.7 302.1 
L 484.7 185.9625 
Q 484.7 183.9625 482.7 183.9625 
L 382.38 183.9625 
Q 380.38 183.9625 380.38 185.9625 
L 380.38 302.1 
Q 380.38 304.1 382.38 304.1 
z
" style="fill:#ffffff;opacity:0.8;stroke:#cccccc;stroke-linejoin:miter;"/>
    </g>
    <g id="line2d_41">
     <path d="M 382.38 191.580625 
L 392.38 191.580625 
" style="fill:none;stroke:#ff0000;stroke-linecap:square;stroke-width:2;"/>
    </g>
    <g id="line2d_42"/>
    <g id="text_19">
     <!-- $V_{D}$ =  1.0e-03 -->
     <defs>
      <path d="M 20.609375 0 
L 7.8125 72.90625 
L 17.484375 72.90625 
L 28.078125 10.203125 
L 63.484375 72.90625 
L 74.21875 72.90625 
L 32.078125 0 
z
" id="DejaVuSans-Oblique-56"/>
      <path d="M 10.59375 45.40625 
L 73.1875 45.40625 
L 73.1875 37.203125 
L 10.59375 37.203125 
z
M 10.59375 25.484375 
L 73.1875 25.484375 
L 73.1875 17.1875 
L 10.59375 17.1875 
z
" id="DejaVuSans-3d"/>
      <path d="M 10.6875 12.40625 
L 21 12.40625 
L 21 0 
L 10.6875 0 
z
" id="DejaVuSans-2e"/>
      <path d="M 56.203125 29.59375 
L 56.203125 25.203125 
L 14.890625 25.203125 
Q 15.484375 15.921875 20.484375 11.0625 
Q 25.484375 6.203125 34.421875 6.203125 
Q 39.59375 6.203125 44.453125 7.46875 
Q 49.3125 8.734375 54.109375 11.28125 
L 54.109375 2.78125 
Q 49.265625 0.734375 44.1875 -0.34375 
Q 39.109375 -1.421875 33.890625 -1.421875 
Q 20.796875 -1.421875 13.15625 6.1875 
Q 5.515625 13.8125 5.515625 26.8125 
Q 5.515625 40.234375 12.765625 48.109375 
Q 20.015625 56 32.328125 56 
Q 43.359375 56 49.78125 48.890625 
Q 56.203125 41.796875 56.203125 29.59375 
z
M 47.21875 32.234375 
Q 47.125 39.59375 43.09375 43.984375 
Q 39.0625 48.390625 32.421875 48.390625 
Q 24.90625 48.390625 20.390625 44.140625 
Q 15.875 39.890625 15.1875 32.171875 
z
" id="DejaVuSans-65"/>
      <path d="M 4.890625 31.390625 
L 31.203125 31.390625 
L 31.203125 23.390625 
L 4.890625 23.390625 
z
" id="DejaVuSans-2d"/>
     </defs>
     <g transform="translate(394.38 195.080625)scale(0.12 -0.12)">
      <use transform="translate(0 0.78125)" xlink:href="#DejaVuSans-Oblique-56"/>
      <use transform="translate(68.408203 -15.625)scale(0.7)" xlink:href="#DejaVuSans-Oblique-44"/>
      <use transform="translate(125.043945 0.78125)" xlink:href="#DejaVuSans-20"/>
      <use transform="translate(156.831055 0.78125)" xlink:href="#DejaVuSans-3d"/>
      <use transform="translate(240.620117 0.78125)" xlink:href="#DejaVuSans-20"/>
      <use transform="translate(272.407227 0.78125)" xlink:href="#DejaVuSans-20"/>
      <use transform="translate(304.194336 0.78125)" xlink:href="#DejaVuSans-31"/>
      <use transform="translate(367.817383 0.78125)" xlink:href="#DejaVuSans-2e"/>
      <use transform="translate(399.604492 0.78125)" xlink:href="#DejaVuSans-30"/>
      <use transform="translate(463.227539 0.78125)" xlink:href="#DejaVuSans-65"/>
      <use transform="translate(524.750977 0.78125)" xlink:href="#DejaVuSans-2d"/>
      <use transform="translate(560.834961 0.78125)" xlink:href="#DejaVuSans-30"/>
      <use transform="translate(624.458008 0.78125)" xlink:href="#DejaVuSans-33"/>
     </g>
    </g>
    <g id="line2d_43">
     <path d="M 382.38 203.194375 
L 392.38 203.194375 
" style="fill:none;stroke:#0000ff;stroke-linecap:square;stroke-width:2;"/>
    </g>
    <g id="line2d_44"/>
    <g id="text_20">
     <!-- $V_{D}$ =  2.0e-01 -->
     <g transform="translate(394.38 206.694375)scale(0.12 -0.12)">
      <use transform="translate(0 0.78125)" xlink:href="#DejaVuSans-Oblique-56"/>
      <use transform="translate(68.408203 -15.625)scale(0.7)" xlink:href="#DejaVuSans-Oblique-44"/>
      <use transform="translate(125.043945 0.78125)" xlink:href="#DejaVuSans-20"/>
      <use transform="translate(156.831055 0.78125)" xlink:href="#DejaVuSans-3d"/>
      <use transform="translate(240.620117 0.78125)" xlink:href="#DejaVuSans-20"/>
      <use transform="translate(272.407227 0.78125)" xlink:href="#DejaVuSans-20"/>
      <use transform="translate(304.194336 0.78125)" xlink:href="#DejaVuSans-32"/>
      <use transform="translate(367.817383 0.78125)" xlink:href="#DejaVuSans-2e"/>
      <use transform="translate(399.604492 0.78125)" xlink:href="#DejaVuSans-30"/>
      <use transform="translate(463.227539 0.78125)" xlink:href="#DejaVuSans-65"/>
      <use transform="translate(524.750977 0.78125)" xlink:href="#DejaVuSans-2d"/>
      <use transform="translate(560.834961 0.78125)" xlink:href="#DejaVuSans-30"/>
      <use transform="translate(624.458008 0.78125)" xlink:href="#DejaVuSans-31"/>
     </g>
    </g>
    <g id="line2d_45">
     <path d="M 382.38 214.808125 
L 392.38 214.808125 
" style="fill:none;stroke:#008000;stroke-linecap:square;stroke-width:2;"/>
    </g>
    <g id="line2d_46"/>
    <g id="text_21">
     <!-- $V_{D}$ =  4.0e-01 -->
     <g transform="translate(394.38 218.308125)scale(0.12 -0.12)">
      <use transform="translate(0 0.78125)" xlink:href="#DejaVuSans-Oblique-56"/>
      <use transform="translate(68.408203 -15.625)scale(0.7)" xlink:href="#DejaVuSans-Oblique-44"/>
      <use transform="translate(125.043945 0.78125)" xlink:href="#DejaVuSans-20"/>
      <use transform="translate(156.831055 0.78125)" xlink:href="#DejaVuSans-3d"/>
      <use transform="translate(240.620117 0.78125)" xlink:href="#DejaVuSans-20"/>
      <use transform="translate(272.407227 0.78125)" xlink:href="#DejaVuSans-20"/>
      <use transform="translate(304.194336 0.78125)" xlink:href="#DejaVuSans-34"/>
      <use transform="translate(367.817383 0.78125)" xlink:href="#DejaVuSans-2e"/>
      <use transform="translate(399.604492 0.78125)" xlink:href="#DejaVuSans-30"/>
      <use transform="translate(463.227539 0.78125)" xlink:href="#DejaVuSans-65"/>
      <use transform="translate(524.750977 0.78125)" xlink:href="#DejaVuSans-2d"/>
      <use transform="translate(560.834961 0.78125)" xlink:href="#DejaVuSans-30"/>
      <use transform="translate(624.458008 0.78125)" xlink:href="#DejaVuSans-31"/>
     </g>
    </g>
    <g id="line2d_47">
     <path d="M 382.38 226.421875 
L 392.38 226.421875 
" style="fill:none;stroke:#00bfbf;stroke-linecap:square;stroke-width:2;"/>
    </g>
    <g id="line2d_48"/>
    <g id="text_22">
     <!-- $V_{D}$ =  6.0e-01 -->
     <g transform="translate(394.38 229.921875)scale(0.12 -0.12)">
      <use transform="translate(0 0.78125)" xlink:href="#DejaVuSans-Oblique-56"/>
      <use transform="translate(68.408203 -15.625)scale(0.7)" xlink:href="#DejaVuSans-Oblique-44"/>
      <use transform="translate(125.043945 0.78125)" xlink:href="#DejaVuSans-20"/>
      <use transform="translate(156.831055 0.78125)" xlink:href="#DejaVuSans-3d"/>
      <use transform="translate(240.620117 0.78125)" xlink:href="#DejaVuSans-20"/>
      <use transform="translate(272.407227 0.78125)" xlink:href="#DejaVuSans-20"/>
      <use transform="translate(304.194336 0.78125)" xlink:href="#DejaVuSans-36"/>
      <use transform="translate(367.817383 0.78125)" xlink:href="#DejaVuSans-2e"/>
      <use transform="translate(399.604492 0.78125)" xlink:href="#DejaVuSans-30"/>
      <use transform="translate(463.227539 0.78125)" xlink:href="#DejaVuSans-65"/>
      <use transform="translate(524.750977 0.78125)" xlink:href="#DejaVuSans-2d"/>
      <use transform="translate(560.834961 0.78125)" xlink:href="#DejaVuSans-30"/>
      <use transform="translate(624.458008 0.78125)" xlink:href="#DejaVuSans-31"/>
     </g>
    </g>
    <g id="line2d_49">
     <path d="M 382.38 238.035625 
L 392.38 238.035625 
" style="fill:none;stroke:#bf00bf;stroke-linecap:square;stroke-width:2;"/>
    </g>
    <g id="line2d_50"/>
    <g id="text_23">
     <!-- $V_{D}$ =  8.0e-01 -->
     <defs>
      <path d="M 31.78125 34.625 
Q 24.75 34.625 20.71875 30.859375 
Q 16.703125 27.09375 16.703125 20.515625 
Q 16.703125 13.921875 20.71875 10.15625 
Q 24.75 6.390625 31.78125 6.390625 
Q 38.8125 6.390625 42.859375 10.171875 
Q 46.921875 13.96875 46.921875 20.515625 
Q 46.921875 27.09375 42.890625 30.859375 
Q 38.875 34.625 31.78125 34.625 
z
M 21.921875 38.8125 
Q 15.578125 40.375 12.03125 44.71875 
Q 8.5 49.078125 8.5 55.328125 
Q 8.5 64.0625 14.71875 69.140625 
Q 20.953125 74.21875 31.78125 74.21875 
Q 42.671875 74.21875 48.875 69.140625 
Q 55.078125 64.0625 55.078125 55.328125 
Q 55.078125 49.078125 51.53125 44.71875 
Q 48 40.375 41.703125 38.8125 
Q 48.828125 37.15625 52.796875 32.3125 
Q 56.78125 27.484375 56.78125 20.515625 
Q 56.78125 9.90625 50.3125 4.234375 
Q 43.84375 -1.421875 31.78125 -1.421875 
Q 19.734375 -1.421875 13.25 4.234375 
Q 6.78125 9.90625 6.78125 20.515625 
Q 6.78125 27.484375 10.78125 32.3125 
Q 14.796875 37.15625 21.921875 38.8125 
z
M 18.3125 54.390625 
Q 18.3125 48.734375 21.84375 45.5625 
Q 25.390625 42.390625 31.78125 42.390625 
Q 38.140625 42.390625 41.71875 45.5625 
Q 45.3125 48.734375 45.3125 54.390625 
Q 45.3125 60.0625 41.71875 63.234375 
Q 38.140625 66.40625 31.78125 66.40625 
Q 25.390625 66.40625 21.84375 63.234375 
Q 18.3125 60.0625 18.3125 54.390625 
z
" id="DejaVuSans-38"/>
     </defs>
     <g transform="translate(394.38 241.535625)scale(0.12 -0.12)">
      <use transform="translate(0 0.78125)" xlink:href="#DejaVuSans-Oblique-56"/>
      <use transform="translate(68.408203 -15.625)scale(0.7)" xlink:href="#DejaVuSans-Oblique-44"/>
      <use transform="translate(125.043945 0.78125)" xlink:href="#DejaVuSans-20"/>
      <use transform="translate(156.831055 0.78125)" xlink:href="#DejaVuSans-3d"/>
      <use transform="translate(240.620117 0.78125)" xlink:href="#DejaVuSans-20"/>
      <use transform="translate(272.407227 0.78125)" xlink:href="#DejaVuSans-20"/>
      <use transform="translate(304.194336 0.78125)" xlink:href="#DejaVuSans-38"/>
      <use transform="translate(367.817383 0.78125)" xlink:href="#DejaVuSans-2e"/>
      <use transform="translate(399.604492 0.78125)" xlink:href="#DejaVuSans-30"/>
      <use transform="translate(463.227539 0.78125)" xlink:href="#DejaVuSans-65"/>
      <use transform="translate(524.750977 0.78125)" xlink:href="#DejaVuSans-2d"/>
      <use transform="translate(560.834961 0.78125)" xlink:href="#DejaVuSans-30"/>
      <use transform="translate(624.458008 0.78125)" xlink:href="#DejaVuSans-31"/>
     </g>
    </g>
    <g id="line2d_51">
     <path d="M 382.38 249.649375 
L 392.38 249.649375 
" style="fill:none;stroke:#bfbf00;stroke-linecap:square;stroke-width:2;"/>
    </g>
    <g id="line2d_52"/>
    <g id="text_24">
     <!-- $V_{D}$ =  1.0e+00 -->
     <defs>
      <path d="M 46 62.703125 
L 46 35.5 
L 73.1875 35.5 
L 73.1875 27.203125 
L 46 27.203125 
L 46 0 
L 37.796875 0 
L 37.796875 27.203125 
L 10.59375 27.203125 
L 10.59375 35.5 
L 37.796875 35.5 
L 37.796875 62.703125 
z
" id="DejaVuSans-2b"/>
     </defs>
     <g transform="translate(394.38 253.149375)scale(0.12 -0.12)">
      <use transform="translate(0 0.78125)" xlink:href="#DejaVuSans-Oblique-56"/>
      <use transform="translate(68.408203 -15.625)scale(0.7)" xlink:href="#DejaVuSans-Oblique-44"/>
      <use transform="translate(125.043945 0.78125)" xlink:href="#DejaVuSans-20"/>
      <use transform="translate(156.831055 0.78125)" xlink:href="#DejaVuSans-3d"/>
      <use transform="translate(240.620117 0.78125)" xlink:href="#DejaVuSans-20"/>
      <use transform="translate(272.407227 0.78125)" xlink:href="#DejaVuSans-20"/>
      <use transform="translate(304.194336 0.78125)" xlink:href="#DejaVuSans-31"/>
      <use transform="translate(367.817383 0.78125)" xlink:href="#DejaVuSans-2e"/>
      <use transform="translate(399.604492 0.78125)" xlink:href="#DejaVuSans-30"/>
      <use transform="translate(463.227539 0.78125)" xlink:href="#DejaVuSans-65"/>
      <use transform="translate(524.750977 0.78125)" xlink:href="#DejaVuSans-2b"/>
      <use transform="translate(608.540039 0.78125)" xlink:href="#DejaVuSans-30"/>
      <use transform="translate(672.163086 0.78125)" xlink:href="#DejaVuSans-30"/>
     </g>
    </g>
    <g id="line2d_53">
     <path d="M 382.38 261.263125 
L 392.38 261.263125 
" style="fill:none;stroke:#000000;stroke-linecap:square;stroke-width:2;"/>
    </g>
    <g id="line2d_54"/>
    <g id="text_25">
     <!-- $V_{D}$ =  1.2e+00 -->
     <g transform="translate(394.38 264.763125)scale(0.12 -0.12)">
      <use transform="translate(0 0.78125)" xlink:href="#DejaVuSans-Oblique-56"/>
      <use transform="translate(68.408203 -15.625)scale(0.7)" xlink:href="#DejaVuSans-Oblique-44"/>
      <use transform="translate(125.043945 0.78125)" xlink:href="#DejaVuSans-20"/>
      <use transform="translate(156.831055 0.78125)" xlink:href="#DejaVuSans-3d"/>
      <use transform="translate(240.620117 0.78125)" xlink:href="#DejaVuSans-20"/>
      <use transform="translate(272.407227 0.78125)" xlink:href="#DejaVuSans-20"/>
      <use transform="translate(304.194336 0.78125)" xlink:href="#DejaVuSans-31"/>
      <use transform="translate(367.817383 0.78125)" xlink:href="#DejaVuSans-2e"/>
      <use transform="translate(399.526367 0.78125)" xlink:href="#DejaVuSans-32"/>
      <use transform="translate(463.149414 0.78125)" xlink:href="#DejaVuSans-65"/>
      <use transform="translate(524.672852 0.78125)" xlink:href="#DejaVuSans-2b"/>
      <use transform="translate(608.461914 0.78125)" xlink:href="#DejaVuSans-30"/>
      <use transform="translate(672.084961 0.78125)" xlink:href="#DejaVuSans-30"/>
     </g>
    </g>
    <g id="line2d_55">
     <path d="M 382.38 272.876875 
L 392.38 272.876875 
" style="fill:none;stroke:#ff0000;stroke-linecap:square;stroke-width:2;"/>
    </g>
    <g id="line2d_56"/>
    <g id="text_26">
     <!-- $V_{D}$ =  1.4e+00 -->
     <g transform="translate(394.38 276.376875)scale(0.12 -0.12)">
      <use transform="translate(0 0.78125)" xlink:href="#DejaVuSans-Oblique-56"/>
      <use transform="translate(68.408203 -15.625)scale(0.7)" xlink:href="#DejaVuSans-Oblique-44"/>
      <use transform="translate(125.043945 0.78125)" xlink:href="#DejaVuSans-20"/>
      <use transform="translate(156.831055 0.78125)" xlink:href="#DejaVuSans-3d"/>
      <use transform="translate(240.620117 0.78125)" xlink:href="#DejaVuSans-20"/>
      <use transform="translate(272.407227 0.78125)" xlink:href="#DejaVuSans-20"/>
      <use transform="translate(304.194336 0.78125)" xlink:href="#DejaVuSans-31"/>
      <use transform="translate(367.817383 0.78125)" xlink:href="#DejaVuSans-2e"/>
      <use transform="translate(399.604492 0.78125)" xlink:href="#DejaVuSans-34"/>
      <use transform="translate(463.227539 0.78125)" xlink:href="#DejaVuSans-65"/>
      <use transform="translate(524.750977 0.78125)" xlink:href="#DejaVuSans-2b"/>
      <use transform="translate(608.540039 0.78125)" xlink:href="#DejaVuSans-30"/>
      <use transform="translate(672.163086 0.78125)" xlink:href="#DejaVuSans-30"/>
     </g>
    </g>
    <g id="line2d_57">
     <path d="M 382.38 284.490625 
L 392.38 284.490625 
" style="fill:none;stroke:#0000ff;stroke-linecap:square;stroke-width:2;"/>
    </g>
    <g id="line2d_58"/>
    <g id="text_27">
     <!-- $V_{D}$ =  1.6e+00 -->
     <g transform="translate(394.38 287.990625)scale(0.12 -0.12)">
      <use transform="translate(0 0.78125)" xlink:href="#DejaVuSans-Oblique-56"/>
      <use transform="translate(68.408203 -15.625)scale(0.7)" xlink:href="#DejaVuSans-Oblique-44"/>
      <use transform="translate(125.043945 0.78125)" xlink:href="#DejaVuSans-20"/>
      <use transform="translate(156.831055 0.78125)" xlink:href="#DejaVuSans-3d"/>
      <use transform="translate(240.620117 0.78125)" xlink:href="#DejaVuSans-20"/>
      <use transform="translate(272.407227 0.78125)" xlink:href="#DejaVuSans-20"/>
      <use transform="translate(304.194336 0.78125)" xlink:href="#DejaVuSans-31"/>
      <use transform="translate(367.817383 0.78125)" xlink:href="#DejaVuSans-2e"/>
      <use transform="translate(399.604492 0.78125)" xlink:href="#DejaVuSans-36"/>
      <use transform="translate(463.227539 0.78125)" xlink:href="#DejaVuSans-65"/>
      <use transform="translate(524.750977 0.78125)" xlink:href="#DejaVuSans-2b"/>
      <use transform="translate(608.540039 0.78125)" xlink:href="#DejaVuSans-30"/>
      <use transform="translate(672.163086 0.78125)" xlink:href="#DejaVuSans-30"/>
     </g>
    </g>
    <g id="line2d_59">
     <path d="M 382.38 296.104375 
L 392.38 296.104375 
" style="fill:none;stroke:#008000;stroke-linecap:square;stroke-width:2;"/>
    </g>
    <g id="line2d_60"/>
    <g id="text_28">
     <!-- $V_{D}$ =  1.8e+00 -->
     <g transform="translate(394.38 299.604375)scale(0.12 -0.12)">
      <use transform="translate(0 0.78125)" xlink:href="#DejaVuSans-Oblique-56"/>
      <use transform="translate(68.408203 -15.625)scale(0.7)" xlink:href="#DejaVuSans-Oblique-44"/>
      <use transform="translate(125.043945 0.78125)" xlink:href="#DejaVuSans-20"/>
      <use transform="translate(156.831055 0.78125)" xlink:href="#DejaVuSans-3d"/>
      <use transform="translate(240.620117 0.78125)" xlink:href="#DejaVuSans-20"/>
      <use transform="translate(272.407227 0.78125)" xlink:href="#DejaVuSans-20"/>
      <use transform="translate(304.194336 0.78125)" xlink:href="#DejaVuSans-31"/>
      <use transform="translate(367.817383 0.78125)" xlink:href="#DejaVuSans-2e"/>
      <use transform="translate(399.573242 0.78125)" xlink:href="#DejaVuSans-38"/>
      <use transform="translate(463.196289 0.78125)" xlink:href="#DejaVuSans-65"/>
      <use transform="translate(524.719727 0.78125)" xlink:href="#DejaVuSans-2b"/>
      <use transform="translate(608.508789 0.78125)" xlink:href="#DejaVuSans-30"/>
      <use transform="translate(672.131836 0.78125)" xlink:href="#DejaVuSans-30"/>
     </g>
    </g>
   </g>
  </g>
 </g>
 <defs>
  <clipPath id="pb915255d30">
   <rect height="280.3" width="436.675" x="53.025" y="28.8"/>
  </clipPath>
 </defs>
</svg>
