<?xml version="1.0" encoding="utf-8" standalone="no"?>
<!DOCTYPE svg PUBLIC "-//W3C//DTD SVG 1.1//EN"
  "http://www.w3.org/Graphics/SVG/1.1/DTD/svg11.dtd">
<!-- Created with matplotlib (https://matplotlib.org/) -->
<svg height="360pt" version="1.1" viewBox="0 0 504 360" width="504pt" xmlns="http://www.w3.org/2000/svg" xmlns:xlink="http://www.w3.org/1999/xlink">
 <defs>
  <style type="text/css">
*{stroke-linecap:butt;stroke-linejoin:round;}
  </style>
 </defs>
 <g id="figure_1">
  <g id="patch_1">
   <path d="M 0 360 
L 504 360 
L 504 0 
L 0 0 
z
" style="fill:#ffffff;"/>
  </g>
  <g id="axes_1">
   <g id="patch_2">
    <path d="M 60.775 309.1 
L 493.2 309.1 
L 493.2 28.8 
L 60.775 28.8 
z
" style="fill:#ffffff;"/>
   </g>
   <g id="matplotlib.axis_1">
    <g id="xtick_1">
     <g id="line2d_1">
      <path clip-path="url(#p277b6a6b72)" d="M 80.430682 309.1 
L 80.430682 28.8 
" style="fill:none;stroke:#808080;stroke-linecap:square;stroke-width:0.8;"/>
     </g>
     <g id="line2d_2">
      <defs>
       <path d="M 0 0 
L 0 3.5 
" id="m4e1c40e266" style="stroke:#000000;stroke-width:0.8;"/>
      </defs>
      <g>
       <use style="stroke:#000000;stroke-width:0.8;" x="80.430682" xlink:href="#m4e1c40e266" y="309.1"/>
      </g>
     </g>
     <g id="text_1">
      <!-- 0.00 -->
      <defs>
       <path d="M 31.78125 66.40625 
Q 24.171875 66.40625 20.328125 58.90625 
Q 16.5 51.421875 16.5 36.375 
Q 16.5 21.390625 20.328125 13.890625 
Q 24.171875 6.390625 31.78125 6.390625 
Q 39.453125 6.390625 43.28125 13.890625 
Q 47.125 21.390625 47.125 36.375 
Q 47.125 51.421875 43.28125 58.90625 
Q 39.453125 66.40625 31.78125 66.40625 
z
M 31.78125 74.21875 
Q 44.046875 74.21875 50.515625 64.515625 
Q 56.984375 54.828125 56.984375 36.375 
Q 56.984375 17.96875 50.515625 8.265625 
Q 44.046875 -1.421875 31.78125 -1.421875 
Q 19.53125 -1.421875 13.0625 8.265625 
Q 6.59375 17.96875 6.59375 36.375 
Q 6.59375 54.828125 13.0625 64.515625 
Q 19.53125 74.21875 31.78125 74.21875 
z
" id="DejaVuSans-48"/>
       <path d="M 10.6875 12.40625 
L 21 12.40625 
L 21 0 
L 10.6875 0 
z
" id="DejaVuSans-46"/>
      </defs>
      <g transform="translate(67.071307 325.218125)scale(0.12 -0.12)">
       <use xlink:href="#DejaVuSans-48"/>
       <use x="63.623047" xlink:href="#DejaVuSans-46"/>
       <use x="95.410156" xlink:href="#DejaVuSans-48"/>
       <use x="159.033203" xlink:href="#DejaVuSans-48"/>
      </g>
     </g>
    </g>
    <g id="xtick_2">
     <g id="line2d_3">
      <path clip-path="url(#p277b6a6b72)" d="M 135.029798 309.1 
L 135.029798 28.8 
" style="fill:none;stroke:#808080;stroke-linecap:square;stroke-width:0.8;"/>
     </g>
     <g id="line2d_4">
      <g>
       <use style="stroke:#000000;stroke-width:0.8;" x="135.029798" xlink:href="#m4e1c40e266" y="309.1"/>
      </g>
     </g>
     <g id="text_2">
      <!-- 0.25 -->
      <defs>
       <path d="M 19.1875 8.296875 
L 53.609375 8.296875 
L 53.609375 0 
L 7.328125 0 
L 7.328125 8.296875 
Q 12.9375 14.109375 22.625 23.890625 
Q 32.328125 33.6875 34.8125 36.53125 
Q 39.546875 41.84375 41.421875 45.53125 
Q 43.3125 49.21875 43.3125 52.78125 
Q 43.3125 58.59375 39.234375 62.25 
Q 35.15625 65.921875 28.609375 65.921875 
Q 23.96875 65.921875 18.8125 64.3125 
Q 13.671875 62.703125 7.8125 59.421875 
L 7.8125 69.390625 
Q 13.765625 71.78125 18.9375 73 
Q 24.125 74.21875 28.421875 74.21875 
Q 39.75 74.21875 46.484375 68.546875 
Q 53.21875 62.890625 53.21875 53.421875 
Q 53.21875 48.921875 51.53125 44.890625 
Q 49.859375 40.875 45.40625 35.40625 
Q 44.1875 33.984375 37.640625 27.21875 
Q 31.109375 20.453125 19.1875 8.296875 
z
" id="DejaVuSans-50"/>
       <path d="M 10.796875 72.90625 
L 49.515625 72.90625 
L 49.515625 64.59375 
L 19.828125 64.59375 
L 19.828125 46.734375 
Q 21.96875 47.46875 24.109375 47.828125 
Q 26.265625 48.1875 28.421875 48.1875 
Q 40.625 48.1875 47.75 41.5 
Q 54.890625 34.8125 54.890625 23.390625 
Q 54.890625 11.625 47.5625 5.09375 
Q 40.234375 -1.421875 26.90625 -1.421875 
Q 22.3125 -1.421875 17.546875 -0.640625 
Q 12.796875 0.140625 7.71875 1.703125 
L 7.71875 11.625 
Q 12.109375 9.234375 16.796875 8.0625 
Q 21.484375 6.890625 26.703125 6.890625 
Q 35.15625 6.890625 40.078125 11.328125 
Q 45.015625 15.765625 45.015625 23.390625 
Q 45.015625 31 40.078125 35.4375 
Q 35.15625 39.890625 26.703125 39.890625 
Q 22.75 39.890625 18.8125 39.015625 
Q 14.890625 38.140625 10.796875 36.28125 
z
" id="DejaVuSans-53"/>
      </defs>
      <g transform="translate(121.670423 325.218125)scale(0.12 -0.12)">
       <use xlink:href="#DejaVuSans-48"/>
       <use x="63.623047" xlink:href="#DejaVuSans-46"/>
       <use x="95.410156" xlink:href="#DejaVuSans-50"/>
       <use x="159.033203" xlink:href="#DejaVuSans-53"/>
      </g>
     </g>
    </g>
    <g id="xtick_3">
     <g id="line2d_5">
      <path clip-path="url(#p277b6a6b72)" d="M 189.628914 309.1 
L 189.628914 28.8 
" style="fill:none;stroke:#808080;stroke-linecap:square;stroke-width:0.8;"/>
     </g>
     <g id="line2d_6">
      <g>
       <use style="stroke:#000000;stroke-width:0.8;" x="189.628914" xlink:href="#m4e1c40e266" y="309.1"/>
      </g>
     </g>
     <g id="text_3">
      <!-- 0.50 -->
      <g transform="translate(176.269539 325.218125)scale(0.12 -0.12)">
       <use xlink:href="#DejaVuSans-48"/>
       <use x="63.623047" xlink:href="#DejaVuSans-46"/>
       <use x="95.410156" xlink:href="#DejaVuSans-53"/>
       <use x="159.033203" xlink:href="#DejaVuSans-48"/>
      </g>
     </g>
    </g>
    <g id="xtick_4">
     <g id="line2d_7">
      <path clip-path="url(#p277b6a6b72)" d="M 244.22803 309.1 
L 244.22803 28.8 
" style="fill:none;stroke:#808080;stroke-linecap:square;stroke-width:0.8;"/>
     </g>
     <g id="line2d_8">
      <g>
       <use style="stroke:#000000;stroke-width:0.8;" x="244.22803" xlink:href="#m4e1c40e266" y="309.1"/>
      </g>
     </g>
     <g id="text_4">
      <!-- 0.75 -->
      <defs>
       <path d="M 8.203125 72.90625 
L 55.078125 72.90625 
L 55.078125 68.703125 
L 28.609375 0 
L 18.3125 0 
L 43.21875 64.59375 
L 8.203125 64.59375 
z
" id="DejaVuSans-55"/>
      </defs>
      <g transform="translate(230.868655 325.218125)scale(0.12 -0.12)">
       <use xlink:href="#DejaVuSans-48"/>
       <use x="63.623047" xlink:href="#DejaVuSans-46"/>
       <use x="95.410156" xlink:href="#DejaVuSans-55"/>
       <use x="159.033203" xlink:href="#DejaVuSans-53"/>
      </g>
     </g>
    </g>
    <g id="xtick_5">
     <g id="line2d_9">
      <path clip-path="url(#p277b6a6b72)" d="M 298.827146 309.1 
L 298.827146 28.8 
" style="fill:none;stroke:#808080;stroke-linecap:square;stroke-width:0.8;"/>
     </g>
     <g id="line2d_10">
      <g>
       <use style="stroke:#000000;stroke-width:0.8;" x="298.827146" xlink:href="#m4e1c40e266" y="309.1"/>
      </g>
     </g>
     <g id="text_5">
      <!-- 1.00 -->
      <defs>
       <path d="M 12.40625 8.296875 
L 28.515625 8.296875 
L 28.515625 63.921875 
L 10.984375 60.40625 
L 10.984375 69.390625 
L 28.421875 72.90625 
L 38.28125 72.90625 
L 38.28125 8.296875 
L 54.390625 8.296875 
L 54.390625 0 
L 12.40625 0 
z
" id="DejaVuSans-49"/>
      </defs>
      <g transform="translate(285.467771 325.218125)scale(0.12 -0.12)">
       <use xlink:href="#DejaVuSans-49"/>
       <use x="63.623047" xlink:href="#DejaVuSans-46"/>
       <use x="95.410156" xlink:href="#DejaVuSans-48"/>
       <use x="159.033203" xlink:href="#DejaVuSans-48"/>
      </g>
     </g>
    </g>
    <g id="xtick_6">
     <g id="line2d_11">
      <path clip-path="url(#p277b6a6b72)" d="M 353.426263 309.1 
L 353.426263 28.8 
" style="fill:none;stroke:#808080;stroke-linecap:square;stroke-width:0.8;"/>
     </g>
     <g id="line2d_12">
      <g>
       <use style="stroke:#000000;stroke-width:0.8;" x="353.426263" xlink:href="#m4e1c40e266" y="309.1"/>
      </g>
     </g>
     <g id="text_6">
      <!-- 1.25 -->
      <g transform="translate(340.066888 325.218125)scale(0.12 -0.12)">
       <use xlink:href="#DejaVuSans-49"/>
       <use x="63.623047" xlink:href="#DejaVuSans-46"/>
       <use x="95.410156" xlink:href="#DejaVuSans-50"/>
       <use x="159.033203" xlink:href="#DejaVuSans-53"/>
      </g>
     </g>
    </g>
    <g id="xtick_7">
     <g id="line2d_13">
      <path clip-path="url(#p277b6a6b72)" d="M 408.025379 309.1 
L 408.025379 28.8 
" style="fill:none;stroke:#808080;stroke-linecap:square;stroke-width:0.8;"/>
     </g>
     <g id="line2d_14">
      <g>
       <use style="stroke:#000000;stroke-width:0.8;" x="408.025379" xlink:href="#m4e1c40e266" y="309.1"/>
      </g>
     </g>
     <g id="text_7">
      <!-- 1.50 -->
      <g transform="translate(394.666004 325.218125)scale(0.12 -0.12)">
       <use xlink:href="#DejaVuSans-49"/>
       <use x="63.623047" xlink:href="#DejaVuSans-46"/>
       <use x="95.410156" xlink:href="#DejaVuSans-53"/>
       <use x="159.033203" xlink:href="#DejaVuSans-48"/>
      </g>
     </g>
    </g>
    <g id="xtick_8">
     <g id="line2d_15">
      <path clip-path="url(#p277b6a6b72)" d="M 462.624495 309.1 
L 462.624495 28.8 
" style="fill:none;stroke:#808080;stroke-linecap:square;stroke-width:0.8;"/>
     </g>
     <g id="line2d_16">
      <g>
       <use style="stroke:#000000;stroke-width:0.8;" x="462.624495" xlink:href="#m4e1c40e266" y="309.1"/>
      </g>
     </g>
     <g id="text_8">
      <!-- 1.75 -->
      <g transform="translate(449.26512 325.218125)scale(0.12 -0.12)">
       <use xlink:href="#DejaVuSans-49"/>
       <use x="63.623047" xlink:href="#DejaVuSans-46"/>
       <use x="95.410156" xlink:href="#DejaVuSans-55"/>
       <use x="159.033203" xlink:href="#DejaVuSans-53"/>
      </g>
     </g>
    </g>
    <g id="text_9">
     <!-- $V_{G}$ [V] -->
     <defs>
      <path d="M 20.609375 0 
L 7.8125 72.90625 
L 17.484375 72.90625 
L 28.078125 10.203125 
L 63.484375 72.90625 
L 74.21875 72.90625 
L 32.078125 0 
z
" id="DejaVuSans-Oblique-86"/>
      <path d="M 54.59375 10.890625 
L 58.40625 29.984375 
L 42.1875 29.984375 
L 43.703125 38.09375 
L 69.578125 38.09375 
L 63.28125 6 
Q 56.78125 2.4375 49.109375 0.5 
Q 41.453125 -1.421875 33.6875 -1.421875 
Q 19.96875 -1.421875 12.234375 6.1875 
Q 4.5 13.8125 4.5 27.390625 
Q 4.5 38.671875 9.203125 48.84375 
Q 13.921875 59.03125 22.21875 65.828125 
Q 27.4375 70.0625 33.640625 72.140625 
Q 39.84375 74.21875 47.40625 74.21875 
Q 54.25 74.21875 60.515625 72.484375 
Q 66.796875 70.75 72.515625 67.28125 
L 70.515625 56.78125 
Q 66.109375 61.375 60.203125 63.796875 
Q 54.296875 66.21875 47.609375 66.21875 
Q 39.84375 66.21875 33.9375 63.25 
Q 28.03125 60.296875 23.390625 54.109375 
Q 19.4375 48.828125 17.15625 41.671875 
Q 14.890625 34.515625 14.890625 27.09375 
Q 14.890625 16.890625 20.109375 11.734375 
Q 25.34375 6.59375 35.6875 6.59375 
Q 40.875 6.59375 45.703125 7.6875 
Q 50.53125 8.796875 54.59375 10.890625 
z
" id="DejaVuSans-Oblique-71"/>
      <path id="DejaVuSans-32"/>
      <path d="M 8.59375 75.984375 
L 29.296875 75.984375 
L 29.296875 69 
L 17.578125 69 
L 17.578125 -6.203125 
L 29.296875 -6.203125 
L 29.296875 -13.1875 
L 8.59375 -13.1875 
z
" id="DejaVuSans-91"/>
      <path d="M 28.609375 0 
L 0.78125 72.90625 
L 11.078125 72.90625 
L 34.1875 11.53125 
L 57.328125 72.90625 
L 67.578125 72.90625 
L 39.796875 0 
z
" id="DejaVuSans-86"/>
      <path d="M 30.421875 75.984375 
L 30.421875 -13.1875 
L 9.71875 -13.1875 
L 9.71875 -6.203125 
L 21.390625 -6.203125 
L 21.390625 69 
L 9.71875 69 
L 9.71875 75.984375 
z
" id="DejaVuSans-93"/>
     </defs>
     <g transform="translate(258.7475 340.831875)scale(0.12 -0.12)">
      <use transform="translate(0 0.015625)" xlink:href="#DejaVuSans-Oblique-86"/>
      <use transform="translate(68.408203 -16.390625)scale(0.7)" xlink:href="#DejaVuSans-Oblique-71"/>
      <use transform="translate(125.385742 0.015625)" xlink:href="#DejaVuSans-32"/>
      <use transform="translate(157.172852 0.015625)" xlink:href="#DejaVuSans-91"/>
      <use transform="translate(196.186523 0.015625)" xlink:href="#DejaVuSans-86"/>
      <use transform="translate(264.594727 0.015625)" xlink:href="#DejaVuSans-93"/>
     </g>
    </g>
   </g>
   <g id="matplotlib.axis_2">
    <g id="ytick_1">
     <g id="line2d_17">
      <path clip-path="url(#p277b6a6b72)" d="M 60.775 296.359092 
L 493.2 296.359092 
" style="fill:none;stroke:#808080;stroke-linecap:square;stroke-width:0.8;"/>
     </g>
     <g id="line2d_18">
      <defs>
       <path d="M 0 0 
L -3.5 0 
" id="me35b645962" style="stroke:#000000;stroke-width:0.8;"/>
      </defs>
      <g>
       <use style="stroke:#000000;stroke-width:0.8;" x="60.775" xlink:href="#me35b645962" y="296.359092"/>
      </g>
     </g>
     <g id="text_10">
      <!-- 0 -->
      <g transform="translate(46.14 300.918155)scale(0.12 -0.12)">
       <use xlink:href="#DejaVuSans-48"/>
      </g>
     </g>
    </g>
    <g id="ytick_2">
     <g id="line2d_19">
      <path clip-path="url(#p277b6a6b72)" d="M 60.775 260.355794 
L 493.2 260.355794 
" style="fill:none;stroke:#808080;stroke-linecap:square;stroke-width:0.8;"/>
     </g>
     <g id="line2d_20">
      <g>
       <use style="stroke:#000000;stroke-width:0.8;" x="60.775" xlink:href="#me35b645962" y="260.355794"/>
      </g>
     </g>
     <g id="text_11">
      <!-- 25 -->
      <g transform="translate(38.505 264.914856)scale(0.12 -0.12)">
       <use xlink:href="#DejaVuSans-50"/>
       <use x="63.623047" xlink:href="#DejaVuSans-53"/>
      </g>
     </g>
    </g>
    <g id="ytick_3">
     <g id="line2d_21">
      <path clip-path="url(#p277b6a6b72)" d="M 60.775 224.352495 
L 493.2 224.352495 
" style="fill:none;stroke:#808080;stroke-linecap:square;stroke-width:0.8;"/>
     </g>
     <g id="line2d_22">
      <g>
       <use style="stroke:#000000;stroke-width:0.8;" x="60.775" xlink:href="#me35b645962" y="224.352495"/>
      </g>
     </g>
     <g id="text_12">
      <!-- 50 -->
      <g transform="translate(38.505 228.911558)scale(0.12 -0.12)">
       <use xlink:href="#DejaVuSans-53"/>
       <use x="63.623047" xlink:href="#DejaVuSans-48"/>
      </g>
     </g>
    </g>
    <g id="ytick_4">
     <g id="line2d_23">
      <path clip-path="url(#p277b6a6b72)" d="M 60.775 188.349196 
L 493.2 188.349196 
" style="fill:none;stroke:#808080;stroke-linecap:square;stroke-width:0.8;"/>
     </g>
     <g id="line2d_24">
      <g>
       <use style="stroke:#000000;stroke-width:0.8;" x="60.775" xlink:href="#me35b645962" y="188.349196"/>
      </g>
     </g>
     <g id="text_13">
      <!-- 75 -->
      <g transform="translate(38.505 192.908259)scale(0.12 -0.12)">
       <use xlink:href="#DejaVuSans-55"/>
       <use x="63.623047" xlink:href="#DejaVuSans-53"/>
      </g>
     </g>
    </g>
    <g id="ytick_5">
     <g id="line2d_25">
      <path clip-path="url(#p277b6a6b72)" d="M 60.775 152.345898 
L 493.2 152.345898 
" style="fill:none;stroke:#808080;stroke-linecap:square;stroke-width:0.8;"/>
     </g>
     <g id="line2d_26">
      <g>
       <use style="stroke:#000000;stroke-width:0.8;" x="60.775" xlink:href="#me35b645962" y="152.345898"/>
      </g>
     </g>
     <g id="text_14">
      <!-- 100 -->
      <g transform="translate(30.87 156.90496)scale(0.12 -0.12)">
       <use xlink:href="#DejaVuSans-49"/>
       <use x="63.623047" xlink:href="#DejaVuSans-48"/>
       <use x="127.246094" xlink:href="#DejaVuSans-48"/>
      </g>
     </g>
    </g>
    <g id="ytick_6">
     <g id="line2d_27">
      <path clip-path="url(#p277b6a6b72)" d="M 60.775 116.342599 
L 493.2 116.342599 
" style="fill:none;stroke:#808080;stroke-linecap:square;stroke-width:0.8;"/>
     </g>
     <g id="line2d_28">
      <g>
       <use style="stroke:#000000;stroke-width:0.8;" x="60.775" xlink:href="#me35b645962" y="116.342599"/>
      </g>
     </g>
     <g id="text_15">
      <!-- 125 -->
      <g transform="translate(30.87 120.901662)scale(0.12 -0.12)">
       <use xlink:href="#DejaVuSans-49"/>
       <use x="63.623047" xlink:href="#DejaVuSans-50"/>
       <use x="127.246094" xlink:href="#DejaVuSans-53"/>
      </g>
     </g>
    </g>
    <g id="ytick_7">
     <g id="line2d_29">
      <path clip-path="url(#p277b6a6b72)" d="M 60.775 80.339301 
L 493.2 80.339301 
" style="fill:none;stroke:#808080;stroke-linecap:square;stroke-width:0.8;"/>
     </g>
     <g id="line2d_30">
      <g>
       <use style="stroke:#000000;stroke-width:0.8;" x="60.775" xlink:href="#me35b645962" y="80.339301"/>
      </g>
     </g>
     <g id="text_16">
      <!-- 150 -->
      <g transform="translate(30.87 84.898363)scale(0.12 -0.12)">
       <use xlink:href="#DejaVuSans-49"/>
       <use x="63.623047" xlink:href="#DejaVuSans-53"/>
       <use x="127.246094" xlink:href="#DejaVuSans-48"/>
      </g>
     </g>
    </g>
    <g id="ytick_8">
     <g id="line2d_31">
      <path clip-path="url(#p277b6a6b72)" d="M 60.775 44.336002 
L 493.2 44.336002 
" style="fill:none;stroke:#808080;stroke-linecap:square;stroke-width:0.8;"/>
     </g>
     <g id="line2d_32">
      <g>
       <use style="stroke:#000000;stroke-width:0.8;" x="60.775" xlink:href="#me35b645962" y="44.336002"/>
      </g>
     </g>
     <g id="text_17">
      <!-- 175 -->
      <g transform="translate(30.87 48.895064)scale(0.12 -0.12)">
       <use xlink:href="#DejaVuSans-49"/>
       <use x="63.623047" xlink:href="#DejaVuSans-55"/>
       <use x="127.246094" xlink:href="#DejaVuSans-53"/>
      </g>
     </g>
    </g>
    <g id="text_18">
     <!-- $I_{DS X1}$ [uA] -->
     <defs>
      <path d="M 16.890625 72.90625 
L 26.8125 72.90625 
L 12.59375 0 
L 2.6875 0 
z
" id="DejaVuSans-Oblique-73"/>
      <path d="M 16.890625 72.90625 
L 38.09375 72.90625 
Q 54.984375 72.90625 63.59375 65.75 
Q 72.21875 58.59375 72.21875 44.484375 
Q 72.21875 35.15625 68.9375 26.53125 
Q 65.671875 17.921875 59.90625 12.015625 
Q 54.109375 5.953125 45.171875 2.96875 
Q 36.234375 0 24.03125 0 
L 2.6875 0 
z
M 25.203125 64.796875 
L 14.203125 8.109375 
L 27.09375 8.109375 
Q 43.65625 8.109375 52.734375 17.625 
Q 61.8125 27.15625 61.8125 44.484375 
Q 61.8125 54.984375 55.953125 59.890625 
Q 50.09375 64.796875 37.59375 64.796875 
z
" id="DejaVuSans-Oblique-68"/>
      <path d="M 60.296875 70.515625 
L 58.40625 60.890625 
Q 53.46875 63.53125 48.609375 64.875 
Q 43.75 66.21875 39.203125 66.21875 
Q 30.375 66.21875 25.140625 62.359375 
Q 19.921875 58.5 19.921875 52.09375 
Q 19.921875 48.578125 21.84375 46.703125 
Q 23.78125 44.828125 31.78125 42.671875 
L 37.703125 41.21875 
Q 47.703125 38.625 51.609375 34.640625 
Q 55.515625 30.671875 55.515625 23.484375 
Q 55.515625 12.453125 46.84375 5.515625 
Q 38.1875 -1.421875 24.03125 -1.421875 
Q 18.21875 -1.421875 12.359375 -0.265625 
Q 6.5 0.875 0.59375 3.21875 
L 2.59375 13.375 
Q 8.015625 10.015625 13.453125 8.296875 
Q 18.890625 6.59375 24.3125 6.59375 
Q 33.546875 6.59375 39.109375 10.6875 
Q 44.671875 14.796875 44.671875 21.390625 
Q 44.671875 25.78125 42.453125 28.046875 
Q 40.234375 30.328125 32.90625 32.171875 
L 27 33.6875 
Q 16.890625 36.328125 13.203125 39.765625 
Q 9.515625 43.21875 9.515625 49.421875 
Q 9.515625 60.296875 17.890625 67.25 
Q 26.265625 74.21875 39.703125 74.21875 
Q 44.921875 74.21875 50.046875 73.28125 
Q 55.171875 72.359375 60.296875 70.515625 
z
" id="DejaVuSans-Oblique-83"/>
      <path d="M 13.71875 72.90625 
L 23.6875 72.90625 
L 36.1875 46.578125 
L 58.796875 72.90625 
L 70.3125 72.90625 
L 40.28125 38.09375 
L 58.40625 0 
L 48.484375 0 
L 33.796875 30.71875 
L 7.171875 0 
L -4.296875 0 
L 29.78125 39.203125 
z
" id="DejaVuSans-Oblique-88"/>
      <path d="M 8.5 21.578125 
L 8.5 54.6875 
L 17.484375 54.6875 
L 17.484375 21.921875 
Q 17.484375 14.15625 20.5 10.265625 
Q 23.53125 6.390625 29.59375 6.390625 
Q 36.859375 6.390625 41.078125 11.03125 
Q 45.3125 15.671875 45.3125 23.6875 
L 45.3125 54.6875 
L 54.296875 54.6875 
L 54.296875 0 
L 45.3125 0 
L 45.3125 8.40625 
Q 42.046875 3.421875 37.71875 1 
Q 33.40625 -1.421875 27.6875 -1.421875 
Q 18.265625 -1.421875 13.375 4.4375 
Q 8.5 10.296875 8.5 21.578125 
z
M 31.109375 56 
z
" id="DejaVuSans-117"/>
      <path d="M 34.1875 63.1875 
L 20.796875 26.90625 
L 47.609375 26.90625 
z
M 28.609375 72.90625 
L 39.796875 72.90625 
L 67.578125 0 
L 57.328125 0 
L 50.6875 18.703125 
L 17.828125 18.703125 
L 11.1875 0 
L 0.78125 0 
z
" id="DejaVuSans-65"/>
     </defs>
     <g transform="translate(24.374375 196.85)rotate(-90)scale(0.12 -0.12)">
      <use transform="translate(0 0.015625)" xlink:href="#DejaVuSans-Oblique-73"/>
      <use transform="translate(29.492188 -16.390625)scale(0.7)" xlink:href="#DejaVuSans-Oblique-68"/>
      <use transform="translate(83.393555 -16.390625)scale(0.7)" xlink:href="#DejaVuSans-Oblique-83"/>
      <use transform="translate(127.827148 -16.390625)scale(0.7)" xlink:href="#DejaVuSans-Oblique-88"/>
      <use transform="translate(175.78125 -16.390625)scale(0.7)" xlink:href="#DejaVuSans-49"/>
      <use transform="translate(223.051758 0.015625)" xlink:href="#DejaVuSans-32"/>
      <use transform="translate(254.838867 0.015625)" xlink:href="#DejaVuSans-91"/>
      <use transform="translate(293.852539 0.015625)" xlink:href="#DejaVuSans-117"/>
      <use transform="translate(357.231445 0.015625)" xlink:href="#DejaVuSans-65"/>
      <use transform="translate(425.639648 0.015625)" xlink:href="#DejaVuSans-93"/>
     </g>
    </g>
   </g>
   <g id="line2d_33">
    <path clip-path="url(#p277b6a6b72)" d="M 80.430682 296.359091 
L 88.453409 296.359088 
L 96.476136 296.359081 
L 104.498864 296.35906 
L 112.521591 296.359003 
L 120.544318 296.358849 
L 128.567045 296.358448 
L 136.589773 296.357463 
L 144.6125 296.355237 
L 152.635227 296.350752 
L 160.657955 296.342909 
L 168.680682 296.331153 
L 176.703409 296.31595 
L 184.726136 296.29857 
L 192.748864 296.28041 
L 200.771591 296.262497 
L 208.794318 296.245387 
L 216.817045 296.229289 
L 224.839773 296.214216 
L 232.8625 296.200098 
L 240.885227 296.186837 
L 248.907955 296.17434 
L 256.930682 296.162524 
L 264.953409 296.151319 
L 272.976136 296.140668 
L 280.998864 296.130521 
L 289.021591 296.120838 
L 297.044318 296.111585 
L 305.067045 296.10273 
L 313.089773 296.094247 
L 321.1125 296.086111 
L 329.135227 296.078302 
L 337.157955 296.0708 
L 345.180682 296.063586 
L 353.203409 296.056644 
L 361.226136 296.049959 
L 369.248864 296.043517 
L 377.271591 296.037305 
L 385.294318 296.03131 
L 393.317045 296.025522 
L 401.339773 296.01993 
L 409.3625 296.014524 
L 417.385227 296.009295 
L 425.407955 296.004234 
L 433.430682 295.999334 
L 441.453409 295.994586 
L 449.476136 295.989985 
L 457.498864 295.985522 
L 465.521591 295.981193 
L 473.544318 295.976991 
" style="fill:none;stroke:#ff0000;stroke-linecap:square;stroke-width:2;"/>
   </g>
   <g id="line2d_34">
    <path clip-path="url(#p277b6a6b72)" d="M 80.430682 296.359054 
L 88.453409 296.358983 
L 96.476136 296.358782 
L 104.498864 296.358215 
L 112.521591 296.356628 
L 120.544318 296.352263 
L 128.567045 296.340557 
L 136.589773 296.310401 
L 144.6125 296.237178 
L 152.635227 296.073295 
L 160.657955 295.742222 
L 168.680682 295.146353 
L 176.703409 294.191506 
L 184.726136 292.814109 
L 192.748864 290.994267 
L 200.771591 288.753718 
L 208.794318 286.14921 
L 216.817045 283.267469 
L 224.839773 280.217389 
L 232.8625 277.112862 
L 240.885227 274.050294 
L 248.907955 271.093877 
L 256.930682 268.275287 
L 264.953409 265.602766 
L 272.976136 263.07153 
L 280.998864 260.671312 
L 289.021591 258.390587 
L 297.044318 256.218487 
L 305.067045 254.145448 
L 313.089773 252.163265 
L 321.1125 250.264931 
L 329.135227 248.444417 
L 337.157955 246.696476 
L 345.180682 245.016481 
L 353.203409 243.400305 
L 361.226136 241.844219 
L 369.248864 240.344834 
L 377.271591 238.899043 
L 385.294318 237.503981 
L 393.317045 236.156999 
L 401.339773 234.855639 
L 409.3625 233.597611 
L 417.385227 232.380781 
L 425.407955 231.203153 
L 433.430682 230.062861 
L 441.453409 228.958156 
L 449.476136 227.887396 
L 457.498864 226.84904 
L 465.521591 225.841639 
L 473.544318 224.863829 
" style="fill:none;stroke:#0000ff;stroke-linecap:square;stroke-width:2;"/>
   </g>
   <g id="line2d_35">
    <path clip-path="url(#p277b6a6b72)" d="M 80.430682 296.359053 
L 88.453409 296.35898 
L 96.476136 296.358774 
L 104.498864 296.358191 
L 112.521591 296.356561 
L 120.544318 296.352075 
L 128.567045 296.340047 
L 136.589773 296.30906 
L 144.6125 296.233812 
L 152.635227 296.065369 
L 160.657955 295.724983 
L 168.680682 295.111999 
L 176.703409 294.128596 
L 184.726136 292.706668 
L 192.748864 290.818897 
L 200.771591 288.472022 
L 208.794318 285.692864 
L 216.817045 282.516293 
L 224.839773 278.978034 
L 232.8625 275.111564 
L 240.885227 270.947693 
L 248.907955 266.516086 
L 256.930682 261.848828 
L 264.953409 256.986353 
L 272.976136 251.984477 
L 280.998864 246.917546 
L 289.021591 241.871156 
L 297.044318 236.925019 
L 305.067045 232.136848 
L 313.089773 227.537179 
L 321.1125 223.134477 
L 329.135227 218.923799 
L 337.157955 214.894019 
L 345.180682 211.032238 
L 353.203409 207.325947 
L 361.226136 203.76384 
L 369.248864 200.335966 
L 377.271591 197.033616 
L 385.294318 193.849126 
L 393.317045 190.775684 
L 401.339773 187.807172 
L 409.3625 184.938038 
L 417.385227 182.163198 
L 425.407955 179.477967 
L 433.430682 176.878003 
L 441.453409 174.359261 
L 449.476136 171.917967 
L 457.498864 169.550584 
L 465.521591 167.253796 
L 473.544318 165.024483 
" style="fill:none;stroke:#008000;stroke-linecap:square;stroke-width:2;"/>
   </g>
   <g id="line2d_36">
    <path clip-path="url(#p277b6a6b72)" d="M 80.430682 296.359052 
L 88.453409 296.358977 
L 96.476136 296.358765 
L 104.498864 296.358167 
L 112.521591 296.356494 
L 120.544318 296.351891 
L 128.567045 296.339547 
L 136.589773 296.307745 
L 144.6125 296.230517 
L 152.635227 296.057645 
L 160.657955 295.708306 
L 168.680682 295.079201 
L 176.703409 294.069935 
L 184.726136 292.610609 
L 192.748864 290.673182 
L 200.771591 288.264559 
L 208.794318 285.412233 
L 216.817045 282.151901 
L 224.839773 278.519983 
L 232.8625 274.550176 
L 240.885227 270.272379 
L 248.907955 265.71272 
L 256.930682 260.894003 
L 264.953409 255.836237 
L 272.976136 250.557141 
L 280.998864 245.072592 
L 289.021591 239.397099 
L 297.044318 233.544454 
L 305.067045 227.52891 
L 313.089773 221.367511 
L 321.1125 215.084306 
L 329.135227 208.716292 
L 337.157955 202.317987 
L 345.180682 195.958673 
L 353.203409 189.709536 
L 361.226136 183.627574 
L 369.248864 177.746823 
L 377.271591 172.0799 
L 385.294318 166.624977 
L 393.317045 161.372771 
L 401.339773 156.311273 
L 409.3625 151.428272 
L 417.385227 146.712426 
L 425.407955 142.153566 
L 433.430682 137.742669 
L 441.453409 133.471704 
L 449.476136 129.333464 
L 457.498864 125.321419 
L 465.521591 121.429591 
L 473.544318 117.652467 
" style="fill:none;stroke:#00bfbf;stroke-linecap:square;stroke-width:2;"/>
   </g>
   <g id="line2d_37">
    <path clip-path="url(#p277b6a6b72)" d="M 80.430682 296.359051 
L 88.453409 296.358974 
L 96.476136 296.358757 
L 104.498864 296.358143 
L 112.521591 296.356427 
L 120.544318 296.351706 
L 128.567045 296.339046 
L 136.589773 296.306429 
L 144.6125 296.227222 
L 152.635227 296.04992 
L 160.657955 295.69163 
L 168.680682 295.046405 
L 176.703409 294.011276 
L 184.726136 292.514556 
L 192.748864 290.527483 
L 200.771591 288.05714 
L 208.794318 285.131724 
L 216.817045 281.787847 
L 224.839773 278.062862 
L 232.8625 273.99133 
L 240.885227 269.603915 
L 248.907955 264.92741 
L 256.930682 259.985198 
L 264.953409 254.797781 
L 272.976136 249.383277 
L 280.998864 243.75782 
L 289.021591 237.935886 
L 297.044318 231.930542 
L 305.067045 225.753651 
L 313.089773 219.416028 
L 321.1125 212.927578 
L 329.135227 206.297409 
L 337.157955 199.533963 
L 345.180682 192.645188 
L 353.203409 185.638868 
L 361.226136 178.523325 
L 369.248864 171.30898 
L 377.271591 164.011428 
L 385.294318 156.65636 
L 393.317045 149.284699 
L 401.339773 141.953124 
L 409.3625 134.725545 
L 417.385227 127.658439 
L 425.407955 120.789703 
L 433.430682 114.13683 
L 441.453409 107.701953 
L 449.476136 101.478427 
L 457.498864 95.45583 
L 465.521591 89.622869 
L 473.544318 83.968731 
" style="fill:none;stroke:#bf00bf;stroke-linecap:square;stroke-width:2;"/>
   </g>
   <g id="line2d_38">
    <path clip-path="url(#p277b6a6b72)" d="M 80.430682 296.35905 
L 88.453409 296.358972 
L 96.476136 296.358749 
L 104.498864 296.35812 
L 112.521591 296.356361 
L 120.544318 296.351521 
L 128.567045 296.338545 
L 136.589773 296.305113 
L 144.6125 296.223927 
L 152.635227 296.042196 
L 160.657955 295.674954 
L 168.680682 295.013608 
L 176.703409 293.952617 
L 184.726136 292.418502 
L 192.748864 290.381784 
L 200.771591 287.849721 
L 208.794318 284.851215 
L 216.817045 281.423794 
L 224.839773 277.605742 
L 232.8625 273.432486 
L 240.885227 268.935453 
L 248.907955 264.142109 
L 256.930682 259.076418 
L 264.953409 253.759398 
L 272.976136 248.209615 
L 280.998864 242.44361 
L 289.021591 236.476217 
L 297.044318 230.320833 
L 305.067045 223.989612 
L 313.089773 217.493638 
L 321.1125 210.843048 
L 329.135227 204.047146 
L 337.157955 197.114491 
L 345.180682 190.052976 
L 353.203409 182.869893 
L 361.226136 175.571991 
L 369.248864 168.165529 
L 377.271591 160.656323 
L 385.294318 153.049795 
L 393.317045 145.351032 
L 401.339773 137.564879 
L 409.3625 129.696143 
L 417.385227 121.750049 
L 425.407955 113.733303 
L 433.430682 105.656328 
L 441.453409 97.537215 
L 449.476136 89.406735 
L 457.498864 81.310982 
L 465.521591 73.306713 
L 473.544318 65.449098 
" style="fill:none;stroke:#bfbf00;stroke-linecap:square;stroke-width:2;"/>
   </g>
   <g id="line2d_39">
    <path clip-path="url(#p277b6a6b72)" d="M 80.430682 296.359049 
L 88.453409 296.358969 
L 96.476136 296.35874 
L 104.498864 296.358096 
L 112.521591 296.356294 
L 120.544318 296.351337 
L 128.567045 296.338044 
L 136.589773 296.303797 
L 144.6125 296.220633 
L 152.635227 296.034471 
L 160.657955 295.658278 
L 168.680682 294.980811 
L 176.703409 293.893959 
L 184.726136 292.322449 
L 192.748864 290.236085 
L 200.771591 287.642301 
L 208.794318 284.570706 
L 216.817045 281.059741 
L 224.839773 277.148622 
L 232.8625 272.873641 
L 240.885227 268.266992 
L 248.907955 263.356808 
L 256.930682 258.167639 
L 264.953409 252.721014 
L 272.976136 247.035954 
L 280.998864 241.1294 
L 289.021591 235.01655 
L 297.044318 228.711125 
L 305.067045 222.225579 
L 313.089773 215.571263 
L 321.1125 208.758562 
L 329.135227 201.797008 
L 337.157955 194.695367 
L 345.180682 187.461725 
L 353.203409 180.10355 
L 361.226136 172.627757 
L 369.248864 165.040753 
L 377.271591 157.348489 
L 385.294318 149.556498 
L 393.317045 141.66993 
L 401.339773 133.693589 
L 409.3625 125.631957 
L 417.385227 117.489223 
L 425.407955 109.269307 
L 433.430682 100.975884 
L 441.453409 92.612409 
L 449.476136 84.182148 
L 457.498864 75.688238 
L 465.521591 67.133812 
L 473.544318 58.522302 
" style="fill:none;stroke:#000000;stroke-linecap:square;stroke-width:2;"/>
   </g>
   <g id="line2d_40">
    <path clip-path="url(#p277b6a6b72)" d="M 80.430682 296.359048 
L 88.453409 296.358966 
L 96.476136 296.358732 
L 104.498864 296.358072 
L 112.521591 296.356228 
L 120.544318 296.351152 
L 128.567045 296.337543 
L 136.589773 296.302482 
L 144.6125 296.217338 
L 152.635227 296.026747 
L 160.657955 295.641602 
L 168.680682 294.948014 
L 176.703409 293.8353 
L 184.726136 292.226396 
L 192.748864 290.090386 
L 200.771591 287.434882 
L 208.794318 284.290198 
L 216.817045 280.695687 
L 224.839773 276.691503 
L 232.8625 272.314797 
L 240.885227 267.59853 
L 248.907955 262.571507 
L 256.930682 257.25886 
L 264.953409 251.682631 
L 272.976136 245.862293 
L 280.998864 239.81519 
L 289.021591 233.556883 
L 297.044318 227.101418 
L 305.067045 220.461546 
L 313.089773 213.648888 
L 321.1125 206.674077 
L 329.135227 199.54687 
L 337.157955 192.276243 
L 345.180682 184.870474 
L 353.203409 177.337209 
L 361.226136 169.683526 
L 369.248864 161.915986 
L 377.271591 154.040682 
L 385.294318 146.063278 
L 393.317045 137.989047 
L 401.339773 129.822906 
L 409.3625 121.569444 
L 417.385227 113.232949 
L 425.407955 104.817433 
L 433.430682 96.326653 
L 441.453409 87.764134 
L 449.476136 79.133181 
L 457.498864 70.4369 
L 465.521591 61.678214 
L 473.544318 52.859871 
" style="fill:none;stroke:#ff0000;stroke-linecap:square;stroke-width:2;"/>
   </g>
   <g id="line2d_41">
    <path clip-path="url(#p277b6a6b72)" d="M 80.430682 296.359047 
L 88.453409 296.358963 
L 96.476136 296.358724 
L 104.498864 296.358049 
L 112.521591 296.356161 
L 120.544318 296.350968 
L 128.567045 296.337042 
L 136.589773 296.301166 
L 144.6125 296.214043 
L 152.635227 296.019022 
L 160.657955 295.624926 
L 168.680682 294.915218 
L 176.703409 293.776641 
L 184.726136 292.130342 
L 192.748864 289.944687 
L 200.771591 287.227463 
L 208.794318 284.009689 
L 216.817045 280.331634 
L 224.839773 276.234383 
L 232.8625 271.755952 
L 240.885227 266.930069 
L 248.907955 261.786206 
L 256.930682 256.350081 
L 264.953409 250.644247 
L 272.976136 244.688631 
L 280.998864 238.50098 
L 289.021591 232.097215 
L 297.044318 225.491711 
L 305.067045 218.697513 
L 313.089773 211.726513 
L 321.1125 204.589591 
L 329.135227 197.296732 
L 337.157955 189.857119 
L 345.180682 182.279222 
L 353.203409 174.570867 
L 361.226136 166.739295 
L 369.248864 158.79122 
L 377.271591 150.732876 
L 385.294318 142.570059 
L 393.317045 134.308164 
L 401.339773 125.952223 
L 409.3625 117.506932 
L 417.385227 108.976677 
L 425.407955 100.365565 
L 433.430682 91.677441 
L 441.453409 82.915909 
L 449.476136 74.084352 
L 457.498864 65.18595 
L 465.521591 56.223691 
L 473.544318 47.200389 
" style="fill:none;stroke:#0000ff;stroke-linecap:square;stroke-width:2;"/>
   </g>
   <g id="line2d_42">
    <path clip-path="url(#p277b6a6b72)" d="M 80.430682 296.359046 
L 88.453409 296.35896 
L 96.476136 296.358715 
L 104.498864 296.358025 
L 112.521591 296.356095 
L 120.544318 296.350783 
L 128.567045 296.336541 
L 136.589773 296.29985 
L 144.6125 296.210749 
L 152.635227 296.011298 
L 160.657955 295.60825 
L 168.680682 294.882421 
L 176.703409 293.717982 
L 184.726136 292.034289 
L 192.748864 289.798988 
L 200.771591 287.020044 
L 208.794318 283.72918 
L 216.817045 279.96758 
L 224.839773 275.777263 
L 232.8625 271.197107 
L 240.885227 266.261607 
L 248.907955 261.000905 
L 256.930682 255.441302 
L 264.953409 249.605864 
L 272.976136 243.51497 
L 280.998864 237.18677 
L 289.021591 230.637548 
L 297.044318 223.882004 
L 305.067045 216.93348 
L 313.089773 209.804138 
L 321.1125 202.505106 
L 329.135227 195.046594 
L 337.157955 187.437995 
L 345.180682 179.687971 
L 353.203409 171.804526 
L 361.226136 163.795064 
L 369.248864 155.666454 
L 377.271591 147.42507 
L 385.294318 139.076839 
L 393.317045 130.627281 
L 401.339773 122.08154 
L 409.3625 113.444419 
L 417.385227 104.720406 
L 425.407955 95.913698 
L 433.430682 87.028228 
L 441.453409 78.067683 
L 449.476136 69.035524 
L 457.498864 59.935 
L 465.521591 50.769169 
L 473.544318 41.540909 
" style="fill:none;stroke:#008000;stroke-linecap:square;stroke-width:2;"/>
   </g>
   <g id="patch_3">
    <path d="M 60.775 309.1 
L 60.775 28.8 
" style="fill:none;stroke:#000000;stroke-linecap:square;stroke-linejoin:miter;stroke-width:0.8;"/>
   </g>
   <g id="patch_4">
    <path d="M 493.2 309.1 
L 493.2 28.8 
" style="fill:none;stroke:#000000;stroke-linecap:square;stroke-linejoin:miter;stroke-width:0.8;"/>
   </g>
   <g id="patch_5">
    <path d="M 60.775 309.1 
L 493.2 309.1 
" style="fill:none;stroke:#000000;stroke-linecap:square;stroke-linejoin:miter;stroke-width:0.8;"/>
   </g>
   <g id="patch_6">
    <path d="M 60.775 28.8 
L 493.2 28.8 
" style="fill:none;stroke:#000000;stroke-linecap:square;stroke-linejoin:miter;stroke-width:0.8;"/>
   </g>
   <g id="text_19">
    <!-- $I_{ds}(V_{gs})$ -->
    <defs>
     <path d="M 41.796875 8.203125 
Q 38.1875 3.46875 33.25 1.015625 
Q 28.328125 -1.421875 22.3125 -1.421875 
Q 14.109375 -1.421875 9.34375 4.171875 
Q 4.59375 9.765625 4.59375 19.484375 
Q 4.59375 27.59375 7.46875 34.9375 
Q 10.359375 42.28125 15.828125 48.09375 
Q 19.4375 51.953125 23.96875 53.96875 
Q 28.515625 56 33.5 56 
Q 38.765625 56 42.796875 53.453125 
Q 46.828125 50.921875 49.03125 46.1875 
L 54.890625 75.984375 
L 63.921875 75.984375 
L 49.125 0 
L 40.09375 0 
z
M 13.921875 21.09375 
Q 13.921875 14.015625 17.109375 10.0625 
Q 20.3125 6.109375 25.984375 6.109375 
Q 30.171875 6.109375 33.765625 8.125 
Q 37.359375 10.15625 40.09375 14.109375 
Q 42.96875 18.21875 44.625 23.578125 
Q 46.296875 28.953125 46.296875 34.1875 
Q 46.296875 40.96875 43.09375 44.765625 
Q 39.890625 48.578125 34.28125 48.578125 
Q 30.03125 48.578125 26.359375 46.578125 
Q 22.703125 44.578125 20.125 40.828125 
Q 17.28125 36.765625 15.59375 31.390625 
Q 13.921875 26.03125 13.921875 21.09375 
z
" id="DejaVuSans-Oblique-100"/>
     <path d="M 50 53.078125 
L 48.296875 44.578125 
Q 44.734375 46.53125 40.765625 47.5 
Q 36.8125 48.484375 32.625 48.484375 
Q 25.53125 48.484375 21.453125 46.0625 
Q 17.390625 43.65625 17.390625 39.5 
Q 17.390625 34.671875 26.859375 32.078125 
Q 27.59375 31.890625 27.9375 31.78125 
L 30.8125 30.90625 
Q 39.796875 28.421875 42.796875 25.6875 
Q 45.796875 22.953125 45.796875 18.21875 
Q 45.796875 9.515625 38.890625 4.046875 
Q 31.984375 -1.421875 20.796875 -1.421875 
Q 16.453125 -1.421875 11.671875 -0.578125 
Q 6.890625 0.25 1.125 2 
L 2.875 11.28125 
Q 7.8125 8.734375 12.59375 7.421875 
Q 17.390625 6.109375 21.78125 6.109375 
Q 28.375 6.109375 32.5 8.9375 
Q 36.625 11.765625 36.625 16.109375 
Q 36.625 20.796875 25.78125 23.6875 
L 24.859375 23.921875 
L 21.78125 24.703125 
Q 14.9375 26.515625 11.765625 29.46875 
Q 8.59375 32.421875 8.59375 37.015625 
Q 8.59375 45.75 15.15625 50.875 
Q 21.734375 56 33.015625 56 
Q 37.453125 56 41.671875 55.265625 
Q 45.90625 54.546875 50 53.078125 
z
" id="DejaVuSans-Oblique-115"/>
     <path d="M 31 75.875 
Q 24.46875 64.65625 21.28125 53.65625 
Q 18.109375 42.671875 18.109375 31.390625 
Q 18.109375 20.125 21.3125 9.0625 
Q 24.515625 -2 31 -13.1875 
L 23.1875 -13.1875 
Q 15.875 -1.703125 12.234375 9.375 
Q 8.59375 20.453125 8.59375 31.390625 
Q 8.59375 42.28125 12.203125 53.3125 
Q 15.828125 64.359375 23.1875 75.875 
z
" id="DejaVuSans-40"/>
     <path d="M 59.625 54.6875 
L 50.296875 6.78125 
Q 47.609375 -7.125 40.015625 -13.953125 
Q 32.421875 -20.796875 19.578125 -20.796875 
Q 14.84375 -20.796875 10.78125 -20.09375 
Q 6.734375 -19.390625 3.21875 -17.921875 
L 4.890625 -9.1875 
Q 8.203125 -11.328125 11.90625 -12.34375 
Q 15.625 -13.375 19.828125 -13.375 
Q 28.375 -13.375 33.859375 -8.703125 
Q 39.359375 -4.046875 41.109375 4.6875 
L 41.890625 8.796875 
Q 38.140625 4.5 33.15625 2.25 
Q 28.171875 0 22.40625 0 
Q 14.109375 0 9.34375 5.484375 
Q 4.59375 10.984375 4.59375 20.609375 
Q 4.59375 28.171875 7.46875 35.421875 
Q 10.359375 42.671875 15.578125 48.296875 
Q 19.046875 52 23.65625 54 
Q 28.265625 56 33.296875 56 
Q 38.8125 56 42.90625 53.4375 
Q 47.015625 50.875 49.03125 46.1875 
L 50.59375 54.6875 
z
M 46.09375 34.625 
Q 46.09375 41.265625 42.96875 44.875 
Q 39.84375 48.484375 34.078125 48.484375 
Q 30.515625 48.484375 27.296875 47.0625 
Q 24.078125 45.65625 21.78125 43.109375 
Q 18.0625 38.921875 15.984375 33.234375 
Q 13.921875 27.546875 13.921875 21.484375 
Q 13.921875 14.75 17.0625 11.125 
Q 20.21875 7.515625 26.125 7.515625 
Q 34.671875 7.515625 40.375 15.25 
Q 46.09375 23 46.09375 34.625 
z
" id="DejaVuSans-Oblique-103"/>
     <path d="M 8.015625 75.875 
L 15.828125 75.875 
Q 23.140625 64.359375 26.78125 53.3125 
Q 30.421875 42.28125 30.421875 31.390625 
Q 30.421875 20.453125 26.78125 9.375 
Q 23.140625 -1.703125 15.828125 -13.1875 
L 8.015625 -13.1875 
Q 14.5 -2 17.703125 9.0625 
Q 20.90625 20.125 20.90625 31.390625 
Q 20.90625 42.671875 17.703125 53.65625 
Q 14.5 64.65625 8.015625 75.875 
z
" id="DejaVuSans-41"/>
    </defs>
    <g transform="translate(256.3475 22.8)scale(0.12 -0.12)">
     <use transform="translate(0 0.125)" xlink:href="#DejaVuSans-Oblique-73"/>
     <use transform="translate(29.492188 -16.28125)scale(0.7)" xlink:href="#DejaVuSans-Oblique-100"/>
     <use transform="translate(73.925781 -16.28125)scale(0.7)" xlink:href="#DejaVuSans-Oblique-115"/>
     <use transform="translate(113.129883 0.125)" xlink:href="#DejaVuSans-40"/>
     <use transform="translate(152.143555 0.125)" xlink:href="#DejaVuSans-Oblique-86"/>
     <use transform="translate(220.551758 -16.28125)scale(0.7)" xlink:href="#DejaVuSans-Oblique-103"/>
     <use transform="translate(264.985352 -16.28125)scale(0.7)" xlink:href="#DejaVuSans-Oblique-115"/>
     <use transform="translate(304.189453 0.125)" xlink:href="#DejaVuSans-41"/>
    </g>
   </g>
   <g id="legend_1">
    <g id="patch_7">
     <path d="M 67.775 153.9375 
L 168.095 153.9375 
Q 170.095 153.9375 170.095 151.9375 
L 170.095 35.8 
Q 170.095 33.8 168.095 33.8 
L 67.775 33.8 
Q 65.775 33.8 65.775 35.8 
L 65.775 151.9375 
Q 65.775 153.9375 67.775 153.9375 
z
" style="fill:#ffffff;opacity:0.8;stroke:#cccccc;stroke-linejoin:miter;"/>
    </g>
    <g id="line2d_43">
     <path d="M 67.775 41.418125 
L 77.775 41.418125 
" style="fill:none;stroke:#ff0000;stroke-linecap:square;stroke-width:2;"/>
    </g>
    <g id="line2d_44"/>
    <g id="text_20">
     <!-- $V_{D}$ =  1.0e-03 -->
     <defs>
      <path d="M 10.59375 45.40625 
L 73.1875 45.40625 
L 73.1875 37.203125 
L 10.59375 37.203125 
z
M 10.59375 25.484375 
L 73.1875 25.484375 
L 73.1875 17.1875 
L 10.59375 17.1875 
z
" id="DejaVuSans-61"/>
      <path d="M 56.203125 29.59375 
L 56.203125 25.203125 
L 14.890625 25.203125 
Q 15.484375 15.921875 20.484375 11.0625 
Q 25.484375 6.203125 34.421875 6.203125 
Q 39.59375 6.203125 44.453125 7.46875 
Q 49.3125 8.734375 54.109375 11.28125 
L 54.109375 2.78125 
Q 49.265625 0.734375 44.1875 -0.34375 
Q 39.109375 -1.421875 33.890625 -1.421875 
Q 20.796875 -1.421875 13.15625 6.1875 
Q 5.515625 13.8125 5.515625 26.8125 
Q 5.515625 40.234375 12.765625 48.109375 
Q 20.015625 56 32.328125 56 
Q 43.359375 56 49.78125 48.890625 
Q 56.203125 41.796875 56.203125 29.59375 
z
M 47.21875 32.234375 
Q 47.125 39.59375 43.09375 43.984375 
Q 39.0625 48.390625 32.421875 48.390625 
Q 24.90625 48.390625 20.390625 44.140625 
Q 15.875 39.890625 15.1875 32.171875 
z
" id="DejaVuSans-101"/>
      <path d="M 4.890625 31.390625 
L 31.203125 31.390625 
L 31.203125 23.390625 
L 4.890625 23.390625 
z
" id="DejaVuSans-45"/>
      <path d="M 40.578125 39.3125 
Q 47.65625 37.796875 51.625 33 
Q 55.609375 28.21875 55.609375 21.1875 
Q 55.609375 10.40625 48.1875 4.484375 
Q 40.765625 -1.421875 27.09375 -1.421875 
Q 22.515625 -1.421875 17.65625 -0.515625 
Q 12.796875 0.390625 7.625 2.203125 
L 7.625 11.71875 
Q 11.71875 9.328125 16.59375 8.109375 
Q 21.484375 6.890625 26.8125 6.890625 
Q 36.078125 6.890625 40.9375 10.546875 
Q 45.796875 14.203125 45.796875 21.1875 
Q 45.796875 27.640625 41.28125 31.265625 
Q 36.765625 34.90625 28.71875 34.90625 
L 20.21875 34.90625 
L 20.21875 43.015625 
L 29.109375 43.015625 
Q 36.375 43.015625 40.234375 45.921875 
Q 44.09375 48.828125 44.09375 54.296875 
Q 44.09375 59.90625 40.109375 62.90625 
Q 36.140625 65.921875 28.71875 65.921875 
Q 24.65625 65.921875 20.015625 65.03125 
Q 15.375 64.15625 9.8125 62.3125 
L 9.8125 71.09375 
Q 15.4375 72.65625 20.34375 73.4375 
Q 25.25 74.21875 29.59375 74.21875 
Q 40.828125 74.21875 47.359375 69.109375 
Q 53.90625 64.015625 53.90625 55.328125 
Q 53.90625 49.265625 50.4375 45.09375 
Q 46.96875 40.921875 40.578125 39.3125 
z
" id="DejaVuSans-51"/>
     </defs>
     <g transform="translate(79.775 44.918125)scale(0.12 -0.12)">
      <use transform="translate(0 0.78125)" xlink:href="#DejaVuSans-Oblique-86"/>
      <use transform="translate(68.408203 -15.625)scale(0.7)" xlink:href="#DejaVuSans-Oblique-68"/>
      <use transform="translate(125.043945 0.78125)" xlink:href="#DejaVuSans-32"/>
      <use transform="translate(156.831055 0.78125)" xlink:href="#DejaVuSans-61"/>
      <use transform="translate(240.620117 0.78125)" xlink:href="#DejaVuSans-32"/>
      <use transform="translate(272.407227 0.78125)" xlink:href="#DejaVuSans-32"/>
      <use transform="translate(304.194336 0.78125)" xlink:href="#DejaVuSans-49"/>
      <use transform="translate(367.817383 0.78125)" xlink:href="#DejaVuSans-46"/>
      <use transform="translate(399.604492 0.78125)" xlink:href="#DejaVuSans-48"/>
      <use transform="translate(463.227539 0.78125)" xlink:href="#DejaVuSans-101"/>
      <use transform="translate(524.750977 0.78125)" xlink:href="#DejaVuSans-45"/>
      <use transform="translate(560.834961 0.78125)" xlink:href="#DejaVuSans-48"/>
      <use transform="translate(624.458008 0.78125)" xlink:href="#DejaVuSans-51"/>
     </g>
    </g>
    <g id="line2d_45">
     <path d="M 67.775 53.031875 
L 77.775 53.031875 
" style="fill:none;stroke:#0000ff;stroke-linecap:square;stroke-width:2;"/>
    </g>
    <g id="line2d_46"/>
    <g id="text_21">
     <!-- $V_{D}$ =  2.0e-01 -->
     <g transform="translate(79.775 56.531875)scale(0.12 -0.12)">
      <use transform="translate(0 0.78125)" xlink:href="#DejaVuSans-Oblique-86"/>
      <use transform="translate(68.408203 -15.625)scale(0.7)" xlink:href="#DejaVuSans-Oblique-68"/>
      <use transform="translate(125.043945 0.78125)" xlink:href="#DejaVuSans-32"/>
      <use transform="translate(156.831055 0.78125)" xlink:href="#DejaVuSans-61"/>
      <use transform="translate(240.620117 0.78125)" xlink:href="#DejaVuSans-32"/>
      <use transform="translate(272.407227 0.78125)" xlink:href="#DejaVuSans-32"/>
      <use transform="translate(304.194336 0.78125)" xlink:href="#DejaVuSans-50"/>
      <use transform="translate(367.817383 0.78125)" xlink:href="#DejaVuSans-46"/>
      <use transform="translate(399.604492 0.78125)" xlink:href="#DejaVuSans-48"/>
      <use transform="translate(463.227539 0.78125)" xlink:href="#DejaVuSans-101"/>
      <use transform="translate(524.750977 0.78125)" xlink:href="#DejaVuSans-45"/>
      <use transform="translate(560.834961 0.78125)" xlink:href="#DejaVuSans-48"/>
      <use transform="translate(624.458008 0.78125)" xlink:href="#DejaVuSans-49"/>
     </g>
    </g>
    <g id="line2d_47">
     <path d="M 67.775 64.645625 
L 77.775 64.645625 
" style="fill:none;stroke:#008000;stroke-linecap:square;stroke-width:2;"/>
    </g>
    <g id="line2d_48"/>
    <g id="text_22">
     <!-- $V_{D}$ =  4.0e-01 -->
     <defs>
      <path d="M 37.796875 64.3125 
L 12.890625 25.390625 
L 37.796875 25.390625 
z
M 35.203125 72.90625 
L 47.609375 72.90625 
L 47.609375 25.390625 
L 58.015625 25.390625 
L 58.015625 17.1875 
L 47.609375 17.1875 
L 47.609375 0 
L 37.796875 0 
L 37.796875 17.1875 
L 4.890625 17.1875 
L 4.890625 26.703125 
z
" id="DejaVuSans-52"/>
     </defs>
     <g transform="translate(79.775 68.145625)scale(0.12 -0.12)">
      <use transform="translate(0 0.78125)" xlink:href="#DejaVuSans-Oblique-86"/>
      <use transform="translate(68.408203 -15.625)scale(0.7)" xlink:href="#DejaVuSans-Oblique-68"/>
      <use transform="translate(125.043945 0.78125)" xlink:href="#DejaVuSans-32"/>
      <use transform="translate(156.831055 0.78125)" xlink:href="#DejaVuSans-61"/>
      <use transform="translate(240.620117 0.78125)" xlink:href="#DejaVuSans-32"/>
      <use transform="translate(272.407227 0.78125)" xlink:href="#DejaVuSans-32"/>
      <use transform="translate(304.194336 0.78125)" xlink:href="#DejaVuSans-52"/>
      <use transform="translate(367.817383 0.78125)" xlink:href="#DejaVuSans-46"/>
      <use transform="translate(399.604492 0.78125)" xlink:href="#DejaVuSans-48"/>
      <use transform="translate(463.227539 0.78125)" xlink:href="#DejaVuSans-101"/>
      <use transform="translate(524.750977 0.78125)" xlink:href="#DejaVuSans-45"/>
      <use transform="translate(560.834961 0.78125)" xlink:href="#DejaVuSans-48"/>
      <use transform="translate(624.458008 0.78125)" xlink:href="#DejaVuSans-49"/>
     </g>
    </g>
    <g id="line2d_49">
     <path d="M 67.775 76.259375 
L 77.775 76.259375 
" style="fill:none;stroke:#00bfbf;stroke-linecap:square;stroke-width:2;"/>
    </g>
    <g id="line2d_50"/>
    <g id="text_23">
     <!-- $V_{D}$ =  6.0e-01 -->
     <defs>
      <path d="M 33.015625 40.375 
Q 26.375 40.375 22.484375 35.828125 
Q 18.609375 31.296875 18.609375 23.390625 
Q 18.609375 15.53125 22.484375 10.953125 
Q 26.375 6.390625 33.015625 6.390625 
Q 39.65625 6.390625 43.53125 10.953125 
Q 47.40625 15.53125 47.40625 23.390625 
Q 47.40625 31.296875 43.53125 35.828125 
Q 39.65625 40.375 33.015625 40.375 
z
M 52.59375 71.296875 
L 52.59375 62.3125 
Q 48.875 64.0625 45.09375 64.984375 
Q 41.3125 65.921875 37.59375 65.921875 
Q 27.828125 65.921875 22.671875 59.328125 
Q 17.53125 52.734375 16.796875 39.40625 
Q 19.671875 43.65625 24.015625 45.921875 
Q 28.375 48.1875 33.59375 48.1875 
Q 44.578125 48.1875 50.953125 41.515625 
Q 57.328125 34.859375 57.328125 23.390625 
Q 57.328125 12.15625 50.6875 5.359375 
Q 44.046875 -1.421875 33.015625 -1.421875 
Q 20.359375 -1.421875 13.671875 8.265625 
Q 6.984375 17.96875 6.984375 36.375 
Q 6.984375 53.65625 15.1875 63.9375 
Q 23.390625 74.21875 37.203125 74.21875 
Q 40.921875 74.21875 44.703125 73.484375 
Q 48.484375 72.75 52.59375 71.296875 
z
" id="DejaVuSans-54"/>
     </defs>
     <g transform="translate(79.775 79.759375)scale(0.12 -0.12)">
      <use transform="translate(0 0.78125)" xlink:href="#DejaVuSans-Oblique-86"/>
      <use transform="translate(68.408203 -15.625)scale(0.7)" xlink:href="#DejaVuSans-Oblique-68"/>
      <use transform="translate(125.043945 0.78125)" xlink:href="#DejaVuSans-32"/>
      <use transform="translate(156.831055 0.78125)" xlink:href="#DejaVuSans-61"/>
      <use transform="translate(240.620117 0.78125)" xlink:href="#DejaVuSans-32"/>
      <use transform="translate(272.407227 0.78125)" xlink:href="#DejaVuSans-32"/>
      <use transform="translate(304.194336 0.78125)" xlink:href="#DejaVuSans-54"/>
      <use transform="translate(367.817383 0.78125)" xlink:href="#DejaVuSans-46"/>
      <use transform="translate(399.604492 0.78125)" xlink:href="#DejaVuSans-48"/>
      <use transform="translate(463.227539 0.78125)" xlink:href="#DejaVuSans-101"/>
      <use transform="translate(524.750977 0.78125)" xlink:href="#DejaVuSans-45"/>
      <use transform="translate(560.834961 0.78125)" xlink:href="#DejaVuSans-48"/>
      <use transform="translate(624.458008 0.78125)" xlink:href="#DejaVuSans-49"/>
     </g>
    </g>
    <g id="line2d_51">
     <path d="M 67.775 87.873125 
L 77.775 87.873125 
" style="fill:none;stroke:#bf00bf;stroke-linecap:square;stroke-width:2;"/>
    </g>
    <g id="line2d_52"/>
    <g id="text_24">
     <!-- $V_{D}$ =  8.0e-01 -->
     <defs>
      <path d="M 31.78125 34.625 
Q 24.75 34.625 20.71875 30.859375 
Q 16.703125 27.09375 16.703125 20.515625 
Q 16.703125 13.921875 20.71875 10.15625 
Q 24.75 6.390625 31.78125 6.390625 
Q 38.8125 6.390625 42.859375 10.171875 
Q 46.921875 13.96875 46.921875 20.515625 
Q 46.921875 27.09375 42.890625 30.859375 
Q 38.875 34.625 31.78125 34.625 
z
M 21.921875 38.8125 
Q 15.578125 40.375 12.03125 44.71875 
Q 8.5 49.078125 8.5 55.328125 
Q 8.5 64.0625 14.71875 69.140625 
Q 20.953125 74.21875 31.78125 74.21875 
Q 42.671875 74.21875 48.875 69.140625 
Q 55.078125 64.0625 55.078125 55.328125 
Q 55.078125 49.078125 51.53125 44.71875 
Q 48 40.375 41.703125 38.8125 
Q 48.828125 37.15625 52.796875 32.3125 
Q 56.78125 27.484375 56.78125 20.515625 
Q 56.78125 9.90625 50.3125 4.234375 
Q 43.84375 -1.421875 31.78125 -1.421875 
Q 19.734375 -1.421875 13.25 4.234375 
Q 6.78125 9.90625 6.78125 20.515625 
Q 6.78125 27.484375 10.78125 32.3125 
Q 14.796875 37.15625 21.921875 38.8125 
z
M 18.3125 54.390625 
Q 18.3125 48.734375 21.84375 45.5625 
Q 25.390625 42.390625 31.78125 42.390625 
Q 38.140625 42.390625 41.71875 45.5625 
Q 45.3125 48.734375 45.3125 54.390625 
Q 45.3125 60.0625 41.71875 63.234375 
Q 38.140625 66.40625 31.78125 66.40625 
Q 25.390625 66.40625 21.84375 63.234375 
Q 18.3125 60.0625 18.3125 54.390625 
z
" id="DejaVuSans-56"/>
     </defs>
     <g transform="translate(79.775 91.373125)scale(0.12 -0.12)">
      <use transform="translate(0 0.78125)" xlink:href="#DejaVuSans-Oblique-86"/>
      <use transform="translate(68.408203 -15.625)scale(0.7)" xlink:href="#DejaVuSans-Oblique-68"/>
      <use transform="translate(125.043945 0.78125)" xlink:href="#DejaVuSans-32"/>
      <use transform="translate(156.831055 0.78125)" xlink:href="#DejaVuSans-61"/>
      <use transform="translate(240.620117 0.78125)" xlink:href="#DejaVuSans-32"/>
      <use transform="translate(272.407227 0.78125)" xlink:href="#DejaVuSans-32"/>
      <use transform="translate(304.194336 0.78125)" xlink:href="#DejaVuSans-56"/>
      <use transform="translate(367.817383 0.78125)" xlink:href="#DejaVuSans-46"/>
      <use transform="translate(399.604492 0.78125)" xlink:href="#DejaVuSans-48"/>
      <use transform="translate(463.227539 0.78125)" xlink:href="#DejaVuSans-101"/>
      <use transform="translate(524.750977 0.78125)" xlink:href="#DejaVuSans-45"/>
      <use transform="translate(560.834961 0.78125)" xlink:href="#DejaVuSans-48"/>
      <use transform="translate(624.458008 0.78125)" xlink:href="#DejaVuSans-49"/>
     </g>
    </g>
    <g id="line2d_53">
     <path d="M 67.775 99.486875 
L 77.775 99.486875 
" style="fill:none;stroke:#bfbf00;stroke-linecap:square;stroke-width:2;"/>
    </g>
    <g id="line2d_54"/>
    <g id="text_25">
     <!-- $V_{D}$ =  1.0e+00 -->
     <defs>
      <path d="M 46 62.703125 
L 46 35.5 
L 73.1875 35.5 
L 73.1875 27.203125 
L 46 27.203125 
L 46 0 
L 37.796875 0 
L 37.796875 27.203125 
L 10.59375 27.203125 
L 10.59375 35.5 
L 37.796875 35.5 
L 37.796875 62.703125 
z
" id="DejaVuSans-43"/>
     </defs>
     <g transform="translate(79.775 102.986875)scale(0.12 -0.12)">
      <use transform="translate(0 0.78125)" xlink:href="#DejaVuSans-Oblique-86"/>
      <use transform="translate(68.408203 -15.625)scale(0.7)" xlink:href="#DejaVuSans-Oblique-68"/>
      <use transform="translate(125.043945 0.78125)" xlink:href="#DejaVuSans-32"/>
      <use transform="translate(156.831055 0.78125)" xlink:href="#DejaVuSans-61"/>
      <use transform="translate(240.620117 0.78125)" xlink:href="#DejaVuSans-32"/>
      <use transform="translate(272.407227 0.78125)" xlink:href="#DejaVuSans-32"/>
      <use transform="translate(304.194336 0.78125)" xlink:href="#DejaVuSans-49"/>
      <use transform="translate(367.817383 0.78125)" xlink:href="#DejaVuSans-46"/>
      <use transform="translate(399.604492 0.78125)" xlink:href="#DejaVuSans-48"/>
      <use transform="translate(463.227539 0.78125)" xlink:href="#DejaVuSans-101"/>
      <use transform="translate(524.750977 0.78125)" xlink:href="#DejaVuSans-43"/>
      <use transform="translate(608.540039 0.78125)" xlink:href="#DejaVuSans-48"/>
      <use transform="translate(672.163086 0.78125)" xlink:href="#DejaVuSans-48"/>
     </g>
    </g>
    <g id="line2d_55">
     <path d="M 67.775 111.100625 
L 77.775 111.100625 
" style="fill:none;stroke:#000000;stroke-linecap:square;stroke-width:2;"/>
    </g>
    <g id="line2d_56"/>
    <g id="text_26">
     <!-- $V_{D}$ =  1.2e+00 -->
     <g transform="translate(79.775 114.600625)scale(0.12 -0.12)">
      <use transform="translate(0 0.78125)" xlink:href="#DejaVuSans-Oblique-86"/>
      <use transform="translate(68.408203 -15.625)scale(0.7)" xlink:href="#DejaVuSans-Oblique-68"/>
      <use transform="translate(125.043945 0.78125)" xlink:href="#DejaVuSans-32"/>
      <use transform="translate(156.831055 0.78125)" xlink:href="#DejaVuSans-61"/>
      <use transform="translate(240.620117 0.78125)" xlink:href="#DejaVuSans-32"/>
      <use transform="translate(272.407227 0.78125)" xlink:href="#DejaVuSans-32"/>
      <use transform="translate(304.194336 0.78125)" xlink:href="#DejaVuSans-49"/>
      <use transform="translate(367.817383 0.78125)" xlink:href="#DejaVuSans-46"/>
      <use transform="translate(394.104492 0.78125)" xlink:href="#DejaVuSans-50"/>
      <use transform="translate(457.727539 0.78125)" xlink:href="#DejaVuSans-101"/>
      <use transform="translate(519.250977 0.78125)" xlink:href="#DejaVuSans-43"/>
      <use transform="translate(603.040039 0.78125)" xlink:href="#DejaVuSans-48"/>
      <use transform="translate(666.663086 0.78125)" xlink:href="#DejaVuSans-48"/>
     </g>
    </g>
    <g id="line2d_57">
     <path d="M 67.775 122.714375 
L 77.775 122.714375 
" style="fill:none;stroke:#ff0000;stroke-linecap:square;stroke-width:2;"/>
    </g>
    <g id="line2d_58"/>
    <g id="text_27">
     <!-- $V_{D}$ =  1.4e+00 -->
     <g transform="translate(79.775 126.214375)scale(0.12 -0.12)">
      <use transform="translate(0 0.78125)" xlink:href="#DejaVuSans-Oblique-86"/>
      <use transform="translate(68.408203 -15.625)scale(0.7)" xlink:href="#DejaVuSans-Oblique-68"/>
      <use transform="translate(125.043945 0.78125)" xlink:href="#DejaVuSans-32"/>
      <use transform="translate(156.831055 0.78125)" xlink:href="#DejaVuSans-61"/>
      <use transform="translate(240.620117 0.78125)" xlink:href="#DejaVuSans-32"/>
      <use transform="translate(272.407227 0.78125)" xlink:href="#DejaVuSans-32"/>
      <use transform="translate(304.194336 0.78125)" xlink:href="#DejaVuSans-49"/>
      <use transform="translate(367.817383 0.78125)" xlink:href="#DejaVuSans-46"/>
      <use transform="translate(399.604492 0.78125)" xlink:href="#DejaVuSans-52"/>
      <use transform="translate(463.227539 0.78125)" xlink:href="#DejaVuSans-101"/>
      <use transform="translate(524.750977 0.78125)" xlink:href="#DejaVuSans-43"/>
      <use transform="translate(608.540039 0.78125)" xlink:href="#DejaVuSans-48"/>
      <use transform="translate(672.163086 0.78125)" xlink:href="#DejaVuSans-48"/>
     </g>
    </g>
    <g id="line2d_59">
     <path d="M 67.775 134.328125 
L 77.775 134.328125 
" style="fill:none;stroke:#0000ff;stroke-linecap:square;stroke-width:2;"/>
    </g>
    <g id="line2d_60"/>
    <g id="text_28">
     <!-- $V_{D}$ =  1.6e+00 -->
     <g transform="translate(79.775 137.828125)scale(0.12 -0.12)">
      <use transform="translate(0 0.78125)" xlink:href="#DejaVuSans-Oblique-86"/>
      <use transform="translate(68.408203 -15.625)scale(0.7)" xlink:href="#DejaVuSans-Oblique-68"/>
      <use transform="translate(125.043945 0.78125)" xlink:href="#DejaVuSans-32"/>
      <use transform="translate(156.831055 0.78125)" xlink:href="#DejaVuSans-61"/>
      <use transform="translate(240.620117 0.78125)" xlink:href="#DejaVuSans-32"/>
      <use transform="translate(272.407227 0.78125)" xlink:href="#DejaVuSans-32"/>
      <use transform="translate(304.194336 0.78125)" xlink:href="#DejaVuSans-49"/>
      <use transform="translate(367.817383 0.78125)" xlink:href="#DejaVuSans-46"/>
      <use transform="translate(399.604492 0.78125)" xlink:href="#DejaVuSans-54"/>
      <use transform="translate(463.227539 0.78125)" xlink:href="#DejaVuSans-101"/>
      <use transform="translate(524.750977 0.78125)" xlink:href="#DejaVuSans-43"/>
      <use transform="translate(608.540039 0.78125)" xlink:href="#DejaVuSans-48"/>
      <use transform="translate(672.163086 0.78125)" xlink:href="#DejaVuSans-48"/>
     </g>
    </g>
    <g id="line2d_61">
     <path d="M 67.775 145.941875 
L 77.775 145.941875 
" style="fill:none;stroke:#008000;stroke-linecap:square;stroke-width:2;"/>
    </g>
    <g id="line2d_62"/>
    <g id="text_29">
     <!-- $V_{D}$ =  1.8e+00 -->
     <g transform="translate(79.775 149.441875)scale(0.12 -0.12)">
      <use transform="translate(0 0.78125)" xlink:href="#DejaVuSans-Oblique-86"/>
      <use transform="translate(68.408203 -15.625)scale(0.7)" xlink:href="#DejaVuSans-Oblique-68"/>
      <use transform="translate(125.043945 0.78125)" xlink:href="#DejaVuSans-32"/>
      <use transform="translate(156.831055 0.78125)" xlink:href="#DejaVuSans-61"/>
      <use transform="translate(240.620117 0.78125)" xlink:href="#DejaVuSans-32"/>
      <use transform="translate(272.407227 0.78125)" xlink:href="#DejaVuSans-32"/>
      <use transform="translate(304.194336 0.78125)" xlink:href="#DejaVuSans-49"/>
      <use transform="translate(367.817383 0.78125)" xlink:href="#DejaVuSans-46"/>
      <use transform="translate(396.979492 0.78125)" xlink:href="#DejaVuSans-56"/>
      <use transform="translate(460.602539 0.78125)" xlink:href="#DejaVuSans-101"/>
      <use transform="translate(522.125977 0.78125)" xlink:href="#DejaVuSans-43"/>
      <use transform="translate(605.915039 0.78125)" xlink:href="#DejaVuSans-48"/>
      <use transform="translate(669.538086 0.78125)" xlink:href="#DejaVuSans-48"/>
     </g>
    </g>
   </g>
  </g>
 </g>
 <defs>
  <clipPath id="p277b6a6b72">
   <rect height="280.3" width="432.425" x="60.775" y="28.8"/>
  </clipPath>
 </defs>
</svg>
